<svg xmlns="http://www.w3.org/2000/svg" width="560" height="217" viewBox="0 0 560 217"><defs><clipPath id="w9qga"><path fill="#fff" d="M0 203.5c0-3.59 3.134-6.5 7-6.5s7 2.91 7 6.5-3.134 6.5-7 6.5-7-2.91-7-6.5z"/></clipPath><clipPath id="w9qgb"><path fill="#fff" d="M486 175c0-3.866 2.91-7 6.5-7s6.5 3.134 6.5 7-2.91 7-6.5 7-6.5-3.134-6.5-7z"/></clipPath><clipPath id="w9qgc"><path fill="#fff" d="M116 136a7 7 0 1 1 14 0 7 7 0 0 1-14 0z"/></clipPath><clipPath id="w9qgd"><path fill="#fff" d="M546 210.5c0-3.59 3.134-6.5 7-6.5s7 2.91 7 6.5-3.134 6.5-7 6.5-7-2.91-7-6.5z"/></clipPath><clipPath id="w9qge"><path fill="#fff" d="M61 168c0-3.866 2.91-7 6.5-7s6.5 3.134 6.5 7-2.91 7-6.5 7-6.5-3.134-6.5-7z"/></clipPath><clipPath id="w9qgf"><path fill="#fff" d="M430 143a7 7 0 1 1 14 0 7 7 0 0 1-14 0z"/></clipPath><clipPath id="w9qgg"><path fill="#fff" d="M258 204a7 7 0 1 1 14 0 7 7 0 0 1-14 0z"/></clipPath></defs><g><g><g><path fill="#2f2f2f" d="M182.197 16.236c.093.679 2.285 16.764 8.892 29.67a.458.458 0 0 1 0 .401c-5.866 11.609-8.954 24.638-8.954 37.697 0 6.144.68 12.288 2.007 18.278.216.988.803 1.822 1.667 2.315a3.61 3.61 0 0 0 2.872.371 60.675 60.675 0 0 1 3.396-.864 3.723 3.723 0 0 0 2.778-4.416c-1.142-5.125-1.698-10.404-1.698-15.684 0-12.35 3.15-24.544 9.108-35.258l.309-.586c.74-1.359.74-3.026-.062-4.354l-.34-.555c-3.92-6.607-6.36-15.221-7.718-21.273-.03-.185.03-.308.093-.37.061-.062.185-.155.34-.124 8.582.988 16.362 3.52 21.395 5.496l9.417 4.199c1.574.71 2.531-.155 2.778-.432 1.173-1.328.34-2.78-.957-4.94-.463-.803-1.08-1.791-1.266-2.347a.543.543 0 0 1 .216-.586c11.702-7.595 25.317-11.578 39.396-11.578 13.862 0 27.293 3.89 38.901 11.269-.092.185-.154.34-.247.525-.216.525-.71 1.327-1.142 2.037-1.173 1.915-2.1 3.397-.926 4.755.308.37 1.235 1.142 2.871.432.741-.34 3.828-1.482 6.051-2.284 1.328-.494 2.532-.927 3.119-1.174l.463-.185c4.816-1.852 12.319-4.23 20.593-5.187.123 0 .247.031.34.124.061.062.154.185.092.401-1.266 5.65-3.52 13.708-7.132 20.223l-.309.555c-.74 1.328-.71 2.964.031 4.292l.34.556a72.833 72.833 0 0 1 9.725 36.37c0 5.125-.556 10.25-1.605 15.251-.278 1.328-.031 2.717.74 3.829a4.972 4.972 0 0 0 3.304 2.1c.463.06.896.153 1.359.246.278.062.555.062.833.062a4.581 4.581 0 0 0 4.477-3.643 84.233 84.233 0 0 0 1.914-17.846 84.176 84.176 0 0 0-9.633-39.024c-.061-.124-.061-.247 0-.402 6.083-12.627 8.151-27.725 8.244-28.342l.185-1.297a4.435 4.435 0 0 0-1.05-3.458A4.341 4.341 0 0 0 344.132 10h-1.328c-11.269 0-21.859 2.84-28.775 5.249-.123.03-.247.03-.37-.062C299.611 5.399 283.094.243 265.897.243c-17.413 0-34.085 5.28-48.226 15.283-.123.092-.247.092-.37.061-7.101-2.531-18.03-5.557-29.64-5.557h-1.327c-1.266 0-2.47.556-3.273 1.482a4.4 4.4 0 0 0-1.05 3.458z"/></g><g><path fill="#2f2f2f" d="M327.367 132.693a5.48 5.48 0 0 0-3.89-1.482c-1.482.062-2.902.71-3.89 1.79-13.77 15.067-33.344 23.712-53.69 23.712-21.026 0-41.032-9.139-54.894-25.07-1.637-1.883-4.354-2.408-6.67-1.266a5.499 5.499 0 0 0-2.901 3.798c-.34 1.698.123 3.396 1.265 4.724 15.962 18.308 38.964 28.805 63.169 28.805 23.433 0 45.971-9.941 61.84-27.323 1.977-2.162 1.884-5.589-.215-7.626z"/></g><g><path fill="#2f2f2f" d="M270.713 113.49c0-1.236-2.161-2.224-4.816-2.224s-4.817.988-4.817 2.223c0 .803.927 1.482 2.285 1.884-1.575 2.099-6.453 7.965-13.029 8.644-4.415.463-8.922-1.574-13.337-6.082a2.376 2.376 0 0 0-3.335-.03 2.376 2.376 0 0 0-.03 3.334c4.94 5.032 10.126 7.564 15.467 7.564.587 0 1.173-.031 1.73-.093 4.013-.401 7.44-2.223 10.157-4.26 1.543.463 3.427.926 4.816.926 1.42 0 3.365-.463 4.97-.926 2.718 2.068 6.176 3.859 10.19 4.291a16.79 16.79 0 0 0 1.76.093c5.31 0 10.496-2.532 15.467-7.564a2.348 2.348 0 0 0-.03-3.335 2.348 2.348 0 0 0-3.335.031c-4.415 4.477-8.923 6.545-13.338 6.082-6.514-.679-11.454-6.514-13.029-8.645 1.328-.4 2.254-1.111 2.254-1.914z"/></g><g><path fill="#2f2f2f" d="M251.139 99.905a6.285 6.285 0 0 1-6.298-6.299 6.285 6.285 0 0 1 6.298-6.298 6.285 6.285 0 0 1 6.298 6.298 6.285 6.285 0 0 1-6.298 6.299zm-3.767-17.475c-6.175 0-11.176 5.001-11.176 11.176s5.001 11.177 11.176 11.177 11.177-5.002 11.177-11.177-5.002-11.176-11.177-11.176z"/></g><g><path fill="#2f2f2f" d="M278.432 98.855a6.285 6.285 0 0 1-6.299-6.298 6.285 6.285 0 0 1 6.299-6.299 6.285 6.285 0 0 1 6.298 6.299 6.285 6.285 0 0 1-6.298 6.298zm86.015 20.253c-13.77-11.948-32.17-14.974-48.133-14.727 7.842-5.99 12.906-15.406 12.906-26.027 0-18.092-14.666-32.726-32.727-32.726-18.092 0-32.727 14.665-32.727 32.726 0 13.894 8.645 25.75 20.84 30.504-1.543.401-2.531.71-2.778.803a2.793 2.793 0 0 0-1.822 3.458 2.793 2.793 0 0 0 3.458 1.821c.494-.154 50.109-15.313 77.402 8.367a2.73 2.73 0 0 0 1.821.68c.772 0 1.544-.31 2.069-.958.988-1.204.864-2.933-.309-3.92z"/></g><g><path fill="#2f2f2f" d="M302.73 115.156c-1.482.37-2.347 1.884-1.976 3.366.37 1.482 1.883 2.346 3.365 1.976.216-.062 22.63-5.65 37.852 13.584a2.81 2.81 0 0 0 2.16 1.05c.587 0 1.205-.185 1.699-.587a2.754 2.754 0 0 0 .463-3.859c-17.413-22.075-42.483-15.807-43.564-15.53z"/></g><g><path fill="#2f2f2f" d="M246.539 114.354c1.45.463 2.994-.34 3.458-1.822.463-1.45-.34-2.995-1.822-3.458-2.161-.679-53.073-16.24-82.65 9.448-1.142.988-1.266 2.748-.278 3.89.556.617 1.297.957 2.069.957a2.73 2.73 0 0 0 1.821-.68c27.262-23.649 76.908-8.49 77.402-8.335z"/></g><g><path fill="#2f2f2f" d="M225.853 119.942a2.77 2.77 0 0 0 3.365-1.976c.37-1.482-.494-2.995-1.976-3.365-1.05-.278-26.15-6.546-43.594 15.499a2.72 2.72 0 0 0 .463 3.859 2.703 2.703 0 0 0 1.698.586 2.81 2.81 0 0 0 2.161-1.05c15.19-19.11 36.957-13.8 37.883-13.553z"/></g></g><g><path fill="none" stroke="#2f2f2f" stroke-miterlimit="20" stroke-width="6" d="M0 203.5c0-3.59 3.134-6.5 7-6.5s7 2.91 7 6.5-3.134 6.5-7 6.5-7-2.91-7-6.5z" clip-path="url(&quot;#w9qga&quot;)"/></g><g><path fill="none" stroke="#2f2f2f" stroke-miterlimit="20" stroke-width="6" d="M486 175c0-3.866 2.91-7 6.5-7s6.5 3.134 6.5 7-2.91 7-6.5 7-6.5-3.134-6.5-7z" clip-path="url(&quot;#w9qgb&quot;)"/></g><g><path fill="none" stroke="#2f2f2f" stroke-miterlimit="20" stroke-width="6" d="M116 136a7 7 0 1 1 14 0 7 7 0 0 1-14 0z" clip-path="url(&quot;#w9qgc&quot;)"/></g><g><path fill="none" stroke="#2f2f2f" stroke-miterlimit="20" stroke-width="6" d="M546 210.5c0-3.59 3.134-6.5 7-6.5s7 2.91 7 6.5-3.134 6.5-7 6.5-7-2.91-7-6.5z" clip-path="url(&quot;#w9qgd&quot;)"/></g><g><path fill="none" stroke="#2f2f2f" stroke-miterlimit="20" stroke-width="6" d="M61 168c0-3.866 2.91-7 6.5-7s6.5 3.134 6.5 7-2.91 7-6.5 7-6.5-3.134-6.5-7z" clip-path="url(&quot;#w9qge&quot;)"/></g><g><path fill="none" stroke="#2f2f2f" stroke-miterlimit="20" stroke-width="6" d="M430 143a7 7 0 1 1 14 0 7 7 0 0 1-14 0z" clip-path="url(&quot;#w9qgf&quot;)"/></g><g><path fill="none" stroke="#2f2f2f" stroke-miterlimit="20" stroke-width="6" d="M258 204a7 7 0 1 1 14 0 7 7 0 0 1-14 0z" clip-path="url(&quot;#w9qgg&quot;)"/></g></g></svg>