<svg xmlns="http://www.w3.org/2000/svg" width="136" height="136" viewBox="0 0 136 136"><g><g><g><path fill="#faab2c" d="M80.915 67.772c0 7.133-5.782 12.915-12.915 12.915-7.133 0-12.915-5.782-12.915-12.915 0-7.133 5.782-12.915 12.915-12.915 7.133 0 12.915 5.782 12.915 12.915z"/></g><g><path fill="#faab2c" d="M88.682 51.74a4.65 4.65 0 1 1 0-9.3 4.65 4.65 0 0 1 0 9.3zM68 87.668c-10.989 0-19.897-8.907-19.897-19.896 0-10.988 8.908-19.895 19.897-19.895 10.988 0 19.895 8.907 19.895 19.895 0 10.989-8.907 19.896-19.895 19.896zm30.204-42.746a12.004 12.004 0 0 0-2.899-4.455 11.996 11.996 0 0 0-4.455-2.898c-1.365-.53-3.416-1.162-7.193-1.334-4.087-.186-5.312-.226-15.657-.226-10.346 0-11.571.039-15.657.225-3.777.173-5.83.804-7.193 1.335a11.988 11.988 0 0 0-4.455 2.898 12.012 12.012 0 0 0-2.9 4.455c-.53 1.365-1.16 3.417-1.333 7.194-.186 4.086-.226 5.311-.226 15.657 0 10.345.04 11.57.226 15.657.172 3.777.803 5.828 1.333 7.194a12.01 12.01 0 0 0 2.899 4.455 11.997 11.997 0 0 0 4.455 2.898c1.365.531 3.417 1.162 7.194 1.334 4.086.186 5.31.226 15.656.226 10.347 0 11.572-.04 15.657-.226 3.777-.172 5.83-.803 7.194-1.334a12.83 12.83 0 0 0 7.354-7.353c.53-1.366 1.161-3.417 1.334-7.194.186-4.086.225-5.312.225-15.657 0-10.346-.039-11.571-.225-15.657-.172-3.777-.803-5.829-1.334-7.194z"/></g><g><path fill="#faab2c" d="M106.511 83.746c-.187 4.124-.843 6.94-1.8 9.405a19.811 19.811 0 0 1-11.332 11.331c-2.464.958-5.28 1.613-9.404 1.801-4.132.189-5.452.234-15.974.234-10.523 0-11.842-.045-15.975-.234-4.123-.188-6.94-.843-9.404-1.8a18.982 18.982 0 0 1-6.863-4.47 18.989 18.989 0 0 1-4.469-6.862c-.957-2.464-1.613-5.28-1.8-9.404-.19-4.133-.235-5.453-.235-15.975 0-10.522.044-11.842.234-15.974.187-4.124.842-6.94 1.8-9.405a18.98 18.98 0 0 1 4.47-6.862 18.978 18.978 0 0 1 6.862-4.47c2.465-.957 5.28-1.612 9.405-1.8 4.132-.189 5.452-.234 15.974-.234s11.842.045 15.974.235c4.124.187 6.94.842 9.405 1.798a18.994 18.994 0 0 1 6.863 4.47 18.984 18.984 0 0 1 4.468 6.863c.959 2.465 1.614 5.28 1.802 9.405.189 4.132.233 5.452.233 15.974s-.044 11.842-.234 15.974zM68 .298C30.74.298.526 30.513.526 67.772c0 37.26 30.215 67.474 67.474 67.474 37.26 0 67.474-30.215 67.474-67.474C135.474 30.512 105.26.298 68 .298z"/></g></g></g></svg>