<svg xmlns="http://www.w3.org/2000/svg" width="170" height="68" viewBox="0 0 170 68"><g><g><g><g><path fill="#303030" d="M70.739 24.073c-.319.141-.849.212-1.591.212h-2.51c-.141 0-.212-.07-.283-.141a.655.655 0 0 1-.07-.248v-1.343c0-.07 0-.177.07-.248.071-.07.142-.106.283-.106h2.51c.742 0 1.272.071 1.59.213.319.106.495.388.495.777 0 .424-.176.743-.494.884zm-4.49-7.848c0-.07 0-.176.07-.247.072-.07.142-.106.284-.106h8.307c.6 0 .99-.106 1.237-.354.248-.247.354-.671.354-1.237v-.99c0-.6-.106-.99-.354-1.237-.247-.247-.636-.353-1.237-.353H62.89c-.566 0-.99.106-1.237.353-.248.212-.389.601-.389 1.096v13.433c0 .6.141 1.06.46 1.378.318.319.777.46 1.449.46h5.868c2.722 0 4.63-.389 5.762-1.167 1.131-.777 1.697-2.12 1.697-4.03 0-1.908-.566-3.252-1.697-4.03-1.131-.812-3.04-1.201-5.762-1.201h-2.44c-.14 0-.211-.035-.282-.106a.654.654 0 0 1-.07-.248z"/></g><g><path fill="#303030" d="M88.66 21.139h-2.12l1.06-3.04zm-2.226-9.51c-.672 0-1.131.107-1.379.354-.247.248-.46.637-.636 1.238l-4.383 12.584c-.142.424-.248.813-.319 1.131 0 .495.106.884.354 1.096.212.212.636.354 1.202.354h1.414c.565 0 .99-.107 1.237-.354.247-.212.46-.6.6-1.096l.46-1.378h5.197l.46 1.378c.14.495.353.849.6 1.096.248.247.672.354 1.238.354h1.413c.566 0 .955-.142 1.202-.354.248-.247.354-.6.354-1.096-.036-.318-.177-.707-.318-1.13L90.746 13.22c-.176-.601-.388-.99-.636-1.238-.247-.247-.707-.353-1.379-.353z"/></g><g><path fill="#303030" d="M108.669 17.392c0 .46-.177.813-.495.954-.318.177-.849.283-1.591.283h-2.51c-.141 0-.212-.035-.283-.106a.654.654 0 0 1-.07-.247v-1.768c0-.07 0-.177.07-.247.071-.106.142-.142.283-.142h2.51c.742 0 1.273.106 1.59.283.319.177.496.53.496.99zm-4.596 5.656h2.44c2.721 0 4.63-.495 5.761-1.45 1.131-.954 1.697-2.368 1.697-4.206 0-1.874-.566-3.288-1.697-4.242-1.13-.954-3.04-1.45-5.762-1.45h-5.868c-.671 0-1.13.142-1.449.46-.318.318-.46.778-.46 1.379v13.397c0 .495.142.849.39 1.096.247.248.67.354 1.236.354h1.803c.566 0 .955-.142 1.202-.354.248-.247.354-.6.354-1.096v-3.5c0-.07 0-.176.07-.247.071-.07.142-.106.283-.106z"/></g><g><path fill="#303030" d="M122.42 21.174c0 .849.141 1.414.424 1.733.283.318.848.459 1.626.459h1.096c.813 0 1.378-.106 1.661-.318.283-.212.424-.53.46-.955 0-.53.106-.919.353-1.166.248-.248.636-.354 1.202-.354h1.909c.6 0 .99.106 1.202.354.212.247.318.636.318 1.166 0 2.404-.53 4.03-1.626 4.95-1.096.918-2.793 1.343-5.161 1.343h-1.626c-2.404-.036-4.136-.495-5.197-1.379-1.06-.884-1.626-2.545-1.626-4.914v-4.03c0-2.403.53-4.065 1.626-4.984 1.06-.919 2.793-1.378 5.197-1.378h1.626c2.368 0 4.1.46 5.16 1.378 1.097.92 1.627 2.546 1.627 4.914 0 .6-.106.99-.318 1.202-.212.212-.636.318-1.202.318h-1.909c-.566 0-.954-.106-1.167-.318-.212-.212-.353-.636-.353-1.202 0-.389-.141-.707-.424-.92-.283-.211-.849-.353-1.697-.353h-1.096c-.813 0-1.343.177-1.626.46-.283.283-.424.884-.424 1.732v2.262z"/></g><g><path fill="#303030" d="M136.17 13.291c0-.6.142-.99.39-1.237.247-.247.706-.353 1.378-.353h1.343c.566 0 .99.141 1.202.353.248.212.354.636.354 1.202v6.822l5.797-7.564c.106-.142.283-.318.495-.53.212-.213.671-.319 1.343-.319h1.343c.566 0 .99.142 1.202.354.248.212.354.636.354 1.202v13.645c0 .494-.142.883-.389 1.095-.248.248-.672.354-1.237.354h-1.52c-.566 0-.99-.142-1.202-.354-.248-.212-.354-.6-.354-1.095v-6.858l-5.797 7.458a3.263 3.263 0 0 1-.495.53c-.212.213-.6.284-1.202.284h-1.485c-.565 0-.99-.142-1.201-.354-.248-.212-.354-.6-.354-1.096V13.291z"/></g><g><path fill="#303030" d="M160.031 13.291v4.313l4.136-5.48c.248-.317.637-.459 1.202-.423h3.783c.424 0 .671.07.777.212.106.141.036.389-.176.671l-5.586 7.424 5.586 7.423c.247.283.282.53.176.672-.106.177-.353.247-.777.212h-3.783c-.565.035-.954-.106-1.202-.424l-4.136-5.48v4.455c0 .494-.106.848-.353 1.095-.248.212-.636.354-1.202.354h-1.98c-.565 0-.99-.106-1.237-.354-.247-.247-.389-.6-.389-1.095V13.22c0-.601.106-.99.354-1.202.247-.212.636-.354 1.202-.354h1.838c.672 0 1.131.106 1.379.354.247.283.388.671.388 1.272z"/></g></g><g><g><path fill="#303030" d="M75.688 51.292c-.495.212-1.308.318-2.44.318h-3.817c-.212 0-.354-.07-.424-.212a.589.589 0 0 1-.142-.389v-2.015a.74.74 0 0 1 .142-.389c.07-.106.212-.176.424-.176h3.818c1.13 0 1.944.106 2.439.318.495.212.742.6.742 1.202 0 .707-.247 1.13-.742 1.343zm-6.858-9.756V39.45c0-.141.07-.283.141-.389.071-.106.212-.177.424-.177h12.656c.883 0 1.52-.176 1.873-.565.354-.39.53-.99.53-1.874v-1.52c0-.884-.176-1.485-.53-1.873-.353-.39-.99-.566-1.873-.566H63.775c-.884 0-1.485.177-1.874.53-.388.39-.565.92-.6 1.697V55.18c0 .92.247 1.627.706 2.086.46.46 1.202.707 2.192.707h8.943c4.136 0 7.07-.6 8.767-1.803 1.697-1.202 2.545-3.252 2.545-6.15 0-2.864-.848-4.914-2.545-6.116s-4.63-1.803-8.767-1.803h-3.711c-.212 0-.354-.07-.424-.177a.589.589 0 0 1-.142-.388z"/></g><g><path fill="#303030" d="M97.392 42.56c0-1.307.248-2.19.672-2.65.424-.46 1.237-.707 2.474-.707h1.768c1.202 0 2.05.247 2.474.706.46.46.672 1.344.672 2.652v5.267c0 1.272-.248 2.156-.672 2.616-.424.46-1.237.707-2.474.707h-1.768c-1.202 0-2.05-.248-2.474-.707-.46-.46-.672-1.344-.672-2.616zm5.232 15.307c3.641-.035 6.292-.742 7.918-2.086 1.626-1.343 2.44-3.853 2.44-7.494v-6.115c0-3.676-.814-6.222-2.44-7.6-1.661-1.379-4.277-2.086-7.918-2.086h-2.475c-3.64 0-6.292.707-7.918 2.086-1.626 1.378-2.439 3.924-2.439 7.6v6.115c0 3.641.813 6.151 2.44 7.494 1.66 1.344 4.276 2.05 7.917 2.086z"/></g><g><path fill="#303030" d="M126.202 34.89v6.575l6.328-8.343c.388-.46.99-.671 1.838-.636h5.726c.637-.035 1.026.106 1.167.354.141.247.07.6-.283 1.06l-8.484 11.312 8.484 11.312c.354.46.46.777.283 1.06-.141.248-.566.354-1.167.354h-5.726c-.849.035-1.45-.177-1.838-.637l-6.328-8.342v6.752c.035.777-.141 1.308-.53 1.661-.354.354-.99.53-1.838.53h-3.04c-.884.036-1.485-.141-1.874-.53s-.566-.919-.6-1.697V34.89c-.036-.884.14-1.52.53-1.838.353-.354.99-.53 1.837-.53h2.828c1.026-.036 1.733.14 2.086.53.389.318.566.954.601 1.838z"/></g><g><path fill="#303030" d="M154.41 46.909c0 1.272.213 2.156.673 2.616.46.46 1.272.707 2.474.707h1.626c1.273 0 2.121-.177 2.545-.495.424-.319.672-.813.707-1.45 0-.813.177-1.414.53-1.767.354-.389.955-.566 1.803-.566h2.899c.884 0 1.52.177 1.838.566.318.389.495.954.495 1.767 0 3.641-.813 6.151-2.474 7.53-1.662 1.378-4.278 2.05-7.883 2.05h-2.44c-3.64-.035-6.256-.742-7.918-2.086-1.626-1.343-2.439-3.853-2.439-7.494v-6.115c0-3.676.813-6.222 2.44-7.6 1.625-1.379 4.277-2.086 7.917-2.086h2.44c3.605 0 6.221.707 7.883 2.086 1.66 1.378 2.474 3.888 2.474 7.494 0 .884-.177 1.52-.495 1.838-.318.318-.954.495-1.838.495h-2.899c-.848 0-1.449-.177-1.767-.495-.318-.318-.53-.954-.566-1.838 0-.601-.212-1.06-.671-1.414-.46-.354-1.308-.53-2.546-.53h-1.626c-1.237.035-2.05.247-2.474.707-.424.46-.672 1.343-.672 2.615v3.465z"/></g></g><g><path fill="#faab2c" d="M49.812 62.356l-.636.071-18.17 2.192-.778.106V37.046l1.308 2.05 5.691 8.944c.248.389.672.6 1.096.6h11.489zm-22.27-22.8V64.76l-.778-.106-18.17-2.192-.636-.07v-13.68h11.489c.46 0 .848-.213 1.095-.601l5.656-8.908 1.308-2.05v2.403zm30.153 7.282l-5.373-12.125a1.324 1.324 0 0 0-.566-.6l-1.166 3.18 3.464 7.778.46.99H39.065l-.212-.319-6.54-10.286-.813-1.273 1.485.177 8.59 1.025c-.071-.742-.107-1.626.07-2.651l-12.584-1.52H28.744l-12.55 1.52c.213.883.248 1.838.283 2.615l8.378-1.025 1.485-.176-.813 1.272-6.54 10.287-.212.318H3.327l.46-.99 3.57-8.06L5.98 35.81l-.354-1.343c-.035.07-.106.141-.141.212L.11 46.838c-.176.424-.141.884.107 1.237.247.39.671.601 1.095.601h4.066v14.847c0 .672.494 1.237 1.166 1.308l22.2 2.686h.388l22.2-2.686a1.305 1.305 0 0 0 1.166-1.308V48.676h4.066c.46 0 .848-.212 1.095-.6.177-.354.212-.814.036-1.238z"/></g><g><path fill="#ff9d00" d="M50.978 35.102c-.141.601-.389 1.025-.742 1.379-.247.247-.672.035-.6-.319l.105-.777c.07-.495-.283-.92-.778-.99-.494-.07-.919.283-.99.778l-.176 1.555c-.035.212-.212.354-.424.318h-.036c-.212-.035-.318-.212-.283-.424l.283-1.59c.071-.496-.247-.955-.707-1.026-.495-.07-.954.248-1.025.707l-.247 1.45a.276.276 0 0 1-.142-.142c-.388-.389-.46-1.273-.176-2.156.318-.955.954-1.662 1.59-1.768 1.202-.176 3.288-.106 4.172.884.318.495.424 1.167.176 2.121zm1.025-3.287c-1.343-1.485-3.923-1.697-5.726-1.45-1.308.177-2.475 1.343-3.005 2.97-.53 1.555-.283 3.11.601 3.994.884.884 2.616 1.626 4.348 1.626.46 0 .954-.07 1.414-.177 1.096-.282 2.51-1.095 3.04-3.216.495-1.945-.07-3.111-.672-3.747z"/></g><g><path fill="#ff9d00" d="M7.145 33.228c.848-.954 2.97-1.06 4.171-.883.637.106 1.273.813 1.591 1.767.283.884.212 1.768-.177 2.157-.035.035-.106.07-.141.141l-.248-1.45a.84.84 0 0 0-1.025-.706.84.84 0 0 0-.707 1.025l.283 1.59a.367.367 0 0 1-.283.425h-.035c-.212.035-.424-.106-.424-.318l-.177-1.556c-.07-.495-.495-.848-.99-.778-.495.071-.848.495-.778.99l.107.778c.035.353-.354.566-.601.318-.354-.318-.601-.778-.743-1.379-.353-.954-.247-1.661.177-2.12zm-1.98 2.546c.566 2.12 1.98 2.934 3.04 3.216.46.106.92.177 1.414.177 1.733 0 3.465-.742 4.348-1.626.884-.884 1.096-2.404.601-3.994-.53-1.626-1.696-2.758-3.004-2.97-1.803-.283-4.419-.035-5.727 1.45-.6.671-1.202 1.838-.672 3.747z"/></g><g><g><path fill="#faab2c" d="M9.938 3.641c.035.141.53 3.782 2.015 6.716v.071a19.23 19.23 0 0 0-2.015 8.52c0 1.378.141 2.792.46 4.135a.74.74 0 0 0 .388.53.794.794 0 0 0 .636.071c.248-.07.495-.141.778-.212.46-.106.742-.566.636-.99a17.185 17.185 0 0 1-.389-3.535c0-2.792.707-5.55 2.05-7.989l.071-.141a.99.99 0 0 0 0-.99l-.07-.141c-.884-1.485-1.45-3.465-1.732-4.808 0-.035 0-.07.035-.07 0 0 .035-.036.07-.036 1.945.212 3.712.813 4.844 1.237l2.12.955c.354.177.566-.035.637-.106.283-.283.07-.637-.212-1.131-.106-.177-.248-.425-.283-.53 0-.036 0-.107.035-.142 2.651-1.732 5.727-2.616 8.908-2.616 3.146 0 6.186.884 8.802 2.545-.035.036-.035.071-.035.106-.035.106-.177.283-.247.46-.283.424-.46.778-.213 1.06.071.071.283.248.637.106.176-.07.848-.318 1.378-.53.318-.106.566-.212.707-.247l.106-.036c1.096-.424 2.793-.954 4.667-1.166.035 0 .07 0 .07.035 0 0 .036.036.036.106-.283 1.273-.813 3.111-1.627 4.596l-.07.141a.99.99 0 0 0 0 .99l.07.141a16.418 16.418 0 0 1 2.192 8.237c0 1.166-.106 2.333-.353 3.464-.071.318 0 .6.176.884.177.247.425.424.743.46.106 0 .212.035.318.035h.177c.495 0 .919-.319 1.025-.814.283-1.307.424-2.686.424-4.03 0-3.075-.742-6.115-2.192-8.837v-.106c1.379-2.863 1.839-6.257 1.874-6.433l.035-.283a.911.911 0 0 0-.247-.778.995.995 0 0 0-.743-.353h-.282c-2.546 0-4.95.636-6.505 1.202h-.07A18.773 18.773 0 0 0 28.956 0a18.83 18.83 0 0 0-10.923 3.464c-.036.036-.071.036-.071 0-1.626-.565-4.065-1.272-6.716-1.272h-.283c-.283 0-.566.106-.743.353a1.035 1.035 0 0 0-.247.778z"/></g><g><path fill="#faab2c" d="M29.98 25.664c0-.283-.494-.495-1.095-.495s-1.096.212-1.096.495c0 .176.212.353.53.424-.353.46-1.449 1.803-2.934 1.944-.99.106-2.015-.353-3.004-1.379a.512.512 0 0 0-.743 0 .512.512 0 0 0 0 .743c1.132 1.131 2.298 1.697 3.5 1.697.141 0 .247 0 .389-.036.919-.106 1.696-.495 2.298-.954.353.106.777.212 1.095.212.318 0 .778-.106 1.131-.212.601.46 1.414.883 2.298.954.142 0 .248.036.389.036 1.202 0 2.368-.566 3.5-1.697.212-.212.212-.566 0-.743-.212-.212-.566-.212-.743 0-.99 1.026-2.015 1.485-3.004 1.38-1.485-.142-2.58-1.486-2.97-1.945.248-.106.46-.248.46-.424z"/></g><g><path fill="#faab2c" d="M25.562 22.588a1.418 1.418 0 0 1-1.414-1.414c0-.777.636-1.414 1.414-1.414.778 0 1.414.637 1.414 1.414 0 .778-.636 1.414-1.414 1.414zm-.848-3.959a2.535 2.535 0 0 0-2.545 2.545 2.535 2.535 0 0 0 2.545 2.545 2.535 2.535 0 0 0 2.545-2.545c-.035-1.414-1.167-2.545-2.545-2.545z"/></g><g><path fill="#faab2c" d="M31.748 22.34a1.418 1.418 0 0 1-1.414-1.413c0-.778.636-1.414 1.414-1.414.778 0 1.414.636 1.414 1.414 0 .778-.636 1.414-1.414 1.414zm19.478 4.596c-3.111-2.722-7.282-3.393-10.888-3.323a7.433 7.433 0 0 0 2.934-5.903c0-4.1-3.323-7.423-7.423-7.423a7.422 7.422 0 0 0-7.424 7.423 7.347 7.347 0 0 0 4.737 6.893c-.353.106-.565.177-.636.177-.318.106-.495.46-.424.778.106.318.46.495.777.424.106-.035 11.348-3.464 17.534 1.909.106.106.247.141.424.141a.57.57 0 0 0 .46-.212c.212-.283.176-.672-.071-.884z"/></g><g><path fill="#faab2c" d="M37.227 26.017c-.318.07-.53.424-.46.778.072.318.425.53.779.46.035 0 5.125-1.273 8.59 3.075a.675.675 0 0 0 .494.247.532.532 0 0 0 .39-.141c.282-.212.317-.601.105-.884-3.959-4.984-9.65-3.57-9.898-3.535z"/></g><g><path fill="#faab2c" d="M24.502 25.84a.612.612 0 0 0 .777-.424.612.612 0 0 0-.424-.778c-.495-.14-12.019-3.676-18.7 2.157a.655.655 0 0 0-.07.884.57.57 0 0 0 .46.212.68.68 0 0 0 .423-.142c6.186-5.373 17.428-1.944 17.534-1.909z"/></g><g><path fill="#faab2c" d="M19.836 27.113a.663.663 0 0 0 .777-.46.663.663 0 0 0-.46-.777c-.247-.07-5.903-1.485-9.862 3.5-.212.282-.177.671.106.883a.532.532 0 0 0 .389.142c.177 0 .354-.071.495-.248 3.393-4.277 8.342-3.075 8.555-3.04z"/></g></g><g><g><path fill="#ff9d00" d="M42.707 31.991l.212-.212a1.26 1.26 0 0 0-.036-1.732l-.035-.035c-.247-.212-.566-.354-.884-.318-.318 0-.671.176-.883.424a21.719 21.719 0 0 1-1.591 1.52z"/></g><g><path fill="#ff9d00" d="M15.31 32.203l3.182-.46a15.469 15.469 0 0 1-2.05-1.979c-.354-.424-.99-.53-1.52-.282-.354.176-.566.494-.672.848-.07.389.036.778.283 1.06.283.283.53.566.778.813z"/></g></g></g></g></svg>