<svg xmlns="http://www.w3.org/2000/svg" width="356" height="265" viewBox="0 0 356 265"><g><g><g><g><path fill="#faab2c" d="M32.776 151.226c0 1.388-.579 2.43-1.62 2.892-1.041.463-2.776.695-5.206.695h-8.213c-.463 0-.694-.232-.926-.463-.115-.232-.231-.579-.231-.81v-4.396c0-.231 0-.579.231-.81.232-.231.463-.347.926-.347h8.213c2.43 0 4.165.231 5.206.694 1.041.347 1.62 1.273 1.62 2.545zm-16.312-22.79c0-.231 0-.578.231-.81.232-.23.463-.347.926-.347h27.186c1.967 0 3.24-.346 4.049-1.156.81-.81 1.157-2.198 1.157-4.05v-3.239c0-1.966-.347-3.239-1.157-4.048-.81-.81-2.082-1.157-4.05-1.157H5.475c-1.85 0-3.24.347-4.049 1.157-.81.694-1.272 1.966-1.272 3.586v43.96c0 1.967.462 3.47 1.503 4.512 1.042 1.04 2.546 1.504 4.744 1.504h19.203c8.908 0 15.155-1.273 18.857-3.818s5.553-6.941 5.553-13.188c0-6.247-1.851-10.643-5.553-13.188-3.702-2.66-9.949-3.934-18.857-3.934h-7.982c-.463 0-.694-.115-.926-.346-.115-.232-.23-.579-.23-.81z"/></g><g><path fill="#faab2c" d="M89.809 144.516h-6.942l3.47-9.949zm-7.289-31.119c-2.198 0-3.701.347-4.512 1.157-.809.81-1.503 2.082-2.082 4.049l-14.345 41.184a37.982 37.982 0 0 0-1.04 3.702c0 1.62.346 2.892 1.156 3.586.694.694 2.082 1.157 3.933 1.157h4.628c1.85 0 3.239-.348 4.049-1.157.81-.694 1.503-1.967 1.967-3.586l1.503-4.512h17.006l1.504 4.512c.463 1.62 1.157 2.776 1.966 3.586.81.81 2.199 1.157 4.05 1.157h4.627c1.851 0 3.123-.463 3.933-1.157.81-.81 1.157-1.967 1.157-3.586-.116-1.042-.578-2.314-1.04-3.702l-14.346-41.184c-.578-1.967-1.273-3.24-2.082-4.05-.81-.809-2.314-1.156-4.512-1.156z"/></g><g><path fill="#faab2c" d="M155.286 132.254c0 1.504-.578 2.66-1.619 3.124-1.041.578-2.776.925-5.206.925h-8.213c-.463 0-.695-.116-.926-.347-.116-.231-.231-.578-.231-.81v-5.784c0-.232 0-.579.231-.81.231-.347.463-.463.926-.463h8.213c2.43 0 4.165.347 5.206.926 1.041.578 1.62 1.735 1.62 3.239zm-15.038 18.51h7.982c8.907 0 15.154-1.62 18.856-4.744 3.702-3.123 5.553-7.75 5.553-13.766 0-6.131-1.85-10.759-5.553-13.882-3.702-3.124-9.949-4.743-18.856-4.743h-19.204c-2.198 0-3.702.462-4.743 1.504-1.041 1.04-1.504 2.545-1.504 4.511v43.845c0 1.62.463 2.776 1.273 3.586.81.81 2.198 1.157 4.048 1.157h5.9c1.852 0 3.124-.463 3.934-1.157.81-.81 1.157-1.966 1.157-3.586v-11.453c0-.231 0-.578.231-.81.231-.231.463-.347.926-.347z"/></g><g><path fill="#faab2c" d="M200.288 144.632c0 2.777.463 4.627 1.388 5.669.926 1.041 2.777 1.504 5.321 1.504h3.587c2.66 0 4.512-.347 5.437-1.041.925-.695 1.388-1.736 1.504-3.124 0-1.735.347-3.008 1.157-3.818s2.082-1.157 3.933-1.157h6.247c1.967 0 3.24.348 3.933 1.157.695.81 1.042 2.082 1.042 3.818 0 7.867-1.736 13.188-5.322 16.196-3.586 3.008-9.14 4.396-16.89 4.396h-5.322c-7.866-.116-13.534-1.62-17.005-4.512-3.47-2.892-5.322-8.33-5.322-16.08v-13.188c0-7.866 1.736-13.304 5.322-16.312 3.47-3.007 9.139-4.511 17.005-4.511h5.322c7.751 0 13.42 1.504 16.89 4.511 3.586 3.008 5.322 8.33 5.322 16.08 0 1.967-.347 3.24-1.042 3.934-.694.694-2.082 1.041-3.933 1.041h-6.247c-1.85 0-3.123-.347-3.818-1.041-.694-.694-1.157-2.082-1.157-3.933 0-1.273-.462-2.314-1.388-3.008-.925-.694-2.776-1.157-5.553-1.157h-3.586c-2.66 0-4.396.578-5.321 1.504-.926.925-1.388 2.892-1.388 5.668v7.404z"/></g><g><path fill="#faab2c" d="M245.29 118.835c0-1.967.462-3.24 1.272-4.05.81-.81 2.313-1.156 4.511-1.156h4.396c1.852 0 3.24.462 3.934 1.157.81.694 1.157 2.082 1.157 3.933v22.327l18.972-24.757c.347-.462.925-1.04 1.62-1.735.694-.694 2.198-1.041 4.396-1.041h4.396c1.85 0 3.239.463 3.933 1.157.81.694 1.157 2.082 1.157 3.933v44.655c0 1.62-.463 2.892-1.272 3.586-.81.81-2.199 1.157-4.05 1.157h-4.974c-1.85 0-3.24-.463-3.934-1.157-.81-.694-1.156-1.967-1.156-3.586v-22.443l-18.973 24.409c-.347.463-.925 1.157-1.619 1.735-.694.695-1.967.926-3.934.926h-4.858c-1.851 0-3.24-.463-3.934-1.157-.81-.694-1.157-1.967-1.157-3.586v-44.307z"/></g><g><path fill="#faab2c" d="M323.377 118.835v14.113l13.535-17.931c.81-1.041 2.082-1.504 3.933-1.388h12.379c1.388 0 2.198.231 2.545.694.347.463.115 1.272-.579 2.198l-18.278 24.294 18.278 24.293c.81.926.926 1.736.579 2.199-.347.578-1.157.81-2.545.694h-12.379c-1.85.115-3.123-.347-3.933-1.389l-13.535-17.93v14.576c0 1.62-.347 2.776-1.157 3.586-.81.694-2.083 1.157-3.934 1.157h-6.478c-1.85 0-3.239-.347-4.049-1.157-.81-.81-1.272-1.967-1.272-3.586v-44.655c0-1.966.347-3.239 1.157-3.933s2.082-1.157 3.933-1.157h6.016c2.198 0 3.701.347 4.511 1.157.81.925 1.273 2.198 1.273 4.165z"/></g></g><g><g><path fill="#faab2c" d="M49.782 238.8c0 2.314-.81 3.701-2.43 4.396-1.62.693-4.28 1.04-7.982 1.04H26.876c-.694 0-1.156-.23-1.388-.693-.347-.463-.463-.81-.463-1.273v-6.594c0-.463.232-.925.463-1.272.232-.347.694-.579 1.388-.579H39.37c3.702 0 6.363.347 7.983 1.041 1.62.695 2.429 1.967 2.429 3.934zM24.91 211.267v-6.826c0-.463.231-.926.462-1.273.232-.347.695-.578 1.389-.578h41.415c2.892 0 4.974-.578 6.131-1.85 1.157-1.273 1.735-3.24 1.735-6.132v-4.975c0-2.892-.578-4.858-1.735-6.13-1.157-1.273-3.239-1.852-6.131-1.852H8.366c-2.891 0-4.858.579-6.13 1.736-1.273 1.272-1.852 3.007-1.967 5.553v66.98c0 3.009.81 5.323 2.313 6.826 1.504 1.504 3.934 2.314 7.173 2.314h29.268c13.535 0 23.137-1.966 28.69-5.9 5.553-3.933 8.33-10.643 8.33-20.129 0-9.37-2.777-16.08-8.33-20.013-5.553-3.934-15.155-5.9-28.69-5.9H26.876c-.694 0-1.156-.232-1.388-.579-.347-.462-.463-.81-.463-1.272z"/></g><g><path fill="#faab2c" d="M118.383 214.621c0-4.28.81-7.172 2.198-8.676 1.388-1.504 4.049-2.313 8.098-2.313h5.784c3.933 0 6.71.81 8.098 2.313 1.504 1.504 2.198 4.396 2.198 8.676v17.238c0 4.164-.81 7.057-2.198 8.56-1.388 1.504-4.049 2.314-8.098 2.314h-5.784c-3.933 0-6.71-.81-8.098-2.314-1.504-1.503-2.198-4.396-2.198-8.56zm17.122 50.092c11.915-.116 20.591-2.43 25.913-6.825 5.321-4.397 7.982-12.61 7.982-24.526V213.35c0-12.031-2.66-20.36-7.982-24.872-5.437-4.512-13.998-6.826-25.913-6.826h-8.099c-11.915 0-20.592 2.314-25.913 6.826-5.321 4.511-7.982 12.84-7.982 24.872v20.013c0 11.916 2.66 20.13 7.982 24.526 5.437 4.396 13.998 6.71 25.913 6.825z"/></g><g><path fill="#faab2c" d="M212.666 189.518v21.517l20.708-27.301c1.272-1.504 3.239-2.198 6.016-2.083h18.74c2.083-.115 3.355.347 3.818 1.157.463.81.232 1.967-.925 3.47l-27.765 37.02 27.765 37.02c1.157 1.503 1.503 2.544.925 3.47-.463.81-1.851 1.156-3.818 1.156h-18.74c-2.777.116-4.744-.578-6.016-2.082l-20.708-27.301v22.095c.116 2.545-.462 4.28-1.735 5.438-1.157 1.156-3.24 1.735-6.016 1.735h-9.949c-2.892.115-4.859-.463-6.13-1.735-1.273-1.273-1.852-3.008-1.967-5.553v-68.023c-.116-2.892.463-4.975 1.735-6.016 1.157-1.156 3.239-1.735 6.015-1.735h9.255c3.355-.116 5.669.463 6.825 1.735 1.273 1.041 1.852 3.124 1.967 6.016z"/></g><g><path fill="#faab2c" d="M304.983 228.85c0 4.165.694 7.057 2.198 8.562 1.504 1.504 4.165 2.313 8.098 2.313h5.321c4.165 0 6.941-.578 8.33-1.62 1.388-1.04 2.198-2.66 2.313-4.742 0-2.661.578-4.628 1.736-5.785 1.157-1.272 3.123-1.85 5.9-1.85h9.486c2.892 0 4.974.578 6.015 1.85 1.041 1.273 1.62 3.124 1.62 5.785 0 11.915-2.661 20.129-8.098 24.64-5.437 4.512-13.998 6.71-25.798 6.71h-7.982c-11.915-.116-20.476-2.43-25.914-6.825-5.321-4.397-7.982-12.61-7.982-24.526V213.35c0-12.031 2.661-20.36 7.982-24.872 5.322-4.512 13.999-6.826 25.914-6.826h7.982c11.8 0 20.361 2.314 25.798 6.826 5.437 4.512 8.098 12.725 8.098 24.525 0 2.892-.579 4.974-1.62 6.016-1.041 1.04-3.123 1.62-6.015 1.62h-9.487c-2.776 0-4.742-.58-5.784-1.62-1.041-1.042-1.735-3.124-1.85-6.016 0-1.967-.695-3.47-2.199-4.627-1.504-1.157-4.28-1.736-8.33-1.736h-5.32c-4.05.116-6.71.81-8.099 2.314-1.388 1.504-2.198 4.396-2.198 8.56v11.338z"/></g></g><g><path fill="#373737" d="M240.488 115.106c-.463 1.967-1.273 3.355-2.43 4.512-.81.81-2.198.115-1.966-1.042l.347-2.545c.231-1.62-.926-3.008-2.545-3.239-1.62-.231-3.008.926-3.24 2.545l-.578 5.09c-.115.695-.694 1.157-1.388 1.042h-.116c-.694-.116-1.041-.694-.925-1.389l.925-5.205c.232-1.62-.81-3.124-2.313-3.355-1.62-.232-3.124.81-3.355 2.313l-.81 4.743a.902.902 0 0 1-.463-.462c-1.272-1.273-1.504-4.165-.578-7.057 1.041-3.124 3.123-5.437 5.206-5.784 3.933-.579 10.758-.347 13.65 2.892 1.041 1.62 1.389 3.817.579 6.94zm3.355-10.759c-4.396-4.859-12.842-5.553-18.741-4.743-4.28.578-8.098 4.396-9.834 9.718-1.735 5.09-.925 10.18 1.967 13.072 2.892 2.892 8.56 5.321 14.23 5.321 1.503 0 3.123-.231 4.627-.578 3.586-.925 8.213-3.586 9.949-10.527 1.62-6.363-.232-10.18-2.198-12.263z"/></g><g><path fill="#373737" d="M97.039 108.975c2.776-3.124 9.717-3.471 13.65-2.893 2.083.347 4.165 2.661 5.206 5.785.926 2.892.694 5.784-.578 7.056-.116.116-.347.232-.463.463l-.81-4.743c-.231-1.62-1.735-2.66-3.355-2.314-1.62.232-2.66 1.736-2.313 3.355l.925 5.206a1.2 1.2 0 0 1-.925 1.389h-.116c-.694.115-1.388-.348-1.388-1.042l-.579-5.09c-.231-1.62-1.62-2.776-3.239-2.545-1.62.231-2.777 1.62-2.545 3.24l.347 2.544c.116 1.157-1.157 1.851-1.967 1.041-1.157-1.04-1.966-2.545-2.429-4.511-1.157-3.124-.81-5.438.579-6.941zm-6.479 8.329c1.851 6.941 6.479 9.602 9.949 10.527 1.504.347 3.008.578 4.627.578 5.669 0 11.338-2.429 14.23-5.321 2.892-2.892 3.586-7.867 1.966-13.072-1.735-5.322-5.553-9.024-9.833-9.718-5.9-.925-14.46-.116-18.74 4.743-1.968 2.198-3.934 6.016-2.199 12.263z"/></g><g><g><path fill="#373737" d="M106.178 12.146c.115.463 1.735 12.378 6.594 21.98v.232c-4.28 8.56-6.594 18.278-6.594 27.88 0 4.511.462 9.139 1.503 13.535a2.423 2.423 0 0 0 1.273 1.735 2.6 2.6 0 0 0 2.082.232c.81-.232 1.62-.463 2.545-.694 1.504-.348 2.43-1.851 2.083-3.24-.81-3.817-1.273-7.75-1.273-11.568a54.28 54.28 0 0 1 6.71-26.145l.231-.463c.579-1.041.579-2.198 0-3.24l-.231-.462c-2.892-4.858-4.743-11.337-5.669-15.733 0-.115 0-.231.116-.231 0 0 .116-.116.231-.116 6.363.694 12.147 2.66 15.85 4.05l6.94 3.123c1.157.578 1.851-.116 2.083-.347.925-.926.231-2.083-.694-3.702-.347-.579-.81-1.389-.926-1.736 0-.115 0-.347.116-.462 8.676-5.67 18.74-8.561 29.152-8.561 10.296 0 20.245 2.892 28.806 8.33-.116.115-.116.23-.116.346-.115.347-.578.926-.81 1.504-.925 1.388-1.503 2.545-.694 3.47.232.232.926.81 2.083.348.578-.232 2.776-1.041 4.511-1.735 1.042-.348 1.851-.695 2.314-.81l.347-.116c3.586-1.388 9.14-3.123 15.27-3.818.116 0 .232 0 .232.116 0 0 .116.116.116.347-.926 4.165-2.661 10.18-5.322 15.04l-.231.462c-.578 1.041-.578 2.198 0 3.24l.231.462c4.743 8.213 7.173 17.468 7.173 26.954 0 3.818-.347 7.636-1.157 11.338-.231 1.04 0 1.966.578 2.892.579.81 1.388 1.388 2.43 1.504.347 0 .694.115 1.041.115h.578c1.62 0 3.008-1.041 3.355-2.66.926-4.281 1.388-8.793 1.388-13.189 0-10.064-2.429-20.013-7.172-28.92v-.348c4.512-9.37 6.016-20.476 6.131-21.055l.116-.925c.115-.925-.116-1.85-.81-2.545-.578-.694-1.504-1.157-2.43-1.157h-.925c-8.33 0-16.196 2.083-21.286 3.933h-.231C193.404 4.048 181.142.231 168.416.231c-12.956 0-25.22 3.933-35.747 11.337-.115.115-.23.115-.23 0-5.322-1.851-13.305-4.165-21.98-4.165h-.926c-.926 0-1.851.347-2.43 1.157-.578.694-.925 1.62-.81 2.545z"/></g><g><path fill="#373737" d="M171.771 84.218c0-.926-1.62-1.62-3.586-1.62-1.967 0-3.586.694-3.586 1.62 0 .578.694 1.157 1.735 1.388-1.157 1.504-4.743 5.9-9.602 6.363-3.24.347-6.594-1.157-9.833-4.512-.694-.694-1.736-.694-2.43 0-.694.694-.694 1.735 0 2.43 3.702 3.701 7.52 5.552 11.453 5.552.463 0 .81 0 1.273-.115 3.008-.347 5.553-1.62 7.52-3.124 1.156.347 2.544.694 3.586.694 1.04 0 2.545-.347 3.701-.694 1.967 1.504 4.628 2.892 7.52 3.124.463 0 .81.115 1.273.115 3.933 0 7.75-1.85 11.452-5.553.695-.694.695-1.85 0-2.429-.694-.694-1.85-.694-2.429 0-3.24 3.355-6.594 4.859-9.833 4.512-4.859-.463-8.445-4.859-9.718-6.363.81-.347 1.504-.81 1.504-1.388z"/></g><g><path fill="#373737" d="M157.31 74.153a4.64 4.64 0 0 1-4.627-4.627 4.64 4.64 0 0 1 4.627-4.627 4.64 4.64 0 0 1 4.628 4.627 4.641 4.641 0 0 1-4.628 4.627zm-2.776-12.956a8.295 8.295 0 0 0-8.33 8.329 8.295 8.295 0 0 0 8.33 8.33 8.295 8.295 0 0 0 8.33-8.33c-.116-4.627-3.818-8.33-8.33-8.33z"/></g><g><path fill="#373737" d="M177.555 73.344a4.64 4.64 0 0 1-4.627-4.628 4.641 4.641 0 0 1 4.627-4.627 4.641 4.641 0 0 1 4.628 4.627 4.64 4.64 0 0 1-4.628 4.628zm63.743 15.039c-10.18-8.908-23.832-11.106-35.632-10.875 5.785-4.396 9.602-11.453 9.602-19.319 0-13.42-10.874-24.294-24.293-24.294-13.42 0-24.294 10.875-24.294 24.294 0 10.296 6.363 19.088 15.502 22.558-1.157.347-1.851.579-2.083.579-1.04.347-1.62 1.504-1.388 2.545.347 1.041 1.504 1.62 2.545 1.388.347-.115 37.135-11.337 57.38 6.247.347.347.81.463 1.388.463.578 0 1.157-.231 1.504-.694.694-.926.578-2.198-.231-2.892z"/></g><g><path fill="#373737" d="M195.486 85.375c-1.041.231-1.735 1.388-1.503 2.545.23 1.041 1.388 1.735 2.545 1.504.115 0 16.774-4.165 28.11 10.064.348.463 1.042.81 1.62.81.463 0 .926-.116 1.273-.462.926-.695 1.041-1.967.347-2.893-12.956-16.311-31.582-11.684-32.392-11.568z"/></g><g><path fill="#373737" d="M153.84 84.796c1.041.347 2.198-.231 2.545-1.388.347-1.041-.231-2.198-1.388-2.545-1.62-.463-39.333-12.031-61.198 7.057-.81.694-.925 2.082-.23 2.892.346.462.924.694 1.503.694.463 0 .925-.116 1.388-.463 20.245-17.584 57.033-6.362 57.38-6.247z"/></g><g><path fill="#373737" d="M138.57 88.96a2.17 2.17 0 0 0 2.544-1.503 2.17 2.17 0 0 0-1.504-2.545c-.81-.231-19.319-4.859-32.275 11.453-.695.925-.579 2.198.346 2.892.348.347.81.463 1.273.463.579 0 1.157-.232 1.62-.81 11.105-13.998 27.301-10.065 27.995-9.95z"/></g></g></g></g></svg>