<svg xmlns="http://www.w3.org/2000/svg" width="2096" height="885" viewBox="0 0 2096 885"><defs><linearGradient id="f3mqa" x1="1047.86" x2="887.57" y1=".51" y2="376.6" gradientUnits="userSpaceOnUse"><stop offset="0" stop-color="#ffc243"/><stop offset="1" stop-color="#ff9b19"/></linearGradient></defs><g><g><path fill="url(#f3mqa)" d="M.41 2.9c14.507-.834 290.152-10.84 499.062 17.512 208.91 28.353 821.134 26.685 1035.847 0 214.713-26.685-79.232 258.908 110.484 260.74 189.715 1.831 94.634-190.414 42.407-236.278-52.228-45.865 343.27-34.469 343.27-34.469l23.213 415.283 40.621 453.642s-105.225-55.577-364.697-30.379C1436.488 877.515 927.18 894.16 603 879.33 227.282 862.142-.693 783.964.41 783.013 3.31 780.511.41 2.9.41 2.9z"/></g></g></svg>