<svg xmlns="http://www.w3.org/2000/svg" width="721" height="712" viewBox="0 0 721 712"><g><g transform="rotate(-34 532.115 491.51)"><g><g><g><path fill="#afb2b2" d="M554.681 497.948c-6.34-7.655-14.353-11.87-22.565-11.87-8.212 0-16.226 4.215-22.566 11.87-5.698 6.88-9.1 15.552-9.1 23.196 0 3.714 1.135 6.542 3.374 8.408 2.21 1.84 5.127 2.463 8.381 2.463 3.463 0 7.309-.705 11.087-1.398 3.302-.606 6.42-1.178 8.824-1.178 2.075 0 5 .543 8.096 1.118 7.236 1.343 15.438 2.866 20.176-1.073 2.252-1.873 3.394-4.679 3.394-8.34 0-7.644-3.402-16.315-9.1-23.196z"/></g></g></g><g><g><g><path fill="#afb2b2" d="M555.33 456.382c-2.32-3.42-5.642-5.382-9.114-5.382-3.472 0-6.794 1.962-9.113 5.382-2.131 3.142-3.305 7.267-3.305 11.618 0 4.35 1.174 8.476 3.305 11.618 2.32 3.42 5.641 5.381 9.113 5.381 3.472 0 6.794-1.962 9.114-5.381 2.13-3.142 3.304-7.268 3.304-11.618 0-4.35-1.173-8.477-3.304-11.618z"/></g></g></g><g><g><g><path fill="#afb2b2" d="M527.129 456.381c-2.32-3.42-5.641-5.381-9.113-5.381-3.473 0-6.794 1.962-9.114 5.381-2.13 3.142-3.304 7.268-3.304 11.618 0 4.35 1.173 8.476 3.304 11.618 2.32 3.42 5.641 5.382 9.114 5.382 3.472 0 6.793-1.962 9.113-5.382 2.13-3.142 3.305-7.267 3.305-11.618 0-4.35-1.174-8.476-3.305-11.618z"/></g></g></g><g><g><g><path fill="#afb2b2" d="M578.683 483.066c-.935-3.181-2.94-5.493-5.644-6.508-2.176-.818-4.632-.679-6.917.39-3.148 1.473-5.721 4.515-7.06 8.346-1.092 3.13-1.229 6.439-.383 9.316.935 3.182 2.94 5.493 5.644 6.509a8.302 8.302 0 0 0 2.927.526c1.33 0 2.688-.307 3.99-.917 3.148-1.473 5.722-4.515 7.06-8.345 1.093-3.13 1.23-6.44.383-9.317z"/></g></g></g><g><g><g><path fill="#afb2b2" d="M505.169 485.293c-1.338-3.83-3.911-6.872-7.06-8.345-2.284-1.07-4.74-1.208-6.917-.39-2.704 1.015-4.708 3.327-5.643 6.508-.847 2.878-.71 6.187.383 9.317 1.339 3.83 3.912 6.872 7.06 8.345 1.302.61 2.66.917 3.99.917a8.305 8.305 0 0 0 2.927-.526c2.704-1.016 4.709-3.328 5.644-6.509.846-2.877.71-6.186-.384-9.317z"/></g></g></g></g><g transform="rotate(-34 380.715 436.51)"><g><g><g><path fill="#afb2b2" d="M403.278 442.948c-6.34-7.655-14.354-11.87-22.566-11.87-8.211 0-16.225 4.215-22.565 11.87-5.699 6.88-9.1 15.552-9.1 23.196 0 3.714 1.134 6.542 3.373 8.408 2.21 1.84 5.127 2.463 8.382 2.463 3.463 0 7.308-.705 11.087-1.398 3.301-.606 6.42-1.178 8.823-1.178 2.075 0 5 .543 8.096 1.118 7.236 1.343 15.438 2.866 20.176-1.073 2.253-1.873 3.395-4.679 3.395-8.34 0-7.644-3.402-16.315-9.101-23.196z"/></g></g></g><g><g><g><path fill="#afb2b2" d="M403.926 401.382c-2.32-3.42-5.641-5.382-9.113-5.382-3.473 0-6.794 1.962-9.114 5.382-2.13 3.142-3.304 7.267-3.304 11.618 0 4.35 1.173 8.476 3.304 11.618 2.32 3.42 5.642 5.381 9.114 5.381 3.472 0 6.793-1.962 9.113-5.381 2.131-3.142 3.305-7.268 3.305-11.618 0-4.35-1.174-8.477-3.305-11.618z"/></g></g></g><g><g><g><path fill="#afb2b2" d="M375.726 401.381c-2.32-3.42-5.642-5.381-9.114-5.381-3.472 0-6.794 1.962-9.113 5.381-2.131 3.142-3.305 7.268-3.305 11.618 0 4.35 1.174 8.476 3.305 11.618 2.32 3.42 5.64 5.382 9.113 5.382 3.472 0 6.794-1.962 9.114-5.382 2.13-3.142 3.304-7.267 3.304-11.618 0-4.35-1.174-8.476-3.304-11.618z"/></g></g></g><g><g><g><path fill="#afb2b2" d="M427.28 428.066c-.936-3.181-2.94-5.493-5.644-6.508-2.176-.818-4.633-.679-6.917.39-3.148 1.473-5.722 4.515-7.06 8.346-1.093 3.13-1.23 6.439-.383 9.316.935 3.182 2.94 5.493 5.644 6.509a8.302 8.302 0 0 0 2.926.526c1.33 0 2.689-.307 3.99-.917 3.149-1.473 5.722-4.515 7.06-8.345 1.093-3.13 1.23-6.44.384-9.317z"/></g></g></g><g><g><g><path fill="#afb2b2" d="M353.766 430.293c-1.339-3.83-3.912-6.872-7.06-8.345-2.284-1.07-4.741-1.208-6.917-.39-2.704 1.015-4.709 3.327-5.644 6.508-.846 2.878-.71 6.187.384 9.317 1.338 3.83 3.911 6.872 7.06 8.345 1.301.61 2.66.917 3.99.917a8.305 8.305 0 0 0 2.926-.526c2.705-1.016 4.71-3.328 5.644-6.509.846-2.877.71-6.186-.383-9.317z"/></g></g></g></g><g transform="rotate(-34 357.285 271.51)"><g><g><g><path fill="#afb2b2" d="M379.853 277.948c-6.34-7.655-14.354-11.87-22.565-11.87-8.212 0-16.226 4.215-22.566 11.87-5.698 6.88-9.1 15.552-9.1 23.196 0 3.714 1.135 6.542 3.373 8.408 2.21 1.84 5.127 2.463 8.382 2.463 3.463 0 7.309-.705 11.087-1.398 3.302-.606 6.42-1.178 8.824-1.178 2.074 0 5 .543 8.096 1.118 7.236 1.343 15.438 2.866 20.175-1.073 2.253-1.873 3.395-4.679 3.395-8.34 0-7.644-3.402-16.315-9.1-23.196z"/></g></g></g><g><g><g><path fill="#afb2b2" d="M380.501 236.382c-2.32-3.42-5.641-5.382-9.113-5.382-3.472 0-6.794 1.962-9.114 5.382-2.13 3.142-3.304 7.267-3.304 11.618 0 4.35 1.173 8.476 3.304 11.618 2.32 3.42 5.642 5.381 9.114 5.381 3.472 0 6.794-1.962 9.113-5.381 2.131-3.142 3.305-7.268 3.305-11.618 0-4.35-1.174-8.477-3.305-11.618z"/></g></g></g><g><g><g><path fill="#afb2b2" d="M352.3 236.381c-2.319-3.42-5.64-5.381-9.113-5.381-3.472 0-6.794 1.962-9.113 5.381-2.131 3.142-3.305 7.268-3.305 11.618 0 4.35 1.174 8.476 3.305 11.618 2.32 3.42 5.641 5.382 9.113 5.382 3.473 0 6.794-1.962 9.114-5.382 2.13-3.142 3.304-7.267 3.304-11.618 0-4.35-1.173-8.476-3.304-11.618z"/></g></g></g><g><g><g><path fill="#afb2b2" d="M403.855 263.066c-.935-3.181-2.94-5.493-5.644-6.508-2.176-.818-4.633-.679-6.917.39-3.148 1.473-5.721 4.515-7.06 8.346-1.093 3.13-1.23 6.439-.383 9.316.935 3.182 2.94 5.493 5.644 6.509a8.302 8.302 0 0 0 2.927.526c1.33 0 2.688-.307 3.99-.917 3.148-1.473 5.721-4.515 7.06-8.345 1.093-3.13 1.229-6.44.383-9.317z"/></g></g></g><g><g><g><path fill="#afb2b2" d="M330.34 265.293c-1.337-3.83-3.91-6.872-7.059-8.345-2.284-1.07-4.74-1.208-6.917-.39-2.704 1.015-4.709 3.327-5.644 6.508-.846 2.878-.71 6.187.384 9.317 1.338 3.83 3.911 6.872 7.06 8.345 1.302.61 2.66.917 3.99.917a8.305 8.305 0 0 0 2.927-.526c2.704-1.016 4.709-3.328 5.644-6.509.845-2.877.709-6.186-.384-9.317z"/></g></g></g></g><g transform="rotate(-34 204.285 235.51)"><g><g><g><path fill="#afb2b2" d="M226.853 241.948c-6.34-7.655-14.354-11.87-22.565-11.87-8.212 0-16.226 4.215-22.566 11.87-5.698 6.88-9.1 15.552-9.1 23.196 0 3.714 1.135 6.542 3.373 8.408 2.21 1.84 5.127 2.463 8.382 2.463 3.463 0 7.309-.705 11.087-1.398 3.302-.606 6.42-1.178 8.824-1.178 2.074 0 5 .543 8.096 1.118 7.236 1.343 15.438 2.866 20.175-1.073 2.253-1.873 3.395-4.679 3.395-8.34 0-7.644-3.402-16.315-9.1-23.196z"/></g></g></g><g><g><g><path fill="#afb2b2" d="M227.501 200.382c-2.32-3.42-5.641-5.382-9.113-5.382-3.472 0-6.794 1.962-9.114 5.382-2.13 3.142-3.304 7.267-3.304 11.618 0 4.35 1.173 8.476 3.304 11.618 2.32 3.42 5.642 5.381 9.114 5.381 3.472 0 6.794-1.962 9.113-5.381 2.131-3.142 3.305-7.268 3.305-11.618 0-4.35-1.174-8.477-3.305-11.618z"/></g></g></g><g><g><g><path fill="#afb2b2" d="M199.3 200.381c-2.319-3.42-5.64-5.381-9.113-5.381-3.472 0-6.794 1.962-9.113 5.381-2.131 3.142-3.305 7.268-3.305 11.618 0 4.35 1.174 8.476 3.305 11.618 2.32 3.42 5.641 5.382 9.113 5.382 3.473 0 6.794-1.962 9.114-5.382 2.13-3.142 3.304-7.267 3.304-11.618 0-4.35-1.173-8.476-3.304-11.618z"/></g></g></g><g><g><g><path fill="#afb2b2" d="M250.855 227.066c-.935-3.181-2.94-5.493-5.644-6.508-2.176-.818-4.633-.679-6.917.39-3.148 1.473-5.721 4.515-7.06 8.346-1.093 3.13-1.23 6.439-.383 9.316.935 3.182 2.94 5.493 5.644 6.509a8.302 8.302 0 0 0 2.927.526c1.33 0 2.688-.307 3.99-.917 3.148-1.473 5.721-4.515 7.06-8.345 1.093-3.13 1.229-6.44.383-9.317z"/></g></g></g><g><g><g><path fill="#afb2b2" d="M177.34 229.293c-1.337-3.83-3.91-6.872-7.059-8.345-2.284-1.07-4.74-1.208-6.917-.39-2.704 1.015-4.709 3.327-5.644 6.508-.846 2.878-.71 6.187.384 9.317 1.338 3.83 3.911 6.872 7.06 8.345 1.302.61 2.66.917 3.99.917a8.305 8.305 0 0 0 2.926-.526c2.705-1.016 4.71-3.328 5.645-6.509.845-2.877.709-6.186-.384-9.317z"/></g></g></g></g><g transform="rotate(-34 187.285 77.51)"><g><g><g><path fill="#afb2b2" d="M209.853 83.948c-6.34-7.655-14.354-11.87-22.565-11.87-8.212 0-16.226 4.215-22.566 11.87-5.698 6.88-9.1 15.552-9.1 23.196 0 3.714 1.135 6.542 3.373 8.408 2.21 1.84 5.127 2.464 8.382 2.463 3.463 0 7.309-.705 11.087-1.398 3.302-.606 6.42-1.178 8.824-1.178 2.074 0 5 .543 8.096 1.118 7.236 1.343 15.438 2.866 20.175-1.073 2.253-1.873 3.395-4.679 3.395-8.34 0-7.644-3.402-16.315-9.1-23.196z"/></g></g></g><g><g><g><path fill="#afb2b2" d="M210.501 42.382c-2.32-3.42-5.641-5.382-9.113-5.382-3.472 0-6.794 1.962-9.114 5.382-2.13 3.142-3.304 7.267-3.304 11.618 0 4.35 1.173 8.476 3.304 11.618 2.32 3.42 5.642 5.381 9.114 5.381 3.472 0 6.794-1.962 9.113-5.381 2.131-3.142 3.305-7.268 3.305-11.618 0-4.35-1.174-8.477-3.305-11.618z"/></g></g></g><g><g><g><path fill="#afb2b2" d="M182.3 42.381c-2.319-3.42-5.64-5.381-9.113-5.381-3.472 0-6.794 1.962-9.113 5.381-2.131 3.142-3.305 7.268-3.305 11.618 0 4.35 1.174 8.476 3.305 11.618 2.32 3.42 5.641 5.382 9.113 5.382 3.473 0 6.794-1.962 9.114-5.382 2.13-3.142 3.304-7.267 3.304-11.618 0-4.35-1.173-8.476-3.304-11.618z"/></g></g></g><g><g><g><path fill="#afb2b2" d="M233.855 69.066c-.935-3.181-2.94-5.493-5.644-6.508-2.176-.818-4.633-.679-6.917.39-3.148 1.473-5.721 4.515-7.06 8.346-1.093 3.13-1.23 6.439-.383 9.316.935 3.182 2.94 5.493 5.644 6.509a8.302 8.302 0 0 0 2.927.526c1.33 0 2.688-.307 3.99-.917 3.148-1.473 5.721-4.515 7.06-8.345 1.093-3.13 1.229-6.44.383-9.317z"/></g></g></g><g><g><g><path fill="#afb2b2" d="M160.34 71.293c-1.337-3.83-3.91-6.872-7.059-8.345-2.284-1.07-4.74-1.208-6.917-.39-2.704 1.015-4.709 3.327-5.644 6.508-.846 2.878-.71 6.187.384 9.317 1.338 3.83 3.911 6.872 7.06 8.345 1.302.61 2.66.917 3.99.917a8.305 8.305 0 0 0 2.926-.526c2.705-1.016 4.71-3.328 5.645-6.509.845-2.877.709-6.186-.384-9.317z"/></g></g></g></g><g transform="rotate(-34 675.285 664.51)"><g><g><g><path fill="#afb2b2" d="M697.853 670.948c-6.34-7.655-14.354-11.87-22.565-11.87-8.212 0-16.226 4.215-22.566 11.87-5.698 6.88-9.1 15.552-9.1 23.196 0 3.714 1.135 6.542 3.373 8.407 2.21 1.842 5.127 2.464 8.382 2.464 3.463 0 7.309-.705 11.087-1.398 3.302-.606 6.42-1.178 8.824-1.178 2.074 0 5 .543 8.096 1.118 7.236 1.343 15.438 2.866 20.175-1.073 2.253-1.873 3.395-4.679 3.395-8.34 0-7.644-3.402-16.315-9.1-23.196z"/></g></g></g><g><g><g><path fill="#afb2b2" d="M698.501 629.382c-2.32-3.42-5.641-5.382-9.113-5.382-3.472 0-6.794 1.962-9.114 5.382-2.13 3.141-3.304 7.267-3.304 11.618 0 4.35 1.173 8.476 3.304 11.617 2.32 3.42 5.642 5.382 9.114 5.382 3.472 0 6.794-1.962 9.113-5.382 2.131-3.141 3.305-7.267 3.305-11.617 0-4.35-1.174-8.477-3.305-11.618z"/></g></g></g><g><g><g><path fill="#afb2b2" d="M670.3 629.381c-2.319-3.42-5.64-5.381-9.113-5.381-3.472 0-6.794 1.961-9.113 5.381-2.131 3.142-3.305 7.268-3.305 11.618 0 4.35 1.174 8.476 3.305 11.618 2.32 3.42 5.641 5.382 9.113 5.382 3.473 0 6.794-1.962 9.114-5.382 2.13-3.142 3.304-7.267 3.304-11.618 0-4.35-1.173-8.476-3.304-11.618z"/></g></g></g><g><g><g><path fill="#afb2b2" d="M721.855 656.066c-.935-3.181-2.94-5.493-5.644-6.508-2.176-.818-4.633-.68-6.917.39-3.148 1.473-5.721 4.515-7.06 8.346-1.093 3.13-1.23 6.438-.383 9.316.935 3.181 2.94 5.493 5.644 6.509a8.302 8.302 0 0 0 2.927.526c1.33 0 2.688-.307 3.99-.917 3.148-1.473 5.721-4.515 7.06-8.345 1.093-3.13 1.229-6.44.383-9.317z"/></g></g></g><g><g><g><path fill="#afb2b2" d="M648.34 658.293c-1.337-3.83-3.91-6.872-7.059-8.345-2.284-1.07-4.74-1.208-6.917-.39-2.704 1.015-4.709 3.327-5.644 6.508-.846 2.878-.71 6.186.384 9.317 1.338 3.83 3.911 6.872 7.06 8.345 1.302.61 2.66.917 3.99.917a8.305 8.305 0 0 0 2.927-.527c2.704-1.015 4.709-3.327 5.644-6.508.845-2.878.709-6.186-.384-9.317z"/></g></g></g></g><g transform="rotate(-34 44.285 43.51)"><g><g><g><path fill="#afb2b2" d="M66.853 49.948c-6.34-7.655-14.354-11.87-22.565-11.87-8.212 0-16.226 4.215-22.566 11.87-5.698 6.88-9.1 15.552-9.1 23.196 0 3.714 1.135 6.542 3.373 8.408 2.21 1.84 5.127 2.463 8.382 2.463 3.463 0 7.309-.705 11.087-1.398 3.302-.606 6.42-1.178 8.824-1.178 2.074 0 5 .543 8.096 1.118 7.236 1.343 15.438 2.866 20.175-1.073 2.253-1.873 3.395-4.679 3.395-8.34 0-7.644-3.402-16.315-9.1-23.196z"/></g></g></g><g><g><g><path fill="#afb2b2" d="M67.501 8.382C65.181 4.962 61.86 3 58.388 3c-3.472 0-6.794 1.962-9.114 5.382-2.13 3.142-3.304 7.267-3.304 11.618 0 4.35 1.173 8.476 3.304 11.618 2.32 3.42 5.642 5.381 9.114 5.381 3.472 0 6.794-1.962 9.113-5.381 2.131-3.142 3.305-7.268 3.305-11.618 0-4.35-1.174-8.477-3.305-11.618z"/></g></g></g><g><g><g><path fill="#afb2b2" d="M39.3 8.381C36.982 4.961 33.66 3 30.188 3c-3.472 0-6.794 1.962-9.113 5.381-2.131 3.142-3.305 7.268-3.305 11.618 0 4.35 1.174 8.476 3.305 11.618 2.32 3.42 5.641 5.382 9.113 5.382 3.473 0 6.794-1.962 9.114-5.382 2.13-3.142 3.304-7.267 3.304-11.618 0-4.35-1.173-8.476-3.304-11.618z"/></g></g></g><g><g><g><path fill="#afb2b2" d="M90.855 35.066c-.935-3.181-2.94-5.493-5.644-6.508-2.176-.818-4.633-.679-6.917.39-3.148 1.473-5.721 4.515-7.06 8.346-1.093 3.13-1.23 6.439-.383 9.316.935 3.182 2.94 5.493 5.644 6.509a8.302 8.302 0 0 0 2.927.526c1.33 0 2.688-.307 3.99-.917 3.148-1.473 5.721-4.515 7.06-8.345 1.093-3.13 1.229-6.44.383-9.317z"/></g></g></g><g><g><g><path fill="#afb2b2" d="M17.34 37.293c-1.337-3.83-3.91-6.872-7.059-8.345-2.284-1.07-4.74-1.208-6.917-.39-2.704 1.015-4.709 3.327-5.644 6.508-.846 2.878-.71 6.187.384 9.317 1.338 3.83 3.911 6.872 7.06 8.345 1.302.61 2.66.917 3.99.917a8.305 8.305 0 0 0 2.926-.526c2.705-1.016 4.71-3.328 5.645-6.509.845-2.877.709-6.186-.384-9.317z"/></g></g></g></g><g transform="rotate(-34 532.285 630.51)"><g><g><g><path fill="#afb2b2" d="M554.853 636.948c-6.34-7.655-14.354-11.87-22.565-11.87-8.212 0-16.226 4.215-22.566 11.87-5.698 6.88-9.1 15.552-9.1 23.196 0 3.714 1.135 6.542 3.373 8.408 2.21 1.84 5.127 2.463 8.382 2.463 3.463 0 7.309-.705 11.087-1.398 3.302-.606 6.42-1.178 8.824-1.178 2.074 0 5 .543 8.096 1.118 7.236 1.343 15.438 2.866 20.175-1.073 2.253-1.873 3.395-4.679 3.395-8.34 0-7.644-3.402-16.315-9.1-23.196z"/></g></g></g><g><g><g><path fill="#afb2b2" d="M555.501 595.382c-2.32-3.42-5.641-5.382-9.113-5.382-3.472 0-6.794 1.962-9.114 5.382-2.13 3.142-3.304 7.267-3.304 11.618 0 4.35 1.173 8.476 3.304 11.618 2.32 3.42 5.642 5.381 9.114 5.381 3.472 0 6.794-1.962 9.113-5.381 2.131-3.142 3.305-7.268 3.305-11.618 0-4.35-1.174-8.477-3.305-11.618z"/></g></g></g><g><g><g><path fill="#afb2b2" d="M527.3 595.381c-2.319-3.42-5.64-5.381-9.113-5.381-3.472 0-6.794 1.962-9.113 5.381-2.131 3.142-3.305 7.268-3.305 11.618 0 4.35 1.174 8.476 3.305 11.618 2.32 3.42 5.641 5.382 9.113 5.382 3.473 0 6.794-1.962 9.114-5.382 2.13-3.142 3.304-7.267 3.304-11.618 0-4.35-1.173-8.476-3.304-11.618z"/></g></g></g><g><g><g><path fill="#afb2b2" d="M578.855 622.066c-.935-3.181-2.94-5.493-5.644-6.508-2.176-.818-4.633-.679-6.917.39-3.148 1.473-5.721 4.515-7.06 8.346-1.093 3.13-1.23 6.439-.383 9.316.935 3.182 2.94 5.493 5.644 6.509a8.302 8.302 0 0 0 2.927.526c1.33 0 2.688-.307 3.99-.917 3.148-1.473 5.721-4.515 7.06-8.345 1.093-3.13 1.229-6.44.383-9.317z"/></g></g></g><g><g><g><path fill="#afb2b2" d="M505.34 624.293c-1.337-3.83-3.91-6.872-7.059-8.345-2.284-1.07-4.74-1.208-6.917-.39-2.704 1.015-4.709 3.327-5.644 6.508-.846 2.878-.71 6.187.384 9.317 1.338 3.83 3.911 6.872 7.06 8.345 1.302.61 2.66.917 3.99.917a8.305 8.305 0 0 0 2.927-.526c2.704-1.016 4.709-3.328 5.644-6.509.845-2.877.709-6.186-.384-9.317z"/></g></g></g></g></g></svg>