<svg width="16" height="16" fill="none" xmlns="http://www.w3.org/2000/svg"><path d="M2 3.414V5a1 1 0 11-2 0V1a1 1 0 011-1h4a1 1 0 110 2H3.414l2.293 2.293a1 1 0 01-1.414 1.414L2 3.414zM11 2a1 1 0 110-2h4a1 1 0 011 1v4a1 1 0 11-2 0V3.414l-2.293 2.293a1 1 0 11-1.414-1.414L12.586 2H11zM1 10a1 1 0 011 1v1.586l2.293-2.293a1 1 0 111.414 1.414L3.414 14H5a1 1 0 110 2H1a1 1 0 01-1-1v-4a1 1 0 011-1zm9.293 1.707a1 1 0 111.414-1.414L14 12.586V11a1 1 0 112 0v4a1 1 0 01-1 1h-4a1 1 0 110-2h1.586l-2.293-2.293z" fill="#fff" fill-opacity=".4"/></svg>