<svg width="170" height="110" fill="none" xmlns="http://www.w3.org/2000/svg"><path d="M48.799 26.965c15.167-4.646 30.49-8.742 45.944-12.338a692.516 692.516 0 0146.829-9.162 648.442 648.442 0 0126.614-3.702l-.624-1.496c-9.548 9.267-19.096 18.507-28.618 27.775-9.548 9.267-19.096 18.508-28.617 27.775l-16.104 15.62c-.807.787.416 1.995 1.222 1.234 9.548-9.267 19.096-18.508 28.618-27.775 9.548-9.241 19.096-18.508 28.618-27.775 5.359-5.198 10.744-10.423 16.104-15.62.494-.473.156-1.576-.599-1.497a683.61 683.61 0 00-47.219 7.298 690.42 690.42 0 00-46.699 10.58 678.431 678.431 0 00-25.912 7.377c-1.066.367-.624 2.047.443 1.706z" fill="#fff"/><path d="M47.133 26.781c7.727 3.072 15.428 6.144 23.155 9.215 1.717.683 3.46 1.496 5.333 1.68 1.873.21 3.668-.341 5.385-.997 3.929-1.55 7.805-3.203 11.707-4.805l46.205-18.98c8.715-3.57 17.431-7.167 26.12-10.737 1.015-.42.572-2.1-.468-1.68a33747.87 33747.87 0 01-45.893 18.849c-7.648 3.15-15.297 6.274-22.946 9.424a2096.69 2096.69 0 01-11.473 4.7c-1.82.76-3.642 1.6-5.515 2.152-1.951.578-3.694.342-5.594-.341-4.214-1.549-8.377-3.334-12.565-4.988a1920.674 1920.674 0 00-13.008-5.172c-1.041-.42-1.483 1.26-.443 1.68z" fill="#fff"/><path d="M163.997 1.737c-10.172 5.933-20.344 11.866-30.516 17.825-10.173 5.96-20.345 11.866-30.517 17.825-5.75 3.36-11.5 6.721-17.275 10.081-.338.184-.494.604-.39.972a110.827 110.827 0 008.741 23.6c.495.998 2.004.106 1.483-.892a109.628 109.628 0 01-8.559-23.18c-.13.34-.26.655-.39.97a18695.299 18695.299 0 0030.517-17.825c10.172-5.96 20.344-11.866 30.516-17.825 5.75-3.36 11.499-6.72 17.275-10.081.937-.525.078-2.048-.885-1.47zM76.792 38.753c1.118 0 1.118-1.733 0-1.733-1.119 0-1.119 1.733 0 1.733z" fill="#fff"/><path d="M86.392 49.569c.806-.63.286-1.943-.624-2.18-1.041-.262-1.64.736-1.952 1.576-1.04 2.966-1.899 6.038-2.835 9.057a4743.91 4743.91 0 01-5.646 17.93c-.338 1.077 1.327 1.523 1.665.473 1.457-4.673 2.94-9.32 4.397-13.993.728-2.31 1.457-4.594 2.16-6.904l1.092-3.465c.182-.552.338-1.103.52-1.654.104-.341.182-.683.312-.998.026-.079.052-.131.078-.21.234-.315.105-.604-.39-.892-.858.708.364 1.942 1.223 1.26z" fill="#fff"/><path d="M74.71 37.177c.833 13.468.547 27.014-.936 40.43-.13 1.102 1.613 1.102 1.717 0a238.472 238.472 0 00.937-40.43c-.052-1.102-1.77-1.129-1.717 0zM1.423 94.066a167.014 167.014 0 0134.264-30.531c3.642-2.415 7.362-4.7 11.186-6.852.963-.551.105-2.048-.858-1.496-13.502 7.587-25.964 17.011-36.89 27.985a163.674 163.674 0 00-8.898 9.66c-.729.867.468 2.1 1.196 1.234zm11.343 14.597a166.565 166.565 0 0125.21-27.644c2.68-2.363 5.437-4.62 8.273-6.8.859-.656 0-2.178-.858-1.496-10.095 7.745-19.33 16.618-27.447 26.463a160.99 160.99 0 00-6.634 8.61c-.677.893.806 1.759 1.456.867z" fill="#fff"/><path d="M79.394 35.313l-6.166 13.94c-.442 1.024 1.04 1.89 1.483.867l6.166-13.94c.442-.998-1.041-1.89-1.483-.867zm5.359-1.496a254.042 254.042 0 00-8.794 19.138c-.416 1.024 1.25 1.497 1.665.473a247.738 247.738 0 018.612-18.718c.494-.998-.989-1.89-1.483-.893zm5.047-1.969a129.217 129.217 0 00-8.872 21.842c-.338 1.077 1.327 1.523 1.665.473a126.375 126.375 0 018.69-21.422c.52-.998-.963-1.89-1.483-.893zm4.76-1.155c-1.899 4.7-3.824 9.425-5.723 14.124-.416 1.024 1.249 1.496 1.665.472 1.9-4.699 3.824-9.424 5.724-14.123.416-1.05-1.25-1.497-1.665-.473zm7.806-3.623c-2.186 3.86-4.397 7.745-6.582 11.63-.547.971.936 1.838 1.483.866 2.185-3.859 4.396-7.744 6.582-11.63.546-.97-.937-1.837-1.483-.866zm4.76-1.443c-2.029 3.727-4.032 7.481-6.061 11.21-.521.97.962 1.863 1.483.866a2371.77 2371.77 0 006.061-11.21c.521-.972-.962-1.838-1.483-.866zm4.631-2.18c-1.821 3.702-3.668 7.43-5.489 11.158-.494.997.989 1.89 1.483.866 1.821-3.702 3.668-7.43 5.489-11.157.495-.972-.988-1.864-1.483-.867zm4.943-1.339c-1.639 2.993-3.252 6.012-4.891 9.005-.52.971.963 1.864 1.483.866 1.639-2.992 3.252-6.011 4.891-9.004.547-.972-.962-1.838-1.483-.867zm5.698-2.914c-2.497 3.177-4.319 6.826-5.229 10.764-.26 1.076 1.405 1.549 1.665.472.858-3.649 2.471-7.061 4.787-10.002.676-.866-.52-2.126-1.223-1.234zm4.631-1.968l-3.356 7.009c-.494.998 1.015 1.89 1.483.866l3.356-7.01c.494-.97-1.015-1.863-1.483-.865zm4.214-2.022c-1.431 2.757-2.862 5.513-4.267 8.27-.52.997.963 1.864 1.483.866 1.431-2.756 2.836-5.513 4.267-8.27.52-.997-.963-1.863-1.483-.866zm3.356-.761c-1.144 2.1-2.315 4.174-3.46 6.248-.546.971.937 1.864 1.483.866 1.145-2.074 2.315-4.174 3.46-6.248.547-.971-.962-1.837-1.483-.866zm3.825-.945c-1.613 1.128-2.55 2.914-2.524 4.909.026 1.129 1.744 1.129 1.717 0-.026-1.365.573-2.626 1.692-3.413.91-.63.052-2.153-.885-1.496zm2.81.052c-.963.604-1.509 1.575-1.639 2.704-.026.5.442.893.884.893.494 0 .807-.394.859-.866.052-.473.364-.945.78-1.208.911-.604.052-2.1-.884-1.523zm4.526-1.234c1.119 0 1.119-1.732 0-1.732s-1.119 1.732 0 1.732zm4.813-2.1c1.119 0 1.119-1.732 0-1.732-1.092 0-1.119 1.732 0 1.732zM79.42 54.819c-1.38 3.255-2.758 6.51-4.111 9.74-.416 1.023 1.067 1.916 1.483.866 1.379-3.255 2.758-6.51 4.11-9.74.443-1.024-1.04-1.89-1.482-.866z" fill="#fff"/><path d="M73.8 37.204a7445.532 7445.532 0 00-1.197 41.74c-.026 1.13 1.691 1.13 1.717 0 .338-13.913.755-27.827 1.197-41.74.026-1.13-1.691-1.13-1.717 0z" fill="#fff"/><path d="M72.473 74.062v3.492c0 1.129 1.717 1.129 1.717 0v-3.492c0-1.102-1.717-1.129-1.717 0z" fill="#fff"/><path d="M74.71 75.742c-.702 1.392-1.378 2.783-2.08 4.174-.495.998.988 1.89 1.482.867.703-1.392 1.379-2.783 2.082-4.174.52-.972-.99-1.864-1.483-.867z" fill="#fff"/><path d="M76.688 73.59c-.91 1.863-1.821 3.727-2.732 5.565-.494.998.989 1.89 1.483.866.91-1.864 1.821-3.728 2.732-5.565.494-.972-.989-1.864-1.483-.867z" fill="#fff"/><path d="M77.546 73.012c-1.17 2.31-2.367 4.594-3.538 6.904-.52.998.989 1.864 1.483.867 1.17-2.31 2.367-4.594 3.538-6.905.52-.997-.962-1.89-1.483-.866zM44.22 93.41c3.876-3.728 7.752-7.482 11.655-11.21.806-.761-.416-1.995-1.223-1.234-3.876 3.728-7.753 7.482-11.655 11.21-.78.762.442 1.995 1.223 1.234z" fill="#fff"/></svg>