<svg width="220" height="35" fill="none" xmlns="http://www.w3.org/2000/svg"><path fill-rule="evenodd" clip-rule="evenodd" d="M12.062 12.914c-3.192.013-5.184.258-7.698 1.65-8.402 4.69-2.658 6.855.625 5.077 1.394-.76 1.693-1.482 3.842-1.972 8.493-1.907 13.026 8.003 7.959 11.598-4.533 3.235-10.264-1.984-5.34-2.28.56-.04 3.373.27 3.712-2.746.3-2.628-2.228-4.033-4.755-3.827-4.689.387-7.554 6.366-4.467 10.722 4.22 5.94 13.325 4.717 16.49-1.778 1.237-2.552.834-4.46.834-7.333 7.502.322 15.526-6.263 10.38-7.075-.051-.013-1.692-.026-1.757-.013-2.749.245-3.609 3.17-8.636 2.539-3.7-.464-7.086-3.531-6.93-7.552.17-4.188 5.301-7.114 8.558-4.356.52.451 1.29 1.443.456 2.242-.652.62-1.616-.051-2.944.245-4.116.915-2.774 7.836 3.348 6.38 5.17-1.238 7.15-9.46.69-13.171-3.908-2.242-7.972-1.134-10.955.98-2.657 1.88-4.155 5.979-3.412 10.67z" fill="#10B7C0"/><path fill-rule="evenodd" clip-rule="evenodd" d="M145.247 18.763h2.774c3.061 0 4.846 1.984 3.934 4.961-.82 2.72-3.556 2.114-6.63 2.204l-.078-1.263v-5.902zM64.528 14.78l-7.906-.348V9.497c5.51-.4 11.97 2.01 10.303-5.348l-16.594.039c-.795 3.608-.3 21.186-.17 25.954 2.253.232 3.986.412 6.213-.129V19.73l8.22-.103c.403-1.572.573-3.48-.066-4.845zm52.219-3.26c-.338-.439.235-.71-1.993-.722-.82 0-1.667.038-2.5.038 0-1.585.455-4.227-.469-5.322-5.185-1.315-5.706 1.314-5.706 5.554l-2.904.09c-.495 1.714-.443 2.359-.065 4.137l2.969.039c0 2.667-.325 10.374.443 12.32.573 1.417 1.759 2.41 3.687 2.629 6.838.76 6.708-.864 5.77-4.485l-3.491-.348c-.873-2.371-.391-7.023-.391-10.09l4.65-.13v-3.71zM95.086 30.141c.078-2.758-.703-11.186.612-12.655 1.785-1.998 3.7-.155 4.728-1.16l1.16-4.02c0-.104-.013-.207-.026-.31 0-.103-.039-.232-.053-.31l-.156-.605c-5.51-.85-5.705 1.418-7.06 2.668-1.654-1.585-1.85-2.913-5.275-2.861l-1.433 2.796c1.81 3.08 1.381 3.415 1.381 7.552 0 2.951-.052 5.954.026 9.047l6.096-.142zm29.49-11.779c-.105-2.023.521-3.389 2.644-3.44 1.745.58 2.227 1.481 1.954 3.44h-4.598zm9.782 10.065c-.144-1.379-.73-2.358-1.251-3.415-4.09.425-7.594 3.157-8.662-2.41l10.004-.013c3.165-13.995-12.361-15.529-15.526-6.482-1.485 4.24-.665 10.567 2.448 12.964 3.192 2.475 9.991 2.024 12.987-.644zm-55.54-4.794c-.626 2.99-3.479 3.3-4.469 1.198-.781-1.636-.742-5.747-.286-7.474 1.133-4.356 6.669-2.874 4.754 6.276zm-4.885-12.771c-4.911 1.379-7.334 6.237-6.11 12.578.952 4.974 5.172 8.44 11.124 6.972 10.369-2.552 8.09-23.197-5.014-19.55zm93.457 14.91c-.26-.283-.234-.077-.469-.644-1.367-3.273 2.931-2.964 4.116-2.938l-.065 3.222c-1.328.528-1.98 1.25-3.582.36zm-5.861-13.531c.169 1.778.417 2.887 1.394 4.175 1.667-.09 3.243-.876 4.897-1.044 2.735-.257 3.165.503 3.204 2.913-3.022 0-5.705-.039-7.854 1.469-3.361 2.371-3.608 9.73 2.397 10.825 3.048.567 4.741-.876 6.708-1.907 5.679 4.369 5.835-1.186 5.666-1.701-1.798-5.529.573-9.408-1.524-13.261-2.644-4.884-9.704-2.642-14.888-1.47zm19.981 17.9l6.148.142V17.539c1.315-1.122 1.667-1.405 3.855-1.212 1.029 2.925.365 7.268.521 10.748.209 4.394 4.195 3.853 6.826 2.268-.039-1.443-.73-1.005-.717-7.088 0-2.216.209-5.438-.338-7.423-1.576-5.593-6.63-4.613-10.316-1.92-1.316-1.314-.639-2.397-5.914-2.023l-.065 19.253zm33.006-10.967c.665-.89 1.003-1.057 1.629-2.216 3.087-5.748 4.077-5.967.521-6.019-3.061-.025-3.791.426-4.95 2.68-.769 1.509-1.368 3.918-3.256 3.815 0-3.698.299-8.827-.04-12.345-.221-2.268-1.042-2.797-3.23-2.99-3.412-.297-2.735.193-2.696 3.35.104 8.197-.117 16.431.026 24.615 2.24.4 3.634.309 5.927.077l.013-7.462c3.764-.618 3.503 3.274 4.806 6.006 1.498 3.131 5.106 1.636 6.734-.245-1.433-1.766-1.602-2.539-2.423-5.052-1.068-3.273-1.328-2.41-3.061-4.214zM145.247 8.337c3.074.206 6.109-.425 5.848 3.248-.221 3.17-2.709 2.654-5.809 2.654l-.039-5.902zm8.988 7.81c1.328-1.688 3.048-2.307 2.995-5.542-.143-8.08-11.905-7.242-18.157-6.405l.052 25.839c4.572.67 13.768.85 16.829-1.624 3.217-2.603 4.155-9.034-1.719-12.268z" fill="#901848"/></svg>