<svg width="141" height="45" fill="none" xmlns="http://www.w3.org/2000/svg"><g clip-path="url(#clip0)"><path d="M0 0l4.93 31.67 65.09 13.22 65.09-13.24L140.04 0H0z" fill="#AA2D29"/><path d="M30.75 19.75c1.23 0 2.24-1.09 2.24-2.46 0-1.37-1.02-2.43-2.24-2.43H27.4v4.89h3.35zm-3.35 2.86v5.74h-3.26V11.81h6.62c3.05 0 5.5 2.46 5.5 5.48 0 2.08-1.3 3.95-3.19 4.82l3.66 6.24h-3.52l-3.33-5.74H27.4zm16.3-3.66c-1.63 0-2.74.87-3.1 2.39h6.03c-.38-1.71-1.66-2.39-2.93-2.39zm.28 6.97c1.18 0 2.13-.5 2.65-1.18l2.46 1.42c-1.11 1.61-2.88 2.53-5.15 2.53-3.97 0-6.47-2.72-6.47-6.24s2.53-6.24 6.24-6.24c3.5 0 5.98 2.77 5.98 6.24 0 .45-.05.85-.12 1.25h-8.91c.42 1.56 1.72 2.22 3.32 2.22zm25.14-4.84v7.28h-3.05V21.3c0-1.39-.71-2.24-1.99-2.24-1.35 0-2.2.9-2.2 2.67v6.64h-3.05v-7.06c0-1.39-.71-2.24-1.99-2.24-1.3 0-2.22.9-2.22 2.67v6.64h-3.05V16.54h3.05v1.25c.66-.99 1.77-1.58 3.28-1.58 1.47 0 2.55.61 3.21 1.7.73-1.06 1.91-1.7 3.52-1.7 2.72 0 4.49 1.91 4.49 4.87zm11.37 1.37c0-1.99-1.39-3.33-3.28-3.33-1.87 0-3.26 1.35-3.26 3.33s1.39 3.33 3.26 3.33c1.88 0 3.28-1.35 3.28-3.33zm3.05 5.9h-3.05v-1.39c-.85 1.06-2.13 1.73-3.85 1.73-3.14 0-5.74-2.72-5.74-6.24s2.6-6.24 5.74-6.24c1.72 0 3 .66 3.85 1.73v-1.39h3.05v11.8zm5.58-17.18h-3.05v17.18h3.05V11.17zm13.41 17.18h-3.05v-1.32c-.71 1.06-1.94 1.65-3.52 1.65-2.5 0-4.47-1.75-4.47-4.89v-7.25h3.05v6.88c0 1.61.97 2.43 2.34 2.43 1.49 0 2.6-.87 2.6-2.93v-6.38h3.05v11.81zm7.3-3.59l-2.57 3.59h-3.52l4.32-6.02-4.13-5.79h3.52l2.38 3.33 2.39-3.33h3.5l-4.14 5.77 4.33 6.04h-3.52l-2.56-3.59zm8.79-11.02c.21 0 .33-.11.33-.27 0-.19-.13-.28-.33-.28h-.25v.54h.25v.01zm.71.48l.56 1.01h-.85l-.39-.82h-.28v.82h-.79v-2.75h1.11c.59 0 1.06.36 1.06.91-.01.37-.16.65-.42.83zm1.67-.37c0-1.34-1.08-2.43-2.4-2.43-1.33 0-2.41 1.09-2.41 2.43s1.08 2.43 2.41 2.43c1.32.01 2.4-1.08 2.4-2.43zm.28 0c0 1.48-1.2 2.69-2.69 2.69-1.48 0-2.68-1.2-2.68-2.69 0-1.48 1.2-2.69 2.68-2.69 1.49.01 2.69 1.21 2.69 2.69z" fill="#fff"/></g><defs><clipPath id="clip0"><path fill="#fff" d="M0 0h140.04v44.89H0z"/></clipPath></defs></svg>