<svg width="227" height="244" fill="none" xmlns="http://www.w3.org/2000/svg"><path d="M177.779 40.59l-50.376 28.245c-8.308 4.655-16.638 9.295-24.94 13.988-7.201 4.098-14.847 8.805-18.796 16.421-3.322 6.441-3.7 15.139 1.46 20.689.783.84 2.19-.263 1.408-1.104-4.54-4.895-4.288-12.284-1.638-18.083 3.435-7.459 10.968-12.148 17.832-16.06 16.08-9.17 32.307-18.131 48.463-27.178 9.105-5.106 18.193-10.19 27.276-15.312.995-.54.3-2.182-.689-1.606z" fill="#fff"/><path d="M178.862 42.385c-.014.156-.529.312-.534.275.01-.06.343.485.151.111.104.176.38.345.49.559.394.69.162 1.687.106 2.447a137.27 137.27 0 01-.457 6.304c-.398 4.18-.968 8.366-1.678 12.517-1.448 8.248-3.451 16.39-5.777 24.428s-4.992 15.993-7.701 23.917c-1.41 4.106-2.814 8.249-4.326 12.312-1.596 4.269-3.451 8.482-6.177 12.156-4.498 6.046-12.525 10.774-20.14 8.029-1.08-.39-1.708 1.285-.628 1.675 7.042 2.526 14.806-.66 19.824-5.825 6.661-6.863 9.314-16.664 12.353-25.447 5.974-17.243 11.704-34.698 14.67-52.744a158.57 158.57 0 001.747-15.202c.078-1.243.189-2.53.187-3.8a3.27 3.27 0 00-.764-2.094c-.882-1.114-2.829-1.64-3.094.268-.205 1.051 1.593 1.234 1.748.114zm-94.375 76.512c-3.547 4.34-6.51 9.109-8.888 14.173-.495 1.039 1.179 1.664 1.673.626a66.9 66.9 0 018.645-13.751c.727-.902-.703-1.95-1.43-1.048z" fill="#fff"/><path d="M131.834 145.92a53.228 53.228 0 01-12.641 16.795c-.863.768.253 2.154 1.101 1.407a55.577 55.577 0 0013.213-17.577c.495-1.038-1.178-1.664-1.673-.625z" fill="#fff"/><path d="M74.45 134.23c7.337 12.35 19.001 21.932 32.489 26.845a59.789 59.789 0 0011.731 2.991c1.141.169 1.311-1.608.191-1.761-13.711-2.107-26.543-9.142-35.832-19.419a57.332 57.332 0 01-6.92-9.376c-.612-.982-2.256-.285-1.66.72z" fill="#fff"/><path d="M82.743 145.912l1.13-1.541c.683-.933-.725-1.966-1.431-1.048a65.858 65.858 0 00-7.365 11.686c-.163.314-.001.866.312 1.029a526.403 526.403 0 0128.673 17.008.913.913 0 001.24-.192c2.564-3.226 4.651-6.801 6.144-10.612.414-1.064-1.243-1.712-1.673-.625-1.436 3.686-3.449 7.115-5.918 10.211l1.241-.193a528.421 528.421 0 00-28.673-17.008c.111.348.2.681.312 1.029 1.964-3.999 4.372-7.739 7.121-11.263l-1.43-1.048-1.13 1.541c-.668.912.784 1.976 1.447 1.026z" fill="#fff"/><path d="M82.631 161.746c.425-.49.813-.973 1.238-1.462l-1.43-1.048a38.827 38.827 0 01-5.995 5.816c-2.096 1.634-4.412 2.839-6.634 4.281-1.838 1.189-3.79 2.761-4.148 5.068-.176 1.105.151 2.113.447 3.163.356 1.196.19 2.241-.731 3.135-1.757 1.715-4.359 2.311-6.444 3.519-2.17 1.28-4.007 2.969-5.66 4.861-1.732 2-3.22 4.213-4.644 6.473-1.037 1.642-3.077 4.017-2.163 6.088.898 2.093 3.603 2.174 5.335 1.174 1.096-.631 1.952-1.572 2.814-2.476 1.048-1.066 2.08-2.112 3.129-3.178.532-.545 1.026-1.083 1.58-1.612.234-.228.808-.875 1.191-.762.664.186.013 1.711-.14 2.1-.923 2.26-1.562 4.36-1.37 6.87.144 1.94.875 4.578 3.059 5.144 2.523.648 3.676-2.244 4.599-4.003.696-1.359 1.413-2.701 2.093-4.038.327-.628.638-1.234.965-1.862.211-.379.314-.838.635-.503.702.815-.052 1.798-.643 2.332-.933.818-2.011 1.562-2.505 2.736-.729 1.767.231 3.639 1.779 4.573 1.785 1.108 3.884.744 5.604-.331 2.159-1.354 3.673-3.648 4.877-5.835 1.309-2.377 2.244-5.062 3.764-7.318.519-.754 1.23-1.634 2.242-1.56-.236-.406-.487-.79-.744-1.212-1.486 2.981-1.454 6.575.092 9.51.214.39.744.712 1.167.454 2.191-1.264 3.32-3.44 3.795-5.861.5-2.502.13-5.042.207-7.555.09-2.804 1.072-5.054 2.689-7.305 1.48-2.019 3.148-3.933 4.097-6.273.913-2.201 1.161-4.721.005-6.87-.537-.994-2.18-.297-1.622.713 1.233 2.272.464 4.912-.772 7.008-1.58 2.747-3.955 4.943-5.221 7.852-1.177 2.742-.937 5.687-.896 8.586.045 2.802-.256 6.485-2.999 8.046l1.166.454c-1.375-2.577-1.39-5.557-.078-8.165.247-.52-.216-1.16-.744-1.213-2.045-.164-3.453 1.44-4.356 3.081-1.372 2.464-2.404 5.144-3.88 7.567-1.184 1.934-2.815 4.342-5.164 4.956-1.443.378-3.937-.582-3.493-2.46.283-1.16 1.712-1.881 2.494-2.676.734-.73 1.15-1.525 1.108-2.558-.063-1.414-1.21-3.256-2.87-2.537-1.066.454-1.514 1.793-2.02 2.757a221.867 221.867 0 00-2.094 4.038c-.548 1.066-1.019 2.39-1.848 3.25-.98 1.017-1.91-.031-2.306-.99-.92-2.108-.556-4.878.24-6.964.582-1.475 1.844-3.653.523-5.122-1.627-1.826-3.706.421-4.856 1.58-1 1.002-1.995 2.041-2.996 3.043-.915.931-1.791 1.99-2.886 2.756-.8.548-2.06.993-2.869.234-.895-.824.198-2.225.658-2.989 1.338-2.189 2.697-4.362 4.252-6.393 1.539-2.008 3.272-3.874 5.338-5.33 1.943-1.378 4.2-2.094 6.247-3.296 2.154-1.258 3.72-3.213 3.053-5.804-.302-1.223-.82-2.335-.257-3.558.5-1.136 1.567-1.955 2.554-2.666 2.365-1.637 4.928-2.862 7.217-4.621a39.61 39.61 0 006.463-6.274c.749-.886-.697-1.912-1.43-1.048-.425.489-.813.972-1.238 1.461-.75.886.697 1.913 1.43 1.049z" fill="#fff"/><path d="M85.708 165.502c-2.512 2.563-5.04 5.149-7.551 7.712-.798.817.302 2.224 1.1 1.408 2.512-2.564 5.04-5.15 7.551-7.713.814-.838-.286-2.245-1.1-1.407zm-5.243 14.108c-1.452 1.572-2.92 3.166-4.372 4.738-.776.832.654 1.88 1.43 1.048 1.453-1.572 2.92-3.166 4.372-4.738.776-.832-.654-1.88-1.43-1.048zM141.1 60.188c-6.711-1.114-13.422-2.229-20.112-3.327-5.644-.934-11.49-2.048-17.211-.968-5.57 1.056-10.458 4.18-14.918 7.585-5.085 3.848-10.087 7.856-14.91 12.028-5.64 4.877-10.951 10.126-15.417 16.129-.573.781.28 1.573 1.073 1.354 9.713-2.892 19.947-3.767 30.009-2.633 1.135.132 1.327-1.63.191-1.761-10.4-1.216-20.93-.257-30.916 2.734.354.427.713.89 1.067 1.317 7.717-10.394 18.007-18.435 28.104-26.35 4.31-3.382 8.883-6.804 14.255-8.272 5.464-1.501 11.178-.617 16.661.265 7.303 1.215 14.623 2.408 21.948 3.639 1.132.229 1.318-1.57.176-1.74zm32.467 19.922c-.032.043-.07.05-.102.093.22-.073.424-.124.644-.197-.008.329-.009.695-.017 1.023l.174.127c.076.123.33.276.401.36l.88.846a28.2 28.2 0 011.735 1.905 45.738 45.738 0 012.916 3.839c1.883 2.748 3.451 5.699 4.944 8.661 1.389 2.787 2.967 5.678 3.725 8.735.718 2.929.302 5.861-.707 8.692-1.025 2.852-2.503 5.506-3.9 8.185-1.667 3.183-3.349 6.388-5.015 9.571-1.667 3.183-3.349 6.388-5.016 9.571-1.608 3.058-3.152 6.165-5.269 8.917-1.04 1.374-2.33 2.997-3.891 3.855-1.048.567-1.186-.335-1.491-1.192-.337-.949-.691-1.875-1.007-2.807a3201.8 3201.8 0 01-4.096-11.41c-.377-1.077-2.036-.358-1.622.713 1.417 3.975 2.85 7.928 4.289 11.919.344.985.693 2.009 1.074 2.989.287.744.703 1.449 1.497 1.73 1.521.515 2.997-.772 4.01-1.699 2.919-2.665 4.926-6.132 6.762-9.591 1.967-3.73 3.913-7.476 5.859-11.222 1.951-3.708 3.881-7.432 5.832-11.141 1.635-3.139 3.404-6.28 4.277-9.745.869-3.367.636-6.64-.575-9.897-1.311-3.53-3.126-6.961-4.918-10.243-2.054-3.741-4.345-7.388-7.248-10.517-.718-.793-1.479-1.618-2.293-2.28-.569-.451-1.352-.791-2.036-.358-1.351.844.022 3.152 1.317 2.066.836-.822-.265-2.23-1.133-1.498zm-86.883 40.697c8.93 10.314 20.449 18.322 33.209 23.136 3.574 1.35 7.257 2.415 11.003 3.258 1.115.25 1.285-1.527.191-1.762-12.891-2.907-25.015-9.089-34.998-17.74a78.479 78.479 0 01-7.997-7.995c-.767-.863-2.175.241-1.408 1.103z" fill="#fff"/><path d="M88.147 123.947c.33-.859.644-1.696.952-2.572.356-.94-.97-1.677-1.552-.836a129.898 129.898 0 00-9.639 15.925c-.516 1.023 1.157 1.648 1.674.625 2.751-5.39 5.919-10.576 9.395-15.502-.524-.285-1.027-.553-1.551-.837a99.32 99.32 0 00-.953 2.572c-.392 1.08 1.281 1.706 1.674.625zm3.773.397a184.982 184.982 0 00-10.452 16.263c-.56.991.87 2.039 1.43 1.048a185.13 185.13 0 0110.452-16.263c.663-.949-.768-1.998-1.43-1.048zm3.834 3.677c-3.642 5.606-7.29 11.174-10.931 16.78-.625.943.811 2.029 1.43 1.048 3.642-5.606 7.29-11.174 10.931-16.78.641-.965-.811-2.029-1.43-1.048zm2.243 3.712a57.033 57.033 0 01-11.754 17.311c-.798.817.28 2.208 1.1 1.408a59.37 59.37 0 0012.327-18.093c.457-1.033-1.216-1.659-1.673-.626zm16.959 9.492a172.194 172.194 0 00-12.011 16.89c-.603.959.811 2.029 1.43 1.048a172.061 172.061 0 0112.011-16.889c.749-.886-.681-1.934-1.43-1.049zm1.996 3.231l-10.961 14.957c-.684.933.747 1.981 1.431 1.048l10.96-14.957c.684-.933-.746-1.981-1.43-1.048zm3.485 1.653c-3.343 5.425-7.389 10.401-12.07 14.744-.842.785.259 2.192 1.1 1.407a73.066 73.066 0 0012.422-15.087c.597-.996-.833-2.045-1.452-1.064zm2.945.39l-10.547 14.393c-.684.933.746 1.981 1.431 1.048l10.546-14.392c.669-.912-.762-1.96-1.43-1.049zm5.262.32c-3.919 4.802-7.8 9.598-11.719 14.401-.727.901.703 1.949 1.43 1.048 3.919-4.802 7.8-9.599 11.719-14.401.712-.88-.718-1.928-1.43-1.048z" fill="#fff"/><path d="M78.792 150.758c3.02-.122 6.079-.25 9.12-.356 1.146-.062.859-1.807-.27-1.767-3.02.122-6.079.25-9.121.356-1.145.062-.874 1.829.27 1.767zm-1.81 4.879c4.838-.558 9.677-1.116 14.532-1.695 1.133-.137.884-1.888-.27-1.767-4.84.558-9.678 1.116-14.533 1.695-1.133.138-.862 1.904.27 1.767zm4.606 3.442a147.77 147.77 0 0017.517-2.177c1.121-.213.85-1.979-.271-1.767-5.78 1.069-11.628 1.822-17.517 2.177-1.14.1-.852 1.845.27 1.767zm5.692 4.005c5.606-1.197 11.197-2.372 16.804-3.568 1.116-.25.866-2.001-.271-1.767-5.607 1.197-11.198 2.371-16.804 3.568-1.116.25-.845 2.016.27 1.767zm5.487 2.42a54.947 54.947 0 0015.071-3.203c1.077-.378.361-2.037-.71-1.621a54.464 54.464 0 01-14.61 3.073c-1.166.046-.895 1.813.25 1.751zm4.859 3.46c4.035-1.28 8.055-2.538 12.113-3.802 1.082-.341.372-1.963-.711-1.621a2552.157 2552.157 0 01-12.113 3.802c-1.082.341-.372 1.962.71 1.621zm2.635 2.131c2.479-.519 4.936-1.054 7.393-1.588 1.116-.25.867-2.001-.27-1.767-2.458.535-4.936 1.054-7.394 1.589-1.115.25-.845 2.016.271 1.766zM156.875 69.48c-6.503-2.264-14.076 4.798-11.084 11.396 1.343 2.986 4.472 5.079 7.691 5.369 4.214.385 7.581-2.619 9.319-6.217 1.011-2.062 1.415-4.568.559-6.763-.806-2.127-2.775-3.803-5.068-3.948-1.146-.072-1.337 1.689-.191 1.762 1.711.119 3.052 1.335 3.638 2.899.619 1.655.261 3.461-.422 5.03-1.266 2.909-3.98 5.658-7.353 5.488-2.523-.148-5.017-1.608-6.276-3.799-1.336-2.313-.885-5.02.766-7.045 1.832-2.228 4.965-3.502 7.771-2.514 1.117.385 1.745-1.29.65-1.659zM137.833 98.6c-1.847-2.388-4.928-3.411-7.876-3.07-3.083.344-5.915 2.072-8.13 4.186-4.569 4.325-7.073 10.832-4.88 16.976 2.108 5.85 8.095 8.635 14.045 7.924 6.01-.701 11.869-5.015 13.431-11.01 1.5-5.774-1.994-12.505-8.118-13.557-1.126-.191-1.318 1.57-.192 1.761 4.444.755 7.316 5.562 6.86 9.866-.585 5.343-5.337 9.601-10.363 10.823-4.859 1.177-10.497-.085-13.156-4.637-2.786-4.744-1.55-10.611 1.676-14.787 1.831-2.362 4.336-4.463 7.252-5.396 2.802-.915 6.152-.395 8.043 2.024.719.928 2.106-.192 1.408-1.103zM98.46 60.604a233.931 233.931 0 0137.278 3.629c1.126.19 1.317-1.57.192-1.762a231.255 231.255 0 00-37.279-3.628c-1.14-.035-1.331 1.726-.191 1.76zm-4.828 2.134a199.682 199.682 0 0134.787 4.573c1.116.25 1.286-1.527.192-1.761a200.948 200.948 0 00-34.788-4.573c-1.146-.073-1.332 1.726-.191 1.76zm-7.503 4.512a171.717 171.717 0 0137.432 4.008c1.116.25 1.286-1.526.192-1.76a171.72 171.72 0 00-37.433-4.01c-1.156-.013-1.363 1.77-.191 1.761zm-4.948 4.114a154.97 154.97 0 0134.657 3.343c1.115.25 1.301-1.549.191-1.761a155.51 155.51 0 00-34.656-3.343c-1.135.002-1.364 1.77-.192 1.761zm-4.522 3.626a217.704 217.704 0 0135.253 3.847c1.11.213 1.302-1.549.192-1.761-11.616-2.24-23.416-3.547-35.254-3.847-1.14-.035-1.347 1.748-.191 1.761zM73.7 79.028a197.952 197.952 0 0130.178 3.364c1.109.212 1.301-1.55.191-1.762a199.651 199.651 0 00-30.178-3.364c-1.14-.035-1.332 1.727-.191 1.762zm-8.851 4.123c10.84-.564 21.72.27 32.34 2.413 1.132.229 1.302-1.548.192-1.761-10.782-2.196-21.791-2.99-32.803-2.418-1.145.062-.874 1.828.271 1.766zm-3.509 3.835c10.309-.887 20.7-.612 30.962.702 1.136.132 1.327-1.63.191-1.761a147.32 147.32 0 00-31.403-.692c-1.16.084-.89 1.85.25 1.75zm92.797-30.724c3.921 8.012 12.748 13.012 21.639 12.288 1.139-.1.868-1.866-.271-1.767-8.074.656-16.171-3.977-19.73-11.256-.5-1-2.144-.303-1.638.735zm18.821 28.541c6.282 6.973 11.045 15.201 14.008 24.112.36 1.098 1.998.363 1.622-.714a69.81 69.81 0 00-14.243-24.517c-.745-.847-2.154.257-1.387 1.12zm.2 5.317c2.686 4.472 5.554 8.876 7.85 13.561 2.065 4.182 3.569 8.721 3.311 13.436-.075 1.147 1.701 1.314 1.76.189.282-4.931-1.197-9.685-3.312-14.071-2.368-4.905-5.405-9.533-8.216-14.196-.597-1.004-1.983.115-1.393 1.082z" fill="#fff"/><path d="M170.604 96.424c6.011 7.207 9.903 16.032 11.198 25.355.157 1.15 1.923.876 1.766-.274-1.335-9.586-5.376-18.753-11.555-26.184-.751-.885-2.16.219-1.409 1.103z" fill="#fff"/><path d="M168.937 102.109c6.893 7.82 10.549 18.24 9.973 28.662-.074 1.146 1.723 1.33 1.76.189.604-10.869-3.149-21.793-10.346-29.971-.746-.846-2.154.257-1.387 1.12z" fill="#fff"/><path d="M165.398 107.256c6.271 7.532 9.727 17.271 9.483 27.103-.036 1.141 1.746 1.345 1.761.188.249-10.294-3.276-20.484-9.874-28.389-.713-.889-2.084.208-1.37 1.098zm-1.321 8.575c-.247.019-.311.105-.153.254.076.123.153.246.267.363.147.208.273.4.42.608.3.454.601.907.885 1.383a43.406 43.406 0 011.654 2.88 51.526 51.526 0 012.701 5.95c1.569 4.086 2.592 8.372 3.126 12.734.135 1.133 1.901.859 1.766-.274a53.477 53.477 0 00-4.164-15.363 50.032 50.032 0 00-3.712-7.025c-.328-.507-.634-.998-.962-1.505-.3-.454-.608-1.08-1.079-1.392-.877-.576-2.023-.148-2.417.798-.419 1.028 1.254 1.653 1.668.589zm-3.458 6.174c5.477 7.116 8.547 15.972 8.521 24.962 0 1.135 1.761 1.324 1.76.189a43.11 43.11 0 00-8.911-26.249c-.66-.917-2.068.186-1.37 1.098zm-2.95 6.979a80.347 80.347 0 018.497 21.676c.248 1.116 2.015.842 1.767-.274a81.253 81.253 0 00-8.621-22.099c-.574-.988-2.196-.275-1.643.697zm-2.417 6.07a90.288 90.288 0 007.229 19.044c.521 1.016 2.165.319 1.622-.713-3.061-5.914-5.459-12.142-7.106-18.621-.264-1.094-2.03-.82-1.745.29zm6.313-85.293c-2.089 2.306-4.216 4.618-6.305 6.924-.755.848.675 1.896 1.43 1.048 2.089-2.306 4.216-4.618 6.306-6.923.776-.833-.676-1.897-1.431-1.049zm5.542-3.88l-10.118 13.806c-.684.934.747 1.982 1.431 1.048l10.117-13.806c.684-.933-.746-1.981-1.43-1.048zm6.126-3.451a235.882 235.882 0 00-14.11 19.755c-.603.96.811 2.03 1.43 1.048a235.894 235.894 0 0114.111-19.755c.727-.901-.703-1.95-1.431-1.048z" fill="#fff"/><path d="M175.506 44.329a95.443 95.443 0 012.134-1.64c-.429-.414-.837-.812-1.266-1.227-4.764 7.32-9.544 14.66-14.286 21.995-.625.943.811 2.03 1.43 1.048 4.764-7.319 9.544-14.66 14.287-21.995.545-.835-.439-1.856-1.266-1.227a92.798 92.798 0 01-2.134 1.639c-.912.7.189 2.107 1.101 1.407zm1.828-.495a175.217 175.217 0 01-13.906 22.34c-.684.933.746 1.981 1.43 1.048 5.297-7.229 10-14.827 14.15-22.763.516-1.023-1.157-1.648-1.674-.625z" fill="#fff"/><path d="M177.019 47.173a48.024 48.024 0 01-11.385 19.717c-.798.816.654 1.88 1.431 1.048 5.421-5.67 9.414-12.62 11.628-20.14.333-1.09-1.325-1.738-1.674-.625zm2.082 4.795c-3.312 5.247-6.619 10.531-9.931 15.778-.603.96.811 2.03 1.43 1.048 3.312-5.246 6.619-10.531 9.931-15.778.625-.943-.827-2.007-1.43-1.048zm-1.563 5.996c-1.912 3.336-3.808 6.651-5.742 9.972-.56.99.871 2.039 1.43 1.048 1.912-3.337 3.809-6.651 5.743-9.972.581-.975-.871-2.04-1.431-1.048z" fill="#fff"/><path d="M175.573 64.464l-2.959 4.038c-.684.933.746 1.981 1.43 1.048l2.959-4.038c.684-.933-.746-1.981-1.43-1.048zm-24.61 5.856a47409.78 47409.78 0 01-6.331 8.639c-.684.933.746 1.981 1.43 1.048l6.332-8.64c.684-.933-.747-1.981-1.431-1.048z" fill="#fff"/><path d="M152.352 70.47a463.574 463.574 0 00-3.471 4.963c-1.108 1.557-2.393 3.084-3.29 4.763-.544.97-.234 2.864 1.288 2.378 1.19-.396 1.27-2.005-.023-2.286-1.116-.25-1.286 1.527-.192 1.762.038-.006.081.026.118.02-.21-.121-.4-.227-.611-.348-.002-.269.016-.522.014-.791.499.5.796.55.916.204.085-.07.201-.32.265-.406.28-.429.598-.863.901-1.275.592-.9 1.245-1.79 1.875-2.696 1.214-1.747 2.465-3.5 3.678-5.246.646-.928-.784-1.976-1.468-1.042z" fill="#fff"/><path d="M154.558 70.55a63.024 63.024 0 01-7.958 11.586c-.749.886.698 1.912 1.431 1.048a65.793 65.793 0 008.178-12.024c.544-.969-1.113-1.616-1.651-.61z" fill="#fff"/><path d="M157.719 69.965c-2.842 3.923-5.678 7.884-8.52 11.807-.493.673-1.222 1.44-1.358 2.308-.09.668.3 1.454 1.027 1.553 1.454.198 1.971-2.326.417-2.297-1.113.019-1.342 1.786-.191 1.762-.103-.042-.168-.09-.271-.132-.125-.192-.251-.384-.339-.582.283 1.342 1.181-.202 1.302-.413.186-.299.43-.587.637-.869.413-.564.843-1.15 1.235-1.73.843-1.151 1.664-2.317 2.492-3.446 1.664-2.317 3.334-4.596 4.999-6.913.668-.912-.768-1.998-1.43-1.048z" fill="#fff"/><path d="M158.979 71.79c-2.666 3.183-5.338 6.33-8.005 9.514-.765.908-2.764 2.545-1.788 3.895.786 1.11 2.861.095 2.15-1.16-.575-.99-2.197-.276-1.622.712.005.038.049.07.076.123.003-.231-.01-.44-.007-.672.489.424.844.485 1.023.15l.175-.24c.207-.282.457-.532.686-.799.371-.461.749-.886 1.121-1.347.86-1.038 1.726-2.038 2.587-3.076 1.694-1.994 3.383-4.026 5.056-6.037.728-.901-.703-1.95-1.452-1.064z" fill="#fff"/><path d="M159.97 72.482l-8.86 12.091c-.684.934.746 1.982 1.43 1.048l8.861-12.09c.668-.912-.763-1.96-1.431-1.049z" fill="#fff"/><path d="M160.276 74.475l-8.018 10.94c-.684.934.746 1.982 1.43 1.048l8.018-10.94c.668-.912-.762-1.96-1.43-1.048z" fill="#fff"/><path d="M159.738 77.617l-5.059 6.903c-.684.933.747 1.981 1.431 1.048l5.058-6.903c.669-.912-.762-1.96-1.43-1.048z" fill="#fff"/><path d="M159.48 79.196l-4.215 5.753c-.684.933.746 1.981 1.43 1.048l4.216-5.753c.668-.911-.763-1.96-1.431-1.048zM126.634 96.7c-3.134 4.776-6.305 9.559-9.439 14.335-.625.944.811 2.03 1.43 1.049 3.134-4.777 6.306-9.56 9.44-14.336.64-.966-.79-2.014-1.431-1.048z" fill="#fff"/><path d="M128.038 99.83c.72-.574 1.424-1.126 2.144-1.699-.429-.414-.836-.813-1.265-1.228a4776.665 4776.665 0 00-10.826 16.591c-.625.943.811 2.029 1.43 1.048 3.616-5.525 7.232-11.05 10.826-16.59.529-.814-.46-1.872-1.266-1.228-.72.573-1.424 1.125-2.144 1.698-.89.716.21 2.123 1.101 1.408zm2.864-1.772l-12.507 18.294c-.663.95.789 2.014 1.43 1.048l12.507-18.294c.662-.949-.768-1.997-1.43-1.048z" fill="#fff"/><path d="M132.724 98.526a6780.73 6780.73 0 01-13.145 19.528c-.641.965.79 2.013 1.43 1.048a7144.668 7144.668 0 0113.145-19.528c.625-.943-.789-2.013-1.43-1.048zm3.03 1.32a166.324 166.324 0 01-13.137 18.699c-.728.902.702 1.95 1.43 1.049 4.783-5.937 9.193-12.182 13.137-18.7.598-.997-.833-2.045-1.43-1.048z" fill="#fff"/><path d="M136.881 100.672c-4.231 6.909-8.867 13.554-13.959 19.866-.727.901.703 1.949 1.43 1.048a192.592 192.592 0 0013.959-19.866c.598-.997-.833-2.045-1.43-1.048z" fill="#fff"/><path d="M137.125 103.519a155.516 155.516 0 01-12.432 18.283c-.706.917.725 1.966 1.43 1.048a155.377 155.377 0 0012.432-18.282c.56-.992-.87-2.04-1.43-1.049z" fill="#fff"/><path d="M137.617 105.848c-2.294 5.493-5.549 10.481-9.612 14.844-.777.832.653 1.881 1.43 1.048a51.36 51.36 0 009.839-15.244c.452-1.071-1.222-1.696-1.657-.648z" fill="#fff"/><path d="M138.56 106.607a30.797 30.797 0 01-9.305 13.834c-.869.731.232 2.138 1.1 1.407 4.542-3.879 7.98-8.934 9.862-14.594.371-1.096-1.302-1.722-1.657-.647z" fill="#fff"/><path d="M141.759 106.015a86.02 86.02 0 01-9.292 13.543c-.749.886.697 1.912 1.43 1.048a85.912 85.912 0 009.292-13.543c.56-.991-.876-2.077-1.43-1.048z" fill="#fff"/><path d="M141.271 110.362c-1.902 3.777-4.307 7.287-7.071 10.466-.755.849.697 1.913 1.431 1.049a52.221 52.221 0 007.313-10.89c.517-1.022-1.157-1.648-1.673-.625z" fill="#fff"/><path d="M140.709 113.219a31.12 31.12 0 00-4.492 7.585c-.436 1.049 1.222 1.697 1.673.626a28.675 28.675 0 014.25-7.162c.727-.902-.703-1.95-1.431-1.049z" fill="#fff"/><path d="M142.046 107.759c-.442 2.513-1.532 4.817-3.135 6.778-.728.902.702 1.95 1.43 1.048 1.816-2.205 2.972-4.828 3.481-7.658.192-1.127-1.584-1.294-1.776-.168zm-4.922-8.01c1.573 2.854 2.07 6.221 1.21 9.394-.295 1.085 1.384 1.748 1.673.626.947-3.611.569-7.458-1.261-10.734-.537-.994-2.159-.28-1.622.714z" fill="#fff"/><path d="M136.053 100.165c3.611.845 5.62 5.286 4.164 8.59-.473 1.055 1.2 1.68 1.673.626 1.971-4.462-.983-9.93-5.651-11.015-1.11-.213-1.28 1.565-.186 1.799z" fill="#fff"/><path d="M140.044 103.991a7.483 7.483 0 01-.875 6.331c-.625.943.811 2.029 1.43 1.048 1.588-2.44 1.972-5.328 1.067-8.093-.323-1.104-1.961-.369-1.622.714zm-15.178 18.438c3.885 1.245 8.046.658 11.502-1.514.983-.614-.133-1.999-1.1-1.407-2.874 1.831-6.521 2.262-9.736 1.24-1.127-.325-1.777 1.334-.666 1.681z" fill="#fff"/><path d="M126.276 124.597a24.128 24.128 0 009.526-2.862c.994-.539.3-2.183-.711-1.622a22.905 22.905 0 01-9.086 2.717c-1.139.1-.868 1.867.271 1.767zm8.526-26.317l-10.826 18.592c-.581.976.871 2.04 1.43 1.048l10.827-18.591c.581-.975-.849-2.023-1.431-1.048z" fill="#fff"/><path d="M133.538 98.188c-4.365 7.411-8.747 14.844-13.112 22.256-.581.975.871 2.039 1.43 1.048 4.366-7.411 8.747-14.844 13.112-22.256.582-.975-.849-2.023-1.43-1.048z" fill="#fff"/><path d="M134.004 100.098c2.842-1.288 6.387 1.01 6.532 4.086.06 1.145 1.826.871 1.766-.274-.205-4.22-5.177-7.163-9.009-5.434-1.043.47-.333 2.091.711 1.622z" fill="#fff"/><path d="M133.947 98.221c4.248-.524 8.12 4.283 6.742 8.344-.37 1.097 1.303 1.723 1.674.626 1.816-5.342-3.075-11.395-8.671-10.758-1.149.159-.878 1.925.255 1.788z" fill="#fff"/><path d="M140.62 100.842c1.205 2.219 1.635 4.769 1.053 7.245-.274 1.101 1.383 1.748 1.673.626.707-2.919.358-5.944-1.067-8.59-.575-.988-2.218-.29-1.659.719z" fill="#fff"/><path d="M141.983 103.209a15.183 15.183 0 01-2.706 7.193c-.662.949.768 1.997 1.43 1.048a17.55 17.55 0 003.036-8.052c.134-1.137-1.627-1.326-1.76-.189z" fill="#fff"/><path d="M140.247 103.305c2.192 1.873 2.349 5.658.278 7.711-.82.801.281 2.208 1.101 1.407 2.922-2.896 2.796-7.86-.329-10.551-.847-.753-1.896.679-1.05 1.433z" fill="#fff"/><path d="M142.09 103.654c1.68 2.934 1.595 6.641-.36 9.446-.663.949.767 1.997 1.43 1.048 2.268-3.276 2.544-7.745.551-11.207-.553-.973-2.196-.275-1.621.713z" fill="#fff"/></svg>