<svg width="274" height="233" viewBox="0 0 274 233" fill="none" xmlns="http://www.w3.org/2000/svg">
<path d="M183.96 86.0642C183.96 116.654 159.163 141.45 128.574 141.45C97.9841 141.45 73.1875 116.654 73.1875 86.0642C73.1875 55.4748 97.9841 30.6782 128.574 30.6782C159.163 30.6782 183.96 55.4748 183.96 86.0642Z" fill="white"/>
<path d="M82.5935 222.699H90.6588L84.8275 174.312L80.3365 172.779C80.3365 172.779 79.2773 186.575 80.348 198.508C81.4188 210.436 82.736 223.327 82.736 223.327L82.5935 222.699Z" fill="white"/>
<path d="M242.477 22.2231H132.876V230.009H242.477V22.2231Z" fill="#1A1A1A"/>
<path d="M234.273 31.3408H138.992V208.545H234.273V31.3408Z" fill="white"/>
<path d="M226.465 115.864H142.886V145.102H226.465V115.864Z" fill="#EC5252"/>
<path d="M257.086 28.7213C257.086 44.355 244.411 57.0306 228.773 57.0306C213.139 57.0306 200.464 44.355 200.464 28.7213C200.464 13.0838 213.139 0.408203 228.773 0.408203C244.411 0.408203 257.086 13.0838 257.086 28.7213Z" fill="white"/>
<path d="M165.349 122.516H170.91C172.328 122.516 173.441 122.905 174.15 123.614C174.7 124.161 174.981 124.835 174.981 125.705C174.981 127.192 174.134 127.989 173.21 128.467C174.662 128.964 175.671 129.796 175.671 131.513C175.671 133.728 173.845 134.914 171.088 134.914H165.349V122.516ZM170.467 127.739C171.869 127.739 172.805 127.188 172.805 126.021C172.805 125.047 172.027 124.446 170.629 124.446H167.494V127.739H170.467ZM171.107 132.981C172.593 132.981 173.495 132.395 173.495 131.244C173.495 130.2 172.663 129.58 170.945 129.58H167.49V132.981H171.107Z" fill="white"/>
<path d="M179.703 129.652V122.515H181.883V129.564C181.883 131.867 183.069 133.107 185.014 133.107C186.944 133.107 188.13 131.936 188.13 129.652V122.515H190.307V129.544C190.307 133.246 188.219 135.106 184.976 135.106C181.76 135.106 179.703 133.246 179.703 129.652Z" fill="white"/>
<path d="M198.722 130.022L193.8 122.515H196.369L199.839 128.004L203.348 122.515H205.844L200.921 129.972V134.913H198.726V130.022H198.722Z" fill="white"/>
<path d="M72.4708 73.0835C72.4708 73.0835 73.2334 80.4246 59.0711 87.111L58.6936 87.2998C58.6936 87.2998 57.3995 85.6359 54.6956 86.306C51.9918 86.9801 51.3178 91.1244 52.1112 93.4431C52.9085 95.7617 55.335 99.259 59.4524 97.337C59.4524 97.337 61.382 103.6 61.1317 108.349C60.8852 113.098 60.4885 115.347 60.4885 115.347L67.7603 117.828L69.921 109.72C69.921 109.72 78.3945 107.44 79.2226 101.82C80.0469 96.2008 79.3151 95.7078 79.3151 95.7078C79.3151 95.7078 83.86 92.1836 84.249 91.5519C84.6341 90.9241 84.7381 90.4003 84.249 89.9766C83.7598 89.5568 76.8924 84.3918 76.8924 84.3918C76.8924 84.3918 74.9512 74.8745 72.4708 73.0835Z" fill="white"/>
<path d="M146.036 150.663C146.036 150.663 154.225 149.08 155.958 148.221C157.691 147.362 157.641 147.77 160.326 143.899C163.141 139.836 168.857 137.433 171.045 136.165C173.228 134.898 178.605 132.749 178.605 132.749C178.605 132.749 181.818 135.272 180.354 136.647C179.133 137.798 174.519 138.669 174.53 139.936C174.542 141.203 177.989 146.938 177.265 149.315C176.541 151.691 175.081 155.905 166.569 155.416L150.169 162.872L146.036 150.663Z" fill="white"/>
<path d="M29.9223 168.838C29.9223 168.838 31.54 185.755 30.762 197.317C29.9801 208.88 28.5435 223.554 25.3428 232.155H87.2804C87.2804 232.155 84.1105 203.51 83.7176 195.037C83.3248 186.563 83.136 177.339 83.9256 172.775C83.9256 172.775 100.561 178.822 115.493 176.796C130.43 174.77 151.325 166.466 151.325 166.466L145.463 149.315C145.463 149.315 130.954 153.447 110.983 148.552C91.0126 143.657 85.6011 133.003 82.1462 131.204C78.6913 129.406 73.665 121.864 58.4357 121.483C58.4357 121.483 54.2529 127.018 47.2892 131.447C40.3216 135.872 39.0352 146.048 38.0646 149.788C37.0863 153.532 38.8157 170.984 29.9223 168.838Z" fill="#EC5252"/>
<path d="M14.3428 164.271L18.4563 164.394C18.4563 164.394 17.193 162.561 16.8348 159.518L14.3428 164.271Z" fill="#EC5252"/>
<path d="M12.7403 167.472C12.7403 167.472 -1.1024 195.457 0.480605 206.2C0.480605 206.2 0.0684828 212.921 9.52031 214.931L12.7403 167.472Z" fill="#EC5252"/>
<path d="M253.882 152.92H209.276V161.301H253.882V152.92Z" fill="#CBD9FE"/>
<path d="M219.514 173.122H203.222V189.418H219.514V173.122Z" fill="#EC5252"/>
<path d="M246.428 159.783H211.098V175.914H246.428V159.783Z" fill="#CBD9FE"/>
<path d="M263.109 175.872H198.098V185.825H263.109V175.872Z" fill="#CBD9FE"/>
<path d="M260.729 184.364H201.075V203.934H260.729V184.364Z" fill="#CBD9FE"/>
<path d="M273.413 203.936H193.007V214.027H273.413V203.936Z" fill="#CBD9FE"/>
<path d="M271.634 211.826H194.529V232.155H271.634V211.826Z" fill="#CBD9FE"/>
<path d="M189.139 215.035C189.139 217.897 186.82 220.216 183.959 220.216C181.097 220.216 178.778 217.897 178.778 215.035C178.778 212.174 181.097 209.851 183.959 209.851C186.817 209.855 189.139 212.174 189.139 215.035Z" fill="white"/>
<path d="M260.733 185.824H229.23V203.934H260.733V185.824Z" fill="#95B1FD"/>
<path d="M263.014 175.872H227.983V185.871H263.014V175.872Z" fill="#95B1FD"/>
<path d="M273.413 203.936H245.196V214.027H273.413V203.936Z" fill="#95B1FD"/>
<path d="M271.633 214.022H243.378V232.155H271.633V214.022Z" fill="#95B1FD"/>
<path d="M251.763 161.313H241.337V175.872H251.763V161.313Z" fill="#95B1FD"/>
<path d="M253.881 152.92H243.678V161.301H253.881V152.92Z" fill="#95B1FD"/>
<path d="M58.694 87.2961C58.694 87.2961 61.2399 84.7348 64.5022 81.7267C67.7645 78.7186 73.5689 70.846 69.4207 67.133C65.2725 63.4239 57.6425 63.2776 49.6735 64.8221C41.8856 66.328 36.0427 69.1127 33.5931 71.3775C31.1435 73.6422 30.8931 81.8846 31.5826 85.7093C32.272 89.5339 34.3788 99.4133 34.8179 105.46C35.257 111.507 33.8627 119.611 28.5244 129.756C23.1861 139.905 22.6892 143.31 20.3975 148.109C18.1058 152.908 15.1247 163.542 20.748 166.462C29.1368 170.822 33.0847 168.033 33.5662 164.263C34.0515 160.496 34.6407 145.617 37.3946 140.961C40.1485 136.308 40.0484 133.974 48.9148 128.192C57.7812 122.411 58.1471 113.298 58.174 111.265C58.1971 109.235 58.8134 102.263 57.1418 97.8495C57.1418 97.8495 52.8665 98.1114 51.8035 91.4982C51.8035 91.4982 51.4915 87.2961 55.2199 86.1946C57.7581 85.4512 58.694 87.2961 58.694 87.2961Z" fill="#1A1A1A"/>
<path d="M251.971 28.7211C251.971 41.5316 241.587 51.9193 228.772 51.9193C215.962 51.9193 205.574 41.5316 205.574 28.7211C205.574 15.9069 215.958 5.52295 228.772 5.52295C241.587 5.5191 251.971 15.9069 251.971 28.7211Z" fill="#EC5252"/>
<path d="M165.23 173.122H148.934V189.418H165.23V173.122Z" fill="#EC5252"/>
<path d="M187.28 166.162H170.983V182.458H187.28V166.162Z" fill="#EC5252"/>
<path d="M23.5754 164.375L9.24354 164.291L5.00293 222.962H26.6258L23.5754 164.375Z" fill="white"/>
<path d="M128.574 46.2656H123.96V53.0521C123.96 53.0521 108.037 54.6274 107.155 71.0122C106.173 89.3265 125.62 92.1613 128.678 93.3437V77.5676C128.678 77.5676 120.505 76.3697 120.724 70.4806C120.944 64.5915 126.013 63.5439 128.678 63.3244L128.574 46.2656Z" fill="#EC5252"/>
<path d="M128.743 128.574H124.121L124.152 119.615C124.152 119.615 113.849 119.115 109.323 111.75C104.963 104.66 104.975 101.471 104.975 101.471L116.699 98.501C116.699 98.501 118.055 108.723 128.674 108.858L128.743 128.574Z" fill="#EC5252"/>
<path d="M57.1301 98.2697C56.3944 98.2697 55.6857 98.1117 55.031 97.7921C52.9087 96.7637 51.8187 94.4296 51.526 92.7388C51.0176 89.7961 51.7455 86.4067 55.3044 85.7211C58.1084 85.1896 59.7261 87.9088 59.7954 88.0244C59.9071 88.2208 59.8416 88.4673 59.6452 88.5829C59.4487 88.6946 59.1984 88.6291 59.0867 88.4365C59.0289 88.3402 57.6809 86.087 55.4585 86.5261C51.7109 87.2464 52.1191 91.356 52.3348 92.6001C52.6121 94.2139 53.6636 96.2206 55.3891 97.0564C56.718 97.7035 58.2393 97.5687 59.9032 96.6635C60.0958 96.5595 60.3462 96.6289 60.4579 96.8292C60.5657 97.0256 60.4925 97.2759 60.2922 97.3838C59.2022 97.9731 58.1353 98.2697 57.1301 98.2697Z" fill="black"/>
<path d="M56.1293 95.4188C56.006 95.4188 55.8828 95.3649 55.8019 95.2571C55.6671 95.076 55.7018 94.8218 55.8828 94.6832L58.7792 92.4955L54.5694 89.1677C54.3922 89.029 54.3614 88.771 54.5039 88.5938C54.6426 88.4166 54.9006 88.3858 55.0778 88.5283L59.7036 92.1873C59.8037 92.2644 59.8576 92.3838 59.8576 92.5109C59.8576 92.638 59.796 92.7574 59.6959 92.8344L56.3758 95.3418C56.3026 95.3919 56.2179 95.4188 56.1293 95.4188Z" fill="black"/>
<path d="M71.7235 87.4321C72.0355 87.4166 72.2781 87.147 72.2627 86.8351L72.1818 85.2328C72.1664 84.9208 71.8968 84.6782 71.5848 84.6936C71.2729 84.709 71.0302 84.9786 71.0456 85.2944L71.1265 86.8967C71.1419 87.2048 71.4115 87.4475 71.7235 87.4321Z" fill="black"/>
<path d="M67.9687 118.305C67.6644 118.251 67.5219 118.036 67.5681 117.816L69.3129 109.366C69.3591 109.146 69.5748 109 69.7943 109.046C70.0139 109.092 70.1564 109.308 70.114 109.528L68.3692 117.978C68.3307 118.174 68.1613 118.305 67.9687 118.305Z" fill="black"/>
<path d="M67.7568 110.129C67.5527 110.129 67.3755 109.979 67.3524 109.771C67.3216 109.547 67.4834 109.343 67.7067 109.312C72.4789 108.715 75.8298 107.009 77.6631 104.24C80.1898 100.427 78.9342 95.8627 78.9188 95.8165C78.8725 95.647 78.9342 95.466 79.0805 95.3697C81.9538 93.39 84.3842 91.1792 84.284 90.6361C84.0915 90.2008 82.2504 88.9414 80.7714 87.9323C78.1407 86.1336 76.5192 84.9935 76.3497 84.1923C74.5934 75.9499 72.2863 73.1806 72.2632 73.1498C72.1168 72.9803 72.1361 72.7223 72.3056 72.5759C72.4789 72.4296 72.7331 72.4488 72.8795 72.6183C72.9796 72.7338 75.3368 75.5339 77.147 84.0229C77.2587 84.5467 79.6506 86.1798 81.2336 87.2582C83.4097 88.7449 84.7578 89.6886 85.0351 90.3125C85.5897 91.572 82.0886 94.272 79.7777 95.882C80.0319 96.9989 80.729 101.093 78.3449 104.694C76.3729 107.672 72.8294 109.497 67.8107 110.125C67.7915 110.125 67.7722 110.129 67.7568 110.129Z" fill="black"/>
<path d="M71.9284 124.949C71.782 124.949 71.6434 124.872 71.5702 124.737L68.1192 118.382L60.3543 115.736C60.1425 115.663 60.027 115.428 60.1001 115.216C60.1733 115.004 60.4006 114.889 60.6201 114.962L68.5351 117.662C68.6314 117.697 68.7123 117.766 68.7624 117.854L72.2905 124.352C72.3983 124.549 72.3251 124.799 72.1248 124.907C72.0632 124.934 71.9939 124.949 71.9284 124.949Z" fill="black"/>
<path d="M87.2795 232.563C87.0754 232.563 86.8982 232.413 86.8713 232.205C85.943 224.548 81.4097 185.701 83.4357 172.683C83.4703 172.459 83.6706 172.301 83.9017 172.34C84.1251 172.374 84.2792 172.582 84.2445 172.806C82.2378 185.72 86.7596 224.467 87.684 232.105C87.7109 232.328 87.553 232.533 87.3258 232.56C87.3104 232.563 87.295 232.563 87.2795 232.563Z" fill="black"/>
<path d="M25.3432 232.564C25.3009 232.564 25.2585 232.556 25.2123 232.545C25.0004 232.475 24.881 232.24 24.9542 232.028C27.8968 223.162 32.3955 203.172 29.4375 168.928C29.4182 168.704 29.5838 168.504 29.8111 168.485C30.0499 168.458 30.2348 168.631 30.254 168.858C33.2236 203.249 28.698 223.362 25.7322 232.29C25.6745 232.456 25.5166 232.564 25.3432 232.564Z" fill="black"/>
<path d="M108.198 177.497C95.442 177.497 85.3469 174.304 77.8979 170.568C62.1873 162.692 54.5649 150.76 54.4918 150.64C54.3724 150.451 54.4301 150.197 54.6227 150.078C54.8114 149.958 55.0657 150.016 55.1851 150.209C55.2582 150.324 62.7843 162.087 78.3024 169.86C92.5764 177.008 116.73 182.139 150.82 166.104L145.428 150.143C141.534 150.817 106.716 156.133 86.2058 135.519C73.4339 122.678 63.5315 122.173 58.7709 121.93L58.1123 121.896C57.8889 121.884 57.7156 121.688 57.7271 121.464C57.7425 121.241 57.9467 121.083 58.1585 121.079L58.8133 121.114C63.674 121.36 73.7883 121.88 86.7836 134.941C108.106 156.371 145.251 149.346 145.621 149.273C145.821 149.238 146.025 149.35 146.087 149.542L151.71 166.181C151.776 166.378 151.687 166.593 151.498 166.682C134.694 174.643 120.258 177.497 108.198 177.497Z" fill="black"/>
<path d="M69.1309 84.2648C69.0269 84.2648 68.9191 84.2224 68.8382 84.1416C68.6803 83.9798 68.6841 83.7217 68.8421 83.5638C68.9037 83.5022 70.4212 82.027 72.4587 81.3684C72.6783 81.2875 72.9055 81.4185 72.9748 81.6303C73.0442 81.846 72.9286 82.0771 72.7129 82.1426C70.8564 82.7434 69.4314 84.13 69.4159 84.1416C69.3389 84.2263 69.2349 84.2648 69.1309 84.2648Z" fill="black"/>
<path d="M150.12 163.161C149.966 163.161 149.815 163.073 149.746 162.922C149.654 162.718 149.742 162.476 149.95 162.383L166.158 155.011C166.235 154.977 166.316 154.965 166.4 154.98C167.86 155.25 172.709 155.154 175.394 152.492C178.148 149.765 176.172 145.305 174.862 142.351C174.096 140.614 173.668 139.655 174.296 139.239C175.429 138.48 176.661 137.937 177.851 137.413C178.387 137.178 178.926 136.939 179.454 136.681C179.677 136.574 179.873 136.473 180.024 136.339C180.17 136.208 180.293 136.015 180.416 135.742C180.644 135.229 180.728 134.721 180.659 134.282C180.574 133.75 180.251 133.3 179.839 133.13C179.558 133.015 179.203 133.003 178.756 133.099C177.362 133.396 176.122 134.008 174.808 134.652L174.242 134.929C173.071 135.495 171.931 136.115 170.872 136.701C170.26 137.04 169.651 137.394 169.043 137.752C167.806 138.48 166.524 139.231 165.199 139.82C163.308 140.66 160.357 143.899 159.121 146.491C157.8 149.253 147.285 150.894 146.091 151.071C145.864 151.102 145.66 150.948 145.625 150.728C145.59 150.505 145.748 150.297 145.972 150.262C149.099 149.796 157.422 148.148 158.381 146.141C159.706 143.364 162.795 139.994 164.864 139.077C166.15 138.503 167.41 137.764 168.631 137.051C169.247 136.689 169.859 136.331 170.479 135.988C171.55 135.399 172.706 134.775 173.892 134.201L174.454 133.928C175.756 133.288 177.096 132.63 178.595 132.31C179.207 132.183 179.719 132.206 180.154 132.383C180.836 132.66 181.345 133.342 181.472 134.162C181.564 134.763 181.46 135.426 181.171 136.081C180.998 136.466 180.813 136.743 180.578 136.955C180.351 137.163 180.089 137.298 179.816 137.429C179.276 137.691 178.729 137.929 178.186 138.172C176.996 138.696 175.872 139.193 174.816 139.89C174.805 140.206 175.251 141.215 175.617 142.031C176.931 144.997 179.126 149.958 175.972 153.085C172.933 156.094 167.783 156.016 166.389 155.816L150.293 163.134C150.235 163.153 150.177 163.161 150.12 163.161Z" fill="black"/>
<path d="M30.2578 169.297C29.9959 169.297 29.7494 169.289 29.5183 169.278C23.09 168.989 19.092 167.171 17.6438 163.886C12.4095 152.003 19.4926 141.184 25.7438 131.636C28.54 127.369 31.1784 123.336 32.4841 119.573C35.9274 109.667 33.7551 98.8244 32.1721 90.9055C31.8062 89.076 31.4595 87.3505 31.213 85.7983C30.7624 82.9712 30.3002 77.5212 32.2799 72.8068C34.4869 67.5571 56.5874 60.6705 68.2539 64.4681C74.0891 66.367 76.4077 70.6153 74.9595 76.7509C74.9094 76.9704 74.6861 77.1091 74.4704 77.0552C74.2508 77.0051 74.1122 76.7817 74.1661 76.566C75.518 70.8271 73.442 67.0217 67.9997 65.25C56.6298 61.5448 35.1532 68.0809 33.031 73.1304C31.1283 77.6599 31.5789 82.9327 32.018 85.675C32.2645 87.2118 32.6073 88.9296 32.9694 90.7514C34.5716 98.7628 36.7709 109.732 33.2544 119.846C31.914 123.702 29.2487 127.773 26.4255 132.087C20.2899 141.462 13.3339 152.084 18.3911 163.558C19.7045 166.539 23.4598 168.188 29.553 168.465C30.7431 168.519 32.4764 168.496 33.7975 167.649C36.0776 166.189 36.4281 163.065 36.5899 159.996C36.9096 154.033 37.5759 147.062 40.141 140.583C41.0346 138.319 42.375 135.418 44.8092 133.054C46.5231 131.39 48.5106 130.007 50.4287 128.67L50.5866 128.559C52.8475 126.987 55.4011 125.008 57.1882 122.25C58.7173 119.893 59.7996 117.073 60.3119 114.096C61.1361 109.335 60.724 103.885 59.0524 97.4378C58.9946 97.2183 59.1256 96.9949 59.3451 96.941C59.5685 96.8871 59.7881 97.0142 59.842 97.2337C61.5444 103.793 61.9604 109.355 61.1207 114.235C60.5892 117.316 59.4645 120.243 57.8777 122.693C56.0135 125.566 53.3829 127.607 51.0565 129.225L50.8986 129.337C49.0036 130.654 47.047 132.018 45.3792 133.635C43.542 135.418 42.2055 137.587 40.8998 140.88C38.3809 147.247 37.7184 154.137 37.4064 160.034C37.2408 163.173 36.8441 166.663 34.2365 168.33C32.9963 169.135 31.4826 169.297 30.2578 169.297Z" fill="black"/>
<path d="M58.6942 87.7053C58.544 87.7053 58.3976 87.6205 58.3283 87.478C58.2282 87.2777 58.3129 87.0312 58.5132 86.9311C72.9105 79.8287 72.1748 73.0076 72.1671 72.9382C72.1363 72.7148 72.2942 72.5068 72.5176 72.4799C72.7564 72.4568 72.949 72.607 72.9759 72.8304C73.0145 73.1308 73.7925 80.3025 58.8714 87.6629C58.8175 87.6937 58.7558 87.7053 58.6942 87.7053Z" fill="black"/>
<path d="M128.573 148.21C128.346 148.21 128.165 148.029 128.165 147.802V20.2867C128.165 20.0594 128.346 19.8784 128.573 19.8784H198.384C198.607 19.8784 198.792 20.0594 198.792 20.2867C198.792 20.5139 198.607 20.695 198.384 20.695H128.982V147.802C128.982 148.029 128.797 148.21 128.573 148.21Z" fill="black"/>
<path d="M190.257 223.736H128.573C128.346 223.736 128.165 223.555 128.165 223.328V177.148C128.165 176.92 128.346 176.739 128.573 176.739C128.801 176.739 128.982 176.92 128.982 177.148V222.92H190.257C190.48 222.92 190.665 223.101 190.665 223.328C190.665 223.552 190.48 223.736 190.257 223.736Z" fill="black"/>
<path d="M237.204 151.622C236.981 151.622 236.796 151.441 236.796 151.214V58.6216C236.796 58.3944 236.981 58.2134 237.204 58.2134C237.428 58.2134 237.612 58.3944 237.612 58.6216V151.214C237.616 151.438 237.431 151.622 237.204 151.622Z" fill="black"/>
<path d="M137.004 148.21C136.777 148.21 136.596 148.029 136.596 147.802V28.7217C136.596 28.4945 136.777 28.3135 137.004 28.3135H198.383C198.606 28.3135 198.791 28.4945 198.791 28.7217C198.791 28.949 198.606 29.13 198.383 29.13H137.412V147.802C137.412 148.029 137.227 148.21 137.004 148.21Z" fill="black"/>
<path d="M190.256 205.021H137.004C136.777 205.021 136.596 204.84 136.596 204.613V174.724C136.596 174.497 136.777 174.316 137.004 174.316C137.231 174.316 137.412 174.497 137.412 174.724V204.204H190.256C190.48 204.204 190.664 204.385 190.664 204.613C190.664 204.836 190.48 205.021 190.256 205.021Z" fill="black"/>
<path d="M228.773 151.622C228.549 151.622 228.364 151.441 228.364 151.214V60.628C228.364 60.4008 228.549 60.2197 228.773 60.2197C228.996 60.2197 229.181 60.4008 229.181 60.628V151.214C229.181 151.437 228.996 151.622 228.773 151.622Z" fill="black"/>
<path d="M224.714 141.997H177.481C177.258 141.997 177.073 141.816 177.073 141.588C177.073 141.361 177.258 141.18 177.481 141.18H224.301V112.158H141.477V141.18H159.456C159.679 141.18 159.864 141.361 159.864 141.588C159.864 141.816 159.679 141.997 159.456 141.997H141.065C140.841 141.997 140.656 141.816 140.656 141.588V111.75C140.656 111.523 140.841 111.342 141.065 111.342H224.714C224.937 111.342 225.122 111.523 225.122 111.75V141.588C225.122 141.816 224.937 141.997 224.714 141.997Z" fill="black"/>
<path d="M198.383 26.4178H167.574C167.351 26.4178 167.166 26.2368 167.166 26.0095V23.5445C167.166 23.3173 167.351 23.1362 167.574 23.1362H198.383C198.607 23.1362 198.792 23.3173 198.792 23.5445C198.792 23.7717 198.607 23.9528 198.383 23.9528H167.983V25.5974H198.383C198.607 25.5974 198.792 25.7784 198.792 26.0057C198.792 26.2368 198.607 26.4178 198.383 26.4178Z" fill="black"/>
<path d="M182.888 219.053C179.807 219.053 177.296 216.545 177.296 213.46C177.296 210.379 179.807 207.872 182.888 207.872C185.97 207.872 188.481 210.379 188.481 213.46C188.481 216.545 185.97 219.053 182.888 219.053ZM182.888 208.688C180.258 208.688 178.116 210.83 178.116 213.46C178.116 216.091 180.258 218.232 182.888 218.232C185.519 218.232 187.661 216.091 187.661 213.46C187.661 210.83 185.519 208.688 182.888 208.688Z" fill="black"/>
<path d="M244.68 112.378H237.204C236.981 112.378 236.796 112.197 236.796 111.969C236.796 111.742 236.981 111.561 237.204 111.561H244.68C244.904 111.561 245.088 111.742 245.088 111.969C245.088 112.197 244.904 112.378 244.68 112.378Z" fill="black"/>
<path d="M244.68 115.467H237.204C236.981 115.467 236.796 115.286 236.796 115.059C236.796 114.831 236.981 114.65 237.204 114.65H244.68C244.904 114.65 245.088 114.831 245.088 115.059C245.088 115.286 244.904 115.467 244.68 115.467Z" fill="black"/>
<path d="M228.773 57.4389C212.935 57.4389 200.052 44.5553 200.052 28.7214C200.052 12.8875 212.935 0 228.773 0C244.611 0 257.495 12.8836 257.495 28.7214C257.495 44.5592 244.611 57.4389 228.773 57.4389ZM228.773 0.816539C213.39 0.816539 200.872 13.3342 200.872 28.7175C200.872 44.1008 213.39 56.6185 228.773 56.6185C244.16 56.6185 256.674 44.1008 256.674 28.7175C256.674 13.3342 244.16 0.816539 228.773 0.816539Z" fill="black"/>
<path d="M191.034 187.035H174.738C174.515 187.035 174.33 186.854 174.33 186.626V170.33C174.33 170.103 174.515 169.922 174.738 169.922H191.034C191.258 169.922 191.443 170.103 191.443 170.33V186.626C191.447 186.854 191.262 187.035 191.034 187.035ZM175.15 186.218H190.626V170.742H175.15V186.218Z" fill="black"/>
<path d="M163.481 187.035H147.185C146.961 187.035 146.776 186.854 146.776 186.626V170.33C146.776 170.103 146.961 169.922 147.185 169.922H163.481C163.704 169.922 163.889 170.103 163.889 170.33V186.626C163.889 186.854 163.704 187.035 163.481 187.035ZM147.593 186.218H163.069V170.742H147.593V186.218Z" fill="black"/>
<path d="M202.302 176.322C202.078 176.322 201.894 176.141 201.894 175.914V170.333C201.894 170.105 202.078 169.924 202.302 169.924H211.369C211.592 169.924 211.777 170.105 211.777 170.333C211.777 170.56 211.592 170.741 211.369 170.741H202.71V175.914C202.71 176.137 202.525 176.322 202.302 176.322Z" fill="black"/>
<path d="M171.76 99.1589C169.234 99.1589 167.177 97.1022 167.177 94.5755C167.177 92.045 169.234 89.9883 171.76 89.9883C174.291 89.9883 176.347 92.045 176.347 94.5755C176.347 97.1022 174.291 99.1589 171.76 99.1589ZM171.76 90.8048C169.684 90.8048 167.993 92.4957 167.993 94.5755C167.993 96.6516 169.68 98.3424 171.76 98.3424C173.836 98.3424 175.527 96.6516 175.527 94.5755C175.527 92.4957 173.84 90.8048 171.76 90.8048Z" fill="black"/>
<path d="M195.386 99.1589C192.856 99.1589 190.799 97.1022 190.799 94.5755C190.799 92.045 192.856 89.9883 195.386 89.9883C197.913 89.9883 199.969 92.045 199.969 94.5755C199.969 97.1022 197.913 99.1589 195.386 99.1589ZM195.386 90.8048C193.31 90.8048 191.619 92.4957 191.619 94.5755C191.619 96.6516 193.31 98.3424 195.386 98.3424C197.462 98.3424 199.153 96.6516 199.153 94.5755C199.153 92.4957 197.462 90.8048 195.386 90.8048Z" fill="black"/>
<path d="M199.658 89.7342H168.26C167.393 89.7342 166.685 89.0293 166.685 88.1627V56.5911H160.067C159.201 56.5911 158.492 55.8863 158.492 55.0197C158.492 54.1531 159.197 53.4482 160.067 53.4482H168.256C169.123 53.4482 169.827 54.1531 169.827 55.0197V61.9795H207.87C209.06 61.9795 209.988 62.4148 210.489 63.2082C210.986 64.0016 210.978 65.03 210.458 66.1007L204.835 77.7749C203.841 79.8394 201.183 81.7267 198.911 81.9847L172.058 85.0275C171.245 85.1161 170.498 84.9813 169.827 84.6385V86.5951H199.654C200.521 86.5951 201.23 87.3 201.23 88.1666C201.233 89.0293 200.525 89.7342 199.658 89.7342ZM160.067 54.2609C159.652 54.2609 159.313 54.5999 159.313 55.0158C159.313 55.4318 159.652 55.7708 160.067 55.7708H167.093C167.316 55.7708 167.501 55.9518 167.501 56.179V88.1627C167.501 88.5787 167.84 88.9176 168.256 88.9176H199.654C200.07 88.9176 200.409 88.5787 200.409 88.1627C200.409 87.7467 200.07 87.4078 199.654 87.4078H169.419C169.196 87.4078 169.011 87.2268 169.011 86.9995V83.8836C169.011 83.7257 169.103 83.5832 169.246 83.5138C169.385 83.4484 169.554 83.4638 169.677 83.5639C170.317 84.08 171.118 84.3073 171.965 84.211L198.818 81.1682C200.81 80.941 203.232 79.2232 204.103 77.4168L209.726 65.7426C210.115 64.9337 210.142 64.1865 209.799 63.6396C209.457 63.0926 208.771 62.7922 207.874 62.7922H169.423C169.2 62.7922 169.015 62.6112 169.015 62.384V55.0158C169.015 54.5999 168.68 54.2609 168.264 54.2609H160.067Z" fill="black"/>
<path d="M244.752 151.622C244.529 151.622 244.344 151.441 244.344 151.214L244.271 56.2144C244.271 55.9872 244.452 55.8062 244.679 55.8062C244.902 55.8062 245.087 55.9872 245.087 56.2144L245.156 151.214C245.16 151.438 244.979 151.622 244.752 151.622Z" fill="black"/>
<path d="M121.768 232.564H2.20612C1.97888 232.564 1.79785 232.383 1.79785 232.156C1.79785 231.929 1.97888 231.748 2.20612 231.748H121.768C121.995 231.748 122.176 231.929 122.176 232.156C122.176 232.383 121.991 232.564 121.768 232.564Z" fill="black"/>
<path d="M9.51665 215.339C7.09014 214.73 3.74695 213.124 1.89818 211.002C-4.25283 203.961 5.94621 180.343 12.571 166.89C12.6711 166.685 12.9176 166.608 13.1179 166.705C13.322 166.805 13.4029 167.048 13.3028 167.252C6.7666 180.52 -3.32459 203.78 2.51444 210.463C4.17062 212.362 7.34049 213.945 9.61679 214.53C9.83633 214.588 9.96728 214.811 9.91336 215.027C9.86329 215.216 9.69767 215.339 9.51665 215.339Z" fill="black"/>
<path d="M14.3268 164.706C14.2652 164.706 14.2036 164.694 14.1419 164.664C13.9417 164.563 13.8608 164.317 13.9609 164.117C15.9638 160.122 16.3489 159.533 16.3643 159.51C16.4914 159.321 16.7456 159.271 16.9305 159.395C17.1192 159.518 17.1693 159.772 17.0461 159.961C17.0268 159.992 16.6301 160.615 14.6889 164.486C14.6195 164.625 14.4732 164.706 14.3268 164.706Z" fill="black"/>
<path d="M229.309 204.343C229.085 204.343 228.9 204.162 228.9 203.935V185.824C228.9 185.597 229.085 185.416 229.309 185.416C229.532 185.416 229.717 185.597 229.717 185.824V203.935C229.717 204.158 229.532 204.343 229.309 204.343Z" fill="black"/>
<path d="M260.734 204.343C260.511 204.343 260.326 204.162 260.326 203.935V185.824C260.326 185.597 260.511 185.416 260.734 185.416C260.958 185.416 261.143 185.597 261.143 185.824V203.935C261.143 204.158 260.958 204.343 260.734 204.343Z" fill="black"/>
<path d="M263.11 186.232H227.987C227.764 186.232 227.579 186.051 227.579 185.823V175.909C227.579 175.682 227.764 175.501 227.987 175.501H263.11C263.334 175.501 263.518 175.682 263.518 175.909V185.823C263.518 186.051 263.334 186.232 263.11 186.232ZM228.396 185.415H262.702V176.321H228.396V185.415Z" fill="black"/>
<path d="M243.379 232.563H194.529C194.306 232.563 194.121 232.382 194.121 232.154V214.021C194.121 213.794 194.306 213.613 194.529 213.613C194.753 213.613 194.938 213.794 194.938 214.021V231.746H242.967V214.021C242.967 213.794 243.152 213.613 243.375 213.613C243.599 213.613 243.784 213.794 243.784 214.021V232.154C243.787 232.382 243.603 232.563 243.379 232.563Z" fill="black"/>
<path d="M273.413 214.43H193.042C192.819 214.43 192.634 214.249 192.634 214.021V203.93C192.634 203.703 192.819 203.522 193.042 203.522H273.413C273.637 203.522 273.822 203.703 273.822 203.93V214.021C273.822 214.249 273.637 214.43 273.413 214.43ZM193.45 213.613H273.001V204.339H193.45V213.613Z" fill="black"/>
<path d="M243.68 161.708C243.456 161.708 243.271 161.527 243.271 161.3V153.146C243.271 152.919 243.456 152.738 243.68 152.738C243.903 152.738 244.088 152.919 244.088 153.146V161.3C244.088 161.527 243.903 161.708 243.68 161.708Z" fill="black"/>
<path d="M245.455 161.736H209.303C209.08 161.736 208.868 161.528 208.868 161.301V153.147C208.868 152.919 209.08 152.711 209.303 152.711H245.455C245.678 152.711 245.89 152.919 245.89 153.147C245.89 153.424 245.578 153.624 245.335 153.528H209.685V160.919H245.335C245.578 160.823 245.89 161.023 245.89 161.301C245.89 161.528 245.678 161.736 245.455 161.736Z" fill="black"/>
<path d="M243.68 161.708C243.456 161.708 243.271 161.527 243.271 161.3V153.146C243.271 152.919 243.456 152.738 243.68 152.738C243.903 152.738 244.088 152.919 244.088 153.146V161.3C244.088 161.527 243.903 161.708 243.68 161.708Z" stroke="black" stroke-width="1.5146" stroke-miterlimit="10" stroke-linecap="round" stroke-linejoin="round"/>
<path d="M245.455 161.736H209.303C209.08 161.736 208.868 161.528 208.868 161.301V153.147C208.868 152.919 209.08 152.711 209.303 152.711H245.455C245.678 152.711 245.89 152.919 245.89 153.147C245.89 153.424 245.578 153.624 245.335 153.528H209.685V160.919H245.335C245.578 160.823 245.89 161.023 245.89 161.301C245.89 161.528 245.678 161.736 245.455 161.736Z" stroke="black" stroke-width="1.5146" stroke-miterlimit="10" stroke-linecap="round" stroke-linejoin="round"/>
<path d="M253.882 161.736H245.482C245.258 161.736 245.073 161.555 245.073 161.328C245.073 161.101 245.258 160.92 245.482 160.92H253.474V153.563H245.482C245.258 153.563 245.073 153.382 245.073 153.155C245.073 152.928 245.258 152.747 245.482 152.747H253.882C254.105 152.747 254.29 152.928 254.29 153.155V161.332C254.29 161.555 254.105 161.736 253.882 161.736Z" fill="black"/>
<path d="M251.764 176.28C251.54 176.28 251.355 176.099 251.355 175.871V161.332C251.355 161.104 251.54 160.923 251.764 160.923C251.987 160.923 252.172 161.104 252.172 161.332V175.871C252.172 176.095 251.987 176.28 251.764 176.28Z" fill="black"/>
<path d="M227.983 186.232H198.095C197.871 186.232 197.687 186.051 197.687 185.823V175.909C197.687 175.682 197.871 175.501 198.095 175.501H227.983C228.207 175.501 228.391 175.682 228.391 175.909C228.391 176.136 228.207 176.318 227.983 176.318H198.507V185.411H227.983C228.207 185.411 228.391 185.592 228.391 185.819C228.391 186.047 228.21 186.232 227.983 186.232Z" fill="black"/>
<path d="M245.196 214.43C244.973 214.43 244.788 214.249 244.788 214.021V203.93C244.788 203.703 244.973 203.522 245.196 203.522C245.42 203.522 245.605 203.703 245.605 203.93V214.021C245.605 214.249 245.42 214.43 245.196 214.43Z" fill="black"/>
<path d="M271.634 232.563H243.379C243.156 232.563 242.971 232.382 242.971 232.154C242.971 231.927 243.156 231.746 243.379 231.746H271.226V214.021C271.226 213.794 271.411 213.613 271.634 213.613C271.858 213.613 272.043 213.794 272.043 214.021V232.154C272.046 232.382 271.862 232.563 271.634 232.563Z" fill="black"/>
<path d="M211.368 176.322C211.145 176.322 210.96 176.141 210.96 175.914V161.332C210.96 161.104 211.145 160.923 211.368 160.923C211.592 160.923 211.777 161.104 211.777 161.332V175.914C211.777 176.137 211.592 176.322 211.368 176.322Z" fill="black"/>
<path d="M201.076 204.343C200.853 204.343 200.668 204.162 200.668 203.935V185.824C200.668 185.597 200.853 185.416 201.076 185.416C201.3 185.416 201.485 185.597 201.485 185.824V203.935C201.488 204.158 201.303 204.343 201.076 204.343Z" fill="black"/>
<path d="M94.2523 223.108C94.0482 223.108 93.871 222.954 93.844 222.749L88.0127 174.358C87.9857 174.135 88.1475 173.93 88.3709 173.903C88.6059 173.888 88.7984 174.038 88.8254 174.262L94.6567 222.649C94.6837 222.873 94.5219 223.077 94.2985 223.104C94.2831 223.108 94.2677 223.108 94.2523 223.108Z" fill="black"/>
<path d="M86.1856 223.138C85.9622 223.138 85.7773 222.957 85.7773 222.73C85.7773 222.507 85.9584 222.322 86.1856 222.322L94.247 222.291C94.4743 222.291 94.6553 222.472 94.6553 222.699C94.6553 222.923 94.4743 223.108 94.247 223.108L86.1856 223.138Z" fill="black"/>
<path d="M8.93854 223.388C8.71515 223.388 8.53027 223.207 8.53027 222.98C8.53027 222.753 8.7113 222.572 8.93854 222.572L27.8152 222.51C28.0425 222.51 28.2235 222.691 28.2235 222.919C28.2235 223.146 28.0425 223.327 27.8152 223.327L8.93854 223.388Z" fill="black"/>
<path d="M8.93854 223.389C8.68433 223.374 8.51486 223.177 8.53027 222.95L12.7247 164.24C12.7401 164.017 12.9057 163.828 13.1599 163.863C13.3833 163.878 13.5566 164.074 13.5373 164.298L9.34681 223.008C9.3314 223.223 9.15037 223.389 8.93854 223.389Z" fill="black"/>
<path d="M21.442 223.328C21.2224 223.328 21.0414 223.154 21.0337 222.935L18.7805 165.5C18.7728 165.276 18.9461 165.084 19.1734 165.076C19.4314 165.076 19.5894 165.242 19.5971 165.469L21.8502 222.904C21.8579 223.127 21.6846 223.32 21.4574 223.328C21.4535 223.328 21.4458 223.328 21.442 223.328Z" fill="black"/>
<path d="M18.3297 164.74C18.3259 164.74 13.1301 164.678 13.1301 164.678C12.9028 164.675 12.7218 164.49 12.7256 164.266C12.7295 164.043 12.9105 163.862 13.1339 163.862C13.1378 163.862 18.3336 163.923 18.3336 163.923C18.5608 163.927 18.7418 164.112 18.738 164.336C18.738 164.559 18.5531 164.74 18.3297 164.74Z" fill="black"/>
<path d="M78.4255 102.995C76.1646 102.995 75.0053 101.586 74.5931 100.939C73.9307 99.9065 73.7612 98.6971 74.1772 97.9961C74.4237 97.5762 74.7588 97.3182 75.1747 97.2219C75.9759 97.037 76.854 97.5262 77.686 98.0808C78.4679 98.6046 79.3807 98.5353 79.3922 98.5391C79.631 98.5276 79.8159 98.6894 79.8313 98.9128C79.8506 99.1361 79.685 99.3326 79.4577 99.3518C79.4115 99.3595 78.256 99.4404 77.2315 98.7587C76.8078 98.4775 75.9297 97.8921 75.3596 98.0153C75.1709 98.0577 75.013 98.1887 74.8859 98.4082C74.6663 98.7818 74.7549 99.6638 75.2864 100.496C75.6523 101.07 76.7346 102.379 78.9378 102.148C79.1534 102.117 79.3614 102.287 79.3845 102.514C79.4076 102.737 79.2459 102.938 79.0186 102.961C78.8106 102.988 78.6142 102.995 78.4255 102.995Z" fill="black"/>
<path d="M241.514 176.322C241.29 176.322 241.105 176.141 241.105 175.914V161.332C241.105 161.104 241.29 160.923 241.514 160.923C241.737 160.923 241.922 161.104 241.922 161.332V175.914C241.922 176.137 241.737 176.322 241.514 176.322Z" fill="black"/>
<path d="M127.298 138.219C105.941 137.703 87.2764 124.457 79.7388 104.471C79.6579 104.26 79.7658 104.025 79.9776 103.944C80.1894 103.867 80.4244 103.971 80.5053 104.183C87.9235 123.857 106.296 136.894 127.31 137.403C127.537 137.407 127.714 137.595 127.707 137.822C127.703 138.042 127.522 138.219 127.298 138.219Z" fill="black"/>
<path d="M77.2158 79.9317C76.9423 79.9009 76.7805 79.6967 76.8114 79.4734C80.0197 54.022 100.969 34.868 126.628 33.9243C126.882 33.9474 127.044 34.0938 127.052 34.3172C127.059 34.5406 126.882 34.7332 126.659 34.7409C101.404 35.6691 80.7824 54.5227 77.624 79.5735C77.5971 79.7815 77.4199 79.9317 77.2158 79.9317Z" fill="black"/>
<path d="M226.076 24.5084C226.076 28.3947 223.819 30.825 220.26 30.825C216.701 30.825 214.448 28.3908 214.448 24.5084C214.448 20.653 216.705 18.2188 220.26 18.2188C223.819 18.2187 226.076 20.653 226.076 24.5084ZM217.799 24.5084C217.799 26.6422 218.72 27.9517 220.26 27.9517C221.805 27.9517 222.721 26.6461 222.721 24.5084C222.721 22.3746 221.801 21.0997 220.26 21.0997C218.72 21.0959 217.799 22.3708 217.799 24.5084ZM238.59 18.3073L223.788 39.1021H218.835L233.637 18.3073H238.59ZM243.1 32.9011C243.1 36.7873 240.843 39.2177 237.288 39.2177C233.729 39.2177 231.476 36.7835 231.476 32.9011C231.476 29.0456 233.729 26.6114 237.288 26.6114C240.847 26.6152 243.1 29.0456 243.1 32.9011ZM234.823 32.9011C234.823 35.0348 235.744 36.3405 237.284 36.3405C238.829 36.3405 239.746 35.0348 239.746 32.9011C239.746 30.7673 238.825 29.4885 237.284 29.4885C235.744 29.4924 234.823 30.7673 234.823 32.9011Z" fill="white"/>
</svg>
