<svg width="28" height="33" viewBox="0 0 28 33" fill="none" xmlns="http://www.w3.org/2000/svg">
<path d="M5.82868 0.956543C4.76006 0.956543 3.88574 1.83086 3.88574 2.89948V30.1006C3.88574 31.1692 4.76006 32.0435 5.82868 32.0435H25.258C26.3266 32.0435 27.201 31.1692 27.201 30.1006V8.72828L19.4292 0.956543H5.82868Z" fill="#E2E5E7"/>
<path d="M21.3726 8.72828H27.2014L19.4297 0.956543V6.78535C19.4297 7.85396 20.304 8.72828 21.3726 8.72828Z" fill="#B0B7BD"/>
<path d="M27.2009 14.5568L21.3721 8.72803H27.2009V14.5568Z" fill="#CAD1D8"/>
<path d="M23.3152 26.2145C23.3152 26.7488 22.8781 27.1859 22.3437 27.1859H0.971467C0.43716 27.1859 0 26.7488 0 26.2145V16.4998C0 15.9655 0.43716 15.5283 0.971467 15.5283H22.3437C22.8781 15.5283 23.3152 15.9655 23.3152 16.4998V26.2145Z" fill="#F15642"/>
<path d="M4.23438 19.3629C4.23438 19.1064 4.43644 18.8267 4.76188 18.8267H6.55618C7.56651 18.8267 8.4758 19.5028 8.4758 20.7987C8.4758 22.0267 7.56651 22.7106 6.55618 22.7106H5.25927V23.7365C5.25927 24.0784 5.04166 24.2717 4.76188 24.2717C4.50541 24.2717 4.23438 24.0784 4.23438 23.7365V19.3629ZM5.25927 19.8049V21.7401H6.55618C7.07689 21.7401 7.48879 21.2806 7.48879 20.7987C7.48879 20.2557 7.07689 19.8049 6.55618 19.8049H5.25927Z" fill="white"/>
<path d="M9.99719 24.2716C9.74072 24.2716 9.46094 24.1317 9.46094 23.7907V19.3783C9.46094 19.0995 9.74072 18.8965 9.99719 18.8965H11.7759C15.3257 18.8965 15.248 24.2716 11.8459 24.2716H9.99719ZM10.4868 19.8446V23.3244H11.7759C13.8733 23.3244 13.9666 19.8446 11.7759 19.8446H10.4868Z" fill="white"/>
<path d="M16.5064 19.9068V21.1415H18.4872C18.767 21.1415 19.0468 21.4213 19.0468 21.6924C19.0468 21.9488 18.767 22.1587 18.4872 22.1587H16.5064V23.7898C16.5064 24.0618 16.3131 24.2706 16.0411 24.2706C15.6991 24.2706 15.4902 24.0618 15.4902 23.7898V19.3774C15.4902 19.0985 15.7001 18.8955 16.0411 18.8955H18.768C19.1099 18.8955 19.312 19.0985 19.312 19.3774C19.312 19.6261 19.1099 19.9058 18.768 19.9058H16.5064V19.9068Z" fill="white"/>
<path d="M22.3436 27.1863H3.88574V28.1578H22.3436C22.8779 28.1578 23.3151 27.7206 23.3151 27.1863V26.2148C23.3151 26.7492 22.8779 27.1863 22.3436 27.1863Z" fill="#CAD1D8"/>
</svg>
