<svg width="25" height="25" viewBox="0 0 25 25" fill="none" xmlns="http://www.w3.org/2000/svg">
<path d="M6.25 2.0835L3.125 6.25016V20.8335C3.125 21.386 3.34449 21.9159 3.73519 22.3066C4.12589 22.6973 4.6558 22.9168 5.20833 22.9168H19.7917C20.3442 22.9168 20.8741 22.6973 21.2648 22.3066C21.6555 21.9159 21.875 21.386 21.875 20.8335V6.25016L18.75 2.0835H6.25Z" stroke="#4F4F4F" stroke-width="2" stroke-linecap="round" stroke-linejoin="round"/>
<path d="M3.125 6.25H21.875" stroke="#4F4F4F" stroke-width="2" stroke-linecap="round" stroke-linejoin="round"/>
<path d="M16.6663 10.4165C16.6663 11.5216 16.2274 12.5814 15.446 13.3628C14.6646 14.1442 13.6047 14.5832 12.4997 14.5832C11.3946 14.5832 10.3348 14.1442 9.5534 13.3628C8.77199 12.5814 8.33301 11.5216 8.33301 10.4165" stroke="#4F4F4F" stroke-width="2" stroke-linecap="round" stroke-linejoin="round"/>
</svg>
