<svg width="70" height="50" viewBox="0 0 70 50" fill="none" xmlns="http://www.w3.org/2000/svg">
<path d="M54.1738 49.2132H67.4495C68.7825 49.2132 69.8634 48.1328 69.8634 46.7998V3.35145C69.8634 2.0179 68.7825 0.9375 67.4495 0.9375H2.27723C0.943682 0.9375 -0.136719 2.01844 -0.136719 3.35145V46.7998C-0.136719 48.1328 0.943682 49.2132 2.27723 49.2132H54.1738Z" fill="#C03A2B"/>
<path d="M11.5776 9.38574L13.7053 13.6977L18.4643 14.3893L15.0212 17.7448L15.8335 22.4841L11.5776 20.2469L7.32116 22.4841L8.13453 17.7448L4.69092 14.3893L9.44991 13.6977L11.5776 9.38574Z" fill="#F3D55B"/>
<path d="M20.9635 5.2655L22.641 5.83374L24.0616 4.77417L24.0386 6.54617L25.4859 7.56943L23.7935 8.09548L23.2674 9.78791L22.2442 8.34061L20.4722 8.36357L21.5317 6.94298L20.9635 5.2655Z" fill="#F3D55B"/>
<path d="M20.9635 26.5878L22.641 27.156L24.0616 26.0964L24.0386 27.8679L25.4859 28.8917L23.7935 29.4177L23.2674 31.1102L22.2442 29.6629L20.4722 29.6858L21.5317 28.2652L20.9635 26.5878Z" fill="#F3D55B"/>
<path d="M26.9069 12.1046L28.5843 12.6733L30.0049 11.6138L29.982 13.3852L31.4293 14.409L29.7368 14.9351L29.2108 16.627L28.187 15.1802L26.4155 15.2026L27.4751 13.7826L26.9069 12.1046Z" fill="#F3D55B"/>
<path d="M26.9069 20.7388L28.5843 21.3076L30.0049 20.248L29.982 22.0195L31.4293 23.0428L29.7368 23.5694L29.2108 25.2612L28.187 23.8145L26.4155 23.8375L27.4751 22.4169L26.9069 20.7388Z" fill="#F3D55B"/>
</svg>
