<svg width="70" height="50" viewBox="0 0 70 50" fill="none" xmlns="http://www.w3.org/2000/svg">
<path d="M70 44.249V46.663C69.9963 47.9944 68.918 49.0726 67.5861 49.0764H2.41394C1.082 49.0726 0.00373841 47.9944 0 46.663V44.249H70Z" fill="#E6E7E8"/>
<path d="M70 3.21472V44.249H0V3.21472C0.00373841 1.88278 1.082 0.80452 2.41394 0.800781H67.5861C68.918 0.80452 69.9963 1.88332 70 3.21472Z" fill="#C03A2B"/>
<path d="M2.41394 0.800781H33.793V24.9386H0V3.21472C0 1.88171 1.0804 0.800781 2.41394 0.800781Z" fill="#285680"/>
<path d="M33.793 5.62866H69.9999V10.456H33.793V5.62866Z" fill="#E6E7E8"/>
<path d="M33.793 15.2834H69.9999V20.1113H33.793V15.2834Z" fill="#E6E7E8"/>
<path d="M0 24.9387H70V29.7666H0V24.9387Z" fill="#E6E7E8"/>
<path d="M43.8344 39.4216H70V34.5938H0V39.4216H26.1656" fill="#E6E7E8"/>
<path d="M2.41348 2.00781L2.97318 3.14108L4.22394 3.3232L3.31871 4.20546L3.53233 5.45088L2.41348 4.86342L1.29463 5.45088L1.50826 4.20546L0.603027 3.3232L1.85326 3.14108L2.41348 2.00781Z" fill="#ECF0F1"/>
<path d="M7.24063 2.00781L7.80086 3.14108L9.05109 3.3232L8.14586 4.20546L8.35948 5.45088L7.24063 4.86342L6.12178 5.45088L6.3354 4.20546L5.43018 3.3232L6.68094 3.14108L7.24063 2.00781Z" fill="#ECF0F1"/>
<path d="M12.0688 2.00781L12.6284 3.14108L13.8787 3.3232L12.974 4.20546L13.1876 5.45088L12.0688 4.86342L10.9499 5.45088L11.1635 4.20546L10.2583 3.3232L11.5085 3.14108L12.0688 2.00781Z" fill="#ECF0F1"/>
<path d="M16.8964 2.00781L17.4566 3.14108L18.7068 3.3232L17.8016 4.20546L18.0152 5.45088L16.8964 4.86342L15.7775 5.45088L15.9912 4.20546L15.0859 3.3232L16.3362 3.14108L16.8964 2.00781Z" fill="#ECF0F1"/>
<path d="M21.7235 2.00781L22.2832 3.14108L23.5335 3.3232L22.6282 4.20546L22.8419 5.45088L21.7235 4.86342L20.6047 5.45088L20.8183 4.20546L19.9131 3.3232L21.1633 3.14108L21.7235 2.00781Z" fill="#ECF0F1"/>
<path d="M26.5512 2.00781L27.1114 3.14108L28.3616 3.3232L27.4564 4.20546L27.67 5.45088L26.5512 4.86342L25.4323 5.45088L25.646 4.20546L24.7407 3.3232L25.991 3.14108L26.5512 2.00781Z" fill="#ECF0F1"/>
<path d="M31.3788 2.00781L31.939 3.14108L33.1892 3.3232L32.284 4.20546L32.4976 5.45088L31.3788 4.86342L30.2605 5.45088L30.4741 4.20546L29.5688 3.3232L30.8191 3.14108L31.3788 2.00781Z" fill="#ECF0F1"/>
<path d="M5.12877 6.57837L5.68899 7.71164L6.93922 7.89375L6.034 8.77602L6.24762 10.0214L5.12877 9.43291L4.01045 10.0214L4.22408 8.77602L3.31885 7.89375L4.56908 7.71164L5.12877 6.57837Z" fill="#ECF0F1"/>
<path d="M9.95645 6.57837L10.5167 7.71164L11.7669 7.89375L10.8617 8.77602L11.0753 10.0214L9.95645 9.43291L8.8376 10.0214L9.05122 8.77602L8.146 7.89375L9.39622 7.71164L9.95645 6.57837Z" fill="#ECF0F1"/>
<path d="M14.784 6.57837L15.3443 7.71164L16.5945 7.89375L15.6893 8.77602L15.9029 10.0214L14.784 9.43291L13.6652 10.0214L13.8788 8.77602L12.9741 7.89375L14.2243 7.71164L14.784 6.57837Z" fill="#ECF0F1"/>
<path d="M19.6117 6.57837L20.1714 7.71164L21.4222 7.89375L20.517 8.77602L20.7306 10.0214L19.6117 9.43291L18.4929 10.0214L18.7065 8.77602L17.8013 7.89375L19.0515 7.71164L19.6117 6.57837Z" fill="#ECF0F1"/>
<path d="M24.4394 6.57837L24.9996 7.71164L26.2498 7.89375L25.3446 8.77602L25.5582 10.0214L24.4394 9.43291L23.3205 10.0214L23.5341 8.77602L22.6289 7.89375L23.8797 7.71164L24.4394 6.57837Z" fill="#ECF0F1"/>
<path d="M29.2665 6.57837L29.8262 7.71164L31.0764 7.89375L30.1717 8.77602L30.3854 10.0214L29.2665 9.43291L28.1477 10.0214L28.3613 8.77602L27.4561 7.89375L28.7063 7.71164L29.2665 6.57837Z" fill="#ECF0F1"/>
<path d="M2.41348 11.1477L2.97318 12.282L4.22394 12.4631L3.31871 13.3454L3.53233 14.5918L2.41348 14.0033L1.29463 14.5918L1.50826 13.3454L0.603027 12.4631L1.85326 12.282L2.41348 11.1477Z" fill="#ECF0F1"/>
<path d="M7.24063 11.1477L7.80086 12.282L9.05109 12.4631L8.14586 13.3454L8.35948 14.5918L7.24063 14.0033L6.12178 14.5918L6.3354 13.3454L5.43018 12.4631L6.68094 12.282L7.24063 11.1477Z" fill="#ECF0F1"/>
<path d="M12.0688 11.1477L12.6284 12.282L13.8787 12.4631L12.974 13.3454L13.1876 14.5918L12.0688 14.0033L10.9499 14.5918L11.1635 13.3454L10.2583 12.4631L11.5085 12.282L12.0688 11.1477Z" fill="#ECF0F1"/>
<path d="M16.8964 11.1477L17.4566 12.282L18.7068 12.4631L17.8016 13.3454L18.0152 14.5918L16.8964 14.0033L15.7775 14.5918L15.9912 13.3454L15.0859 12.4631L16.3362 12.282L16.8964 11.1477Z" fill="#ECF0F1"/>
<path d="M21.7235 11.1477L22.2832 12.282L23.5335 12.4631L22.6282 13.3454L22.8419 14.5918L21.7235 14.0033L20.6047 14.5918L20.8183 13.3454L19.9131 12.4631L21.1633 12.282L21.7235 11.1477Z" fill="#ECF0F1"/>
<path d="M26.5512 11.1477L27.1114 12.282L28.3616 12.4631L27.4564 13.3454L27.67 14.5918L26.5512 14.0033L25.4323 14.5918L25.646 13.3454L24.7407 12.4631L25.991 12.282L26.5512 11.1477Z" fill="#ECF0F1"/>
<path d="M31.3788 11.1477L31.939 12.282L33.1892 12.4631L32.284 13.3454L32.4976 14.5918L31.3788 14.0033L30.2605 14.5918L30.4741 13.3454L29.5688 12.4631L30.8191 12.282L31.3788 11.1477Z" fill="#ECF0F1"/>
<path d="M2.41348 20.2886L2.97318 21.4218L4.22394 21.604L3.31871 22.4862L3.53233 23.7316L2.41348 23.1442L1.29463 23.7316L1.50826 22.4862L0.603027 21.604L1.85326 21.4218L2.41348 20.2886Z" fill="#ECF0F1"/>
<path d="M7.24063 20.2886L7.80086 21.4218L9.05109 21.604L8.14586 22.4862L8.35948 23.7316L7.24063 23.1442L6.12178 23.7316L6.3354 22.4862L5.43018 21.604L6.68094 21.4218L7.24063 20.2886Z" fill="#ECF0F1"/>
<path d="M12.0688 20.2886L12.6284 21.4218L13.8787 21.604L12.974 22.4862L13.1876 23.7316L12.0688 23.1442L10.9499 23.7316L11.1635 22.4862L10.2583 21.604L11.5085 21.4218L12.0688 20.2886Z" fill="#ECF0F1"/>
<path d="M16.8964 20.2886L17.4566 21.4218L18.7068 21.604L17.8016 22.4862L18.0152 23.7316L16.8964 23.1442L15.7775 23.7316L15.9912 22.4862L15.0859 21.604L16.3362 21.4218L16.8964 20.2886Z" fill="#ECF0F1"/>
<path d="M21.7235 20.2886L22.2832 21.4218L23.5335 21.604L22.6282 22.4862L22.8419 23.7316L21.7235 23.1442L20.6047 23.7316L20.8183 22.4862L19.9131 21.604L21.1633 21.4218L21.7235 20.2886Z" fill="#ECF0F1"/>
<path d="M26.5512 20.2886L27.1114 21.4218L28.3616 21.604L27.4564 22.4862L27.67 23.7316L26.5512 23.1442L25.4323 23.7316L25.646 22.4862L24.7407 21.604L25.991 21.4218L26.5512 20.2886Z" fill="#ECF0F1"/>
<path d="M31.3788 20.2886L31.939 21.4218L33.1892 21.604L32.284 22.4862L32.4976 23.7316L31.3788 23.1442L30.2605 23.7316L30.4741 22.4862L29.5688 21.604L30.8191 21.4218L31.3788 20.2886Z" fill="#ECF0F1"/>
<path d="M5.12877 15.718L5.68899 16.8513L6.93922 17.0334L6.034 17.9157L6.24762 19.1611L5.12877 18.5736L4.01045 19.1611L4.22408 17.9157L3.31885 17.0334L4.56908 16.8513L5.12877 15.718Z" fill="#ECF0F1"/>
<path d="M9.95645 15.718L10.5167 16.8513L11.7669 17.0334L10.8617 17.9157L11.0753 19.1611L9.95645 18.5736L8.8376 19.1611L9.05122 17.9157L8.146 17.0334L9.39622 16.8513L9.95645 15.718Z" fill="#ECF0F1"/>
<path d="M14.784 15.718L15.3443 16.8513L16.5945 17.0334L15.6893 17.9157L15.9029 19.1611L14.784 18.5736L13.6652 19.1611L13.8788 17.9157L12.9741 17.0334L14.2243 16.8513L14.784 15.718Z" fill="#ECF0F1"/>
<path d="M19.6117 15.718L20.1714 16.8513L21.4222 17.0334L20.517 17.9157L20.7306 19.1611L19.6117 18.5736L18.4929 19.1611L18.7065 17.9157L17.8013 17.0334L19.0515 16.8513L19.6117 15.718Z" fill="#ECF0F1"/>
<path d="M24.4394 15.718L24.9996 16.8513L26.2498 17.0334L25.3446 17.9157L25.5582 19.1611L24.4394 18.5736L23.3205 19.1611L23.5341 17.9157L22.6289 17.0334L23.8797 16.8513L24.4394 15.718Z" fill="#ECF0F1"/>
<path d="M29.2665 15.718L29.8262 16.8513L31.0764 17.0334L30.1717 17.9157L30.3854 19.1611L29.2665 18.5736L28.1477 19.1611L28.3613 17.9157L27.4561 17.0334L28.7063 16.8513L29.2665 15.718Z" fill="#ECF0F1"/>
</svg>
