<svg width="50" height="50" fill="none" xmlns="http://www.w3.org/2000/svg"><g clip-path="url(#clip0)"><path d="M43.985 40.042H32.21V3.788A3.788 3.788 0 0135.998 0h4.198a3.788 3.788 0 013.788 3.788v36.254z" fill="url(#paint0_linear)"/><path d="M40.197 0h-3.924a3.788 3.788 0 013.788 3.788v36.254h3.924V3.788A3.788 3.788 0 0040.197 0z" fill="url(#paint1_linear)"/><path d="M17.79 40.042H6.016V3.788A3.788 3.788 0 019.804 0h4.198a3.788 3.788 0 013.788 3.788v36.254z" fill="url(#paint2_linear)"/><path d="M14.002 0H10.08a3.788 3.788 0 013.788 3.788V6.29c-4.62 2.001-7.851 6.6-7.851 11.955v21.797H17.79V3.788A3.788 3.788 0 0014.002 0z" fill="url(#paint3_linear)"/><path d="M25 9.823a4.121 4.121 0 01-4.117-4.116A4.121 4.121 0 0125 1.59a4.121 4.121 0 014.116 4.117A4.121 4.121 0 0125 9.823zm0-5.782c-.919 0-1.666.747-1.666 1.666 0 .918.747 1.665 1.666 1.665.918 0 1.666-.747 1.666-1.665 0-.919-.748-1.666-1.666-1.666z" fill="url(#paint4_linear)"/><path d="M41.094 48.693H8.905V18.245c0-7.193 5.832-13.025 13.025-13.025h6.14c7.193 0 13.024 5.832 13.024 13.025v30.448z" fill="url(#paint5_linear)"/><path d="M28.07 5.22h-3.924c7.194 0 13.025 5.832 13.025 13.025v30.448h3.923V18.245c0-7.193-5.83-13.025-13.024-13.025z" fill="url(#paint6_linear)"/><path d="M12.745 47.442H2.388A2.388 2.388 0 010 45.053V37.58a4.787 4.787 0 014.787-4.787h7.958v14.649z" fill="url(#paint7_linear)"/><path d="M12.745 32.793h-3.75c-2.013 0-3.855 1.177-4.654 3.024a9.468 9.468 0 00-.778 3.769v6.45c0 .495.092.969.258 1.406h8.924V32.793z" fill="url(#paint8_linear)"/><path d="M37.255 47.442H47.61c1.32 0 2.389-1.07 2.389-2.389V37.58a4.787 4.787 0 00-4.787-4.787h-7.958v14.649z" fill="url(#paint9_linear)"/><path d="M45.213 32.793H42.76a4.787 4.787 0 014.787 4.787v7.474c0 1.319-1.07 2.388-2.389 2.388h2.453c1.319 0 2.388-1.07 2.388-2.388V37.58a4.787 4.787 0 00-4.787-4.787z" fill="url(#paint10_linear)"/><path d="M40.021 50H9.98a3.963 3.963 0 01-3.963-3.963v-6.451a9.502 9.502 0 019.502-9.503h18.964a9.502 9.502 0 019.502 9.503v6.45A3.963 3.963 0 0140.021 50z" fill="url(#paint11_linear)"/><path d="M34.482 30.083H30.56a9.502 9.502 0 019.502 9.503v6.45A3.963 3.963 0 0136.098 50h3.923a3.963 3.963 0 003.964-3.963v-6.451a9.503 9.503 0 00-9.503-9.503z" fill="url(#paint12_linear)"/><path d="M35.343 37.852H14.657a1.225 1.225 0 110-2.451h20.686a1.225 1.225 0 110 2.45z" fill="url(#paint13_linear)"/><path d="M31.1 23.837H18.9a1.225 1.225 0 110-2.45h12.2a1.225 1.225 0 110 2.45z" fill="url(#paint14_linear)"/><path d="M13.005 41.555a2.428 2.428 0 002.015.697 2.439 2.439 0 001.43-4.141l-.919-.919a1.136 1.136 0 00-1.607 0l-.919.919c-.95.95-.95 2.495 0 3.444z" fill="url(#paint15_linear)"/><path d="M16.212 41.765a2.4 2.4 0 01-.437.268 2.76 2.76 0 00-2.958-3.708c.058-.074.12-.146.188-.214l.919-.919a1.137 1.137 0 011.607 0l.918.919a2.438 2.438 0 01-.237 3.654z" fill="url(#paint16_linear)"/><path d="M11.677 16.417a.735.735 0 00-.914.495c-.3 1.01-.453 2.056-.453 3.109a.735.735 0 101.471 0c0-.91.132-1.816.391-2.69a.735.735 0 00-.495-.914z" fill="url(#paint17_linear)"/><path d="M15.212 10.646a13.53 13.53 0 00-2.237 2.151.735.735 0 001.136.934 12.064 12.064 0 011.994-1.916.735.735 0 10-.893-1.168z" fill="url(#paint18_linear)"/><path d="M22.246 7.673c-1.02.165-2.02.424-2.975.77a.735.735 0 10.5 1.383c.87-.315 1.781-.55 2.71-.702a.735.735 0 00-.235-1.451z" fill="url(#paint19_linear)"/><path d="M34.03 10.105a.735.735 0 00-.816 1.223 12.511 12.511 0 012.125 1.78.733.733 0 001.039.027.735.735 0 00.027-1.04 13.984 13.984 0 00-2.374-1.99z" fill="url(#paint20_linear)"/><path d="M39.649 19.074a10.989 10.989 0 00-.72-3.056.736.736 0 00-1.368.537c.334.855.544 1.745.623 2.647a.735.735 0 101.465-.128z" fill="url(#paint21_linear)"/><path d="M29.85 8.153a16.753 16.753 0 00-3.012-.603.735.735 0 10-.156 1.462c.936.1 1.86.285 2.747.55a.732.732 0 00.915-.494.735.735 0 00-.494-.915z" fill="url(#paint22_linear)"/><path d="M34.652 10.543a13.034 13.034 0 011.534 2.724.736.736 0 00.219-1.171 13.929 13.929 0 00-1.753-1.553z" fill="url(#paint23_linear)"/><path d="M39.648 19.074a10.992 10.992 0 00-.719-3.056.736.736 0 00-1.369.537c.335.855.545 1.745.623 2.647a.735.735 0 101.465-.128z" fill="url(#paint24_linear)"/></g><defs><linearGradient id="paint0_linear" x1="28.334" y1="20.021" x2="49.915" y2="20.021" gradientUnits="userSpaceOnUse"><stop stop-color="#FFE177"/><stop offset=".573" stop-color="#FEB137"/><stop offset="1" stop-color="#FE646F"/></linearGradient><linearGradient id="paint1_linear" x1="20.392" y1="20.021" x2="47.456" y2="20.021" gradientUnits="userSpaceOnUse"><stop stop-color="#FFE177"/><stop offset=".573" stop-color="#FEB137"/><stop offset="1" stop-color="#FE646F"/></linearGradient><linearGradient id="paint2_linear" x1="4.412" y1="20.021" x2="17.977" y2="20.021" gradientUnits="userSpaceOnUse"><stop stop-color="#FFE177"/><stop offset=".573" stop-color="#FEB137"/><stop offset="1" stop-color="#FE646F"/></linearGradient><linearGradient id="paint3_linear" x1="-9.314" y1="20.021" x2="21.3" y2="20.021" gradientUnits="userSpaceOnUse"><stop stop-color="#FFE177"/><stop offset=".573" stop-color="#FEB137"/><stop offset="1" stop-color="#FE646F"/></linearGradient><linearGradient id="paint4_linear" x1="20.883" y1="5.707" x2="29.116" y2="5.707" gradientUnits="userSpaceOnUse"><stop stop-color="#FDB4BA"/><stop offset=".573" stop-color="#BD80E1"/><stop offset="1" stop-color="#9857BD"/></linearGradient><linearGradient id="paint5_linear" x1="5.737" y1="26.957" x2="46.023" y2="26.957" gradientUnits="userSpaceOnUse"><stop stop-color="#FFE177"/><stop offset=".573" stop-color="#FEB137"/><stop offset="1" stop-color="#FE646F"/></linearGradient><linearGradient id="paint6_linear" x1="6.527" y1="26.957" x2="41.292" y2="26.957" gradientUnits="userSpaceOnUse"><stop stop-color="#FFE177"/><stop offset=".573" stop-color="#FEB137"/><stop offset="1" stop-color="#FE646F"/></linearGradient><linearGradient id="paint7_linear" x1="-.145" y1="40.117" x2="17.546" y2="40.117" gradientUnits="userSpaceOnUse"><stop stop-color="#FDB4BA"/><stop offset=".573" stop-color="#BD80E1"/><stop offset="1" stop-color="#9857BD"/></linearGradient><linearGradient id="paint8_linear" x1="-2.941" y1="40.118" x2="13.162" y2="40.118" gradientUnits="userSpaceOnUse"><stop stop-color="#FDB4BA"/><stop offset=".573" stop-color="#BD80E1"/><stop offset="1" stop-color="#9857BD"/></linearGradient><linearGradient id="paint9_linear" x1="37.157" y1="40.117" x2="51.008" y2="40.117" gradientUnits="userSpaceOnUse"><stop stop-color="#FDB4BA"/><stop offset=".573" stop-color="#BD80E1"/><stop offset="1" stop-color="#9857BD"/></linearGradient><linearGradient id="paint10_linear" x1="31.765" y1="40.118" x2="50.3" y2="40.118" gradientUnits="userSpaceOnUse"><stop stop-color="#FDB4BA"/><stop offset=".573" stop-color="#BD80E1"/><stop offset="1" stop-color="#9857BD"/></linearGradient><linearGradient id="paint11_linear" x1="4.174" y1="40.042" x2="49.592" y2="40.042" gradientUnits="userSpaceOnUse"><stop stop-color="#FDB4BA"/><stop offset=".573" stop-color="#BD80E1"/><stop offset="1" stop-color="#9857BD"/></linearGradient><linearGradient id="paint12_linear" x1="11.233" y1="40.042" x2="40.247" y2="40.042" gradientUnits="userSpaceOnUse"><stop stop-color="#FDB4BA"/><stop offset=".573" stop-color="#BD80E1"/><stop offset="1" stop-color="#9857BD"/></linearGradient><linearGradient id="paint13_linear" x1="13.431" y1="36.626" x2="36.568" y2="36.626" gradientUnits="userSpaceOnUse"><stop stop-color="#F9F3F1"/><stop offset=".573" stop-color="#EFE2DD"/><stop offset="1" stop-color="#CDBFBA"/></linearGradient><linearGradient id="paint14_linear" x1="17.675" y1="22.612" x2="32.325" y2="22.612" gradientUnits="userSpaceOnUse"><stop stop-color="#537983"/><stop offset="1" stop-color="#3E5959"/></linearGradient><linearGradient id="paint15_linear" x1="11.897" y1="39.564" x2="17.762" y2="39.564" gradientUnits="userSpaceOnUse"><stop stop-color="#FFE177"/><stop offset=".573" stop-color="#FEB137"/><stop offset="1" stop-color="#FE646F"/></linearGradient><linearGradient id="paint16_linear" x1="8.976" y1="39.446" x2="18.114" y2="39.446" gradientUnits="userSpaceOnUse"><stop stop-color="#FFE177"/><stop offset=".573" stop-color="#FEB137"/><stop offset="1" stop-color="#FE646F"/></linearGradient><linearGradient id="paint17_linear" x1="9.869" y1="18.571" x2="37.979" y2="18.571" gradientUnits="userSpaceOnUse"><stop stop-color="#537983"/><stop offset="1" stop-color="#3E5959"/></linearGradient><linearGradient id="paint18_linear" x1="9.869" y1="12.247" x2="37.979" y2="12.247" gradientUnits="userSpaceOnUse"><stop stop-color="#537983"/><stop offset="1" stop-color="#3E5959"/></linearGradient><linearGradient id="paint19_linear" x1="9.869" y1="8.767" x2="37.979" y2="8.767" gradientUnits="userSpaceOnUse"><stop stop-color="#537983"/><stop offset="1" stop-color="#3E5959"/></linearGradient><linearGradient id="paint20_linear" x1="9.869" y1="11.659" x2="37.979" y2="11.659" gradientUnits="userSpaceOnUse"><stop stop-color="#537983"/><stop offset="1" stop-color="#3E5959"/></linearGradient><linearGradient id="paint21_linear" x1="9.869" y1="17.712" x2="37.979" y2="17.712" gradientUnits="userSpaceOnUse"><stop stop-color="#537983"/><stop offset="1" stop-color="#3E5959"/></linearGradient><linearGradient id="paint22_linear" x1="9.869" y1="8.57" x2="37.979" y2="8.57" gradientUnits="userSpaceOnUse"><stop stop-color="#537983"/><stop offset="1" stop-color="#3E5959"/></linearGradient><linearGradient id="paint23_linear" x1="24.277" y1="11.905" x2="35.268" y2="11.905" gradientUnits="userSpaceOnUse"><stop stop-color="#537983"/><stop offset="1" stop-color="#384949"/></linearGradient><linearGradient id="paint24_linear" x1="26.143" y1="17.712" x2="38.184" y2="17.712" gradientUnits="userSpaceOnUse"><stop stop-color="#537983"/><stop offset="1" stop-color="#384949"/></linearGradient><clipPath id="clip0"><path fill="#fff" d="M0 0h50v50H0z"/></clipPath></defs></svg>