<svg width="75" height="75" viewBox="0 0 75 75" fill="none" xmlns="http://www.w3.org/2000/svg">
<g clip-path="url(#clip0)">
<path d="M74.8279 22.1043C74.7212 21.9231 74.57 21.7719 74.3888 21.6652L38.1306 0.302484C37.7414 0.073 37.2586 0.073 36.8694 0.302484L0.611181 21.6652C0.0206351 22.0132 -0.175955 22.7743 0.172073 23.3648C0.278825 23.5461 0.429952 23.6972 0.611181 23.8039L5.90903 26.9258C5.46651 27.7835 5.23252 28.7336 5.22632 29.6988V48.9786C2.58329 49.6475 0.982794 52.3325 1.6517 54.9755C2.06443 56.6064 3.27919 57.9147 4.87503 58.4472L0.315753 73.2634C0.114198 73.9186 0.481932 74.6131 1.13718 74.8147C1.25541 74.8511 1.37861 74.8696 1.50243 74.8696C1.63572 74.8694 1.76807 74.848 1.89468 74.8063L9.34245 72.3237C9.92834 72.128 10.2813 71.5313 10.1704 70.9235L7.91124 58.4932C10.5232 57.7113 12.0067 54.9601 11.2249 52.3483C10.727 50.685 9.3918 49.4053 7.70891 48.9786V29.6988C7.71186 29.1758 7.82652 28.6596 8.0453 28.1845L10.1915 29.4493V43.8372C10.1915 48.2649 13.6671 52.4083 19.7371 55.205C25.3435 57.6188 31.3967 58.821 37.5 58.7327C43.603 58.8212 49.6557 57.619 55.2617 55.205C61.3329 52.4083 64.8085 48.2649 64.8085 43.8372V29.4493L74.3888 23.8039C74.9795 23.4557 75.1761 22.6948 74.8279 22.1043ZM3.39789 71.6881L6.15729 62.7223L7.53637 70.3091L3.39789 71.6881ZM8.9502 53.7676C8.9502 55.1387 7.83878 56.2502 6.46761 56.2502C5.09645 56.2502 3.98502 55.1387 3.98502 53.7676C3.98502 52.3964 5.09645 51.285 6.46761 51.285C7.83878 51.285 8.9502 52.3964 8.9502 53.7676ZM62.3259 43.8372C62.3259 47.2545 59.3716 50.5762 54.2202 52.9508C48.9412 55.2151 43.2435 56.3394 37.5 56.2502C31.7561 56.3392 26.058 55.2149 20.7785 52.9508C15.6284 50.5762 12.6741 47.2545 12.6741 43.8372V30.9141L36.8694 45.1679C37.2586 45.3974 37.7414 45.3974 38.1306 45.1679L62.3259 30.9141V43.8372ZM37.5 42.6567L9.82532 26.3523C10.1884 26.1736 10.5785 26.0556 10.9797 26.0035L37.6514 22.7265C38.3321 22.6429 38.8162 22.0231 38.7326 21.3424C38.649 20.6617 38.0293 20.1776 37.3486 20.2613L10.6768 23.5383C9.48613 23.6865 8.36462 24.1786 7.44948 24.9546L3.68711 22.7352L37.5 2.81363L71.3129 22.7352L37.5 42.6567Z" fill="#EC5252"/>
</g>
<defs>
<clipPath id="clip0">
<rect width="75" height="75" fill="white"/>
</clipPath>
</defs>
</svg>
