<svg width="75" height="75" viewBox="0 0 75 75" fill="none" xmlns="http://www.w3.org/2000/svg">
<path d="M73.75 30H52.5V26.25C52.5 25.85 52.3086 25.4741 51.985 25.2388L38.75 15.6138V11.25H52.5C53.1903 11.25 53.75 10.6903 53.75 10V2.5C53.75 1.80969 53.1903 1.25 52.5 1.25H38.75C38.75 0.559687 38.1903 0 37.5 0C36.8097 0 36.25 0.559687 36.25 1.25V15.6138L23.015 25.2388C22.6914 25.4741 22.5 25.85 22.5 26.25V30H1.25C0.559687 30 0 30.5597 0 31.25V73.75C0 74.4403 0.559687 75 1.25 75H73.75C74.4403 75 75 74.4403 75 73.75V31.25C75 30.5597 74.4403 30 73.75 30ZM38.75 3.75H51.25V8.75H38.75V3.75ZM22.5 72.5H2.5V32.5H22.5V72.5ZM42.5 72.5H32.5V60H42.5V72.5ZM50 72.5H45V58.75C45 58.0597 44.4403 57.5 43.75 57.5H31.25C30.5597 57.5 30 58.0597 30 58.75V72.5H25V26.8863L37.5 17.795L50 26.8863V72.5ZM72.5 72.5H52.5V32.5H72.5V72.5Z" fill="#EC5252"/>
<path d="M11.25 36.25H6.25V38.75H11.25V36.25Z" fill="#EC5252"/>
<path d="M18.75 36.25H13.75V38.75H18.75V36.25Z" fill="#EC5252"/>
<path d="M11.25 41.25H6.25V43.75H11.25V41.25Z" fill="#EC5252"/>
<path d="M18.75 41.25H13.75V43.75H18.75V41.25Z" fill="#EC5252"/>
<path d="M11.25 46.25H6.25V48.75H11.25V46.25Z" fill="#EC5252"/>
<path d="M18.75 46.25H13.75V48.75H18.75V46.25Z" fill="#EC5252"/>
<path d="M11.25 51.25H6.25V53.75H11.25V51.25Z" fill="#EC5252"/>
<path d="M18.75 51.25H13.75V53.75H18.75V51.25Z" fill="#EC5252"/>
<path d="M11.25 56.25H6.25V58.75H11.25V56.25Z" fill="#EC5252"/>
<path d="M18.75 56.25H13.75V58.75H18.75V56.25Z" fill="#EC5252"/>
<path d="M61.25 36.25H56.25V38.75H61.25V36.25Z" fill="#EC5252"/>
<path d="M68.75 36.25H63.75V38.75H68.75V36.25Z" fill="#EC5252"/>
<path d="M61.25 41.25H56.25V43.75H61.25V41.25Z" fill="#EC5252"/>
<path d="M68.75 41.25H63.75V43.75H68.75V41.25Z" fill="#EC5252"/>
<path d="M61.25 46.25H56.25V48.75H61.25V46.25Z" fill="#EC5252"/>
<path d="M68.75 46.25H63.75V48.75H68.75V46.25Z" fill="#EC5252"/>
<path d="M61.25 51.25H56.25V53.75H61.25V51.25Z" fill="#EC5252"/>
<path d="M68.75 51.25H63.75V53.75H68.75V51.25Z" fill="#EC5252"/>
<path d="M61.25 56.25H56.25V58.75H61.25V56.25Z" fill="#EC5252"/>
<path d="M68.75 56.25H63.75V58.75H68.75V56.25Z" fill="#EC5252"/>
<path d="M28.75 37.5C28.7555 42.3302 32.6698 46.2445 37.5 46.25C42.3325 46.25 46.25 42.3325 46.25 37.5C46.25 32.6675 42.3325 28.75 37.5 28.75C32.6675 28.75 28.75 32.6675 28.75 37.5ZM43.75 37.5C43.75 40.9517 40.9517 43.75 37.5 43.75C34.0483 43.75 31.25 40.9517 31.25 37.5C31.2541 34.05 34.05 31.2541 37.5 31.25C40.9517 31.25 43.75 34.0483 43.75 37.5Z" fill="#EC5252"/>
<path d="M36.25 36.25H33.75V38.75H38.75V32.5H36.25V36.25Z" fill="#EC5252"/>
</svg>
