<svg width="75" height="75" viewBox="0 0 75 75" fill="none" xmlns="http://www.w3.org/2000/svg">
<path d="M63.5185 9.91162H11.4816C10.7974 9.91162 10.2427 10.4664 10.2427 11.1506C10.2427 11.8348 10.7974 12.3896 11.4816 12.3896H63.5185C64.2027 12.3896 64.7575 11.8348 64.7575 11.1506C64.7575 10.4664 64.2027 9.91162 63.5185 9.91162Z" fill="#EC5252"/>
<path d="M63.5185 17.3457H11.4816C10.7974 17.3457 10.2427 17.9005 10.2427 18.5847C10.2427 19.2689 10.7974 19.8237 11.4816 19.8237H63.5185C64.2027 19.8237 64.7575 19.2689 64.7575 18.5847C64.7575 17.9005 64.2027 17.3457 63.5185 17.3457Z" fill="#EC5252"/>
<path d="M63.5185 24.7793H11.4816C10.7974 24.7793 10.2427 25.334 10.2427 26.0183C10.2427 26.7025 10.7974 27.2572 11.4816 27.2572H63.5185C64.2027 27.2572 64.7575 26.7025 64.7575 26.0183C64.7575 25.334 64.2027 24.7793 63.5185 24.7793Z" fill="#EC5252"/>
<path d="M63.5185 32.2134H11.4816C10.7974 32.2134 10.2427 32.7681 10.2427 33.4524C10.2427 34.1366 10.7974 34.6913 11.4816 34.6913H63.5185C64.2027 34.6913 64.7575 34.1366 64.7575 33.4524C64.7575 32.7681 64.2027 32.2134 63.5185 32.2134Z" fill="#EC5252"/>
<path d="M73.4305 0H1.57003C0.885805 0 0.331055 0.55475 0.331055 1.23897V50.7979C0.331055 51.4821 0.885805 52.0369 1.57003 52.0369H45.0171C45.1652 53.3345 45.5426 54.5957 46.1322 55.7612L38.9548 68.1807C38.6107 68.7721 38.8111 69.5306 39.4024 69.8747C39.4044 69.8758 39.4063 69.877 39.4083 69.8781L47.982 74.834C48.1703 74.9427 48.384 75 48.6015 75C48.7099 75.0002 48.8176 74.9861 48.9223 74.9579C49.2397 74.8727 49.5102 74.665 49.6744 74.3805L56.0848 63.2731L62.4953 74.3756C62.6595 74.6601 62.93 74.8677 63.2474 74.9529C63.352 74.9811 63.4598 74.9952 63.5682 74.995C63.7857 74.995 63.9994 74.9377 64.1877 74.829L72.7614 69.8731C73.354 69.531 73.557 68.7732 73.2149 68.1807L66.04 55.76C66.6296 54.5949 67.0072 53.3342 67.1551 52.0369H73.4305C74.1147 52.0369 74.6694 51.4821 74.6694 50.7979V1.23897C74.6694 0.55475 74.1147 0 73.4305 0ZM48.1554 72.0636L41.7264 68.3467L47.6561 58.0806C47.8308 58.2838 48.0167 58.4746 48.205 58.6629C48.2273 58.6852 48.2483 58.71 48.2706 58.7323C48.5861 59.0408 48.9196 59.3304 49.2693 59.5996L49.434 59.7235C50.176 60.2751 50.9834 60.7329 51.8377 61.0863C52.5635 61.3919 53.3198 61.6191 54.0938 61.7641L48.1554 72.0636ZM56.0365 59.4707C55.6594 59.4692 55.2828 59.4427 54.9091 59.3914C52.2721 59.0227 49.9485 57.4682 48.6015 55.1715C47.8201 53.8465 47.4092 52.3361 47.412 50.7979C47.412 46.008 51.295 42.1251 56.0848 42.1251C60.8747 42.1251 64.7577 46.008 64.7577 50.7979C64.7601 52.3384 64.348 53.8512 63.5645 55.1777C63.3726 55.5052 63.1595 55.8198 62.9265 56.1193C61.2669 58.2358 58.7262 59.4716 56.0365 59.4707ZM70.4557 68.3504L64.0267 72.0636L58.0796 61.769C58.8114 61.6327 59.5273 61.4227 60.2168 61.1421C60.311 61.1037 60.4039 61.0653 60.4981 61.0244C60.8868 60.859 61.2656 60.6717 61.633 60.4631C61.6565 60.4495 61.6788 60.4334 61.7011 60.4198C62.0429 60.2177 62.3737 59.9976 62.6923 59.7606C62.7803 59.6962 62.8657 59.6367 62.9512 59.5649C63.2802 59.3106 63.5946 59.038 63.8929 58.7484C63.935 58.7075 63.9709 58.6629 64.0168 58.6245C64.1902 58.4486 64.3637 58.2726 64.526 58.0843L70.4557 68.3504ZM72.1915 49.5589H67.1662C67.1402 49.3186 67.0956 49.0844 67.0535 48.849C67.0361 48.7462 67.025 48.6396 67.0039 48.5355C66.9321 48.1903 66.8446 47.8499 66.7413 47.5146C66.7041 47.3907 66.6558 47.2792 66.6174 47.1603C66.543 46.9459 66.4712 46.7316 66.3844 46.5234C66.3274 46.3872 66.2605 46.2558 66.1973 46.122C66.1131 45.9386 66.0301 45.7503 65.9347 45.5781C65.8628 45.4418 65.7811 45.3105 65.703 45.1779C65.6051 45.0107 65.5085 44.8434 65.4019 44.6823C65.3152 44.551 65.2235 44.4259 65.1318 44.2995C65.0203 44.1446 64.9088 43.991 64.7899 43.8423C64.692 43.7184 64.5879 43.6019 64.4851 43.4842C64.3612 43.3405 64.2373 43.2005 64.1035 43.0642C63.9944 42.9515 63.8817 42.8412 63.7677 42.7334C63.6314 42.6038 63.4919 42.4765 63.3489 42.3518C63.2251 42.2502 63.1086 42.1499 62.9847 42.052C62.836 41.9281 62.6836 41.8215 62.53 41.7113C62.4061 41.6208 62.2735 41.5316 62.1422 41.4461C61.9811 41.3421 61.8163 41.2429 61.6466 41.1463C61.5128 41.0695 61.3777 40.9914 61.2402 40.9196C61.0668 40.8291 60.8896 40.7461 60.7112 40.6643C60.5712 40.5999 60.4336 40.5404 60.2912 40.476C60.1041 40.4004 59.912 40.3335 59.72 40.2679C59.5788 40.2183 59.4388 40.1663 59.295 40.1229C59.0906 40.061 58.8825 40.0126 58.6755 39.9618C58.538 39.9296 58.4017 39.8912 58.2617 39.8627C58.0263 39.8169 57.7872 39.7859 57.5468 39.7537C57.4229 39.7376 57.3114 39.7153 57.19 39.7029C56.8282 39.667 56.4565 39.6471 56.0848 39.6471C55.7132 39.6471 55.3415 39.667 54.9834 39.7029C54.8595 39.7153 54.7455 39.7376 54.6266 39.7537C54.3862 39.7859 54.1471 39.8169 53.9117 39.8627C53.7717 39.8912 53.6354 39.9296 53.4979 39.9618C53.2885 40.0126 53.0803 40.061 52.8784 40.1229C52.7347 40.1663 52.5947 40.2183 52.4534 40.2666C52.2614 40.3335 52.0693 40.4004 51.8823 40.476C51.7398 40.5342 51.6022 40.5999 51.4635 40.6643C51.2838 40.7461 51.1067 40.8279 50.9332 40.9196C50.7957 40.9914 50.6606 41.0695 50.5268 41.1463C50.3596 41.2429 50.1948 41.3421 50.0312 41.4461C49.8999 41.5316 49.771 41.6208 49.6434 41.7113C49.4898 41.8215 49.3374 41.9343 49.1887 42.052C49.0648 42.1499 48.9409 42.2502 48.8245 42.3518C48.6824 42.4757 48.5428 42.6029 48.4057 42.7334C48.2917 42.8412 48.179 42.9515 48.0699 43.0642C47.9386 43.2005 47.8122 43.3405 47.6883 43.4842C47.5855 43.6019 47.4814 43.7196 47.3835 43.8423C47.2596 43.991 47.1531 44.1446 47.0416 44.2995C46.9499 44.4234 46.8582 44.5473 46.7715 44.6823C46.6649 44.8434 46.5683 45.0107 46.4704 45.1779C46.3924 45.3105 46.3106 45.4406 46.2387 45.5769C46.1433 45.7553 46.0603 45.9411 45.9748 46.1245C45.9129 46.2571 45.8509 46.3872 45.789 46.5222C45.7023 46.7316 45.6292 46.9472 45.5548 47.1628C45.5139 47.2805 45.4656 47.3957 45.4309 47.5146C45.3285 47.845 45.2409 48.1854 45.1683 48.5355C45.1472 48.6396 45.136 48.7462 45.1187 48.849C45.0766 49.0844 45.032 49.3186 45.006 49.5589H2.809V2.47795H72.1915V49.5589Z" fill="#EC5252"/>
<path d="M56.0845 44.603C52.6632 44.603 49.8896 47.3766 49.8896 50.7979C49.8896 54.2192 52.6632 56.9928 56.0845 56.9928C59.5058 56.9928 62.2794 54.2192 62.2794 50.7979C62.2754 47.3783 59.5041 44.6071 56.0845 44.603ZM56.0845 54.5148C54.0317 54.5148 52.3676 52.8507 52.3676 50.7979C52.3676 48.7451 54.0317 47.081 56.0845 47.081C58.1373 47.081 59.8014 48.7451 59.8014 50.7979C59.8014 52.8507 58.1373 54.5148 56.0845 54.5148Z" fill="#EC5252"/>
</svg>
