<svg width="137" height="31" viewBox="0 0 137 31" fill="none" xmlns="http://www.w3.org/2000/svg">
<path d="M98.6177 15.5219C98.6177 6.41403 93.4493 0.55603 85.1922 0.55603H76.3408V5.67241L78.1193 10.6055V2.18094H84.9796C92.2217 2.18094 96.7526 7.35356 96.7526 15.5219C96.7526 23.7735 92.2217 28.9065 84.9796 28.9065H84.7156L85.285 30.4856C93.4864 30.4418 98.6177 24.638 98.6177 15.5219Z" fill="#333333"/>
<path d="M62.086 0.55603L56.1934 15.4323L57.0888 17.9155L63.0599 2.56425L69.9635 20.3112H57.9512L58.5372 21.9361H70.599L73.9435 30.4877H75.8933L64.0337 0.55603H62.086Z" fill="#333333"/>
<path d="M37.9049 17.1447L46.2487 30.4877H48.3243L39.768 16.8905C44.0451 15.8218 46.5437 13.1282 46.5437 8.93681C46.5437 3.67877 42.6462 0.55603 35.9984 0.55603H27.5288V6.03072L29.3073 10.9638V2.17886H35.8293C41.6724 2.17886 44.7652 4.70371 44.7652 8.93472C44.7652 13.0824 41.6724 15.6489 35.8293 15.6489H30.9951L31.581 17.2738H34.9379C35.9984 17.2759 36.9744 17.2322 37.9049 17.1447Z" fill="#333333"/>
<path d="M10.1665 1.66653C14.4023 1.66653 17.5364 3.33311 19.9917 7.01206L21.4731 6.07045C19.0178 2.18109 15.1203 0.041626 10.1252 0.041626C6.15139 0.041626 2.83987 1.67903 0.524902 4.44138L1.22434 6.38085C3.26284 3.40394 6.4031 1.66653 10.1665 1.66653Z" fill="#95C11F"/>
<path d="M21.3884 26.2527V15.3075H10.9711V16.9324H19.6099V25.5694C17.7034 27.963 14.0205 29.3734 10.7152 29.3734C10.2984 29.3734 9.88991 29.3525 9.4917 29.3171L10.0921 30.9837C10.284 30.9899 10.4759 30.9983 10.6719 30.9983C14.6127 31.0004 18.8898 29.4192 21.3884 26.2527Z" fill="#95C11F"/>
<path d="M107.688 22.2149L105.54 16.5465H105.505C105.547 16.9965 105.565 17.5298 105.565 18.1464V22.2149H104.884V15.8195H105.994L108 21.0942H108.035L110.057 15.8195H111.157V22.2149H110.42V18.0943C110.42 17.6214 110.441 17.109 110.48 16.5548H110.445L108.278 22.2149H107.688Z" fill="#333333"/>
<path d="M117.09 22.2149H113.56V15.8195H117.09V16.4798H114.297V18.5401H116.921V19.1964H114.297V21.5504H117.09V22.2149Z" fill="#333333"/>
<path d="M124.215 18.9568C124.215 20.013 123.93 20.8192 123.363 21.3775C122.795 21.9358 121.978 22.2149 120.913 22.2149H119.16V15.8195H121.101C122.085 15.8195 122.851 16.0944 123.398 16.6465C123.942 17.1985 124.215 17.9673 124.215 18.9568ZM123.435 18.9818C123.435 18.1485 123.228 17.5194 122.814 17.0965C122.399 16.6736 121.784 16.4632 120.965 16.4632H119.894V21.5712H120.792C121.669 21.5712 122.329 21.3525 122.77 20.9171C123.214 20.4817 123.435 19.8359 123.435 18.9818Z" fill="#333333"/>
<path d="M126.292 22.2149V15.8195H127.029V22.2149H126.292Z" fill="#333333"/>
<path d="M133.413 22.2153L132.625 20.1821H130.087L129.307 22.2153H128.562L131.067 15.7948H131.686L134.176 22.2153H133.413ZM132.396 19.5113L131.659 17.5301C131.564 17.2801 131.465 16.9718 131.364 16.6073C131.3 16.8864 131.209 17.1947 131.092 17.5301L130.347 19.5113H132.396Z" fill="#333333"/>
<path d="M107.67 27.4142H109.824V30.5244C109.489 30.6327 109.147 30.714 108.8 30.7702C108.454 30.8265 108.051 30.8536 107.595 30.8536C106.636 30.8536 105.891 30.5661 105.357 29.989C104.822 29.412 104.556 28.6058 104.556 27.5683C104.556 26.9038 104.688 26.3205 104.952 25.8205C105.216 25.3205 105.598 24.9393 106.093 24.6747C106.591 24.4102 107.172 24.2789 107.839 24.2789C108.516 24.2789 109.145 24.4039 109.727 24.6539L109.442 25.3101C108.87 25.0643 108.32 24.9435 107.791 24.9435C107.02 24.9435 106.417 25.1747 105.984 25.6393C105.551 26.1038 105.334 26.7455 105.334 27.5683C105.334 28.4308 105.542 29.087 105.959 29.5328C106.376 29.9786 106.989 30.2015 107.798 30.2015C108.237 30.2015 108.666 30.1515 109.085 30.0494V28.0808H107.668V27.4142H107.67Z" fill="#333333"/>
<path d="M112.745 28.1062V30.7664H112.009V24.371H113.746C114.524 24.371 115.097 24.521 115.469 24.8209C115.84 25.1209 116.026 25.573 116.026 26.1771C116.026 27.0229 115.601 27.5937 114.753 27.8916L116.472 30.7644H115.601L114.068 28.1041H112.745V28.1062ZM112.745 27.4666H113.754C114.274 27.4666 114.656 27.3625 114.897 27.1541C115.139 26.9458 115.26 26.6333 115.26 26.2167C115.26 25.7938 115.137 25.4897 114.891 25.3022C114.644 25.1147 114.247 25.023 113.703 25.023H112.745V27.4666Z" fill="#333333"/>
<path d="M123.656 27.5589C123.656 28.5818 123.4 29.388 122.886 29.9734C122.372 30.5588 121.661 30.8525 120.749 30.8525C119.816 30.8525 119.096 30.565 118.588 29.988C118.081 29.413 117.829 28.5985 117.829 27.5485C117.829 26.5069 118.083 25.7007 118.593 25.1278C119.1 24.5549 119.822 24.2675 120.759 24.2675C121.669 24.2675 122.379 24.5591 122.89 25.1424C123.4 25.7278 123.656 26.534 123.656 27.5589ZM118.609 27.5589C118.609 28.4256 118.791 29.0818 119.158 29.5297C119.523 29.9775 120.053 30.2005 120.751 30.2005C121.452 30.2005 121.982 29.9775 122.341 29.5317C122.7 29.0859 122.878 28.4276 122.878 27.5589C122.878 26.6986 122.7 26.0465 122.343 25.6007C121.987 25.157 121.458 24.9341 120.761 24.9341C120.059 24.9341 119.525 25.1591 119.16 25.6049C118.795 26.0507 118.609 26.7048 118.609 27.5589Z" fill="#333333"/>
<path d="M130.516 24.371V28.5082C130.516 29.2374 130.297 29.8102 129.862 30.2269C129.427 30.6435 128.826 30.8518 128.065 30.8518C127.304 30.8518 126.713 30.6414 126.295 30.2227C125.878 29.8019 125.669 29.2249 125.669 28.4916V24.371H126.406V28.5437C126.406 29.077 126.55 29.4873 126.839 29.7727C127.128 30.0581 127.553 30.2019 128.112 30.2019C128.647 30.2019 129.057 30.0581 129.346 29.7707C129.635 29.4832 129.779 29.0707 129.779 28.5353V24.371H130.516Z" fill="#333333"/>
<path d="M136.875 26.2339C136.875 26.8817 136.656 27.3796 136.219 27.7275C135.781 28.0754 135.154 28.2504 134.341 28.2504H133.596V30.7649H132.86V24.3694H134.502C136.083 24.3715 136.875 24.9923 136.875 26.2339ZM133.594 27.6109H134.257C134.909 27.6109 135.381 27.5046 135.674 27.2921C135.965 27.0796 136.112 26.738 136.112 26.2693C136.112 25.8464 135.973 25.5318 135.701 25.3235C135.427 25.1173 134.999 25.0131 134.42 25.0131H133.596V27.6109H133.594Z" fill="#333333"/>
</svg>
