<svg width="18" height="18" viewBox="0 0 18 18" fill="none" xmlns="http://www.w3.org/2000/svg">
<path d="M15.8555 1.05469V0H14.8008V1.05469H11.6367V0H10.582V1.05469H7.41797V0H6.36328V1.05469H3.19922V0H2.14453V1.05469H0C0 1.61227 0 17.3804 0 18H18C18 17.5029 18 1.50237 18 1.05469H15.8555ZM16.9453 16.9453H1.05469V5.30859H16.9453V16.9453ZM16.9453 4.25391H1.05469V2.10938H2.14453V3.16406H3.19922V2.10938H6.36328V3.16406H7.41797V2.10938H10.582V3.16406H11.6367V2.10938H14.8008V3.16406H15.8555V2.10938H16.9453V4.25391Z" fill="#4F4F4F"/>
<path d="M15.8555 8.47266V7.41797H13.7461V6.36328H12.6914V7.41797H9.52734V6.36328H8.47266V7.41797H5.30859V6.36328H4.25391V7.41797H2.10938V8.47266H4.25391V10.582H2.10938V11.6367H4.25391V13.7461H2.10938V14.8008H4.25391V15.8906H5.30859V14.8008H8.47266V15.8906H9.52734V14.8008H12.6914V15.8906H13.7461V14.8008H15.8555V13.7461H13.7461V11.6367H15.8555V10.582H13.7461V8.47266H15.8555ZM8.47266 13.7461H5.30859V11.6367H8.47266V13.7461ZM8.47266 10.582H5.30859V8.47266H8.47266V10.582ZM12.6914 13.7461H9.52734V11.6367H12.6914V13.7461ZM12.6914 10.582H9.52734V8.47266H12.6914V10.582Z" fill="#4F4F4F"/>
</svg>
