<svg width="11" height="10" viewBox="0 0 11 10" fill="none" xmlns="http://www.w3.org/2000/svg">
<g clip-path="url(#clip0)">
<path d="M10.7179 8.11289L2.09723 0.275877C1.72125 -0.0659173 1.11171 -0.0659173 0.73632 0.275877L0.28198 0.688273C-0.0939934 1.03017 -0.0939934 1.58431 0.28198 1.92557L8.9027 9.76258C9.27879 10.1044 9.88834 10.1044 10.2637 9.76258L10.7174 9.35019C11.094 9.00893 11.094 8.45469 10.7179 8.11289Z" fill="#F44336"/>
<path d="M8.9027 0.276773L0.28198 8.11379C-0.0939933 8.45559 -0.0939933 9.00983 0.28198 9.35109L0.735615 9.76348C1.11171 10.1053 1.72125 10.1053 2.09664 9.76348L10.7179 1.927C11.094 1.5852 11.094 1.03107 10.7179 0.68981L10.2643 0.277414C9.88833 -0.0650208 9.27879 -0.0650208 8.9027 0.276773Z" fill="#F44336"/>
</g>
<defs>
<clipPath id="clip0">
<rect width="11" height="10" fill="white"/>
</clipPath>
</defs>
</svg>
