<svg width="32" height="32" viewBox="0 0 32 32" fill="none" xmlns="http://www.w3.org/2000/svg">
<path d="M30.2336 3.61969e-08H1.76484C0.790039 0.000585976 -0.000195276 0.791211 3.61969e-08 1.76641V30.2352C0.000585976 31.21 0.791211 32.0002 1.76641 32H17.0938V19.625H12.9375V14.7812H17.0938V11.2166C17.0938 7.08281 19.6174 4.83281 23.3049 4.83281C25.0711 4.83281 26.5889 4.96445 27.0312 5.02324V9.34375H24.4885C22.4822 9.34375 22.0938 10.2971 22.0938 11.6963V14.7812H26.8906L26.2656 19.625H22.0938V32H30.2336C31.209 32.0002 31.9998 31.2098 32 30.2344C32 30.2342 32 30.234 32 30.2336V1.76484C31.9996 0.790039 31.2088 -0.000195276 30.2336 3.61969e-08Z" fill="#352E7D"/>
</svg>
