<svg xmlns="http://www.w3.org/2000/svg" width="217" height="179" fill="none"  xmlns:v="https://vecta.io/nano"><style><![CDATA[.B{fill-rule:evenodd}.C{fill:#000}.D{fill:#fff}.E{fill:#ec5252}.F{fill:#f5f5f5}]]></style><g clip-path="url(#A)"><path d="M48.926 147.272a1.157 1.157 0 0 1-.007-2.312c.708-.02 1.233.505 1.24 1.143a1.162 1.162 0 0 1-1.145 1.172l-.088-.003zm-4.25-.078c-.77-.036-1.265-.58-1.233-1.218s.57-1.13 1.214-1.097c.707.03 1.203.57 1.174 1.208a1.156 1.156 0 0 1-1.155 1.107zm8.568-.075a1.156 1.156 0 0 1-.069-2.309c.714-.042 1.262.44 1.3 1.078a1.156 1.156 0 0 1-1.086 1.224l-.146.007zm-12.882-.248c-.04 0-.082-.003-.12-.006-.71-.075-1.174-.645-1.106-1.28a1.158 1.158 0 0 1 1.276-1.029c.7.075 1.17.645 1.105 1.28a1.163 1.163 0 0 1-1.154 1.035zm17.186-.13a1.159 1.159 0 0 1-1.15-1.029 1.154 1.154 0 0 1 1.023-1.276c.705-.082 1.28.37 1.354 1.006a1.158 1.158 0 0 1-1.015 1.286l-.212.013zm-21.468-.466a1.42 1.42 0 0 1-.203-.016c-.7-.124-1.125-.72-1.014-1.35a1.159 1.159 0 0 1 1.34-.941c.705.124 1.126.723 1.018 1.35a1.16 1.16 0 0 1-1.141.957zm25.747-.166a1.157 1.157 0 0 1-.225-2.292c.688-.14 1.302.26 1.432.882s-.27 1.238-.897 1.368c-.16.036-.235.042-.3.042zm-29.977-.726c-.095 0-.2-.013-.284-.036-.688-.17-1.066-.797-.913-1.42s.783-1 1.402-.843c.698.175 1.073.804.917 1.426a1.157 1.157 0 0 1-1.122.872zm34.113-.15a1.157 1.157 0 0 1-.251-2.288c.674-.147 1.304.247 1.44.87a1.144 1.144 0 0 1-.87 1.374 1.181 1.181 0 0 1-.32.045zm4.242-.93a1.154 1.154 0 0 1-.254-2.282c.67-.15 1.305.238 1.445.86a1.145 1.145 0 0 1-.861 1.381 1.54 1.54 0 0 1-.33.042zm-42.5-.146c-.124 0-.252-.02-.38-.062-.678-.235-.998-.892-.79-1.498a1.16 1.16 0 0 1 1.474-.713c.672.23.995.89.786 1.495a1.15 1.15 0 0 1-1.092.778zm46.734-.81a1.16 1.16 0 0 1-1.129-.892 1.154 1.154 0 0 1 .861-1.39c.704-.16 1.327.23 1.468.853a1.158 1.158 0 0 1-.874 1.383c-.15.036-.238.046-.326.046zm-50.752-.778a1.13 1.13 0 0 1-.476-.104c-.656-.3-.9-.987-.643-1.566a1.16 1.16 0 0 1 1.536-.567c.646.293.904.977.64 1.56a1.163 1.163 0 0 1-1.057.677zm54.975-.202a1.158 1.158 0 0 1-.268-2.282c.702-.163 1.325.22 1.47.843a1.157 1.157 0 0 1-.864 1.39 1.35 1.35 0 0 1-.34.049zm4.217-1.003a1.158 1.158 0 0 1-.268-2.282c.692-.166 1.318.215 1.468.837a1.158 1.158 0 0 1-.855 1.396 1.43 1.43 0 0 1-.345.049zm-63.028-.778c-.198 0-.4-.052-.583-.16-.617-.36-.803-1.067-.48-1.62a1.16 1.16 0 0 1 1.585-.413c.617.36.803 1.067.48 1.62a1.158 1.158 0 0 1-1.002.573zm67.238-.244a1.155 1.155 0 0 1-.277-2.279c.694-.173 1.32.208 1.474.827a1.155 1.155 0 0 1-.848 1.4 1.447 1.447 0 0 1-.349.052zm4.204-1.05a1.157 1.157 0 0 1-.28-2.279c.687-.172 1.317.202 1.473.82a1.16 1.16 0 0 1-.838 1.406c-.17.043-.264.052-.355.052zm4.197-1.068a1.157 1.157 0 0 1-.284-2.279c.052-.013.356 1.104.356 1.104l.277 1.123c-.16.04-.254.052-.35.052zm-79.226-.032c-.24 0-.49-.075-.698-.235-.57-.433-.672-1.16-.284-1.667a1.162 1.162 0 0 1 1.625-.221c.567.427.668 1.153.283 1.664a1.168 1.168 0 0 1-.926.459zm83.417-1.06a1.156 1.156 0 0 1-.29-2.276c.68-.183 1.317.185 1.483.8a1.155 1.155 0 0 1-.818 1.416c-.18.05-.28.06-.375.06zm4.184-1.117a1.16 1.16 0 0 1-1.119-.86 1.156 1.156 0 0 1 .819-1.416c.685-.186 1.32.176 1.5.79a1.159 1.159 0 0 1-.812 1.423c-.18.05-.28.062-.378.062zm-90.878-.63c-.3 0-.58-.107-.806-.325-.518-.508-.522-1.24-.075-1.697a1.158 1.158 0 0 1 1.637-.013c.506.49.52 1.22.075 1.68a1.138 1.138 0 0 1-.831.355zm95.052-.514a1.157 1.157 0 0 1-.306-2.273c.68-.192 1.324.17 1.497.782a1.156 1.156 0 0 1-.803 1.426 1.31 1.31 0 0 1-.388.065zm4.168-1.172a1.16 1.16 0 0 1-1.115-.847 1.156 1.156 0 0 1 .802-1.426c.678-.195 1.32.16 1.497.772a1.157 1.157 0 0 1-.792 1.432 1.243 1.243 0 0 1-.392.069zm4.162-1.202a1.158 1.158 0 0 1-.32-2.269c.678-.2 1.324.15 1.503.762a1.156 1.156 0 0 1-.782 1.436 1.263 1.263 0 0 1-.401.071zM10.087 132.2c-.34 0-.675-.146-.903-.433-.447-.557-.37-1.283.13-1.683a1.157 1.157 0 0 1 1.628.179c.447.557.368 1.283-.13 1.683-.213.17-.47.254-.725.254zm110.43-.934a1.155 1.155 0 0 1-.336-2.263c.685-.205 1.334.14 1.516.752a1.157 1.157 0 0 1-.776 1.442 1.387 1.387 0 0 1-.404.069zM124.66 130a1.16 1.16 0 0 1-1.106-.811 1.153 1.153 0 0 1 .76-1.449c.688-.21 1.337.13 1.526.74a1.16 1.16 0 0 1-.763 1.448 1.37 1.37 0 0 1-.417.072zm4.132-1.306a1.158 1.158 0 0 1-.353-2.259c.68-.218 1.33.114 1.527.723a1.155 1.155 0 0 1-.747 1.455c-.19.065-.3.08-.427.08zM7.596 128.67c-.385 0-.76-.192-.975-.544-.375-.6-.2-1.315.336-1.65a1.157 1.157 0 0 1 1.594.371c.37.596.202 1.316-.342 1.65a1.177 1.177 0 0 1-.613.173zm125.307-1.316a1.16 1.16 0 0 1-1.099-.788 1.154 1.154 0 0 1 .727-1.465c.685-.228 1.34.1 1.543.7a1.155 1.155 0 0 1-.737 1.462 1.313 1.313 0 0 1-.434.081zm4.1-1.387a1.158 1.158 0 0 1-.382-2.25c.678-.234 1.337.088 1.546.694a1.16 1.16 0 0 1-.718 1.472 1.313 1.313 0 0 1-.446.084zm-131.44-1.08c-.434 0-.85-.247-1.05-.664-.303-.658-.05-1.345.535-1.608a1.158 1.158 0 0 1 1.536.569c.3.64.05 1.326-.53 1.6-.16.068-.326.104-.492.104zm135.522-.355a1.157 1.157 0 0 1-.392-2.246c.672-.24 1.337.07 1.553.67a1.16 1.16 0 0 1-.698 1.481 1.235 1.235 0 0 1-.463.094zm4.066-1.488c-.466 0-.906-.283-1.082-.745a1.153 1.153 0 0 1 .672-1.491c.67-.25 1.34.052 1.565.648a1.151 1.151 0 0 1-.678 1.487c-.203.075-.34.1-.477.1zm4.04-1.553a1.156 1.156 0 0 1-.417-2.236c.655-.26 1.327.03 1.565.625a1.157 1.157 0 0 1-.649 1.501c-.218.084-.36.1-.5.1zM3.95 120.896c-.48 0-.93-.303-1.096-.782-.232-.67.088-1.332.69-1.54a1.16 1.16 0 0 1 1.474.713c.235.677-.088 1.335-.694 1.543a1.12 1.12 0 0 1-.375.066zm149.258-1.026c-.457 0-.887-.27-1.07-.716a1.155 1.155 0 0 1 .63-1.511c.652-.274 1.33.003 1.578.592a1.154 1.154 0 0 1-.62 1.514 1.288 1.288 0 0 1-.518.121zm3.98-1.706a1.156 1.156 0 0 1-.473-2.214c.655-.3 1.34-.026 1.598.557a1.158 1.158 0 0 1-.591 1.527c-.218.097-.378.13-.534.13zM2.743 116.76c-.522 0-.998-.355-1.125-.886-.17-.687.21-1.312.83-1.465a1.16 1.16 0 0 1 1.403.846c.17.7-.215 1.325-.835 1.475-.095.02-.186.03-.274.03zm158.38-.4a1.157 1.157 0 0 1-.496-2.204c.64-.306 1.33-.062 1.608.514a1.156 1.156 0 0 1-.545 1.544c-.234.1-.404.146-.567.146zm3.878-1.92a1.16 1.16 0 0 1-1.028-.622 1.153 1.153 0 0 1 .493-1.559c.632-.33 1.334-.11 1.627.455a1.154 1.154 0 0 1-.492 1.56 1.25 1.25 0 0 1-.6.166zm-163.1-1.9a1.16 1.16 0 0 1-1.144-.98c-.114-.697.316-1.3.946-1.394a1.161 1.161 0 0 1 1.33.957c.11.713-.323 1.306-.955 1.404l-.176.013zm166.902-.17a1.158 1.158 0 0 1-.574-2.162c.613-.35 1.32-.162 1.64.388s.13 1.26-.424 1.58c-.252.146-.447.195-.643.195zm3.692-2.26a1.157 1.157 0 0 1-.643-2.12c.604-.394 1.32-.244 1.67.3s.202 1.25-.336 1.602c-.25.166-.473.228-.69.228zm-171.11-1.85a1.16 1.16 0 0 1-1.154-1.058c-.06-.716.417-1.276 1.056-1.325a1.158 1.158 0 0 1 1.25 1.061c.06.704-.41 1.264-1.05 1.32-.033.003-.07.003-.102.003zm174.628-.66a1.157 1.157 0 0 1-.724-2.061c.564-.442 1.29-.358 1.69.144s.3 1.227-.192 1.624c-.264.212-.52.293-.773.293zm3.232-2.878a1.14 1.14 0 0 1-.799-.322 1.14 1.14 0 0 1-.036-1.625c.49-.51 1.223-.527 1.686-.085s.48 1.176.036 1.635c-.27.277-.58.397-.887.397zm-178.088-.765A1.158 1.158 0 0 1 0 102.825c-.013-.72.496-1.247 1.135-1.26.652 0 1.168.505 1.18 1.136.017.707-.488 1.238-1.128 1.254h-.03zm180.736-2.592a1.155 1.155 0 0 1-.992-1.751c.356-.606 1.067-.792 1.618-.466s.737 1.032.414 1.582c-.264.433-.646.635-1.04.635zM1.18 99.64C.506 99.62.004 99.087.023 98.45c.023-.713.554-1.217 1.197-1.195a1.16 1.16 0 0 1 1.122 1.192c-.023.703-.538 1.195-1.16 1.195zm182.474-2.208a1.158 1.158 0 0 1-1.096-1.54c.225-.664.88-.986 1.487-.784s.933.86.728 1.465c-.193.56-.64.86-1.12.86zM1.425 95.337C.68 95.27.212 94.708.27 94.073c.072-.716.64-1.182 1.275-1.12a1.16 1.16 0 0 1 1.04 1.267c-.062.664-.567 1.117-1.16 1.117zm183.322-2.078a1.16 1.16 0 0 1-1.144-1.354c.133-.716.74-1.13 1.37-1a1.16 1.16 0 0 1 .927 1.352c-.108.618-.597 1.012-1.152 1.012zM2.19 91.114a1.158 1.158 0 0 1-1.119-1.465c.196-.694.835-1.052 1.45-.88s.975.81.802 1.426c-.16.583-.626.92-1.134.92zm183.093-2.133c-.724-.05-1.203-.605-1.157-1.24.042-.697.6-1.186 1.232-1.143a1.16 1.16 0 0 1 1.086 1.224c-.052.697-.56 1.16-1.16 1.16zM3.685 87.1a1.157 1.157 0 0 1-1.047-1.65c.3-.625.995-.883 1.573-.606s.828.954.55 1.53c-.228.482-.642.726-1.076.726zm181.672-2.42a1.159 1.159 0 0 1-1.157-1.113c-.02-.726.485-1.257 1.128-1.273a1.164 1.164 0 0 1 1.187 1.13c.026.696-.473 1.233-1.112 1.26a.26.26 0 0 0-.046-.004zm-179.52-1.3a1.155 1.155 0 0 1-.956-1.81c.412-.6 1.133-.72 1.658-.358s.656 1.084.3 1.608c-.257.384-.623.56-.99.56zm179.214-3.005a1.158 1.158 0 0 1-1.151-1.029c-.08-.7.378-1.283 1.014-1.35a1.157 1.157 0 0 1 1.278 1.022c.078.707-.378 1.28-1.014 1.35a1.636 1.636 0 0 1-.127.007zM8.52 79.998a1.157 1.157 0 0 1-.861-1.93c.476-.53 1.2-.567 1.686-.14s.515 1.158.085 1.634c-.278.306-.594.436-.9.436zm3.056-3.044a1.157 1.157 0 0 1-.776-2.019c.524-.475 1.258-.443 1.69.033s.394 1.204-.08 1.634c-.28.254-.557.352-.835.352zm172.846-.857a1.16 1.16 0 0 1-1.141-.957c-.13-.687.284-1.292.913-1.4a1.16 1.16 0 0 1 1.353.925c.128.716-.296 1.316-.926 1.426-.065.01-.133.016-.2.016zM14.894 74.2a1.159 1.159 0 0 1-.71-2.074c.564-.437 1.294-.346 1.686.16a1.15 1.15 0 0 1-.21 1.621c-.267.215-.518.293-.766.293zm168.617-2.312a1.16 1.16 0 0 1-1.125-.886c-.173-.677.202-1.31.825-1.465a1.162 1.162 0 0 1 1.409.837c.173.706-.212 1.33-.835 1.48a1.33 1.33 0 0 1-.274.033zm-165.12-.23a1.155 1.155 0 0 1-.656-2.11c.584-.404 1.305-.274 1.67.25a1.153 1.153 0 0 1-.29 1.609c-.27.186-.5.25-.724.25zM22 69.27a1.156 1.156 0 0 1-.623-2.133c.606-.38 1.324-.22 1.663.32s.18 1.253-.362 1.595c-.25.16-.466.218-.678.218zm160.353-1.553c-.496 0-.956-.32-1.106-.817-.212-.68.13-1.33.744-1.518a1.157 1.157 0 0 1 1.448.762c.212.684-.134 1.332-.744 1.517a1.072 1.072 0 0 1-.342.056zm-156.668-.713a1.158 1.158 0 0 1-.6-2.149c.616-.368 1.33-.2 1.657.358s.15 1.26-.4 1.586a1.194 1.194 0 0 1-.656.205zm3.72-2.2a1.157 1.157 0 0 1-.584-2.159c.607-.358 1.318-.176 1.644.37a1.16 1.16 0 0 1-.404 1.586c-.258.153-.46.202-.656.202zm151.564-1.176c-.473 0-.913-.3-1.086-.758-.248-.67.062-1.335.662-1.557a1.16 1.16 0 0 1 1.487.69c.245.668-.062 1.332-.662 1.554a1.16 1.16 0 0 1-.401.071zM33.144 62.62a1.157 1.157 0 0 1-.587-2.155c.614-.362 1.325-.176 1.647.374.327.55.14 1.26-.4 1.583-.252.146-.45.198-.65.198zm3.718-2.207c-.39 0-.776-.2-.99-.56a1.155 1.155 0 0 1 .391-1.59c.603-.367 1.318-.195 1.65.35a1.158 1.158 0 0 1-.384 1.591c-.255.153-.463.21-.666.21zm142.52-.8c-.454 0-.884-.267-1.07-.713-.277-.648-.003-1.325.587-1.576a1.16 1.16 0 0 1 1.52.609c.28.667 0 1.344-.59 1.59a1.15 1.15 0 0 1-.446.09zM40.534 58.13a1.156 1.156 0 0 1-.626-2.13c.6-.383 1.318-.23 1.664.3s.19 1.254-.35 1.6a1.23 1.23 0 0 1-.688.221zm3.594-2.406a1.155 1.155 0 0 1-.668-2.1c.6-.413 1.3-.283 1.68.238a1.158 1.158 0 0 1-.288 1.611c-.26.183-.495.25-.724.25zm133.474-.045a1.16 1.16 0 0 1-1.04-.645c-.313-.658-.07-1.348.508-1.62a1.163 1.163 0 0 1 1.546.547c.3.625.072 1.318-.502 1.6a1.188 1.188 0 0 1-.512.118zM47.585 53.137a1.15 1.15 0 0 1-.903-.433 1.153 1.153 0 0 1 .18-1.625c.55-.446 1.28-.368 1.682.127a1.157 1.157 0 0 1-.173 1.628c-.274.218-.53.303-.786.303zm128.057-1.306c-.414 0-.815-.22-1.024-.615-.336-.616-.13-1.32.434-1.625a1.16 1.16 0 0 1 1.572.462c.342.642.127 1.342-.437 1.64a1.145 1.145 0 0 1-.545.137zM50.837 50.294a1.155 1.155 0 0 1-.805-1.986c.524-.498 1.258-.478 1.698-.016s.42 1.195-.042 1.634c-.27.26-.56.368-.85.368zm122.67-2.214c-.395 0-.776-.198-.995-.563-.368-.61-.192-1.32.356-1.647a1.164 1.164 0 0 1 1.591.39c.37.616.193 1.325-.355 1.654a1.151 1.151 0 0 1-.597.166zm-119.734-.94a1.157 1.157 0 0 1-.897-1.89c.447-.55 1.177-.624 1.673-.224s.574 1.13.173 1.628c-.28.342-.613.485-.95.485zm117.425-2.7c-.375 0-.744-.182-.97-.517-.394-.6-.25-1.3.284-1.664a1.16 1.16 0 0 1 1.608.322c.398.6.25 1.316-.284 1.667a1.174 1.174 0 0 1-.639.193zM56.24 43.617a1.157 1.157 0 0 1-.998-1.742c.355-.613 1.063-.8 1.617-.482s.744 1.03.424 1.58c-.257.44-.645.645-1.043.645zm112.48-2.732c-.353 0-.702-.16-.93-.466-.43-.6-.316-1.312.202-1.7a1.162 1.162 0 0 1 1.618.254c.417.56.313 1.283-.2 1.667a1.12 1.12 0 0 1-.691.235zM58.067 39.732a1.152 1.152 0 0 1-1.09-1.547c.236-.667.898-.983 1.5-.768a1.16 1.16 0 0 1 .709 1.475c-.2.544-.643.84-1.12.84zm108.016-2.273c-.332 0-.665-.143-.893-.42-.457-.566-.38-1.295.12-1.696a1.156 1.156 0 0 1 1.628.18c.443.536.375 1.266-.118 1.673-.215.18-.476.264-.737.264zm-106.5-1.76a1.155 1.155 0 0 1-1.063-1.615c.284-.658.97-.93 1.556-.675s.857.935.603 1.52c-.218.505-.646.77-1.096.77zm103.692-1.528c-.316 0-.633-.13-.86-.38-.48-.538-.437-1.267.04-1.694a1.158 1.158 0 0 1 1.637.094c.473.525.437 1.257-.04 1.684a1.16 1.16 0 0 1-.776.296zM61.49 31.827a1.158 1.158 0 0 1-1.011-1.72c.34-.618 1.04-.823 1.605-.517a1.16 1.16 0 0 1 .463 1.57c-.254.452-.65.667-1.057.667zm98.833-.8c-.297 0-.597-.114-.822-.342-.502-.508-.5-1.24-.046-1.7a1.16 1.16 0 0 1 1.638.007c.502.508.498 1.24.045 1.7a1.145 1.145 0 0 1-.815.335zm-96.55-2.862a1.154 1.154 0 0 1-.949-1.814c.418-.592 1.142-.716 1.663-.345s.646 1.09.278 1.612c-.265.37-.623.547-.992.547zm93.432-.12a1.16 1.16 0 0 1-.776-.297c-.532-.482-.568-1.214-.137-1.686a1.16 1.16 0 0 1 1.637-.078c.528.475.564 1.204.137 1.68-.228.253-.545.38-.86.38zm-3.28-2.804c-.25 0-.508-.08-.72-.25-.565-.456-.64-1.182-.24-1.68a1.165 1.165 0 0 1 1.631-.173c.55.44.633 1.165.235 1.667a1.15 1.15 0 0 1-.907.436zm-87.5-.488a1.15 1.15 0 0 1-.756-.28 1.143 1.143 0 0 1-.12-1.622c.462-.537 1.193-.6 1.68-.172s.538 1.146.12 1.63c-.267.307-.597.444-.923.444zm84.056-2.12a1.15 1.15 0 0 1-.672-.215c-.58-.413-.704-1.136-.332-1.657a1.157 1.157 0 0 1 1.614-.27c.58.413.704 1.136.333 1.657a1.155 1.155 0 0 1-.943.485zm-81.05-.957a1.156 1.156 0 0 1-.786-2.006c.532-.485 1.262-.452 1.696.02a1.153 1.153 0 0 1-.072 1.634c-.273.25-.557.352-.838.352zm77.455-1.433c-.208 0-.42-.055-.613-.175-.603-.372-.773-1.085-.437-1.628a1.16 1.16 0 0 1 1.595-.378c.613.38.776 1.094.44 1.634a1.15 1.15 0 0 1-.985.547zM72.782 18.92c-.356 0-.708-.16-.933-.465a1.14 1.14 0 0 1 .232-1.609c.57-.423 1.294-.32 1.68.192a1.156 1.156 0 0 1-.236 1.619 1.209 1.209 0 0 1-.743.263zm70.375-.823a1.19 1.19 0 0 1-.535-.13c-.64-.34-.855-1.04-.555-1.602a1.16 1.16 0 0 1 1.566-.48c.626.327.844 1.023.55 1.6a1.16 1.16 0 0 1-1.027.622zm-66.78-1.537a1.157 1.157 0 0 1-.587-2.155c.6-.362 1.32-.18 1.647.37a1.16 1.16 0 0 1-.405 1.586c-.254.147-.456.2-.655.2zm62.893-.342a1.19 1.19 0 0 1-.466-.098c-.652-.283-.92-.967-.666-1.553s.94-.853 1.527-.6c.655.287.923.97.665 1.556a1.151 1.151 0 0 1-1.06.694zm-4.014-1.586c-.124 0-.252-.02-.38-.062-.68-.24-.998-.9-.786-1.504a1.16 1.16 0 0 1 1.478-.706c.665.23.988.89.78 1.5-.163.483-.6.782-1.092.782zm-55.05-.07a1.156 1.156 0 0 1-.486-2.208c.64-.3 1.327-.05 1.6.528s.024 1.266-.557 1.54c-.23.107-.398.14-.558.14zm50.92-1.192c-.098 0-.2-.013-.3-.04-.685-.176-1.057-.807-.894-1.426a1.16 1.16 0 0 1 1.412-.83c.698.185 1.067.82.9 1.44a1.158 1.158 0 0 1-1.118.856zm-46.923-.43a1.156 1.156 0 0 1-.385-2.247c.67-.237 1.33.076 1.546.678a1.155 1.155 0 0 1-.701 1.478 1.35 1.35 0 0 1-.46.091zm42.726-.592c-.082 0-.167-.01-.252-.03-.7-.16-1.092-.778-.952-1.4s.76-1.015 1.386-.872c.692.153 1.086.77.95 1.393a1.16 1.16 0 0 1-1.131.909zm-38.597-.678a1.157 1.157 0 0 1-.294-2.28c.685-.18 1.32.187 1.484.805a1.158 1.158 0 0 1-.822 1.417c-.173.05-.27.058-.368.058zm34.363-.205a1.21 1.21 0 0 1-.215-.02c-.7-.13-1.115-.735-.998-1.363a1.16 1.16 0 0 1 1.354-.925c.704.133 1.115.736.998 1.364a1.159 1.159 0 0 1-1.139.944zm-4.26-.72c-.055 0-.114-.002-.173-.012-.704-.104-1.14-.694-1.046-1.325a1.157 1.157 0 0 1 1.317-.974c.708.108 1.145.694 1.05 1.325a1.165 1.165 0 0 1-1.148.987zm-25.888-.006a1.157 1.157 0 0 1-.205-2.295c.694-.13 1.3.283 1.418.912a1.158 1.158 0 0 1-.926 1.35c-.15.027-.218.033-.287.033zm21.603-.543c-.04 0-.082-.004-.124-.007-.71-.075-1.17-.645-1.106-1.28a1.16 1.16 0 0 1 1.272-1.028c.71.074 1.174.644 1.106 1.28a1.157 1.157 0 0 1-1.148 1.034zm-17.33-.082a1.157 1.157 0 0 1-.128-2.305c.71-.078 1.282.378 1.354 1.013a1.16 1.16 0 0 1-1.024 1.28 2.38 2.38 0 0 1-.202.012zm13.022-.28c-.786-.045-1.272-.596-1.233-1.23a1.156 1.156 0 0 1 1.226-1.085c.705.04 1.194.586 1.16 1.224a1.152 1.152 0 0 1-1.154 1.091zm-8.714-.062a1.162 1.162 0 0 1-1.158-1.1 1.153 1.153 0 0 1 1.099-1.211c.717-.04 1.256.455 1.288 1.094a1.153 1.153 0 0 1-1.099 1.21l-.13.007zm4.396-.088c-.72-.003-1.236-.524-1.233-1.165a1.158 1.158 0 0 1 1.158-1.15c.727.01 1.242.534 1.233 1.173a1.157 1.157 0 0 1-1.158 1.142z" class="E"/><path d="M162.326 1.746H110.21c-4.523 0-8.19 3.663-8.19 8.182V40.4c0 4.513 3.666 8.172 8.19 8.172h4.912c1.44 0-3.878 9.882-3.617 9.687s12.74-9.687 15.018-9.687h35.802c4.52 0 8.186-3.66 8.186-8.172V9.928a8.18 8.18 0 0 0-8.186-8.182z" class="B F"/><path d="M111.48 59.343l-.528-.427c-.548-.452-.454-.645.456-2.504l3.036-6.987h-4.233a9.05 9.05 0 0 1-9.046-9.032V9.928a9.06 9.06 0 0 1 9.046-9.042h52.115c5 0 9.047 4.057 9.047 9.042V40.4c0 4.98-4.057 9.032-9.047 9.032h-35.8c-.932.013-5.844 2.976-14.418 9.452l-.63.47zm-1.27-56.74c-4.04 0-7.328 3.285-7.328 7.322v30.463c0 4.034 3.288 7.316 7.328 7.316h4.912c.38 0 .717.182.916.504.457.73.225 2.026-2.283 7.3 5.313-3.913 11.02-7.794 12.768-7.794h35.802c4.04 0 7.328-3.282 7.328-7.316V9.927c0-4.037-3.287-7.322-7.328-7.322H110.21v-.003z" fill="#d6d6d6"/><g class="B"><path d="M167.747 99.758c-4.612-5.375-17.047-24.113-17.047-24.113s-.052-8.65.372-11.422 3.783-8.387 4.934-10.002-.21-4.555-1.494-4.926-7.403 9.406-7.403 9.406l1.72-7.986c.665-2.8.79-4.533-.45-5.822s-3.737.296-3.737.296-.695-2.347-2.394-2.536-3.832 10.862-4.113 12.092-1.42.15-1.42.15-.614-11.952-1.57-13.287-2.762-.65-2.916 2.1.075 18.96.075 18.96l-3.737-1.94c-1.174-.655-1.588-4.064-3.29-4.555s-2.152 2.376-1.047 5.525 10.166 16.455 14.582 25.53 8.97 26.724 8.97 26.724l-11.365 5.076s-26.57-16.534-32.153-30.905c-2.195-5.652-1.794-15.303-1.794-15.303s1.86-2.028 2.02-4.405-2.466-3.956-2.466-3.956.34-3.08-4.262-12.542c-2.824-5.808-11.163-9.103-18.694-8.732-4.732.23-8.283 2.325-12.634 4.85C55.158 54.573 55.292 71.917 54.02 79.3s-5.225 10.442-13.684 15.303-13.257 11.428-13.76 20.38 9.794 14.258 9.794 14.258-11.763 18.6-16.075 31.05 3.147 16.078 8.3 16.722 16.884-1.44 25.422-3.656 18.393-8.732 18.393-8.732l-2.54 12.766h55.405l-2.765-18.064c-.056-.302 1.197-7.465 1.197-7.465l42.618-18.29.3-.15 10.7-16.273c.003 0-4.954-12.02-9.568-17.393zm-103.48 53.895l-11.962.746 6.43-12.018 4.413 3.807 1.272 3.955-.153 3.5z" class="D"/><path d="M52.304 154.174s4.59-5.79 5.98-11.867c.13-.574-1.575-2.426-1.718-2.986-1.442-5.636-1.164-9.556-.447-11.568 1.083-3.048 2.178-.91 1.794 2.1-.336 2.618.773 6.443 2.79 9.214 2.032 2.787 4.03 3.92 4.462 4.523 1.115 1.562.522 4.476.522 4.476s3.74-9.712 7.553-12.763 6.75-3.04 8.82-2.165 2.763.938 2.32 1.94-4.42.514-5.982 1.8-3.3 3.432-3.3 3.432 3.358-2.7 7.327-1.345 5.83 2.4 5.83 2.4 1.856 1.368 1.87 4.106-.604 2.113-2.17 1.195-3.766-1.768-4.934-1.195-2.168 1.34-2.168 1.34 2.683.66 3.962 4.03 1.435 7.166.075 6.942-4.13-7.092-6.803-6.12c-2.182.79-2.73 6.264-3.3 8.51s-3.066 4.776-3.066 4.776l.5.573 50.94.176-.822-5.45-1.87-37.697c.026-.388-2.02-18.214-2.02-18.214l-5.906-3.135s-16.854 7-30.356 8.51-26.918.224-26.918.224-5.583 2.12-9.347 7.24c-4.197 5.714-8.58 15.38-13.76 24.784-9.816 17.826-11.482 26.038-8.896 30.456.907 1.55 3.252 3.442 6.206 4.106 5.47 1.227 9.272-.375 9.272-.375s-3.036-4.783-1.422-11.867c1.588-6.968 8.822-9.482 8.822-9.482l6.134-.6zm45.384-56.28s-2.628-.01-3.737-1.79-1.87-6.792-1.87-6.792 5.3-3.598 6.356-8.136l1.494-6.717 2.244-.896s-.167 9.54 2.168 15.003c2.76 6.457 9.87 11.198 9.87 11.198l-16.225-2.016-.3.147z" class="E"/><path d="M101.95 65.268c-.437.007-3.215 1.195-3.215 1.195s-1.36-4.506-3.963-7.4-5.61-5.227-5.61-5.227-15.188 8.72-16.897 17.17-1.27 10.673-1.27 10.673l1.643-.225s1.076 2.26 2.544 3.657 3.813 3.806 3.813 3.806 3.434 8.696.524 10.6-16.254 4.386-21.16 5.822-9.27 3.802-12.784 8.66-7.478 12.018-7.478 12.018-5.534-1.202-7.925-7.466c-1.92-5.03-1.95-11.246 7.028-18.438s17.102-9.24 19.6-19.93 2.793-22.368 9.123-28.3c7.324-6.85 15.722-8.3 23.777-5.076 3.024 1.208 6.794 2.84 8.597 5.597 3.88 5.945 3.963 12.84 3.662 12.844z" fill="#a89aff"/><g class="C"><path d="M63.435 178.522h-2.17a41.15 41.15 0 0 0 3.516-7.687c-7.135 2.604-14.835 4.93-23.324 6.346-8.483 1.413-20.155 2.047-22.203-5.672-1.128-4.246.085-9.257 1.197-12.838 3.535-11.406 10.393-19.428 14.953-29.557-5.714-2.608-9.836-7.1-9.72-14.78.173-11.314 8.528-16.465 15.475-21.27 2.4-1.668 4.9-3.2 7.028-5.227 2.27-2.15 3.7-4.216 4.634-7.612.828-3.047 1.142-6.85 1.644-10.598.968-7.2 2.94-13.265 6.578-17.914 3.532-4.516 8.864-7.876 15.55-8.957 3.818-.62 7.536-.313 10.765.746 8.437 2.767 13.678 8.937 15.103 18.584.12.82-.003 2.07.3 2.76.192.443 1 .746 1.347 1.195.93 1.215 1.5 3.54.597 5.447-.284.6-1.148 1.147-1.347 1.8-.144.47-.033 1.205-.075 1.866-.672 10.594 3.03 16.618 8 21.57 17.58-2.23 27.006 6.812 35.586 14.554-3.773-8.996-6.32-19.268-11.14-28.287-3.36-6.3-7.7-12.07-11-18.585-.808-1.605-2.85-5.1-1.943-7.462.365-.958 1.24-1.768 2.54-1.642 2.117.206 2.5 3.185 3.663 4.627.626.785 1.343 1.078 2.168 1.566.314-3.516.248-7.475.075-11.272-.137-2.992-.945-8.86 1.272-10.002 1.7-.876 3.522.703 4.038 2.016 1.177 3.005-.176 8.605.597 11.718.714-2.302.994-4.608 1.643-6.867.502-1.742 1.4-5.014 3.3-5.298 2.566-.387 3.46 2.794 3.3 5.298-.13 1.97-.613 3.74-1.046 5.896l-.597 2.9c-.242 1.153-.522 2.198-1.494 2.016-1.034-.193-.515-1.635-.3-2.687l.597-3.135c.538-2.55 1.872-6.756 0-8.433-1.464 1.508-2.045 4.145-2.616 6.717-.267 1.205-.443 2.36-.82 3.806-.235.9-.676 2.82-1.794 2.9-1.314.107-1.804-1.504-2.02-2.76-.228-1.338-.225-3.103-.225-4.555 0-3.087.8-7.17-1.57-7.912-.733 1.293-.58 3.113-.52 4.777.176 5.076.557 10.558.075 15.524 2.286 1.146 3.717 2.42 4.86 4.926.32.706 2.123 4.52.225 4.552-1.066.016-1.125-1.64-1.42-2.537-.385-1.17-.77-1.966-1.272-2.686-1.865-2.673-5.945-2.846-7.924-5.375-1-1.264-1.305-2.992-2.54-3.88-1.083 1.1-.166 2.588.225 3.58.463 1.172 1.034 2.296 1.57 3.285 3.466 6.388 7.566 12.142 10.84 18.5 4.45 8.65 7.217 18.53 11 28.066 3.603 1.638 8.896 2.348 12.56.596 3.554-1.7 5.306-4.978 6.206-9.182-3.594-6.896-8.685-12.73-13.084-18.96-1.442-2.04-3.278-4.265-4.113-6.567-.68-1.875-.192-4.83-.3-7.1-.12-2.586-.26-4.97.3-6.942.5-1.8 1.533-3.454 2.54-5 1.122-1.72 3.737-4.88 1.643-6.717-1.36 1.582-2.406 3.4-3.737 5.226l-1.944 2.536c-.4.518-1.294 2.28-2.318 2.1-1.302-.24-.477-2.142-.225-3.135.94-3.725 1.767-7.072 2.243-10.973-.538-.752-1.976-.214-2.168-1.194-.4-1.98 2.765-.896 3.3-.447 1.53 1.303.47 4.275 0 6.346l-.972 4.327c.816-.732 1.576-2.064 2.466-3.43.942-1.45 2.24-4.096 4.337-2.9.842.475 2.127 1.872 1.644 4.33-.342 1.745-1.487 3.24-2.32 4.48-.88 1.316-1.836 2.602-2.465 4.328-1.008 2.76-.245 6.205-.375 9.403-.056 1.4-.186 2.96.075 3.88.44 1.547 1.784 3.445 2.765 4.852 3.125 4.467 6.77 9.002 9.794 13.212 3.55 4.943 6.848 11.373 9.272 17.465.306.775 1.138 2.34-.15 2.536-1.116.17-1.24-1.123-1.57-1.94-1.018-2.53-2.3-5.122-3.3-7.24-1.154 3.643-3.202 6.77-6.578 8.433-3.408 1.68-8.857 1.56-12.56 0a265.854 265.854 0 0 0 3.963 9.852c.316.752 1.52 2.84.375 3.2-1.23.398-1.4-.963-1.794-1.865a502.664 502.664 0 0 1-2.169-5.151c-.372-.9-.623-1.892-1.047-2.686-.54-1.02-1.774-1.986-2.7-2.986-2.736-2.98-6.03-5.737-9.194-7.987-3.235-2.298-7.03-4.483-11.3-5.82-1.33-.417-3.5-1.166-4.7-1.045-.86.087-2.4 1.175-3.513 1.715-8.257 4.048-17.477 7.63-27.437 9.628-10.93 2.195-25.186 2.025-36.56.375-.795-.118-1.774-.45-2.318-.375-.437.062-1.364.9-2.02 1.5-4.34 4-7.403 9.517-10.094 14.854-3.3 6.534-6.5 12.36-10.018 18.435-3.337 5.78-7 12.288-8.15 20.304-.704 4.955.3 8.465 3.737 10.002 3.105 1.387 8.1 1.44 12.784.895-.854-2.7-1.575-5.606-1.343-9.032.385-5.743 4.47-8.976 7.7-11.793-.7-.335-2.714.013-2.84-1.195-.157-1.48 1.473-1.067 2.54-.895 1.764.283 3.33.528 5.084.67.815.068 2.293.296 2.766.15.6-.2 1.3-2 1.718-2.76a401.52 401.52 0 0 1 5.01-8.658c-1.537-2.194-2.613-5-3.066-8.358-.157-1.172-.372-2.735.822-2.686.75.03.87.853.972 1.8.273 2.57.838 4.734 1.793 6.492 1.706 3.145 5 4.373 6.428 7.612 1.262-3.275 2.67-6.596 4.934-9.552 2.1-2.755 4.75-5.36 8.822-5.672 2.76-.212 5.83.4 6.356 2.46.35 1.377-.4 2.34-1.197 2.76-1.3.68-3.1.07-4.562.446-.793.205-1.262.554-1.794 1.12 1.745-.7 3.748-.765 5.606-.3 2.114.527 4.302 1.582 5.235 2.9 1.647.713 3.267 2.497 3.215 4.776-.016.765-.355 1.654-.972 1.94-1.816.84-3.85-1.7-5.98-1.8-.83-.033-1.423.2-2.466.52 2.012 1.745 5.127 4.525 5.084 8.582-.013 1.133-.35 2.104-.972 2.612-2.247 1.84-3.884-1.234-4.7-2.612-.678-1.133-1.86-2.904-3.362-2.686-1.36.196-1.693 3.497-2.02 5-.518 2.397-.97 3.933-1.718 5.376-1.722 3.318-4.324 4.985-7.478 6.717-.835 3.314-2.198 6.082-3.594 8.82zm31.1-128.677c-3.5-3.22-9.324-6.225-16.075-5.45-13.2 1.523-19.858 10.865-21.83 23.5-.678 4.34-.802 8.88-2.02 13.138-2.224 7.782-8.945 11.054-14.953 15.3-5.694 4.03-12.138 8.83-12.112 18.213.02 7 3.992 10.735 8.672 12.764 4.412-7.763 7.58-15.46 15.325-20.155 5.4-3.265 13.237-4.56 20.633-5.97 2.384-.453 5.52-.74 6.653-2.237 1.97-2.598.144-7.143-.525-9.702-2.25-1.583-4.15-3.7-5.606-5.972-.192-.302-.32-.97-.897-.82.242 3.262-.195 6.772-1.12 9.032-.477 1.16-.943 2.233-1.72 3.435-.456.703-1.532 2.686-2.615 2.386-1.7-.465.56-2.744.822-3.135 1.836-2.748 2.867-5.568 2.7-9.927-.12-3.015-.2-5.64.15-8.062.37-2.47.986-4.584 1.944-6.567 3.007-6.232 8.662-11.516 14.353-15.45.796-.55 2.016-1.53 2.766-1.5.83.045 2.1 1.5 2.84 2.24 3.138 3.135 5.942 6.368 7.4 10.672.4-.387 1.158-.436 1.57-.82-.512-6.548-2.54-11.442-6.343-14.932zM74.725 82.9c1.664 2.5 3.7 4.617 6.58 5.747 4.78 1.875 9.65.45 12.484-2.166 4.252-3.92 5.192-10.5 4.187-17.84-.896-6.547-5.126-10.14-8.896-13.883-.075 0-.088-.062-.15-.075-4.005 2.595-8.04 5.962-11.066 9.478-.14.163-.5.466-.375.746 1.52-.056 4.475-.202 4.412 1.344-.065 1.606-2.57.258-4.262.45-1.115.123-1.5.635-2.32.82-2.185 3.34-3.903 7.544-3.662 13.063 1.97-.5 2.32 1.195 3.07 2.315zm28.56-13.66c-.013-1.152-.6-2.54-1.57-2.6-.84-.063-1.487.605-2.02 1.044.258 1.706.493 3.44.525 5.376 1.256-.62 3.082-1.752 3.063-3.8zm-3.066 6.12c-.277 6.965-3.127 11.357-7.478 14.258.714 2.256.463 4.874 1.87 6.343 1.317 1.374 4.14 1.566 6.653 1.566 2.7 0 5.322-.355 7.7-.52-4.738-4.845-8.443-12.093-7.55-22.316h-.15c-.284.286-.845.296-1.044.67zM80.704 90.596c1.128 3.302 1.232 8.124-.897 10.077-1.683 1.543-4.537 1.853-7.4 2.387-6.65 1.247-14.3 2.4-18.84 5.225 11.12 1.586 24.707 1.96 35.362-.15 10.563-2.1 19.965-5.82 28.258-9.928-6.985-.276-17.6 3.2-23.024-.224-2.224-1.407-2.554-4.376-3.14-7.463-2.84 1.185-7.626 1.14-10.32-.15v.225zM79.5 135.53c1.047-.108 3.656.394 3.737-.52.046-.5-.903-.905-1.42-1.045-3.68-.996-6.608.866-8.372 2.536-3.6 3.412-5.825 8.4-7.4 13.883-.192.66-.56 2.944-.972 3.357-.65.658-2.863.726-4.187.97-3.747.697-7.7 1.04-11.813.82-.838-.046-1.793-.355-2.393-.225-.578.127-1.533 1.085-2.17 1.566-2.25 1.716-4.145 3.654-5.384 6.047-1.742 3.37-1.34 9 .225 12.538 9.386-1.638 16.035-3.064 23.85-6.196 3.62-1.45 6.96-3.135 8.97-6.046 1.04-1.508 1.693-3.484 2.094-5.376.515-2.425.753-5.916 2.765-6.866 2.828-1.335 4.954 1.462 5.906 2.985.584.938 1.04 2.14 2.094 2.462.714-2.283-.463-4.48-1.718-6.046-1.188-1.48-3.255-3.12-5.607-2.76-1.236.188-2.194 1.777-3.215 1.566-.32-.065-.67-.427-.672-.896-.013-.957 1.396-1.8 2.465-2.24 1.025-.417 2.35-.488 3.438-.224 1.4-.746 2.997-1.602 4.86-1.567 2.064.036 3.596 1.283 5.083 1.866-.084-1.706-.93-2.57-1.943-3.135-4.087-2.283-9.165.2-11.813 2.24-.822.635-2.162 2.36-3.14 2.162-.3-.06-.646-.37-.672-.82-.05-.778 1.243-1.787 1.87-2.315a18.977 18.977 0 0 1 8.521-4.105c-4.787-.707-7.497 2.034-9.793 4.476-.483.515-1.223 1.82-2.094 1.716a.93.93 0 0 1-.747-.67c-.212-1.052 1.103-2.022 1.644-2.612.864-.94 1.533-1.5 2.244-2.1 1.15-2.26 2.677-5.118 5.76-5.434zm-17.037 10.75c-.8-.847-2.358-1.954-3.14-2.612-1.836 3.34-3.835 6.52-5.606 9.928 3.6-.124 6.724-.7 9.793-1.342.67-1.76-.042-4.897-1.047-5.974zm24.672-69.193c-1.47-2.28-2.72-3.855-2.466-7.166.33-4.334 3.14-6.483 7.4-6.792 1.184-.084 2.33-.088 2.394.82.006.108-.033.675-.597.896-.43.17-.907.05-1.422.075-3.803.2-6.3 2.308-5.906 6.642.052.55.183 1.055.375 1.566.55 1.472 2.078 2.465 2.094 3.88.013 1.065-1.08 3-2.316 2.54-1.15-.427-.078-1.905.444-2.462zm-3.963 6.346c.343.378.995.73 2.02.97.96.228 2.592.013 2.615 1.12.042 1.9-4.077.417-4.785.075-.906-.436-3.943-2.73-2.765-4.327.372-.5 1.206-.475 1.793-.3.53.16 1.947.987 3.663 1.12 1.347.105 3.323-.556 3.366.82.035 1.208-1.944 1.114-3.216 1.045-1.34-.078-1.618-.28-2.7-.524zm45.977 95.1h-2.093c-2.078-4.24-4.077-8.856-5-14.554-.662-4.04-.623-9.12-.596-13.883.01-1.628-.08-3.386.225-4.702.205-.895 1.066-1.885 1.493-2.6 1.588-2.7 2.84-5.4 3.516-8.957.698-3.692-.118-7.713-1.122-10.748-.294-.885-1.18-2.682.075-2.9 1.073-.193 1.494 1.572 1.794 2.46.443 1.315.714 2.566.897 3.432 1.47 6.964-.75 12.78-3.216 17.168-.356.632-1.497 2.058-1.644 2.686-.143.616-.05 1.495-.075 2.315-.163 5.493-.173 11.334.597 15.9.972 5.76 3.15 10.344 5.16 14.404z"/></g></g><path d="M211.34 178.809H19.555a.86.86 0 110-1.72H211.34a.86.86 0 110 1.72z" class="C"/><g fill="#d6d6d6"><path d="M122.438 76.055a.86.86 0 01-.606-.25l-3.963-3.957a.858.858 0 010-1.214.862.862 0 011.217 0l3.962 3.956a.858.858 0 01-.61 1.465z"/><path d="M118.476 76.055a.858.858 0 0 1-.61-1.465l3.962-3.956a.862.862 0 0 1 1.217 0 .858.858 0 0 1 0 1.215l-3.963 3.956a.846.846 0 0 1-.606.25zm1.94 1.8l-2.208 3.73h4.416l-2.208-3.73z"/></g><g class="B"><path d="M90.513 68.283a1.572 1.572 0 011.84 1.254l.296 1.55a1.576 1.576 0 01-1.249 1.846 1.574 1.574 0 01-1.84-1.254l-.296-1.55a1.58 1.58 0 011.25-1.846zM76.532 70.91a1.569 1.569 0 011.837 1.245l.296 1.54a1.569 1.569 0 01-3.082.59l-.296-1.541a1.566 1.566 0 011.245-1.833z" class="C"/><path d="M65.425 165.931h85.236a5.603 5.603 0 015.606 5.597v4.106c0 .824-.668 1.494-1.493 1.494H61.312a1.493 1.493 0 01-1.493-1.494v-4.106a5.601 5.601 0 015.606-5.597z" class="F"/></g><path d="M154.773 177.988h-93.46a2.356 2.356 0 01-2.355-2.351v-4.106c0-3.558 2.902-6.456 6.467-6.456h85.236c3.564 0 6.467 2.898 6.467 6.456v4.106a2.354 2.354 0 01-2.355 2.351zm-89.348-11.197a4.749 4.749 0 00-4.749 4.74v4.106c0 .352.287.635.636.635h93.461a.636.636 0 00.636-.635v-4.106a4.749 4.749 0 00-4.748-4.74H65.425z" class="C"/><g class="B"><path d="M102.137 96.76h91.292c4.954 0 8.972 4.01 8.972 8.957v45.56c0 4.946-4.018 8.957-8.972 8.957h-91.292c-4.954 0-8.972-4.01-8.972-8.957v-45.56c0-4.946 4.018-8.957 8.972-8.957z" class="D"/><path d="M104.49 98.414h91.296c4.953 0 8.97 4.01 8.97 8.957v45.533c0 4.95-4.018 8.958-8.97 8.958H104.49c-4.957 0-8.972-4.012-8.972-8.958V107.37c0-4.946 4.018-8.957 8.972-8.957z" fill="#e7e7e7"/></g><path d="M193.432 161.1h-91.296c-5.42 0-9.832-4.402-9.832-9.817v-45.557a9.84 9.84 0 0 1 9.832-9.816h91.293a9.84 9.84 0 0 1 9.833 9.816v45.56c0 5.412-4.4 9.814-9.83 9.814zm-91.296-63.47c-4.474 0-8.114 3.634-8.114 8.097v45.56c0 4.468 3.64 8.098 8.114 8.098h91.293a8.12 8.12 0 0 0 8.114-8.098v-45.56c0-4.467-3.64-8.097-8.114-8.097h-91.293z" class="C"/><path d="M139.394 150.778h18.35v22.92h-18.35v-22.92z" class="B F"/><path d="M157.744 174.553h-18.35a.861.861 0 0 1-.861-.86v-22.918a.86.86 0 0 1 .861-.859h18.35a.86.86 0 0 1 .861.859v22.918a.86.86 0 0 1-.861.86zm-17.5-1.716h16.633v-21.2h-16.633v21.2z" class="C"/><path d="M116.457 169.327h61.759a5.38 5.38 0 015.384 5.376c-.036 1.348-1.04 2.35-2.28 2.35h-68.043a2.24 2.24 0 01-2.243-2.24c.039-3.08 2.449-5.486 5.423-5.486z" class="B F"/><path d="M181.317 177.913h-68.04a3.103 3.103 0 0 1-3.101-3.096.84.84 0 0 1 .039-.254 6.25 6.25 0 0 1 6.242-6.092h61.758c3.444 0 6.243 2.797 6.243 6.232a.784.784 0 0 1-.043.26 3.1 3.1 0 0 1-3.098 2.95zm-69.416-2.98a1.387 1.387 0 0 0 1.38 1.263h68.04c.763 0 1.383-.618 1.383-1.38 0-.082.013-.166.036-.244a4.526 4.526 0 0 0-4.52-4.386h-61.762a4.523 4.523 0 0 0-4.523 4.516 1.119 1.119 0 0 1-.033.231z" class="C"/><g class="B"><path d="M186.52 126.108c-2.06-.424-7.18-6.343-3.587-12.243s5.756-4.317 7.7-8.06-.036-9.15 2.47-11.047 6.868-3.364 8.6-5.226 7.445-5.978 10.468-.82 1.26 7.634-.225 9.256-6.63 3.31-7.703 5.076-.512 8.26-2.17 10.3-4.787 1.15-6.73 4.48-1.895 4.9-4.187 6.866-2.573 1.837-4.635 1.417z" class="D"/><path d="M188.733 125.714c-2.06-.423-7.188-6.345-3.59-12.248s5.763-4.32 7.706-8.065-.036-9.153 2.47-11.054 6.872-3.363 8.603-5.23c1.732-1.862 7.452-5.98 10.475-.82s1.26 7.64-.225 9.26-6.633 3.31-7.706 5.08-.512 8.264-2.17 10.305-4.8 1.15-6.734 4.48-1.895 4.913-4.19 6.87-2.576 1.843-4.637 1.423z" class="E"/><path d="M136.038 133h22.594c4.954 0 8.97 4.012 8.97 8.957v4.054c0 4.946-4.017 8.957-8.97 8.957h-22.594c-4.954 0-8.972-4.01-8.972-8.957v-4.054a8.97 8.97 0 0 1 8.972-8.957z" class="F"/></g><g class="C"><path d="M158.635 155.828H136.04a9.84 9.84 0 0 1-9.833-9.816v-4.054c0-5.41 4.41-9.816 9.833-9.816h22.594c5.42 0 9.832 4.402 9.832 9.816v4.054a9.84 9.84 0 0 1-9.832 9.816zm-22.598-21.97a8.12 8.12 0 0 0-8.114 8.098v4.054c0 4.467 3.64 8.1 8.114 8.1h22.594c4.475 0 8.11-3.633 8.11-8.1v-4.054c0-4.467-3.64-8.098-8.11-8.098h-22.594z"/><g class="B"><path d="M186.844 127.066c-.847 4.092-1.382 8.644-1.568 13.658-.056 1.45.284 4.024-.897 4.106-1.442.1-.96-2.852-.897-4.18.21-4.415.48-8.02 1.122-11.943.124-.748.424-1.566.375-2.165-.046-.524-1.507-2.01-1.944-2.61-.67-.925-1.373-2.05-1.718-2.986-1.4-3.75.163-7.38 1.943-9.552.858-1.046 2.123-2.003 3.438-2.91 1.177-.814 2.723-1.723 3.3-2.986 1.152-2.562-.068-6.997 1.122-9.253 1.08-2.045 4.22-2.742 6.206-3.956 3.298-2.016 4.406-5.692 8.822-6.567 1.712-.34 3.728.21 4.784.895 2.09 1.355 3.676 4.39 3.438 7.687-.134 1.846-.77 3.373-2.17 4.627-2.165 1.94-6.17 2.683-7.475 5.076-1.578 2.898-.04 7.567-2.244 9.927-1.532 1.64-4.666 1.7-6.056 3.432-1.26 1.563-1.52 4.03-2.615 5.896-1.396 2.37-3.66 3.318-6.957 3.807zm4.563-3.657c1.618-1.543 1.927-4.962 3.362-6.94.555-.766 1.406-1.394 2.17-1.79 1.36-.713 3.385-1.023 4.263-2.09.87-1.058.812-3.154.896-5 .072-1.553.44-3.493.972-4.476 1.836-3.4 7.087-3.77 8.747-6.717 1.787-3.175-.046-7.632-2.766-8.658-3.046-1.15-5.29.95-6.728 2.462-1.836 1.93-3.456 3.535-6.13 4.7-1.25.544-2.814 1.185-3.365 2.1-.917 1.51-.362 4.048-.525 6.418-.304 4.43-3.467 5.672-5.982 7.612-1.6 1.237-3.075 3.005-3.587 5.376-.424 1.966.18 3.75.897 5.076.528.97 1.11 1.963 1.944 2.536 1.575-6.027 3.186-11.754 7.624-14.854 1.4-.976 3.8-1.614 4.635-2.9 1.448-2.24.378-5.54 1.718-8.358.9-1.915 2.965-3.184 5-3.956.714-.27 2.495-.915 2.54.374.036.96-2.54 1.64-3 1.866-1.106.55-2.18 1.315-2.69 2.165-1.523 2.523-.548 6.766-2.094 9.032-.99 1.452-2.905 1.94-4.562 2.91s-2.648 2.33-3.588 3.88c-1.96 3.233-3.023 6.684-3.962 10.972 1.582-.263 3.21-.78 4.194-1.72z"/></g></g><path d="M181.007 117.07c3.366.7 13.215.098 14.11-6.91s-2.35-9.325-1.777-11.513 7.635-5.538 7.005-14.485c-.362-5.132-5.136-5.796-4.57-10.25s6.63-9.1 5.466-16.34-9.585-8.752-13.78-6.9c-4.194 1.847-6.806 5.32-5.576 10.62s2.302 6.74.31 8.616-6.173 4.99-5.92 8.765 5.33 9.103 4.876 11.29-8.245 11.764-7.75 17.16 4.236 9.247 7.602 9.956z" class="B D"/><path d="M183.212 116.673c3.365.713 13.22.097 14.12-6.913s-2.35-9.328-1.78-11.52 7.638-5.54 7.01-14.492c-.362-5.135-5.14-5.795-4.572-10.256s6.633-9.097 5.47-16.348-9.592-8.76-13.786-6.912-6.813 5.323-5.58 10.627 2.306 6.74.3 8.618-6.177 4.995-5.922 8.77 5.332 9.106 4.878 11.294-8.25 11.77-7.752 17.165c.496 5.405 4.237 9.254 7.606 9.967z" class="B E"/><path d="M191.3 48.852h1.718c5.548.544 9.03 5.52 8.972 11.568-.05 5.16-2.273 7.854-4.337 10.823-.676.974-1.585 2.305-1.57 3.5.023 1.73 1.758 3.656 2.765 5.076 1.015 1.426 2.146 3.292 2.32 5.522.427 5.538-2.44 8.7-5.16 11.197-.763.703-2.055 1.647-2.094 2.61-.052 1.312 1.38 2.696 1.944 3.956.603 1.35.916 3.07.747 5.15-.548 6.688-5.743 10.233-13.16 9.927-.355 5.203-1.12 10.26-1.943 15.078-.2 1.166-.3 4.2-1.87 3.806-.708-.182-.443-1.19-.3-1.94a148.723 148.723 0 0 0 2.244-17.09c-.6-.723-1.45-1.075-2.244-1.492-2.485-1.308-4.64-2.95-5.906-5.45-2.01-3.97-.46-9.107 1.197-12.242.835-1.576 1.868-3.126 3-4.702.943-1.325 2.727-3.2 2.54-5.15-.095-.987-.874-1.837-1.494-2.612-1.8-2.256-3.79-4.916-3.065-9.107.375-2.162 1.718-3.903 3-5.3 1.174-1.286 3.327-2.696 3.663-4.627.205-1.172-.392-2.517-.822-3.73-.405-1.14-.812-2.302-.897-3.507-.294-4.11 1.533-6.498 3.737-8.283 1.91-1.553 4.13-2.663 7.032-2.992zm1.568 64.337c1.64-2.097 2.54-6.356 1.197-9.328-.734-1.622-2.364-2.937-2.02-5 .18-1.065 1.12-2.013 1.87-2.76 2.404-2.4 5.075-4.35 5.384-8.658.265-3.708-1.425-5.76-2.915-7.762-1.08-1.45-2.397-2.927-2.17-5.226.245-2.474 2.312-4.363 3.588-6.346 1.242-1.933 2.325-4.626 2.318-7.687-.006-2.56-.835-4.968-1.943-6.492-1.393-1.91-3.74-3.513-7.178-3.2-4.155.364-8.242 3.562-8.597 7.4-.346 3.686 1.9 5.536 1.794 8.658-.124 3.627-4.028 5.454-5.757 8.137-1.464 2.275-1.196 5.55 0 7.762.927 1.706 3.086 3.236 3.513 5.522.23 1.24-.088 2.435-.522 3.36-2.15 4.58-7.488 8.364-7.103 15.3.26 4.718 3.66 7 7.475 8.733.473-4.53-.825-7.548-1.197-11.122-.4-3.85 1.497-6.818 3.066-8.957.69-.942 1.526-1.967 2.4-3.06.796-1.006 1.764-2.32 1.87-3.585.186-2.237-1.08-3.9-1.944-5.45-1.18-2.103-2.85-4.907-1.944-7.912 1.47-4.88 6.3-7.15 6.653-13.51.08-1.403-.518-4.317 1.047-4.18.79.068.822 1.26.822 2.4 0 5.95-2.175 8.588-4.56 11.792-.904 1.212-2.02 2.48-2.32 4.256-.414 2.448 1.132 4.503 2.02 6.12.86 1.573 1.927 3.302 2.093 5.3.297 3.624-2.224 5.607-3.887 7.688-1.422 1.78-2.785 3.764-3.29 6.196-.63 3.037.597 5.65.897 8.283.22 1.934.193 3.926.075 6.492 4.207.173 7.442-.788 9.275-3.132z" class="B C"/><path d="M178.225 126.423c-4.527.652-12.533-2.8-13.22-6.173s2.377-12.216.65-15.508-7.7-4.8-8.127-8.563 2.416-8.442 5.704-8.732 12.653 2.97 13.1 9.182-1.233 11.848.548 13.453 6.672 8.625 5.756 12.06.108 3.63-4.42 4.28z" class="B D"/><path d="M180.43 126.03c-4.53.65-12.543-2.8-13.23-6.176s2.38-12.223.65-15.518-7.716-4.793-8.134-8.566 2.42-8.446 5.707-8.736 12.664 2.97 13.12 9.188-1.233 11.852.547 13.457 6.676 8.628 5.76 12.066.11 3.634-4.42 4.285z" class="B E"/><path d="M177.974 127.49c-1.305 4.04-2.913 7.77-2.54 13.51.085 1.305.88 4.138-.822 3.956-1.004-.108-1.06-2.823-1.122-4.106-.257-5.52 1.217-9.16 2.466-13.063-4.165-1.035-7.732-2.044-10.094-4.626-1.82-1.993-2.155-4.95-1.643-8.358.208-1.397.52-2.96.822-4.48.33-1.65.606-3.595.15-4.852-1.002-2.74-5.336-3.578-7.103-5.672-3.47-4.108.022-10.588 3.14-12.392 4.285-2.477 10.074.7 12.41 3.06 1.72 1.742 3.154 4.148 3.59 7.09.558 3.758-1.027 8.775.3 12.168.757 1.93 2.7 3.438 3.962 5.375 1.42 2.16 3.082 5.633 1.794 8.508-.956 2.136-2.938 3.06-5.31 3.88zm3.887-6.496c-.505-5.483-6.24-7.293-6.653-13.062-.212-2.97.568-6.03.3-9.328-.267-3.273-1.934-5.382-3.737-7.092-1.712-1.62-4.693-3.386-7.85-3.06-2.808.3-5.032 3.324-5.31 6.27-.565 6.05 6.137 5.298 8.15 9.478 1.866 3.878-1.28 9.482-.97 14.033.345 5.073 6.37 6.73 10.615 7.538-.068-4.08-2.136-5.916-3.737-8.583-1.243-2.067-2.02-4.193-2.02-7.537 0-3.084.238-6.57-.672-8.733-.39-.934-1.06-2.047-1.794-2.985-.574-.733-2.217-1.736-2.018-2.836.026-.143.218-.697.822-.746.9-.07 2.08 1.553 2.7 2.315 1.572 1.957 2.697 4.152 2.916 7.092.238 3.203-.395 7.006.375 9.552 1.35 4.474 5.25 6.49 5.31 12.093 1.885-.798 3.845-1.573 3.584-4.41z" class="B C"/><path d="M171.72 134.17h18.843c.826 0 1.497.667 1.497 1.494v32.472c0 4.945-4.017 8.957-8.97 8.957H179.2c-4.957 0-8.97-4.012-8.97-8.957v-32.472a1.487 1.487 0 0 1 1.49-1.494z" class="B D"/><path d="M173.58 133.05h18.84c.825 0 1.497.667 1.497 1.494v32.47a8.97 8.97 0 0 1-8.971 8.958h-3.888a8.97 8.97 0 0 1-8.972-8.958v-32.47a1.49 1.49 0 0 1 1.494-1.494z" fill="#bbb" class="B"/><path d="M183.084 177.95h-3.887c-5.42 0-9.833-4.405-9.833-9.817v-32.47a2.356 2.356 0 0 1 2.355-2.351h18.843a2.356 2.356 0 0 1 2.355 2.351v32.47c0 5.415-4.41 9.817-9.833 9.817zm-11.365-42.923a.636.636 0 0 0-.636.635v32.47a8.12 8.12 0 0 0 8.114 8.101h3.887a8.12 8.12 0 0 0 8.114-8.101v-32.47a.634.634 0 0 0-.636-.635H171.72z" class="C"/></g><defs><clipPath id="A"><path transform="translate(0 .886)" d="M0 0h216.05v177.923H0z" class="D"/></clipPath></defs></svg>