<svg width="217" height="179" fill="none" xmlns="http://www.w3.org/2000/svg"><g clip-path="url(#clip0)"><path d="M48.926 147.272a1.157 1.157 0 01-.007-2.312c.708-.02 1.233.505 1.24 1.143a1.162 1.162 0 01-1.145 1.172l-.088-.003zm-4.25-.078c-.77-.036-1.265-.58-1.233-1.218.033-.638.571-1.13 1.214-1.097.707.029 1.203.569 1.174 1.208a1.156 1.156 0 01-1.155 1.107zm8.568-.075a1.156 1.156 0 01-.069-2.309c.714-.042 1.262.44 1.301 1.078a1.156 1.156 0 01-1.086 1.224c-.098.007-.124.007-.146.007zm-12.882-.248c-.04 0-.082-.003-.121-.006-.711-.075-1.174-.645-1.106-1.28a1.158 1.158 0 011.276-1.029c.71.075 1.17.645 1.105 1.28a1.163 1.163 0 01-1.154 1.035zm17.186-.13a1.159 1.159 0 01-1.15-1.029 1.154 1.154 0 011.023-1.276c.705-.082 1.279.371 1.354 1.006a1.158 1.158 0 01-1.015 1.286c-.123.013-.166.013-.212.013zm-21.468-.466c-.066 0-.134-.006-.203-.016-.7-.124-1.125-.719-1.014-1.351a1.159 1.159 0 011.34-.941c.705.124 1.126.723 1.018 1.351-.101.563-.59.957-1.141.957zm25.747-.166a1.157 1.157 0 01-.225-2.292c.688-.14 1.302.261 1.432.882.13.626-.27 1.238-.897 1.368-.16.036-.235.042-.31.042zm-29.977-.726c-.095 0-.19-.013-.284-.036-.688-.169-1.066-.797-.913-1.419.153-.622.783-1 1.402-.843.698.175 1.073.804.917 1.426a1.157 1.157 0 01-1.122.872zm34.113-.15a1.157 1.157 0 01-.251-2.288c.674-.147 1.304.247 1.44.869a1.144 1.144 0 01-.87 1.374 1.181 1.181 0 01-.32.045zm4.242-.931a1.154 1.154 0 01-.254-2.282c.669-.15 1.305.238 1.445.859a1.145 1.145 0 01-.861 1.381c-.16.033-.245.042-.33.042zm-42.5-.146c-.124 0-.252-.02-.379-.062-.678-.235-.998-.892-.789-1.498.209-.602.87-.925 1.474-.713.672.231.995.889.786 1.495-.163.478-.61.778-1.092.778zm46.734-.811a1.16 1.16 0 01-1.129-.892 1.154 1.154 0 01.861-1.39c.704-.16 1.327.231 1.468.853a1.158 1.158 0 01-.874 1.383c-.15.036-.238.046-.326.046zm-50.752-.778c-.16 0-.323-.033-.476-.104-.656-.3-.91-.987-.643-1.566.268-.58.956-.834 1.536-.567.646.293.904.977.64 1.56a1.163 1.163 0 01-1.057.677zm54.975-.202a1.158 1.158 0 01-.268-2.282c.702-.163 1.325.221 1.471.843a1.157 1.157 0 01-.864 1.39c-.16.039-.251.049-.34.049zm4.217-1.003a1.158 1.158 0 01-.268-2.282c.692-.166 1.318.215 1.468.837a1.158 1.158 0 01-.855 1.396 1.43 1.43 0 01-.345.049zm-63.028-.778c-.198 0-.4-.052-.583-.16-.617-.361-.803-1.067-.48-1.621a1.16 1.16 0 011.585-.413c.617.361.803 1.067.48 1.621a1.158 1.158 0 01-1.002.573zm67.238-.244a1.155 1.155 0 01-.277-2.279c.694-.173 1.32.208 1.474.827a1.155 1.155 0 01-.848 1.4 1.447 1.447 0 01-.349.052zm4.204-1.049a1.157 1.157 0 01-.28-2.279c.687-.172 1.317.202 1.473.821a1.16 1.16 0 01-.838 1.406c-.17.043-.264.052-.355.052zm4.197-1.068a1.157 1.157 0 01-.284-2.279c.052-.013.356 1.104.356 1.104l.277 1.123c-.16.039-.254.052-.349.052zm-79.226-.032c-.241 0-.489-.075-.698-.235-.57-.433-.672-1.159-.284-1.667a1.162 1.162 0 011.625-.221c.567.427.668 1.153.283 1.664a1.168 1.168 0 01-.926.459zm83.417-1.061a1.156 1.156 0 01-.29-2.276c.681-.183 1.317.185 1.483.801a1.155 1.155 0 01-.818 1.416c-.18.049-.28.059-.375.059zm4.184-1.117c-.512 0-.978-.342-1.119-.86a1.156 1.156 0 01.819-1.416c.685-.186 1.321.176 1.49.791a1.159 1.159 0 01-.812 1.423c-.179.049-.28.062-.378.062zm-90.878-.629c-.29 0-.58-.107-.806-.325-.518-.508-.522-1.241-.075-1.697a1.158 1.158 0 011.637-.013c.506.489.519 1.221.075 1.68a1.138 1.138 0 01-.831.355zm95.052-.514a1.157 1.157 0 01-.306-2.273c.681-.192 1.324.17 1.497.782a1.156 1.156 0 01-.803 1.426 1.31 1.31 0 01-.388.065zm4.168-1.172c-.505 0-.972-.336-1.115-.847a1.156 1.156 0 01.802-1.426c.678-.195 1.321.16 1.497.772a1.157 1.157 0 01-.792 1.432 1.243 1.243 0 01-.392.069zm4.162-1.202a1.158 1.158 0 01-.32-2.269c.678-.199 1.324.15 1.503.762a1.156 1.156 0 01-.782 1.436 1.263 1.263 0 01-.401.071zM10.087 132.2c-.339 0-.675-.146-.903-.433-.447-.557-.369-1.283.13-1.683a1.157 1.157 0 011.628.179c.447.557.368 1.283-.13 1.683-.213.169-.47.254-.725.254zm110.43-.934a1.155 1.155 0 01-.336-2.263c.685-.205 1.334.14 1.516.752a1.157 1.157 0 01-.776 1.442 1.387 1.387 0 01-.404.069zm4.142-1.267a1.16 1.16 0 01-1.106-.811 1.153 1.153 0 01.76-1.449c.688-.211 1.337.131 1.526.74a1.16 1.16 0 01-.763 1.448 1.37 1.37 0 01-.417.072zm4.132-1.306a1.158 1.158 0 01-.353-2.259c.679-.218 1.331.114 1.527.723a1.155 1.155 0 01-.747 1.455c-.189.065-.31.081-.427.081zm-121.195-.022c-.385 0-.76-.192-.975-.544-.375-.599-.21-1.315.336-1.651a1.157 1.157 0 011.594.371c.369.596.202 1.316-.342 1.651a1.177 1.177 0 01-.613.173zm125.307-1.316a1.16 1.16 0 01-1.099-.788 1.154 1.154 0 01.727-1.465c.685-.228 1.341.101 1.543.71a1.155 1.155 0 01-.737 1.462 1.313 1.313 0 01-.434.081zm4.1-1.387a1.158 1.158 0 01-.382-2.25c.678-.234 1.337.088 1.546.694a1.16 1.16 0 01-.718 1.472 1.313 1.313 0 01-.446.084zM5.564 124.887c-.434 0-.851-.247-1.05-.664-.303-.658-.05-1.345.535-1.608a1.158 1.158 0 011.536.569c.3.639.049 1.326-.529 1.599-.16.068-.326.104-.492.104zm135.522-.355a1.157 1.157 0 01-.392-2.246c.672-.241 1.337.071 1.553.671a1.16 1.16 0 01-.698 1.481 1.235 1.235 0 01-.463.094zm4.066-1.488c-.466 0-.906-.283-1.082-.745a1.153 1.153 0 01.672-1.491c.671-.251 1.34.052 1.565.648a1.151 1.151 0 01-.678 1.487c-.203.075-.34.101-.477.101zm4.041-1.553a1.156 1.156 0 01-.417-2.236c.655-.261 1.327.029 1.565.625a1.157 1.157 0 01-.649 1.501c-.218.084-.359.11-.499.11zM3.95 120.896c-.48 0-.93-.303-1.096-.782-.232-.671.088-1.332.691-1.54a1.16 1.16 0 011.474.713c.235.677-.088 1.335-.694 1.543a1.12 1.12 0 01-.375.066zm149.258-1.026c-.457 0-.887-.27-1.07-.716a1.155 1.155 0 01.63-1.511c.652-.274 1.33.003 1.578.592a1.154 1.154 0 01-.62 1.514 1.288 1.288 0 01-.518.121zm3.979-1.706a1.156 1.156 0 01-.473-2.214c.655-.29 1.34-.026 1.598.557a1.158 1.158 0 01-.591 1.527c-.218.097-.378.13-.534.13zM2.743 116.761c-.522 0-.998-.355-1.125-.886-.17-.687.209-1.312.831-1.465.62-.153 1.25.224 1.403.846.17.7-.215 1.325-.835 1.475-.095.02-.186.03-.274.03zm158.38-.401a1.157 1.157 0 01-.496-2.204c.639-.306 1.331-.062 1.608.514a1.156 1.156 0 01-.545 1.544c-.234.11-.404.146-.567.146zm3.878-1.921a1.16 1.16 0 01-1.028-.622 1.153 1.153 0 01.493-1.559c.632-.329 1.334-.111 1.627.455a1.154 1.154 0 01-.492 1.56 1.25 1.25 0 01-.6.166zm-163.1-1.901a1.16 1.16 0 01-1.144-.98c-.114-.697.316-1.29.946-1.394a1.161 1.161 0 011.33.957c.111.713-.323 1.306-.955 1.404-.059.006-.118.013-.176.013zm166.902-.17a1.158 1.158 0 01-.574-2.162c.613-.351 1.321-.162 1.641.388.319.553.13 1.26-.424 1.579-.252.146-.447.195-.643.195zm3.692-2.259a1.157 1.157 0 01-.643-2.12c.604-.394 1.321-.244 1.67.29s.202 1.25-.336 1.602c-.251.166-.473.228-.691.228zm-171.109-1.85a1.16 1.16 0 01-1.154-1.058c-.059-.716.417-1.276 1.056-1.325a1.158 1.158 0 011.25 1.061c.061.704-.411 1.264-1.05 1.319-.033.003-.07.003-.102.003zm174.628-.661a1.157 1.157 0 01-.724-2.061c.564-.442 1.291-.358 1.689.144.395.501.31 1.227-.192 1.624-.264.212-.519.293-.773.293zm3.232-2.878c-.291 0-.578-.107-.799-.322a1.14 1.14 0 01-.036-1.625c.489-.511 1.223-.527 1.686-.085.463.443.479 1.176.036 1.635-.271.277-.581.397-.887.397zm-178.088-.765A1.158 1.158 0 010 102.825c-.013-.719.496-1.247 1.135-1.26.652 0 1.168.505 1.18 1.136.017.707-.488 1.238-1.128 1.254h-.029zm180.736-2.592a1.155 1.155 0 01-.992-1.751c.356-.606 1.067-.792 1.618-.466.551.322.737 1.032.414 1.582-.264.433-.646.635-1.04.635zM1.181 99.641c-.675-.02-1.177-.554-1.158-1.192.023-.713.554-1.217 1.197-1.195.64.02 1.141.554 1.122 1.192-.023.703-.538 1.195-1.161 1.195zm182.474-2.208a1.158 1.158 0 01-1.096-1.54c.225-.664.881-.986 1.487-.784.607.205.933.86.728 1.465-.193.56-.64.86-1.119.86zM1.425 95.337C.68 95.27.212 94.708.271 94.073c.072-.716.64-1.182 1.275-1.12a1.16 1.16 0 011.04 1.267c-.062.664-.567 1.117-1.16 1.117zm183.322-2.078a1.16 1.16 0 01-1.144-1.354c.133-.716.74-1.13 1.369-1.01.63.118 1.044.723.927 1.352-.108.618-.597 1.012-1.152 1.012zM2.189 91.114a1.158 1.158 0 01-1.119-1.465c.196-.694.835-1.052 1.451-.88.617.173.975.811.802 1.426-.16.583-.626.919-1.134.919zm183.093-2.133c-.724-.049-1.203-.605-1.157-1.24.042-.697.59-1.186 1.232-1.143.639.039 1.125.59 1.086 1.224-.052.697-.561 1.16-1.161 1.16zM3.685 87.09a1.157 1.157 0 01-1.047-1.65c.3-.625.995-.883 1.573-.606.577.273.828.954.55 1.53-.228.482-.642.726-1.076.726zm181.672-2.419a1.159 1.159 0 01-1.157-1.113c-.02-.726.485-1.257 1.128-1.273a1.164 1.164 0 011.187 1.13c.026.696-.473 1.233-1.112 1.26a.26.26 0 00-.046-.004zM5.837 83.371a1.155 1.155 0 01-.956-1.81c.412-.59 1.133-.72 1.658-.358.525.364.656 1.084.29 1.608-.257.384-.623.56-.991.56zm179.214-3.005a1.158 1.158 0 01-1.151-1.029c-.079-.71.378-1.283 1.014-1.351a1.157 1.157 0 011.278 1.022c.078.707-.378 1.28-1.014 1.351a1.636 1.636 0 01-.127.007zM8.519 79.998a1.157 1.157 0 01-.861-1.93c.476-.531 1.21-.567 1.686-.14.476.426.515 1.158.085 1.634-.278.306-.594.436-.91.436zm3.056-3.044a1.157 1.157 0 01-.776-2.019c.524-.475 1.258-.443 1.689.033.43.472.394 1.204-.079 1.634-.28.254-.557.352-.835.352zm172.846-.857c-.554 0-1.04-.397-1.141-.957-.131-.687.284-1.292.913-1.41a1.16 1.16 0 011.353.925c.128.716-.296 1.316-.926 1.426-.065.01-.133.016-.199.016zM14.894 74.19a1.159 1.159 0 01-.71-2.074c.564-.437 1.294-.346 1.686.159.39.505.3 1.23-.21 1.621-.267.215-.518.293-.766.293zm168.617-2.312c-.521 0-.998-.355-1.125-.886-.173-.677.202-1.309.825-1.465a1.162 1.162 0 011.409.837c.173.706-.212 1.331-.835 1.481-.094.02-.186.033-.274.033zm-165.12-.231a1.155 1.155 0 01-.656-2.11c.584-.404 1.305-.274 1.67.25a1.153 1.153 0 01-.29 1.609c-.271.186-.5.25-.724.25zM22 69.27a1.156 1.156 0 01-.623-2.133c.606-.38 1.324-.221 1.663.32.343.54.18 1.253-.362 1.595-.251.16-.466.218-.678.218zm160.353-1.553c-.496 0-.956-.32-1.106-.817-.212-.681.131-1.329.744-1.518a1.157 1.157 0 011.448.762c.212.684-.134 1.332-.744 1.517a1.072 1.072 0 01-.342.056zm-156.668-.713a1.158 1.158 0 01-.6-2.149c.616-.368 1.33-.19 1.657.358.329.547.15 1.26-.401 1.586a1.194 1.194 0 01-.656.205zm3.721-2.201a1.157 1.157 0 01-.584-2.159c.607-.358 1.318-.176 1.644.371.326.55.143 1.26-.404 1.586-.258.153-.46.202-.656.202zm151.564-1.176c-.473 0-.913-.29-1.086-.758-.248-.671.062-1.335.662-1.557.6-.218 1.265.088 1.487.69.245.668-.062 1.332-.662 1.554a1.16 1.16 0 01-.401.071zM33.144 62.621a1.157 1.157 0 01-.587-2.155c.614-.362 1.325-.176 1.647.374.327.55.14 1.26-.41 1.583-.252.146-.45.198-.65.198zm3.718-2.207c-.391 0-.776-.199-.991-.56a1.155 1.155 0 01.391-1.59c.603-.367 1.318-.195 1.65.35a1.158 1.158 0 01-.384 1.591c-.255.153-.463.209-.666.209zm142.521-.801c-.454 0-.884-.267-1.07-.713-.277-.648-.003-1.325.587-1.576a1.16 1.16 0 011.52.609c.28.667 0 1.344-.591 1.589a1.15 1.15 0 01-.446.09zM40.534 58.13a1.156 1.156 0 01-.626-2.13c.6-.383 1.318-.23 1.664.31.345.538.189 1.254-.35 1.599-.254.163-.472.221-.688.221zm3.594-2.406a1.155 1.155 0 01-.668-2.1c.59-.413 1.31-.283 1.68.238a1.158 1.158 0 01-.288 1.611c-.26.183-.495.251-.724.251zm133.474-.045c-.427 0-.838-.238-1.04-.645-.313-.658-.069-1.348.508-1.621a1.163 1.163 0 011.546.547c.31.625.072 1.318-.502 1.601a1.188 1.188 0 01-.512.118zM47.585 53.137a1.15 1.15 0 01-.903-.433 1.153 1.153 0 01.18-1.625c.55-.446 1.281-.368 1.682.127a1.157 1.157 0 01-.173 1.628c-.274.218-.531.303-.786.303zm128.057-1.306c-.414 0-.815-.221-1.024-.615-.336-.616-.13-1.319.434-1.625a1.16 1.16 0 011.572.462c.342.642.127 1.342-.437 1.641a1.145 1.145 0 01-.545.137zM50.837 50.294a1.155 1.155 0 01-.805-1.986c.524-.498 1.258-.478 1.698-.016.44.462.421 1.195-.042 1.634-.27.26-.561.368-.851.368zm122.669-2.214c-.395 0-.776-.198-.995-.563-.368-.609-.192-1.319.356-1.647a1.164 1.164 0 011.591.39c.369.616.193 1.325-.355 1.654a1.151 1.151 0 01-.597.166zm-119.734-.94a1.157 1.157 0 01-.897-1.89c.447-.55 1.177-.624 1.673-.224.5.4.574 1.13.173 1.628-.28.342-.613.485-.95.485zm117.425-2.71c-.375 0-.744-.182-.969-.517-.394-.59-.251-1.31.284-1.664a1.16 1.16 0 011.608.322c.398.6.251 1.316-.284 1.667a1.174 1.174 0 01-.639.193zm-114.956-.813a1.157 1.157 0 01-.998-1.742c.355-.613 1.063-.801 1.617-.482.555.319.744 1.029.424 1.579-.257.44-.645.645-1.043.645zm112.481-2.732c-.353 0-.702-.16-.93-.466-.43-.59-.316-1.312.202-1.69a1.162 1.162 0 011.618.254c.417.56.313 1.283-.199 1.667-.205.16-.45.235-.691.235zM58.067 39.732a1.152 1.152 0 01-1.09-1.547c.236-.667.898-.983 1.5-.768.604.212.92.873.709 1.475-.2.544-.643.84-1.119.84zm108.016-2.273c-.332 0-.665-.143-.893-.42-.457-.566-.379-1.295.12-1.696a1.156 1.156 0 011.628.18c.443.536.375 1.266-.118 1.673-.215.179-.476.264-.737.264zM59.593 35.7a1.155 1.155 0 01-1.063-1.615c.284-.658.969-.929 1.556-.675.587.254.857.935.603 1.52-.218.505-.646.77-1.096.77zm103.692-1.528c-.316 0-.633-.13-.861-.38-.479-.538-.437-1.267.039-1.694a1.158 1.158 0 011.637.094c.473.525.437 1.257-.039 1.684a1.16 1.16 0 01-.776.296zM61.491 31.827a1.158 1.158 0 01-1.011-1.72c.34-.618 1.04-.823 1.605-.517.56.306.77 1.01.463 1.57-.254.452-.649.667-1.057.667zm98.833-.801c-.297 0-.597-.114-.822-.342-.502-.508-.499-1.24-.046-1.69a1.16 1.16 0 011.638.007c.502.508.498 1.24.045 1.69a1.145 1.145 0 01-.815.335zm-96.55-2.862a1.154 1.154 0 01-.949-1.814c.418-.592 1.142-.716 1.663-.345.522.368.646 1.091.278 1.612-.265.371-.623.547-.992.547zm93.432-.12a1.16 1.16 0 01-.776-.297c-.532-.482-.568-1.214-.137-1.686a1.16 1.16 0 011.637-.078c.528.475.564 1.204.137 1.68-.228.253-.545.38-.861.38zm-3.281-2.804c-.251 0-.508-.081-.72-.25-.565-.456-.64-1.182-.239-1.68a1.165 1.165 0 011.631-.173c.551.44.633 1.165.235 1.667a1.15 1.15 0 01-.907.436zm-87.49-.488c-.267 0-.538-.091-.756-.28a1.143 1.143 0 01-.12-1.622c.462-.537 1.193-.59 1.679-.172.486.416.538 1.146.12 1.63-.267.307-.597.444-.923.444zm84.056-2.12c-.231 0-.466-.068-.672-.215-.58-.413-.704-1.136-.332-1.657a1.157 1.157 0 011.614-.27c.581.413.704 1.136.333 1.657a1.155 1.155 0 01-.943.485zm-81.049-.957a1.156 1.156 0 01-.786-2.006c.532-.485 1.262-.452 1.696.02a1.153 1.153 0 01-.072 1.634c-.273.25-.557.352-.838.352zm77.455-1.433c-.208 0-.42-.055-.613-.175-.603-.372-.773-1.085-.437-1.628a1.16 1.16 0 011.595-.378c.613.38.776 1.094.44 1.634a1.15 1.15 0 01-.985.547zM72.782 18.92c-.356 0-.708-.16-.933-.465a1.14 1.14 0 01.232-1.609c.57-.423 1.294-.319 1.68.192a1.156 1.156 0 01-.236 1.619 1.209 1.209 0 01-.743.263zm70.375-.823c-.18 0-.362-.043-.535-.13-.639-.34-.855-1.04-.555-1.602a1.16 1.16 0 011.566-.48c.626.327.844 1.023.551 1.59a1.16 1.16 0 01-1.027.622zM76.376 16.56a1.157 1.157 0 01-.587-2.155c.61-.362 1.32-.18 1.647.37.326.55.143 1.26-.405 1.586-.254.147-.456.199-.655.199zm62.893-.342c-.156 0-.313-.033-.466-.098-.652-.283-.92-.967-.666-1.553.255-.586.94-.853 1.527-.599.655.287.923.97.665 1.556a1.151 1.151 0 01-1.06.694zm-4.014-1.586c-.124 0-.252-.02-.379-.062-.681-.24-.998-.901-.786-1.504a1.16 1.16 0 011.478-.706c.665.23.988.889.779 1.49-.163.483-.61.782-1.092.782zm-55.05-.071a1.156 1.156 0 01-.486-2.208c.639-.3 1.327-.049 1.6.528.272.58.024 1.266-.557 1.54-.231.107-.398.14-.558.14zm50.921-1.192c-.098 0-.199-.013-.3-.039-.685-.176-1.057-.807-.894-1.426a1.16 1.16 0 011.412-.83c.698.185 1.067.82.9 1.439a1.158 1.158 0 01-1.118.856zm-46.923-.43a1.156 1.156 0 01-.385-2.247c.669-.237 1.33.076 1.546.678a1.155 1.155 0 01-.701 1.478 1.35 1.35 0 01-.46.091zm42.726-.592c-.082 0-.167-.01-.252-.03-.701-.16-1.092-.778-.952-1.4.14-.621.76-1.015 1.386-.872.692.153 1.086.771.949 1.393-.12.54-.6.909-1.131.909zm-38.597-.678a1.157 1.157 0 01-.294-2.28c.685-.181 1.32.187 1.484.805a1.158 1.158 0 01-.822 1.417c-.173.049-.27.058-.368.058zm34.363-.205a1.21 1.21 0 01-.215-.02c-.701-.13-1.115-.735-.998-1.363a1.16 1.16 0 011.354-.925c.704.133 1.115.736.998 1.364a1.159 1.159 0 01-1.139.944zm-4.259-.72c-.055 0-.114-.002-.173-.012-.704-.104-1.141-.694-1.046-1.325a1.157 1.157 0 011.317-.974c.708.108 1.145.694 1.05 1.325a1.165 1.165 0 01-1.148.987zm-25.888-.006a1.157 1.157 0 01-.205-2.295c.694-.13 1.301.283 1.418.912a1.158 1.158 0 01-.926 1.35c-.15.027-.218.033-.287.033zm21.603-.543c-.039 0-.082-.004-.124-.007-.711-.075-1.171-.645-1.106-1.28a1.16 1.16 0 011.272-1.028c.711.074 1.174.644 1.106 1.28a1.157 1.157 0 01-1.148 1.034zm-17.33-.082a1.157 1.157 0 01-.128-2.305c.711-.078 1.282.378 1.354 1.013a1.16 1.16 0 01-1.024 1.28 2.38 2.38 0 01-.202.012zm13.022-.28c-.786-.045-1.272-.596-1.233-1.23a1.156 1.156 0 011.226-1.085c.705.04 1.194.586 1.161 1.224a1.152 1.152 0 01-1.154 1.091zm-8.714-.062a1.162 1.162 0 01-1.158-1.1 1.153 1.153 0 011.099-1.211c.717-.04 1.256.455 1.288 1.094a1.153 1.153 0 01-1.099 1.21c-.091.004-.111.007-.13.007zm4.396-.088c-.721-.003-1.236-.524-1.233-1.165a1.158 1.158 0 011.158-1.15c.727.01 1.242.534 1.233 1.173a1.157 1.157 0 01-1.158 1.142z" fill="#EC5252"/><path fill-rule="evenodd" clip-rule="evenodd" d="M162.326 1.746h-52.115c-4.523 0-8.189 3.663-8.189 8.182V40.39c0 4.513 3.666 8.172 8.189 8.172h4.912c1.441 0-3.878 9.882-3.617 9.687.261-.196 12.739-9.687 15.018-9.687h35.802c4.521 0 8.186-3.66 8.186-8.172V9.928c.003-4.52-3.662-8.182-8.186-8.182z" fill="#F5F5F5"/><path d="M111.48 59.343l-.528-.427c-.548-.452-.454-.645.456-2.504.695-1.422 2.648-5.417 3.036-6.987h-4.233c-4.989 0-9.046-4.05-9.046-9.032V9.928c0-4.985 4.06-9.042 9.046-9.042h52.115c4.99 0 9.047 4.057 9.047 9.042V40.39c0 4.981-4.057 9.032-9.047 9.032h-35.799c-.932.013-5.844 2.976-14.418 9.452l-.629.469zm-1.269-56.741c-4.04 0-7.328 3.285-7.328 7.322v30.463c0 4.034 3.288 7.316 7.328 7.316h4.912c.381 0 .717.182.916.504.457.73.225 2.026-2.283 7.29 5.313-3.913 11.02-7.794 12.768-7.794h35.802c4.041 0 7.328-3.282 7.328-7.316V9.927c0-4.037-3.287-7.322-7.328-7.322h-52.115v-.003z" fill="#D6D6D6"/><path fill-rule="evenodd" clip-rule="evenodd" d="M167.747 99.758c-4.612-5.375-17.047-24.113-17.047-24.113s-.052-8.651.372-11.422c.427-2.767 3.783-8.387 4.934-10.002 1.151-1.615-.209-4.555-1.494-4.926-1.288-.371-7.403 9.406-7.403 9.406s1.054-5.186 1.719-7.986.789-4.533-.45-5.822c-1.239-1.29-3.737.296-3.737.296s-.695-2.347-2.394-2.536c-1.696-.189-3.832 10.862-4.113 12.092-.28 1.231-1.421.15-1.421.15s-.614-11.952-1.569-13.287c-.956-1.335-2.762-.651-2.916 2.09-.153 2.745.075 18.96.075 18.96s-2.563-1.287-3.737-1.941c-1.174-.655-1.588-4.064-3.291-4.555-1.702-.492-2.152 2.376-1.047 5.525 1.106 3.145 10.166 16.455 14.582 25.53 4.412 9.074 8.971 26.724 8.971 26.724l-11.365 5.076s-26.57-16.534-32.153-30.905c-2.195-5.652-1.794-15.303-1.794-15.303s1.859-2.028 2.019-4.405c.157-2.377-2.466-3.956-2.466-3.956s.34-3.08-4.262-12.542c-2.824-5.808-11.163-9.103-18.694-8.732-4.732.231-8.283 2.325-12.634 4.851-11.274 6.548-11.14 23.892-12.412 31.276-1.272 7.385-5.225 10.442-13.684 15.303-8.457 4.865-13.257 11.428-13.76 20.379-.498 8.95 9.794 14.258 9.794 14.258s-11.763 18.601-16.075 31.051c-4.311 12.454 3.147 16.078 8.3 16.722 5.15.642 16.884-1.439 25.422-3.656s18.393-8.732 18.393-8.732l-2.54 12.766h55.405s-2.71-17.764-2.765-18.064c-.056-.302 1.197-7.465 1.197-7.465l42.618-18.289.3-.15 10.69-16.273c.003 0-4.954-12.02-9.568-17.393zm-103.48 53.895l-11.962.746 6.43-12.018 4.413 3.807 1.272 3.955-.153 3.51z" fill="#fff"/><path fill-rule="evenodd" clip-rule="evenodd" d="M52.304 154.174s4.589-5.789 5.981-11.867c.13-.574-1.575-2.426-1.718-2.986-1.442-5.636-1.164-9.556-.447-11.568 1.083-3.048 2.178-.909 1.794 2.09-.336 2.618.773 6.443 2.791 9.214 2.032 2.787 4.031 3.92 4.462 4.523 1.115 1.562.522 4.476.522 4.476s3.74-9.712 7.553-12.763c3.812-3.054 6.75-3.041 8.821-2.165 2.075.876 2.763.938 2.32 1.941-.444 1.002-4.42.514-5.982 1.79-1.562 1.28-3.29 3.432-3.29 3.432s3.358-2.699 7.327-1.345c3.966 1.355 5.831 2.39 5.831 2.39s1.856 1.368 1.87 4.106c.012 2.738-.604 2.113-2.17 1.195-1.565-.918-3.766-1.768-4.934-1.195-1.167.573-2.168 1.341-2.168 1.341s2.683.661 3.962 4.031c1.278 3.37 1.435 7.166.075 6.942-1.36-.225-4.129-7.092-6.803-6.121-2.182.791-2.73 6.264-3.29 8.511-.562 2.243-3.066 4.776-3.066 4.776l.499.573 50.941.176-.822-5.45s-1.898-37.31-1.869-37.697c.026-.388-2.019-18.214-2.019-18.214l-5.906-3.135s-16.854 7-30.356 8.511c-13.501 1.507-26.918.224-26.918.224s-5.583 2.12-9.347 7.241c-4.197 5.714-8.58 15.381-13.76 24.784-9.816 17.826-11.482 26.038-8.896 30.456.907 1.55 3.252 3.442 6.206 4.106 5.47 1.227 9.272-.375 9.272-.375s-3.036-4.783-1.422-11.867c1.588-6.968 8.822-9.482 8.822-9.482l6.134-.599zM97.688 97.893s-2.628-.01-3.737-1.791c-1.112-1.781-1.869-6.792-1.869-6.792s5.31-3.598 6.356-8.136c1.044-4.54 1.494-6.717 1.494-6.717l2.244-.896s-.167 9.54 2.168 15.003c2.759 6.457 9.869 11.198 9.869 11.198l-16.225-2.016-.3.147z" fill="#EC5252"/><path fill-rule="evenodd" clip-rule="evenodd" d="M101.95 65.268c-.437.007-3.215 1.195-3.215 1.195s-1.36-4.506-3.963-7.39c-2.602-2.886-5.609-5.227-5.609-5.227s-15.188 8.72-16.897 17.169c-1.708 8.449-1.271 10.673-1.271 10.673l1.643-.225s1.076 2.26 2.544 3.657c1.468 1.4 3.813 3.806 3.813 3.806s3.434 8.696.524 10.601c-2.909 1.905-16.254 4.386-21.159 5.822-4.904 1.435-9.271 3.802-12.784 8.66-3.515 4.855-7.478 12.018-7.478 12.018s-5.534-1.202-7.925-7.466c-1.92-5.03-1.95-11.246 7.028-18.438 8.979-7.193 17.102-9.24 19.59-19.93 2.49-10.689 2.793-22.368 9.123-28.29 7.324-6.85 15.722-8.3 23.777-5.076 3.024 1.208 6.794 2.839 8.597 5.597 3.881 5.945 3.963 12.841 3.662 12.844z" fill="#A89AFF"/><path fill-rule="evenodd" clip-rule="evenodd" d="M63.435 178.522h-2.169a41.15 41.15 0 003.516-7.687c-7.135 2.604-14.835 4.929-23.324 6.346-8.483 1.413-20.155 2.047-22.203-5.672-1.128-4.246.085-9.257 1.197-12.838 3.535-11.406 10.393-19.428 14.953-29.557-5.714-2.608-9.836-7.089-9.719-14.779.173-11.314 8.528-16.465 15.475-21.27 2.41-1.668 4.901-3.211 7.028-5.227 2.27-2.149 3.711-4.216 4.634-7.612.828-3.047 1.142-6.85 1.644-10.598.968-7.199 2.941-13.265 6.578-17.914 3.532-4.516 8.864-7.876 15.55-8.957 3.818-.619 7.536-.313 10.765.746 8.437 2.767 13.678 8.937 15.103 18.584.12.82-.003 2.071.3 2.761.192.443 1.001.746 1.347 1.195.929 1.215 1.5 3.54.597 5.447-.284.6-1.148 1.147-1.347 1.791-.144.469-.033 1.205-.075 1.866-.672 10.594 3.029 16.618 8 21.57 17.581-2.23 27.006 6.812 35.586 14.554-3.773-8.996-6.32-19.268-11.14-28.287-3.359-6.29-7.71-12.07-10.991-18.585-.808-1.605-2.85-5.099-1.943-7.462.365-.958 1.239-1.768 2.54-1.642 2.117.206 2.511 3.185 3.663 4.627.626.785 1.343 1.078 2.168 1.566.314-3.516.248-7.475.075-11.272-.137-2.992-.945-8.86 1.272-10.002 1.699-.876 3.522.703 4.038 2.016 1.177 3.005-.176 8.605.597 11.718.714-2.302.994-4.608 1.643-6.867.502-1.742 1.409-5.014 3.291-5.298 2.566-.387 3.46 2.794 3.29 5.298-.13 1.97-.613 3.74-1.046 5.896-.154.765-.375 1.853-.597 2.911-.242 1.153-.522 2.198-1.494 2.016-1.034-.193-.515-1.635-.3-2.687.261-1.273.418-2.276.597-3.135.538-2.55 1.872-6.756 0-8.433-1.464 1.508-2.045 4.145-2.616 6.717-.267 1.205-.443 2.36-.821 3.806-.235.89-.676 2.82-1.794 2.911-1.314.107-1.804-1.504-2.019-2.761-.228-1.338-.225-3.103-.225-4.555 0-3.087.789-7.17-1.569-7.912-.733 1.293-.58 3.113-.521 4.777.176 5.076.557 10.558.075 15.524 2.286 1.146 3.717 2.419 4.859 4.926.32.706 2.123 4.52.225 4.552-1.066.016-1.125-1.641-1.419-2.537-.385-1.169-.769-1.966-1.272-2.686-1.865-2.673-5.945-2.846-7.924-5.375-.989-1.264-1.305-2.992-2.541-3.881-1.083 1.09-.166 2.588.225 3.581.463 1.172 1.034 2.296 1.569 3.285 3.466 6.388 7.566 12.142 10.84 18.51 4.449 8.651 7.217 18.53 10.991 28.066 3.603 1.638 8.896 2.348 12.559.596 3.554-1.7 5.306-4.978 6.206-9.182-3.594-6.896-8.685-12.73-13.084-18.959-1.442-2.041-3.278-4.265-4.113-6.567-.681-1.875-.192-4.829-.3-7.091-.12-2.586-.261-4.969.3-6.942.509-1.79 1.533-3.454 2.541-5.001 1.122-1.72 3.737-4.88 1.643-6.717-1.359 1.582-2.406 3.4-3.737 5.226-.59.81-1.177 1.572-1.944 2.536-.411.518-1.294 2.28-2.318 2.09-1.302-.24-.477-2.142-.225-3.135.939-3.725 1.767-7.072 2.243-10.973-.538-.752-1.976-.214-2.168-1.194-.389-1.98 2.765-.896 3.29-.447 1.53 1.303.47 4.275 0 6.346-.349 1.53-.642 3.038-.972 4.327.816-.732 1.576-2.064 2.466-3.431.942-1.45 2.24-4.096 4.337-2.911.842.475 2.127 1.872 1.644 4.33-.342 1.745-1.487 3.24-2.319 4.48-.88 1.316-1.836 2.602-2.465 4.328-1.008 2.76-.245 6.205-.375 9.403-.056 1.4-.186 2.96.075 3.88.44 1.547 1.784 3.445 2.765 4.852 3.125 4.467 6.771 9.002 9.794 13.212 3.551 4.943 6.848 11.373 9.272 17.465.306.775 1.138 2.341-.15 2.536-1.116.17-1.24-1.123-1.569-1.94-1.018-2.53-2.299-5.122-3.291-7.241-1.154 3.643-3.202 6.769-6.578 8.433-3.408 1.68-8.857 1.559-12.559 0a265.854 265.854 0 003.963 9.852c.316.752 1.519 2.839.375 3.21-1.23.398-1.409-.963-1.794-1.865a502.664 502.664 0 01-2.169-5.151c-.372-.899-.623-1.892-1.047-2.686-.541-1.019-1.774-1.986-2.69-2.986-2.736-2.979-6.03-5.737-9.194-7.987-3.235-2.298-7.031-4.483-11.29-5.821-1.331-.417-3.509-1.166-4.709-1.045-.861.087-2.41 1.175-3.513 1.715-8.257 4.048-17.477 7.629-27.437 9.628-10.931 2.195-25.186 2.025-36.559.375-.795-.118-1.774-.45-2.318-.375-.437.062-1.364.889-2.019 1.491-4.34 3.999-7.403 9.517-10.094 14.854-3.29 6.534-6.51 12.359-10.018 18.435-3.337 5.779-7.009 12.288-8.15 20.304-.704 4.955.3 8.465 3.737 10.002 3.105 1.387 8.101 1.439 12.784.895-.854-2.709-1.575-5.606-1.343-9.032.385-5.743 4.471-8.976 7.7-11.793-.711-.335-2.714.013-2.84-1.195-.157-1.481 1.473-1.067 2.54-.895 1.764.283 3.33.528 5.084.671.815.068 2.293.296 2.766.15.6-.189 1.29-2 1.718-2.761a401.52 401.52 0 015.01-8.658c-1.537-2.194-2.613-5.001-3.066-8.358-.157-1.172-.372-2.735.822-2.686.75.029.87.853.972 1.791.273 2.569.838 4.734 1.793 6.492 1.706 3.145 5 4.373 6.428 7.612 1.262-3.275 2.671-6.596 4.934-9.552 2.11-2.755 4.749-5.36 8.822-5.672 2.76-.212 5.831.4 6.356 2.461.35 1.377-.39 2.341-1.197 2.761-1.3.681-3.1.069-4.562.446-.793.205-1.262.554-1.794 1.12 1.745-.69 3.748-.765 5.606-.299 2.114.527 4.302 1.582 5.235 2.911 1.647.713 3.267 2.497 3.215 4.776-.016.765-.355 1.654-.972 1.941-1.816.84-3.851-1.71-5.98-1.791-.829-.033-1.423.189-2.466.521 2.012 1.745 5.127 4.525 5.084 8.582-.013 1.133-.349 2.104-.972 2.612-2.247 1.839-3.884-1.234-4.709-2.612-.678-1.133-1.859-2.904-3.362-2.686-1.36.196-1.693 3.497-2.02 5.001-.518 2.397-.97 3.933-1.718 5.376-1.722 3.318-4.324 4.985-7.478 6.717-.835 3.314-2.198 6.082-3.594 8.82zm31.1-128.677c-3.51-3.22-9.324-6.225-16.075-5.45-13.211 1.523-19.858 10.865-21.831 23.51-.678 4.34-.802 8.88-2.019 13.138-2.224 7.782-8.945 11.054-14.953 15.3-5.694 4.031-12.138 8.83-12.112 18.213.02 7.001 3.992 10.735 8.672 12.764 4.412-7.763 7.579-15.46 15.325-20.155 5.39-3.265 13.237-4.561 20.633-5.971 2.384-.453 5.519-.739 6.653-2.237 1.97-2.598.144-7.143-.525-9.702-2.25-1.583-4.151-3.69-5.606-5.972-.192-.302-.32-.97-.897-.82.242 3.262-.195 6.772-1.121 9.032-.477 1.159-.943 2.233-1.72 3.435-.456.703-1.532 2.686-2.615 2.386-1.699-.465.561-2.744.822-3.135 1.836-2.748 2.867-5.568 2.69-9.927-.12-3.015-.211-5.64.15-8.062.37-2.471.986-4.584 1.944-6.567 3.007-6.232 8.662-11.516 14.353-15.45.796-.55 2.016-1.53 2.766-1.49.831.045 2.09 1.49 2.84 2.24 3.138 3.135 5.942 6.368 7.4 10.672.411-.387 1.158-.436 1.569-.82-.512-6.548-2.54-11.442-6.343-14.932zM74.725 82.91c1.664 2.49 3.699 4.617 6.579 5.747 4.78 1.875 9.65.449 12.484-2.166 4.252-3.92 5.192-10.5 4.187-17.839-.896-6.547-5.126-10.139-8.896-13.883-.075 0-.088-.062-.15-.075-4.005 2.595-8.04 5.962-11.066 9.478-.14.163-.499.466-.375.746 1.52-.056 4.475-.202 4.412 1.344-.065 1.606-2.57.258-4.262.45-1.115.123-1.5.635-2.319.82-2.185 3.34-3.903 7.544-3.662 13.063 1.97-.511 2.319 1.195 3.069 2.315zm28.56-13.659c-.013-1.152-.591-2.54-1.569-2.61-.841-.063-1.487.605-2.019 1.044.258 1.706.493 3.439.525 5.376 1.256-.619 3.082-1.752 3.063-3.81zm-3.066 6.121c-.277 6.965-3.127 11.357-7.478 14.258.714 2.256.463 4.874 1.869 6.343 1.317 1.374 4.141 1.566 6.653 1.566 2.69 0 5.322-.355 7.699-.521-4.738-4.845-8.443-12.093-7.549-22.316h-.15c-.284.286-.845.296-1.044.67zM80.704 90.596c1.128 3.302 1.232 8.124-.897 10.077-1.683 1.543-4.537 1.853-7.4 2.387-6.65 1.247-14.29 2.399-18.84 5.225 11.12 1.586 24.707 1.961 35.362-.149 10.563-2.091 19.965-5.819 28.258-9.928-6.985-.276-17.61 3.201-23.024-.224-2.224-1.407-2.554-4.376-3.14-7.463-2.841 1.185-7.626 1.14-10.32-.15v.225zm-1.194 44.935c1.047-.108 3.656.394 3.737-.521.046-.501-.903-.905-1.421-1.045-3.68-.996-6.608.866-8.372 2.536-3.6 3.412-5.825 8.4-7.4 13.883-.192.661-.56 2.944-.972 3.357-.649.658-2.863.726-4.187.97-3.747.697-7.7 1.039-11.813.821-.838-.046-1.793-.355-2.393-.225-.578.127-1.533 1.085-2.169 1.566-2.25 1.716-4.145 3.654-5.384 6.047-1.742 3.37-1.34 8.999.225 12.538 9.386-1.638 16.035-3.064 23.85-6.196 3.62-1.449 6.959-3.135 8.971-6.046 1.04-1.508 1.693-3.484 2.094-5.376.515-2.425.753-5.916 2.765-6.866 2.828-1.335 4.954 1.462 5.906 2.985.584.938 1.04 2.14 2.094 2.462.714-2.283-.463-4.48-1.718-6.046-1.188-1.479-3.255-3.12-5.607-2.761-1.236.188-2.194 1.777-3.215 1.566-.32-.065-.669-.427-.672-.896-.013-.957 1.396-1.8 2.465-2.24 1.025-.417 2.349-.488 3.438-.224 1.39-.746 2.997-1.602 4.86-1.567 2.064.036 3.596 1.283 5.083 1.866-.084-1.706-.93-2.569-1.943-3.135-4.087-2.283-9.165.189-11.813 2.24-.822.635-2.162 2.36-3.14 2.162-.3-.059-.646-.371-.672-.821-.049-.778 1.243-1.787 1.869-2.315a18.977 18.977 0 018.521-4.105c-4.787-.707-7.497 2.034-9.793 4.476-.483.515-1.223 1.82-2.094 1.716-.306-.036-.675-.316-.747-.67-.212-1.052 1.103-2.022 1.644-2.612.864-.941 1.533-1.501 2.244-2.09 1.15-2.26 2.677-5.118 5.759-5.434zm-17.047 10.748c-.789-.847-2.358-1.954-3.14-2.612-1.836 3.341-3.835 6.519-5.606 9.928 3.59-.124 6.724-.7 9.793-1.342.669-1.761-.042-4.897-1.047-5.974z" fill="#000"/><path fill-rule="evenodd" clip-rule="evenodd" d="M87.135 77.087c-1.471-2.279-2.72-3.855-2.466-7.166.33-4.334 3.14-6.483 7.4-6.792 1.184-.084 2.329-.088 2.394.82.006.108-.033.675-.597.896-.43.17-.907.049-1.422.075-3.803.189-6.31 2.308-5.906 6.642.052.55.183 1.055.375 1.566.551 1.472 2.078 2.465 2.094 3.881.013 1.065-1.08 2.999-2.316 2.54-1.15-.427-.078-1.905.444-2.462zM83.172 83.433c.343.378.995.73 2.02.97.961.228 2.592.013 2.615 1.12.042 1.889-4.077.417-4.785.075-.906-.436-3.943-2.731-2.765-4.327.372-.501 1.206-.475 1.793-.3.529.16 1.947.987 3.663 1.12 1.347.105 3.323-.556 3.366.821.035 1.208-1.944 1.114-3.216 1.045-1.34-.078-1.618-.28-2.69-.524zM129.149 178.522h-2.093c-2.078-4.239-4.077-8.856-5.01-14.554-.662-4.04-.623-9.12-.596-13.883.009-1.628-.079-3.386.225-4.702.205-.895 1.066-1.885 1.493-2.611 1.588-2.699 2.841-5.401 3.516-8.957.698-3.692-.118-7.713-1.122-10.748-.294-.885-1.181-2.682.075-2.91 1.073-.193 1.494 1.572 1.794 2.461.443 1.315.714 2.566.897 3.432 1.47 6.964-.751 12.779-3.216 17.168-.356.632-1.497 2.058-1.644 2.686-.143.616-.049 1.495-.075 2.315-.163 5.493-.173 11.334.597 15.899.972 5.76 3.15 10.344 5.159 14.404z" fill="#000"/><path d="M211.34 178.809H19.555a.86.86 0 110-1.72H211.34a.86.86 0 110 1.72z" fill="#000"/><path d="M122.438 76.055a.86.86 0 01-.606-.25l-3.963-3.957a.858.858 0 010-1.214.862.862 0 011.217 0l3.962 3.956a.858.858 0 01-.61 1.465z" fill="#D6D6D6"/><path d="M118.476 76.055a.858.858 0 01-.61-1.465l3.962-3.956a.862.862 0 011.217 0 .858.858 0 010 1.215l-3.963 3.956a.846.846 0 01-.606.25zM120.416 77.856l-2.208 3.731h4.416l-2.208-3.731z" fill="#D6D6D6"/><path fill-rule="evenodd" clip-rule="evenodd" d="M90.513 68.283a1.572 1.572 0 011.84 1.254l.296 1.55a1.576 1.576 0 01-1.249 1.846 1.574 1.574 0 01-1.84-1.254l-.296-1.55a1.58 1.58 0 011.25-1.846zM76.532 70.91a1.569 1.569 0 011.837 1.245l.296 1.54a1.569 1.569 0 01-3.082.59l-.296-1.541a1.566 1.566 0 011.245-1.833z" fill="#000"/><path fill-rule="evenodd" clip-rule="evenodd" d="M65.425 165.931h85.236a5.603 5.603 0 015.606 5.597v4.106c0 .824-.668 1.494-1.493 1.494H61.312a1.493 1.493 0 01-1.493-1.494v-4.106a5.601 5.601 0 015.606-5.597z" fill="#F5F5F5"/><path d="M154.773 177.988h-93.46a2.356 2.356 0 01-2.355-2.351v-4.106c0-3.558 2.902-6.456 6.467-6.456h85.236c3.564 0 6.467 2.898 6.467 6.456v4.106a2.354 2.354 0 01-2.355 2.351zm-89.348-11.197a4.749 4.749 0 00-4.749 4.74v4.106c0 .352.287.635.636.635h93.461a.636.636 0 00.636-.635v-4.106a4.749 4.749 0 00-4.748-4.74H65.425z" fill="#000"/><path fill-rule="evenodd" clip-rule="evenodd" d="M102.137 96.76h91.292c4.954 0 8.972 4.011 8.972 8.957v45.559c0 4.946-4.018 8.957-8.972 8.957h-91.292c-4.954 0-8.972-4.011-8.972-8.957v-45.559c0-4.946 4.018-8.957 8.972-8.957z" fill="#fff"/><path fill-rule="evenodd" clip-rule="evenodd" d="M104.491 98.414h91.296c4.953 0 8.971 4.011 8.971 8.957v45.533c0 4.949-4.018 8.958-8.971 8.958h-91.296c-4.957 0-8.972-4.012-8.972-8.958v-45.533c0-4.946 4.018-8.957 8.972-8.957z" fill="#E7E7E7"/><path d="M193.432 161.09h-91.296c-5.42 0-9.832-4.402-9.832-9.817v-45.557c0-5.411 4.412-9.816 9.832-9.816h91.293c5.42 0 9.833 4.402 9.833 9.816v45.56c0 5.412-4.41 9.814-9.83 9.814zm-91.296-63.471c-4.474 0-8.114 3.634-8.114 8.097v45.56c0 4.468 3.64 8.098 8.114 8.098h91.293c4.474 0 8.114-3.634 8.114-8.098v-45.56c0-4.467-3.64-8.097-8.114-8.097h-91.293z" fill="#000"/><path fill-rule="evenodd" clip-rule="evenodd" d="M139.394 150.778h18.351v22.919h-18.351v-22.919z" fill="#F5F5F5"/><path d="M157.744 174.553h-18.351a.861.861 0 01-.861-.86v-22.918c0-.472.385-.859.861-.859h18.351c.473 0 .861.384.861.859v22.918a.86.86 0 01-.861.86zm-17.49-1.716h16.633v-21.199h-16.633v21.199z" fill="#000"/><path fill-rule="evenodd" clip-rule="evenodd" d="M116.457 169.327h61.759a5.38 5.38 0 015.384 5.376c-.036 1.348-1.04 2.35-2.28 2.35h-68.043a2.24 2.24 0 01-2.243-2.24c.039-3.08 2.449-5.486 5.423-5.486z" fill="#F5F5F5"/><path d="M181.317 177.913h-68.04a3.103 3.103 0 01-3.101-3.096c0-.085.013-.173.039-.254.075-3.37 2.847-6.092 6.242-6.092h61.758c3.444 0 6.243 2.797 6.243 6.232a.784.784 0 01-.043.26 3.1 3.1 0 01-3.098 2.95zm-69.416-2.979a1.387 1.387 0 001.38 1.263h68.039c.763 0 1.383-.618 1.383-1.38 0-.082.013-.166.036-.244a4.526 4.526 0 00-4.52-4.386h-61.762a4.523 4.523 0 00-4.523 4.516 1.119 1.119 0 01-.033.231z" fill="#000"/><path fill-rule="evenodd" clip-rule="evenodd" d="M186.521 126.108c-2.061-.424-7.181-6.343-3.587-12.243 3.591-5.899 5.756-4.317 7.7-8.061 1.944-3.744-.036-9.15 2.469-11.047 2.501-1.899 6.868-3.364 8.6-5.226 1.731-1.863 7.445-5.978 10.468-.82 3.02 5.157 1.259 7.634-.225 9.256-1.484 1.621-6.63 3.311-7.703 5.076-1.073 1.765-.512 8.26-2.169 10.301-1.656 2.042-4.787 1.15-6.731 4.481-1.94 3.33-1.895 4.91-4.187 6.866-2.293 1.957-2.573 1.837-4.635 1.417z" fill="#fff"/><path fill-rule="evenodd" clip-rule="evenodd" d="M188.733 125.714c-2.061-.423-7.188-6.345-3.591-12.248 3.594-5.903 5.763-4.321 7.706-8.065 1.947-3.745-.036-9.153 2.469-11.054 2.505-1.898 6.872-3.363 8.603-5.23 1.732-1.862 7.452-5.98 10.475-.82 3.024 5.161 1.259 7.639-.225 9.26-1.483 1.622-6.633 3.311-7.706 5.079-1.073 1.768-.512 8.264-2.169 10.305-1.656 2.042-4.79 1.15-6.734 4.481-1.944 3.33-1.895 4.913-4.191 6.869-2.296 1.961-2.576 1.843-4.637 1.423z" fill="#EC5252"/><path fill-rule="evenodd" clip-rule="evenodd" d="M136.038 133.001h22.594c4.954 0 8.971 4.012 8.971 8.957v4.054c0 4.946-4.017 8.957-8.971 8.957h-22.594c-4.954 0-8.972-4.011-8.972-8.957v-4.054c0-4.945 4.018-8.957 8.972-8.957z" fill="#F5F5F5"/><path d="M158.635 155.828h-22.594c-5.42 0-9.833-4.402-9.833-9.816v-4.054c0-5.411 4.409-9.816 9.833-9.816h22.594c5.42 0 9.832 4.402 9.832 9.816v4.054c-.003 5.414-4.412 9.816-9.832 9.816zm-22.598-21.971c-4.474 0-8.114 3.634-8.114 8.098v4.054c0 4.467 3.64 8.1 8.114 8.1h22.594c4.475 0 8.111-3.633 8.111-8.1v-4.054c0-4.467-3.639-8.098-8.111-8.098h-22.594z" fill="#000"/><path fill-rule="evenodd" clip-rule="evenodd" d="M186.844 127.066c-.847 4.092-1.382 8.644-1.568 13.658-.056 1.449.284 4.024-.897 4.106-1.442.101-.959-2.852-.897-4.181.209-4.415.48-8.019 1.122-11.943.124-.748.424-1.566.375-2.165-.046-.524-1.507-2.009-1.944-2.611-.671-.925-1.373-2.051-1.718-2.986-1.39-3.75.163-7.381 1.943-9.552.858-1.046 2.123-2.003 3.438-2.911 1.177-.814 2.723-1.723 3.29-2.986 1.152-2.562-.068-6.997 1.122-9.253 1.08-2.045 4.22-2.742 6.206-3.956 3.298-2.016 4.406-5.692 8.822-6.567 1.712-.339 3.728.211 4.784.895 2.091 1.355 3.676 4.389 3.438 7.687-.134 1.846-.77 3.373-2.169 4.627-2.165 1.94-6.17 2.683-7.475 5.076-1.578 2.898-.039 7.567-2.244 9.927-1.532 1.641-4.666 1.71-6.056 3.432-1.259 1.563-1.519 4.031-2.615 5.896-1.396 2.371-3.659 3.318-6.957 3.807zm4.563-3.657c1.618-1.543 1.927-4.962 3.362-6.941.555-.766 1.406-1.394 2.169-1.791 1.36-.713 3.385-1.023 4.263-2.091.87-1.058.812-3.154.896-5.001.072-1.553.441-3.493.972-4.476 1.836-3.4 7.087-3.77 8.747-6.717 1.787-3.175-.046-7.632-2.766-8.658-3.046-1.15-5.289.95-6.728 2.462-1.836 1.93-3.456 3.535-6.131 4.701-1.249.544-2.814 1.185-3.365 2.09-.917 1.511-.362 4.048-.525 6.418-.304 4.431-3.467 5.672-5.982 7.612-1.601 1.237-3.075 3.005-3.587 5.376-.424 1.966.179 3.75.897 5.076.528.97 1.109 1.963 1.944 2.536 1.575-6.027 3.186-11.754 7.624-14.854 1.4-.976 3.8-1.614 4.635-2.91 1.448-2.24.378-5.539 1.718-8.358.91-1.915 2.965-3.184 5.01-3.956.714-.27 2.495-.915 2.54.374.036.96-2.54 1.641-2.99 1.866-1.106.55-2.179 1.315-2.691 2.165-1.523 2.523-.548 6.766-2.094 9.032-.991 1.452-2.905 1.941-4.562 2.911-1.66.973-2.648 2.331-3.588 3.881-1.96 3.233-3.023 6.684-3.962 10.972 1.582-.263 3.209-.781 4.194-1.719z" fill="#000"/><path fill-rule="evenodd" clip-rule="evenodd" d="M181.007 117.069c3.366.71 13.215.098 14.111-6.909.897-7.003-2.351-9.325-1.777-11.513.574-2.188 7.635-5.538 7.005-14.485-.362-5.132-5.136-5.796-4.569-10.25.568-4.454 6.63-9.09 5.466-16.341-1.161-7.248-9.585-8.752-13.779-6.91-4.194 1.847-6.806 5.32-5.576 10.621 1.229 5.301 2.302 6.74.309 8.616-1.992 1.878-6.173 4.991-5.919 8.765.255 3.773 5.329 9.103 4.876 11.291-.454 2.188-8.245 11.764-7.749 17.159.499 5.398 4.236 9.247 7.602 9.956z" fill="#fff"/><path fill-rule="evenodd" clip-rule="evenodd" d="M183.212 116.673c3.365.713 13.221.097 14.121-6.913.897-7.006-2.351-9.328-1.781-11.519.574-2.191 7.638-5.541 7.009-14.492-.362-5.135-5.14-5.795-4.572-10.256.567-4.457 6.633-9.097 5.469-16.348-1.165-7.254-9.592-8.759-13.786-6.912-4.197 1.846-6.813 5.323-5.58 10.627 1.233 5.304 2.306 6.74.31 8.618-1.996 1.879-6.177 4.995-5.922 8.769.254 3.776 5.332 9.106 4.878 11.294-.453 2.188-8.251 11.77-7.752 17.165.496 5.405 4.237 9.254 7.606 9.967z" fill="#EC5252"/><path fill-rule="evenodd" clip-rule="evenodd" d="M191.3 48.852h1.718c5.548.544 9.031 5.519 8.972 11.568-.049 5.16-2.273 7.854-4.337 10.823-.676.974-1.585 2.305-1.569 3.51.023 1.729 1.758 3.656 2.765 5.076 1.015 1.426 2.146 3.292 2.319 5.522.427 5.538-2.439 8.69-5.159 11.197-.763.703-2.055 1.647-2.094 2.611-.052 1.312 1.38 2.696 1.944 3.956.603 1.351.916 3.07.747 5.151-.548 6.688-5.743 10.233-13.16 9.927-.355 5.203-1.121 10.26-1.943 15.078-.199 1.166-.3 4.21-1.869 3.806-.708-.182-.443-1.191-.3-1.94a148.723 148.723 0 002.244-17.09c-.6-.723-1.451-1.075-2.244-1.492-2.485-1.308-4.641-2.949-5.906-5.45-2.009-3.969-.46-9.107 1.197-12.242.835-1.576 1.868-3.126 2.99-4.702.943-1.325 2.727-3.2 2.541-5.15-.095-.987-.874-1.837-1.494-2.612-1.81-2.256-3.789-4.916-3.065-9.107.375-2.162 1.718-3.903 2.99-5.3 1.174-1.286 3.327-2.696 3.663-4.627.205-1.172-.392-2.517-.822-3.731-.405-1.14-.812-2.302-.897-3.507-.294-4.109 1.533-6.498 3.737-8.283 1.911-1.553 4.129-2.663 7.032-2.992zm1.568 64.337c1.641-2.097 2.541-6.356 1.197-9.328-.734-1.622-2.364-2.937-2.019-5.001.18-1.065 1.119-2.013 1.869-2.761 2.404-2.4 5.075-4.35 5.384-8.658.265-3.708-1.425-5.76-2.915-7.762-1.08-1.449-2.397-2.927-2.169-5.226.245-2.474 2.312-4.363 3.588-6.346 1.242-1.933 2.325-4.626 2.318-7.687-.006-2.559-.835-4.968-1.943-6.492-1.393-1.911-3.741-3.513-7.178-3.21-4.155.364-8.242 3.562-8.597 7.39-.346 3.686 1.901 5.536 1.794 8.658-.124 3.627-4.028 5.454-5.757 8.137-1.464 2.275-1.196 5.55 0 7.762.927 1.706 3.086 3.236 3.513 5.522.231 1.24-.088 2.435-.522 3.36-2.149 4.58-7.488 8.364-7.103 15.299.261 4.718 3.659 7.001 7.475 8.733.473-4.529-.825-7.548-1.197-11.122-.401-3.849 1.497-6.818 3.066-8.957.691-.942 1.526-1.967 2.39-3.061.796-1.006 1.764-2.321 1.869-3.585.186-2.237-1.08-3.91-1.944-5.45-1.181-2.103-2.85-4.907-1.944-7.912 1.471-4.88 6.301-7.15 6.653-13.509.079-1.403-.518-4.317 1.047-4.18.789.068.822 1.26.822 2.39 0 5.951-2.175 8.588-4.559 11.792-.904 1.212-2.019 2.481-2.319 4.256-.414 2.448 1.132 4.503 2.019 6.12.861 1.573 1.927 3.302 2.093 5.301.297 3.624-2.224 5.607-3.887 7.688-1.422 1.78-2.785 3.764-3.291 6.196-.629 3.037.597 5.649.897 8.283.219 1.934.193 3.926.075 6.492 4.207.173 7.442-.788 9.275-3.132z" fill="#000"/><path fill-rule="evenodd" clip-rule="evenodd" d="M178.225 126.423c-4.527.652-12.533-2.8-13.221-6.173-.688-3.376 2.377-12.216.649-15.508-1.729-3.295-7.71-4.79-8.127-8.563-.418-3.773 2.416-8.442 5.704-8.732 3.287-.29 12.653 2.97 13.11 9.182.457 6.215-1.233 11.848.548 13.453 1.781 1.605 6.672 8.625 5.756 12.06-.916 3.432.108 3.63-4.419 4.281z" fill="#fff"/><path fill-rule="evenodd" clip-rule="evenodd" d="M180.43 126.03c-4.53.651-12.543-2.8-13.231-6.176-.688-3.377 2.381-12.223.649-15.518-1.732-3.295-7.716-4.793-8.134-8.566-.417-3.774 2.42-8.446 5.707-8.736 3.288-.29 12.664 2.97 13.121 9.188.456 6.216-1.233 11.852.547 13.457 1.781 1.605 6.676 8.628 5.76 12.066-.917 3.435.111 3.634-4.419 4.285z" fill="#EC5252"/><path fill-rule="evenodd" clip-rule="evenodd" d="M177.974 127.489c-1.305 4.041-2.913 7.769-2.541 13.509.085 1.305.881 4.138-.822 3.956-1.004-.108-1.06-2.823-1.122-4.106-.257-5.519 1.217-9.159 2.466-13.063-4.165-1.035-7.732-2.044-10.094-4.626-1.819-1.993-2.155-4.949-1.643-8.358.208-1.397.521-2.96.822-4.48.329-1.651.606-3.595.15-4.852-1.002-2.741-5.336-3.578-7.103-5.672-3.47-4.108.022-10.588 3.14-12.392 4.285-2.477 10.074.69 12.409 3.061 1.719 1.742 3.154 4.148 3.591 7.091.558 3.758-1.027 8.775.3 12.168.757 1.93 2.69 3.438 3.962 5.375 1.419 2.159 3.082 5.633 1.794 8.508-.956 2.136-2.938 3.06-5.309 3.881zm3.887-6.496c-.505-5.483-6.239-7.293-6.653-13.062-.212-2.97.568-6.03.3-9.328-.267-3.273-1.934-5.382-3.737-7.092-1.712-1.621-4.693-3.386-7.85-3.06-2.808.29-5.032 3.324-5.309 6.27-.565 6.05 6.137 5.298 8.149 9.478 1.866 3.878-1.281 9.482-.971 14.033.345 5.073 6.369 6.73 10.615 7.538-.068-4.08-2.136-5.916-3.737-8.583-1.243-2.067-2.019-4.193-2.019-7.537 0-3.084.238-6.571-.672-8.733-.391-.934-1.06-2.047-1.794-2.985-.574-.733-2.217-1.736-2.018-2.836.026-.143.218-.697.822-.746.89-.071 2.08 1.553 2.69 2.315 1.572 1.957 2.697 4.152 2.916 7.092.238 3.203-.395 7.006.375 9.552 1.35 4.474 5.25 6.489 5.309 12.093 1.885-.798 3.845-1.573 3.584-4.409z" fill="#000"/><path fill-rule="evenodd" clip-rule="evenodd" d="M171.719 134.17h18.843c.826 0 1.497.667 1.497 1.494v32.472c0 4.945-4.017 8.957-8.971 8.957H179.2c-4.957 0-8.971-4.012-8.971-8.957v-32.472a1.487 1.487 0 011.49-1.494z" fill="#fff"/><path fill-rule="evenodd" clip-rule="evenodd" d="M173.581 133.05h18.84c.825 0 1.497.667 1.497 1.494v32.471c0 4.946-4.018 8.958-8.971 8.958h-3.888c-4.954 0-8.972-4.012-8.972-8.958v-32.471a1.49 1.49 0 011.494-1.494z" fill="#BBB"/><path d="M183.084 177.949h-3.887c-5.42 0-9.833-4.405-9.833-9.817v-32.471a2.356 2.356 0 012.355-2.351h18.843a2.356 2.356 0 012.355 2.351v32.471c0 5.415-4.409 9.817-9.833 9.817zm-11.365-42.923a.636.636 0 00-.636.635v32.471c0 4.467 3.639 8.101 8.114 8.101h3.887c4.475 0 8.114-3.634 8.114-8.101v-32.471a.634.634 0 00-.636-.635h-18.843z" fill="#000"/></g><defs><clipPath id="clip0"><path fill="#fff" transform="translate(0 .886)" d="M0 0h216.049v177.923H0z"/></clipPath></defs></svg>