<svg width="206" height="175" fill="none" xmlns="http://www.w3.org/2000/svg"><g clip-path="url(#clip0)"><path d="M32.263 121.832c-.77-.048-1.242-.588-1.2-1.208.041-.619.58-1.09 1.203-1.048.695.044 1.166.581 1.124 1.204a1.132 1.132 0 01-1.127 1.052zm4.15-.006a1.127 1.127 0 01-.074-2.25c.694-.045 1.232.422 1.274 1.045.041.62-.43 1.157-1.051 1.198-.099.007-.124.007-.15.007zm4.19-.531c-.526 0-.994-.366-1.105-.899a1.13 1.13 0 01.879-1.332c.659-.146 1.26.235 1.398.839a1.126 1.126 0 01-.85 1.347 1.533 1.533 0 01-.322.045zm-12.514-.083a.99.99 0 01-.274-.035c-.66-.152-1.038-.759-.895-1.366a1.13 1.13 0 011.356-.842c.695.171 1.06.785.911 1.388a1.136 1.136 0 01-1.098.855zm-3.955-1.455c-.179 0-.36-.042-.529-.13-.614-.325-.825-1.008-.532-1.558a1.13 1.13 0 011.526-.467c.614.324.824 1.008.531 1.557-.2.382-.592.598-.996.598zm-3.376-2.498c-.296 0-.592-.114-.812-.346-.487-.512-.465-1.227-.012-1.653a1.129 1.129 0 011.595.045c.474.492.462 1.207.013 1.639-.22.21-.5.315-.784.315zm-2.353-3.47c-.43 0-.837-.245-1.028-.658-.29-.623-.045-1.294.522-1.557a1.132 1.132 0 011.5.549c.293.639.041 1.307-.526 1.567a1.165 1.165 0 01-.468.099zm-1.204-4.02a1.132 1.132 0 01-1.114-.947c-.118-.668.29-1.253.904-1.361.615-.108 1.2.299 1.31.912.114.703-.303 1.281-.918 1.383-.06.006-.121.013-.181.013zm-.506-4.189c-.55 0-1.031-.4-1.114-.96-.096-.702.337-1.271.955-1.353a1.13 1.13 0 011.27.966c.1.673-.324 1.245-.942 1.338a1.635 1.635 0 01-.169.009zm-.729-4.157c-.525 0-.993-.365-1.105-.899-.134-.7.268-1.29.882-1.405a1.129 1.129 0 011.318.9c.137.664-.258 1.258-.869 1.385a1.3 1.3 0 01-.226.019zm-.895-4.125a1.13 1.13 0 01-1.098-.87c-.153-.693.232-1.294.84-1.427a1.128 1.128 0 011.344.858c.156.664-.223 1.268-.831 1.408a.98.98 0 01-.255.031zm117.962-3.575c-.685-.035-1.163-.565-1.128-1.185.039-.696.558-1.182 1.191-1.138a1.124 1.124 0 011.067 1.185c-.035.671-.532 1.138-1.13 1.138zm-118.952-.527a1.13 1.13 0 01-1.095-.858c-.17-.67.2-1.284.805-1.434a1.13 1.13 0 011.37.82c.168.677-.201 1.287-.81 1.437-.089.022-.18.035-.27.035zM133.262 89.5c-.685-.035-1.162-.566-1.127-1.186.038-.696.566-1.179 1.191-1.137.62.031 1.101.562 1.066 1.185-.035.67-.535 1.138-1.13 1.138zM13.03 89.106c-.5 0-.958-.334-1.092-.84-.175-.676.185-1.29.79-1.448a1.124 1.124 0 011.375.807c.175.667-.184 1.284-.786 1.443a1.11 1.11 0 01-.287.038zm120.455-3.826c-.685-.035-1.163-.566-1.128-1.186.039-.693.567-1.179 1.191-1.138a1.126 1.126 0 011.067 1.186c-.035.67-.535 1.138-1.13 1.138zm-121.54-.255c-.5 0-.96-.333-1.093-.839-.181-.66.172-1.28.774-1.443a1.13 1.13 0 011.388.789c.182.683-.178 1.3-.78 1.458a1.148 1.148 0 01-.29.035zm121.759-3.966c-.684-.035-1.162-.566-1.127-1.185.038-.693.564-1.18 1.191-1.138a1.126 1.126 0 011.067 1.185c-.035.674-.535 1.138-1.131 1.138zm-122.865-.108c-.493 0-.949-.327-1.085-.826-.182-.69.181-1.306.783-1.462a1.124 1.124 0 011.375.807c.182.652-.168 1.275-.77 1.44a1.118 1.118 0 01-.303.041zm-1.11-4.07c-.495 0-.95-.328-1.087-.827-.181-.686.179-1.303.78-1.462.602-.159 1.22.2 1.38.801.18.655-.17 1.278-.771 1.443a1.014 1.014 0 01-.303.044zm124.189-.039c-.669-.025-1.153-.55-1.127-1.172.038-.71.563-1.192 1.19-1.154a1.123 1.123 0 011.067 1.185c-.025.664-.525 1.141-1.13 1.141zM8.626 72.81c-.5 0-.958-.333-1.092-.839-.181-.66.172-1.28.774-1.446a1.124 1.124 0 011.385.788c.182.684-.178 1.3-.78 1.456a.992.992 0 01-.287.041zm125.499-.187c-.669-.026-1.153-.55-1.127-1.173.038-.709.563-1.195 1.19-1.15a1.123 1.123 0 011.067 1.185c-.025.661-.525 1.138-1.13 1.138zM7.54 68.729c-.5 0-.958-.334-1.092-.84-.175-.676.185-1.29.79-1.448a1.126 1.126 0 011.376.807c.178.667-.185 1.284-.787 1.443a1.125 1.125 0 01-.287.038zm126.785-.328c-.684-.034-1.162-.565-1.127-1.188.029-.677.557-1.166 1.175-1.138.624.026 1.108.55 1.083 1.17-.038.69-.535 1.156-1.131 1.156zM6.483 64.642a1.13 1.13 0 01-1.095-.858c-.172-.655.188-1.271.79-1.43.601-.159 1.22.2 1.378.8.172.694-.197 1.304-.802 1.453a1.006 1.006 0 01-.27.035zm128.024-.464c-.669-.025-1.153-.55-1.127-1.173.028-.692.56-1.179 1.175-1.153.624.025 1.108.55 1.082 1.17-.028.683-.528 1.156-1.13 1.156zM5.458 60.533c-.503 0-.959-.334-1.086-.845-.16-.645.207-1.272.812-1.42a1.117 1.117 0 011.363.81c.16.645-.207 1.27-.812 1.42a1.179 1.179 0 01-.277.035zm129.202-.582c-.653-.016-1.147-.534-1.131-1.156.019-.696.535-1.195 1.159-1.17a1.128 1.128 0 011.099 1.157c-.016.686-.519 1.17-1.127 1.17zM4.512 56.434c-.519 0-.987-.36-1.102-.887-.152-.661.223-1.268.832-1.408a1.129 1.129 0 011.356.842c.153.693-.232 1.294-.84 1.427a1.319 1.319 0 01-.246.026zm130.316-.703c-.713-.054-1.174-.597-1.127-1.217.067-.706.612-1.16 1.236-1.103a1.127 1.127 0 011.019 1.227c-.051.648-.545 1.093-1.128 1.093zM3.633 52.305c-.525 0-.993-.365-1.105-.899-.133-.7.268-1.29.882-1.405a1.129 1.129 0 011.319.9c.137.664-.258 1.258-.87 1.385a1.33 1.33 0 01-.226.02zm131.613-.772a1.126 1.126 0 01-1.121-1.249c.063-.677.611-1.131 1.235-1.074a1.127 1.127 0 011.019 1.227c-.073.67-.563 1.096-1.133 1.096zM2.863 48.155a1.128 1.128 0 01-1.112-.931c-.114-.702.303-1.28.92-1.38a1.128 1.128 0 011.297.932c.118.67-.293 1.255-.908 1.363a1.42 1.42 0 01-.197.016zm132.736-.823c-.7-.045-1.169-.582-1.127-1.201.044-.693.576-1.16 1.207-1.122a1.128 1.128 0 011.051 1.198c-.045.667-.542 1.125-1.131 1.125zM2.235 43.982a1.13 1.13 0 01-1.12-.991c-.09-.677.344-1.243.961-1.325a1.127 1.127 0 011.268.969c.086.702-.354 1.265-.975 1.338a.907.907 0 01-.134.01zm133.539-.864a1.133 1.133 0 01-1.13-1.14c.009-.69.512-1.186 1.13-1.186.64.01 1.137.518 1.131 1.14-.01.693-.513 1.186-1.131 1.186zM1.822 39.784c-.59 0-1.086-.457-1.125-1.052-.047-.692.424-1.23 1.045-1.27a1.125 1.125 0 011.204 1.048c.047.693-.424 1.23-1.048 1.271-.029 0-.054.003-.076.003zm133.86-.883a1.126 1.126 0 01-1.127-1.065c-.045-.68.426-1.217 1.047-1.258a1.131 1.131 0 011.201 1.048c.038.71-.44 1.24-1.061 1.272-.019.003-.038.003-.06.003zM1.732 35.554c-.652-.015-1.146-.52-1.13-1.144.019-.664.55-1.172 1.159-1.153a1.115 1.115 0 011.099 1.14c-.013.659-.516 1.157-1.128 1.157zm133.469-.839a1.13 1.13 0 01-1.111-.927c-.121-.687.29-1.272.904-1.38a1.13 1.13 0 011.309.916c.121.68-.287 1.268-.901 1.376-.067.01-.134.015-.201.015zM2.213 31.389a1.126 1.126 0 01-1.102-1.367c.16-.689.768-1.067 1.376-.927.608.14.984.747.844 1.354-.13.581-.599.94-1.118.94zm131.925-.747a1.13 1.13 0 01-1.061-.74c-.242-.648.057-1.293.643-1.513a1.129 1.129 0 011.452.664c.242.658-.06 1.303-.643 1.52-.13.047-.261.07-.391.07zM4.054 27.68a1.123 1.123 0 01-.812-1.907c.484-.502 1.197-.515 1.646-.083.449.432.462 1.144.029 1.592-.271.283-.567.398-.863.398zm128.122-.773a1.1 1.1 0 01-.885-.441c-.398-.531-.309-1.25.191-1.624a1.113 1.113 0 011.57.213c.398.53.305 1.249-.191 1.624a1.13 1.13 0 01-.685.228zM7.483 25.261a1.127 1.127 0 01-.51-2.132c.622-.315 1.3-.092 1.583.46.284.557.06 1.234-.496 1.517a1.21 1.21 0 01-.577.155zm121.627-1.179c-.198 0-.398-.05-.58-.162-.589-.343-.771-1.033-.455-1.57a1.13 1.13 0 011.544-.403c.608.365.78 1.058.459 1.589a1.122 1.122 0 01-.968.546zM11.393 23.68c-.477 0-.92-.302-1.073-.779a1.13 1.13 0 01.726-1.42c.656-.217 1.293.104 1.487.695a1.128 1.128 0 01-.716 1.424 1.26 1.26 0 01-.424.08zm113.771-.998c-.06 0-.121-.007-.181-.016-.682-.105-1.102-.683-1.006-1.297a1.13 1.13 0 011.289-.94c.694.11 1.111.69 1.013 1.306-.093.553-.57.947-1.115.947zM15.463 22.56a1.126 1.126 0 01-.255-2.225c.691-.155 1.29.226 1.427.833a1.128 1.128 0 01-.854 1.348 1.291 1.291 0 01-.318.044zm105.488-.076c-.726-.02-1.219-.537-1.2-1.16a1.118 1.118 0 011.159-1.097c.697.02 1.188.537 1.172 1.16a1.13 1.13 0 01-1.131 1.097zm-4.225-.188c-.758-.038-1.236-.569-1.201-1.191a1.125 1.125 0 011.188-1.065c.704.041 1.178.575 1.14 1.198a1.13 1.13 0 01-1.127 1.058zm-4.219-.248c-.764-.044-1.239-.578-1.201-1.198a1.135 1.135 0 011.194-1.058c.704.048 1.172.582 1.131 1.204a1.127 1.127 0 01-1.124 1.052zm-4.223-.263c-.764-.045-1.238-.579-1.2-1.198a1.134 1.134 0 011.194-1.059c.704.048 1.172.585 1.13 1.205a1.126 1.126 0 01-1.124 1.052zm-88.675-.051a1.127 1.127 0 01-.185-2.24c.678-.118 1.261.288 1.373.902.108.613-.3 1.198-.914 1.306-.15.028-.214.032-.274.032zm84.456-.216c-.764-.045-1.238-.579-1.2-1.198a1.13 1.13 0 011.194-1.059c.704.048 1.172.585 1.13 1.205a1.124 1.124 0 01-1.124 1.052zm-4.219-.261c-.764-.045-1.239-.578-1.2-1.198A1.13 1.13 0 0199.84 19c.694.041 1.168.575 1.13 1.198a1.123 1.123 0 01-1.124 1.058zm-76.06-.146a1.127 1.127 0 01-.143-2.244c.688-.089 1.252.343 1.334.96a1.128 1.128 0 01-.97 1.265 1.631 1.631 0 01-.22.019zm71.84-.102c-.763-.044-1.238-.578-1.2-1.198a1.13 1.13 0 011.195-1.058c.687.038 1.165.569 1.133 1.188a1.132 1.132 0 01-1.127 1.068zm-4.221-.238c-.758-.038-1.236-.569-1.2-1.192a1.124 1.124 0 011.187-1.064c.704.04 1.178.575 1.14 1.198a1.13 1.13 0 01-1.127 1.058zm-63.418-.137a1.125 1.125 0 01-.112-2.247c.698-.063 1.252.388 1.309 1.008.057.62-.398 1.17-1.019 1.226-.105.01-.143.013-.178.013zm59.198-.086c-.757-.038-1.235-.568-1.2-1.191a1.126 1.126 0 011.188-1.065c.688.032 1.168.56 1.14 1.182a1.131 1.131 0 01-1.128 1.074zm-4.222-.206c-.748-.035-1.229-.563-1.2-1.182a1.136 1.136 0 011.181-1.075c.694.032 1.178.56 1.146 1.183a1.129 1.129 0 01-1.127 1.074zm-50.767-.07a1.126 1.126 0 01-1.124-1.046 1.13 1.13 0 011.045-1.207c.694-.048 1.235.413 1.28 1.036a1.13 1.13 0 01-1.041 1.207c-.102.01-.131.01-.16.01zm46.542-.118c-.742-.028-1.226-.553-1.2-1.175a1.137 1.137 0 011.17-1.081c.705.032 1.186.56 1.157 1.182a1.127 1.127 0 01-1.127 1.074zm-42.323-.152a1.13 1.13 0 01-1.127-1.068 1.132 1.132 0 011.067-1.185c.697-.035 1.226.438 1.26 1.061a1.125 1.125 0 01-1.066 1.185 1.81 1.81 0 01-.134.007zm38.1-.013c-.735-.025-1.222-.547-1.2-1.166.019-.623.55-1.11 1.165-1.09.704.028 1.188.553 1.162 1.172a1.128 1.128 0 01-1.127 1.084zm-4.225-.14c-.736-.025-1.223-.543-1.2-1.166a1.132 1.132 0 011.165-1.09c.688.019 1.181.537 1.162 1.16a1.129 1.129 0 01-1.127 1.096zm-29.655-.038a1.13 1.13 0 01-1.128-1.08 1.123 1.123 0 011.083-1.17c.707-.016 1.226.464 1.245 1.087a1.127 1.127 0 01-1.092 1.163c-.077-.003-.093 0-.108 0zm25.426-.076c-.726-.02-1.22-.537-1.204-1.16a1.131 1.131 0 011.16-1.096c.687.012 1.184.527 1.171 1.15a1.13 1.13 0 01-1.127 1.106zm-21.2-.054a1.127 1.127 0 01-.029-2.253c.716-.004 1.219.486 1.232 1.102a1.13 1.13 0 01-1.105 1.15h-.099zm16.971-.032c-.71-.01-1.21-.521-1.203-1.144a1.13 1.13 0 011.127-1.112c.72.012 1.213.527 1.203 1.15a1.124 1.124 0 01-1.127 1.106zm-12.746-.041a1.126 1.126 0 01-.013-2.253c.707 0 1.213.498 1.216 1.118a1.127 1.127 0 01-1.12 1.135h-.083zm8.52-.013c-.703-.006-1.206-.512-1.2-1.134.004-.623.5-1.122 1.137-1.12.704.01 1.204.522 1.194 1.142a1.128 1.128 0 01-1.13 1.112zm-4.292-.016a1.129 1.129 0 010-2.256c.694 0 1.198.499 1.2 1.118a1.127 1.127 0 01-1.12 1.135l-.08.003z" fill="#76ACDE"/><path fill-rule="evenodd" clip-rule="evenodd" d="M97.36 38.237L97.355.003 59.237 0v10.881c-4.582 0-8.27 3.68-8.27 8.225 0 4.624 3.688 8.307 8.239 8.307.031 0 .034 10.82.034 10.82l38.12.004zM21.6 39.705c0-4.541 3.686-8.221 8.234-8.221 4.556 0 8.24 3.68 8.244 8.221 0 .01 11.804.013 11.804.013l-.003-10.812c-4.535-.015-8.206-3.692-8.206-8.224 0-4.608 3.671-8.285 8.206-8.3V1.51H11.773l.003 38.208h9.826v-.013H21.6zM36.836 47.294l-11.41 3.064c-1.187-4.44-5.709-7.059-10.106-5.877-4.398 1.183-7.01 5.714-5.83 10.122.009.032-9.49 2.58-9.49 2.58l9.874 36.935 36.836-9.893-9.874-36.931z" fill="#BBB"/><path fill-rule="evenodd" clip-rule="evenodd" d="M33.858 43.468h106.358c4.805 0 8.703 3.89 8.703 8.685v97.263c0 4.796-3.895 8.686-8.703 8.686H33.858c-4.808 0-8.702-3.89-8.702-8.686V52.15c0-4.796 3.894-8.682 8.702-8.682z" fill="#fff"/><path fill-rule="evenodd" clip-rule="evenodd" d="M36.839 41.43h106.386c4.805 0 8.703 3.887 8.703 8.686v97.273c0 4.796-3.898 8.685-8.703 8.685H36.839c-4.805 0-8.703-3.886-8.703-8.685V50.116c0-4.796 3.898-8.685 8.703-8.685z" fill="#EAECFF"/><path fill-rule="evenodd" clip-rule="evenodd" d="M35.275 45.908h109.469c3.939 0 7.13 3.188 7.13 7.119 0 3.93.882 5.885-1.427 5.965l-119.451-.34c-3.94 0-2.854-1.697-2.854-5.625.004-3.934 3.198-7.119 7.133-7.119z" fill="#B7BAFD"/><path d="M140.356 64.162h-1.493a.833.833 0 110-1.665h1.493a.832.832 0 110 1.665zM142.735 70.534h-11.887a.832.832 0 110-1.665h11.887a.832.832 0 110 1.665zM143.925 77.583h-19.701a.832.832 0 110-1.665h19.701a.833.833 0 110 1.665zM137.437 83.958h-13.244a.832.832 0 110-1.665h13.244a.832.832 0 110 1.665zM143.926 90.193h-19.704a.832.832 0 110-1.666h19.704a.832.832 0 110 1.666zM144.025 96.564h-12.636a.832.832 0 110-1.665h12.636a.832.832 0 110 1.665zM143.926 103.616h-19.704a.832.832 0 110-1.665h19.704a.832.832 0 110 1.665zM137.436 109.988H124.19a.833.833 0 110-1.665h13.246a.833.833 0 110 1.665zM136.149 64.162h-11.954a.832.832 0 110-1.665h11.954a.832.832 0 110 1.665zM126.431 70.534h-2.241a.833.833 0 110-1.665h2.241a.833.833 0 110 1.665z" fill="#DAD9FF"/><path d="M143.925 77.583h-19.701a.832.832 0 110-1.665h19.701a.833.833 0 110 1.665zM143.926 90.193h-19.704a.832.832 0 110-1.666h19.704a.832.832 0 110 1.666zM127.384 96.564h-3.194a.833.833 0 110-1.665h3.194a.832.832 0 110 1.665zM143.926 103.616h-19.704a.832.832 0 110-1.665h19.704a.832.832 0 110 1.665zM143.958 109.988h-3.601a.833.833 0 110-1.665h3.601a.832.832 0 110 1.665zM143.958 83.958h-3.598a.833.833 0 110-1.665h3.598a.832.832 0 110 1.665z" fill="#DAD9FF"/><path d="M140.213 158.934H33.858c-5.26 0-9.537-4.271-9.537-9.518V52.15c0-5.247 4.28-9.518 9.537-9.518h106.358c5.257 0 9.537 4.268 9.537 9.518v97.263c-.003 5.25-4.283 9.521-9.54 9.521zM33.858 44.3c-4.34 0-7.868 3.521-7.868 7.853v97.263c0 4.332 3.528 7.853 7.868 7.853h106.358c4.337 0 7.868-3.521 7.868-7.853V52.15c0-4.329-3.528-7.853-7.868-7.853H33.858v.003z" fill="#76ACDE"/><path fill-rule="evenodd" clip-rule="evenodd" d="M149.727 80.195l.007-4.653s-6.168-2.58-8.321-11.386c-2.152-8.806 4.047-20.93 6.455-24.39 2.407-3.462 7.613-9.554 7.613-9.554s-6.043-3.317-3.48-9.336c2.563-6.02 3.866-5.92 6.165-5.282 2.299.639 4.716 1.665 4.716 1.665s2.069-7.897 7.107-5.933c5.034 1.96 9.575 6.658 9.575 6.658s2.942-1.821 7.76 3.909c4.818 5.73 12.317 12.95 13.778 14.837 1.462 1.888 2.898 8.657-.869 13.027-3.764 4.37-15.883 13.824-15.883 13.824s2.232 3.797-1.089 6.006c-3.318 2.212-9.282-.579-9.282-.579l-3.191 2.39s-.29 2.899 2.465 3.91c2.754 1.01 21.252 7.502 26.108 18.021 5.168 11.199 6.304 22.084 5.222 40.964-1.086 18.88-.799 30.396-.799 30.396h-23.86s-4.149 7.373-28.646 7.745c-24.493.372-58.947-1.459-66.21-2.606-7.264-1.144-18.339-.654-20.67-1.881-2.33-1.227-2.827-2.171-2.827-2.171s-8.298-7.379-2.032-6.947c6.267.433 15.02 2.257 21.755.363 6.738-1.894 13.126-4.85 13.126-4.85s-1.818-2.558-6.311-4.849c-4.49-2.292-9.888-7.237-1.522-6.369 9.183.95 19.943 9.41 19.943 9.41s17.64-1.605 28.719-3.184c11.078-1.577 15.23-2.533 15.23-2.533l-.752-66.622z" fill="#fff"/><path fill-rule="evenodd" clip-rule="evenodd" d="M148.849 78.854s6.531 8.79 15.281 6.238c8.728-2.549 10.661-8.272 10.664-8.272 0 0 22.538 3.245 27.035 22.17 4.496 18.924.748 66.637.748 66.637H177.31c.245.407 3.878-1.392 9.712-11.593.85-1.484 2.649-7.322 2.649-7.322s-5.181-11.888-12.498-14.777c-7.318-2.889-17.931-4.068-17.931-4.068l-8.219 18.508-2.241.407.067-67.928z" fill="#EC5252"/><path fill-rule="evenodd" clip-rule="evenodd" d="M181.258 62.974s-3.108 1.316-4.346-.066c-1.239-1.386-1.905-1.392-.408-3.525 1.497-2.132 3.742-5.345 4.347-7.525.605-2.18-.137-6.645-.137-6.645s-3.85 1.271-5.91-.54c-2.061-1.815-3.194-4.001-3.194-4.001s-9.101.797-11.209-1.56c-2.108-2.359.612-6.576.612-6.576s-6.172-1.916-7.474-3.59c-1.302-1.676-.436-8.413 3.598-10.914 2.844-1.76 5.945-.512 6.726.814 0 0 1.273-6.102 5.639-4.611 4.362 1.493 5.534 5.748 7.54 6.168 2.006.42 7.095.133 10.257 5.898s6.919 8.625 9.645 11.39c2.576 2.612 4.48 7.61 1.901 12.133-2.462 4.319-14.603 14.37-14.603 14.37l-2.984-1.22z" fill="#A89AFF"/><path fill-rule="evenodd" clip-rule="evenodd" d="M165.423 51.127c1.013 0 1.834.82 1.834 1.83v2.034c0 1.01-.821 1.83-1.834 1.83a1.832 1.832 0 01-1.834-1.83v-2.034c0-1.01.821-1.83 1.834-1.83zM151.632 43.804c1.013 0 1.834.82 1.834 1.83v2.035c0 1.01-.821 1.83-1.834 1.83a1.832 1.832 0 01-1.834-1.83v-2.034a1.834 1.834 0 011.834-1.83z" fill="#000"/><path fill-rule="evenodd" clip-rule="evenodd" d="M122.63 42.444S90.322 29.752 79.336 28.766c-10.986-.985-17.494.929-18.71 6.3-1.217 5.367-2.153 11.465 1.162 13.604 3.311 2.142 6.67 2.39 6.67 2.39s2.883 2.075 3.99 1.156c1.109-.918 1.743-1.449 1.743-1.449s2.05 2.307 3.553 1.014c1.503-1.293 2.322-5.066 2.322-5.066s1.649.137 2.61-.073c.959-.21 6.84-3.483 9.43-2.17 2.588 1.312 6.275 2.736 9.065 1.376 2.789-1.36 6.528-3.327 6.528-3.327l14.931-.077z" fill="#fff"/><path d="M148.915 147.106a.833.833 0 01-.834-.833V76.61c0-.46.373-.832.834-.832.462 0 .835.371.835.832v69.663a.833.833 0 01-.835.833z" fill="#76ACDE"/><path d="M38.83 48.033l-5.233 5.218 1.18 1.178 5.233-5.217-1.18-1.179z" fill="#EAECFF"/><path d="M34.779 48.031l-1.18 1.178 5.23 5.22 1.18-1.178-5.23-5.22z" fill="#EAECFF"/><path fill-rule="evenodd" clip-rule="evenodd" d="M46.041 48.212a3.02 3.02 0 013.022 3.016 3.02 3.02 0 01-3.022 3.016 3.02 3.02 0 01-3.021-3.016 3.02 3.02 0 013.021-3.016z" fill="#EAECFF"/><path d="M118.283 146.28a1.087 1.087 0 01-1.089-1.087V58.019c0-.6.487-1.086 1.089-1.086s1.089.486 1.089 1.087v87.173a1.091 1.091 0 01-1.089 1.087z" fill="#BDBBEF"/><path d="M140.356 56.939H18.838v1.665h121.518V56.94z" fill="#76ACDE"/><path d="M39.217 73.108h-7.814a.832.832 0 01-.834-.833V64.48c0-.46.372-.833.834-.833h7.811c.462 0 .834.372.834.833v7.795a.83.83 0 01-.83.833zm-6.98-1.662h6.146v-6.13h-6.146v6.13zM100.145 68.094h-54.34a.832.832 0 110-1.666h54.34a.832.832 0 110 1.666zM100.145 74.465h-54.34a.832.832 0 110-1.665h54.34a.832.832 0 110 1.665zM100.145 81.517h-54.34a.832.832 0 110-1.665h54.34a.832.832 0 110 1.665zM100.145 87.889h-54.34a.832.832 0 110-1.666h54.34a.832.832 0 110 1.666z" fill="#DAD9FF"/><path fill-rule="evenodd" clip-rule="evenodd" d="M46.484 92.074h53.661v34.029H46.484V92.074z" fill="#DAD9FF"/><path d="M100.823 133.038h-54.34a.832.832 0 110-1.666h54.34a.833.833 0 110 1.666zM100.823 139.409h-54.34a.832.832 0 110-1.665h54.34a.833.833 0 110 1.665zM39.963 140.833h-7.811a.832.832 0 01-.835-.833v-7.795c0-.461.373-.833.835-.833h7.81c.462 0 .835.372.835.833V140a.832.832 0 01-.834.833zm-6.977-1.665h6.142v-6.13h-6.142v6.13z" fill="#DAD9FF"/><path fill-rule="evenodd" clip-rule="evenodd" d="M205.213 106.251c-1.541-8.708-6.025-15.493-11.021-20.479-4.095-4.087-8.358-7.408-14.431-9.264-1.773-.543-4.687-.81-6.091-1.808-.927-.658-1.073-1.557-1.596-2.968.481-.464 1.045-.839 1.596-1.23 4.776 4.31 13.552.998 12.256-5.933 3.952-3.324 8.145-6.324 11.82-10.131 3.232-3.35 7.015-9.385 4.859-15.922-.844-2.561-2.735-4.538-4.569-6.368-1.863-1.86-3.876-3.617-5.439-5.574-3.254-4.074-5.795-9.29-12.763-9.264-2.248-2.889-4.821-7.357-10.298-6.874-3.521.309-5.782 2.514-6.451 5.933-1.923-1.083-4.671-2.52-7.397-1.738-4.936 1.42-7.12 10.125-3.554 14.256.545.633 1.246 1.043 1.886 1.665-1.214 1.275-2.261 2.715-3.554 3.91-1.296-.474-3.28-.582-3.117.94.079.763.786.979 1.668 1.087-3.05 4.007-5.681 8.364-7.687 13.605-1.923 5.024-2.948 12.435-.579 17.802 2.082 4.72 6.948 7.907 12.399 8.902 6.859 1.249 12.613-1.11 16.966-3.763.548 2.155 1.834 3.572 3.77 4.341-3.381 3.626-6.454 7.236-13.195 7.236-5.344 0-8.028-2.151-10.515-4.85-.067-.072-.376-.482-.449-.575l.038 3.436c2.793 2.548 6.608 4.497 11.798 4.303 6.483-.242 10.276-3.791 13.485-7.31.43-.47.924-1.503 1.449-1.592.573-.098 1.293.296 1.812.436.57.152 1.003.27 1.739.508-1.516 2.444-3.471 4.395-5.729 6.223-.63.511-1.974 1.191-1.812 2.243.058.369.449.81.943.868 1.038.124 2.111-1.132 2.681-1.592 2.49-2.012 4.5-4.567 6.235-6.804 6.114 3.26 11.068 7.462 14.791 12.883 1.879 2.736 3.589 5.736 4.639 9.191 3.325 10.906 1.163 25.811.58 38.281-.29 6.254-.506 13.506-.506 20.189 0 1.894-.379 5.978.652 6.296.672.206 1.379-.197 1.449-.29.421-.54.147-2.847.147-3.762 0-4.062.073-7.932.146-11.65.105-5.374.37-10.144.653-15.124.557-9.674 1.955-20.298.296-29.669zm-38.501-33.94c-2.522 1.34-6.018 2.516-9.715 2.532-4.671.02-8.795-1.687-11.53-4.268-2.818-2.66-4.149-6.67-3.771-11.796.348-4.71 1.86-8.65 3.624-12.159 1.758-3.49 3.783-6.578 6.235-9.48 3.251 1.475 5.713 4.065 6.018 8.034.3 3.87-1.541 6.254-4.279 7.526-.812.378-2.299.692-2.612 1.375-.305.674-.089 1.742 0 2.822.086 1.03.223 1.863 1.16 1.882 1.604.035 1.104-2.063 1.015-3.4 4.159-1.443 7.337-4.51 7.034-9.989-.277-4.995-3.286-8.367-6.887-10.058a16.931 16.931 0 013.264-3.62c1.136.506 2.286 1.002 3.697 1.23-.08.61-.478 1.135-.653 1.809-1.681 6.508 6.005 7.7 11.82 6.657 1.232 3.455 4.49 5.26 9.355 4.85.29 1.242.436 2.04.436 3.111-.009 4.201-3.732 5.962-5.149 9.117-.563 1.259-.436 4.481 1.233 4.56.557.026 1.073-.396 1.159-.724.271-1.007-.513-1.226-.436-2.316.086-1.16 1.55-2.482 2.467-3.547 1.717-1.999 3.217-4.077 2.975-8.107-.102-1.65-.43-3.947-1.233-4.34-.497-.246-1.181-.033-1.885 0-3.181.139-5.423-.738-6.524-2.823-.449-.852-.548-1.862-1.233-2.097-.643-.223-1.936.13-2.901.216-2.971.264-7.037.133-7.83-1.955-.958-2.52 1.704-3.785 1.449-5.281-.159-.941-1.446-1.097-2.321-1.303-3.573-.842-7.665-2.425-8.05-6.369-.312-3.194 1.407-7.354 4.28-7.671 2.366-.264 4.34 1.128 5.801 2.1.717.477 2.182 1.672 2.685.216.194-.562-.147-1.21-.147-1.665-.003-2.742 2.366-5.066 5.802-4.63 1.996.25 3.267 1.598 4.423 2.749a16.57 16.57 0 011.668 1.954c.459.652.87 1.726 1.523 2.028.761.35 2.098.228 2.9.362 3.557.591 5.363 3.025 7.181 5.428 1.411 1.865 2.608 3.543 4.206 5.139 1.484 1.48 3.216 2.99 4.713 4.63 1.487 1.627 2.837 3.569 3.117 6.222.599 5.654-2.862 9.807-5.801 12.737-3.223 3.216-6.589 5.368-10.225 8.466-.729-.87-5.604-1.519-5.512.579.08 1.77 3.102.378 4.06 1.23.685.61.56 2.332.146 3.257-.611 1.363-2.894 3.044-5.292 2.606-.872-.16-2.318-.668-2.827-1.23-.274-.302-.319-1.278-1.089-1.376-.707-.092-1.363.677-1.959 1.157-1.681 1.357-3.741 2.64-5.585 3.623zM63.24 47.996c-1.29-4.868.952-9.982 2.754-13.388.458-.865 1.047-2.654 2.175-2.606 2.117.092.347 2.625-.217 3.692-1.372 2.587-3.034 6.26-2.828 9.985.125 2.235.797 3.858 3.045 4.198-1.303-4.948.742-10.36 2.827-13.75.478-.776 1.261-2.568 2.248-2.606.36-.013 1.058.305 1.163.794.188.89-.484 1.373-.87 1.955-1.824 2.748-4.61 7.77-3.117 12.81.363 1.23.965 2.313 2.465 1.373-.64-5.161 1.512-9.417 3.48-12.954.58-1.042 1.213-2.758 2.248-2.748.417.003 1.006.406 1.09.867.11.62-.399 1.246-.654 1.665a41.253 41.253 0 00-2.321 4.414c-.943 2.11-1.965 4.535-1.739 7.237.086 1.036.526 2.53 2.102 2.17 1.029-.235 1.223-2.352 1.522-3.257.449-1.357.924-2.107 1.595-3.111.446-4.106 3.726-5.867 7.468-7.02 1.108-.344 2.824-.735 2.537 1.013-.127.77-1.095.871-2.028 1.157-2.137.655-4.79 1.935-5.512 3.836a3.186 3.186 0 00-.073 2.097c2.557-.629 4.509-2.663 7.903-2.679 2.751-.012 5.292 1.376 7.977 1.376 2.856 0 5.251-1.41 7.107-2.605.748-.48 2.213-.795 2.248.578.029 1.153-1.939 1.992-2.974 2.533a16.263 16.263 0 01-4.06 1.446c-3.78.813-6.232-.74-9.355-1.014-2.264-.197-3.71.556-5.22 1.303-1.48.73-3.301 2.046-5.148.94-.733 1.38-.612 3.048-1.522 4.341-1.099 1.56-4.01 1.815-5.586.363-1.114.791-3.687.956-4.496-.216-2.028.257-3.114-.696-4.276-1.087-1.2-.404-2.06-.423-2.974-.94-4.5-2.562-4.602-10.335-2.175-15.27 2.315-4.704 6.709-7.285 13.415-7.6 5.315-.25 10.161.729 14.358 1.955 4.194 1.227 8.082 2.794 11.963 4.271 6.748 2.565 13.855 5.025 20.739 7.672 1.112.429 2.424.654 2.465 1.592.105 2.279-3.401.439-4.786-.073-9.457-3.493-18.083-6.928-27.843-10.277-5.436-1.863-11.897-3.553-18.708-2.68-3.13.4-5.798 1.37-7.613 3.258-2.468 2.565-4.703 8.67-2.395 13.242.376.76.611 1.224 1.595 1.748z" fill="#000"/><path fill-rule="evenodd" clip-rule="evenodd" d="M165.044 45.244a6.06 6.06 0 011.086-.073c3.977.276 6.486 1.913 7.903 4.992.503 1.094 1.952 4.79-.143 4.777-1.331-.01-1.331-2.19-1.742-3.258-.357-.93-.71-1.77-1.449-2.46-1.35-1.258-3.003-1.518-4.929-1.808-.764-.114-1.277-.19-1.452-.724-.201-.617.041-1.23.726-1.446zM158.735 65.869c-2.4-.54-4.493-.925-6.524-2.025-.608-.33-1.465-.66-1.595-1.23-.144-.628.21-1.413.872-1.445.917-.045 1.465.588 2.391 1.014.72.327 1.602.584 2.538.797 2.385.534 5.28.43 4.93 2.895-.274 1.932-3.029 3.378-5.219 3.547-2.548.197-5.121-.436-5.149-1.665-.048-2.076 3.238-.458 5.149-.652 1.382-.146 1.85-.693 2.607-1.236zM176.574 65.507c.688-.156 4.426.152 4.859.867a1.19 1.19 0 01-.873 1.808c-.668.083-3.939-.333-4.423-.651-.897-.588-.391-1.837.437-2.025zM162.579 89.75c-.583.096-2.124.242-3.044.29-4.385.235-7.534-1.589-9.776-3.582v3.039c2.248 1.633 5.184 2.86 9.123 2.86 2.032 0 5.773.01 5.729-1.665-.032-1.097-1.118-1.094-2.032-.941zM163.448 118.988c7.987-.213 13.699 1.983 18.635 5.065.678.423 1.64.951 1.379 1.955-.093.362-.52.693-1.016.721-.643.041-.87-.324-1.159-.505-4.869-3.016-10.598-5.431-18.708-4.85-.866 1.596-1.449 3.477-2.175 5.212 15.001.76 24.936 6.34 29.655 17.368.644-1.17 1.115-2.505 1.669-3.763-.697-2.692-1.646-4.955-3.191-7.093-.497-.687-2.226-2.673-.29-2.968 1.36-.21 2.414 2.043 2.901 2.822.882 1.411 1.484 2.485 1.885 3.835 1.965-4.201 3.554-8.691 5.293-13.388.417-1.125.974-3.919 2.248-3.909 2.044.016.356 3.651.073 4.414-3.984 10.71-8.416 22.099-13.485 31.77-2.939 5.602-6.49 10.693-11.964 13.894-5.117 2.99-13.66 3.921-21.535 4.341-21.366 1.141-41.303-1.72-61.415-2.749-4.073-.21-8.254-.235-12.473-.436-6.435-.305-12.492-.203-16.896-2.532-1.327-.703-2.808-1.767-3.626-2.822-.179-.229-.195-.661-.437-1.014-.369-.537-1.229-.922-1.595-1.592-1.305-2.4.105-4.713 2.611-4.993 2.952-.33 5.993.451 8.993.722 9.817.893 17.551-1.361 24.146-4.488-2.28-3.785-8.295-3.292-10.878-6.804-.942-1.284-1.461-3.673.217-4.63 2.076-1.188 6.289-.098 8.483.436 5.219 1.264 9.428 3.565 13.052 6.511.554.451 1.5 1.611 2.102 1.738.668.14 1.866-.155 2.827-.216 13.967-.88 27.863-2.291 40.533-4.268 2.165-4.754 4.171-9.495 6.235-14.402.672-1.595 1.452-3.232 1.812-4.993 1.031-1.633 1.748-3.734 2.538-5.717 1.904-4.789 3.872-9.724 5.801-14.834.408-1.081.72-2.768 1.669-2.895 2.429-.324.602 3.41.216 4.414-1.353 3.546-2.904 7.315-4.13 10.643zm-11.31 27.352c1.188-.314 2.713-.394 2.684.941-.032 1.411-3.28 1.519-4.859 1.735-13.342 1.834-27.808 3.651-41.765 4.414-.073.397.978.944.869 1.808-.057.461-.509.954-1.159.941-.863-.019-1.754-1.462-2.394-2.097-3.917-3.909-8.429-6.874-14.285-8.54-2.347-.667-4.951-1.385-7.76-.94.315 1.315 1.016 1.98 2.102 2.606 2.308 1.325 6.069 1.954 8.123 3.982.888.88 1.776 2.151 2.391 3.616.373.887 1.73 4.09-.363 3.982-1.305-.067-1.089-1.741-1.595-2.749-4.875 1.99-9.649 4.055-15.953 4.777-4.904.562-9.97-.102-14.648-.579-1.35-.136-4.073-.581-4.423.432-.541 1.577 2.293 2.381 3.624 2.679 3.859.868 6.995 1.17 11.53 1.376 1.98.089 5.241-.375 5.219 1.23-.016 1.386-1.844 1.109-3.334 1.087-4.544-.07-9.034-.639-12.546-1.087 4.48 2.381 10.728 2.46 17.039 2.46 6.187 0 12.82.562 18.634.941 12.314.801 24.497 1.894 36.693 2.459 9.53.442 19.417.086 27.77-1.229 2.805-.442 5.642-.903 7.976-1.809 4.627-1.798 7.719-5.348 10.368-9.19 2.701-3.915 4.739-8.241 6.745-12.807-2.411-5.508-5.414-10.211-10.368-13.173-4.949-2.955-11.263-4.325-18.924-4.703-2.513 5.761-4.946 11.606-7.391 17.437z" fill="#000"/></g><defs><clipPath id="clip0"><path fill="#fff" d="M0 0h206v174.179H0z"/></clipPath></defs></svg>