<svg width="201" height="189" fill="none" xmlns="http://www.w3.org/2000/svg"><g clip-path="url(#clip0)"><path d="M72.555 169.469a1.155 1.155 0 01-1.155-1.122 1.125 1.125 0 011.11-1.154c.683 0 1.206.498 1.216 1.123a1.124 1.124 0 01-1.11 1.153h-.061zm-4.216-.085c-.752-.031-1.24-.563-1.212-1.192a1.147 1.147 0 011.185-1.092c.718.038 1.199.577 1.164 1.206a1.141 1.141 0 01-1.137 1.078zm8.448-.052c-.594 0-1.093-.46-1.137-1.061a1.138 1.138 0 011.058-1.215c.756-.007 1.257.463 1.292 1.068a1.14 1.14 0 01-1.076 1.201 1.41 1.41 0 01-.137.007zm-12.697-.285c-.041 0-.086-.003-.13-.007-.698-.079-1.148-.642-1.08-1.267a1.138 1.138 0 011.258-1.006c.7.079 1.15.642 1.078 1.267a1.136 1.136 0 01-1.126 1.013zm16.95-.058a1.14 1.14 0 01-.11-2.273c.69-.076 1.247.374 1.32.999a1.139 1.139 0 01-1.007 1.257c-.127.013-.165.017-.203.017zm4.232-.536a1.138 1.138 0 01-.154-2.266c.68-.103 1.26.323 1.357.944a1.141 1.141 0 01-.952 1.302c-.148.017-.2.02-.25.02zm-25.401-.02c-.069 0-.137-.007-.206-.018-.694-.127-1.103-.724-.986-1.342a1.144 1.144 0 011.33-.913c.687.127 1.099.721.985 1.339a1.149 1.149 0 01-1.123.934zm29.61-.69a1.138 1.138 0 01-.223-2.256c.707-.131 1.301.278 1.418.899a1.14 1.14 0 01-.917 1.326c-.13.024-.206.031-.278.031zm-33.774-.231c-.092 0-.189-.01-.285-.037-.697-.189-1.054-.817-.886-1.425a1.142 1.142 0 011.401-.797c.663.172 1.031.79.873 1.401a1.142 1.142 0 01-1.103.858zm37.951-.645a1.14 1.14 0 01-.254-2.249c.684-.158 1.295.227 1.436.841a1.136 1.136 0 01-.856 1.363 1.442 1.442 0 01-.326.045zm-42.029-.604a1.1 1.1 0 01-.377-.066c-.667-.236-.976-.889-.763-1.483a1.14 1.14 0 011.457-.686c.656.233.968.882.759 1.476a1.14 1.14 0 01-1.075.759zm46.169-.429a1.139 1.139 0 01-.282-2.242c.66-.182 1.288.175 1.453.782a1.138 1.138 0 01-.797 1.401 1.403 1.403 0 01-.374.059zm-50.116-1.175c-.161 0-.323-.034-.477-.106-.64-.295-.887-.972-.622-1.542a1.14 1.14 0 011.511-.556c.64.295.887.972.626 1.542a1.144 1.144 0 01-1.038.662zm54.214-.02a1.138 1.138 0 01-.33-2.228c.65-.21 1.292.12 1.488.717a1.141 1.141 0 01-.735 1.435 1.346 1.346 0 01-.423.076zm4.044-1.38a1.14 1.14 0 01-.409-2.201c.653-.254 1.312.034 1.542.621a1.138 1.138 0 01-.646 1.477c-.213.075-.35.103-.487.103zm-62.037-.567c-.195 0-.391-.048-.57-.154-.615-.368-.794-1.065-.47-1.607a1.142 1.142 0 011.563-.395c.594.347.78 1.044.463 1.586-.21.368-.594.57-.986.57zm-3.562-2.338c-.237 0-.474-.072-.677-.223-.56-.405-.673-1.116-.302-1.628a1.14 1.14 0 011.59-.254c.574.426.68 1.14.306 1.645-.227.302-.57.46-.917.46zm-3.302-2.692c-.271 0-.546-.096-.766-.295-.522-.474-.556-1.191-.134-1.658a1.14 1.14 0 011.611-.079c.52.47.557 1.191.135 1.658a1.146 1.146 0 01-.846.374zm-2.927-3.093c-.333 0-.663-.144-.89-.426-.443-.56-.357-1.274.138-1.665a1.137 1.137 0 011.601.189c.433.539.357 1.256-.134 1.651a1.15 1.15 0 01-.715.251zm-2.336-3.557c-.412 0-.81-.223-1.013-.618-.323-.608-.113-1.298.443-1.593a1.143 1.143 0 011.543.47c.33.639.11 1.325-.45 1.614a1.108 1.108 0 01-.523.127zm25.281-.628c-.628 0-1.14-.512-1.14-1.14 0-.629.512-1.14 1.14-1.14.698 0 1.206.498 1.213 1.123a1.136 1.136 0 01-1.123 1.153l-.09.004zm-4.18-.23c-.797-.083-1.261-.646-1.193-1.271a1.124 1.124 0 011.244-1.009c.67.079 1.134.645 1.062 1.27a1.123 1.123 0 01-1.113 1.01zm8.43-.093a1.14 1.14 0 01-.172-2.266c.711-.1 1.285.333 1.374.958a1.138 1.138 0 01-.968 1.287 1.58 1.58 0 01-.234.021zm-12.622-.673c-.089 0-.178-.01-.271-.031-.7-.182-1.065-.803-.904-1.411a1.141 1.141 0 011.392-.814c.663.162 1.04.776.89 1.387a1.142 1.142 0 01-1.107.869zm16.786-.234a1.138 1.138 0 01-.316-2.231c.66-.199 1.295.141 1.477.741a1.142 1.142 0 01-.76 1.422 1.34 1.34 0 01-.401.068zm-20.85-1.05c-.137 0-.275-.024-.412-.079-.646-.24-.945-.896-.725-1.487a1.14 1.14 0 011.467-.669c.67.257.962.92.732 1.504a1.135 1.135 0 01-1.062.731zm24.831-.471a1.139 1.139 0 01-.511-2.156c.652-.312 1.332-.072 1.604.498.271.567.03 1.246-.54 1.518a1.26 1.26 0 01-.553.14zm-39.204-.604c-.505 0-.962-.329-1.093-.841-.168-.652.196-1.287.804-1.445a1.13 1.13 0 011.384.806c.169.653-.195 1.288-.803 1.446-.1.02-.2.034-.292.034zm10.495-.693c-.175 0-.354-.042-.522-.127-.626-.323-.845-1.01-.557-1.569a1.14 1.14 0 011.536-.491c.625.322.845 1.009.556 1.569a1.138 1.138 0 01-1.013.618zm32.375-.872a1.14 1.14 0 01-.68-2.054c.58-.418 1.291-.305 1.662.203a1.138 1.138 0 01-.254 1.59c-.254.188-.495.261-.728.261zm-36.127-1.151a1.12 1.12 0 01-.563-.151c-.608-.343-.8-1.037-.491-1.586a1.139 1.139 0 011.552-.432c.615.35.804 1.047.495 1.593-.213.37-.598.576-.993.576zm-7.262-1.49c-.629 0-1.14-.511-1.14-1.14 0-.693.511-1.208 1.14-1.208.629 0 1.14.505 1.14 1.136 0 .701-.511 1.212-1.14 1.212zm46.563-.188a1.139 1.139 0 01-.845-1.906c.46-.518 1.178-.56 1.653-.141.47.419.511 1.137.092 1.607-.281.312-.59.44-.9.44zm-42.96-.509c-.206 0-.412-.055-.6-.171-.605-.385-.76-1.089-.42-1.621a1.14 1.14 0 011.574-.347c.584.364.749 1.068.415 1.6a1.131 1.131 0 01-.968.539zm-3.548-2.358c-.223 0-.45-.066-.65-.203-.584-.415-.704-1.126-.34-1.638.08-.109.172-.202.279-.274a1.137 1.137 0 01.014-.443c.14-.67.745-1.064 1.363-.934.615.13 1.01.735.88 1.349-.083.357-.234.584-.436.738a1.14 1.14 0 01-1.11 1.405zm48.968-.601a1.14 1.14 0 01-1.003-1.676c.337-.624 1.027-.83 1.584-.532.553.299.759.989.46 1.545-.237.443-.632.663-1.041.663zm-52.397-1.943c-.244 0-.488-.079-.694-.244-.546-.422-.639-1.137-.254-1.638a1.14 1.14 0 011.598-.206c.546.433.635 1.154.247 1.648-.227.289-.563.44-.897.44zm53.926-2.019a1.136 1.136 0 01-1.11-1.391c.168-.697.787-1.074 1.398-.923.612.147.986.765.838 1.376-.137.581-.608.938-1.126.938zm-48.759-.646a1.136 1.136 0 01-1.04-1.596c.267-.635.94-.903 1.518-.659.58.247.848.913.604 1.493-.223.508-.642.762-1.082.762zm-8.423-.072a1.14 1.14 0 01-.756-.288c-.53-.477-.564-1.198-.141-1.665a1.14 1.14 0 011.611-.079c.519.46.56 1.181.141 1.651a1.15 1.15 0 01-.855.381zm-3.085-2.935c-.292 0-.584-.11-.808-.333-.498-.508-.491-1.229-.044-1.672a1.143 1.143 0 011.61.013c.489.491.489 1.212.046 1.655-.22.227-.512.337-.804.337zm60.737-.57c-.622 0-1.13-.502-1.14-1.123-.01-.704.495-1.219 1.123-1.229a1.14 1.14 0 011.154 1.123c.01.703-.494 1.218-1.123 1.229h-.014zm-47.233-.199c-.203 0-.409-.055-.59-.169a1.123 1.123 0 01-.372-1.555c.354-.57 1.065-.745 1.601-.415.536.333.704 1.023.371 1.555-.24.388-.622.584-1.01.584zm-16.39-2.366c-.323 0-.643-.134-.866-.398-.457-.536-.398-1.253.08-1.662a1.14 1.14 0 011.607.127c.457.536.402 1.253-.08 1.662a1.151 1.151 0 01-.741.271zm18.905-1.061a1.139 1.139 0 01-.876-1.868c.44-.535 1.158-.604 1.645-.206.485.399.557 1.116.158 1.604-.278.329-.6.47-.927.47zm44.203-.597c-.529 0-1-.368-1.113-.903-.151-.666.23-1.277.845-1.418a1.137 1.137 0 011.364.855c.151.707-.244 1.311-.859 1.438a.932.932 0 01-.237.028zm-65.767-1.669c-.35 0-.694-.158-.917-.46-.42-.563-.313-1.277.192-1.651a1.14 1.14 0 011.594.237c.42.563.313 1.277-.192 1.651a1.141 1.141 0 01-.677.223zm24.47-.851a1.138 1.138 0 01-.79-1.961c.505-.487 1.23-.474 1.666-.017a1.138 1.138 0 01-.03 1.61c-.276.261-.56.368-.846.368zm40.02-1.538c-.44 0-.856-.255-1.045-.68-.282-.659-.01-1.329.57-1.576a1.138 1.138 0 011.494.604c.275.628.014 1.301-.563 1.555a1.126 1.126 0 01-.457.097zm-66.909-1.12a1.14 1.14 0 01-.962-.525c-.377-.597-.22-1.301.31-1.638a1.141 1.141 0 011.573.354c.374.587.22 1.291-.31 1.631a1.14 1.14 0 01-.61.178zm30.115-.134a1.14 1.14 0 01-.697-2.039c.529-.426 1.247-.347 1.642.144a1.135 1.135 0 01-.175 1.6c-.282.22-.526.295-.77.295zm34.673-2.427a1.14 1.14 0 01-.903-.443c-.43-.556-.337-1.27.161-1.655a1.14 1.14 0 011.598.206c.43.556.337 1.271-.162 1.655-.206.158-.45.237-.694.237zm-31.186-.031a1.14 1.14 0 01-.615-2.098c.608-.377 1.312-.216 1.642.32a1.14 1.14 0 01-.364 1.569c-.24.151-.453.209-.663.209zm-35.76-1.078c-.404 0-.796-.216-1.002-.597-.333-.611-.13-1.305.422-1.607a1.138 1.138 0 011.546.453c.337.625.13 1.315-.422 1.614-.175.092-.361.137-.543.137zm39.47-1.023a1.139 1.139 0 01-.512-2.156c.622-.313 1.31-.089 1.59.47.286.56.063 1.246-.5 1.531-.23.117-.406.155-.578.155zm24.426-.841c-.224 0-.45-.069-.646-.21-.546-.388-.68-1.109-.316-1.62a1.128 1.128 0 011.577-.278c.546.388.68 1.109.316 1.62a1.13 1.13 0 01-.931.488zm-20.52-.872a1.139 1.139 0 01-.398-2.208c.649-.247 1.305.048 1.532.635a1.139 1.139 0 01-.656 1.47 1.312 1.312 0 01-.478.103zm-45.275-1.078c-.433 0-.848-.248-1.037-.67-.289-.649-.031-1.322.542-1.579.574-.258 1.247 0 1.505.577.289.631.034 1.308-.54 1.569a1.09 1.09 0 01-.47.103zm62.04 0c-.12 0-.24-.021-.36-.059-.684-.24-.994-.889-.784-1.483.21-.594.862-.903 1.453-.693.65.216.972.861.773 1.459a1.146 1.146 0 01-1.082.776zm-12.694-.182a1.14 1.14 0 01-.268-2.249c.684-.168 1.299.209 1.45.82a1.142 1.142 0 01-.838 1.377 1.34 1.34 0 01-.344.052zm4.23-.714c-.582 0-1.09-.44-1.148-1.027a1.13 1.13 0 011.01-1.243c.673-.065 1.24.391 1.302 1.016a1.127 1.127 0 01-1.007 1.243c-.082.011-.12.011-.158.011zm4.307-.004c-.81-.072-1.271-.632-1.21-1.257a1.14 1.14 0 011.244-1.023c.688.059 1.151.611 1.1 1.236a1.14 1.14 0 01-1.134 1.044zm-59.518-3.032c-.464 0-.897-.281-1.069-.741-.247-.649.049-1.305.636-1.531a1.137 1.137 0 011.47.655c.251.666-.051 1.322-.639 1.542a1.09 1.09 0 01-.398.075zm-1.385-4.027c-.487 0-.94-.316-1.089-.807-.21-.649.12-1.291.718-1.486a1.142 1.142 0 011.436.734c.21.691-.127 1.326-.731 1.511-.11.031-.224.048-.334.048zm-1.14-4.106c-.515 0-.98-.35-1.106-.872-.172-.666.195-1.288.807-1.442.611-.158 1.23.21 1.388.82.168.697-.206 1.315-.818 1.463a1.065 1.065 0 01-.271.031zm-.917-4.158c-.533 0-1.01-.378-1.117-.92-.13-.704.278-1.298.897-1.411a1.139 1.139 0 011.33.913c.133.676-.269 1.277-.887 1.397a1.26 1.26 0 01-.223.021zM2.2 93.672c-.56 0-1.048-.412-1.127-.982-.103-.68.323-1.264.945-1.356a1.14 1.14 0 011.299.954c.1.71-.334 1.284-.959 1.373-.051.007-.103.01-.158.01zm-.522-4.227a1.14 1.14 0 01-1.134-1.03c-.075-.68.375-1.246 1-1.315a1.142 1.142 0 011.26 1.006c.07.718-.388 1.274-1.013 1.336-.038 0-.075.003-.113.003zm-.354-4.247c-.594 0-1.092-.46-1.137-1.06-.041-.718.44-1.254 1.068-1.292a1.137 1.137 0 011.203 1.075c.048.687-.426 1.23-1.055 1.274-.027.003-.051.003-.079.003zm-.185-4.257a1.14 1.14 0 01-1.141-1.123c-.017-.686.477-1.212 1.106-1.229a1.142 1.142 0 011.172 1.106c.01.717-.492 1.236-1.124 1.243-.003.003-.01.003-.013.003zm.034-4.26c-.677-.028-1.165-.557-1.14-1.189.02-.687.539-1.17 1.17-1.164A1.137 1.137 0 012.312 75.5c-.024.704-.53 1.181-1.137 1.181zm.271-4.251C.707 72.36.25 71.805.308 71.18c.059-.683.612-1.15 1.237-1.099a1.139 1.139 0 011.04 1.23c-.064.68-.56 1.119-1.14 1.119zm.509-4.23a1.14 1.14 0 01-1.127-1.315c.096-.68.666-1.113 1.295-1.027.622.086 1.058.663.972 1.288-.103.652-.587 1.054-1.14 1.054zm.745-4.192a1.136 1.136 0 01-1.113-1.377c.134-.673.739-1.075 1.35-.951.619.123 1.02.72.897 1.339-.134.621-.608.989-1.134.989zm.986-4.144a1.139 1.139 0 01-1.103-1.438c.172-.667.794-1.03 1.405-.873.609.158.976.78.818 1.387-.161.59-.622.924-1.12.924zm1.22-4.083a1.138 1.138 0 01-1.082-1.5c.213-.656.855-.985 1.453-.79.597.193.927.835.735 1.435-.186.557-.629.855-1.106.855zm1.45-4.02c-.135 0-.272-.024-.402-.076a1.126 1.126 0 01-.657-1.459c.244-.628.91-.93 1.498-.704.588.227.883.876.656 1.46-.195.494-.632.779-1.096.779zm1.683-3.897a1.135 1.135 0 01-1.034-1.614c.302-.645.982-.889 1.553-.624.57.267.814.944.546 1.514-.22.477-.632.724-1.065.724zm1.906-3.821a1.14 1.14 0 01-1.003-1.675c.327-.619 1.017-.828 1.574-.533.556.295.766.986.47 1.542-.24.446-.635.666-1.04.666zm2.12-3.708a1.14 1.14 0 01-.969-1.74c.35-.588 1.052-.767 1.59-.444a1.14 1.14 0 01.396 1.562c-.261.43-.636.622-1.017.622zm2.322-3.581a1.13 1.13 0 01-.645-.203 1.137 1.137 0 01-.293-1.583c.399-.58 1.11-.71 1.629-.353.519.357.65 1.068.292 1.583-.265.384-.622.556-.983.556zm2.515-3.447a1.137 1.137 0 01-.903-1.833c.426-.553 1.14-.65 1.638-.268.502.38.595 1.098.213 1.596-.268.354-.604.505-.948.505zm2.704-3.3a1.14 1.14 0 01-.866-1.885c.46-.532 1.178-.583 1.656-.175.477.412.529 1.13.12 1.607-.271.32-.59.453-.91.453zm2.875-3.151a1.139 1.139 0 01-.821-1.93c.488-.505 1.21-.522 1.663-.086.453.436.467 1.157.03 1.61-.274.289-.573.406-.872.406zm3.04-2.994a1.142 1.142 0 01-.776-1.978c.498-.474 1.22-.457 1.652 0a1.138 1.138 0 01-.04 1.61c-.279.268-.557.368-.836.368zm103.299-.368c-.384 0-.759-.195-.975-.549-.364-.59-.2-1.291.336-1.624a1.143 1.143 0 011.57.37c.371.608.2 1.309-.34 1.635a1.134 1.134 0 01-.591.168zM28.715 21.036a1.142 1.142 0 01-.738-2.012c.556-.457 1.274-.388 1.673.1.398.487.33 1.205-.158 1.603-.254.22-.515.31-.777.31zm97.593-.982c-.319 0-.639-.134-.862-.395-.461-.539-.406-1.256.075-1.665a1.142 1.142 0 011.608.127c.457.529.402 1.246-.075 1.658a1.14 1.14 0 01-.746.275zm-94.25-1.672a1.139 1.139 0 01-.687-2.05c.56-.422 1.274-.322 1.652.182a1.142 1.142 0 01-.223 1.597c-.264.199-.505.271-.742.271zm91.282-1.384c-.271 0-.543-.096-.763-.291-.525-.481-.56-1.202-.134-1.666a1.144 1.144 0 011.611-.072c.516.464.554 1.185.134 1.652-.223.25-.535.377-.848.377zM35.531 15.91a1.141 1.141 0 01-.639-2.084c.58-.395 1.288-.258 1.642.264a1.14 1.14 0 01-.302 1.583c-.261.172-.48.237-.7.237zm84.508-1.603c-.231 0-.464-.069-.667-.217-.574-.418-.684-1.133-.313-1.64a1.142 1.142 0 011.594-.248c.564.405.681 1.12.31 1.627a1.133 1.133 0 01-.924.478zm-80.907-.687a1.139 1.139 0 01-.584-2.118c.587-.36 1.288-.193 1.618.343.33.536.161 1.236-.375 1.566-.26.154-.46.209-.66.209zm77.351-1.662c-.196 0-.395-.051-.577-.158-.612-.364-.787-1.064-.464-1.603a1.142 1.142 0 011.563-.395c.601.354.78 1.05.46 1.593-.209.36-.59.563-.982.563zm-73.638-.44c-.409 0-.804-.219-1.006-.603a1.142 1.142 0 01.47-1.542c.622-.33 1.313-.12 1.608.436a1.139 1.139 0 01-.47 1.542 1.225 1.225 0 01-.602.168zm69.897-1.596c-.169 0-.34-.037-.502-.116-.632-.31-.862-.993-.584-1.56a1.14 1.14 0 011.525-.518c.633.31.863.993.584 1.56a1.142 1.142 0 01-1.023.634zm-66.08-.302a1.14 1.14 0 01-.488-2.17c.642-.298 1.323-.048 1.587.522.265.57.014 1.247-.556 1.51a1.193 1.193 0 01-.543.138zm62.191-1.445c-.144 0-.289-.028-.43-.086-.645-.261-.927-.924-.694-1.507a1.143 1.143 0 011.485-.632c.645.264.931.93.69 1.514-.179.443-.601.71-1.051.71zM50.578 7.92c-.45 0-.88-.272-1.058-.714a1.142 1.142 0 01.632-1.484c.653-.26 1.316.021 1.553.605a1.142 1.142 0 01-.632 1.483c-.21.086-.354.11-.495.11zm54.286-1.236a1.13 1.13 0 01-.367-.062c-.663-.223-.983-.872-.783-1.466a1.141 1.141 0 011.446-.714c.666.226.986.875.783 1.47a1.14 1.14 0 01-1.079.772zm-50.29-.25a1.14 1.14 0 01-.375-2.219c.68-.226 1.323.096 1.522.694A1.14 1.14 0 0155 6.352a1.228 1.228 0 01-.426.082zm46.219-1.007c-.099 0-.199-.014-.298-.041-.688-.192-1.041-.824-.87-1.428.172-.605.801-.958 1.405-.787.667.182 1.028.807.863 1.415a1.144 1.144 0 01-1.1.841zm-42.148-.264a1.142 1.142 0 01-.31-2.239c.67-.192 1.302.158 1.478.762a1.14 1.14 0 01-.784 1.408 1.21 1.21 0 01-.384.069zm38.02-.786c-.083 0-.17-.01-.252-.028-.69-.158-1.072-.769-.93-1.38.14-.615.752-.996 1.363-.855.684.154 1.069.762.931 1.377-.12.525-.59.886-1.113.886zM62.78 4.117a1.14 1.14 0 01-.254-2.25c.663-.147 1.288.234 1.425.849a1.13 1.13 0 01-.848 1.36c-.155.03-.24.04-.323.04zm29.712-.601a1.39 1.39 0 01-.206-.017c-.69-.127-1.102-.721-.989-1.34a1.142 1.142 0 011.326-.916c.69.127 1.103.72.99 1.339-.104.55-.581.934-1.12.934zm-25.528-.217a1.144 1.144 0 01-1.123-.95 1.135 1.135 0 01.934-1.312c.698-.113 1.288.309 1.388.93.1.622-.323 1.205-.945 1.308a1.912 1.912 0 01-.254.024zm21.317-.45a1.02 1.02 0 01-.145-.01c-.7-.089-1.14-.659-1.061-1.284A1.138 1.138 0 0188.35.57c.694.086 1.138.656 1.062 1.28-.076.58-.567 1-1.13 1zm-17.095-.133a1.137 1.137 0 01-.123-2.27c.71-.072 1.267.378 1.333 1.006a1.14 1.14 0 01-1.014 1.253c-.11.007-.155.01-.196.01zm12.849-.278c-.773-.048-1.25-.587-1.213-1.216a1.134 1.134 0 011.21-1.064c.669.045 1.164.587 1.123 1.215a1.127 1.127 0 01-1.12 1.065zm-8.6-.066a1.14 1.14 0 01-.054-2.276c.7-.038 1.233.443 1.267 1.071a1.143 1.143 0 01-1.075 1.202l-.137.003zm4.336-.092c-.71-.004-1.216-.519-1.212-1.147A1.14 1.14 0 0179.7 0c.711.003 1.216.518 1.213 1.147a1.14 1.14 0 01-1.14 1.133z" fill="#A5FFB9"/><path fill-rule="evenodd" clip-rule="evenodd" d="M27.51 13.31h85.641a5.882 5.882 0 015.882 5.879v95.831a5.882 5.882 0 01-5.882 5.881h-85.64a5.88 5.88 0 01-5.882-5.881V19.189a5.882 5.882 0 015.881-5.878z" fill="#CDDEFF"/><path d="M113.151 121.746h-85.64c-3.711 0-6.73-3.018-6.73-6.726V19.189c0-3.708 3.019-6.726 6.73-6.726h85.64c3.71 0 6.73 3.018 6.73 6.726v95.831c-.003 3.708-3.02 6.726-6.73 6.726zm-85.64-107.59a5.042 5.042 0 00-5.037 5.033v95.831a5.04 5.04 0 005.036 5.033h85.641a5.042 5.042 0 005.036-5.033V19.189a5.04 5.04 0 00-5.036-5.034h-85.64z" fill="#EC5252"/><path d="M95.456 39.768h-31.17v1.69h31.17v-1.69zM82.844 45.98H64.37v1.688h18.475V45.98zM95.496 52.04H64.328v1.688h31.17V52.04z" fill="#fff"/><path d="M95.456 39.768h-31.17v1.69h31.17v-1.69zM95.496 52.04H64.328v1.688h31.17V52.04z" fill="#fff"/><path d="M95.456 39.768h-31.17v1.69h31.17v-1.69zM82.844 45.98H64.37v1.688h18.475V45.98zM95.496 52.04H64.328v1.688h31.17V52.04z" fill="#fff"/><path d="M95.456 39.768h-31.17v1.69h31.17v-1.69zM95.538 45.98h-8.383v1.688h8.383V45.98zM95.496 52.04H64.328v1.688h31.17V52.04zM95.456 23.123h-31.17v1.69h31.17v-1.69zM82.844 29.334H64.37v1.69h18.475v-1.69zM95.496 35.394H64.328v1.69h31.17v-1.69z" fill="#fff"/><path d="M95.456 23.123h-31.17v1.69h31.17v-1.69zM95.538 29.334h-8.383v1.69h8.383v-1.69zM95.496 35.394H64.328v1.69h31.17v-1.69zM72.603 114.993l-7.039-9.833-5.936 7.525-19.606-3.725-.148-.491-9.282-30.498 1.618-.491 9.135 30.007 17.589 3.344 6.699-8.483 8.344 11.663-1.374.982z" fill="#fff"/><path fill-rule="evenodd" clip-rule="evenodd" d="M73.881 111.676a3.05 3.05 0 110 6.098 3.052 3.052 0 01-3.05-3.049 3.051 3.051 0 013.05-3.049zM65.499 101.167a3.05 3.05 0 110 6.097 3.049 3.049 0 110-6.097zM59.288 109.032a2.793 2.793 0 11-2.793 2.792 2.79 2.79 0 012.793-2.792zM40.791 105.359a2.682 2.682 0 110 5.363 2.681 2.681 0 110-5.363zM31.382 74.565a3.198 3.198 0 013.198 3.197 3.198 3.198 0 01-6.396 0 3.198 3.198 0 013.198-3.197z" fill="#fff"/><path fill-rule="evenodd" clip-rule="evenodd" d="M167.894 172.82H76.935s4.257-14.804 8.087-24.177c3.834-9.373 7.5-14.036 7.5-14.036l-3.676-13.301s-10.77-8.123-11.323-13.596c-.553-5.472 2.5-10.581 2.5-10.581s-19.488.69-27.352-2.572c-7.867-3.265-17.62-13.747-10.663-24.472 2.67-4.117 9.42-6.65 16.472-9.48 11.327-4.546 23.753-8.23 23.753-8.23s-1.512-3.481-.588-7.203c.921-3.721.705-7.234 2.793-9.555 2.09-2.32 4.937-4.521 7.943-6.1 3.006-1.577 6.984-2.5 6.984-2.5s4.02-14.249 11.323-19.327c7.304-5.08 31.355-4.367 40.074 3.894 8.719 8.26 10.485 15.347 9.413 30.866-.642 9.307 8.984 23.168 15.222 23.37 6.239.203 17.686.886 19.853 5.367 4.862 10.032-3.456 16.607-3.456 16.607s6.775 8.604 5.294 14.698c-1.477 6.094-6.324 9.555-6.324 9.555s11 16.126 8.97 21.238c-2.027 5.113-34.045 31.014-34.045 31.014s.635 2.307 1.175 4.041c.543 1.734 1.03 4.48 1.03 4.48z" fill="#fff"/><path fill-rule="evenodd" clip-rule="evenodd" d="M167.162 126.154s-5.685-5.232-8.458-7.862c-2.772-2.633-5.733-5.291-5.733-5.291s-5.294 4.518-8.091 8.525c-2.793 4.007-4.926 6.541-4.926 6.541s4.961 3.323 12.941 2.204c7.981-1.119 14.267-4.117 14.267-4.117zM118.627 63.54s.777 8.158-2.501 8.378c-3.277.22-10.608-1.86-15.294-1.394-4.686.467-8.455.735-8.455.735s-.429-1.991-.44-3.526c-.01-1.535.368-4.189.368-4.189s8.273-3.103 9.709-4.923c1.432-1.82 1.762-4.2 2.94-6.173 1.179-1.974 2.574-3.526 2.574-3.526s2.882 10.118 5.737 11.683c2.848 1.562 5.362 2.936 5.362 2.936z" fill="#EC5252"/><path fill-rule="evenodd" clip-rule="evenodd" d="M98.259 37.087s5.692-23.271 16.177-28.147c10.485-4.875 30.857-3.564 37.429 4.704 6.572 8.264 8.98 11.793 8.234 24.84-.742 13.043 5.415 22.303 10.441 24.84 8.53 4.302 21.375.563 24.411 7.643 4.48 10.44-2.573 17.05-2.573 17.05s8.297 8.703 4.411 16.095c-3.885 7.389-6.104 7.791-6.104 7.791s-19.836-29.905-30.002-33.585c-10.165-3.68-24.951-4.766-26.03-6.76-1.082-1.999-.443-12.862-.443-12.862l4.854-4.923s13.639 2.369 11.987-6.321c-.883-4.649-5.37-2.939-5.37-2.939s-11.546-9.483-18.458-14.478c-6.912-4.996-13.385-10.51-13.385-10.51l-2.277 3.306-1.766 5.367s-6.988 1.782-8.087 4.923c-1.103 3.142-1.323 6.098-1.323 6.098l-2.126-2.132z" fill="#A89AFF"/><path fill-rule="evenodd" clip-rule="evenodd" d="M134.107 39.143c.914 0 1.656.742 1.656 1.655v2.352a1.656 1.656 0 01-3.312 0v-2.352c0-.916.742-1.655 1.656-1.655zM115.872 37.087c.914 0 1.656.741 1.656 1.655v2.352a1.656 1.656 0 01-3.312 0v-2.352c0-.917.742-1.655 1.656-1.655z" fill="#000"/><path fill-rule="evenodd" clip-rule="evenodd" d="M179.001 152.536s2.446-5.548.076-8.377c-2.371-2.829-6.325-3.602-6.325-3.602s11.144-12.054 10.516-13.376c-.629-1.322-6.912 3.969-6.912 3.969s-8.919-5.631-14.34-10.067c-5.421-4.439-9.708-7.57-9.708-7.57s-6.771 6.52-9.485 11.244c-2.714 4.724-4.779 9.26-4.779 9.26l-41.104.075-4.999-15.948s-10.1-4.401-10.588-12.054c-.645-10.1 7.93-14.214 7.132-15.653-.793-1.438-3.16.588-3.16.588l-5.222 5.658s-16.346 1.16-25.147-1.617c-8.805-2.778-20.063-5.793-12.502-19.327 2.326-4.16 16.398-10.214 16.398-10.214s-1.972 6.637 2.057 8.965c4.033 2.33 10.664 1.984 10.664 1.984l3.384-1.322s12.89-1.225 20.148-1.545c7.259-.32 11.839 1.398 11.839 1.398s-11.107 9.654-3.309 13.963c7.795 4.309 18.991 3.99 26.25-.295 7.263-4.282 13.017-10.582 13.017-10.582s18.317-.48 29.781 15.066c9.228 12.511 24.783 32.96 24.78 39.318-.011 11.653-18.462 20.061-18.462 20.061z" fill="#EC5252"/><path fill-rule="evenodd" clip-rule="evenodd" d="M35.316 18.86h20.368a5.88 5.88 0 015.881 5.88v24.84a5.88 5.88 0 01-5.881 5.879H35.316a5.877 5.877 0 01-5.882-5.878V24.74a5.878 5.878 0 015.881-5.882z" fill="#F2F9FF"/><path fill-rule="evenodd" clip-rule="evenodd" d="M43.55 32.898c.406 0 .735.46.735 1.03 0 .57-.33 1.03-.735 1.03-.405 0-.735-.46-.735-1.03 0-.57.33-1.03.735-1.03zM48.992 32.675c.405 0 .735.46.735 1.03 0 .57-.33 1.03-.735 1.03-.406 0-.736-.46-.736-1.03 0-.566.33-1.03.736-1.03z" fill="#CDDEFF"/><path fill-rule="evenodd" clip-rule="evenodd" d="M96.936 134.899s-9.808 13.593-13.309 28.366c-3.5 14.777-3.676 24.621-3.676 24.621h91.11s-2.178-13.486-3.631-19.285c-1.457-5.799-4.16-8.422-4.16-8.422s-3.254-.302-5.885.587c-2.632.889-6.857 2.856-8.602 1.545-1.745-1.315-.588-1.545-.588-1.545s-1.855.652-2.721-.882c-.865-1.535.516-4.189.516-4.189s-3.621-.01-4.264-1.985c-.642-1.97 0-2.866 0-2.866s-3.328-3.763-.443-7.056c2.886-3.292 4.854-4.995 4.854-4.995l-6.396-5.367-42.805 1.473z" fill="#000"/><path fill-rule="evenodd" clip-rule="evenodd" d="M126.268 3.021h1.103c3.308.11 6.379.498 9.193 1.178a43.33 43.33 0 017.571 2.571c8.977 3.983 16.909 11.066 17.425 23.296.137 3.22-.512 6.286-.808 9.331-.965 9.974 3.291 17.486 8.678 21.603 1.89 1.445 4.119 2.688 6.764 3.378 2.697.708 6.043.512 9.413.807 6.208.55 10.31 3.622 11.763 8.597 1.89 6.455-1.467 11.505-4.706 14.623 1.436 1.559 2.772 3.265 3.895 5.29 1.076 1.94 2.175 4.42 1.986 7.204-.374 5.486-4.153 8.164-6.984 11.388 2.992 5.054 7.053 9.02 8.75 15.062 2.113 7.536-3.315 12.453-7.132 15.725-4.222 3.622-8.894 6.97-13.381 10.506-4.15 3.275-8.375 6.664-12.278 10.066-.209.182-.601.478-.587.811 2.514 5.984 4.184 13.723 5.146 21.307.13 1.016.522 2.396-.735 2.647-.801-.223-.924-.419-1.103-1.397-.856-4.707-1.481-9.669-2.501-13.741-.866-3.467-1.951-7.34-3.752-10.142-.333-.518-1.576-2.444-2.133-2.571-2.673-.625-4.837 1.583-6.689 2.424-2.099.954-5.62 1.373-7.131-.368-.392-.449-.341-.806-.736-1.617-3.239.193-4.198-3.155-2.573-5.51-3.291.656-4.95-2.431-3.456-5.071-1.013-.762-2.178-1.71-1.91-3.822.306-2.41 2.549-4.95 3.971-6.465.615-.655 1.285-1.187 1.619-1.764-.794-.464-1.519-1.085-2.354-1.689-.907-.66-1.875-1.635-3.088-1.618-13.876.2-30.424.358-44.41.515-.391.182-.405.467-.807.588a1.892 1.892 0 01-.663.075c-.36-.021-.051-.165-.367.072-.485.364-1.093 1.943-1.546 2.791-3.56 6.668-6.82 13.614-9.486 20.94-2.624 7.217-4.538 15.708-5.88 24.542-.128.834-.228 3.361-.808 3.601-2.11.866-1.405-2.145-1.25-3.158.212-1.415.394-2.891.587-4.041 3.033-18.06 9.021-32.483 16.689-45.78.247-.426.804-1.13.807-1.542.004-.347-.409-1.002-.587-1.545-.945-2.85-1.77-5.232-2.721-7.934-.35-.993-.598-2.507-1.103-3.235-.233-.333-.896-.597-1.322-.882-4.803-3.2-9.52-7.68-9.781-15.21-.076-2.211.443-4.185 1.103-5.73.237-.56.556-1.112.515-1.47-15.676.91-31.64-.576-37.277-10.728-1.945-3.499-2.653-8.567-1.031-13.301 2.697-7.856 11.203-10.568 18.97-13.449 8.012-2.97 15.628-6.008 23.086-9.331-.666-1.56-1.467-3.166-1.323-5.367.049-.717.399-1.215.44-1.837.055-.793.1-1.41.22-2.132.697-4.181 2.72-6.32 5.146-8.744 3.01-3.008 6.936-5.703 11.91-6.689.014-.082.083-.113.148-.147 3.481-13.308 10.705-22.89 27.501-22.91zm68.082 103.244c1.096-1.541 2.216-3.526 2.206-5.953-.01-2.273-1.062-4.337-1.986-5.954-.996-1.747-2.061-3.347-3.308-4.628-.436-.45-1.168-.652-1.175-1.322-.01-.837 1.694-1.974 2.353-2.719 2.309-2.613 4.456-6.43 3.017-11.316-.78-2.64-2.412-4.525-4.487-5.658-2.264-1.236-4.895-1.521-8.454-1.69-3.443-.164-6.335-.467-8.75-1.397-2.446-.94-4.47-2.111-6.397-3.746-5.229-4.435-9.344-11.721-8.678-21.678.213-3.151.756-6.176.807-9.332.103-6.228-2.277-11.154-5.441-14.694-6.019-6.74-16.401-11.718-29.558-11.097-14.426.68-20.214 8.913-23.677 20.648 3.219-.116 6.225.46 7.204 2.644.704 1.569.223 3.667-1.251 4.189-1.322.467-2.793-.443-4.191-.44-2.47.004-3.823 1.301-5.661 2.28.529.748 1.092 1.39 1.618 2.204 1.59 2.472 2.442 5.672 3.896 8.158.924-.546 2.002-1.583 3.751-1.765 2.913-.302 6.864 1.188 7.056 3.306.206 2.266-2.879 2.26-3.971 3.454.735 3.756 2.027 6.39 4.116 8.745 2.026 2.287 4.892 4.038 9.189 3.602 3.762-.382 6.909-1.91 9.41-3.526 1.821-1.178 3.775-2.758 5.441-4.261.554-.502 1.258-1.377 1.838-1.398.464-.013.801.337 1.251.443 3.384.793 7.317-.728 8.97-2.5.467-.5 1.078-1.352 1.175-2.203.158-1.394-.574-2.71-1.691-3.16-1.181-.476-2.772-.054-3.823.368-.931.374-3.085 1.82-3.089 0-.003-1.006 1.069-1.15 1.838-1.545-4.648-4.212-9.674-8.078-14.559-12.123-4.878-4.04-9.78-8.113-14.779-11.831-.519 1.123-1.195 2.087-1.69 3.234 6.616 1.693 10.327 6.287 10.735 14.183.045.385-.398-.288-.295.22-.113 4.61-1.573 7.883-5.146 9.037.103.882 1.553 1.095 1.542 2.132-.003.535-.467 1.084-1.027 1.102-.666.02-1.329-.907-1.69-1.322-.454-.526-1.051-1.123-.883-2.132.261-1.583 2.116-1.525 3.236-2.352 1.68-1.243 2.206-4.611 2.278-7.056.065-2.2-.698-4.199-1.471-5.805-1.841-3.818-5.142-5.782-9.777-6.54-1.429-.234-4.242.112-4.191-1.323.058-1.668 3.315-.655 4.631-.587.745-1.311 1.422-2.692 2.206-3.969-.258-.858-1.261-.68-1.175-1.765.044-.57.501-.878.955-.882.694 0 1.498.972 2.205 1.545 10.351 8.357 21.471 17.218 31.321 25.424 5.008-1.253 7.86 4.02 5.441 7.715-1.807 2.757-5.792 4.542-10.22 4.26-.608-.037-1.457-.415-2.061-.295-.512.103-1.203 1.061-1.763 1.545-.601.519-1.528.934-1.765 1.545-.285.738-.241 2.101-.368 3.159-.316 2.644-1.309 7.344.072 9.332.653.94 2.505 1.558 4.116 1.984 4.796 1.257 10.746 1.373 15.074 2.572 6.136 1.7 10.963 4.734 15.147 8.45 8.911 7.916 13.759 17.214 20.441 26.673 1.346-1.195 2.762-2.572 3.912-4.189zm-94.109-78.48c-3.59.598-6.424 1.948-8.822 3.675-.337.24-.838.418-.735.662 2.01-.123 3.267.505 4.559 1.102 1.858-1.315 4.394-3.107 7.424-3.086 1.295.01 2.27.573 3.531.515.911-2.826-3.373-3.3-5.957-2.867zm-2.353 12.127c-.374-2.537-3.112-5.5-6.101-5.805-2.21-.227-4.181.851-5.514 2.204.77-.577 1.907-.862 3.088-.735 3.388.36 6.572 3.804 7.428 6.908.82-.515 1.302-1.198 1.1-2.572zm-4.926-.147c-1.062-1.082-2.374-1.858-3.529-2.132-2.188-.519-3.418 1.383-4.119 2.643 4.37-1.174 6.899 1.817 8.678 4.189 1.89-1 .33-3.313-1.03-4.7zm-5.147 2.204c-2.635-.515-4.678 2.067-4.85 4.041-.114 1.294.374 2.54.807 3.454.299.632 1.556 2.074 1.47 2.867-.11 1.002-1.649.989-2.057.22-7.122 3.265-14.58 6.197-22.056 9.112-.67 2.046-1.278 4.16-1.102 6.54.292 4.003 3.25 6.822 7.351 7.275 1.333.148 3.274.244 4.631-.147.44-.127 1.175-.707 1.766-1.102 1.766-1.178 3.648-2.424 5.294-3.454 4.93-3.08 9.275-6.088 14.703-8.673 2.601-1.236 5.875-2.328 7.572-4.113 2.051-2.16 2.367-6.04 4.483-8.305 1.402-1.5 3.449-2.201 5.294-3.159-1.237-1.195-3.229-1.953-5.218-1.47-1.965.478-3.594 2.665-4.487 4.261-.402.718-.584 1.556-1.398 1.545-.46-.006-.886-.34-.955-.806-.196-1.364 1.762-2.782 1.913-3.746-.535-1.154-1.092-2.29-1.618-3.454-.755.518-1.388 1.795-2.868 1.837-.378.896-1.203 1.342-2.058 1.76-.282 2.71-3.745 1.642-5.737.955-1.062-.367-3.04-.734-2.869-1.984.21-1.5 2.54-.24 3.456.072 1.1.374 1.99.755 3.089.735-.677-2.019-2.45-3.849-4.555-4.261zm19.558 8.964c-2.109 2.586-2.384 6.108-4.631 8.45-3.033 3.155-7.898 3.68-11.543 6.468-.257 1.233-.195 3.039.073 4.189 5.857-.82 13.425-.168 19.262.515 1.288.151 5.046 1.013 6.029.072.598-.573.57-2.314.663-3.234.137-1.36.185-2.483.22-3.746-5.438-2.16-8.424-6.77-10.073-12.714zm12.058 13.154c-.505 3.093.31 6.942-1.91 8.301-1.398.859-3.933.622-6.029.296-.172 1.133-1.017 1.36-1.766 1.984-1.384 1.157-2.497 2.3-3.675 3.674-1.354 1.576-3.412 3.907-3.089 6.76.251 2.225 2.274 3.79 3.896 4.776 1.793 1.088 3.569 1.747 5.881 2.056 5.023.666 9.685-.83 13.089-2.496 3.473-1.703 6.507-4.199 9.265-6.612 2.494-2.184 4.93-4.405 7.428-6.465.347-.285.862-.605.81-.883-3.854-.772-7.99-1.088-9.557-4.04-1.642-3.094-.168-7.798 0-11.612-3.755 2.407-7.97 4.717-14.343 4.26zm-75.437 6.537c-3.618 4.442-3.522 12.47-.076 16.902 6.37 8.182 21.547 9.078 36.027 8.01.763-1.013 1.642-1.95 2.501-2.867.632-.673 2.034-2.444 3.088-2.204.516.117.722.484.736.882.024.697-.808 1.157-1.323 1.617-3.466 3.08-7.207 7.533-5.81 14.328 1.004 4.878 4.144 7.886 7.428 10.286 1.106.807 2.384 1.404 3.456 2.499.048.364.065.749.148 1.102.494 2.119 1.408 4.179 2.133 6.246.732 2.091 1.467 4.199 2.133 6.317 6.806-.285 14.271-.367 21.468-.367 7.28 0 14.652-.244 21.836-.22-.155-1.83.587-2.87 1.322-4.261a60.266 60.266 0 0112.278-16.02c-.676-.951-1.388-1.534-2.425-2.719-.488-.56-2.254-2.036-2.058-3.087.069-.363.519-.721.883-.734.639-.024 1.257.886 1.766 1.469 7.499 8.687 16.761 16.223 26.246 22.413.907-.553 1.179-2.438 2.573-2.276a.932.932 0 01.808.882c.044.869-1.23 1.861-1.838 2.572-1.989 2.321-4.562 5.28-5.954 7.203 6.328.371 10.866 4.628 9.265 11.756 4.996-4.031 11.117-7.616 15.367-12.858 1.391-1.717 2.872-3.894 2.869-6.688-.007-3.719-2.141-7.046-3.748-9.628-1.807-2.897-3.69-5.448-5.37-8.082-3.556-5.579-6.943-10.845-10.808-16.092-7.08-9.606-14.854-18.632-29.558-20.795-1.03-.151-2.377-.505-3.016-.368-.357.076-1.161.886-1.618 1.25-.598.477-1.11.906-1.618 1.322-7.551 6.187-13.35 14.121-25.515 15.505-3.896.443-7.163-.103-10-1.398-2.611-1.19-5.112-2.997-6.177-5.586-1.378-3.344.604-6.609 2.133-8.672 1.464-1.978 3.26-3.725 5.074-5.216.165-.137.68-.326.516-.662-9.259-1.63-20.235-.306-28.456 1.322-1.257.25-2.999.412-3.823.882-3.752 2.132-7.97 5.184-11.691 7.643-.807.532-2.649 1.706-2.649-.072 0-.697.773-1.03 1.323-1.398 1.48-.985 2.738-1.857 4.043-2.719.265-.175.715-.35.588-.515-7.915.007-12.282-6.822-9.705-14.99h-.148c-5.253 2.077-11.285 3.986-14.624 8.086zm37.865.81c2.38-.46 4.868-.817 7.351-1.174-.44-.862-.062-2.393-.292-3.235-2.343 1.48-4.792 2.85-7.06 4.409zm70.879 42.838c-4.123 3.965-7.881 8.291-10.736 13.52 3.93.838 8.382 1.322 12.793.955 4.305-.358 7.871-1.724 10.956-3.087-4.514-3.615-8.987-7.279-13.013-11.388zm14.851 12.713c-3.123 1.48-7.503 3.265-12.278 3.746-4.906.498-9.87-.154-14.336-1.174-.443.882-.883 1.765-1.323 2.647 2.34 1.651 4.696 3.292 6.984 4.995 2.199-1.438 4.638-3.158 7.94-3.086 2.854.062 4.679 1.723 6.101 3.454 1.532 1.861 2.563 4.007 3.38 6.173 3.597-3.924 6.977-8.065 10.44-12.123-2.466-1.38-4.603-3.09-6.908-4.632zm-.292 16.24c-.777.906-1.783 1.723-2.353 2.647-.33.536-.323 1.198-1.103 1.178-.825-.024-1.361-1.971-1.69-2.792-.54-1.339-.859-2.118-1.399-3.086-1.336-2.41-3.315-5.394-6.984-5.071-2.954.261-5.682 2.228-7.795 4.188-.889.828-1.855 1.714-2.868 3.087-.581.786-2.075 2.774-1.838 4.189.058.343.711 1.15 1.027 1.102.223-.035 1.099-1.439 1.25-1.617 2.756-3.245 6.14-5.408 10.588-6.98.966-.34 3.14-1.326 3.089.367-.028.841-1.302 1.054-2.058 1.322-4.329 1.535-7.75 3.619-10.292 6.76-.997 1.229-2.141 2.616-2.134 4.556.536.786 2.439.206 2.573 1.398 2.515-3.798 6.6-6.778 10.956-9.037.865-.45 3.061-1.538 2.793.367-.093.684-1.155.945-1.91 1.322-3.693 1.854-6.792 4.168-9.19 7.056-.945 1.136-2.072 2.585-1.986 4.408.457.426 1.247.519 2.134.515 2.119-3.169 5.751-5.596 9.557-7.347 1.051-.484 4.246-2.242 4.191-.22-.021.793-.828.896-1.546 1.178-2.092.82-3.968 1.778-5.514 2.791-2.336 1.531-4.424 3.025-5.366 5.73.131.21.705.522 1.175.587 4.181.601 5.988-2.956 9.853-3.234 1.944-.141 6.215.21 6.029 1.837-.065.577-.629.965-1.395.735.11.329.557.961.883 1.322 3.992-3.482 8.06-6.884 12.278-10.143-.319-.951.148-1.654.368-2.499.941-3.591-.419-6.403-2.721-7.862-1.642-1.041-3.707-1.521-6.321-1.47-.794.78-1.477 1.775-2.281 2.716z" fill="#000"/><path fill-rule="evenodd" clip-rule="evenodd" d="M148.179 46.892c.347-.037 1.061-.007 1.178.663.182 1.05-1.092 1.38-2.058 1.765-.886.353-3.47 1.74-3.528 0-.031-.927 1.312-1.188 1.986-1.47.563-.24 1.439-.851 2.422-.958zM127.446 52.99c.636-.134 1.216.124 1.251.807.062 1.284-2.889 2.475-4.487 2.5-1.003.013-2.25-.117-2.278-1.103-.034-1.177 1.134-.879 2.206-.882 1.446-.004 2.219-.831 3.16-1.322.035-.017.107.01.148 0z" fill="#000"/><path fill-rule="evenodd" clip-rule="evenodd" d="M110.691 27.312c-5.369-.343-10 3.732-10.34 9.102-.34 5.366 3.738 9.994 9.107 10.334 5.37.34 10.001-3.735 10.341-9.102.336-5.366-3.738-9.994-9.108-10.334z" fill="#BBB"/><path fill-rule="evenodd" clip-rule="evenodd" d="M110.691 27.312c-5.369-.343-10 3.732-10.34 9.102-.34 5.366 3.738 9.994 9.107 10.334 5.37.34 10.001-3.735 10.341-9.102.336-5.366-3.738-9.994-9.108-10.334z" fill="#BBB"/><path d="M110.087 47.613c-.227 0-.457-.007-.684-.02-5.826-.371-10.268-5.408-9.897-11.23a10.504 10.504 0 013.569-7.273 10.499 10.499 0 017.672-2.62c5.826.372 10.265 5.408 9.894 11.231a10.507 10.507 0 01-3.57 7.272 10.53 10.53 0 01-6.984 2.64zm-.027-19.477a8.834 8.834 0 00-5.868 2.218 8.834 8.834 0 00-2.999 6.111c-.309 4.893 3.421 9.126 8.317 9.438a8.872 8.872 0 006.445-2.2 8.833 8.833 0 002.999-6.112c.309-4.892-3.418-9.125-8.314-9.438a11.03 11.03 0 00-.58-.017z" fill="#000"/><path fill-rule="evenodd" clip-rule="evenodd" d="M134.42 30.732c-5.37-.344-10 3.732-10.341 9.098-.34 5.366 3.735 9.994 9.108 10.334 5.369.34 10-3.732 10.34-9.102.34-5.362-3.738-9.99-9.107-10.33z" fill="#BBB"/><path fill-rule="evenodd" clip-rule="evenodd" d="M134.42 30.732c-5.37-.344-10 3.732-10.341 9.098-.34 5.366 3.735 9.994 9.108 10.334 5.369.34 10-3.732 10.34-9.102.34-5.362-3.738-9.99-9.107-10.33z" fill="#BBB"/><path d="M133.818 51.033a10.515 10.515 0 01-7.959-3.588 10.518 10.518 0 01-2.622-7.663 10.507 10.507 0 013.57-7.272 10.492 10.492 0 017.671-2.62 10.521 10.521 0 017.276 3.568 10.513 10.513 0 012.621 7.663 10.502 10.502 0 01-3.569 7.272 10.554 10.554 0 01-6.988 2.64zm-.03-19.477a8.834 8.834 0 00-5.868 2.218 8.833 8.833 0 00-2.999 6.111c-.309 4.893 3.421 9.126 8.313 9.438a8.82 8.82 0 006.445-2.2 8.833 8.833 0 002.999-6.112c.31-4.892-3.421-9.126-8.317-9.438a10.55 10.55 0 00-.573-.017z" fill="#000"/><path d="M110.052 29.001c.172 0 .344.007.519.017a7.993 7.993 0 015.531 2.713 7.982 7.982 0 011.993 5.826c-.268 4.227-3.793 7.536-8.026 7.536-.171 0-.346-.007-.518-.017-4.432-.281-7.805-4.113-7.524-8.538.268-4.227 3.793-7.537 8.025-7.537zm0-.734a8.784 8.784 0 00-.549 17.547c.189.01.378.018.566.018 4.6 0 8.465-3.575 8.761-8.227.309-4.837-3.37-9.012-8.211-9.318a7.84 7.84 0 00-.567-.02zM133.805 32.455c.172 0 .343.007.518.017a7.99 7.99 0 015.531 2.713 7.982 7.982 0 011.993 5.826c-.268 4.226-3.793 7.536-8.025 7.536-.172 0-.347-.007-.519-.017-4.431-.282-7.805-4.113-7.523-8.539.268-4.223 3.792-7.536 8.025-7.536zm0-.734c-4.6 0-8.465 3.574-8.76 8.226-.31 4.84 3.37 9.012 8.21 9.321.189.01.378.017.567.017 4.6 0 8.465-3.574 8.76-8.226.309-4.837-3.37-9.012-8.21-9.318a7.95 7.95 0 00-.567-.02z" fill="#fff"/><path fill-rule="evenodd" clip-rule="evenodd" d="M103.316 26.344l-2.216.309-.845 3.838 2.899.687s2.419.525 2.539.546c.12.02 1.591-.786 1.591-.786v-2.671l-3.968-1.923z" fill="#fff"/><path fill-rule="evenodd" clip-rule="evenodd" d="M106.785 32.562c1.474-.522 1.955-2.62 1.251-4.19-.811-1.805-3.006-2.512-5.562-2.636 0 0-1.69.402-2.144.79-.68.583-.165 1.232.34 1.198a27.195 27.195 0 012.189-.041c2.078.172 3.971.999 3.335 2.966-1.261.059-2.233-.505-3.531-.515-.066 0-1.344-.027-2.412.354-1.068.38 2.219 1.634 2.219 1.634 1.519-.003 2.989.91 4.315.44z" fill="#000"/><path fill-rule="evenodd" clip-rule="evenodd" d="M59.397 50.164c1.024 1.233 1.983 2.833 2.793 4.484.234.481.763 1.11.148 1.617-.756.23-1.024-.49-1.25-.954-1.601-3.296-3.783-6.3-7.132-7.934-2.288 2.79-5.545 5.407-10.44 5.658-5.191.264-8.373-2.328-10.588-5.439-2.694.656-3.886 3.674-4.044 6.836-.041.865.234 2.287-.587 2.352-1.261.103-.629-3.691-.44-4.628.35-1.741 1.43-3.993 2.793-4.924 1.56-1.06 4.054-1.397 6.325-1.837 2.006-.391 2.586-.511 2.792-2.939.148-1.75.323-3.203-.587-3.896-.862.082-1.501.044-2.058-.22-2.11-1.003-1.793-5.205.516-5.363.876-.062 1.199.422 1.837.735.138-.986.426-1.871.663-2.94.19-.847.234-2.385.736-2.862.628-.601 2.597-.059 3.456.147 2.504.594 3.885 1.329 5.586 2.72.78.634 1.656 1.318 2.057 2.056.581 1.068.712 2.63.588 3.893-.272 2.802-2.188 4.996-5.737 4.852.048 1.373-.124 2.52-.072 3.893 5.304-.827 9.498.924 11.838 3.746.577-1.133 1.01-1.62.807-2.792-.415-2.417-3.064-2.451-4.043-4.188-1.343-2.386.065-6.936 0-9.627-.062-2.486-.952-4.529-2.353-6.098-2.192-2.455-6.184-4.494-10.736-4.189a8.704 8.704 0 00-5.81 2.72c-1.408 1.5-2.342 3.186-2.352 6.097-.007 2.864.484 5.785-1.103 7.495-1.024 1.102-2.477 1.782-3.676 2.72-1.419 1.105-3.67 3.031-3.308 5.953.171 1.39 1.5 2.41 1.175 4.113-.262 1.363-2.065 1.452-2.498 2.72-.368 1.064.189 2.011.587 2.499.495.607 1.55 1.133 2.646 1.397.786.185 3.033.13 3.088.882.076 1.061-1.89.65-2.94.443-1.787-.353-2.739-.745-3.604-1.617-.546-.553-1.165-1.75-1.175-2.791-.028-2.098 1.628-2.65 2.645-3.894-.405-1.998-1.426-2.499-1.25-4.775.188-2.438 1.648-4.103 3.16-5.439 1.756-1.545 4.786-2.513 5.074-5.07.237-2.102-.178-4.138-.075-5.731a9.501 9.501 0 012.94-6.245c1.563-1.473 3.631-2.585 6.617-2.791 6.194-.426 11.776 3.443 13.529 7.714.35.855.594 2.033.66 3.015.198 2.956-.736 5.514-.516 8.305.192 2.438 2.14 2.462 3.456 3.893 1.59 1.703 1.49 4.587-.138 6.228zM42.265 40.026c.13-1.04 1.721-.182 2.133-.076 1.855.491 4.363.457 5.442-.44 1.147-.954 2.061-3.972 1.103-5.953-.268-.553-1.069-1.15-1.69-1.689-1.876-1.627-4.442-2.664-7.352-2.939-.086.014-.08.117-.072.22-.3 1.05-.56 2.293-.811 3.378-.203.88-.292 3.025-1.175 3.087-.787.051-1.22-1.473-2.133-1.322-.69.113-.856 1.312-.736 1.909.275 1.37 1.646.803 2.65 1.102.521.155 1.4 1.25 1.542 1.909.202.93-.004 2.31-.076 3.306-.072 1.068-.258 2.078-.66 2.72-1.071 1.699-3.823 1.222-6.1 1.984 1.923 2.795 4.936 4.824 9.629 4.484 3.438-.25 6.09-2.146 8.014-3.894.234-.212.663-.528.588-.882-1.77-.546-4.263-.364-6.25-.148-1.559-.566-.631-3.632-.662-5.29-.735-.258-3.525-.323-3.384-1.466z" fill="#CDDEFF"/><path fill-rule="evenodd" clip-rule="evenodd" d="M45.206 36.572c.8-.35.962.762 1.69.807.47.03 1.47-.965 1.762-.072.289.872-1.171 1.397-1.69 1.397-.707-.004-2.068-.67-2.133-1.47-.035-.484.168-.573.37-.662z" fill="#CDDEFF"/></g><defs><clipPath id="clip0"><path fill="#fff" d="M0 0h200.782v188.415H0z"/></clipPath></defs></svg>