<svg width="215" height="189" fill="none" xmlns="http://www.w3.org/2000/svg"><g clip-path="url(#clip0)"><path d="M39.504 141.486c-.741-.026-1.23-.553-1.206-1.178a1.14 1.14 0 011.177-1.092c.675.013 1.176.526 1.166 1.151a1.137 1.137 0 01-1.137 1.119zm-4.212-.615c-.09 0-.181-.01-.274-.033-.679-.168-1.051-.783-.903-1.389.152-.609.765-.98 1.375-.829.679.168 1.051.783.903 1.389-.129.516-.59.862-1.101.862zm-4.012-1.409a1.12 1.12 0 01-.487-.112c-.636-.309-.874-.987-.6-1.549.273-.563.952-.8 1.516-.527.626.3.867.974.597 1.54a1.13 1.13 0 01-1.025.648zm-3.56-2.293c-.263 0-.527-.092-.74-.277-.535-.467-.581-1.184-.166-1.655a1.135 1.135 0 011.602-.102c.521.451.574 1.168.165 1.642a1.15 1.15 0 01-.86.392zm-2.725-3.225c-.386 0-.762-.198-.976-.55-.36-.612-.178-1.306.363-1.622a1.14 1.14 0 011.555.405c.357.589.182 1.286-.359 1.609a1.181 1.181 0 01-.583.158zm-1.58-3.913c-.513 0-.978-.349-1.103-.868-.162-.692.22-1.3.83-1.442.61-.141 1.22.24 1.362.849.161.671-.215 1.284-.824 1.428a1.054 1.054 0 01-.264.033zm-.47-4.209a1.127 1.127 0 01-1.138-1.125c0-.701.508-1.208 1.138-1.208.626 0 1.137.507 1.137 1.136 0 .681-.511 1.197-1.137 1.197zm.036-4.235a1.136 1.136 0 01-1.137-1.135c.003-.704.51-1.208 1.137-1.208.636.004 1.14.517 1.137 1.142-.003.695-.51 1.201-1.137 1.201zm-.02-4.241a1.14 1.14 0 01-1.137-1.126c-.01-.691.491-1.207 1.12-1.214.637 0 1.144.497 1.151 1.119.007.707-.501 1.217-1.127 1.224 0-.003-.004-.003-.007-.003zm-.06-4.245a1.134 1.134 0 01-1.133-1.113c-.01-.707.491-1.22 1.117-1.23a1.131 1.131 0 011.15 1.119c.014.691-.484 1.211-1.11 1.22-.01.004-.017.004-.023.004zm-.091-4.245a1.133 1.133 0 01-1.134-1.103c-.017-.707.484-1.224 1.11-1.237a1.139 1.139 0 011.16 1.112c.02.691-.474 1.215-1.104 1.231-.013-.003-.023-.003-.032-.003zm-.12-4.242a1.133 1.133 0 01-1.133-1.102c-.023-.691.468-1.218 1.094-1.238a1.133 1.133 0 011.174 1.096c.02.708-.475 1.228-1.101 1.244h-.033zm-.134-4.242c-.61 0-1.114-.483-1.134-1.096-.023-.697.468-1.224 1.094-1.243.62-.02 1.154.467 1.174 1.096.023.697-.469 1.224-1.095 1.243h-.04zm-.149-4.241c-.61 0-1.114-.484-1.134-1.096-.03-.691.459-1.221 1.085-1.244a1.13 1.13 0 011.18 1.086c.023.707-.465 1.23-1.094 1.254h-.037zm-.161-4.239a1.135 1.135 0 01-1.134-1.089c-.026-.707.465-1.23 1.094-1.254a1.136 1.136 0 011.174 1.093c.03.69-.458 1.217-1.085 1.244-.02.003-.033.006-.05.006zm-.172-4.241a1.135 1.135 0 01-1.133-1.086c-.03-.698.458-1.228 1.084-1.254a1.13 1.13 0 011.18 1.086c.03.697-.458 1.227-1.084 1.254h-.047zm-.178-4.242a1.135 1.135 0 01-1.133-1.086c-.033-.691.451-1.224 1.077-1.254.63-.026 1.16.454 1.19 1.08.03.707-.458 1.233-1.084 1.26h-.05zm-.18-4.239a1.135 1.135 0 01-1.135-1.089c-.033-.69.452-1.22 1.078-1.254.633-.03 1.16.455 1.19 1.08.03.707-.458 1.234-1.084 1.26-.017.004-.033.004-.05.004zm-.185-4.245c-.607 0-1.111-.477-1.134-1.089-.033-.69.451-1.22 1.078-1.254.63-.03 1.16.455 1.19 1.08.03.707-.459 1.234-1.085 1.26-.016.004-.033.004-.05.004zm-.185-4.238a1.135 1.135 0 01-1.134-1.09c-.033-.69.452-1.223 1.078-1.253.63-.03 1.16.454 1.19 1.08.03.707-.458 1.233-1.085 1.26-.016.003-.032.003-.049.003zm-.181-4.242a1.135 1.135 0 01-1.134-1.085c-.033-.692.451-1.225 1.078-1.254a1.14 1.14 0 011.19 1.08c.03.707-.459 1.233-1.085 1.26h-.05zm-.178-4.238c-.607 0-1.111-.477-1.134-1.09-.033-.69.451-1.22 1.078-1.253.636-.03 1.16.454 1.19 1.08.03.707-.459 1.233-1.085 1.26-.02 0-.036.003-.05.003zm157.726-1.237c-.606 0-1.11-.477-1.134-1.09-.029-.697.459-1.227 1.085-1.253a1.124 1.124 0 011.18 1.086c.03.697-.458 1.227-1.085 1.253-.013.004-.029.004-.046.004zm-157.91-3.005c-.607 0-1.112-.477-1.135-1.089-.03-.697.458-1.227 1.085-1.254a1.13 1.13 0 011.18 1.086c.03.701-.459 1.228-1.085 1.254-.016.003-.033.003-.046.003zm157.742-1.244a1.134 1.134 0 01-1.134-1.102c-.003-.056 2.268-.151 2.268-.151l-1.134.046 1.134-.046c.02.714-.475 1.234-1.101 1.25-.013.003-.023.003-.033.003zM20.647 53.724a1.133 1.133 0 01-1.134-1.103c-.023-.69.468-1.217 1.095-1.237a1.132 1.132 0 011.173 1.096c.02.707-.475 1.227-1.1 1.247-.014-.003-.024-.003-.034-.003zm157.74-1.247a1.134 1.134 0 01-1.134-1.103c-.026-.684.458-1.21 1.088-1.237a1.128 1.128 0 011.18 1.086c.02.714-.475 1.237-1.101 1.254h-.033zM20.575 49.482a1.136 1.136 0 01-1.137-1.135c-.004-.691.5-1.205 1.127-1.208.642.006 1.14.5 1.144 1.125 0 .708-.508 1.218-1.134 1.218zm157.67-1.254a1.133 1.133 0 01-1.134-1.089c-.019-.714.475-1.237 1.101-1.254.646 0 1.151.487 1.167 1.103.027.684-.461 1.21-1.088 1.237-.016.003-.033.003-.046.003zM20.65 45.237c-.675-.026-1.16-.556-1.137-1.181.033-.708.564-1.192 1.193-1.159.627.03 1.111.563 1.082 1.188-.027.675-.531 1.152-1.137 1.152zm157.463-1.257a1.132 1.132 0 01-1.133-1.102c-.02-.698.474-1.221 1.104-1.238.646 0 1.15.487 1.167 1.103.019.7-.475 1.22-1.101 1.237h-.037zm-157.13-2.972a1.133 1.133 0 01-1.127-1.264c.086-.7.653-1.141 1.276-1.065.623.075 1.064.641.989 1.263-.08.642-.57 1.066-1.138 1.066zm157.022-1.273c-.62 0-1.128-.497-1.134-1.119-.02-.684.474-1.204 1.104-1.22.646 0 1.15.486 1.167 1.102.01.714-.491 1.227-1.118 1.237h-.019zM21.722 36.833a1.132 1.132 0 01-1.104-1.405c.168-.678.784-1.05 1.39-.902.61.151.983.763.831 1.372-.142.589-.606.934-1.117.934zm156.194-1.346a1.133 1.133 0 01-1.134-1.103c-.01-.714.491-1.23 1.117-1.237.636 0 1.144.497 1.151 1.119.016.684-.475 1.204-1.105 1.22h-.029zm-154.8-2.653c-.165 0-.33-.036-.488-.112a1.132 1.132 0 01-.537-1.51c.31-.635.989-.872 1.552-.599.564.273.801.951.528 1.514-.224.47-.633.707-1.055.707zm154.747-1.596c-.62 0-1.127-.497-1.134-1.119 0-.713.508-1.224 1.134-1.224.626 0 1.137.507 1.137 1.136.01.684-.491 1.198-1.121 1.207h-.016zM25.46 29.32a1.12 1.12 0 01-.772-.303 1.133 1.133 0 01-.062-1.602c.48-.517 1.2-.54 1.658-.112.458.427.48 1.145.052 1.602-.267.293-.573.415-.876.415zm152.403-2.33a1.136 1.136 0 01-1.137-1.135c0-.701.507-1.208 1.137-1.208.626 0 1.137.507 1.137 1.135 0 .701-.511 1.208-1.137 1.208zm-149.041-.214a1.133 1.133 0 01-.524-2.142c.623-.32 1.308-.102 1.595.454.287.556.07 1.24-.488 1.527-.23.118-.409.161-.583.161zm3.994-1.379a1.134 1.134 0 01-.234-2.244c.696-.141 1.296.257 1.418.872a1.133 1.133 0 01-.89 1.336 1.29 1.29 0 01-.294.036zm16.969-.381a1.134 1.134 0 01-.007-2.268c.71 0 1.217.507 1.217 1.132 0 .626-.508 1.136-1.137 1.136h-.073zm-4.18 0c-.708-.004-1.212-.517-1.21-1.142a1.134 1.134 0 011.135-1.126c.702 0 1.21.507 1.21 1.136a1.13 1.13 0 01-1.135 1.132zm-4.248-.03c-.715-.01-1.216-.523-1.21-1.152a1.134 1.134 0 011.134-1.119c.709.004 1.213.517 1.21 1.142a1.134 1.134 0 01-1.134 1.13zm12.683-.006a1.134 1.134 0 01-.013-2.267c.702-.014 1.216.49 1.226 1.118a1.134 1.134 0 01-1.12 1.149h-.093zm-17.008-.033a1.136 1.136 0 01-.023-2.27c.709-.01 1.22.483 1.233 1.108a1.137 1.137 0 01-1.114 1.158l-.096.004zm21.26-.043a1.136 1.136 0 01-.02-2.27c.716-.004 1.22.483 1.233 1.108a1.136 1.136 0 01-1.11 1.159l-.103.003zm4.252-.128a1.134 1.134 0 01-.036-2.268c.689-.026 1.223.458 1.246 1.083a1.131 1.131 0 01-1.088 1.178c-.095.007-.108.007-.122.007zm4.25-.188a1.135 1.135 0 01-.064-2.267c.71-.03 1.24.45 1.27 1.076a1.137 1.137 0 01-1.082 1.188c-.082.003-.102.003-.125.003zm4.248-.257a1.132 1.132 0 01-.076-2.264c.695-.05 1.236.418 1.282 1.04a1.133 1.133 0 01-1.048 1.214c-.109.01-.135.01-.158.01zm4.239-.349a1.139 1.139 0 01-1.131-1.026 1.136 1.136 0 011.022-1.238c.695-.065 1.252.389 1.312 1.014a1.134 1.134 0 01-1.022 1.237c-.109.01-.145.013-.181.013zm4.229-.467c-.56 0-1.049-.415-1.124-.987a1.13 1.13 0 01.979-1.27c.705-.086 1.272.355 1.348.977a1.134 1.134 0 01-.99 1.264 1.847 1.847 0 01-.213.016zm4.205-.635c-.54 0-1.018-.385-1.117-.931-.112-.616.3-1.205.916-1.317.7-.121 1.286.293 1.395.912a1.134 1.134 0 01-.927 1.31 1.75 1.75 0 01-.267.026zm94.049-.128c-.6 0-1.101-.468-1.134-1.073-.039-.698.442-1.234 1.068-1.267a1.14 1.14 0 011.197 1.07c.039.697-.442 1.233-1.068 1.266-.02.004-.043.004-.063.004zm-89.892-.767c-.504 0-.966-.339-1.098-.849a1.132 1.132 0 01.814-1.382c.666-.181 1.29.178 1.454.783a1.135 1.135 0 01-.798 1.392 1.552 1.552 0 01-.372.056zm4.021-1.375a1.135 1.135 0 01-.471-2.166c.633-.293 1.308-.043 1.572.523a1.13 1.13 0 01-.554 1.504 1.244 1.244 0 01-.547.139zm85.347-2.06c-.514 0-.979-.353-1.104-.873-.155-.687.227-1.3.84-1.434.61-.138 1.22.243 1.358.852.158.668-.217 1.28-.83 1.425-.089.02-.178.03-.264.03zm-82.084-.514a1.13 1.13 0 01-.999-1.668c.307-.602.993-.823 1.55-.54.56.283.78.968.498 1.524-.251.467-.643.684-1.049.684zm80.426-3.353a1.12 1.12 0 01-.906-.457c-.412-.55-.314-1.26.187-1.636a1.138 1.138 0 011.592.224c.412.563.31 1.277-.197 1.649-.205.148-.442.22-.676.22zm-78.784-.365a1.135 1.135 0 01-.735-2c.547-.455 1.262-.39 1.664.091.402.48.337 1.198-.145 1.596-.263.224-.524.313-.784.313zm3.761-1.919a1.135 1.135 0 01-.366-2.208c.676-.224 1.318.099 1.513.694a1.13 1.13 0 01-.722 1.432 1.237 1.237 0 01-.425.082zm71.78-.355a1.17 1.17 0 01-.508-.119c-.616-.3-.854-.977-.58-1.54.273-.562.952-.8 1.516-.526.64.319.867 1 .587 1.56-.198.394-.6.625-1.015.625zm-67.667-.711a1.135 1.135 0 01-.224-2.244c.689-.138 1.289.26 1.411.875a1.133 1.133 0 01-.89 1.333 1.37 1.37 0 01-.297.036zm63.658-.638c-.079 0-.161-.01-.243-.027-.666-.148-1.062-.757-.927-1.369a1.126 1.126 0 011.345-.862c.679.148 1.068.754.936 1.366-.118.533-.59.892-1.111.892zm-59.432-.056c-.56 0-1.058-.408-1.137-.978a1.12 1.12 0 01.952-1.276c.663-.093 1.253.339 1.339.96a1.121 1.121 0 01-.953 1.277 1.382 1.382 0 01-.201.017zm4.196-.474a1.134 1.134 0 01-.109-2.264c.705-.066 1.256.395 1.312 1.02a1.134 1.134 0 01-1.028 1.23c-.103.014-.139.014-.175.014zm51.047-.142c-.043 0-.082-.003-.125-.006-.696-.076-1.147-.635-1.078-1.257a1.136 1.136 0 011.253-1.004c.695.076 1.147.635 1.077 1.26a1.133 1.133 0 01-1.127 1.007zm-46.775-.19a1.146 1.146 0 01-1.147-1.057 1.12 1.12 0 011.038-1.207c.666-.043 1.226.424 1.269 1.05a1.12 1.12 0 01-1.038 1.207c-.07.003-.096.006-.122.006zm42.543-.149c-.762-.04-1.243-.575-1.207-1.2a1.137 1.137 0 011.197-1.07c.699.04 1.18.572 1.144 1.198a1.135 1.135 0 01-1.134 1.072zm-38.328-.079a1.135 1.135 0 01-.046-2.267c.683-.033 1.223.451 1.256 1.076a1.137 1.137 0 01-1.081 1.188c-.099 0-.112.003-.129.003zm34.082-.079c-.725-.016-1.222-.533-1.209-1.158a1.132 1.132 0 011.134-1.109c.731.02 1.226.54 1.209 1.165a1.13 1.13 0 01-1.134 1.102zm-4.248-.072c-.716-.01-1.22-.523-1.21-1.152a1.134 1.134 0 011.134-1.119c.725.014 1.223.534 1.21 1.159a1.134 1.134 0 01-1.134 1.112zm-25.582-.003a1.132 1.132 0 01-1.133-1.103 1.136 1.136 0 011.104-1.165c.718-.003 1.223.484 1.239 1.1a1.136 1.136 0 01-1.104 1.164l-.106.004zm21.333-.063c-.715-.01-1.22-.523-1.21-1.151a1.152 1.152 0 011.151-1.12c.702.01 1.203.524 1.193 1.152a1.132 1.132 0 01-1.134 1.12zm-17.084-.026a1.132 1.132 0 01-.013-2.267c.705 0 1.213.49 1.223 1.109a1.136 1.136 0 01-1.111 1.158h-.099zm12.832-.023c-.709-.003-1.213-.517-1.21-1.142a1.134 1.134 0 011.134-1.125c.715.01 1.216.523 1.21 1.148a1.132 1.132 0 01-1.134 1.119zm-8.577-.023a1.133 1.133 0 01-.006-2.267c.709 0 1.216.506 1.216 1.132 0 .625-.507 1.135-1.137 1.135h-.073zm4.325-.003c-.702 0-1.21-.507-1.21-1.136 0-.625.508-1.135 1.137-1.135.709.003 1.213.517 1.21 1.142a1.139 1.139 0 01-1.137 1.129z" fill="#CDDEFF"/><path fill-rule="evenodd" clip-rule="evenodd" d="M14.882 51.565h148.464c4.859 0 8.798 3.932 8.798 8.783v33.377c0 4.85-3.939 8.783-8.798 8.783H14.882c-4.859 0-8.798-3.932-8.798-8.783V60.348c0-4.85 3.94-8.783 8.798-8.783z" fill="#E2EBFF"/><path fill-rule="evenodd" clip-rule="evenodd" d="M67.62 90.385c-.188-1.027-.254-2.024-.28-3.027H17.826a2.92 2.92 0 00-2.924 2.918 2.92 2.92 0 002.924 2.92h49.877c.03-.939.062-1.876-.083-2.81z" fill="#F7F7F7"/><path fill-rule="evenodd" clip-rule="evenodd" d="M77.357 87.355H67.34c.027 1.003.093 2 .28 3.027.145.938.113 1.872.083 2.81h9.651a2.918 2.918 0 10.003-5.838z" fill="#CDDEFF"/><path fill-rule="evenodd" clip-rule="evenodd" d="M17.878 68.624a2.92 2.92 0 00-2.923 2.915 2.92 2.92 0 002.923 2.92h12.15c-.06-1.952-.112-3.9-.257-5.835H17.878z" fill="#F7F7F7"/><path fill-rule="evenodd" clip-rule="evenodd" d="M77.357 68.624H29.77c.146 1.935.198 3.883.258 5.834h47.329a2.92 2.92 0 002.924-2.919 2.92 2.92 0 00-2.924-2.915z" fill="#CDDEFF"/><path fill-rule="evenodd" clip-rule="evenodd" d="M17.832 78.002a2.928 2.928 0 00-2.93 2.926 2.928 2.928 0 002.93 2.925h33.62c-.345-1.935-.382-3.916-.767-5.854H17.832v.003z" fill="#F7F7F7"/><path fill-rule="evenodd" clip-rule="evenodd" d="M77.318 78.002H50.685c.386 1.939.422 3.92.768 5.855h25.865a2.928 2.928 0 100-5.855zM66.961 84.87c2.98 0 5.396 2.409 5.396 5.38 0 2.972-2.416 5.38-5.396 5.38s-5.399-2.408-5.399-5.38c0-2.971 2.42-5.38 5.4-5.38zM28.97 66.14c2.98 0 5.395 2.405 5.395 5.373 0 2.968-2.416 5.377-5.395 5.377-2.98 0-5.393-2.405-5.393-5.377 0-2.968 2.416-5.374 5.393-5.374z" fill="#CDDEFF"/><path fill-rule="evenodd" clip-rule="evenodd" d="M49.488 74.258c3.685 0 6.671 2.997 6.671 6.696s-2.986 6.697-6.671 6.697-6.672-2.998-6.672-6.697 2.987-6.696 6.672-6.696z" fill="#CDDEFF"/><path d="M163.238 101.337H14.773c-5.317 0-9.641-4.318-9.641-9.626V58.334c0-5.308 4.324-9.625 9.641-9.625h148.465c5.316 0 9.641 4.317 9.641 9.625v33.377c0 5.308-4.325 9.626-9.641 9.626zM14.773 50.394c-4.387 0-7.957 3.56-7.957 7.94v33.377c0 4.38 3.57 7.94 7.957 7.94h148.465c4.387 0 7.953-3.563 7.953-7.94V58.334c0-4.38-3.57-7.94-7.953-7.94H14.773z" fill="#CDDEFF"/><path d="M132.336 60.97H0v1.685h132.336V60.97z" fill="#CDDEFF"/><path fill-rule="evenodd" clip-rule="evenodd" d="M123.977 23.311h79.256c4.858 0 8.797 3.933 8.797 8.783v39.673c0 4.85-3.939 8.782-8.797 8.782h-79.256c-4.858 0-8.797-3.932-8.797-8.782V32.094c-.004-4.85 3.939-8.783 8.797-8.783z" fill="#F7F7F7"/><path fill-rule="evenodd" clip-rule="evenodd" d="M177.299 37.659h20.426c4.858 0 8.797 3.932 8.797 8.782v20.13c0 4.85-3.939 8.782-8.797 8.782h-20.426c-4.859 0-8.798-3.932-8.798-8.782V46.44c0-4.85 3.939-8.782 8.798-8.782z" fill="#CDDEFF"/><path d="M204.736 79.964h-79.255c-5.317 0-9.642-4.318-9.642-9.626V30.67c0-5.308 4.325-9.625 9.642-9.625h79.255c5.317 0 9.641 4.317 9.641 9.625v39.673c-.003 5.304-4.328 9.622-9.641 9.622zm-79.255-57.239c-4.388 0-7.957 3.564-7.957 7.94v39.673c0 4.38 3.569 7.94 7.957 7.94h79.255c4.387 0 7.954-3.56 7.954-7.94V30.67c0-4.38-3.57-7.94-7.954-7.94h-79.255v-.003z" fill="#CDDEFF"/><path fill-rule="evenodd" clip-rule="evenodd" d="M50.566 92.922s-3.003-6.048-3.84-8.714c-.834-2.665-.026-7.973 3.28-5.646 3.306 2.326 8.758 12.208 9.7 19.586.887 6.933-.2 18.559-.418 27.882-.185 7.874.56 14.15.56 14.15s7.162.447 13.191-1.744c6.029-2.195 17.938-9.201 17.938-9.201s-4.289-10.626 2.373-15.266c8.306-5.785 15.706-5.926 15.706-5.926l-.488-5.716s-7.706-.79-9.98-5.996c-2.275-5.202-.7-7.736-.7-7.736s-1.041-1.336-1.743-2.998c-.705-1.662 1.625-.997 2.861-2.09 1.236-1.095 2.653-3.971 2.653-3.971s-7.449-10.08 2.443-16.24c9.892-6.16 41.722-9.743 45.994 4.252 4.275 13.995-2.545 36.786 2.653 43.427 5.195 6.637 5.653 6.341 5.653 6.341s.613-22.897 1.606-28.3c.992-5.403.735-12.008 6.209-13.172 5.479-1.165 13.597-3.13 16.194-3.347 2.598-.217 6.421.457 5.165 2.3-1.259 1.843-1.743 3.975-1.743 3.975s4.733.023 7.957-.836c3.227-.859 6.691-3.096 7.469-1.326.778 1.774 0 2.929 0 2.929s5.234-1.195 3.767 1.115c-1.463 2.307-3.072 4.045-3.072 4.045s.528 2.55-2.861 4.113c-3.388 1.563-11.302 2.873-14.658 3.416-3.355.543-6.981 1.74-6.981 1.74l2.93 32.763s19.385 7.417 15.495 23.558c-3.889 16.14-17.519 23.561-17.519 23.561s-5.184 12.959-14.657 12.686c-9.474-.274-16.264-6.134-16.264-6.134s-5.517 2.333-9.842 1.046c-4.321-1.287-5.864-2.998-5.864-2.998H98.449s-3.118-1.757-5.096-4.6c-1.977-2.84-2.58-7.806-2.58-7.806s-15.796 2.297-31.06.905c-15.265-1.388-26.973-5.669-27.012-19.658-.04-13.986 4.048-34.292 4.048-34.292s-5.525-4.703-3.003-8.576c2.521-3.87 3.141-3.277 3.141-3.277s.712-3.953 1.955-4.532c1.239-.579 2.58-.418 2.58-.418s.482-4.323 3.28-4.53c2.802-.208 5.864 1.256 5.864 1.256z" fill="#fff"/><path fill-rule="evenodd" clip-rule="evenodd" d="M46.261 2.893h74.124c4.858 0 8.797 3.932 8.797 8.782v37.402c0 4.85-3.939 8.783-8.797 8.783H46.261c-4.858 0-8.797-3.932-8.797-8.783V11.675c0-4.85 3.939-8.782 8.797-8.782z" fill="#CDDEFF"/><path d="M130.649 11.784H38.931v1.685h91.718v-1.685z" fill="#E2EBFF"/><path d="M120.899 40.33H73.682a.843.843 0 110-1.685H120.9c.465 0 .844.38.844.843a.847.847 0 01-.844.843zM77.275 47.432a.841.841 0 01-.52-1.504l1.822-1.428-1.866-1.323a.841.841 0 01-.198-1.175.844.844 0 011.177-.197l2.785 1.974c.218.155.35.402.356.665a.834.834 0 01-.323.681l-2.712 2.123a.826.826 0 01-.521.184zM120.899 45.527H84.974a.843.843 0 110-1.685H120.9c.465 0 .844.378.844.842a.845.845 0 01-.844.843zM120.899 29.057h-7.403a.843.843 0 110-1.685h7.403c.465 0 .844.378.844.842a.845.845 0 01-.844.843zM94.797 34.842H73.682a.843.843 0 110-1.685h21.115c.465 0 .844.378.844.842a.845.845 0 01-.844.843z" fill="#CDDEFF"/><path d="M120.899 40.33H73.682a.843.843 0 110-1.685H120.9c.465 0 .844.38.844.843a.847.847 0 01-.844.843zM120.823 23.094H73.609a.843.843 0 110-1.685h47.214a.843.843 0 110 1.685zM108.506 29.057H73.682a.843.843 0 110-1.685h34.827c.465 0 .844.378.844.842a.845.845 0 01-.847.843zM120.899 34.842h-19.576a.843.843 0 110-1.685h19.576c.465 0 .844.378.844.842a.847.847 0 01-.844.843z" fill="#CDDEFF"/><path d="M120.899 40.33H73.682a.843.843 0 110-1.685H120.9c.465 0 .844.38.844.843a.847.847 0 01-.844.843z" fill="#CDDEFF"/><path d="M122.096 5.627l-3.813 3.806 1.191 1.19 3.813-3.807-1.191-1.19z" fill="#E2EBFF"/><path d="M119.474 5.629l-1.191 1.189 3.813 3.807 1.191-1.19-3.813-3.806z" fill="#E2EBFF"/><path fill-rule="evenodd" clip-rule="evenodd" d="M53.008 18.263h7.993c4.859 0 8.798 3.933 8.798 8.783V40.88c0 4.85-3.939 8.783-8.798 8.783h-7.993c-4.858 0-8.797-3.932-8.797-8.783V27.046c-.003-4.85 3.936-8.783 8.797-8.783z" fill="#E2EBFF"/><path d="M209.558 33.851h-84.262a1.1 1.1 0 110-2.198h84.262a1.1 1.1 0 110 2.198zM161.442 44.319h-33.506a1.1 1.1 0 110-2.198h33.506a1.1 1.1 0 110 2.198zM161.514 50.614h-33.505a1.1 1.1 0 110-2.198h33.505a1.1 1.1 0 110 2.198zM161.514 57.274h-33.505a1.1 1.1 0 110-2.198h33.505a1.1 1.1 0 110 2.198zM204.06 25.165l-3.813 3.807 1.191 1.189 3.813-3.808-1.191-1.188z" fill="#CDDEFF"/><path d="M201.444 25.174l-1.192 1.189 3.813 3.807 1.191-1.189-3.812-3.807z" fill="#CDDEFF"/><path fill-rule="evenodd" clip-rule="evenodd" d="M195.131 24.924a2.745 2.745 0 110 5.489 2.745 2.745 0 110-5.49z" fill="#CDDEFF"/><path d="M121.852 56.652H47.728c-5.317 0-9.641-4.317-9.641-9.625V9.625C38.087 4.317 42.41 0 47.728 0h74.124c5.316 0 9.641 4.317 9.641 9.625v37.402c0 5.308-4.325 9.625-9.641 9.625zM47.728 1.685c-4.387 0-7.953 3.564-7.953 7.94v37.402c0 4.38 3.57 7.94 7.953 7.94h74.124c4.387 0 7.953-3.563 7.953-7.94V9.625c0-4.38-3.57-7.94-7.953-7.94H47.728z" fill="#CDDEFF"/><path fill-rule="evenodd" clip-rule="evenodd" d="M16.679 53.98a2.745 2.745 0 110 5.49 2.747 2.747 0 01-2.75-2.745 2.75 2.75 0 012.75-2.745z" fill="#CDDEFF"/><path d="M25.614 54.224l-3.813 3.807 1.191 1.189 3.813-3.807-1.19-1.189z" fill="#CDDEFF"/><path d="M22.992 54.227l-1.19 1.189 3.812 3.806 1.191-1.189-3.813-3.806z" fill="#CDDEFF"/><path fill-rule="evenodd" clip-rule="evenodd" d="M93.538 127.088s-1.493-2.892-.28-6.41c1.153-3.353 7.076-7.105 11.378-8.154 11.352-2.768 11.411-2.238 14.101-5.157 2.686-2.919 2.511-6.134 2.511-6.134s2.519.023 3.003-3.623c.472-3.567-2.515-4.182-2.515-4.182s-7.38-2.856-11.375-9.546c-3.998-6.69-4.328-12.196-4.328-12.196l-3.767 5.713s-3.431-8.036 4.048-11.636c7.482-3.603 29.902-8.108 37.971.56 8.072 8.664 6.421 18.743 6.421 18.743s-5.416 27.336 7.957 33.381c13.372 6.042 34.616 11.293 36.505 26.269 2.406 19.06-18.287 29.268-18.287 29.268s-5.09 13.235-13.402 13.31c-11.201.099-18.218-9.895-18.218-9.895s-10.61 2.491-16.824-6.272c-6.21-8.763-8.978-19.451-8.794-30.452.182-11 4.816-25.993 4.816-25.993l-1.744-1.323-4.047 10.313s-8.317-.414-13.122 0c-4.806.418-12.008 3.416-12.008 3.416z" fill="#A89AFF"/><path fill-rule="evenodd" clip-rule="evenodd" d="M62.1 144.109s13.928-.612 23.105-6.134c9.173-5.522 14.351-8.78 20.802-9.757 6.45-.977 13.471-.349 13.471-.349s-5.867 23.591 1.187 35.329 11.655 15.957 11.655 15.957h-27.503s-5.709-2.199-8.375-7.319c-2.667-5.12-3.072-6.341-3.072-6.341l-27.293 1.741s-8.246-4.614-7.749-11.985c.501-7.364 3.771-11.142 3.771-11.142z" fill="#EC5252"/><path fill-rule="evenodd" clip-rule="evenodd" d="M109.112 84.738a1.5 1.5 0 01.55 2.05l-.807 1.396a1.505 1.505 0 01-2.054.55 1.5 1.5 0 01-.55-2.05l.807-1.396a1.506 1.506 0 012.054-.55z" fill="#000"/><path fill-rule="evenodd" clip-rule="evenodd" d="M157.803 115.052c.382-10.03.547-19.178 1.687-28.543.534-4.393 1.256-8.734 4.546-10.392 2.58-1.303 6.727-1.112 10.043-1.902 3.431-.816 5.893-2.4 9.75-2.123 3.105.22 6.796 2.166 4.984 5.417 2.073-.119 4.252-.477 6.45-1.024 2.993-.747 8.517-2.8 8.211 1.975 1.17.674 2.623 1.115 2.785 2.636.247 2.3-2.228 3.5-3.593 4.537.758 1.402-.619 2.6-1.612 3.587-2.106 2.093-4.865 3.127-8.283 3.808-4.753.944-9.872 1.158-13.708 2.415.959 10.507 2.06 20.873 3.078 31.324 4.809 2.02 8.699 4.939 11.51 9.148 2.716 4.064 4.645 9.744 3.445 16.394-1.998 11.093-9.892 18.171-18.327 22.907-2.561 5.785-5.623 11.356-12.462 12.807-8.053 1.705-14.105-2.435-18.475-6.002-3.296 1.247-6.935 1.474-9.971.586-3.003-.879-5.426-2.61-7.403-4.318-4.236-3.656-7.611-8.059-10.044-13.393-2.356-5.17-4.252-11.741-4.252-19.175 0-7.433.815-14.544 2.492-20.859-5.936-.349-11.269.115-15.907 1.316-4.575 1.185-8.412 3.33-12.02 5.416-7.104 4.101-13.208 8.451-22.873 9.955-.603.095-1.308.089-1.832.293-.722.279-1.708 1.691-2.271 2.487-1.909 2.686-3.722 6.108-3.666 10.392.083 6.078 3.633 9.05 7.186 11.564 9.546-.129 19.942-1.014 29.174-2.195 1.335-.171 3.781-.842 3.52 1.171-.158 1.215-2.297 1.202-3.3 1.317-1.571.181-2.742.273-4.103.441 1.348 6.209 4.384 10.602 10.188 12.879.897.352 3.076.78 1.978 2.05-.27.313-1.753.527-2.492.441-1.226-.141-3.596-1.619-4.545-2.27-2.644-1.803-4.634-4.581-5.94-7.612-.672-1.563-1.427-3.241-1.39-5.195-8.937.727-18.71 1.888-28.226 1.388-9.519-.497-17.624-2.32-23.679-6.367-3.296-2.205-5.406-4.462-6.305-8.711-.874-4.126-.27-9.2.22-13.903.936-8.947 2.502-17.717 4.252-25.763-1.186-1.092-2.57-2.27-3.371-4.024-1.543-3.376-.192-7.934 2.933-8.928-.244-2.971 1.177-5.495 4.252-5.637.995-1.74 2.387-3.896 4.984-4.097 1.572-.121 2.89.497 4.18 1.024-1.049-3.117-5.683-7.918-3.224-12.956.402-.826 1.361-1.974 2.857-1.974 2.443 0 4.213 2.695 5.278 4.317 1.331 2.027 2.38 4.249 3.227 6.368 1.882 4.709 3.174 9.714 3.737 15.367.604 6.022-.135 12.281-.514 18.076-.399 6.098-.346 12.501.366 18.151 13.04-.059 20.812-6.008 29.25-10.905-1.325-2.372-2.6-5.597-1.688-8.635.762-2.533 2.91-4.735 4.618-6.295 3.77-3.445 8.474-6.311 15.176-6.584-.34-1.343-.782-2.587-1.101-3.952-5.778-.204-9.493-3.57-10.337-9.441-.247-1.725-.67-5.315 1.1-5.341 1.405-.023 1.296 1.616 1.247 3 .171.587 1.707 2.074 3.517 2.782 1.411.552 3.804-.395 3.813 1.388.007 1.702-3.164 1.54-4.69.951-.933-.359-1.549-1.089-2.126-1.464.979 4.508 5.116 6.012 10.63 5.633 1.375-.092 3.53-.835 3.52.951-.013 1.666-2.373 1.343-4.031 1.537.079 1.119.689 2.333.88 3.587 3.303-.461 5.34-2.185 7.037-4.245-1.005-.507-3.645-1.224-3.52-2.925.043-.556.419-1.034 1.025-1.1.613-.065 1.273.53 1.54.731.662.5 1.42 1.066 2.419 1.099 1.618.053 3.514-1.434 3.886-2.853.468-1.773-.452-3.603-2.492-3.439-.933.076-3.045 1.3-3.444-.22-.185-.701.171-1.056.438-1.464-3.401-2.511-6.345-5.473-8.721-9.004-1.698-.283-4.384.224-4.18-1.681.115-1.063 1.487-1.201 2.785-.879-.504-1.619-1.424-3.455-1.76-5.489-.89.964-1.714 2.228-2.347 3.808-.814 2.033-1.114 4.324-2.933 5.268-1.127.589-4.236.859-4.473-.658-.32-2.044 1.743-1.043 3.079-1.465.945-.299.748-.964 1.245-1.757-.418-.5-.672-.553-.88-.95-.787-1.505-1.07-3.45-1.318-5.345-.89-6.808 2.963-10.06 7.258-12.221 4.354-2.192 9.493-3.702 15.248-4.538 9.374-1.363 18.857.296 24.853 4.024 4.796 2.985 7.835 7.486 7.917 15.075.076 7.427-1.272 13.982-1.612 21.373-.352 7.7 1.131 13.699 5.647 17.052zm-36.874 1.975c.405-1.202 1.005-4.581 2.64-4.466 2.063.148.31 3.511 0 4.39-1.773 5.051-3.049 10.046-3.959 15.956-1.177 7.645-1.256 17.372.587 24.078 1.925 7.006 5.284 12.63 9.384 17.125 2.06 2.261 4.555 4.367 7.624 5.637 2.492 1.03 5.63 1.099 8.428.365.818-.214 1.708-.72 2.64-.73.683-.007 1.405.882 1.833 1.244 3.547 3.004 8.474 6.084 15.027 5.051 5.874-.928 8.6-5.367 10.63-9.879.29-.641.504-1.431.88-2.05.313-.513 1.414-1.017 2.054-1.392 7.172-4.189 13.702-10.356 15.762-19.54.794-3.547.554-7.911-.659-11.122-2.387-6.309-6.81-10.185-12.901-12.735-6.085-2.547-12.364-4.433-18.179-7.539-5.751-3.074-10.478-6.825-12.241-13.393-1.916-7.131-.221-15.875.438-23.493.326-3.77.643-8.5-.073-12-.731-3.578-2.432-5.964-4.911-7.905-4.628-3.623-12.004-5.46-20.673-5.051-4.789.227-9.552 1.25-13.93 2.853-3.675 1.349-8.352 3.215-9.895 6.588-1.143 2.497-.583 5.752.366 8.562.432-1.026.992-1.928 1.685-2.928.405-.59 1.849-1.972 1.905-2.56.155-1.593-1.487-5.368.952-5.197 1.345.096 1.167 2.29 1.319 3.587 1.14 9.665 5.679 15.605 12.021 20.126.521.372 1.157.944 1.467 1.023.711.181 1.443.053 1.905.22 2 .725 3.349 3.018 3.006 5.71-.346 2.718-2.848 4.571-5.06 5.124-.55 1.346-1.648 2.468-2.713 3.439-1.028.941-2.323 1.839-3.737 2.415-3.082 1.254-6.962.961-10.482 1.902-3.224.862-5.696 2.553-7.917 4.462-1.922 1.652-5.01 4.011-5.057 7.319-.033 2.217.894 3.646 1.612 5.268 6.78-3.686 15.831-5.838 26.537-5.124.574-1.763 1.049-3.448 1.685-5.34zm61.502-42.447c-2.9.214-5.089 1.59-8.576 2.267-2.898.566-6.784.343-8.943 1.685-2.066 1.284-2.554 5.407-2.933 8.49-1.177 9.652-1.365 19.777-1.76 29.932 5.573 3.778 12.578 6.131 19.279 8.783a3251.26 3251.26 0 00-2.934-29.494c-.943.325-2.225.102-2.198-1.1.026-1.076 1.068-1.108 2.053-1.536.396-.171.676-.441.953-.514.296-.075.633-.02.952-.072 1.665-.286 3.504-.954 5.498-1.244 5.386-.786 11.461-1.017 14.81-3.731.244-.198.692-.346.659-.734-2.106 1.122-5.32 1.76-8.356 2.195-1.457.207-3.902.819-3.886-.951.017-1.432 1.678-1.215 3.079-1.392 4.126-.52 7.732-1.669 10.554-3.294 1.114-.645 2.367-1.287 2.933-2.488-.27-.217-.646-.33-.952-.513-.745.42-.956.967-1.612 1.464-2.666 2.02-7.568 2.929-12.169 3.222-1.76.111-3.909.371-3.811-1.244.093-1.524 2.941-1.215 4.252-1.317 1.869-.144 3.517-.371 4.912-.658 3.161-.648 6.009-1.507 6.744-4.39-2.416-.016-4.615.988-7.11 1.465-1.197.227-2.489.382-3.811.513-1.311.128-2.847-.099-4.179.22-.636.152-1.411.787-2.199 1.1-1.786.704-3.19.911-4.911 1.681-1.051.47-3.411 1.873-3.372-.293.02-1.06 1.586-1.642 2.492-2.05 3.306-1.48 7.354-1.78 8.87-4.758-.887-.875-2.472-1.379-4.328-1.244zm-134.15 9.148c.37 1.915 1.64 3.604 2.641 5.489a44.74 44.74 0 012.492 5.634c.745 1.02 2.723 1.444 2.713 3-.007.675-.422 1.202-1.246 1.172-.735-.03-1.447-.954-2.126-1.536a27.273 27.273 0 00-2.054-1.61c-1.958-1.378-4.736-3.04-6.599-1.392-.316.28-.883.793-.731 1.1 2.26.66 3.853 1.306 5.863 2.56.811.503 3.405 1.856 3.372 3.146-.016.621-.438 1.158-1.173 1.171-.818.016-1.915-1.119-2.64-1.609-1.701-1.155-3.48-2.234-5.719-2.78-2.637-.646-4.723-.145-4.545 2.635 3.48.438 5.712 1.728 8.062 3.218.798.507 1.869 1.057 1.833 1.978-.03.767-.686 1.152-1.174 1.172-.699.026-1.625-.84-2.274-1.244a26.221 26.221 0 00-2.271-1.244c-1.51-.741-3.633-1.919-5.643-1.316-1.375.408-2.073 2.356-1.981 3.952.072 1.25.692 2.145 1.246 2.853.247.319.471.928.88.806.699-1.29.217-4.054 1.832-4.245 2.43-.29.937 3.393.587 4.903-.359 1.56-.705 3.36-1.025 4.903-2.04 9.793-3.896 20.307-4.4 31.104-.191 4.12.379 7.335 2.126 9.661 1.674 2.228 4.235 3.765 6.892 4.976 5.102 2.326 11.813 3.827 19.645 4.1.135-.385-.534-.754-.808-1.024-2.508-2.504-4.512-5.804-4.47-10.684.044-4.828 1.89-8.362 3.887-11.199.284-.404.771-.918.66-1.244-2.45.119-5.03.126-7.625-.072-1.816-.138-6.127.03-6.084-1.83.036-1.556 1.763-1.102 3.078-.951 2.334.267 5.01.458 7.33.441-.665-5.449-.715-11.188-.438-16.979.27-5.716 1.045-11.347.805-16.98-.228-5.384-1.46-10.396-3.079-14.858-.732-2.024-1.582-4.166-2.713-6.22-.886-1.608-2.458-4.264-4.252-4.83-.87.635-1.137 2.507-.873 3.873z" fill="#000"/><path fill-rule="evenodd" clip-rule="evenodd" d="M120.269 95.071c.745-.023 1.892.586 1.319 1.757-.251.514-1.006.662-1.76.807-.696.131-1.573.424-2.126.365-.841-.092-1.546-1.172-.88-2.05.471-.619 2.439-.846 3.447-.879z" fill="#000"/></g><defs><clipPath id="clip0"><path fill="#fff" d="M0 0h214.374v188.415H0z"/></clipPath></defs></svg>