<svg width="206" height="175" viewBox="0 0 206 175" fill="none" xmlns="http://www.w3.org/2000/svg">
<g clip-path="url(#clip0)">
<path d="M32.2631 121.832C31.4925 121.784 31.0213 121.244 31.0627 120.624C31.1041 120.005 31.6422 119.534 32.2663 119.576C32.9605 119.62 33.4318 120.157 33.3904 120.78C33.349 121.374 32.8522 121.832 32.2631 121.832ZM36.4122 121.826C35.8232 121.826 35.3264 121.368 35.2882 120.774C35.2468 120.154 35.7181 119.617 36.339 119.576C37.0332 119.531 37.5713 119.998 37.6127 120.621C37.6541 121.241 37.1828 121.778 36.5619 121.819C36.4632 121.826 36.4377 121.826 36.4122 121.826ZM40.6027 121.295C40.0773 121.295 39.6093 120.929 39.4978 120.396C39.3736 119.785 39.7653 119.191 40.3767 119.064C41.0358 118.918 41.6376 119.299 41.7746 119.903C41.9115 120.51 41.5326 121.111 40.9244 121.25C40.7556 121.285 40.6792 121.295 40.6027 121.295ZM28.0886 121.212C27.9962 121.212 27.9071 121.203 27.8147 121.177C27.1556 121.025 26.7766 120.418 26.9199 119.811C27.06 119.204 27.6682 118.829 28.2764 118.969C28.9706 119.14 29.3368 119.754 29.1871 120.357C29.0534 120.872 28.5949 121.212 28.0886 121.212ZM24.1337 119.757C23.9554 119.757 23.7739 119.715 23.6051 119.627C22.9905 119.302 22.7804 118.619 23.0733 118.069C23.3663 117.52 24.0477 117.31 24.5986 117.602C25.2132 117.926 25.4233 118.61 25.1304 119.159C24.9298 119.541 24.5381 119.757 24.1337 119.757ZM20.7584 117.259C20.4622 117.259 20.1661 117.145 19.9464 116.913C19.4592 116.401 19.4815 115.686 19.9336 115.26C20.3858 114.831 21.1023 114.853 21.529 115.305C22.0034 115.797 21.9907 116.512 21.5417 116.944C21.322 117.154 21.0418 117.259 20.7584 117.259ZM18.4052 113.789C17.9753 113.789 17.5677 113.544 17.3767 113.131C17.0869 112.508 17.3321 111.837 17.8989 111.574C18.4657 111.313 19.1344 111.558 19.3987 112.123C19.6916 112.762 19.4401 113.43 18.8733 113.69C18.7204 113.757 18.5612 113.789 18.4052 113.789ZM17.2015 109.769C16.657 109.769 16.1794 109.375 16.087 108.822C15.9692 108.154 16.3768 107.569 16.9914 107.461C17.6059 107.353 18.1918 107.76 18.3001 108.373C18.4147 109.076 17.9976 109.654 17.383 109.756C17.3225 109.762 17.262 109.769 17.2015 109.769ZM16.6952 105.58C16.1444 105.58 15.6635 105.18 15.5807 104.62C15.4852 103.918 15.9183 103.349 16.536 103.267C17.1538 103.184 17.7238 103.616 17.8066 104.233C17.9053 104.906 17.4818 105.478 16.864 105.571C16.8067 105.577 16.7494 105.58 16.6952 105.58ZM15.966 101.423C15.4406 101.423 14.9725 101.058 14.8611 100.524C14.7274 99.8249 15.1286 99.2338 15.7431 99.1194C16.3545 99.005 16.9468 99.4054 17.0614 100.019C17.1984 100.683 16.8035 101.277 16.1921 101.404C16.1189 101.417 16.0425 101.423 15.966 101.423ZM15.0713 97.2984C14.5586 97.2984 14.0937 96.9457 13.9727 96.4277C13.8198 95.7349 14.2051 95.1342 14.8133 95.0008C15.4215 94.8673 16.0234 95.2518 16.1571 95.8588C16.3131 96.523 15.9342 97.1268 15.326 97.2666C15.2432 97.2889 15.1572 97.2984 15.0713 97.2984ZM133.033 93.7233C132.348 93.6883 131.87 93.1576 131.905 92.5379C131.944 91.8419 132.463 91.3557 133.096 91.4002C133.72 91.432 134.198 91.9627 134.163 92.5855C134.128 93.2561 133.631 93.7233 133.033 93.7233ZM14.081 93.1957C13.5747 93.1957 13.1129 92.8525 12.9856 92.3377C12.8168 91.6671 13.1862 91.0538 13.7912 90.9044C14.3962 90.7551 15.0108 91.1205 15.1604 91.7243C15.3292 92.4012 14.9598 93.0114 14.3516 93.1608C14.2625 93.183 14.1701 93.1957 14.081 93.1957ZM133.262 89.4998C132.577 89.4648 132.1 88.9341 132.135 88.3144C132.173 87.6184 132.701 87.1354 133.326 87.1767C133.946 87.2085 134.427 87.7392 134.392 88.3621C134.357 89.0326 133.857 89.4998 133.262 89.4998ZM13.0301 89.1057C12.5302 89.1057 12.0717 88.772 11.9379 88.2667C11.7628 87.5899 12.1226 86.9765 12.7276 86.8176C13.3327 86.6587 13.9472 87.021 14.1032 87.6248C14.2784 88.2922 13.9186 88.9087 13.3167 89.0676C13.2212 89.093 13.1257 89.1057 13.0301 89.1057ZM133.485 85.2795C132.8 85.2445 132.322 84.7138 132.357 84.0941C132.396 83.4013 132.924 82.9151 133.548 82.9564C134.169 82.9882 134.65 83.5189 134.615 84.1418C134.58 84.8123 134.08 85.2795 133.485 85.2795ZM11.9443 85.0253C11.4444 85.0253 10.9858 84.6916 10.8521 84.1863C10.6706 83.5253 11.0241 82.9056 11.6259 82.7435C12.2277 82.5783 12.8486 82.931 13.0142 83.5316C13.1957 84.2149 12.8359 84.8314 12.2341 84.9903C12.1354 85.0157 12.0398 85.0253 11.9443 85.0253ZM133.704 81.0592C133.02 81.0243 132.542 80.4935 132.577 79.8738C132.615 79.1811 133.141 78.6948 133.768 78.7361C134.389 78.7679 134.87 79.2986 134.835 79.9215C134.8 80.5952 134.3 81.0592 133.704 81.0592ZM10.8394 80.9512C10.3458 80.9512 9.89045 80.6238 9.75353 80.1249C9.57203 79.4353 9.93503 78.8188 10.5369 78.6631C11.1419 78.5042 11.7564 78.8664 11.9125 79.4703C12.094 80.1217 11.7437 80.7446 11.1419 80.9099C11.04 80.9385 10.9381 80.9512 10.8394 80.9512ZM9.72806 76.8802C9.23449 76.8802 8.77914 76.5529 8.64222 76.054C8.46072 75.3676 8.82054 74.751 9.42237 74.5921C10.0242 74.4332 10.6419 74.7923 10.8012 75.393C10.9827 76.0476 10.6324 76.6705 10.0306 76.8358C9.92867 76.8675 9.82677 76.8802 9.72806 76.8802ZM133.918 76.8421C133.249 76.8167 132.765 76.2923 132.791 75.6695C132.829 74.9608 133.354 74.4777 133.981 74.5159C134.606 74.5476 135.083 75.0784 135.048 75.7012C135.023 76.3654 134.523 76.8421 133.918 76.8421ZM8.6263 72.8093C8.12637 72.8093 7.66783 72.4756 7.53409 71.9703C7.35259 71.3093 7.70604 70.6896 8.30787 70.5244C8.9097 70.3591 9.53063 70.7119 9.69303 71.3125C9.87453 71.9958 9.51471 72.6123 8.91288 72.768C8.81736 72.7966 8.72183 72.8093 8.6263 72.8093ZM134.125 72.6218C133.456 72.5964 132.972 72.072 132.998 71.4492C133.036 70.7405 133.561 70.2543 134.188 70.2988C134.813 70.3305 135.29 70.8613 135.255 71.4841C135.23 72.1451 134.73 72.6218 134.125 72.6218ZM7.54046 68.7289C7.04053 68.7289 6.582 68.3952 6.44826 67.8899C6.27312 67.213 6.63295 66.5997 7.23796 66.4408C7.84297 66.285 8.45753 66.6441 8.61356 67.248C8.79188 67.9153 8.42887 68.5318 7.82705 68.6907C7.73152 68.7162 7.63281 68.7289 7.54046 68.7289ZM134.325 68.4015C133.641 68.3666 133.163 67.8359 133.198 67.213C133.227 66.5361 133.755 66.0467 134.373 66.0753C134.997 66.1007 135.481 66.6251 135.456 67.2448C135.418 67.9344 134.921 68.4015 134.325 68.4015ZM6.48328 64.6421C5.97699 64.6421 5.51527 64.2988 5.3879 63.784C5.21595 63.1294 5.57577 62.5128 6.17759 62.354C6.77942 62.1951 7.39717 62.5542 7.55638 63.1548C7.72833 63.8476 7.35896 64.4577 6.75395 64.6071C6.6616 64.6325 6.57244 64.6421 6.48328 64.6421ZM134.507 64.1781C133.838 64.1527 133.354 63.6283 133.38 63.0054C133.408 62.3126 133.94 61.8264 134.555 61.8518C135.179 61.8773 135.663 62.4016 135.637 63.0213C135.609 63.7046 135.109 64.1781 134.507 64.1781ZM5.45795 60.533C4.95483 60.533 4.49948 60.1993 4.37211 59.6877C4.2129 59.0426 4.57909 58.4165 5.1841 58.2671C5.78911 58.1178 6.39731 58.4737 6.54697 59.0775C6.70618 59.7226 6.33999 60.3487 5.73498 60.498C5.64264 60.5203 5.55029 60.533 5.45795 60.533ZM134.66 59.9514C134.007 59.9355 133.513 59.4175 133.529 58.7947C133.548 58.0987 134.064 57.5998 134.688 57.6252C135.312 57.6411 135.803 58.1591 135.787 58.782C135.771 59.4684 135.268 59.9514 134.66 59.9514ZM4.51222 56.4335C3.99319 56.4335 3.5251 56.0744 3.41046 55.5468C3.25762 54.8858 3.63336 54.2788 4.24156 54.139C4.84975 53.996 5.45477 54.3742 5.59806 54.9812C5.7509 55.674 5.36561 56.2746 4.75741 56.4081C4.67462 56.4239 4.59183 56.4335 4.51222 56.4335ZM134.828 55.7312C134.115 55.6771 133.654 55.1337 133.701 54.514C133.768 53.8085 134.313 53.3541 134.937 53.4113C135.558 53.4685 136.013 54.0182 135.956 54.6379C135.905 55.2862 135.411 55.7312 134.828 55.7312ZM3.63336 52.3054C3.10796 52.3054 2.63987 51.9399 2.52842 51.406C2.39468 50.7069 2.7959 50.1158 3.41046 50.0014C4.02184 49.8869 4.61412 50.2874 4.72875 50.9007C4.86568 51.5649 4.47083 52.1592 3.85945 52.2863C3.78621 52.299 3.70979 52.3054 3.63336 52.3054ZM135.246 51.5331C135.204 51.5331 135.163 51.5299 135.125 51.5268C134.504 51.46 134.058 50.9039 134.125 50.2842C134.188 49.6073 134.736 49.1529 135.36 49.2101C135.981 49.2673 136.437 49.817 136.379 50.4367C136.306 51.1073 135.816 51.5331 135.246 51.5331ZM2.86277 48.155C2.32463 48.155 1.84699 47.7705 1.75146 47.2239C1.63682 46.5215 2.05396 45.9431 2.67171 45.8446C3.28946 45.7429 3.86581 46.1624 3.96771 46.7758C4.08553 47.4463 3.67476 48.031 3.06019 48.1391C2.99332 48.1486 2.92645 48.155 2.86277 48.155ZM135.599 47.3319C134.899 47.2874 134.43 46.7503 134.472 46.1306C134.516 45.4379 135.048 44.9707 135.679 45.0088C136.3 45.0501 136.771 45.5872 136.73 46.2069C136.685 46.8743 136.188 47.3319 135.599 47.3319ZM2.23547 43.9824C1.67185 43.9824 1.18466 43.5629 1.1146 42.9909C1.02544 42.314 1.45851 41.7483 2.07625 41.6657C2.694 41.583 3.2608 42.0152 3.34359 42.6349C3.42957 43.3372 2.99014 43.8997 2.36921 43.9728C2.32781 43.9792 2.28005 43.9824 2.23547 43.9824ZM135.774 43.118C135.137 43.1084 134.637 42.6 134.644 41.9771C134.653 41.2875 135.156 40.7917 135.774 40.7917C136.414 40.8013 136.911 41.3097 136.905 41.9326C136.895 42.6254 136.392 43.118 135.774 43.118ZM1.82151 39.7843C1.23242 39.7843 0.735676 39.3267 0.697465 38.7324C0.649701 38.0396 1.12097 37.5026 1.74191 37.4613C2.36602 37.4136 2.90098 37.8871 2.94556 38.51C2.99332 39.2028 2.52205 39.7398 1.89794 39.7811C1.86928 39.7811 1.8438 39.7843 1.82151 39.7843ZM135.682 38.9009C135.086 38.9009 134.586 38.4369 134.555 37.8363C134.51 37.1562 134.981 36.6191 135.602 36.5778C136.223 36.5397 136.761 37.0068 136.803 37.6265C136.841 38.3352 136.363 38.8659 135.742 38.8977C135.723 38.9009 135.704 38.9009 135.682 38.9009ZM1.73235 35.5545C1.07958 35.5386 0.586016 35.0333 0.601937 34.4105C0.621043 33.7463 1.15282 33.2378 1.76101 33.2569C2.38513 33.2728 2.87551 33.778 2.85958 34.3977C2.84685 35.0556 2.34373 35.5545 1.73235 35.5545ZM135.201 34.7155C134.663 34.7155 134.188 34.331 134.09 33.7876C133.969 33.1012 134.38 32.5164 134.994 32.4084C135.609 32.3003 136.195 32.7103 136.303 33.3236C136.424 34.0037 136.016 34.5916 135.402 34.6996C135.335 34.7092 135.268 34.7155 135.201 34.7155ZM2.21318 31.3882C2.13357 31.3882 2.05078 31.3787 1.97117 31.3628C1.36298 31.2294 0.977681 30.6287 1.11142 30.0217C1.27063 29.3321 1.87883 28.954 2.48703 29.0938C3.09522 29.2336 3.47096 29.8406 3.33086 30.4476C3.2003 31.0291 2.73221 31.3882 2.21318 31.3882ZM134.138 30.6414C133.676 30.6414 133.246 30.3586 133.077 29.901C132.835 29.2527 133.134 28.6076 133.72 28.3883C134.306 28.1722 134.956 28.4677 135.172 29.0525C135.414 29.7103 135.112 30.3554 134.529 30.5715C134.399 30.6192 134.268 30.6414 134.138 30.6414ZM4.05369 27.6796C3.77029 27.6796 3.49007 27.5747 3.27036 27.365C2.82137 26.9328 2.80864 26.2209 3.2417 25.7729C3.72571 25.2707 4.43898 25.258 4.88797 25.6902C5.33695 26.1224 5.34968 26.8343 4.91662 27.2824C4.64596 27.5652 4.34982 27.6796 4.05369 27.6796ZM132.176 26.9074C131.838 26.9074 131.507 26.7548 131.291 26.4656C130.893 25.9349 130.982 25.2167 131.482 24.8417C131.982 24.4667 132.679 24.5557 133.052 25.0546C133.45 25.5854 133.357 26.3036 132.861 26.6786C132.654 26.8343 132.415 26.9074 132.176 26.9074ZM7.48315 25.2612C7.07237 25.2612 6.67434 25.0356 6.47692 24.6447C6.19352 24.0886 6.41641 23.4117 6.97366 23.1288C7.59459 22.8142 8.27284 23.0367 8.55624 23.5896C8.83965 24.1458 8.61675 24.8227 8.0595 25.1055C7.83023 25.2231 7.6551 25.2612 7.48315 25.2612ZM129.11 24.0822C128.912 24.0822 128.712 24.0314 128.53 23.9201C127.941 23.5769 127.759 22.8873 128.075 22.3502C128.39 21.8132 129.081 21.632 129.619 21.9466C130.227 22.3121 130.399 23.0049 130.078 23.5356C129.867 23.8883 129.495 24.0822 129.11 24.0822ZM11.3934 23.6786C10.9158 23.6786 10.4732 23.3767 10.3203 22.9C10.1293 22.3089 10.4541 21.6733 11.0463 21.4795C11.7023 21.2634 12.3392 21.5844 12.5334 22.1754C12.7276 22.7665 12.4092 23.4021 11.8169 23.5992C11.6259 23.6627 11.5081 23.6786 11.3934 23.6786ZM125.164 22.6807C125.104 22.6807 125.043 22.6744 124.983 22.6648C124.301 22.56 123.881 21.9816 123.977 21.3683C124.072 20.7549 124.652 20.3322 125.266 20.4276C125.96 20.5388 126.377 21.1172 126.279 21.7337C126.186 22.2867 125.709 22.6807 125.164 22.6807ZM15.4629 22.56C14.9503 22.56 14.4854 22.2072 14.3644 21.6892C14.2211 21.0822 14.6 20.4784 15.2082 20.3354C15.8992 20.1797 16.4978 20.5611 16.6347 21.168C16.7717 21.775 16.3896 22.3788 15.7814 22.5155C15.6349 22.5504 15.5489 22.56 15.4629 22.56ZM120.951 22.4837C120.225 22.4646 119.732 21.9466 119.751 21.3238C119.767 20.7009 120.28 20.202 120.91 20.2274C121.607 20.2464 122.098 20.7644 122.082 21.3873C122.063 22.0007 121.563 22.4837 120.951 22.4837ZM116.726 22.2962C115.968 22.2581 115.49 21.7274 115.525 21.1045C115.557 20.4816 116.086 20.0081 116.713 20.0399C117.417 20.0812 117.891 20.6151 117.853 21.238C117.815 21.8354 117.318 22.2962 116.726 22.2962ZM112.507 22.0483C111.743 22.0038 111.268 21.4699 111.306 20.8503C111.344 20.2306 111.883 19.757 112.5 19.792C113.204 19.8397 113.672 20.3736 113.631 20.9964C113.593 21.5907 113.096 22.0483 112.507 22.0483ZM108.284 21.7846C107.52 21.7401 107.046 21.2062 107.084 20.5865C107.122 19.9668 107.66 19.4933 108.278 19.5282C108.982 19.5759 109.45 20.113 109.408 20.7327C109.37 21.3269 108.874 21.7846 108.284 21.7846ZM19.6088 21.7337C19.0675 21.7337 18.5899 21.346 18.4975 20.793C18.3925 20.1797 18.8064 19.5981 19.4242 19.4933C20.1024 19.3757 20.6851 19.7825 20.7966 20.3958C20.9048 21.0091 20.4973 21.5939 19.8827 21.7019C19.733 21.7305 19.6693 21.7337 19.6088 21.7337ZM104.065 21.5176C103.301 21.4731 102.827 20.9392 102.865 20.3195C102.903 19.6998 103.438 19.2232 104.059 19.2613C104.763 19.309 105.231 19.846 105.189 20.4657C105.151 21.0632 104.654 21.5176 104.065 21.5176ZM99.8461 21.257C99.0819 21.2125 98.6074 20.6786 98.6456 20.0589C98.6838 19.4393 99.2188 18.9626 99.8397 19.0007C100.534 19.042 101.008 19.5759 100.97 20.1988C100.935 20.7994 100.438 21.257 99.8461 21.257ZM23.7866 21.1108C23.2262 21.1108 22.7422 20.6945 22.6689 20.1289C22.5893 19.5123 23.0256 18.9467 23.6433 18.8672C24.3311 18.7782 24.8947 19.2104 24.9775 19.827C25.0603 20.4435 24.6241 21.0091 24.0063 21.0918C23.8821 21.1077 23.8344 21.1108 23.7866 21.1108ZM95.6269 21.0091C94.8627 20.9647 94.3883 20.4308 94.4265 19.8111C94.4647 19.1914 94.9996 18.7147 95.6206 18.7528C96.3084 18.791 96.786 19.3217 96.7542 19.9414C96.7191 20.542 96.2224 21.0091 95.6269 21.0091ZM91.4046 20.7708C90.6467 20.7327 90.1691 20.202 90.2041 19.5791C90.236 18.9562 90.7614 18.4859 91.3919 18.5145C92.0956 18.5558 92.57 19.0897 92.5318 19.7126C92.4936 20.31 91.9969 20.7708 91.4046 20.7708ZM27.9867 20.6342C27.4135 20.6342 26.9231 20.202 26.8658 19.6204C26.8053 19.0007 27.2575 18.4477 27.8752 18.3874C28.5726 18.3238 29.1266 18.7751 29.184 19.3948C29.2413 20.0145 28.7859 20.5642 28.165 20.6214C28.0599 20.631 28.0217 20.6342 27.9867 20.6342ZM87.1854 20.5483C86.4276 20.5102 85.9499 19.9795 85.985 19.3566C86.0168 18.7338 86.5486 18.2602 87.1727 18.292C87.8605 18.3238 88.3413 18.8513 88.3127 19.4742C88.2808 20.078 87.7841 20.5483 87.1854 20.5483ZM82.9631 20.3418C82.2148 20.3068 81.734 19.7793 81.7626 19.1596C81.7913 18.5367 82.3262 18.0632 82.944 18.0855C83.6382 18.1172 84.1222 18.6448 84.0903 19.2676C84.0617 19.8715 83.5617 20.3418 82.9631 20.3418ZM32.1963 20.2719C31.6104 20.2719 31.1136 19.8206 31.0722 19.2263C31.0276 18.6066 31.4925 18.0664 32.1167 18.0187C32.8108 17.9711 33.3522 18.4318 33.3967 19.0547C33.4413 19.6744 32.9764 20.2147 32.3555 20.2623C32.2536 20.2719 32.2249 20.2719 32.1963 20.2719ZM78.7376 20.1543C77.9956 20.1257 77.5116 19.6013 77.5371 18.9785C77.5626 18.3556 78.1039 17.8725 78.7089 17.898C79.4126 17.9297 79.8935 18.4573 79.8648 19.0801C79.8361 19.684 79.3394 20.1543 78.7376 20.1543ZM36.4154 20.0017C35.82 20.0017 35.32 19.5346 35.2882 18.934C35.2564 18.3143 35.734 17.7836 36.3549 17.7486C37.0523 17.7136 37.5809 18.1871 37.6159 18.81C37.6509 19.4297 37.1733 19.9636 36.5492 19.9954C36.4536 20.0017 36.4345 20.0017 36.4154 20.0017ZM74.5152 19.989C73.7797 19.9636 73.2925 19.4424 73.3148 18.8227C73.3339 18.1999 73.8656 17.7136 74.4802 17.7327C75.1839 17.7613 75.6679 18.2857 75.6425 18.9054C75.617 19.5155 75.1171 19.989 74.5152 19.989ZM70.2897 19.8492C69.5541 19.8238 69.0669 19.3058 69.0892 18.6829C69.1083 18.06 69.6306 17.5802 70.2547 17.5929C70.9425 17.6119 71.436 18.1299 71.4169 18.7528C71.401 19.363 70.8979 19.8492 70.2897 19.8492ZM40.6346 19.8111C40.0328 19.8111 39.5328 19.3344 39.5074 18.7306C39.4819 18.1077 39.9659 17.5833 40.59 17.5611C41.2969 17.5452 41.816 18.0251 41.8351 18.6479C41.8542 19.2708 41.367 19.792 40.7429 19.8111C40.6664 19.8079 40.6505 19.8111 40.6346 19.8111ZM66.061 19.7348C65.335 19.7157 64.8414 19.1977 64.8573 18.5749C64.8733 17.952 65.3987 17.4626 66.0164 17.4785C66.7042 17.4912 67.201 18.006 67.1882 18.6289C67.1755 19.2422 66.6724 19.7348 66.061 19.7348ZM44.8601 19.6808C44.2519 19.6808 43.7488 19.1946 43.7329 18.5844C43.717 17.9615 44.2073 17.4435 44.8315 17.4276C45.5479 17.4244 46.051 17.9138 46.0638 18.5304C46.0765 19.1532 45.5798 19.6681 44.9588 19.6808C44.8824 19.6808 44.8697 19.6808 44.8601 19.6808ZM61.8323 19.649C61.1222 19.6395 60.6222 19.1278 60.6286 18.5049C60.6382 17.8884 61.1413 17.3927 61.7559 17.3927C62.4755 17.4054 62.9691 17.9202 62.9595 18.5431C62.95 19.1596 62.4468 19.649 61.8323 19.649ZM49.0856 19.6077C48.4679 19.6077 47.9648 19.1119 47.9584 18.4954C47.9489 17.8725 48.4488 17.3609 49.0729 17.3545C49.7798 17.3545 50.2861 17.8535 50.2893 18.4732C50.2925 19.096 49.7925 19.6045 49.1684 19.6077C49.0952 19.6077 49.092 19.6077 49.0856 19.6077ZM57.6068 19.595C56.903 19.5886 56.3999 19.0833 56.4063 18.4605C56.4095 17.8376 56.9062 17.3386 57.5431 17.3418C58.2468 17.3514 58.7467 17.863 58.7372 18.4827C58.7276 19.1024 58.2245 19.595 57.6068 19.595ZM53.3144 19.5791C52.6902 19.5791 52.1871 19.0738 52.1871 18.4509C52.1871 17.828 52.6934 17.3228 53.3144 17.3228C54.0085 17.3228 54.5116 17.8217 54.5148 18.4414C54.518 19.0643 54.0181 19.5727 53.394 19.5759L53.3144 19.5791Z" fill="#76ACDE"/>
<path fill-rule="evenodd" clip-rule="evenodd" d="M97.3594 38.2368L97.3562 0.00317792L59.2373 0V10.8812C54.6552 10.8812 50.9678 14.5612 50.9678 19.1057C50.9678 23.7296 54.6552 27.4128 59.2055 27.4128C59.2373 27.4128 59.2405 38.2336 59.2405 38.2336L97.3594 38.2368Z" fill="#BBBBBB"/>
<path fill-rule="evenodd" clip-rule="evenodd" d="M21.5991 39.705C21.5991 35.1637 25.2865 31.4837 29.8336 31.4837C34.3903 31.4837 38.0745 35.1637 38.0777 39.705C38.0777 39.7145 49.8818 39.7177 49.8818 39.7177L49.8786 28.9064C45.3442 28.8905 41.6728 25.2137 41.6728 20.6819C41.6728 16.0739 45.3442 12.3971 49.8786 12.3812V1.50952H11.7725L11.7756 39.7177H21.6023V39.705H21.5991Z" fill="#BBBBBB"/>
<path fill-rule="evenodd" clip-rule="evenodd" d="M36.8356 47.2939L25.4264 50.3575C24.2387 45.9179 19.717 43.2993 15.3195 44.4815C10.922 45.6637 8.31095 50.1954 9.48913 54.6032C9.49868 54.6349 0 57.1836 0 57.1836L9.87442 94.1175L46.7101 84.2246L36.8356 47.2939Z" fill="#BBBBBB"/>
<path fill-rule="evenodd" clip-rule="evenodd" d="M33.8584 43.4675H140.216C145.021 43.4675 148.919 47.3573 148.919 52.1528V149.416C148.919 154.212 145.024 158.102 140.216 158.102H33.8584C29.0501 158.102 25.1558 154.212 25.1558 149.416V52.1496C25.1558 47.3541 29.0501 43.4675 33.8584 43.4675Z" fill="white"/>
<path fill-rule="evenodd" clip-rule="evenodd" d="M36.8388 41.4307H143.225C148.03 41.4307 151.928 45.3173 151.928 50.1159V147.389C151.928 152.185 148.03 156.074 143.225 156.074H36.8388C32.0338 156.074 28.1362 152.188 28.1362 147.389V50.1159C28.1362 45.3204 32.0338 41.4307 36.8388 41.4307Z" fill="#EAECFF"/>
<path fill-rule="evenodd" clip-rule="evenodd" d="M35.2753 45.9082C35.2753 45.9082 42.3571 45.9082 52.9193 45.9082C83.88 45.9082 144.744 45.9082 144.744 45.9082C148.683 45.9082 151.874 49.0957 151.874 53.0267C151.874 56.9578 152.756 58.9123 150.447 58.9917L30.9956 58.6517C27.0567 58.6517 28.1425 56.9547 28.1425 53.0267C28.1457 49.0925 31.3395 45.9082 35.2753 45.9082Z" fill="#B7BAFD"/>
<path d="M140.356 64.1623H138.863C138.401 64.1623 138.028 63.7905 138.028 63.3297C138.028 62.8689 138.401 62.4971 138.863 62.4971H140.356C140.818 62.4971 141.19 62.8689 141.19 63.3297C141.19 63.7873 140.818 64.1623 140.356 64.1623Z" fill="#DAD9FF"/>
<path d="M142.735 70.5341H130.848C130.386 70.5341 130.014 70.1623 130.014 69.7015C130.014 69.2407 130.386 68.8689 130.848 68.8689H142.735C143.197 68.8689 143.569 69.2407 143.569 69.7015C143.569 70.1623 143.193 70.5341 142.735 70.5341Z" fill="#DAD9FF"/>
<path d="M143.925 77.5827H124.224C123.763 77.5827 123.39 77.2109 123.39 76.7501C123.39 76.2893 123.763 75.9175 124.224 75.9175H143.925C144.387 75.9175 144.76 76.2893 144.76 76.7501C144.76 77.2109 144.384 77.5827 143.925 77.5827Z" fill="#DAD9FF"/>
<path d="M137.437 83.9577H124.193C123.731 83.9577 123.359 83.5859 123.359 83.1251C123.359 82.6643 123.731 82.2925 124.193 82.2925H137.437C137.898 82.2925 138.271 82.6643 138.271 83.1251C138.271 83.5827 137.895 83.9577 137.437 83.9577Z" fill="#DAD9FF"/>
<path d="M143.926 90.1926H124.222C123.76 90.1926 123.388 89.8208 123.388 89.36C123.388 88.8992 123.76 88.5273 124.222 88.5273H143.926C144.388 88.5273 144.76 88.8992 144.76 89.36C144.76 89.8208 144.388 90.1926 143.926 90.1926Z" fill="#DAD9FF"/>
<path d="M144.025 96.5644H131.389C130.928 96.5644 130.555 96.1926 130.555 95.7318C130.555 95.271 130.928 94.8992 131.389 94.8992H144.025C144.486 94.8992 144.859 95.271 144.859 95.7318C144.859 96.1926 144.486 96.5644 144.025 96.5644Z" fill="#DAD9FF"/>
<path d="M143.926 103.616H124.222C123.76 103.616 123.388 103.244 123.388 102.784C123.388 102.323 123.76 101.951 124.222 101.951H143.926C144.388 101.951 144.76 102.323 144.76 102.784C144.76 103.244 144.388 103.616 143.926 103.616Z" fill="#DAD9FF"/>
<path d="M137.436 109.988H124.19C123.728 109.988 123.355 109.616 123.355 109.155C123.355 108.695 123.728 108.323 124.19 108.323H137.436C137.898 108.323 138.271 108.695 138.271 109.155C138.271 109.616 137.898 109.988 137.436 109.988Z" fill="#DAD9FF"/>
<path d="M136.149 64.1623H124.195C123.733 64.1623 123.361 63.7905 123.361 63.3297C123.361 62.8689 123.733 62.4971 124.195 62.4971H136.149C136.611 62.4971 136.983 62.8689 136.983 63.3297C136.983 63.7873 136.607 64.1623 136.149 64.1623Z" fill="#DAD9FF"/>
<path d="M126.431 70.5341H124.19C123.728 70.5341 123.355 70.1623 123.355 69.7015C123.355 69.2407 123.728 68.8689 124.19 68.8689H126.431C126.893 68.8689 127.266 69.2407 127.266 69.7015C127.266 70.1623 126.893 70.5341 126.431 70.5341Z" fill="#DAD9FF"/>
<path d="M143.925 77.5827H124.224C123.763 77.5827 123.39 77.2109 123.39 76.7501C123.39 76.2893 123.763 75.9175 124.224 75.9175H143.925C144.387 75.9175 144.76 76.2893 144.76 76.7501C144.76 77.2109 144.384 77.5827 143.925 77.5827Z" fill="#DAD9FF"/>
<path d="M143.926 90.1926H124.222C123.76 90.1926 123.388 89.8208 123.388 89.36C123.388 88.8992 123.76 88.5273 124.222 88.5273H143.926C144.388 88.5273 144.76 88.8992 144.76 89.36C144.76 89.8208 144.388 90.1926 143.926 90.1926Z" fill="#DAD9FF"/>
<path d="M127.384 96.5644H124.19C123.728 96.5644 123.355 96.1926 123.355 95.7318C123.355 95.271 123.728 94.8992 124.19 94.8992H127.384C127.845 94.8992 128.218 95.271 128.218 95.7318C128.218 96.1926 127.845 96.5644 127.384 96.5644Z" fill="#DAD9FF"/>
<path d="M143.926 103.616H124.222C123.76 103.616 123.388 103.244 123.388 102.784C123.388 102.323 123.76 101.951 124.222 101.951H143.926C144.388 101.951 144.76 102.323 144.76 102.784C144.76 103.244 144.388 103.616 143.926 103.616Z" fill="#DAD9FF"/>
<path d="M143.958 109.988H140.357C139.895 109.988 139.522 109.616 139.522 109.155C139.522 108.695 139.895 108.323 140.357 108.323H143.958C144.42 108.323 144.792 108.695 144.792 109.155C144.792 109.616 144.42 109.988 143.958 109.988Z" fill="#DAD9FF"/>
<path d="M143.958 83.9577H140.36C139.898 83.9577 139.525 83.5859 139.525 83.1251C139.525 82.6643 139.898 82.2925 140.36 82.2925H143.958C144.42 82.2925 144.792 82.6643 144.792 83.1251C144.792 83.5827 144.42 83.9577 143.958 83.9577Z" fill="#DAD9FF"/>
<path d="M140.213 158.934H33.8582C28.5978 158.934 24.3213 154.663 24.3213 149.416V52.1497C24.3213 46.903 28.601 42.6318 33.8582 42.6318H140.216C145.473 42.6318 149.753 46.8998 149.753 52.1497V149.413C149.75 154.663 145.47 158.934 140.213 158.934ZM33.8582 44.3002C29.518 44.3002 25.9898 47.8214 25.9898 52.1529V149.416C25.9898 153.748 29.518 157.269 33.8582 157.269H140.216C144.553 157.269 148.084 153.748 148.084 149.416V52.1497C148.084 47.8214 144.556 44.2971 140.216 44.2971H33.8582V44.3002Z" fill="#76ACDE"/>
<path fill-rule="evenodd" clip-rule="evenodd" d="M149.727 80.1948L149.734 75.5423C149.734 75.5423 143.566 72.9618 141.413 64.1558C139.261 55.3498 145.46 43.226 147.868 39.7652C150.275 36.3045 155.481 30.2124 155.481 30.2124C155.481 30.2124 149.438 26.8947 152.001 20.8757C154.564 14.8567 155.867 14.9552 158.166 15.594C160.465 16.2327 162.882 17.2592 162.882 17.2592C162.882 17.2592 164.951 9.36204 169.989 11.326C175.023 13.2868 179.564 17.9838 179.564 17.9838C179.564 17.9838 182.506 16.1628 187.324 21.8926C192.142 27.6224 199.641 34.8426 201.102 36.7303C202.564 38.618 204 45.387 200.233 49.7566C196.469 54.1263 184.35 63.5806 184.35 63.5806C184.35 63.5806 186.582 67.3782 183.261 69.5869C179.943 71.7987 173.979 69.0085 173.979 69.0085L170.788 71.3983C170.788 71.3983 170.498 74.2966 173.253 75.3072C176.007 76.3177 194.505 82.8102 199.361 93.3292C204.529 104.528 205.665 115.413 204.583 134.293C203.497 153.173 203.784 164.689 203.784 164.689H179.924C179.924 164.689 175.775 172.062 151.278 172.434C126.785 172.806 92.3309 170.975 85.0676 169.828C77.8043 168.684 66.7294 169.174 64.3985 167.947C62.0676 166.72 61.5709 165.776 61.5709 165.776C61.5709 165.776 53.2727 158.397 59.5393 158.829C65.806 159.262 74.5595 161.086 81.2943 159.192C88.0322 157.298 94.4198 154.342 94.4198 154.342C94.4198 154.342 92.6016 151.784 88.1086 149.493C83.6188 147.201 78.2214 142.256 86.5865 143.124C95.77 144.074 106.53 152.534 106.53 152.534C106.53 152.534 124.17 150.929 135.249 149.35C146.327 147.773 150.479 146.817 150.479 146.817L149.727 80.1948Z" fill="white"/>
<path fill-rule="evenodd" clip-rule="evenodd" d="M148.849 78.8539C148.849 78.8539 155.38 87.6441 164.13 85.0922C172.858 82.5435 174.791 76.8201 174.794 76.8201C174.794 76.8201 197.332 80.0647 201.829 98.9893C206.325 117.914 202.577 165.627 202.577 165.627H177.31C177.555 166.034 181.188 164.235 187.022 154.034C187.872 152.55 189.671 146.712 189.671 146.712C189.671 146.712 184.49 134.824 177.173 131.935C169.855 129.046 159.242 127.867 159.242 127.867L151.023 146.375L148.782 146.782L148.849 78.8539Z" fill="#EC5252"/>
<path fill-rule="evenodd" clip-rule="evenodd" d="M181.258 62.9743C181.258 62.9743 178.15 64.29 176.912 62.9076C175.673 61.522 175.007 61.5157 176.504 59.3833C178.001 57.2509 180.246 54.038 180.851 51.8579C181.456 49.6779 180.714 45.2129 180.714 45.2129C180.714 45.2129 176.864 46.4841 174.804 44.6727C172.743 42.8581 171.61 40.6717 171.61 40.6717C171.61 40.6717 162.509 41.4693 160.401 39.1113C158.293 36.7533 161.013 32.5362 161.013 32.5362C161.013 32.5362 154.841 30.6199 153.539 28.9451C152.237 27.2703 153.103 20.5332 157.137 18.0321C159.981 16.2716 163.082 17.5205 163.863 18.8457C163.863 18.8457 165.136 12.7441 169.502 14.2345C173.864 15.7281 175.036 19.9834 177.042 20.4029C179.048 20.8223 184.137 20.5363 187.299 26.3011C190.461 32.0658 194.218 34.926 196.944 37.6908C199.52 40.303 201.424 45.3019 198.845 49.8241C196.383 54.1429 184.242 64.1946 184.242 64.1946L181.258 62.9743Z" fill="#A89AFF"/>
<path fill-rule="evenodd" clip-rule="evenodd" d="M165.423 51.1265C166.436 51.1265 167.257 51.9464 167.257 52.9569V54.9908C167.257 56.0014 166.436 56.8213 165.423 56.8213C164.41 56.8213 163.589 56.0014 163.589 54.9908V52.9569C163.589 51.9464 164.41 51.1265 165.423 51.1265Z" fill="black"/>
<path fill-rule="evenodd" clip-rule="evenodd" d="M151.632 43.8044C152.645 43.8044 153.466 44.6244 153.466 45.6349V47.6688C153.466 48.6794 152.645 49.4993 151.632 49.4993C150.619 49.4993 149.798 48.6794 149.798 47.6688V45.6349C149.801 44.6244 150.619 43.8044 151.632 43.8044Z" fill="black"/>
<path fill-rule="evenodd" clip-rule="evenodd" d="M122.63 42.4443C122.63 42.4443 90.322 29.7517 79.3363 28.7665C68.3505 27.7814 61.8419 29.6945 60.6255 35.0652C59.4091 40.4327 58.4729 46.5311 61.7877 48.6699C65.0994 50.8118 68.4588 51.0597 68.4588 51.0597C68.4588 51.0597 71.3406 53.1349 72.4487 52.2164C73.5568 51.298 74.1905 50.7673 74.1905 50.7673C74.1905 50.7673 76.2412 53.0745 77.7441 51.7811C79.2471 50.4877 80.0655 46.7155 80.0655 46.7155C80.0655 46.7155 81.7149 46.8521 82.6766 46.6424C83.635 46.4326 89.5164 43.1594 92.1052 44.4718C94.694 45.7843 98.3814 47.208 101.171 45.8479C103.96 44.4877 107.699 42.5206 107.699 42.5206L122.63 42.4443Z" fill="white"/>
<path d="M148.915 147.106C148.454 147.106 148.081 146.734 148.081 146.273V76.6102C148.081 76.1494 148.454 75.7776 148.915 75.7776C149.377 75.7776 149.75 76.1494 149.75 76.6102V146.273C149.75 146.734 149.377 147.106 148.915 147.106Z" fill="#76ACDE"/>
<path d="M38.8306 48.0334L33.5972 53.2505L34.7763 54.4286L40.0098 49.2116L38.8306 48.0334Z" fill="#EAECFF"/>
<path d="M34.779 48.0313L33.5991 49.2087L38.8296 54.4288L40.0094 53.2513L34.779 48.0313Z" fill="#EAECFF"/>
<path fill-rule="evenodd" clip-rule="evenodd" d="M46.0414 48.2124C47.71 48.2124 49.0633 49.563 49.0633 51.2282C49.0633 52.8935 47.71 54.2441 46.0414 54.2441C44.3728 54.2441 43.0195 52.8935 43.0195 51.2282C43.0195 49.563 44.3728 48.2124 46.0414 48.2124Z" fill="#EAECFF"/>
<path d="M118.283 146.28C117.681 146.28 117.194 145.794 117.194 145.193V58.0195C117.194 57.4188 117.681 56.9326 118.283 56.9326C118.885 56.9326 119.372 57.4188 119.372 58.0195V145.193C119.369 145.794 118.882 146.28 118.283 146.28Z" fill="#BDBBEF"/>
<path d="M140.356 56.939H18.8379V58.6042H140.356V56.939Z" fill="#76ACDE"/>
<path d="M39.2173 73.1082H31.4031C30.9414 73.1082 30.5688 72.7363 30.5688 72.2755V64.4801C30.5688 64.0193 30.9414 63.6475 31.4031 63.6475H39.2141C39.6759 63.6475 40.0484 64.0193 40.0484 64.4801V72.2755C40.0516 72.7363 39.6759 73.1082 39.2173 73.1082ZM32.2374 71.4461H38.383V65.3159H32.2374V71.4461Z" fill="#DAD9FF"/>
<path d="M100.145 68.0935H45.8055C45.3438 68.0935 44.9712 67.7216 44.9712 67.2608C44.9712 66.8 45.3438 66.4282 45.8055 66.4282H100.145C100.607 66.4282 100.979 66.8 100.979 67.2608C100.979 67.7216 100.607 68.0935 100.145 68.0935Z" fill="#DAD9FF"/>
<path d="M100.145 74.465H45.8055C45.3438 74.465 44.9712 74.0932 44.9712 73.6324C44.9712 73.1716 45.3438 72.7998 45.8055 72.7998H100.145C100.607 72.7998 100.979 73.1716 100.979 73.6324C100.979 74.0932 100.607 74.465 100.145 74.465Z" fill="#DAD9FF"/>
<path d="M100.145 81.517H45.8055C45.3438 81.517 44.9712 81.1452 44.9712 80.6844C44.9712 80.2236 45.3438 79.8518 45.8055 79.8518H100.145C100.607 79.8518 100.979 80.2236 100.979 80.6844C100.979 81.142 100.607 81.517 100.145 81.517Z" fill="#DAD9FF"/>
<path d="M100.145 87.8886H45.8055C45.3438 87.8886 44.9712 87.5168 44.9712 87.056C44.9712 86.5952 45.3438 86.2234 45.8055 86.2234H100.145C100.607 86.2234 100.979 86.5952 100.979 87.056C100.979 87.5168 100.607 87.8886 100.145 87.8886Z" fill="#DAD9FF"/>
<path fill-rule="evenodd" clip-rule="evenodd" d="M46.4839 92.074H100.145V126.103H46.4839V92.074Z" fill="#DAD9FF"/>
<path d="M100.823 133.038H46.4837C46.022 133.038 45.6494 132.666 45.6494 132.205C45.6494 131.744 46.022 131.372 46.4837 131.372H100.823C101.285 131.372 101.658 131.744 101.658 132.205C101.658 132.666 101.285 133.038 100.823 133.038Z" fill="#DAD9FF"/>
<path d="M100.823 139.409H46.4837C46.022 139.409 45.6494 139.037 45.6494 138.577C45.6494 138.116 46.022 137.744 46.4837 137.744H100.823C101.285 137.744 101.658 138.116 101.658 138.577C101.658 139.037 101.285 139.409 100.823 139.409Z" fill="#DAD9FF"/>
<path d="M39.9627 140.833H32.1517C31.6899 140.833 31.3174 140.461 31.3174 140V132.205C31.3174 131.744 31.6899 131.372 32.1517 131.372H39.9627C40.4244 131.372 40.797 131.744 40.797 132.205V140C40.797 140.461 40.4244 140.833 39.9627 140.833ZM32.9859 139.168H39.1284V133.038H32.9859V139.168Z" fill="#DAD9FF"/>
<path fill-rule="evenodd" clip-rule="evenodd" d="M205.213 106.251C203.672 97.5432 199.188 90.7583 194.192 85.7722C190.097 81.6854 185.834 78.3644 179.761 76.5085C177.988 75.9651 175.074 75.6981 173.67 74.7003C172.743 74.0424 172.597 73.1431 172.074 71.7321C172.555 71.2681 173.119 70.8931 173.67 70.5022C178.446 74.8115 187.222 71.5001 185.926 64.569C189.878 61.2449 194.071 58.245 197.746 54.4378C200.978 51.0883 204.761 45.0534 202.605 38.5164C201.761 35.955 199.87 33.9784 198.036 32.1479C196.173 30.2888 194.16 28.5314 192.597 26.5738C189.343 22.4997 186.802 17.2847 179.834 17.3101C177.586 14.4214 175.013 9.95324 169.536 10.4363C166.015 10.7445 163.754 12.95 163.085 16.3695C161.162 15.2858 158.414 13.8494 155.688 14.6311C150.752 16.0517 148.568 24.756 152.134 28.8873C152.679 29.5197 153.38 29.9297 154.02 30.5525C152.806 31.8269 151.759 33.2665 150.466 34.4614C149.17 33.9879 147.186 33.8798 147.349 35.4021C147.428 36.1648 148.135 36.3809 149.017 36.4889C145.967 40.4963 143.336 44.8532 141.33 50.0936C139.407 55.1179 138.382 62.5288 140.751 67.8963C142.833 72.6156 147.699 75.803 153.15 76.7977C160.009 78.0466 165.763 75.6886 170.116 73.035C170.664 75.1897 171.95 76.607 173.886 77.3761C170.505 81.0021 167.432 84.6122 160.691 84.6122C155.347 84.6122 152.663 82.4608 150.176 79.7627C150.109 79.6896 149.8 79.2797 149.727 79.1875L149.765 82.6228C152.558 85.1715 156.373 87.1196 161.563 86.9258C168.046 86.6842 171.839 83.1345 175.048 79.6165C175.478 79.1462 175.972 78.1134 176.497 78.0244C177.07 77.9259 177.79 78.3199 178.309 78.4598C178.879 78.6123 179.312 78.7299 180.048 78.9682C178.532 81.4121 176.577 83.3633 174.319 85.1906C173.689 85.7023 172.345 86.3823 172.507 87.4342C172.565 87.8029 172.956 88.2446 173.45 88.3018C174.488 88.4257 175.561 87.1705 176.131 86.7097C178.621 84.698 180.631 82.143 182.366 79.9057C188.48 83.1663 193.434 87.3675 197.157 92.789C199.036 95.5252 200.746 98.5252 201.796 101.98C205.121 112.886 202.959 127.791 202.376 140.261C202.086 146.515 201.87 153.767 201.87 160.45C201.87 162.344 201.491 166.428 202.522 166.746C203.194 166.952 203.901 166.549 203.971 166.456C204.392 165.916 204.118 163.609 204.118 162.694C204.118 158.632 204.191 154.762 204.264 151.044C204.369 145.67 204.634 140.9 204.917 135.92C205.474 126.246 206.872 115.622 205.213 106.251ZM166.712 72.3105C164.19 73.6516 160.694 74.8274 156.997 74.8433C152.326 74.8624 148.202 73.1558 145.467 70.5753C142.649 67.9154 141.318 63.9049 141.696 58.7789C142.044 54.0692 143.556 50.1286 145.32 46.6201C147.078 43.1308 149.103 40.0418 151.555 37.1404C154.806 38.6149 157.268 41.205 157.573 45.1742C157.873 49.0449 156.032 51.4283 153.294 52.6995C152.482 53.0777 150.995 53.3923 150.682 54.0755C150.377 54.7493 150.593 55.817 150.682 56.8975C150.768 57.9272 150.905 58.7598 151.842 58.7789C153.446 58.8138 152.946 56.7164 152.857 55.3785C157.016 53.9357 160.194 50.869 159.891 45.3903C159.614 40.3946 156.605 37.0228 153.004 35.3321C153.921 33.9561 155.016 32.758 156.268 31.7125C157.404 32.2178 158.554 32.7135 159.965 32.9424C159.885 33.5525 159.487 34.0769 159.312 34.7506C157.631 41.259 165.317 42.4507 171.132 41.4083C172.364 44.8627 175.622 46.6678 180.487 46.2579C180.777 47.5004 180.923 48.2981 180.923 49.369C180.914 53.5703 177.191 55.3308 175.774 58.4865C175.211 59.745 175.338 62.9674 177.007 63.0468C177.564 63.0723 178.08 62.6496 178.166 62.3223C178.437 61.3149 177.653 61.0956 177.73 60.0056C177.816 58.8456 179.28 57.5236 180.197 56.459C181.914 54.4601 183.414 52.3817 183.172 48.3521C183.07 46.7028 182.742 44.4051 181.939 44.0111C181.442 43.7664 180.758 43.9793 180.054 44.0111C176.873 44.1509 174.631 43.2738 173.53 41.1891C173.081 40.3374 172.982 39.3268 172.297 39.0916C171.654 38.8692 170.361 39.2219 169.396 39.3077C166.425 39.5715 162.359 39.4412 161.566 37.3533C160.608 34.8332 163.27 33.5684 163.015 32.0716C162.856 31.1309 161.569 30.9752 160.694 30.7686C157.121 29.9265 153.029 28.3439 152.644 24.4001C152.332 21.2063 154.051 17.0464 156.924 16.7286C159.29 16.4648 161.264 17.8567 162.725 18.8292C163.442 19.3059 164.907 20.5008 165.41 19.0453C165.604 18.4828 165.263 17.8345 165.263 17.3801C165.26 14.6375 167.629 12.3144 171.065 12.7498C173.061 13.0009 174.332 14.3483 175.488 15.4987C175.962 15.9754 176.631 16.7127 177.156 17.4531C177.615 18.1046 178.026 19.1788 178.679 19.4807C179.44 19.8302 180.777 19.7095 181.579 19.8429C185.136 20.434 186.942 22.8683 188.76 25.2708C190.171 27.1363 191.368 28.8142 192.966 30.4095C194.45 31.8905 196.182 33.4 197.679 35.0398C199.166 36.6669 200.516 38.6086 200.796 41.2622C201.395 46.9157 197.934 51.0692 194.995 53.9993C191.772 57.2153 188.406 59.3668 184.77 62.4653C184.041 61.5945 179.166 60.9462 179.258 63.0437C179.338 64.8138 182.36 63.4218 183.318 64.2735C184.003 64.8837 183.878 66.6061 183.464 67.5309C182.853 68.8942 180.57 70.5753 178.172 70.1368C177.3 69.9779 175.854 69.4694 175.345 68.9069C175.071 68.605 175.026 67.6294 174.256 67.5309C173.549 67.4387 172.893 68.2078 172.297 68.6876C170.616 70.0446 168.556 71.3285 166.712 72.3105Z" fill="black"/>
<path fill-rule="evenodd" clip-rule="evenodd" d="M63.2394 47.9962C61.9498 43.1276 64.1915 38.0143 65.9938 34.6076C66.4523 33.7432 67.0414 31.954 68.1686 32.0017C70.2862 32.0938 68.5157 34.6266 67.9521 35.6944C66.5797 38.2813 64.9175 41.9549 65.1245 45.6795C65.2487 47.9136 65.9206 49.5375 68.1686 49.8775C66.8663 44.9295 68.9106 39.5175 70.9963 36.1266C71.4739 35.3512 72.2573 33.5589 73.2444 33.5207C73.6042 33.508 74.3016 33.8258 74.4066 34.3152C74.5945 35.205 73.9226 35.6881 73.5373 36.2696C71.7127 39.0185 68.9265 44.0397 70.4199 49.0798C70.7829 50.3097 71.3848 51.3934 72.8846 50.4527C72.2445 45.2918 74.3971 41.0365 76.365 37.4995C76.9445 36.4571 77.5782 34.7411 78.6131 34.7506C79.0302 34.7538 79.6193 35.1574 79.7021 35.6182C79.8135 36.2379 79.304 36.8639 79.0493 37.2834C78.2182 38.6499 77.3903 40.2198 76.728 41.6975C75.7854 43.8077 74.7633 46.2324 74.9894 48.9337C75.0753 49.9697 75.5148 51.4633 77.091 51.1042C78.1195 50.869 78.3137 48.7525 78.6131 47.8468C79.062 46.4898 79.5365 45.7398 80.2084 44.7356C80.6542 40.6297 83.934 38.8692 87.6755 37.7156C88.7836 37.3724 90.4999 36.9815 90.2134 38.7293C90.086 39.4984 89.118 39.6001 88.185 39.8861C86.0483 40.5408 83.3958 41.8215 82.673 43.7219C82.5011 44.1731 82.3259 44.8977 82.5998 45.8193C85.1567 45.1901 87.1087 43.1562 90.5031 43.1403C93.2543 43.1276 95.7954 44.5163 98.4797 44.5163C101.336 44.5163 103.731 43.1054 105.587 41.9105C106.335 41.4306 107.8 41.116 107.835 42.4888C107.864 43.6424 105.896 44.4814 104.861 45.0216C103.495 45.7367 102.037 46.2038 100.801 46.4676C97.0213 47.2811 94.5694 45.7271 91.4457 45.4538C89.1817 45.2568 87.736 46.01 86.2267 46.7568C84.746 47.4877 82.9246 48.8034 81.0777 47.6974C80.3453 49.0767 80.4663 50.7451 79.5556 52.0385C78.457 53.5989 75.5466 53.8531 73.9704 52.4008C72.8559 53.1921 70.283 53.3573 69.4742 52.1847C67.4458 52.4421 66.36 51.4887 65.1977 51.0978C63.9973 50.6942 63.1375 50.6752 62.2236 50.1572C57.7242 47.5958 57.6223 39.8226 60.0488 34.8872C62.3637 30.1839 66.758 27.6034 73.4641 27.2888C78.7786 27.0378 83.6251 28.0166 87.822 29.2432C92.0157 30.4699 95.9037 32.0366 99.7853 33.5144C106.533 36.079 113.64 38.5387 120.524 41.1859C121.636 41.6149 122.948 41.8405 122.989 42.778C123.094 45.0566 119.588 43.2166 118.203 42.7049C108.746 39.2124 100.12 35.7771 90.3598 32.4275C84.9243 30.5653 78.4634 28.8746 71.6522 29.7485C68.5221 30.1489 65.8537 31.1182 64.0386 33.0059C61.5708 35.5705 59.3355 41.6753 61.6441 46.2483C62.0198 47.0078 62.2555 47.4718 63.2394 47.9962Z" fill="black"/>
<path fill-rule="evenodd" clip-rule="evenodd" d="M165.044 45.244C165.117 45.2218 165.779 45.1487 166.13 45.1709C170.107 45.4474 172.616 47.084 174.033 50.1634C174.536 51.2566 175.985 54.9526 173.89 54.9399C172.559 54.9303 172.559 52.7503 172.148 51.6825C171.791 50.7514 171.438 49.9124 170.699 49.2228C169.349 47.9643 167.696 47.7037 165.77 47.4145C165.006 47.3001 164.493 47.2239 164.318 46.69C164.117 46.0734 164.359 45.4601 165.044 45.244Z" fill="black"/>
<path fill-rule="evenodd" clip-rule="evenodd" d="M158.735 65.8689C156.335 65.3286 154.242 64.9441 152.211 63.8445C151.603 63.514 150.746 63.1835 150.616 62.6147C150.472 61.9855 150.826 61.2005 151.488 61.1687C152.405 61.1242 152.953 61.7566 153.879 62.1825C154.599 62.5098 155.481 62.7672 156.417 62.9801C158.802 63.514 161.697 63.4092 161.347 65.8752C161.073 67.8074 158.318 69.2534 156.128 69.4218C153.58 69.6188 151.007 68.9864 150.979 67.7566C150.931 65.6814 154.217 67.299 156.128 67.1051C157.51 66.9589 157.978 66.4123 158.735 65.8689Z" fill="black"/>
<path fill-rule="evenodd" clip-rule="evenodd" d="M176.574 65.5065C177.262 65.3508 181 65.6591 181.433 66.3741C181.891 67.1368 181.417 68.0775 180.56 68.1823C179.892 68.265 176.621 67.8486 176.137 67.5308C175.24 66.9429 175.746 65.694 176.574 65.5065Z" fill="black"/>
<path fill-rule="evenodd" clip-rule="evenodd" d="M162.579 89.7508C161.996 89.8462 160.455 89.9923 159.535 90.04C155.15 90.2752 152.001 88.4511 149.759 86.4585V89.4966C152.007 91.13 154.943 92.3567 158.882 92.3567C160.914 92.3567 164.655 92.3663 164.611 90.6915C164.579 89.5951 163.493 89.5983 162.579 89.7508Z" fill="black"/>
<path fill-rule="evenodd" clip-rule="evenodd" d="M163.448 118.988C171.435 118.775 177.147 120.971 182.083 124.053C182.761 124.476 183.723 125.004 183.462 126.008C183.369 126.37 182.942 126.701 182.446 126.729C181.803 126.77 181.576 126.405 181.287 126.224C176.418 123.208 170.689 120.793 162.579 121.374C161.713 122.97 161.13 124.851 160.404 126.586C175.405 127.346 185.34 132.926 190.059 143.954C190.703 142.784 191.174 141.449 191.728 140.191C191.031 137.499 190.082 135.236 188.537 133.098C188.04 132.411 186.311 130.425 188.247 130.13C189.607 129.92 190.661 132.173 191.148 132.952C192.03 134.363 192.632 135.437 193.033 136.787C194.998 132.586 196.587 128.096 198.326 123.399C198.743 122.274 199.3 119.48 200.574 119.49C202.618 119.506 200.93 123.141 200.647 123.904C196.663 134.614 192.231 146.003 187.162 155.674C184.223 161.276 180.672 166.367 175.198 169.568C170.081 172.558 161.538 173.489 153.663 173.909C132.297 175.05 112.36 172.189 92.2481 171.16C88.1754 170.95 83.9944 170.925 79.7753 170.724C73.3399 170.419 67.2834 170.521 62.8795 168.192C61.5517 167.489 60.071 166.425 59.2526 165.37C59.0743 165.141 59.0584 164.709 58.8164 164.356C58.447 163.819 57.5873 163.434 57.2211 162.764C55.9155 160.364 57.3262 158.051 59.8322 157.771C62.784 157.441 65.825 158.222 68.8246 158.493C78.6417 159.386 86.3763 157.132 92.9709 154.005C90.691 150.22 84.6759 150.713 82.0934 147.201C81.1509 145.917 80.6318 143.528 82.3099 142.571C84.3861 141.383 88.5989 142.473 90.7929 143.007C96.0119 144.271 100.221 146.572 103.845 149.518C104.399 149.969 105.345 151.129 105.947 151.256C106.615 151.396 107.813 151.101 108.774 151.04C122.741 150.16 136.637 148.749 149.307 146.772C151.472 142.018 153.478 137.277 155.542 132.37C156.214 130.775 156.994 129.138 157.354 127.377C158.385 125.744 159.102 123.643 159.892 121.66C161.796 116.871 163.764 111.936 165.693 106.826C166.101 105.745 166.413 104.058 167.362 103.931C169.791 103.607 167.964 107.341 167.578 108.345C166.225 111.891 164.674 115.66 163.448 118.988ZM152.138 146.34C153.326 146.026 154.851 145.946 154.822 147.281C154.79 148.692 151.542 148.8 149.963 149.016C136.621 150.85 122.155 152.667 108.198 153.43C108.125 153.827 109.176 154.374 109.067 155.238C109.01 155.699 108.558 156.192 107.908 156.179C107.045 156.16 106.154 154.717 105.514 154.082C101.597 150.173 97.085 147.208 91.2291 145.542C88.8823 144.875 86.2776 144.157 83.469 144.602C83.7843 145.917 84.4848 146.582 85.5706 147.208C87.8792 148.533 91.6399 149.162 93.6937 151.19C94.5821 152.07 95.4705 153.341 96.0851 154.806C96.4577 155.693 97.8142 158.896 95.7221 158.788C94.4165 158.721 94.6331 157.047 94.1268 156.039C89.2517 158.029 84.4784 160.094 78.1736 160.816C73.2698 161.378 68.2036 160.714 63.5259 160.237C62.1758 160.101 59.4533 159.656 59.103 160.669C58.5617 162.246 61.3957 163.05 62.7267 163.348C66.586 164.216 69.7225 164.518 74.2569 164.724C76.2375 164.813 79.4982 164.349 79.4759 165.954C79.46 167.34 77.6323 167.063 76.142 167.041C71.5981 166.971 67.1082 166.402 63.596 165.954C68.0763 168.335 74.3238 168.414 80.635 168.414C86.8221 168.414 93.4549 168.976 99.2694 169.355C111.583 170.156 123.766 171.249 135.962 171.814C145.492 172.256 155.379 171.9 163.732 170.585C166.537 170.143 169.374 169.682 171.708 168.776C176.335 166.978 179.427 163.428 182.076 159.586C184.777 155.671 186.815 151.345 188.821 146.779C186.41 141.271 183.407 136.568 178.453 133.606C173.504 130.651 167.19 129.281 159.529 128.903C157.016 134.664 154.583 140.509 152.138 146.34Z" fill="black"/>
</g>
<defs>
<clipPath id="clip0">
<rect width="206" height="174.179" fill="white"/>
</clipPath>
</defs>
</svg>
