<svg width="217" height="191" fill="none" xmlns="http://www.w3.org/2000/svg"><g clip-path="url(#clip0)"><path d="M198.274 162.088H7.854a.949.949 0 01-.95-.947V7.716a.95.95 0 01.95-.947h190.42c.525 0 .95.424.95.947v153.422c0 .526-.425.95-.95.95zM8.805 160.19h188.519V8.664H8.805V160.19z" fill="#D6D6D6"/><path d="M198.274 146.732H7.854a.95.95 0 01-.95-.948.95.95 0 01.95-.948h190.42a.95.95 0 110 1.896zM198.274 131.411H7.854a.95.95 0 01-.95-.948.95.95 0 01.95-.948h190.42a.95.95 0 110 1.896zM198.274 116.054H7.854a.95.95 0 01-.95-.948.95.95 0 01.95-.948h190.42a.95.95 0 110 1.896zM198.274 100.733H7.854a.949.949 0 110-1.895h190.42a.949.949 0 110 1.895zM198.274 85.376H7.854a.95.95 0 01-.95-.947.95.95 0 01.95-.948h190.42a.949.949 0 110 1.895zM198.274 70.02H7.854a.95.95 0 01-.95-.948.95.95 0 01.95-.948h190.42a.949.949 0 110 1.895zM198.274 54.699H7.854a.95.95 0 01-.95-.948.95.95 0 01.95-.948h190.42a.949.949 0 110 1.896zM198.274 39.342H7.854a.95.95 0 01-.95-.948.95.95 0 01.95-.948h190.42a.949.949 0 110 1.896zM198.274 24.02H7.854a.95.95 0 01-.95-.947.95.95 0 01.95-.948h190.42a.949.949 0 110 1.896z" fill="#D6D6D6"/><path d="M179.216 162.088a.948.948 0 01-.95-.947V7.716a.95.95 0 011.9 0v153.422a.95.95 0 01-.95.95zM160.201 162.088a.949.949 0 01-.95-.947V7.716a.95.95 0 011.9 0v153.422c0 .526-.425.95-.95.95zM141.14 162.088a.95.95 0 01-.951-.947V7.716a.95.95 0 011.901 0v153.422a.95.95 0 01-.95.95zM122.124 162.088a.949.949 0 01-.95-.947V7.716a.95.95 0 011.901 0v153.422a.948.948 0 01-.951.95zM103.066 162.088a.948.948 0 01-.95-.947V7.716a.95.95 0 011.9 0v153.422a.95.95 0 01-.95.95zM84.005 162.088a.949.949 0 01-.95-.947V7.716a.95.95 0 011.9 0v153.422a.95.95 0 01-.95.95zM64.99 162.088a.949.949 0 01-.95-.947V7.716a.95.95 0 011.9 0v153.422a.95.95 0 01-.95.95zM45.931 162.088a.949.949 0 01-.95-.947V7.716a.95.95 0 011.9 0v153.422a.95.95 0 01-.95.95zM26.916 162.088a.949.949 0 01-.95-.947V7.716a.95.95 0 011.9 0v153.422a.95.95 0 01-.95.95z" fill="#D6D6D6"/><path d="M7.855 115.175a.945.945 0 01-.732-1.546l51.843-63.175a.953.953 0 011.243-.2L85.05 65.908l13.701-9.851a.95.95 0 011.214.085l18.392 17.628 78.884-68.138a.95.95 0 111.247 1.435l-79.544 68.7a.947.947 0 01-1.28-.033l-18.448-17.68-13.578 9.766a.953.953 0 01-1.066.033L59.9 52.304 8.591 114.826a.948.948 0 01-.736.348z" fill="#EC5252"/><path fill-rule="evenodd" clip-rule="evenodd" d="M93.839 87.393h2.111l7.789 3.995h2.794l4.157-.836 5.44-.747 3.098 1.961 4.186 7.361-15.271 16.022-2.9-2.863-3.628-5.067-.68-3.995 1.283-3.995.228-1.895-2.494-3.08-6.581-4.672c.006-.004-1.346-2.942.468-2.189z" fill="#fff"/><path fill-rule="evenodd" clip-rule="evenodd" d="M85.249 141.44l-6.697-14.596 3.14-11.3-5.044-16.742-8.435-5.772-5.787 1.648s-6.169 8.299-4.549 17.154c1.62 8.855 2.748 15.265 3.886 24.166s3.517 29.098 15.05 32.823c11.53 3.725 19.626.368 27.286-5.525 7.66-5.893 21.499-16.742 21.499-16.742l5.539 44.205h67.058s-1.02-14.811.412-22.349a227.094 227.094 0 002.234-14.515s14.053-23.185 14.469-29.361c.416-6.177-3.372-17.184-12.652-21.938-9.276-4.755-25.639-12.077-28.113-14.765-2.475-2.685-5.084-9.03-4.137-10.968.947-1.94 7.409-12.74 6.614-24.827-.795-12.082-3.771-16.33-15.38-17.897-5.337-.72-12.579-.266-17.28 1.237-5.525 1.768-8.102 4.703-8.102 4.703l-6.202-1.567 1.323 4.95-5.044-.58s1.013 2.136 2.811 3.959 3.886 2.063 3.886 2.063-3.022 3.846-2.481 8.743c.541 4.893 2.365 8.51 1.158 10.391-1.211 1.883-2.586 3.9-2.563 5.032.023 1.132 3.276 1.925 3.721 3.3.445 1.375 3.269 9.457 9.923 9.401 6.654-.056 7.525-2.886 7.525-2.886s2.84 5.492 1.076 6.927c-1.765 1.434-22.875 3.277-31.172 11.958-8.294 8.683-34.972 39.67-34.972 39.67z" fill="#fff"/><path fill-rule="evenodd" clip-rule="evenodd" d="M98.065 130.391s-.287 8.647 2.398 14.432c3.263 7.029 13.809 10.474 13.809 10.474l15.628-10.806 4.945 46.268 63.191.003s.02-30.934 2.474-35.468c17.247-31.856 21.391-40.747-3.803-56.084-8.855-5.39-19.349-8.332-19.349-8.332s-4.912-.934-15.379.33c-9.218 1.111-31.703 5.142-39.608 12.372-14.776 13.52-24.306 26.811-24.306 26.811z" fill="#EC5252"/><path fill-rule="evenodd" clip-rule="evenodd" d="M154.936 71.1s1.356 7.648 3.616 8.099c2.263.447 3.028.204 4.932.168 1.903-.037 5.598-.468 5.598-.468s-.346-1.3.742-2.889c1.627-2.369 3.83-4.807 5.661-11.7 1.828-6.895 3.616-20.422-1.725-24.769-5.341-4.343-18.125-7.012-26.105-5.42-3.53.705-7.139 1.728-9.366 3.077-2.81 1.702-3.84 3.682-4.456 3.54-1.106-.252-4.487-2.404-4.487-2.404l4.932 6.222L128 43.345s3.461 2.58 4.873 2.754c1.412.178 2.282.767 4.981.425 3.774-.48 6.063-.81 7.053.398.957 1.165 1.224 7.318 1.828 12.152.587 4.699-1.656 8.289-.396 7.95 1.405-.379 2.814-2.804 2.814-2.804s.778-5.054 3.718-5.018c2.939.036 4.978 3.07 4.945 5.742-.03 2.672-2.88 6.157-2.88 6.157z" fill="#A89AFF"/><path fill-rule="evenodd" clip-rule="evenodd" d="M59.57 76.252l20.4.625c1.976.06 4.071 1.606 4.675 3.452l11.282 34.435c.604 1.846-.508 3.294-2.484 3.235l-20.4-.625c-1.977-.06-4.072-1.606-4.675-3.452L57.085 79.486c-.604-1.846.508-3.294 2.484-3.234z" fill="#F5F5F5"/><path d="M92.747 119.118l-20.107-.613c-2.343-.069-4.738-1.836-5.457-4.017L56.12 80.928c-.386-1.169-.1-2.597.745-3.725.805-1.073 1.94-1.708 3.15-1.662l20.292.424c2.35.073 4.748 1.837 5.467 4.018l10.966 33.843c.362 1.106.095 2.422-.723 3.515-.838 1.122-2.052 1.777-3.27 1.777zM59.922 77.443c-.54 0-1.111.332-1.537.898-.472.632-.653 1.415-.462 1.998l11.065 33.56c.472 1.425 2.167 2.668 3.711 2.714l20.005.609c.653 0 1.32-.385 1.788-1.013.442-.589.607-1.274.439-1.79L83.965 80.575c-.468-1.418-2.167-2.662-3.708-2.708l-20.289-.424a.109.109 0 00-.046 0z" fill="#000"/><path fill-rule="evenodd" clip-rule="evenodd" d="M63.855 78.022l15.808.484c1.683.049 3.46 1.359 3.975 2.922l9.597 29.154c.515 1.563-.432 2.79-2.111 2.738l-15.809-.481c-1.682-.053-3.46-1.359-3.975-2.925L61.743 80.76c-.514-1.563.432-2.787 2.111-2.738z" fill="#BBB"/><path fill-rule="evenodd" clip-rule="evenodd" d="M64.33 113.086s3.147-12.014 8.148-9.872c4.998 2.146-2.55 5.048-1.85 10.109.699 5.061 3.249 6.894.699 11.28-2.55 4.386-7.967-2.642-7.967-2.642l.97-8.875z" fill="#fff"/><path fill-rule="evenodd" clip-rule="evenodd" d="M208.61 106.136c-7.4-7.088-18.237-10.82-28.276-15.67-2.332-1.125-4.955-2.31-6.449-4.534-.736-1.096-1.194-2.431-1.653-3.876-.458-1.441-1.174-3.366-.91-4.949.221-1.31 1.306-2.675 1.986-4.04 2.005-4.048 3.358-8.392 4.216-13.772 1.171-7.364 1.138-15.337-2.893-19.624-1.977-2.103-4.451-3.347-7.522-4.535-3.058-1.184-6.06-1.948-9.755-2.228-3.797-.286-7.631.132-10.995.909-3.306.76-6.833 1.865-9.175 3.544-.313.223-.821.608-1.158.99-.323.369-.472.941-1.075.99-.736.06-1.65-.674-2.316-.99-.769-.365-1.419-.763-2.563-.658-1.683.694-.588 3.38-.165 4.617-1.175-.06-3.992-2.172-4.711-.412-.621 1.524 1.755 3.9 2.645 4.785 1.488 1.477 3.022 2.31 4.381 3.132-2.094 3.222-3.358 8.01-2.233 13.03.373 1.66 1.379 3.515.911 5.197-.446 1.592-2.742 2.85-2.564 4.698.188 1.958 2.593 2.62 3.557 4.041.706 1.04 1.177 2.317 1.817 3.462 1.646 2.945 4.55 6.713 9.013 6.762 3.088.033 4.345-1.323 6.697-2.557.287.678.548 1.27.828 2.146.208.641.689 1.763.412 2.392-.438.994-3.84 1.49-5.539 1.813-6.218 1.188-12.348 2.474-17.111 4.867-9.877 4.952-16.413 12.915-22.984 21.029-5.47 6.753-10.735 13.567-16.37 20.204-.554.655-1.19 1.254-1.735 1.896-.528.625-.92 1.398-1.653 1.813a464.625 464.625 0 01-2.975-6.927c-.974-2.297-2.418-4.741-2.729-7.091-.148-1.115.713-2.932 1.24-4.287.219-.557 1.842-3.357.248-3.627-1.418-.243-1.9 2.452-2.316 3.548-.59 1.559-1.322 3.017-1.24 4.534.076 1.366.874 2.794 1.405 4.123a249.923 249.923 0 003.224 7.752c.56 1.274 1.088 2.561 1.9 3.548-.861 1.115-2.254 2.645-3.388 3.958-.44.507-1.162 1.761-.083 2.142.98.349 1.973-1.237 2.481-1.813 4.734-5.344 8.996-10.747 13.724-16.081.066-.075.171-.582.412-.329-2.227 14.321 5.189 21.846 14.964 25.235-.204.455-.686.774-1.075 1.073-2.953 2.267-6.103 4.637-9.261 6.845-3.586 2.51-7.544 5.1-12.483 5.936-12.315 2.089-19.338-5.324-22.489-13.689-1.63-4.33-2.61-9.618-3.14-15.255-.522-5.528-1.425-11.01-2.481-15.916-1.036-4.814-2.67-10.04-2.399-15.999.195-4.268 1.548-7.446 3.392-10.474.244-.404.613-.927.825-1.418a8.065 8.065 0 01-.776-1.402c-1.01.023-1.794 1.712-2.197 2.41-1.742 3.01-3.226 6.682-3.223 11.131.013.095-.02.148-.082.164v.991c.2 5.877 1.702 11.082 2.81 16.245 1.158 5.397 1.627 10.695 2.316 16.739 1.277 11.214 4.615 21.076 12.319 25.811 4.136 2.544 10.058 3.613 15.71 2.557 5.258-.984 9.322-3.55 12.977-6.104 5.622-3.926 11.065-8.16 16.287-12.369 1.752-1.412 3.335-3.031 5.209-4.205 1.877 12.56 3.596 24.995 4.962 38.015.122 1.181-.056 4.857 1.653 4.538.699-.132.775-1.251.659-2.31-1.435-13.488-3.084-26.282-5.044-39.006-.145-.954-.521-2.33-.412-2.804.195-.859 3.104-1.737 2.151-3.215-.65-1.006-1.778.043-2.398.576-4.068 3.505-7.773 6.641-11.906 9.73-5.157-2.089-9.805-4.323-12.649-8.743-2.767-4.3-3.14-11.79-1.735-18.223.192-.872 1.762-2.319 2.481-3.214 2.484-3.097 5.044-6.522 7.357-9.237 6.769-7.94 14.037-15.936 25.052-19.213 4.302-1.28 9.197-1.817 13.641-2.968 1.518-.392 2.679-1.142 3.969-1.567 4.427-1.454 10.487-2.214 16.369-1.98 1.881.075 4.289.095 5.622.579.702.253 1.316.967 2.065 1.401.765.445 1.639.783 2.398 1.155 10.89 5.33 23.713 9.434 30.921 18.309 2.207 2.714 3.975 5.6 4.381 9.648.413 4.119-1.092 8.032-2.481 11.378-2.744 6.621-5.938 12.83-9.59 18.556.535-4.512.809-9 1.076-13.771.086-1.553.442-3.876-.907-3.876-1.168 0-1.023 1.806-1.076 2.968-.432 9.417-1.385 17.525-2.646 26.057-1.187 8.056-1.906 17.299-1.57 26.966.023.685-.099 1.471.083 1.981.191.54.874.875 1.24.826 1.118-.155.676-2.863.663-4.123-.016-1.668-.02-3.952 0-4.534.132-3.663.092-6.733.33-9.73.501-6.249 1.455-11.932 2.233-17.894 3.197-4.893 6.103-9.911 8.68-15.255 2.57-5.324 5.453-10.757 6.116-17.812v-.908c-.584-6.545-3.764-10.994-7.452-14.528zm-55.888-17.73c-.191-2.118-.904-3.714-1.735-5.195.396-.217 1.432-2.076 0-2.31-.99-.161-2.372 1.586-3.309 2.228-1.3.888-3.101 1.97-5.291 1.813-2.973-.214-4.329-2.392-6.034-4.205.376-.659 1.194-1.244 1.735-2.146.567-.944 1.669-3.636 0-3.712-.986-.042-1.161 1.224-1.488 1.981-.399.925-.851 1.6-1.405 1.896-.95-2.709-2.738-4.58-4.794-6.187.786-1.684 2.531-2.813 2.646-5.113.083-1.593-.61-3.14-.993-4.785-1.237-5.33.363-9.973 2.893-13.277 2.475.425 4.612-.158 7.027-.247 2.366 2.393 1.653 8.993 1.653 13.854 0 2.096-.092 5.08 1.57 5.442 1.498.326 2.639-1.013 3.309-1.73.907-.978 1.58-1.804 2.23-2.804-.003-2.498 1.082-5.068 3.556-3.877 1.584.764 3.092 3.173 2.481 5.69-.273 1.128-1.197 2.198-2.065 2.968-.828.737-2.646 1.5-2.646 2.392 0 1.3 1.775.968 2.234.576.765 2.823 1.478 5.65 3.721 7.173 1.814 1.234 4.219.33 7.192.33 1.55 0 3.14.164 3.14-.991 0-1.195-2.022-1.135-3.721-1.073-2.144.08-3.563.701-4.876.33-1.603-.452-2.606-3.084-3.14-4.868-.218-.72-.584-1.572-.495-2.145.079-.526 1.402-1.787 1.735-2.31.518-.806.97-1.668 1.076-2.886.217-2.464-.799-4.557-1.983-5.771-.861-.882-2.969-2.307-5.044-1.649-2.244.71-2.814 3.05-3.306 5.69-.867.894-1.653 2.313-2.728 2.72-.693-5.942.851-13.336-1.405-17.317-.627-1.106-1.554-1.945-3.474-1.813-.779.052-1.719.345-2.728.41-2.455.165-4.523-.92-5.952.083-1.088-.734-2.246-1.72-3.223-2.721-.254-.26-.828-.517-.66-.908 1.02.325 3.761 1.135 4.134-.165.399-1.395-1.217-2.283-1.158-3.712 1.405.5 2.741 1.659 4.464 1.155 1.167-.342 1.345-1.253 2.065-1.895 1.455-1.3 4.143-2.238 6.614-2.968 5.747-1.704 12.863-2.106 18.933-.329 1.408.415 2.863.974 4.216 1.566 1.366.6 2.87 1.198 3.886 1.899 7.33 5.034 4.539 20.006 1.9 27.953-.488 1.468-1.105 2.85-1.735 4.123-.881 1.774-2.55 3.613-2.563 6.019-.01 1.734.587 3.53 1.075 5.113a20.971 20.971 0 001.904 4.288c-6.78-.882-13.856.108-19.438 1.418z" fill="#000"/><path fill-rule="evenodd" clip-rule="evenodd" d="M135.112 54.596c.914-.128 1.88-.125 2.646.247 1.022.497 2.926 2.294 2.728 3.38-.082.464-.561.743-.993.743-1.128 0-.95-.714-1.405-1.237-.317-.365-.871-.984-1.488-1.155-1.211-.336-3.302 1.017-3.309-.74-.003-1.09 1.194-1.149 1.821-1.238zM137.342 64.656c-.425.41-1.055.79-1.653.164-.316-.332-.821-3.32-.659-3.958.168-.662 1.088-.968 1.652-.58.743.52.631 3.271.66 4.374zM153.135 61.934c.448-.098 1.131.03 1.24.74.112.738-.465 1.35-.746 1.982-.24.542-.385 1.428-1.075 1.566-1.867.375-1.092-1.695-.66-2.64.277-.605.505-1.486 1.241-1.648zM70.875 101.766c2.016-.352 3.672.905 3.47 3.465-.181 2.323-2.467 3.847-2.728 6.019-.185 1.54.505 3.086.907 4.287.528 1.563 1.228 3.07 1.076 5.196-.093 1.306-.578 2.586-1.158 3.629-.442.793-1.25 2.547-2.398 2.31-1.703-.352.102-2.333.494-3.05.436-.796.904-1.922.993-2.721.386-3.449-2.134-5.39-1.982-9.401.066-1.698.897-3.001 1.735-4.37.34-.556.676-.671.907-1.567.59-2.273-1.112-1.915-2.15-1.154-2.478 1.822-3.623 4.738-4.3 8.328-.224 1.194-.283 3.643-1.322 3.712-1.415.092-1.109-2.225-.828-3.794.765-4.219 3.18-10.168 7.284-10.889zM104.327 90.862c.745-.425 1.547-.507 2.48-.494.465.007 1.003.25 1.406.164.346-.072.544-.487.91-.658 1.036-.49 2.28-.349 3.474-.164.587-.592 2.098-.908 3.474-.826 3.5.214 5.684 3.65 7.027 6.597.494 1.086 2.048 4.209 0 4.124-1.148-.047-1.607-2.778-2.151-3.877-1.073-2.178-2.517-4.834-5.787-4.784.093.487 1.076 1.056.993 1.895-.049.49-.478.931-1.075.905-1.201-.05-1.825-2.912-4.299-2.145.066.605 1.488 1.335 1.488 2.31 0 .667-.554 1.122-1.158 1.072-.953-.082-1.24-1.602-2.316-2.145-.897-.454-1.619-.418-2.728-.33 0 .734 3.207 2.781 2.233 4.124-.864 1.191-1.943-.395-2.48-1.073-1.224-1.543-2.646-3.04-4.051-4.205-2.283-1.896-4.286-3.357-7.522-3.297.39 2.652 3.503 3.024 5.456 4.616 3.197 2.606 4.355 7.302 6.45 11.05.445.796 1.788 2.481 1.57 3.383-.105.441-.613.691-1.075.658-1.02-.069-1.993-2.409-2.399-3.133-.742-1.336-1.217-2.471-1.817-3.712-2.356 6.348 3.365 10.247 6.449 13.278-.373.589-.927 1-1.323 1.566-2.636-2.708-7.33-5.847-7.772-10.885-.188-2.152.495-5.038 1.488-6.515-.68-1.155-.993-2.064-1.818-3.05-1.692-2.028-4.932-2.722-6.367-4.535-1.666-2.106-1.109-5.232 2.48-4.867 3.61.372 6.668 3.12 8.76 4.953z" fill="#000"/><path fill-rule="evenodd" clip-rule="evenodd" d="M6.41 109.772c3.54 0 6.406 2.863 6.406 6.39 0 3.531-2.87 6.391-6.406 6.391-3.54.003-6.41-2.86-6.41-6.391 0-3.527 2.87-6.39 6.41-6.39zM59.655 47.917c3.54 0 6.41 2.862 6.41 6.39 0 3.53-2.87 6.39-6.41 6.39s-6.407-2.863-6.407-6.39c0-3.528 2.87-6.39 6.407-6.39zM99.097 50.556c3.54 0 6.407 2.863 6.407 6.39 0 3.53-2.87 6.39-6.407 6.39-3.54 0-6.406-2.86-6.406-6.39 0-3.527 2.867-6.39 6.406-6.39zM196.499 0c3.54 0 6.407 2.863 6.407 6.39 0 3.531-2.87 6.39-6.407 6.39-3.539 0-6.406-2.862-6.406-6.39 0-3.527 2.87-6.39 6.406-6.39zM84.67 61.855a4.378 4.378 0 014.382 4.374 4.375 4.375 0 01-4.381 4.37 4.378 4.378 0 01-4.384-4.37 4.379 4.379 0 014.384-4.373zM118.654 69.361a4.375 4.375 0 014.381 4.37 4.378 4.378 0 01-4.381 4.373 4.378 4.378 0 01-4.384-4.373 4.375 4.375 0 014.384-4.37z" fill="#EC5252"/></g><defs><clipPath id="clip0"><path fill="#fff" d="M0 0h216.049v190.927H0z"/></clipPath></defs></svg>