<svg width="18" height="18" viewBox="0 0 18 18" fill="none" xmlns="http://www.w3.org/2000/svg">
<g clip-path="url(#clip0)">
<path d="M17.4604 1.90617C14.696 1.17219 11.7736 1.17226 9.00921 1.90617L8.99998 1.90861L8.99076 1.90617C6.22632 1.17219 3.30389 1.17226 0.539522 1.90617L0 2.04936V15.4455H7.33309C7.55749 16.1402 8.21043 16.6441 8.97891 16.6441H9.02109C9.78954 16.6441 10.4425 16.1402 10.6669 15.4455H18V2.04936L17.4604 1.90617ZM16.9393 2.86741V12.6825C14.5049 12.1209 11.9648 12.1211 9.53031 12.6828V9.15733L10.3352 8.51797L12.2008 9.99992V2.45128C13.7877 2.34489 15.3882 2.48338 16.9393 2.86741ZM9.53035 2.86752C10.062 2.73589 10.5994 2.63322 11.1401 2.55922V7.80277L10.3352 7.1634L9.53031 7.80277V2.86752H9.53035ZM1.06066 2.86741C3.48996 2.26594 6.04042 2.26602 8.46969 2.86752V12.6825C7.25247 12.4017 6.00885 12.2613 4.76519 12.2613C3.52153 12.2613 2.27791 12.4017 1.0607 12.6825V2.86741H1.06066ZM9.68945 14.3848V14.9152C9.68945 15.2837 9.38963 15.5835 9.02113 15.5835H8.97895C8.61044 15.5835 8.31062 15.2837 8.31062 14.9152V14.3848H1.06066V13.7731C3.57312 13.1511 6.21508 13.1723 8.71863 13.8369L9.00002 13.9117L9.28138 13.8369C11.785 13.1723 14.427 13.151 16.9394 13.7731V14.3848H9.68945Z" fill="#4F4F4F"/>
</g>
<defs>
<clipPath id="clip0">
<rect width="18" height="18" fill="white"/>
</clipPath>
</defs>
</svg>
