<svg width="32" height="32" viewBox="0 0 32 32" fill="none" xmlns="http://www.w3.org/2000/svg">
<path d="M14.72 11.04C14.72 9.44 13.76 6.24 11.36 6.24C10.4 6.24 9.28 6.88 9.28 8.96C9.28 10.88 10.24 13.6 12.48 13.6C12.48 13.6 14.72 13.44 14.72 11.04ZM13.76 18.88C13.6 18.88 13.44 18.88 13.28 18.88C12.8 18.88 11.36 19.04 10.4 19.3599C9.28 19.68 8 20.48 8 22.08C8 23.84 9.6 25.6 12.8 25.6C15.2 25.6 16.64 24 16.64 22.4C16.64 21.28 15.84 20.48 13.76 18.88ZM28.8 0H3.2C1.44 0 0 1.44 0 3.2V28.8C0 30.56 1.44 32 3.2 32H28.8C30.56 32 32 30.56 32 28.8V3.2C32 1.44 30.56 0 28.8 0ZM11.36 27.52C6.88 27.52 4.8 24.96 4.8 22.72C4.8 21.92 4.96 20.16 7.2 18.8801C8.48 18.0801 10.08 17.6001 12.16 17.4401C11.84 17.12 11.68 16.6401 11.68 15.8401C11.68 15.5201 11.68 15.3601 11.84 15.0401H11.2C8 15.0401 6.08 12.6401 6.08 10.2401C6.08 7.52006 8.16 4.48006 12.64 4.48006H19.36L18.8801 4.96006L17.76 6.08L17.6 6.24H16.48C17.1199 6.88 17.9199 8 17.9199 9.76C17.9199 12 16.7999 13.12 15.3599 14.08C15.0399 14.24 14.7199 14.72 14.7199 15.2C14.7199 15.68 15.0399 16 15.3599 16.16C15.5199 16.32 15.8399 16.4801 16.1599 16.64C17.4399 17.6 19.1999 18.7199 19.1999 21.28C19.2 24.16 17.12 27.52 11.36 27.52ZM27.2 16H24V19.2H22.4V16H19.2V14.4H22.4V11.2H24V14.4H27.2V16Z" fill="#352E7D"/>
</svg>
