<svg width="12" height="12" viewBox="0 0 12 12" fill="none" xmlns="http://www.w3.org/2000/svg">
<path d="M5.99998 2.95629L5.59484 2.39605C5.3956 2.12054 5.17295 1.88913 4.93177 1.70263L4.93175 1.70261C4.45914 1.33709 3.9319 1.15625 3.3522 1.15625C2.5634 1.15625 1.84484 1.47019 1.31952 2.03993L5.99998 2.95629ZM5.99998 2.95629L6.40514 2.39607M5.99998 2.95629L6.40514 2.39607M6.40514 2.39607C6.60447 2.12047 6.82704 1.88914 7.06813 1.70264L6.40514 2.39607ZM4.4938 9.60207L4.49383 9.6021L4.4955 9.60352C4.90766 9.95481 5.37728 10.3551 5.86521 10.7817L5.86554 10.782C5.90261 10.8144 5.9502 10.8324 6 10.8324C6.04984 10.8324 6.09751 10.8143 6.13431 10.7821L6.13457 10.7819C6.61884 10.3584 7.08535 9.96075 7.4954 9.61124L7.50643 9.60184L7.50648 9.6018C8.72656 8.5621 9.73225 7.70297 10.4249 6.86712L10.4249 6.8671C11.1819 5.95374 11.5 5.13385 11.5 4.26251C11.5 3.39007 11.2013 2.60496 10.6804 2.03996C10.1551 1.47019 9.4366 1.15625 8.6478 1.15625C8.06813 1.15625 7.5409 1.33707 7.0682 1.70258L4.4938 9.60207ZM4.4938 9.60207C3.27356 8.56221 2.26784 7.70297 1.57516 6.86719C0.818131 5.9537 0.5 5.13382 0.5 4.2626C0.5 3.39008 0.798696 2.60498 1.31947 2.03998L4.4938 9.60207Z" stroke="white"/>
</svg>
