<svg width="25" height="22" viewBox="0 0 25 22" fill="none" xmlns="http://www.w3.org/2000/svg">
<path d="M21.7084 2.80203C21.1763 2.26974 20.5446 1.8475 19.8494 1.55941C19.1541 1.27133 18.4089 1.12305 17.6563 1.12305C16.9037 1.12305 16.1585 1.27133 15.4632 1.55941C14.7679 1.8475 14.1362 2.26974 13.6042 2.80203L12.5 3.9062L11.3959 2.80203C10.3212 1.72735 8.86362 1.1236 7.34379 1.1236C5.82397 1.1236 4.36639 1.72735 3.29171 2.80203C2.21703 3.87671 1.61328 5.33429 1.61328 6.85411C1.61328 8.37394 2.21703 9.83152 3.29171 10.9062L4.39588 12.0104L12.5 20.1145L20.6042 12.0104L21.7084 10.9062C22.2407 10.3742 22.6629 9.74246 22.951 9.04719C23.2391 8.35192 23.3874 7.60671 23.3874 6.85411C23.3874 6.10152 23.2391 5.35631 22.951 4.66104C22.6629 3.96577 22.2407 3.33407 21.7084 2.80203V2.80203Z" stroke="#4F4F4F" stroke-width="2" stroke-linecap="round" stroke-linejoin="round"/>
</svg>
