<svg width="59" height="59" viewBox="0 0 59 59" fill="none" xmlns="http://www.w3.org/2000/svg">
<path d="M58.0167 7.86686H54.0833V3.93353C54.0833 3.39049 53.643 2.9502 53.1 2.9502H5.9C5.35696 2.9502 4.91667 3.39049 4.91667 3.93353V4.91686H0.983333C0.440291 4.91686 0 5.35715 0 5.90019V9.83353C0 10.3766 0.440291 10.8169 0.983333 10.8169H4.91667V12.7835H0.983333C0.440291 12.7835 0 13.2238 0 13.7669V17.7002C0 18.2432 0.440291 18.6835 0.983333 18.6835H4.91667V25.5669H0.983333C0.440291 25.5669 0 26.0071 0 26.5502V30.4835C0 31.0266 0.440291 31.4669 0.983333 31.4669H4.91667V55.0669C4.91667 55.6099 5.35696 56.0502 5.9 56.0502H53.1C53.643 56.0502 54.0833 55.6099 54.0833 55.0669V21.6335H58.0167C58.5597 21.6335 59 21.1932 59 20.6502V16.7169C59 16.1738 58.5597 15.7335 58.0167 15.7335H54.0833V13.7669H58.0167C58.5597 13.7669 59 13.3266 59 12.7835V8.85019C59 8.30715 58.5597 7.86686 58.0167 7.86686ZM52.1167 50.1502H30.4833V4.91686H52.1167V50.1502ZM6.88333 4.91686H28.5167V50.1502H6.88333V4.91686ZM1.96667 8.85019V6.88353H4.91667V8.85019H1.96667ZM1.96667 16.7169V14.7502H4.91667V16.7169H1.96667ZM1.96667 29.5002V27.5335H4.91667V29.5002H1.96667ZM6.88333 52.1169H28.5167V54.0835H6.88333V52.1169ZM52.1167 54.0835H30.4833V52.1169H52.1167V54.0835ZM57.0333 17.7002V19.6669H54.0833V17.7002H57.0333ZM57.0333 11.8002H54.0833V9.83353H57.0333V11.8002Z" fill="#333333"/>
<path d="M33.2849 43.0913L47.0247 45.3816L49.315 31.6418L35.5752 29.3516L33.2849 43.0913ZM47.0516 33.258L45.4085 43.1182L35.5483 41.4752L37.1914 31.615L47.0516 33.258Z" fill="#333333"/>
<path d="M31.7547 28.2286C31.9391 28.413 32.1892 28.5167 32.45 28.5167C32.6026 28.5162 32.7529 28.4811 32.8893 28.4134L38.7893 25.4634C38.8796 25.4092 38.9655 25.3472 39.0452 25.2786L50.8452 13.4786C52.0437 12.2801 52.0437 10.3365 50.8452 9.13809C49.6468 7.93965 47.7032 7.93965 46.5047 9.13809L34.7047 20.9381C34.6361 21.0178 34.5741 21.1037 34.5199 21.194L31.5699 27.094C31.3807 27.4724 31.4556 27.9295 31.7547 28.2286ZM34.6485 25.3348L35.6693 23.2932L36.6901 24.314L34.6485 25.3348ZM47.8952 10.5286C48.3259 10.0979 49.024 10.0979 49.4547 10.5286C49.8854 10.9593 49.8854 11.6574 49.4547 12.0881L49.1666 12.3762L47.6071 10.8167L47.8952 10.5286ZM46.2166 12.2072L47.7761 13.7667L38.35 23.1928L36.7905 21.6333L46.2166 12.2072Z" fill="#333333"/>
<path d="M32.45 6.8833H34.4166V8.84997H32.45V6.8833Z" fill="#333333"/>
<path d="M36.3833 6.8833H44.25V8.84997H36.3833V6.8833Z" fill="#333333"/>
<path d="M32.45 10.8164H36.3833V12.7831H32.45V10.8164Z" fill="#333333"/>
<path d="M8.8501 6.8833H26.5501V8.84997H8.8501V6.8833Z" fill="#333333"/>
<path d="M8.8501 10.8164H16.7168V12.7831H8.8501V10.8164Z" fill="#333333"/>
<path d="M18.6833 10.8164H20.65V12.7831H18.6833V10.8164Z" fill="#333333"/>
<path d="M8.8501 14.75H24.5834V16.7167H8.8501V14.75Z" fill="#333333"/>
<path d="M8.8501 18.6836H16.7168V20.6503H8.8501V18.6836Z" fill="#333333"/>
<path d="M18.6833 18.6836H20.65V20.6503H18.6833V18.6836Z" fill="#333333"/>
<path d="M22.6167 18.6836H26.55V20.6503H22.6167V18.6836Z" fill="#333333"/>
<path d="M26.5501 31.4668H18.6834V29.5001H26.5501V23.6001H8.8501V29.5001H16.7168V31.4668H8.8501V37.3668H26.5501V31.4668ZM10.8168 25.5668H24.5834V27.5334H10.8168V25.5668ZM24.5834 35.4001H10.8168V33.4334H24.5834V35.4001Z" fill="#333333"/>
<path d="M12.7834 46.2165H10.8168V42.2832H8.8501V48.1832H12.7834V46.2165Z" fill="#333333"/>
<path d="M14.75 46.2168H16.7167V48.1835H14.75V46.2168Z" fill="#333333"/>
</svg>
