<svg width="20" height="20" viewBox="0 0 20 20" fill="none" xmlns="http://www.w3.org/2000/svg">
<path d="M11.3264 10.0002L15.0374 6.28922C15.2135 6.11341 15.3126 5.87484 15.3128 5.62599C15.313 5.37714 15.2143 5.13839 15.0385 4.96227C14.8627 4.78615 14.6242 4.68708 14.3753 4.68686C14.1265 4.68664 13.8877 4.78529 13.7116 4.9611L10.0006 8.67204L6.28971 4.9611C6.11359 4.78498 5.87472 4.68604 5.62565 4.68604C5.37658 4.68604 5.13771 4.78498 4.96159 4.9611C4.78547 5.13722 4.68652 5.37609 4.68652 5.62516C4.68652 5.87423 4.78547 6.1131 4.96159 6.28922L8.67252 10.0002L4.96159 13.7111C4.78547 13.8872 4.68652 14.1261 4.68652 14.3752C4.68652 14.6242 4.78547 14.8631 4.96159 15.0392C5.13771 15.2153 5.37658 15.3143 5.62565 15.3143C5.87472 15.3143 6.11359 15.2153 6.28971 15.0392L10.0006 11.3283L13.7116 15.0392C13.8877 15.2153 14.1266 15.3143 14.3756 15.3143C14.6247 15.3143 14.8636 15.2153 15.0397 15.0392C15.2158 14.8631 15.3148 14.6242 15.3148 14.3752C15.3148 14.1261 15.2158 13.8872 15.0397 13.7111L11.3264 10.0002Z" fill="white"/>
</svg>
