<svg width="22" height="22" viewBox="0 0 22 22" fill="none" xmlns="http://www.w3.org/2000/svg">
<path d="M12.7188 11.1719C12.9561 11.1719 13.1484 10.9795 13.1484 10.7422C13.1484 10.5049 12.9561 10.3125 12.7188 10.3125C12.4814 10.3125 12.2891 10.5049 12.2891 10.7422C12.2891 10.9795 12.4814 11.1719 12.7188 11.1719Z" fill="#352E7D"/>
<path d="M11 11.1719C11.2373 11.1719 11.4297 10.9795 11.4297 10.7422C11.4297 10.5049 11.2373 10.3125 11 10.3125C10.7627 10.3125 10.5703 10.5049 10.5703 10.7422C10.5703 10.9795 10.7627 11.1719 11 11.1719Z" fill="#352E7D"/>
<path d="M9.28125 11.1719C9.51856 11.1719 9.71094 10.9795 9.71094 10.7422C9.71094 10.5049 9.51856 10.3125 9.28125 10.3125C9.04394 10.3125 8.85156 10.5049 8.85156 10.7422C8.85156 10.9795 9.04394 11.1719 9.28125 11.1719Z" fill="#352E7D"/>
<path d="M21.5703 1.71875H13.8436L13.1031 0.237531C13.0303 0.0919529 12.8815 0 12.7187 0H9.28123C9.11847 0 8.96971 0.0919529 8.89692 0.237531L8.15631 1.71875H0.429687C0.192371 1.71875 0 1.91112 0 2.14843V17.6172C0 17.8545 0.192371 18.0468 0.429687 18.0468H8.85154V21.5703C8.85154 21.744 8.95626 21.9007 9.11679 21.9673C9.27741 22.0338 9.46217 21.997 9.58506 21.8741L11 20.4592L12.4149 21.8741C12.5378 21.997 12.7225 22.0337 12.8832 21.9672C13.0437 21.9007 13.1484 21.744 13.1484 21.5702V18.0468H21.5703C21.8076 18.0468 22 17.8544 22 17.6171V2.14843C22 1.91112 21.8076 1.71875 21.5703 1.71875ZM9.54682 0.859373H12.4532L12.8829 1.71875H9.11718L9.54682 0.859373ZM12.289 20.5329L11.3038 19.5477C11.136 19.3799 10.8639 19.3799 10.6961 19.5477L9.71092 20.5329V17.7563C10.1105 17.9459 10.5498 18.0468 11 18.0468C11.4501 18.0468 11.8894 17.9459 12.289 17.7563V20.5329ZM11 17.1875C9.82049 17.1875 8.85154 16.2327 8.85154 15.039C8.85154 13.8544 9.81533 12.8906 11 12.8906C12.1846 12.8906 13.1484 13.8544 13.1484 15.039C13.1484 16.2269 12.1851 17.1875 11 17.1875ZM21.1406 17.1875H13.1484V17.1439C13.3819 16.9056 13.5746 16.6291 13.7178 16.3281H19.8515C20.0888 16.3281 20.2812 16.1357 20.2812 15.8984C20.2812 14.348 20.2812 5.15843 20.2812 3.86718C20.2812 3.62986 20.0888 3.43749 19.8515 3.43749C19.4537 3.43749 13.3327 3.43749 12.9336 3.43749C12.6963 3.43749 12.5039 3.62986 12.5039 3.86718C12.5039 4.1045 12.6963 4.29687 12.9336 4.29644H16.8413C16.8306 5.75651 18.0476 6.85862 19.4218 6.87176V12.8882C17.964 12.8775 16.8599 14.0929 16.8468 15.4688H13.9767C13.997 15.3271 14.0078 15.1837 14.0078 15.0391C14.0078 13.3806 12.6585 12.0313 11 12.0313C9.34147 12.0313 7.99217 13.3806 7.99217 15.0391C7.99217 15.1837 8.003 15.3271 8.02324 15.4688H5.15358C5.14236 14.0883 4.04223 12.8741 2.57812 12.8877V6.87219C3.95892 6.86094 5.1727 5.76081 5.1592 4.29687H9.06639C9.3037 4.29687 9.49607 4.1045 9.49607 3.86718C9.49607 3.62986 9.3037 3.43749 9.06639 3.43749C8.66691 3.43749 2.54628 3.43749 2.14843 3.43749C1.91112 3.43749 1.71875 3.62986 1.71875 3.86718V15.8984C1.71875 16.1357 1.91112 16.3281 2.14843 16.3281H8.28212C8.4253 16.629 8.61797 16.9055 8.85154 17.1439V17.1875H0.859373V2.57812H21.1406V17.1875ZM17.706 15.4687C17.717 14.5563 18.457 13.7322 19.4218 13.7464V15.4687H17.706ZM19.4218 6.01273C18.5097 6.00173 17.6854 5.26211 17.6995 4.29687H19.4218V6.01273ZM4.29442 15.4687H2.57812V13.7467C3.56533 13.731 4.28548 14.5665 4.29442 15.4687ZM2.57812 6.01316V4.29687H4.30005C4.31586 5.28394 3.48046 6.00427 2.57812 6.01316Z" fill="#352E7D"/>
<path d="M7.99219 5.58594C7.99219 5.82325 8.18456 6.01562 8.42188 6.01562H13.5781C13.8154 6.01562 14.0078 5.82325 14.0078 5.58594C14.0078 5.34862 13.8154 5.15625 13.5781 5.15625H8.42188C8.18456 5.15625 7.99219 5.34862 7.99219 5.58594Z" fill="#352E7D"/>
<path d="M5.15625 7.30469C5.15625 7.542 5.34862 7.73438 5.58594 7.73438H16.4141C16.6514 7.73438 16.8438 7.542 16.8438 7.30469C16.8438 7.06737 16.6514 6.875 16.4141 6.875H5.58594C5.34862 6.875 5.15625 7.06737 5.15625 7.30469Z" fill="#352E7D"/>
<path d="M16.4141 8.59375H5.58594C5.34862 8.59375 5.15625 8.78612 5.15625 9.02344C5.15625 9.26075 5.34862 9.45312 5.58594 9.45312H16.4141C16.6514 9.45312 16.8438 9.26075 16.8438 9.02344C16.8438 8.78612 16.6514 8.59375 16.4141 8.59375Z" fill="#352E7D"/>
<path d="M11 13.75C10.2892 13.75 9.71094 14.3283 9.71094 15.0391C9.71094 15.7499 10.2892 16.3281 11 16.3281C11.7108 16.3281 12.2891 15.7499 12.2891 15.0391C12.2891 14.3283 11.7108 13.75 11 13.75ZM11 15.4688C10.7631 15.4688 10.5703 15.276 10.5703 15.0391C10.5703 14.8021 10.7631 14.6094 11 14.6094C11.2369 14.6094 11.4297 14.8021 11.4297 15.0391C11.4297 15.276 11.237 15.4688 11 15.4688Z" fill="#352E7D"/>
<path d="M11 4.29688C11.2373 4.29688 11.4297 4.1045 11.4297 3.86719C11.4297 3.62988 11.2373 3.4375 11 3.4375C10.7627 3.4375 10.5703 3.62988 10.5703 3.86719C10.5703 4.1045 10.7627 4.29688 11 4.29688Z" fill="#352E7D"/>
</svg>
