<svg width="22" height="22" viewBox="0 0 22 22" fill="none" xmlns="http://www.w3.org/2000/svg">
<path d="M8.42188 14.8711C8.65918 14.8711 8.85156 14.6787 8.85156 14.4414C8.85156 14.2041 8.65918 14.0117 8.42188 14.0117C8.18457 14.0117 7.99219 14.2041 7.99219 14.4414C7.99219 14.6787 8.18457 14.8711 8.42188 14.8711Z" fill="#352E7D"/>
<path d="M2.14844 4.55859H5.84375C6.08107 4.55859 6.27344 4.36622 6.27344 4.12891C6.27344 3.89159 6.08107 3.69922 5.84375 3.69922H2.14844C1.91112 3.69922 1.71875 3.89159 1.71875 4.12891C1.71875 4.36622 1.91112 4.55859 2.14844 4.55859Z" fill="#352E7D"/>
<path d="M12.7188 4.55859H16.4141C16.6514 4.55859 16.8438 4.36622 16.8438 4.12891C16.8438 3.89159 16.6514 3.69922 16.4141 3.69922H12.7188C12.4814 3.69922 12.2891 3.89159 12.2891 4.12891C12.2891 4.36622 12.4814 4.55859 12.7188 4.55859Z" fill="#352E7D"/>
<path d="M2.14844 6.27734H9.28125C9.51857 6.27734 9.71094 6.08497 9.71094 5.84766C9.71094 5.61034 9.51857 5.41797 9.28125 5.41797H2.14844C1.91112 5.41797 1.71875 5.61034 1.71875 5.84766C1.71875 6.08497 1.91112 6.27734 2.14844 6.27734Z" fill="#352E7D"/>
<path d="M2.14844 7.99609H9.28125C9.51857 7.99609 9.71094 7.80372 9.71094 7.56641C9.71094 7.32909 9.51857 7.13672 9.28125 7.13672H2.14844C1.91112 7.13672 1.71875 7.32909 1.71875 7.56641C1.71875 7.80372 1.91112 7.99609 2.14844 7.99609Z" fill="#352E7D"/>
<path d="M2.14844 9.71484H9.28125C9.51857 9.71484 9.71094 9.52247 9.71094 9.28516C9.71094 9.04784 9.51857 8.85547 9.28125 8.85547H2.14844C1.91112 8.85547 1.71875 9.04784 1.71875 9.28516C1.71875 9.52247 1.91112 9.71484 2.14844 9.71484Z" fill="#352E7D"/>
<path d="M2.14844 11.4336H9.28125C9.51857 11.4336 9.71094 11.2412 9.71094 11.0039C9.71094 10.7666 9.51857 10.5742 9.28125 10.5742H2.14844C1.91112 10.5742 1.71875 10.7666 1.71875 11.0039C1.71875 11.2412 1.91112 11.4336 2.14844 11.4336Z" fill="#352E7D"/>
<path d="M2.14844 13.1523H9.28125C9.51857 13.1523 9.71094 12.96 9.71094 12.7227C9.71094 12.4853 9.51857 12.293 9.28125 12.293H2.14844C1.91112 12.293 1.71875 12.4853 1.71875 12.7227C1.71875 12.96 1.91112 13.1523 2.14844 13.1523Z" fill="#352E7D"/>
<path d="M2.14844 14.8711H6.70312C6.94044 14.8711 7.13281 14.6787 7.13281 14.4414C7.13281 14.2041 6.94044 14.0117 6.70312 14.0117H2.14844C1.91112 14.0117 1.71875 14.2041 1.71875 14.4414C1.71875 14.6787 1.91112 14.8711 2.14844 14.8711Z" fill="#352E7D"/>
<path d="M21.5703 1.12109H12.7188C12.0167 1.12109 11.3923 1.4596 11 1.98197C10.6077 1.45964 9.98332 1.12109 9.28125 1.12109H0.429688C0.192371 1.12109 0 1.31346 0 1.55078V17.0195C0 17.2568 0.192371 17.4492 0.429688 17.4492H3.78125C4.01857 17.4492 4.21094 17.2568 4.21094 17.0195C4.21094 16.7822 4.01857 16.5898 3.78125 16.5898H0.859375V1.98047H9.28125C9.99204 1.98047 10.5703 2.55874 10.5703 3.26953V16.5898H7.64844C7.41112 16.5898 7.21875 16.7822 7.21875 17.0195C7.21875 17.2568 7.41112 17.4492 7.64844 17.4492H16.7394L20.0431 20.7531C20.2109 20.9209 20.483 20.9209 20.6508 20.7531L21.8664 19.5375C22.0341 19.3698 22.0341 19.0976 21.8663 18.9298L20.3311 17.3946C21.2856 17.1761 22 16.3206 22 15.3008V1.55078C22 1.54958 21.9998 1.54842 21.9998 1.54717C21.9979 1.31308 21.806 1.12109 21.5703 1.12109ZM14.0383 13.5325L13.7346 12.6213L14.6458 12.925L14.6472 12.9264C14.6479 12.9271 14.6481 12.9273 14.6481 12.9273C14.6785 12.9577 15.0753 13.3545 19.132 17.4108L18.5241 18.0186C18.0086 17.503 16.9041 16.3985 14.0383 13.5325ZM20.9549 19.2338L20.347 19.8416L19.1318 18.6263L19.7396 18.0185L20.9549 19.2338ZM19.8516 16.5898H19.5259L15.1818 12.2457C15.1346 12.1985 15.0771 12.1629 15.0138 12.1418L13.1911 11.5343C13.0366 11.4828 12.8664 11.523 12.7514 11.6381C12.6363 11.7532 12.5961 11.9234 12.6476 12.0778L13.2551 13.9005C13.2762 13.9638 13.3118 14.0213 13.3589 14.0685L15.8801 16.5898H11.4297V3.26953C11.4297 2.55874 12.008 1.98047 12.7188 1.98047H21.0007L20.0185 5.41797H12.7188C12.4814 5.41797 12.2891 5.61034 12.2891 5.84766C12.2891 6.08497 12.4814 6.27734 12.7188 6.27734H19.773L19.5274 7.13672H12.7188C12.4814 7.13672 12.2891 7.32909 12.2891 7.56641C12.2891 7.80372 12.4814 7.99609 12.7188 7.99609H19.2819L19.0364 8.85547H12.7188C12.4814 8.85547 12.2891 9.04784 12.2891 9.28516C12.2891 9.52247 12.4814 9.71484 12.7188 9.71484H18.7908L17.7197 13.464C17.6826 13.5936 17.7086 13.7332 17.7898 13.8408C17.871 13.9484 17.998 14.0117 18.1328 14.0117H19.7596C20.4698 14.0117 21.1406 14.526 21.1406 15.3008C21.1406 16.0116 20.5624 16.5898 19.8516 16.5898ZM21.1406 13.6085C20.7564 13.3224 20.2739 13.1523 19.7596 13.1523H18.7024C18.88 12.5311 21.03 5.00594 21.1406 4.61875V13.6085Z" fill="#352E7D"/>
<path d="M5.71484 17.4492C5.95215 17.4492 6.14453 17.2568 6.14453 17.0195C6.14453 16.7822 5.95215 16.5898 5.71484 16.5898C5.47753 16.5898 5.28516 16.7822 5.28516 17.0195C5.28516 17.2568 5.47753 17.4492 5.71484 17.4492Z" fill="#352E7D"/>
</svg>
