<svg width="22" height="22" viewBox="0 0 22 22" fill="none" xmlns="http://www.w3.org/2000/svg">
<g clip-path="url(#clip0)">
<path d="M17.4624 12.0093C17.2204 12.0093 17.0242 12.2055 17.0242 12.4475C17.0242 13.0591 16.9317 13.6631 16.7493 14.2427C16.6767 14.4736 16.805 14.7197 17.0358 14.7923C17.0796 14.8061 17.1239 14.8127 17.1675 14.8127C17.3538 14.8127 17.5265 14.6929 17.5854 14.5058C17.7946 13.841 17.9007 13.1485 17.9007 12.4475C17.9007 12.2055 17.7045 12.0093 17.4624 12.0093Z" fill="#352E7D"/>
<path d="M15.2242 21.1235H11.4379V20.3587C11.4379 20.1167 11.2417 19.9204 10.9997 19.9204C10.7577 19.9204 10.5614 20.1167 10.5614 20.3587V21.1235H6.77516C6.53316 21.1235 6.33691 21.3197 6.33691 21.5617C6.33691 21.8037 6.53316 22 6.77516 22H15.2242C15.4662 22 15.6624 21.8037 15.6624 21.5617C15.6624 21.3197 15.4662 21.1235 15.2242 21.1235Z" fill="#352E7D"/>
<path d="M10.9998 17.9093C14.0664 17.9093 16.5613 15.4144 16.5613 12.3477V10.5848H17.4488C17.6908 10.5848 17.8871 10.3886 17.8871 10.1466V7.80965C17.8871 7.56765 17.6908 7.3714 17.4488 7.3714H16.5613V5.56157C16.5613 2.49494 14.0664 0 10.9998 0C7.93308 0 5.43818 2.49494 5.43818 5.56157V7.3714H4.55069C4.34379 7.3714 4.17082 7.51497 4.12485 7.70776C4.10846 7.75373 4.09912 7.80299 4.09912 7.85457V12.4477C4.09912 14.2838 4.8189 16.0148 6.12579 17.3218C7.43273 18.6287 9.16368 19.3484 10.9998 19.3484C13.0519 19.3484 14.9867 18.4363 16.3078 16.8458C16.4625 16.6596 16.4369 16.3833 16.2507 16.2286C16.0645 16.0739 15.7882 16.0996 15.6336 16.2857C14.4794 17.6751 12.7905 18.472 10.9998 18.472C7.67807 18.472 4.97562 15.7695 4.97562 12.4478V10.5849H5.43823V12.3478C5.43818 15.4144 7.93308 17.9093 10.9998 17.9093ZM15.6848 12.3477C15.6848 14.9311 13.5831 17.0328 10.9998 17.0328C8.41638 17.0328 6.31468 14.9311 6.31468 12.3477V10.5848H15.6849V12.3477H15.6848ZM6.31468 5.56157C6.31468 2.97824 8.41638 0.876494 10.9998 0.876494C13.5831 0.876494 15.6848 2.97824 15.6848 5.56157V7.3714H6.31468V5.56157ZM4.98894 8.2479H17.0106V9.70835H4.98894V8.2479Z" fill="#352E7D"/>
<path d="M9.37995 1.7421C7.83627 2.40951 6.83887 3.92225 6.83887 5.59605C6.83887 5.83805 7.03511 6.03429 7.27711 6.03429C7.51911 6.03429 7.71536 5.83805 7.71536 5.59605C7.71536 4.2721 8.50525 3.07516 9.72783 2.54659C9.94997 2.45057 10.0522 2.19258 9.95615 1.97043C9.86013 1.74828 9.60223 1.64617 9.37995 1.7421Z" fill="#352E7D"/>
<path d="M13.0526 1.92055C12.5499 1.64284 12.0061 1.47429 11.4363 1.41951C11.1947 1.39645 10.9812 1.57289 10.9581 1.8138C10.935 2.05474 11.1115 2.26883 11.3524 2.29197C11.8022 2.33518 12.2316 2.46832 12.6288 2.6877C12.6959 2.72482 12.7686 2.74244 12.8403 2.74244C12.9946 2.74244 13.1443 2.66071 13.2243 2.516C13.3413 2.30419 13.2645 2.03756 13.0526 1.92055Z" fill="#352E7D"/>
</g>
<defs>
<clipPath id="clip0">
<rect width="22" height="22" fill="white"/>
</clipPath>
</defs>
</svg>
