<svg width="22" height="22" viewBox="0 0 22 22" fill="none" xmlns="http://www.w3.org/2000/svg">
<path d="M8.42188 9.71094C8.65918 9.71094 8.85156 9.51856 8.85156 9.28125C8.85156 9.04394 8.65918 8.85156 8.42188 8.85156C8.18457 8.85156 7.99219 9.04394 7.99219 9.28125C7.99219 9.51856 8.18457 9.71094 8.42188 9.71094Z" fill="#352E7D"/>
<path d="M8.42188 14.0078C8.65918 14.0078 8.85156 13.8154 8.85156 13.5781C8.85156 13.3408 8.65918 13.1484 8.42188 13.1484C8.18457 13.1484 7.99219 13.3408 7.99219 13.5781C7.99219 13.8154 8.18457 14.0078 8.42188 14.0078Z" fill="#352E7D"/>
<path d="M18.1328 12.2891C20.2652 12.2891 22 10.5542 22 8.42188C22 6.28951 20.2652 4.55469 18.1328 4.55469C17.6921 4.55469 17.2559 4.63048 16.8438 4.77593V3.86719C16.8438 3.75053 16.796 3.64143 16.7179 3.56336L13.2804 0.125855C13.203 0.0484258 13.0943 0 12.9766 0H0.429688C0.192371 0 0 0.192414 0 0.429688V21.5703C0 21.8076 0.192371 22 0.429688 22H6.48828C6.7256 22 6.91797 21.8076 6.91797 21.5703C6.91797 21.333 6.7256 21.1406 6.48828 21.1406H0.859375V0.859375H12.5469V3.86719C12.5469 4.10446 12.7392 4.29688 12.9766 4.29688H15.9844V5.20605C15.0375 5.84053 14.4173 6.86598 14.2903 7.99219H12.2891V7.5625C12.2891 7.32523 12.0967 7.13281 11.8594 7.13281H10.1406C9.90331 7.13281 9.71094 7.32523 9.71094 7.5625V9.28125C9.71094 9.51852 9.90331 9.71094 10.1406 9.71094H11.8594C12.0967 9.71094 12.2891 9.51852 12.2891 9.28125V8.85156H14.2903C14.4173 9.97764 15.0374 11.003 15.9844 11.6377V13.7998C15.8932 13.8609 15.8049 13.9261 15.7193 13.9945L14.1398 12.4149C14.0592 12.3344 13.9499 12.2891 13.8359 12.2891H12.2891V11.8594C12.2891 11.6221 12.0967 11.4297 11.8594 11.4297H10.1406C9.90331 11.4297 9.71094 11.6221 9.71094 11.8594V13.5781C9.71094 13.8154 9.90331 14.0078 10.1406 14.0078H11.8594C12.0967 14.0078 12.2891 13.8154 12.2891 13.5781V13.1484H13.658L15.1117 14.6021C14.5638 15.2855 14.2656 16.1276 14.2656 17.0156C14.2656 18.307 14.9181 19.5168 15.9844 20.2314V21.1406H10.3555C10.1182 21.1406 9.92578 21.333 9.92578 21.5703C9.92578 21.8076 10.1182 22 10.3555 22H16.4141C16.6514 22 16.8438 21.8076 16.8438 21.5703V20.6616C17.2559 20.807 17.6921 20.8828 18.1328 20.8828C20.2652 20.8828 22 19.148 22 17.0156C22 14.8833 20.2652 13.1484 18.1328 13.1484C17.6921 13.1484 17.2559 13.2242 16.8438 13.3697V12.0679C17.2559 12.2133 17.6921 12.2891 18.1328 12.2891ZM13.4062 3.4375V1.46704L15.3767 3.4375H13.4062ZM11.4297 8.85156H10.5703V7.99219H11.4297V8.85156ZM11.4297 13.1484H10.5703V12.2891H11.4297V13.1484ZM18.1328 14.0078C19.7913 14.0078 21.1406 15.3571 21.1406 17.0156C21.1406 18.6741 19.7913 20.0234 18.1328 20.0234C16.4441 20.0234 15.125 18.645 15.125 17.0156C15.125 15.3375 16.4878 14.0078 18.1328 14.0078ZM15.125 8.42188C15.125 6.79259 16.444 5.41406 18.1328 5.41406C19.7913 5.41406 21.1406 6.76337 21.1406 8.42188C21.1406 10.0804 19.7913 11.4297 18.1328 11.4297C16.4441 11.4297 15.125 10.0513 15.125 8.42188Z" fill="#352E7D"/>
<path d="M17.2734 19.1641H18.9922C19.703 19.1641 20.2812 18.5858 20.2812 17.875C20.2812 17.2814 19.8778 16.7805 19.3307 16.6314C19.3893 16.4842 19.4219 16.324 19.4219 16.1562C19.4219 15.4455 18.8436 14.8672 18.1328 14.8672H17.2734C17.0361 14.8672 16.8438 15.0596 16.8438 15.2969V18.7344C16.8438 18.9716 17.0361 19.1641 17.2734 19.1641ZM17.7031 15.7266H18.1328C18.3697 15.7266 18.5625 15.9193 18.5625 16.1562C18.5625 16.3932 18.3697 16.5859 18.1328 16.5859H17.7031V15.7266ZM17.7031 17.4453H18.9922C19.2291 17.4453 19.4219 17.6381 19.4219 17.875C19.4219 18.1119 19.2291 18.3047 18.9922 18.3047H17.7031V17.4453Z" fill="#352E7D"/>
<path d="M19.0563 10.2952C19.1416 10.5165 19.39 10.6269 19.6118 10.5416C19.8332 10.4562 19.9435 10.2075 19.8581 9.98606L18.5334 6.54861C18.4695 6.38284 18.3102 6.27344 18.1325 6.27344C17.9548 6.27344 17.7954 6.38284 17.7315 6.54861C17.5712 6.96467 16.5222 9.68674 16.4068 9.98606C16.3214 10.2075 16.4318 10.4561 16.6532 10.5416C16.8745 10.6269 17.1233 10.5166 17.2087 10.2952L17.4338 9.71093H18.8311L19.0563 10.2952ZM17.7651 8.85156L18.1325 7.89817L18.4999 8.85156H17.7651Z" fill="#352E7D"/>
<path d="M2.14844 7.99219H8.42188C8.65919 7.99219 8.85156 7.79977 8.85156 7.5625C8.85156 7.32523 8.65919 7.13281 8.42188 7.13281H2.14844C1.91112 7.13281 1.71875 7.32523 1.71875 7.5625C1.71875 7.79977 1.91112 7.99219 2.14844 7.99219Z" fill="#352E7D"/>
<path d="M2.14844 9.71094H6.70312C6.94044 9.71094 7.13281 9.51852 7.13281 9.28125C7.13281 9.04398 6.94044 8.85156 6.70312 8.85156H2.14844C1.91112 8.85156 1.71875 9.04398 1.71875 9.28125C1.71875 9.51852 1.91112 9.71094 2.14844 9.71094Z" fill="#352E7D"/>
<path d="M11.8594 18.3047C12.0967 18.3047 12.2891 18.1123 12.2891 17.875V16.1562C12.2891 15.919 12.0967 15.7266 11.8594 15.7266H10.1406C9.90331 15.7266 9.71094 15.919 9.71094 16.1562V17.875C9.71094 18.1123 9.90331 18.3047 10.1406 18.3047H11.8594ZM10.5703 16.5859H11.4297V17.4453H10.5703V16.5859Z" fill="#352E7D"/>
<path d="M2.14844 12.2891H8.42188C8.65919 12.2891 8.85156 12.0966 8.85156 11.8594C8.85156 11.6221 8.65919 11.4297 8.42188 11.4297H2.14844C1.91112 11.4297 1.71875 11.6221 1.71875 11.8594C1.71875 12.0966 1.91112 12.2891 2.14844 12.2891Z" fill="#352E7D"/>
<path d="M2.14844 16.5859H8.42188C8.65919 16.5859 8.85156 16.3935 8.85156 16.1562C8.85156 15.919 8.65919 15.7266 8.42188 15.7266H2.14844C1.91112 15.7266 1.71875 15.919 1.71875 16.1562C1.71875 16.3935 1.91112 16.5859 2.14844 16.5859Z" fill="#352E7D"/>
<path d="M2.14844 18.3047H8.42188C8.65919 18.3047 8.85156 18.1123 8.85156 17.875C8.85156 17.6377 8.65919 17.4453 8.42188 17.4453H2.14844C1.91112 17.4453 1.71875 17.6377 1.71875 17.875C1.71875 18.1123 1.91112 18.3047 2.14844 18.3047Z" fill="#352E7D"/>
<path d="M2.14844 14.0078H6.70312C6.94044 14.0078 7.13281 13.8154 7.13281 13.5781C7.13281 13.3409 6.94044 13.1484 6.70312 13.1484H2.14844C1.91112 13.1484 1.71875 13.3409 1.71875 13.5781C1.71875 13.8154 1.91112 14.0078 2.14844 14.0078Z" fill="#352E7D"/>
<path d="M2.14844 5.41406H7.5625C7.79982 5.41406 7.99219 5.22165 7.99219 4.98438V3.26562C7.99219 3.02835 7.79982 2.83594 7.5625 2.83594H2.14844C1.91112 2.83594 1.71875 3.02835 1.71875 3.26562V4.98438C1.71875 5.22165 1.91112 5.41406 2.14844 5.41406ZM2.57812 3.69531H7.13281V4.55469H2.57812V3.69531Z" fill="#352E7D"/>
<path d="M8.42188 22C8.65918 22 8.85156 21.8076 8.85156 21.5703C8.85156 21.333 8.65918 21.1406 8.42188 21.1406C8.18457 21.1406 7.99219 21.333 7.99219 21.5703C7.99219 21.8076 8.18457 22 8.42188 22Z" fill="#352E7D"/>
</svg>
