<svg width="18" height="18" viewBox="0 0 18 18" fill="none" xmlns="http://www.w3.org/2000/svg">
<path d="M18 5.90144L4.62222 4.12248L4.1667 1.61719H0V2.67188H3.28642L5.3958 14.2664H6.45392C6.39542 14.4315 6.36328 14.6159 6.36328 14.8008C6.36328 15.6731 7.073 16.3828 7.94531 16.3828C8.81763 16.3828 9.52734 15.6731 9.52734 14.8008C9.52734 14.6159 9.49521 14.4315 9.43671 14.2664H12.8173C12.7587 14.4315 12.7266 14.6159 12.7266 14.8008C12.7266 15.6731 13.4363 16.3828 14.3086 16.3828C15.1809 16.3828 15.8906 15.6731 15.8906 14.8008C15.8906 14.6159 15.8585 14.4385 15.8 14.2734H16.9453V13.2188H6.27608L6.08423 12.1641H18V5.90144ZM8.47266 14.8008C8.47266 15.0915 8.23604 15.3281 7.94531 15.3281C7.65459 15.3281 7.41797 15.0915 7.41797 14.8008C7.41797 14.5101 7.65459 14.2734 7.94531 14.2734C8.23604 14.2734 8.47266 14.5101 8.47266 14.8008ZM14.8359 14.8008C14.8359 15.0915 14.5993 15.3281 14.3086 15.3281C14.0179 15.3281 13.7812 15.0915 13.7812 14.8008C13.7812 14.5101 14.0179 14.2734 14.3086 14.2734C14.5993 14.2734 14.8359 14.5101 14.8359 14.8008ZM16.9453 7.94531H14.8359V6.54469L16.9453 6.82512V7.94531ZM10.582 9V11.1094H8.47266V9H10.582ZM8.47266 7.94531V5.69847L10.582 5.9789V7.94531H8.47266ZM11.6367 9H13.7812V11.1094H11.6367V9ZM11.6367 7.94531V6.11925L13.7812 6.40434V7.94531H11.6367ZM7.41797 5.55826V7.94531H5.31725L4.82039 5.21274L7.41797 5.55826ZM5.50896 9H7.41797V11.1094H5.89252L5.50896 9ZM14.8359 11.1094V9H16.9453V11.1094H14.8359Z" fill="#828282"/>
</svg>
