<svg width="18" height="18" viewBox="0 0 18 18" fill="none" xmlns="http://www.w3.org/2000/svg">
<path d="M14.8008 4.28906V2.17969H9.52734V0H6.36328V2.17969H1.08984V15.8906H3.19922V18H16.9102V4.28906H14.8008ZM7.41797 1.05469H8.47266V3.23438H7.41797V1.05469ZM2.14453 3.23438H6.36328V4.28906H9.52734V3.23438H13.7461V11.6719H10.582V14.8359H2.14453V3.23438ZM13.0003 12.7266L11.6367 14.0902V12.7266H13.0003ZM15.8555 16.9453H4.25391V15.8906H11.3278L14.8008 12.4176V5.34375H15.8555V16.9453Z" fill="#828282"/>
<path d="M4.25391 6.39844H11.6367V7.45312H4.25391V6.39844Z" fill="#828282"/>
<path d="M4.25391 8.50781H10.582V9.5625H4.25391V8.50781Z" fill="#828282"/>
<path d="M4.25391 10.6172H8.47266V11.6719H4.25391V10.6172Z" fill="#828282"/>
</svg>
