<svg width="18" height="18" viewBox="0 0 18 18" fill="none" xmlns="http://www.w3.org/2000/svg">
<path d="M12.916 11.6623C13.3859 11.5066 13.8502 11.8862 14.1671 12.0347L14.6675 11.1063C14.2913 10.9136 14.0474 10.7274 13.5573 10.6166V10.0898H12.5026V10.6927C11.6402 11.0246 11.304 12.2957 12.0635 12.8885C12.3794 13.1363 12.825 13.3126 13.2595 13.4661C13.4652 13.5388 13.5524 13.6776 13.5186 13.8784C13.4927 14.0327 13.3598 14.2944 13.0264 14.2966C12.6784 14.2988 12.5968 14.286 12.3429 14.12L11.9016 13.8313L11.3242 14.7139L11.7655 15.0026C12.0428 15.1839 12.2626 15.2742 12.5026 15.3169V15.8906H13.5573V15.2573C14.8294 14.8048 14.976 12.941 13.611 12.4718C13.2781 12.3541 12.9112 12.213 12.7144 12.0587C12.6469 11.9467 12.7504 11.7221 12.916 11.6623Z" fill="#828282"/>
<path d="M13.7591 1.05469V0H12.7044V1.05469H5.28645V0H4.23176V1.05469H0V17.0859H10.1271C10.9407 17.6614 11.9331 18 13.0032 18C15.7559 18 17.9954 15.7605 17.9954 13.0078H18V1.05469H13.7591ZM4.23176 2.10938V3.16406H5.28645V2.10938H12.7044V3.16406H13.7591V2.10938H16.9453V4.21875H1.05469V2.10938H4.23176ZM13.0032 16.9453C10.8321 16.9453 9.06574 15.179 9.06574 13.0078C9.06574 10.8367 10.8321 9.07031 13.0032 9.07031C15.1744 9.07031 16.9407 10.8367 16.9407 13.0078C16.9407 15.179 15.1744 16.9453 13.0032 16.9453ZM13.0032 8.01562C10.2505 8.01562 8.01105 10.2551 8.01105 13.0078C8.01105 14.1434 8.3925 15.1915 9.03361 16.0312H1.05469V5.27344H16.9453V9.94845C16.0311 8.77317 14.6041 8.01562 13.0032 8.01562Z" fill="#828282"/>
<path d="M2.77246 6.60938H5.26855V7.66406H2.77246V6.60938Z" fill="#828282"/>
<path d="M7.74756 6.60938H10.2437V7.66406H7.74756V6.60938Z" fill="#828282"/>
<path d="M2.77246 10.125H5.26855V11.1797H2.77246V10.125Z" fill="#828282"/>
<path d="M2.77246 13.6406H5.26855V14.6953H2.77246V13.6406Z" fill="#828282"/>
</svg>
