<svg width="18" height="18" viewBox="0 0 18 18" fill="none" xmlns="http://www.w3.org/2000/svg">
<path d="M13.2188 4.21875C13.2188 1.89253 11.3262 0 9 0C6.67378 0 4.78125 1.89253 4.78125 4.21875C4.78125 6.54497 6.67378 8.4375 9 8.4375C11.3262 8.4375 13.2188 6.54497 13.2188 4.21875ZM5.83594 4.21875C5.83594 2.47412 7.25537 1.05469 9 1.05469C10.7446 1.05469 12.1641 2.47412 12.1641 4.21875C12.1641 5.96338 10.7446 7.38281 9 7.38281C7.25537 7.38281 5.83594 5.96338 5.83594 4.21875Z" fill="#828282"/>
<path d="M2.67188 15.8555V18H15.3281V15.8555C15.3281 12.3467 12.4894 9.49219 9 9.49219C5.5106 9.49219 2.67188 12.3467 2.67188 15.8555ZM9 10.5469C11.9078 10.5469 14.2734 12.9283 14.2734 15.8555V16.9453H3.72656V15.8555C3.72656 12.9283 6.09219 10.5469 9 10.5469Z" fill="#828282"/>
</svg>
