<svg width="18" height="18" viewBox="0 0 18 18" fill="none" xmlns="http://www.w3.org/2000/svg">
<path d="M9 16.9971C8.62059 16.6688 8.42783 16.4825 6.40104 14.759C2.54647 11.4811 0 9.31569 0 6.15434C0 3.32384 2.018 1.00342 4.78125 1.00342C6.69885 1.00342 8.12169 2.18105 9 3.8516C9.87827 2.18112 11.3011 1.00342 13.2188 1.00342C15.9823 1.00342 18 3.32422 18 6.15434C18 9.31569 15.4535 11.4812 11.5989 14.759C9.56303 16.4903 9.39642 16.6541 9 16.9971ZM4.78125 2.05811C2.65676 2.05811 1.05469 3.81912 1.05469 6.15434C1.05469 8.82807 3.4534 10.8679 7.08427 13.9555C7.6995 14.4787 8.33263 15.0171 9 15.5968C9.66734 15.0171 10.3004 14.4787 10.9157 13.9555C14.5466 10.8679 16.9453 8.82811 16.9453 6.15434C16.9453 3.81908 15.3432 2.05811 13.2188 2.05811C11.3005 2.05811 9.94887 3.77784 9.50829 5.36262L9.50769 5.36483C8.97297 5.36388 9.02654 5.36395 8.49182 5.363L8.49171 5.36262C8.10264 3.96312 6.84084 2.05811 4.78125 2.05811Z" fill="#828282"/>
</svg>
