<svg width="18" height="19" viewBox="0 0 18 19" fill="none" xmlns="http://www.w3.org/2000/svg">
<path d="M1.63065 0V2.51308H0.703125V3.62421H1.63065V5.72876H0.703125V6.83989H1.63065V8.94444H0.703125V10.0556H1.63065V12.1601H0.703125V13.2712H1.63065V15.3758H0.703125V16.4869H1.63065V19H17.2969V0H1.63065ZM16.2422 17.8889H2.68534V16.4869H3.61283V15.3757H2.68534V13.2712H3.61283V12.1601H2.68534V10.0555H3.61283V8.9444H2.68534V6.83985H3.61283V5.72872H2.68534V3.62421H3.61283V2.51308H2.68534V1.11109H16.2422V17.8889Z" fill="#828282"/>
<path d="M10.8706 4.33447H14.2907V5.4456H10.8706V4.33447Z" fill="#828282"/>
<path d="M10.8706 8.94775H14.2907V10.0589H10.8706V8.94775Z" fill="#828282"/>
<path d="M10.8706 13.9248H14.2907V15.0359H10.8706V13.9248Z" fill="#828282"/>
<path d="M9.25384 3.85257L8.50807 3.06689L6.80236 4.86388L6.01289 4.03218L5.26709 4.81783L6.80236 6.4352L9.25384 3.85257Z" fill="#828282"/>
<path d="M9.25384 8.53373L8.50807 7.74805L6.80236 9.54503L6.01289 8.71334L5.26709 9.49901L6.80236 11.1164L9.25384 8.53373Z" fill="#828282"/>
<path d="M9.25384 13.2148L8.50807 12.4292L6.80236 14.2261L6.01286 13.3945L5.26709 14.1801L6.80236 15.7975L9.25384 13.2148Z" fill="#828282"/>
</svg>
