<svg width="18" height="19" viewBox="0 0 18 19" fill="none" xmlns="http://www.w3.org/2000/svg">
<g clip-path="url(#clip0)">
<path d="M11.6367 13.2389L16.3213 9.97858L11.6367 6.71826V13.2389ZM12.6914 8.78577L14.4053 9.97858L12.6914 11.1714V8.78577Z" fill="#828282"/>
<path d="M9.10044 3.81383C8.93102 3.72766 6.47926 1.62891 2.63672 1.62891H2.10938V3.51365C0.990703 3.68952 0.242613 3.91844 0 3.97748V17.3711C0.368824 17.3185 4.07394 15.9321 8.8721 17.1982L9 17.232L9.1279 17.1982C13.9315 15.9306 17.6295 17.3182 18 17.3711V3.97748C17.7557 3.9432 13.9358 2.60934 9.10044 3.81383ZM1.05469 15.9591V4.85223C1.40351 4.76973 1.75595 4.69882 2.10938 4.6397V14.9883H2.63672C3.77364 14.9883 4.9128 15.1989 5.98384 15.5968C4.33575 15.4794 2.67339 15.5999 1.05469 15.9591ZM8.47266 15.6255C6.89393 14.5916 5.03779 13.985 3.16406 13.8886V2.75718C6.33871 2.93742 8.31034 4.62478 8.47266 4.71002V15.6255ZM16.9453 15.9591C14.5056 15.4177 11.9669 15.4177 9.52734 15.9591V4.85223C11.9627 4.27614 14.51 4.27614 16.9453 4.85223V15.9591Z" fill="#828282"/>
</g>
<defs>
<clipPath id="clip0">
<rect width="18" height="19" fill="white"/>
</clipPath>
</defs>
</svg>
