<svg width="18" height="18" viewBox="0 0 18 18" fill="none" xmlns="http://www.w3.org/2000/svg">
<path d="M16.9076 14.4844C16.7724 13.5444 16.2795 12.6902 15.5244 12.101L15.1358 6.75531C15.0234 5.20843 14.3353 3.77174 13.1983 2.70981C12.1847 1.76316 10.8971 1.19412 9.52734 1.07747V0H8.47266V1.07747C7.1029 1.19412 5.8153 1.76316 4.80171 2.70984C3.66472 3.77177 2.97661 5.20847 2.86421 6.75531L2.4756 12.101C1.72051 12.6902 1.22755 13.5444 1.09238 14.4844H0V15.5391H6.05925C6.30914 16.936 7.53223 18 9 18C10.4678 18 11.6908 16.936 11.9408 15.5391H18V14.4844H16.9076ZM3.91616 6.83177C4.10857 4.1837 6.34166 2.10938 9 2.10938C11.6583 2.10938 13.8914 4.1837 14.0839 6.83177L14.4491 11.8562H3.55089L3.91616 6.83177ZM9 16.9453C8.11663 16.9453 7.3703 16.3497 7.14009 15.5391H10.8599C10.6297 16.3497 9.88337 16.9453 9 16.9453ZM2.16274 14.4844C2.28966 13.8614 2.63851 13.3013 3.15271 12.9109H14.8473C15.3615 13.3013 15.7104 13.8614 15.8373 14.4844H2.16274Z" fill="#828282"/>
</svg>
