<svg width="18" height="18" viewBox="0 0 18 18" fill="none" xmlns="http://www.w3.org/2000/svg">
<path d="M13.0964 7.10779H6.68934L7.07047 4.59219C7.09863 4.40639 7.0113 4.22199 6.84965 4.12609C6.688 4.03028 6.48438 4.04189 6.33475 4.15565L0.447734 8.63273C0.332984 8.72006 0.265625 8.85594 0.265625 9.00011C0.265625 9.14429 0.33302 9.28017 0.447734 9.3675L6.33475 13.8446C6.41691 13.907 6.51535 13.9387 6.61421 13.9387C6.69504 13.9387 6.77618 13.9175 6.84881 13.8746C7.01035 13.7793 7.0981 13.5956 7.07082 13.41L6.68698 10.8001H13.0964C13.3512 10.8001 13.5348 10.5934 13.5348 10.3386V7.56936C13.5349 7.31448 13.3512 7.10779 13.0964 7.10779ZM12.6118 9.87705H6.15264C6.01852 9.87705 5.89105 9.93545 5.80337 10.0369C5.71569 10.1384 5.67649 10.2731 5.696 10.4058L5.99297 12.4249L1.48963 9.00011L5.98727 5.57966L5.69632 7.50021C5.67614 7.63317 5.71495 7.76831 5.8027 7.87026C5.89034 7.97225 6.01814 8.03089 6.15264 8.03089H12.6118V9.87705H12.6118Z" fill="#828282"/>
<path d="M16.3531 0H4.2815C4.02666 0 3.79688 0.206684 3.79688 0.461531V2.30769C3.79688 2.56254 4.02662 2.76922 4.2815 2.76922H14.9661V15.2308H4.2815C4.02666 15.2308 3.79688 15.4375 3.79688 15.6923V17.5385C3.79688 17.7933 4.02662 18 4.2815 18H16.3531C17.128 18 17.7353 17.3789 17.7353 16.6154V1.38463C17.7353 0.621141 17.128 0 16.3531 0ZM16.8123 16.6154C16.8123 16.8656 16.6145 17.0769 16.3531 17.0769H4.71997V16.1538H15.4508C15.7056 16.1538 15.8892 15.9472 15.8892 15.6923V2.30769C15.8892 2.05284 15.7056 1.84616 15.4508 1.84616H4.71997V0.923063H16.3531C16.6145 0.923063 16.8123 1.13439 16.8123 1.38459V16.6154Z" fill="#828282"/>
</svg>
