<svg width="17" height="17" viewBox="0 0 17 17" fill="none" xmlns="http://www.w3.org/2000/svg">
<path d="M14.8086 0.53125H2.19141C0.983045 0.53125 0 1.51429 0 2.72266V14.2773C0 15.4857 0.983045 16.4688 2.19141 16.4688H13.2812C13.937 16.4688 14.5535 16.2134 15.0172 15.7497L16.2809 14.486C16.7446 14.0223 17 13.4058 17 12.75V2.72266C17 1.51429 16.017 0.53125 14.8086 0.53125ZM2.19141 1.59375H14.8086C15.4311 1.59375 15.9375 2.10016 15.9375 2.72266V4.25H1.0625V2.72266C1.0625 2.10016 1.56891 1.59375 2.19141 1.59375ZM1.0625 14.2773V5.3125H15.9375V12.2188H14.2773C13.4352 12.2188 12.75 12.9039 12.75 13.7461V15.4062H2.19141C1.56891 15.4062 1.0625 14.8998 1.0625 14.2773ZM15.5296 13.7347L14.266 14.9984C14.1339 15.1304 13.9801 15.2327 13.8125 15.3018V13.7461C13.8125 13.4898 14.021 13.2812 14.2773 13.2812H15.833C15.7639 13.4488 15.6616 13.6027 15.5296 13.7347Z" fill="white"/>
<path d="M13.2812 7.4375C13.2812 7.14412 13.0434 6.90625 12.75 6.90625H4.25C3.95658 6.90625 3.71875 7.14412 3.71875 7.4375C3.71875 7.73088 3.95658 7.96875 4.25 7.96875H12.75C13.0434 7.96875 13.2812 7.73088 13.2812 7.4375Z" fill="white"/>
<path d="M11.6875 9.5625H5.3125C5.01908 9.5625 4.78125 9.80037 4.78125 10.0938C4.78125 10.3871 5.01908 10.625 5.3125 10.625H11.6875C11.9809 10.625 12.2188 10.3871 12.2188 10.0938C12.2188 9.80037 11.9809 9.5625 11.6875 9.5625Z" fill="white"/>
</svg>
