<svg width="197" height="67" viewBox="0 0 197 67" fill="none" xmlns="http://www.w3.org/2000/svg">
<path d="M83.8335 34.1706C83.8335 43.4195 76.5981 50.2348 67.7187 50.2348C58.8392 50.2348 51.6038 43.4195 51.6038 34.1706C51.6038 24.8566 58.8392 18.1064 67.7187 18.1064C76.5981 18.1064 83.8335 24.8566 83.8335 34.1706ZM76.7792 34.1706C76.7792 28.391 72.5857 24.4365 67.7187 24.4365C62.8516 24.4365 58.6581 28.391 58.6581 34.1706C58.6581 39.8923 62.8516 43.9048 67.7187 43.9048C72.5857 43.9048 76.7792 39.8851 76.7792 34.1706Z" fill="#EA4335"/>
<path d="M118.598 34.1706C118.598 43.4195 111.363 50.2348 102.484 50.2348C93.6041 50.2348 86.3687 43.4195 86.3687 34.1706C86.3687 24.8638 93.6041 18.1064 102.484 18.1064C111.363 18.1064 118.598 24.8566 118.598 34.1706ZM111.544 34.1706C111.544 28.391 107.351 24.4365 102.484 24.4365C97.6165 24.4365 93.423 28.391 93.423 34.1706C93.423 39.8923 97.6165 43.9048 102.484 43.9048C107.351 43.9048 111.544 39.8851 111.544 34.1706Z" fill="#FBBC05"/>
<path d="M151.915 19.077V47.9172C151.915 59.7806 144.918 64.626 136.647 64.626C128.861 64.626 124.175 59.4185 122.408 55.1598L128.55 52.6032C129.644 55.2178 132.323 58.3031 136.64 58.3031C141.934 58.3031 145.215 55.0367 145.215 48.8877V46.5773H144.969C143.39 48.5256 140.348 50.2276 136.51 50.2276C128.477 50.2276 121.119 43.2312 121.119 34.2286C121.119 25.1608 128.477 18.1064 136.51 18.1064C140.341 18.1064 143.383 19.8085 144.969 21.6988H145.215V19.0842H151.915V19.077ZM145.715 34.2286C145.715 28.5721 141.942 24.4365 137.14 24.4365C132.273 24.4365 128.195 28.5721 128.195 34.2286C128.195 39.8271 132.273 43.9048 137.14 43.9048C141.942 43.9048 145.715 39.8271 145.715 34.2286Z" fill="#4285F4"/>
<path d="M162.96 2.17285V49.2501H156.079V2.17285H162.96Z" fill="#34A853"/>
<path d="M189.772 39.4577L195.247 43.108C193.48 45.7226 189.221 50.2275 181.863 50.2275C172.737 50.2275 165.922 43.1732 165.922 34.1633C165.922 24.6103 172.795 18.0991 181.073 18.0991C189.41 18.0991 193.487 24.7334 194.82 28.3185L195.552 30.1436L174.077 39.0376C175.721 42.2606 178.278 43.9047 181.863 43.9047C185.455 43.9047 187.947 42.1375 189.772 39.4577ZM172.918 33.6781L187.273 27.7174C186.484 25.7111 184.108 24.3133 181.312 24.3133C177.727 24.3133 172.737 27.4783 172.918 33.6781Z" fill="#EA4335"/>
<path d="M25.5593 29.9917V23.1764H48.5257C48.7503 24.3642 48.8661 25.7693 48.8661 27.2902C48.8661 32.4035 47.4683 38.7264 42.9634 43.2313C38.5816 47.7942 32.983 50.2277 25.5666 50.2277C11.82 50.2277 0.260742 39.0306 0.260742 25.284C0.260742 11.5375 11.82 0.340332 25.5666 0.340332C33.1713 0.340332 38.5888 3.3243 42.6592 7.2136L37.8501 12.0227C34.9313 9.285 30.9768 7.15566 25.5593 7.15566C15.521 7.15566 7.66997 15.2457 7.66997 25.284C7.66997 35.3223 15.521 43.4124 25.5593 43.4124C32.0704 43.4124 35.7787 40.7978 38.1543 38.4222C40.0808 36.4956 41.3483 33.7434 41.848 29.9845L25.5593 29.9917Z" fill="#4285F4"/>
</svg>
