<svg width="18" height="18" viewBox="0 0 18 18" fill="none" xmlns="http://www.w3.org/2000/svg">
<g clip-path="url(#clip0)">
<path d="M16.1403 8.885C15.977 6.96565 14.8646 5.31281 13.2751 4.39966C13.2761 4.37066 13.2774 4.34176 13.2774 4.31251C13.2774 2.88446 12.1155 1.72266 10.6875 1.72266C9.49155 1.72266 8.48282 2.53768 8.18634 3.64134H7.20014C7.10188 3.28669 6.91144 2.96251 6.64193 2.69895C6.24547 2.31121 5.72168 2.09767 5.16702 2.09767H3.59764V4.61085C2.69793 5.21518 1.98074 6.06895 1.5428 7.05772L0 7.47014V11.2799L1.54266 11.6923C1.99455 12.7131 2.74068 13.5861 3.67966 14.1933V16.2773H6.85564L7.18696 15.1087H10.0292L10.3604 16.2773H13.5364V14.1934C14.9964 13.2494 15.9495 11.6878 16.1298 9.96933C16.2301 10.0042 16.3246 10.0516 16.411 10.1101C16.5206 10.1842 16.6172 10.2759 16.6973 10.3809C16.8528 10.5847 16.9453 10.839 16.9453 11.1145H18C18 10.0036 17.1965 9.07745 16.1403 8.885ZM12.4817 13.5914V15.2227H11.1577L10.8264 14.054H6.38968L6.05837 15.2227H4.73435V13.5914L4.46885 13.4395C3.53535 12.9055 2.80842 12.0605 2.42202 11.06L2.32537 10.8098L1.05469 10.4701V8.27989L2.32548 7.94018L2.42213 7.68997C2.79721 6.71871 3.49794 5.88899 4.3952 5.35363L4.65233 5.20021V3.15236H5.16702C5.7349 3.15236 6.20807 3.61417 6.22181 4.18184L6.23436 4.7005L6.75313 4.69642L8.12623 4.69628C8.18986 5.12272 8.35787 5.51538 8.60326 5.84768H7.875V6.90237C7.875 6.90237 10.6244 6.90237 10.6875 6.90237C11.6994 6.90237 12.5771 6.31863 13.003 5.47052C14.2695 6.30868 15.1067 7.7458 15.1067 9.37501C15.1067 11.0495 14.2026 12.6069 12.7472 13.4395L12.4817 13.5914ZM12.2227 4.31251C12.2227 5.159 11.534 5.84768 10.6875 5.84768C9.84104 5.84768 9.15237 5.159 9.15237 4.31251C9.15233 3.46602 9.84101 2.77734 10.6875 2.77734C11.534 2.77734 12.2227 3.46602 12.2227 4.31251Z" fill="#4F4F4F"/>
<path d="M5.17969 7.72266H4.125V8.77734H5.17969V7.72266Z" fill="#4F4F4F"/>
</g>
<defs>
<clipPath id="clip0">
<rect width="18" height="18" fill="white"/>
</clipPath>
</defs>
</svg>
