<svg width="1920" height="825" fill="none" xmlns="http://www.w3.org/2000/svg"><mask id="a" maskUnits="userSpaceOnUse" x="-46" y="0" width="1983" height="817"><path fill="#A799E1" d="M-46 0h1983v817H-46z"/></mask><g opacity=".08" mask="url(#a)"><path d="M1195.87 36.468c-7.83-6.012-9.67-17.767-4.09-26.202 5.58-8.435 16.49-10.41 24.32-4.4 7.83 6.012 9.67 17.767 4.09 26.202-5.58 8.435-16.49 10.41-24.32 4.4zm15.93-24.093c-4.5-3.454-10.77-2.315-13.98 2.533-3.2 4.847-2.15 11.598 2.35 15.052 4.5 3.454 10.77 2.314 13.98-2.533 3.19-4.848 2.15-11.598-2.35-15.052zM1168.19 19.295l-5.1-5.817 64.44-65.432 5.1 5.818-64.44 65.43zM1405.92 744.419c-8.78-9.162-9.01-24.299-.51-33.752 8.49-9.453 22.55-9.707 31.33-.545 8.77 9.15 9 24.299.51 33.752-8.51 9.465-22.56 9.695-31.33.545zm24.26-26.989c-5.04-5.26-13.12-5.127-18 .315-4.88 5.429-4.75 14.131.29 19.39 5.04 5.26 13.12 5.115 18-.315 4.89-5.441 4.75-14.131-.29-19.39zM1413.11 841.942c-8.77-9.163-9-24.299-.5-33.752 8.5-9.453 22.55-9.708 31.33-.546 8.77 9.15 9.01 24.299.5 33.752-8.49 9.453-22.55 9.708-31.33.546zm24.27-26.99c-5.04-5.259-13.12-5.114-18 .315-4.88 5.43-4.75 14.131.29 19.391 5.04 5.26 13.12 5.114 18-.315 4.87-5.442 4.75-14.143-.29-19.391zM1381.39 814.71l-5.36-8.35 92.48-68.982 5.36 8.35-92.48 68.982zM450.672 717.975c-8.19 0-14.838-7.175-14.838-15.985 0-8.811 6.66-15.985 14.838-15.985 8.179 0 14.838 7.174 14.838 15.985 0 8.81-6.659 15.985-14.838 15.985zm0-25.172c-4.702 0-8.527 4.121-8.527 9.187 0 5.066 3.825 9.186 8.527 9.186 4.702 0 8.527-4.12 8.527-9.186s-3.836-9.187-8.527-9.187zM496.311 761.301c-8.19 0-14.838-7.175-14.838-15.985 0-8.823 6.659-15.985 14.838-15.985 8.178 0 14.838 7.174 14.838 15.985.011 8.81-6.649 15.985-14.838 15.985zm0-25.172c-4.703 0-8.527 4.121-8.527 9.187 0 5.066 3.824 9.186 8.527 9.186 4.702 0 8.527-4.12 8.527-9.186s-3.825-9.187-8.527-9.187zM469.268 764.112l-6.199-1.32 14.67-79.623 6.198 1.321-14.669 79.622zM676.866 40.382c-11.665 2.23-22.825-6.18-24.895-18.748-2.07-12.556 5.738-24.59 17.403-26.82 11.655-2.23 22.826 6.18 24.896 18.748 2.058 12.568-5.749 24.59-17.404 26.82zm-5.894-35.86c-6.694 1.272-11.182 8.18-10.001 15.403 1.181 7.21 7.605 12.046 14.298 10.762 6.694-1.273 11.182-8.193 9.99-15.404-1.182-7.223-7.594-12.046-14.287-10.761zM752.048 89.683c-11.666 2.23-22.825-6.181-24.895-18.749-2.07-12.567 5.737-24.59 17.403-26.82 11.654-2.23 22.825 6.181 24.895 18.749 2.059 12.567-5.748 24.602-17.403 26.82zm-5.895-35.86c-6.693 1.272-11.182 8.192-9.989 15.402 1.181 7.211 7.604 12.047 14.298 10.762 6.693-1.272 11.182-8.192 9.99-15.403-1.193-7.211-7.605-12.047-14.299-10.762zM714.17 101.05l-9.135-.206 2.25-117.422 9.135.206-2.25 117.422zM862.708 148.775c-10.147 0-18.415-8.895-18.415-19.839 0-10.931 8.257-19.839 18.415-19.839 10.148 0 18.416 8.896 18.416 19.839 0 10.944-8.257 19.839-18.416 19.839zm0-27.51c-3.926 0-7.121 3.442-7.121 7.671 0 4.23 3.195 7.672 7.121 7.672 3.927 0 7.121-3.442 7.121-7.672.012-4.229-3.183-7.671-7.121-7.671zM1443.18 435.599c-10.14 0-18.4-8.895-18.4-19.827 0-10.931 8.26-19.839 18.4-19.839 10.15 0 18.42 8.896 18.42 19.839 0 10.932-8.26 19.827-18.42 19.827zm0-27.51c-3.92 0-7.12 3.442-7.12 7.671 0 4.23 3.2 7.671 7.12 7.671 3.93 0 7.13-3.441 7.13-7.671.01-4.229-3.19-7.671-7.13-7.671zM393.728 263.604c-4.567 0-8.29-3.999-8.29-8.931 0-4.921 3.712-8.932 8.29-8.932 4.568 0 8.291 3.999 8.291 8.932 0 4.92-3.712 8.931-8.291 8.931zm0-12.385c-1.766 0-3.206 1.551-3.206 3.454 0 1.902 1.44 3.453 3.206 3.453 1.767 0 3.207-1.551 3.207-3.453 0-1.903-1.429-3.454-3.207-3.454z" fill="#fff"/><path d="M1034.95 239.912c-17.56 0-31.85-15.392-31.85-34.31 0-18.918 14.29-34.309 31.85-34.309 17.56 0 31.85 15.391 31.85 34.309s-14.29 34.31-31.85 34.31zm0-47.58c-6.79 0-12.32 5.962-12.32 13.282s5.53 13.271 12.32 13.271c6.8 0 12.33-5.951 12.33-13.271-.01-7.332-5.53-13.282-12.33-13.282zM434.666 348.911c4.97 0 8.999-4.341 8.999-9.695 0-5.355-4.029-9.696-8.999-9.696-4.971 0-9 4.341-9 9.696 0 5.354 4.029 9.695 9 9.695zM1457.25 53.204c5.59 0 10.12-4.883 10.12-10.907s-4.53-10.907-10.12-10.907c-5.59 0-10.13 4.883-10.13 10.907s4.54 10.907 10.13 10.907zM1579.87 562.208c4.97 0 9-4.341 9-9.696 0-5.354-4.03-9.695-9-9.695s-9 4.341-9 9.695c0 5.355 4.03 9.696 9 9.696zM1055.64 19.27c6.21 0 11.25-5.425 11.25-12.119 0-6.693-5.04-12.119-11.25-12.119s-11.25 5.426-11.25 12.12c0 6.693 5.04 12.118 11.25 12.118zM336.794 101.681c5.592 0 10.125-4.884 10.125-10.908 0-6.023-4.533-10.907-10.125-10.907-5.591 0-10.124 4.883-10.124 10.907s4.533 10.908 10.124 10.908zM1438.15 246.431c-3.18 0-6.26-1.26-8.95-2.351-4.33-1.769-7.11-2.751-9.51-.812-1.48 1.2-3.6.885-4.72-.727-1.11-1.612-.82-3.89.67-5.09 5.48-4.435 11.29-2.072 15.95-.17 4.33 1.758 7.1 2.751 9.5.812 2.4-1.939 2.3-5.077 1.94-10.058-.4-5.357-.88-12.01 4.6-16.446 5.49-4.436 11.28-2.072 15.94-.182 4.33 1.757 7.11 2.751 9.5.812 2.4-1.939 2.3-5.09 1.94-10.059-.4-5.356-.88-12.01 4.61-16.445 5.48-4.436 11.28-2.073 15.94-.17 4.33 1.769 7.11 2.751 9.51.812 2.39-1.939 2.29-5.078 1.93-10.059-.39-5.345-.88-12.01 4.61-16.446 5.48-4.435 11.29-2.072 15.94-.169 4.34 1.769 7.11 2.751 9.51.812 2.4-1.939 2.3-5.09 1.94-10.059-.4-5.357-.88-12.01 4.61-16.446 5.48-4.435 11.28-2.072 15.94-.182 4.33 1.77 7.12 2.751 9.5.812 1.49-1.2 3.62-.884 4.73.727 1.11 1.612.82 3.891-.68 5.09-5.47 4.436-11.28 2.073-15.94.182-4.33-1.769-7.11-2.739-9.5-.812-2.4 1.939-2.3 5.09-1.94 10.059.4 5.357.88 12.01-4.61 16.446-5.48 4.435-11.28 2.072-15.94.169-4.33-1.769-7.11-2.751-9.51-.812-2.39 1.94-2.29 5.078-1.93 10.059.39 5.357.88 12.01-4.61 16.446-5.48 4.436-11.29 2.072-15.94.17-4.33-1.77-7.11-2.751-9.51-.812-2.4 1.939-2.29 5.078-1.93 10.059.39 5.356.87 12.01-4.62 16.445-5.48 4.436-11.28 2.073-15.94.17-4.33-1.769-7.11-2.751-9.5-.812-2.4 1.939-2.3 5.078-1.93 10.059.4 5.356.88 12.01-4.61 16.446-2.31 1.866-4.67 2.532-6.99 2.532zM1636.48 707.504c-.39 0-.79-.073-1.19-.243-6.41-2.617-7.66-9.162-8.67-14.421-.93-4.884-1.65-7.938-4.46-9.09-2.8-1.151-5.22.63-8.92 3.624-3.98 3.211-8.95 7.223-15.36 4.605-6.42-2.618-7.66-9.162-8.68-14.409-.93-4.884-1.65-7.939-4.45-9.09-2.79-1.139-5.21.63-8.92 3.624-4 3.223-8.96 7.223-15.37 4.605-6.41-2.618-7.66-9.162-8.67-14.41-.94-4.884-1.66-7.938-4.45-9.089-2.8-1.139-5.21.63-8.92 3.624-3.98 3.211-8.95 7.223-15.35 4.605-6.42-2.618-7.66-9.162-8.68-14.41-.93-4.884-1.65-7.938-4.45-9.089-2.79-1.139-5.21.63-8.92 3.624-3.98 3.223-8.96 7.223-15.36 4.605-6.41-2.618-7.66-9.162-8.67-14.41-.93-4.884-1.65-7.938-4.44-9.089-1.75-.715-2.63-2.812-1.96-4.69.66-1.879 2.61-2.824 4.35-2.109 6.41 2.618 7.66 9.162 8.67 14.41.94 4.884 1.66 7.938 4.46 9.089 2.8 1.139 5.21-.63 8.92-3.624 3.98-3.223 8.96-7.223 15.36-4.605 6.41 2.618 7.66 9.162 8.67 14.422.93 4.884 1.65 7.938 4.45 9.089 2.81 1.139 5.22-.63 8.93-3.623 3.99-3.224 8.94-7.223 15.35-4.606 6.41 2.618 7.66 9.162 8.67 14.41.94 4.884 1.66 7.938 4.45 9.089 2.8 1.152 5.22-.63 8.92-3.623 3.98-3.224 8.95-7.223 15.35-4.606 6.42 2.618 7.67 9.163 8.68 14.422.93 4.884 1.65 7.938 4.45 9.09 2.8 1.151 5.22-.631 8.92-3.624 3.99-3.212 8.96-7.223 15.37-4.605 6.41 2.617 7.66 9.162 8.67 14.421.94 4.884 1.66 7.938 4.46 9.09 1.74.715 2.62 2.811 1.96 4.69-.52 1.43-1.8 2.327-3.17 2.327zM912.207 48.793c-1.485 0-2.846-1.067-3.251-2.679-1.418-5.599 3.375-9.428 7.222-12.507 1.507-1.212 4.657-3.72 4.736-4.762-.551-.849-4.455-1.31-6.322-1.527-4.77-.558-10.699-1.249-12.105-6.848-1.406-5.599 3.375-9.428 7.234-12.507 1.507-1.212 4.657-3.72 4.736-4.75-.552-.849-4.455-1.31-6.323-1.527-4.769-.558-10.698-1.249-12.104-6.848-1.406-5.599 3.375-9.429 7.233-12.507 1.508-1.212 4.658-3.72 4.736-4.75-.562-.849-4.454-1.297-6.322-1.515-4.77-.558-10.698-1.249-12.104-6.835-1.406-5.6 3.375-9.43 7.233-12.495 1.508-1.212 4.658-3.72 4.736-4.751-.562-.848-4.455-1.297-6.322-1.515-4.77-.557-10.698-1.248-12.104-6.847-1.407-5.6 3.374-9.429 7.233-12.507 1.507-1.212 4.657-3.72 4.736-4.75-.484-1.94.574-3.94 2.374-4.46 1.8-.522 3.656.617 4.14 2.556 1.406 5.6-3.375 9.43-7.234 12.507-1.507 1.212-4.657 3.72-4.736 4.751.562.848 4.455 1.297 6.322 1.515 4.77.557 10.699 1.248 12.105 6.847 1.406 5.6-3.375 9.429-7.234 12.495-1.507 1.212-4.657 3.72-4.736 4.75.563.85 4.455 1.298 6.322 1.516 4.77.557 10.699 1.248 12.105 6.835 1.406 5.599-3.375 9.429-7.234 12.507-1.507 1.212-4.657 3.72-4.736 4.75.552.849 4.455 1.31 6.323 1.528 4.77.557 10.698 1.248 12.104 6.847 1.406 5.599-3.375 9.429-7.233 12.507-1.508 1.212-4.658 3.72-4.736 4.75.551.849 4.455 1.31 6.322 1.527 4.77.558 10.698 1.249 12.104 6.848 1.418 5.599-3.375 9.428-7.233 12.507-1.508 1.212-4.657 3.72-4.736 4.763.484 1.939-.574 3.938-2.374 4.46a3.567 3.567 0 01-.877.12z" fill="#FFBC00"/><path d="M1572.72 193.325l3.39 25.572 23.04 7.15-21.53 11.368.81 25.814-16.69-18.543-22.54 8.799 11.21-22.821-14.73-20.372 23.62 4.436 13.42-21.403zM1651.49 445.403l2.62 19.851 17.89 5.551-16.72 8.823.63 20.045-12.96-14.398-17.49 6.835 8.71-17.73-11.45-15.815 18.34 3.454 10.43-16.616zM492.915-16.469l9.889 10.871 13.252-5.272-6.536 13.501 8.752 11.95-13.927-2.533-7.852 12.664-2.07-15.064-13.601-4.12 12.656-6.787-.563-15.21zM269.128 478.428l12.51 14.846 17.707-6.205-9.248 17.403 10.957 16.215-18.224-4.096-10.934 16.24-2.014-19.936-17.718-6.181 16.987-8.229-.023-20.057zM1611.93 736.578l-2.14 14.761 11.62 8.144-13.69 2.363-3.6 14.422-6.32-13.283-13.84.764 9.78-10.58-4.96-13.949 12.36 6.75 10.79-9.392zM1449.37 544.962c4.83 0 8.74-4.216 8.74-9.417 0-5.2-3.91-9.416-8.74-9.416s-8.74 4.216-8.74 9.416c0 5.201 3.91 9.417 8.74 9.417zM1243.03 225.126c-.24 5.187-4.36 9.186-9.18 8.908-4.81-.267-8.52-4.703-8.26-9.89.24-5.187 4.36-9.186 9.18-8.907 4.81.266 8.51 4.702 8.26 9.889zM959.748-5.089c-.248 5.187-4.365 9.186-9.18 8.908-4.815-.267-8.527-4.703-8.268-9.89.247-5.187 4.365-9.186 9.179-8.907 4.815.278 8.516 4.702 8.269 9.889zM578.389 174.88c-.248 5.187-4.365 9.187-9.18 8.908-4.815-.267-8.527-4.702-8.269-9.889.248-5.187 4.365-9.187 9.18-8.908 4.815.279 8.516 4.702 8.269 9.889zM314.194 246.201c4.827 0 8.741-4.216 8.741-9.416 0-5.201-3.914-9.417-8.741-9.417s-8.741 4.216-8.741 9.417c0 5.2 3.914 9.416 8.741 9.416zM303.9 737.208c-.247 5.187-4.365 9.186-9.179 8.907-4.815-.266-8.528-4.702-8.269-9.889.248-5.187 4.365-9.186 9.18-8.907 4.815.278 8.516 4.702 8.268 9.889z" fill="#99005F"/><path d="M1367.45 600.88c-3.66 0-6.84-2.703-9.31-4.811-2.65-2.254-4.47-3.685-5.75-3.079-1.71.812-3.7-.012-4.46-1.842-.75-1.83.02-3.987 1.73-4.799 5.09-2.436 9.48 1.297 12.67 4.024 2.65 2.254 4.48 3.684 5.75 3.078 1.28-.618 1.52-3.03 1.75-6.666.27-4.387.63-10.386 5.73-12.834 5.11-2.436 9.49 1.297 12.68 4.012 2.65 2.254 4.48 3.684 5.76 3.078 1.28-.618 1.52-3.03 1.74-6.666.27-4.387.63-10.386 5.74-12.834 5.11-2.448 9.49 1.285 12.69 4.012 2.65 2.254 4.48 3.684 5.76 3.078 1.28-.618 1.52-3.042 1.75-6.666.27-4.387.64-10.386 5.73-12.834 1.71-.812 3.7.012 4.46 1.842.75 1.83-.01 3.988-1.71 4.8-1.29.618-1.52 3.041-1.75 6.665-.27 4.387-.64 10.386-5.73 12.834-5.11 2.436-9.49-1.297-12.69-4.011-2.65-2.254-4.48-3.684-5.76-3.078-1.29.618-1.52 3.029-1.75 6.665-.27 4.387-.63 10.386-5.73 12.834-5.11 2.436-9.49-1.297-12.68-4.023-2.65-2.254-4.48-3.685-5.76-3.079-1.28.618-1.52 3.03-1.75 6.666-.27 4.387-.63 10.386-5.73 12.834-1.17.57-2.3.8-3.38.8zM1260.11 152.666c-2.41 0-4.79-.715-6.73-3.03-3.74-4.472-1.81-10.119-.39-14.24 1.17-3.405 1.87-5.732.92-6.847-.93-1.115-3.15-.618-6.42.291-3.95 1.09-9.36 2.581-13.11-1.891-3.74-4.472-1.81-10.119-.39-14.24 1.17-3.405 1.87-5.732.92-6.847-.93-1.115-3.15-.618-6.41.291-3.95 1.09-9.36 2.581-13.11-1.891-3.73-4.472-1.8-10.107-.39-14.228 1.17-3.405 1.87-5.732.92-6.847-1.25-1.49-1.14-3.793.25-5.139 1.38-1.345 3.52-1.224 4.77.267 3.73 4.472 1.81 10.107.39 14.228-1.17 3.405-1.87 5.72-.92 6.847.93 1.127 3.15.618 6.41-.29 3.95-1.091 9.36-2.582 13.11 1.89 3.74 4.472 1.81 10.119.39 14.24-1.17 3.405-1.87 5.732-.92 6.847.93 1.115 3.15.618 6.41-.291 3.95-1.09 9.36-2.581 13.11 1.891 3.74 4.472 1.81 10.119.39 14.24-1.17 3.405-1.87 5.732-.92 6.847.93 1.127 3.15.618 6.42-.278 3.95-1.091 9.36-2.582 13.11 1.89 1.25 1.491 1.13 3.793-.25 5.139-1.38 1.345-3.52 1.224-4.77-.267-.95-1.127-3.15-.618-6.42.279-1.9.521-4.14 1.139-6.37 1.139z" fill="#fff"/><path d="M1336.05 219.26l-110.25-52.075 17.28-38.757 41.93-94.07 101.6 47.98-24.86 67.322-25.7 69.6z" fill="#FFBC00"/><path d="M1353.38 89.816c-1.78-.836-2.6-3.078-1.81-5.005l5.14-12.64c5.32-13.09.23-28.614-11.78-34.661-12.39-6.23-27.08-.206-32.53 13.198l-5.32 13.088c-.78 1.915-2.86 2.8-4.65 1.951-1.78-.836-2.6-3.078-1.81-5.005l5.12-12.567c6.89-16.93 25.09-25.245 40.94-18.143 16.21 7.272 23.71 27.486 16.69 44.744l-5.32 13.089c-.8 1.915-2.88 2.787-4.67 1.95z" fill="#FCAB0A"/><path d="M1292.83 130.573c-4.67.884-9.13-2.473-9.95-7.502-.82-5.03 2.29-9.841 6.96-10.726 4.67-.884 9.14 2.473 9.96 7.502.82 5.03-2.3 9.829-6.97 10.726zm-2.36-14.35c-2.68.509-4.48 3.273-3.99 6.157.47 2.884 3.03 4.823 5.71 4.302 2.68-.509 4.48-3.272 4-6.156-.47-2.885-3.04-4.812-5.72-4.303zM1322.9 150.302c-4.67.885-9.13-2.472-9.95-7.501-.82-5.03 2.29-9.841 6.96-10.726 4.67-.884 9.14 2.473 9.96 7.502.83 5.017-2.3 9.829-6.97 10.725zm-2.35-14.349c-2.68.509-4.48 3.273-3.99 6.157.47 2.884 3.04 4.823 5.71 4.302 2.68-.509 4.48-3.272 4-6.156-.48-2.885-3.04-4.824-5.72-4.303zM1307.75 154.847l-3.66-.085.9-46.973 3.66.084-.9 46.974z" fill="#fff"/><path d="M1390.79 633.589l-71.17 31.05-8.73-25.754-21.19-62.522 65.58-28.613 17.46 42.21 18.05 43.629z" fill="#FFBC00"/><path d="M1343.65 567.419c-1.15.497-2.47-.097-2.93-1.333l-3.07-8.157c-3.17-8.447-12.02-12.858-19.93-9.646-8.16 3.32-12.15 13.234-8.9 21.887l3.17 8.447c.46 1.236-.09 2.654-1.24 3.151-1.14.497-2.46-.097-2.92-1.333l-3.05-8.108c-4.11-10.931.47-23.584 10.54-28.225 10.31-4.739 22.21.581 26.39 11.719l3.18 8.447c.47 1.236-.08 2.654-1.24 3.151z" fill="#FCAB0A"/><path d="M508.775 615.665L381.273 671.28l-15.648-46.15-37.967-112.005 117.49-51.252 31.285 75.612 32.342 78.18z" fill="#FFBC00"/><path d="M424.302 497.116c-2.058.897-4.41-.17-5.242-2.4l-5.49-14.615c-5.692-15.137-21.543-23.051-35.717-17.282-14.602 5.938-21.768 23.693-15.941 39.205l5.693 15.137c.832 2.218-.158 4.751-2.228 5.648-2.058.896-4.41-.17-5.242-2.388l-5.467-14.531c-7.357-19.584.855-42.259 18.888-50.561 18.449-8.495 39.778 1.042 47.27 20.99l5.692 15.137c.844 2.23-.146 4.763-2.216 5.66z" fill="#FCAB0A"/><path d="M399.633 567.128c-6.794 1.297-13.297-3.599-14.5-10.919-1.204-7.32 3.341-14.325 10.136-15.622 6.794-1.297 13.296 3.6 14.5 10.919 1.204 7.32-3.341 14.325-10.136 15.622zm-3.431-20.893c-3.903.739-6.513 4.762-5.827 8.968.686 4.205 4.432 7.017 8.325 6.265 3.903-.739 6.513-4.775 5.816-8.968-.675-4.193-4.41-7.005-8.314-6.265zM443.428 595.85c-6.794 1.297-13.297-3.599-14.5-10.919-1.204-7.32 3.341-14.325 10.135-15.621 6.795-1.297 13.297 3.599 14.501 10.919 1.204 7.308-3.352 14.325-10.136 15.621zm-3.442-20.893c-3.904.739-6.514 4.775-5.816 8.968.686 4.206 4.432 7.017 8.325 6.266 3.903-.739 6.513-4.775 5.816-8.968-.687-4.194-4.421-7.005-8.325-6.266zM421.368 602.467l-5.321-.121 1.305-68.4 5.321.121-1.305 68.4z" fill="#fff"/><path d="M1510.12 456.771c4.97 0 9-4.34 9-9.695s-4.03-9.695-9-9.695-9 4.34-9 9.695 4.03 9.695 9 9.695z" fill="#FFBC00"/></g></svg>