<svg xmlns="http://www.w3.org/2000/svg" xmlns:xlink="http://www.w3.org/1999/xlink" width="401" height="311" fill="none" xmlns:v="https://vecta.io/nano"><style><![CDATA[.B{fill-rule:evenodd}.C{fill:#fff}.D{fill:#000}.E{fill:#f2f2f2}.F{fill:#a9a9a9}.G{fill:#9eacff}]]></style><g clip-path="url(#A)"><path d="M42.26 1.573h260.023c5.835 0 10.564 4.905 10.564 10.958V196.35c0 6.052-4.73 10.957-10.564 10.957H42.26c-5.836 0-10.565-4.905-10.565-10.957V12.53c0-6.053 4.73-10.958 10.565-10.958z" class="B C"/><path d="M302.288 208.886H42.26c-6.663 0-12.082-5.62-12.082-12.53V12.53C30.178 5.62 35.597 0 42.26 0h260.03c6.662 0 12.082 5.62 12.082 12.53V196.35c0 6.916-5.42 12.537-12.082 12.537zM42.26 3.153c-4.985 0-9.048 4.208-9.048 9.385v183.818c0 5.17 4.057 9.378 9.048 9.378h260.03c4.985 0 9.048-4.208 9.048-9.378V12.53c0-5.17-4.057-9.385-9.048-9.385L42.26 3.153z" fill="#b0b0b0"/><g fill="#dedede"><use xlink:href="#B"/><path d="M153.85 70.95H48.072c-.84 0-1.517-.703-1.517-1.573s.678-1.573 1.517-1.573h105.78c.84 0 1.517.703 1.517 1.573s-.678 1.573-1.517 1.573z"/><use xlink:href="#C"/><use xlink:href="#D"/><path d="M202.315 138.067h-41.07c-.838 0-1.516-.704-1.516-1.574s.678-1.573 1.516-1.573h41.07c.84 0 1.517.703 1.517 1.573.006.87-.678 1.574-1.517 1.574z"/><use xlink:href="#E"/><use xlink:href="#B"/><path d="M202.314 70.95h-38.56c-.84 0-1.517-.703-1.517-1.573s.678-1.573 1.517-1.573h38.56c.84 0 1.517.703 1.517 1.573.006.87-.678 1.573-1.517 1.573z"/><use xlink:href="#C"/><use xlink:href="#D"/><path d="M141.835 138.067H48.072c-.84 0-1.517-.704-1.517-1.574s.678-1.573 1.517-1.573h93.763c.838 0 1.516.703 1.516 1.573s-.678 1.574-1.516 1.574z"/><use xlink:href="#E"/></g><g fill="#b0b0b0"><path d="M350.62 22.947H232.427c-.84 0-1.517-.703-1.517-1.573s.678-1.573 1.517-1.573H350.62c.84 0 1.517.703 1.517 1.573 0 .864-.678 1.573-1.517 1.573zm-135.1 0H32.093c-.84 0-1.517-.703-1.517-1.573s.678-1.573 1.517-1.573H215.52c.84 0 1.517.703 1.517 1.573 0 .864-.678 1.573-1.517 1.573z"/></g><path d="M225.955 37.464h72.895v94.784h-72.895V37.464z" class="B E"/><g class="G"><path d="M98.903 146.86c-.857 0-1.648-.58-1.898-1.475-.726-2.56-1.26-5.145-1.6-7.675-.053-.32-.065-.53-.042-.753.12-1.13 1.095-1.944 2.183-1.82.464.05 1.564.352 1.785 2a49.98 49.98 0 0 0 1.475 7.077c.3 1.086-.3 2.234-1.344 2.55-.2.06-.375.086-.56.086zm33.015 27.32c-4.223 0-8.2-.6-11.802-1.814-1.04-.346-1.612-1.505-1.28-2.585s1.446-1.678 2.493-1.327c3.516 1.172 7.406 1.7 11.66 1.598a13.6 13.6 0 0 0 2.326-.253c1.077-.203 2.112.525 2.314 1.635.202 1.117-.505 2.2-1.576 2.4a17.77 17.77 0 0 1-2.957.321c-.398.025-.8.025-1.178.025zm12.064-4.763a1.93 1.93 0 0 1-1.463-.673c-.738-.84-.678-2.14.13-2.9 2.855-2.696 5.467-6.72 7.995-12.3.464-1.03 1.648-1.47 2.635-.988s1.416 1.7.952 2.734c-2.748 6.065-5.663 10.507-8.905 13.58a1.99 1.99 0 0 1-1.345.537zm-31.766-1.432a1.93 1.93 0 0 1-1.165-.395c-4.14-3.146-7.603-7.385-10.298-12.6-.517-1-.154-2.246.8-2.783s2.166-.16 2.683.845c2.415 4.677 5.5 8.46 9.143 11.236.88.673 1.077 1.956.43 2.87-.393.55-.994.84-1.6.84zm160.7-.284a1.87 1.87 0 0 1-.577-.092c-5.27-1.672-9.4-4.905-12.278-9.613a12.28 12.28 0 0 1-.512-.932c-.505-1.005-.125-2.246.845-2.77s2.165-.13 2.67.876a7.48 7.48 0 0 0 .345.623c2.356 3.85 5.746 6.504 10.1 7.88 1.047.334 1.636 1.48 1.314 2.567-.26.895-1.047 1.462-1.897 1.462zm-13.962-19.114c-.987 0-1.838-.765-1.963-1.802-.583-4.9-.8-10.816-.916-15.95-.03-1.136.84-2.08 1.928-2.104 1.07-.037 2.004.87 2.028 2 .125 5.034.327 10.816.892 15.548.13 1.13-.636 2.153-1.725 2.3a1.48 1.48 0 0 1-.244.019zm-102.894-1.32c-.226 0-.452-.037-.678-.123-1.03-.4-1.56-1.567-1.184-2.635 1.78-5.078 3.433-10.624 4.676-14.894.315-1.086 1.422-1.703 2.47-1.376s1.64 1.475 1.326 2.56c-1.255 4.32-2.927 9.94-4.74 15.1-.297.84-1.06 1.357-1.868 1.357zm101.8-24.4c-1.077 0-1.957-.894-1.98-2l-.476-15.7c-.054-1.135.785-2.098 1.88-2.153 1.1-.068 2.022.814 2.076 1.95.273 5.572.386 11.094.482 15.84.023 1.135-.845 2.073-1.94 2.098-.017-.013-.03-.013-.04-.013zm-94.352-.166a1.81 1.81 0 0 1-.565-.087c-1.047-.32-1.648-1.468-1.34-2.554l4.492-15.135c.34-1.08 1.463-1.666 2.498-1.314s1.606 1.5 1.267 2.6c-1.63 5.17-3.153 10.47-4.46 15.03-.25.895-1.036 1.47-1.892 1.47zm7.62-24.5a1.92 1.92 0 0 1-.684-.13c-1.03-.395-1.553-1.573-1.172-2.64 1.97-5.522 3.932-10.335 6.008-14.703.482-1.018 1.672-1.438 2.653-.938s1.386 1.734.905 2.752c-2.017 4.24-3.927 8.922-5.848 14.314-.297.827-1.053 1.345-1.862 1.345zm85.578-1.043c-1.012 0-1.874-.796-1.97-1.863-.524-5.8-1.244-10.816-2.195-15.345-.232-1.1.446-2.203 1.5-2.443 1.07-.247 2.123.463 2.355 1.567.988 4.7 1.73 9.872 2.267 15.838.1 1.13-.696 2.13-1.785 2.24-.06 0-.125.006-.184.006zM181.7 74.988a1.89 1.89 0 0 1-1.047-.315c-.928-.6-1.208-1.87-.63-2.832 2.97-4.924 6.235-9.193 9.703-12.673a1.93 1.93 0 0 1 2.801.043 2.11 2.11 0 0 1-.041 2.906c-3.236 3.252-6.3 7.256-9.102 11.902a1.97 1.97 0 0 1-1.683.97zm70.153-2.992c-.8 0-1.57-.518-1.862-1.35-1.862-5.294-4.254-9.613-7.12-12.846-.743-.833-.7-2.135.113-2.906s2.058-.716 2.802.117c3.224 3.628 5.9 8.416 7.93 14.222.374 1.067-.155 2.246-1.184 2.635-.22.093-.452.13-.678.13zm-53.265-15.43c-.66 0-1.303-.34-1.677-.963-.583-.962-.304-2.227.624-2.832a43.02 43.02 0 0 1 14.598-6.06c1.07-.228 2.118.487 2.338 1.598s-.47 2.197-1.54 2.425a39.21 39.21 0 0 0-13.289 5.51c-.327.222-.7.32-1.053.32zm38.15-3.98a1.94 1.94 0 0 1-.857-.204c-2.778-1.388-5.948-2.215-9.4-2.468-1.34-.1-2.67-.148-3.962-.148h-.47c-1.107 0-1.993-.907-2-2.036-.012-1.135.87-2.06 1.963-2.073h.512a58.45 58.45 0 0 1 4.235.154c3.968.284 7.614 1.246 10.85 2.863.987.494 1.398 1.72.928 2.74-.345.74-1.053 1.172-1.8 1.172zm45.968 116.282c-1.053 0-1.933-.864-1.975-1.97-.047-1.135.803-2.1 1.892-2.14 3.992-.18 6.93-1.055 6.96-1.06 1.047-.32 2.147.3 2.457 1.395s-.292 2.227-1.345 2.548c-.136.043-3.402 1.024-7.905 1.22-.03.007-.06.007-.084.007z"/></g><path d="M287.102 94.852h85.048s-11.094 12.494-11.094 29.943v82.48c0 14.722 11.094 24.822 11.094 24.822h-85.048s-11.094-11.23-11.094-27.26v-83.573c0-15.58 11.094-26.414 11.094-26.414z" class="B C"/><g class="F"><path d="M372.144 233.677H287.1c-.398 0-.78-.16-1.058-.45-.47-.475-11.553-11.877-11.553-28.388v-83.567c0-16.08 11.1-27.1 11.57-27.562.28-.278.655-.426 1.04-.426h85.05c.6 0 1.148.37 1.392.944a1.62 1.62 0 0 1-.274 1.703c-.107.117-10.7 12.278-10.7 28.875v82.48c0 13.852 10.47 23.545 10.577 23.638.476.43.642 1.122.416 1.74s-.797 1.012-1.427 1.012zm-84.394-3.153h80.818c-3.426-4.084-9.03-12.42-9.03-23.248v-82.48c0-13.315 6.128-23.718 9.44-28.37h-81.247c-1.95 2.116-10.208 11.822-10.208 24.84v83.573c0 13.42 8.263 23.49 10.226 25.685z"/><use xlink:href="#F"/><path d="M317.868 121.772H285.12c-.838 0-1.516-.704-1.516-1.574s.678-1.573 1.516-1.573h32.754c.84 0 1.517.703 1.517 1.573-.006.864-.684 1.574-1.523 1.574zm19.28 26.568H285.12c-.838 0-1.516-.704-1.516-1.574s.678-1.573 1.516-1.573h52.033c.84 0 1.517.703 1.517 1.573s-.684 1.574-1.523 1.574z"/><use xlink:href="#G"/><path d="M354.512 109.376h-65.5c-.84 0-1.517-.703-1.517-1.573s.678-1.574 1.517-1.574h65.5c.84 0 1.517.704 1.517 1.574.006.87-.678 1.573-1.517 1.573z"/><use xlink:href="#F"/><path d="M350.484 121.772h-20.6c-.84 0-1.517-.704-1.517-1.574s.678-1.573 1.517-1.573h20.6c.84 0 1.517.703 1.517 1.573.006.864-.678 1.574-1.517 1.574zm.001 26.568h-7.126c-.84 0-1.517-.704-1.517-1.574s.678-1.573 1.517-1.573h7.132c.84 0 1.517.703 1.517 1.573s-.684 1.574-1.523 1.574z"/><use xlink:href="#G"/></g><path d="M367.783 141l14.658 12.877V128.14L367.783 141z" class="G"/><path d="M327.51 249.084c6.603 7.873 25.377 21.404 32.486 5.343 7.114-16.067-5.693-25.223 1.85-32.46s28.886-38.6 19.547-46.164-29.047 18.164-34.865 27.123-20.476 10.983-26.942 20.818c-6.466 9.84 1.32 17.467 7.924 25.34z" class="B E"/><g class="F"><path d="M349.622 263.5c-8.72 0-18.703-7.96-23.26-13.39l-1.582-1.864c-6.127-7.182-13.07-15.326-6.454-25.396 3.515-5.35 9.15-8.44 14.598-11.433 4.99-2.74 9.708-5.324 12.337-9.378 4.855-7.478 19.815-27.278 30.57-29.055 2.504-.413 4.687.118 6.5 1.574 1.808 1.462 2.778 3.66 2.897 6.52.517 12.797-16.585 36.508-22.344 42.037-2.8 2.678-2.207 5.485-.838 10.637 1.463 5.528 3.29 12.402-.66 21.33-2.147 4.85-5.443 7.638-9.797 8.286-.643.086-1.297.13-1.957.13zm27.8-87.504a6.47 6.47 0 0 0-1.119.099c-8.6 1.42-22.063 17.745-28.53 27.703-3.058 4.708-8.334 7.608-13.438 10.403-5.122 2.814-10.417 5.72-13.5 10.42-5.282 8.046.048 14.296 6.217 21.534l1.6 1.88c4.812 5.74 14.972 13.322 22.492 12.2 3.313-.494 5.758-2.616 7.47-6.48 3.492-7.88 1.898-13.882.494-19.176-1.32-4.98-2.57-9.68 1.707-13.784 6.377-6.12 21.82-28.543 21.374-39.593-.078-1.925-.643-3.29-1.73-4.17-.863-.69-1.862-1.037-3.028-1.037z"/><path d="M327.773 281.205c-.833 0-1.51-.697-1.517-1.567-.006-1.185-.04-29.252 10.708-45.158 10.505-15.55 36.65-48.793 36.91-49.132.53-.673 1.487-.778 2.136-.222a1.61 1.61 0 0 1 .214 2.215c-.262.333-26.335 33.5-36.775 48.946-10.202 15.092-10.16 43.05-10.16 43.326.006.87-.672 1.58-1.51 1.586z"/></g><path d="M316.02 244.018c10.48 7.64 24.89-12.624 14.925-28.63-7.656-12.3-2.046-30.72-6.074-43.696-4.033-12.994-15.4-10.655-15.597 6.516-.202 17.165-4.42 57.67 6.746 65.81z" class="B E"/><g class="F"><path d="M320.91 247.245c-2.005 0-3.974-.642-5.76-1.937-9.868-7.188-8.655-35.478-7.774-56.13l.374-10.99c.13-11.075 4.616-15.696 8.424-16.295 3.343-.524 7.757 1.654 10.136 9.317 1.773 5.695 1.76 12.408 1.743 18.9-.018 8.7-.03 17.695 4.158 24.42 6.478 10.402 3.403 22.576-2.778 28.74-2.623 2.628-5.615 3.973-8.524 3.973zm-3.766-82.27c-.172 0-.345.012-.517.037-2.838.444-5.74 4.702-5.842 13.216-.036 3.073-.196 6.787-.38 11.088-.803 18.8-2.022 47.213 6.484 53.414 3.153 2.295 7.056 1.653 10.44-1.722 5.307-5.294 7.93-15.776 2.332-24.76-4.675-7.51-4.664-16.98-4.646-26.136.012-6.534.024-12.704-1.6-17.93-1.374-4.46-3.795-7.207-6.27-7.207z"/><path d="M325 284.907c-.82 0-1.493-.673-1.517-1.53-.012-.445-1.285-44.424-4.467-63.607-3.094-18.62-2.28-44.307-2.267-44.566.03-.852.702-1.518 1.517-1.518.892.03 1.547.76 1.517 1.63-.006.253-.815 25.624 2.225 43.918 3.224 19.405 4.497 63.607 4.51 64.05.024.87-.637 1.592-1.475 1.623H325z"/></g><path d="M281.952 188.815c6.882-3.24 13.473 7.663 19.678 16.986 6.204 9.317 19.25 10.927 25.42 24.162 7.102 15.228-3.54 21.46-12.873 25.15-14.575 5.75-22.17 1.617-26.15-10.137s3.867-17.776-1.45-28.08c-5.324-10.304-11.51-24.834-4.622-28.08z" class="B E"/><g class="F"><path d="M302.8 259.258c-2.558 0-4.836-.487-6.865-1.468-4.17-2.005-7.22-6.028-9.345-12.29-2.046-6.047-1.16-10.748-.375-14.894.82-4.344 1.53-8.102-.98-12.964-6.568-12.722-8.977-21.305-7.365-26.247.613-1.87 1.773-3.214 3.457-4 7.6-3.58 14.074 6.22 20.344 15.696l1.213 1.833c2.5 3.745 6.276 6.225 10.286 8.854 5.413 3.547 11.552 7.576 15.252 15.517 2.653 5.69 3.165 10.742 1.523 15.024-2.5 6.553-9.452 10.008-15.223 12.285-4.527 1.777-8.477 2.665-11.92 2.665zm-18.38-69.425c-.625 0-1.238.136-1.838.42-.9.425-1.493 1.1-1.833 2.153-.898 2.758-.386 9.12 7.17 23.748 3.022 5.856 2.14 10.533 1.285 15.055-.744 3.937-1.51 8.01.26 13.247 1.832 5.418 4.373 8.848 7.757 10.477 3.98 1.92 9.352 1.493 16.42-1.29 5.187-2.05 11.41-5.09 13.48-10.502 1.315-3.43.833-7.626-1.433-12.488-3.326-7.133-8.828-10.742-14.146-14.228-4.27-2.8-8.3-5.448-11.16-9.724l-1.22-1.84c-4.694-7.095-9.94-15.03-14.74-15.03z"/><path d="M320.378 284.63c-.76 0-1.416-.587-1.505-1.39-.03-.265-3.123-26.55-11.487-45.133-8.4-18.652-21.088-35.694-21.22-35.86a1.62 1.62 0 0 1 .268-2.208c.66-.537 1.618-.408 2.13.277.13.173 13.022 17.48 21.57 36.46 8.578 19.053 11.63 44.998 11.755 46.1.1.864-.494 1.647-1.327 1.752-.065.013-.125.013-.184.013z"/></g><path d="M304.966 271.055h45.484c2.914 0 5.282 2.456 5.282 5.48v13.044c0 9.076-7.097 16.437-15.847 16.437H315.53c-8.75 0-15.847-7.36-15.847-16.437v-13.044c0-3.03 2.367-5.48 5.282-5.48z" class="B E"/><g class="F"><path d="M339.884 307.588H315.53c-9.577 0-17.364-8.083-17.364-18v-13.044c0-3.887 3.052-7.052 6.8-7.052h45.484c3.748 0 6.8 3.165 6.8 7.052v13.044c0 9.933-7.787 18-17.364 18zm-34.92-34.96c-2.076 0-3.765 1.752-3.765 3.905v13.044c0 8.193 6.43 14.863 14.33 14.863h24.354c7.9 0 14.33-6.663 14.33-14.863v-13.044c0-2.153-1.7-3.905-3.765-3.905h-45.484zM298.83 5.53l-7.8 8.08 2.15 2.23 7.8-8.08-2.15-2.23z"/><path d="M293.185 5.52l-2.15 2.23 7.8 8.08 2.15-2.23-7.8-8.08z"/></g><g class="B"><path d="M83.198 152.517s-1.904-5.498-3.962-8.22c-2.052-2.72-5.776-6.73-2.772-8.63s6.67-.494 10.827 5.614c8.21 12.063 5.282 20.546 5.282 20.546s1.838.4 3.57 5.48l2.64 7.534s3.944 15.795 9.375 25.34 9.904 16.573 9.904 16.573 21.07-19.004 28.923-24.933c7.852-5.923 21.522-16.51 32.486-16.024s17.43 1.784 17.43 1.784l5.413-3.696-.66-3.425s-11.03 3.338-17.037-7.126c-6.008-10.458-2.772-25.754-2.772-25.754l.66-11.23s-1.89-6.904-3.04-9.866c-1.143-2.956-2.35-8.632 0-7.398a97.25 97.25 0 0 1 3.961 2.19s.97-9.748 3.04-8.767 1.34 4.047 6.335 3.696c5.003-.346 33.325-7.44 42.39 3.56s11 24.47 8.845 32.19c-4.527 16.264-20.47 21.367-20.47 21.367s-2.106 4.195-.53 8.63c1.582 4.437 4.49 8.22 4.49 8.22s29.362.512 41.86 7.262 23.27 29.197 31.296 51.773 16.537 44.788 16.245 50.545c-.29 5.75-2.76 14.104-17.56 16.437-20 3.152-100.497 1.234-100.497 1.234s-29.315-3.715-36.186-9.175-5.2-6.652-8.453-8.355-10-3.862-9.113-8.354c.886-4.498 5.574-1.882 8.453.136s1.32.278 1.32.278l.53-8.768s-3.105-2.067-3.17-3.56.4-3.974.4-3.974-3.177.087-3.7-1.64c-.524-1.734.79-4.11.79-4.11s-5.1 1.703-4.622-1.234.583-6.324 4.093-6.164 9.375 1.092 9.375 1.092l.26-14.382s-20.457 19.1-36.05 23.42c-15.597 4.332-27.22-10.95-39.487-40.27s-18.75-41.093-18.75-41.093-8.91-11.168-6.074-15.338c2.837-4.178 4.093-2.055 4.093-2.055s-.38-6.368 4.622-8.496 8.846-2.604 8.846-2.604l7.144-.26z" class="C"/><path d="M218.823 139.646s6.258 1.753 11.755 6.028 7.923 7.67 7.923 7.67 13.54-19.282 1.98-37.533c-11.558-18.244-28.006-11.976-32.355-11.642-4.342.333-14.14 3.985-16.507 2.875s-2.957-3.79-4.622-3.29-2.25 7.805-2.25 7.805l-5.02-1.64s-.654 2.783.4 6.577c1.047 3.79 2.772 7.262 2.772 7.262l4.622-4.522.928 2.604 6.734-3.147.922 3.288 8.852.55-1.32 4.386s9.922-1.672 12.415 3.153c2.492 4.807 2.772 9.576 2.772 9.576z" class="D"/><g fill="#ec5252"><path d="M198.62 190.598l7.002-5.48 3.302 10.137-3.564 2.604-3.04 46.436-5.282 7.947-6.34 2.326-6.734-13.562L201 196.762l-2.38-6.164zm-23.508 70.814s.95-44.38 5.942-59.584 16.77-24.242 16.77-24.242-26.93-5.158-40.808 5.892c-13.878 11.044-36.977 33.287-36.977 33.287s-7.162-9.15-9.244-12.463-4.622-9.453-4.622-9.453-1.952 13.994-9.512 16.166-19.547-3.702-19.547-3.702 7.204 15.2 12.016 26.438 20.48 28.888 30.635 28.08 39.75-23.285 39.75-23.285l-1.32 14.246 16.918 8.62zm37.376 12.468s-.03-40.648 3.7-59.312c4.55-22.774 19.15-33.146 19.15-33.146s39.678 2.832 45.692 12.6c6.02 9.767 15.17 36.12 23.64 53.833s15.17 40.728 11.356 49.3c-3.807 8.582-13.307 9.335-20.208 10.273s-75.804.82-75.804.82 11.53-12.506 8.846-20.546-9.375-12.192-9.375-12.192l-7.132-.27.136-1.37z"/></g><g class="D"><path d="M224.48 166.1c.44 4.7 1.654 8.6 3.694 11.642 7.388 1.006 14.503 2.228 21.92 3.425 7.323 1.184 14.574 2 20.73 4.516 11.654 4.75 17.9 15.814 23.105 28.074 5.074 11.95 9.18 25.433 13.73 37.94 2.2 6.053 4.7 12.328 6.734 19.035 1.98 6.534 4.355 13.907 3.83 22.05-.333 5.183-2.683 9.052-5.942 11.372-8.198 5.83-23.8 5.886-37.9 5.886l-43.182.272c-14.372 0-28.65-.667-41.462-2.055-6.728-.728-12.843-1.555-18.22-3.696-5.306-2.116-9.458-5.066-13.337-8.632.13 1.703.422 4.128.66 6.85.185 2.067 1.065 5.77-1.45 5.75-2.66-.635-2.142-4.726-2.38-7.533-.26-3.08-.654-6.3-.8-9.04-2.403-2.376-8.47-2.55-10.297-6.164-1.523-3.005-.535-6.972 2.112-7.947 2.718-1 5.205.518 7.394 1.234-.13-1.678.6-3.14.262-4.38-.2-.7-1.7-1.72-2.112-2.604-.7-1.42-.892-2.424-.66-4.522-2.094-.957-4.4-2.35-3.7-5.75-6.08-.5-3.694-7.453.13-9.452 2.8-1.456 6.287-1.135 9.113-.55.476-3.024.767-6.232 1.2-9.3-8.9 7.472-17.793 15.252-29.845 19.448-6.514 2.27-14.64 2.653-20.2-.55-5.128-2.95-8.757-7.62-12.148-12.735-6.62-10-11.838-21.503-16.9-33.145-5.128-11.797-11.13-22.706-15.187-34.787-4.723-2.122-10.3-12.84-4.753-17.8.958-.858 2.094-1.42 3.694-1.777.815-3.018 2.03-5.436 4.224-6.985 3.694-2.6 9.47-2.857 15.05-3.56-1.065-5.226-8.072-6.15-7.662-12.6.15-2.32 1.32-4.16 3.7-4.38 2.968-.278 6.008 1.85 7.924 3.56 5.473 4.893 8.6 12.7 9.375 22.323.06.772-.15 1.827 0 2.604.107.568.934 1.37 1.32 2.055 1.237 2.2 1.7 4.96 2.64 7.398.214.55.684 1 .928 1.505.82 1.74 1.273 3.788 1.98 5.615 4.765 12.352 10.9 25.062 17.298 35.75 11.3-8.6 20.72-19.658 31.826-28.35 10.696-8.373 24.58-13 43.972-11.366 2.213.186 4.04 1.05 4.753-1.098.75-.27 1.607-.493 1.053-1.505-.422-.772-2.034-.006-3.563 0-9 .03-14.235-5.88-16.77-12.328-2.177-5.528-2.32-12.537-.922-19.17.428-2.043.642-4.757 2.64-4.66 2.837.148 1.202 3.6.66 6.57-2.177 12.026 1.392 22.422 10.297 25.063 6.592 1.95 11.184-.938 15.05-3.973 1.338-1.05 2.83-2.8 4.092-2.604.625.092 1.374.827 1.452 1.64.196 2.024-3.147 3.838-4.224 4.658-1.648 1.247-3.38 2.456-5.413 3.3.428 1.8.737 3.708 1.06 5.615 7.62-.45 12.35-3.9 15.978-8.5-.405-3.826-1.166-6.503 0-8.768 1.743-3.393 6.853-3.375 8.715-6.984 1.998-3.875-.6-7.404-5.015-5.48-1.13.493-2.2 1.265-3.17 2.2-.874.827-1.915 2.246-3.04 2.2-1.998-.098-1.564-2.202-1.45-4.244.303-5.405.244-12.538-2.64-15.475-3.5-3.572-14.247.58-12.677-6.713-3.278.056-7.2-.247-7.923-3.3-2.035.73-5.24 2.863-7.395.957-.898 1.123-1.344 2.363-1.713 4.38-.315 1.72-.34 3.9-1.85 4.1-2.802.364-2.225-3.98-1.45-6.164-1.148-1.987-2.4-4.732-3.564-7.94-.892-2.486-2.468-7.484.13-8.767 1.386-.685 3.337-.13 4.5.55 1.012-2.604.804-7.1 3.564-7.534 3.123-.5 3.545 3.32 5.675 3.974 2.26.7 5.657-.537 7.793-.957 7.376-1.462 15.764-2.906 24.163-1.234 9.6 1.907 16.014 8.175 19.8 16.295 4.075 8.737 4.55 21.33-.13 29.993-4.2 7.817-11.2 12.802-18.875 17.27zm-40.403-53.007c-1.66.142-2.225-1.34-3.83-1.64.7 3.122 1.886 5.713 2.903 8.5 1.047-.512 2.082-2.84 3.962-2.74 1.1.056 1.516.938 2.242 1.783 1.934-.672 5.622-3.1 7.394-1.092.53.593.38 1.518.928 2.326 2.642 1.642 8.74-1.808 8.977 1.783.095 1.45-1.1 1.876-1.32 3.3 4.753.407 8.775.48 11.356 2.875 3.546 3.295 4.057 9.138 4.093 16.16 4.98-3.95 13.444-2.197 13.468 4.794.018 5.306-3.647 8.237-7.002 9.86-1.148.556-3.093.957-3.17 2.876 10.023-6.25 19.95-13.08 19.012-30.13-.756-13.82-10.28-25.3-24.033-26.02-4.73-.246-9.066.18-13.206.82-3.8.592-7.638 1.93-11.886 2.2-3.777.235-5.43-1.443-7.132-3-1.047 2.376-.095 7.158-2.754 7.386zM83.723 140.226c-1.445-1.425-4.253-3.75-6.204-2.875-.75 1.697.208 3.16 1.06 4.1 1.44 1.6 3.397 3.092 4.884 5.615.607 1.03 1.23 2.234 1.72 3.56.458 1.26 1.285 3.048 1.06 4.38-.13.77-.744.92-.8 1.505 1.25.062 2.4.624 3.432 1.1 1.077.487 2.16 1.302 2.772 1.234-.404-7.225-3.682-14.45-7.93-18.628zM73.95 156.52c-5.502 4.455-4.57 17.98 4.622 16.295.357-1.962 1.083-3.535 1.85-5.065-4.77 1.394-10.696-.932-8.715-5.615 1.57-3.708 7.02-6.164 12.016-5.892-.434-.556-.54-1.45-1.06-1.92-3.48.13-6.395.32-8.715 2.196zm-3.295 17.943c-3.004-2.616-4.682-8.88-3.17-14.105.345-1.2 1.047-2.14.922-2.875-4.5 3.646-3.206 15.45 2.25 16.98zm2.635 20.682c7.763 3.584 17.8 1.943 22.45-3.425 2.42-2.8 3.248-7.854 2.38-12.6-.315-1.72-1.57-3.46-2.112-5.2-.577-1.85-.773-3.523-1.32-5.066-1.713-4.8-4.842-8.17-10.166-9.175-4.545-.857-8.132 1.352-9.904 4.245 1.38.883 2.367.994 3.962.82 2.457-.265 7.055-3.745 7.394-.27.125 1.264-1.92 3.757-2.64 5.065-.833 1.518-2 3.906-1.72 6.164.3 2.48 2.255 4.004 3.83 5.343 1.213 1.03 2.7 1.74 2.64 3-.13 3.492-4.622-.1-5.544-.956-2.034-1.894-3.3-4.035-4.224-6.436-2.207-.185-3 .617-4.753 1.1-1.017 2.326-3.932 2.678-6.335 3.56 1.82 4.8 3.736 9.526 6.062 13.82zm-5.937-17.807c-.363-.802-1.392-1.308-1.98-2.055-1.856-2.35-3.093-5.658-3.302-9.724-.077-.006-.155-.018-.13-.135-.006-.087-.018-.167-.13-.136-4.26 2.968.125 12.82 5.544 12.05zm151.316 11.094c1.03-1.1 2.338-2.32 3.57-3.838 1.03-1.27 2.75-3.344 2.642-4.93-.048-.746-1.006-2.048-1.583-3.288-.672-1.438-1.166-3.098-1.582-3.832-2.546 3.147-7.775 6.14-13.075 7.12-3.16.586-7.55 1.493-7.793-1.64-2.88 4.1-5.592 8.348-7.132 13.833 1.814-1.43 3.444-2.702 5.413-4.38 1.112-.95 3.896-4.27 5.675-4.1 1.868.173 2.92 4.22 3.7 5.886 1.124 2.425 2.2 4.264 3.034 6.57 2.35-1.64 4.42-4.46 7.132-7.4zm-34.6-9.996c-16.924.815-26.6 6.534-36.05 14.926-9.018 8.014-17.4 16.727-26.805 24.513 1.178 1.4 1.933 3.036 3.302 5.066.797 1.184 3.343 3.603 3.17 5.343-.1.907-1.04 1.666-1.85 1.64-1.112-.03-2.4-2.08-3.04-3-5.83-8.496-11.48-18.356-15.978-27.253-1.897 8.57-8.405 15.092-19.012 14.247-2.6-.2-4.604-1.1-6.734-2.055 4.08 9.23 7.33 17.387 12.278 26.297 4.253 7.657 9.572 17.418 17.56 20.817 6.407 2.728 14.128.297 19.4-2.054 9.393-4.183 16.788-9.928 24.164-16.573 1.255-1.13 3.474-2.88 3.962-4.245.654-1.832.743-4.62 1.053-6.984l1.98-14.24c.35-2.35.35-5.713 2.5-5.614 2.67.117 1.416 4.035 1.053 6.44l-5.015 37.113c3.73 1.653 7.894 3.32 11.225 5.343.595.358 1.13 1.154 1.85.956 2.326-31.325 1.428-65.994 20.47-79.982.244-.03 1.124-.518.53-.55-3.26-.432-6.853-.296-10.035-.142zm-4.093 40.673c-1.713 13.53-2.778 28.573-3.432 42.87 2.117 2.172 4.895 3.74 7.525 5.887 1.04.85 2.4 1.74 3.83 2.875 1.243.987 2.498 2.72 3.7 3.017 1.398.34 3.212-.1 4.753-.136l14.657-.413c.107-27.593.797-55.7 9.114-74.917 2.522-5.836 5.865-10.396 9.636-14.653.482-.543 1.488-1.247 1.2-1.784-.916-.098-1.767-.265-2.64-.413-1.98 4.652-4.967 7.756-8.715 11.643-1.207 1.252-2.445 2.64-3.962 4.245-1.25 1.32-2.944 3.856-4.622 3.696-1.802-.167-1.862-2.72-2.903-3.56-1.838.76-1.332 3.227-1.45 4.93l-2.374 36.57c-.148 2.166.072 4.554-.398 6.164-.298 1.018-1.642 2.505-2.5 3.56-.97 1.2-1.975 2.184-2.903 3.153-1.7 1.752-4.48 4.967-7.655 4.523-2.564-.358-4-4.393-5.152-6.85-.7-1.487-1.142-2.628-1.72-4.1-.565-1.456-1.487-3.036-1.452-4.38.036-1.45 1.297-3.906 1.98-5.75l12.677-33.695c.642-1.7 2.135-4.245 2.112-5.615-.018-.987-1.03-1.912-.922-2.875-1.404.882-2.386 1.925-3.83 3.147-1.006.857-2.648 2.906-4.224 2.74-3.004-.308-.892-5.368-.13-7.805.768-2.468 1.618-4.93 1.98-5.886-7.638 7.774-10.44 20.232-12.16 33.824zm52.3-32.596c-1.113 1.24-2.16 2.394-3.17 3.696-13.997 18.12-13.95 50.285-14.4 82.857l41.724-1.234 1.452-10.816c.16-1.203.624-2.666.53-3.696-.083-.876-.957-2.468-1.45-3.702l-8.715-22.187c-.577-1.47-2.034-4.838.8-4.794 1.606.024 2.5 3.1 3.17 4.794l2.242 5.75 13.73 34.373 9.244-.135c1.945-.056 7.484-1.247 7.394 1.783-.065 2.196-3.343 1.92-6.073 1.92-18.257 0-37.7 1.295-54.93 1.505 3 2.758 6.3 5.985 6.734 11.643.523 7.04-2.8 12.735-5.544 16.573-.423.586-1.3 1.153-1.06 1.64 15.686.35 31.427-.136 47.536-.136 7.584 0 15.918.02 23.24-.82 6.752-.777 14.384-2.307 17.697-6.577 4.063-5.238 1.56-16.363-.26-22.872-1.845-6.596-4.057-12.414-6.205-18.214l-12.807-36.02c-4.456-11.76-9.608-23.606-18.62-29.992-9.393-6.664-26.037-6.102-38.7-9.175-1.255 1.216-2.475 2.616-3.57 3.838zm-156.74 13.563c1 1.746 1.8 3.708 2.64 5.614 6.032 5.572 17.685 6.337 22.712-.962.952-1.388 1.535-3.067 2.112-4.93.524-1.684 1.4-4.22 1.2-6.028-.25-2.05-2.094-3.764-2.64-5.886-2.136 10.07-14.438 15.042-26.014 12.192zm125.838-9.6c.607 1.746.78 3.943 2.112 4.93 1.368-.13 2.154-.87 3.17-1.37-.833-2.06-1.743-4.035-2.772-5.886-.714.9-1.8 1.413-2.5 2.326zm-15.187 50.533c1.547 4.103 2.838 8.47 5.414 11.507 1.75-.82 3.385-2.135 4.884-3.832 1.112-1.265 3.367-3.412 3.83-4.93.422-1.388.273-3.646.398-5.478l1.713-28.216c.197-3.844.833-7.5.53-10.958-.405.1-.387-.234-.8-.136l-15.98 42.043zm-38.95 16.85c2.968.204 3.938-1.666 5.675-2.74-2.796-.03-4.908.66-5.675 2.74zm3.563 5.2c.392.463.934.766 1.72.82 2.63-2.567 6.8-4.726 12.147-4.93-5.062-2.554-12.66-1.215-13.866 4.1zm4.622 3.3c-.857 1.05-1.3 2.696-.53 4.1 3.188-3.393 7.608-6.33 13.997-5.065 1.42.284 3.164.475 4.753-.136-4.474-3.036-14.74-3.17-18.22 1.092zm104.7 5.48c1.374-.037 2.754-.062 3.96-.27-1.112-2.314-1.856-5.017-3.04-7.256-.215 2.597-.613 5.016-.922 7.527zm-59.154 9.446c-.018 3.314-3.64 1.05-5.152.136-1.362-.827-2.343-1.43-3.432-2.2-3.278-2.295-4.86-4.356-7.656-5.615-2.195-2.88-6.894-4.794-12.016-4.38-4.866.395-10.35 2.77-10.297 7.534 2.385-1.283 4.253-3.6 8.316-3.56 2.867.03 5.7 1.35 7.656 2.468 1.63.938 5.395 2.974 5.282 5.065-.04.772-.672 1.568-1.582 1.642-1.25.1-1.9-.963-2.772-1.642-2.576-2.023-5.646-3.7-9.506-3.695 3.753 5.602 1.386 14.228-6.074 11.914-5.633-1.746-10.285-7.355-16.5-7.534-1.268 3.937 2.682 4.184 5.014 5.066 2.415.913 4.325 2.43 6.205 4.38 3.498 3.628 7.394 6.836 12.147 9.174 7.87 3.87 20.463 4.708 31.296 5.615 1.54.13 3.92.586 5.015.272.7-.198 1.8-1.74 2.38-2.462 2.052-2.555 4.224-6.263 4.5-10.138.34-4.9-1.23-8.557-3.432-10.958-1.547-1.684-5.324-4.633-7.656-5.065-2.124-.395-3.82.136-6.074.278 1.244 1.363 4.36 1.37 4.35 3.695zm-43.574-7.805l-.4 7.534c1.113.728 2.725 1.63 4.492 2.604 1.403.77 3.616 2.387 5.282 1.92 2.332-.654.767-5.45-.268-6.713-1.415.413-2.284 2.264-4.354 2.2-2.326-.08-3.605-2.93-3.563-5.2.035-2.185 1.23-3.813 2.1-4.93.22-.272.762-.586.53-.957-1.47.988-2.54 2.382-3.83 3.554zm69.457 14.654c-.44-4.418-3.57-7.176-6.473-9.175-1.058-.734-2.5-2.017-3.7-2.2-2.022-.296-4.73.37-6.864.413 4.532 3 8.114 8.44 7.66 16.024-.3 4.905-2.54 8.9-4.622 11.778-.232.327-.95.698-.66 1.234 1.975.278 4.533-.043 6.466.272 3.796-4.368 9.007-10.174 8.192-18.356zm-18.622-154.35c.613 1.376 3.468 2.937 2.903 5.48-.137.6-.898 1.43-2.1 1.234-1.3-.2-1.5-1.703-2.38-2.876-.72-.974-1.737-2.1-2.64-2.468-2.136-.876-5.08.482-5.152-2.054-.03-1.074.726-1.66 1.72-1.92 3.66-.95 6.056 1.154 7.662 2.604zM187.248 151.6c1.035 1.1 2.825 5.054 0 5.202-1.606.086-4.408-4.023-4.224-5.887.18-1.8 3.046-3.196 4.093-4.38.815-.926 2.706-3.35 2.903-5.48.25-2.72-1.28-4.733-2.772-5.48-1.107-.55-6.895-.26-4.753-3.56.957-1.475 4.92-.642 6.603.27 2.564 1.395 4.598 4.677 4.622 8.083.036 5.837-3.462 7.6-6.472 11.23z"/><path d="M188.038 145.15c-.482.623-1.404.814-2.112.55-1.915-.722-1.66-7.262.922-7.12 1.928.105 2.356 5.078 1.2 6.57zm14.79-6.293c2.398-.414 1.97 2.616 1.72 4.245-.203 1.308-.363 2.88-1.452 3.153-.993.246-2.147-.315-2.38-1.37-.35-1.604.577-5.25 1.2-5.75.18-.154.554-.216.922-.277zm21.92 9.173c.726-.166 2-.197 2.243 1.234.273 1.623-1.297 2.672-2.112 3.56-1.023 1.117-1.82 2.55-3.17 2.462-.946-.055-1.612-.715-1.582-1.92.024-1.252 3.557-5.1 4.622-5.337zm-23.1 8.214c1.6-.488 2.456.413 2.5 1.505.095 1.833-3.4 3.727-5.283 3.974-2.6.345-5.4-.056-5.282-2.2.12-2.388 3.313-1.228 5.02-1.64 1.427-.346 1.915-1.185 3.034-1.647z"/></g><path d="M36.21 294.65h157.723c1.238 0 2.237 1.043 2.237 2.327l-1.03 6.225c-.916 3.153-3.016 5.812-6.05 5.812H41.137c-3.034 0-5.42-2.647-6.383-5.923l-.78-6.108c0-1.3 1-2.333 2.237-2.333z" fill="#f5f5f5"/></g><path d="M189.097 310.587H41.136c-3.498 0-6.573-2.764-7.834-7.04a1.73 1.73 0 0 1-.053-.253l-.78-6.11c-.012-2.357 1.672-4.11 3.748-4.11H193.94c2.07 0 3.76 1.752 3.76 3.9a1.32 1.32 0 0 1-.024.265l-1.03 6.226c-1.29 4.46-4.164 7.12-7.55 7.12zm-152.857-7.85c.732 2.357 2.5 4.696 4.896 4.696h147.96c2.92 0 4.206-3.412 4.57-4.603l.987-5.954c-.047-.364-.35-.654-.713-.654H36.21c-.375 0-.684.296-.72.672l.75 5.843z" class="D"/><path d="M8.1 222.306l100.236.03c3.27 0 6.948 2.597 8.215 5.793l25.002 63.23c1.267 3.196-3.058 9.162-6.33 9.156l-100.247-.03c-3.272 0-6.948-2.598-8.215-5.8L1.743 231.443c-1.26-3.202 3.075-9.137 6.347-9.137z" fill="#f5f5f5" class="B"/><path d="M135.214 302.096l-100.247-.03c-3.9 0-8.12-2.98-9.62-6.775L.34 232.042c-.744-1.882-.256-4.374 1.344-6.842 1.333-2.06 3.813-4.468 6.407-4.468l100.235.03c3.897 0 8.12 2.974 9.62 6.775l25.003 63.23c.743 1.888.255 4.393-1.35 6.88-1.332 2.048-3.8 4.448-6.383 4.448zM8.09 223.885c-1.083 0-2.754 1.32-3.884 3.073-.964 1.487-1.386 3.048-1.053 3.893l25.002 63.25c1.03 2.6 4.152 4.82 6.81 4.82l100.247.03c1.07 0 2.73-1.314 3.86-3.06.97-1.5 1.398-3.078 1.065-3.924l-25.002-63.23c-1.03-2.6-4.153-4.813-6.812-4.82l-100.235-.03z" class="D"/><path d="M62.82 260.24c-5.473.075-8.007 4.153-5.67 9.12 2.344 4.96 8.673 8.922 14.146 8.848s8.007-4.16 5.67-9.12c-2.344-4.967-8.68-8.928-14.146-8.848z" fill="#d6d6d6" class="B"/><path d="M399.485 311H14.267c-.84 0-1.517-.704-1.517-1.574s.678-1.573 1.517-1.573h385.218c.84 0 1.517.703 1.517 1.573 0 .864-.684 1.574-1.517 1.574z" class="D"/><path d="M12.154 86.1h109.08v60.133H12.154V86.1z" class="B G"/><path d="M121.234 147.797H12.154c-.84 0-1.517-.704-1.517-1.574V86.1c0-.87.678-1.573 1.517-1.573h109.08c.84 0 1.517.703 1.517 1.573v60.133c0 .864-.678 1.574-1.517 1.574zM13.67 144.644h106.042v-56.98H13.67v56.98z" class="D"/><g class="C"><path d="M19.47 138.2c-.54 0-1.065-.302-1.338-.827-.4-.765-.12-1.72.62-2.134l38.03-21.213c.738-.413 1.66-.123 2.058.642a1.61 1.61 0 0 1-.619 2.135l-38.03 21.212a1.5 1.5 0 0 1-.72.185z"/><path d="M67.686 122.53L17.3 94.475c-.738-.413-1.017-1.37-.62-2.135s1.32-1.055 2.058-.642l48.922 27.24 46.02-26.543c.73-.42 1.66-.148 2.064.61s.143 1.72-.59 2.14l-47.47 27.382z"/></g><path d="M77.08 144.65h4.592l-3.1-3.196c-.85-.95-1.808-2.412-1.06-4.11 1.95-.87 4.76 1.45 6.204 2.875 1.255 1.234 2.427 2.74 3.462 4.424h3.944c-1.458-2.925-3.308-5.43-5.556-7.44-1.916-1.71-4.955-3.838-7.924-3.56-2.38.222-3.55 2.06-3.7 4.38-.2 3.147 1.362 4.974 3.135 6.627z" fill="#1e4c73" class="B"/><path d="M116.34 138.862c-.244 0-.487-.06-.72-.185L77.572 117.49c-.738-.413-1.017-1.37-.62-2.134s1.32-1.056 2.058-.642L117.06 135.9c.738.413 1.017 1.37.62 2.135-.274.524-.797.826-1.34.826z" class="C"/></g><defs><clipPath id="A"><path d="M0 0h401v311H0z" class="C"/></clipPath><path id="B" d="M202.315 49.04H48.072c-.84 0-1.517-.703-1.517-1.573s.678-1.573 1.517-1.573h154.243c.838 0 1.517.703 1.517 1.573.006.87-.68 1.573-1.517 1.573z"/><path id="C" d="M202.315 93.39H48.072c-.84 0-1.517-.703-1.517-1.573s.678-1.573 1.517-1.573h154.243c.838 0 1.517.703 1.517 1.573.006.864-.68 1.573-1.517 1.573z"/><path id="D" d="M202.315 115.343H48.072c-.84 0-1.517-.704-1.517-1.574s.678-1.573 1.517-1.573h154.243c.838 0 1.517.703 1.517 1.573.006.87-.68 1.574-1.517 1.574z"/><path id="E" d="M202.315 159.983H48.072c-.84 0-1.517-.704-1.517-1.574s.678-1.573 1.517-1.573h154.243c.838 0 1.517.703 1.517 1.573.006.864-.68 1.574-1.517 1.574z"/><path id="F" d="M350.55 134.68h-65.5c-.84 0-1.517-.703-1.517-1.573s.678-1.573 1.517-1.573h65.5c.84 0 1.517.703 1.517 1.573.006.87-.678 1.573-1.517 1.573z"/><path id="G" d="M350.55 162.105h-65.5c-.84 0-1.517-.703-1.517-1.573s.678-1.574 1.517-1.574h65.5c.84 0 1.517.704 1.517 1.574.006.87-.678 1.573-1.517 1.573z"/></defs></svg>