<svg width="1894" height="325" viewBox="0 0 1894 325" fill="none" xmlns="http://www.w3.org/2000/svg">
<path d="M244.858 281.296L229.25 267.381L229.716 266.859L244.858 280.35L260.24 266.647L275.608 280.35L290.99 266.647L306.613 280.562L306.147 281.084L290.99 267.593L275.608 281.296L260.24 267.593L244.858 281.296Z" fill="#3982CC"/>
<path d="M15.622 124.991L0 111.077L0.479807 110.554L15.622 124.046L30.9901 110.343L46.3722 124.046L61.5145 110.554L61.9943 111.077L46.3722 124.991L30.9901 111.288L15.622 124.991Z" fill="#3982CC"/>
<path d="M539.01 159.254L523.402 145.34L523.882 144.803L539.01 158.309L554.392 144.592L570 158.52L569.534 159.043L554.392 145.537L539.01 159.254Z" fill="#3982CC"/>
<path d="M335.189 57.3241L319.582 43.4096L320.047 42.8875L335.189 56.3786L350.572 42.6758L366.18 56.5903L365.7 57.1124L350.572 43.6213L335.189 57.3241Z" fill="#8AB2DB"/>
<path d="M237.407 14.4507L236.941 13.9145L252.549 0L268.157 13.9145L267.692 14.4507L252.549 0.945511L237.407 14.4507Z" fill="#3982CC"/>
<path d="M362.44 319.271L361.974 318.748L377.582 304.834L393.19 318.748L392.725 319.271L377.582 305.78L362.44 319.271Z" fill="#3982CC"/>
<path d="M522.231 25.0777L521.765 24.5414L537.373 10.627L552.981 24.5414L552.515 25.0777L537.373 11.5725L522.231 25.0777Z" fill="#8AB2DB"/>
<path d="M13.2371 301.9L12.7573 301.377L28.3794 287.463L43.9873 301.377L43.5216 301.9L28.3794 288.408L13.2371 301.9Z" fill="#C4DCF5"/>
<path d="M1140.86 281.296L1125.25 267.381L1125.72 266.859L1140.86 280.35L1156.24 266.647L1171.61 280.35L1186.99 266.647L1202.61 280.562L1202.15 281.084L1186.99 267.593L1171.61 281.296L1156.24 267.593L1140.86 281.296Z" fill="#3982CC"/>
<path d="M911.622 124.991L896 111.077L896.48 110.554L911.622 124.046L926.99 110.343L942.372 124.046L957.514 110.554L957.994 111.077L942.372 124.991L926.99 111.288L911.622 124.991Z" fill="#3982CC"/>
<path d="M1435.01 159.254L1419.4 145.34L1419.88 144.803L1435.01 158.309L1450.39 144.592L1466 158.52L1465.53 159.043L1450.39 145.537L1435.01 159.254Z" fill="#3982CC"/>
<path d="M1231.19 57.3241L1215.58 43.4096L1216.05 42.8875L1231.19 56.3786L1246.57 42.6758L1262.18 56.5903L1261.7 57.1124L1246.57 43.6213L1231.19 57.3241Z" fill="#8AB2DB"/>
<path d="M1133.41 14.4507L1132.94 13.9145L1148.55 0L1164.16 13.9145L1163.69 14.4507L1148.55 0.945511L1133.41 14.4507Z" fill="#3982CC"/>
<path d="M1258.44 319.271L1257.97 318.748L1273.58 304.834L1289.19 318.748L1288.72 319.271L1273.58 305.78L1258.44 319.271Z" fill="#3982CC"/>
<path d="M1418.23 25.0777L1417.77 24.5414L1433.37 10.627L1448.98 24.5414L1448.52 25.0777L1433.37 11.5725L1418.23 25.0777Z" fill="#8AB2DB"/>
<path d="M909.237 301.9L908.757 301.377L924.379 287.463L939.987 301.377L939.522 301.9L924.379 288.408L909.237 301.9Z" fill="#C4DCF5"/>
<path d="M1775.86 286.296L1760.25 272.381L1760.72 271.859L1775.86 285.35L1791.24 271.647L1806.61 285.35L1821.99 271.647L1837.61 285.562L1837.15 286.084L1821.99 272.593L1806.61 286.296L1791.24 272.593L1775.86 286.296Z" fill="#3982CC"/>
<path d="M1546.62 129.991L1531 116.077L1531.48 115.554L1546.62 129.046L1561.99 115.343L1577.37 129.046L1592.51 115.554L1592.99 116.077L1577.37 129.991L1561.99 116.288L1546.62 129.991Z" fill="#3982CC"/>
<path d="M1866.19 62.3241L1850.58 48.4096L1851.05 47.8875L1866.19 61.3786L1881.57 47.6758L1897.18 61.5903L1896.7 62.1124L1881.57 48.6213L1866.19 62.3241Z" fill="#8AB2DB"/>
<path d="M1768.41 19.4507L1767.94 18.9145L1783.55 5L1799.16 18.9145L1798.69 19.4507L1783.55 5.94551L1768.41 19.4507Z" fill="#3982CC"/>
<path d="M1893.44 324.271L1892.97 323.748L1908.58 309.834L1924.19 323.748L1923.72 324.271L1908.58 310.78L1893.44 324.271Z" fill="#3982CC"/>
<path d="M1544.24 306.9L1543.76 306.377L1559.38 292.463L1574.99 306.377L1574.52 306.9L1559.38 293.408L1544.24 306.9Z" fill="#C4DCF5"/>
</svg>
