<svg width="30" height="30" viewBox="0 0 30 30" fill="none" xmlns="http://www.w3.org/2000/svg">
<path d="M11.3072 12.3951C12.4455 12.3951 13.3682 11.4723 13.3682 10.334C13.3682 9.19572 12.4455 8.27295 11.3072 8.27295C10.1689 8.27295 9.24609 9.19572 9.24609 10.334C9.24609 11.4723 10.1689 12.3951 11.3072 12.3951Z" fill="#333333"/>
<path d="M28.2252 17.9198C27.2519 17.0038 26.021 16.4026 24.6756 16.2309V5.75379C24.6756 4.63738 24.2176 3.63547 23.5019 2.89119C22.7576 2.14692 21.7557 1.71753 20.6393 1.71753H4.03626C2.91985 1.71753 1.91794 2.17554 1.17366 2.89119C0.429389 3.63547 0 4.63738 0 5.75379V18.9504V20.1813V22.8435C0 23.9599 0.458015 24.9618 1.17366 25.7061C1.91794 26.4504 2.91985 26.8797 4.03626 26.8797H20.0954C21.1546 27.7385 22.4714 28.2824 23.9313 28.2824C25.6202 28.2824 27.1374 27.5954 28.2252 26.5076C29.313 25.4198 30 23.9026 30 22.2137C30 20.5248 29.313 19.0076 28.2252 17.9198ZM1.51718 5.75379C1.51718 5.06677 1.80344 4.43699 2.26145 4.00761C2.71947 3.54959 3.34924 3.26333 4.03626 3.26333H20.6393C21.3263 3.26333 21.9561 3.54959 22.4141 4.00761C22.8721 4.46562 23.1584 5.09539 23.1584 5.78241V14.7137L18.9218 10.4771C18.6355 10.1908 18.1489 10.1622 17.834 10.4771L11.4504 16.8893L7.12786 12.5381C6.8416 12.2519 6.35496 12.2233 6.04008 12.5381L1.51718 17.1183V5.75379ZM4.00763 25.4198V25.3626C3.32061 25.3626 2.69084 25.0763 2.23282 24.6183C1.80344 24.1603 1.51718 23.5305 1.51718 22.8435V20.1813V19.2939L6.58397 14.1984L10.9065 18.521C11.1927 18.8072 11.6794 18.8072 11.9943 18.521L18.3779 12.1088L22.5573 16.3168C22.4714 16.3454 22.3855 16.374 22.2996 16.4026C22.1851 16.4313 22.0706 16.4599 21.9275 16.5171C21.813 16.5458 21.6985 16.603 21.584 16.6317C21.4981 16.6603 21.4408 16.6889 21.355 16.7462C21.2405 16.8034 21.1546 16.832 21.0687 16.8893C20.9256 16.9752 20.7824 17.061 20.6393 17.1469C20.5534 17.2042 20.4962 17.2328 20.4103 17.29C20.3531 17.3187 20.3244 17.3473 20.2672 17.3759C20.0095 17.5477 19.7805 17.7481 19.5802 17.9771C18.4924 19.0649 17.8053 20.582 17.8053 22.271C17.8053 22.7004 17.8626 23.1011 17.9485 23.5305C17.9771 23.645 18.0057 23.7309 18.0344 23.8454C18.1202 24.1317 18.2061 24.4179 18.3206 24.7042V24.7328C18.4351 24.9618 18.5496 25.2194 18.6927 25.4198H4.00763ZM27.1088 25.4198C26.2786 26.25 25.1622 26.7366 23.9027 26.7366C22.7004 26.7366 21.584 26.25 20.7824 25.4771C20.6679 25.3626 20.5534 25.2194 20.4389 25.1049C20.3531 25.0191 20.2672 24.9046 20.1813 24.8187C20.0668 24.6755 19.9809 24.5038 19.895 24.332C19.8378 24.2175 19.7805 24.1317 19.7233 24.0171C19.666 23.874 19.6088 23.7023 19.5802 23.5305C19.5515 23.416 19.4943 23.2729 19.4656 23.1584C19.4084 22.8721 19.3798 22.5572 19.3798 22.2423C19.3798 20.9828 19.895 19.8664 20.6966 19.0362C21.4981 18.2061 22.6431 17.7194 23.9027 17.7194C25.1622 17.7194 26.2786 18.2347 27.1088 19.0362C27.9389 19.8664 28.4256 20.9828 28.4256 22.2423C28.4256 23.4733 27.9103 24.5897 27.1088 25.4198Z" fill="#333333"/>
<path d="M24.4464 19.1506C24.3892 19.0934 24.3033 19.0361 24.1888 18.9789C24.1029 18.9503 24.017 18.9216 23.9312 18.9216C23.9025 18.9216 23.9025 18.9216 23.9025 18.9216C23.8739 18.9216 23.8739 18.9216 23.8739 18.9216C23.788 18.9216 23.7022 18.9503 23.6163 18.9789C23.5304 19.0075 23.4445 19.0648 23.3586 19.1506L21.5838 20.9254C21.2976 21.2117 21.2976 21.6983 21.5838 22.0132C21.8701 22.2995 22.3567 22.2995 22.6716 22.0132L23.1296 21.5552V24.7041C23.1296 25.1335 23.4731 25.477 23.9025 25.477C24.3319 25.477 24.6754 25.1335 24.6754 24.7041V21.5552L25.1335 22.0132C25.4197 22.2995 25.9064 22.2995 26.2212 22.0132C26.5075 21.727 26.5075 21.2403 26.2212 20.9254L24.4464 19.1506Z" fill="#333333"/>
</svg>
