<svg width="34" height="34" viewBox="0 0 34 34" fill="none" xmlns="http://www.w3.org/2000/svg">
<g clip-path="url(#clip0)">
<path d="M19.8333 11.3335V10.2002H18.7V11.3335H17.5667V12.4669H18.7V13.6002H19.8333V12.4669H20.9667V11.3335H19.8333Z" fill="#F2F2F2"/>
<path d="M14.6932 8.85587C14.607 8.64075 14.3985 8.49986 14.1668 8.5C13.935 8.49979 13.7265 8.64075 13.6403 8.85587L11.3737 14.5225L12.4265 14.9441L12.9637 13.6H15.3698L15.907 14.9441L16.9599 14.5225L14.6932 8.85587ZM13.4171 12.4667L14.1668 10.5921L14.9165 12.4667H13.4171Z" fill="#F2F2F2"/>
<path d="M16.4333 5.6665C12.0587 5.6665 8.5 8.463 8.5 11.8998C8.5 15.3367 12.0587 18.1332 16.4333 18.1332C17.669 18.1361 18.8942 17.9054 20.0441 17.4532L19.6225 16.4009C18.6068 16.7999 17.5247 17.0032 16.4333 16.9998C12.6837 16.9998 9.63333 14.7116 9.63333 11.8998C9.63333 9.08804 12.6837 6.79984 16.4333 6.79984C20.183 6.79984 23.2333 9.08804 23.2333 11.8998C23.1997 13.134 22.6488 14.297 21.7152 15.1049L22.4848 15.9368C23.6516 14.9155 24.3347 13.4502 24.3667 11.8998C24.3667 8.463 20.808 5.6665 16.4333 5.6665Z" fill="#F2F2F2"/>
<path d="M29.4666 4.53333H27.7666V2.83333C27.7666 2.52039 27.5129 2.26667 27.2 2.26667H10.7666V1.98333C10.7666 0.887967 9.87865 0 8.78328 0C7.68792 0 6.79995 0.887967 6.79995 1.98333V2.26667H5.66662C5.35368 2.26667 5.09995 2.52039 5.09995 2.83333V27.2H2.26662C1.95368 27.2 1.69995 27.4537 1.69995 27.7667V29.4667C1.69995 30.7185 2.71478 31.7333 3.96662 31.7333H7.36662V33.4333C7.36662 33.7463 7.62034 34 7.93328 34H29.4666C29.7796 34 30.0333 33.7463 30.0333 33.4333V5.1C30.0333 4.78706 29.7796 4.53333 29.4666 4.53333ZM7.93328 1.98333C7.93328 1.51392 8.31387 1.13333 8.78328 1.13333C9.2527 1.13333 9.63328 1.51392 9.63328 1.98333V2.26667H7.93328V1.98333ZM6.23328 3.4H9.63328V5.1C9.63328 5.41294 9.37956 5.66667 9.06662 5.66667C8.75368 5.66667 8.49995 5.41294 8.49995 5.1V4.53333H7.36662V5.1C7.36662 6.0389 8.12772 6.8 9.06662 6.8C10.0055 6.8 10.7666 6.0389 10.7666 5.1V3.4H26.6333V29.4667C26.6333 30.0926 26.1259 30.6 25.5 30.6C24.874 30.6 24.3666 30.0926 24.3666 29.4667V27.7667C24.3666 27.4537 24.1129 27.2 23.8 27.2H6.23328V3.4ZM3.96662 30.6C3.34066 30.6 2.83328 30.0926 2.83328 29.4667V28.3333H23.2333V29.4667C23.2326 29.8647 23.3377 30.2558 23.5376 30.6H3.96662ZM28.9 32.8667H8.49995V31.7333H25.5C26.7518 31.7333 27.7666 30.7185 27.7666 29.4667V5.66667H28.9V32.8667Z" fill="#F2F2F2"/>
<path d="M11.3333 19.8335H10.2V20.9668H11.3333V19.8335Z" fill="#F2F2F2"/>
<path d="M24.9333 19.8335H12.4667V20.9668H24.9333V19.8335Z" fill="#F2F2F2"/>
<path d="M24.9333 22.1001H7.93335V23.2334H24.9333V22.1001Z" fill="#F2F2F2"/>
<path d="M22.6667 24.3667H7.93335V25.5H22.6667V24.3667Z" fill="#F2F2F2"/>
<path d="M32.3 24.3667H31.1667V31.7334H32.3V24.3667Z" fill="#F2F2F2"/>
<path d="M32.3 32.8667H31.1667V34H32.3V32.8667Z" fill="#F2F2F2"/>
<path d="M3.96665 7.93359H2.83331V15.3003H3.96665V7.93359Z" fill="#F2F2F2"/>
<path d="M3.96665 5.6665H2.83331V6.79984H3.96665V5.6665Z" fill="#F2F2F2"/>
</g>
<defs>
<clipPath id="clip0">
<rect width="34" height="34" fill="white"/>
</clipPath>
</defs>
</svg>
