<svg width="127" height="90" viewBox="0 0 127 90" fill="none" xmlns="http://www.w3.org/2000/svg">
<path d="M51.7637 14.24C48.475 8.87843 43.6128 4.77917 37.908 2.5583C32.2032 0.337428 25.964 0.114927 20.128 1.92425C14.2921 3.73358 9.17476 7.47697 5.54517 12.5918C1.91558 17.7066 -0.0301797 23.9166 0.000353943 30.2882C0.00338116 35.5646 1.35985 40.7433 3.92806 45.2834C6.49626 49.8234 10.182 53.5581 14.6001 56.0974C19.0182 58.6366 24.0067 59.8872 29.0442 59.7185C34.0818 59.5498 38.9837 57.968 43.2378 55.1383C41.0261 62.0136 36.9066 69.3484 30.1197 76.7009C28.8211 78.1072 28.1094 79.9959 28.1411 81.9515C28.1568 82.9198 28.3545 83.8754 28.7229 84.7637C29.0914 85.652 29.6234 86.4557 30.2885 87.1288C30.9536 87.8019 31.7389 88.3312 32.5994 88.6866C33.46 89.042 34.379 89.2165 35.304 89.2001C37.172 89.1669 38.951 88.3583 40.2495 86.952C65.3376 59.7336 62.0792 30.1468 51.7637 14.2753V14.24ZM119.296 14.24C116.007 8.87843 111.145 4.77917 105.44 2.5583C99.7353 0.337428 93.4961 0.114927 87.6601 1.92425C81.8242 3.73358 76.7068 7.47697 73.0772 12.5918C69.4477 17.7066 67.5019 23.9166 67.5324 30.2882C67.5355 35.5646 68.8919 40.7433 71.4601 45.2834C74.0283 49.8234 77.714 53.5581 82.1322 56.0974C86.5503 58.6366 91.5387 59.8872 96.5763 59.7185C101.614 59.5498 106.516 57.968 110.77 55.1383C108.558 62.0136 104.439 69.3484 97.6518 76.7009C97.0088 77.3972 96.5031 78.2193 96.1636 79.1202C95.8242 80.0211 95.6575 80.9831 95.6732 81.9515C95.6889 82.9198 95.8866 83.8754 96.255 84.7637C96.6235 85.652 97.1554 86.4557 97.8206 87.1288C98.4857 87.8019 99.271 88.3312 100.132 88.6866C100.992 89.042 101.911 89.2165 102.836 89.2001C103.761 89.1837 104.674 88.9767 105.522 88.591C106.371 88.2052 107.139 87.6483 107.782 86.952C132.87 59.7336 129.611 30.1468 119.296 14.2753V14.24Z" fill="#F8F8F8" fill-opacity="0.2"/>
</svg>
