<svg width="17" height="21" viewBox="0 0 17 21" fill="none" xmlns="http://www.w3.org/2000/svg">
<path d="M16.1951 5.48223L11.3615 0.648633C11.2268 0.513867 11.0448 0.4375 10.8539 0.4375H1.3125C0.914941 0.4375 0.59375 0.758691 0.59375 1.15625V19.8438C0.59375 20.2413 0.914941 20.5625 1.3125 20.5625H15.6875C16.0851 20.5625 16.4062 20.2413 16.4062 19.8438V5.99209C16.4062 5.80117 16.3299 5.61699 16.1951 5.48223ZM14.7486 6.32227H10.5215V2.09512L14.7486 6.32227ZM14.7891 18.9453H2.21094V2.05469H8.99414V6.90625C8.99414 7.15644 9.09353 7.39639 9.27044 7.57331C9.44736 7.75022 9.68731 7.84961 9.9375 7.84961H14.7891V18.9453ZM9.21875 9.60156C9.21875 9.50273 9.13789 9.42188 9.03906 9.42188H7.96094C7.86211 9.42188 7.78125 9.50273 7.78125 9.60156V12.0273H5.35547C5.25664 12.0273 5.17578 12.1082 5.17578 12.207V13.2852C5.17578 13.384 5.25664 13.4648 5.35547 13.4648H7.78125V15.8906C7.78125 15.9895 7.86211 16.0703 7.96094 16.0703H9.03906C9.13789 16.0703 9.21875 15.9895 9.21875 15.8906V13.4648H11.6445C11.7434 13.4648 11.8242 13.384 11.8242 13.2852V12.207C11.8242 12.1082 11.7434 12.0273 11.6445 12.0273H9.21875V9.60156Z" fill="#95C11F"/>
</svg>
