<svg width="14" height="14" viewBox="0 0 14 14" fill="none" xmlns="http://www.w3.org/2000/svg">
<path d="M13.0994 5.09583L6.07752 12.1318C4.91404 13.2978 3.0275 13.2978 1.86403 12.1318C0.700551 10.9659 0.700551 9.07586 1.86403 7.90993L8.18403 1.57759C8.95984 0.800463 10.217 0.800463 10.9929 1.57759C11.7687 2.35469 11.7687 3.61509 10.9929 4.39219L4.67286 10.7246C4.2852 11.1134 3.65635 11.1134 3.26819 10.7246C2.88053 10.3363 2.88053 9.70608 3.26819 9.31725L8.88587 3.68853L8.18353 2.98489L2.56637 8.61409C1.79055 9.39122 1.79055 10.6516 2.56637 11.4287C3.34218 12.2058 4.59938 12.2058 5.3752 11.4287L11.6952 5.09633C12.8587 3.93043 12.8587 2.04036 11.6952 0.87443C10.5317 -0.291477 8.64521 -0.291477 7.48173 0.87443L0.810534 7.5586L0.834709 7.58307C-0.377116 9.1443 -0.270583 11.4012 1.16171 12.836C2.59399 14.2708 4.84549 14.3782 6.40402 13.1633L6.42819 13.1878L13.8012 5.79997L13.0994 5.09583Z" fill="black"/>
</svg>
