<svg width="204" height="132" viewBox="0 0 204 132" fill="none" xmlns="http://www.w3.org/2000/svg">
<path fill-rule="evenodd" clip-rule="evenodd" d="M15.7995 0.20166L0.587891 105.013L16.2043 105.081L21.0108 72.381L22.6972 104.912L38.2123 104.997L33.659 66.5459L47.8755 33.2726H33.0013L22.7476 60.9132L30.3872 0.20166H15.7995Z" fill="#BCB5B5"/>
<path fill-rule="evenodd" clip-rule="evenodd" d="M52.6639 33.2896L42.1068 105.115H55.531L61.0288 71.6053L62.9513 105.283L77.7918 105.199L88.7874 33.2896H76.1391L70.7258 65.7534L69.4103 33.2896H52.6639Z" fill="#BCB5B5"/>
<path fill-rule="evenodd" clip-rule="evenodd" d="M82.313 105.03L104.422 33.2385H124.845L120.308 105.013H105.957L107.053 90.8134L100.931 90.8639L97.2716 104.996L82.313 105.03ZM103.95 79.177L112.129 46.7975L108.807 79.177H103.95Z" fill="#BCB5B5"/>
<path fill-rule="evenodd" clip-rule="evenodd" d="M136.244 33.2891L126.412 94.1019C126.547 102.433 130.898 106.581 142.349 106.868C150.495 106.902 157.881 105.721 161.642 97.1543L172.064 33.2385H156.65C153.564 52.7 150.478 72.1783 147.392 91.6397C146.886 93.967 146.279 95.6197 143.85 95.0463C142.164 94.4897 142.231 91.9432 142.737 88.992L151.793 33.2891H136.244Z" fill="#BCB5B5"/>
<path fill-rule="evenodd" clip-rule="evenodd" d="M178.239 33.2896L163.229 131.659H179.385L189.048 70.9644L198.155 70.9476L199.521 59.3281L190.836 59.3787L192.59 44.42H202.253L203.13 33.2896H178.239Z" fill="#BCB5B5"/>
</svg>
