<svg width="262" height="121" viewBox="0 0 262 121" fill="none" xmlns="http://www.w3.org/2000/svg">
<path d="M93.4025 109.209C96.8597 109.209 98.5967 110.743 98.5967 113.813V115.499C98.5967 118.568 96.8597 120.103 93.4025 120.103H76.7068V116.865H92.0364C93.5711 116.865 94.3301 116.174 94.3301 114.791V114.032C94.3301 112.632 93.5711 111.941 92.0364 111.941H81.2434C78.191 111.941 76.673 110.676 76.673 108.146V104.993C76.673 102.463 78.191 101.198 81.2434 101.198H97.9054V104.436H82.6093C81.4794 104.436 80.906 104.841 80.906 105.667V107.91C80.906 108.77 81.4794 109.209 82.6093 109.209H93.4025Z" fill="#BCB5B5"/>
<path d="M256.464 109.209C259.921 109.209 261.658 110.743 261.658 113.813V115.499C261.658 118.568 259.921 120.103 256.464 120.103H239.769V116.865H255.098C256.633 116.865 257.392 116.174 257.392 114.791V114.032C257.392 112.632 256.633 111.941 255.098 111.941H244.305C241.253 111.941 239.735 110.676 239.735 108.146V104.993C239.735 102.463 241.253 101.198 244.305 101.198H260.967V104.436H245.671C244.541 104.436 243.968 104.841 243.968 105.667V107.91C243.968 108.77 244.541 109.209 245.671 109.209H256.464Z" fill="#BCB5B5"/>
<path d="M101.97 101.198V120.086H123.843V116.865H106.287V111.89H120.166V109.158H106.287V104.436H123.843V101.198H101.97Z" fill="#BCB5B5"/>
<path d="M214.979 101.198V120.086H236.836V116.865H219.28V111.89H233.159V109.158H219.28V104.436H236.836V101.198H214.979Z" fill="#BCB5B5"/>
<path d="M145.851 106.443C145.851 105.043 145.109 104.352 143.659 104.352H131.516V109.108H143.659C145.126 109.108 145.851 108.416 145.851 107.016V106.443ZM127.199 101.198H145.025C148.414 101.198 150.118 102.733 150.118 105.802V107.286C150.118 110.237 148.566 111.772 145.463 111.89L151.045 119.918V120.103H146.256L140.589 111.89H131.499V120.103H127.182V101.198H127.199Z" fill="#BCB5B5"/>
<path d="M165.111 116.882L174.639 101.198H179.395V101.384L168.231 119.192C168.045 119.513 167.809 119.749 167.522 119.884C167.236 120.019 166.915 120.086 166.561 120.086H163.644C163.273 120.086 162.952 120.019 162.665 119.884C162.379 119.749 162.143 119.513 161.957 119.192L150.776 101.384V101.198H155.549L165.111 116.882Z" fill="#BCB5B5"/>
<path d="M186.256 101.198H181.939V120.086H186.256V101.198Z" fill="#BCB5B5"/>
<path d="M194.353 115.027C194.353 116.258 195.011 116.865 196.343 116.865H211.605V120.103H194.623C191.554 120.103 190.019 118.737 190.019 116.022V105.297C190.019 102.581 191.554 101.215 194.623 101.215H211.605V104.453H196.343C195.011 104.453 194.353 105.06 194.353 106.292V115.027Z" fill="#BCB5B5"/>
<path d="M24.5971 101.198V117.86C24.5971 119.344 23.8213 120.086 22.2698 120.086H20.1282C19.2513 120.086 18.5766 119.783 18.0875 119.175L3.97207 104.571V120.069H0.126953V103.407C0.126953 101.923 0.90272 101.181 2.45424 101.181H4.59604C5.47299 101.181 6.1477 101.485 6.63676 102.092L20.7691 116.747V101.198H24.5971Z" fill="#BCB5B5"/>
<path d="M41.0899 116.882L50.6183 101.198H55.3739V101.384L44.2098 119.192C44.0242 119.513 43.7883 119.749 43.5016 119.884C43.2149 120.019 42.8944 120.086 42.5402 120.086H39.6227C39.2517 120.086 38.9314 120.019 38.6615 119.884C38.3748 119.749 38.1387 119.513 37.9532 119.192L26.7721 101.384V101.198H31.5615L41.0899 116.882Z" fill="#BCB5B5"/>
<path d="M62.2558 101.198H57.9385V120.086H62.2558V101.198Z" fill="#BCB5B5"/>
<path d="M116.474 54.3662C116.559 54.7542 116.626 55.1422 116.71 55.5133V54.2144C116.626 54.265 116.542 54.3156 116.474 54.3662Z" fill="#BCB5B5"/>
<path d="M128.145 51.263C128.145 56.1874 124.165 60.1674 119.24 60.1674C114.316 60.1674 110.336 56.1705 110.336 51.263C110.336 46.3386 114.316 42.3586 119.24 42.3586C124.165 42.3586 128.145 46.3386 128.145 51.263Z" fill="#BCB5B5"/>
<path d="M136.238 55.024C135.176 55.024 134.164 54.9228 133.135 54.7878C131.55 61.0108 125.951 65.6485 119.239 65.6485C111.313 65.6485 104.854 59.1894 104.854 51.2632C104.854 45.1415 108.716 39.9472 114.096 37.8729C113.623 36.0347 113.337 34.1122 113.337 32.1391C113.337 19.5077 123.607 9.23734 136.238 9.23734C148.87 9.23734 159.14 19.5077 159.14 32.1391C159.14 44.7536 148.87 55.024 136.238 55.024ZM143.254 78.3811C137.587 78.3811 132.983 73.7771 132.983 68.1107C132.983 62.4443 137.587 57.8403 143.254 57.8403C148.92 57.8403 153.524 62.4443 153.524 68.1107C153.524 73.7771 148.92 78.3811 143.254 78.3811ZM87.6691 13.2511V87.0325H161.45C168.449 87.0325 174.132 81.3661 174.132 74.3674V0.585938H100.351C93.3524 0.585938 87.6691 6.25237 87.6691 13.2511Z" fill="#BCB5B5"/>
<path d="M148.043 68.1109C148.043 70.7586 145.902 72.9004 143.254 72.9004C140.606 72.9004 138.464 70.7586 138.464 68.1109C138.464 65.4632 140.606 63.3214 143.254 63.3214C145.902 63.3045 148.043 65.4632 148.043 68.1109Z" fill="#BCB5B5"/>
<path d="M136.24 14.7014C126.644 14.7014 118.819 22.5096 118.819 32.1222C118.819 33.6738 119.039 35.1747 119.426 36.6082C121.062 36.625 122.614 36.9623 124.081 37.4683C123.356 35.8324 122.934 34.0279 122.934 32.1222C122.934 24.7863 128.904 18.8163 136.24 18.8163C143.576 18.8163 149.546 24.7863 149.546 32.1222C149.546 39.4582 143.576 45.4282 136.24 45.4282C134.874 45.4282 133.575 45.1584 132.328 44.7705C133.036 46.1871 133.491 47.7049 133.711 49.3239C134.537 49.4419 135.38 49.5262 136.24 49.5262C145.836 49.5262 153.661 41.7181 153.661 32.1054C153.661 22.5265 145.853 14.7014 136.24 14.7014Z" fill="#BCB5B5"/>
<path d="M136.238 22.0371C136.238 22.0371 128.868 30.7728 128.868 34.8371C128.868 38.9014 132.174 42.2068 136.238 42.2068C140.302 42.2068 143.608 38.9014 143.608 34.8371C143.608 30.7728 136.238 22.0371 136.238 22.0371Z" fill="#BCB5B5"/>
</svg>
