<svg width="320" height="121" viewBox="0 0 320 121" fill="none" xmlns="http://www.w3.org/2000/svg">
<path d="M282.888 0.928955H0.747501L37.9839 39.953L0.342773 78.9771H282.078L319.517 39.7507L282.888 0.928955ZM280.307 74.2551L279.869 74.7104H279.245L15.9592 73.9684L12.4346 73.9515L14.8967 71.4387L45.691 39.9362L14.5257 8.4336L12.013 5.90395H15.5713L280.442 5.3474H281.083L281.522 5.81965L312.316 38.7388L313.277 39.7675L312.299 40.7794L280.307 74.2551Z" fill="#BCB5B5"/>
<path d="M279.819 8.34937L19.1475 8.88898L48.8287 38.9075L49.8574 39.9531L48.8287 40.9987L19.4678 71.0172L278.571 71.7424L309.163 39.7676L279.819 8.34937ZM112.272 61.0672H96.5883V43.6464H82.6586V61.0672H66.9578V19.1594H82.6586V34.6914H96.5883V19.1594H112.272V61.0672ZM163.405 28.7889C160.403 28.1818 157.57 27.8782 154.905 27.8782C150.841 27.8782 147.434 29.0082 144.753 31.268C142.072 33.5278 140.705 36.3947 140.705 39.8856C140.705 43.6464 142.072 46.6314 144.77 48.8237C147.485 51.0161 151.094 52.1123 155.63 52.1123C157.84 52.1123 160.437 51.7918 163.405 51.1679V61.1178C160.083 61.7587 157.115 62.096 154.484 62.096C145.394 62.096 138.041 60.0216 132.375 55.8899C126.742 51.7581 123.909 46.3278 123.909 39.5821C123.909 33.3254 126.759 28.1649 132.459 24.0838C138.159 20.0026 145.343 17.9789 154.045 17.9789C157.435 17.9789 160.555 18.2656 163.388 18.8052V28.7889H163.405ZM209.883 28.7889C206.881 28.1818 204.048 27.8782 201.383 27.8782C197.319 27.8782 193.913 29.0082 191.231 31.268C188.55 33.5278 187.184 36.3947 187.184 39.8856C187.184 43.6464 188.55 46.6314 191.248 48.8237C193.98 51.0161 197.572 52.1123 202.109 52.1123C204.318 52.1123 206.915 51.7918 209.883 51.1679V61.1178C206.561 61.7587 203.593 62.096 200.962 62.096C191.872 62.096 184.519 60.0216 178.853 55.8899C173.22 51.7581 170.387 46.3278 170.387 39.5821C170.387 33.3254 173.237 28.1649 178.937 24.0838C184.637 20.0026 191.821 17.9789 200.523 17.9789C203.913 17.9789 207.033 18.2656 209.866 18.8052V28.7889H209.883ZM266.598 61.0672H249.346L235.972 43.6464H235.719V61.0672H220.018V19.1594H235.719V38.8738H235.972L250.796 19.1594H267.272L251.217 40.5602L266.598 61.0672Z" fill="#BCB5B5"/>
<path d="M215.481 120.244V108.422H224.234V110.429H217.859V113.043H223.796V115.033H217.859V118.254H224.453V120.244H215.481ZM203.558 120.244V108.422H205.953V113.077H210.625V108.422H213.002V120.244H210.625V115.083H205.953V120.244H203.558ZM197.892 115.556L196.256 111.171L194.654 115.556H197.892ZM202.294 120.244H199.696L198.668 117.563H193.946L192.968 120.244H190.438L195.042 108.422H197.571L202.294 120.244ZM185.244 120.244V110.429H181.736V108.422H191.129V110.429H187.639V120.244H185.244ZM178.633 115.893L180.943 116.618C180.589 117.917 179.999 118.861 179.173 119.485C178.346 120.109 177.301 120.429 176.036 120.429C174.467 120.429 173.186 119.89 172.174 118.827C171.162 117.748 170.656 116.281 170.656 114.426C170.656 112.453 171.162 110.935 172.174 109.839C173.186 108.759 174.518 108.203 176.188 108.203C177.638 108.203 178.802 108.624 179.712 109.484C180.252 109.99 180.657 110.716 180.926 111.66L178.566 112.233C178.431 111.609 178.127 111.137 177.689 110.783C177.25 110.429 176.71 110.26 176.069 110.26C175.192 110.26 174.484 110.564 173.945 111.205C173.405 111.829 173.135 112.857 173.135 114.257C173.135 115.758 173.405 116.82 173.945 117.444C174.484 118.085 175.176 118.389 176.036 118.389C176.677 118.389 177.216 118.187 177.672 117.782C178.11 117.394 178.43 116.753 178.633 115.893ZM159.492 120.244L163.539 114.072L159.88 108.422H162.662L165.04 112.217L167.368 108.422H170.133L166.457 114.156L170.487 120.244H167.604L164.99 116.163L162.359 120.244H159.492ZM155.04 115.556L153.404 111.171L151.802 115.556H155.04ZM159.424 120.244H156.827L155.799 117.563H151.077L150.099 120.244H147.569L152.173 108.422H154.702L159.424 120.244ZM140.115 111.643L137.787 111.104C138.293 109.181 139.71 108.22 142.054 108.22C143.437 108.22 144.483 108.523 145.191 109.13C145.899 109.737 146.253 110.446 146.253 111.272C146.253 111.829 146.085 112.351 145.764 112.807C145.444 113.262 144.955 113.667 144.314 114.004C145.09 114.274 145.68 114.645 146.085 115.151C146.473 115.64 146.675 116.247 146.675 116.972C146.675 118.001 146.287 118.844 145.528 119.485C144.769 120.126 143.622 120.446 142.122 120.446C140.89 120.446 139.912 120.244 139.204 119.822C138.496 119.418 137.956 118.642 137.585 117.512L139.778 116.787C139.997 117.495 140.3 117.95 140.671 118.17C141.042 118.372 141.515 118.473 142.054 118.473C142.813 118.473 143.353 118.305 143.707 117.984C144.044 117.664 144.23 117.293 144.23 116.871C144.23 116.382 144.027 115.994 143.639 115.691C143.251 115.404 142.661 115.252 141.886 115.252H141.346V113.465H141.616C142.341 113.465 142.914 113.296 143.285 112.975C143.673 112.655 143.859 112.217 143.859 111.677C143.859 111.238 143.707 110.884 143.386 110.581C143.066 110.294 142.628 110.142 142.037 110.142C141.025 110.159 140.385 110.665 140.115 111.643ZM132.762 115.556L131.126 111.171L129.524 115.556H132.762ZM137.164 120.244H134.566L133.538 117.563H128.816L127.837 120.244H125.308L129.912 108.422H132.441L137.164 120.244ZM116.471 108.422H118.866V113.448C119.405 113.397 119.76 113.262 119.945 113.043C120.131 112.824 120.417 112.217 120.822 111.205C121.311 109.923 121.817 109.13 122.306 108.81C122.795 108.506 123.605 108.338 124.701 108.338C124.751 108.338 124.869 108.338 125.055 108.321V110.092L124.718 110.075C124.229 110.075 123.874 110.142 123.655 110.26C123.436 110.378 123.251 110.564 123.099 110.817C122.964 111.07 122.745 111.576 122.475 112.335C122.323 112.739 122.171 113.077 122.003 113.363C121.834 113.633 121.53 113.886 121.109 114.139C121.631 114.291 122.087 114.594 122.424 115.05C122.778 115.505 123.149 116.146 123.571 116.989L125.19 120.227H122.39L120.974 117.175C120.957 117.124 120.906 117.057 120.839 116.922C120.822 116.871 120.721 116.686 120.535 116.365C120.232 115.792 119.979 115.421 119.776 115.269C119.574 115.117 119.287 115.05 118.883 115.05V120.227H116.488V108.422H116.471ZM102.322 115.083V118.237H104.531C105.391 118.237 105.931 118.22 106.167 118.17C106.521 118.102 106.808 117.95 107.027 117.697C107.246 117.445 107.364 117.107 107.364 116.686C107.364 116.331 107.28 116.028 107.111 115.775C106.943 115.522 106.69 115.353 106.369 115.235C106.049 115.117 105.341 115.067 104.261 115.067H102.322V115.083ZM102.322 110.395V113.127H103.89C104.818 113.127 105.408 113.11 105.627 113.093C106.032 113.043 106.352 112.908 106.588 112.672C106.825 112.436 106.943 112.132 106.943 111.744C106.943 111.373 106.841 111.087 106.639 110.851C106.437 110.614 106.133 110.48 105.745 110.446C105.509 110.412 104.835 110.395 103.705 110.395H102.322ZM99.9272 108.422H104.649C105.577 108.422 106.285 108.456 106.74 108.54C107.196 108.624 107.617 108.776 107.971 109.029C108.325 109.282 108.629 109.603 108.882 110.007C109.118 110.412 109.236 110.884 109.236 111.39C109.236 111.947 109.085 112.453 108.798 112.908C108.494 113.363 108.089 113.717 107.583 113.954C108.309 114.156 108.848 114.527 109.236 115.033C109.624 115.539 109.81 116.129 109.81 116.82C109.81 117.36 109.692 117.883 109.439 118.389C109.186 118.895 108.848 119.3 108.41 119.603C107.971 119.907 107.449 120.092 106.808 120.16C106.403 120.193 105.459 120.227 103.924 120.244H99.8934V108.422H99.9272ZM297.054 91.9794V95.3354H298.353C299.297 95.3354 299.921 95.2679 300.241 95.1498C300.562 95.0318 300.798 94.8294 300.984 94.5764C301.169 94.3066 301.254 94.0031 301.254 93.6489C301.254 93.2273 301.135 92.8732 300.865 92.5865C300.612 92.3166 300.292 92.1311 299.904 92.0637C299.618 92.0131 299.044 91.9794 298.184 91.9794H297.054ZM294.676 101.794V89.9725H298.505C299.955 89.9725 300.899 90.0399 301.338 90.158C302.012 90.3266 302.586 90.7145 303.041 91.3216C303.496 91.9119 303.733 92.6877 303.733 93.6152C303.733 94.3404 303.598 94.9475 303.345 95.4534C303.075 95.9425 302.754 96.3304 302.333 96.6171C301.928 96.9038 301.506 97.0892 301.102 97.1736C300.528 97.2916 299.702 97.3422 298.623 97.3422H297.071V101.794H294.676ZM283.799 95.875C283.799 97.2073 284.102 98.2191 284.726 98.9106C285.35 99.602 286.126 99.9393 287.087 99.9393C288.049 99.9393 288.824 99.602 289.432 98.9106C290.039 98.2191 290.342 97.2073 290.342 95.8244C290.342 94.4753 290.039 93.4634 289.448 92.7888C288.858 92.1143 288.066 91.7938 287.087 91.7938C286.109 91.7938 285.317 92.1311 284.71 92.8057C284.102 93.4971 283.799 94.5259 283.799 95.875ZM281.337 95.9593C281.337 94.762 281.505 93.7501 281.876 92.9238C282.146 92.3167 282.517 91.777 282.972 91.3048C283.445 90.8326 283.951 90.4784 284.507 90.2423C285.249 89.9219 286.092 89.7701 287.054 89.7701C288.791 89.7701 290.19 90.3098 291.236 91.3891C292.282 92.4684 292.804 93.9693 292.804 95.8919C292.804 97.7975 292.282 99.2985 291.253 100.378C290.224 101.457 288.824 101.997 287.087 101.997C285.334 101.997 283.934 101.457 282.888 100.395C281.86 99.3153 281.337 97.8313 281.337 95.9593ZM274.81 101.794V91.9794H271.302V89.9725H280.696V91.9794H277.205V101.794H274.81ZM262.229 95.9087C262.229 97.2242 262.499 98.236 263.005 98.9443C263.528 99.6526 264.253 100.007 265.214 100.007C266.193 100.007 266.918 99.6526 267.407 98.9443C267.896 98.236 268.132 97.1736 268.132 95.7738C268.132 94.4078 267.845 93.4297 267.289 92.8057C266.732 92.1817 266.007 91.8613 265.13 91.8613C264.27 91.8613 263.579 92.1817 263.039 92.8226C262.499 93.4466 262.229 94.4753 262.229 95.9087ZM255.534 89.9725H257.929V94.9137H259.852C259.986 93.4634 260.509 92.2323 261.386 91.2542C262.28 90.276 263.562 89.787 265.265 89.787C266.901 89.787 268.182 90.3098 269.144 91.3722C270.105 92.4347 270.594 93.9356 270.594 95.8919C270.594 97.1735 270.375 98.2697 269.97 99.1635C269.548 100.074 268.958 100.766 268.199 101.272C267.424 101.761 266.479 102.014 265.332 102.014C264.169 102.014 263.241 101.828 262.567 101.457C261.875 101.086 261.285 100.496 260.762 99.6863C260.239 98.8768 259.953 97.9493 259.852 96.9037H257.929V101.811H255.534V89.9725ZM246.107 99.8044H248.434C249.193 99.8044 249.716 99.7707 250.003 99.7032C250.289 99.6358 250.559 99.4671 250.778 99.2141C251.015 98.9612 251.116 98.6407 251.116 98.2697C251.116 97.7301 250.913 97.3253 250.525 97.0724C250.138 96.8194 249.463 96.7014 248.536 96.7014H246.107V99.8044ZM243.712 89.9725H246.09V94.6945H249.278C250.778 94.6945 251.875 95.0487 252.549 95.757C253.224 96.4653 253.561 97.3085 253.561 98.2866C253.561 99.0961 253.359 99.7707 252.954 100.344C252.549 100.901 252.077 101.288 251.554 101.491C251.031 101.693 250.273 101.794 249.278 101.794H243.696V89.9725H243.712ZM234.235 99.8044H236.562C237.304 99.8044 237.827 99.7707 238.13 99.7032C238.434 99.6358 238.687 99.4671 238.923 99.2141C239.142 98.9612 239.26 98.6407 239.26 98.2697C239.26 97.7132 239.075 97.3253 238.67 97.0724C238.282 96.8194 237.607 96.7014 236.68 96.7014H234.251V99.8044H234.235ZM231.84 89.9725H240.677V91.9625H234.235V94.6945H237.422C238.299 94.6945 239.041 94.7957 239.614 95.0149C240.188 95.2342 240.694 95.622 241.098 96.2123C241.503 96.7857 241.722 97.4771 241.722 98.2529C241.722 99.0455 241.52 99.737 241.098 100.31C240.677 100.884 240.205 101.272 239.682 101.474C239.159 101.676 238.4 101.778 237.422 101.778H231.84V89.9725ZM219.967 89.9725H222.194V97.8313L226.983 89.9725H229.361V101.794H227.135V94.0874L222.362 101.794H219.967V89.9725ZM211.299 91.9794V95.3354H212.598C213.542 95.3354 214.166 95.2679 214.486 95.1498C214.807 95.0318 215.043 94.8294 215.229 94.5764C215.414 94.3066 215.498 94.0031 215.498 93.6489C215.498 93.2273 215.363 92.8732 215.11 92.5865C214.857 92.3166 214.537 92.1311 214.149 92.0637C213.863 92.0131 213.289 91.9794 212.429 91.9794H211.299ZM208.921 101.794V89.9725H212.749C214.2 89.9725 215.144 90.0399 215.583 90.158C216.257 90.3266 216.831 90.7145 217.286 91.3216C217.741 91.9119 217.977 92.6877 217.977 93.6152C217.977 94.3404 217.842 94.9475 217.589 95.4534C217.32 95.9425 216.999 96.3304 216.578 96.6171C216.173 96.9038 215.768 97.0892 215.347 97.1736C214.773 97.2916 213.947 97.3422 212.868 97.3422H211.316V101.794H208.921ZM201.501 101.794V91.9794H197.993V89.9725H207.387V91.9794H203.896V101.794H201.501ZM194.89 97.4434L197.2 98.1686C196.846 99.4671 196.256 100.412 195.43 101.036C194.604 101.659 193.558 101.98 192.293 101.98C190.725 101.98 189.426 101.44 188.431 100.378C187.419 99.2985 186.913 97.8313 186.913 95.9762C186.913 94.0031 187.419 92.4853 188.431 91.3891C189.443 90.3098 190.775 89.7533 192.445 89.7533C193.895 89.7533 195.059 90.1749 195.969 91.035C196.509 91.5409 196.914 92.266 197.184 93.2104L194.823 93.7838C194.688 93.1767 194.401 92.6877 193.946 92.3335C193.49 91.9794 192.968 91.8107 192.327 91.8107C191.45 91.8107 190.741 92.1311 190.202 92.7551C189.662 93.3791 189.392 94.4078 189.392 95.8076C189.392 97.3085 189.662 98.371 190.202 98.9949C190.741 99.6358 191.433 99.9393 192.293 99.9393C192.934 99.9393 193.474 99.7369 193.929 99.3322C194.351 98.9443 194.688 98.3203 194.89 97.4434ZM175.496 89.9725H177.722V97.8313L182.512 89.9725H184.89V101.794H182.663V94.0874L177.874 101.794H175.496V89.9725ZM166.912 91.9625C166.912 95.5546 166.592 98.1686 165.934 99.8044H170.42V91.9625H166.912ZM164.652 89.9725H172.815V99.8044H173.86V104.375H171.87V101.794H164.433V104.375H162.443V99.8044H163.438C163.927 98.7925 164.248 97.6289 164.399 96.2798C164.551 94.9475 164.636 93.261 164.636 91.2205V89.9725H164.652ZM153.404 87.0381H154.5C154.433 87.7633 154.18 88.3367 153.741 88.7583C153.286 89.1799 152.712 89.3823 151.987 89.3823C151.279 89.3823 150.689 89.1799 150.25 88.7583C149.795 88.3367 149.542 87.7633 149.475 87.0381H150.587C150.621 87.426 150.756 87.7127 150.992 87.8982C151.228 88.0837 151.566 88.1849 152.004 88.1849C152.443 88.1849 152.78 88.0837 153.016 87.8982C153.235 87.7127 153.37 87.426 153.404 87.0381ZM147.265 89.9725H149.508V97.8313L154.298 89.9725H156.675V101.794H154.449V94.0874L149.66 101.794H147.265V89.9725ZM142.375 89.9725H144.752V101.794H142.375V89.9725ZM133.538 99.8044H135.865C136.607 99.8044 137.13 99.7707 137.417 99.7032C137.703 99.6358 137.973 99.4671 138.192 99.2141C138.411 98.9612 138.53 98.6407 138.53 98.2697C138.53 97.7469 138.344 97.3422 137.973 97.0893C137.602 96.8194 136.927 96.7014 135.949 96.7014H133.521V99.8044H133.538ZM131.143 89.9725H133.521V94.6945H136.708C137.551 94.6945 138.26 94.8126 138.867 95.0318C139.474 95.2679 139.98 95.6726 140.385 96.2629C140.789 96.8531 140.992 97.5277 140.992 98.2866C140.992 99.0792 140.789 99.7707 140.368 100.344C139.946 100.917 139.491 101.305 138.968 101.491C138.462 101.676 137.703 101.778 136.725 101.778H131.143V89.9725ZM119.169 101.794V89.9725H121.564V94.627H126.235V89.9725H128.613V101.794H126.235V96.6339H121.564V101.794H119.169ZM107.246 101.794V89.9725H109.641V94.627H114.312V89.9725H116.707V101.794H114.312V96.6339H109.641V101.794H107.246ZM96.2169 101.794V89.9725H104.986V91.9794H98.6117V94.5933H104.548V96.5833H98.6117V99.8044H105.206V101.794H96.2169ZM86.6885 96.6508V99.8044H88.8978C89.7579 99.8044 90.2975 99.7875 90.5336 99.7369C90.8878 99.6695 91.1745 99.5177 91.3937 99.2647C91.6129 99.0118 91.7311 98.6745 91.7311 98.2529C91.7311 97.8988 91.6468 97.5952 91.4781 97.3422C91.3095 97.0893 91.0564 96.9037 90.736 96.8025C90.4156 96.6845 89.7072 96.6339 88.6279 96.6339H86.6885V96.6508ZM86.6885 91.9456V94.6776H88.257C89.1845 94.6776 89.7748 94.6608 89.994 94.627C90.3988 94.5764 90.7191 94.4415 90.9552 94.2054C91.1913 93.9693 91.3095 93.6658 91.3095 93.2779C91.3095 92.9069 91.2082 92.6202 91.0059 92.3841C90.8035 92.148 90.4999 92.0131 90.112 91.9794C89.8759 91.9456 89.2014 91.9288 88.0715 91.9288H86.6885V91.9456ZM84.3108 89.9725H89.0327C89.9602 89.9725 90.6685 90.0062 91.1238 90.0905C91.5792 90.1748 92.0009 90.3266 92.3551 90.5796C92.7261 90.8326 93.0127 91.153 93.2656 91.5746C93.5017 91.9793 93.6199 92.4516 93.6199 92.9575C93.6199 93.514 93.4681 94.0199 93.1814 94.4921C92.8779 94.9475 92.473 95.3016 91.967 95.5377C92.6922 95.7401 93.232 96.1111 93.6199 96.6171C94.0078 97.123 94.1932 97.7132 94.1932 98.4047C94.1932 98.9443 94.0752 99.4671 93.8223 99.973C93.5693 100.479 93.2318 100.884 92.7934 101.187C92.3549 101.491 91.8322 101.676 91.1913 101.744C90.8035 101.794 89.8423 101.811 88.3076 101.828H84.277V89.9725H84.3108ZM76.8735 101.794V91.9794H73.3658V89.9725H82.7592V91.9794H79.2684V101.794H76.8735ZM70.2627 97.4434L72.5731 98.1686C72.2189 99.4671 71.6288 100.412 70.8024 101.036C69.9761 101.659 68.9305 101.98 67.6657 101.98C66.0973 101.98 64.7987 101.44 63.8037 100.378C62.7918 99.2985 62.2859 97.8313 62.2859 95.9762C62.2859 94.0031 62.7918 92.4853 63.8037 91.3891C64.8155 90.3098 66.1478 89.7533 67.8174 89.7533C69.2677 89.7533 70.4313 90.1749 71.342 91.035C71.8817 91.5409 72.2863 92.266 72.5562 93.2104L70.1953 93.7838C70.0604 93.1767 69.7737 92.6877 69.3184 92.3335C68.863 91.9794 68.3403 91.8107 67.6994 91.8107C66.8225 91.8107 66.1142 92.1311 65.5745 92.7551C65.0349 93.3791 64.7649 94.4078 64.7649 95.8076C64.7649 97.3085 65.0349 98.371 65.5745 98.9949C66.1142 99.6358 66.8056 99.9393 67.6657 99.9393C68.3065 99.9393 68.8461 99.7369 69.3015 99.3322C69.7399 98.9443 70.0603 98.3203 70.2627 97.4434ZM50.7845 101.794V89.9725H53.1791V94.627H57.8505V89.9725H60.2285V101.794H57.8505V96.6339H53.1791V101.794H50.7845ZM38.9457 89.9725H41.1717V97.8313L45.9613 89.9725H48.339V101.794H46.113V94.0874L41.3236 101.794H38.9457V89.9725ZM30.3787 91.9625C30.3787 95.5546 30.0581 98.1686 29.4004 99.8044H33.8864V91.9625H30.3787ZM28.1018 89.9725H36.2643V99.8044H37.3099V104.375H35.3198V101.794H27.8826V104.375H25.8927V99.8044H26.8876C27.3767 98.7925 27.6973 97.6289 27.849 96.2798C28.0008 94.9475 28.085 93.261 28.085 91.2205V89.9725H28.1018ZM16.1451 101.794V89.9725H24.9144V91.9794H18.5399V94.5933H24.4762V96.5833H18.5399V99.8044H25.1337V101.794H16.1451Z" fill="#BCB5B5"/>
</svg>
