<svg width="498" height="120" viewBox="0 0 498 120" fill="none" xmlns="http://www.w3.org/2000/svg">
<path d="M215.527 66.3613H196.858V75.8728H215.561C220.974 75.8728 221.699 73.4106 221.699 71.1002C221.699 68.7898 221.025 66.3613 215.527 66.3613Z" fill="#BCB5B5"/>
<path d="M144.461 83.2588H162.523C158.172 76.1252 153.821 68.941 153.483 68.4014C153.163 68.941 144.461 83.2588 144.461 83.2588Z" fill="#BCB5B5"/>
<path d="M28.923 63.3589V93.7147H75.2999V63.3757C72.7871 61.1833 56.6142 47.1354 51.8922 43.0205C47.2039 47.1691 31.3852 61.1834 28.923 63.3589ZM62.7021 69.1602V83.1407H41.3351V69.1433C42.465 68.1483 49.7671 61.6893 51.9258 59.7836C54.0844 61.6893 61.5385 68.1484 62.7021 69.1602Z" fill="#BCB5B5"/>
<path d="M0 0V119.517H497.869V0H0ZM83.0737 96.7169C83.0737 99.1791 81.033 101.152 78.5371 101.152H25.6843C23.1884 101.152 21.1477 99.1623 21.1477 96.7169V61.656C21.1477 60.408 21.6874 59.2275 22.6318 58.3674L48.8221 35.1958C50.5423 33.6781 53.1562 33.6612 54.8764 35.1621L81.539 58.3337C82.5171 59.1769 83.0568 60.3911 83.0568 61.6391V96.7169H83.0737ZM171.375 97.83L166.957 90.5614H140.008L135.589 97.83H124.745L148.861 59.1938C149.755 57.7772 151.61 56.934 153.499 56.934C155.388 56.934 157.243 57.7772 158.137 59.1938L182.253 97.83H171.375ZM221.867 97.7962L211.63 83.6302H196.857V97.7962H187.734V58.1145H216.791C225.527 58.1145 230.957 63.0894 230.957 71.1168C230.957 77.0025 227.668 81.3198 221.85 82.7364L232.559 97.7962H221.867ZM251.295 97.7962H242.054V58.1145H251.295V97.7962ZM286.221 99.3309C275.85 99.3309 267.671 97.5433 261.026 92.3997L265.984 85.519C272.224 89.6002 279.358 90.9324 286.289 90.9324C294.164 90.9324 299.055 88.9087 299.055 85.6539C299.055 82.3654 297.875 81.3704 289.038 81.3704H280.049C270.369 81.4547 262.864 78.436 262.864 69.5822C262.864 61.4368 270.79 56.5798 284.046 56.5798C292.697 56.5798 299.578 58.0639 306.526 62.1619L301.652 68.8739C295.277 65.9732 289.797 65.012 283.995 65.012C277.384 65.012 272.696 66.1588 272.696 69.1437C272.696 71.5891 274.13 72.8707 281.128 72.8707H289.291C302.411 72.8707 309.056 76.9857 309.056 85.2323C309.022 94.1873 300.708 99.3309 286.221 99.3309ZM357.035 66.4623H340.474V97.7962H331.165V66.4623H314.165V58.1145H357.035V66.4623ZM386.328 98.4877C370.357 98.4877 361.487 95.1317 361.487 77.93C361.487 60.7284 370.357 57.3556 386.328 57.3556C402.298 57.3556 411.169 60.7116 411.169 77.93C411.169 95.1148 402.298 98.4877 386.328 98.4877ZM466.282 92.0961C466.282 94.4571 465.759 97.6444 461.324 98.2684C458.608 98.6394 456.247 97.6107 453.65 94.9461L428.573 69.6328V97.8131H419.449V63.1738C419.449 60.29 421.17 58.1651 423.851 57.7603C426.785 57.305 429.416 58.2662 431.676 60.5935L457.158 86.2947V58.1145H466.282V92.0961Z" fill="#BCB5B5"/>
<path d="M386.329 65.9058C376.464 65.9058 371.32 66.4285 371.32 77.9132C371.32 89.3809 376.464 89.9037 386.329 89.9037C396.195 89.9037 401.339 89.364 401.339 77.9132C401.356 66.4454 396.195 65.9058 386.329 65.9058Z" fill="#BCB5B5"/>
</svg>
