<svg width="82" height="48" viewBox="0 0 82 48" fill="none" xmlns="http://www.w3.org/2000/svg">
<rect width="82" height="48" fill="#A6CE39"/>
<rect x="46.8501" y="10.2876" width="26.4539" height="4.99684" fill="#2D2D2D"/>
<rect x="46.8501" y="20.8691" width="26.4539" height="4.99684" fill="#2D2D2D"/>
<path d="M22.7498 10.2876C18.5279 10.2876 15.0767 13.7388 15.0767 17.9608C15.0767 22.1827 18.5279 25.6339 22.7498 25.6339C26.9718 25.6339 30.423 22.1827 30.423 17.9608C30.423 13.7388 26.9718 10.2876 22.7498 10.2876Z" fill="#2D2D2D"/>
<path d="M35.9181 31.7658C35.717 31.2631 35.449 30.7941 35.1474 30.3585C33.6061 28.0799 31.2271 26.5721 28.5465 26.2035C28.2115 26.1701 27.8429 26.237 27.5748 26.4381C26.1675 27.4768 24.4922 28.0129 22.7498 28.0129C21.0073 28.0129 19.332 27.4768 17.9247 26.4381C17.6566 26.237 17.288 26.1365 16.953 26.2035C14.2724 26.5721 11.8599 28.0799 10.3521 30.3585C10.0505 30.7941 9.78244 31.2967 9.58144 31.7658C9.48094 31.9668 9.51442 32.2014 9.61492 32.4024C9.883 32.8715 10.218 33.3407 10.5196 33.7427C10.9887 34.3794 11.4913 34.949 12.061 35.4851C12.53 35.9542 13.0661 36.3898 13.6023 36.8254C16.2494 38.8023 19.4326 39.841 22.7163 39.841C26 39.841 29.1832 38.8023 31.8302 36.8254C32.3663 36.4233 32.9024 35.9542 33.3716 35.4851C33.9077 34.949 34.4438 34.3793 34.9129 33.7427C35.248 33.3071 35.5496 32.8715 35.8176 32.4024C35.9851 32.2014 36.0186 31.9668 35.9181 31.7658Z" fill="#2D2D2D"/>
</svg>
