<svg width="29" height="30" viewBox="0 0 29 30" fill="none" xmlns="http://www.w3.org/2000/svg">
<path d="M24.6896 5.06266C21.9725 2.26556 18.6529 0.846924 14.824 0.846924C10.9595 0.846924 7.63056 2.26716 4.92894 5.06427C2.22265 7.86137 0.850098 11.3091 0.850098 15.3064C0.850098 19.2667 2.2211 22.7016 4.92428 25.5148C7.62746 28.336 10.9579 29.7658 14.824 29.7658C18.6545 29.7658 21.974 28.336 24.6927 25.5196C27.4177 22.7032 28.798 19.2667 28.798 15.3064C28.798 11.3091 27.4161 7.86137 24.6896 5.06266ZM22.4973 23.2478C20.7319 25.0778 18.715 26.1205 16.3767 26.437V18.5196H19.482V15.3064H16.3767V13.0571C16.3767 12.9304 16.4008 12.8049 16.4478 12.6879C16.4947 12.5708 16.5634 12.4645 16.6501 12.3749C16.7368 12.2854 16.8397 12.2144 16.9529 12.1661C17.0661 12.1177 17.1874 12.093 17.3098 12.0932H19.482V8.87996H17.313C16.1609 8.87996 15.1998 9.31856 14.4297 10.2006C13.6595 11.0794 13.2714 12.1526 13.2714 13.4267V15.3064H10.1661V18.5196H13.2714V26.4402C10.9082 26.1269 8.88356 25.0826 7.1275 23.2527C4.9926 21.0291 3.95542 18.4296 3.95542 15.3064C3.95542 12.1478 4.99104 9.54188 7.12595 7.33761C9.25309 5.13174 11.7715 4.06014 14.824 4.06014C17.844 4.06014 20.3546 5.13335 22.5019 7.34243C24.6493 9.5467 25.6927 12.1526 25.6927 15.3064C25.6927 18.4248 24.6477 21.0243 22.4973 23.2478Z" fill="#BCB5B5"/>
</svg>
