<svg width="82" height="48" viewBox="0 0 82 48" fill="none" xmlns="http://www.w3.org/2000/svg">
<rect width="82" height="48" fill="#A6CE39"/>
<rect x="6.58154" y="33.2144" width="26.4539" height="4.99684" fill="#2D2D2D"/>
<rect x="6.63281" y="8.84155" width="30.7788" height="18.4673" fill="#2D2D2D"/>
<path d="M43.8189 8.28204C43.4506 8.28204 43.0973 8.42805 42.8369 8.68796C42.5765 8.94787 42.4302 9.30038 42.4302 9.66794C42.4302 10.0355 42.5765 10.388 42.8369 10.6479C43.0973 10.9078 43.4506 11.0538 43.8189 11.0538H46.9018L50.5457 25.6058C50.8554 26.8392 51.9622 27.6846 53.2357 27.6846H70.5528C71.8067 27.6846 72.8719 26.8531 73.201 25.6473L76.8005 12.4397H73.8926L70.5514 24.9128H53.2343L49.5917 10.3609C49.4412 9.76388 49.0944 9.23454 48.6067 8.85762C48.119 8.48071 47.5186 8.27803 46.9018 8.28204H43.8189ZM68.8155 27.6846C66.5311 27.6846 64.6494 29.5625 64.6494 31.8423C64.6494 34.1221 66.5311 36 68.8155 36C71.0999 36 72.9816 34.1221 72.9816 31.8423C72.9816 29.5625 71.0999 27.6846 68.8155 27.6846ZM56.3172 27.6846C54.0328 27.6846 52.1511 29.5625 52.1511 31.8423C52.1511 34.1221 54.0328 36 56.3172 36C58.6016 36 60.4833 34.1221 60.4833 31.8423C60.4833 29.5625 58.6016 27.6846 56.3172 27.6846ZM56.3172 30.4564C57.1004 30.4564 57.7059 31.0607 57.7059 31.8423C57.7059 32.624 57.1004 33.2282 56.3172 33.2282C55.534 33.2282 54.9285 32.624 54.9285 31.8423C54.9285 31.0607 55.534 30.4564 56.3172 30.4564ZM68.8155 30.4564C69.5987 30.4564 70.2042 31.0607 70.2042 31.8423C70.2042 32.624 69.5987 33.2282 68.8155 33.2282C68.0323 33.2282 67.4268 32.624 67.4268 31.8423C67.4268 31.0607 68.0323 30.4564 68.8155 30.4564Z" fill="#2D2D2D"/>
<rect x="50.7456" y="14.6572" width="23.006" height="2.49462" fill="#2D2D2D"/>
<rect x="57.1206" y="25.1899" width="9.42413" height="2.49462" transform="rotate(-90 57.1206 25.1899)" fill="#2D2D2D"/>
<rect x="65.1589" y="25.1899" width="9.42413" height="2.49462" transform="rotate(-90 65.1589 25.1899)" fill="#2D2D2D"/>
</svg>
