<svg width="151" height="35" viewBox="0 0 151 35" fill="none" xmlns="http://www.w3.org/2000/svg">
<path d="M108.633 17.1436C108.633 7.05724 102.909 0.569824 93.7647 0.569824H83.9623V6.23593L85.9319 11.699V2.36932H93.5293C101.549 2.36932 106.567 8.09772 106.567 17.1436C106.567 26.2819 101.549 31.9664 93.5293 31.9664H93.2368L93.8675 33.7152C102.95 33.6667 108.633 27.2393 108.633 17.1436Z" fill="#BCB5B5"/>
<path d="M68.1757 0.569824L61.6499 17.0444L62.6416 19.7944L69.2542 2.79382L76.8996 22.4476H63.5967L64.2456 24.247H77.6033L81.3072 33.7175H83.4665L70.3327 0.569824H68.1757Z" fill="#BCB5B5"/>
<path d="M41.3962 18.9408L50.6364 33.7175H52.9351L43.4595 18.6594C48.1961 17.4759 50.9632 14.4929 50.9632 9.85107C50.9632 4.02809 46.6469 0.569824 39.2849 0.569824H29.9052V6.63274L31.8748 12.0958V2.36701H39.0975C45.5684 2.36701 48.9936 5.16315 48.9936 9.84877C48.9936 14.4421 45.5684 17.2844 39.0975 17.2844H33.7439L34.3928 19.0839H38.1104C39.2849 19.0862 40.3656 19.0377 41.3962 18.9408Z" fill="#BCB5B5"/>
<path d="M10.6775 1.7995C15.3685 1.7995 18.8393 3.64513 21.5584 7.71938L23.199 6.67659C20.4799 2.36934 16.1636 0 10.6318 0C6.23102 0 2.5637 1.81334 0 4.87248L0.774593 7.02034C3.03211 3.72357 6.50978 1.7995 10.6775 1.7995Z" fill="#C4C4C4"/>
<path d="M23.1052 29.0272V16.906H11.5686V18.7055H21.1356V28.2705C19.0243 30.9213 14.9457 32.4832 11.2853 32.4832C10.8237 32.4832 10.3713 32.4601 9.9303 32.4209L10.5952 34.2665C10.8077 34.2735 11.0202 34.2827 11.2373 34.2827C15.6015 34.285 20.3382 32.5339 23.1052 29.0272Z" fill="#C4C4C4"/>
<path d="M118.677 24.556L116.299 18.2785H116.26C116.305 18.7769 116.326 19.3675 116.326 20.0504V24.556H115.572V17.4734H116.801L119.022 23.3148H119.061L121.3 17.4734H122.518V24.556H121.703V19.9927C121.703 19.469 121.725 18.9015 121.769 18.2878H121.73L119.331 24.556H118.677Z" fill="#C4C4C4"/>
<path d="M129.09 24.556H125.18V17.4734H129.09V18.2047H125.996V20.4864H128.902V21.2131H125.996V23.8201H129.09V24.556Z" fill="#C4C4C4"/>
<path d="M136.98 20.9478C136.98 22.1175 136.664 23.0103 136.036 23.6286C135.408 24.2469 134.503 24.556 133.324 24.556H131.382V17.4734H133.532C134.622 17.4734 135.469 17.7779 136.075 18.3893C136.678 19.0007 136.98 19.852 136.98 20.9478ZM136.116 20.9755C136.116 20.0527 135.887 19.3559 135.428 18.8876C134.969 18.4193 134.288 18.1863 133.381 18.1863H132.195V23.8431H133.189C134.16 23.8431 134.891 23.6009 135.38 23.1187C135.871 22.6366 136.116 21.9214 136.116 20.9755Z" fill="#C4C4C4"/>
<path d="M139.281 24.556V17.4734H140.096V24.556H139.281Z" fill="#C4C4C4"/>
<path d="M147.166 24.5561L146.293 22.3044H143.483L142.619 24.5561H141.794L144.568 17.4458H145.253L148.011 24.5561H147.166ZM146.039 21.5616L145.224 19.3676C145.119 19.0907 145.009 18.7493 144.897 18.3455C144.826 18.6547 144.726 18.9961 144.595 19.3676L143.77 21.5616H146.039Z" fill="#C4C4C4"/>
<path d="M118.657 30.3144H121.042V33.7588C120.672 33.8788 120.293 33.9687 119.909 34.031C119.525 34.0933 119.079 34.1233 118.574 34.1233C117.512 34.1233 116.687 33.8049 116.095 33.1659C115.503 32.5268 115.209 31.634 115.209 30.4851C115.209 29.7492 115.355 29.1032 115.647 28.5495C115.94 27.9958 116.363 27.5736 116.911 27.2806C117.462 26.9876 118.106 26.8423 118.844 26.8423C119.594 26.8423 120.29 26.9807 120.935 27.2576L120.619 27.9843C119.987 27.712 119.376 27.5782 118.792 27.5782C117.937 27.5782 117.27 27.8343 116.79 28.3488C116.31 28.8633 116.07 29.5738 116.07 30.4851C116.07 31.4402 116.301 32.1669 116.763 32.6607C117.224 33.1544 117.903 33.4012 118.798 33.4012C119.285 33.4012 119.76 33.3458 120.224 33.2328V31.0526H118.654V30.3144H118.657Z" fill="#C4C4C4"/>
<path d="M124.278 31.0804V34.0265H123.462V26.9438H125.386C126.247 26.9438 126.882 27.11 127.294 27.4422C127.705 27.7744 127.911 28.275 127.911 28.9441C127.911 29.8807 127.44 30.5129 126.501 30.8428L128.404 34.0242H127.44L125.742 31.0781H124.278V31.0804ZM124.278 30.3721H125.395C125.971 30.3721 126.393 30.2568 126.661 30.0261C126.928 29.7954 127.063 29.4493 127.063 28.9879C127.063 28.5196 126.926 28.1827 126.654 27.9751C126.38 27.7675 125.941 27.666 125.338 27.666H124.278V30.3721Z" fill="#C4C4C4"/>
<path d="M136.36 30.4737C136.36 31.6065 136.077 32.4993 135.508 33.1476C134.939 33.7959 134.151 34.1212 133.141 34.1212C132.108 34.1212 131.311 33.8028 130.749 33.1638C130.186 32.527 129.908 31.625 129.908 30.4622C129.908 29.3087 130.189 28.4159 130.753 27.7814C131.315 27.147 132.115 26.8286 133.152 26.8286C134.16 26.8286 134.946 27.1516 135.513 27.7976C136.077 28.4459 136.36 29.3387 136.36 30.4737ZM130.771 30.4737C130.771 31.4335 130.972 32.1602 131.379 32.6562C131.784 33.1522 132.371 33.3991 133.143 33.3991C133.92 33.3991 134.507 33.1522 134.905 32.6585C135.302 32.1648 135.499 31.4358 135.499 30.4737C135.499 29.5209 135.302 28.7988 134.907 28.3051C134.512 27.8137 133.927 27.5669 133.155 27.5669C132.378 27.5669 131.786 27.816 131.382 28.3097C130.977 28.8034 130.771 29.5279 130.771 30.4737Z" fill="#C4C4C4"/>
<path d="M143.958 26.9438V31.5256C143.958 32.3331 143.716 32.9675 143.233 33.429C142.751 33.8904 142.086 34.1211 141.243 34.1211C140.4 34.1211 139.747 33.8881 139.283 33.4243C138.821 32.9583 138.59 32.3193 138.59 31.5072V26.9438H139.406V31.5649C139.406 32.1555 139.566 32.61 139.886 32.926C140.206 33.2421 140.677 33.4013 141.296 33.4013C141.888 33.4013 142.342 33.2421 142.662 32.9237C142.982 32.6053 143.142 32.1485 143.142 31.5556V26.9438H143.958Z" fill="#C4C4C4"/>
<path d="M151 29.0065C151 29.724 150.758 30.2753 150.273 30.6606C149.789 31.0459 149.094 31.2397 148.194 31.2397H147.369V34.0243H146.554V26.9417H148.372C150.123 26.944 151 27.6315 151 29.0065ZM147.367 30.5314H148.1C148.822 30.5314 149.346 30.4138 149.67 30.1784C149.992 29.9431 150.155 29.5648 150.155 29.0457C150.155 28.5773 150.001 28.229 149.7 27.9983C149.396 27.7699 148.923 27.6545 148.281 27.6545H147.369V30.5314H147.367Z" fill="#C4C4C4"/>
</svg>
