<svg width="286" height="321" viewBox="0 0 286 321" fill="none" xmlns="http://www.w3.org/2000/svg">
<path d="M0 0H286V321H0V0Z" fill="url(#paint0_radial)"/>
<path d="M15.6041 290.309C16.0758 255.977 71.2921 241.191 77.2546 239.218C83.2171 237.246 89.1796 231.723 92.3597 231.723C94.9037 231.723 95.5397 227.252 95.5397 225.016L107.862 215.943L110.247 200.163C110.247 197.928 109.77 192.983 107.862 191.09C105.954 189.196 104.682 182.411 104.285 179.255C102.827 179.65 99.3557 179.729 97.1297 176.888C94.3472 173.338 94.3472 167.026 93.9497 165.842C93.5522 164.659 89.0504 155.255 88.2494 153.451C86.6726 149.901 87.1047 143.18 91.0797 143.575C94.2597 143.89 98.1897 144.934 98.3222 145.329L97.5272 139.017C97.6597 138.754 97.8452 138.07 97.5272 137.439C97.1297 136.65 96.7322 137.044 96.7322 135.466V131.916C96.7322 130.732 98.3222 126.393 97.5272 125.604C96.7322 124.815 96.3347 124.815 95.9372 122.843C95.5397 120.87 95.1422 120.476 95.5397 119.687C95.9372 118.898 95.5397 118.503 95.5397 117.32C95.5397 116.136 96.7322 104.301 97.5272 103.118C98.3222 101.934 105.08 92.8611 105.477 92.0722C105.875 91.2832 109.055 90.8887 110.247 90.0997C111.44 89.3107 113.03 88.5217 113.825 88.9162C114.62 89.3107 116.607 88.1273 116.607 87.3383C116.607 86.5493 124.16 75.109 126.147 73.531C128.135 71.9531 129.725 70.3751 132.11 69.5861C134.018 68.9549 144.565 68.7971 149.6 68.7971C147.215 69.3231 142.604 70.3751 143.24 70.3751C144.035 70.3751 157.55 68.7971 158.345 69.5861C159.14 70.3751 164.705 71.5586 164.307 71.9531C163.91 72.3476 163.512 73.531 166.692 73.531C169.872 73.531 169.872 75.109 171.065 75.109C172.257 75.109 173.052 75.898 173.847 76.2925C174.642 76.687 175.437 77.476 176.63 77.8705C177.822 78.2649 177.822 78.6594 179.81 79.0539C181.797 79.4484 189.35 85.7603 190.94 86.1548C192.53 86.5493 197.697 91.2831 198.89 92.0722C200.082 92.8612 201.275 95.2281 202.865 97.5951C204.137 99.4887 205.25 101.54 205.647 102.329L207.237 107.063C206.972 107.72 206.442 109.351 206.442 110.613C206.442 111.876 204.852 109.824 204.057 108.641C203.792 109.693 203.262 111.876 203.262 112.191C203.262 112.586 204.057 113.769 202.865 112.98C201.672 112.191 200.877 114.164 200.877 115.347C200.877 116.531 200.48 118.898 200.082 120.476C199.764 121.738 199.95 124.421 200.082 125.604C200.215 125.999 200.321 126.945 199.685 127.577C198.89 128.366 198.89 131.127 198.89 131.521C198.89 131.916 198.492 135.861 198.095 137.439C197.697 139.017 198.095 140.595 198.095 141.778C198.095 142.962 197.697 145.723 197.3 146.512C196.982 147.143 197.167 148.879 197.3 149.668C199.155 149.011 205.011 146.7 205.647 148.278C206.442 150.25 206.442 153.284 205.647 154.862C204.057 158.018 200.48 165.842 200.082 167.815C199.685 169.787 197.3 179.65 195.71 180.833C194.12 182.017 191.735 184.384 190.94 184.384C190.304 184.384 188.555 183.595 187.76 183.2C185.905 189.512 181.797 202.451 180.207 203.714C178.617 204.976 177.69 215.285 177.425 220.282C180.207 222.649 186.408 228.172 188.952 231.328C190.992 233.858 191.294 234.529 191.129 234.56L226.317 248.686C231.087 250.527 241.343 254.603 244.205 256.181C247.782 258.154 255.335 264.466 256.925 265.649C258.197 266.596 270.776 273.932 277.41 305.57V307.611V320.878H9L15.6041 290.309Z" fill="#393939"/>
<path d="M110.23 139.704L104.084 121.837C97.3083 114.628 83.567 98.9868 82.8106 94.097C81.8651 87.9848 71.6954 68.7077 85.8778 55.5429C84.6115 60.0083 87.3431 68.9906 88.9071 73.5067C87.2043 67.1887 86.1704 50.7492 112.825 33.4448L104.084 46.6096C108.181 41.1243 132.207 29.7774 135.989 28.2729C138.234 27.3801 134.511 31.4677 129.982 36.0081C135.806 30.9585 142.733 25.9107 147.577 25.4519C155.519 24.6996 155.929 27.0191 155.141 28.2729H158.923C160.972 27.3325 165.541 25.4519 167.432 25.4519C169.323 25.4519 176.415 21.6905 179.724 19.8098C179.094 23.4145 183.464 25.8076 175.785 33.4448C172.948 36.2658 169.639 40.4974 169.639 40.4974C176.415 33.4448 190.124 25.4519 199.579 25.4519H217.544L196.743 49.4307C206.124 38.6167 219.278 37.2062 217.544 38.6167C216.08 39.8074 209.98 49.1172 206.198 55.5429C209.192 55.0727 215.049 55.5429 219.278 55.5429C224.866 55.5429 217.386 57.2669 213.762 61.185C210.61 64.9464 186.573 69.6481 213.762 65.8867C220.905 64.8985 224.866 63.0657 224.866 63.0657L217.544 78.5813L231.484 69.6481C229.121 74.6632 220.569 92.6865 217.544 98.3286C214.518 103.971 189.095 127.009 186.573 139.704C155.608 141.428 112.688 146.85 110.23 139.704Z" fill="#393939"/>
<path fill-rule="evenodd" clip-rule="evenodd" d="M180.413 18.8313L180.227 19.8978C180.088 20.6893 180.22 21.4274 180.419 22.2697C180.446 22.382 180.473 22.4964 180.502 22.613C180.682 23.3522 180.883 24.1791 180.908 25.1015C180.967 27.302 180.035 29.9374 176.145 33.8067C175.599 34.3498 175.034 34.9467 174.478 35.5563C177.154 33.5097 180.206 31.5466 183.366 29.8787C188.852 26.9834 194.73 24.9416 199.579 24.9416H218.662L202.63 43.423C205.632 41.2967 208.625 39.8644 211.138 38.9595C213.29 38.185 215.108 37.7902 216.298 37.6825C216.597 37.6554 216.864 37.6457 217.091 37.6544C217.31 37.6627 217.525 37.6889 217.703 37.7521C217.842 37.8013 218.188 37.9604 218.209 38.3602C218.218 38.5384 218.151 38.6821 218.087 38.7768C218.024 38.872 217.943 38.9499 217.866 39.0126C217.725 39.1268 217.498 39.3679 217.185 39.7471C216.879 40.1179 216.512 40.5959 216.097 41.1621C215.266 42.2939 214.253 43.7629 213.165 45.3993C211.185 48.3765 208.966 51.8946 207.161 54.9181C208.603 54.7989 210.413 54.81 212.288 54.8565C213.102 54.8767 213.93 54.9037 214.75 54.9304C216.333 54.982 217.89 55.0327 219.278 55.0327C219.981 55.0327 220.511 55.0592 220.879 55.1216C221.059 55.1521 221.239 55.1972 221.389 55.2746C221.535 55.3502 221.752 55.5123 221.789 55.81C221.823 56.0787 221.684 56.2836 221.598 56.3871C221.502 56.5043 221.375 56.6107 221.248 56.7049C220.99 56.8957 220.631 57.1092 220.226 57.3386C220.023 57.4536 219.805 57.5748 219.576 57.7025C217.926 58.6201 215.676 59.8718 214.144 61.523C213.682 62.0701 212.889 62.5895 211.981 63.0719C211.052 63.5655 209.942 64.0508 208.799 64.5091C207.654 64.968 206.467 65.4039 205.382 65.7972C205.193 65.8656 205.008 65.9326 204.826 65.9982C204.115 66.2555 203.464 66.4906 202.914 66.6997C204.789 66.556 208.173 66.1448 213.692 65.3813C217.234 64.8913 219.983 64.1925 221.842 63.6181C222.771 63.331 223.478 63.0749 223.951 62.8918C224.187 62.8002 224.365 62.7268 224.482 62.6769C224.54 62.6519 224.584 62.6328 224.612 62.6202L224.643 62.6063L224.65 62.6031L224.652 62.6026L225.927 62.0123L218.763 77.1943L232.702 68.2619L231.946 69.8657C229.585 74.8744 221.027 92.913 217.993 98.5698C217.589 99.3244 216.831 100.336 215.841 101.531C214.844 102.735 213.586 104.154 212.161 105.731C211.29 106.695 210.356 107.718 209.378 108.789C207.152 111.227 204.7 113.913 202.253 116.708C198.733 120.728 195.239 124.957 192.47 128.967C189.693 132.989 187.683 136.737 187.074 139.803L186.997 140.191L186.602 140.213C179.574 140.605 171.93 141.186 164.277 141.769C163.507 141.828 162.736 141.886 161.966 141.945C153.55 142.584 145.198 143.201 137.735 143.54C130.277 143.879 123.684 143.942 118.792 143.469C116.349 143.233 114.301 142.86 112.772 142.306C111.268 141.761 110.134 140.992 109.748 139.87L103.637 122.107C100.243 118.492 95.1479 112.813 90.793 107.418C88.6 104.701 86.5885 102.048 85.0754 99.7622C84.3189 98.6195 83.6823 97.5615 83.2089 96.628C82.7397 95.7028 82.4133 94.8664 82.3064 94.1751C82.1367 93.0785 81.659 91.5415 81.0661 89.634C80.8581 88.9648 80.636 88.2501 80.408 87.4928C79.5405 84.6114 78.614 81.1846 78.1648 77.5269C77.2654 70.2038 78.2766 61.9025 85.5307 55.169L86.8657 53.9297L86.3687 55.6822C85.7735 57.7813 86.11 61.0308 86.8301 64.3992C87.0732 65.5361 87.3571 66.6746 87.6567 67.7706C87.652 64.8579 88.1659 61.3377 89.759 57.4042C92.6681 50.2214 99.1555 41.7107 112.547 33.0169L113.25 33.7271L106.837 43.3861C107.771 42.6843 108.838 41.9545 109.99 41.2129C112.894 39.3434 116.414 37.3563 119.916 35.4978C126.915 31.7831 133.885 28.5608 135.801 27.7988C135.957 27.7365 136.108 27.6878 136.246 27.6615C136.374 27.6372 136.55 27.6203 136.725 27.6793C136.941 27.7524 137.101 27.9243 137.154 28.1514C137.196 28.3338 137.157 28.5052 137.121 28.6206C137.045 28.8601 136.883 29.136 136.69 29.4185C136.49 29.7117 136.229 30.0517 135.92 30.4274C135.804 30.5682 135.68 30.7149 135.55 30.8671C136.66 30.0492 137.774 29.2775 138.873 28.578C141.952 26.6185 144.981 25.1853 147.529 24.9439C149.537 24.7537 151.089 24.7555 152.279 24.8921C153.463 25.0281 154.32 25.3013 154.909 25.6813C155.513 26.0704 155.839 26.5768 155.914 27.129C155.944 27.3477 155.932 27.5609 155.891 27.7627H158.812C159.852 27.2887 161.466 26.6041 163.064 26.0296C163.89 25.7328 164.718 25.4631 165.463 25.267C166.2 25.0732 166.892 24.9416 167.432 24.9416C167.599 24.9416 167.863 24.8978 168.231 24.7952C168.59 24.6947 169.018 24.5468 169.5 24.3592C170.465 23.9843 171.618 23.462 172.824 22.8771C175.234 21.7078 177.824 20.3028 179.472 19.3662L180.413 18.8313ZM129.633 35.6348C126.571 38.2909 123.814 40.9451 121.823 42.9355C120.825 43.9324 120.019 44.7635 119.462 45.3457C119.184 45.6369 118.968 45.8658 118.821 46.0222C118.747 46.1004 118.691 46.1604 118.653 46.2011L118.61 46.2473L118.596 46.2631C118.596 46.2631 118.595 46.2634 118.97 46.6097L118.596 46.2631L119.318 46.9834L118.97 46.6097C119.318 46.9834 119.318 46.9835 119.318 46.9834L119.319 46.9823L119.586 46.7332C119.76 46.5706 120.014 46.3327 120.335 46.0317C120.977 45.4297 121.884 44.5747 122.948 43.5625C125.072 41.5422 127.823 38.8941 130.33 36.3817C133.229 33.8693 136.39 31.3677 139.421 29.439C142.472 27.4975 145.329 26.1774 147.625 25.9599C149.589 25.774 151.066 25.7801 152.162 25.906C153.264 26.0325 153.949 26.2764 154.356 26.5391C154.75 26.7926 154.874 27.0541 154.903 27.2659C154.934 27.4972 154.862 27.7577 154.709 28.0015L154.218 28.7833H159.035L159.136 28.7367C160.15 28.2713 161.791 27.5719 163.409 26.99C164.219 26.6991 165.016 26.4399 165.723 26.254C166.439 26.0657 167.027 25.9622 167.432 25.9622C167.739 25.9622 168.11 25.8885 168.505 25.7781C168.908 25.6655 169.37 25.5049 169.87 25.3104C170.871 24.9213 172.052 24.3857 173.269 23.7953C175.332 22.7945 177.52 21.6254 179.151 20.7174C179.168 21.3452 179.292 21.9366 179.426 22.5045C179.455 22.6262 179.484 22.7467 179.513 22.8664C179.693 23.6093 179.866 24.3231 179.888 25.1289C179.936 26.9354 179.214 29.3151 175.425 33.0831C173.99 34.51 172.442 36.287 171.257 37.7013C170.664 38.4097 170.159 39.0295 169.803 39.4724C169.625 39.6938 169.484 39.8711 169.387 39.9933C169.338 40.0543 169.301 40.1016 169.276 40.1337L169.247 40.1703L169.238 40.1822L169.237 40.183C169.237 40.1831 169.237 40.1831 169.639 40.4975L169.237 40.183L170.007 40.851C173.35 37.3712 178.425 33.6407 183.843 30.7813C189.27 27.9169 194.973 25.9622 199.579 25.9622H216.426L196.357 49.0964L197.128 49.7651C197.133 49.7602 197.137 49.7552 197.141 49.7503C201.76 44.4323 207.307 41.4237 211.484 39.9197C213.577 39.1661 215.309 38.7968 216.39 38.6989C216.526 38.6866 216.649 38.6788 216.761 38.6749C216.646 38.8018 216.524 38.9439 216.397 39.0977C216.075 39.489 215.695 39.9839 215.274 40.5584C214.431 41.7078 213.408 43.1911 212.315 44.8342C210.13 48.1208 207.654 52.0626 205.758 55.2841L205.21 56.2145L206.277 56.0471C207.721 55.8203 209.888 55.8178 212.262 55.8768C213.058 55.8965 213.876 55.9231 214.693 55.9497C216.287 56.0016 217.875 56.0532 219.278 56.0532C219.726 56.0532 220.076 56.0646 220.342 56.0854C220.172 56.1925 219.965 56.3137 219.723 56.4508C219.531 56.5597 219.32 56.6768 219.094 56.802C217.456 57.7111 215.04 59.052 213.387 60.8385L213.379 60.8477L213.371 60.8573C213.044 61.2468 212.4 61.6937 211.502 62.1706C210.62 62.6394 209.548 63.1092 208.419 63.5618C207.291 64.0139 206.118 64.4449 205.034 64.8377C204.848 64.9051 204.664 64.9715 204.484 65.0367C203.618 65.3498 202.826 65.636 202.198 65.8817C201.819 66.0301 201.489 66.1679 201.232 66.2915C201.103 66.3533 200.985 66.4153 200.885 66.477C200.794 66.5336 200.682 66.6107 200.596 66.7105C200.523 66.7954 200.335 67.0644 200.501 67.383C200.568 67.5121 200.668 67.5874 200.739 67.6287C200.811 67.6708 200.884 67.6962 200.944 67.7126C201.162 67.7726 201.481 67.7854 201.858 67.7781C203.416 67.748 207.047 67.3308 213.832 66.3922C217.433 65.894 220.236 65.1824 222.143 64.5932C222.83 64.3809 223.401 64.1845 223.851 64.0197L216.325 79.9685L230.265 71.0358C227.199 77.5179 219.847 92.954 217.094 98.0875C216.742 98.7434 216.044 99.6861 215.055 100.88C214.072 102.066 212.827 103.472 211.404 105.046C210.539 106.004 209.609 107.023 208.633 108.091C206.404 110.533 203.939 113.233 201.485 116.035C197.956 120.066 194.432 124.33 191.631 128.387C188.947 132.273 186.891 136.018 186.156 139.216C179.225 139.608 171.71 140.18 164.2 140.751C163.429 140.81 162.658 140.869 161.888 140.927C153.471 141.566 145.134 142.182 137.688 142.52C130.238 142.859 123.706 142.919 118.89 142.453C116.48 142.22 114.53 141.857 113.12 141.347C111.685 140.827 110.941 140.202 110.713 139.538L104.531 121.568L104.456 121.488C101.074 117.889 95.9538 112.187 91.5872 106.777C89.4033 104.071 87.4142 101.446 85.9264 99.1989C85.1823 98.0749 84.5685 97.0525 84.1191 96.1664C83.6656 95.2722 83.3971 94.5502 83.3149 94.0191C83.1327 92.8413 82.6201 91.1926 82.0169 89.2528C81.8136 88.5989 81.6 87.9118 81.3852 87.1986C80.5231 84.3351 79.6163 80.9737 79.1777 77.4025C78.3514 70.6741 79.1893 63.2475 85.0985 57.0296C84.8965 59.2243 85.2632 61.9516 85.8321 64.6125C86.5566 68.0015 87.6345 71.3899 88.4191 73.657C88.6597 74.5465 88.9135 75.2419 89.1093 75.7188C89.2079 75.9589 89.2918 76.1437 89.3519 76.2702C89.382 76.3335 89.4062 76.3822 89.4233 76.416C89.4319 76.4329 89.4387 76.446 89.4435 76.4554L89.4494 76.4666L89.4513 76.47L89.4519 76.4712C89.452 76.4713 89.4524 76.4721 89.9019 76.2305L89.4519 76.4712L90.3762 76.0432L90.372 76.0318L90.3582 75.9964C90.3459 75.9649 90.3276 75.9178 90.3038 75.8559C90.2562 75.7321 90.1865 75.5494 90.0988 75.3147C89.9247 74.8485 89.6796 74.1775 89.3952 73.3568C88.5687 70.2791 87.8995 64.7142 90.7049 57.7873C93.3634 51.2232 99.1604 43.3909 110.994 35.2788L103.659 46.3274L104.493 46.915C105.455 45.627 107.649 43.9332 110.542 42.0711C113.413 40.2233 116.905 38.2512 120.394 36.3993C126.979 32.9045 133.52 29.8568 135.81 28.8979C135.638 29.1454 135.41 29.4408 135.132 29.7788C133.935 31.233 131.893 33.3693 129.633 35.6348ZM217.376 38.7196C217.376 38.7196 217.373 38.7185 217.368 38.716C217.374 38.7183 217.376 38.7195 217.376 38.7196Z" fill="#393939"/>
<path d="M140.036 181.799L137.546 161.628L138.169 161.006C153.525 160.424 161.203 155.693 161.203 146.811C161.203 143.242 159.917 140.378 157.343 138.22C154.77 136.062 151.284 134.983 146.885 134.983C139.497 134.983 132.732 138.262 126.589 144.819L117.251 134.858C125.386 125.644 135.388 121.038 147.258 121.038C156.057 121.038 163.112 123.362 168.425 128.01C173.737 132.576 176.394 138.76 176.394 146.562C176.394 153.95 174.111 159.677 169.545 163.745C164.98 167.729 158.921 170.385 151.367 171.713L150.122 181.799H140.036ZM136.426 209.316V192.258H153.11V209.316H136.426Z" fill="#C1C1C1"/>
<defs>
<radialGradient id="paint0_radial" cx="0" cy="0" r="1" gradientUnits="userSpaceOnUse" gradientTransform="translate(143 160.5) rotate(90) scale(160.5 143)">
<stop offset="0.0104167" stop-color="#686868"/>
<stop offset="1" stop-color="#777777"/>
</radialGradient>
</defs>
</svg>
