<svg width="82" height="48" viewBox="0 0 82 48" fill="none" xmlns="http://www.w3.org/2000/svg">
<rect width="82" height="48" fill="#A6CE39"/>
<path d="M33.7291 9C29.5071 9 26.0559 12.4512 26.0559 16.6732C26.0559 20.8951 29.5071 24.3463 33.7291 24.3463C37.951 24.3463 41.4022 20.8951 41.4022 16.6732C41.4022 12.4512 37.951 9 33.7291 9Z" fill="#2D2D2D"/>
<path d="M46.8973 30.4782C46.6962 29.9756 46.4282 29.5065 46.1267 29.0709C44.5853 26.7923 42.2064 25.2845 39.5258 24.9159C39.1907 24.8825 38.8221 24.9494 38.5541 25.1505C37.1467 26.1892 35.4714 26.7253 33.729 26.7253C31.9866 26.7253 30.3113 26.1892 28.9039 25.1505C28.6359 24.9494 28.2673 24.8489 27.9322 24.9159C25.2516 25.2845 22.8391 26.7923 21.3313 29.0709C21.0298 29.5065 20.7617 30.0091 20.5607 30.4782C20.4602 30.6792 20.4937 30.9138 20.5942 31.1148C20.8623 31.5839 21.1973 32.0531 21.4989 32.4551C21.9679 33.0918 22.4706 33.6614 23.0402 34.1975C23.5093 34.6666 24.0454 35.1022 24.5816 35.5378C27.2286 37.5147 30.4118 38.5534 33.6955 38.5534C36.9792 38.5534 40.1624 37.5147 42.8095 35.5378C43.3456 35.1357 43.8817 34.6666 44.3508 34.1975C44.8869 33.6614 45.423 33.0917 45.8922 32.4551C46.2272 32.0195 46.5289 31.5839 46.7969 31.1148C46.9643 30.9138 46.9978 30.6792 46.8973 30.4782Z" fill="#2D2D2D"/>
<path d="M20.5 30.5001L29.6096 35.5001C29.1458 35.732 28.4117 36.0567 27.5 36.3984C25 37.7967 16.5 39 16 38.5C15.5033 38.0033 12.539 29.5679 12.5004 27.987C11.4621 27.9419 9.61787 27.7795 8.5 27.5L3 24.5C3 23.5 5.7 24.1 6.5 24.5C6.95793 24.729 8.52988 25.0525 10.1656 25.3425C10.2736 25.1744 10.4107 25.0559 10.5 25C9.66667 24.3333 8.1 23 8.5 23C8.9 23 11.6667 24.3333 13 25C13.3259 25.2444 13.7634 25.6323 14.0319 26.0116C15.2346 26.4781 17.174 30.8525 18 33.0001L20.5 30.5001Z" fill="#2D2D2D"/>
<path d="M45.6096 29.5001L36.5 34.5001C36.9638 34.732 37.6979 35.0567 38.6096 35.3984C41.1096 36.7967 49.6096 38 50.1096 37.5C50.6064 37.0033 53.5706 28.5679 53.6092 26.987C54.6476 26.9419 56.4918 26.7795 57.6096 26.5L63.1096 23.5C63.1096 22.5 60.4096 23.1 59.6096 23.5C59.1517 23.729 57.5797 24.0525 55.9441 24.3425C55.836 24.1744 55.6989 24.0559 55.6096 24C56.443 23.3333 58.0096 22 57.6096 22C57.2096 22 54.443 23.3333 53.1096 24C52.7837 24.2444 52.3463 24.6323 52.0777 25.0116C50.875 25.4781 48.9356 29.8525 48.1096 32.0001L45.6096 29.5001Z" fill="#2D2D2D"/>
<path d="M66.4191 28.2479L65.7175 22.5654L65.8929 22.3901C70.2191 22.2264 72.3822 20.8934 72.3822 18.3913C72.3822 17.3858 72.0197 16.579 71.2948 15.971C70.5698 15.363 69.5877 15.059 68.3483 15.059C66.2671 15.059 64.3612 15.9827 62.6308 17.8301L60 15.0239C62.2917 12.4282 65.1095 11.1304 68.4535 11.1304C70.9323 11.1304 72.92 11.7851 74.4166 13.0947C75.9132 14.3808 76.6615 16.123 76.6615 18.3211C76.6615 20.4024 76.0185 22.0159 74.7323 23.1618C73.4462 24.2842 71.7391 25.0325 69.6111 25.4067L69.2603 28.2479H66.4191ZM65.4018 35.9999V31.1944H70.1022V35.9999H65.4018Z" fill="#2D2D2D"/>
</svg>
