<svg xmlns="http://www.w3.org/2000/svg" width="721" height="712"><path fill="#afb2b2" d="M554.423 484.229c-9.537-2.801-18.537-1.815-25.345 2.777-6.808 4.592-11.095 12.568-12.07 22.46-.877 8.89 1.152 17.981 5.427 24.319 2.076 3.079 4.599 4.788 7.499 5.083 2.86.29 5.627-.825 8.325-2.644 2.87-1.937 5.665-4.672 8.41-7.36 2.398-2.348 4.663-4.566 6.656-5.91 1.72-1.16 4.45-2.346 7.338-3.6 6.75-2.933 14.4-6.257 16.126-12.172.82-2.812.197-5.777-1.85-8.812-4.274-6.337-11.943-11.624-20.515-14.142zm-22.705-34.823c-3.836-1.538-7.687-1.307-10.566.635-2.878 1.941-4.535 5.425-4.545 9.557-.01 3.797 1.324 7.873 3.757 11.48 2.432 3.607 5.713 6.37 9.236 7.784 3.836 1.538 7.686 1.306 10.564-.635 2.879-1.942 4.536-5.426 4.547-9.558.01-3.795-1.325-7.873-3.757-11.479-2.433-3.606-5.713-6.372-9.236-7.784zm-23.38 15.769c-3.836-1.538-7.686-1.307-10.565.635-2.879 1.942-4.535 5.425-4.546 9.557-.01 3.796 1.325 7.873 3.757 11.48 2.433 3.606 5.712 6.37 9.236 7.784 3.836 1.538 7.686 1.307 10.565-.635 2.879-1.941 4.535-5.425 4.546-9.558.009-3.796-1.324-7.872-3.757-11.48-2.432-3.606-5.713-6.37-9.236-7.783zM566 458.47c-2.554-2.115-5.51-2.91-8.319-2.24-2.26.538-4.22 2.027-5.516 4.191-1.786 2.982-2.218 6.942-1.186 10.867.845 3.206 2.582 6.026 4.892 7.938 2.555 2.115 5.51 2.91 8.319 2.24a8.302 8.302 0 002.72-1.2c1.103-.745 2.057-1.759 2.796-2.992 1.786-2.982 2.219-6.943 1.186-10.867-.844-3.206-2.581-6.026-4.892-7.938zm-59.7 42.954c-3.252-2.427-7.086-3.51-10.52-2.97-2.492.39-4.605 1.649-5.953 3.544-1.674 2.354-2.042 5.391-1.039 8.551.907 2.86 2.871 5.526 5.528 7.51 3.252 2.426 7.086 3.51 10.52 2.97 1.42-.222 2.717-.727 3.82-1.47a8.305 8.305 0 002.132-2.073c1.674-2.355 2.043-5.393 1.04-8.553-.908-2.858-2.87-5.525-5.529-7.51zM403.02 429.23c-9.536-2.8-18.537-1.814-25.345 2.778-6.807 4.592-11.094 12.568-12.07 22.46-.877 8.89 1.153 17.981 5.427 24.318 2.077 3.08 4.599 4.79 7.498 5.085 2.861.29 5.628-.825 8.326-2.646 2.871-1.936 5.665-4.67 8.41-7.358 2.398-2.349 4.664-4.567 6.656-5.91 1.72-1.161 4.449-2.347 7.337-3.601 6.75-2.933 14.402-6.257 16.127-12.172.82-2.813.198-5.777-1.85-8.813-4.274-6.337-11.943-11.623-20.515-14.14zm-22.706-34.822c-3.835-1.538-7.686-1.307-10.564.634-2.88 1.942-4.535 5.426-4.546 9.559-.01 3.795 1.324 7.872 3.757 11.479 2.433 3.606 5.712 6.37 9.236 7.784 3.836 1.538 7.686 1.306 10.565-.635 2.878-1.942 4.534-5.426 4.546-9.557.01-3.797-1.324-7.874-3.757-11.48-2.432-3.607-5.713-6.371-9.237-7.784zm-23.379 15.769c-3.836-1.538-7.686-1.307-10.565.635-2.878 1.942-4.535 5.426-4.546 9.557-.01 3.796 1.324 7.874 3.757 11.48 2.432 3.606 5.713 6.37 9.237 7.783 3.835 1.538 7.685 1.309 10.564-.634 2.879-1.941 4.536-5.425 4.546-9.558.01-3.796-1.324-7.872-3.757-11.48-2.433-3.606-5.713-6.37-9.236-7.783zm57.662-6.707c-2.554-2.113-5.509-2.91-8.318-2.239-2.261.54-4.22 2.028-5.516 4.192-1.786 2.981-2.22 6.943-1.186 10.867.844 3.206 2.58 6.026 4.892 7.937 2.554 2.115 5.509 2.91 8.318 2.24a8.302 8.302 0 002.72-1.2c1.103-.743 2.058-1.758 2.795-2.991 1.787-2.982 2.22-6.943 1.187-10.866-.844-3.206-2.582-6.027-4.892-7.94zm-59.7 42.956c-3.252-2.427-7.086-3.51-10.52-2.97-2.492.39-4.606 1.649-5.952 3.544-1.674 2.353-2.044 5.391-1.04 8.551.908 2.86 2.871 5.527 5.528 7.51 3.251 2.427 7.085 3.51 10.52 2.97 1.42-.222 2.718-.727 3.82-1.47a8.305 8.305 0 002.132-2.073c1.674-2.355 2.044-5.393 1.04-8.552-.908-2.859-2.871-5.526-5.528-7.51zm24.698-182.199c-9.537-2.8-18.538-1.814-25.345 2.778-6.808 4.592-11.095 12.568-12.07 22.46-.877 8.89 1.152 17.981 5.426 24.318 2.077 3.08 4.6 4.79 7.498 5.085 2.861.29 5.628-.825 8.327-2.645 2.87-1.937 5.665-4.672 8.41-7.36 2.398-2.348 4.663-4.566 6.656-5.91 1.72-1.16 4.449-2.346 7.337-3.6 6.75-2.933 14.402-6.257 16.126-12.172.82-2.812.198-5.777-1.85-8.812-4.274-6.338-11.943-11.624-20.514-14.142zm-22.706-34.822c-3.836-1.538-7.687-1.307-10.565.634-2.878 1.942-4.535 5.426-4.546 9.559-.01 3.796 1.324 7.872 3.757 11.48 2.433 3.605 5.712 6.37 9.236 7.783 3.836 1.538 7.687 1.306 10.565-.635 2.878-1.942 4.535-5.426 4.546-9.557.01-3.797-1.324-7.874-3.757-11.48-2.432-3.606-5.713-6.371-9.236-7.784zm-23.381 15.769c-3.835-1.538-7.684-1.307-10.564.635-2.878 1.942-4.535 5.426-4.546 9.557-.01 3.797 1.325 7.874 3.757 11.48 2.433 3.606 5.713 6.37 9.237 7.784 3.836 1.538 7.686 1.307 10.564-.634 2.88-1.942 4.536-5.426 4.547-9.559.008-3.796-1.325-7.872-3.758-11.48-2.432-3.605-5.712-6.37-9.236-7.783zm57.663-6.706c-2.553-2.114-5.509-2.91-8.318-2.24-2.261.54-4.22 2.029-5.516 4.192-1.786 2.981-2.218 6.942-1.186 10.867.844 3.206 2.58 6.026 4.892 7.937 2.554 2.116 5.509 2.91 8.319 2.24a8.302 8.302 0 002.72-1.2c1.103-.744 2.057-1.758 2.795-2.991 1.787-2.982 2.219-6.943 1.187-10.867-.844-3.206-2.582-6.026-4.893-7.938zm-59.701 42.955c-3.25-2.427-7.084-3.51-10.519-2.97-2.491.39-4.605 1.648-5.952 3.544-1.674 2.353-2.044 5.391-1.04 8.551.908 2.86 2.871 5.527 5.528 7.51 3.251 2.427 7.086 3.51 10.52 2.97 1.42-.222 2.718-.727 3.82-1.47a8.305 8.305 0 002.133-2.074c1.674-2.354 2.043-5.392 1.04-8.552-.909-2.857-2.872-5.525-5.53-7.51zm-104.875-53.196c-9.537-2.8-18.538-1.814-25.345 2.778-6.808 4.592-11.095 12.568-12.07 22.46-.877 8.89 1.152 17.981 5.426 24.318 2.077 3.08 4.6 4.79 7.498 5.085 2.861.29 5.628-.825 8.327-2.645 2.87-1.937 5.665-4.672 8.41-7.36 2.398-2.348 4.663-4.566 6.656-5.91 1.72-1.16 4.449-2.346 7.337-3.6 6.75-2.933 14.402-6.257 16.126-12.172.82-2.812.198-5.777-1.85-8.812-4.274-6.338-11.943-11.624-20.514-14.142zm-22.706-34.822c-3.836-1.538-7.687-1.307-10.565.634-2.878 1.942-4.535 5.426-4.546 9.559-.01 3.796 1.324 7.872 3.757 11.48 2.433 3.605 5.712 6.37 9.236 7.783 3.836 1.538 7.687 1.306 10.565-.635 2.878-1.942 4.535-5.426 4.546-9.557.01-3.797-1.324-7.874-3.757-11.48-2.432-3.606-5.713-6.371-9.236-7.784zm-23.381 15.769c-3.835-1.538-7.684-1.307-10.564.635-2.878 1.942-4.535 5.426-4.546 9.557-.01 3.797 1.325 7.874 3.757 11.48 2.433 3.606 5.713 6.37 9.237 7.784 3.836 1.538 7.686 1.307 10.564-.634 2.88-1.942 4.536-5.426 4.547-9.559.008-3.796-1.325-7.872-3.758-11.48-2.432-3.605-5.712-6.37-9.236-7.783zm57.663-6.706c-2.553-2.114-5.509-2.91-8.318-2.24-2.261.54-4.22 2.029-5.516 4.192-1.786 2.981-2.218 6.942-1.186 10.867.844 3.206 2.58 6.026 4.892 7.937 2.554 2.116 5.509 2.91 8.319 2.24a8.302 8.302 0 002.72-1.2c1.103-.744 2.057-1.758 2.795-2.991 1.787-2.982 2.219-6.943 1.187-10.867-.844-3.206-2.582-6.026-4.893-7.938zm-59.701 42.955c-3.25-2.427-7.084-3.51-10.519-2.97-2.491.39-4.605 1.648-5.952 3.544-1.674 2.353-2.044 5.391-1.04 8.551.908 2.86 2.871 5.527 5.528 7.51 3.251 2.427 7.086 3.51 10.52 2.97 1.42-.222 2.718-.727 3.82-1.47a8.305 8.305 0 002.132-2.073c1.675-2.355 2.044-5.393 1.04-8.553-.908-2.857-2.871-5.525-5.528-7.51zm31.125-175.196c-9.537-2.8-18.538-1.814-25.345 2.778-6.808 4.592-11.095 12.568-12.07 22.46-.877 8.89 1.152 17.981 5.426 24.318 2.077 3.08 4.6 4.79 7.498 5.085 2.861.29 5.629-.824 8.327-2.645 2.87-1.937 5.665-4.672 8.41-7.36 2.398-2.348 4.663-4.566 6.656-5.91 1.72-1.16 4.449-2.346 7.337-3.6 6.75-2.933 14.402-6.257 16.126-12.172.82-2.812.198-5.777-1.85-8.812-4.274-6.338-11.943-11.624-20.514-14.142zm-22.706-34.822c-3.836-1.538-7.687-1.307-10.565.634-2.878 1.942-4.535 5.426-4.546 9.559-.01 3.796 1.324 7.872 3.757 11.48 2.433 3.605 5.712 6.37 9.236 7.783 3.836 1.538 7.687 1.306 10.565-.635 2.878-1.942 4.535-5.426 4.546-9.557.01-3.797-1.324-7.874-3.757-11.48-2.432-3.606-5.713-6.371-9.236-7.784zm-23.381 15.769c-3.835-1.538-7.684-1.307-10.564.635-2.878 1.942-4.535 5.426-4.546 9.557-.01 3.797 1.325 7.874 3.757 11.48 2.433 3.606 5.713 6.37 9.237 7.784 3.836 1.538 7.686 1.307 10.564-.634 2.88-1.942 4.536-5.426 4.547-9.559.008-3.796-1.325-7.872-3.758-11.48-2.432-3.605-5.712-6.37-9.236-7.783zm57.663-6.706c-2.553-2.114-5.509-2.91-8.318-2.24-2.261.54-4.22 2.029-5.516 4.192-1.786 2.981-2.218 6.942-1.186 10.867.844 3.206 2.58 6.026 4.892 7.937 2.554 2.116 5.509 2.91 8.319 2.24a8.302 8.302 0 002.72-1.2c1.103-.744 2.057-1.758 2.795-2.991 1.787-2.982 2.219-6.943 1.187-10.867-.844-3.206-2.582-6.026-4.893-7.938zM161.47 87.423c-3.25-2.427-7.084-3.51-10.519-2.97-2.491.39-4.605 1.648-5.952 3.544-1.674 2.353-2.044 5.391-1.04 8.551.908 2.86 2.871 5.527 5.528 7.51 3.251 2.427 7.086 3.51 10.52 2.97 1.42-.222 2.718-.727 3.82-1.47a8.305 8.305 0 002.132-2.073c1.675-2.355 2.044-5.393 1.04-8.553-.908-2.857-2.871-5.525-5.528-7.51zm536.125 569.804c-9.537-2.8-18.538-1.814-25.345 2.778-6.808 4.592-11.095 12.568-12.07 22.46-.877 8.89 1.152 17.981 5.426 24.318 2.077 3.08 4.6 4.79 7.498 5.084 2.862.291 5.628-.824 8.327-2.644 2.87-1.937 5.665-4.672 8.41-7.36 2.398-2.348 4.663-4.566 6.656-5.91 1.72-1.16 4.449-2.346 7.337-3.6 6.75-2.933 14.402-6.257 16.126-12.172.82-2.812.198-5.777-1.85-8.812-4.274-6.338-11.943-11.624-20.514-14.142zm-22.706-34.822c-3.836-1.538-7.687-1.307-10.565.634-2.878 1.942-4.535 5.426-4.546 9.559-.01 3.795 1.324 7.872 3.757 11.48 2.433 3.605 5.712 6.37 9.236 7.782 3.835 1.538 7.687 1.307 10.565-.634 2.878-1.942 4.535-5.426 4.545-9.558.01-3.796-1.323-7.873-3.756-11.479-2.432-3.606-5.713-6.371-9.236-7.784zm-23.381 15.769c-3.835-1.538-7.684-1.307-10.564.635-2.878 1.942-4.536 5.425-4.546 9.557-.01 3.797 1.325 7.874 3.757 11.48 2.433 3.606 5.713 6.37 9.237 7.784 3.836 1.538 7.686 1.307 10.564-.634 2.88-1.942 4.536-5.426 4.547-9.559.008-3.796-1.325-7.872-3.758-11.48-2.432-3.605-5.712-6.37-9.236-7.783zm57.663-6.706c-2.553-2.114-5.509-2.91-8.318-2.24-2.261.54-4.221 2.028-5.516 4.192-1.786 2.981-2.218 6.942-1.186 10.867.844 3.206 2.58 6.025 4.892 7.937 2.554 2.115 5.509 2.91 8.319 2.24a8.302 8.302 0 002.72-1.2c1.103-.744 2.057-1.758 2.795-2.991 1.787-2.982 2.219-6.943 1.187-10.867-.844-3.206-2.582-6.026-4.893-7.938zm-59.701 42.955c-3.25-2.427-7.084-3.51-10.519-2.97-2.491.39-4.605 1.648-5.952 3.544-1.674 2.353-2.044 5.391-1.04 8.551.908 2.86 2.87 5.526 5.528 7.51 3.251 2.427 7.086 3.51 10.52 2.97 1.42-.222 2.718-.727 3.82-1.47a8.305 8.305 0 002.132-2.074c1.675-2.354 2.044-5.392 1.04-8.552-.909-2.858-2.871-5.525-5.528-7.51zM66.595 36.227c-9.537-2.8-18.538-1.814-25.345 2.778-6.808 4.592-11.095 12.568-12.07 22.46-.877 8.89 1.152 17.981 5.426 24.318 2.077 3.08 4.6 4.79 7.498 5.085 2.861.29 5.628-.825 8.327-2.645 2.87-1.937 5.665-4.672 8.41-7.36 2.398-2.348 4.663-4.566 6.656-5.91 1.72-1.16 4.449-2.346 7.337-3.6 6.75-2.933 14.402-6.257 16.126-12.172.82-2.812.198-5.777-1.85-8.812-4.274-6.338-11.943-11.624-20.514-14.142zM43.889 1.405C40.053-.133 36.202.098 33.324 2.04c-2.878 1.942-4.535 5.426-4.546 9.559-.01 3.796 1.324 7.872 3.757 11.48 2.433 3.605 5.712 6.37 9.236 7.783 3.836 1.538 7.687 1.306 10.565-.635 2.878-1.942 4.535-5.426 4.546-9.557.01-3.797-1.324-7.874-3.757-11.48-2.432-3.606-5.713-6.371-9.236-7.784zM20.508 17.174c-3.834-1.539-7.684-1.307-10.563.635C7.067 19.75 5.41 23.234 5.4 27.366c-.01 3.796 1.324 7.873 3.757 11.48 2.432 3.606 5.713 6.37 9.237 7.783 3.835 1.538 7.686 1.308 10.564-.634 2.88-1.942 4.535-5.426 4.546-9.558.01-3.796-1.324-7.872-3.757-11.48-2.433-3.606-5.712-6.37-9.236-7.784zm57.663-6.706c-2.553-2.114-5.509-2.91-8.318-2.24-2.261.54-4.22 2.029-5.516 4.192-1.786 2.981-2.218 6.942-1.186 10.867.844 3.206 2.58 6.026 4.892 7.937 2.554 2.116 5.509 2.91 8.319 2.24a8.302 8.302 0 002.72-1.2c1.103-.744 2.057-1.758 2.795-2.991 1.787-2.982 2.219-6.943 1.187-10.867-.844-3.206-2.582-6.026-4.893-7.938zM18.47 53.423c-3.25-2.427-7.084-3.51-10.519-2.97C5.46 50.842 3.346 52.1 2 53.996.325 56.35-.045 59.388.959 62.548c.908 2.86 2.871 5.527 5.528 7.51 3.251 2.427 7.086 3.51 10.52 2.97 1.42-.222 2.718-.727 3.82-1.47a8.305 8.305 0 002.132-2.073c1.675-2.355 2.044-5.393 1.04-8.553-.908-2.857-2.871-5.525-5.528-7.51zm536.125 569.804c-9.537-2.8-18.538-1.814-25.345 2.778-6.808 4.592-11.095 12.568-12.07 22.46-.877 8.89 1.152 17.981 5.426 24.318 2.077 3.08 4.6 4.79 7.498 5.085 2.861.29 5.628-.825 8.327-2.645 2.87-1.937 5.665-4.672 8.41-7.36 2.398-2.348 4.663-4.566 6.656-5.91 1.72-1.16 4.449-2.346 7.337-3.6 6.75-2.933 14.402-6.257 16.126-12.172.82-2.812.198-5.777-1.85-8.812-4.274-6.338-11.943-11.624-20.514-14.142zm-22.706-34.822c-3.836-1.538-7.687-1.307-10.565.634-2.878 1.942-4.535 5.426-4.546 9.559-.01 3.796 1.324 7.872 3.757 11.48 2.433 3.605 5.712 6.37 9.236 7.783 3.836 1.538 7.687 1.306 10.565-.635 2.878-1.942 4.535-5.426 4.546-9.557.01-3.797-1.324-7.874-3.757-11.48-2.432-3.606-5.713-6.371-9.236-7.784zm-23.381 15.769c-3.835-1.538-7.684-1.307-10.564.635-2.878 1.942-4.535 5.426-4.546 9.557-.01 3.797 1.325 7.874 3.757 11.48 2.433 3.606 5.713 6.37 9.237 7.784 3.836 1.538 7.686 1.307 10.564-.634 2.88-1.942 4.536-5.426 4.547-9.559.008-3.796-1.325-7.872-3.758-11.48-2.432-3.605-5.712-6.37-9.236-7.783zm57.663-6.706c-2.553-2.114-5.509-2.91-8.318-2.24-2.261.54-4.22 2.029-5.516 4.192-1.786 2.981-2.218 6.942-1.186 10.867.844 3.206 2.58 6.026 4.892 7.937 2.554 2.116 5.509 2.91 8.319 2.24a8.302 8.302 0 002.72-1.2c1.103-.744 2.057-1.758 2.795-2.991 1.787-2.982 2.219-6.943 1.187-10.867-.844-3.206-2.582-6.026-4.893-7.938zm-59.701 42.955c-3.25-2.427-7.084-3.51-10.519-2.97-2.491.39-4.605 1.648-5.952 3.544-1.674 2.353-2.044 5.391-1.04 8.551.908 2.86 2.871 5.527 5.528 7.51 3.251 2.427 7.086 3.51 10.52 2.97 1.42-.222 2.718-.727 3.82-1.47a8.305 8.305 0 002.133-2.074c1.674-2.354 2.043-5.392 1.04-8.552-.909-2.857-2.872-5.525-5.53-7.51z"/></svg>