<svg width="21" height="21" fill="none" xmlns="http://www.w3.org/2000/svg"><path d="M20.816 4.774a.82.82 0 00-.636-.303H5.32l-.06-.56-.003-.017A4.488 4.488 0 00.82 0a.82.82 0 100 1.64A2.843 2.843 0 013.63 4.1l.975 8.957a2.464 2.464 0 00-1.447 2.284A2.464 2.464 0 005.62 17.8h.334a2.423 2.423 0 002.29 3.2 2.423 2.423 0 002.291-3.2h3.54a2.423 2.423 0 002.291 3.2 2.423 2.423 0 002.42-2.42 2.423 2.423 0 00-2.42-2.42H5.618a.821.821 0 01-.82-.861c0-.452.368-.82.82-.82h10.473c1.456 0 2.792-.901 3.404-2.296a.82.82 0 00-1.502-.66c-.345.787-1.11 1.315-1.902 1.315h-9.86L5.5 6.11h13.67l-.4 1.925a.82.82 0 001.605.335l.608-2.912a.82.82 0 00-.167-.685zM16.366 17.8a.78.78 0 11-.002 1.56.78.78 0 01.001-1.56zm-8.122 0a.78.78 0 11-.002 1.56.78.78 0 01.002-1.56z" fill="#E5E5E5"/></svg>