<svg width="35" height="35" fill="none" xmlns="http://www.w3.org/2000/svg"><path d="M34.356 12.46a2.533 2.533 0 00-1.542-.825l-9.302-1.286-3.681-8.795a2.526 2.526 0 00-4.662 0l-3.681 8.795-9.302 1.285A2.534 2.534 0 00.85 16.035l7.008 6.25-1.44 9.807a2.5 2.5 0 001.16 2.516 2.491 2.491 0 002.761-.052l7.16-4.87 7.162 4.875a2.529 2.529 0 003.92-2.465l-1.44-9.81 7.009-6.25a2.533 2.533 0 00.206-3.577zm-9.382 8.413a1.25 1.25 0 00-.404 1.115l1.5 10.5-7.864-5.347a1.25 1.25 0 00-1.405 0l-7.91 5.314 1.538-10.471a1.25 1.25 0 00-.404-1.11l-7.5-6.76 10.01-1.381a1.25 1.25 0 00.982-.756L17.515 2.5a.056.056 0 01.01.019l3.956 9.453c.17.408.544.695.982.756l10.022 1.442-7.51 6.704z" fill="#FF7A00"/></svg>