<svg width="35" height="35" fill="none" xmlns="http://www.w3.org/2000/svg"><g clip-path="url(#clip0)" fill="#FF7A00"><path d="M25.156 33.542H4.01A4.014 4.014 0 010 29.532V17.134a4.014 4.014 0 014.01-4.01h21.146a4.014 4.014 0 014.01 4.01V29.53a4.014 4.014 0 01-4.01 4.01zM4.01 15.312a1.825 1.825 0 00-1.822 1.823v12.396c0 1.005.818 1.823 1.822 1.823h21.146a1.826 1.826 0 001.823-1.823V17.135a1.826 1.826 0 00-1.823-1.823H4.01z"/><path d="M9.115 24.792H6.927a2.555 2.555 0 01-2.552-2.552v-2.188A2.555 2.555 0 016.927 17.5h2.188a2.555 2.555 0 012.552 2.552v2.188a2.555 2.555 0 01-2.552 2.552zm-2.188-5.105a.365.365 0 00-.364.365v2.188c0 .2.163.364.364.364h2.188a.365.365 0 00.364-.364v-2.188a.365.365 0 00-.364-.364H6.927zm16.771 9.48H5.468a1.094 1.094 0 010-2.188h18.23a1.094 1.094 0 010 2.188zM33.177 9.48H7.657a1.094 1.094 0 010-2.188h25.52a1.094 1.094 0 010 2.187z"/><path d="M32.448 21.467a1.095 1.095 0 01-.541-2.045 1.77 1.77 0 00.904-1.557V5.469a1.826 1.826 0 00-1.823-1.823H9.844A1.825 1.825 0 008.02 5.469v4.375a1.094 1.094 0 01-2.188 0V5.469a4.014 4.014 0 014.01-4.01H30.99A4.014 4.014 0 0135 5.468v12.396c0 1.43-.77 2.756-2.012 3.46-.17.097-.355.142-.54.142z"/></g><defs><clipPath id="clip0"><path fill="#fff" d="M0 0h35v35H0z"/></clipPath></defs></svg>