<svg width="75" height="75" fill="none" xmlns="http://www.w3.org/2000/svg"><path d="M54.472 17.767c-1.981-2.15-5.024-2.423-7.407-.668L26.278 32.176c-.729.423-1.298.732-1.868.858l-.19.038c.207-.692.467-1.502.723-2.296.944-2.942 1.349-4.293 1.362-5.204.1-1.85.022-4.244-1.396-6.452l-.012-.018c-.77-1.176-2.291-2.274-3.617-2.61-1.436-.363-2.664-.232-3.652.392-.96.607-1.585 1.603-1.857 2.961-.661 3.085-1.838 6.265-3.599 9.72-.302.581-.598 1.25-.885 1.898-.364.821-.74 1.672-1.1 2.28l-.02.033c-1.386 2.442-1.739 4.747-1.89 6.474-.007.073-.715 7.315-4.405 13.406-1.805 3-1.33 6.847 1.16 9.363l10.624 10.624.099.093A5.059 5.059 0 0019.105 75a4.905 4.905 0 002.908-.942l1.177-.853c.602-.435 1.235-.84 1.893-1.21a19.198 19.198 0 013.797-1.645c5.648-1.724 11.094-5.005 14.694-7.476 1.097-.645 1.831-1.756 2.074-3.147l.016-.108c1.268-10.256-1.849-19.07-3.292-22.472l11.764-11.76c2.085-2.087 2.259-5.33.403-7.543l-.067-.077z" fill="#fff"/><path d="M60.678 11.144c-4.907-4.906-12.892-4.906-17.798 0a2.198 2.198 0 103.109 3.11c3.193-3.193 8.387-3.193 11.58 0 3.192 3.193 3.192 8.387 0 11.58a2.198 2.198 0 103.109 3.109c4.907-4.908 4.907-12.892 0-17.799z" fill="#FF7A00"/><path d="M66.323 5.967A20.237 20.237 0 0051.917 0a20.24 20.24 0 00-14.406 5.967 2.2 2.2 0 003.11 3.11 15.873 15.873 0 0111.296-4.68c4.268 0 8.28 1.662 11.297 4.68 6.23 6.228 6.23 16.363 0 22.592a2.198 2.198 0 103.109 3.11c7.943-7.944 7.943-20.869 0-28.812z" fill="#FF7A00"/></svg>