<svg width="69" height="69" fill="none" xmlns="http://www.w3.org/2000/svg"><g clip-path="url(#clip0)"><path d="M67.585.009C54.116-.233 38.755 6.808 29.032 17.73c-9.292.175-18.34 3.985-25.001 10.646a1.439 1.439 0 00.805 2.447l11.08 1.587-1.369 1.532a1.437 1.437 0 00.058 1.975l18.478 18.478c.278.279.646.42 1.017.42.342 0 .685-.121.958-.365l1.532-1.369 1.587 11.08c.078.54.503.938 1.018 1.11.132.043.27.063.41.063.41 0 .826-.178 1.114-.463 6.569-6.569 10.378-15.616 10.554-24.908 10.933-9.744 18.032-25.1 17.718-38.551A1.444 1.444 0 0067.585.009zM54.337 24.826a7.165 7.165 0 01-5.083 2.101 7.166 7.166 0 01-5.083-2.101c-2.8-2.803-2.8-7.363 0-10.166a7.196 7.196 0 0110.166 0c2.804 2.803 2.804 7.365 0 10.166z" fill="#fff"/><path d="M7.831 48.602C4.755 51.678.531 65.576.061 67.149a1.442 1.442 0 00.359 1.428 1.434 1.434 0 001.431.363c1.573-.472 15.47-4.695 18.547-7.771 3.464-3.465 3.464-9.103 0-12.567-3.467-3.464-9.102-3.462-12.567 0z" fill="#FF7A00"/></g><defs><clipPath id="clip0"><path fill="#fff" d="M0 0h69v69H0z"/></clipPath></defs></svg>