<svg width="67" height="67" fill="none" xmlns="http://www.w3.org/2000/svg"><path fill-rule="evenodd" clip-rule="evenodd" d="M12.23 13.798l10.058 1.468 3.345 11.786-11.862-.284-3.967-9.764-2.518-1.824a4.923 4.923 0 01-3.284.494C1.326 15.148-.433 12.536.093 9.86.62 7.183 3.232 5.424 5.908 5.95c2.676.527 4.435 3.14 3.909 5.816a4.859 4.859 0 01-.055.245l2.468 1.787zm38.951 40.073a4.628 4.628 0 110 9.256 4.628 4.628 0 010-9.256zm-23.871 0a4.628 4.628 0 110 9.256 4.628 4.628 0 010-9.256zm-3.264-9.147l6.365-.833-3.632-12.8-11.363-.272 4.773 11.75a5.824 5.824 0 00-.879 1.35c-1.803 3.816 1.025 8.145 5.22 8.145h31.534a2.012 2.012 0 000-4.025H24.53c-.643 0-1.158-.275-1.496-.814a1.66 1.66 0 011.012-2.501zm2.597-28.822l8.005 1.168a18.221 18.221 0 002.526 10.259l-7.338-.176-3.193-11.251zM56.5 35.87a17.28 17.28 0 01-9.312 5.734l-1.098-6.656a18.064 18.064 0 0010.41.922zm-13.28 6.345l-1.623-9.844c-.388-.303-.762-.62-1.122-.952l-9.493-.227 3.455 12.172 8.784-1.15z" fill="#fff"/><path d="M39 17c0 7.732 6.268 14 13.999 14 3.865 0 7.365-1.567 9.898-4.1 4.368-4.369 5.376-11.12 2.407-16.58L53.938 21.688a1.987 1.987 0 01-2.81 0l-3.974-3.974a1.987 1.987 0 012.81-2.81l2.57 2.57L62.9 7.103C60.397 4.573 56.84 3 53 3c-7.732 0-14 6.268-14 14z" fill="#FF7A00"/></svg>