<svg width="140" height="16" fill="none" xmlns="http://www.w3.org/2000/svg"><path d="M0 2a2 2 0 012-2h20a2 2 0 012 2v12a2 2 0 01-2 2H2a2 2 0 01-2-2V2z" fill="#FDEACE"/><path d="M14.504 3.264l-5.165.017.157 9.455 5.165-.017-.157-9.455z" fill="#FF5F00"/><path d="M9.68 8.028a5.983 5.983 0 012.178-4.74 5.912 5.912 0 00-3.68-1.275c-3.278.011-5.887 2.712-5.831 6.04.055 3.328 2.753 6.01 6.032 6a5.772 5.772 0 003.636-1.3A6.133 6.133 0 019.68 8.027z" fill="#EB001B"/><path d="M21.653 7.947c.056 3.328-2.553 6.029-5.832 6.04a5.912 5.912 0 01-3.68-1.275c1.367-1.108 2.211-2.817 2.18-4.74a6.158 6.158 0 00-2.336-4.725 5.772 5.772 0 013.636-1.3c3.28-.01 5.977 2.689 6.032 6z" fill="#F79E1B"/><path d="M29 2a2 2 0 012-2h20a2 2 0 012 2v12a2 2 0 01-2 2H31a2 2 0 01-2-2V2z" fill="#E4E5E7"/><path d="M32.627 5.226a.293.293 0 00-.112-.245 1.364 1.364 0 00-.39-.182 3.749 3.749 0 01-.457-.182c-.386-.189-.578-.449-.578-.78 0-.165.047-.31.143-.435a.928.928 0 01.408-.294c.176-.07.373-.106.592-.106.214 0 .405.038.574.114a.91.91 0 01.396.327c.094.14.141.3.141.482h-.714a.358.358 0 00-.113-.282.43.43 0 00-.3-.1.49.49 0 00-.304.086.258.258 0 00-.11.214c0 .077.04.146.122.209.082.06.225.125.43.192.207.065.375.136.507.212.322.185.482.44.482.766 0 .26-.098.464-.294.612-.196.149-.465.223-.806.223-.241 0-.46-.043-.656-.129a1.003 1.003 0 01-.441-.355.936.936 0 01-.147-.52h.719c0 .158.04.276.122.352.083.075.218.113.403.113a.461.461 0 00.28-.076.255.255 0 00.103-.216zm2.773.234h-.982l-.171.556h-.766l1.09-2.973h.674l1.1 2.973h-.77l-.174-.555zm-.81-.553h.64l-.322-1.03-.318 1.03zm2.914-1.864l.664 2.069.661-2.069h.944v2.973h-.72v-.694l.07-1.421-.718 2.115h-.474L37.21 3.9l.07 1.423v.694h-.717V3.043h.941zm4.26 2.183a.293.293 0 00-.113-.245 1.364 1.364 0 00-.39-.182 3.749 3.749 0 01-.457-.182c-.385-.189-.578-.449-.578-.78a.7.7 0 01.143-.435.928.928 0 01.408-.294 1.59 1.59 0 01.593-.106c.213 0 .405.038.573.114.17.077.303.185.397.327.093.14.14.3.14.482h-.714a.358.358 0 00-.112-.282.43.43 0 00-.3-.1.49.49 0 00-.305.086.258.258 0 00-.11.214c0 .077.04.146.122.209.082.06.226.125.431.192.206.065.375.136.507.212.32.185.481.44.481.766 0 .26-.097.464-.294.612-.196.149-.465.223-.806.223-.241 0-.46-.043-.656-.129a1.003 1.003 0 01-.44-.355.936.936 0 01-.148-.52h.719c0 .158.04.276.123.352.083.075.217.113.402.113a.461.461 0 00.28-.076.255.255 0 00.104-.216zm3.416-2.183v1.946c0 .22-.047.412-.14.574a.914.914 0 01-.405.367 1.424 1.424 0 01-.623.127c-.362 0-.647-.094-.856-.282-.208-.188-.314-.445-.318-.772v-1.96h.72v1.975c.009.325.16.488.454.488.148 0 .26-.041.337-.123.076-.082.114-.214.114-.398V3.043h.717zm2.932 2.973H47.4l-1.054-1.85v1.85h-.717V3.043h.717l1.052 1.85v-1.85h.714v2.973zM51 5.649a1.17 1.17 0 01-.484.296 2.087 2.087 0 01-.698.112c-.39 0-.7-.12-.934-.357-.232-.239-.357-.57-.373-.995l-.002-.257c0-.293.051-.548.155-.766.103-.22.251-.387.443-.504.193-.119.417-.178.67-.178.37 0 .657.085.862.255.205.17.325.422.359.758h-.69c-.025-.166-.078-.285-.16-.355a.514.514 0 00-.347-.107.468.468 0 00-.416.23c-.098.152-.148.37-.15.653v.18c0 .296.051.52.152.669.102.148.262.223.48.223.186 0 .325-.042.416-.125V4.92h-.498v-.493H51V5.65z" fill="#0058E0"/><path d="M41.802 10.9v1.715H41V8h1.766c.515 0 .924.134 1.226.403.304.268.457.623.457 1.065 0 .452-.15.803-.447 1.055-.296.251-.712.377-1.246.377h-.954zm0-.643h.964c.285 0 .502-.067.652-.2.15-.135.225-.33.225-.583 0-.25-.076-.448-.228-.596-.152-.15-.361-.227-.627-.231h-.986v1.61zm5.287 2.358a1.19 1.19 0 01-.089-.32 1.2 1.2 0 01-.9.383c-.345 0-.626-.098-.843-.295a.943.943 0 01-.327-.728c0-.366.136-.646.406-.84.273-.197.661-.295 1.166-.295h.473v-.225c0-.178-.05-.32-.15-.425-.099-.108-.25-.162-.453-.162a.673.673 0 00-.43.134.403.403 0 00-.169.332h-.77c0-.188.063-.363.187-.526.125-.165.294-.293.507-.386.216-.093.456-.14.72-.14.401 0 .721.101.96.304.239.201.361.484.368.85v1.546c0 .309.043.555.13.739v.054h-.786zm-.846-.555a.868.868 0 00.427-.11.739.739 0 00.305-.299v-.646h-.416c-.285 0-.5.05-.643.149a.483.483 0 00-.215.421c0 .148.048.267.145.355.1.087.232.13.397.13zm3.457-.548l.698-2.327h.82l-1.362 3.95c-.21.576-.564.865-1.065.865-.112 0-.236-.02-.371-.057v-.596l.146.01c.194 0 .34-.036.437-.108.1-.07.178-.188.235-.355l.11-.295-1.204-3.414h.83l.727 2.327z" fill="#000"/><path d="M58 2a2 2 0 012-2h20a2 2 0 012 2v12a2 2 0 01-2 2H60a2 2 0 01-2-2V2z" fill="#D8E3F3"/><path d="M78.655 5.018h-1.257c-.38 0-.673.117-.848.497l-2.398 5.468h1.696s.292-.732.35-.907h2.077c.058.205.204.877.204.877H80l-1.345-5.935zm-1.988 3.83c.146-.35.643-1.667.643-1.667 0 .03.146-.35.205-.555l.117.526s.321 1.433.38 1.725h-1.345v-.029zm-2.398.176c0 1.228-1.111 2.046-2.836 2.046-.731 0-1.433-.146-1.813-.321l.234-1.345.204.087c.527.234.878.322 1.521.322.468 0 .965-.175.965-.585 0-.263-.205-.438-.848-.73-.614-.293-1.433-.761-1.433-1.609 0-1.17 1.14-1.96 2.749-1.96.614 0 1.14.118 1.462.264L74.24 6.48l-.117-.117a3.142 3.142 0 00-1.228-.234c-.614.029-.907.292-.907.526 0 .263.351.468.907.731.935.439 1.374.936 1.374 1.638z" fill="#3362AB"/><path d="M60 5.076l.03-.117h2.514c.35 0 .614.117.702.497l.555 2.632C63.246 6.684 61.96 5.544 60 5.076z" fill="#F9B50B"/><path d="M67.34 5.018l-2.545 5.935H63.07l-1.462-4.97c1.053.672 1.93 1.725 2.252 2.456l.175.614 1.579-4.065h1.725v.03zm.672-.03h1.608l-1.023 5.965h-1.609l1.024-5.965z" fill="#3362AB"/><path d="M87 2a2 2 0 012-2h20a2 2 0 012 2v12a2 2 0 01-2 2H89a2 2 0 01-2-2V2z" fill="#E6E6E6"/><path d="M105.605 12.564c.922 0 1.356-.351 1.735-1.418L109 6.49h-.961l-1.113 3.603h-.02l-1.113-3.598h-.989l1.602 4.432-.086.27a.752.752 0 01-.797.632c-.074 0-.219-.008-.277-.015v.732c.119.016.239.024.359.023v-.005zm-3.203-2.332c-.504 0-.824-.244-.824-.613 0-.382.308-.605.898-.64l1.051-.067v.344a1.028 1.028 0 01-1.125.98v-.004zm-.254.723a1.565 1.565 0 001.395-.777h.019v.731h.875V7.88c0-.88-.703-1.446-1.785-1.446-1.004 0-1.746.574-1.774 1.363h.852a.83.83 0 01.895-.621c.578 0 .902.27.902.765v.336l-1.179.07c-1.098.067-1.692.516-1.692 1.298 0 .792.613 1.316 1.492 1.316v-.005zm-5.07-5.34h1.09c.82 0 1.288.438 1.288 1.207 0 .77-.468 1.211-1.293 1.211h-1.086V5.615zm-.946-.797v6.09h.945V8.832h1.31a1.933 1.933 0 002.034-2.008 1.91 1.91 0 00-2.003-2l-2.286-.006zm-3.138 1.137c-.543-.032-1.008.308-1.266.308-.257 0-.656-.293-1.086-.285a1.604 1.604 0 00-1.363.829c-.586 1.008-.153 2.5.414 3.32.277.407.61.852 1.047.836.414-.015.578-.27 1.078-.27.5 0 .649.27 1.086.262.453-.008.739-.407 1.017-.813.196-.288.348-.603.453-.935a1.472 1.472 0 01-.883-1.342c.008-.514.277-.988.715-1.258a1.548 1.548 0 00-1.211-.656v.004zm-.339-.538c-.238.3-.602.471-.984.464-.025-.373.102-.74.351-1.02.248-.287.598-.467.976-.503.027.384-.096.763-.344 1.057" fill="#000"/><path d="M116 2a2 2 0 012-2h20a2 2 0 012 2v12a2 2 0 01-2 2h-20a2 2 0 01-2-2V2z" fill="#E4E5E7"/><path d="M127.459 8.537v2.312h-.739V5.14h1.959a1.783 1.783 0 011.268.494 1.58 1.58 0 01.53 1.205 1.577 1.577 0 01-.53 1.212c-.342.324-.765.486-1.268.486h-1.22zm0-2.694v1.993h1.238a.983.983 0 00.731-.295.97.97 0 000-1.396.963.963 0 00-.731-.303h-1.238zm4.72.973c.546 0 .977.145 1.293.434.315.29.473.687.473 1.192v2.408h-.706v-.543h-.033c-.305.447-.712.67-1.22.67-.433 0-.796-.127-1.087-.383a1.228 1.228 0 01-.438-.956c0-.404.154-.726.461-.965.308-.238.719-.358 1.233-.359.438 0 .799.08 1.083.24v-.168a.825.825 0 00-.305-.65 1.05 1.05 0 00-.713-.267c-.412 0-.739.173-.979.519l-.651-.407c.358-.51.888-.765 1.589-.765zm-.956 2.838a.594.594 0 00.245.478.906.906 0 00.574.191c.312 0 .611-.123.831-.342.245-.229.367-.497.367-.805-.23-.182-.551-.273-.963-.273-.3 0-.551.071-.751.215-.202.146-.303.323-.303.536zM138 6.943l-2.466 5.628h-.763l.916-1.969-1.622-3.659h.803l1.172 2.806h.016l1.14-2.806H138z" fill="#5F6368"/><path d="M124.474 8.04c0-.224-.019-.447-.057-.668h-3.114v1.264h1.784a1.512 1.512 0 01-.66.996v.82h1.065c.623-.57.982-1.415.982-2.413z" fill="#4285F4"/><path d="M121.303 11.244c.891 0 1.641-.29 2.189-.791l-1.065-.82c-.296.2-.678.313-1.124.313-.862 0-1.593-.577-1.855-1.354h-1.096v.845c.275.544.696 1 1.217 1.32a3.32 3.32 0 001.734.487z" fill="#34A853"/><path d="M119.448 8.592a1.955 1.955 0 010-1.255v-.845h-1.096a3.252 3.252 0 000 2.945l1.096-.845z" fill="#FBBC04"/><path d="M121.303 5.983a1.8 1.8 0 011.267.492l.942-.936a3.183 3.183 0 00-2.209-.854 3.32 3.32 0 00-1.734.488 3.283 3.283 0 00-1.217 1.319l1.096.845c.262-.777.993-1.354 1.855-1.354z" fill="#EA4335"/></svg>