<svg width="12" height="12" fill="none" xmlns="http://www.w3.org/2000/svg"><g opacity=".5" clip-path="url(#clip0)"><path d="M11.832 1.066l-.83-.82a.595.595 0 00-.828 0L6.039 4.382 1.826.17a.594.594 0 00-.829 0L.168.997a.594.594 0 000 .83L4.371 6.03.246 10.174a.595.595 0 000 .83l.83.828a.595.595 0 00.828 0L6.04 7.697l4.135 4.135a.595.595 0 00.829 0l.829-.829a.595.595 0 000-.829L7.687 6.04l4.135-4.134a.598.598 0 00.01-.84z" fill="#fff"/></g><defs><clipPath id="clip0"><path fill="#fff" d="M0 0h12v12H0z"/></clipPath></defs></svg>