<svg width="13" height="13" fill="none" xmlns="http://www.w3.org/2000/svg"><g clip-path="url(#clip0)"><path d="M8.682 1.488a5.093 5.093 0 00-7.194 0 5.095 5.095 0 000 7.194 5.093 5.093 0 006.499.576c.041.198.137.386.29.54l2.888 2.887a1.074 1.074 0 101.52-1.52L9.797 8.278a1.075 1.075 0 00-.539-.29 5.092 5.092 0 00-.576-6.5zM7.77 7.77a3.802 3.802 0 01-5.37 0 3.803 3.803 0 010-5.37 3.803 3.803 0 015.37 0 3.802 3.802 0 010 5.37z" fill="#E5E5E5"/></g><defs><clipPath id="clip0"><path fill="#fff" d="M0 0h13v13H0z"/></clipPath></defs></svg>