<svg width="30" height="30" fill="none" xmlns="http://www.w3.org/2000/svg"><g clip-path="url(#clip0)"><path d="M14.912 23.926c-4.962 0-7.23-2.528-7.23-4.382a1.608 1.608 0 011.697-1.608c2.125 0 1.569 3.187 5.533 3.187 2.026 0 3.216-1.22 3.216-2.366 0-.688-.393-1.475-1.73-1.79l-4.427-1.116c-3.556-.905-4.176-2.882-4.176-4.717 0-3.806 3.482-5.183 6.797-5.183 3.054 0 6.684 1.687 6.684 3.969 0 .983-.822 1.51-1.776 1.51-1.814 0-1.51-2.548-5.159-2.548-1.814 0-2.768.85-2.768 2.041 0 1.19 1.41 1.593 2.65 1.864l3.266.738c3.58.806 4.534 2.906 4.534 4.918 0 3.093-2.395 5.483-7.116 5.483h.005zm13.701-6.546c.142-.812.213-1.634.212-2.459A13.977 13.977 0 0012.428 1.097 8.223 8.223 0 008.307 0a8.36 8.36 0 00-7.215 12.497 13.987 13.987 0 0016.19 16.278 8.217 8.217 0 004.117 1.097 8.36 8.36 0 007.214-12.492z" fill="#fff"/></g></svg>