<svg width="19" height="19" fill="none" xmlns="http://www.w3.org/2000/svg"><g clip-path="url(#clip0)"><path d="M9.443 15.153c-3.143 0-4.579-1.6-4.579-2.775A1.019 1.019 0 015.94 11.36c1.346 0 .994 2.018 3.504 2.018 1.283 0 2.037-.773 2.037-1.498 0-.436-.249-.935-1.096-1.134l-2.803-.707C5.33 9.466 4.937 8.214 4.937 7.052c0-2.411 2.205-3.283 4.305-3.283 1.934 0 4.233 1.068 4.233 2.513 0 .623-.52.957-1.125.957-1.15 0-.956-1.614-3.267-1.614-1.15 0-1.754.54-1.754 1.293 0 .754.894 1.009 1.68 1.18l2.067.468c2.268.51 2.872 1.84 2.872 3.114 0 1.96-1.517 3.473-4.507 3.473h.003zm8.678-4.146c.09-.514.135-1.035.134-1.557A8.852 8.852 0 007.87.695 5.208 5.208 0 005.26 0 5.295 5.295 0 00.69 7.915a8.858 8.858 0 0010.255 10.31 5.205 5.205 0 002.607.694 5.295 5.295 0 004.569-7.912z" fill="#6F6F79"/></g><defs><clipPath id="clip0"><path fill="#fff" d="M0 0h19v19H0z"/></clipPath></defs></svg>