<svg xmlns="http://www.w3.org/2000/svg" width="16.969" height="15.969" viewBox="0 0 16.969 15.969">
  <defs>
    <style>
      .cls-1 {
        fill: #b8b8b8;
        fill-rule: evenodd;
      }
    </style>
  </defs>
  <path id="Vector" class="cls-1" d="M410.782,623.223l-7.551,7.242a0.736,0.736,0,0,0,0,1.071l7.551,7.243a0.812,0.812,0,0,0,1.116,0l0.452-.435a0.731,0.731,0,0,0-.013-1.077l-5.609-5.2h12.485a0.774,0.774,0,0,0,.787-0.756v-0.63a0.774,0.774,0,0,0-.787-0.756H406.728l5.616-5.2a0.738,0.738,0,0,0,.013-1.077l-0.453-.434A0.82,0.82,0,0,0,410.782,623.223Z" transform="translate(-403.031 -623.031)"/>
</svg>
