<svg xmlns="http://www.w3.org/2000/svg" width="17" height="15.969" viewBox="0 0 17 15.969">
  <defs>
    <style>
      .cls-1 {
        fill: #b8b8b8;
        fill-rule: evenodd;
      }
    </style>
  </defs>
  <path id="Vector" class="cls-1" d="M473.218,638.778l7.551-7.243a0.735,0.735,0,0,0,0-1.07l-7.551-7.243a0.812,0.812,0,0,0-1.116,0l-0.452.434a0.731,0.731,0,0,0,.013,1.077l5.609,5.2H464.787a0.774,0.774,0,0,0-.787.756v0.63a0.774,0.774,0,0,0,.787.756h12.485l-5.616,5.195a0.738,0.738,0,0,0-.013,1.077l0.453,0.435A0.82,0.82,0,0,0,473.218,638.778Z" transform="translate(-464 -623.031)"/>
</svg>
