<svg id="shopping-bag_1" data-name="shopping-bag 1" xmlns="http://www.w3.org/2000/svg" width="24" height="28" viewBox="0 0 24 28">
  <defs>
    <style>
      .cls-1 {
        fill: #9ad9d7;
        fill-rule: evenodd;
      }
    </style>
  </defs>
  <path id="XMLID_929_" class="cls-1" d="M1169.68,63h12.63a4,4,0,0,0,3.98-3.559l1.7-15.331a0.968,0.968,0,0,0-.25-0.777A0.98,0.98,0,0,0,1187,43h-5V41a6,6,0,0,0-12,0v2h-5a1,1,0,0,0-.75.333,0.962,0.962,0,0,0-.24.777l1.7,15.331A3.988,3.988,0,0,0,1169.68,63h0ZM1172,41a4,4,0,0,1,8,0v2h-8V41Zm-2,4v2a1,1,0,1,0,0,2h2a1,1,0,1,0,0-2V45h8v2a1,1,0,1,0,0,2h2a1,1,0,1,0,0-2V45h3.88l-1.58,14.221A2,2,0,0,1,1182.31,61h-12.63a1.989,1.989,0,0,1-1.98-1.779L1166.12,45H1170Z" transform="translate(-1164 -35)"/>
</svg>
