<svg id="map_1" data-name="map 1" xmlns="http://www.w3.org/2000/svg" width="12.376" height="16.875" viewBox="0 0 12.376 16.875">
  <defs>
    <style>
      .cls-1 {
        fill: #212121;
        fill-rule: evenodd;
      }
    </style>
  </defs>
  <path id="Vector" class="cls-1" d="M396,57.562a6.189,6.189,0,0,0-6.188,6.187c0,3.268,5.513,10.181,5.749,10.479a0.564,0.564,0,0,0,.878,0c0.236-.3,5.749-7.211,5.749-10.479A6.189,6.189,0,0,0,396,57.562h0Zm0,15.4c-1.738-2.25-5.062-7.031-5.062-9.214a5.062,5.062,0,1,1,10.124,0C401.062,65.933,397.738,70.7,396,72.964Z" transform="translate(-389.812 -57.563)"/>
  <path id="Vector-2" data-name="Vector" class="cls-1" d="M396,59.812a3.376,3.376,0,1,0,2.386.989A3.373,3.373,0,0,0,396,59.812Zm0,5.625a2.25,2.25,0,1,1,1.591-.659A2.251,2.251,0,0,1,396,65.437Z" transform="translate(-389.812 -57.563)"/>
</svg>
