<svg id="logo" xmlns="http://www.w3.org/2000/svg" width="172" height="85" viewBox="0 0 172 85">
  <defs>
    <style>
      .cls-1 {
        fill: #003b45;
      }

      .cls-1, .cls-2 {
        fill-rule: evenodd;
      }

      .cls-2 {
        fill: #9ad9d7;
      }
    </style>
  </defs>
  <g id="Group">
    <path id="Vector" class="cls-1" d="M875.463,64.5V63.678a9.12,9.12,0,0,0,1.516-1.083q0.21-2.41.209-10.65,0-5.973-.174-8.449a2.735,2.735,0,0,0-.366-1.572A5.791,5.791,0,0,0,874,41.47V40l3.345,0.07,2.561,0.052q1.166,0,3.45-.059c1.474-.042,2.529-0.059,3.171-0.059q3.867,0,5.536,1.3a4.227,4.227,0,0,1,1.673,3.535,4.794,4.794,0,0,1-1.652,3.769,10.043,10.043,0,0,1-4.658,2.085v0.14a13.758,13.758,0,0,1,4.348.943,4.783,4.783,0,0,1,2.018,1.96,5.974,5.974,0,0,1,.766,3.025,6.879,6.879,0,0,1-1.261,3.933,8.169,8.169,0,0,1-3.345,2.833,14.1,14.1,0,0,1-5.861.978q-0.747,0-2.248-.059c-0.93-.042-1.689-0.059-2.282-0.059C878.892,64.376,877.53,64.415,875.463,64.5Zm6.687-14.4h0.906q2.943,0,4.136-1.065a4.251,4.251,0,0,0,1.192-3.336,3.943,3.943,0,0,0-.965-2.934,4.447,4.447,0,0,0-3.178-.943,17.29,17.29,0,0,0-2,.14q-0.1,5.36-.1,6.563ZM882.2,62.508a7.556,7.556,0,0,0,1.892.262,4.921,4.921,0,0,0,3.788-1.422,5.937,5.937,0,0,0,1.321-4.181,6.3,6.3,0,0,0-.6-2.941,3.929,3.929,0,0,0-1.651-1.7,6.489,6.489,0,0,0-3-.559l-1.756.017v0.454l-0.035,4.52L882.2,61.53v0.978h0Z" transform="translate(-874 -19)"/>
    <path id="Vector-2" data-name="Vector" class="cls-1" d="M911.214,64.848q-6.423,0-9.84-3.308t-3.415-9.1a13.451,13.451,0,0,1,1.655-6.888,11.139,11.139,0,0,1,4.589-4.356,16.392,16.392,0,0,1,7.551-1.52,15.8,15.8,0,0,1,7.262,1.457,10.522,10.522,0,0,1,4.345,4.048,12.357,12.357,0,0,1,1.523,6.364,14.188,14.188,0,0,1-1.673,7.063,11.564,11.564,0,0,1-4.711,4.607A15.175,15.175,0,0,1,911.214,64.848Zm0.662-1.886a6.788,6.788,0,0,0,5.582-2.6q2.081-2.594,2.08-7.887,0-5.554-2.387-8.526-1.933-2.395-5.954-2.393a7.13,7.13,0,0,0-5.826,2.5q-2.065,2.5-2.063,7.688a15.781,15.781,0,0,0,1.132,6.333A7.186,7.186,0,0,0,911.876,62.962Z" transform="translate(-874 -19)"/>
    <path id="Vector-3" data-name="Vector" class="cls-1" d="M932.253,64.5V63.032a13.17,13.17,0,0,0,2.073-.175,1.023,1.023,0,0,0,1.028-1.027q0.12-.749.209-5.512,0.052-3.385.053-6.909,0-6.926-.046-7.055a2.445,2.445,0,0,0-1.23-.133q-2.424,0-4.171.14a4.292,4.292,0,0,0-1.142.175,0.569,0.569,0,0,0-.2.307c-0.045.147-.146,1.167-0.3,3.063h-1.5q0.036-3.343-.174-5.76l0.191-.14q5.488,0.262,10.677.262,5.173,0,11.582-.262l0.192,0.279q-0.33,2.4-.471,5.62h-1.446a16.1,16.1,0,0,0-.313-3.189,0.789,0.789,0,0,0-.558-0.265,41.837,41.837,0,0,0-5.537-.231,0.527,0.527,0,0,0-.418.1,3.191,3.191,0,0,0-.069.926l-0.105,11.74q0,5.1.087,6.263a2.072,2.072,0,0,0,.422,1.407,12.693,12.693,0,0,0,2.749.367V64.5q-2.567-.121-5.443-0.122C935.867,64.376,933.821,64.415,932.253,64.5Z" transform="translate(-874 -19)"/>
  </g>
  <g id="Group-2" data-name="Group">
    <g id="Group-3" data-name="Group">
      <path id="Vector-4" data-name="Vector" class="cls-1" d="M1008.11,64.5V63.032a13.143,13.143,0,0,0,2.07-.175,1.364,1.364,0,0,0,.71-0.287,1.4,1.4,0,0,0,.32-0.74q0.12-.749.21-5.512,0.045-3.385.05-6.909c0-4.618-.01-6.968-0.05-7.055a2.423,2.423,0,0,0-1.23-.133q-2.415,0-4.17.14a4.355,4.355,0,0,0-1.14.175,0.561,0.561,0,0,0-.2.307q-0.075.22-.3,3.063h-1.5q0.045-3.343-.17-5.76l0.19-.14q5.49,0.262,10.68.262c3.45,0,7.3-.087,11.58-0.262l0.19,0.279q-0.33,2.4-.47,5.62h-1.45a15.382,15.382,0,0,0-.31-3.189,0.792,0.792,0,0,0-.56-0.265,41.75,41.75,0,0,0-5.53-.231,0.513,0.513,0,0,0-.42.1,2.987,2.987,0,0,0-.07.926l-0.11,11.74q0,5.1.09,6.263a2.1,2.1,0,0,0,.42,1.407,12.75,12.75,0,0,0,2.75.367V64.5c-1.71-.081-3.52-0.122-5.44-0.122C1011.72,64.376,1009.68,64.415,1008.11,64.5Z" transform="translate(-874 -19)"/>
      <path id="Vector-5" data-name="Vector" class="cls-1" d="M1028.41,57.118h1.54a16.245,16.245,0,0,0,.16,3.025,3.251,3.251,0,0,0,1,1.17,6.726,6.726,0,0,0,2.21,1.177,8.751,8.751,0,0,0,2.79.454,5.689,5.689,0,0,0,3.93-1.31,4.189,4.189,0,0,0,1.47-3.263,3.7,3.7,0,0,0-.98-2.756,6.956,6.956,0,0,0-3.76-1.359,21.643,21.643,0,0,1-5.54-1.292,5.232,5.232,0,0,1-2.27-2.1,6.485,6.485,0,0,1-.82-3.353,7.51,7.51,0,0,1,2.3-5.564c1.53-1.519,3.99-2.281,7.36-2.281a18.679,18.679,0,0,1,3.53.3,14.352,14.352,0,0,1,3.08.978l0.18,0.419a15.051,15.051,0,0,0-.39,1.991c-0.08.593-.14,1.62-0.2,3.074h-1.5a14.11,14.11,0,0,0-.26-3.014,3.834,3.834,0,0,0-1.68-1.212,7.19,7.19,0,0,0-3.09-.636,5.388,5.388,0,0,0-3.7,1.16,3.8,3.8,0,0,0-1.32,2.99,3.483,3.483,0,0,0,.54,1.945,3.159,3.159,0,0,0,1.51,1.223,23.289,23.289,0,0,0,4.15.9,20.055,20.055,0,0,1,3.92.856,5.19,5.19,0,0,1,2.56,2.075,6.555,6.555,0,0,1,.87,3.524,7.81,7.81,0,0,1-2.82,6.151,11.352,11.352,0,0,1-7.71,2.452,17.131,17.131,0,0,1-3.95-.419,16.532,16.532,0,0,1-3.68-1.38,15.515,15.515,0,0,0,.42-2.214C1028.35,59.916,1028.4,58.676,1028.41,57.118Z" transform="translate(-874 -19)"/>
    </g>
  </g>
  <g id="Group-4" data-name="Group">
    <path id="Vector-6" data-name="Vector" class="cls-2" d="M957,53.926l-2.262,1.453-0.453-.636c0.906-.786,1.582-1.408,2.035-1.858l1.945-1.949a4.316,4.316,0,0,1-.091-1,2.117,2.117,0,0,1,.634-1.544,2.2,2.2,0,0,1,1.628-.636h0.724l0.634-.908,3.258-4.715q1.176-1.724,2.624-3.72t3.258-4.265q1.9-2.358,3.439-4.219t2.851-3.357q1.311-1.5,2.533-2.721t2.488-2.312a19.933,19.933,0,0,1,2.442-1.858A3.939,3.939,0,0,1,986.768,19a1.739,1.739,0,0,1,1.4.59,2.387,2.387,0,0,1,.5,1.586q0,1.546-2.035,4.174a62.679,62.679,0,0,1-6.38,6.713l-8.143,7.531-4.7,4.265-1.087,1L965.6,46.129q-1.088,2-1.9,3.221t-1.268,1.995a10.819,10.819,0,0,0-.68,1.317,3.067,3.067,0,0,0-.226,1.181,2.132,2.132,0,0,0,.589,1.586,1.905,1.905,0,0,0,1.4.59,3.181,3.181,0,0,0,1.853-.681,36.4,36.4,0,0,0,2.851-2.4l0.725,1a25.06,25.06,0,0,1-3.168,2.585,4.348,4.348,0,0,1-2.352.681,3.654,3.654,0,0,1-2.08-.545,5.286,5.286,0,0,1-1.54-1.813l-1.9,2.993L957,59.738c-0.484,1.09-.965,2.1-1.45,3.039s-0.906,1.827-1.268,2.676q-2.081,4.354-3.213,6.85t-1.5,3.221q-0.631,1.268-1.627,3.13t-2.125,3.9q-1.13,2.043-2.262,4.038t-2.035,3.629q-2.173,3.993-3.892,6.623a34.07,34.07,0,0,1-3.167,4.219,10.691,10.691,0,0,1-2.715,2.267,5.3,5.3,0,0,1-2.533.681,2.309,2.309,0,0,1-1.808-.817,3.037,3.037,0,0,1-.725-2.085,7.986,7.986,0,0,1,.408-2.449,24.9,24.9,0,0,1,1.223-2.993q0.543-1,1.268-2.176c0.484-.786.965-1.572,1.45-2.358q0.726-1.09,1.359-2.085t1.494-2.267c0.575-.849,1.3-1.9,2.171-3.175s2.007-2.9,3.394-4.9l4.976-7.258,6.425-8.8Zm-10.136,19.41q-0.721,1-2.307,3.266t-4.028,5.9q-1.63,2.358-2.715,4.083t-1.944,3.039c-0.571.877-1.1,1.691-1.582,2.449s-0.965,1.526-1.449,2.312a30.881,30.881,0,0,0-2.262,4.356,7.114,7.114,0,0,0-.543,2.358c0,0.726.24,1.09,0.724,1.09A3.525,3.525,0,0,0,932.839,101a20.282,20.282,0,0,0,2.714-3.266q1.448-2.085,3.349-5.4t4.526-7.936q1.359-2.358,2.488-4.492t2.035-3.947q0.455-.728,1.494-2.948t2.76-5.76l2.715-5.624-3.53,5.351ZM973.018,36.87q1.088-1.09,2.443-2.358l2.442-2.448q1.088-1.09,1.99-2.04t1.627-1.813c0.481-.573,1-1.163,1.54-1.767q2.624-3.175,2.624-4.625a0.526,0.526,0,0,0-.544-0.636q-1.542,0-5.61,5.033t-9.955,13.835l1.628-1.362C971.687,38.2,972.293,37.6,973.018,36.87Z" transform="translate(-874 -19)"/>
    <path id="Vector-7" data-name="Vector" class="cls-2" d="M984.011,56.556a4.837,4.837,0,0,1-2.4.636,3.255,3.255,0,0,1-2.624-1.362l-0.456.545-1.269,1.09a19.024,19.024,0,0,1-4.163,2.721,9.846,9.846,0,0,1-4.255,1.09,3.615,3.615,0,0,1-2.578-.817,2.869,2.869,0,0,1-.861-2.176,6.788,6.788,0,0,1,1.4-3.765,15.074,15.074,0,0,1,3.666-3.675,18.044,18.044,0,0,1,3.937-2.312,9.289,9.289,0,0,1,3.485-.863q3.528,0,3.529,3.357a2.253,2.253,0,0,1-.181,1,17.442,17.442,0,0,0-.634,1.722,1.758,1.758,0,0,0-.091.545v0.272a1.418,1.418,0,0,0,.408,1.044,1.3,1.3,0,0,0,.951.409,3,3,0,0,0,1.809-.681,34.849,34.849,0,0,0,2.714-2.4l0.906,1A20.691,20.691,0,0,1,984.011,56.556Zm-6.742-7.44a2.633,2.633,0,0,0-1,.227,10.543,10.543,0,0,0-1.177.59,10.4,10.4,0,0,0-2.035,1.5,12.555,12.555,0,0,0-1.854,2.131q-1.992,2.992-1.99,4.715a1.084,1.084,0,0,0,1.269,1.18,5.986,5.986,0,0,0,3.62-1.813A20.83,20.83,0,0,0,978,52.93c-0.059-.3-0.122-0.573-0.181-0.818a2.562,2.562,0,0,1-.091-0.545,2.314,2.314,0,0,1,.182-0.953,7.527,7.527,0,0,1,.453-0.863A1.078,1.078,0,0,0,977.269,49.116Z" transform="translate(-874 -19)"/>
    <path id="Vector-8" data-name="Vector" class="cls-2" d="M985.865,53.29a3.149,3.149,0,0,0,.634-0.636,15.737,15.737,0,0,1,1.178-1.09,1.02,1.02,0,0,0,.453-0.545,5.092,5.092,0,0,0,1-1.09,7.288,7.288,0,0,0,.588-0.636,7.353,7.353,0,0,1,.589-0.636,1.564,1.564,0,0,1-.634-1.362,2.782,2.782,0,0,1,.861-2.04,2.687,2.687,0,0,1,1.944-.863,1.209,1.209,0,0,1,1.45,1.272,1.962,1.962,0,0,1-.091.681,5.382,5.382,0,0,1-.362.681,0.363,0.363,0,0,0-.181.363,0.32,0.32,0,0,0,.362.363V47.663h1.268a1.6,1.6,0,0,1,1.9,1.722,2.25,2.25,0,0,1-.272,1,12.163,12.163,0,0,1-1,1.544,2.769,2.769,0,0,1-.453.772,2.71,2.71,0,0,0-.362.5l-0.906,1.09-1,1.453q-0.9,1.273-1.359,1.858a1.8,1.8,0,0,0-.453,1.044,0.654,0.654,0,0,0,.815.636,5.138,5.138,0,0,0,1.9-.5,19.461,19.461,0,0,0,2.579-1.362,26.38,26.38,0,0,0,2.85-2.04c0.965-.786,1.895-1.6,2.805-2.448l0.73,1-0.37.272q-4.161,3.175-7.193,5.033a10.729,10.729,0,0,1-5.474,1.858q-2.535,0-2.533-2.267a4.682,4.682,0,0,1,1-2.675,34.837,34.837,0,0,1,3.53-3.947,16.933,16.933,0,0,0,1.763-1.813,1.668,1.668,0,0,0,.408-0.817,0.481,0.481,0,0,0-.543-0.545h-0.091l-1.268.091h-0.544a25.827,25.827,0,0,1-4.617,5.079Z" transform="translate(-874 -19)"/>
  </g>
</svg>
