<svg xmlns="http://www.w3.org/2000/svg" width="14" height="14" viewBox="0 0 14 14">
  <defs>
    <style>
      .cls-1 {
        fill: #212121;
        fill-rule: evenodd;
      }
    </style>
  </defs>
  <path id="Vector" class="cls-1" d="M1316.69,149.166l-2.89-2.886a5.736,5.736,0,0,0,1.05-3.357,5.861,5.861,0,0,0-3.63-5.456,5.9,5.9,0,0,0-4.6,0,5.8,5.8,0,0,0-3.15,3.155,5.97,5.97,0,0,0,1.26,6.495,5.926,5.926,0,0,0,1.89,1.262,5.821,5.821,0,0,0,2.3.467,5.752,5.752,0,0,0,3.36-1.043l2.89,2.877a0.987,0.987,0,0,0,.75.32,1.093,1.093,0,0,0,1.08-1.077A1.019,1.019,0,0,0,1316.69,149.166Zm-5.1-3.58a3.773,3.773,0,1,1,1.1-2.663A3.648,3.648,0,0,1,1311.59,145.586Z" transform="translate(-1303 -137)"/>
</svg>
