<svg id="Whatsapp" xmlns="http://www.w3.org/2000/svg" width="42" height="42" viewBox="0 0 42 42">
  <defs>
    <style>
      .cls-1 {
        fill: #67d449;
        fill-rule: evenodd;
      }
    </style>
  </defs>
  <path id="Fill-232" class="cls-1" d="M1350.05,43.257a8.656,8.656,0,0,0-7.34,13.251l0.21,0.327-0.87,3.192,3.27-.858,0.32,0.186a8.6,8.6,0,0,0,4.4,1.206h0a8.674,8.674,0,0,0,8.66-8.649A8.665,8.665,0,0,0,1350.05,43.257Zm5.09,12.367a2.694,2.694,0,0,1-1.76,1.236,3.584,3.584,0,0,1-1.64-.1,15.065,15.065,0,0,1-1.48-.549,11.566,11.566,0,0,1-4.44-3.926,5.042,5.042,0,0,1-1.07-2.689,2.949,2.949,0,0,1,.91-2.169,0.962,0.962,0,0,1,.7-0.326c0.17,0,.34,0,0.5.009a0.513,0.513,0,0,1,.58.446c0.22,0.521.74,1.8,0.8,1.931a0.457,0.457,0,0,1,.02.455,1.6,1.6,0,0,1-.26.434c-0.13.151-.27,0.339-0.38,0.456a0.381,0.381,0,0,0-.12.53,7.637,7.637,0,0,0,1.45,1.8,7.092,7.092,0,0,0,2.09,1.291,0.394,0.394,0,0,0,.56-0.066c0.15-.173.65-0.759,0.83-1.02a0.4,0.4,0,0,1,.58-0.13c0.24,0.087,1.52.715,1.78,0.847a1.362,1.362,0,0,1,.5.3A2.283,2.283,0,0,1,1355.14,55.624Z" transform="translate(-1329 -31)"/>
  <g id="Fill-324">
    <path id="Fill-233" class="cls-1" d="M1350,31a21,21,0,1,0,21,21A21,21,0,0,0,1350,31Zm0.04,31.319h0a10.419,10.419,0,0,1-4.98-1.267l-5.51,1.448,1.47-5.393A10.41,10.41,0,1,1,1350.04,62.319Z" transform="translate(-1329 -31)"/>
  </g>
</svg>
