<svg width="41" height="38" fill="none" xmlns="http://www.w3.org/2000/svg"><path d="M32.321 18.028a5.813 5.813 0 00-.465-3.083 5.85 5.85 0 00-1.995-2.407l10.76-1.373-8.3 6.863z" fill="#FF4B4B"/><path d="M37.851 15.3l-2.726 2.174c.752 7.718-4.264 15.06-12.049 17.032a16.068 16.068 0 01-6.227.337 6.55 6.55 0 01-3.18 2.364 19.077 19.077 0 0010.153.202c9.705-2.457 15.846-11.454 14.03-22.11zm-15.806 6.836zM33.547 6.561c.016 1.23-.526 2.36-1.286 3.217a4.793 4.793 0 01-3.595 1.616h-11.74v5.837h10.058a4.862 4.862 0 01-1.446 3.469 5.612 5.612 0 01-.35.317 5.022 5.022 0 01-1 .637l-.11.05a4.955 4.955 0 01-2.03.432h-5.122v8.932a5.318 5.318 0 01-1.347 3.542c-.948 1.07-2.322 1.845-3.854 1.902l-.183-.077c-.388-.167-.77-.346-1.146-.538a19.043 19.043 0 01-6.225-5.054 18.918 18.918 0 01-3.578-7.156c-2.597-10.151 3.591-20.515 13.8-23.1a19.213 19.213 0 019.595.044 19.138 19.138 0 018.364 4.678h-4.923a16.142 16.142 0 00-8.33-2.314 16.142 16.142 0 00-8.706 2.547c-5.653 3.631-8.63 10.573-6.88 17.406 1 3.92 3.46 7.316 6.882 9.5.372.239.754.462 1.146.67V6.457h22.005l.002.105zM22.045 22.136z" fill="#fff"/></svg>