<svg width="362" height="362" fill="none" xmlns="http://www.w3.org/2000/svg"><rect width="362" height="362" rx="54" fill="url(#paint0_linear)"/><path d="M270.529 214.578l.003-.006c3.99-10.261 5.976-21.498 5.976-33.695 0-12.196-1.986-23.366-5.979-33.491-3.987-10.112-9.691-18.886-17.111-26.307-7.419-7.56-16.192-13.336-26.305-17.326-9.99-4.137-21.094-6.193-33.292-6.193h-38.024c-3.426 0-6.368 1.18-8.737 3.54-2.406 2.255-3.575 5.225-3.575 8.771v142.222c0 3.434 1.186 6.383 3.558 8.754 2.372 2.372 5.32 3.558 8.754 3.558h38.024c12.196 0 23.298-1.986 33.287-5.981l.01-.004c10.107-4.128 18.877-9.901 26.296-17.32l.009-.009c7.416-7.559 13.119-16.401 17.106-26.513zm-46.325-87.128l.008.005c8.884 5.194 15.85 12.363 20.913 21.531 5.053 9.149 7.6 19.766 7.6 31.891 0 11.98-2.545 22.6-7.602 31.895-5.064 9.169-12.033 16.41-20.922 21.744-8.721 5.177-18.833 7.787-30.38 7.787h-25.712V119.662h25.712c11.548 0 21.66 2.61 30.383 7.788z" fill="#fff" stroke="#fff" stroke-width="2.775"/><path d="M88.263 262.178l.028.039.032.036c1.205 1.376 2.837 2.029 4.747 2.029 2.856 0 5.683-1.505 8.458-4.141 2.769-2.63 5.301-5.993 7.609-10.062 2.448-4.084 4.35-8.502 5.708-13.251 1.494-4.758 2.25-9.339 2.25-13.739v-.015l-.001-.014c-.137-6.028-1.577-10.971-4.445-14.706-2.812-3.84-7.02-5.697-12.393-5.697-4.383 0-7.995 1.281-10.678 3.964-2.648 2.649-3.964 5.973-3.964 9.88 0 2.583.575 4.84 1.81 6.692a30 30 0 003.751 4.585l.024.023.025.022a24.36 24.36 0 013.416 3.797c.872 1.198 1.355 2.782 1.355 4.844 0 2.974-.74 5.437-2.164 7.454l-.015.021-.014.022a56.2 56.2 0 01-4.49 6.052l-.03.037-.03.038c-1.635 2.231-2.44 4.827-2.44 7.737a7.11 7.11 0 001.45 4.353zm1.699-107.066l.02.022.023.021c3.025 2.881 6.6 4.348 10.669 4.348 4.192 0 7.782-1.459 10.692-4.369l.011-.011.01-.011c2.881-3.025 4.348-6.6 4.348-10.669 0-4.186-1.456-7.773-4.358-10.681-2.903-3.042-6.496-4.58-10.703-4.58-4.09 0-7.67 1.549-10.69 4.569-2.901 2.901-4.37 6.42-4.37 10.492 0 4.19 1.458 7.834 4.347 10.869z" fill="#fff" stroke="#fff" stroke-width="2.534"/><defs><linearGradient id="paint0_linear" x1="113.125" y1="0" x2="248.875" y2="362" gradientUnits="userSpaceOnUse"><stop stop-color="#56CCF2"/><stop offset="1" stop-color="#2F80ED"/></linearGradient></defs></svg>