<svg width="126" height="33" fill="none" xmlns="http://www.w3.org/2000/svg"><path d="M46.78 11.52h6.722c.454 0 .832.152 1.135.455.303.302.454.68.454 1.134 0 .435-.151.804-.454 1.107-.303.283-.68.425-1.135.425H46.78c-.454 0-.832-.151-1.135-.454a1.54 1.54 0 01-.454-1.134c0-.435.152-.795.454-1.079.303-.302.681-.453 1.135-.453zm3.035-3.545c.491 0 .888.17 1.19.51.322.322.483.728.483 1.22V22.33c0 .265.047.482.142.652.113.17.255.294.426.37.189.075.387.113.595.113.227 0 .435-.038.624-.114a1.44 1.44 0 01.653-.142c.265 0 .501.123.71.37.226.245.34.585.34 1.02 0 .53-.294.965-.88 1.305a3.52 3.52 0 01-1.844.511c-.397 0-.841-.028-1.333-.085a4.052 4.052 0 01-1.362-.482c-.416-.265-.766-.662-1.05-1.192-.283-.53-.425-1.258-.425-2.184V9.705c0-.492.16-.898.482-1.22.34-.34.757-.51 1.248-.51zm-9.678 3.007c.492 0 .898.17 1.22.511.322.322.482.728.482 1.22v7.205c0 2.005-.558 3.594-1.673 4.766-1.116 1.173-2.724 1.76-4.823 1.76-2.1 0-3.707-.587-4.823-1.76-1.096-1.172-1.645-2.76-1.645-4.766v-7.205c0-.492.16-.898.482-1.22.322-.34.728-.51 1.22-.51s.898.17 1.22.51c.321.322.482.728.482 1.22v7.205c0 1.154.255 2.015.766 2.582.51.548 1.277.823 2.298.823 1.04 0 1.815-.275 2.326-.823.51-.567.766-1.428.766-2.582v-7.205c0-.492.16-.898.482-1.22.322-.34.728-.51 1.22-.51z" fill="#F2F7FF"/><path d="M84.973 18.595h0v12.292c0 .436.14.807.43 1.095.303.304.681.456 1.122.456.454 0 .835-.15 1.124-.458.288-.288.428-.658.428-1.093v-6.81a7.316 7.316 0 002.005 1.497h0l.004.002c.924.443 1.93.664 3.015.664 1.342 0 2.551-.331 3.624-.997h0l.001-.001a7.193 7.193 0 002.514-2.734c.626-1.16.937-2.465.937-3.91 0-1.448-.34-2.755-1.02-3.916a7.282 7.282 0 00-2.706-2.732c-1.143-.682-2.441-1.022-3.89-1.022-1.43 0-2.719.34-3.862 1.022a7.281 7.281 0 00-2.705 2.733c-.663 1.16-1.003 2.466-1.02 3.912zm11.813 2.503v.002a4.647 4.647 0 01-1.635 1.74c-.688.412-1.473.62-2.36.62a4.588 4.588 0 01-2.36-.621 4.646 4.646 0 01-1.634-1.739c-.398-.744-.599-1.577-.599-2.503 0-.944.201-1.776.598-2.502h0l.001-.001a4.396 4.396 0 011.633-1.737h0a4.441 4.441 0 012.361-.649c.886 0 1.67.217 2.359.647h0l.002.002c.69.414 1.234.991 1.633 1.737h0l.002.004c.414.725.624 1.556.624 2.5 0 .924-.21 1.756-.625 2.5zm-27.303 4.144l.002.001c1.072.666 2.282.997 3.624.997s2.552-.331 3.624-.997h0l.002-.001a7.2 7.2 0 001.398-1.161v.526c0 .437.14.814.425 1.119h0l.009.008a1.58 1.58 0 001.118.425c.436 0 .807-.14 1.096-.43.304-.303.456-.681.456-1.122v-6.126h-.001c-.018-1.402-.357-2.67-1.02-3.8a7.281 7.281 0 00-2.705-2.731c-1.143-.682-2.432-1.022-3.863-1.022-1.43 0-2.728.34-3.89 1.021a7.484 7.484 0 00-2.73 2.732h0l-.002.002c-.663 1.16-.993 2.467-.993 3.915 0 1.444.302 2.749.91 3.909h0v.003a7.406 7.406 0 002.54 2.732zm7.927-9.148h0l.001.002c.397.725.598 1.557.598 2.502 0 .925-.2 1.758-.598 2.502a4.647 4.647 0 01-1.635 1.74c-.688.412-1.473.62-2.36.62a4.588 4.588 0 01-2.36-.621 4.862 4.862 0 01-1.662-1.74c-.397-.744-.597-1.577-.597-2.502 0-.944.2-1.776.597-2.5a4.59 4.59 0 011.661-1.74h.001a4.442 4.442 0 012.36-.649c.886 0 1.67.217 2.359.647h0l.003.002c.69.414 1.234.991 1.632 1.737zM59.35 25.81h0l.009.009a1.58 1.58 0 001.118.425c.452 0 .832-.14 1.122-.43h0l.005-.004c.284-.304.425-.681.425-1.118V12.7c0-.452-.14-.833-.43-1.123-.29-.29-.67-.43-1.122-.43-.437 0-.813.141-1.118.426h0l-.005.004c-.29.29-.429.67-.429 1.123v11.992c0 .437.14.814.425 1.118zm-.268-17.273h0l.006.006c.392.372.857.56 1.389.56s.99-.188 1.365-.563c.39-.391.59-.858.59-1.392a1.82 1.82 0 00-.59-1.365 1.823 1.823 0 00-1.365-.591c-.535 0-1.001.2-1.392.59a1.866 1.866 0 00-.564 1.366c0 .531.189.997.56 1.389zM24.559 19.834v-.001c.512-1.316.767-2.758.767-4.322 0-1.565-.255-2.998-.767-4.297a9.797 9.797 0 00-2.195-3.374 9.61 9.61 0 00-3.375-2.223c-1.281-.53-2.706-.794-4.27-.794H9.84c-.44 0-.817.151-1.12.454-.309.289-.459.67-.459 1.124v18.245c0 .44.152.819.456 1.123.304.304.683.456 1.123.456h4.878c1.564 0 2.989-.255 4.27-.767h.001a10.133 10.133 0 003.373-2.222l.001-.002a10.083 10.083 0 002.195-3.4zM18.617 8.656h0a7.125 7.125 0 012.684 2.763c.648 1.174.975 2.536.975 4.091 0 1.537-.326 2.9-.975 4.092a7.322 7.322 0 01-2.684 2.79c-1.12.664-2.417 1-3.898 1h-3.3V7.656h3.3c1.481 0 2.779.334 3.898.999z" fill="#F2F7FF" stroke="#F2F7FF" stroke-width=".355"/><path d="M1.176 25.94v.001l.008.01c.155.177.365.26.61.26.367 0 .73-.193 1.086-.531.355-.338.68-.77.976-1.291a7.073 7.073 0 00.733-1.7 5.908 5.908 0 00.288-1.764h0v-.003c-.017-.774-.202-1.408-.57-1.888-.361-.493-.901-.731-1.591-.731-.563 0-1.026.164-1.371.509-.34.34-.509.767-.509 1.268 0 .332.074.622.232.86.143.213.303.41.482.588h0l.006.006c.162.146.308.308.438.487.112.153.174.356.174.62 0 .382-.095.697-.278.956h0l-.003.005a7.21 7.21 0 01-.576.776h0l-.008.01a1.64 1.64 0 00-.313.993c0 .207.062.395.186.56zm.218-13.734h0l.006.005c.388.37.847.559 1.37.559.538 0 .999-.188 1.372-.561h0l.003-.003c.37-.388.558-.847.558-1.37 0-.537-.187-.998-.56-1.371a1.832 1.832 0 00-1.373-.588c-.526 0-.985.199-1.373.587a1.842 1.842 0 00-.561 1.346c0 .538.187 1.006.558 1.396z" fill="#F2F7FF" stroke="#F2F7FF" stroke-width=".328"/><rect x="93" width="33" height="16" rx="3" fill="#5798F6"/><path d="M100.984 6c.512 0 .964.124 1.356.372.392.248.696.6.912 1.056.224.456.336.988.336 1.596 0 .6-.112 1.132-.336 1.596a2.499 2.499 0 01-.924 1.08c-.392.256-.84.384-1.344.384-.44 0-.828-.092-1.164-.276a1.893 1.893 0 01-.768-.816V12H97.84V3.54h1.212v3.564c.176-.352.432-.624.768-.816A2.305 2.305 0 01100.984 6zm-.288 5.124c.52 0 .924-.184 1.212-.552.296-.368.444-.884.444-1.548 0-.656-.144-1.16-.432-1.512-.288-.36-.696-.54-1.224-.54s-.936.18-1.224.54c-.28.36-.42.872-.42 1.536s.14 1.176.42 1.536c.288.36.696.54 1.224.54zm9.25-1.848h-4.14c.088 1.24.704 1.86 1.848 1.86.672 0 1.28-.22 1.824-.66l.372.852a3.044 3.044 0 01-1.008.552c-.4.136-.808.204-1.224.204-.936 0-1.676-.268-2.22-.804-.536-.536-.804-1.276-.804-2.22 0-.6.116-1.132.348-1.596.24-.464.572-.824.996-1.08.432-.256.92-.384 1.464-.384.792 0 1.412.256 1.86.768.456.512.684 1.22.684 2.124v.384zm-2.52-2.388c-.464 0-.836.148-1.116.444-.272.288-.436.704-.492 1.248h3.084c-.024-.544-.164-.96-.42-1.248-.248-.296-.6-.444-1.056-.444zm6.569 4.26c.184 0 .364-.012.54-.036l-.06.924c-.2.032-.408.048-.624.048-.76 0-1.328-.184-1.704-.552-.368-.376-.552-.916-.552-1.62V7.08h-1.14v-.936h1.14V4.38h1.212v1.764h1.608v.936h-1.608v2.784c0 .856.396 1.284 1.188 1.284zM117.901 6c.784 0 1.364.196 1.74.588.384.392.576.988.576 1.788V12h-1.164v-.972c-.152.344-.38.608-.684.792a2.005 2.005 0 01-1.044.264 2.43 2.43 0 01-1.056-.228 1.9 1.9 0 01-.756-.66 1.723 1.723 0 01-.264-.936c0-.424.108-.756.324-.996.224-.248.588-.424 1.092-.528.512-.104 1.212-.156 2.1-.156h.276v-.348c0-.448-.096-.772-.288-.972-.184-.2-.488-.3-.912-.3-.664 0-1.328.204-1.992.612l-.36-.852a3.865 3.865 0 011.128-.516A4.42 4.42 0 01117.901 6zm-.36 5.184c.44 0 .8-.148 1.08-.444.28-.304.42-.692.42-1.164v-.312h-.216c-.624 0-1.104.028-1.44.084-.336.056-.576.152-.72.288-.144.128-.216.316-.216.564 0 .28.1.516.3.708.208.184.472.276.792.276z" fill="#fff"/></svg>