<svg width="30" height="30" fill="none" xmlns="http://www.w3.org/2000/svg"><path d="M15 .05C6.741.05.046 6.747.046 15.006S6.74 29.959 15 29.959c8.26 0 14.954-6.695 14.954-14.954C29.954 6.747 23.26.05 15 .05zm6.858 21.569a.932.932 0 01-1.282.309c-3.511-2.145-7.931-2.63-13.137-1.442a.932.932 0 01-.415-1.817c5.697-1.302 10.583-.741 14.525 1.668a.93.93 0 01.309 1.282zm1.83-4.073a1.166 1.166 0 01-1.603.385c-4.02-2.471-10.147-3.187-14.902-1.743a1.168 1.168 0 01-1.455-.777 1.168 1.168 0 01.778-1.454c5.43-1.648 12.182-.85 16.798 1.987.549.337.722 1.055.384 1.603zm.157-4.24c-4.82-2.862-12.771-3.126-17.373-1.729A1.399 1.399 0 115.66 8.9c5.283-1.603 14.064-1.294 19.613 2a1.397 1.397 0 11-1.427 2.406z" fill="#1ED760"/></svg>