<svg width="24" height="30" fill="none" xmlns="http://www.w3.org/2000/svg"><path d="M11.697 29.65c6.46 0 11.697-5.231 11.697-11.684 0-6.452-5.237-11.683-11.697-11.683C5.237 6.283 0 11.513 0 17.966 0 24.42 5.237 29.65 11.697 29.65z" fill="#FC0"/><path fill-rule="evenodd" clip-rule="evenodd" d="M17.554 6.06v10.928l-.025.008v.015c0 1.068-.078 2.065-.223 2.575a5.834 5.834 0 01-5.625 4.223 5.809 5.809 0 01-5.815-5.834 5.808 5.808 0 015.815-5.832 5.833 5.833 0 014.85 2.576 5.901 5.901 0 01-.143-1.142V.437L24 2.768v5.276L17.554 6.06z" fill="#F33"/></svg>