<svg width="40" height="26" viewBox="0 0 40 26" fill="none" xmlns="http://www.w3.org/2000/svg">
<path d="M0 3C0 1.61929 1.11929 0.5 2.5 0.5H37.5C38.8807 0.5 40 1.61929 40 3C40 4.38071 38.8807 5.5 37.5 5.5H2.5C1.11929 5.5 0 4.38071 0 3Z" fill="white"/>
<path d="M0 13C0 11.6193 1.11929 10.5 2.5 10.5H37.5C38.8807 10.5 40 11.6193 40 13C40 14.3807 38.8807 15.5 37.5 15.5H2.5C1.11929 15.5 0 14.3807 0 13Z" fill="white"/>
<path d="M0 23C0 21.6193 1.11929 20.5 2.5 20.5H37.5C38.8807 20.5 40 21.6193 40 23C40 24.3807 38.8807 25.5 37.5 25.5H2.5C1.11929 25.5 0 24.3807 0 23Z" fill="white"/>
</svg>
