<svg width="17" height="17" viewBox="0 0 17 17" fill="none" xmlns="http://www.w3.org/2000/svg">
<path d="M6.91665 2.16659C4.29329 2.16659 2.16665 4.29323 2.16665 6.91659C2.16665 9.53994 4.29329 11.6666 6.91665 11.6666C9.54 11.6666 11.6666 9.53994 11.6666 6.91659C11.6666 4.29323 9.54 2.16659 6.91665 2.16659ZM0.583313 6.91659C0.583313 3.41878 3.41884 0.583252 6.91665 0.583252C10.4145 0.583252 13.25 3.41878 13.25 6.91659C13.25 8.38015 12.7535 9.72776 11.9199 10.8002L16.1848 15.0651C16.4939 15.3743 16.4939 15.8755 16.1848 16.1847C15.8756 16.4939 15.3744 16.4939 15.0652 16.1847L10.8003 11.9198C9.72782 12.7535 8.38021 13.2499 6.91665 13.2499C3.41884 13.2499 0.583313 10.4144 0.583313 6.91659Z" fill="white" fill-opacity="0.4"/>
</svg>
