<svg width="158" height="38" fill="none" xmlns="http://www.w3.org/2000/svg"><g clip-path="url(#clip0)"><path d="M43.27 28.019V8.709h3.796v19.31H43.27zm18.749-5.723h-8.56c.347 1.952 1.524 2.862 3.102 2.862 1.257 0 2.14-.401 3.182-1.338l1.712 2.3c-1.257 1.392-2.862 2.194-5.028 2.194-3.824 0-6.74-2.835-6.74-7.275v-.267c0-4.25 2.648-7.329 6.285-7.329 4.092 0 6.099 3.344 6.099 7.596 0 .295-.028.99-.052 1.257zm-6.044-5.75c-1.39 0-2.3 1.15-2.54 3.21h4.97c-.16-1.98-1.016-3.21-2.433-3.21h.003zm20.322 5.75H67.74c.348 1.952 1.524 2.862 3.102 2.862 1.257 0 2.14-.401 3.183-1.338l1.712 2.3c-1.257 1.392-2.862 2.194-5.028 2.194-3.825 0-6.74-2.835-6.74-7.275v-.267c0-4.25 2.648-7.329 6.285-7.329 4.092 0 6.098 3.344 6.098 7.596 0 .295-.027.99-.053 1.257zm-6.044-5.75c-1.39 0-2.3 1.15-2.54 3.21h4.974c-.16-1.98-1.017-3.21-2.434-3.21zM83.225 28.23c-2.193 0-3.795-.829-3.795-3.795v-7.541h-1.442v-3.21h1.442V10.02h3.795v3.664h2.862v3.21h-2.862v6.766c0 .829.375 1.23 1.178 1.23a3.345 3.345 0 001.63-.401v3.049c-.721.428-1.658.692-2.808.692zm9.708 0c-2.193 0-3.796-.829-3.796-3.795v-7.541h-1.442v-3.21h1.443V10.02h3.795v3.664h2.864v3.21h-2.862v6.766c0 .829.374 1.23 1.177 1.23a3.35 3.35 0 001.632-.401v3.049c-.725.428-1.661.692-2.811.692zm12.862-10.669c-2.353 0-3.744 1.443-3.744 4.468v5.99h-3.796V13.684h3.796v2.54c.722-1.738 1.846-2.86 3.905-2.781v4.118h-.161zm9.013 10.458v-1.524c-.855 1.096-2.032 1.764-3.719 1.764-2.38 0-4.279-1.55-4.279-4.305v-.187c0-3.157 2.059-4.574 5.001-4.574a7.81 7.81 0 013.022.562v-.401c0-1.632-.936-2.514-2.755-2.514-1.337 0-2.326.294-3.476.749l-.723-3.076c1.391-.615 2.733-.987 4.815-.987 3.958 0 5.83 2.114 5.83 5.804v8.689h-3.716zm.054-5.91c-.531-.268-1.311-.456-2.113-.456-1.39 0-2.273.642-2.273 1.925v.188c0 1.176.776 1.765 1.846 1.765 1.497 0 2.54-.882 2.54-2.193v-1.23zm10.966-5.215v11.125h-3.769V16.894h-1.442v-3.13h1.442v-.936c0-2.942 1.497-4.28 4.175-4.28 1.069 0 1.765.135 2.38.322V12a3.886 3.886 0 00-1.394-.241c-.91 0-1.418.481-1.418 1.47v.535h2.782v3.13h-2.756zm8.985 0v11.125h-3.771V16.894H129.6v-3.13h1.442v-.936c0-2.942 1.498-4.28 4.175-4.28 1.069 0 1.765.135 2.38.322V12a3.883 3.883 0 00-1.39-.241c-.911 0-1.418.481-1.418 1.47v.535h2.782v3.13h-2.758zm4.681-4.734V8.71h3.958v3.45h-3.958zm.053 15.86V13.683h3.796v14.335h-3.796zm12.997.294c-3.824 0-6.552-3.023-6.552-7.275v-.294c0-4.251 2.781-7.302 6.603-7.302 2.193 0 3.477.643 4.6 1.793l-1.711 2.834c-.803-.775-1.578-1.256-2.782-1.256-1.711 0-2.942 1.55-2.942 3.878v.32c0 2.38 1.204 3.932 3.076 3.932 1.097 0 1.926-.482 2.781-1.257l1.661 2.62c-1.177 1.205-2.461 2.007-4.734 2.007zM31.976 18a5.808 5.808 0 00-2.432-5.457l10.635-1.365-8.203 6.821z" fill="#FF4B4B"/><path d="M37.441 15.287l-2.694 2.161c.743 7.672-4.214 14.97-11.909 16.93-2.01.514-4.1.627-6.154.334a6.478 6.478 0 01-3.144 2.35 18.755 18.755 0 0010.035.201c9.593-2.443 15.662-11.385 13.866-21.976zm-15.623 6.796zM33.187 6.602c.016 1.223-.52 2.345-1.27 3.197a4.714 4.714 0 01-3.554 1.607H16.758v5.8H26.7a4.855 4.855 0 01-1.962 3.909 4.988 4.988 0 01-.802.487l-.108.05a4.857 4.857 0 01-2.007.43h-5.063v8.878a5.302 5.302 0 01-1.331 3.52c-.938 1.064-2.295 1.835-3.81 1.891l-.18-.076a19.021 19.021 0 01-1.133-.535A18.842 18.842 0 01.615 23.624c-2.567-10.09 3.55-20.39 13.64-22.96a18.886 18.886 0 0117.75 4.693h-4.866a15.888 15.888 0 00-16.838.232c-5.588 3.609-8.53 10.508-6.8 17.3a15.846 15.846 0 006.802 9.444c.368.236.745.458 1.132.666V6.497h21.75c.002.032.002.068.002.105zM21.818 22.083z" fill="#1D7693"/></g><defs><clipPath id="clip0"><path fill="#fff" d="M0 0h157.278v38H0z"/></clipPath></defs></svg>