<svg width="41" height="38" viewBox="0 0 41 38" fill="none" xmlns="http://www.w3.org/2000/svg">
<path d="M32.3213 18.028C32.4498 16.9772 32.2888 15.9114 31.8555 14.9445C31.4223 13.9776 30.733 13.1459 29.8613 12.5382L40.6207 11.165L32.3213 18.028Z" fill="#FF4B4B"/>
<path d="M37.8512 15.2996L35.1252 17.4738C35.8772 25.1921 30.8613 32.5347 23.0761 34.5061C21.0429 35.0238 18.9271 35.1381 16.8495 34.8426C16.0609 35.939 14.9499 36.7652 13.6694 37.2075C16.9722 38.1907 20.4819 38.2605 23.8216 37.4094C33.5272 34.952 39.6683 25.9549 37.8512 15.2996Z" fill="white"/>
<path d="M22.0454 22.1364C22.7455 22.1372 23.4378 21.9893 24.0758 21.7026C23.4377 21.9889 22.7455 22.1367 22.0454 22.1364Z" fill="white"/>
<path d="M33.5472 6.56135C33.5632 7.79149 33.0208 8.92069 32.2613 9.77786C31.8127 10.2866 31.2599 10.6941 30.6399 10.9728C30.0199 11.2516 29.3471 11.3952 28.6667 11.3941H16.925V17.2307H26.9831C26.984 17.8751 26.8568 18.5134 26.6086 19.1087C26.3605 19.7041 25.9964 20.2447 25.5374 20.6996C25.4819 20.7548 25.4245 20.809 25.3663 20.8622C25.308 20.9155 25.2488 20.966 25.1867 21.0165C25.1247 21.067 25.0636 21.1146 24.9987 21.1623C24.8728 21.2558 24.7402 21.3446 24.6058 21.4259C24.5372 21.467 24.4686 21.5063 24.399 21.5446C24.3294 21.583 24.258 21.6185 24.1866 21.6531L24.0775 21.7035C23.4393 21.9894 22.7471 22.137 22.0471 22.1363H16.925V31.068C16.9266 32.3726 16.4474 33.6327 15.5779 34.6098C14.6295 35.6791 13.2561 36.455 11.7239 36.512L11.5406 36.4354C11.1527 36.2683 10.7707 36.0889 10.3947 35.8969C7.98223 34.6712 5.86016 32.9482 4.1699 30.8428C2.47964 28.7374 1.26001 26.298 0.592275 23.6871C-2.00498 13.5356 4.18312 3.17191 14.3916 0.586362C17.5419 -0.210436 20.8445 -0.194927 23.987 0.631423C27.1295 1.45777 30.0081 3.06765 32.3506 5.30877H27.4277C24.9158 3.79524 22.0349 2.99502 19.0978 2.99502C16.1607 2.99502 13.2798 3.79524 10.7679 5.30877C10.641 5.38449 10.5169 5.46207 10.3919 5.54246C4.73867 9.17307 1.76165 16.1146 3.51195 22.9477C4.51107 26.868 6.97107 30.2642 10.3938 32.4486C10.766 32.6867 11.148 32.9101 11.5396 33.1188V6.45572H33.5453C33.5462 6.4875 33.5472 6.52396 33.5472 6.56135Z" fill="white"/>
<path d="M22.0454 22.1364C22.7455 22.1372 23.4378 21.9893 24.0758 21.7026C23.4377 21.9889 22.7455 22.1367 22.0454 22.1364Z" fill="white"/>
</svg>
