<svg width="25" height="24" fill="none" xmlns="http://www.w3.org/2000/svg"><path d="M17.946 2.135a1 1 0 01.498.865v4c1.185 0 2.25.516 2.982 1.333A3.989 3.989 0 0122.445 11c0 1.024-.387 1.96-1.02 2.667A3.993 3.993 0 0118.446 15v4a1 1 0 01-1.497.868l-6.504-3.716V21a1 1 0 01-1 1h-4a1 1 0 01-1-1v-5a2 2 0 01-2-2V8a2 2 0 012-2h5.735l6.77-3.868a1 1 0 01.997.003zM10.444 14a1 1 0 01.497.132l5.504 3.145V4.723L10.94 7.868a1 1 0 01-.497.132h-6v6h6zm-4 2v4h2v-4h-2zm12-3a1.99 1.99 0 001.491-.667c.318-.354.51-.82.51-1.333s-.192-.979-.51-1.333A1.992 1.992 0 0018.445 9v4z" fill="#fff" fill-opacity=".6"/></svg>