<svg width="30" height="32" fill="none" xmlns="http://www.w3.org/2000/svg"><path d="M9.674 3.556a1.778 1.778 0 100 3.555 1.778 1.778 0 000-3.555zm-5.03 0a5.336 5.336 0 0110.06 0h12.748a1.778 1.778 0 110 3.555H14.704a5.336 5.336 0 01-10.06 0H2.563a1.778 1.778 0 010-3.555h2.081zm15.697 10.666a1.778 1.778 0 100 3.556 1.778 1.778 0 000-3.556zm-5.03 0a5.335 5.335 0 0110.06 0h2.08a1.778 1.778 0 010 3.556h-2.08a5.336 5.336 0 01-10.06 0H2.563a1.778 1.778 0 010-3.556H15.31zM9.674 24.89a1.778 1.778 0 100 3.555 1.778 1.778 0 000-3.555zm-5.03 0a5.336 5.336 0 0110.06 0h12.748a1.778 1.778 0 110 3.555H14.704a5.336 5.336 0 01-10.06 0H2.563a1.778 1.778 0 110-3.555h2.081z" fill="#fff" fill-opacity=".4"/></svg>