<svg width="16" height="16" fill="none" xmlns="http://www.w3.org/2000/svg"><path d="M11.816.26a.889.889 0 011.257 0l2.667 2.667a.889.889 0 010 1.257l-8 8a.889.889 0 01-.629.26H4.444a.889.889 0 01-.888-.888V8.889c0-.236.093-.462.26-.629l8-8zM5.333 9.257v1.41h1.41l7.111-7.111-1.41-1.41-7.11 7.111zM0 3.556c0-.982.796-1.778 1.778-1.778h4.444a.889.889 0 010 1.778H1.778v10.666h10.666V9.778a.889.889 0 011.778 0v4.444c0 .982-.796 1.778-1.778 1.778H1.778A1.778 1.778 0 010 14.222V3.556z" fill="#fff" fill-opacity=".6"/></svg>