<svg width="33" height="32" fill="none" xmlns="http://www.w3.org/2000/svg"><path d="M4.015 6.828V10a2 2 0 11-4 0V2a2 2 0 012-2h8a2 2 0 010 4H6.843l4.586 4.586A2 2 0 018.6 11.414L4.015 6.828zm18-2.828a2 2 0 010-4h8a2 2 0 012 2v8a2 2 0 11-4 0V6.828l-4.586 4.586A2 2 0 1120.6 8.586L25.186 4h-3.171zm-20 16a2 2 0 012 2v3.172L8.6 20.586a2 2 0 112.829 2.828L6.843 28h3.172a2 2 0 110 4h-8a2 2 0 01-2-2v-8a2 2 0 012-2zM20.6 23.414a2 2 0 012.829-2.828l4.586 4.586V22a2 2 0 014 0v8a2 2 0 01-2 2h-8a2 2 0 010-4h3.171L20.6 23.414z" fill="#fff" fill-opacity=".4"/></svg>