<svg width="16" height="16" fill="none" xmlns="http://www.w3.org/2000/svg"><path d="M8.667 4a.667.667 0 11-1.333 0 .667.667 0 011.333 0zM8 12.667a.5.5 0 01-.5-.5V7h-.666a.5.5 0 010-1h1.167a.5.5 0 01.5.5v5.667a.5.5 0 01-.5.5z" fill="#000" fill-opacity=".5"/><path d="M8 16c-4.411 0-8-3.589-8-8s3.589-8 8-8 8 3.589 8 8-3.589 8-8 8zM8 1C4.14 1 1 4.14 1 8s3.14 7 7 7 7-3.14 7-7-3.14-7-7-7z" fill="#000" fill-opacity=".5"/><path d="M9.5 12.667h-3a.5.5 0 010-1h3a.5.5 0 010 1z" fill="#000" fill-opacity=".5"/></svg>