<svg width="14" height="16" fill="none" xmlns="http://www.w3.org/2000/svg"><path fill-rule="evenodd" clip-rule="evenodd" d="M10.192 6.15a.563.563 0 01-.563-.562v-1.61a2.854 2.854 0 00-2.85-2.851h-.012c-.76 0-1.472.292-2.01.825a2.826 2.826 0 00-.843 2.013v1.623a.563.563 0 01-1.125 0v-1.61a3.959 3.959 0 011.176-2.824C4.719.406 5.715-.026 6.78.002a3.98 3.98 0 013.973 3.975v1.61a.563.563 0 01-.562.563z" fill="#fff"/><path fill-rule="evenodd" clip-rule="evenodd" d="M3.906 6.097a2.283 2.283 0 00-2.281 2.281v3.217a2.283 2.283 0 002.281 2.281h5.731a2.284 2.284 0 002.282-2.281V8.378a2.284 2.284 0 00-2.282-2.281h-5.73zM9.637 15h-5.73A3.41 3.41 0 01.5 11.595V8.378a3.41 3.41 0 013.406-3.406h5.731a3.41 3.41 0 013.407 3.406v3.217A3.41 3.41 0 019.637 15z" fill="#fff"/><path fill-rule="evenodd" clip-rule="evenodd" d="M6.772 11.382a.563.563 0 01-.563-.563V9.154a.563.563 0 011.125 0v1.665c0 .31-.252.563-.562.563z" fill="#fff"/></svg>