<svg width="32" height="32" fill="none" xmlns="http://www.w3.org/2000/svg"><path d="M16 0c.606 0 1.16.359 1.431.926l4.126 8.641 9.073 1.382a1.622 1.622 0 011.292 1.14 1.73 1.73 0 01-.405 1.718l-6.603 6.742 1.485 9.505a1.712 1.712 0 01-.646 1.632 1.54 1.54 0 01-1.683.119L16 27.32l-8.07 4.484a1.54 1.54 0 01-1.683-.12 1.712 1.712 0 01-.646-1.631l1.485-9.505-6.603-6.742a1.73 1.73 0 01-.405-1.717 1.622 1.622 0 011.292-1.14l9.073-1.383 4.126-8.64A1.594 1.594 0 0116 0zm0 5.422l-3.069 6.427c-.234.49-.682.83-1.2.908l-6.694 1.02 4.88 4.982c.374.381.546.93.462 1.47L9.28 27.26l5.97-3.317a1.54 1.54 0 011.5 0l5.97 3.317-1.099-7.032a1.725 1.725 0 01.462-1.47l4.88-4.982-6.693-1.02a1.607 1.607 0 01-1.201-.908L16 5.422z" fill="#fff" fill-opacity=".4"/></svg>