<svg width="28" height="28" fill="none" xmlns="http://www.w3.org/2000/svg"><circle cx="14" cy="14" r="11.667" fill="#1DA1F2" fill-opacity=".7"/><path fill-rule="evenodd" clip-rule="evenodd" d="M21 9.513a5.735 5.735 0 01-1.65.452 2.88 2.88 0 001.263-1.589c-.554.33-1.17.568-1.823.698a2.872 2.872 0 00-4.894 2.62 8.153 8.153 0 01-5.92-3.002 2.87 2.87 0 00.889 3.834 2.863 2.863 0 01-1.302-.359v.036c0 1.392.99 2.553 2.304 2.817a2.884 2.884 0 01-1.298.05 2.876 2.876 0 002.683 1.994A5.764 5.764 0 017 18.254a8.131 8.131 0 004.403 1.29c5.283 0 8.171-4.377 8.171-8.172 0-.124-.002-.248-.008-.371A5.85 5.85 0 0021 9.513z" fill="#fff"/></svg>