<svg width="170" height="110" viewBox="0 0 170 110" fill="none" xmlns="http://www.w3.org/2000/svg">
<path d="M48.7987 26.9652C63.9661 22.3186 79.2895 18.2232 94.743 14.6266C110.249 11.03 125.858 7.98474 141.572 5.46451C150.417 4.04688 159.289 2.81302 168.186 1.76292C167.978 1.26412 167.77 0.765328 167.562 0.266532C158.014 9.53363 148.466 18.7745 138.944 28.0416C129.396 37.3087 119.848 46.5495 110.327 55.8166C104.967 61.0146 99.582 66.2388 94.2227 71.4368C93.4162 72.2244 94.6389 73.432 95.4454 72.6707C104.993 63.4036 114.541 54.1627 124.063 44.8956C133.611 35.6548 143.159 26.3877 152.681 17.1206C158.04 11.9226 163.425 6.69837 168.785 1.50039C169.279 1.02785 168.941 -0.0747496 168.186 0.00400766C152.368 1.89418 136.629 4.3094 120.967 7.30218C105.279 10.295 89.6959 13.8128 74.2684 17.8819C65.5791 20.1659 56.9417 22.6336 48.3565 25.2588C47.2898 25.6264 47.7321 27.3065 48.7987 26.9652Z" fill="white"/>
<path d="M47.1334 26.7814C54.8601 29.853 62.5609 32.9245 70.2876 35.996C72.0047 36.6786 73.7478 37.4924 75.6209 37.6762C77.4941 37.8862 79.2892 37.3349 81.0062 36.6786C84.9346 35.1297 88.811 33.4758 92.7134 31.8744C108.115 25.5476 123.516 19.2207 138.918 12.8939C147.633 9.32358 156.349 5.727 165.038 2.15667C166.053 1.73663 165.61 0.0564785 164.57 0.476517C149.272 6.7771 133.975 13.0514 118.677 19.3257C111.029 22.476 103.38 25.6001 95.7313 28.7504C91.9069 30.3255 88.0826 31.9006 84.2582 33.4495C82.4371 34.2109 80.616 35.0509 78.7428 35.6022C76.7916 36.1798 75.0486 35.9435 73.1494 35.261C68.9348 33.7121 64.7722 31.9269 60.5837 30.273C56.265 28.5403 51.9203 26.8077 47.5757 25.1013C46.535 24.6812 46.0927 26.3614 47.1334 26.7814Z" fill="white"/>
<path d="M163.997 1.73664C153.825 7.66968 143.653 13.6027 133.481 19.562C123.308 25.5213 113.136 31.4281 102.964 37.3874C97.2143 40.7477 91.4648 44.108 85.6892 47.4683C85.351 47.6521 85.1949 48.0721 85.299 48.4397C87.3022 56.6042 90.242 64.5324 94.0403 72.0406C94.5346 73.0382 96.0436 72.1456 95.5233 71.148C91.803 63.7711 88.9412 56.0004 86.964 47.9671C86.8339 48.3084 86.7038 48.6234 86.5737 48.9385C96.746 43.0054 106.918 37.0724 117.091 31.1131C127.263 25.1538 137.435 19.247 147.607 13.2877C153.357 9.92739 159.106 6.56708 164.882 3.20677C165.819 2.68172 164.96 1.15908 163.997 1.73664Z" fill="white"/>
<path d="M76.7917 38.7527C77.9103 38.7527 77.9103 37.02 76.7917 37.02C75.673 37.02 75.673 38.7527 76.7917 38.7527Z" fill="white"/>
<path d="M86.3919 49.5687C87.1984 48.9386 86.6781 47.626 85.7675 47.3897C84.7269 47.1272 84.1285 48.1248 83.8163 48.9648C82.7757 51.9314 81.9172 55.0029 80.9806 58.0219C79.1074 64.0075 77.2343 69.9668 75.3351 75.9523C74.9969 77.0287 76.6619 77.475 77.0001 76.4249C78.457 71.7519 79.9399 67.1053 81.3968 62.4323C82.1253 60.1221 82.8537 57.8382 83.5562 55.5279C83.9204 54.3728 84.2846 53.2177 84.6488 52.0626C84.831 51.5113 84.9871 50.96 85.1692 50.4087C85.2732 50.0675 85.3513 49.7262 85.4814 49.4111C85.5074 49.3324 85.5334 49.2799 85.5594 49.2011C85.7935 48.8861 85.6635 48.5973 85.1692 48.3085C84.3106 49.0174 85.5334 50.2512 86.3919 49.5687Z" fill="white"/>
<path d="M74.7106 37.1774C75.5431 50.6449 75.2569 64.1911 73.774 77.6061C73.6439 78.7087 75.387 78.7087 75.4911 77.6061C76.948 64.1911 77.2602 50.6449 76.4277 37.1774C76.3756 36.0748 74.6586 36.0485 74.7106 37.1774Z" fill="white"/>
<path d="M1.42347 94.0664C11.3876 82.3579 22.9387 72.0669 35.6866 63.5349C39.3288 61.1197 43.0491 58.8357 46.8734 56.683C47.836 56.1317 46.9775 54.6353 46.0149 55.1866C32.5126 62.7736 20.0509 72.1982 9.1242 83.1717C6.0283 86.2695 3.06247 89.4985 0.226729 92.8326C-0.501719 93.6989 0.695017 94.9328 1.42347 94.0664Z" fill="white"/>
<path d="M12.7664 108.663C20.103 98.5294 28.5842 89.236 37.976 81.019C40.6556 78.6563 43.4133 76.3986 46.2491 74.2196C47.1076 73.5633 46.2491 72.0407 45.3905 72.7232C35.2963 80.4677 26.0606 89.341 17.9436 99.1857C15.6282 101.995 13.4168 104.856 11.3096 107.796C10.6331 108.689 12.116 109.555 12.7664 108.663Z" fill="white"/>
<path d="M79.3937 35.3134C77.3384 39.9601 75.2832 44.6068 73.2279 49.2535C72.7856 50.2773 74.2686 51.1436 74.7108 50.1198C76.7661 45.4731 78.8214 40.8264 80.8766 36.1798C81.3189 35.1822 79.836 34.2896 79.3937 35.3134Z" fill="white"/>
<path d="M84.7527 33.8171C81.5528 40.0652 78.639 46.4445 75.9593 52.9551C75.5431 53.979 77.2081 54.4515 77.6243 53.4277C80.2259 47.0746 83.1137 40.8265 86.2356 34.7097C86.7299 33.7121 85.247 32.8195 84.7527 33.8171Z" fill="white"/>
<path d="M89.7998 31.8482C86.1836 38.8314 83.2178 46.1558 80.9284 53.6902C80.5902 54.7666 82.2552 55.2129 82.5934 54.1628C84.8308 46.7596 87.7446 39.5927 91.2827 32.7408C91.8031 31.7432 90.3202 30.8506 89.7998 31.8482Z" fill="white"/>
<path d="M94.5605 30.6931C92.6613 35.3923 90.7362 40.1178 88.837 44.8169C88.4207 45.8408 90.0858 46.3133 90.502 45.2895C92.4012 40.5903 94.3264 35.8649 96.2255 31.1657C96.6418 30.1156 94.9768 29.6693 94.5605 30.6931Z" fill="white"/>
<path d="M102.366 27.0702C100.18 30.9293 97.969 34.8146 95.7837 38.7C95.2374 39.6713 96.7203 40.5377 97.2666 39.5663C99.452 35.7072 101.663 31.8219 103.849 27.9365C104.395 26.9652 102.912 26.0988 102.366 27.0702Z" fill="white"/>
<path d="M107.126 25.6265C105.097 29.3543 103.094 33.1084 101.065 36.8362C100.544 37.8076 102.027 38.7002 102.548 37.7026C104.577 33.9747 106.606 30.2206 108.609 26.4928C109.13 25.5214 107.647 24.6551 107.126 25.6265Z" fill="white"/>
<path d="M111.757 23.4474C109.936 27.149 108.089 30.8768 106.268 34.6047C105.774 35.6023 107.257 36.4949 107.751 35.471C109.572 31.7694 111.419 28.0416 113.24 24.3137C113.735 23.3424 112.252 22.4498 111.757 23.4474Z" fill="white"/>
<path d="M116.7 22.1084C115.061 25.1012 113.448 28.1202 111.809 31.113C111.289 32.0843 112.772 32.9769 113.292 31.9793C114.931 28.9865 116.544 25.9675 118.183 22.9747C118.73 22.0034 117.221 21.1371 116.7 22.1084Z" fill="white"/>
<path d="M122.398 19.1943C119.901 22.3709 118.079 26.0199 117.169 29.9578C116.909 31.0342 118.574 31.5067 118.834 30.4304C119.692 26.7813 121.305 23.3685 123.621 20.4282C124.297 19.5619 123.101 18.3017 122.398 19.1943Z" fill="white"/>
<path d="M127.029 17.2256C125.91 19.5621 124.792 21.8985 123.673 24.235C123.179 25.2326 124.688 26.1252 125.156 25.1013C126.275 22.7649 127.393 20.4284 128.512 18.0919C129.006 17.1206 127.497 16.228 127.029 17.2256Z" fill="white"/>
<path d="M131.243 15.2043C129.812 17.9608 128.381 20.7173 126.976 23.4738C126.456 24.4714 127.939 25.3377 128.459 24.3401C129.89 21.5836 131.295 18.8271 132.726 16.0706C133.246 15.073 131.763 14.2067 131.243 15.2043Z" fill="white"/>
<path d="M134.599 14.443C133.455 16.5432 132.284 18.6171 131.139 20.6911C130.593 21.6624 132.076 22.555 132.622 21.5574C133.767 19.4834 134.937 17.3833 136.082 15.3093C136.629 14.338 135.12 13.4716 134.599 14.443Z" fill="white"/>
<path d="M138.424 13.4976C136.811 14.6264 135.874 16.4116 135.9 18.4068C135.926 19.5356 137.644 19.5356 137.617 18.4068C137.591 17.0416 138.19 15.7815 139.309 14.994C140.219 14.3639 139.361 12.8413 138.424 13.4976Z" fill="white"/>
<path d="M141.234 13.5503C140.271 14.1541 139.725 15.1255 139.595 16.2543C139.569 16.7531 140.037 17.1469 140.479 17.1469C140.973 17.1469 141.286 16.7531 141.338 16.2806C141.39 15.808 141.702 15.3355 142.118 15.073C143.029 14.4691 142.17 12.9728 141.234 13.5503Z" fill="white"/>
<path d="M145.76 12.3164C146.879 12.3164 146.879 10.5837 145.76 10.5837C144.641 10.5837 144.641 12.3164 145.76 12.3164Z" fill="white"/>
<path d="M150.573 10.2163C151.692 10.2163 151.692 8.48364 150.573 8.48364C149.481 8.48364 149.454 10.2163 150.573 10.2163Z" fill="white"/>
<path d="M79.4196 54.819C78.0407 58.0743 76.6619 61.3296 75.309 64.5587C74.8928 65.5825 76.3757 66.4751 76.7919 65.425C78.1708 62.1697 79.5496 58.9144 80.9025 55.6854C81.3447 54.6615 79.8618 53.7952 79.4196 54.819Z" fill="white"/>
<path d="M73.7998 37.2036C73.3575 51.1174 72.9673 65.0311 72.6031 78.9449C72.5771 80.0738 74.2941 80.0738 74.3201 78.9449C74.6583 65.0311 75.0746 51.1174 75.5169 37.2036C75.5429 36.0747 73.8258 36.0747 73.7998 37.2036Z" fill="white"/>
<path d="M72.4731 74.0622C72.4731 75.2173 72.4731 76.3724 72.4731 77.5537C72.4731 78.6826 74.1902 78.6826 74.1902 77.5537C74.1902 76.3986 74.1902 75.2435 74.1902 74.0622C74.1902 72.9596 72.4731 72.9333 72.4731 74.0622Z" fill="white"/>
<path d="M74.7106 75.7422C74.0081 77.1336 73.3317 78.525 72.6293 79.9163C72.135 80.9139 73.6179 81.8065 74.1122 80.7827C74.8146 79.3913 75.491 77.9999 76.1935 76.6085C76.7138 75.6372 75.2049 74.7446 74.7106 75.7422Z" fill="white"/>
<path d="M76.6879 73.5895C75.7773 75.4534 74.8667 77.3173 73.9562 79.155C73.4619 80.1526 74.9448 81.0452 75.4391 80.0213C76.3496 78.1574 77.2602 76.2935 78.1708 74.4558C78.6651 73.4845 77.1822 72.5919 76.6879 73.5895Z" fill="white"/>
<path d="M77.5462 73.0119C76.3755 75.3221 75.1787 77.6061 74.008 79.9163C73.4877 80.9139 74.9966 81.7802 75.4909 80.7826C76.6617 78.4724 77.8584 76.1885 79.0291 73.8782C79.5494 72.8807 78.0665 71.9881 77.5462 73.0119Z" fill="white"/>
<path d="M44.2198 93.4101C48.0962 89.6823 51.9725 85.9282 55.875 82.2003C56.6814 81.439 55.4587 80.2051 54.6522 80.9665C50.7758 84.6943 46.8994 88.4484 42.997 92.1763C42.2165 92.9376 43.4393 94.1714 44.2198 93.4101Z" fill="white"/>
</svg>
