<svg width="1920" height="1609" viewBox="0 0 1920 1609" fill="none" xmlns="http://www.w3.org/2000/svg">
<path d="M0 0H1925V1552H0V0Z" fill="url(#paint0_linear)"/>
<path d="M1476.77 62.9526C1459.34 64.3188 1472.59 63.2344 1481.69 62.7811C1495.62 62.0875 1534.47 59.9489 1548.85 61.2651C1571.03 63.2938 1544.56 70.7342 1542.26 71.5036C1533.38 74.4762 1499.87 83.0408 1490.5 85.3848C1463.67 92.0982 1436.54 97.867 1410.3 106.757C1378.57 117.505 1427.79 109.007 1432.75 108.335C1519.61 96.5715 1608.06 75.6924 1696.19 79.5211C1699.64 79.6711 1727.2 78.8023 1727.31 87.3401C1727.48 100.925 1694.81 113.223 1686.41 117.765C1670.02 126.618 1647.72 135.729 1636.04 151.072C1627.22 162.668 1654.22 163.372 1658.08 163.658C1727.03 168.774 1794.71 152.561 1863.07 147.348C1870.59 146.775 1891.8 146.85 1885.4 150.857C1863.5 164.591 1831.64 168.881 1807.32 176.474C1778.49 185.474 1748.77 192.667 1720.39 202.993C1703.47 209.146 1709.19 211.049 1720.16 216.004" stroke="white" stroke-width="2" stroke-linecap="round"/>
<path d="M-33.4236 1333.17C13.1031 1315.14 59.7001 1295 108.137 1281.14C132.973 1274.03 96.9432 1302.4 94.5892 1304.36C70.4418 1324.51 44.4101 1342.91 18.8322 1361.62C5.12335 1371.65 -8.80209 1381.47 -22.3642 1391.65C-26.316 1394.61 -41.0685 1403.55 -41.9947 1409.52C-42.6198 1413.55 11.9161 1395.2 13.3025 1394.69C52.9386 1380.16 93.7937 1360.66 136.615 1354.57C166.016 1350.39 124.13 1379.31 119.473 1383.02C88.408 1407.74 54.4581 1429.87 21.4588 1452.55C9.27364 1460.93 -4.70394 1470.81 20.4911 1465.2C48.3657 1458.99 75.018 1449.04 103.16 1443.56C117.551 1440.76 124.123 1443.64 110.764 1453.89C91.5347 1468.65 67.5264 1477.43 45.7895 1488.78C38.8953 1492.38 62.7796 1484.21 64.1758 1483.68C67.5319 1482.39 109.159 1467.54 106.202 1479.06C102.186 1494.7 77.137 1509.4 66.3877 1521.61C57.76 1531.41 54.9039 1540.06 53.6694 1552" stroke="#FBFBFB" stroke-width="2" stroke-linecap="round"/>
<path d="M-70 1523L243.281 1580L698.648 1523L1245.29 1580H1563.01L1972 1523" stroke="#6C5CE7" stroke-width="57"/>
<defs>
<linearGradient id="paint0_linear" x1="962.5" y1="0" x2="962.5" y2="1552" gradientUnits="userSpaceOnUse">
<stop stop-color="#DC52FF"/>
<stop offset="1" stop-color="#241E6F"/>
</linearGradient>
</defs>
</svg>
