<svg width="1920" height="1609" viewBox="0 0 1920 1609" fill="none" xmlns="http://www.w3.org/2000/svg">
<path d="M0 0H1925V1552H0V0Z" fill="url(#paint0_linear)"/>
<circle cx="490.5" cy="198.5" r="57.5" fill="#FFD644"/>
<path d="M1476.77 62.9526C1459.34 64.3188 1472.59 63.2344 1481.69 62.7811C1495.62 62.0875 1534.47 59.9489 1548.85 61.2651C1571.03 63.2938 1544.56 70.7342 1542.26 71.5036C1533.38 74.4762 1499.87 83.0408 1490.5 85.3848C1463.67 92.0982 1436.54 97.867 1410.3 106.757C1378.57 117.505 1427.79 109.007 1432.75 108.335C1519.61 96.5715 1608.06 75.6924 1696.19 79.5211C1699.64 79.6711 1727.2 78.8023 1727.31 87.3401C1727.48 100.925 1694.81 113.223 1686.41 117.765C1670.02 126.618 1647.72 135.729 1636.04 151.072C1627.22 162.668 1654.22 163.372 1658.08 163.658C1727.03 168.774 1794.71 152.561 1863.07 147.348C1870.59 146.775 1891.8 146.85 1885.4 150.857C1863.5 164.591 1831.64 168.881 1807.32 176.474C1778.49 185.474 1748.77 192.667 1720.39 202.993C1703.47 209.146 1709.19 211.049 1720.16 216.004" stroke="white" stroke-width="2" stroke-linecap="round"/>
<path d="M-33.4236 1333.17C13.1031 1315.14 59.7001 1295 108.137 1281.14C132.973 1274.03 96.9432 1302.4 94.5892 1304.36C70.4418 1324.51 44.4101 1342.91 18.8322 1361.62C5.12335 1371.65 -8.80209 1381.47 -22.3642 1391.65C-26.316 1394.61 -41.0685 1403.55 -41.9947 1409.52C-42.6198 1413.55 11.9161 1395.2 13.3025 1394.69C52.9386 1380.16 93.7937 1360.66 136.615 1354.57C166.016 1350.39 124.13 1379.31 119.473 1383.02C88.408 1407.74 54.4581 1429.87 21.4588 1452.55C9.27364 1460.93 -4.70394 1470.81 20.4911 1465.2C48.3657 1458.99 75.018 1449.04 103.16 1443.56C117.551 1440.76 124.123 1443.64 110.764 1453.89C91.5347 1468.65 67.5264 1477.43 45.7895 1488.78C38.8953 1492.38 62.7796 1484.21 64.1758 1483.68C67.5319 1482.39 109.159 1467.54 106.202 1479.06C102.186 1494.7 77.137 1509.4 66.3877 1521.61C57.76 1531.41 54.9039 1540.06 53.6694 1552" stroke="#FBFBFB" stroke-width="2" stroke-linecap="round"/>
<path d="M-70 1523L243.281 1580L698.648 1523L1245.29 1580H1563.01L1972 1523" stroke="#6C5CE7" stroke-width="57"/>
<path d="M1545.27 1495.2C1547.88 1495.54 1550.55 1492.49 1552.12 1490.82C1554.4 1488.38 1556.85 1486.32 1559.47 1484.19C1564.89 1479.75 1568.62 1473.54 1573.39 1468.45C1574.77 1466.94 1577.16 1469.1 1575.73 1470.6C1570.49 1476.23 1566.38 1482.79 1560.23 1487.62C1557.34 1489.88 1555.07 1492.67 1552.35 1495.07C1550.18 1496.99 1547.62 1498.68 1544.59 1498.25C1542.5 1498.02 1543.2 1494.93 1545.27 1495.2Z" fill="white"/>
<path d="M1576.61 1472.43C1575.95 1474.25 1579.98 1474.42 1580.94 1474.39C1584.07 1474.35 1587.08 1473.55 1589.63 1471.71C1593.96 1468.59 1596.59 1463.71 1601.03 1460.77C1612.15 1453.46 1626.33 1455.33 1638.94 1454.22C1645.77 1453.64 1652.82 1452.12 1658.24 1447.67C1659.81 1446.4 1662.16 1448.55 1660.58 1449.82C1648.98 1459.44 1633.13 1457.1 1619.13 1458.44C1612.53 1459.07 1605.31 1460.7 1600.34 1465.35C1595.94 1469.48 1592.75 1474.83 1586.62 1476.7C1582.46 1477.98 1571.01 1478.36 1573.78 1470.9C1574.46 1468.98 1577.29 1470.51 1576.61 1472.43Z" fill="white"/>
<path d="M1588 1477.16C1583.31 1479.26 1583.46 1485.9 1588.04 1488.02C1590.51 1489.16 1593.23 1488.15 1595.57 1487.2C1598.31 1486.09 1601 1484.92 1603.66 1483.69C1614.66 1478.73 1625.28 1472.98 1635.51 1466.56C1637.25 1465.47 1638.97 1468.18 1637.24 1469.27C1627.64 1475.29 1617.74 1480.7 1607.43 1485.48C1604.88 1486.63 1602.34 1487.79 1599.76 1488.88C1597.34 1489.91 1594.84 1491.12 1592.21 1491.57C1587.93 1492.28 1583.63 1489.98 1581.92 1485.9C1579.93 1481.26 1582.63 1476.1 1587.05 1474.14C1588.93 1473.28 1589.89 1476.3 1588 1477.16Z" fill="white"/>
<path d="M1594.01 1490.59C1590.68 1493.05 1593.88 1498.25 1596.91 1499.33C1602.06 1501.18 1608.06 1498.1 1612.68 1496.13C1623.54 1491.52 1634.04 1486.1 1644.16 1480C1645.94 1478.92 1647.66 1481.62 1645.88 1482.7C1636.57 1488.34 1626.9 1493.36 1616.92 1497.77C1609.7 1500.98 1596.85 1507.55 1591.05 1498.46C1588.9 1495.01 1588.84 1490.42 1592.29 1487.89C1593.95 1486.69 1595.68 1489.39 1594.01 1490.59Z" fill="white"/>
<path d="M1605.1 1500.68C1605.29 1505.75 1611.15 1507.32 1615.33 1506.83C1620.38 1506.24 1625.51 1504.14 1630.14 1502.13C1639.28 1498.12 1647.62 1492.41 1654.74 1485.48C1656.2 1484.04 1658.55 1486.19 1657.08 1487.64C1650.72 1493.85 1643.48 1499.07 1635.53 1503.1C1631.56 1505.06 1627.5 1506.81 1623.28 1508.13C1618.94 1509.52 1614.06 1510.93 1609.54 1509.62C1605.53 1508.47 1602.06 1505.13 1601.89 1500.8C1601.81 1498.76 1605.02 1498.59 1605.1 1500.68Z" fill="white"/>
<path d="M1627.45 1468.44C1631.53 1466.85 1636.21 1465.24 1640.5 1467.14C1643.84 1468.63 1646.4 1472.46 1645.17 1476.13C1644.49 1478.05 1641.38 1477.35 1642.06 1475.43C1642.95 1472.77 1640.73 1470.3 1638.19 1469.68C1634.9 1468.84 1631.44 1470.33 1628.45 1471.48C1626.5 1472.22 1625.54 1469.2 1627.45 1468.44Z" fill="white"/>
<path d="M1645.01 1477.97C1649.7 1474.98 1656.27 1479.57 1655.31 1484.92C1654.95 1486.96 1651.78 1486.25 1652.19 1484.22C1652.7 1481.52 1649.05 1479.22 1646.74 1480.63C1644.99 1481.81 1643.26 1479.1 1645.01 1477.97Z" fill="white"/>
<path d="M1629.67 1465.64C1631.35 1463.01 1628.17 1459.93 1625.77 1462.2C1624.32 1463.6 1621.93 1461.43 1623.43 1460.05C1625.52 1458.05 1628.89 1457.63 1631.25 1459.49C1633.53 1461.28 1634.05 1464.7 1632.5 1467.17C1631.43 1468.85 1628.58 1467.37 1629.67 1465.64Z" fill="white"/>
<path d="M1650.4 1488.2C1663.13 1481.06 1674.14 1471.17 1682.49 1459.24C1683.65 1457.58 1686.5 1459.06 1685.32 1460.77C1676.67 1473.17 1665.31 1483.48 1652.12 1490.91C1650.35 1491.94 1648.63 1489.24 1650.4 1488.2Z" fill="white"/>
<path d="M1575.64 1469.69C1578.02 1463.08 1583.36 1458.32 1588.24 1453.4C1593.69 1447.93 1599.15 1442.45 1604.6 1436.97C1609.34 1432.22 1614.01 1427.16 1619.69 1423.51C1624.96 1420.16 1631.04 1418.52 1637.27 1418.2C1644.39 1417.88 1651.57 1419.06 1658.59 1420.29C1660.65 1420.65 1659.95 1423.75 1657.9 1423.39C1646.38 1421.39 1633.47 1419.22 1622.8 1425.35C1617.33 1428.5 1612.91 1433.13 1608.54 1437.56C1603.46 1442.68 1598.4 1447.75 1593.32 1452.87C1590.57 1455.61 1587.84 1458.29 1585.17 1461.09C1582.57 1463.81 1580.12 1466.76 1578.81 1470.36C1578.13 1472.28 1574.96 1471.61 1575.64 1469.69Z" fill="white"/>
<path d="M1548.73 1499.03C1544.85 1497.96 1542.65 1503.33 1546.55 1504.95C1548.32 1505.69 1550.25 1504.4 1551.61 1503.43C1553.43 1502.16 1555.23 1500.79 1557.03 1499.42C1564.39 1493.83 1571.54 1487.9 1578.39 1481.7C1579.9 1480.32 1582.29 1482.48 1580.74 1483.86C1576.19 1487.96 1571.52 1491.94 1566.78 1495.8C1564.29 1497.8 1561.76 1499.8 1559.24 1501.74C1556.97 1503.45 1554.76 1505.32 1552.34 1506.8C1550.39 1507.98 1548.12 1508.8 1545.84 1508.09C1543.67 1507.41 1541.95 1505.54 1541.4 1503.35C1540.25 1498.75 1545.03 1494.75 1549.47 1495.95C1551.44 1496.49 1550.74 1499.58 1548.73 1499.03Z" fill="white"/>
<path d="M1658.35 1417.62C1672.19 1425.82 1682.67 1439.02 1687.35 1454.37C1687.96 1456.33 1684.9 1457.32 1684.31 1455.32C1679.88 1440.81 1670.02 1428.19 1656.87 1420.45C1655.07 1419.4 1656.6 1416.59 1658.35 1417.62Z" fill="white"/>
<path d="M1655.85 1418.34C1654.82 1417.22 1653.74 1416.04 1652.7 1414.92C1653.45 1414.89 1654.2 1414.87 1654.96 1414.84C1652.56 1417.31 1648.34 1418.87 1645.69 1415.86C1643.37 1413.17 1644.62 1409.16 1648.33 1408.76C1651.79 1408.41 1655.51 1410.62 1657.99 1412.81C1660.72 1415.25 1662.71 1418.55 1663.5 1422.09C1663.95 1424.06 1660.9 1425.05 1660.46 1423.03C1659.52 1418.82 1656.82 1415.16 1652.96 1413.11C1652.01 1412.7 1647.75 1410.7 1647.67 1412.8C1647.64 1413.83 1648.84 1414.45 1649.7 1414.35C1650.87 1414.26 1651.83 1413.49 1652.61 1412.68C1653.18 1412.12 1654.26 1411.97 1654.86 1412.6C1655.9 1413.72 1656.98 1414.9 1658.02 1416.02C1659.42 1417.52 1657.25 1419.84 1655.85 1418.34Z" fill="white"/>
<path d="M1686.49 1457.34C1699.71 1450.65 1712.56 1443.19 1724.92 1435.03C1726.62 1433.88 1728.34 1436.59 1726.64 1437.73C1714.28 1445.9 1701.44 1453.31 1688.21 1460.04C1686.37 1460.96 1684.63 1458.3 1686.49 1457.34Z" fill="white"/>
<path d="M1650.59 1413.26C1650.63 1413.32 1650.62 1413.37 1650.65 1413.47C1650.78 1414 1650.72 1414.67 1650.3 1415.02C1648.75 1416.4 1646.12 1415.26 1646.87 1413.07C1647.31 1411.74 1648.79 1411.13 1649.92 1410.5C1651.23 1409.76 1652.49 1409.01 1653.79 1408.32C1659.21 1405.2 1664.62 1402.13 1670.04 1399.01C1680.93 1392.73 1691.87 1386.47 1702.77 1380.2C1704.54 1379.17 1706.26 1381.87 1704.49 1382.9C1695.31 1388.18 1686.14 1393.41 1676.96 1398.69C1672.4 1401.31 1667.78 1403.97 1663.22 1406.59C1660.99 1407.87 1658.83 1409.1 1656.6 1410.38C1655.52 1411.02 1654.38 1411.65 1653.29 1412.29C1652.9 1412.5 1649.97 1413.81 1649.93 1414.25C1649.87 1413.84 1649.81 1413.43 1649.7 1413.06C1649.73 1413.12 1649.77 1413.18 1649.85 1413.25C1649.51 1413.02 1649.16 1412.79 1648.87 1412.53C1648.59 1412.67 1648.28 1412.74 1648 1412.88C1647.88 1413.39 1647.77 1413.91 1647.65 1414.43C1647.61 1414.37 1647.63 1414.32 1647.6 1414.22C1647.04 1412.27 1650.1 1411.28 1650.59 1413.26Z" fill="white"/>
<path d="M1675.45 1408.26C1677.67 1403.49 1686.61 1404.32 1686.54 1410.17C1686.48 1412.86 1683.89 1414.85 1681.4 1415.12C1680.17 1415.29 1678.85 1414.99 1677.88 1414.23C1676.15 1412.86 1676.64 1411.14 1676.78 1409.2C1676.94 1407.17 1680.15 1407 1679.99 1409.04C1679.98 1409.53 1679.6 1411.42 1679.83 1411.71C1680.16 1412.03 1680.76 1412.02 1681.17 1411.96C1682.15 1411.79 1683.53 1410.97 1683.38 1409.85C1683.02 1407.5 1679.15 1408.16 1678.38 1409.81C1677.42 1411.61 1674.58 1410.14 1675.45 1408.26Z" fill="white"/>
<path d="M1628.64 1462.94C1617.28 1466.4 1606.61 1471.49 1596.82 1478.11C1595.13 1479.26 1593.4 1476.55 1595.1 1475.41C1605.11 1468.64 1616.08 1463.37 1627.69 1459.87C1629.65 1459.33 1630.61 1462.35 1628.64 1462.94Z" fill="white"/>
<path d="M1450.8 227.965C1465.97 223.319 1481.29 219.223 1496.74 215.627C1512.25 212.03 1527.86 208.985 1543.57 206.465C1552.42 205.047 1561.29 203.813 1570.19 202.763C1569.98 202.264 1569.77 201.765 1569.56 201.267C1560.01 210.534 1550.47 219.774 1540.94 229.042C1531.4 238.309 1521.85 247.55 1512.33 256.817C1506.97 262.015 1501.58 267.239 1496.22 272.437C1495.42 273.224 1496.64 274.432 1497.45 273.671C1506.99 264.404 1516.54 255.163 1526.06 245.896C1535.61 236.655 1545.16 227.388 1554.68 218.121C1560.04 212.923 1565.43 207.698 1570.78 202.5C1571.28 202.028 1570.94 200.925 1570.19 201.004C1554.37 202.894 1538.63 205.309 1522.97 208.302C1507.28 211.295 1491.7 214.813 1476.27 218.882C1467.58 221.166 1458.94 223.634 1450.36 226.259C1449.29 226.626 1449.73 228.307 1450.8 227.965Z" fill="white"/>
<path d="M1449.13 227.781C1456.86 230.853 1464.56 233.924 1472.29 236.996C1474 237.679 1475.75 238.492 1477.62 238.676C1479.49 238.886 1481.29 238.335 1483.01 237.679C1486.93 236.13 1490.81 234.476 1494.71 232.874C1510.11 226.548 1525.52 220.221 1540.92 213.894C1549.63 210.324 1558.35 206.727 1567.04 203.157C1568.05 202.737 1567.61 201.056 1566.57 201.477C1551.27 207.777 1535.97 214.051 1520.68 220.326C1513.03 223.476 1505.38 226.6 1497.73 229.75C1493.91 231.326 1490.08 232.901 1486.26 234.45C1484.44 235.211 1482.62 236.051 1480.74 236.602C1478.79 237.18 1477.05 236.944 1475.15 236.261C1470.93 234.712 1466.77 232.927 1462.58 231.273C1458.27 229.54 1453.92 227.808 1449.58 226.101C1448.54 225.681 1448.09 227.361 1449.13 227.781Z" fill="white"/>
<path d="M1566 202.737C1555.83 208.67 1545.65 214.603 1535.48 220.562C1525.31 226.521 1515.14 232.428 1504.96 238.387C1499.21 241.748 1493.46 245.108 1487.69 248.468C1487.35 248.652 1487.19 249.072 1487.3 249.44C1489.3 257.604 1492.24 265.532 1496.04 273.041C1496.53 274.038 1498.04 273.146 1497.52 272.148C1493.8 264.771 1490.94 257 1488.96 248.967C1488.83 249.308 1488.7 249.623 1488.57 249.938C1498.75 244.005 1508.92 238.072 1519.09 232.113C1529.26 226.154 1539.44 220.247 1549.61 214.288C1555.36 210.927 1561.11 207.567 1566.88 204.207C1567.82 203.682 1566.96 202.159 1566 202.737Z" fill="white"/>
<path d="M1478.79 239.753C1479.91 239.753 1479.91 238.02 1478.79 238.02C1477.67 238.02 1477.67 239.753 1478.79 239.753Z" fill="white"/>
<path d="M1488.39 250.569C1489.2 249.939 1488.68 248.626 1487.77 248.39C1486.73 248.127 1486.13 249.125 1485.82 249.965C1484.78 252.931 1483.92 256.003 1482.98 259.022C1481.11 265.007 1479.23 270.967 1477.34 276.952C1477 278.029 1478.66 278.475 1479 277.425C1480.46 272.752 1481.94 268.105 1483.4 263.432C1484.13 261.122 1484.85 258.838 1485.56 256.528C1485.92 255.373 1486.28 254.218 1486.65 253.063C1486.83 252.511 1486.99 251.96 1487.17 251.409C1487.27 251.067 1487.35 250.726 1487.48 250.411C1487.51 250.332 1487.53 250.28 1487.56 250.201C1487.79 249.886 1487.66 249.597 1487.17 249.309C1486.31 250.017 1487.53 251.251 1488.39 250.569Z" fill="white"/>
<path d="M1476.71 238.177C1477.54 251.645 1477.26 265.191 1475.77 278.606C1475.64 279.709 1477.39 279.709 1477.49 278.606C1478.95 265.191 1479.26 251.645 1478.43 238.177C1478.38 237.075 1476.66 237.049 1476.71 238.177Z" fill="white"/>
<path d="M1403.42 295.066C1413.39 283.358 1424.94 273.067 1437.69 264.535C1441.33 262.12 1445.05 259.836 1448.87 257.683C1449.84 257.132 1448.98 255.635 1448.01 256.187C1434.51 263.774 1422.05 273.198 1411.12 284.172C1408.03 287.269 1405.06 290.499 1402.23 293.833C1401.5 294.699 1402.7 295.933 1403.42 295.066Z" fill="white"/>
<path d="M1414.77 309.663C1422.1 299.529 1430.58 290.236 1439.98 282.019C1442.66 279.656 1445.41 277.399 1448.25 275.22C1449.11 274.563 1448.25 273.041 1447.39 273.723C1437.3 281.468 1428.06 290.341 1419.94 300.186C1417.63 302.995 1415.42 305.856 1413.31 308.796C1412.63 309.689 1414.12 310.555 1414.77 309.663Z" fill="white"/>
<path d="M1481.39 236.313C1479.34 240.96 1477.28 245.607 1475.23 250.253C1474.79 251.277 1476.27 252.144 1476.71 251.12C1478.77 246.473 1480.82 241.826 1482.88 237.18C1483.32 236.182 1481.84 235.29 1481.39 236.313Z" fill="white"/>
<path d="M1486.75 234.817C1483.55 241.065 1480.64 247.445 1477.96 253.955C1477.54 254.979 1479.21 255.452 1479.62 254.428C1482.23 248.075 1485.11 241.827 1488.24 235.71C1488.73 234.712 1487.25 233.82 1486.75 234.817Z" fill="white"/>
<path d="M1491.8 232.848C1488.18 239.831 1485.22 247.156 1482.93 254.69C1482.59 255.767 1484.26 256.213 1484.59 255.163C1486.83 247.76 1489.74 240.593 1493.28 233.741C1493.8 232.743 1492.32 231.851 1491.8 232.848Z" fill="white"/>
<path d="M1496.56 231.693C1494.66 236.392 1492.74 241.118 1490.84 245.817C1490.42 246.841 1492.09 247.313 1492.5 246.289C1494.4 241.59 1496.33 236.865 1498.23 232.166C1498.64 231.116 1496.98 230.669 1496.56 231.693Z" fill="white"/>
<path d="M1504.37 228.07C1502.18 231.929 1499.97 235.815 1497.78 239.7C1497.24 240.671 1498.72 241.538 1499.27 240.566C1501.45 236.707 1503.66 232.822 1505.85 228.937C1506.39 227.965 1504.91 227.099 1504.37 228.07Z" fill="white"/>
<path d="M1509.13 226.626C1507.1 230.354 1505.09 234.108 1503.06 237.836C1502.54 238.808 1504.03 239.7 1504.55 238.703C1506.58 234.975 1508.61 231.221 1510.61 227.493C1511.13 226.521 1509.65 225.655 1509.13 226.626Z" fill="white"/>
<path d="M1513.76 224.447C1511.94 228.149 1510.09 231.877 1508.27 235.605C1507.77 236.602 1509.26 237.495 1509.75 236.471C1511.57 232.769 1513.42 229.042 1515.24 225.314C1515.73 224.342 1514.25 223.45 1513.76 224.447Z" fill="white"/>
<path d="M1518.7 223.108C1517.06 226.101 1515.45 229.12 1513.81 232.113C1513.29 233.084 1514.77 233.977 1515.29 232.979C1516.93 229.987 1518.54 226.967 1520.18 223.975C1520.73 223.003 1519.22 222.137 1518.7 223.108Z" fill="white"/>
<path d="M1524.4 220.194C1521.9 223.371 1520.08 227.02 1519.17 230.958C1518.91 232.034 1520.57 232.507 1520.83 231.43C1521.69 227.781 1523.31 224.368 1525.62 221.428C1526.3 220.562 1525.1 219.302 1524.4 220.194Z" fill="white"/>
<path d="M1529.03 218.226C1527.91 220.562 1526.79 222.899 1525.67 225.235C1525.18 226.233 1526.69 227.125 1527.16 226.101C1528.27 223.765 1529.39 221.428 1530.51 219.092C1531.01 218.121 1529.5 217.228 1529.03 218.226Z" fill="white"/>
<path d="M1533.24 216.204C1531.81 218.961 1530.38 221.717 1528.98 224.474C1528.46 225.471 1529.94 226.338 1530.46 225.34C1531.89 222.584 1533.3 219.827 1534.73 217.071C1535.25 216.073 1533.76 215.207 1533.24 216.204Z" fill="white"/>
<path d="M1536.6 215.443C1535.45 217.543 1534.28 219.617 1533.14 221.691C1532.59 222.662 1534.08 223.555 1534.62 222.557C1535.77 220.483 1536.94 218.383 1538.08 216.309C1538.63 215.338 1537.12 214.472 1536.6 215.443Z" fill="white"/>
<path d="M1540.42 214.498C1538.81 215.626 1537.87 217.412 1537.9 219.407C1537.93 220.536 1539.64 220.536 1539.62 219.407C1539.59 218.042 1540.19 216.782 1541.31 215.994C1542.22 215.364 1541.36 213.841 1540.42 214.498Z" fill="white"/>
<path d="M1543.23 214.55C1542.27 215.154 1541.72 216.125 1541.59 217.254C1541.57 217.753 1542.04 218.147 1542.48 218.147C1542.97 218.147 1543.29 217.753 1543.34 217.281C1543.39 216.808 1543.7 216.335 1544.12 216.073C1545.03 215.469 1544.17 213.973 1543.23 214.55Z" fill="white"/>
<path d="M1547.76 213.316C1548.88 213.316 1548.88 211.584 1547.76 211.584C1546.64 211.584 1546.64 213.316 1547.76 213.316Z" fill="white"/>
<path d="M1552.57 211.216C1553.69 211.216 1553.69 209.484 1552.57 209.484C1551.48 209.484 1551.45 211.216 1552.57 211.216Z" fill="white"/>
<path d="M1481.42 255.819C1480.04 259.074 1478.66 262.33 1477.31 265.559C1476.89 266.583 1478.38 267.475 1478.79 266.425C1480.17 263.17 1481.55 259.914 1482.9 256.685C1483.34 255.662 1481.86 254.795 1481.42 255.819Z" fill="white"/>
<path d="M1475.8 238.204C1475.36 252.117 1474.97 266.031 1474.6 279.945C1474.58 281.074 1476.29 281.074 1476.32 279.945C1476.66 266.031 1477.07 252.117 1477.52 238.204C1477.54 237.075 1475.83 237.075 1475.8 238.204Z" fill="white"/>
<path d="M1474.47 275.062C1474.47 276.217 1474.47 277.372 1474.47 278.554C1474.47 279.683 1476.19 279.683 1476.19 278.554C1476.19 277.399 1476.19 276.244 1476.19 275.062C1476.19 273.96 1474.47 273.933 1474.47 275.062Z" fill="white"/>
<path d="M1476.71 276.742C1476.01 278.134 1475.33 279.525 1474.63 280.916C1474.13 281.914 1475.62 282.807 1476.11 281.783C1476.81 280.391 1477.49 279 1478.19 277.609C1478.71 276.637 1477.2 275.745 1476.71 276.742Z" fill="white"/>
<path d="M1478.69 274.589C1477.78 276.453 1476.87 278.317 1475.96 280.155C1475.46 281.153 1476.94 282.045 1477.44 281.021C1478.35 279.157 1479.26 277.293 1480.17 275.456C1480.67 274.484 1479.18 273.592 1478.69 274.589Z" fill="white"/>
<path d="M1479.55 274.012C1478.38 276.322 1477.18 278.606 1476.01 280.916C1475.49 281.914 1477 282.78 1477.49 281.783C1478.66 279.472 1479.86 277.188 1481.03 274.878C1481.55 273.881 1480.07 272.988 1479.55 274.012Z" fill="white"/>
<path d="M1446.22 294.41C1450.1 290.682 1453.97 286.928 1457.87 283.2C1458.68 282.439 1457.46 281.205 1456.65 281.966C1452.78 285.694 1448.9 289.448 1445 293.176C1444.22 293.938 1445.44 295.171 1446.22 294.41Z" fill="white"/>
<path d="M212.378 319.91C216.784 304.635 221.241 289.36 225.646 274.085C224.622 274.238 223.597 274.34 222.573 274.493C228.618 286.254 233.843 298.423 238.095 310.949C238.914 310.338 239.734 309.727 240.554 309.065C228.771 301.784 215.708 296.641 202.082 294.045C202.082 295.114 202.082 296.234 202.082 297.303C216.989 293.179 231.845 289.106 246.752 284.981C246.189 284.065 245.676 283.148 245.113 282.181C231.896 294.503 218.679 306.825 205.514 319.146C203.926 320.623 206.334 323.016 207.922 321.539C221.087 309.218 234.304 296.896 247.52 284.574C248.75 283.403 247.469 281.315 245.881 281.774C230.974 285.847 216.067 289.971 201.211 294.095C199.674 294.503 199.52 296.998 201.211 297.354C214.581 299.9 227.337 304.89 238.863 312.018C240.092 312.731 241.834 311.509 241.322 310.083C236.968 297.303 231.64 284.829 225.441 272.812C224.775 271.489 222.778 271.896 222.368 273.22C217.962 288.495 213.557 303.77 209.1 319.045C208.536 321.132 211.764 321.998 212.378 319.91Z" fill="white"/>
<path d="M279.457 264.25C281.043 258.75 282.648 253.25 284.234 247.751C283.865 247.806 283.496 247.842 283.127 247.897C285.303 252.132 287.185 256.513 288.716 261.023C289.011 260.803 289.306 260.583 289.601 260.345C285.359 257.723 280.656 255.872 275.75 254.937C275.75 255.322 275.75 255.725 275.75 256.11C281.117 254.625 286.465 253.159 291.833 251.674C291.63 251.344 291.445 251.014 291.242 250.666C286.484 255.102 281.725 259.538 276.985 263.975C276.414 264.506 277.28 265.368 277.852 264.836C282.592 260.4 287.351 255.963 292.109 251.527C292.552 251.106 292.091 250.354 291.519 250.519C286.152 251.985 280.785 253.47 275.436 254.955C274.883 255.102 274.827 256 275.436 256.128C280.25 257.045 284.842 258.842 288.992 261.408C289.435 261.665 290.062 261.225 289.878 260.711C288.31 256.11 286.392 251.619 284.16 247.292C283.92 246.816 283.201 246.963 283.053 247.439C281.467 252.939 279.881 258.438 278.276 263.938C278.073 264.689 279.235 265.001 279.457 264.25Z" fill="white"/>
<path d="M330.084 293.012C337.98 287.301 345.9 281.61 353.796 275.899C353.243 275.586 352.71 275.249 352.158 274.935C350.634 282.896 348.561 290.745 345.883 298.397C346.51 298.412 347.136 298.427 347.782 298.417C344.844 290.452 340.479 283.036 334.881 276.636C334.478 277.152 334.055 277.693 333.651 278.209C342.405 281.848 351.116 285.492 359.87 289.131C359.944 288.475 360.043 287.84 360.136 287.16C349.102 288.117 338.068 289.074 327.058 290.05C325.734 290.164 325.993 292.228 327.317 292.115C338.326 291.139 349.361 290.181 360.395 289.224C361.43 289.123 361.601 287.632 360.661 287.253C351.926 283.59 343.171 279.951 334.442 276.331C333.546 275.948 332.53 277.094 333.211 277.905C338.704 284.183 342.978 291.409 345.85 299.204C346.175 300.012 347.477 300.08 347.768 299.198C350.493 291.384 352.632 283.35 354.178 275.208C354.356 274.317 353.238 273.759 352.54 274.243C344.644 279.954 336.748 285.664 328.828 291.356C327.768 292.151 328.999 293.787 330.084 293.012Z" fill="white"/>
<defs>
<linearGradient id="paint0_linear" x1="962.5" y1="0" x2="962.5" y2="1552" gradientUnits="userSpaceOnUse">
<stop stop-color="#DC52FF"/>
<stop offset="1" stop-color="#241E6F"/>
</linearGradient>
</defs>
</svg>
