<svg width="129" height="129" viewBox="0 0 129 129" fill="none" xmlns="http://www.w3.org/2000/svg">
<g filter="url(#filter0_d)">
<path d="M105 0H24C12.9543 0 4 8.95431 4 20V101C4 112.046 12.9543 121 24 121H105C116.046 121 125 112.046 125 101V20C125 8.9543 116.046 0 105 0Z" fill="url(#paint0_linear)"/>
</g>
<path d="M119.706 37.9065C117.657 36.4701 114.547 36.9207 112.173 36.7236C110.339 36.5734 108.319 36.4701 106.41 36.1133C107.509 35.4092 108.635 34.7332 109.725 34.0103C110.786 33.3062 111.503 32.2922 112.443 31.4379C112.834 31.0718 112.425 30.4709 111.95 30.5836C111.019 30.7995 109.799 30.7995 108.933 31.222C107.639 31.8604 106.419 32.6115 105.19 33.3719C104.948 33.5221 104.715 33.6817 104.473 33.8319C105.395 32.358 106.317 30.8746 107.211 29.3631C108.365 27.4103 110.488 24.7533 110.097 22.3499C110.06 22.1152 109.743 21.9368 109.529 22.0213C107.257 22.9132 106.187 26.1053 105.116 28.1238C103.812 30.5648 102.779 33.0433 101.783 35.6157C101.047 36.1133 100.312 36.6297 99.5853 37.1367C99.9857 36.0007 100.386 34.8647 100.786 33.7193C101.801 30.8652 103.766 28.0768 104.203 25.1007C104.287 24.5374 103.784 24.0304 103.226 24.3496C100.684 25.7861 99.8181 29.0063 98.8684 31.6351C98.0025 34.0291 97.4159 36.4701 97.0621 38.9674C96.2428 39.5683 95.4328 40.1597 94.6227 40.77C95.1348 39.3617 95.619 37.9347 96.1124 36.517C96.8666 34.3295 96.8294 32.2078 97.3601 29.9827C97.4904 29.4476 96.8945 29.1753 96.5128 29.4851C95.3304 30.4333 93.8034 31.513 93.0492 32.8649C92.1368 34.4891 91.5409 36.3762 91.0475 38.1694C90.554 39.9438 90.2374 41.737 89.9116 43.549C89.865 43.7931 89.8464 44.1217 89.7905 44.4502C88.8874 45.145 87.9843 45.8397 87.0811 46.5345C77.7054 30.1517 55.2482 19.8057 37.8001 28.7622C21.5996 37.0803 14.8308 58.1386 17.6053 75.31C18.9833 83.8159 23.9086 91.8242 30.1281 97.8516C31.4037 99.1659 32.7909 100.377 34.29 101.447C40.4908 106.142 49.5873 109.775 57.1103 107.08C62.0356 106.611 66.8492 105.165 70.9738 102.668C79.614 97.4291 85.8056 87.3553 89.3529 78.089C92.9468 68.7099 92.6954 58.4202 88.4964 49.351C89.6788 48.4309 90.8519 47.5109 92.0344 46.5908C92.1834 46.7035 92.3603 46.8161 92.5837 46.9194C93.0958 47.1635 93.2355 46.9757 93.701 47.37C94.3714 47.9521 95.1628 48.3464 95.9635 48.722C99.1849 50.196 104.483 51.0034 107.518 48.8065C107.983 48.4685 107.872 47.877 107.369 47.6611C104.352 46.3843 100.852 47.0039 97.6673 46.2528C96.4569 45.9618 95.4886 45.1356 94.3993 44.7507C95.6935 43.7555 96.9969 42.7603 98.3004 41.7839C100.879 42.1219 103.375 42.7885 105.851 43.6053C108.402 44.4502 110.73 45.5769 113.439 45.145C113.98 45.0605 113.933 44.3376 113.579 44.0841C111.279 42.4411 108.356 41.9529 105.665 41.2112C103.943 40.7418 102.23 40.3663 100.479 40.1879C101.82 39.2209 103.17 38.2727 104.539 37.3526C106.55 38.4604 108.812 38.9392 111.112 39.2678C113.672 39.634 117.378 40.5634 119.687 38.9768C120.106 38.7139 120.097 38.1882 119.706 37.9065ZM88.3195 74.8593C86.6342 80.5581 83.4966 85.8626 80.1075 90.6882C77.1095 94.9599 73.3852 98.7153 68.8603 101.316C61.8587 105.325 52.576 105.935 44.5409 103.71C39.3177 101.851 34.7555 98.2177 30.994 94.1995C27.577 90.5474 24.7838 86.2005 22.8751 81.5533C21.8975 78.7368 21.1806 75.8451 20.7151 72.9817C20.473 70.597 20.4637 68.1842 20.6034 65.7901C21.0782 57.425 24.039 48.7501 29.0201 41.9717C32.223 38.5449 36.1428 35.8035 40.2488 33.5503C40.2674 33.5409 40.2581 33.5034 40.2301 33.5127C38.6566 33.8977 37.1483 34.4234 35.7052 35.0712C40.9564 31.0436 47.4086 28.8185 54.8292 29.5602C64.9964 30.5836 75.9922 36.5828 82.5189 44.4596C83.4779 45.6144 84.3252 46.8161 85.0887 48.0648C84.5673 48.4685 84.0459 48.8722 83.5152 49.2759C80.331 51.7075 77.1095 54.1203 73.7949 56.4017C70.4338 47.8019 59.7638 45.3328 50.7977 47.877C45.2858 49.4449 40.2488 52.8153 37.0087 57.6034C33.3217 63.0487 33.2006 69.4047 35.7238 75.3381C35.8448 75.6198 35.9752 75.8921 36.1055 76.1737C36.1893 76.3521 36.329 76.4272 36.478 76.4366C36.5431 76.6056 36.599 76.7746 36.6735 76.9436C38.9918 82.3982 44.2244 86.285 49.8759 87.5994C64.9033 91.0731 75.4801 75.1785 74.8377 61.5278C74.8098 60.9081 74.7446 60.3167 74.6608 59.744C78.0499 57.425 81.3086 54.909 84.4649 52.4773C85.1725 51.9328 85.8801 51.3789 86.5784 50.8344C90.1723 58.2231 90.7123 66.7853 88.3195 74.8593ZM55.993 65.3019C55.9558 65.3489 55.9092 65.3864 55.872 65.4428C55.8347 65.4897 55.7975 65.5272 55.7695 65.5648C55.4251 65.9779 55.2388 66.4379 55.0899 66.9073C54.9409 66.9731 54.7826 67.0388 54.6336 67.0951C54.373 67.1984 54.2054 67.3862 54.1123 67.5833C54.0564 66.5694 54.3823 65.4803 54.764 64.5884C55.3785 64.3537 56.0489 64.2504 56.7006 64.2598C56.7658 64.2598 56.8216 64.2692 56.8775 64.2692C56.5796 64.6166 56.2816 64.9546 55.993 65.3019ZM54.345 68.6818C54.3264 68.6348 54.3171 68.5785 54.2985 68.5222C54.3823 68.5973 54.4754 68.6536 54.5871 68.7005C54.5592 68.7944 54.5219 68.8789 54.494 68.9728C54.4381 68.8789 54.3823 68.785 54.345 68.6818ZM57.1196 71.7424C55.7323 72.3902 54.0378 72.3339 52.6132 71.6016C50.9932 70.7754 50.6301 69.5455 50.9839 68.325C51.1515 68.4189 51.3749 68.4189 51.5239 68.2499C52.2781 67.3862 52.5853 66.2783 53.4046 65.4521C53.7212 65.1329 54.0936 64.8794 54.494 64.7011C52.9577 67.4988 53.6095 70.9444 57.1196 71.7424ZM57.371 71.4513C56.4306 70.935 55.4809 70.3811 54.8385 69.5455C54.9502 69.5549 55.0526 69.5267 55.1271 69.4328C55.3785 69.123 55.6392 68.8414 55.9092 68.5503C56.1885 68.494 56.4678 68.4377 56.7379 68.3625C56.9706 68.4658 57.222 68.5315 57.5013 68.5034C58.2182 68.4377 58.9538 68.3719 59.6893 68.3062C59.5869 68.832 59.4007 69.3483 59.1307 69.8365C58.721 70.597 58.1344 71.1697 57.4548 71.5546C57.4455 71.5171 57.4268 71.4795 57.371 71.4513ZM68.5903 54.1297C65.0057 55.9229 61.9518 58.7019 59.2517 61.6404C58.8793 62.0441 58.5162 62.4478 58.1438 62.8516C58.0227 62.814 57.9017 62.7671 57.7806 62.7389C55.3599 62.138 51.1236 63.781 50.6394 66.5412C49.1963 68.447 49.0473 70.8223 51.4122 72.5873C54.2798 74.7279 58.2834 73.714 60.2759 70.9538C60.8997 70.09 61.2721 69.123 61.3932 68.1654C64.745 67.9025 68.1992 67.818 71.3834 68.5503C71.5883 68.5973 71.7931 68.5973 71.9979 68.5785C71.5697 70.3904 71.0017 72.1367 70.3779 73.6952C66.4674 83.5342 56.114 89.2612 46.1703 84.5294C41.9154 82.5015 38.6753 78.7461 37.1576 74.2679C36.6176 72.6624 36.3476 71.0289 36.2917 69.3859C36.2917 65.1048 37.4463 60.88 40.2022 57.472C43.8426 52.9843 49.5035 50.2241 55.1457 49.4637C60.2852 48.7689 65.9926 49.7453 69.6237 53.7542C69.6889 53.8293 69.7541 53.9138 69.8193 53.9889C69.4096 53.9044 68.9627 53.9419 68.5903 54.1297ZM72.6683 64.3725C72.1935 63.5275 71.8304 62.6638 71.579 61.7719C71.9421 61.5466 72.2959 61.3212 72.6497 61.0959C72.7521 62.1756 72.7521 63.274 72.6683 64.3725ZM71.0762 58.2512C71.0576 57.4908 71.0948 56.7209 71.1693 55.9229C71.4766 56.4862 71.7279 57.0683 71.9328 57.6691C71.6535 57.8663 71.3648 58.0635 71.0762 58.2512Z" fill="white"/>
<defs>
<filter id="filter0_d" x="0" y="0" width="129" height="129" filterUnits="userSpaceOnUse" color-interpolation-filters="sRGB">
<feFlood flood-opacity="0" result="BackgroundImageFix"/>
<feColorMatrix in="SourceAlpha" type="matrix" values="0 0 0 0 0 0 0 0 0 0 0 0 0 0 0 0 0 0 127 0" result="hardAlpha"/>
<feOffset dy="4"/>
<feGaussianBlur stdDeviation="2"/>
<feComposite in2="hardAlpha" operator="out"/>
<feColorMatrix type="matrix" values="0 0 0 0 0 0 0 0 0 0 0 0 0 0 0 0 0 0 0.25 0"/>
<feBlend mode="normal" in2="BackgroundImageFix" result="effect1_dropShadow"/>
<feBlend mode="normal" in="SourceGraphic" in2="effect1_dropShadow" result="shape"/>
</filter>
<linearGradient id="paint0_linear" x1="164" y1="-9.03369e-08" x2="-6.55006" y2="103.614" gradientUnits="userSpaceOnUse">
<stop stop-color="#FF3C0E"/>
<stop offset="1" stop-color="#793DC2"/>
</linearGradient>
</defs>
</svg>
