<svg width="129" height="129" viewBox="0 0 129 129" fill="none" xmlns="http://www.w3.org/2000/svg">
<g filter="url(#filter0_d)">
<path d="M105 0H24C12.9543 0 4 8.95431 4 20V101C4 112.046 12.9543 121 24 121H105C116.046 121 125 112.046 125 101V20C125 8.9543 116.046 0 105 0Z" fill="url(#paint0_linear)"/>
</g>
<g clip-path="url(#clip0)">
<path d="M70.2119 29.8339C64.6783 24.3902 58.1855 21.0125 50.242 22.1964C41.7837 23.45 33.5595 27.9071 27.7685 34.1054C22.3637 39.8857 19.2518 48.9741 18.2106 56.658C15.9176 73.5348 33.1149 88.775 49.2827 88.8911C54.4068 88.9259 59.0395 87.8116 63.8009 86.0241C66.0939 85.1652 69.5216 84.1205 70.633 81.7178C71.8263 79.1179 66.8192 77.8527 65.4036 77.4348C61.9408 76.4134 58.8055 75.6705 57.1209 72.1187C55.3544 68.3812 58.01 64.3768 60.923 62.2295C61.2272 62.0089 60.9815 61.5098 60.6422 61.5911C61.2155 61.1268 61.8355 60.7205 62.5023 60.3839C65.1697 59.0259 68.0593 60.3375 70.5745 61.3241C73.4641 62.4616 76.7047 63.0071 79.4656 61.1848C84.7067 57.7375 83.7591 51.3652 81.8288 46.258C79.5007 40.1062 74.8446 34.3955 70.2119 29.8339ZM80.343 46.8036C81.7352 50.2625 82.6945 54.6384 80.5653 57.9812C77.2311 63.2161 71.721 59.3857 67.4392 58.4107C61.5898 57.0875 57.4835 61.092 55.7404 66.2455C54.2547 69.5304 54.9449 73.5348 58.2323 76.3786C61.1336 78.8741 65.5323 78.4911 68.6559 80.5455C70.3054 81.625 61.8238 84.9678 61.0049 85.2812C50.1484 89.483 38.0518 87.0339 29.5702 79.3268C25.8616 75.9491 22.4573 71.3875 20.6206 66.733C18.6201 61.6723 19.5443 55.7875 20.9832 50.7152C23.826 40.675 29.383 32.5848 38.7186 27.5473C47.9607 22.5563 57.9164 21.5348 66.4097 28.325C72.2007 32.9679 77.5704 39.9437 80.343 46.8036Z" fill="white"/>
<path d="M63.8594 45.2017C63.0171 46.6294 62.5608 48.2544 62.8416 49.9142C63.0522 51.1562 63.9998 52.7115 65.3101 53.0017C65.7429 53.2222 66.2343 53.3499 66.8075 53.3499C67.0766 53.3499 67.3457 53.3151 67.603 53.2687C69.3228 53.7446 71.2063 53.2338 72.7973 51.6321C75.4763 48.9276 74.6691 44.6794 71.7561 42.5437C68.925 40.466 65.392 42.5901 63.8594 45.2017ZM69.0186 50.3669C69.042 50.4133 69.0537 50.4481 69.0771 50.4946C69.0654 50.5062 69.0654 50.5178 69.0654 50.5294C69.0537 50.541 69.0537 50.541 69.042 50.5526C68.3401 50.3553 67.6147 49.7633 67.0532 49.1249C67.0415 49.0901 67.0298 49.0553 67.0181 49.0321C67.0298 49.0321 67.0415 49.0321 67.0415 49.0321C67.2053 49.2178 67.3691 49.4035 67.5445 49.5544C68.0125 49.9606 68.4921 50.1928 68.9718 50.3088C68.9952 50.3321 69.0069 50.3553 69.0186 50.3669ZM71.8146 44.6097C71.7561 44.4937 71.6976 44.3892 71.6391 44.2731C71.7678 44.4008 71.8965 44.5401 72.0135 44.6794C71.955 44.6562 71.8848 44.6213 71.8146 44.6097ZM64.2806 47.8365C64.4444 48.5213 64.7485 49.241 65.158 49.9142C64.8538 49.624 64.573 49.2874 64.3157 48.9044C64.2689 48.8347 64.2104 48.7883 64.1519 48.7419C64.1636 48.4401 64.2104 48.1383 64.2806 47.8365ZM69.7556 52.2472C69.9311 52.108 70.1066 51.9571 70.2587 51.7946C70.4809 51.7249 70.6798 51.6321 70.867 51.516C70.9606 51.5276 71.0659 51.5276 71.1712 51.516C70.7266 51.8526 70.247 52.108 69.7556 52.2472Z" fill="white"/>
<path d="M63.5553 33.3044C60.6189 30.6928 56.1148 31.2964 53.8336 34.3491C52.1255 36.6357 52.3829 41.4526 55.3544 42.6366C61.0985 46.258 69.3111 38.4348 63.5553 33.3044ZM60.6072 39.1776C59.8818 39.491 59.0161 39.0383 58.3961 38.5741C59.098 38.8758 59.8935 39.0732 60.6423 39.0848C60.6189 39.108 60.6189 39.1428 60.6072 39.1776ZM59.7649 36.8214C60.0807 36.9723 60.4083 37.0651 60.7593 36.9955C60.7359 37.0651 60.7125 37.1348 60.6657 37.2044C60.3966 37.5991 60.0573 37.2857 59.7649 36.8214ZM55.7639 37.5062C55.9276 37.9125 56.1616 38.2955 56.419 38.6553C56.4658 38.841 56.5126 39.0267 56.5828 39.2008C56.0914 38.7598 55.7756 38.191 55.7639 37.5062ZM61.7887 41.8357C61.894 41.7544 62.011 41.6616 62.1163 41.5687H62.128C62.1397 41.5687 62.1514 41.5571 62.1631 41.5571C62.0461 41.65 61.9174 41.7428 61.7887 41.8357ZM64.2689 37.6919C64.2455 37.5875 64.2221 37.4714 64.187 37.3669C64.2338 37.2276 64.2572 37.1 64.2806 36.9723C64.2923 37.216 64.2923 37.4482 64.2689 37.6919ZM62.5375 34.0937C62.5141 34.0937 62.4907 34.0937 62.4673 34.1053C62.3035 34.0241 62.1397 33.9544 61.9642 33.8964C61.6718 33.6526 61.3676 33.4669 61.0517 33.316C61.5665 33.5133 62.0695 33.7687 62.5375 34.0937ZM56.3605 42.5553C56.9103 42.7758 57.4953 42.9267 58.0685 42.9732C57.4719 42.9616 56.8869 42.8687 56.3137 42.7062C56.3488 42.6598 56.3605 42.6017 56.3605 42.5553Z" fill="white"/>
<path d="M48.4637 29.0563C45.2582 26.8046 41.0934 29.0099 39.0929 31.7724C38.1102 33.1188 37.6072 34.8367 37.9698 36.4733C38.2155 37.5992 39.3386 39.3867 40.6255 39.4912C45.9133 45.0162 56.3019 34.5465 48.4637 29.0563ZM39.1514 36.0322C39.1397 35.9974 39.1397 35.9626 39.128 35.9278C39.1397 35.9626 39.1514 35.9974 39.1514 36.0322ZM39.1163 35.7653C39.1046 35.6144 39.0929 35.4635 39.1046 35.3242C39.0929 35.4635 39.1046 35.6144 39.1163 35.7653ZM43.6554 39.9206C43.6788 39.8974 43.6905 39.8742 43.7139 39.8626C43.8777 39.9322 44.0415 39.9787 44.2053 40.0135C43.983 40.0367 43.7607 40.0367 43.5385 40.0251C43.5736 39.9787 43.6203 39.9555 43.6554 39.9206ZM49.7154 35.4055C49.7856 34.593 49.7739 33.7688 49.6452 32.9796C49.6452 32.6546 49.575 32.3528 49.4581 32.0742C49.4464 32.0394 49.4347 32.0046 49.423 31.9697C50.0196 33.0376 50.0664 34.2447 49.7154 35.4055Z" fill="white"/>
<path d="M33.5126 50.3321C33.6061 50.3089 33.688 50.2973 33.7699 50.2741C34.507 50.0071 35.2206 49.4268 35.7821 48.7304C36.5659 48.1732 37.2445 47.3491 37.7475 46.2348C39.479 42.3813 36.7297 38.5277 32.7872 37.9821C28.3768 37.367 25.4053 40.7795 25.7679 44.9696C26.1072 48.7768 29.7806 52.1196 33.5126 50.3321ZM36.4958 45.7125C36.4724 45.7125 36.4607 45.7125 36.4373 45.7125C36.4841 45.6313 36.5075 45.55 36.5542 45.4688C36.5425 45.5036 36.5425 45.5384 36.5308 45.5732C36.5191 45.6196 36.4958 45.6661 36.4958 45.7125ZM32.4246 48.9973C32.0151 48.9509 31.629 48.742 31.2898 48.475C31.3951 48.4054 31.5004 48.3357 31.5939 48.2545C32.0034 48.6027 32.4948 48.8348 32.9978 48.9393C32.9744 48.9509 32.951 48.9509 32.9393 48.9625C32.7638 48.9741 32.5883 48.9973 32.4246 48.9973ZM33.6295 44.3777C33.6646 44.4125 33.688 44.4473 33.7231 44.4705C33.6997 44.5054 33.6529 44.5286 33.6295 44.5634C33.6295 44.5054 33.6295 44.4473 33.6295 44.3777ZM31.243 41.8589C31.1845 41.9634 31.1377 42.0795 31.0909 42.1955C30.892 41.9402 30.6463 41.7661 30.3305 41.7196C30.3188 41.708 30.2954 41.6848 30.2837 41.6732C30.3305 41.5804 30.4007 41.4875 30.4826 41.4063C30.7282 41.5107 31.0207 41.6848 31.243 41.8589ZM31.1845 39.5491C30.8569 39.5491 30.5294 39.6304 30.2018 39.8277C30.1784 39.8277 30.1433 39.8161 30.1082 39.8161C30.0731 39.8161 30.038 39.8277 30.0029 39.8277C30.3656 39.6768 30.7633 39.5607 31.1845 39.5027C31.1728 39.5143 31.1728 39.5375 31.1845 39.5491Z" fill="white"/>
<path d="M31.3017 63.8429C35.1038 61.7768 34.1562 57.7027 31.3485 55.2536C31.0911 55.0331 30.8103 54.8242 30.5295 54.6384C29.6404 53.8027 28.5992 53.1876 27.5463 52.9902C26.3648 52.7697 25.3002 53.2456 24.528 54.0465C23.8495 54.5108 23.3699 55.2072 23.3699 56.0661C23.3231 56.2286 23.288 56.3911 23.2646 56.5652C23.2295 56.6813 23.1944 56.7974 23.171 56.9134C23.0774 57.1804 23.0072 57.4474 22.9604 57.7376C22.8434 58.4456 22.8902 59.1072 23.0423 59.7224C23.557 63.8429 27.4761 65.9206 31.3017 63.8429ZM28.3302 59.7108C28.3419 59.6992 28.3536 59.6876 28.3653 59.6759C28.4004 59.6295 28.4355 59.5947 28.4705 59.5367C28.5875 59.3742 28.6811 59.2117 28.763 59.0259C28.8683 59.0027 28.9853 59.0027 29.0906 58.9679C29.1491 59.0724 29.1959 59.1652 29.231 59.2581C29.2544 59.4206 29.2544 59.5947 29.2427 59.7688C29.0672 59.8617 28.5173 59.7456 28.4004 59.734C28.377 59.734 28.3536 59.7224 28.3302 59.7108Z" fill="white"/>
<path d="M37.2562 67.1277C35.8641 66.7795 33.3839 67.0348 32.0971 68.1375C32.0971 67.9982 31.8865 67.9518 31.828 68.0911C31.7227 68.3348 31.6174 68.5902 31.5238 68.8456C31.4185 69.0429 31.3366 69.2518 31.2898 69.4839C30.1785 72.7804 30.0264 76.6688 34.0859 78.0152C37.5019 79.1411 41.4561 76.4366 42.0411 73.0706C42.5207 70.2152 39.7949 67.7545 37.2562 67.1277ZM40.1926 70.5982C40.1224 70.5634 40.0406 70.5286 39.9587 70.5286C39.83 70.2616 39.6545 70.0063 39.4673 69.7509C39.7364 70.0063 39.9938 70.2848 40.1926 70.5982ZM36.2033 76.7384C36.2267 76.7152 36.2501 76.692 36.2735 76.6688C36.7766 76.6804 37.2562 76.6107 37.7008 76.4831C37.0574 76.75 36.3905 76.9241 35.7354 76.9822C35.8992 76.9241 36.0513 76.8429 36.2033 76.7384ZM37.7242 70.4706C37.4434 70.5866 37.2328 70.7375 37.0808 70.9116C37.0106 70.8536 36.9404 70.7956 36.8702 70.7259C36.8351 70.5054 36.8585 70.2848 36.9287 70.0759C37.2211 70.1572 37.4902 70.2848 37.7242 70.4706ZM36.0981 68.2652C36.0864 68.242 36.063 68.2304 36.0396 68.2072C36.0864 68.2072 36.1332 68.2188 36.1799 68.2188C36.1682 68.2304 36.1565 68.2536 36.1332 68.2652C36.1332 68.2652 36.1215 68.2652 36.0981 68.2652ZM32.6352 69.7161C32.6235 69.8322 32.6352 69.9482 32.6703 70.0643C32.4948 70.1223 32.331 70.2036 32.1673 70.3081C32.3427 70.1107 32.4948 69.9134 32.6352 69.7161ZM31.6174 73.7902C31.7344 73.9527 31.8631 74.1152 32.0035 74.2545C32.0854 74.9625 32.3544 75.6357 32.7405 76.1697C32.1088 75.5777 31.7695 74.742 31.6174 73.7902ZM40.5436 73.9643C40.7893 73.3027 40.8595 72.5482 40.6957 71.759C40.7074 71.817 40.7425 71.875 40.7542 71.9331C40.918 72.6759 40.8127 73.3607 40.5436 73.9643Z" fill="white"/>
<path d="M48.3351 72.3974C46.8494 72.5715 44.6851 73.6161 43.4801 74.9161C41.971 76.0652 41.8657 78.2938 42.8484 80C44.1235 82.2286 47.1418 83.842 49.7156 83.0991C49.8326 83.0643 49.9496 83.0179 50.0665 82.9715C50.1016 82.9599 50.1484 82.9483 50.1835 82.925C53.3422 81.6947 54.9917 77.725 53.4358 74.6956C52.4531 72.8152 50.3239 72.1536 48.3351 72.3974ZM43.9715 75.9956C43.9715 76.042 43.9715 76.1 43.9715 76.1465C43.9247 76.1465 43.8896 76.1581 43.8428 76.1697C43.8428 76.1349 43.8428 76.1 43.8428 76.0536C43.8896 76.0304 43.9247 76.0072 43.9715 75.9956ZM43.3865 76.2045C43.3982 76.2045 43.3982 76.1929 43.4099 76.1929C43.3163 76.6224 43.2461 77.0402 43.211 77.4581C43.1876 77.0402 43.2461 76.6224 43.3865 76.2045ZM52.4765 75.5313C52.5701 75.7054 52.6403 75.8911 52.6988 76.0768C52.4648 75.5429 52.1255 75.0322 51.681 74.5447C51.5757 74.417 51.4353 74.359 51.2949 74.3241C51.2598 74.2661 51.2364 74.1965 51.2013 74.1268C51.7044 74.4518 52.1489 74.9045 52.4765 75.5313Z" fill="white"/>
<path d="M47.2705 55.1607C45.4338 55.95 41.6199 59.3741 43.8427 61.3822C44.1469 63.959 47.0365 65.7813 49.7974 65.9438C54.5003 66.234 56.6412 62.1831 55.483 58.0509C54.4418 54.3366 50.3824 53.8375 47.2705 55.1607ZM54.0207 57.8884C55.6585 61.2313 53.8452 64.6206 50.1367 64.7715C47.715 64.8643 45.7028 63.6572 44.8488 61.7652C45.0243 61.6724 45.1413 61.4634 45.0477 61.2081C44.3107 59.0259 45.5624 57.5866 47.5044 56.5768C49.7623 55.4045 52.7806 55.3465 54.0207 57.8884Z" fill="white"/>
<path d="M93.3638 64.0866C92.6969 63.7036 92.2641 62.9259 91.8429 62.3107C91.8312 62.2875 91.7961 62.2991 91.7961 62.3224C91.9833 63.8661 93.6797 65.4795 95.3292 64.9224C95.493 64.8643 95.5047 64.5974 95.3175 64.5741C94.6273 64.4465 94.0072 64.4581 93.3638 64.0866Z" fill="white"/>
<path d="M108.514 15.3598C108.315 15.1045 107.952 14.8955 107.625 15.0464C104.384 16.4277 102.103 19.2598 100.149 22.0688C98.0082 25.1447 96.265 28.4643 94.323 31.6563C92.112 35.2893 90.322 38.992 89.0352 43.0545C87.6898 47.2679 86.4848 51.5857 85.3968 55.8688C85.35 56.0545 85.4319 56.2054 85.5723 56.2982C85.3266 59.1304 85.2916 61.9741 85.0342 64.8063C84.8002 67.4875 84.4609 70.3661 83.3496 72.8732C80.2611 73.0473 77.6522 75.4384 76.1665 77.992C74.3766 81.0795 73.698 84.7357 73.1248 88.2063C72.5398 91.6768 72.224 95.2402 71.2764 98.6295C70.6446 100.904 69.4163 103.458 66.7489 103.725C65.9651 103.806 65.193 103.841 64.4092 103.771C64.1518 103.748 64.0582 104.131 64.2805 104.247C64.9239 104.561 65.579 104.77 66.2342 104.874C66.1172 104.886 66.0002 104.886 65.8715 104.897C65.7896 104.909 65.7311 105.025 65.8247 105.071C69.0068 106.58 73.3237 106.058 76.5642 104.967C80.1324 103.771 83.3612 101.624 85.8765 98.8384C88.38 96.0643 90.0764 92.6054 90.6613 88.9375C91.2112 85.5482 90.9772 80.9518 89.0118 77.9223C89.0703 77.8759 89.1288 77.8063 89.1639 77.7366C92.1705 72.3393 94.8027 66.6518 99.2599 62.2295C99.2716 62.2179 99.2599 62.2063 99.2482 62.2063C98.8388 62.4384 98.441 62.6938 98.0667 62.9607C98.0433 62.9259 97.9965 62.8911 97.9263 62.9027C97.3413 62.9607 96.85 63.0072 96.265 62.8447C95.5163 62.6357 94.8612 62.1714 94.2762 61.6723C94.2294 61.6375 94.171 61.6955 94.2178 61.742C95.0367 62.5313 96.3469 63.483 97.5987 63.2973C96.0428 64.4813 94.7208 65.9554 93.5392 67.5688C93.5275 67.5688 93.5158 67.5688 93.5041 67.5688C91.7844 67.7545 90.8485 66.7214 90.1466 65.2589C90.0881 65.1429 89.9009 65.2357 89.936 65.3518C90.4273 66.7098 91.5504 68.5205 93.1649 68.0679C92.4863 69.0313 91.8663 70.0295 91.2696 71.0509C91.258 71.0277 91.2463 71.0045 91.2229 70.9813C90.907 70.7143 90.4741 70.6563 90.1115 70.4473C89.5148 70.1223 89.1171 69.5304 88.9065 68.9036C88.8129 68.625 88.3917 68.7527 88.4736 69.0429C88.6491 69.7045 88.965 70.25 89.468 70.7143C89.8658 71.0973 90.4975 71.5036 91.0708 71.4107C90.5326 72.3509 90.0179 73.2911 89.5265 74.2313C89.2808 74.2429 89.0235 74.2545 88.7661 74.15C88.111 73.8947 87.7366 73.1866 87.4792 72.583C87.409 72.4205 87.1634 72.4902 87.2102 72.6643C87.4207 73.3723 87.76 74.1268 88.4268 74.533C88.6374 74.6607 88.9182 74.7768 89.2107 74.8232C89.0001 75.2295 88.7895 75.6241 88.5789 76.0188C87.9472 76.2857 87.3037 76.4134 86.5784 76.2161C86.0637 76.0768 85.5957 75.7402 85.1863 75.4036C84.8821 75.1482 84.5428 74.9509 84.2621 74.6955H84.2738C84.964 74.4982 85.1044 73.7902 84.8119 73.3143C85.7712 70.8884 86.052 68.2072 86.2626 65.642C86.5082 62.5893 86.5433 59.3277 86.0988 56.2866C86.1456 56.2518 86.1807 56.2054 86.2158 56.1473C87.9472 52.4447 88.8831 48.4054 90.1466 44.5286C91.4451 40.5589 92.9777 36.6357 95.2472 33.0955C97.1308 30.1822 98.7218 27.083 100.605 24.1697C102.384 21.4188 104.571 18.2616 107.613 16.7411C108.561 18.0643 109.227 19.4572 109.684 20.8964C109.672 20.908 109.66 20.9313 109.66 20.9545C109.321 22.4402 109.379 23.9955 109.239 25.5161C109.075 27.1991 108.83 28.8705 108.537 30.5304C107.905 34.1054 107.145 37.6339 106.045 41.1045C105.87 41.6616 105.683 42.2072 105.495 42.7643C103.121 47.5116 100.325 52.0964 98.1369 56.925C97.9497 57.1688 97.7625 57.4009 97.5753 57.6447C97.5519 57.6214 97.5285 57.5866 97.4934 57.5634C97.1074 57.3313 96.7096 57.1688 96.3118 57.0179C96.6862 56.0197 97.084 55.0447 97.5051 54.0697C97.8444 54.0697 98.172 53.9768 98.441 53.7679C98.6048 53.6402 98.6048 53.408 98.4176 53.292C98.2538 53.1991 98.0901 53.1411 97.9263 53.1063C98.3123 52.2473 98.6984 51.4 99.1079 50.5643C99.7513 50.6804 100.371 50.6223 100.898 50.3554C101.155 50.2161 101.015 49.8911 100.804 49.8214C100.406 49.6938 100.009 49.6125 99.6109 49.5313C100.336 48.0339 101.097 46.5482 101.834 45.0625C102.255 44.9697 102.618 44.7723 102.828 44.4241C102.933 44.25 102.793 44.0411 102.629 43.9947C102.547 43.9714 102.477 43.9598 102.395 43.9482C103.039 42.6598 103.67 41.3714 104.279 40.0714C104.372 39.8625 104.478 39.642 104.571 39.4214C104.969 39.3866 105.285 39.1313 105.624 38.8991C105.835 38.7482 105.729 38.4348 105.472 38.4348C105.32 38.4348 105.18 38.4116 105.027 38.3884C105.729 36.7634 106.373 35.1152 106.923 33.4322C107.192 33.3625 107.414 33.2232 107.554 32.9911C107.613 32.8866 107.578 32.7357 107.496 32.6661C107.391 32.5732 107.309 32.5268 107.227 32.492C107.437 31.7723 107.648 31.0527 107.823 30.3214C107.94 29.8339 108.046 29.3348 108.151 28.8241C108.163 28.8241 108.174 28.8357 108.198 28.8357C108.385 28.8589 108.607 28.6964 108.525 28.4875C108.467 28.3482 108.385 28.2322 108.303 28.1161C108.83 25.2375 109.052 22.0688 108.221 19.3875C108.081 19.0625 107.66 19.1902 107.636 19.4804C107.508 21.3375 107.683 23.1947 107.566 25.0518C107.519 25.8179 107.437 26.5839 107.32 27.35C106.946 27.083 106.595 26.7813 106.256 26.4679C106.396 25.4464 106.42 24.3902 106.092 23.4848C106.034 23.3339 105.776 23.2759 105.706 23.45C105.191 24.8429 105.215 26.4563 104.899 27.9072C104.653 29.0795 104.314 30.2402 103.939 31.3777C103.553 30.9947 103.238 30.5304 103.004 30.0429C102.851 29.7411 102.36 29.9848 102.465 30.2982C102.734 31.0411 103.121 31.6911 103.659 32.225C103.565 32.4804 103.483 32.7357 103.39 32.9911C102.887 34.3491 102.278 35.6607 101.658 36.9723C101.448 37.042 101.307 37.2625 101.401 37.5063C100.746 38.8643 100.079 40.2223 99.4939 41.6036C99.3184 42.0214 99.143 42.4393 98.9675 42.8455C98.6867 42.4277 98.4761 41.9634 98.3123 41.5223C98.172 41.1277 97.6104 41.3134 97.6923 41.7197C97.8561 42.4857 98.1252 43.2054 98.558 43.7857C97.9965 45.1438 97.4232 46.5018 96.8266 47.8366C96.5809 47.442 96.3937 46.9893 96.2299 46.525C96.1832 46.3973 95.9843 46.3625 95.9375 46.5018C95.5982 47.3491 95.8205 48.1964 96.3469 48.9045C96.0662 49.508 95.7854 50.1 95.4929 50.692C95.294 51.0866 95.0952 51.4697 94.8963 51.8527C94.1476 51.1911 93.5041 50.3089 92.9777 49.4964C92.9075 49.3804 92.732 49.4732 92.7671 49.5893C93.1181 50.7848 93.6211 51.7714 94.4751 52.6188C94.0891 53.3268 93.6679 54.0232 93.235 54.6964C93.1766 54.7777 93.1181 54.8589 93.0479 54.9518C92.5565 54.3714 92.1354 53.7098 91.7493 53.0714C91.5972 52.8045 91.141 53.0134 91.2579 53.3036C91.5387 54.0464 91.9599 54.8822 92.5097 55.6482C92.3927 55.8223 92.2874 56.008 92.2524 56.1938C92.2173 56.3447 92.3225 56.5652 92.3693 56.6813C92.5331 57.192 92.4395 57.6563 92.229 58.1205C90.5443 57.1688 88.8246 56.1705 86.9879 55.7643C86.555 55.6714 86.286 56.2286 86.6018 56.5072C88.1578 57.9116 90.1232 58.9098 91.9248 59.9545C93.6796 60.9759 95.8556 62.6125 97.9614 62.6938C98.2655 62.7054 98.4995 62.4848 98.6516 62.2527C98.9675 61.7536 98.5814 61.3589 98.1486 61.0804C98.9207 58.9563 99.9034 56.9134 100.945 54.8938C103.284 51.8295 105.004 48.2197 106.338 44.6214C107.285 42.7295 108.186 40.8143 109.005 38.8643C112.164 31.308 113.954 22.3705 108.514 15.3598ZM89.0352 88.7866C88.8714 89.7964 88.614 90.7831 88.2748 91.7464C88.7778 89.9241 89.0469 88.0205 89.1756 86.1402C89.199 85.7572 89.2224 85.3741 89.2341 84.9795C89.3042 86.2563 89.2341 87.533 89.0352 88.7866ZM87.6313 77.4697C87.5494 77.6089 87.5143 77.7598 87.5377 77.9107C87.5611 78.0268 87.5845 78.1429 87.6196 78.2589C87.5143 78.2822 87.4324 78.3634 87.4324 78.4795C87.4207 79.5473 87.2804 80.6036 87.292 81.6714C87.3037 82.9366 87.3622 84.2134 87.3154 85.4786C87.2336 88.0438 86.7422 90.5509 85.9116 92.9652C85.0927 95.3447 83.7941 97.5152 81.9106 99.2098C79.875 101.055 77.1609 102.042 74.5052 102.588C74.3649 102.611 74.4117 102.796 74.5286 102.808C75.8155 102.913 77.0439 102.82 78.2021 102.553C77.6171 102.831 77.0205 103.087 76.4121 103.307C74.7392 103.922 73.0078 104.387 71.2296 104.607C70.3288 104.712 69.4163 104.746 68.5037 104.77C69.5332 104.503 70.4808 103.899 71.253 102.924C73.1599 100.498 73.7565 97.1902 74.3181 94.242C75.0083 90.5973 75.3476 86.9063 76.3303 83.3197C77.1492 80.3482 78.4828 77.2143 81.3257 75.6705C82.051 75.2759 82.8699 75.067 83.6771 74.858C83.7356 74.858 83.7941 74.8464 83.8526 74.8232C83.9696 75.1018 84.0281 75.4384 84.1919 75.6822C84.2855 75.833 84.4258 75.9723 84.5662 76.1C84.4726 76.1348 84.379 76.1929 84.2972 76.2741C81.1853 79.1875 80.2026 83.4241 79.4421 87.4518C79.0444 89.5643 78.6466 91.7 77.7926 93.6848C77.2077 95.0545 76.3537 96.1107 75.4294 97.1438C75.9793 93.7661 76.5993 90.3884 77.6288 87.1268C78.284 85.0491 79.0327 83.0295 80.0739 81.1143C81.0917 79.2455 82.5423 77.9339 83.8526 76.3205C84.2738 75.7982 83.759 75.1714 83.1507 75.4268C81.349 76.1813 80.0973 78.1545 79.138 79.7679C77.9681 81.7179 77.1492 83.8768 76.4823 86.0357C75.3125 89.7732 74.6924 93.8938 74.7977 97.8402C74.3415 98.3393 73.8852 98.85 73.4406 99.3955C73.2769 99.5929 73.4173 99.9179 73.7097 99.8482C78.0266 98.7688 79.9452 93.325 80.8811 89.5527C81.8989 85.4554 82.1914 80.9402 85.2682 77.7598C84.7183 79.6634 84.7066 81.7643 84.4843 83.7027C84.1802 86.3259 83.7707 88.9375 83.0571 91.4795C82.3902 93.8589 81.3608 96.192 79.6761 98.0607C78.8572 98.9661 77.9564 99.7089 76.8918 100.301C75.6868 100.963 74.3415 101.218 73.0546 101.636C72.9727 101.659 72.9493 101.798 73.0546 101.81C78.4477 102.541 82.2148 97.7473 83.8877 93.325C84.8821 90.7134 85.3851 87.9277 85.7829 85.1884C86.1573 82.6348 86.7305 79.8723 86.5199 77.2955C86.5316 77.2955 86.5316 77.3072 86.5433 77.3072C86.8943 77.4232 87.2687 77.4697 87.6313 77.4697ZM105.998 28.1509C106.045 27.8723 106.104 27.5822 106.151 27.2804C106.279 27.4429 106.42 27.6054 106.583 27.7679C106.759 27.942 106.958 28.1393 107.18 28.3134C107.051 29.033 106.899 29.7411 106.735 30.4375C106.572 31.1107 106.385 31.7723 106.186 32.4223C105.8 32.3759 105.414 32.2598 105.063 32.1205C105.039 32.1089 105.016 32.0973 104.992 32.0857C105.414 30.8089 105.753 29.4973 105.998 28.1509ZM104.618 33.1536C104.63 33.1072 104.641 33.0723 104.665 33.0259C104.969 33.2 105.402 33.3625 105.858 33.4438C105.308 35.1036 104.653 36.717 103.951 38.3188C103.869 38.3072 103.776 38.2955 103.694 38.2723C103.284 38.1795 102.933 37.9589 102.629 37.6688C103.331 36.1947 104.033 34.6973 104.618 33.1536ZM100.535 42.1259C101.05 40.9072 101.623 39.7232 102.208 38.5277C102.501 38.7947 102.828 39.0268 103.214 39.1893C103.319 39.2357 103.413 39.2705 103.518 39.2938C103.331 39.7116 103.132 40.1411 102.933 40.5589C102.384 41.7197 101.81 42.8804 101.249 44.0295C100.909 44.0643 100.559 44.0643 100.196 43.9134C100.079 43.867 99.9736 43.8089 99.8683 43.7393C100.079 43.2054 100.301 42.6598 100.535 42.1259ZM99.4705 44.633C99.5524 44.6911 99.646 44.7375 99.7279 44.7839C99.997 44.9232 100.336 45.0277 100.699 45.0857C100.02 46.4786 99.3418 47.883 98.6984 49.2991C98.3942 49.1947 98.1018 49.067 97.8093 48.8813C97.7625 48.8464 97.7157 48.8116 97.6689 48.7652C98.3006 47.3955 98.8973 46.0143 99.4705 44.633ZM96.3118 51.5509C96.6277 50.9589 96.9319 50.3554 97.2243 49.7402C97.5402 49.9723 97.8912 50.1697 98.2655 50.3205C97.8795 51.2143 97.5051 52.108 97.1542 53.0134C97.1191 53.0134 97.084 53.0018 97.0489 53.0018C96.6043 52.9322 96.1832 52.7464 95.7971 52.5143C95.9609 52.1893 96.1364 51.8643 96.3118 51.5509ZM93.7732 55.4857C94.3347 54.7893 94.8378 54.058 95.3057 53.292C95.7269 53.5705 96.2533 53.8259 96.7798 53.9652C96.4405 54.9054 96.1247 55.8688 95.8439 56.8322C95.2355 56.6 94.6272 56.3679 94.0774 55.9384C93.937 55.8339 93.8083 55.7179 93.6679 55.5902C93.703 55.567 93.7381 55.5322 93.7732 55.4857ZM92.2757 58.1554C92.4746 57.7839 92.6267 57.3893 92.7671 56.983C92.849 56.7509 92.9543 56.5536 93.0713 56.3679C93.7615 57.1688 94.5804 57.8188 95.5046 58.1089C95.3759 58.608 95.2589 59.1188 95.1654 59.6295C94.7793 59.4554 94.4049 59.2813 94.0306 59.0955C93.4456 58.8054 92.8607 58.4804 92.2757 58.1554ZM96.733 60.3375C96.2884 60.1286 95.8322 59.9313 95.3876 59.7223C95.5514 59.2116 95.7152 58.7009 95.8907 58.2018C96.2767 58.283 96.6745 58.2947 97.0957 58.225C96.6628 58.7357 96.2182 59.2464 95.7503 59.7223C95.6918 59.7804 95.7737 59.8732 95.8439 59.8268C96.382 59.467 96.8968 59.0723 97.3881 58.6661C97.1542 59.2232 96.9436 59.7804 96.733 60.3375ZM109.684 31.9116C109.742 31.5518 109.789 31.1804 109.836 30.8089C110.046 29.0795 110.187 27.3384 110.257 25.6089C110.28 25.0866 110.304 24.5527 110.327 24.0188C110.608 26.6072 110.315 29.2768 109.684 31.9116Z" fill="white"/>
</g>
<defs>
<filter id="filter0_d" x="0" y="0" width="129" height="129" filterUnits="userSpaceOnUse" color-interpolation-filters="sRGB">
<feFlood flood-opacity="0" result="BackgroundImageFix"/>
<feColorMatrix in="SourceAlpha" type="matrix" values="0 0 0 0 0 0 0 0 0 0 0 0 0 0 0 0 0 0 127 0" result="hardAlpha"/>
<feOffset dy="4"/>
<feGaussianBlur stdDeviation="2"/>
<feComposite in2="hardAlpha" operator="out"/>
<feColorMatrix type="matrix" values="0 0 0 0 0 0 0 0 0 0 0 0 0 0 0 0 0 0 0.25 0"/>
<feBlend mode="normal" in2="BackgroundImageFix" result="effect1_dropShadow"/>
<feBlend mode="normal" in="SourceGraphic" in2="effect1_dropShadow" result="shape"/>
</filter>
<linearGradient id="paint0_linear" x1="164" y1="-9.03369e-08" x2="-6.55006" y2="103.614" gradientUnits="userSpaceOnUse">
<stop stop-color="#FF3C0E"/>
<stop offset="1" stop-color="#793DC2"/>
</linearGradient>
<clipPath id="clip0">
<rect width="94" height="91" fill="white" transform="translate(18 15)"/>
</clipPath>
</defs>
</svg>
