<svg width="129" height="129" viewBox="0 0 129 129" fill="none" xmlns="http://www.w3.org/2000/svg">
<g filter="url(#filter0_d)">
<path d="M105 0H24C12.9543 0 4 8.95431 4 20V101C4 112.046 12.9543 121 24 121H105C116.046 121 125 112.046 125 101V20C125 8.9543 116.046 0 105 0Z" fill="url(#paint0_linear)"/>
</g>
<path d="M37.6123 63.7204C45.0492 54.2188 53.341 45.3602 62.3265 37.2895C71.2797 29.2509 80.9266 21.984 91.1381 15.6014C96.8972 12.0001 102.85 8.67214 108.932 5.64963C108.657 5.4567 108.367 5.26378 108.093 5.07085C107.141 10.0709 104.721 14.6046 102.301 19.0419C99.6719 23.8651 96.9617 28.64 94.1709 33.3667C88.5731 42.8361 82.6204 52.1127 76.3451 61.148C72.8122 66.2284 69.1825 71.2445 65.456 76.1802C65.0366 76.7429 65.8432 77.4824 66.2788 76.9197C72.9735 68.0612 79.3618 58.9615 85.3951 49.6528C91.4123 40.3763 97.0746 30.8908 102.398 21.1963C105.173 16.1641 108.093 11.0194 109.19 5.31201C109.286 4.81362 108.77 4.52423 108.351 4.73323C97.4618 10.1352 87.0406 16.5017 77.2646 23.7204C67.5532 30.8908 58.4709 38.8811 50.1307 47.595C45.4363 52.5146 40.9839 57.6432 36.8058 62.9969C36.3541 63.5274 37.1768 64.267 37.6123 63.7204Z" fill="white"/>
<path d="M36.9509 64.4279C45.275 70.0549 53.5184 75.9552 62.4393 80.6176C62.9071 80.8587 63.3911 81.0999 63.9396 81.0034C64.5365 80.907 64.972 80.4568 65.2947 79.9906C66.1174 78.8169 66.9079 77.6272 67.7145 76.4375C68.1178 75.8587 67.1337 75.3604 66.7304 75.9391C66.0529 76.9359 65.3592 77.9327 64.6817 78.9456C64.4074 79.3475 64.0686 80.0227 63.4879 79.8941C62.9878 79.7816 62.4555 79.3796 62.0038 79.1385C59.9227 78.0292 57.8901 76.8395 55.8736 75.6176C51.9052 73.206 48.0496 70.6176 44.1941 68.0131C41.9356 66.4858 39.6933 64.9745 37.4348 63.4472C36.8541 63.0613 36.3701 64.042 36.9509 64.4279Z" fill="white"/>
<path d="M41.6292 68.2863C37.6769 70.9229 33.7084 73.5757 29.74 76.2123C28.1429 77.2734 26.1748 78.3827 25.6586 80.3763C25.4489 81.2123 25.5134 82.1448 25.9812 82.8844C26.2071 83.238 26.5297 83.5114 26.8685 83.7686C27.3525 84.1384 27.6267 84.4278 27.4815 85.0548C27.1266 86.566 26.1748 87.9808 25.4005 89.2991C24.61 90.6175 23.8196 91.9519 23.3356 93.431C22.8033 95.0226 22.8678 96.55 23.3679 98.1255C23.6582 99.0258 23.868 99.894 23.6905 100.843C23.5292 101.679 23.1582 102.45 22.7387 103.174C21.7708 104.862 20.4641 106.341 19.8027 108.206C19.1574 110.007 19.109 112.032 20.4964 113.495C20.69 113.704 21.0933 113.672 21.2707 113.447C24.1261 110.055 26.9976 106.662 29.8529 103.286C29.5303 103.126 29.2238 102.965 28.9011 102.804C28.643 104.974 28.3849 107.161 28.1268 109.331C27.9493 110.826 27.5944 112.82 28.7721 114.042C29.2722 114.556 30.0304 114.765 30.724 114.572C31.5145 114.363 32.0791 113.688 32.5147 113.029C33.047 112.209 33.4503 111.293 33.8859 110.408C34.3537 109.444 34.8215 108.463 35.2571 107.482C36.225 105.328 37.1284 103.142 37.9511 100.939C37.7092 101.019 37.451 101.1 37.2091 101.18C38.177 101.598 38.0963 103.109 38.306 103.978C38.5641 104.99 39.1772 105.987 40.3225 106.116C41.355 106.228 42.3067 105.553 42.8714 104.765C43.6134 103.736 43.7102 102.579 43.5166 101.357C43.3231 100.071 42.6778 98.5274 43.0972 97.2413C43.3392 96.4856 44.1942 95.521 45.0814 95.6014C45.6299 95.6496 45.8558 96.148 46.0816 96.5821C46.3881 97.193 46.7753 97.7879 47.5012 97.9326C48.6305 98.1898 49.4693 97.0966 49.8404 96.1802C50.1146 95.5049 50.2114 94.8136 50.2759 94.0901C50.3566 93.0773 50.4211 92.0483 50.5018 91.0355C50.647 88.9937 50.8083 86.968 50.9535 84.9262C50.5824 84.9422 50.2114 84.9583 49.8565 84.9744C50.0339 86.1319 51.0019 86.759 52.1311 86.775C53.3571 86.7911 54.3734 86.0676 54.8251 84.9422C55.2929 83.7525 55.18 82.4503 54.938 81.2123C54.6799 79.8779 54.2444 78.4149 54.7445 77.0805C54.9864 76.4213 54.0185 75.9229 53.7604 76.5821C52.9538 78.7043 53.954 80.7139 54.0347 82.8522C54.0669 83.7525 53.9217 84.9744 53.0506 85.4567C52.4537 85.7943 51.0825 85.8265 50.9535 84.9262C50.8405 84.2188 49.9049 84.267 49.8565 84.9744C49.7274 86.7107 49.5984 88.4631 49.4693 90.2155C49.4048 91.0194 49.3564 91.8072 49.2919 92.611C49.2273 93.3828 49.2435 94.2188 49.0822 94.9744C48.9531 95.5853 48.1626 97.6593 47.3238 96.5339C46.9366 96.0194 46.8076 95.3763 46.2913 94.9422C45.9364 94.6528 45.5009 94.4921 45.0492 94.4921C44.1458 94.4921 43.2908 95.0387 42.7423 95.7139C42.0164 96.5982 41.8228 97.611 41.9357 98.7364C42.0648 100.071 42.6294 101.437 42.5165 102.804C42.4358 103.672 41.8389 104.605 41.0162 104.942C39.8063 105.441 39.4191 104.01 39.2578 103.126C39.0481 102.016 38.9029 100.714 37.7092 100.216C37.4672 100.103 37.08 100.167 36.9671 100.457C35.7088 103.833 34.2731 107.161 32.676 110.392C32.2566 111.244 31.208 114.171 29.8045 113.463C29.256 113.19 29.1108 112.402 29.0624 111.839C28.9979 111.035 29.127 110.248 29.2238 109.46C29.4819 107.322 29.7239 105.183 29.982 103.045C30.0465 102.547 29.4173 102.097 29.0302 102.563C26.1748 105.955 23.3195 109.347 20.448 112.724C20.7061 112.708 20.9642 112.691 21.2223 112.675C20.0286 111.405 20.4157 109.476 21.0449 108.029C21.7224 106.486 22.8355 105.183 23.6744 103.736C24.4487 102.402 25.0456 100.875 24.8036 99.2992C24.6584 98.3345 24.2067 97.4664 24.0615 96.5017C23.9648 95.8104 24.0132 95.1191 24.1745 94.4438C24.8359 91.5017 27.046 89.1544 28.1591 86.3892C28.4333 85.6979 28.7721 84.9101 28.5624 84.1545C28.3042 83.222 27.2879 82.9969 26.8524 82.2252C26.4007 81.4213 26.6588 80.3602 27.175 79.6368C27.7558 78.8329 28.5946 78.2702 29.4173 77.7236C33.6762 74.8779 37.935 72.0483 42.1938 69.2027C42.823 68.8168 42.2261 67.8844 41.6292 68.2863Z" fill="white"/>
<path d="M44.9685 70.2156C41.3066 72.8683 38.1931 76.1963 35.8217 80.0548C35.4507 80.6658 36.4347 81.1481 36.8057 80.5532C39.0803 76.8876 42.0647 73.6722 45.5654 71.1481C46.13 70.7301 45.5331 69.8137 44.9685 70.2156Z" fill="white"/>
<path d="M47.6948 71.1962C44.8072 73.4631 42.4196 76.2605 40.6612 79.492C40.3225 80.119 41.3065 80.6174 41.6453 79.9904C43.2907 76.9518 45.5653 74.2669 48.2916 72.1287C48.8401 71.6946 48.2594 70.7621 47.6948 71.1962Z" fill="white"/>
<path d="M50.0662 72.2574C47.1947 79.2831 43.4844 85.9551 38.9835 92.0966C38.5641 92.6593 39.3868 93.3989 39.8063 92.8362C44.3555 86.6304 48.1304 79.878 51.0502 72.7558C51.3083 72.1127 50.3404 71.5982 50.0662 72.2574Z" fill="white"/>
<path d="M33.1922 84.7654C32.8534 85.087 32.7567 85.5854 32.8534 86.0355C32.9502 86.4696 33.4019 87.0966 33.9343 86.9359C34.4021 86.7912 34.7247 86.2445 34.8377 85.7944C34.9506 85.3121 34.8538 84.7654 34.5473 84.3796C34.3698 84.1545 34.0472 84.042 33.7891 84.2188C33.5632 84.3635 33.4342 84.7494 33.6278 84.9744C33.8698 85.2799 33.8214 85.7462 33.4826 85.9552C33.66 85.9391 33.8536 85.9391 34.0311 85.923C33.9665 85.8909 33.9343 85.8426 33.9343 85.7622C33.902 85.6015 33.9182 85.6015 34.0311 85.505C34.2408 85.296 34.1924 84.9101 33.9827 84.7333C33.7246 84.5082 33.4019 84.5564 33.1922 84.7654Z" fill="white"/>
<path d="M32.2565 91.2446C32.4985 91.0838 32.7566 90.923 32.9986 90.7622C33.2406 90.6015 33.3373 90.2478 33.1599 90.0066C32.9986 89.7655 32.6598 89.6851 32.4017 89.8459C32.1597 90.0066 31.9016 90.1674 31.6596 90.3282C31.4176 90.4889 31.3209 90.8426 31.4983 91.0838C31.6758 91.3249 31.9984 91.4214 32.2565 91.2446Z" fill="white"/>
<path d="M63.4557 80.2157C64.0526 79.8298 63.4557 78.9134 62.8588 79.2832C62.2619 79.669 62.8588 80.5854 63.4557 80.2157Z" fill="white"/>
<path d="M63.6009 79.4598C63.3912 79.09 63.1976 78.7363 62.9879 78.3665C62.9234 78.6238 62.875 78.881 62.8266 79.1222C64.6334 77.9325 66.1982 76.4051 67.4403 74.6206C67.8436 74.0418 67.0209 73.3022 66.6176 73.881C65.44 75.5852 63.972 77.0482 62.2297 78.1897C61.9716 78.3665 61.9232 78.6881 62.0684 78.9453C62.2781 79.3151 62.4717 79.6688 62.6814 80.0386C63.0202 80.6817 63.9558 80.0707 63.6009 79.4598Z" fill="white"/>
<path d="M63.859 80.0066C66.1336 78.3668 67.9082 76.116 68.9083 73.4954C69.1665 72.8362 68.1824 72.3378 67.9243 72.997C66.9886 75.4407 65.3916 77.5629 63.2622 79.0902C62.6976 79.4922 63.2783 80.4246 63.859 80.0066Z" fill="white"/>
<path d="M63.0202 79.5082C64.5366 78.3024 65.8272 76.8876 66.908 75.2799C67.2952 74.685 66.3111 74.2027 65.924 74.7815C64.9561 76.2124 63.7784 77.5146 62.4234 78.5918C61.8749 79.0259 62.4718 79.9583 63.0202 79.5082Z" fill="white"/>
<path d="M62.9555 79.0901C69.3599 72.5788 75.0383 65.3923 79.8779 57.6592C81.2653 55.4566 82.5719 53.2219 83.8141 50.9389C84.1529 50.3119 83.1688 49.8135 82.8301 50.4406C78.5067 58.3988 73.3122 65.8746 67.3595 72.7235C65.6818 74.6528 63.9396 76.5338 62.1328 78.3666C61.6327 78.865 62.4554 79.5885 62.9555 79.0901Z" fill="white"/>
<path d="M64.5526 80.746C72.2475 72.5145 79.2811 63.6882 85.5886 54.3473C91.864 45.0547 97.3972 35.2637 102.14 25.103C104.818 19.3634 107.238 13.4792 109.383 7.53061C109.625 6.87145 108.641 6.35698 108.399 7.03222C104.592 17.5788 99.9622 27.82 94.5419 37.6271C89.1054 47.4502 82.9107 56.8554 75.9901 65.6978C72.1185 70.6496 68.0371 75.4245 63.746 80.0065C63.2459 80.521 64.0687 81.2605 64.5526 80.746Z" fill="white"/>
<path d="M68.5697 75.3441C69.1988 73.8811 69.8441 72.4341 70.4732 70.9711C70.7475 70.328 69.7796 69.8136 69.4892 70.4727C68.86 71.9357 68.2148 73.3827 67.5856 74.8457C67.3114 75.4888 68.2954 76.0033 68.5697 75.3441Z" fill="white"/>
<path d="M71.57 71.6947C71.7475 70.0387 72.2959 68.4953 73.1993 67.0966C73.5865 66.5017 72.6024 66.0034 72.2153 66.5982C71.2796 68.0773 70.6827 69.7333 70.4892 71.4696C70.4085 72.1609 71.4893 72.4021 71.57 71.6947Z" fill="white"/>
<path d="M73.5703 69.9102C74.0866 67.6755 75.0061 65.5694 76.2644 63.6562C76.6515 63.0613 75.6675 62.5629 75.2803 63.1578C73.9736 65.1514 73.0219 67.3539 72.4895 69.669C72.3282 70.3604 73.409 70.6015 73.5703 69.9102Z" fill="white"/>
<path d="M76.1514 66.7911C76.9419 64.7332 77.7323 62.6753 78.5067 60.6175C78.7648 59.9583 77.7807 59.4599 77.5226 60.1191C76.7322 62.1769 75.9417 64.2348 75.1674 66.2927C74.9254 66.9358 75.9094 67.4503 76.1514 66.7911Z" fill="white"/>
<path d="M79.2005 63.1577C79.507 60.9873 80.2652 58.9455 81.459 57.0966C81.8461 56.5017 80.8621 56.0034 80.4749 56.5982C79.2489 58.5114 78.4423 60.6818 78.1197 62.9326C78.0229 63.6239 79.1037 63.8651 79.2005 63.1577Z" fill="white"/>
<path d="M82.2817 59.0581C83.1205 56.0517 83.9755 53.0452 84.8144 50.0388C85.008 49.3475 83.9271 49.1224 83.7336 49.7976C82.8947 52.8041 82.0397 55.8105 81.2008 58.8169C81.0073 59.4922 82.0881 59.7333 82.2817 59.0581Z" fill="white"/>
<path d="M84.9273 55.1674C85.5887 52.6593 86.2339 50.1352 86.8953 47.6272C87.0728 46.9359 85.992 46.7108 85.8145 47.386C85.1531 49.8941 84.5078 52.4182 83.8464 54.9262C83.6851 55.6175 84.7498 55.8587 84.9273 55.1674Z" fill="white"/>
<path d="M87.476 52.0484C87.4277 48.9616 88.2665 45.9391 89.8958 43.3185C90.2669 42.7076 89.2828 42.2092 88.9118 42.8201C87.1857 45.6015 86.3145 48.833 86.3791 52.0967C86.3952 52.8041 87.4922 52.7558 87.476 52.0484Z" fill="white"/>
<path d="M89.7022 46.8392C89.9281 44.2026 90.8154 41.6624 92.2188 39.4277C92.5899 38.8328 91.6058 38.3344 91.2348 38.9293C89.7345 41.3408 88.8473 44.0579 88.6053 46.8875C88.5407 47.5949 89.6377 47.5305 89.7022 46.8392Z" fill="white"/>
<path d="M92.3157 43.5918C92.3641 40.9713 93.2191 38.415 94.7516 36.2928C95.171 35.7301 94.3483 34.9745 93.9289 35.5532C92.2189 37.9166 91.2671 40.714 91.2187 43.6401C91.2026 44.3475 92.2995 44.2992 92.3157 43.5918Z" fill="white"/>
<path d="M94.4775 40.2156C94.671 37.6111 95.2195 35.0227 96.1068 32.579C96.3488 31.9198 95.3647 31.4053 95.1227 32.0806C94.1709 34.7333 93.5741 37.4664 93.3643 40.2638C93.316 40.9712 94.4129 40.923 94.4775 40.2156Z" fill="white"/>
<path d="M96.4132 35.8425C96.3002 33.6078 96.7681 31.4213 97.7521 29.4117C98.0586 28.7847 97.0907 28.2702 96.7681 28.9133C95.6872 31.0837 95.1871 33.4792 95.3001 35.8908C95.3323 36.5982 96.4454 36.566 96.4132 35.8425Z" fill="white"/>
<path d="M98.0424 31.6947C99.2039 28.7848 100.365 25.8587 101.543 22.9488C101.801 22.2896 100.817 21.7912 100.559 22.4504C99.3975 25.3603 98.236 28.2864 97.0584 31.1964C96.8003 31.8394 97.7843 32.3539 98.0424 31.6947Z" fill="white"/>
<path d="M88.4602 16.759C91.9447 19.7333 95.1388 23.0291 97.978 26.6304C98.4136 27.177 99.3492 26.5982 98.9136 26.0355C96.0099 22.3699 92.7674 18.9776 89.2184 15.9391C88.6538 15.4728 87.9117 16.2927 88.4602 16.759Z" fill="white"/>
<path d="M92.0576 18.013C92.4931 17.0483 92.9126 16.0837 93.3481 15.1191C93.6385 14.476 92.6544 13.9615 92.3641 14.6207C91.9285 15.5853 91.5091 16.5499 91.0735 17.5146C90.7831 18.1576 91.7672 18.656 92.0576 18.013Z" fill="white"/>
<path d="M93.7836 20.4566C94.5257 17.8521 95.2678 15.2476 96.0098 12.6431C96.2034 11.9678 95.1226 11.7267 94.929 12.4019C94.1869 15.0064 93.4449 17.6109 92.7028 20.2154C92.5092 20.9067 93.59 21.1479 93.7836 20.4566Z" fill="white"/>
<path d="M96.3166 21.9519C96.6715 18.7847 97.3974 15.6818 98.5105 12.6914C98.7525 12.0323 97.7846 11.5339 97.5265 12.193C96.365 15.2638 95.5906 18.4631 95.2357 21.7268C95.1551 22.4181 96.2359 22.6593 96.3166 21.9519Z" fill="white"/>
<path d="M98.22 23.3345C98.7362 18.9937 99.6396 14.7171 100.882 10.521C101.092 9.84576 100.011 9.60461 99.801 10.2798C98.5427 14.4599 97.6554 18.7525 97.1392 23.0933C97.0424 23.7847 98.1232 24.0258 98.22 23.3345Z" fill="white"/>
<path d="M100.22 23.7685C101.156 18.8811 102.092 13.9936 103.027 9.09008C103.156 8.39876 102.076 8.15761 101.947 8.84892C101.011 13.7364 100.075 18.6238 99.1396 23.5274C98.9944 24.2187 100.075 24.4599 100.22 23.7685Z" fill="white"/>
<path d="M102.527 21.0837C103.463 16.4052 104.415 11.7268 105.35 7.04833C105.496 6.35702 104.415 6.11586 104.27 6.80718C103.334 11.4856 102.382 16.1641 101.446 20.8425C101.317 21.5499 102.398 21.7911 102.527 21.0837Z" fill="white"/>
<path d="M105.544 15.3762C106.028 12.5145 106.722 9.66883 107.593 6.90355C107.802 6.22831 106.722 6.00323 106.512 6.6624C105.641 9.44375 104.947 12.2733 104.463 15.1351C104.35 15.8425 105.431 16.0836 105.544 15.3762Z" fill="white"/>
<path d="M107.238 9.68491C107.512 8.46305 107.77 7.25726 108.044 6.03539C108.19 5.34408 107.109 5.10292 106.964 5.79424C106.689 7.0161 106.431 8.22189 106.157 9.44375C106.012 10.1511 107.093 10.3762 107.238 9.68491Z" fill="white"/>
<path d="M109.222 6.77505C109.238 6.2445 109.254 5.71395 109.27 5.18341C109.286 4.87794 108.98 4.63678 108.69 4.65286C108.367 4.66894 108.173 4.92617 108.157 5.23164C108.157 5.76218 108.141 6.29273 108.109 6.82328C108.093 7.12874 108.399 7.3699 108.69 7.35382C109.012 7.33775 109.206 7.06444 109.222 6.77505Z" fill="white"/>
<path d="M53.6315 56.116C51.486 58.206 51.2924 61.6787 52.7281 64.2349C54.2445 66.9359 57.5032 67.9488 60.4392 67.3217C63.601 66.6465 65.8918 64.042 66.3918 60.8909C66.8919 57.788 65.6982 53.624 62.4395 52.4825C60.7618 51.9037 58.8905 52.2414 57.3418 53.0613C55.3092 54.1385 53.8735 56.0677 52.5345 57.8684C52.1151 58.4311 52.9378 59.1706 53.3573 58.6079C55.164 56.1481 57.4225 53.1899 60.8263 53.2864C63.9721 53.3828 65.4401 56.8877 65.3917 59.6208C65.3433 62.3217 63.8269 64.9262 61.2296 65.923C58.8744 66.8233 55.8738 66.4697 54.1961 64.4439C52.4055 62.2896 52.4055 58.8169 54.4381 56.8394C54.9704 56.3571 54.1477 55.6176 53.6315 56.116Z" fill="white"/>
<path d="M67.9566 44.074C66.4563 44.7974 65.7143 46.5659 65.9724 48.1736C66.2305 49.7653 67.4888 50.9068 69.0858 51.0514C70.5538 51.1801 72.1025 50.5209 72.8607 49.2186C73.748 47.6752 73.3608 45.4244 72.3445 44.0257C71.7799 43.254 70.941 42.6913 69.9731 42.6913C69.0697 42.6752 68.1663 43.1415 67.7953 43.9936C67.5049 44.6367 68.4889 45.1511 68.7793 44.492C69.0858 43.8167 69.9408 43.6399 70.5861 43.9132C71.3766 44.2508 71.8121 45.1351 72.038 45.9228C72.4735 47.3859 72.2154 49.074 70.6829 49.7331C69.5053 50.2315 67.9243 49.9743 67.3113 48.7524C66.6338 47.418 67.2307 45.6495 68.5696 45.0064C69.1826 44.701 68.5857 43.7685 67.9566 44.074Z" fill="white"/>
<path d="M77.8939 34.0097C76.5388 34.476 76.0548 35.9229 76.3452 37.2413C76.6517 38.656 77.8939 39.6207 79.3457 39.4277C80.7492 39.2348 81.9268 38.1094 82.3463 36.7911C82.8141 35.2798 82.1204 33.4953 80.717 32.7396C79.2006 31.9197 77.0227 32.82 76.7969 34.5885C76.7001 35.2798 77.7809 35.521 77.8777 34.8297C78.0713 33.3827 79.8942 33.1898 80.7653 34.1544C81.6849 35.1834 81.5397 36.6786 80.5879 37.6271C79.8297 38.3827 78.4585 38.7364 77.7487 37.7396C77.1841 36.9519 77.1679 35.4406 78.2326 35.0708C78.8779 34.8297 78.5553 33.7686 77.8939 34.0097Z" fill="white"/>
<path d="M52.6635 61.5017C54.8252 58.8811 56.9707 56.2606 59.1324 53.64C59.5841 53.0934 58.7614 52.3538 58.3097 52.9004C56.148 55.521 54.0024 58.1416 51.8408 60.7622C51.3891 61.3088 52.2118 62.0483 52.6635 61.5017Z" fill="white"/>
<path d="M53.4378 62.8201C56.1319 59.6208 58.842 56.4375 61.536 53.2381C61.9877 52.6915 61.1811 51.952 60.7133 52.4986C58.0193 55.6979 55.3091 58.8812 52.6151 62.0806C52.1634 62.6272 52.97 63.3667 53.4378 62.8201Z" fill="white"/>
<path d="M54.6478 64.3474C56.8095 60.9872 59.2615 57.804 61.9717 54.8458C62.4556 54.3152 61.6329 53.5918 61.149 54.1062C58.3904 57.1287 55.8899 60.3924 53.6637 63.8329C53.2927 64.4438 54.2768 64.9422 54.6478 64.3474Z" fill="white"/>
<path d="M55.8093 65.4566C58.3904 62.1769 60.9876 58.8972 63.5849 55.6013C64.0204 55.0547 63.1977 54.2991 62.7621 54.8618C60.1649 58.1415 57.5838 61.4213 54.9865 64.7171C54.551 65.2798 55.3737 66.0193 55.8093 65.4566Z" fill="white"/>
<path d="M57.6159 65.8426C59.9066 62.9166 62.1974 59.9905 64.4881 57.0645C64.9237 56.5179 64.101 55.7622 63.6654 56.3249C61.3747 59.251 59.0839 62.177 56.7932 65.1031C56.3576 65.6658 57.1804 66.4053 57.6159 65.8426Z" fill="white"/>
<path d="M60.0197 65.6175C61.8749 63.0452 63.7139 60.4728 65.5691 57.9166C65.9724 57.3539 65.1658 56.5982 64.7463 57.177C62.8912 59.7494 61.0521 62.3217 59.197 64.878C58.7937 65.4568 59.6003 66.1963 60.0197 65.6175Z" fill="white"/>
<path d="M62.3427 65.8747C63.5688 64.2991 64.8109 62.7396 66.0369 61.1641C66.4725 60.6175 65.6498 59.8618 65.2142 60.4245C63.9882 62.0001 62.746 63.5596 61.52 65.1351C61.0844 65.6978 61.9072 66.4374 62.3427 65.8747Z" fill="white"/>
<path d="M67.2791 48.9134C68.2309 47.1449 69.4569 45.5532 70.9249 44.1706C71.4411 43.6883 70.6184 42.9487 70.1022 43.4311C68.5696 44.878 67.2791 46.55 66.295 48.3989C65.9563 49.042 66.9403 49.5404 67.2791 48.9134Z" fill="white"/>
<path d="M68.4565 49.3313C69.3115 48.222 70.1665 47.1287 71.0053 46.0194C71.4409 45.4567 70.6182 44.7171 70.1826 45.2798C69.3276 46.3892 68.4888 47.4824 67.6338 48.5917C67.1982 49.1544 68.0209 49.894 68.4565 49.3313Z" fill="white"/>
<path d="M70.0376 49.3473C70.7474 48.5435 71.4572 47.7396 72.1509 46.9357C72.6187 46.4052 71.796 45.6656 71.3282 46.1962C70.6184 47 69.9086 47.8039 69.2149 48.6078C68.7471 49.1544 69.5698 49.8779 70.0376 49.3473Z" fill="white"/>
<path d="M77.297 37.8362C78.2165 36.55 79.1522 35.2638 80.0717 33.9937C80.4911 33.431 79.6684 32.6754 79.249 33.2542C78.3294 34.5403 77.3938 35.8265 76.4743 37.0966C76.0548 37.6754 76.8776 38.4149 77.297 37.8362Z" fill="white"/>
<path d="M78.6197 37.4663C79.3456 36.6785 80.0716 35.8907 80.7975 35.1029C81.2815 34.5885 80.4587 33.8489 79.9748 34.3634C79.2488 35.1512 78.5229 35.9389 77.797 36.7267C77.313 37.2412 78.1357 37.9807 78.6197 37.4663Z" fill="white"/>
<path d="M80.0556 36.6626C80.2976 36.5018 80.5557 36.341 80.7976 36.1803C81.0396 36.0195 81.1364 35.6658 80.959 35.4246C80.7815 35.1835 80.4589 35.087 80.2008 35.2639C79.9588 35.4246 79.7007 35.5854 79.4587 35.7462C79.2167 35.907 79.1199 36.2607 79.2974 36.5018C79.4587 36.743 79.7975 36.8234 80.0556 36.6626Z" fill="white"/>
<path d="M82.088 58.4148C82.0074 58.1737 82.1203 57.7878 81.959 57.5145C81.7654 57.1769 81.3298 57.2251 81.0878 57.4502C80.7007 57.8039 80.9104 58.4791 80.9588 58.9132C81.0233 59.5241 81.0556 60.1512 81.0717 60.7621C81.104 62.1608 81.0717 63.5595 81.0556 64.9582C81.0394 67.5145 81.0556 70.2637 82.1525 72.627C82.33 73.029 82.7494 73.1254 83.0882 72.836C85.024 71.164 86.605 69.1222 88.0568 67.0322C89.5894 64.8135 90.9928 62.4824 92.364 60.1672C93.6707 57.9486 95.0419 55.7621 96.3486 53.5434C97.6553 51.3248 98.7845 48.9454 98.7523 46.3087C98.72 43.447 97.5747 40.7621 97.1875 37.9486C97.0907 37.2573 95.9937 37.2894 96.0905 37.9968C96.4293 40.4727 97.3488 42.8521 97.5908 45.3441C97.8489 47.9164 96.9778 50.1994 95.7356 52.402C94.4935 54.5885 93.1061 56.7106 91.8317 58.8971C90.4927 61.1801 89.1538 63.4631 87.6697 65.6656C86.1049 67.9968 84.3949 70.2637 82.2655 72.1126C82.572 72.1769 82.8946 72.2412 83.2011 72.3216C82.2009 70.1351 82.1525 67.6431 82.1525 65.2959C82.1525 64.0418 82.1848 62.7878 82.1687 61.5177C82.1687 60.9229 82.1525 60.3119 82.1041 59.7171C82.088 59.4438 82.0719 59.1705 82.0396 58.8971C82.0235 58.7364 82.0074 58.5756 81.9912 58.4148C81.9751 58.2541 82.0558 58.0611 81.8944 58.2219C81.6041 58.2058 81.3137 58.1737 81.0233 58.1576C80.8781 57.8843 80.9749 57.9004 80.9588 58.0772C80.9588 58.1576 80.9588 58.238 80.9588 58.3023C80.9588 58.4631 80.9749 58.6238 81.0233 58.7846C81.233 59.4277 82.2977 59.0901 82.088 58.4148Z" fill="white"/>
<path d="M84.5563 17.6914C81.7332 17.6914 78.894 17.6753 76.0709 17.6753C74.7803 17.6753 73.4414 17.5789 72.1831 17.8843C70.9409 18.1898 69.9246 18.9776 68.989 19.8136C64.8915 23.4631 60.8585 27.2573 57.0352 31.1962C54.8736 33.431 52.7925 35.73 50.8406 38.1416C50.5986 38.4471 50.6954 38.9776 51.1309 39.0419C54.0508 39.5403 57.0514 39.2831 59.8583 38.2863C60.5197 38.0451 60.1971 37.0001 59.5357 37.2413C56.9223 38.1737 54.1153 38.431 51.3729 37.9808C51.4697 38.2863 51.5665 38.5917 51.6633 38.8811C55.051 34.7171 58.7936 30.8747 62.6653 27.177C64.585 25.3442 66.5208 23.5596 68.4728 21.7589C69.4245 20.8908 70.3602 19.9101 71.5056 19.2991C72.6509 18.7043 73.9737 18.7686 75.232 18.7686C78.3455 18.7847 81.459 18.7847 84.5886 18.8007C85.3145 18.7847 85.2661 17.6914 84.5563 17.6914Z" fill="white"/>
<path d="M82.1043 56.9037C82.3946 60.9551 82.8141 65.0066 83.3464 69.058C83.4432 69.7493 84.5402 69.7172 84.4434 69.0098C83.911 64.9744 83.5077 60.923 83.2012 56.8554C83.1528 56.148 82.0397 56.1963 82.1043 56.9037Z" fill="white"/>
<path d="M83.8626 54.878C84.766 59.3474 85.2016 63.8973 85.2016 68.4471C85.2016 69.1545 86.2986 69.1063 86.2986 68.3989C86.2986 63.7365 85.8307 59.1063 84.9112 54.5404C84.766 53.849 83.7174 54.1867 83.8626 54.878Z" fill="white"/>
<path d="M85.7984 51.3572C86.3146 55.7302 86.8309 60.0871 87.331 64.4601C87.4116 65.1675 88.5086 65.1192 88.4279 64.4118C87.9117 60.0388 87.3955 55.6819 86.8954 51.3089C86.8147 50.6176 85.7178 50.6498 85.7984 51.3572Z" fill="white"/>
<path d="M53.9217 37.6271C56.406 36.3088 59.1162 35.3924 61.907 34.9422C62.6007 34.8297 62.5684 33.7204 61.8586 33.849C58.8742 34.3313 56.0027 35.2799 53.3248 36.6946C52.6957 37.0323 53.2925 37.9487 53.9217 37.6271Z" fill="white"/>
<path d="M57.2127 34.0741C60.3745 32.7879 63.6493 31.8393 67.0209 31.2605C67.7145 31.1319 67.3919 30.0869 66.6982 30.2155C63.3428 30.7943 60.0519 31.7429 56.89 33.029C56.2286 33.2863 56.5513 34.3313 57.2127 34.0741Z" fill="white"/>
<path d="M60.552 30.296C63.2137 29.7976 65.8755 29.2992 68.5373 28.7847C69.231 28.6561 68.8922 27.6111 68.2146 27.7397C65.5529 28.2381 62.8911 28.7365 60.2293 29.251C59.5357 29.3796 59.8744 30.4246 60.552 30.296Z" fill="white"/>
<path d="M69.1342 21.5339C72.5703 20.7943 76.071 20.3603 79.5877 20.2316C80.2975 20.1995 80.2491 19.1062 79.5393 19.1384C75.9258 19.267 72.3445 19.7332 68.8116 20.4889C68.1179 20.6336 68.4567 21.6786 69.1342 21.5339Z" fill="white"/>
<path d="M94.6226 40.103C95.2518 43.8008 95.8648 47.5146 96.494 51.2284C96.6069 51.9198 97.72 51.8876 97.5909 51.1802C96.9618 47.4664 96.3488 43.7686 95.7196 40.0548C95.6067 39.3635 94.5097 39.4117 94.6226 40.103Z" fill="white"/>
<path d="M58.7775 38.4954C63.1493 33.1738 68.4405 28.624 74.3771 25.1191C76.0709 24.1224 77.8132 23.206 79.6038 22.37C80.233 22.0806 79.9103 21.0195 79.2812 21.3249C72.8768 24.2831 67.0209 28.3346 62.0362 33.3024C60.6004 34.7172 59.2453 36.2124 57.9709 37.7719C57.5031 38.3185 58.3258 39.0581 58.7775 38.4954Z" fill="white"/>
<path d="M83.1527 21.0838C83.7496 20.698 83.1527 19.7816 82.5558 20.1514C81.9589 20.5372 82.5558 21.4697 83.1527 21.0838Z" fill="white"/>
<defs>
<filter id="filter0_d" x="0" y="0" width="129" height="129" filterUnits="userSpaceOnUse" color-interpolation-filters="sRGB">
<feFlood flood-opacity="0" result="BackgroundImageFix"/>
<feColorMatrix in="SourceAlpha" type="matrix" values="0 0 0 0 0 0 0 0 0 0 0 0 0 0 0 0 0 0 127 0" result="hardAlpha"/>
<feOffset dy="4"/>
<feGaussianBlur stdDeviation="2"/>
<feComposite in2="hardAlpha" operator="out"/>
<feColorMatrix type="matrix" values="0 0 0 0 0 0 0 0 0 0 0 0 0 0 0 0 0 0 0.25 0"/>
<feBlend mode="normal" in2="BackgroundImageFix" result="effect1_dropShadow"/>
<feBlend mode="normal" in="SourceGraphic" in2="effect1_dropShadow" result="shape"/>
</filter>
<linearGradient id="paint0_linear" x1="164" y1="-9.03369e-08" x2="-6.55006" y2="103.614" gradientUnits="userSpaceOnUse">
<stop stop-color="#FF3C0E"/>
<stop offset="1" stop-color="#793DC2"/>
</linearGradient>
</defs>
</svg>
