<svg width="129" height="129" viewBox="0 0 129 129" fill="none" xmlns="http://www.w3.org/2000/svg">
<g filter="url(#filter0_d)">
<path d="M105 0H24C12.9543 0 4 8.95431 4 20V101C4 112.046 12.9543 121 24 121H105C116.046 121 125 112.046 125 101V20C125 8.9543 116.046 0 105 0Z" fill="url(#paint0_linear)"/>
</g>
<path d="M105.694 48.368C104.893 44.6769 101.58 42.5709 97.9087 43.4751C95.2751 44.1218 93.0506 46.2335 91.7828 48.74C91.7309 48.0018 91.6963 47.2464 91.6157 46.491C91.6214 46.1648 91.6099 45.8501 91.5753 45.541C91.5811 45.5239 91.5811 45.501 91.5868 45.4838C91.9557 44.8429 91.6733 43.8299 91.3621 43.0059C92.3648 40.1617 87.2186 37.4148 85.3341 36.5964C83.3517 35.738 81.2136 34.9369 79.041 34.7366C78.4474 34.6851 77.8135 34.6049 77.1796 34.5477C77.0586 34.4962 76.9491 34.4333 76.8511 34.3646C72.2811 33.3746 67.4288 33.7637 62.7954 33.8038C58.139 33.8495 53.1195 34.5763 48.6302 35.7953C47.2529 36.173 45.9505 36.6479 44.7114 37.2202C42.8212 37.7982 40.9886 38.5651 39.4211 39.6981C38.4587 40.3906 37.6692 41.415 37.3868 42.5023C37.3464 42.5481 37.3003 42.5881 37.26 42.6339C37.2254 42.5767 37.1159 42.5938 37.1217 42.6682C37.1217 42.714 37.1275 42.7598 37.1332 42.7999C37.0929 42.8971 37.1044 42.9887 37.1505 43.0688C37.1505 43.0745 37.1505 43.0745 37.1505 43.0745C37.1332 43.0917 37.1159 43.1146 37.1275 43.1489C37.139 43.1947 37.1563 43.2405 37.1678 43.292C37.1793 43.458 37.1908 43.6239 37.2024 43.7956C37.1793 43.8528 37.1793 43.9158 37.2139 43.9902C37.2139 43.9902 37.2139 43.9959 37.2197 43.9959C37.3983 46.3651 37.6634 48.7572 38.0668 51.1321C35.4793 49.3695 32.4595 49.0147 29.6242 51.2065C26.3796 53.7188 23.8843 57.7647 25.5728 61.8507C27.2441 65.891 31.8832 68.6436 35.802 70.1086C36.5396 70.3833 37.2946 70.6122 38.061 70.8125C39.0234 71.1845 40.0147 71.4935 41.0059 71.751C42.1527 72.0486 43.87 72.535 45.184 72.3633C46.3596 72.6552 47.518 72.9757 48.6936 73.279C52.6815 76.0316 57.1881 78.2291 59.9716 82.3266C60.1041 82.5211 60.2194 82.71 60.3231 82.9046C60.3058 82.9103 60.2828 82.9103 60.2597 82.916C60.1099 82.9618 60.1041 83.1392 60.2194 83.225C60.3231 83.2994 60.4441 83.3566 60.5709 83.4024C62.0693 86.5728 60.7842 89.7546 58.3868 92.3871C55.3843 95.6891 50.555 95.2999 46.5383 96.3872C43.6338 97.1713 40.8445 99.7579 41.3459 102.991C41.7896 105.841 46.1694 106.494 48.3824 106.825C53.4883 107.581 58.6346 108.462 63.7866 108.851C68.1261 109.177 73.7449 109.195 77.7501 106.9C79.0986 106.556 80.4184 106.122 81.692 105.544C83.7551 104.605 85.6741 102.911 85.6107 100.496C85.5243 97.2056 82.4469 95.3343 79.6 94.596C75.7619 93.606 70.0509 93.8063 69.9472 88.4441C69.855 83.6199 75.3355 79.6598 79.0698 77.5767C80.7641 76.6325 82.4354 75.7226 83.9337 74.4807C84.6714 73.8684 85.288 73.1473 85.8355 72.3805C90.2902 69.4104 95.4768 67.6707 99.6779 64.3C104.248 60.6261 106.945 54.1308 105.694 48.368ZM92.0075 56.4599C92.0364 56.1738 92.0594 55.882 92.0767 55.5901C93.1601 54.4456 94.4971 53.5242 95.8687 52.7745C97.782 51.7273 100.934 50.6228 100.335 54.0164C99.8739 56.6374 97.0962 58.852 95.2232 60.5288C93.4194 62.154 91.4774 63.6648 89.4546 65.0211C89.7831 64.1284 90.0943 63.2299 90.3882 62.3372C91.0048 60.4544 91.7943 58.44 92.0075 56.4599ZM80.2051 37.7982C80.7353 38.0099 81.2597 38.2331 81.7784 38.4678C81.7842 40.362 81.957 42.3077 82.8388 43.9043C82.9079 44.0245 83.1384 43.9787 83.1211 43.8299C82.9828 42.5881 82.6313 41.3978 82.4757 40.156C82.4123 39.681 82.3777 39.2003 82.3547 38.7196C83.4323 39.2174 84.4985 39.7439 85.5416 40.3048C85.7778 40.4307 86.0314 40.568 86.2965 40.7225C86.5847 40.9056 86.8728 41.0888 87.1667 41.2662C87.5759 41.5466 87.9677 41.8613 88.2962 42.2104C87.9044 42.5767 87.5009 42.9258 87.0745 43.2462C86.6077 43.4122 86.1467 43.5839 85.6856 43.7327C85.4148 43.8185 85.1439 43.8986 84.8673 43.9787C84.7002 44.0188 84.5331 44.0646 84.3602 44.1275C83.1384 44.4823 81.9052 44.7971 80.6662 45.1004C79.3465 45.4209 78.0095 45.7013 76.6725 45.9359C75.3239 43.0116 75.8196 39.9499 76.3728 36.8883C77.6291 37.2717 78.8854 37.6723 80.2051 37.7982ZM54.7792 36.9284C56.7155 36.7624 58.6576 36.688 60.6113 36.6537C60.1157 39.6466 59.6489 43.6468 61.0896 46.2106C61.1876 46.388 61.4238 46.2564 61.4008 46.079C61.1242 44.2763 60.8475 42.5595 60.836 40.7282C60.8303 39.3662 60.9686 38.0042 60.8764 36.6479C61.8849 36.6308 62.8934 36.6193 63.9019 36.6079C64.1439 36.6022 64.3917 36.5964 64.6338 36.585C64.2131 39.3433 63.9249 42.9486 65.1812 45.3293C65.2907 45.5353 65.6596 45.4495 65.6365 45.2091C65.4867 43.6583 65.2274 42.1532 65.187 40.5909C65.1524 39.2461 65.2735 37.9069 65.1755 36.5678C66.7372 36.4934 68.2932 36.3389 69.8492 36.2416C69.5783 39.1774 68.881 42.445 70.8289 44.8543C70.9441 44.9974 71.1286 44.8142 71.0652 44.6712C69.7455 41.8041 70.2353 39.1316 70.1662 36.2187C70.8923 36.173 71.6184 36.1443 72.3445 36.1443C73.6354 36.1443 74.8572 36.4534 76.0731 36.8139C75.0646 39.3605 74.1253 43.7384 76.1077 46.0332C73.9812 46.3994 71.8374 46.6684 69.6878 46.8572C65.4752 47.2178 61.3432 46.9831 57.1478 46.6684C56.7098 46.6226 56.2718 46.5883 55.8338 46.5425C55.6955 43.3149 54.5141 40.1617 54.7792 36.9284ZM50.6818 37.4434C51.9612 37.2202 53.2463 37.06 54.5314 36.9455C54.3873 38.2732 54.4507 39.6352 54.5314 40.9514C54.6409 42.674 54.7216 44.8314 55.3843 46.4967C54.3124 46.4052 53.2405 46.325 52.1686 46.2793C51.8459 46.2678 51.5232 46.2564 51.2005 46.2449C50.9411 44.7398 50.6876 43.2977 50.6818 41.7469C50.676 40.3219 50.8893 38.8626 50.6818 37.4434ZM46.7688 38.2789C46.6996 39.4235 46.6651 40.5566 46.6535 41.7068C46.642 42.8742 46.4749 44.1046 46.7745 45.2377C46.8091 45.3636 46.9935 45.3636 47.0281 45.2377C47.3278 44.1046 47.1607 42.8742 47.1491 41.7068C47.1376 40.5394 47.103 39.3777 47.0281 38.216C47.737 38.0443 48.4458 37.8898 49.1316 37.7467C49.5868 37.6494 50.0421 37.5636 50.4974 37.4835C50.1977 39.0686 50.1689 40.7397 50.1055 42.342C50.0536 43.6125 50.0594 45.0603 50.6357 46.2278C48.44 46.0503 45.9793 45.8043 43.7836 45.4724C43.9968 44.5682 43.8585 43.6125 43.8297 42.6911C43.7894 41.5294 43.7548 40.3677 43.7144 39.206C44.723 38.8226 45.7488 38.5307 46.7688 38.2789ZM39.8648 41.415C40.9598 40.6481 42.1066 39.9671 43.2938 39.3662C43.3975 39.3262 43.5012 39.2861 43.605 39.2461C43.5704 40.2361 43.5416 41.2261 43.507 42.2219C43.4724 43.2748 43.2995 44.4022 43.5358 45.4323C42.0778 45.2034 40.7466 44.9344 39.7035 44.6197C39.4614 44.4594 39.2424 44.2706 39.0753 44.0474C38.4241 43.1604 39.1214 42.1246 39.8648 41.415ZM40.8042 69.9484C38.2051 69.4104 35.7271 68.6264 33.4104 67.4533C32.4998 66.7036 31.6815 65.8566 30.9957 64.8952C29.1055 62.2284 29.0997 58.812 30.65 56.0079C31.3646 54.7145 32.569 53.6902 33.9809 53.2552C35.6983 52.7287 37.2024 53.7703 38.5624 54.6458C38.6028 54.6687 38.6316 54.6172 38.6085 54.5886C36.7413 52.3339 33.7792 52.1279 31.5374 53.9191C29.0882 55.882 28.4658 59.5903 29.1574 62.4631C29.4859 63.8193 30.1716 65.0211 31.0591 66.0741C30.9035 65.9711 30.7422 65.8738 30.5923 65.7651C26.9675 63.1898 24.9332 59.5845 27.2441 55.4184C28.4082 53.3182 30.4137 51.5041 32.7246 50.7773C34.7301 50.1478 36.6549 50.9948 38.2455 52.1794C38.4299 53.1751 38.6431 54.1709 38.8851 55.1494C37.6749 54.5028 36.1939 54.188 35.0759 54.1823C32.8456 54.1709 30.6442 55.4299 30.114 57.6617C29.3879 60.7176 32.0158 63.3615 34.4016 64.7636C37.2197 66.4232 40.4872 67.1156 43.4378 68.5062C43.5127 68.6035 43.5819 68.7008 43.6626 68.7981C44.2562 69.542 44.9131 70.2288 45.6047 70.864C43.9968 70.5206 42.3602 70.2746 40.8042 69.9484ZM39.5421 57.8277C39.9109 60.8149 40.614 63.682 42.0086 66.2801C38.6316 64.6835 34.5514 64.0482 32.3385 60.8664C30.8171 58.6746 31.7968 56.3398 34.2863 55.7789C35.2718 55.5558 36.3091 55.7389 37.2485 56.0479C38.3031 56.3913 38.8448 57.1409 39.5421 57.8277ZM87.8525 63.1612C87.841 63.1727 87.8294 63.1841 87.8237 63.2013C86.625 65.5362 85.4436 67.0183 83.0693 68.3231C80.816 69.5649 78.1535 70.452 75.5718 70.6065C75.4738 70.6122 75.4738 70.7553 75.5718 70.7553C78.2803 70.8068 80.9946 70.08 83.4151 68.9183C84.291 68.4948 85.3917 67.8538 86.3311 67.0469C85.945 67.9053 85.5185 68.7351 85.0402 69.5363C84.7232 69.8511 84.3832 70.1486 83.9741 70.4119C82.7466 71.2188 81.277 71.6366 79.8651 71.9971C77.2833 72.6552 74.6093 72.9356 72.0679 73.7654C71.9065 73.8169 71.9699 74.0573 72.1371 74.0172C75.3585 73.2504 78.6895 73.2217 81.8764 72.2661C82.3028 72.1402 82.7581 71.9799 83.2076 71.7911C83.2076 71.814 83.2018 71.8368 83.2018 71.8655C82.8388 72.226 82.4527 72.5808 82.0204 72.8841C80.8102 73.7368 79.3983 74.2747 77.9922 74.7096C75.226 75.568 72.3906 75.7454 69.5495 76.1518C69.5034 76.1575 69.5207 76.2204 69.561 76.2262C72.4022 76.5981 75.4738 76.3463 78.2746 75.6081C77.4044 76.1231 76.5457 76.6382 75.7043 77.1761C72.3272 78.5038 68.5871 78.9616 64.9392 78.8643C64.8412 78.8586 64.847 79.0017 64.9392 79.0131C67.6074 79.3565 70.7597 79.2592 73.7219 78.561C73.0188 79.099 72.3445 79.6884 71.7106 80.3351C69.7166 81.3308 67.6593 82.1549 65.3657 82.4982C65.2331 82.5154 65.2792 82.71 65.3945 82.7157C67.1233 82.8473 68.8061 82.441 70.4312 81.8001C70.4255 81.8058 70.4197 81.8115 70.4197 81.8172C70.0624 82.2922 69.7224 82.7787 69.417 83.2765C69.3997 83.2193 69.3305 83.1735 69.2729 83.2136C68.6044 83.6657 67.9878 84.0663 67.2098 84.3352C67.0715 84.381 67.1349 84.5985 67.2674 84.5527C67.9474 84.3181 68.8349 83.9861 69.3248 83.4253C68.5871 84.6614 68.0396 85.9834 67.8034 87.4255C67.7457 87.4598 67.6939 87.4942 67.6362 87.5285C67.0888 87.8318 66.4664 87.9691 65.8497 88.0092C65.7057 88.0206 65.6999 88.2324 65.8497 88.2324C66.4606 88.2438 67.1291 88.1465 67.74 87.9176C67.6535 88.8275 67.7573 89.6402 68.0051 90.407C67.423 90.9678 66.766 91.3227 65.8497 91.2769C65.7863 91.2769 65.7748 91.3684 65.8325 91.3856C66.7315 91.6603 67.5613 91.4428 68.1664 90.8591C68.3912 91.4257 68.6966 91.975 69.0481 92.5301C69.0309 92.5359 69.0078 92.5416 68.9905 92.5473C68.4719 92.8106 68.0224 93.194 67.5095 93.4916C66.9447 93.8177 66.3626 94.1268 65.7806 94.4301C65.648 94.4987 65.7402 94.7105 65.8843 94.6704C66.5471 94.4759 67.1579 94.2527 67.7688 93.9322C68.3163 93.6518 68.9156 93.3485 69.2383 92.8163C69.3363 92.9593 69.4343 93.1081 69.538 93.2512C70.2987 94.3328 71.4052 94.9966 72.6615 95.4487C69.1634 97.7206 65.3599 97.9495 61.2337 98.0125C60.9686 98.0182 60.9686 98.4188 61.2337 98.4245C65.3311 98.4818 70.2295 98.6248 73.4798 95.712C75.468 96.2728 77.6925 96.433 79.4502 96.8908C82.1011 97.5833 84.8558 100.376 82.153 102.648C79.9285 104.519 76.2864 105.017 73.5144 105.469C70.4946 105.961 67.4806 106.024 64.5012 106.74C64.2188 106.808 64.0863 107.066 64.0978 107.318C63.5446 107.278 62.9856 107.237 62.4381 107.192C57.4878 106.757 52.4222 105.996 47.5237 105.12C46.0427 104.857 44.0602 104.473 43.0978 103.197C41.6859 101.32 44.5328 98.7393 46.0772 98.1212C49.7482 96.6562 53.9609 97.1713 57.4705 95.174C58.0929 94.8192 58.6865 94.3614 59.2397 93.8292C60.1675 94.1554 61.2164 94.287 62.15 94.2756C62.392 94.2698 62.392 93.915 62.15 93.9036C61.4642 93.8635 60.8187 93.7262 60.1618 93.5144C60.0119 93.4687 59.8621 93.4057 59.7123 93.3485C60.3231 92.6789 60.8706 91.9293 61.3316 91.1281C61.9252 91.1109 62.5073 91.0823 63.1008 90.9907C63.2103 90.9736 63.2103 90.7904 63.1008 90.7733C62.5995 90.6989 62.0981 90.6645 61.5967 90.6474C62.0232 89.8119 62.3574 88.9477 62.5649 88.0893C63.193 88.261 63.8154 88.3468 64.4839 88.2209C64.5761 88.2038 64.5704 88.0607 64.4839 88.0435C63.8731 87.9119 63.2737 87.7345 62.6744 87.5457C62.7263 87.2481 62.7724 86.9562 62.7896 86.6701C62.8703 85.6228 62.6801 84.6214 62.3228 83.6657C63.0317 83.7744 63.7405 83.906 64.4321 84.0949C64.5358 84.1235 64.605 83.9747 64.507 83.9232C63.8673 83.6142 63.2161 83.4082 62.5246 83.2365C62.392 83.2021 62.2479 83.1621 62.0981 83.122C61.4815 81.7657 60.5363 80.5239 59.5336 79.448C61.372 79.8601 63.4236 79.9001 64.9162 79.9287C64.9853 79.9287 64.9853 79.8429 64.9334 79.82C63.51 79.2249 61.9425 79.139 60.4326 78.8643C59.6892 78.727 58.9977 78.4981 58.3119 78.2406C58.0814 78.0288 57.8451 77.8171 57.603 77.6111C57.6376 77.6282 57.6722 77.6454 57.701 77.6568C57.7932 77.6969 57.9085 77.5824 57.8163 77.508C57.361 77.1532 56.8942 76.8042 56.4274 76.4551C57.4129 76.5352 58.4098 76.518 59.3665 76.4207C59.6489 76.3921 59.6661 75.9629 59.3665 75.9744C57.9373 76.0259 56.5427 75.8485 55.1596 75.528C53.6382 74.4235 52.1052 73.3362 50.6299 72.1802C50.8489 72.2088 51.0506 72.2374 51.235 72.2603C53.0158 72.5007 55.0213 72.5293 56.6867 71.7567C56.8596 71.6766 56.7328 71.379 56.5542 71.4477C54.9348 72.0944 53.0964 71.9112 51.4079 71.6308C50.5838 71.4935 49.8001 71.1787 49.0278 70.8754C47.7888 69.8167 46.6189 68.6894 45.5816 67.4418C47.9214 68.1343 50.7221 67.6707 52.912 67.0584C52.9524 67.0469 52.9466 66.9783 52.9005 66.984C51.4713 67.1557 50.0594 67.1728 48.6187 67.1328C47.1203 67.0927 45.8755 66.6235 44.5616 66.1141C44.1582 65.5476 43.7778 64.9639 43.4321 64.3401C43.2592 64.0311 43.0978 63.7106 42.9422 63.3901C44.9708 64.1398 47.5295 63.9624 49.2295 62.938C49.2814 62.9094 49.2468 62.8121 49.1834 62.835C46.9474 63.7221 44.4233 63.2299 42.3602 62.1197C42.0663 61.4272 41.8069 60.7176 41.5591 60.0023C41.5188 59.7734 41.4784 59.5388 41.4496 59.3099C41.4035 58.9722 41.3517 58.6346 41.3056 58.2912C42.0432 58.6861 42.8846 58.955 43.4724 59.1267C45.1725 59.6189 47.2241 59.7791 48.7858 58.8349C48.878 58.7834 48.8146 58.6346 48.7109 58.6632C47.2068 59.0867 45.5816 58.9379 44.089 58.5602C43.2765 58.3542 42.5158 58.0051 41.7839 57.6045C41.5418 57.4729 41.3344 57.3069 41.1384 57.1295C40.9483 55.8304 40.7523 54.5371 40.5333 53.2438C40.5276 53.198 40.516 53.1522 40.5103 53.1122C41.1903 53.4899 41.8934 53.7932 42.4869 54.0221C44.7806 54.8976 47.5352 55.0522 49.6906 53.7531C49.754 53.713 49.6963 53.6272 49.6329 53.6558C47.5929 54.5199 45.1782 54.1938 43.1266 53.5471C41.9164 53.1637 41.0578 52.5685 40.274 51.8646C40.0089 50.5541 39.6804 49.2608 39.277 47.9961C39.2309 47.8129 39.179 47.6241 39.1272 47.441C40.5621 48.637 42.5042 49.5755 43.968 49.8044C45.1264 49.9818 47.6966 50.3138 48.7627 49.627C48.8204 49.5927 48.78 49.5126 48.7224 49.524C48.3766 49.5813 47.8695 49.4153 47.5237 49.3981C46.3884 49.3409 45.2704 49.3523 44.1467 49.1749C41.951 48.8316 40.3374 47.172 38.6143 45.9073C38.6085 45.8901 38.6028 45.8787 38.597 45.8672C40.591 47.4295 44.1409 47.4982 46.4288 47.6813C49.777 47.9503 53.1195 47.9961 56.462 48.3509C66.3915 49.3867 76.9203 50.411 86.1812 45.913C87.2647 45.3865 88.3481 44.7398 89.1952 43.87C89.2125 43.8586 89.2241 43.8471 89.2356 43.8414C89.4142 44.1046 89.6217 44.2935 89.8465 44.3507C89.4373 45.1233 88.7688 45.7585 88.0772 46.285C86.8152 47.2521 85.3111 47.6012 83.83 48.0762C83.6801 48.122 83.7205 48.3165 83.8646 48.3337C85.5877 48.5111 87.3742 47.6756 88.763 46.7142C89.3047 46.3365 90.0482 45.6955 90.5438 44.9688C90.5783 45.066 90.6129 45.1633 90.6475 45.2606C90.6129 45.2892 90.5841 45.3293 90.5668 45.3808C90.4919 45.6326 90.44 45.8787 90.4054 46.119C90.1346 46.5425 89.7254 46.9374 89.2183 47.3208C87.6335 48.5283 85.5704 49.5355 83.6052 49.9075C83.4612 49.9361 83.4957 50.1821 83.6398 50.165C85.8989 49.8674 88.2962 48.803 90.1346 47.4124C90.077 47.5726 90.0078 47.7328 89.9156 47.8988C89.3451 48.8831 88.2617 49.5355 87.2935 50.0734C85.6395 50.989 83.7724 51.5842 81.9974 52.2366C81.8879 52.2824 81.9282 52.4483 82.0492 52.4197C84.3544 51.8761 86.5904 51.3324 88.6305 50.0849C89.2125 49.73 89.8983 49.1521 90.4285 48.4711C90.4227 48.6084 90.4227 48.7515 90.417 48.8888C90.3305 48.8545 90.2268 48.8659 90.1692 48.9403C89.6332 49.6099 89.42 50.4168 88.8725 51.1035C88.2098 51.9333 87.2589 52.4998 86.3311 52.992C84.5215 53.9477 82.2048 54.4627 80.1705 54.5428C80.0726 54.5486 80.0783 54.6802 80.1705 54.6916C82.6198 54.9949 84.9422 54.4799 87.1494 53.4155C88.2328 52.889 89.7888 51.8017 90.3824 50.5198C90.3766 50.7372 90.3709 50.9604 90.3594 51.1722C90.3421 51.5441 90.319 51.9161 90.3017 52.2881C89.0685 53.3125 88.0023 54.6687 86.7287 55.6416C84.7117 57.181 82.2913 58.2855 79.7095 58.2054C79.6058 58.1996 79.577 58.3656 79.6865 58.3885C81.9859 58.8692 84.1181 58.0222 86.1121 56.9178C87.3742 56.2139 89.0339 55.1494 90.2153 53.8962C90.1749 54.5314 90.1288 55.1666 90.0827 55.8018C88.9359 56.8434 87.9389 58.1653 86.8497 59.1897C84.827 61.0839 82.4354 62.6634 79.7037 63.31C79.6634 63.3215 79.6692 63.3844 79.7153 63.3844C82.2279 63.2528 84.2853 61.9938 86.2504 60.5059C87.3684 59.6589 88.7227 58.6117 89.8176 57.4328C89.5986 58.3198 89.2817 59.2068 88.9532 60.071C88.4979 60.4944 88.1176 61.0152 87.6854 61.4788C86.8497 62.3601 85.9277 63.1498 84.9595 63.888C82.8561 65.4846 80.3895 66.3602 77.7962 66.7837C77.5254 66.8295 77.5888 67.293 77.8596 67.2587C80.4126 66.9554 82.7466 66.2343 84.948 64.9009C85.8412 64.3573 87.0226 63.5447 88.0311 62.6119C87.985 62.7893 87.9216 62.9781 87.8525 63.1612ZM103.862 51.0978C103.666 56.5744 100.577 61.1239 96.0185 63.991C93.5174 65.5648 90.8031 66.7322 88.1925 68.077C88.4057 67.6192 88.6074 67.1557 88.8034 66.6921C88.9474 66.7436 89.1146 66.7265 89.2932 66.6235C92.4513 64.7121 95.3443 62.2113 97.926 59.596C99.8278 57.6674 102.202 54.9606 101.384 52.0248C100.756 49.7701 97.782 50.7544 96.3585 51.4068C95.4192 51.836 94.3876 52.4655 93.4598 53.2323C94.1283 51.361 95.4019 50.5141 97.1941 49.8273C97.7128 49.627 98.2372 49.4496 98.7444 49.2207C99.6722 48.8087 100.565 49.7701 101.372 50.1821C101.441 50.2165 101.516 50.205 101.574 50.165C101.62 50.2737 101.672 50.3824 101.712 50.4969C102.484 52.6315 101.966 54.9949 101.015 56.975C99.0671 61.0381 94.6585 62.7378 91.3967 65.4961C91.2238 65.6392 91.4428 65.8795 91.6272 65.788C96.2087 63.5218 102.15 59.6933 102.738 54.1194C103.188 49.8273 100.398 45.232 95.8802 48.328C95.7822 48.3967 95.8687 48.5512 95.9724 48.4882C98.2315 47.275 100.237 47.6584 101.343 49.6785C100.761 49.2207 100.151 48.8259 99.5166 48.4253C99.4417 48.3795 99.3379 48.3852 99.263 48.4253C96.7907 49.7701 94.209 50.2394 93.31 53.2094C93.2927 53.261 93.333 53.2953 93.3733 53.2953C92.9238 53.673 92.5032 54.0736 92.1228 54.5028C92.1286 53.4784 92.0709 52.4426 91.996 51.4125C93.2293 48.4768 94.9236 45.8214 98.3352 44.9745C102.346 43.9902 103.983 47.7843 103.862 51.0978Z" fill="white"/>
<path d="M51.4886 99.1799C54.6121 101.686 58.5251 102.322 62.4439 102.356C64.6395 102.373 66.8179 102.076 68.9617 101.641C70.7828 101.274 73.2147 100.868 74.7304 99.7408C74.8456 99.6549 74.8341 99.4031 74.6439 99.426C73.0591 99.6206 71.4801 100.387 69.9126 100.771C67.8495 101.274 65.7402 101.538 63.6253 101.675C59.5105 101.95 55.0731 101.343 51.5577 99.0827C51.5059 99.0598 51.4367 99.1399 51.4886 99.1799Z" fill="white"/>
<path d="M63.4756 104.136C58.6405 104.674 52.9295 105.521 48.809 102.305C48.7341 102.247 48.6303 102.339 48.6995 102.413C52.3071 105.927 57.7933 105.429 62.4325 105.012C67.8438 104.525 73.9295 103.466 78.511 100.359C78.8106 100.159 78.6262 99.5921 78.2516 99.7409C75.9983 100.657 73.9006 101.818 71.5609 102.545C68.9561 103.352 66.1841 103.833 63.4756 104.136Z" fill="white"/>
<path d="M68.126 72.8555C68.7023 72.8097 69.3419 72.3633 69.2728 71.7109C69.2613 71.6079 69.2555 71.5049 69.2324 71.4076C69.0884 70.761 68.4084 70.5034 67.8205 70.6122C67.4056 70.6866 66.9849 70.7381 66.57 70.7838C66.5988 69.8854 66.3164 68.8324 66.2185 68.1972C65.4693 63.4645 65.0428 58.274 66.5642 53.6558C66.8581 52.7631 65.4578 52.3968 65.1638 53.2724C65.0601 53.5528 64.9679 53.8332 64.8757 54.1193C64.4147 55.4928 63.9479 56.8548 63.3255 58.171C62.5475 59.8249 61.343 60.5688 60.1962 61.8393C60.104 61.9423 60.1501 62.0739 60.2712 62.1197C61.7003 62.6977 62.9509 61.4959 63.9652 59.802C63.8902 61.5302 63.9479 63.2757 64.0228 65.0039C64.0804 66.303 64.213 67.5849 64.3282 68.8782C64.3859 69.5077 64.4147 70.1372 64.3916 70.7667C64.3743 70.8296 64.3686 70.8983 64.357 70.967C63.3024 71.0528 62.2478 71.1673 61.199 71.4477C61.0549 71.4877 61.0549 71.6938 61.199 71.7338C63.4696 72.3977 65.7286 73.0329 68.126 72.8555Z" fill="white"/>
<path d="M86.3482 43.3265C85.9736 42.3536 85.6566 41.3579 85.3512 40.3621C85.3224 40.2706 85.1898 40.3106 85.2071 40.4022C85.4088 41.4437 85.5298 42.5139 86.0715 43.441C86.158 43.584 86.4116 43.4867 86.3482 43.3265Z" fill="white"/>
<path d="M35.8654 41.9529C36.0441 41.8899 36.0844 41.6038 35.8654 41.558C33.0877 40.94 30.7307 39.8469 28.414 38.1816C27.0539 37.1973 25.8322 36.0413 24.6566 34.851C23.9708 34.1528 23.4579 32.974 22.507 32.6592C22.2419 32.5676 22.0345 32.8023 22.0056 33.0369C21.8846 34.0384 23.1121 35.0799 23.7345 35.7666C24.9217 37.0829 26.3566 38.1931 27.7974 39.2289C29.8201 40.671 33.2375 42.92 35.8654 41.9529Z" fill="white"/>
<path d="M29.4744 23.4974C30.4196 25.5289 31.4454 27.5204 32.5634 29.4604C33.6987 31.4348 36.2459 36.3792 39.0524 36.322C39.1215 36.322 39.1504 36.2418 39.1042 36.1961C38.1707 35.2289 37.0815 34.4964 36.2055 33.4492C34.8512 31.8354 33.7966 29.9526 32.8054 28.1041C31.9064 26.4388 31.1053 24.722 30.3274 22.9995C29.6992 21.6089 29.2209 19.8234 28.2988 18.5987C28.0222 18.2382 27.5035 18.4499 27.5727 18.902C27.809 20.4414 28.8175 22.0953 29.4744 23.4974Z" fill="white"/>
<path d="M43.8239 22.101C44.3195 24.1726 44.9131 26.227 45.4778 28.2815C45.6392 28.8652 46.5497 30.6278 46.423 31.1943C46.4172 31.2229 46.4575 31.2287 46.4633 31.2001C46.5382 30.3531 46.348 29.5748 46.1579 28.745C45.6968 26.7478 45.23 24.7506 44.7978 22.7419C44.3425 20.6531 43.8642 18.57 43.4954 16.4641C43.2418 15.0334 43.4493 13.2079 42.9825 11.8516C42.9076 11.6341 42.6655 11.6284 42.533 11.7944C41.8357 12.6986 42.3716 14.5527 42.5157 15.5656C42.8269 17.7631 43.311 19.9492 43.8239 22.101Z" fill="white"/>
<path d="M54.0878 28.5847C55.4018 25.6776 55.419 22.3699 55.6035 19.2395C55.7187 17.2023 55.8858 15.1764 56.3181 13.1792C56.6984 11.4281 57.8568 9.99166 58.2429 8.30918C58.289 8.10317 58.0757 7.92576 57.8798 8.03449C55.4594 9.42511 55.1482 13.9232 54.9119 16.3668C54.5258 20.4013 54.6699 24.4186 53.5749 28.3673C53.4885 28.6706 53.9495 28.8823 54.0878 28.5847Z" fill="white"/>
<path d="M66.4489 28.4761C68.3853 22.9365 70.2352 17.3168 70.8403 11.4567C70.8864 11.0047 70.166 11.0047 70.1257 11.4567C69.5897 17.2252 67.809 22.8678 66.1954 28.4074C66.1493 28.5734 66.3971 28.6363 66.4489 28.4761Z" fill="white"/>
<path d="M75.733 28.539C79.0582 23.5374 81.5881 17.7403 83.4957 12.0633C83.7204 11.3995 82.6543 11.1076 82.4411 11.7772C80.5796 17.5514 77.6233 22.7934 75.3873 28.4017C75.3066 28.602 75.6235 28.705 75.733 28.539Z" fill="white"/>
<path d="M85.8642 30.0326C87.7429 29.0369 89.1837 27.4059 90.584 25.8436C92.2956 23.9322 94.1513 22.0208 95.7303 20.0007C95.9781 19.6802 95.6496 19.1023 95.252 19.3827C93.4712 20.6359 92.1227 22.5302 90.7627 24.2012C89.1548 26.1755 87.4202 27.9095 85.5703 29.6492C85.3571 29.8438 85.6222 30.1585 85.8642 30.0326Z" fill="white"/>
<path d="M87.547 31.9727C87.3741 32.0014 87.426 32.2646 87.5873 32.2703C90.0423 32.3104 92.2956 31.389 94.4913 30.3761C96.9002 29.2602 99.7989 28.0069 101.833 26.2958C102.006 26.147 101.816 25.9238 101.631 25.9525C99.3897 26.313 97.2286 27.9783 95.2865 29.0713C92.8488 30.4333 90.3189 31.492 87.547 31.9727Z" fill="white"/>
<path d="M94.5835 34.8854C94.3011 34.8224 94.1801 35.2402 94.4625 35.3203C95.7476 35.6808 96.9924 35.7094 98.3179 35.5206C100.214 35.2402 102.214 35.0742 104.063 34.6336C104.288 34.5821 104.271 34.2616 104.063 34.1986C101.003 33.2658 97.7704 35.5664 94.5835 34.8854Z" fill="white"/>
<defs>
<filter id="filter0_d" x="0" y="0" width="129" height="129" filterUnits="userSpaceOnUse" color-interpolation-filters="sRGB">
<feFlood flood-opacity="0" result="BackgroundImageFix"/>
<feColorMatrix in="SourceAlpha" type="matrix" values="0 0 0 0 0 0 0 0 0 0 0 0 0 0 0 0 0 0 127 0" result="hardAlpha"/>
<feOffset dy="4"/>
<feGaussianBlur stdDeviation="2"/>
<feComposite in2="hardAlpha" operator="out"/>
<feColorMatrix type="matrix" values="0 0 0 0 0 0 0 0 0 0 0 0 0 0 0 0 0 0 0.25 0"/>
<feBlend mode="normal" in2="BackgroundImageFix" result="effect1_dropShadow"/>
<feBlend mode="normal" in="SourceGraphic" in2="effect1_dropShadow" result="shape"/>
</filter>
<linearGradient id="paint0_linear" x1="164" y1="-9.03369e-08" x2="-6.55006" y2="103.614" gradientUnits="userSpaceOnUse">
<stop stop-color="#FF3C0E"/>
<stop offset="1" stop-color="#793DC2"/>
</linearGradient>
</defs>
</svg>
