<svg width="199" height="193" viewBox="0 0 199 193" fill="none" xmlns="http://www.w3.org/2000/svg">
<path d="M5.27298 144.197C7.87708 144.537 10.5487 141.491 12.1158 139.822C14.4032 137.379 16.853 135.318 19.4656 133.195C24.8855 128.746 28.6168 122.536 33.3863 117.448C34.7694 115.935 37.161 118.101 35.7307 119.603C30.4931 125.226 26.3832 131.794 20.233 136.621C17.3419 138.879 15.0749 141.672 12.3517 144.066C10.1804 145.992 7.61559 147.683 4.58627 147.247C2.50187 147.024 3.19914 143.928 5.27298 144.197Z" fill="white"/>
<path d="M36.6108 121.428C35.952 123.251 39.9846 123.42 40.9351 123.387C44.0701 123.354 47.08 122.553 49.6293 120.711C53.9551 117.593 56.5924 112.715 61.0283 109.77C72.1546 102.464 86.3302 104.325 98.9396 103.22C105.772 102.639 112.816 101.119 118.236 96.6701C119.813 95.3983 122.157 97.553 120.58 98.8248C108.983 108.44 93.128 106.102 79.1267 107.436C72.5305 108.07 65.3133 109.699 60.3448 114.348C55.9388 118.483 52.7496 123.829 46.619 125.702C42.4584 126.984 31.0052 127.363 33.7772 119.902C34.4572 117.985 37.2907 119.51 36.6108 121.428Z" fill="white"/>
<path d="M48.0044 126.162C43.3124 128.261 43.4558 134.899 48.0425 137.016C50.5142 138.165 53.2252 137.148 55.5737 136.198C58.3057 135.088 61.0011 133.92 63.6598 132.694C74.657 127.726 85.2824 121.985 95.5149 115.563C97.2492 114.474 98.9732 117.179 97.2389 118.268C87.6424 124.291 77.7368 129.702 67.4277 134.479C64.8847 135.632 62.3416 136.785 59.7618 137.88C57.3449 138.914 54.8386 140.124 52.2072 140.567C47.9265 141.279 43.6289 138.981 41.9172 134.898C39.9332 130.261 42.6339 125.101 47.0475 123.137C48.9285 122.278 49.8855 125.304 48.0044 126.162Z" fill="white"/>
<path d="M54.0149 139.594C50.6824 142.048 53.8786 147.254 56.9124 148.331C62.056 150.18 68.0621 147.095 72.6752 145.127C83.5407 140.523 94.0449 135.099 104.156 128.995C105.938 127.917 107.662 130.623 105.88 131.7C96.5677 137.344 86.899 142.364 76.9212 146.773C69.6967 149.977 56.8489 156.55 51.0533 147.456C48.8996 144.013 48.8427 139.415 52.2908 136.889C53.9518 135.685 55.6758 138.39 54.0149 139.594Z" fill="white"/>
<path d="M65.0969 149.682C65.295 154.755 71.1479 156.319 75.3285 155.831C80.3756 155.242 85.514 153.145 90.1376 151.129C99.2799 147.124 107.616 141.409 114.735 134.483C116.202 133.039 118.546 135.194 117.079 136.638C110.717 142.847 103.485 148.071 95.5292 152.097C91.562 154.063 87.4953 155.809 83.2769 157.127C78.9429 158.518 74.0575 159.932 69.538 158.619C65.5277 157.469 62.0611 154.125 61.8936 149.798C61.8071 147.758 65.021 147.594 65.0969 149.682Z" fill="white"/>
<path d="M87.4469 117.443C91.5291 115.848 96.21 114.24 100.498 116.142C103.835 117.633 106.398 121.464 105.175 125.132C104.495 127.05 101.377 126.348 102.057 124.43C102.953 121.773 100.73 119.3 98.189 118.679C94.9029 117.84 91.4405 119.328 88.4511 120.479C86.4966 121.223 85.5397 118.197 87.4469 117.443Z" fill="white"/>
<path d="M105.01 126.969C109.703 123.983 116.266 128.566 115.308 133.922C114.949 135.96 111.783 135.248 112.19 133.219C112.698 130.524 109.046 128.223 106.744 129.627C104.989 130.809 103.265 128.104 105.01 126.969Z" fill="white"/>
<path d="M89.6662 114.64C91.3501 112.012 88.172 108.93 85.7745 111.2C84.3181 112.598 81.9264 110.432 83.4301 109.046C85.5174 107.051 88.8892 106.627 91.2497 108.489C93.5263 110.284 94.0469 113.704 92.4998 116.165C91.4263 117.846 88.5822 116.368 89.6662 114.64Z" fill="white"/>
<path d="M110.399 137.205C123.127 130.063 134.141 120.169 142.485 108.244C143.653 106.584 146.497 108.063 145.319 109.769C136.669 122.168 125.313 132.478 112.123 139.91C110.352 140.941 108.628 138.235 110.399 137.205Z" fill="white"/>
<path d="M35.6377 118.695C38.02 112.083 43.3614 107.32 48.241 102.405C53.6937 96.9277 59.1464 91.4508 64.5991 85.9739C69.3419 81.2246 74.0064 76.1618 79.693 72.5123C84.9643 69.1637 91.042 67.5249 97.2703 67.2018C104.391 66.8826 111.573 68.056 118.592 69.2913C120.645 69.6549 119.948 72.7516 117.895 72.3881C106.382 70.3873 93.4671 68.2189 82.8045 74.3467C77.3286 77.5014 72.9115 82.1269 68.5367 86.5647C63.4625 91.6832 58.3989 96.7547 53.3248 101.873C50.5748 104.606 47.8354 107.293 45.1694 110.094C42.5717 112.812 40.1208 115.76 38.8137 119.361C38.1338 121.278 34.9577 120.612 35.6377 118.695Z" fill="white"/>
<path d="M8.72846 148.032C4.8493 146.962 2.64719 152.333 6.55187 153.951C8.32051 154.695 10.2494 153.403 11.6107 152.428C13.4346 151.163 15.2323 149.793 17.03 148.423C24.3942 142.834 31.5384 136.9 38.3941 130.703C39.8978 129.317 42.2894 131.482 40.7385 132.858C36.1908 136.961 31.5225 140.939 26.7809 144.801C24.2944 146.805 21.7607 148.798 19.2376 150.744C16.9668 152.451 14.7589 154.32 12.3414 155.797C10.3864 156.984 8.11683 157.804 5.84404 157.095C3.66574 156.407 1.9511 154.542 1.40265 152.348C0.253522 147.751 5.02686 143.748 9.47297 144.946C11.4362 145.487 10.7389 148.584 8.72846 148.032Z" fill="white"/>
<path d="M118.349 66.6238C132.19 74.8182 142.67 88.0235 147.354 103.375C147.956 105.334 144.904 106.323 144.313 104.317C139.884 89.812 130.019 77.1885 116.87 69.4458C115.07 68.3997 116.596 65.5883 118.349 66.6238Z" fill="white"/>
<path d="M115.854 67.3431C114.816 66.222 113.741 65.0432 112.703 63.9221C113.453 63.894 114.204 63.8659 114.955 63.8378C112.563 66.3063 108.339 67.8694 105.691 64.8576C103.368 62.1655 104.618 58.1579 108.331 57.7615C111.787 57.4057 115.507 59.6237 117.993 61.8103C120.721 64.2485 122.706 67.5549 123.5 71.0859C123.949 73.0604 120.897 74.0493 120.458 72.0279C119.519 67.8231 116.819 64.1588 112.962 62.1072C112.012 61.6961 107.746 59.7002 107.67 61.8029C107.637 62.8307 108.838 63.4464 109.705 63.3457C110.866 63.262 111.833 62.4938 112.611 61.683C113.184 61.1219 114.261 60.9699 114.864 61.5987C115.902 62.7199 116.977 63.8986 118.015 65.0197C119.415 66.5181 117.254 68.8415 115.854 67.3431Z" fill="white"/>
<path d="M146.489 106.335C159.71 99.6494 172.559 92.1898 184.921 84.0288C186.618 82.8827 188.342 85.588 186.645 86.734C174.283 94.895 161.445 102.308 148.213 109.04C146.369 109.956 144.634 107.298 146.489 106.335Z" fill="white"/>
<path d="M110.593 62.2644C110.63 62.3219 110.619 62.3688 110.646 62.4733C110.776 62.9957 110.723 63.6739 110.297 64.0217C108.746 65.3979 106.122 64.2648 106.865 62.0658C107.313 60.7371 108.79 60.1328 109.925 59.501C111.233 58.7604 112.495 58.0091 113.793 57.3153C119.211 54.197 124.618 51.1255 130.036 48.0072C140.93 41.7342 151.871 35.4718 162.765 29.1988C164.536 28.1679 166.26 30.8732 164.489 31.9041C155.308 37.1824 146.138 42.4139 136.958 47.6923C132.396 50.3133 127.777 52.9706 123.215 55.5917C120.992 56.8659 118.827 58.1039 116.604 59.3781C115.517 60.0206 114.382 60.6524 113.294 61.2948C112.9 61.5019 109.973 62.8149 109.925 63.2478C109.868 62.8405 109.811 62.4332 109.696 62.0622C109.732 62.1198 109.769 62.1774 109.853 62.2455C109.507 62.0197 109.16 61.7938 108.872 61.5317C108.593 61.6662 108.278 61.7431 108 61.8776C107.884 62.3937 107.767 62.9098 107.651 63.426C107.614 63.3684 107.625 63.3215 107.599 63.217C107.045 61.2682 110.097 60.2793 110.593 62.2644Z" fill="white"/>
<path d="M135.449 57.2613C137.666 52.4855 146.613 53.3168 146.537 59.1663C146.475 61.8639 143.894 63.8463 141.4 64.1227C140.171 64.2897 138.848 63.9918 137.877 63.231C136.152 61.8564 136.637 60.1417 136.776 58.201C136.936 56.1666 140.15 56.0028 139.99 58.0373C139.979 58.5278 139.603 60.4152 139.834 60.7137C140.159 61.0334 140.758 61.0203 141.168 60.9646C142.15 60.7914 143.527 59.9675 143.381 58.8502C143.017 56.5004 139.146 57.157 138.377 58.808C137.424 60.6147 134.58 59.1362 135.449 57.2613Z" fill="white"/>
<path d="M88.6354 111.943C77.2831 115.402 66.6061 120.491 56.8249 127.113C55.1273 128.259 53.4033 125.554 55.1009 124.408C65.1133 117.641 76.0794 112.37 87.689 108.871C89.6484 108.326 90.6054 111.352 88.6354 111.943Z" fill="white"/>
</svg>
