<svg width="180" height="177" viewBox="0 0 180 177" fill="none" xmlns="http://www.w3.org/2000/svg">
<g clip-path="url(#clip0)">
<path d="M83.9746 129.534C72.4469 128.456 62.2557 120.435 57.4665 110.062C54.9312 104.556 54.1227 98.5428 54.9728 92.552C55.9867 85.4137 59.0029 78.4643 62.937 72.4582C64.9357 69.411 67.2571 66.5596 69.9489 64.0984C72.896 61.3929 76.246 59.2435 79.8661 57.5372C83.5653 55.8074 87.4554 54.5441 91.3864 53.4972C94.6261 52.6315 97.9028 51.8013 101.226 51.4406C104.137 51.1322 107.208 51.1968 109.954 52.3109C111.349 52.8747 112.591 53.7386 113.642 54.8311C114.938 56.1789 115.957 57.7643 117.344 59.0088C119.913 61.314 123.84 61.4761 125.915 64.371C126.997 65.8682 127.593 67.6943 128.151 69.4488C128.624 70.9011 129.039 72.3836 129.404 73.8744C132.23 85.5567 131.93 99.0505 124.79 109.216C123.947 110.428 123.009 111.563 121.996 112.627C121.373 113.285 122.336 114.314 122.959 113.656C131.967 104.19 133.737 90.3605 131.67 77.9308C131.139 74.7712 130.363 71.6313 129.342 68.5836C128.739 66.7793 128.092 64.9615 126.937 63.4297C125.82 61.9333 124.295 61.0537 122.6 60.3371C120.934 59.6415 119.306 59.0175 118.005 57.7277C116.607 56.3604 115.565 54.6958 114.133 53.3654C111.909 51.299 109.028 50.2747 106.038 49.9839C102.861 49.6826 99.6488 50.1495 96.5348 50.8025C92.585 51.6399 88.6616 52.7012 84.8454 54.0353C80.907 55.4154 77.0555 57.1339 73.5646 59.4674C70.3164 61.6363 67.4552 64.2966 64.9778 67.3033C60.2204 73.0665 56.6041 80.0577 54.6215 87.2673C52.8745 93.6394 52.6264 100.356 54.6366 106.705C58.2231 118.06 67.9384 127.539 79.6101 130.279C81.0147 130.618 82.4531 130.848 83.8893 130.97C84.8098 131.015 84.874 129.609 83.9746 129.534Z" fill="white"/>
<path d="M84.7547 131.154C91.3397 131.324 97.8948 130.083 103.966 127.543C104.806 127.192 104.135 125.954 103.31 126.297C97.4607 128.739 91.1431 129.909 84.8189 129.748C83.9135 129.731 83.8493 131.137 84.7547 131.154Z" fill="white"/>
<path d="M106.879 126.995C114.018 123.911 120.397 119.141 125.359 113.142C125.931 112.456 124.982 111.419 124.396 112.112C119.497 118.023 113.276 122.71 106.223 125.75C105.391 126.115 106.062 127.353 106.879 126.995Z" fill="white"/>
<path d="M100.604 130.851C100.237 130.953 100.167 131.063 100.408 131.137C100.467 131.18 100.525 131.222 100.57 131.272C100.74 131.456 100.84 131.715 100.953 131.929C101.247 132.452 101.548 132.988 101.827 133.518C102.384 134.541 102.956 135.557 103.514 136.58C104.666 138.662 105.818 140.745 106.97 142.827C107.407 143.621 108.653 142.964 108.216 142.17C106.68 139.394 105.144 136.618 103.608 133.842C103.246 133.191 102.885 132.54 102.523 131.889C102.207 131.323 101.947 130.656 101.474 130.21C100.838 129.593 99.5145 129.303 99.2489 130.431C99.0502 131.304 100.392 131.731 100.604 130.851Z" fill="white"/>
<path d="M121.645 116.892C124.491 120.349 126.86 124.15 128.685 128.238C129.064 129.062 130.31 128.406 129.931 127.581C128.031 123.387 125.588 119.479 122.66 115.936C122.087 115.232 121.058 116.195 121.645 116.892Z" fill="white"/>
<path d="M107.422 145.003C112.106 145.004 116.746 143.913 120.952 141.861C123.016 140.847 124.959 139.604 126.745 138.168C128.411 136.815 130.088 135.309 131.082 133.377C132.042 131.518 132.405 129.186 130.792 127.584C130.149 126.954 129.12 127.917 129.763 128.547C131.057 129.823 130.446 131.718 129.635 133.097C128.65 134.768 127.107 136.112 125.598 137.31C122.358 139.877 118.546 141.739 114.542 142.751C112.23 143.329 109.876 143.619 107.501 143.626C106.588 143.595 106.524 145.001 107.422 145.003Z" fill="white"/>
<path d="M112.935 146.196C114.843 147.386 117.443 146.765 118.819 145.035C119.488 144.188 120.034 142.931 119.025 142.127C118.09 141.394 116.682 141.605 116.03 142.589C115.532 143.346 116.728 144.087 117.226 143.331C117.492 142.934 118.117 143.044 118.307 143.438C118.289 143.265 118.277 143.07 118.259 142.896C117.888 144.866 115.423 146.056 113.684 144.978C112.914 144.524 112.158 145.727 112.935 146.196Z" fill="white"/>
<path d="M125.11 137.878C125.118 139.629 127.096 141.057 128.729 140.197C130.361 139.336 130.346 136.911 128.912 135.892C128.177 135.365 127.435 136.561 128.17 137.088C128.737 137.503 128.717 138.611 128.072 138.951C127.406 139.284 126.516 138.637 126.516 137.942C126.525 137.022 125.105 136.966 125.11 137.878Z" fill="white"/>
<path d="M103.381 134.071C111.047 131.294 117.966 126.751 123.53 120.783C124.139 120.132 123.19 119.096 122.567 119.753C117.195 125.53 110.498 130.009 103.091 132.687C102.228 132.995 102.533 134.372 103.381 134.071Z" fill="white"/>
<path d="M105.168 139.477C113.196 136.344 120.568 131.618 126.783 125.636C127.436 124.999 126.472 123.97 125.82 124.607C119.697 130.522 112.454 135.144 104.512 138.231C103.679 138.561 104.335 139.806 105.168 139.477Z" fill="white"/>
<path d="M106.064 142.774C115.394 139.577 123.935 134.363 131.014 127.485C131.667 126.849 130.704 125.82 130.051 126.456C123.163 133.141 114.845 138.293 105.759 141.397C104.904 141.683 105.208 143.06 106.064 142.774Z" fill="white"/>
<path d="M101.752 137.82C102.259 138.54 103.278 138.424 103.593 137.563C103.914 136.68 102.995 136.012 102.187 136.145C100.224 136.448 99.8474 139.171 101.105 140.411C101.334 140.638 101.654 140.689 101.947 140.552C103.109 140.013 104.062 139.218 104.866 138.209C105.431 137.509 104.235 136.768 103.67 137.467C103.028 138.263 102.216 138.874 101.291 139.306C101.575 139.358 101.85 139.396 102.134 139.448C101.831 139.15 101.7 138.798 101.763 138.362C101.796 138.181 101.857 137.984 101.962 137.837C102.11 137.631 102.924 137.092 102.983 137.171C102.482 136.429 101.229 137.071 101.752 137.82Z" fill="white"/>
<path d="M127.172 122.797C128.125 121.654 129.218 120.639 130.468 119.816C130.154 119.707 129.834 119.62 129.52 119.511C130.289 120.587 129.642 122.208 128.3 122.404C127.398 122.531 127.702 123.908 128.604 123.78C130.77 123.48 132.042 120.651 130.766 118.854C130.557 118.562 130.161 118.331 129.804 118.556C128.447 119.454 127.238 120.493 126.201 121.753C125.637 122.453 126.585 123.49 127.172 122.797Z" fill="white"/>
<path d="M66.6502 105.789C69.6066 108.622 72.5772 111.447 75.5336 114.28C76.1912 114.903 77.2206 113.94 76.5629 113.317C73.6066 110.484 70.6359 107.659 67.6796 104.826C67.0219 104.203 65.9926 105.166 66.6502 105.789Z" fill="white"/>
<path d="M83.6869 102.044C80.7344 101.094 77.3995 103.272 76.7313 106.24C76.3604 107.862 76.8648 109.792 78.3254 110.723C80.1457 111.886 81.9739 110.356 83.2731 109.141C84.6641 107.822 85.9593 106.079 85.5106 104.047C85.318 103.16 83.9416 103.465 84.1342 104.351C84.5171 106.015 83.0989 107.421 81.9618 108.423C81.3363 108.972 80.4863 109.859 79.5711 109.719C78.7358 109.592 78.2303 108.633 78.0845 107.905C77.5337 105.158 80.6928 102.543 83.2811 103.392C84.1414 103.671 84.5472 102.323 83.6869 102.044Z" fill="white"/>
<path d="M80.3134 93.2115C80.072 92.7533 79.8305 92.2951 79.5891 91.8369C79.1666 91.0351 77.9207 91.6916 78.3432 92.4934C80.8632 97.2756 83.3756 102.043 85.8955 106.826C86.318 107.627 87.5639 106.971 87.1414 106.169C84.6214 101.387 82.109 96.6191 79.5891 91.8369C79.1738 92.0558 78.7585 92.2746 78.3432 92.4934C78.5847 92.9516 78.8261 93.4098 79.0675 93.868C79.49 94.6698 80.7359 94.0133 80.3134 93.2115Z" fill="white"/>
<path d="M91.931 96.8218C93.4823 96.5714 95.1007 96.0662 96.1382 94.8061C96.8932 93.8777 97.2054 92.5607 96.8408 91.4174C96.4921 90.3389 95.5276 89.5849 94.3968 89.5222C93.2441 89.4527 92.1422 90.0699 91.3035 90.8046C89.4346 92.4662 88.3669 95.3705 88.7524 97.8382C89.153 100.335 91.2987 102.497 93.9085 102.311C96.9087 102.102 99.0553 99.196 100.226 96.695C100.607 95.8905 99.4176 95.1269 99.0297 95.9532C98.2261 97.6572 97.0697 99.4557 95.3815 100.418C93.6141 101.405 91.6108 100.832 90.6391 99.0575C89.6304 97.2475 90.0984 95.08 91.0611 93.3654C91.6818 92.2517 93.3703 90.2826 94.8716 91.083C95.8089 91.577 95.7137 92.8894 95.2308 93.6744C94.5031 94.8627 92.9254 95.2368 91.6409 95.438C90.7175 95.5953 91.0362 96.964 91.931 96.8218Z" fill="white"/>
<path d="M106.651 87.291C106.12 85.4853 103.983 85.1111 102.458 85.8966C100.525 86.9153 100.382 89.4233 100.51 91.3318C100.632 92.9871 100.959 95.0651 102.45 96.0902C103.163 96.5745 104.098 96.6486 104.857 96.2486C105.867 95.7347 106.437 94.6294 106.77 93.5942C107.558 91.1304 107.202 88.3724 105.853 86.1932C105.508 85.6431 104.518 85.7439 104.527 86.4894C104.582 89.7895 106.263 92.8739 109.031 94.6897C109.787 95.1876 110.529 93.9916 109.773 93.4938C107.445 91.9581 105.978 89.347 105.933 86.5535C105.493 86.657 105.046 86.7462 104.607 86.8497C105.716 88.6431 106.081 90.8289 105.524 92.8607C105.302 93.6546 104.846 95.0471 103.848 95.0974C103.154 95.134 102.726 94.4264 102.468 93.8672C101.8 92.4263 101.64 90.3158 102.02 88.7801C102.219 87.9433 102.681 87.1877 103.552 86.9664C104.15 86.816 105.056 86.8691 105.267 87.5813C105.532 88.4661 106.908 88.1615 106.651 87.291Z" fill="white"/>
<path d="M114.117 79.5152C112.691 80.5954 111.327 82.1377 111.266 84.0357C111.221 85.6512 112.155 87.3542 113.792 87.7536C114.971 88.0469 117.744 87.0247 117.714 89.0162C117.687 91.4638 114.551 91.4151 112.833 91.3504C111.935 91.3117 111.87 92.7176 112.769 92.7563C114.769 92.8366 117.281 92.8118 118.523 90.9681C119.457 89.5799 119.374 87.3735 117.678 86.6207C116.15 85.9439 113.962 87.2431 112.991 85.4685C111.936 83.5364 113.641 81.6683 115.073 80.5662C115.806 79.9786 114.829 78.957 114.117 79.5152Z" fill="white"/>
<path d="M62.5718 98.5356C62.1 98.8208 61.4684 99.0805 61.0856 99.4651C60.8023 99.7608 60.8055 100.253 60.9074 100.62C61.0977 101.398 61.833 101.925 62.5681 102.105C64.6791 102.639 65.8429 100.507 66.489 98.8862C66.599 98.6088 66.4458 98.2139 66.1894 98.0746C65.6405 97.7967 65.1058 97.5113 64.5569 97.2335C63.7516 96.8163 63.0096 98.0123 63.8149 98.4294C64.3638 98.7073 64.8984 98.9926 65.4473 99.2705C65.3402 98.9977 65.2549 98.7316 65.1477 98.4588C64.8382 99.2256 64.4617 100.247 63.6809 100.64C63.1721 100.89 62.1837 100.716 62.2769 99.9899C62.1579 100.181 62.0245 100.379 61.9131 100.584C62.3562 100.314 62.7994 100.044 63.2568 99.7662C63.9999 99.3014 63.3435 98.0558 62.5718 98.5356Z" fill="white"/>
<path d="M102.533 65.2403C103.958 62.8063 105.391 60.3866 106.816 57.9525C106.557 58.0522 106.277 58.145 106.004 58.2522C108.151 58.7855 107.855 61.5212 106.973 62.9734C106.477 63.8021 105.802 64.7433 105.048 65.3603C104.322 65.9622 103.206 65.5807 102.877 64.7479C102.54 63.9008 101.302 64.5716 101.631 65.4044C102.128 66.6607 103.626 67.2802 104.908 66.9705C105.635 66.7884 106.096 66.308 106.577 65.762C107.107 65.1714 107.622 64.5523 108.043 63.8917C108.835 62.6513 109.303 61.1789 108.968 59.7092C108.657 58.391 107.763 57.2155 106.417 56.8823C106.118 56.8019 105.773 56.9106 105.605 57.1821C104.18 59.6161 102.747 62.0358 101.322 64.4699C100.868 65.2759 102.072 66.0321 102.533 65.2403Z" fill="white"/>
<path d="M110.918 66.3278C110.706 66.5496 110.707 66.6219 110.923 66.5449C110.959 66.5441 111.009 66.5358 111.053 66.5494C111.199 66.5825 111.329 66.5869 111.468 66.6419C111.884 66.8067 112.289 67.1238 112.656 67.3694C113.442 67.8883 114.207 68.4366 114.929 69.0438C116.33 70.2084 117.582 71.5426 118.698 72.9667C120.961 75.9082 122.533 79.3424 123.284 82.9896C123.462 83.8835 124.839 83.5789 124.661 82.685C123.74 78.1945 121.601 73.9978 118.553 70.5735C117.04 68.8828 115.307 67.3995 113.413 66.1659C112.605 65.6402 111.789 65.064 110.777 65.158C109.997 65.2399 109.336 65.7898 109.564 66.6392C109.763 67.5036 111.139 67.1991 110.918 66.3278Z" fill="white"/>
<path d="M111.912 67.4504C111.754 65.7959 113.951 64.9309 115.29 65.2135C117.435 65.6744 118.764 67.9192 119.765 69.6788C122.412 74.3207 124.185 79.3867 125.094 84.6522C125.25 85.5393 126.626 85.2348 126.47 84.3476C125.65 79.4929 124.066 74.7848 121.779 70.4103C120.216 67.4104 117.53 62.6607 113.395 63.9437C111.675 64.4655 110.359 65.8909 110.536 67.755C110.62 68.6436 111.996 68.3391 111.912 67.4504Z" fill="white"/>
<path d="M102.46 44.4785C102.359 44.4951 102.417 44.4649 102.46 44.4785C102.402 44.4725 102.388 44.48 102.46 44.4785C102.49 44.4996 102.49 44.4996 102.46 44.4785C102.468 44.4928 102.329 44.4378 102.424 44.4792C102.519 44.5207 102.365 44.4371 102.365 44.4371C102.409 44.4506 102.439 44.5079 102.387 44.4438C102.321 44.3873 102.372 44.4152 102.395 44.4582C102.387 44.4438 102.326 44.2931 102.365 44.4009C102.411 44.523 102.354 44.2418 102.373 44.4514C102.343 44.0828 102.111 43.7113 101.691 43.713C101.344 43.7132 100.922 43.9901 100.953 44.3949C100.992 44.8863 101.189 45.2948 101.586 45.5976C101.925 45.8582 102.368 45.9356 102.787 45.8615C103.147 45.7814 103.414 45.3848 103.334 45.0245C103.188 44.6439 102.835 44.3908 102.46 44.4785Z" fill="white"/>
<path d="M104.01 24.7462C102.139 30.3969 101.026 36.2704 100.732 42.2059C100.677 43.351 100.521 44.8601 101.487 45.6865C102.394 46.4707 103.601 46.0178 104.168 45.079C104.86 43.9275 104.771 42.4743 104.823 41.1845C104.876 39.5834 104.9 37.9974 104.903 36.4046C104.905 32.7631 104.748 29.1321 104.446 25.5043C104.377 24.6081 102.971 24.544 103.04 25.4402C103.483 30.9329 103.6 36.4325 103.384 41.9248C103.37 42.316 103.355 44.995 102.464 44.6593C102.048 44.4944 102.088 43.6321 102.094 43.2627C102.109 42.5964 102.146 41.9368 102.182 41.2772C102.359 38.6961 102.666 36.1195 103.155 33.5751C103.703 30.7255 104.432 27.9081 105.344 25.1593C105.637 24.2915 104.303 23.8784 104.01 24.7462Z" fill="white"/>
<path d="M128.404 37.7409C126.22 39.9161 124.162 42.2261 122.237 44.6491C120.347 47.0352 118.381 49.5532 116.925 52.2413C116.444 53.1348 116.054 54.5114 116.882 55.319C117.769 56.205 119.002 55.6284 119.687 54.8102C120.683 53.6088 121.419 52.1234 122.259 50.8023C123.156 49.3786 124.038 47.9625 124.927 46.5245C126.929 43.3108 128.939 40.1113 130.942 36.8975C131.418 36.1344 130.236 35.385 129.746 36.1557C126.692 41.0209 123.661 45.8928 120.608 50.758C120.244 51.3522 119.866 51.9539 119.494 52.5338C119.165 53.0549 118.861 53.7274 118.377 54.1287C117.843 54.5745 117.747 54.1132 117.874 53.6255C118.021 53.0359 118.394 52.5284 118.716 52.0292C120.124 49.8055 121.656 47.6443 123.292 45.5749C125.174 43.1746 127.219 40.9083 129.388 38.7406C130.005 38.141 129.042 37.1119 128.404 37.7409Z" fill="white"/>
<path d="M147.742 59.5095C144.497 60.8169 141.451 62.6051 138.74 64.8205C137.423 65.8984 132.285 69.7584 135.127 71.6451C135.406 71.8273 135.73 71.748 135.98 71.5617C141.043 67.5947 146.121 63.6201 151.177 59.6388C151.889 59.0806 150.926 58.0514 150.214 58.6096C145.15 62.5766 140.072 66.5512 135.016 70.5326C135.298 70.512 135.587 70.4697 135.869 70.4492C134.775 69.7269 140.3 65.3518 140.935 64.8894C143.223 63.1898 145.757 61.818 148.399 60.7552C149.231 60.426 148.575 59.1804 147.742 59.5095Z" fill="white"/>
<path d="M154.712 83.2222C150.734 84.1109 146.75 85.0214 142.772 85.9101C140.416 86.4383 136.338 87.0323 136.267 90.1975C136.259 90.4945 136.455 90.8306 136.768 90.9036C138.318 91.2758 139.778 90.8536 141.191 90.2008C142.897 89.4114 144.544 88.5436 146.296 87.8401C149.972 86.3787 153.839 85.42 157.761 84.9452C158.656 84.8391 158.352 83.4629 157.456 83.5689C153.745 84.0248 150.129 84.9057 146.631 86.2185C144.914 86.8489 143.243 87.6013 141.609 88.4254C140.262 89.0985 138.738 89.9203 137.173 89.5555C137.338 89.7982 137.509 90.0189 137.673 90.2616C137.706 89.0736 138.866 88.4623 139.857 88.0864C141.308 87.5414 142.925 87.3113 144.431 86.975C147.962 86.1755 151.478 85.3836 155.009 84.5841C155.903 84.4057 155.613 83.0219 154.712 83.2222Z" fill="white"/>
<path d="M153.753 104.839C149.761 104.033 145.685 103.73 141.614 103.991C138.729 104.175 133.713 104.239 132.789 107.763C132.689 108.163 132.884 108.499 133.257 108.651C136.128 109.863 139.263 109.181 142.173 108.489C145.069 107.804 148.2 106.905 151.085 108.11C151.925 108.454 152.331 107.106 151.491 106.762C148.627 105.564 145.485 106.232 142.582 106.938C139.686 107.623 136.556 108.522 133.677 107.295C133.835 107.596 133.986 107.882 134.145 108.183C134.519 106.741 136.043 106.195 137.354 105.906C139.041 105.53 140.82 105.434 142.534 105.354C146.151 105.204 149.791 105.481 153.347 106.187C154.219 106.349 154.647 105.008 153.753 104.839Z" fill="white"/>
<path d="M69.491 28.6122C70.4757 32.3558 71.5967 36.0457 72.8475 39.7039C73.4423 41.4577 74.0732 43.2106 74.7329 44.9485C75.323 46.4852 75.8093 48.2413 76.7077 49.6338C77.4115 50.7264 78.6226 51.4968 79.9363 50.9692C81.1498 50.4944 81.8963 49.168 81.8837 47.8941C81.871 46.2727 80.9288 44.8667 80.154 43.5005C79.1695 41.8057 78.1917 40.0892 77.2072 38.3944C74.9975 34.583 72.8022 30.764 70.5925 26.9525C70.1413 26.1658 68.8955 26.8223 69.3466 27.609C72.7445 33.5018 76.2502 39.356 79.5622 45.2941C80.1794 46.3958 80.9572 47.9067 80.0916 49.0763C79.7962 49.4881 79.3041 49.8389 78.7793 49.6763C78.1965 49.5078 77.857 48.8635 77.6216 48.3473C76.9403 46.9501 76.4375 45.4406 75.8926 43.9898C75.2791 42.374 74.6941 40.7431 74.1378 39.0972C72.918 35.5324 71.8347 31.914 70.8667 28.2715C70.6243 27.4296 69.2479 27.7342 69.491 28.6122Z" fill="white"/>
<path d="M39.5586 53.7513C41.8847 56.5684 44.3743 59.2445 47.0486 61.7501C48.3933 63.0173 49.7658 64.2331 51.2024 65.3969C52.2559 66.2504 53.3946 67.0224 54.6794 67.5162C55.8473 67.9618 57.1757 68.1216 58.353 67.6476C59.5522 67.1803 60.6358 66.0422 60.4761 64.6629C60.2884 62.9873 58.5128 62.2217 57.2234 61.5108C55.5532 60.5981 53.8898 59.6636 52.2196 58.7509C48.432 56.6673 44.6588 54.5761 40.8713 52.4925C40.0727 52.0535 39.3307 53.2494 40.1292 53.6884C45.961 56.9084 51.8846 60.025 57.6539 63.3694C58.2111 63.6978 59.0534 64.1503 59.0838 64.9026C59.1112 65.5101 58.5212 66.0223 58.0268 66.2645C56.9949 66.7717 55.809 66.5002 54.8077 66.0583C53.6458 65.5546 52.63 64.7728 51.6647 63.9826C50.4407 62.9445 49.2454 61.8914 48.0637 60.7945C45.3969 58.3032 42.8997 55.6128 40.5736 52.7957C40.0011 52.0912 38.9718 53.0544 39.5586 53.7513Z" fill="white"/>
<path d="M29.3593 85.5414C34.1854 88.7973 40.0505 90.518 45.8679 90.3429C47.1487 90.3082 48.9384 90.3713 49.6865 89.1173C50.3019 88.0979 49.8031 86.7692 48.8981 86.0936C47.7134 85.1995 45.9539 85.1937 44.5313 85.0286C42.8622 84.8471 41.1727 84.7312 39.4916 84.6658C35.7238 84.5292 31.9553 84.704 28.2073 85.1606C27.3117 85.2666 27.6161 86.6429 28.5117 86.5369C34.2166 85.8357 40.0093 85.8566 45.7156 86.5815C46.5577 86.6866 48.6896 86.8437 48.5364 88.1501C48.4208 89.1806 45.7656 88.9333 45.0343 88.9345C42.5797 88.9291 40.1107 88.5837 37.7357 87.8961C35.0042 87.1219 32.43 85.9173 30.072 84.3244C29.345 83.8476 28.603 85.0435 29.3593 85.5414Z" fill="white"/>
<path d="M35.1656 120.24C37.8192 118.714 40.4729 117.187 43.1191 115.646C44.4064 114.895 45.6869 114.165 46.9741 113.414C48.1257 112.752 49.3443 111.836 50.6552 111.511C51.2099 111.383 51.7527 111.371 52.2444 111.679C52.6553 111.939 53.0196 112.387 52.8276 112.89C52.4579 113.89 50.5689 114.264 49.7066 114.572C46.8115 115.64 43.9164 116.708 41.0356 117.769C37.7885 118.968 34.5557 120.159 31.3085 121.358C30.4681 121.673 31.1245 122.918 31.9649 122.603C38.5383 120.182 45.12 117.812 51.6851 115.34C52.8127 114.911 54.0585 114.254 54.2622 112.939C54.4344 111.843 53.7035 110.837 52.7519 110.351C51.5296 109.733 50.1683 110.066 49.0076 110.641C47.4957 111.383 46.0743 112.296 44.6295 113.131C41.2606 115.071 37.8773 117.018 34.5159 118.972C33.7223 119.446 34.3644 120.699 35.1656 120.24Z" fill="white"/>
<path d="M49.3052 143.358C49.1991 143.816 49.1005 144.289 48.9944 144.747C48.789 145.642 49.984 146 50.3357 145.175C52.8518 139.22 56.6912 133.868 61.5012 129.559C62.0626 129.062 62.6459 128.571 63.2367 128.095C63.6995 127.724 64.4778 126.874 65.1299 126.897C65.7963 126.911 65.5215 127.605 65.3272 128C64.9942 128.688 64.4396 129.163 63.8563 129.653C61.1261 132.007 58.5067 134.466 55.9915 137.054C53.235 139.878 50.6197 142.866 48.1227 145.975C47.5584 146.675 48.7543 147.417 49.3187 146.717C51.8646 143.527 54.5659 140.494 57.4218 137.581C58.8248 136.146 60.2581 134.769 61.7351 133.405C62.4525 132.753 63.1842 132.093 63.9234 131.447C64.6273 130.839 65.4043 130.264 65.9754 129.543C66.7017 128.63 67.4647 127.057 66.5159 126.02C65.3152 124.714 63.6904 125.936 62.6436 126.762C59.838 128.972 57.3219 131.523 55.1007 134.322C52.6053 137.503 50.5804 141.021 48.9944 144.747C49.4536 144.889 49.8909 145.025 50.3357 145.175C50.4418 144.716 50.5404 144.244 50.6465 143.785C50.8519 142.89 49.4963 142.47 49.3052 143.358Z" fill="white"/>
<path d="M76.1598 155.641C76.3705 151.249 76.98 146.885 78.0185 142.606C78.5039 140.576 79.0096 138.48 79.8372 136.544C80.6235 134.703 81.7965 133.005 83.7283 132.262C83.4004 132.16 83.0943 132.065 82.7663 131.964C84.3063 135.268 81.7659 139.058 80.4457 142.004C78.7376 145.776 77.38 149.693 76.401 153.703C75.8486 155.988 75.4056 158.307 75.0786 160.638C74.9456 161.531 76.3659 161.587 76.4846 160.702C77.0897 156.468 78.0867 152.284 79.4706 148.244C80.1731 146.209 80.9706 144.215 81.8631 142.263C82.6516 140.53 83.5714 138.838 84.148 137.016C84.7307 135.136 84.8769 133.156 84.0197 131.321C83.8378 130.942 83.4096 130.893 83.0576 131.023C78.8993 132.611 77.7293 137.856 76.7682 141.692C75.6484 146.233 74.9584 150.896 74.732 155.57C74.7082 156.497 76.1067 156.547 76.1598 155.641Z" fill="white"/>
<path d="M75.0422 154.839C74.7592 157.531 74.4761 160.223 74.1931 162.915C74.1038 163.822 75.5022 163.872 75.5991 162.979C75.8821 160.287 76.1652 157.595 76.4482 154.903C76.5518 153.989 75.1315 153.933 75.0422 154.839Z" fill="white"/>
</g>
<defs>
<clipPath id="clip0">
<rect width="136" height="128" fill="white" transform="translate(0 63.4009) rotate(-27.7868)"/>
</clipPath>
</defs>
</svg>
