<svg width="188" height="43" viewBox="0 0 188 43" fill="none" xmlns="http://www.w3.org/2000/svg">
<path fill-rule="evenodd" clip-rule="evenodd" d="M24.4019 0.0141602H23.7167C23.1713 0.797259 18.8084 4.53096 17.7456 5.43992C15.7039 7.22986 13.8301 9.1037 11.8024 10.9076C9.83069 12.6556 7.60725 14.4456 5.77536 16.2775C4.93632 17.1305 3.73371 18.2492 2.81077 19.0183C2.25141 19.4938 0 21.1718 0 21.913C0 22.1787 0.293662 22.4863 0.559357 22.4863H7.85896V40.3857L7.88693 40.2179C8.87979 39.9662 9.81671 39.5187 10.8236 39.281C10.2922 39.1971 9.78874 39.0433 9.28532 38.9034C8.8658 38.8475 8.44628 38.8055 8.04075 38.7636C8.44628 38.8055 8.8658 38.8475 9.28532 38.9034C8.8658 38.8475 8.44628 38.8055 8.04075 38.7636L8.06872 38.5678C8.83783 38.6517 9.60695 38.7496 10.404 38.8475C10.5998 38.8615 10.7956 38.8894 10.9914 38.9174C11.9143 39.0293 12.8512 39.1412 13.8021 39.253L14.5712 28.6113C12.2499 28.0519 10.5299 25.9543 10.5299 23.4652C10.5299 20.5425 12.8932 18.1653 15.8158 18.1653C16.9205 18.1653 17.9274 18.5009 18.7804 19.0742C19.0741 15.5223 22.0526 12.7116 25.7024 12.7116C29.534 12.7116 32.6385 15.816 32.6385 19.6476C32.6385 23.4932 29.534 26.5976 25.7024 26.5976C25.6325 26.5976 25.5626 26.5976 25.4927 26.5976L26.4156 39.5607C26.9051 39.5187 27.3805 39.4907 27.8699 39.4488C28.5831 39.4068 29.2823 39.3649 29.9815 39.3369C30.5549 39.3229 31.1282 39.3649 31.7015 39.4208L32.149 33.156C30.3171 32.9603 28.8908 31.422 28.8908 29.5342C28.8908 27.5205 30.5129 25.8844 32.5266 25.8844C34.5403 25.8844 36.1764 27.5205 36.1764 29.5342C36.1764 31.436 34.7081 33.0022 32.8482 33.156L33.3097 39.5607C33.8411 39.5886 34.3864 39.5886 34.9178 39.5047C35.645 39.2111 36.3442 39.0013 37.0993 39.1831L37.1832 39.1971C40.7771 38.7636 41.0987 39.0153 38.246 39.4488L40.0499 39.8963L39.9381 40.5395C39.0151 40.3438 38.1481 39.8543 37.1553 39.9243C36.8616 39.9522 36.5819 40.0082 36.3022 40.0641C36.7497 40.2599 37.1553 40.4976 37.5468 40.7353L40.3576 41.4065L40.2597 42.0638C39.3368 41.854 38.4558 41.3786 37.4769 41.4485C36.2183 41.5464 35.1975 42.1197 34.0508 42.4414H39.6863C39.994 42.4414 40.008 42.3854 40.2597 42.3295C40.2877 41.9659 40.3716 41.924 40.3716 41.5324V22.4863H47.6712C47.9928 22.4863 48.2445 22.0948 48.2445 21.8011C48.2445 21.032 41.1407 15.5363 40.3716 14.3756L40.2597 3.20249C40.008 3.14656 39.994 3.09062 39.6863 3.09062H32.7363L32.5825 3.07664L32.4846 7.32775L24.4019 0.0141602ZM23.8146 26.3459C22.7378 26.0382 21.759 25.4789 20.9479 24.7237C20.3885 27.0451 18.3049 28.7511 15.8158 28.7511C15.8018 28.7511 15.7878 28.7511 15.7599 28.7511L16.529 39.5327C18.6685 39.7285 20.822 39.8543 22.8637 39.8124L23.8146 26.3459ZM36.3022 40.0641C36.2044 40.0921 36.0925 40.12 35.9946 40.148C34.8199 40.4836 33.7712 41.0849 32.4706 41.1129C30.1773 41.1828 28.0377 40.2319 25.7444 40.2599C23.7587 40.2878 22.0666 40.973 20.2347 41.2947C19.969 41.3366 19.6754 41.4205 19.3957 41.3646C16.9345 40.9171 14.5153 39.2251 12.1241 39.7984L7.85896 40.8472V41.6443C7.85896 41.896 7.94286 42.1617 8.11067 42.3155L8.20856 41.7422C9.6489 41.3786 10.9634 40.5815 12.5436 40.6514C15.2285 40.7633 17.41 42.1617 20.0809 42.2596C22.0666 42.3295 23.7307 41.1828 25.7444 41.1409C28.0098 41.0849 30.1353 42.0358 32.4007 41.9519C34.1627 41.882 35.617 40.4137 37.2252 40.6654C37.2811 40.6794 37.351 40.6794 37.407 40.6934L37.5468 40.7353C37.1553 40.4976 36.7497 40.2599 36.3022 40.0641ZM9.28532 38.9034C8.8658 38.8475 8.44628 38.8055 8.04075 38.7636L8.02677 38.9454L8.05474 38.6237C8.33441 38.6517 8.60011 38.7216 8.87979 38.7916C9.01962 38.8195 9.15946 38.8615 9.28532 38.9034ZM15.648 39.8264C16.9765 40.2319 18.291 40.6794 19.7593 40.7353C20.7941 40.7773 21.731 40.4836 22.6679 40.1899C20.4025 40.2319 17.9973 40.0641 15.648 39.8264ZM27.786 39.8403C29.2124 40.106 30.6248 40.4836 32.0931 40.4277C32.7363 40.3997 33.3377 40.1899 33.925 39.9382C32.5965 39.9382 31.296 39.6865 29.9955 39.7285C29.2683 39.7425 28.5272 39.7844 27.786 39.8403ZM8.19457 42.3714C8.26449 42.4134 8.33441 42.4414 8.4323 42.4414H18.0672C16.1654 41.7981 14.2916 40.8752 12.4457 41.3226L8.19457 42.3714ZM22.2624 42.4414H30.5129C29.0446 42.1757 27.5903 41.7561 26.066 41.7841C24.7375 41.7981 23.493 42.1337 22.2624 42.4414Z" fill="#F07C00"/>
<path fill-rule="evenodd" clip-rule="evenodd" d="M52.1181 15.773H57.39C59.8232 15.773 61.8089 16.0946 63.3332 16.7519C64.8574 17.4091 66.074 18.6117 66.9969 20.3877C67.9199 22.1637 68.3674 24.5549 68.3674 27.5475C68.3674 29.687 68.0877 31.5888 67.5283 33.2389C66.983 34.903 66.2418 36.2035 65.3468 37.1544C64.4379 38.1053 63.4171 38.7486 62.2704 39.0702C61.1377 39.4058 59.7253 39.5596 58.0193 39.5596H52.3278C51.7265 39.5596 51.7685 39.6435 51.7685 39.0422C51.7545 31.3511 51.6706 23.8138 51.7685 16.1366C51.7685 15.9967 51.9782 15.773 52.1181 15.773ZM56.9845 19.8423V35.4763H57.8794C59.082 35.4763 60.019 35.2386 60.6762 34.7771C61.3335 34.3017 61.8648 33.4906 62.2704 32.33C62.6619 31.1693 62.8577 29.5052 62.8577 27.3237C62.8577 25.31 62.634 23.7578 62.2005 22.6531C61.767 21.5763 61.2216 20.8212 60.5643 20.4296C59.9071 20.0381 59.0121 19.8423 57.8794 19.8423H56.9845ZM88.1966 27.6593C88.1966 35.8399 85.3299 39.9232 79.5825 39.9232C76.7297 39.9232 74.5762 38.8884 73.1219 36.8048C71.6676 34.7212 70.9404 31.6587 70.9404 27.6593C70.9404 19.4787 73.8211 15.4094 79.5685 15.4094C82.3653 15.4094 84.5188 16.4302 85.9871 18.4719C87.4694 20.5136 88.1966 23.576 88.1966 27.6593ZM82.7009 27.6593C82.7009 24.457 82.4492 22.3175 81.9457 21.2407C81.4563 20.1919 80.6592 19.6465 79.5685 19.6465C78.4917 19.6465 77.6946 20.1919 77.1912 21.2547C76.7018 22.3454 76.4501 24.471 76.4501 27.6593C76.4501 30.7917 76.7018 32.9033 77.1912 34.022C77.6807 35.1267 78.4777 35.6861 79.5685 35.6861C80.6452 35.6861 81.4423 35.1547 81.9318 34.0919C82.4492 33.0292 82.7009 30.8896 82.7009 27.6593ZM92.9511 15.773H99.4956L102.852 30.4561L106.474 16.4023C106.655 15.6611 106.641 15.773 107.396 15.773H113.158C114.039 15.773 114.081 15.5912 114.081 16.5002V39.0422C114.081 39.6156 114.137 39.5596 113.563 39.5596C112.277 39.5596 110.99 39.5596 109.704 39.5596C109.061 39.5596 109.172 39.5596 109.172 38.9304V19.6326L104.362 39.4198C104.348 39.4618 104.334 39.5177 104.32 39.5596H104.18H100.712C100.516 39.5596 100.53 39.5736 100.488 39.3778L96.0835 19.6326V39.3359C96.0835 39.6016 96.0835 39.5596 95.8178 39.5596H92.3078C91.7345 39.5596 91.8324 39.5596 91.8324 39.0003V16.9756C91.8324 15.7031 91.6646 15.773 92.9511 15.773ZM132.4 21.2127L129.575 22.3035C128.61 22.6671 128.876 22.6111 128.456 21.7441C127.799 20.3457 126.792 19.6465 125.408 19.6465C124.639 19.6465 124.037 19.8703 123.59 20.3038C123.142 20.7373 122.919 21.2547 122.919 21.842C122.919 22.5133 123.184 23.0586 123.716 23.4502C124.247 23.8557 125.352 24.3731 127.03 25.0304C128.568 25.5897 129.771 26.1631 130.652 26.7224C131.519 27.2818 132.232 28.0369 132.763 28.9878C133.309 29.9387 133.574 31.0574 133.574 32.316C133.574 34.5534 132.819 36.3713 131.281 37.7977C129.757 39.21 127.715 39.9232 125.156 39.9232C121.185 39.9232 118.542 38.0773 117.213 34.3716C117.171 34.2877 117.143 34.1758 117.101 34.0779C116.878 33.3788 116.808 33.4067 117.493 33.2109L121.073 32.1901C121.576 32.0503 121.45 32.1062 121.604 32.5957C122.219 34.6513 123.436 35.6861 125.268 35.6861C126.177 35.6861 126.918 35.4484 127.477 34.9729C128.037 34.4975 128.316 33.8822 128.316 33.0991C128.316 32.5257 128.121 32.0083 127.729 31.5469C127.338 31.0854 126.429 30.6099 125.016 30.0925C123.184 29.4493 121.828 28.8619 120.933 28.3306C120.052 27.7992 119.311 27.044 118.723 26.0652C118.15 25.0863 117.856 23.9676 117.856 22.709C117.856 20.5695 118.542 18.8075 119.926 17.4511C121.296 16.0807 123.114 15.4094 125.38 15.4094C129.239 15.4094 131.742 17.0176 132.889 20.2339C133.155 21.017 133.141 20.9191 132.4 21.2127ZM142.678 15.773H146.006C146.943 15.773 146.747 16.1506 147.013 17.0455L153.124 38.4969C153.418 39.5177 153.669 39.5596 152.565 39.5596H148.943C147.95 39.5596 148.09 39.5596 147.866 38.5948L146.915 34.6513H140.231L139.056 39.5596H134.246L140.986 17.1015C141.405 15.7171 141.238 15.773 142.678 15.773ZM145.922 30.568L143.531 20.8492L141.21 30.568H145.922ZM156.774 15.773H161.039C163.472 15.773 165.458 16.0946 166.982 16.7519C168.52 17.4091 169.737 18.6117 170.646 20.3877C171.569 22.1637 172.03 24.5549 172.03 27.5475C172.03 29.687 171.75 31.5888 171.191 33.2389C170.632 34.903 169.905 36.2035 168.996 37.1544C168.087 38.1053 167.066 38.7486 165.933 39.0702C164.8 39.4058 163.374 39.5596 161.668 39.5596H156.774C155.459 39.5596 155.417 39.8114 155.417 38.4829V17.2273C155.417 15.6891 155.207 15.773 156.774 15.773ZM160.647 19.8423V35.4763H161.528C162.731 35.4763 163.668 35.2386 164.325 34.7771C164.996 34.3017 165.514 33.4906 165.919 32.33C166.311 31.1693 166.506 29.5052 166.506 27.3237C166.506 25.31 166.297 23.7578 165.849 22.6531C165.416 21.5763 164.87 20.8212 164.213 20.4296C163.57 20.0381 162.661 19.8423 161.528 19.8423H160.647Z" fill="#1B1918"/>
<path fill-rule="evenodd" clip-rule="evenodd" d="M171.792 36.9456H173.512C173.764 36.9456 173.722 36.9317 173.722 37.1834V38.9314C173.722 39.3788 173.778 39.3509 173.331 39.3509H171.792C171.457 39.3509 171.499 39.3788 171.499 39.0293V37.2813C171.499 36.9317 171.457 36.9456 171.792 36.9456ZM175.526 28.4294H177.792V34.3866L180.071 31.2682H182.113L180.071 33.9811L182.308 39.3509H179.889L178.617 35.5892L177.792 36.7499V39.3509H175.526V28.4294ZM182.854 31.2682H187.888V32.7225L184.895 37.7567H187.972V39.3509H182.574V37.7567L185.511 32.8763H182.854V31.2682Z" fill="#1B1918"/>
</svg>
