<svg width="220" height="35" viewBox="0 0 220 35" fill="none" xmlns="http://www.w3.org/2000/svg">
<path fill-rule="evenodd" clip-rule="evenodd" d="M12.0617 12.9137C8.87049 12.9266 6.87759 13.1715 4.36368 14.5633C-4.03774 19.2541 1.70649 21.4192 4.9889 19.6408C6.38263 18.8804 6.68221 18.1587 8.83141 17.669C17.324 15.7618 21.8569 25.6719 16.79 29.2674C12.2571 32.502 6.52591 27.2828 11.4495 26.9864C12.0096 26.9477 14.8231 27.257 15.1618 24.2414C15.4614 21.6125 12.9344 20.2078 10.4075 20.414C5.71833 20.8006 2.85273 26.7802 5.93976 31.136C10.16 37.0769 19.2648 35.8526 22.43 29.3576C23.6674 26.8059 23.2636 24.8987 23.2636 22.0249C30.7663 22.347 38.79 15.7618 33.6449 14.9499C33.5928 14.937 31.9516 14.9241 31.8865 14.937C29.1381 15.1818 28.2784 18.1072 23.2506 17.4757C19.5514 17.0118 16.1647 13.9447 16.3211 9.92395C16.4904 5.73567 21.6224 2.81031 24.8788 5.56813C25.3998 6.01918 26.1683 7.01148 25.3347 7.81047C24.6834 8.42905 23.7195 7.75893 22.3909 8.05533C18.2749 8.97031 19.6165 15.8906 25.7385 14.4344C30.9096 13.1972 32.8894 4.97533 26.4288 1.26387C22.5212 -0.97847 18.4572 0.129814 15.4744 2.24328C12.8172 4.12479 11.3193 8.22286 12.0617 12.9137Z" fill="#10B7C0"/>
<path fill-rule="evenodd" clip-rule="evenodd" d="M145.247 18.7627H148.021C151.082 18.7627 152.867 20.7473 151.955 23.7242C151.135 26.4434 148.399 25.8377 145.325 25.9279L145.247 24.665V18.7627ZM64.5282 14.7807L56.6218 14.4327V9.49698C62.1315 9.09749 68.5922 11.5074 66.9249 4.14887L50.3305 4.18753C49.5359 7.7959 50.0309 25.3738 50.1611 30.142C52.4145 30.374 54.1469 30.5544 56.3743 30.0131V19.7293L64.5933 19.6262C64.9971 18.054 65.1665 16.1467 64.5282 14.7807ZM116.747 11.5202C116.409 11.0821 116.982 10.8115 114.754 10.7986C113.934 10.7986 113.087 10.8372 112.254 10.8372C112.254 9.25213 112.709 6.61029 111.785 5.51489C106.6 4.20042 106.079 6.82937 106.079 11.0692L103.175 11.1594C102.68 12.8734 102.732 13.5177 103.11 15.2961L106.079 15.3348C106.079 18.0024 105.754 25.7089 106.522 27.6548C107.095 29.0724 108.281 30.0647 110.209 30.2837C117.047 31.0441 116.917 29.4203 115.979 25.7991L112.488 25.4511C111.615 23.0799 112.097 18.4277 112.097 15.3606L116.747 15.2317V11.5202ZM95.0859 30.142C95.1641 27.3842 94.3826 18.9561 95.6981 17.4869C97.4826 15.4894 99.3974 17.3323 100.426 16.3271L101.586 12.3064C101.586 12.2033 101.573 12.1002 101.56 11.9971C101.56 11.894 101.521 11.7651 101.507 11.6878L101.351 11.0821C95.8414 10.2315 95.646 12.4997 94.2914 13.7497C92.6372 12.1646 92.4418 10.8372 89.0161 10.8888L87.5833 13.6853C89.3938 16.7653 88.964 17.1003 88.964 21.2371C88.964 24.1882 88.9119 27.1909 88.99 30.2837L95.0859 30.142ZM124.576 18.3632C124.471 16.34 125.097 14.974 127.22 14.9224C128.965 15.5023 129.447 16.4044 129.174 18.3632H124.576ZM134.358 28.428C134.214 27.0491 133.628 26.0697 133.107 25.013C129.017 25.4382 125.513 28.1703 124.445 22.6031L134.449 22.5902C137.614 8.59489 122.088 7.06134 118.923 16.108C117.438 20.3478 118.258 26.6754 121.371 29.0724C124.563 31.5467 131.362 31.0956 134.358 28.428ZM78.8171 23.634C78.1919 26.6238 75.3393 26.9331 74.3494 24.8325C73.5679 23.1959 73.607 19.0849 74.0629 17.3581C75.1961 13.0023 80.7319 14.4843 78.8171 23.634ZM73.9326 10.863C69.022 12.2419 66.5993 17.1003 67.8237 23.4407C68.7745 28.4151 72.9948 31.8817 78.9474 30.4126C89.3157 27.861 87.0362 7.21598 73.9326 10.863ZM167.39 25.7733C167.13 25.4898 167.156 25.696 166.921 25.1289C165.554 21.8556 169.852 22.1649 171.037 22.1907L170.972 25.4125C169.644 25.9408 168.992 26.6625 167.39 25.7733ZM161.529 12.2419C161.698 14.0203 161.946 15.1286 162.923 16.4173C164.59 16.3271 166.166 15.541 167.82 15.3735C170.555 15.1157 170.985 15.8761 171.024 18.2859C168.002 18.2859 165.319 18.2473 163.17 19.755C159.809 22.1263 159.562 29.4847 165.567 30.5801C168.615 31.1472 170.308 29.7038 172.275 28.6729C177.954 33.0416 178.11 27.4873 177.941 26.9718C176.143 21.4432 178.514 17.5643 176.417 13.711C173.773 8.82686 166.713 11.0692 161.529 12.2419ZM181.51 30.142L187.658 30.2837V17.5385C188.973 16.4173 189.325 16.1338 191.513 16.3271C192.542 19.2525 191.878 23.5954 192.034 27.0749C192.243 31.4693 196.229 30.9281 198.86 29.343C198.821 27.8996 198.13 28.3378 198.143 22.2551C198.143 20.0386 198.352 16.8168 197.805 14.8322C196.229 9.23924 191.175 10.2187 187.489 12.912C186.173 11.5976 186.85 10.5151 181.575 10.8888L181.51 30.142ZM214.516 19.1751C215.181 18.2859 215.519 18.1184 216.145 16.9586C219.232 11.211 220.222 10.9919 216.666 10.9403C213.605 10.9146 212.875 11.3656 211.716 13.6208C210.947 15.1286 210.348 17.5385 208.46 17.4354C208.46 13.7368 208.759 8.60778 208.42 5.08962C208.199 2.82151 207.378 2.29314 205.19 2.09984C201.778 1.80343 202.455 2.29314 202.494 5.45046C202.598 13.6466 202.377 21.8814 202.52 30.0647C204.76 30.4642 206.154 30.374 208.447 30.142L208.46 22.6804C212.224 22.0618 211.963 25.9537 213.266 28.6858C214.764 31.8173 218.372 30.3224 220 28.4409C218.567 26.6754 218.398 25.9022 217.577 23.3892C216.509 20.1159 216.249 20.9793 214.516 19.1751ZM145.247 8.33715C148.321 8.54334 151.356 7.91188 151.095 11.5847C150.874 14.7549 148.386 14.2394 145.286 14.2394L145.247 8.33715ZM154.235 16.1467C155.563 14.4585 157.283 13.8399 157.23 10.6053C157.087 2.52511 145.325 3.36276 139.073 4.20042L139.125 30.0389C143.697 30.709 152.893 30.8894 155.954 28.4151C159.171 25.8119 160.109 19.3813 154.235 16.1467Z" fill="#901848"/>
</svg>
