<svg width="141" height="45" viewBox="0 0 141 45" fill="none" xmlns="http://www.w3.org/2000/svg">
<g clip-path="url(#clip0)">
<path d="M0 0L4.93 31.67L70.02 44.89L135.11 31.65L140.04 0H0Z" fill="#AA2D29"/>
<path d="M30.7499 19.7501C31.9799 19.7501 32.9899 18.6601 32.9899 17.2901C32.9899 15.9201 31.9699 14.8601 30.7499 14.8601H27.3999V19.7501H30.7499ZM27.3999 22.6101V28.3501H24.1399V11.8101H30.7599C33.8099 11.8101 36.2599 14.2701 36.2599 17.2901C36.2599 19.3701 34.9599 21.2401 33.0699 22.1101L36.7299 28.3501H33.2099L29.8799 22.6101H27.3999Z" fill="white"/>
<path d="M43.7 18.95C42.07 18.95 40.96 19.82 40.6 21.34H46.63C46.25 19.63 44.97 18.95 43.7 18.95ZM43.98 25.92C45.16 25.92 46.11 25.42 46.63 24.74L49.09 26.16C47.98 27.77 46.21 28.69 43.94 28.69C39.97 28.69 37.47 25.97 37.47 22.45C37.47 18.93 40 16.21 43.71 16.21C47.21 16.21 49.69 18.98 49.69 22.45C49.69 22.9 49.64 23.3 49.57 23.7H40.66C41.08 25.26 42.38 25.92 43.98 25.92Z" fill="white"/>
<path d="M69.1198 21.08V28.36H66.0698V21.3C66.0698 19.91 65.3598 19.06 64.0798 19.06C62.7298 19.06 61.8798 19.96 61.8798 21.73V28.37H58.8298V21.31C58.8298 19.92 58.1198 19.07 56.8398 19.07C55.5398 19.07 54.6198 19.97 54.6198 21.74V28.38H51.5698V16.54H54.6198V17.79C55.2798 16.8 56.3898 16.21 57.8998 16.21C59.3698 16.21 60.4498 16.82 61.1098 17.91C61.8398 16.85 63.0198 16.21 64.6298 16.21C67.3498 16.21 69.1198 18.12 69.1198 21.08Z" fill="white"/>
<path d="M80.4899 22.45C80.4899 20.46 79.0999 19.12 77.2099 19.12C75.3399 19.12 73.9499 20.47 73.9499 22.45C73.9499 24.43 75.3399 25.78 77.2099 25.78C79.0899 25.78 80.4899 24.43 80.4899 22.45ZM83.5399 28.35H80.4899V26.96C79.6399 28.02 78.3599 28.69 76.6399 28.69C73.4999 28.69 70.8999 25.97 70.8999 22.45C70.8999 18.93 73.4999 16.21 76.6399 16.21C78.3599 16.21 79.6399 16.87 80.4899 17.94V16.55H83.5399V28.35Z" fill="white"/>
<path d="M89.1201 11.1699H86.0701V28.3499H89.1201V11.1699Z" fill="white"/>
<path d="M102.53 28.35H99.48V27.03C98.77 28.09 97.54 28.68 95.96 28.68C93.46 28.68 91.49 26.93 91.49 23.79V16.54H94.54V23.42C94.54 25.03 95.51 25.85 96.88 25.85C98.37 25.85 99.48 24.98 99.48 22.92V16.54H102.53V28.35Z" fill="white"/>
<path d="M109.83 24.76L107.26 28.35H103.74L108.06 22.33L103.93 16.54H107.45L109.83 19.87L112.22 16.54H115.72L111.58 22.31L115.91 28.35H112.39L109.83 24.76Z" fill="white"/>
<path d="M118.62 13.7399C118.83 13.7399 118.95 13.6299 118.95 13.4699C118.95 13.2799 118.82 13.1899 118.62 13.1899H118.37V13.7299H118.62V13.7399ZM119.33 14.2199L119.89 15.2299H119.04L118.65 14.4099H118.37V15.2299H117.58V12.4799H118.69C119.28 12.4799 119.75 12.8399 119.75 13.3899C119.74 13.7599 119.59 14.0399 119.33 14.2199ZM121 13.8499C121 12.5099 119.92 11.4199 118.6 11.4199C117.27 11.4199 116.19 12.5099 116.19 13.8499C116.19 15.1899 117.27 16.2799 118.6 16.2799C119.92 16.2899 121 15.1999 121 13.8499ZM121.28 13.8499C121.28 15.3299 120.08 16.5399 118.59 16.5399C117.11 16.5399 115.91 15.3399 115.91 13.8499C115.91 12.3699 117.11 11.1599 118.59 11.1599C120.08 11.1699 121.28 12.3699 121.28 13.8499Z" fill="white"/>
</g>
<defs>
<clipPath id="clip0">
<rect width="140.04" height="44.89" fill="white"/>
</clipPath>
</defs>
</svg>
