<svg width="227" height="244" viewBox="0 0 227 244" fill="none" xmlns="http://www.w3.org/2000/svg">
<path d="M177.779 40.5901C160.987 50.005 144.195 59.42 127.403 68.8349C119.095 73.4902 110.765 78.1297 102.463 82.8226C95.262 86.9214 87.616 91.628 83.6668 99.2441C80.3455 105.685 79.967 114.383 85.1267 119.933C85.9096 120.773 87.3178 119.67 86.5349 118.829C81.9949 113.934 82.247 106.545 84.8975 100.746C88.332 93.2872 95.8653 88.598 102.729 84.6861C118.809 75.5164 135.036 66.5546 151.192 57.5077C160.297 52.4018 169.385 47.3176 178.468 42.1958C179.463 41.6567 178.768 40.0135 177.779 40.5901Z" fill="white"/>
<path d="M178.862 42.3845C178.848 42.5406 178.333 42.6974 178.328 42.6598C178.338 42.6005 178.671 43.1453 178.479 42.771C178.583 42.9473 178.859 43.1161 178.969 43.33C179.363 44.0193 179.131 45.0173 179.075 45.7765C178.973 47.8703 178.817 49.9918 178.618 52.0814C178.22 56.2607 177.65 60.4474 176.94 64.5982C175.492 72.8462 173.489 80.9878 171.163 89.0257C168.837 97.0635 166.171 105.019 163.462 112.943C162.052 117.049 160.648 121.192 159.136 125.255C157.54 129.524 155.685 133.737 152.959 137.411C148.461 143.457 140.434 148.185 132.819 145.44C131.739 145.05 131.111 146.725 132.191 147.115C139.233 149.641 146.997 146.455 152.015 141.29C158.676 134.427 161.329 124.626 164.368 115.843C170.342 98.6003 176.072 81.1453 179.038 63.0992C179.862 58.0648 180.45 52.9903 180.785 47.8972C180.863 46.6536 180.974 45.3665 180.972 44.097C180.969 43.3277 180.704 42.5993 180.208 42.0027C179.326 40.8888 177.379 40.3632 177.114 42.2708C176.909 43.3222 178.707 43.5053 178.862 42.3845Z" fill="white"/>
<path d="M84.4869 118.897C80.9396 123.237 77.9775 128.006 75.5991 133.07C75.1044 134.109 76.7777 134.734 77.2724 133.696C79.577 128.778 82.503 124.149 85.9172 119.945C86.6445 119.043 85.2143 117.995 84.4869 118.897Z" fill="white"/>
<path d="M131.834 145.92C128.792 152.299 124.457 158.031 119.193 162.715C118.33 163.483 119.446 164.869 120.294 164.122C125.83 159.204 130.301 153.238 133.507 146.545C134.002 145.507 132.329 144.881 131.834 145.92Z" fill="white"/>
<path d="M74.4498 134.23C81.7871 146.58 93.4513 156.162 106.939 161.075C110.749 162.466 114.674 163.473 118.67 164.066C119.811 164.235 119.981 162.458 118.861 162.305C105.15 160.198 92.3182 153.163 83.0289 142.886C80.4129 140.001 78.0847 136.86 76.1093 133.51C75.4969 132.528 73.8534 133.225 74.4498 134.23Z" fill="white"/>
<path d="M82.7429 145.912C83.1246 145.391 83.5064 144.87 83.8723 144.371C84.5564 143.438 83.1478 142.405 82.442 143.323C79.5918 146.94 77.1156 150.864 75.0773 155.009C74.9139 155.323 75.0755 155.875 75.389 156.038C85.1172 161.399 94.6819 167.073 104.062 173.046C104.467 173.31 104.978 173.251 105.302 172.854C107.866 169.628 109.953 166.053 111.446 162.242C111.86 161.178 110.203 160.53 109.773 161.617C108.337 165.303 106.324 168.732 103.855 171.828C104.269 171.763 104.682 171.699 105.096 171.635C95.7159 165.662 86.1729 160.004 76.423 154.627C76.5341 154.975 76.6236 155.308 76.7347 155.656C78.6992 151.657 81.1073 147.917 83.8564 144.393C83.3797 144.043 82.9029 143.694 82.4261 143.345C82.0443 143.866 81.6626 144.387 81.2967 144.886C80.6285 145.798 82.0805 146.862 82.7429 145.912Z" fill="white"/>
<path d="M82.6312 161.746C83.0563 161.256 83.4439 160.773 83.869 160.284C83.3922 159.934 82.9155 159.585 82.4387 159.236C80.6543 161.398 78.6416 163.326 76.444 165.052C74.3476 166.686 72.0318 167.891 69.8098 169.333C67.9723 170.522 66.0205 172.094 65.6624 174.401C65.4856 175.506 65.8132 176.514 66.1089 177.564C66.4653 178.76 66.2986 179.805 65.3776 180.699C63.6208 182.414 61.0191 183.01 58.9345 184.218C56.7646 185.498 54.9269 187.187 53.2741 189.079C51.5418 191.079 50.0535 193.292 48.6303 195.552C47.5933 197.194 45.553 199.569 46.4668 201.64C47.3647 203.733 50.0702 203.814 51.8021 202.814C52.8978 202.183 53.7539 201.242 54.6157 200.338C55.664 199.272 56.6964 198.226 57.7447 197.16C58.2768 196.615 58.7713 196.077 59.3251 195.548C59.5593 195.32 60.1334 194.673 60.5163 194.786C61.1796 194.972 60.5285 196.497 60.3766 196.886C59.4534 199.146 58.8136 201.246 59.0061 203.756C59.1497 205.696 59.8811 208.334 62.0646 208.9C64.5877 209.548 65.7409 206.656 66.6638 204.897C67.3596 203.538 68.0771 202.196 68.757 200.859C69.0839 200.231 69.3949 199.625 69.7219 198.997C69.9331 198.618 70.0359 198.159 70.3566 198.494C71.0586 199.309 70.3051 200.292 69.7138 200.826C68.7812 201.644 67.7027 202.388 67.2093 203.562C66.4801 205.329 67.4403 207.201 68.9876 208.135C70.7734 209.243 72.8721 208.879 74.5924 207.804C76.7508 206.45 78.2651 204.156 79.4685 201.969C80.7776 199.592 81.7125 196.907 83.2325 194.651C83.7517 193.897 84.4632 193.017 85.4748 193.091C85.2394 192.685 84.9882 192.301 84.7311 191.879C83.2454 194.86 83.277 198.454 84.8234 201.389C85.0371 201.779 85.5673 202.101 85.9895 201.843C88.181 200.579 89.3094 198.403 89.7846 195.982C90.2858 193.48 89.9156 190.94 89.992 188.427C90.0815 185.623 91.0639 183.373 92.6807 181.122C94.1601 179.103 95.8289 177.189 96.778 174.849C97.691 172.648 97.9394 170.128 96.7828 167.979C96.2456 166.985 94.6021 167.682 95.1609 168.692C96.394 170.964 95.6254 173.604 94.3887 175.7C92.8092 178.447 90.4336 180.643 89.1676 183.552C87.9913 186.294 88.2313 189.239 88.2718 192.138C88.3167 194.94 88.0158 198.623 85.2734 200.184C85.6621 200.335 86.0508 200.486 86.4395 200.638C85.0635 198.061 85.049 195.081 86.3611 192.473C86.6084 191.953 86.1448 191.313 85.6173 191.26C83.5724 191.096 82.164 192.7 81.2614 194.341C79.8887 196.805 78.8569 199.485 77.3816 201.908C76.1971 203.842 74.5657 206.25 72.2169 206.864C70.7744 207.242 68.2804 206.282 68.7235 204.404C69.0073 203.244 70.4356 202.523 71.2178 201.728C71.9523 200.998 72.3689 200.203 72.3261 199.17C72.2632 197.756 71.1151 195.914 69.4556 196.633C68.3903 197.087 67.9416 198.426 67.4353 199.39C66.7178 200.732 66.022 202.091 65.3421 203.428C64.7939 204.494 64.3235 205.818 63.4936 206.678C62.5147 207.695 61.5844 206.647 61.1875 205.688C60.2678 203.58 60.6319 200.81 61.4278 198.724C62.0095 197.249 63.2722 195.071 61.9505 193.602C60.3241 191.776 58.2448 194.023 57.0952 195.182C56.0947 196.184 55.0998 197.223 54.0993 198.225C53.184 199.156 52.3077 200.215 51.2133 200.981C50.4124 201.529 49.1533 201.974 48.3444 201.215C47.4487 200.391 48.542 198.99 49.0019 198.226C50.3398 196.037 51.6994 193.864 53.254 191.833C54.7927 189.825 56.5264 187.959 58.5923 186.503C60.5354 185.125 62.7917 184.409 64.8388 183.207C66.9928 181.949 68.5589 179.994 67.8924 177.403C67.5895 176.18 67.0726 175.068 67.6354 173.845C68.1346 172.709 69.2016 171.89 70.189 171.179C72.5542 169.542 75.1171 168.317 77.4058 166.558C79.7797 164.728 81.9573 162.62 83.869 160.284C84.618 159.398 83.1719 158.372 82.4387 159.236C82.0136 159.725 81.626 160.208 81.2009 160.697C80.4518 161.583 81.898 162.61 82.6312 161.746Z" fill="white"/>
<path d="M85.7076 165.502C83.196 168.065 80.6685 170.651 78.1569 173.214C77.3587 174.031 78.4593 175.438 79.2575 174.622C81.7691 172.058 84.2966 169.472 86.8082 166.909C87.6222 166.071 86.5216 164.664 85.7076 165.502Z" fill="white"/>
<path d="M80.4646 179.61C79.0129 181.182 77.5452 182.776 76.0934 184.348C75.3169 185.18 76.7472 186.228 77.5237 185.396C78.9755 183.824 80.4431 182.23 81.8949 180.658C82.6714 179.826 81.2411 178.778 80.4646 179.61Z" fill="white"/>
<path d="M141.1 60.1883C134.389 59.0739 127.678 57.9594 120.988 56.8608C115.344 55.9274 109.498 54.8134 103.777 55.8928C98.207 56.9488 93.3192 60.0733 88.859 63.4779C83.7743 67.3256 78.7719 71.3337 73.9486 75.5064C68.3098 80.3829 62.9976 85.632 58.5318 91.6349C57.9591 92.4164 58.8114 93.2078 59.605 92.9886C69.3183 90.0972 79.5524 89.2223 89.6136 90.3561C90.7495 90.4879 90.9411 88.7264 89.8052 88.5947C79.4044 87.3789 68.8755 88.3379 58.8889 91.3294C59.2428 91.7556 59.6024 92.2193 59.9563 92.6455C67.673 82.2518 77.9626 74.2106 88.0599 66.2955C92.3698 62.9143 96.9427 59.4923 102.315 58.0243C107.779 56.523 113.493 57.4072 118.976 58.2888C126.279 59.5038 133.599 60.6971 140.924 61.928C142.056 62.1566 142.242 60.3577 141.1 60.1883Z" fill="white"/>
<path d="M173.567 80.1098C173.535 80.1532 173.497 80.1591 173.465 80.2025C173.685 80.1299 173.889 80.0791 174.109 80.0065C174.101 80.3348 174.1 80.7006 174.092 81.0289C174.157 81.0765 174.2 81.1083 174.266 81.1559C174.342 81.2787 174.596 81.4317 174.667 81.5169C174.96 81.7986 175.254 82.0802 175.547 82.3618C176.139 82.9627 176.737 83.6011 177.282 84.2671C178.316 85.4921 179.302 86.7822 180.198 88.1057C182.081 90.8538 183.649 93.8047 185.142 96.7673C186.531 99.5535 188.109 102.445 188.867 105.502C189.585 108.431 189.169 111.363 188.16 114.194C187.135 117.046 185.657 119.7 184.26 122.379C182.593 125.562 180.911 128.767 179.245 131.95C177.578 135.133 175.896 138.338 174.229 141.521C172.621 144.579 171.077 147.686 168.96 150.438C167.92 151.812 166.63 153.435 165.069 154.293C164.021 154.86 163.883 153.958 163.578 153.101C163.241 152.152 162.887 151.226 162.571 150.294C161.198 146.485 159.826 142.677 158.475 138.884C158.098 137.807 156.439 138.526 156.853 139.597C158.27 143.572 159.703 147.525 161.142 151.516C161.486 152.501 161.835 153.525 162.216 154.505C162.503 155.249 162.919 155.954 163.713 156.235C165.234 156.75 166.71 155.463 167.723 154.536C170.642 151.871 172.649 148.404 174.485 144.945C176.452 141.215 178.398 137.469 180.344 133.723C182.295 130.015 184.225 126.291 186.176 122.582C187.811 119.443 189.58 116.302 190.453 112.837C191.322 109.47 191.089 106.197 189.878 102.94C188.567 99.4109 186.752 95.9788 184.96 92.6971C182.906 88.9558 180.615 85.3088 177.712 82.1801C176.994 81.3871 176.233 80.5623 175.419 79.8995C174.85 79.449 174.067 79.1086 173.383 79.5418C172.032 80.3863 173.405 82.6939 174.7 81.608C175.536 80.7857 174.435 79.3786 173.567 80.1098Z" fill="white"/>
<path d="M86.6842 120.807C95.6136 131.121 107.133 139.129 119.893 143.943C123.467 145.293 127.15 146.358 130.896 147.201C132.011 147.451 132.181 145.674 131.087 145.439C118.196 142.532 106.072 136.35 96.0893 127.699C93.2304 125.237 90.5681 122.552 88.0923 119.704C87.3253 118.841 85.9171 119.945 86.6842 120.807Z" fill="white"/>
<path d="M88.1467 123.947C88.4766 123.088 88.7906 122.251 89.0988 121.375C89.4548 120.435 88.1299 119.698 87.5471 120.539C83.959 125.617 80.7336 130.927 77.9084 136.464C77.392 137.487 79.0653 138.112 79.5817 137.089C82.3331 131.699 85.5006 126.513 88.9773 121.587C88.4529 121.302 87.9501 121.034 87.4256 120.75C87.0956 121.609 86.7816 122.447 86.4734 123.322C86.0812 124.402 87.7545 125.028 88.1467 123.947Z" fill="white"/>
<path d="M91.9201 124.344C88.1455 129.585 84.6686 135.012 81.4676 140.607C80.9078 141.598 82.3381 142.646 82.8979 141.655C86.0989 136.06 89.5758 130.634 93.3504 125.392C94.0127 124.443 92.5824 123.394 91.9201 124.344Z" fill="white"/>
<path d="M95.754 128.021C92.1122 133.627 88.4647 139.195 84.8229 144.801C84.1981 145.744 85.6341 146.83 86.2532 145.849C89.8949 140.243 93.5425 134.675 97.1843 129.069C97.825 128.104 96.373 127.04 95.754 128.021Z" fill="white"/>
<path d="M97.9966 131.733C95.1753 138.174 91.1923 144.063 86.2429 149.044C85.4448 149.861 86.5237 151.252 87.3435 150.452C92.5431 145.22 96.7068 139.129 99.6699 132.359C100.127 131.326 98.4538 130.7 97.9966 131.733Z" fill="white"/>
<path d="M114.956 141.225C110.608 146.614 106.606 152.256 102.945 158.115C102.342 159.074 103.756 160.144 104.375 159.163C108.036 153.304 112.038 147.662 116.386 142.274C117.135 141.388 115.705 140.34 114.956 141.225Z" fill="white"/>
<path d="M116.952 144.456C113.293 149.449 109.65 154.42 105.991 159.413C105.307 160.346 106.738 161.394 107.422 160.461C111.081 155.468 114.724 150.497 118.382 145.504C119.066 144.571 117.636 143.523 116.952 144.456Z" fill="white"/>
<path d="M120.437 146.109C117.094 151.534 113.048 156.51 108.367 160.853C107.525 161.638 108.626 163.045 109.467 162.26C114.266 157.803 118.435 152.75 121.889 147.173C122.486 146.177 121.056 145.128 120.437 146.109Z" fill="white"/>
<path d="M123.382 146.499C119.867 151.297 116.351 156.094 112.835 160.892C112.151 161.825 113.581 162.873 114.266 161.94C117.781 157.142 121.297 152.345 124.812 147.548C125.481 146.636 124.05 145.588 123.382 146.499Z" fill="white"/>
<path d="M128.644 146.819C124.725 151.621 120.844 156.417 116.925 161.22C116.198 162.121 117.628 163.169 118.355 162.268C122.274 157.466 126.155 152.669 130.074 147.867C130.786 146.987 129.356 145.939 128.644 146.819Z" fill="white"/>
<path d="M78.7919 150.758C81.8125 150.636 84.8707 150.508 87.9129 150.402C89.0576 150.34 88.7708 148.595 87.6421 148.635C84.6215 148.757 81.5633 148.885 78.521 148.991C77.3764 149.053 77.6472 150.82 78.7919 150.758Z" fill="white"/>
<path d="M76.9816 155.637C81.8205 155.079 86.6594 154.521 91.5142 153.942C92.6474 153.805 92.3982 152.054 91.2434 152.175C86.4045 152.733 81.5656 153.291 76.7108 153.87C75.5776 154.008 75.8485 155.774 76.9816 155.637Z" fill="white"/>
<path d="M81.5875 159.079C87.4553 158.708 93.3247 157.971 99.1047 156.902C100.226 156.689 99.9555 154.923 98.8339 155.135C93.0539 156.204 87.2061 156.957 81.3166 157.312C80.1777 157.412 80.4645 159.157 81.5875 159.079Z" fill="white"/>
<path d="M87.2798 163.084C92.8864 161.887 98.4771 160.712 104.084 159.516C105.2 159.266 104.95 157.515 103.813 157.749C98.2063 158.946 92.6155 160.12 87.0089 161.317C85.8931 161.567 86.1639 163.333 87.2798 163.084Z" fill="white"/>
<path d="M92.7674 165.504C97.9257 165.147 102.974 164.075 107.838 162.301C108.915 161.923 108.199 160.264 107.128 160.68C102.425 162.371 97.5045 163.403 92.5183 163.753C91.3519 163.799 91.6228 165.566 92.7674 165.504Z" fill="white"/>
<path d="M97.6258 168.964C101.661 167.684 105.681 166.426 109.739 165.162C110.821 164.821 110.111 163.199 109.028 163.541C104.993 164.82 100.973 166.079 96.9155 167.343C95.8329 167.684 96.5431 169.305 97.6258 168.964Z" fill="white"/>
<path d="M100.261 171.095C102.74 170.576 105.197 170.041 107.654 169.507C108.77 169.257 108.521 167.506 107.384 167.74C104.926 168.275 102.448 168.794 99.9904 169.329C98.8746 169.579 99.1454 171.345 100.261 171.095Z" fill="white"/>
<path d="M156.875 69.4792C150.372 67.2164 142.799 74.2784 145.791 80.8758C147.134 83.8617 150.263 85.9548 153.482 86.2447C157.696 86.6303 161.063 83.6261 162.801 80.028C163.812 77.9664 164.216 75.46 163.36 73.2646C162.554 71.1385 160.585 69.4619 158.292 69.3171C157.146 69.2446 156.955 71.006 158.101 71.0785C159.812 71.198 161.153 72.414 161.739 73.9778C162.358 75.6328 162 77.4392 161.317 79.0074C160.051 81.9167 157.337 84.6656 153.964 84.496C151.441 84.3484 148.947 82.8879 147.688 80.6973C146.352 78.3838 146.803 75.6779 148.454 73.6517C150.286 71.4242 153.419 70.1497 156.225 71.1384C157.342 71.5232 157.97 69.8481 156.875 69.4792Z" fill="white"/>
<path d="M137.833 98.5999C135.986 96.2118 132.905 95.1887 129.957 95.5304C126.874 95.8737 124.042 97.6019 121.827 99.7155C117.258 104.041 114.754 110.548 116.947 116.692C119.055 122.542 125.042 125.327 130.992 124.616C137.002 123.915 142.861 119.601 144.423 113.606C145.923 107.832 142.429 101.101 136.305 100.049C135.179 99.858 134.987 101.619 136.113 101.81C140.557 102.565 143.429 107.372 142.973 111.676C142.388 117.019 137.636 121.277 132.61 122.499C127.751 123.676 122.113 122.414 119.454 117.862C116.668 113.118 117.904 107.251 121.13 103.075C122.961 100.713 125.466 98.6125 128.382 97.6794C131.184 96.7638 134.534 97.2835 136.425 99.7033C137.144 100.631 138.531 99.5115 137.833 98.5999Z" fill="white"/>
<path d="M98.4599 60.6039C110.958 60.8211 123.434 62.023 135.738 64.2329C136.864 64.4239 137.055 62.6625 135.93 62.4715C123.626 60.2616 111.166 59.0379 98.6515 58.8425C97.5112 58.8076 97.3196 60.569 98.4599 60.6039Z" fill="white"/>
<path d="M93.6317 62.7379C105.326 63.2336 116.989 64.7734 128.419 67.3111C129.535 67.5614 129.705 65.7842 128.611 65.5497C117.18 63.012 105.54 61.4881 93.8233 60.9765C92.6773 60.9041 92.4914 62.7031 93.6317 62.7379Z" fill="white"/>
<path d="M86.1287 67.2494C98.721 67.2018 111.279 68.5641 123.561 71.2585C124.677 71.5088 124.847 69.7316 123.753 69.4971C111.471 66.8027 98.9127 65.4404 86.3203 65.488C85.1642 65.4748 84.9566 67.2579 86.1287 67.2494Z" fill="white"/>
<path d="M81.181 71.3641C92.8094 71.1774 104.483 72.292 115.838 74.7069C116.953 74.9573 117.139 73.1583 116.029 72.9455C104.638 70.5364 93.001 69.416 81.3726 69.6027C80.2381 69.6054 80.0089 71.3727 81.181 71.3641Z" fill="white"/>
<path d="M76.6589 74.9901C88.4808 75.3121 100.296 76.5972 111.912 78.8369C113.022 79.0496 113.214 77.2882 112.104 77.0755C100.488 74.8358 88.6883 73.529 76.8505 73.2287C75.7103 73.1938 75.5027 74.9769 76.6589 74.9901Z" fill="white"/>
<path d="M73.6998 79.0278C83.8336 79.3807 93.9106 80.4927 103.878 82.3916C104.987 82.6043 105.179 80.8429 104.069 80.6301C94.1239 78.7472 84.0252 77.6192 73.8914 77.2664C72.7511 77.2315 72.5595 78.9929 73.6998 79.0278Z" fill="white"/>
<path d="M64.849 83.1514C75.6885 82.5867 86.5693 83.4203 97.1893 85.5642C98.3208 85.7928 98.4907 84.0155 97.3809 83.8028C86.5991 81.607 75.5897 80.8126 64.5782 81.3847C63.4335 81.4467 63.7044 83.2134 64.849 83.1514Z" fill="white"/>
<path d="M61.3394 86.9858C71.6486 86.0993 82.0397 86.3738 92.3017 87.6881C93.4376 87.8199 93.6292 86.0585 92.4933 85.9267C82.0912 84.5764 71.5339 84.3469 61.0902 85.235C59.9296 85.3188 60.2005 87.0854 61.3394 86.9858Z" fill="white"/>
<path d="M154.137 56.262C158.058 64.274 166.885 69.2743 175.776 68.5499C176.915 68.4503 176.644 66.6836 175.505 66.7832C167.431 67.4387 159.334 62.8063 155.775 55.527C155.275 54.527 153.631 55.2244 154.137 56.262Z" fill="white"/>
<path d="M172.958 84.8031C179.24 91.7757 184.003 100.004 186.966 108.915C187.326 110.013 188.964 109.278 188.588 108.201C185.586 99.1617 180.704 90.7792 174.345 83.6838C173.6 82.8373 172.191 83.9407 172.958 84.8031Z" fill="white"/>
<path d="M173.158 90.1209C175.844 94.5917 178.712 98.9957 181.008 103.681C183.073 107.863 184.577 112.402 184.319 117.117C184.244 118.264 186.02 118.431 186.079 117.306C186.361 112.375 184.882 107.621 182.767 103.235C180.399 98.3301 177.362 93.7021 174.551 89.0392C173.954 88.0349 172.568 89.1542 173.158 90.1209Z" fill="white"/>
<path d="M170.604 96.4239C176.615 103.631 180.507 112.456 181.802 121.779C181.959 122.929 183.725 122.655 183.568 121.505C182.233 111.919 178.192 102.752 172.013 95.3205C171.262 94.4364 169.853 95.5399 170.604 96.4239Z" fill="white"/>
<path d="M168.937 102.109C175.83 109.929 179.486 120.349 178.91 130.771C178.836 131.917 180.633 132.101 180.67 130.96C181.274 120.091 177.521 109.167 170.324 100.989C169.578 100.143 168.17 101.246 168.937 102.109Z" fill="white"/>
<path d="M165.398 107.256C171.669 114.788 175.125 124.527 174.881 134.359C174.845 135.5 176.627 135.704 176.642 134.547C176.891 124.253 173.366 114.063 166.768 106.158C166.055 105.269 164.684 106.366 165.398 107.256Z" fill="white"/>
<path d="M164.077 115.831C163.83 115.85 163.766 115.936 163.924 116.085C164 116.208 164.077 116.331 164.191 116.448C164.338 116.656 164.464 116.848 164.611 117.056C164.911 117.51 165.212 117.963 165.496 118.439C166.081 119.368 166.634 120.34 167.15 121.319C168.175 123.238 169.077 125.234 169.851 127.269C171.42 131.355 172.443 135.641 172.977 140.003C173.112 141.136 174.878 140.862 174.743 139.729C174.124 134.437 172.732 129.247 170.579 124.366C169.533 121.931 168.288 119.584 166.867 117.341C166.539 116.834 166.233 116.343 165.905 115.836C165.605 115.382 165.297 114.756 164.826 114.444C163.949 113.868 162.803 114.296 162.409 115.242C161.99 116.27 163.663 116.895 164.077 115.831Z" fill="white"/>
<path d="M160.619 122.005C166.096 129.121 169.166 137.977 169.14 146.967C169.14 148.102 170.901 148.291 170.9 147.156C170.91 137.688 167.755 128.402 161.989 120.907C161.329 119.99 159.921 121.093 160.619 122.005Z" fill="white"/>
<path d="M157.669 128.984C161.534 135.754 164.405 143.063 166.166 150.66C166.414 151.776 168.181 151.502 167.933 150.386C166.149 142.639 163.254 135.18 159.312 128.287C158.738 127.299 157.116 128.012 157.669 128.984Z" fill="white"/>
<path d="M155.252 135.054C156.939 141.662 159.359 148.04 162.481 154.098C163.002 155.114 164.646 154.417 164.103 153.385C161.042 147.471 158.644 141.243 156.997 134.764C156.733 133.67 154.967 133.944 155.252 135.054Z" fill="white"/>
<path d="M161.565 49.7615C159.476 52.0673 157.349 54.3789 155.26 56.6847C154.505 57.5329 155.935 58.581 156.69 57.7328C158.779 55.427 160.906 53.1154 162.996 50.8096C163.772 49.9773 162.32 48.9133 161.565 49.7615Z" fill="white"/>
<path d="M167.107 45.8812C163.734 50.4832 160.362 55.0852 156.989 59.6872C156.305 60.6207 157.736 61.6688 158.42 60.7354C161.792 56.1334 165.165 51.5314 168.537 46.9294C169.221 45.9959 167.791 44.9478 167.107 45.8812Z" fill="white"/>
<path d="M173.233 42.4302C168.185 48.7736 163.483 55.3711 159.123 62.1851C158.52 63.1445 159.934 64.2143 160.553 63.2332C164.914 56.4192 169.615 49.8217 174.664 43.4783C175.391 42.5767 173.961 41.5285 173.233 42.4302Z" fill="white"/>
<path d="M175.506 44.329C176.21 43.7773 176.914 43.2256 177.64 42.6898C177.211 42.2753 176.803 41.8767 176.374 41.4621C171.61 48.7813 166.83 56.1221 162.088 63.4571C161.463 64.4005 162.899 65.4863 163.518 64.5052C168.282 57.1861 173.062 49.8453 177.805 42.5103C178.35 41.6754 177.366 40.6542 176.539 41.2827C175.835 41.8344 175.131 42.3861 174.405 42.9219C173.493 43.6214 174.594 45.0285 175.506 44.329Z" fill="white"/>
<path d="M177.334 43.8337C173.258 51.6234 168.614 59.0971 163.428 66.1737C162.744 67.1072 164.174 68.1553 164.858 67.2219C170.155 59.9933 174.858 52.3951 179.008 44.4593C179.524 43.4364 177.851 42.8108 177.334 43.8337Z" fill="white"/>
<path d="M177.019 47.1728C174.864 54.5685 170.954 61.3126 165.634 66.89C164.836 67.7064 166.288 68.7704 167.065 67.9381C172.486 62.2681 176.479 55.3186 178.693 47.7985C179.026 46.7079 177.368 46.0605 177.019 47.1728Z" fill="white"/>
<path d="M179.101 51.9681C175.789 57.2149 172.482 62.4993 169.17 67.7462C168.567 68.7055 169.981 69.7754 170.6 68.7943C173.912 63.5475 177.219 58.263 180.531 53.0162C181.156 52.0727 179.704 51.0087 179.101 51.9681Z" fill="white"/>
<path d="M177.538 57.9637C175.626 61.3002 173.73 64.6151 171.796 67.9358C171.236 68.9269 172.667 69.975 173.226 68.9839C175.138 65.6474 177.035 62.3325 178.969 59.0118C179.55 58.0366 178.098 56.9725 177.538 57.9637Z" fill="white"/>
<path d="M175.573 64.464C174.587 65.8099 173.6 67.1557 172.614 68.5016C171.93 69.435 173.36 70.4832 174.044 69.5497C175.031 68.2039 176.017 66.858 177.003 65.5121C177.687 64.5787 176.257 63.5306 175.573 64.464Z" fill="white"/>
<path d="M150.963 70.3192C148.848 73.2063 146.748 76.0717 144.632 78.9588C143.948 79.8922 145.378 80.9404 146.062 80.007C148.178 77.1199 150.278 74.2545 152.394 71.3674C153.078 70.4339 151.647 69.3858 150.963 70.3192Z" fill="white"/>
<path d="M152.352 70.4697C151.181 72.1136 150.031 73.7734 148.881 75.4333C147.773 76.9904 146.488 78.5173 145.591 80.1957C145.047 81.1651 145.357 83.0604 146.879 82.5743C148.069 82.1782 148.149 80.5687 146.856 80.2882C145.74 80.0379 145.57 81.8152 146.664 82.0496C146.702 82.0438 146.745 82.0756 146.782 82.0697C146.572 81.9485 146.382 81.8432 146.171 81.722C146.169 81.453 146.187 81.1999 146.185 80.931C146.684 81.4307 146.981 81.481 147.101 81.1353C147.186 81.0643 147.302 80.8155 147.366 80.7287C147.646 80.3003 147.964 79.8662 148.267 79.4537C148.859 78.5537 149.512 77.6637 150.142 76.7578C151.356 75.0111 152.607 73.2586 153.82 71.512C154.466 70.5844 153.036 69.5362 152.352 70.4697Z" fill="white"/>
<path d="M154.558 70.5506C152.347 74.703 149.672 78.5813 146.6 82.136C145.851 83.0218 147.298 84.0483 148.031 83.1842C151.197 79.4992 153.925 75.4589 156.209 71.1604C156.753 70.191 155.096 69.5436 154.558 70.5506Z" fill="white"/>
<path d="M157.719 69.9646C154.877 73.8878 152.041 77.8487 149.199 81.7719C148.706 82.4448 147.977 83.212 147.841 84.0798C147.751 84.7479 148.141 85.5341 148.868 85.633C150.322 85.8309 150.839 83.3071 149.285 83.3363C148.172 83.355 147.943 85.1222 149.094 85.0977C148.991 85.0559 148.926 85.0083 148.823 84.9665C148.698 84.7743 148.572 84.5821 148.484 84.3841C148.767 85.7257 149.665 84.1818 149.786 83.9706C149.972 83.6725 150.216 83.3844 150.423 83.1023C150.836 82.5379 151.266 81.9517 151.658 81.3715C152.501 80.221 153.322 79.0546 154.15 77.9258C155.814 75.6089 157.484 73.3296 159.149 71.0127C159.817 70.101 158.381 69.0153 157.719 69.9646Z" fill="white"/>
<path d="M158.979 71.7893C156.313 74.9735 153.641 78.1201 150.974 81.3042C150.209 82.2117 148.21 83.8494 149.186 85.1988C149.972 86.3084 152.047 85.2939 151.336 84.0381C150.761 83.0497 149.139 83.763 149.714 84.7514C149.719 84.789 149.763 84.8207 149.79 84.8742C149.793 84.6429 149.78 84.4332 149.783 84.2018C150.272 84.6264 150.627 84.6867 150.806 84.3511C150.87 84.2642 150.918 84.1991 150.981 84.1123C151.188 83.8301 151.438 83.5796 151.667 83.3133C152.038 82.8516 152.416 82.4275 152.788 81.9659C153.648 80.9281 154.514 79.928 155.375 78.8902C157.069 76.8958 158.758 74.8637 160.431 72.8534C161.159 71.9517 159.728 70.9036 158.979 71.7893Z" fill="white"/>
<path d="M159.97 72.4821C157.011 76.5197 154.068 80.5356 151.11 84.5732C150.426 85.5067 151.856 86.5548 152.54 85.6214C155.499 81.5838 158.442 77.5679 161.401 73.5303C162.069 72.6186 160.638 71.5704 159.97 72.4821Z" fill="white"/>
<path d="M160.276 74.4746C157.603 78.1214 154.931 81.7683 152.258 85.4152C151.574 86.3486 153.004 87.3967 153.688 86.4633C156.361 82.8164 159.033 79.1696 161.706 75.5227C162.374 74.611 160.944 73.5628 160.276 74.4746Z" fill="white"/>
<path d="M159.738 77.6169C158.052 79.9179 156.366 82.2189 154.679 84.5199C153.995 85.4533 155.426 86.5015 156.11 85.568C157.796 83.267 159.482 80.966 161.168 78.665C161.837 77.7533 160.406 76.7052 159.738 77.6169Z" fill="white"/>
<path d="M159.48 79.1962C158.08 81.1065 156.665 83.0385 155.265 84.9487C154.581 85.8822 156.011 86.9303 156.695 85.9969C158.095 84.0866 159.511 82.1547 160.911 80.2444C161.579 79.3327 160.148 78.2845 159.48 79.1962Z" fill="white"/>
<path d="M126.634 96.6996C123.5 101.476 120.329 106.259 117.195 111.035C116.57 111.979 118.006 113.065 118.625 112.084C121.759 107.307 124.931 102.524 128.065 97.7477C128.705 96.7825 127.275 95.7344 126.634 96.6996Z" fill="white"/>
<path d="M128.038 99.8296C128.758 99.2562 129.462 98.7045 130.182 98.1311C129.753 97.7166 129.346 97.3179 128.917 96.9034C125.301 102.428 121.685 107.953 118.091 113.494C117.466 114.437 118.902 115.523 119.521 114.542C123.137 109.017 126.753 103.492 130.347 97.9516C130.876 97.1383 129.887 96.0796 129.081 96.7239C128.361 97.2974 127.657 97.8491 126.937 98.4225C126.047 99.1378 127.147 100.545 128.038 99.8296Z" fill="white"/>
<path d="M130.902 98.0582C126.738 104.149 122.574 110.24 118.395 116.352C117.732 117.302 119.184 118.366 119.825 117.4C123.989 111.31 128.152 105.219 132.332 99.1063C132.994 98.157 131.564 97.1089 130.902 98.0582Z" fill="white"/>
<path d="M132.724 98.5259C128.355 105.033 123.97 111.563 119.579 118.054C118.938 119.019 120.369 120.067 121.009 119.102C125.378 112.595 129.764 106.066 134.154 99.5741C134.779 98.6306 133.365 97.5607 132.724 98.5259Z" fill="white"/>
<path d="M135.754 99.8457C131.81 106.364 127.422 112.624 122.617 118.545C121.889 119.447 123.319 120.495 124.047 119.594C128.83 113.657 133.24 107.412 137.184 100.894C137.782 99.8969 136.351 98.8487 135.754 99.8457Z" fill="white"/>
<path d="M136.881 100.672C132.65 107.581 128.014 114.226 122.922 120.538C122.195 121.439 123.625 122.487 124.352 121.586C129.422 115.258 134.081 108.629 138.311 101.72C138.909 100.723 137.478 99.6746 136.881 100.672Z" fill="white"/>
<path d="M137.125 103.519C133.411 109.906 129.269 116.013 124.693 121.802C123.987 122.719 125.418 123.768 126.123 122.85C130.699 117.061 134.857 110.933 138.555 104.568C139.115 103.576 137.685 102.528 137.125 103.519Z" fill="white"/>
<path d="M137.617 105.848C135.323 111.341 132.068 116.329 128.005 120.692C127.228 121.524 128.658 122.573 129.435 121.74C133.599 117.285 136.923 112.113 139.274 106.496C139.726 105.425 138.052 104.8 137.617 105.848Z" fill="white"/>
<path d="M138.56 106.607C136.787 111.981 133.578 116.769 129.255 120.441C128.386 121.172 129.487 122.579 130.355 121.848C134.897 117.969 138.335 112.914 140.217 107.254C140.588 106.158 138.915 105.532 138.56 106.607Z" fill="white"/>
<path d="M141.759 106.015C139.109 110.812 135.978 115.358 132.467 119.558C131.718 120.444 133.164 121.47 133.897 120.606C137.424 116.384 140.539 111.861 143.189 107.063C143.749 106.072 142.313 104.986 141.759 106.015Z" fill="white"/>
<path d="M141.271 110.362C139.369 114.139 136.964 117.649 134.2 120.828C133.445 121.677 134.897 122.741 135.631 121.877C138.527 118.561 140.968 114.911 142.944 110.987C143.461 109.965 141.787 109.339 141.271 110.362Z" fill="white"/>
<path d="M140.709 113.219C138.851 115.528 137.355 118.069 136.217 120.804C135.781 121.853 137.439 122.501 137.89 121.43C138.955 118.84 140.377 116.446 142.14 114.268C142.867 113.366 141.437 112.318 140.709 113.219Z" fill="white"/>
<path d="M142.046 107.759C141.604 110.272 140.514 112.576 138.911 114.537C138.183 115.439 139.613 116.487 140.341 115.585C142.157 113.38 143.313 110.757 143.822 107.927C144.014 106.8 142.238 106.633 142.046 107.759Z" fill="white"/>
<path d="M137.124 99.7485C138.697 102.603 139.194 105.97 138.334 109.143C138.039 110.228 139.718 110.891 140.007 109.769C140.954 106.158 140.576 102.311 138.746 99.0353C138.209 98.0411 136.587 98.7543 137.124 99.7485Z" fill="white"/>
<path d="M136.053 100.165C139.664 101.01 141.673 105.451 140.217 108.755C139.744 109.81 141.417 110.435 141.89 109.381C143.861 104.919 140.907 99.4511 136.239 98.3661C135.129 98.1533 134.959 99.9306 136.053 100.165Z" fill="white"/>
<path d="M140.044 103.991C140.717 106.118 140.386 108.478 139.169 110.322C138.544 111.265 139.98 112.351 140.599 111.37C142.187 108.93 142.571 106.042 141.666 103.277C141.343 102.173 139.705 102.908 140.044 103.991Z" fill="white"/>
<path d="M124.866 122.429C128.751 123.674 132.912 123.087 136.368 120.915C137.351 120.301 136.235 118.916 135.268 119.508C132.394 121.339 128.747 121.77 125.532 120.748C124.405 120.423 123.755 122.082 124.866 122.429Z" fill="white"/>
<path d="M126.276 124.597C129.618 124.31 132.855 123.346 135.802 121.735C136.796 121.196 136.102 119.552 135.091 120.113C132.268 121.648 129.196 122.566 126.005 122.83C124.866 122.93 125.137 124.697 126.276 124.597Z" fill="white"/>
<path d="M134.802 98.2808C131.194 104.478 127.585 110.675 123.976 116.872C123.395 117.848 124.847 118.912 125.406 117.92C129.015 111.723 132.624 105.526 136.233 99.3289C136.814 98.3537 135.384 97.3056 134.802 98.2808Z" fill="white"/>
<path d="M133.538 98.1883C129.173 105.599 124.791 113.032 120.426 120.444C119.845 121.419 121.297 122.483 121.856 121.492C126.222 114.081 130.603 106.648 134.968 99.2364C135.55 98.2612 134.119 97.213 133.538 98.1883Z" fill="white"/>
<path d="M134.004 100.098C136.846 98.8103 140.391 101.108 140.536 104.184C140.596 105.329 142.362 105.055 142.302 103.91C142.097 99.6893 137.125 96.7466 133.293 98.476C132.25 98.9457 132.96 100.567 134.004 100.098Z" fill="white"/>
<path d="M133.947 98.2212C138.195 97.6973 142.067 102.504 140.689 106.565C140.319 107.662 141.992 108.288 142.363 107.191C144.179 101.849 139.288 95.7961 133.692 96.4329C132.543 96.5918 132.814 98.3584 133.947 98.2212Z" fill="white"/>
<path d="M140.62 100.842C141.825 103.061 142.255 105.611 141.673 108.087C141.399 109.188 143.056 109.835 143.346 108.713C144.053 105.794 143.704 102.769 142.279 100.123C141.704 99.1349 140.061 99.8323 140.62 100.842Z" fill="white"/>
<path d="M141.983 103.209C141.709 105.811 140.793 108.242 139.277 110.402C138.615 111.351 140.045 112.399 140.707 111.45C142.376 109.036 143.418 106.296 143.743 103.398C143.877 102.261 142.116 102.072 141.983 103.209Z" fill="white"/>
<path d="M140.247 103.305C142.439 105.178 142.596 108.963 140.525 111.016C139.705 111.817 140.806 113.224 141.626 112.423C144.548 109.527 144.422 104.563 141.297 101.872C140.45 101.119 139.401 102.551 140.247 103.305Z" fill="white"/>
<path d="M142.09 103.654C143.77 106.588 143.685 110.295 141.73 113.1C141.067 114.049 142.497 115.097 143.16 114.148C145.428 110.872 145.704 106.403 143.711 102.941C143.158 101.968 141.515 102.666 142.09 103.654Z" fill="white"/>
</svg>
