<svg width="166" height="76" viewBox="0 0 166 76" fill="none" xmlns="http://www.w3.org/2000/svg">
<path d="M12.3785 72.9101C16.784 57.6352 21.2408 42.3602 25.6464 27.0853C24.6218 27.238 23.5973 27.3398 22.5727 27.4926C28.6175 39.2543 33.8427 51.4233 38.0946 63.9488C38.9142 63.3378 39.7339 62.7268 40.5535 62.0649C28.7712 54.7838 15.7083 49.6413 2.0818 47.0445C2.0818 48.1138 2.0818 49.2339 2.0818 50.3032C16.9889 46.1789 31.8449 42.1056 46.752 37.9814C46.1885 37.0649 45.6762 36.1484 45.1127 35.181C31.8961 47.5028 18.6794 59.8246 5.51403 72.1464C3.92598 73.6229 6.33366 76.016 7.92171 74.5394C21.0871 62.2176 34.3038 49.8959 47.5204 37.5741C48.7499 36.403 47.4692 34.3154 45.8812 34.7737C30.974 38.847 16.0669 42.9712 1.21093 47.0954C-0.325889 47.5028 -0.479571 49.9977 1.21093 50.3541C14.5813 52.8999 27.3369 57.8897 38.863 65.0181C40.0925 65.7309 41.8342 64.5089 41.3219 63.0832C36.9676 50.3032 31.64 37.8286 25.4415 25.8123C24.7755 24.4885 22.7776 24.8959 22.3678 26.2197C17.9623 41.4946 13.5567 56.7696 9.09994 72.0445C8.53644 74.1321 11.7638 74.9977 12.3785 72.9101Z" fill="white"/>
<path d="M79.4567 17.2495C81.0429 11.7499 82.6475 6.25036 84.2337 0.750776C83.8648 0.805771 83.4959 0.842435 83.1271 0.897431C85.3034 5.13211 87.1847 9.51344 88.7156 14.0231C89.0107 13.8031 89.3058 13.5831 89.6009 13.3448C85.3588 10.7234 80.6556 8.87183 75.7495 7.9369C75.7495 8.32187 75.7495 8.72517 75.7495 9.11014C81.1167 7.62525 86.4654 6.1587 91.8326 4.67381C91.6297 4.34384 91.4452 4.01386 91.2424 3.66555C86.4839 8.10188 81.7253 12.5382 76.9853 16.9745C76.4135 17.5062 77.2804 18.3678 77.8521 17.8361C82.5922 13.3998 87.3507 8.96349 92.1092 4.52716C92.5519 4.10552 92.0908 3.35391 91.519 3.5189C86.1519 4.98545 80.7847 6.47034 75.436 7.95523C74.8827 8.10189 74.8273 9.00015 75.436 9.12847C80.2498 10.0451 84.8423 11.8416 88.9922 14.4081C89.4349 14.6647 90.062 14.2248 89.8775 13.7115C88.3098 9.11014 86.3916 4.61882 84.1599 0.292477C83.9202 -0.184153 83.2008 -0.0374979 83.0533 0.439133C81.4671 5.93872 79.881 11.4383 78.2763 16.9379C78.0735 17.6895 79.2354 18.0011 79.4567 17.2495Z" fill="white"/>
<path d="M130.084 46.0116C137.98 40.3011 145.9 34.61 153.796 28.8995C153.243 28.5863 152.71 28.2485 152.158 27.9353C150.634 35.8965 148.561 43.7447 145.883 51.3975C146.51 51.412 147.136 51.4266 147.782 51.4166C144.844 43.4517 140.479 36.0356 134.881 29.6357C134.478 30.1519 134.055 30.6927 133.651 31.2089C142.405 34.8478 151.116 38.4919 159.87 42.1307C159.944 41.4754 160.043 40.8395 160.136 40.1597C149.102 41.1168 138.068 42.074 127.058 43.0504C125.734 43.1636 125.993 45.2282 127.317 45.1151C138.326 44.1386 149.361 43.1814 160.395 42.2243C161.43 42.1232 161.601 40.6317 160.661 40.2532C151.926 36.5898 143.171 32.9509 134.442 29.3314C133.546 28.9477 132.53 30.0941 133.211 30.9046C138.704 37.1832 142.978 44.4095 145.85 52.2039C146.175 53.0123 147.477 53.0802 147.768 52.1984C150.493 44.3841 152.632 36.3497 154.178 28.2076C154.356 27.317 153.238 26.7591 152.54 27.2434C144.644 32.9539 136.748 38.6644 128.828 44.3556C127.768 45.1506 128.999 46.7873 130.084 46.0116Z" fill="white"/>
</svg>
