<svg width="52" height="52" viewBox="0 0 52 52" fill="none" xmlns="http://www.w3.org/2000/svg">
<path d="M26 0H14.7333C14.2547 0 13.8667 0.388053 13.8667 0.866667V6.93333H0.866667C0.388053 6.93333 0 7.32139 0 7.8V51.1333C0 51.6119 0.388053 52 0.866667 52H26C26.4786 52 26.8667 51.6119 26.8667 51.1333V0.866667C26.8667 0.388053 26.4786 0 26 0ZM25.1333 45.0667H15.6V43.3333H25.1333V45.0667ZM1.73333 13H13.8667V39H1.73333V13ZM25.1333 9.53333H15.6V6.93333H25.1333V9.53333ZM1.73333 40.7333H13.8667V43.3333H1.73333V40.7333ZM15.6 41.6V11.2667H25.1333V41.6H15.6ZM25.1333 1.73333V5.2H15.6V1.73333H25.1333ZM13.8667 8.66667V11.2667H1.73333V8.66667H13.8667ZM1.73333 45.0667H13.8667V50.2667H1.73333V45.0667ZM15.6 50.2667V46.8H25.1333V50.2667H15.6Z" fill="#352E7D"/>
<path d="M51.9719 47.4484L41.5719 7.58175C41.5139 7.35831 41.3692 7.16746 41.1694 7.05108C40.9701 6.93513 40.7327 6.90339 40.5097 6.96306L27.5097 10.4297C27.0493 10.5524 26.7742 11.0239 26.8944 11.4851L37.2944 51.3518C37.3524 51.5752 37.4975 51.7661 37.6973 51.882C37.8966 51.9976 38.134 52.0289 38.3566 51.9688L51.3566 48.5021C51.8162 48.3794 52.0908 47.9088 51.9719 47.4484ZM30.1702 17.1756L41.4957 14.1562L41.9032 15.7161L30.5786 18.7401L30.1702 17.1756ZM42.3408 17.3978L47.3673 36.679L36.046 39.6996L31.0195 20.4171L42.3408 17.3978ZM47.8087 38.3569L48.6961 41.7579L37.3706 44.7773L36.4866 41.3775L47.8087 38.3569ZM40.1145 8.86186L41.0582 12.48L29.7327 15.4985L28.7898 11.8821L40.1145 8.86186ZM38.7518 50.0717L37.8081 46.4535L49.1336 43.4333L50.0765 47.0498L38.7518 50.0717Z" fill="#352E7D"/>
<path d="M11.2668 15.6001H4.33346C3.85485 15.6001 3.4668 15.9882 3.4668 16.4668V23.4001C3.4668 23.8787 3.85485 24.2668 4.33346 24.2668H11.2668C11.7454 24.2668 12.1335 23.8787 12.1335 23.4001V16.4668C12.1335 15.9882 11.7454 15.6001 11.2668 15.6001ZM10.4001 22.5334H5.20013V17.3334H10.4001V22.5334Z" fill="#352E7D"/>
</svg>
