<svg width="70" height="46" viewBox="0 0 70 46" fill="none" xmlns="http://www.w3.org/2000/svg">
<path d="M68.7929 0H1.20695C0.540448 0 0 0.540311 0 1.20681V44.655C0 45.3215 0.540448 45.8619 1.20695 45.8619H68.7931C69.4596 45.8619 70 45.3215 70 44.655V1.20681C69.9999 0.540311 69.4594 0 68.7929 0Z" fill="#82C3D2"/>
<path d="M8.1371 5.49209C8.02786 5.02957 8.00066 4.85908 8.20819 4.65168C8.30937 4.55051 8.30937 4.38658 8.20819 4.28541C8.10702 4.18424 7.9431 4.18424 7.84193 4.28541C7.42193 4.70555 7.52214 5.14154 7.63083 5.60324C7.2997 5.4951 6.95626 5.57535 6.77224 5.8075C6.68091 5.9233 6.50427 6.24814 6.83527 6.76685C6.91224 6.8873 7.07138 6.92271 7.19292 6.84642C7.31365 6.76945 7.34878 6.60908 7.27181 6.48877C7.14767 6.2934 7.14398 6.17295 7.1787 6.12892C7.21972 6.07683 7.34687 6.04935 7.48003 6.09652C7.56603 6.12632 7.76591 6.22955 7.76591 6.54127C7.76591 6.79023 7.65079 7.01841 7.45009 7.16662C7.24898 7.31537 6.98866 7.35734 6.73779 7.27941C6.42798 7.1848 6.21156 6.85845 6.21156 6.48562C6.21156 6.21888 6.26871 5.94928 6.37371 5.71303C6.39039 5.67816 6.78632 4.85799 6.88831 4.55228C7.08997 3.94758 6.88503 3.64352 6.74517 3.51651C6.558 3.34602 6.28443 3.3035 6.049 3.40672C6.01318 3.42258 5.98365 3.44555 5.95261 3.46688C5.92158 3.44541 5.89191 3.42258 5.85623 3.40672C5.62093 3.3035 5.3475 3.34602 5.16006 3.51651C5.02019 3.64352 4.81525 3.94772 5.01691 4.55228C5.1189 4.85799 5.5147 5.67816 5.52783 5.70551C5.63625 5.94941 5.69353 6.21902 5.69353 6.48576C5.69353 6.85873 5.47724 7.18494 5.1673 7.27955C4.91547 7.35734 4.65597 7.31591 4.455 7.16675C4.2543 7.01841 4.13918 6.79037 4.13918 6.5414C4.13918 6.22968 4.33906 6.1266 4.42506 6.09666C4.55863 6.04963 4.6851 6.07683 4.72638 6.12906C4.76111 6.17308 4.75742 6.29353 4.63328 6.4889C4.55631 6.60935 4.59144 6.76972 4.71217 6.84656C4.83385 6.92353 4.99353 6.88757 5.06982 6.76699C5.40068 6.24828 5.22418 5.92357 5.13285 5.80764C4.94869 5.57549 4.60539 5.49523 4.27426 5.60338C4.38308 5.14195 4.48316 4.70568 4.06316 4.28555C3.96199 4.18438 3.79807 4.18438 3.69689 4.28555C3.59572 4.38672 3.59572 4.55064 3.69689 4.65182C3.9043 4.85922 3.87736 5.02971 3.76799 5.49222C3.70236 5.76935 3.62088 6.11498 3.62088 6.54099C3.62088 6.82441 3.72055 7.09552 3.88816 7.31824H3.87982C3.73668 7.31824 3.62074 7.43404 3.62074 7.57732C3.62074 7.72046 3.73654 7.8364 3.87982 7.8364H3.88816C3.72055 8.05911 3.62088 8.33009 3.62088 8.61351C3.62088 9.03952 3.70236 9.38515 3.76785 9.66241C3.87709 10.1249 3.9043 10.2954 3.69676 10.5028C3.59559 10.604 3.59559 10.7679 3.69676 10.8691C3.74734 10.9197 3.81365 10.945 3.87996 10.945C3.94613 10.945 4.01258 10.9197 4.06316 10.8691C4.48316 10.449 4.38295 10.0128 4.27426 9.55126C4.60539 9.65899 4.94883 9.57915 5.13285 9.347C5.22418 9.2312 5.40082 8.90636 5.06982 8.38765C4.99312 8.2672 4.83302 8.23138 4.71217 8.30808C4.59144 8.38505 4.55631 8.54542 4.63328 8.66573C4.75742 8.86111 4.76111 8.98155 4.72638 9.02558C4.68523 9.07712 4.55863 9.10446 4.42506 9.05798C4.33906 9.02818 4.13918 8.92495 4.13918 8.61323C4.13918 8.36427 4.2543 8.13609 4.455 7.98788C4.65611 7.83913 4.91615 7.79661 5.1673 7.87509C5.47711 7.9697 5.69353 8.29605 5.69353 8.66888C5.69353 8.93562 5.63638 9.20522 5.52783 9.44913L3.83102 13.2664C3.69156 13.5801 3.62074 13.9137 3.62074 14.2571C3.62074 14.6991 3.82172 15.1027 4.13808 15.3491C3.82186 15.5954 3.62074 15.999 3.62074 16.4411C3.62074 16.7846 3.6917 17.1181 3.83102 17.4317L5.52755 21.2488C5.63597 21.4927 5.69326 21.7623 5.69326 22.029C5.69326 22.402 5.47697 22.7282 5.16703 22.8228C4.91519 22.9013 4.6557 22.8592 4.45472 22.71C4.25402 22.5617 4.13891 22.3336 4.13891 22.0847C4.13891 21.7729 4.33879 21.6698 4.42478 21.6399C4.55836 21.5933 4.68482 21.6201 4.72611 21.6723C4.76084 21.7163 4.75715 21.8368 4.63301 22.0322C4.55603 22.1526 4.59117 22.313 4.71189 22.3898C4.83357 22.4668 4.99326 22.4312 5.06955 22.3102C5.40041 21.7915 5.2239 21.4668 5.13258 21.3509C4.94842 21.1187 4.60512 21.0388 4.27398 21.1466C4.38281 20.6852 4.48289 20.2489 4.06289 19.8288C3.96172 19.7276 3.79779 19.7276 3.69662 19.8288C3.59545 19.93 3.59545 20.0939 3.69662 20.1951C3.90402 20.4025 3.87709 20.573 3.76771 21.0355C3.70223 21.3127 3.62074 21.6584 3.62074 22.0844C3.62074 22.3678 3.72041 22.6389 3.88803 22.8616H3.87969C3.73654 22.8616 3.62061 22.9774 3.62061 23.1207C3.62061 23.264 3.73641 23.3798 3.87969 23.3798H3.88803C3.72027 23.6025 3.62074 23.8735 3.62074 24.157C3.62074 24.583 3.70223 24.9287 3.76771 25.2059C3.87695 25.6685 3.90416 25.8389 3.69662 26.0463C3.59545 26.1475 3.59545 26.3114 3.69662 26.4126C3.74721 26.4632 3.81352 26.4885 3.87982 26.4885C3.946 26.4885 4.01244 26.4632 4.06303 26.4126C4.48303 25.9925 4.38281 25.5563 4.27412 25.0948C4.60525 25.2025 4.94869 25.1227 5.13271 24.8905C5.22404 24.7747 5.40068 24.4499 5.06968 23.9312C4.99299 23.8107 4.83289 23.7749 4.71203 23.8516C4.59131 23.9286 4.55617 24.0889 4.63314 24.2093C4.75728 24.4046 4.76097 24.5251 4.72625 24.5691C4.6851 24.6212 4.55849 24.6487 4.42492 24.6015C4.33892 24.5717 4.13904 24.4685 4.13904 24.1568C4.13904 23.9078 4.25416 23.6796 4.45486 23.5314C4.65597 23.3827 4.91601 23.3401 5.16716 23.4186C5.47697 23.5132 5.69339 23.8396 5.69339 24.2124C5.69339 24.4791 5.63625 24.7487 5.52769 24.9927L3.83102 28.8104C3.69156 29.124 3.62074 29.4576 3.62074 29.801C3.62074 30.2431 3.82172 30.6466 4.13808 30.893C3.82186 31.1394 3.62074 31.543 3.62074 31.985C3.62074 32.3286 3.6917 32.662 3.83102 32.9756L5.52755 36.7927C5.63597 37.0366 5.69326 37.3062 5.69326 37.5729C5.69326 37.9459 5.47697 38.2721 5.16703 38.3667C4.91519 38.4452 4.6557 38.4027 4.45472 38.2539C4.25402 38.1056 4.13891 37.8775 4.13891 37.6286C4.13891 37.3169 4.33879 37.2138 4.42478 37.1838C4.55836 37.1372 4.68482 37.164 4.72611 37.2162C4.76084 37.2603 4.75715 37.3807 4.63301 37.5761C4.55603 37.6965 4.59117 37.8568 4.71189 37.9337C4.83357 38.0107 4.99326 37.9752 5.06955 37.8542C5.40041 37.3355 5.2239 37.0108 5.13258 36.8948C4.94842 36.662 4.60512 36.5824 4.27398 36.6906C4.38281 36.2291 4.48289 35.7929 4.06289 35.3727C3.96172 35.2716 3.79779 35.2716 3.69662 35.3727C3.59545 35.4739 3.59545 35.6378 3.69662 35.739C3.90402 35.9464 3.87709 36.1169 3.76771 36.5794C3.70223 36.8567 3.62074 37.2022 3.62074 37.6282C3.62074 38.0342 3.81529 38.4209 4.14055 38.6645C3.81529 38.9081 3.62074 39.2948 3.62074 39.7008C3.62074 40.1268 3.70223 40.4725 3.76771 40.7497C3.87695 41.2121 3.90416 41.3827 3.69662 41.5901C3.59545 41.6913 3.59545 41.8552 3.69662 41.9564C3.74721 42.007 3.81352 42.0323 3.87982 42.0323C3.946 42.0323 4.01244 42.007 4.06303 41.9564C4.48303 41.5363 4.38281 41.1001 4.27412 40.6386C4.60525 40.7463 4.94869 40.6665 5.13271 40.4343C5.22404 40.3185 5.40068 39.9937 5.06968 39.475C4.99299 39.3545 4.83289 39.3191 4.71203 39.3954C4.59131 39.4724 4.55617 39.6327 4.63314 39.7531C4.75728 39.9484 4.76097 40.0689 4.72625 40.1129C4.6851 40.165 4.55849 40.1918 4.42492 40.1453C4.33892 40.1155 4.13904 40.0123 4.13904 39.7006C4.13904 39.4516 4.25416 39.2234 4.45486 39.0752C4.65597 38.9265 4.91601 38.8845 5.16716 38.9624C5.47697 39.057 5.69339 39.3834 5.69339 39.7562C5.69339 40.0229 5.63625 40.2925 5.53125 40.5288C5.51457 40.5637 5.11863 41.3838 5.01664 41.6895C4.81498 42.2942 5.01992 42.5983 5.15978 42.7253C5.27941 42.8341 5.43349 42.8913 5.59099 42.8913C5.68027 42.8913 5.77078 42.8726 5.85609 42.8352C5.89191 42.8194 5.92144 42.7964 5.95248 42.7751C5.98351 42.7965 6.01318 42.8194 6.04886 42.8352C6.13404 42.8727 6.22468 42.8913 6.31396 42.8913C6.47105 42.8913 6.6254 42.8341 6.74517 42.7253C6.88503 42.5983 7.08997 42.2941 6.88831 41.6895C6.78632 41.3838 6.39052 40.5637 6.3774 40.5363C6.26898 40.2924 6.21169 40.0228 6.21169 39.7561C6.21169 39.3831 6.42798 39.0567 6.73792 38.9623C6.9899 38.8843 7.24925 38.9263 7.45023 39.0751C7.65093 39.2234 7.76605 39.4515 7.76605 39.7004C7.76605 40.0121 7.56616 40.1152 7.48017 40.1452C7.34714 40.1918 7.21972 40.165 7.17884 40.1128C7.14411 40.0687 7.14781 39.9483 7.27195 39.7529C7.34892 39.6325 7.31378 39.4722 7.19306 39.3953C7.07206 39.3194 6.91251 39.3548 6.8354 39.4748C6.50454 39.9935 6.68105 40.3182 6.77238 40.4342C6.95654 40.6663 7.29984 40.7463 7.63097 40.6384C7.52214 41.0999 7.42206 41.5361 7.84206 41.9563C7.89265 42.0069 7.95896 42.0322 8.02527 42.0322C8.09157 42.0322 8.15788 42.0069 8.20847 41.9563C8.30964 41.8551 8.30964 41.6912 8.20847 41.59C8.00107 41.3826 8.028 41.2121 8.13737 40.7496C8.20286 40.4723 8.28435 40.1267 8.28435 39.7007C8.28435 39.2946 8.0898 38.908 7.76454 38.6644C8.0898 38.4207 8.28435 38.0342 8.28435 37.628C8.28435 37.202 8.20286 36.8564 8.13737 36.5791C8.02814 36.1168 8.00093 35.9461 8.20847 35.7387C8.30964 35.6376 8.30964 35.4736 8.20847 35.3725C8.1073 35.2713 7.94337 35.2713 7.8422 35.3725C7.4222 35.7926 7.52241 36.2286 7.6311 36.6903C7.29997 36.5821 6.95654 36.6617 6.77251 36.8945C6.68119 37.0103 6.50454 37.3352 6.83554 37.8539C6.91251 37.9743 7.07165 38.0098 7.1932 37.9335C7.31392 37.8565 7.34906 37.6961 7.27208 37.5758C7.14794 37.3804 7.14425 37.26 7.17898 37.216C7.21999 37.1639 7.34714 37.1371 7.4803 37.1836C7.5663 37.2134 7.76618 37.3166 7.76618 37.6283C7.76618 37.8773 7.65107 38.1055 7.45036 38.2537C7.24925 38.4024 6.98894 38.4449 6.73806 38.3665C6.42826 38.2718 6.21183 37.9455 6.21183 37.5727C6.21183 37.3059 6.26898 37.0363 6.37753 36.7924L8.07407 32.9754C8.21353 32.6617 8.28435 32.3281 8.28435 31.9847C8.28435 31.5427 8.08337 31.1391 7.767 30.8927C8.08323 30.6464 8.28435 30.2428 8.28435 29.8008C8.28435 29.4572 8.21339 29.1237 8.07407 28.8101L6.37767 24.9933C6.26925 24.7494 6.21197 24.4798 6.21197 24.2131C6.21197 23.8401 6.42826 23.5139 6.7382 23.4193C6.99017 23.3414 7.24952 23.3833 7.4505 23.5321C7.6512 23.6804 7.76632 23.9085 7.76632 24.1574C7.76632 24.4692 7.56644 24.5722 7.48044 24.6022C7.34741 24.6492 7.21999 24.622 7.17911 24.5698C7.14439 24.5258 7.14808 24.4053 7.27222 24.2099C7.34919 24.0895 7.31405 23.9293 7.19333 23.8523C7.07234 23.7764 6.91279 23.8118 6.83568 23.9319C6.50482 24.4506 6.68132 24.7753 6.77265 24.8912C6.95681 25.1234 7.30011 25.2033 7.63124 25.0955C7.52241 25.5569 7.42234 25.9932 7.84234 26.4133C7.89292 26.4639 7.95923 26.4892 8.02554 26.4892C8.09185 26.4892 8.15815 26.4639 8.20874 26.4133C8.30991 26.3121 8.30991 26.1482 8.20874 26.047C8.00134 25.8396 8.02827 25.6691 8.13765 25.2066C8.20314 24.9294 8.28462 24.5837 8.28462 24.1577C8.28462 23.8743 8.18495 23.6032 8.01733 23.3805H8.02568C8.16882 23.3805 8.28476 23.2647 8.28476 23.1214C8.28476 22.9782 8.16896 22.8623 8.02568 22.8623H8.01733C8.18509 22.6396 8.28462 22.3688 8.28462 22.0851C8.28462 21.659 8.20314 21.3134 8.13765 21.0362C8.02841 20.5736 8.0012 20.4032 8.20874 20.1958C8.30991 20.0946 8.30991 19.9307 8.20874 19.8295C8.10757 19.7283 7.94364 19.7283 7.84247 19.8295C7.42247 20.2496 7.52269 20.6857 7.63138 21.1473C7.30025 21.0396 6.95681 21.1194 6.77279 21.3516C6.68146 21.4674 6.50482 21.7922 6.83581 22.3109C6.91279 22.4314 7.07193 22.4664 7.19347 22.3905C7.31419 22.3135 7.34933 22.1531 7.27236 22.0328C7.14822 21.8375 7.14452 21.717 7.17925 21.673C7.22027 21.6209 7.34741 21.5941 7.48058 21.6406C7.56657 21.6704 7.76646 21.7736 7.76646 22.0853C7.76646 22.3343 7.65134 22.5625 7.45064 22.7107C7.24952 22.8594 6.98921 22.9014 6.73833 22.8235C6.42853 22.7289 6.2121 22.4025 6.2121 22.0297C6.2121 21.763 6.26925 21.4933 6.37781 21.2494L8.07435 17.4324C8.2138 17.1188 8.28462 16.7852 8.28462 16.4417C8.28462 15.9997 8.08364 15.5961 7.76728 15.3498C8.08351 15.1034 8.28462 14.6998 8.28462 14.2578C8.28462 13.9142 8.21366 13.5808 8.07435 13.2671L6.37781 9.45009C6.26939 9.20618 6.2121 8.93657 6.2121 8.66984C6.2121 8.29687 6.42839 7.97066 6.73833 7.87605C6.99031 7.79812 7.24966 7.84009 7.45064 7.98884C7.65134 8.13718 7.76646 8.36523 7.76646 8.61419C7.76646 8.92591 7.56657 9.02899 7.48058 9.05894C7.34755 9.10556 7.22013 9.07808 7.17925 9.02653C7.14452 8.98251 7.14822 8.86206 7.27236 8.66669C7.34933 8.54624 7.31419 8.38587 7.19347 8.30903C7.07247 8.23316 6.91292 8.26802 6.83581 8.38847C6.50496 8.90718 6.68146 9.23189 6.77279 9.34782C6.95695 9.57997 7.30025 9.65995 7.63138 9.55208C7.52255 10.0135 7.42247 10.4498 7.84247 10.8699C7.89306 10.9205 7.95937 10.9458 8.02568 10.9458C8.09198 10.9458 8.15829 10.9205 8.20888 10.8699C8.31005 10.7687 8.31005 10.6048 8.20888 10.5036C8.00148 10.2962 8.02841 10.1257 8.13778 9.66323C8.20327 9.38597 8.28476 9.04034 8.28476 8.61433C8.28476 8.33091 8.18509 8.0598 8.01747 7.83708H8.02581C8.16896 7.83708 8.28489 7.72128 8.28489 7.578C8.28489 7.43486 8.16909 7.31892 8.02581 7.31892H8.01747C8.18523 7.09621 8.28476 6.82537 8.28476 6.54168C8.28394 6.11498 8.20245 5.76935 8.1371 5.49209ZM5.508 4.38809C5.41599 4.11192 5.44812 3.95455 5.50882 3.89932C5.54847 3.86186 5.60863 3.86336 5.64677 3.88059C5.69353 3.90137 5.69353 3.93432 5.69353 3.95045C5.69353 4.09359 5.80933 4.20953 5.95261 4.20953C6.09576 4.20953 6.21169 4.09373 6.21169 3.95045C6.21169 3.93432 6.21169 3.90137 6.25845 3.88059C6.29591 3.86336 6.35566 3.86186 6.3964 3.89932C6.4571 3.95455 6.48923 4.11192 6.39722 4.38809C6.33023 4.58838 6.08783 5.10982 5.95275 5.39283C5.82041 5.11639 5.57541 4.58975 5.508 4.38809ZM5.95248 15.0774C6.02685 15.1785 6.11093 15.2725 6.2132 15.3491C6.11093 15.4258 6.02685 15.5197 5.95248 15.6207C5.8781 15.5197 5.79402 15.4256 5.69175 15.3491C5.79402 15.2724 5.8781 15.1786 5.95248 15.0774ZM5.95248 30.6212C6.02685 30.7223 6.11093 30.8163 6.2132 30.8929C6.11093 30.9696 6.02685 31.0635 5.95248 31.1645C5.8781 31.0635 5.79402 30.9694 5.69175 30.8929C5.79402 30.8162 5.8781 30.7225 5.95248 30.6212ZM6.39681 41.854C6.48882 42.1302 6.45669 42.2875 6.39599 42.3428C6.35525 42.3797 6.2955 42.3782 6.25804 42.3615C6.21128 42.3407 6.21128 42.3079 6.21128 42.2916C6.21128 42.1485 6.09548 42.0326 5.9522 42.0326C5.80892 42.0326 5.69312 42.1484 5.69312 42.2916C5.69312 42.3078 5.69312 42.3407 5.64636 42.3615C5.60836 42.3782 5.5482 42.3798 5.50841 42.3428C5.44771 42.2875 5.41558 42.1302 5.50759 41.854C5.57459 41.6537 5.81699 41.1323 5.95207 40.8493C6.08441 41.1256 6.32941 41.6523 6.39681 41.854ZM6.21074 38.6648C6.11271 38.7411 6.02576 38.8324 5.95248 38.9356C5.87933 38.8324 5.79224 38.7412 5.69421 38.6648C5.79224 38.5885 5.87919 38.4972 5.95248 38.3939C6.02562 38.4972 6.11257 38.5885 6.21074 38.6648ZM7.60007 32.765L5.95234 36.4722L4.30461 32.765C4.19619 32.5211 4.13891 32.2514 4.13891 31.9847C4.13891 31.6117 4.35519 31.2854 4.66513 31.1909C4.91697 31.113 5.17674 31.155 5.37744 31.3037C5.57814 31.4521 5.69326 31.6801 5.69326 31.9291C5.69326 32.2408 5.49338 32.3439 5.40738 32.3738C5.27381 32.4204 5.14679 32.3936 5.10605 32.3414C5.07133 32.2974 5.07502 32.1769 5.19916 31.9816C5.27613 31.8611 5.24099 31.7007 5.12027 31.6239C4.99927 31.548 4.83972 31.5834 4.76261 31.7035C4.43176 32.2222 4.60826 32.5469 4.69959 32.6628C4.88717 32.8996 5.24004 32.9811 5.57746 32.8631C5.61587 32.8499 5.65484 32.8333 5.69326 32.8138V33.4689C5.69326 33.4688 5.69285 33.4685 5.69285 33.4685C5.68505 33.3321 5.57213 33.2245 5.43431 33.2245C5.29117 33.2245 5.17523 33.3403 5.17523 33.4836C5.17523 33.6525 5.29336 33.9457 5.69326 34.0364V34.5197C5.69326 34.6629 5.80906 34.7788 5.95234 34.7788C6.09562 34.7788 6.21142 34.663 6.21142 34.5197V34.0364C6.61132 33.9457 6.72945 33.6525 6.72945 33.4836C6.72945 33.3404 6.61392 33.216 6.47091 33.216C6.32777 33.216 6.21238 33.3233 6.21238 33.4665C6.21224 33.4669 6.21142 33.4676 6.21128 33.468V32.814C6.2497 32.8336 6.28867 32.8501 6.32708 32.8634C6.66451 32.9813 7.01724 32.8998 7.20495 32.6631C7.29628 32.5473 7.47292 32.2225 7.14193 31.7038C7.06495 31.5833 6.90513 31.5479 6.78427 31.6242C6.66355 31.7012 6.62841 31.8615 6.70538 31.9818C6.82952 32.1772 6.83322 32.2977 6.79849 32.3417C6.75747 32.3938 6.63046 32.4206 6.49716 32.3741C6.41117 32.3443 6.21128 32.2411 6.21128 31.9293C6.21128 31.6804 6.3264 31.4522 6.5271 31.304C6.72822 31.1552 6.98853 31.1127 7.23941 31.1912C7.54921 31.2858 7.76564 31.6122 7.76564 31.985C7.76591 32.2514 7.70876 32.5212 7.60007 32.765ZM7.60007 29.0208C7.70849 29.2647 7.76577 29.5343 7.76577 29.801C7.76577 30.174 7.54948 30.5002 7.23954 30.5948C6.98812 30.6733 6.72794 30.6308 6.52724 30.482C6.32654 30.3337 6.21142 30.1057 6.21142 29.8567C6.21142 29.545 6.4113 29.4419 6.4973 29.4119C6.6306 29.3653 6.75775 29.3921 6.79863 29.4443C6.83335 29.4884 6.82966 29.6088 6.70552 29.8042C6.62855 29.9246 6.66369 30.0849 6.78441 30.1618C6.90609 30.2388 7.06577 30.2033 7.14206 30.0823C7.47292 29.5636 7.29642 29.2389 7.20509 29.1229C7.01738 28.8861 6.66464 28.8056 6.32722 28.9226C6.2888 28.9359 6.24984 28.9526 6.21142 28.972V28.3167L6.21183 28.3175C6.21962 28.4535 6.33255 28.5614 6.47037 28.5614C6.61351 28.5614 6.72945 28.4456 6.72945 28.3023C6.72945 28.1334 6.61132 27.8402 6.21142 27.7494V27.2661C6.21142 27.123 6.09562 27.0071 5.95234 27.0071C5.80906 27.0071 5.69326 27.1229 5.69326 27.2661V27.7494C5.29336 27.8402 5.17523 28.1334 5.17523 28.3023C5.17523 28.4455 5.29076 28.5699 5.43377 28.5699C5.57691 28.5699 5.6923 28.4626 5.6923 28.3194C5.69244 28.319 5.69326 28.3183 5.69326 28.3183L5.69339 28.9718C5.65498 28.9523 5.61601 28.9358 5.57759 28.9225C5.24017 28.8056 4.8873 28.8861 4.69972 29.1228C4.6084 29.2386 4.43176 29.5634 4.76275 30.0821C4.83972 30.2026 4.99955 30.2376 5.12041 30.1617C5.24113 30.0847 5.27627 29.9244 5.19929 29.8041C5.07515 29.6087 5.07146 29.4882 5.10619 29.4442C5.14693 29.3921 5.27394 29.3653 5.40752 29.4118C5.49351 29.4416 5.69339 29.5448 5.69339 29.8566C5.69339 30.1055 5.57828 30.3337 5.37757 30.4819C5.17646 30.6307 4.9167 30.6732 4.66527 30.5947C4.35547 30.5001 4.13904 30.1737 4.13904 29.8009C4.13904 29.5342 4.19619 29.2646 4.30474 29.0207L5.95248 25.3134L7.60007 29.0208ZM6.21074 23.1211C6.11271 23.1974 6.02576 23.2887 5.95248 23.392C5.87933 23.2887 5.79224 23.1975 5.69421 23.1211C5.79224 23.0448 5.87919 22.9535 5.95248 22.8503C6.02562 22.9534 6.11257 23.0447 6.21074 23.1211ZM7.60007 17.2213L5.95234 20.9286L4.30461 17.2213C4.19619 16.9774 4.13891 16.7078 4.13891 16.4411C4.13891 16.0681 4.35519 15.7419 4.66513 15.6473C4.91697 15.5693 5.17674 15.6113 5.37744 15.7601C5.57814 15.9084 5.69326 16.1364 5.69326 16.3854C5.69326 16.6971 5.49338 16.8002 5.40738 16.8302C5.27381 16.8772 5.14679 16.85 5.10605 16.7977C5.07133 16.7537 5.07502 16.6333 5.19916 16.4379C5.27613 16.3175 5.24099 16.1571 5.12027 16.0803C4.99927 16.004 4.83972 16.0392 4.76261 16.1598C4.43176 16.6785 4.60826 17.0032 4.69959 17.1192C4.88717 17.356 5.24004 17.4369 5.57746 17.3195C5.61587 17.3062 5.65484 17.2897 5.69326 17.2701V17.9253L5.69285 17.9244C5.68505 17.7884 5.57213 17.6805 5.43431 17.6805C5.29117 17.6805 5.17523 17.7963 5.17523 17.9396C5.17523 18.1086 5.29336 18.4017 5.69326 18.4925V18.9758C5.69326 19.119 5.80906 19.2349 5.95234 19.2349C6.09562 19.2349 6.21142 19.1191 6.21142 18.9758V18.4925C6.61132 18.4017 6.72945 18.1086 6.72945 17.9396C6.72945 17.7965 6.61392 17.6719 6.47091 17.6719C6.32777 17.6719 6.21238 17.7793 6.21238 17.9224C6.21224 17.9228 6.21142 17.9235 6.21142 17.9235L6.21128 17.27C6.2497 17.2895 6.28867 17.3061 6.32708 17.3193C6.66451 17.4366 7.01724 17.3557 7.20495 17.119C7.29628 17.0032 7.47292 16.6784 7.14193 16.1597C7.06495 16.0387 6.90513 16.0034 6.78427 16.0801C6.66355 16.1571 6.62841 16.3175 6.70538 16.4378C6.82952 16.6331 6.83322 16.7536 6.79849 16.7976C6.75747 16.8497 6.63046 16.8772 6.49716 16.83C6.41117 16.8002 6.21128 16.697 6.21128 16.3853C6.21128 16.1363 6.3264 15.9081 6.5271 15.7599C6.72822 15.6112 6.98853 15.5692 7.23941 15.6471C7.54921 15.7417 7.76564 16.0681 7.76564 16.4409C7.76591 16.7078 7.70876 16.9774 7.60007 17.2213ZM7.60007 13.477C7.70849 13.7209 7.76577 13.9905 7.76577 14.2572C7.76577 14.6302 7.54948 14.9564 7.23954 15.051C6.98812 15.1295 6.72794 15.087 6.52724 14.9382C6.32654 14.7899 6.21142 14.5619 6.21142 14.3129C6.21142 14.0012 6.4113 13.8981 6.4973 13.8681C6.6306 13.8215 6.75775 13.8483 6.79863 13.9005C6.83335 13.9446 6.82966 14.065 6.70552 14.2604C6.62855 14.3808 6.66369 14.5411 6.78441 14.618C6.90609 14.6943 7.06577 14.6595 7.14206 14.5385C7.47292 14.0198 7.29642 13.6951 7.20509 13.5791C7.01738 13.3423 6.66464 13.2614 6.32722 13.3788C6.2888 13.3921 6.24984 13.4086 6.21142 13.4282V12.773C6.21142 12.7732 6.21183 12.7734 6.21183 12.7734C6.21962 12.9099 6.33255 13.0175 6.47037 13.0175C6.61351 13.0175 6.72945 12.9017 6.72945 12.7584C6.72945 12.5894 6.61132 12.2963 6.21142 12.2055V11.7222C6.21142 11.5791 6.09562 11.4631 5.95234 11.4631C5.80906 11.4631 5.69326 11.5789 5.69326 11.7222V12.2055C5.29336 12.2963 5.17523 12.5894 5.17523 12.7584C5.17523 12.9015 5.29076 13.0261 5.43377 13.0261C5.57691 13.0261 5.6923 12.9188 5.6923 12.7756C5.69244 12.7752 5.69326 12.7745 5.69339 12.7741V13.428C5.65498 13.4085 5.61601 13.392 5.57759 13.3787C5.24017 13.2614 4.8873 13.3423 4.69972 13.579C4.6084 13.6948 4.43176 14.0196 4.76275 14.5383C4.83972 14.6588 4.99955 14.6938 5.12041 14.6179C5.24113 14.5409 5.27627 14.3806 5.19929 14.2603C5.07515 14.0649 5.07146 13.9444 5.10619 13.9004C5.14693 13.8483 5.27394 13.8215 5.40752 13.868C5.49351 13.8978 5.69339 14.001 5.69339 14.3128C5.69339 14.5617 5.57828 14.7899 5.37757 14.9381C5.17646 15.0869 4.9167 15.1294 4.66527 15.0509C4.35547 14.9563 4.13904 14.6299 4.13904 14.2571C4.13904 13.9904 4.19619 13.7208 4.30474 13.4769L5.95248 9.7696L7.60007 13.477ZM5.69408 7.57732C5.7921 7.50103 5.87906 7.4097 5.95234 7.30648C6.02548 7.4097 6.11257 7.50089 6.2106 7.57732C6.11257 7.65361 6.02562 7.74493 5.95234 7.84816C5.87919 7.74493 5.79224 7.65361 5.69408 7.57732Z" fill="#FFE15A"/>
<path d="M37.0155 26.2992C40.459 26.2992 43.2506 23.5076 43.2506 20.064C43.2506 16.6204 40.459 13.8289 37.0155 13.8289C33.5719 13.8289 30.7803 16.6204 30.7803 20.064C30.7803 23.5076 33.5719 26.2992 37.0155 26.2992Z" fill="#FFE15A"/>
<path d="M37.4838 12.1142C37.4838 12.3724 37.2743 12.5819 37.0161 12.5819C36.7578 12.5819 36.5483 12.3724 36.5483 12.1142C36.5483 11.8559 37.0161 10.7112 37.0161 10.7112C37.0161 10.7112 37.4838 11.8559 37.4838 12.1142Z" fill="#FFE15A"/>
<path d="M36.5488 28.0151C36.5488 27.7568 36.7583 27.5474 37.0165 27.5474C37.2748 27.5474 37.4843 27.7568 37.4843 28.0151C37.4843 28.2733 37.0165 29.4181 37.0165 29.4181C37.0165 29.4181 36.5488 28.2735 36.5488 28.0151Z" fill="#FFE15A"/>
<path d="M44.9667 20.5323C44.7085 20.5323 44.499 20.3229 44.499 20.0646C44.499 19.8064 44.7085 19.5969 44.9667 19.5969C45.225 19.5969 46.3697 20.0646 46.3697 20.0646C46.3697 20.0646 45.225 20.5323 44.9667 20.5323Z" fill="#FFE15A"/>
<path d="M29.0656 19.5969C29.3239 19.5969 29.5333 19.8064 29.5333 20.0646C29.5333 20.3229 29.3239 20.5324 29.0656 20.5324C28.8073 20.5324 27.6626 20.0646 27.6626 20.0646C27.6626 20.0646 28.8073 19.5969 29.0656 19.5969Z" fill="#FFE15A"/>
<path d="M42.9689 14.7736C42.7862 14.9562 42.4902 14.9562 42.3075 14.7736C42.1247 14.5909 42.1248 14.2949 42.3075 14.1121C42.4901 13.9293 43.6302 13.4507 43.6302 13.4507C43.6302 13.4507 43.1517 14.5909 42.9689 14.7736Z" fill="#FFE15A"/>
<path d="M31.0637 25.3555C31.2463 25.1728 31.5423 25.1728 31.7251 25.3555C31.9079 25.5382 31.9078 25.8341 31.7251 26.0169C31.5424 26.1997 30.4023 26.6782 30.4023 26.6782C30.4023 26.6782 30.881 25.5383 31.0637 25.3555Z" fill="#FFE15A"/>
<path d="M42.3074 26.017C42.1247 25.8343 42.1247 25.5383 42.3074 25.3555C42.4901 25.1728 42.7861 25.1729 42.9688 25.3555C43.1516 25.5382 43.6303 26.6783 43.6303 26.6783C43.6303 26.6783 42.4901 26.1995 42.3074 26.017Z" fill="#FFE15A"/>
<path d="M31.7252 14.1122C31.9079 14.2949 31.9079 14.5909 31.7252 14.7737C31.5426 14.9565 31.2466 14.9563 31.0638 14.7737C30.881 14.591 30.4023 13.4509 30.4023 13.4509C30.4023 13.4509 31.5426 13.9297 31.7252 14.1122Z" fill="#FFE15A"/>
<path d="M34.4061 12.5403C34.5049 12.779 34.3916 13.0524 34.1529 13.1513C33.9142 13.2501 33.6407 13.1368 33.5419 12.898C33.443 12.6593 33.437 11.4229 33.437 11.4229C33.437 11.4229 34.3072 12.3015 34.4061 12.5403Z" fill="#FFE15A"/>
<path d="M39.627 27.5888C39.5282 27.3501 39.6415 27.0767 39.8802 26.9779C40.1189 26.879 40.3924 26.9923 40.4912 27.2311C40.59 27.4698 40.5961 28.7062 40.5961 28.7062C40.5961 28.7062 39.7257 27.8276 39.627 27.5888Z" fill="#FFE15A"/>
<path d="M44.5403 17.4544C44.3016 17.5533 44.0281 17.4399 43.9293 17.2012C43.8304 16.9625 43.9438 16.6891 44.1825 16.5902C44.4212 16.4914 45.6575 16.4854 45.6575 16.4854C45.6575 16.4854 44.779 17.3554 44.5403 17.4544Z" fill="#FFE15A"/>
<path d="M29.4919 22.6749C29.7306 22.576 30.0041 22.6894 30.1029 22.9281C30.2017 23.1668 30.0884 23.4402 29.8497 23.5391C29.611 23.6379 28.3745 23.644 28.3745 23.644C28.3745 23.644 29.2532 22.7739 29.4919 22.6749Z" fill="#FFE15A"/>
<path d="M40.4907 12.8984C40.3918 13.1371 40.1183 13.2503 39.8797 13.1516C39.641 13.0527 39.5278 12.7792 39.6265 12.5406C39.7253 12.302 40.5954 11.4233 40.5954 11.4233C40.5954 11.4233 40.5895 12.6598 40.4907 12.8984Z" fill="#FFE15A"/>
<path d="M33.5417 27.231C33.6406 26.9923 33.9142 26.8791 34.1527 26.9778C34.3915 27.0766 34.5047 27.3502 34.406 27.5888C34.3071 27.8275 33.437 28.706 33.437 28.706C33.437 28.706 33.4429 27.4697 33.5417 27.231Z" fill="#FFE15A"/>
<path d="M44.1824 23.539C43.9437 23.4402 43.8305 23.1666 43.9292 22.928C44.0281 22.6893 44.3016 22.5761 44.5402 22.6748C44.7788 22.7735 45.6575 23.6437 45.6575 23.6437C45.6575 23.6437 44.4209 23.638 44.1824 23.539Z" fill="#FFE15A"/>
<path d="M29.8496 16.5901C30.0883 16.6889 30.2015 16.9625 30.1028 17.2011C30.0039 17.4396 29.7303 17.553 29.4918 17.4543C29.2532 17.3554 28.3745 16.4854 28.3745 16.4854C28.3745 16.4854 29.6111 16.4911 29.8496 16.5901Z" fill="#FFE15A"/>
<path d="M35.924 12.1757C35.9745 12.4291 35.81 12.6753 35.5565 12.7256C35.3032 12.7761 35.0569 12.6116 35.0066 12.3581C34.9561 12.1048 35.1916 10.8909 35.1916 10.8909C35.1916 10.8909 35.8736 11.9224 35.924 12.1757Z" fill="#FFE15A"/>
<path d="M38.1087 27.9535C38.0583 27.7002 38.2227 27.4539 38.4762 27.4036C38.7297 27.3532 38.9758 27.5177 39.0261 27.7711C39.0765 28.0245 38.8411 29.2384 38.8411 29.2384C38.8411 29.2384 38.159 28.2069 38.1087 27.9535Z" fill="#FFE15A"/>
<path d="M44.9052 18.9721C44.6518 19.0225 44.4056 18.8581 44.3553 18.6046C44.3048 18.3511 44.4693 18.105 44.7228 18.0547C44.9761 18.0042 46.1901 18.2397 46.1901 18.2397C46.1901 18.2397 45.1585 18.9218 44.9052 18.9721Z" fill="#FFE15A"/>
<path d="M29.1272 21.157C29.3805 21.1066 29.6267 21.2711 29.677 21.5245C29.7275 21.778 29.563 22.0241 29.3095 22.0744C29.0562 22.1249 27.8423 21.8895 27.8423 21.8895C27.8423 21.8895 28.8738 21.2074 29.1272 21.157Z" fill="#FFE15A"/>
<path d="M41.8219 13.7139C41.6785 13.9287 41.388 13.9863 41.1732 13.8428C40.9584 13.6992 40.9007 13.4089 41.0443 13.1941C41.1877 12.9793 42.2125 12.2874 42.2125 12.2874C42.2125 12.2874 41.9653 13.4989 41.8219 13.7139Z" fill="#FFE15A"/>
<path d="M32.2104 26.4154C32.3538 26.2006 32.6444 26.1429 32.8592 26.2865C33.0739 26.4299 33.1316 26.7204 32.9881 26.9352C32.8447 27.15 31.8198 27.8419 31.8198 27.8419C31.8198 27.8419 32.067 26.6303 32.2104 26.4154Z" fill="#FFE15A"/>
<path d="M43.367 24.8705C43.1523 24.7271 43.0946 24.4366 43.2381 24.2218C43.3817 24.007 43.6721 23.9493 43.8868 24.0928C44.1016 24.2363 44.7936 25.2611 44.7936 25.2611C44.7936 25.2611 43.5818 25.0139 43.367 24.8705Z" fill="#FFE15A"/>
<path d="M30.6658 15.2588C30.8806 15.4022 30.9383 15.6927 30.7947 15.9075C30.6513 16.1223 30.3608 16.18 30.146 16.0364C29.9312 15.8929 29.2393 14.8682 29.2393 14.8682C29.2393 14.8682 30.4511 15.1153 30.6658 15.2588Z" fill="#FFE15A"/>
<path d="M32.9881 13.1942C33.1315 13.409 33.0738 13.6993 32.8592 13.8429C32.6445 13.9865 32.354 13.9286 32.2104 13.714C32.067 13.4992 31.8198 12.2876 31.8198 12.2876C31.8198 12.2876 32.8447 12.9795 32.9881 13.1942Z" fill="#FFE15A"/>
<path d="M41.0447 26.9351C40.9012 26.7203 40.9589 26.4299 41.1736 26.2864C41.3882 26.1429 41.6788 26.2006 41.8223 26.4153C41.9657 26.6301 42.2129 27.8417 42.2129 27.8417C42.2129 27.8417 41.1882 27.1497 41.0447 26.9351Z" fill="#FFE15A"/>
<path d="M43.8868 16.0364C43.672 16.1798 43.3816 16.1221 43.238 15.9075C43.0946 15.6927 43.1523 15.4023 43.3669 15.2588C43.5817 15.1153 44.7933 14.8682 44.7933 14.8682C44.7933 14.8682 44.1015 15.893 43.8868 16.0364Z" fill="#FFE15A"/>
<path d="M30.1458 24.0928C30.3606 23.9493 30.651 24.007 30.7946 24.2217C30.938 24.4365 30.8803 24.7269 30.6656 24.8704C30.4509 25.0138 29.2393 25.261 29.2393 25.261C29.2393 25.261 29.9311 24.2362 30.1458 24.0928Z" fill="#FFE15A"/>
<path d="M39.0261 12.3581C38.9756 12.6115 38.7295 12.7761 38.4762 12.7256C38.2229 12.6752 38.0583 12.4291 38.1087 12.1757C38.1591 11.9224 38.8411 10.8909 38.8411 10.8909C38.8411 10.8909 39.0764 12.1048 39.0261 12.3581Z" fill="#FFE15A"/>
<path d="M35.0066 27.7711C35.057 27.5178 35.3031 27.3532 35.5565 27.4036C35.8098 27.4541 35.9744 27.7002 35.924 27.9535C35.8735 28.2068 35.1916 29.2384 35.1916 29.2384C35.1916 29.2384 34.9563 28.0245 35.0066 27.7711Z" fill="#FFE15A"/>
<path d="M44.7228 22.0744C44.4694 22.024 44.3048 21.7779 44.3553 21.5245C44.4057 21.2712 44.6518 21.1066 44.9052 21.157C45.1585 21.2075 46.19 21.8894 46.19 21.8894C46.19 21.8894 44.9761 22.1247 44.7228 22.0744Z" fill="#FFE15A"/>
<path d="M29.31 18.0547C29.5634 18.1051 29.728 18.3512 29.6775 18.6045C29.6271 18.8579 29.381 19.0225 29.1277 18.9721C28.8743 18.9216 27.8428 18.2396 27.8428 18.2396C27.8428 18.2396 29.0567 18.0043 29.31 18.0547Z" fill="#FFE15A"/>
<path d="M51.6836 21.7052C51.5009 21.6283 51.2922 21.7164 51.216 21.8979C51.216 21.8987 51.216 21.8987 51.216 21.8987C51.2147 21.9022 51.2075 21.919 51.1954 21.9477C50.9251 22.5791 50.3659 23.5018 49.8013 24.3698C50.3272 22.6768 50.8081 20.8686 50.8416 20.7414C50.8917 20.5515 50.7793 20.3566 50.5897 20.305C50.3998 20.254 50.2046 20.3645 50.1514 20.5536C49.906 21.4329 49.4041 22.5903 48.941 23.57C49.0259 22.4776 49.0419 21.4656 49.043 21.3923C49.0459 21.1989 48.8943 21.0389 48.7008 21.0298C48.5188 21.0354 48.3433 21.1681 48.3289 21.3614C47.8711 27.6598 41.8105 30.4773 41.2204 30.7365C40.9117 30.7673 39.4735 30.9293 38.1683 31.3825C38.0204 31.4339 37.8943 31.4854 37.7688 31.5366C37.7222 31.5191 37.6721 31.5092 37.6195 31.5124C33.6134 31.8022 30.4191 30.1589 28.1233 26.6381C26.3888 23.9778 25.8448 21.1855 25.8394 21.1576C25.8028 20.9635 25.6169 20.8384 25.4219 20.8727C25.2278 20.9096 25.1002 21.0961 25.137 21.2902C25.1515 21.3673 25.3902 22.5862 26.0475 24.1903C25.168 22.8019 24.5551 21.12 24.3394 20.244C24.335 20.2265 24.3238 20.2133 24.3172 20.1971C24.3071 20.1724 24.2986 20.1475 24.2837 20.1261C24.2732 20.1109 24.2594 20.0998 24.2469 20.0865C24.2274 20.0659 24.2087 20.0457 24.1847 20.0302C24.1711 20.0213 24.1558 20.017 24.1409 20.01C24.1145 19.9977 24.0886 19.9855 24.0592 19.9799C24.0389 19.9759 24.0181 19.9785 23.9969 19.9781C23.9754 19.9778 23.9552 19.9724 23.9332 19.9762C23.9284 19.977 23.9247 19.9803 23.9199 19.9814C23.9153 19.9824 23.9109 19.9809 23.9062 19.9818C23.8871 19.9865 23.8725 19.9985 23.855 20.006C23.8327 20.0157 23.8099 20.023 23.7903 20.0365C23.771 20.0498 23.7567 20.067 23.7407 20.0835C23.7247 20.0999 23.708 20.1144 23.6954 20.1334C23.6827 20.1527 23.6759 20.1745 23.6668 20.1959C23.6582 20.2168 23.6483 20.2365 23.6437 20.2591C23.6391 20.2822 23.6411 20.306 23.6413 20.3302C23.6413 20.3495 23.636 20.3679 23.6394 20.3876C23.6407 20.3961 23.6435 20.4045 23.645 20.4128V20.4141C23.6454 20.4156 23.6459 20.4177 23.6463 20.4193C23.8676 21.7227 24.3947 23.0737 24.8715 24.104C24.1145 23.245 23.4819 22.2553 23.2577 21.6692C23.2512 21.6521 23.2382 21.6402 23.2295 21.6249C23.2162 21.6012 23.2046 21.577 23.1867 21.5575C23.174 21.5435 23.1585 21.5345 23.144 21.5229C23.1223 21.5054 23.1017 21.4878 23.0765 21.4757C23.0604 21.4681 23.0429 21.4656 23.0258 21.4603C22.9994 21.4524 22.9738 21.4436 22.9458 21.4418C22.9238 21.4403 22.9019 21.4459 22.8796 21.4488C22.859 21.4514 22.8386 21.4488 22.8181 21.4552C22.8141 21.4565 22.8114 21.4596 22.8077 21.461C22.8039 21.4622 22.8001 21.4614 22.7962 21.4629C22.7768 21.4703 22.763 21.4846 22.7456 21.4949C22.7253 21.5069 22.7035 21.5169 22.6862 21.5325C22.6684 21.5485 22.6561 21.5683 22.6421 21.5873C22.6289 21.6052 22.6141 21.6212 22.6043 21.6412C22.594 21.6621 22.5902 21.6848 22.5843 21.7073C22.5784 21.7294 22.5706 21.7499 22.5691 21.773C22.5675 21.7961 22.5732 21.8192 22.5762 21.8426C22.5788 21.8628 22.5761 21.8829 22.5824 21.9028C22.9715 23.1579 23.9072 24.6512 24.6403 25.7031C24.0294 25.2324 23.5804 24.7232 23.4502 24.5695C23.4361 24.5529 23.4223 24.536 23.4082 24.5194C23.2821 24.3677 23.0594 24.3461 22.9067 24.4697C22.7545 24.594 22.7306 24.8177 22.8536 24.9704C22.8603 24.9789 22.8871 25.0124 22.932 25.0647C23.4685 25.7031 24.0529 26.2988 24.5825 26.8017L23.8581 26.493C23.693 26.4218 23.4988 26.4861 23.4085 26.6432C23.3179 26.8004 23.3588 26.9993 23.5037 27.1083C23.5743 27.1606 24.857 28.1189 25.9674 28.6853C25.8627 28.6916 25.7398 28.6839 25.6022 28.6734C25.4343 28.6573 25.2692 28.7775 25.2283 28.9478C25.1881 29.1188 25.2775 29.2936 25.44 29.3606C25.4673 29.3718 25.8057 29.5114 26.2235 29.6601C26.126 29.6999 26.0485 29.7817 26.0164 29.8878C25.9682 30.0463 26.0359 30.2182 26.1797 30.3005C26.2172 30.3222 26.7226 30.6121 27.3481 30.869C27.3314 30.8948 27.3178 30.9227 27.3075 30.9535C27.2586 31.1036 27.3145 31.2685 27.4448 31.3586C27.5533 31.4332 29.9821 33.0815 32.8188 33.0815C33.005 33.0815 33.1931 33.0745 33.3823 33.0592C33.5789 33.0438 33.726 32.8714 33.7103 32.6743C33.6946 32.4773 33.5238 32.3286 33.3252 32.3468C31.5432 32.4921 29.8264 31.823 28.8054 31.3117C28.9402 31.2787 29.0177 31.2488 29.037 31.2411C29.1945 31.1769 29.2853 31.0113 29.2545 30.8444C29.2238 30.6776 29.0799 30.5552 28.9099 30.5517C28.4953 30.5432 27.9213 30.3414 27.4267 30.1248C27.6135 30.0313 27.7226 29.9418 27.7322 29.9341C27.8398 29.844 27.8852 29.7002 27.8485 29.5647C27.8116 29.4299 27.6989 29.3286 27.5609 29.3063C27.409 29.2811 27.2196 29.2322 27.0214 29.1722C27.2141 29.0612 27.2962 28.9389 27.3276 28.8767C27.3773 28.7776 27.3783 28.6615 27.3308 28.5617C27.2829 28.4619 27.1919 28.3899 27.0834 28.3668C26.9899 28.3465 26.884 28.3123 26.7695 28.2676C26.7905 28.2467 26.8097 28.2229 26.8253 28.1957C26.9164 28.0414 26.8788 27.843 26.7374 27.732C26.73 27.7264 26.4525 27.5086 26.0322 27.146C26.0989 27.1215 26.1579 27.0761 26.2005 27.0148C26.2906 26.8849 26.2845 26.711 26.1855 26.5879C26.1775 26.5781 25.8996 26.2286 25.5165 25.6979C25.643 25.796 25.7693 25.8964 25.8956 25.9776C25.9551 26.0153 26.0224 26.0342 26.0891 26.0342C26.1796 26.0342 26.2689 26 26.3376 25.9336C26.3659 25.9062 26.3881 25.8748 26.4056 25.8413C26.6226 26.073 26.8505 26.2834 27.0899 26.463C27.121 26.4863 27.1589 26.4859 27.1939 26.4977C27.2954 26.6678 27.4009 26.8381 27.5116 27.0085C29.6831 30.3496 32.745 32.1392 36.4172 32.2467C36.0791 32.452 35.712 32.6642 35.1308 32.8906C35.0039 32.9401 34.8918 32.9896 34.7792 33.0393C34.7248 33.0499 34.6738 33.0696 34.6313 33.1034C33.6168 33.573 33.1968 34.037 33.0265 34.3616C32.8564 34.6842 33.0031 35.0152 33.2108 35.1871C33.2753 35.2401 33.3575 35.2674 33.4398 35.2674C33.4964 35.2674 33.553 35.2548 33.6042 35.2289C33.7307 35.166 33.8152 35.0326 33.8096 34.8923C33.8242 34.8763 33.8864 34.8247 34.0812 34.8182C34.2233 34.8063 34.5223 34.8385 34.8712 34.8664C35.2031 34.8937 35.6013 34.9247 36.0246 34.9465C35.7597 35.2552 35.452 35.613 35.452 35.613C35.3596 35.7206 35.3392 35.8727 35.4007 36.0006C35.4625 36.1291 35.5957 36.2088 35.7353 36.2037C36.0179 36.1939 36.2098 36.1883 36.3359 36.1857C36.4458 36.3297 36.5807 36.3868 36.6677 36.4091C36.9136 36.472 37.1588 36.3735 37.3433 36.2569C37.4831 36.3575 37.6228 36.4001 37.7335 36.4162C37.9832 36.4504 38.2144 36.3778 38.3816 36.2953C38.5548 36.4072 38.7245 36.4358 38.8538 36.4358C38.8556 36.4358 38.8576 36.4358 38.8597 36.4358C39.1387 36.4344 39.3829 36.2996 39.5556 36.1675C39.7083 36.2583 39.8542 36.2875 39.967 36.2926C40.223 36.3016 40.4352 36.2032 40.5763 36.1109C41.0803 36.2121 41.5146 35.9747 41.8017 35.7128C41.9327 35.7889 42.0573 35.8078 42.1565 35.8029C42.4118 35.7939 42.6062 35.6387 42.731 35.4998C43.3024 35.5688 43.7124 35.4634 43.9493 35.182C44.0785 35.0291 44.131 34.8567 44.1452 34.6994C45.7303 34.6904 45.8738 33.825 45.8854 33.7181C45.8958 33.6209 45.8662 33.5239 45.8031 33.4493C45.7402 33.3746 45.649 33.3284 45.5516 33.3228L41.3959 33.0729C41.222 33.0603 41.0669 33.1769 41.0265 33.3467C41.0257 33.3495 40.9549 33.6135 40.7333 33.8246C40.435 34.1093 39.9547 34.2597 39.4323 34.3394C39.4342 34.2916 39.4275 34.2429 39.4092 34.1953C39.3379 34.011 39.1305 33.9215 38.9468 33.9908C38.0889 34.3237 36.6998 34.2819 35.6132 34.2063C35.7798 34.0701 35.9805 33.9352 36.1409 33.8471C36.2764 33.7725 36.3491 33.6195 36.3204 33.4673C36.2996 33.3567 36.2197 33.2797 36.1231 33.2302C36.4253 33.0777 36.673 32.9303 36.908 32.787C37.316 32.5371 37.7014 32.3015 38.4033 32.0579C39.7582 31.5872 41.3262 31.444 41.3419 31.4425C41.3775 31.4396 41.4125 31.4306 41.4456 31.4174C41.5014 31.3943 45.9242 29.5414 48.0079 25.2663C47.9806 25.3955 47.9513 25.5136 47.9195 25.6168C47.8651 25.7929 47.953 25.9807 48.1226 26.0518C48.2539 26.1071 48.403 26.0784 48.5041 25.9849C48.3724 26.332 48.2533 26.605 48.1561 26.7663C48.057 26.9305 48.1049 27.1435 48.2644 27.2496C48.3019 27.2741 48.3419 27.2908 48.3831 27.3006C48.2218 27.5367 48.0582 27.7601 47.8951 27.9648C47.7866 28.101 47.7929 28.2953 47.9063 28.4238C47.6263 28.717 47.3781 28.9588 47.1894 29.1124C47.0662 29.2122 47.026 29.3792 47.0826 29.5218C46.9006 29.6258 46.7512 29.6992 46.6476 29.7305C46.4737 29.7829 46.3669 29.9582 46.3997 30.137C46.4168 30.2313 46.4698 30.3109 46.5431 30.3633C46.3245 30.4219 46.0853 30.4785 45.8255 30.5301C45.6792 30.5593 45.5663 30.6761 45.5423 30.8233C45.5187 30.9707 45.5886 31.1174 45.7179 31.1914C45.7291 31.1977 45.8512 31.2668 46.0382 31.3464C45.3464 31.625 44.1113 31.989 42.0845 32.1887C41.8881 32.2083 41.7443 32.3837 41.7639 32.5799C41.783 32.7762 41.9528 32.9124 42.155 32.9012C46.0025 32.5205 47.1906 31.5575 47.2392 31.5162C47.3502 31.4232 47.3942 31.2718 47.3502 31.1335C47.3209 31.0421 47.2567 30.9681 47.1741 30.9253C48.4033 30.5384 48.931 30.1102 48.9587 30.0872C49.0935 29.9754 49.1274 29.7821 49.0386 29.6305C48.9492 29.4788 48.7632 29.4132 48.6007 29.4788C48.5551 29.4963 48.4821 29.5144 48.3898 29.5326C49.2147 28.9676 50.0904 28.2948 50.4756 27.9946C50.5432 27.9444 50.6048 27.896 50.6589 27.8506C50.8085 27.725 50.8294 27.5027 50.7059 27.3514C50.5834 27.2006 50.3602 27.1753 50.2072 27.2961C50.1514 27.3401 50.0933 27.3855 50.0333 27.4323C49.8555 27.5644 49.6282 27.7138 49.3802 27.8673C50.3164 26.8043 51.259 25.6519 51.5282 25.3209C51.5526 25.2909 51.5767 25.2609 51.6012 25.2308C51.7248 25.0772 51.7007 24.8523 51.547 24.7287C51.3929 24.603 51.1678 24.6289 51.0444 24.7817L51.0436 24.7825L51.0433 24.7834C51.0366 24.791 51.0064 24.8288 50.9554 24.8917C50.6734 25.2359 50.3764 25.5692 50.0834 25.8805C51.0372 24.152 51.7593 22.4505 51.8652 22.1984C51.869 22.1894 51.8725 22.1804 51.8764 22.1711C51.9521 21.9902 51.866 21.7806 51.6836 21.7052ZM34.9233 33.7592L35.0209 33.7719C34.9011 33.8839 34.8037 34.0094 34.7263 34.139C34.5565 34.1253 34.4024 34.1133 34.2817 34.108C34.4481 33.9993 34.6622 33.8813 34.9233 33.7592Z" fill="#FFE15A"/>
</svg>
