<svg width="205" height="153" viewBox="0 0 205 153" fill="none" xmlns="http://www.w3.org/2000/svg">
<path d="M126.994 41.4007C127.235 40.5206 127.227 39.6768 127.227 39.0235C127.219 37.9438 127.26 37.7533 127.567 37.4448C127.875 37.1272 128.057 37.1 129.037 37.1817C130.158 37.2815 131.852 37.4267 133.455 35.7935C135.057 34.1603 134.875 32.1098 134.866 30.8759C134.858 29.8052 134.734 29.4151 135.041 29.0975C135.049 29.0885 135.049 29.0885 135.057 29.0794L131.545 27.6277C130.972 28.8344 131.055 30.1319 131.063 31.0029C131.072 32.0735 131.072 32.3185 130.764 32.636C130.457 32.9536 130.299 33.008 129.32 32.9264C128.199 32.8266 126.513 32.6996 124.91 34.3236C123.308 35.9568 123.332 37.8168 123.341 39.0507C123.341 39.4863 123.341 39.7766 123.316 39.9943L126.994 41.4007Z" fill="#FF7700"/>
<path d="M105.405 153C105.645 152.12 105.637 151.276 105.637 150.623C105.629 149.543 105.67 149.353 105.978 149.044C106.285 148.727 106.467 148.699 107.447 148.781C108.568 148.881 110.262 149.026 111.865 147.393C113.468 145.76 113.285 143.709 113.277 142.475C113.268 141.396 113.144 141.014 113.451 140.697C113.459 140.688 113.459 140.688 113.468 140.679L109.955 139.227C109.382 140.434 109.465 141.731 109.473 142.602C109.482 143.673 109.482 143.918 109.175 144.235C108.867 144.553 108.71 144.607 107.73 144.526C106.609 144.426 104.923 144.299 103.32 145.923C101.718 147.556 101.743 149.416 101.751 150.65C101.751 151.086 101.751 151.376 101.726 151.594L105.405 153Z" fill="#FF7700"/>
<path d="M189.605 48.8679C188.883 49.3397 188.359 49.9476 187.953 50.4375C187.288 51.2269 187.139 51.3357 186.715 51.3357C186.292 51.3357 186.142 51.2269 185.478 50.4375C184.714 49.5302 183.568 48.1602 181.384 48.1602C179.2 48.1602 178.046 49.131 177.291 50.0383C176.626 50.8277 176.477 50.5373 176.053 50.5373C176.045 50.5373 176.037 50.5373 176.028 50.5373L177.689 54.8833C178.86 54.4297 179.607 53.7492 180.147 53.105C180.811 52.3156 180.961 52.3066 181.384 52.3066C181.808 52.3066 181.957 52.4699 182.622 53.2593C183.385 54.1666 184.531 55.5638 186.715 55.5638C188.899 55.5638 190.053 54.2029 190.809 53.2955C191.075 52.978 191.266 52.7693 191.415 52.6332L189.605 48.8679Z" fill="#FFDD4D"/>
<path d="M166.371 81.4041C166.197 82.3023 166.271 83.137 166.321 83.7903C166.413 84.8609 166.388 85.0605 166.097 85.3962C165.815 85.741 165.64 85.7864 164.652 85.7864C163.523 85.7954 161.829 85.8045 160.351 87.5647C158.881 89.334 159.213 91.3663 159.321 92.5912C159.413 93.6618 159.562 94.0338 159.28 94.3786C159.271 94.3877 159.271 94.3877 159.263 94.3968L162.867 95.5218C163.349 94.2697 163.166 92.9814 163.091 92.1103C163 91.0397 162.983 90.8038 163.266 90.459C163.548 90.1143 163.706 90.0507 164.685 90.0417C165.815 90.0326 167.5 90.0144 168.97 88.2452C170.44 86.4759 170.282 84.6159 170.174 83.3911C170.141 82.9556 170.116 82.6652 170.133 82.4475L166.371 81.4041Z" fill="#FF7700"/>
<path d="M200.433 86.6029C200.259 87.5011 200.333 88.3359 200.383 88.9891C200.474 90.0598 200.45 90.2594 200.159 90.5951C199.877 90.9399 199.702 90.9852 198.714 90.9852C197.585 90.9943 195.891 91.0034 194.413 92.7726C192.943 94.5419 192.968 96.2658 193.076 97.4906C193.167 98.5613 193.009 98.6339 192.727 98.9696C192.719 98.9786 192.719 98.9786 192.71 98.9877L196.622 100.421C197.103 99.1692 197.07 98.035 196.995 97.164C196.904 96.0934 196.962 95.9301 197.244 95.5853C197.527 95.2405 197.718 95.2133 198.706 95.2042C199.835 95.1951 201.537 95.1951 203.007 93.4259C204.477 91.6566 204.327 89.8057 204.228 88.5808C204.195 88.1453 204.178 87.8641 204.186 87.6463L200.433 86.6029Z" fill="#89BDEC"/>
<path d="M129.444 72.7755C128.597 72.7483 127.858 72.966 127.285 73.1384C126.338 73.4197 126.155 73.4288 125.798 73.1747C125.441 72.9297 125.367 72.7483 125.192 71.6867C124.993 70.48 124.694 68.6472 122.842 67.3679C120.99 66.0886 119.446 66.4152 118.358 66.7419C117.412 67.0231 117.32 66.8689 116.963 66.6239C116.955 66.6149 116.947 66.6149 116.947 66.6149L116.332 71.0788C117.544 71.3782 118.557 71.1514 119.33 70.9246C120.276 70.6433 120.434 70.6796 120.791 70.9246C121.148 71.1696 121.206 71.3692 121.381 72.4307C121.58 73.6375 121.879 75.4793 123.722 76.7586C125.574 78.0379 127.21 77.557 128.298 77.2304C128.68 77.1125 128.937 77.0489 129.137 77.0217L129.444 72.7755Z" fill="#89BDEC"/>
<path d="M73.8501 78.0742C73.1277 78.546 72.6046 79.1539 72.1977 79.6438C71.5334 80.4332 71.3839 80.542 70.9604 80.542C70.5369 80.542 70.3874 80.4332 69.7231 79.6438C68.9592 78.7365 67.8133 77.3665 65.6294 77.3665C63.4455 77.3665 62.2913 79.1539 61.5356 80.0612C60.8713 80.8505 60.7219 81.3768 60.2984 81.3768C60.2901 81.3768 60.2817 81.3768 60.2817 81.3768L61.9342 84.9062C63.105 84.4526 63.8524 83.3638 64.3921 82.7196C65.0564 81.9302 65.2059 81.7125 65.6294 81.7125C66.0529 81.7125 66.2023 81.7669 66.8666 82.5654C67.6306 83.4727 68.7765 84.8155 70.9604 84.8155C73.1443 84.8155 74.2985 83.4364 75.0542 82.5291C75.3199 82.2115 75.5109 81.9937 75.6603 81.8576L73.8501 78.0742Z" fill="#FF7700"/>
<path d="M87.2027 122.351C86.4803 122.823 85.9571 123.431 85.5502 123.921C84.8859 124.71 84.7365 124.819 84.313 124.819C83.8895 124.819 83.74 124.71 83.0757 123.921C82.3118 123.013 81.1658 121.643 78.9819 121.643C76.798 121.643 75.6438 122.614 74.8882 123.521C74.2239 124.311 74.0744 124.02 73.6509 124.02C73.6509 124.02 73.6343 124.02 73.626 124.02L75.2867 128.366C76.4576 127.913 77.2049 127.232 77.7447 126.588C78.409 125.799 78.5584 125.79 78.9819 125.79C79.4054 125.79 79.5549 125.953 80.2192 126.742C80.9831 127.65 82.1291 129.047 84.313 129.047C86.4969 129.047 87.6511 127.686 88.4067 126.779C88.6725 126.461 88.8635 126.252 89.0129 126.125L87.2027 122.351Z" fill="#FFDD4D"/>
<path d="M108.693 109.703C107.97 110.175 107.447 110.783 107.04 111.273C106.376 112.062 106.227 112.171 105.803 112.171C105.38 112.171 105.23 112.062 104.566 111.273C103.802 110.365 102.656 108.995 100.472 108.995C98.2883 108.995 97.134 110.393 96.3784 111.3C95.7141 112.089 95.5646 112.225 95.1411 112.225C95.1328 112.225 95.1245 112.225 95.1162 112.225L96.777 116.145C97.9478 115.691 98.6952 114.802 99.2349 114.149C99.8992 113.36 100.049 113.242 100.472 113.242C100.896 113.242 101.045 113.35 101.709 114.14C102.473 115.047 103.619 116.417 105.803 116.417C107.987 116.417 109.141 115.047 109.897 114.14C110.163 113.822 110.354 113.614 110.503 113.477L108.693 109.703Z" fill="#89BDEC"/>
<path d="M70.6451 7.30383C70.0804 7.99339 69.7648 8.74646 69.5074 9.34528C69.0922 10.3252 68.9843 10.4794 68.5774 10.6155C68.1788 10.7516 68.0045 10.6972 67.1492 10.1709C66.1693 9.56304 64.6912 8.63758 62.6153 9.36343C60.5311 10.0893 59.7671 11.5954 59.2938 12.7114C58.8786 13.6913 58.7125 13.6641 58.3139 13.8002C58.3056 13.8002 58.2974 13.8093 58.2891 13.8093L61.021 17.1935C62.0091 16.3679 62.4991 15.3789 62.8395 14.5805C63.2547 13.6006 63.3793 13.4917 63.7778 13.3556C64.1764 13.2195 64.3591 13.2921 65.2144 13.8274C66.1942 14.4353 67.6723 15.3698 69.7566 14.644C71.8408 13.9181 72.555 12.2305 73.0283 11.1145C73.1943 10.7153 73.3106 10.4613 73.4185 10.2798L70.6451 7.30383Z" fill="#89BDEC"/>
<path d="M24.0274 6.39655C23.305 6.86835 22.7819 7.47625 22.375 7.9662C21.7107 8.75556 21.5612 8.86443 21.1377 8.86443C20.7142 8.86443 20.5647 8.75556 19.9004 7.9662C19.1364 7.05888 17.9905 5.68884 15.8066 5.68884C13.6227 5.68884 12.4685 7.47625 11.7129 8.38356C11.0486 9.17292 10.8991 9.69916 10.4756 9.69916C10.4673 9.69916 10.459 9.69916 10.459 9.69916L12.1114 13.2286C13.2823 12.7749 14.0296 11.6862 14.5694 11.042C15.2337 10.2526 15.3831 10.0349 15.8066 10.0349C16.2301 10.0349 16.3796 10.0893 17.0439 10.8877C17.8078 11.7951 18.9538 13.1379 21.1377 13.1379C23.3216 13.1379 24.4758 11.7588 25.2315 10.8514C25.4972 10.5339 25.6882 10.3161 25.8376 10.18L24.0274 6.39655Z" fill="#FF7700"/>
<path d="M29.0762 35.2491C28.3538 35.7209 27.8306 36.3288 27.4237 36.8187C26.7594 37.6081 26.61 37.717 26.1865 37.717C25.763 37.717 25.6135 37.6081 24.9492 36.8187C24.1853 35.9114 23.0393 34.5414 20.8555 34.5414C18.6716 34.5414 17.5173 35.5122 16.7617 36.4195C16.0974 37.2089 15.9479 36.9185 15.5244 36.9185C15.5244 36.9185 15.5078 36.9185 15.4995 36.9185L17.1603 41.2646C18.3311 40.8109 19.0785 40.1304 19.6182 39.4862C20.2825 38.6969 20.432 38.6878 20.8555 38.6878C21.2789 38.6878 21.4284 38.8511 22.0927 39.6405C22.8567 40.5478 24.0026 41.945 26.1865 41.945C28.3704 41.945 29.5246 40.5841 30.2802 39.6768C30.5459 39.3592 30.737 39.1505 30.8864 39.0235L29.0762 35.2491Z" fill="#FFDD4D"/>
<path d="M85.4424 44.3766C84.72 44.8484 84.1969 45.4564 83.79 45.9463C83.1257 46.7357 82.9762 46.8445 82.5527 46.8445C82.1292 46.8445 81.9798 46.7357 81.3155 45.9463C80.5515 45.039 79.4056 43.6689 77.2217 43.6689C75.0378 43.6689 73.8836 45.0662 73.1279 45.9735C72.4636 46.7629 72.3142 46.899 71.8907 46.899C71.8824 46.899 71.874 46.899 71.8657 46.899L73.5265 50.8186C74.6973 50.3649 75.4447 49.4757 75.9844 48.8225C76.6487 48.0331 76.7982 47.9152 77.2217 47.9152C77.6452 47.9152 77.7946 48.024 78.4589 48.8134C79.2229 49.7207 80.3688 51.0908 82.5527 51.0908C84.7366 51.0908 85.8908 49.7207 86.6465 48.8134C86.9122 48.4958 87.1032 48.2872 87.2527 48.1511L85.4424 44.3766Z" fill="#89BDEC"/>
<path d="M2.72837 112.489C2.55399 113.387 2.62872 114.221 2.67855 114.875C2.76989 115.945 2.74496 116.145 2.45433 116.481C2.172 116.825 1.99763 116.871 1.00948 116.871C-0.119832 116.88 -1.8138 116.889 -3.29187 118.658C-4.76163 120.428 -4.73672 122.151 -4.63707 123.376C-4.54573 124.447 -4.70349 124.51 -4.98582 124.855C-4.99412 124.864 -4.99414 124.864 -5.00244 124.873L-1.08303 126.307C-0.601416 125.055 -0.634672 123.921 -0.709406 123.05C-0.800747 121.979 -0.74258 121.816 -0.460252 121.471C-0.177924 121.126 0.0130205 121.099 1.00117 121.09C2.13048 121.081 3.83276 121.081 5.31083 119.312C6.7889 117.542 6.63116 115.691 6.53151 114.466C6.49829 114.031 6.4817 113.75 6.49 113.532L2.72837 112.489Z" fill="#FFDD4D"/>
<path d="M12.9501 76.7858C12.2941 77.3664 11.8623 78.056 11.5218 78.5913C10.9655 79.4805 10.8326 79.6075 10.4174 79.6801C10.0022 79.7436 9.83617 79.6619 9.07222 78.9815C8.20032 78.2012 6.88833 77.0217 4.72104 77.3664C2.55375 77.7112 1.5739 79.054 0.934513 80.0702C0.378159 80.9594 0.220399 80.905 -0.194791 80.9685C-0.203095 80.9685 -0.211423 80.9685 -0.219727 80.9685L1.96417 84.7973C3.06858 84.1622 3.69968 83.273 4.15639 82.5472C4.71274 81.658 4.85388 81.5764 5.26907 81.5038C5.68426 81.4403 5.85033 81.5492 6.61428 82.2296C7.48618 83.0099 8.80647 84.1985 10.9655 83.8537C13.1244 83.5089 14.0877 81.9847 14.7271 80.9685C14.9513 80.6055 15.1091 80.3787 15.2419 80.2154L12.9501 76.7858Z" fill="#89BDEC"/>
</svg>
