<svg width="75" height="75" viewBox="0 0 75 75" fill="none" xmlns="http://www.w3.org/2000/svg">
<path d="M73.75 6.25H62.5V1.25C62.5 0.559687 61.9403 0 61.25 0H13.75C13.0597 0 12.5 0.559687 12.5 1.25V6.25H1.25C0.559687 6.25 0 6.80969 0 7.5V22.5C0.006875 28.7103 5.03969 33.7431 11.25 33.75H12.5588C13.1177 45.6208 21.9952 55.4383 33.75 57.185V65H21.25C16.4202 65.0062 12.5063 68.9202 12.5 73.75C12.5 74.4403 13.0597 75 13.75 75H61.25C61.9403 75 62.5 74.4403 62.5 73.75C62.4945 68.9198 58.5802 65.0055 53.75 65H41.25V57.1838C53.0044 55.437 61.8817 45.6203 62.4412 33.75H63.75C69.9603 33.7431 74.9931 28.7103 75 22.5V7.5C75 6.80969 74.4403 6.25 73.75 6.25ZM12.5 31.25H11.25C6.41984 31.2445 2.50547 27.3302 2.5 22.5V8.75H12.5V31.25ZM53.75 67.5C56.7191 67.5033 59.2773 69.5917 59.875 72.5H15.125C15.727 69.5944 18.2827 67.5081 21.25 67.5H53.75ZM36.25 65V57.4675C36.2725 57.4675 36.2938 57.4675 36.3162 57.4675C36.715 57.4875 37.1087 57.5 37.5 57.5C37.8913 57.5 38.285 57.4875 38.6838 57.4675C38.7062 57.4675 38.7275 57.4675 38.75 57.4675V65H36.25ZM60 32.5C60.0306 44.0216 51.3284 53.6931 39.8675 54.875C39.0811 54.9588 38.2908 55.0005 37.5 55C37.115 55 36.73 54.9888 36.3375 54.9675C35.945 54.9462 35.5462 54.9125 35.1325 54.8688C23.6741 53.6872 14.9727 44.0192 15 32.5V2.5H60V32.5ZM72.5 22.5C72.4945 27.3302 68.5802 31.2445 63.75 31.25H62.5V8.75H72.5V22.5Z" fill="#EC5252"/>
<path d="M53.9021 19.2671C53.667 18.9422 53.2901 18.7499 52.889 18.75H42.0415L38.689 8.43377C38.4734 7.77799 37.767 7.42096 37.1112 7.63659C36.7339 7.76065 36.4381 8.05643 36.314 8.43377L32.9589 18.75H22.1114C21.4211 18.7506 20.8618 19.3106 20.8623 20.001C20.8626 20.4006 21.0542 20.7763 21.3775 21.0113L30.1525 27.3863L26.8 37.7038C26.5875 38.3606 26.9476 39.0653 27.6045 39.2778C27.9845 39.4008 28.4004 39.3347 28.7237 39.1L37.5001 32.7263L46.2764 39.1013C46.835 39.5069 47.6167 39.3828 48.0223 38.8242C48.257 38.501 48.3231 38.085 48.2001 37.705L44.8476 27.3875L53.6226 21.0125C54.1818 20.6077 54.307 19.8261 53.9021 19.2671ZM42.6389 25.9C42.2015 26.2183 42.0184 26.7817 42.1851 27.2963L44.6289 34.8175L38.2314 30.17C37.7931 29.8514 37.1996 29.8514 36.7614 30.17L30.3639 34.8175L32.8076 27.2963C32.9743 26.7817 32.7914 26.2183 32.3539 25.9L25.9589 21.25H33.8676C34.4092 21.25 34.889 20.9013 35.0564 20.3863L37.5001 12.865L39.9439 20.3863C40.1112 20.9013 40.5911 21.25 41.1326 21.25H49.0414L42.6389 25.9Z" fill="#EC5252"/>
</svg>
