<svg width="75" height="75" viewBox="0 0 75 75" fill="none" xmlns="http://www.w3.org/2000/svg">
<path d="M52.7344 32.8125C54.8203 32.8125 56.8595 32.1939 58.5939 31.035C60.3283 29.8761 61.6801 28.2289 62.4784 26.3017C63.2767 24.3746 63.4855 22.2539 63.0786 20.208C62.6716 18.1621 61.6671 16.2829 60.1921 14.8079C58.7171 13.3329 56.8379 12.3284 54.792 11.9214C52.7461 11.5145 50.6255 11.7233 48.6983 12.5216C46.7711 13.3199 45.1239 14.6717 43.965 16.4061C42.8061 18.1405 42.1875 20.1797 42.1875 22.2656C42.1909 25.0618 43.3032 27.7424 45.2804 29.7196C47.2576 31.6968 49.9382 32.8091 52.7344 32.8125ZM52.7344 14.0625C54.3568 14.0625 55.9428 14.5436 57.2918 15.445C58.6408 16.3464 59.6922 17.6275 60.3131 19.1264C60.9339 20.6254 61.0964 22.2747 60.7799 23.866C60.4634 25.4572 59.6821 26.9189 58.5349 28.0661C57.3876 29.2133 55.926 29.9946 54.3347 30.3111C52.7435 30.6277 51.0941 30.4652 49.5952 29.8443C48.0963 29.2235 46.8151 28.172 45.9137 26.823C45.0124 25.474 44.5312 23.8881 44.5312 22.2656C44.5337 20.0908 45.3988 18.0057 46.9366 16.4679C48.4745 14.93 50.5595 14.065 52.7344 14.0625Z" fill="#EC5252"/>
<path d="M72.6562 22.2654C72.6626 18.4309 71.5605 14.6763 69.4826 11.4537C67.4047 8.23112 64.4395 5.67787 60.9441 4.10142C57.4487 2.52497 53.5721 1.99253 49.7811 2.56822C45.9901 3.14391 42.4463 4.80318 39.5765 7.34623C38.1123 7.1375 36.6352 7.03216 35.1562 7.031C29.9049 7.02933 24.73 8.28843 20.0665 10.7025C15.403 13.1165 11.3872 16.6149 8.35683 20.9035C5.32642 25.1921 3.36994 30.1456 2.65187 35.3476C1.93381 40.5495 2.47515 45.8478 4.23038 50.797C4.23976 50.8204 4.24444 50.8439 4.25382 50.8661C6.85306 58.147 11.9396 64.2763 18.6165 68.1732C25.2934 72.0701 33.1319 73.4842 40.7496 72.1664C48.3674 70.8485 55.2752 66.8832 60.2549 60.9697C65.2346 55.0563 67.9665 47.5744 67.9687 39.8435C67.9671 38.5018 67.8798 37.1616 67.7073 35.831C70.5339 30.8494 72.6562 25.8982 72.6562 22.2654ZM70.3124 22.2654C70.3124 30.8107 56.4398 48.6197 52.7343 53.2228C49.0288 48.6197 35.1562 30.8201 35.1562 22.2654C35.1562 17.6034 37.0081 13.1323 40.3047 9.83576C43.6012 6.53923 48.0723 4.68725 52.7343 4.68725C57.3963 4.68725 61.8674 6.53923 65.1639 9.83576C68.4604 13.1323 70.3124 17.6034 70.3124 22.2654ZM25.7812 10.8572V12.8904C25.7812 13.2012 25.6577 13.4992 25.4379 13.719C25.2182 13.9388 24.9201 14.0623 24.6093 14.0623C23.6783 14.0669 22.7868 14.4387 22.1285 15.0971C21.4702 15.7554 21.0983 16.6469 21.0937 17.5779V23.4372C21.0937 23.748 20.9702 24.0461 20.7504 24.2659C20.5307 24.4857 20.2326 24.6091 19.9218 24.6091H15.2343C14.3019 24.6091 13.4077 24.9795 12.7484 25.6388C12.0891 26.2981 11.7187 27.1923 11.7187 28.1247C11.7233 29.0557 12.0952 29.9473 12.7535 30.6056C13.4118 31.2639 14.3033 31.6358 15.2343 31.6404H26.953C27.8854 31.6404 28.7797 32.0108 29.439 32.6701C30.0983 33.3294 30.4687 34.2236 30.4687 35.156V38.6716C30.4687 39.604 30.0983 40.4982 29.439 41.1575C28.7797 41.8169 27.8854 42.1872 26.953 42.1872H25.7812C25.2359 42.1901 24.6986 42.3185 24.2109 42.5623C23.7232 42.8062 23.2981 43.159 22.9687 43.5935L20.6249 46.7142C20.1663 47.3247 19.9194 48.0682 19.9218 48.8318V58.1048L17.9882 56.1712C17.663 55.8439 17.4403 55.429 17.3472 54.9771L16.7612 52.0474C16.6001 51.2508 16.1689 50.5343 15.5405 50.0189C14.9122 49.5034 14.1251 49.2207 13.3124 49.2185H6.16984C4.93653 45.412 4.46555 41.3998 4.78383 37.4112C5.10211 33.4226 6.2034 29.5359 8.02475 25.9732C9.8461 22.4105 12.3518 19.2417 15.3986 16.648C18.4453 14.0543 21.9734 12.0865 25.7812 10.8572ZM7.03116 51.5622H13.3124C13.5834 51.5628 13.8457 51.6572 14.0549 51.8294C14.2641 52.0016 14.4071 52.241 14.4597 52.5068L15.0456 55.4435C15.229 56.3467 15.6741 57.1761 16.3253 57.8283L18.2612 59.7654C18.5886 60.094 19.006 60.3181 19.4607 60.4093C19.9155 60.5006 20.3871 60.4548 20.8158 60.2779C21.2445 60.101 21.6111 59.8008 21.8692 59.4155C22.1273 59.0301 22.2652 58.5768 22.2655 58.113V48.8318C22.2631 48.5778 22.3456 48.3303 22.4999 48.1287L24.8437 45.0056C24.9533 44.8601 25.0948 44.7417 25.2573 44.6594C25.4198 44.5771 25.599 44.5332 25.7812 44.531H26.953C28.5065 44.5291 29.9957 43.9112 31.0942 42.8128C32.1926 41.7143 32.8106 40.2251 32.8124 38.6716V35.156C32.8106 33.6026 32.1926 32.1133 31.0942 31.0148C29.9957 29.9164 28.5065 29.2985 26.953 29.2966H15.2343C15.0781 29.2971 14.9234 29.2656 14.7799 29.2039C14.6364 29.1422 14.5071 29.0517 14.3999 28.938C14.2917 28.8323 14.206 28.7057 14.148 28.5659C14.09 28.4261 14.0609 28.2761 14.0624 28.1247C14.0624 27.8139 14.1859 27.5159 14.4056 27.2961C14.6254 27.0763 14.9235 26.9529 15.2343 26.9529H19.9218C20.8542 26.9529 21.7484 26.5825 22.4077 25.9232C23.067 25.2639 23.4374 24.3696 23.4374 23.4372V17.5779C23.4369 17.4217 23.4685 17.267 23.5302 17.1235C23.5918 16.98 23.6823 16.8506 23.796 16.7435C23.9018 16.6353 24.0284 16.5496 24.1681 16.4916C24.3079 16.4336 24.458 16.4045 24.6093 16.406C25.5417 16.406 26.4359 16.0356 27.0952 15.3763C27.7545 14.717 28.1249 13.8228 28.1249 12.8904V10.2033C30.4284 9.65399 32.7881 9.37593 35.1562 9.37475C35.9566 9.37475 36.7323 9.40405 37.4999 9.46147C34.4723 13.0408 32.8115 17.5773 32.8124 22.2654C32.8124 29.1794 40.4788 40.8361 46.0851 48.4415C45.5966 48.6892 45.1732 49.0484 44.8491 49.4899C44.525 49.9315 44.3093 50.443 44.2195 50.9833L43.7027 54.1005C43.6568 54.3731 43.516 54.6208 43.3052 54.7996C43.0944 54.9784 42.8271 55.077 42.5507 55.0779H37.9218C37.3736 55.0778 36.8426 55.2693 36.4206 55.6193L31.1554 60.0197C30.5378 60.5214 30.1111 61.2199 29.9466 61.9984C29.7822 62.777 29.8899 63.5884 30.2519 64.297L31.6405 67.0732V70.1037C26.2633 69.4716 21.1508 67.4216 16.8265 64.1635C12.5022 60.9055 9.1217 56.5566 7.03116 51.5622ZM35.1562 70.3122C34.7636 70.3122 34.3734 70.297 33.9843 70.2829V66.7966C33.9845 66.6148 33.9423 66.4355 33.8612 66.2728L32.3437 63.2447C32.2236 63.0092 32.1883 62.7397 32.2435 62.4812C32.2988 62.2228 32.4413 61.9913 32.6472 61.8255L37.9218 57.4216H42.5507C43.383 57.4236 44.1889 57.1292 44.8239 56.5911C45.4588 56.053 45.8814 55.3063 46.0159 54.4849L46.5316 51.3677C46.5771 51.1192 46.7018 50.892 46.887 50.7201C47.0722 50.5482 47.308 50.4408 47.5593 50.4138C49.8808 53.4771 51.6081 55.5572 51.8343 55.829C51.9443 55.9609 52.0819 56.067 52.2374 56.1398C52.3929 56.2127 52.5626 56.2504 52.7343 56.2504C52.906 56.2504 53.0756 56.2127 53.2312 56.1398C53.3867 56.067 53.5243 55.9609 53.6343 55.829C53.8616 55.556 55.596 53.4665 57.9269 50.3904H60.7499C60.9505 50.3909 61.1476 50.4425 61.3227 50.5403C61.4977 50.6381 61.6451 50.7789 61.7507 50.9494L62.7866 52.6638C60.339 57.9307 56.4386 62.3894 51.544 65.5157C46.6494 68.6421 40.964 70.3061 35.1562 70.3122ZM65.6249 39.8435C65.626 43.2897 65.0399 46.711 63.8917 49.9603L63.7534 49.7329C63.4379 49.2193 62.9963 48.7948 62.4707 48.4997C61.945 48.2046 61.3527 48.0486 60.7499 48.0466H59.6741C61.5632 45.4685 63.6585 42.4615 65.6085 39.3419C65.6109 39.5107 65.6249 39.6736 65.6249 39.8435Z" fill="#EC5252"/>
</svg>
