<svg width="217" height="179" viewBox="0 0 217 179" fill="none" xmlns="http://www.w3.org/2000/svg">
<g clip-path="url(#clip0)">
<path d="M48.9257 147.272C48.2897 147.272 47.7712 146.757 47.7679 146.122C47.7647 145.484 48.28 144.963 48.9192 144.96C49.6269 144.94 50.1519 145.465 50.1584 146.103C50.165 146.741 49.6529 147.265 49.0137 147.275C48.9289 147.272 48.9289 147.272 48.9257 147.272ZM44.6763 147.194C43.9066 147.158 43.4109 146.614 43.4435 145.976C43.4761 145.338 44.0142 144.846 44.6567 144.879C45.3644 144.908 45.8601 145.448 45.8307 146.087C45.8047 146.708 45.2926 147.194 44.6763 147.194ZM53.2436 147.119C52.637 147.119 52.125 146.647 52.0891 146.034C52.05 145.396 52.5359 144.849 53.1751 144.81C53.8893 144.768 54.4372 145.25 54.4763 145.888C54.5155 146.526 54.0296 147.073 53.3904 147.112C53.2925 147.119 53.2664 147.119 53.2436 147.119ZM40.3616 146.871C40.3225 146.871 40.2801 146.868 40.2409 146.865C39.53 146.79 39.0669 146.22 39.1354 145.585C39.2039 144.95 39.7713 144.488 40.4105 144.556C41.1215 144.631 41.5813 145.201 41.5161 145.836C41.4509 146.428 40.9486 146.871 40.3616 146.871ZM57.5485 146.741C56.9647 146.741 56.4657 146.305 56.3972 145.712C56.3255 145.077 56.7853 144.504 57.4213 144.436C58.1257 144.354 58.6997 144.807 58.7747 145.442C58.8497 146.077 58.3964 146.653 57.7604 146.728C57.6365 146.741 57.5941 146.741 57.5485 146.741ZM36.0796 146.275C36.0144 146.275 35.9459 146.269 35.8774 146.259C35.1762 146.135 34.7522 145.54 34.8631 144.908C34.974 144.279 35.5741 143.856 36.2035 143.967C36.9079 144.091 37.3286 144.69 37.221 145.318C37.1199 145.881 36.6307 146.275 36.0796 146.275ZM61.8272 146.109C61.2859 146.109 60.7999 145.728 60.6923 145.178C60.5684 144.553 60.976 143.944 61.6022 143.817C62.2903 143.677 62.9035 144.078 63.0339 144.699C63.1644 145.325 62.7632 145.937 62.1371 146.067C61.9773 146.103 61.9022 146.109 61.8272 146.109ZM31.8497 145.383C31.7551 145.383 31.6606 145.37 31.566 145.347C30.8779 145.178 30.4996 144.55 30.6528 143.928C30.8061 143.306 31.4355 142.928 32.0552 143.085C32.7531 143.26 33.1281 143.889 32.9716 144.511C32.8379 145.035 32.3683 145.383 31.8497 145.383ZM65.9625 145.233C65.4309 145.233 64.9515 144.866 64.8309 144.325C64.6939 143.7 65.0852 143.085 65.7114 142.945C66.3865 142.798 67.0159 143.192 67.1529 143.814C67.2898 144.439 66.9083 145.051 66.2821 145.188C66.1288 145.227 66.044 145.233 65.9625 145.233ZM70.2054 144.302C69.6771 144.302 69.1977 143.938 69.077 143.404C68.9335 142.782 69.3249 142.16 69.951 142.02C70.6196 141.87 71.2555 142.258 71.3958 142.879C71.536 143.501 71.161 144.12 70.5348 144.26C70.375 144.293 70.2902 144.302 70.2054 144.302ZM27.7047 144.156C27.5807 144.156 27.4535 144.136 27.3264 144.094C26.648 143.859 26.3284 143.202 26.5371 142.596C26.7459 141.994 27.4079 141.671 28.0112 141.883C28.683 142.114 29.0059 142.772 28.7972 143.378C28.6341 143.856 28.1873 144.156 27.7047 144.156ZM74.4385 143.345C73.9135 143.345 73.4373 142.987 73.3101 142.453C73.1634 141.831 73.5482 141.209 74.1711 141.063C74.8755 140.903 75.4984 141.294 75.6387 141.916C75.7789 142.538 75.3876 143.159 74.7647 143.299C74.6146 143.335 74.5266 143.345 74.4385 143.345ZM23.6868 142.567C23.527 142.567 23.3639 142.534 23.2106 142.463C22.5551 142.163 22.3008 141.476 22.5682 140.897C22.8356 140.317 23.5237 140.063 24.1042 140.33C24.75 140.623 25.0076 141.307 24.7434 141.89C24.551 142.313 24.1271 142.567 23.6868 142.567ZM78.6619 142.365C78.1368 142.365 77.6639 142.007 77.5367 141.476C77.3867 140.854 77.7715 140.232 78.3944 140.083C79.0956 139.92 79.7185 140.304 79.8653 140.926C80.012 141.548 79.6239 142.17 79.001 142.316C78.8412 142.355 78.7499 142.365 78.6619 142.365ZM82.8787 141.362C82.3536 141.362 81.8807 141.004 81.7535 140.473C81.6035 139.851 81.9883 139.23 82.6113 139.08C83.3026 138.914 83.9288 139.295 84.0788 139.917C84.2288 140.538 83.844 141.164 83.2244 141.313C83.058 141.352 82.9667 141.362 82.8787 141.362ZM19.8515 140.584C19.6526 140.584 19.4504 140.532 19.2678 140.424C18.6514 140.063 18.4655 139.357 18.7884 138.803C19.1112 138.253 19.8222 138.067 20.3733 138.39C20.9897 138.751 21.1756 139.457 20.8527 140.011C20.6375 140.379 20.2494 140.584 19.8515 140.584ZM87.089 140.34C86.5672 140.34 86.0943 139.988 85.9638 139.461C85.8106 138.839 86.1889 138.214 86.8118 138.061C87.5064 137.888 88.1326 138.269 88.2859 138.888C88.4391 139.51 88.0608 140.135 87.4379 140.288C87.2749 140.327 87.1803 140.34 87.089 140.34ZM91.2927 139.291C90.7742 139.291 90.3013 138.94 90.1676 138.412C90.0143 137.794 90.3926 137.165 91.0123 137.012C91.7004 136.84 92.3298 137.214 92.4864 137.833C92.6429 138.451 92.2679 139.08 91.6482 139.239C91.4786 139.282 91.384 139.291 91.2927 139.291ZM95.49 138.223C94.9714 138.223 94.5018 137.875 94.3681 137.351C94.2116 136.732 94.5866 136.104 95.2062 135.944C95.2584 135.931 95.5617 137.048 95.5617 137.048L95.8389 138.171C95.6791 138.21 95.5845 138.223 95.49 138.223ZM16.2642 138.191C16.0228 138.191 15.775 138.116 15.5662 137.956C14.9955 137.523 14.8944 136.797 15.2825 136.289C15.6706 135.782 16.3979 135.681 16.9066 136.068C17.4741 136.495 17.5752 137.221 17.1904 137.732C16.9621 138.031 16.6131 138.191 16.2642 138.191ZM99.6807 137.13C99.1654 137.13 98.6958 136.784 98.5588 136.263C98.399 135.645 98.7708 135.013 99.3904 134.854C100.072 134.671 100.708 135.039 100.874 135.655C101.041 136.273 100.672 136.905 100.056 137.071C99.8764 137.12 99.7753 137.13 99.6807 137.13ZM103.865 136.013C103.353 136.013 102.887 135.671 102.746 135.153C102.58 134.535 102.948 133.903 103.565 133.737C104.25 133.551 104.886 133.913 105.055 134.528C105.225 135.143 104.86 135.782 104.243 135.951C104.064 136 103.963 136.013 103.865 136.013ZM12.9866 135.384C12.6963 135.384 12.4061 135.277 12.1811 135.059C11.6625 134.551 11.6593 133.818 12.106 133.362C12.5561 132.907 13.2899 132.9 13.7432 133.349C14.2487 133.838 14.2617 134.57 13.8182 135.029C13.5932 135.267 13.2899 135.384 12.9866 135.384ZM108.039 134.87C107.531 134.87 107.064 134.535 106.924 134.02C106.754 133.405 107.116 132.767 107.733 132.597C108.414 132.405 109.057 132.767 109.23 133.379C109.403 133.994 109.044 134.632 108.427 134.805C108.245 134.857 108.144 134.87 108.039 134.87ZM112.207 133.698C111.702 133.698 111.235 133.362 111.092 132.851C110.919 132.236 111.278 131.598 111.894 131.425C112.572 131.23 113.215 131.585 113.391 132.197C113.567 132.812 113.215 133.45 112.599 133.629C112.416 133.685 112.312 133.698 112.207 133.698ZM116.369 132.496C115.866 132.496 115.403 132.167 115.256 131.66C115.08 131.044 115.433 130.406 116.049 130.227C116.727 130.028 117.373 130.377 117.552 130.989C117.732 131.601 117.383 132.246 116.77 132.425C116.584 132.483 116.473 132.496 116.369 132.496ZM10.0873 132.2C9.74816 132.2 9.41224 132.054 9.18396 131.767C8.73716 131.21 8.81543 130.484 9.31441 130.084C9.81338 129.683 10.5439 129.765 10.9418 130.263C11.3886 130.82 11.3103 131.546 10.8113 131.946C10.5993 132.115 10.3417 132.2 10.0873 132.2ZM120.517 131.266C120.021 131.266 119.561 130.943 119.408 130.445C119.222 129.833 119.568 129.188 120.181 129.003C120.866 128.798 121.515 129.143 121.697 129.755C121.883 130.367 121.534 131.012 120.921 131.197C120.742 131.249 120.628 131.266 120.517 131.266ZM124.659 129.999C124.166 129.999 123.71 129.683 123.553 129.188C123.361 128.579 123.7 127.928 124.313 127.739C125.001 127.528 125.65 127.87 125.839 128.479C126.028 129.087 125.686 129.735 125.076 129.927C124.89 129.983 124.773 129.999 124.659 129.999ZM128.791 128.693C128.302 128.693 127.845 128.381 127.688 127.889C127.493 127.28 127.829 126.629 128.438 126.434C129.117 126.216 129.769 126.548 129.965 127.157C130.16 127.766 129.828 128.417 129.218 128.612C129.029 128.677 128.908 128.693 128.791 128.693ZM7.59572 128.671C7.21089 128.671 6.83585 128.479 6.62061 128.127C6.24556 127.528 6.41188 126.812 6.95652 126.476C7.49788 126.138 8.21536 126.304 8.55127 126.847C8.91979 127.443 8.75347 128.163 8.20884 128.498C8.01643 128.615 7.80444 128.671 7.59572 128.671ZM132.903 127.355C132.421 127.355 131.967 127.052 131.804 126.567C131.599 125.962 131.925 125.304 132.531 125.102C133.216 124.874 133.872 125.203 134.074 125.812C134.276 126.418 133.947 127.072 133.337 127.274C133.151 127.336 133.024 127.355 132.903 127.355ZM137.003 125.968C136.523 125.968 136.073 125.669 135.907 125.19C135.698 124.588 136.018 123.927 136.621 123.718C137.299 123.484 137.958 123.806 138.167 124.412C138.376 125.014 138.053 125.675 137.449 125.884C137.257 125.949 137.13 125.968 137.003 125.968ZM5.56396 124.887C5.13021 124.887 4.71277 124.64 4.51383 124.223C4.21053 123.565 4.46491 122.878 5.04868 122.615C5.62918 122.348 6.31731 122.602 6.58473 123.184C6.88477 123.823 6.63365 124.51 6.05641 124.783C5.89661 124.851 5.73028 124.887 5.56396 124.887ZM141.086 124.532C140.61 124.532 140.166 124.239 139.996 123.767C139.781 123.165 140.094 122.504 140.694 122.286C141.366 122.045 142.031 122.357 142.247 122.957C142.462 123.559 142.149 124.22 141.549 124.438C141.35 124.513 141.216 124.532 141.086 124.532ZM145.152 123.044C144.686 123.044 144.246 122.761 144.07 122.299C143.841 121.7 144.145 121.032 144.742 120.808C145.413 120.557 146.082 120.86 146.307 121.456C146.532 122.055 146.229 122.722 145.629 122.943C145.426 123.018 145.289 123.044 145.152 123.044ZM149.193 121.491C148.73 121.491 148.29 121.211 148.114 120.752C147.882 120.156 148.179 119.486 148.776 119.255C149.431 118.994 150.103 119.284 150.341 119.88C150.576 120.472 150.286 121.146 149.692 121.381C149.474 121.465 149.333 121.491 149.193 121.491ZM3.94963 120.896C3.47023 120.896 3.02017 120.593 2.85385 120.114C2.6223 119.443 2.9419 118.782 3.54524 118.574C4.15183 118.366 4.81061 118.685 5.01933 119.287C5.25414 119.964 4.93127 120.622 4.32468 120.83C4.20401 120.873 4.07682 120.896 3.94963 120.896ZM153.208 119.87C152.751 119.87 152.321 119.6 152.138 119.154C151.893 118.564 152.174 117.887 152.768 117.643C153.42 117.369 154.098 117.646 154.346 118.235C154.594 118.825 154.317 119.502 153.726 119.749C153.505 119.841 153.355 119.87 153.208 119.87ZM157.187 118.164C156.743 118.164 156.319 117.91 156.127 117.477C155.866 116.894 156.13 116.21 156.714 115.95C157.369 115.66 158.054 115.924 158.312 116.507C158.573 117.089 158.305 117.773 157.721 118.034C157.503 118.131 157.343 118.164 157.187 118.164ZM2.74297 116.761C2.22116 116.761 1.74502 116.406 1.61783 115.875C1.44825 115.188 1.82655 114.563 2.44945 114.41C3.06909 114.257 3.69852 114.634 3.8518 115.256C4.02138 115.956 3.63655 116.581 3.01691 116.731C2.92234 116.751 2.83102 116.761 2.74297 116.761ZM161.123 116.36C160.689 116.36 160.272 116.116 160.076 115.696C159.802 115.12 160.05 114.429 160.627 114.156C161.266 113.85 161.958 114.094 162.235 114.67C162.512 115.247 162.268 115.937 161.69 116.214C161.456 116.324 161.286 116.36 161.123 116.36ZM165.001 114.439C164.583 114.439 164.179 114.211 163.973 113.817C163.676 113.251 163.898 112.551 164.466 112.258C165.098 111.929 165.8 112.147 166.093 112.713C166.39 113.28 166.168 113.98 165.601 114.273C165.363 114.397 165.18 114.439 165.001 114.439ZM1.90156 112.538C1.34062 112.538 0.848173 112.131 0.756858 111.558C0.642714 110.861 1.0732 110.268 1.70262 110.164C2.33531 110.063 2.92886 110.49 3.03322 111.121C3.1441 111.834 2.71035 112.427 2.07767 112.525C2.01897 112.531 1.96026 112.538 1.90156 112.538ZM168.803 112.368C168.402 112.368 168.011 112.16 167.795 111.785C167.479 111.232 167.671 110.525 168.229 110.206C168.842 109.855 169.55 110.044 169.87 110.594C170.189 111.147 170 111.854 169.446 112.173C169.194 112.319 168.999 112.368 168.803 112.368ZM172.495 110.109C172.12 110.109 171.751 109.926 171.526 109.591C171.174 109.057 171.321 108.341 171.852 107.989C172.456 107.595 173.173 107.745 173.522 108.279C173.871 108.813 173.724 109.529 173.186 109.881C172.935 110.047 172.713 110.109 172.495 110.109ZM1.38628 108.259C0.792732 108.259 0.283975 107.804 0.231795 107.201C0.173092 106.485 0.649236 105.925 1.28844 105.876C1.93091 105.827 2.48533 106.299 2.53751 106.937C2.59947 107.641 2.12659 108.201 1.48738 108.256C1.45477 108.259 1.41889 108.259 1.38628 108.259ZM176.014 107.598C175.671 107.598 175.335 107.449 175.104 107.162C174.706 106.661 174.791 105.935 175.29 105.537C175.854 105.095 176.581 105.179 176.979 105.681C177.374 106.182 177.289 106.908 176.787 107.305C176.523 107.517 176.268 107.598 176.014 107.598ZM179.246 104.72C178.955 104.72 178.668 104.613 178.447 104.398C177.987 103.955 177.964 103.232 178.411 102.773C178.9 102.262 179.634 102.246 180.097 102.688C180.56 103.131 180.576 103.864 180.133 104.323C179.862 104.6 179.552 104.72 179.246 104.72ZM1.15799 103.955C0.531831 103.955 0.0165517 103.457 0.000245364 102.825C-0.0127997 102.106 0.495957 101.578 1.13516 101.565C1.78742 101.565 2.3027 102.07 2.31574 102.701C2.33205 103.408 1.82655 103.939 1.18734 103.955C1.17756 103.955 1.16778 103.955 1.15799 103.955ZM181.894 101.363C181.692 101.363 181.486 101.311 181.3 101.197C180.752 100.868 180.573 100.159 180.902 99.6116C181.258 99.006 181.969 98.8204 182.52 99.146C183.071 99.4684 183.257 100.178 182.934 100.728C182.67 101.161 182.288 101.363 181.894 101.363ZM1.18082 99.6409C0.505741 99.6214 0.00350663 99.0874 0.0230742 98.4493C0.045903 97.7362 0.577489 97.2316 1.21996 97.2544C1.85916 97.2739 2.3614 97.8079 2.34183 98.446C2.319 99.1493 1.80372 99.6409 1.18082 99.6409ZM183.655 97.4334C183.528 97.4334 183.397 97.4139 183.27 97.3683C182.667 97.1567 182.347 96.4957 182.559 95.8934C182.784 95.2292 183.44 94.9068 184.046 95.1087C184.653 95.3138 184.979 95.9683 184.774 96.5739C184.581 97.1339 184.134 97.4334 183.655 97.4334ZM1.42542 95.3366C0.678588 95.2715 0.212227 94.7082 0.27093 94.0733C0.342678 93.357 0.910137 92.8914 1.54608 92.9533C2.18203 93.0152 2.64839 93.5817 2.58643 94.2198C2.52446 94.8841 2.01897 95.3366 1.42542 95.3366ZM184.747 93.2593C184.682 93.2593 184.614 93.2528 184.545 93.2431C183.916 93.1324 183.495 92.5333 183.603 91.9049C183.736 91.1886 184.343 90.7751 184.972 90.8956C185.602 91.0128 186.016 91.6184 185.899 92.2468C185.791 92.8654 185.302 93.2593 184.747 93.2593ZM2.18855 91.1137C2.08745 91.1137 1.98309 91.1007 1.88199 91.0714C1.26561 90.9021 0.900353 90.2672 1.06994 89.6485C1.26561 88.955 1.90482 88.5969 2.5212 88.7695C3.13758 88.942 3.49632 89.5802 3.32347 90.1955C3.16367 90.7783 2.69731 91.1137 2.18855 91.1137ZM185.282 88.9811C184.558 88.9323 184.079 88.3755 184.125 87.7406C184.167 87.0438 184.715 86.5554 185.357 86.5978C185.996 86.6368 186.482 87.1871 186.443 87.822C186.391 88.5187 185.882 88.9811 185.282 88.9811ZM3.68547 87.0894C3.51915 87.0894 3.34956 87.0536 3.18976 86.9787C2.61252 86.7052 2.36466 86.0149 2.63861 85.4387C2.93864 84.8135 3.63329 84.5563 4.21053 84.833C4.78778 85.1065 5.03889 85.787 4.76169 86.3633C4.5334 86.8452 4.11922 87.0894 3.68547 87.0894ZM185.357 84.6702C184.738 84.6702 184.222 84.1786 184.2 83.5567C184.18 82.8307 184.685 82.3 185.328 82.2837C185.961 82.2707 186.499 82.7721 186.515 83.4135C186.541 84.1102 186.042 84.6475 185.403 84.6735C185.383 84.6703 185.37 84.6702 185.357 84.6702ZM5.8379 83.3711C5.61288 83.3711 5.38459 83.306 5.18239 83.1693C4.65407 82.8079 4.52035 82.0883 4.88235 81.5609C5.29327 80.9715 6.01401 80.8413 6.53907 81.2027C7.06414 81.5674 7.19459 82.2869 6.82933 82.8111C6.57169 83.1953 6.20643 83.3711 5.8379 83.3711ZM185.051 80.3659C184.467 80.3659 183.968 79.9296 183.9 79.3371C183.821 78.6273 184.278 78.0542 184.914 77.9859C185.546 77.9142 186.124 78.3733 186.192 79.0082C186.27 79.7148 185.814 80.2878 185.178 80.3594C185.136 80.3627 185.093 80.3659 185.051 80.3659ZM8.51866 79.998C8.24145 79.998 7.96424 79.9004 7.74248 79.7017C7.26634 79.2752 7.23046 78.5426 7.65769 78.0673C8.13383 77.5366 8.86761 77.5007 9.34376 77.9273C9.8199 78.3538 9.85904 79.0864 9.42855 79.5617C9.15134 79.8678 8.835 79.998 8.51866 79.998ZM11.5745 76.9538C11.2581 76.9538 10.9418 76.8235 10.7135 76.5695C10.2863 76.0942 10.3221 75.3649 10.7983 74.9351C11.3233 74.4597 12.0571 74.4923 12.4876 74.9676C12.9181 75.4398 12.8822 76.1723 12.4093 76.6021C12.1289 76.8561 11.8517 76.9538 11.5745 76.9538ZM184.421 76.0974C183.867 76.0974 183.381 75.7002 183.28 75.1402C183.149 74.4532 183.564 73.8476 184.193 73.7304C184.822 73.6132 185.426 74.0267 185.546 74.6551C185.674 75.3714 185.25 75.9705 184.62 76.0812C184.555 76.0909 184.487 76.0974 184.421 76.0974ZM14.8944 74.1895C14.5487 74.1895 14.2063 74.0364 13.978 73.7402C13.5867 73.2355 13.678 72.5094 14.1835 72.1155C14.7477 71.6792 15.4782 71.7703 15.8695 72.275C16.2609 72.7797 16.1696 73.5057 15.6608 73.8964C15.3934 74.1113 15.1423 74.1895 14.8944 74.1895ZM183.511 71.8778C182.99 71.8778 182.513 71.5229 182.386 70.9922C182.213 70.3149 182.588 69.6833 183.211 69.527C183.831 69.3707 184.46 69.7452 184.62 70.3638C184.793 71.0703 184.408 71.6954 183.785 71.8452C183.691 71.8648 183.599 71.8778 183.511 71.8778ZM18.3905 71.6466C18.022 71.6466 17.66 71.4708 17.4349 71.1452C17.0729 70.6177 17.2067 69.8982 17.735 69.5368C18.3188 69.133 19.0395 69.2633 19.4047 69.7875C19.77 70.3117 19.6396 71.0345 19.1145 71.3959C18.8438 71.5815 18.6155 71.6466 18.3905 71.6466ZM22.0007 69.2698C21.6159 69.2698 21.2408 69.081 21.0223 68.7326C20.6799 68.1921 20.8397 67.479 21.3778 67.1372C21.9844 66.7562 22.7019 66.9158 23.0411 67.4563C23.3835 67.9967 23.2204 68.7098 22.6791 69.0517C22.4279 69.2112 22.2127 69.2698 22.0007 69.2698ZM182.354 67.7167C181.858 67.7167 181.398 67.3976 181.248 66.8995C181.036 66.219 181.379 65.5711 181.992 65.3822C182.605 65.1934 183.251 65.5353 183.44 66.1441C183.652 66.8279 183.306 67.4758 182.696 67.6614C182.579 67.7004 182.465 67.7167 182.354 67.7167ZM25.6859 67.0037C25.2946 67.0037 24.9098 66.8051 24.6945 66.4437C24.3651 65.8967 24.538 65.1869 25.0859 64.8548C25.7022 64.4869 26.4165 64.6659 26.7426 65.2129C27.072 65.7599 26.8926 66.473 26.3415 66.7986C26.0969 66.9516 25.8881 67.0037 25.6859 67.0037ZM29.407 64.8027C29.0092 64.8027 28.6211 64.5976 28.4058 64.2264C28.083 63.6729 28.2721 62.9664 28.8233 62.644C29.4299 62.2859 30.1408 62.4682 30.4669 63.0152C30.7931 63.5654 30.6104 64.2752 30.0626 64.6008C29.8049 64.7538 29.6027 64.8027 29.407 64.8027ZM180.971 63.6273C180.498 63.6273 180.058 63.3375 179.885 62.8687C179.637 62.198 179.947 61.5337 180.547 61.3123C181.147 61.0942 181.812 61.4003 182.034 62.0026C182.279 62.6701 181.972 63.3343 181.372 63.5557C181.238 63.6045 181.105 63.6273 180.971 63.6273ZM33.1444 62.6212C32.7466 62.6212 32.3585 62.4161 32.1432 62.0482C31.8204 61.4979 32.0063 60.7881 32.5574 60.4658C33.1705 60.1044 33.8815 60.29 34.2044 60.8402C34.5305 61.3905 34.3446 62.1003 33.7934 62.4226C33.5423 62.5691 33.3434 62.6212 33.1444 62.6212ZM36.8623 60.4137C36.4709 60.4137 36.0861 60.2151 35.8709 59.8537C35.5382 59.3067 35.7143 58.5969 36.2622 58.2648C36.8655 57.8969 37.5798 58.0695 37.9124 58.6132C38.2451 59.1569 38.0755 59.87 37.5276 60.2053C37.2732 60.3584 37.0645 60.4137 36.8623 60.4137ZM179.383 59.6128C178.929 59.6128 178.499 59.3458 178.313 58.8997C178.036 58.2518 178.31 57.5746 178.9 57.3239C179.49 57.0732 180.169 57.3466 180.42 57.9327C180.7 58.6002 180.42 59.2774 179.829 59.5216C179.683 59.5835 179.529 59.6128 179.383 59.6128ZM40.5345 58.1313C40.1529 58.1313 39.7811 57.9425 39.5593 57.6006C39.2137 57.0634 39.3702 56.3471 39.9083 56.002C40.5084 55.6178 41.2258 55.7708 41.5715 56.3113C41.9172 56.8485 41.7607 57.5648 41.2226 57.9099C40.9682 58.0727 40.7497 58.1313 40.5345 58.1313ZM44.1284 55.7252C43.7664 55.7252 43.4076 55.5559 43.1826 55.2368C42.8141 54.7159 42.938 53.9931 43.4598 53.6251C44.0501 53.2116 44.7708 53.3419 45.1394 53.8628C45.5046 54.387 45.3774 55.1066 44.8524 55.4745C44.5915 55.6568 44.3567 55.7252 44.1284 55.7252ZM177.602 55.6796C177.175 55.6796 176.764 55.4419 176.562 55.035C176.249 54.3773 176.493 53.687 177.07 53.4135C177.648 53.14 178.339 53.3842 178.616 53.9605C178.926 54.5856 178.688 55.2791 178.114 55.5624C177.951 55.6405 177.775 55.6796 177.602 55.6796ZM47.5853 53.1368C47.2461 53.1368 46.9102 52.9902 46.6819 52.7037C46.2808 52.2056 46.3623 51.4762 46.8613 51.079C47.4125 50.633 48.143 50.7111 48.5441 51.206C48.9453 51.7009 48.8702 52.4302 48.3713 52.834C48.0973 53.0521 47.8397 53.1368 47.5853 53.1368ZM175.642 51.8311C175.228 51.8311 174.827 51.6097 174.618 51.2158C174.282 50.6004 174.488 49.8971 175.052 49.5911C175.613 49.285 176.317 49.4934 176.624 50.0534C176.966 50.6948 176.751 51.3948 176.187 51.6944C176.011 51.7888 175.825 51.8311 175.642 51.8311ZM50.8368 50.2943C50.5335 50.2943 50.2302 50.1771 50.0019 49.9427C49.5584 49.4836 49.5714 48.751 50.0313 48.3082C50.5563 47.8101 51.2901 47.8296 51.7304 48.292C52.1706 48.7543 52.1511 49.4869 51.688 49.9264C51.4173 50.1869 51.127 50.2943 50.8368 50.2943ZM173.506 48.0803C173.111 48.0803 172.73 47.8817 172.511 47.5171C172.143 46.9082 172.319 46.1984 172.867 45.8696C173.415 45.5407 174.126 45.7165 174.458 46.2603C174.827 46.8756 174.651 47.5854 174.103 47.9143C173.914 48.0282 173.708 48.0803 173.506 48.0803ZM53.7719 47.1394C53.5143 47.1394 53.2534 47.0547 53.0381 46.8789C52.5424 46.4752 52.4707 45.7458 52.8751 45.2509C53.3219 44.7007 54.0524 44.6258 54.5481 45.0263C55.0471 45.4268 55.1221 46.1561 54.7209 46.6542C54.4405 46.9961 54.1078 47.1394 53.7719 47.1394ZM171.197 44.4305C170.822 44.4305 170.453 44.2481 170.228 43.9128C169.834 43.3234 169.977 42.6039 170.512 42.249C171.044 41.8941 171.764 42.0374 172.12 42.5713C172.518 43.1704 172.371 43.8867 171.836 44.2383C171.64 44.3653 171.419 44.4305 171.197 44.4305ZM56.2407 43.6165C56.0418 43.6165 55.8396 43.5644 55.6569 43.4569C55.1058 43.1346 54.9199 42.4248 55.2427 41.8746C55.5982 41.2624 56.3059 41.0736 56.8603 41.3927C57.4147 41.7118 57.6039 42.4215 57.2843 42.9718C57.0267 43.4113 56.6386 43.6165 56.2407 43.6165ZM168.722 40.8848C168.369 40.8848 168.02 40.7252 167.792 40.4192C167.362 39.8298 167.476 39.107 167.994 38.7293C168.513 38.3549 169.237 38.4689 169.612 38.9833C170.029 39.5433 169.925 40.2661 169.413 40.6503C169.208 40.8099 168.963 40.8848 168.722 40.8848ZM58.067 39.7322C57.9366 39.7322 57.8061 39.7094 57.6757 39.6638C57.0723 39.4489 56.7592 38.7847 56.9777 38.1856C57.2126 37.5181 57.8746 37.2023 58.4779 37.4172C59.0813 37.6288 59.3976 38.2898 59.1856 38.8921C58.9867 39.4359 58.5431 39.7322 58.067 39.7322ZM166.083 37.4595C165.751 37.4595 165.418 37.3163 165.19 37.0395C164.733 36.473 164.811 35.7437 165.31 35.3432C165.809 34.9427 166.537 35.0209 166.938 35.5223C167.381 36.0595 167.313 36.7888 166.82 37.1958C166.605 37.3749 166.344 37.4595 166.083 37.4595ZM59.5933 35.6981C59.44 35.6981 59.2867 35.6688 59.1367 35.6037C58.5497 35.353 58.2757 34.6725 58.5301 34.0832C58.8138 33.4255 59.4987 33.1552 60.0857 33.4092C60.6728 33.6631 60.9434 34.3436 60.6891 34.9297C60.4706 35.4344 60.0433 35.6981 59.5933 35.6981ZM163.285 34.1711C162.969 34.1711 162.652 34.0408 162.424 33.7901C161.945 33.2529 161.987 32.5236 162.463 32.0971C162.943 31.6705 163.673 31.7129 164.1 32.1915C164.573 32.7157 164.537 33.4483 164.061 33.8748C163.839 34.0734 163.562 34.1711 163.285 34.1711ZM61.4913 31.8268C61.3022 31.8268 61.1065 31.7812 60.9304 31.6803C60.3727 31.371 60.1705 30.6645 60.4803 30.1077C60.8195 29.4891 61.5207 29.2839 62.0849 29.59C62.6458 29.8961 62.8545 30.5993 62.548 31.1594C62.2936 31.6119 61.899 31.8268 61.4913 31.8268ZM160.324 31.0259C160.027 31.0259 159.727 30.9119 159.502 30.684C159 30.1761 159.003 29.4435 159.456 28.9942C159.91 28.5449 160.643 28.5481 161.094 29.0007C161.596 29.5086 161.592 30.2412 161.139 30.6905C160.914 30.9152 160.621 31.0259 160.324 31.0259ZM63.7742 28.1639C63.5459 28.1639 63.3176 28.0955 63.1154 27.9588C62.5904 27.5941 62.4599 26.8746 62.8252 26.3504C63.2426 25.7578 63.9666 25.6341 64.4884 26.0052C65.0102 26.3732 65.1342 27.096 64.7656 27.6169C64.5015 27.9881 64.1427 28.1639 63.7742 28.1639ZM157.206 28.0434C156.929 28.0434 156.652 27.9458 156.43 27.7472C155.898 27.2653 155.862 26.5327 156.293 26.0606C156.723 25.5885 157.457 25.5527 157.93 25.9825C158.458 26.4578 158.494 27.1871 158.067 27.6625C157.839 27.9165 157.522 28.0434 157.206 28.0434ZM153.925 25.2401C153.674 25.2401 153.417 25.1587 153.205 24.9894C152.64 24.5336 152.565 23.8075 152.966 23.3094C153.371 22.8145 154.098 22.7363 154.597 23.1368C155.148 23.5763 155.23 24.3024 154.832 24.8038C154.607 25.0903 154.268 25.2401 153.925 25.2401ZM66.4354 24.7517C66.168 24.7517 65.8973 24.6606 65.6788 24.4717C65.1961 24.0517 65.1374 23.3321 65.5581 22.8503C66.0212 22.313 66.7517 22.2609 67.2377 22.6777C67.7236 23.0945 67.7758 23.8238 67.3583 24.3089C67.0909 24.615 66.7615 24.7517 66.4354 24.7517ZM150.491 22.6321C150.26 22.6321 150.025 22.5637 149.819 22.4172C149.239 22.0037 149.115 21.2809 149.487 20.76C149.858 20.239 150.582 20.1186 151.101 20.4897C151.682 20.9032 151.805 21.626 151.434 22.147C151.209 22.4628 150.853 22.6321 150.491 22.6321ZM69.4423 21.6749C69.1292 21.6749 68.8194 21.5512 68.5911 21.3037C68.1573 20.8349 68.1867 20.1023 68.6563 19.6692C69.1879 19.1841 69.9184 19.2167 70.3522 19.6888C70.7859 20.1609 70.7533 20.8902 70.2804 21.3232C70.0065 21.5739 69.7227 21.6749 69.4423 21.6749ZM146.897 20.2423C146.689 20.2423 146.477 20.1869 146.284 20.0665C145.681 19.6953 145.511 18.9822 145.847 18.4385C146.183 17.8948 146.897 17.7255 147.442 18.0608C148.055 18.4418 148.218 19.1548 147.882 19.6953C147.664 20.0502 147.285 20.2423 146.897 20.2423ZM72.7818 18.9204C72.4263 18.9204 72.0741 18.7608 71.8491 18.4548C71.4675 17.9404 71.5654 17.2241 72.0806 16.8464C72.6514 16.4231 73.3754 16.5273 73.7602 17.0385C74.1418 17.5496 74.0374 18.2757 73.5254 18.6567C73.2743 18.8455 73.0264 18.9204 72.7818 18.9204ZM143.157 18.0966C142.977 18.0966 142.795 18.0543 142.622 17.9664C141.983 17.6278 141.767 16.9278 142.067 16.3645C142.367 15.8012 143.069 15.5863 143.633 15.8859C144.259 16.2115 144.477 16.9082 144.184 17.4748C143.978 17.8687 143.574 18.0966 143.157 18.0966ZM76.3757 16.5598C75.9779 16.5598 75.5898 16.3547 75.3745 15.9868C75.0517 15.4366 75.2375 14.7268 75.7887 14.4044C76.3986 14.043 77.1095 14.2254 77.4356 14.7756C77.7618 15.3259 77.5791 16.0356 77.0312 16.3612C76.7769 16.5078 76.5747 16.5598 76.3757 16.5598ZM139.269 16.218C139.113 16.218 138.956 16.1854 138.803 16.1203C138.151 15.837 137.883 15.1533 138.137 14.5672C138.392 13.9812 139.077 13.7142 139.664 13.9681C140.319 14.2547 140.587 14.9384 140.329 15.5245C140.14 15.9608 139.716 16.218 139.269 16.218ZM135.255 14.6323C135.131 14.6323 135.003 14.6128 134.876 14.5705C134.195 14.3295 133.878 13.6686 134.09 13.0663C134.302 12.4639 134.964 12.1481 135.568 12.3597C136.233 12.5909 136.556 13.2486 136.347 13.8509C136.184 14.3328 135.737 14.6323 135.255 14.6323ZM80.2044 14.5607C79.7642 14.5607 79.3467 14.31 79.1511 13.8867C78.8836 13.3072 79.138 12.6202 79.7185 12.3532C80.3577 12.0537 81.0459 12.3044 81.3198 12.8807C81.5905 13.4602 81.3426 14.1472 80.7621 14.4207C80.5306 14.5282 80.3642 14.5607 80.2044 14.5607ZM131.126 13.3691C131.028 13.3691 130.927 13.356 130.826 13.33C130.141 13.1542 129.769 12.5225 129.932 11.9039C130.092 11.2853 130.725 10.9141 131.344 11.0736C132.042 11.2592 132.411 11.8941 132.244 12.5127C132.107 13.0272 131.638 13.3691 131.126 13.3691ZM84.2028 12.9393C83.7266 12.9393 83.2766 12.643 83.1102 12.1676C82.8982 11.5653 83.2146 10.9043 83.8179 10.6927C84.4865 10.455 85.1485 10.7676 85.3638 11.3699C85.579 11.9723 85.2659 12.6332 84.6626 12.8481C84.4637 12.9165 84.3332 12.9393 84.2028 12.9393ZM126.929 12.3467C126.847 12.3467 126.762 12.3369 126.677 12.3174C125.976 12.1579 125.585 11.5392 125.725 10.9174C125.865 10.2955 126.485 9.90151 127.111 10.0448C127.803 10.1978 128.197 10.8164 128.06 11.4383C127.94 11.9788 127.46 12.3467 126.929 12.3467ZM88.3315 11.6695C87.8162 11.6695 87.3466 11.3243 87.2096 10.8034C87.0466 10.1848 87.4184 9.55313 88.038 9.39033C88.7229 9.208 89.3588 9.57592 89.5219 10.1945C89.6849 10.8132 89.3197 11.4448 88.7 11.6109C88.5272 11.6597 88.4294 11.6695 88.3315 11.6695ZM122.695 11.4643C122.624 11.4643 122.552 11.4578 122.48 11.4448C121.779 11.3146 121.365 10.709 121.482 10.0806C121.6 9.45219 122.206 9.03869 122.836 9.1559C123.54 9.2894 123.951 9.89174 123.834 10.5201C123.729 11.0769 123.243 11.4643 122.695 11.4643ZM118.436 10.7448C118.381 10.7448 118.322 10.7415 118.263 10.7318C117.559 10.6276 117.122 10.0383 117.217 9.40661C117.311 8.77496 117.898 8.33867 118.534 8.43309C119.242 8.54054 119.679 9.1266 119.584 9.75825C119.496 10.3313 119 10.7448 118.436 10.7448ZM92.5483 10.7383C91.9972 10.7383 91.5112 10.3476 91.4101 9.78755C91.296 9.15916 91.7134 8.55682 92.3429 8.44286C93.0375 8.31262 93.6441 8.72612 93.7615 9.35451C93.8789 9.98291 93.4647 10.5885 92.8353 10.7057C92.6853 10.7318 92.6168 10.7383 92.5483 10.7383ZM114.151 10.1945C114.112 10.1945 114.069 10.1913 114.027 10.188C113.316 10.1131 112.856 9.54336 112.921 8.90845C112.987 8.27355 113.561 7.81447 114.193 7.87959C114.904 7.95447 115.367 8.52426 115.299 9.15916C115.237 9.75174 114.735 10.1945 114.151 10.1945ZM96.8206 10.1131C96.2368 10.1131 95.7346 9.67685 95.6693 9.08427C95.5976 8.44937 96.0574 7.87633 96.6934 7.80796C97.4043 7.72981 97.9751 8.18564 98.0468 8.82055C98.1186 9.45545 97.6587 10.0285 97.0228 10.1001C96.9086 10.1099 96.8662 10.1131 96.8206 10.1131ZM109.843 9.83313C109.057 9.78755 108.571 9.2373 108.61 8.6024C108.649 7.96424 109.197 7.47911 109.836 7.51818C110.541 7.55725 111.03 8.10424 110.997 8.7424C110.965 9.35777 110.456 9.83313 109.843 9.83313ZM101.129 9.77127C100.516 9.77127 100.004 9.2894 99.971 8.67077C99.9383 8.03261 100.431 7.48888 101.07 7.45957C101.787 7.4205 102.326 7.9154 102.358 8.55356C102.391 9.19172 101.898 9.73546 101.259 9.76476C101.168 9.76802 101.148 9.77127 101.129 9.77127ZM105.525 9.68336C104.804 9.68011 104.289 9.15916 104.292 8.51775C104.295 7.88284 104.814 7.36841 105.45 7.36841C106.177 7.37818 106.692 7.90238 106.683 8.54054C106.676 9.17544 106.158 9.68336 105.525 9.68336Z" fill="#EC5252"/>
<path fill-rule="evenodd" clip-rule="evenodd" d="M162.326 1.74561H110.211C105.688 1.74561 102.022 5.40851 102.022 9.92771V40.39C102.022 44.9027 105.688 48.5623 110.211 48.5623C110.211 48.5623 112.025 48.5623 115.123 48.5623C116.564 48.5623 111.245 58.444 111.506 58.2487C111.767 58.0533 124.245 48.5623 126.524 48.5623C151.14 48.5623 162.326 48.5623 162.326 48.5623C166.847 48.5623 170.512 44.9027 170.512 40.39V9.92771C170.515 5.40851 166.85 1.74561 162.326 1.74561Z" fill="#F5F5F5"/>
<path d="M111.48 59.3426L110.952 58.9161C110.404 58.4635 110.498 58.2714 111.408 56.4123C112.103 54.9895 114.056 50.9945 114.444 49.4251H110.211C105.222 49.4251 101.165 45.3748 101.165 40.3932V9.92765C101.165 4.94285 105.225 0.885986 110.211 0.885986H162.326C167.316 0.885986 171.373 4.94285 171.373 9.92765V40.39C171.373 45.3715 167.316 49.4219 162.326 49.4219H126.527C125.595 49.4349 120.683 52.3978 112.109 58.8738L111.48 59.3426ZM110.211 2.60185C106.171 2.60185 102.883 5.88707 102.883 9.92439V40.3867C102.883 44.4208 106.171 47.7027 110.211 47.7027H115.123C115.504 47.7027 115.84 47.8851 116.039 48.2074C116.496 48.9367 116.264 50.2326 113.756 55.4974C119.069 51.5838 124.776 47.7027 126.524 47.7027H162.326C166.367 47.7027 169.654 44.4208 169.654 40.3867V9.92765C169.654 5.89032 166.367 2.60511 162.326 2.60511H110.211V2.60185Z" fill="#D6D6D6"/>
<path fill-rule="evenodd" clip-rule="evenodd" d="M167.747 99.7583C163.135 94.3828 150.7 75.645 150.7 75.645C150.7 75.645 150.648 66.994 151.072 64.2232C151.499 61.4557 154.855 55.836 156.006 54.2211C157.157 52.6062 155.797 49.6661 154.512 49.2949C153.224 48.9237 147.109 58.7012 147.109 58.7012C147.109 58.7012 148.163 53.5146 148.828 50.7145C149.493 47.9144 149.617 46.1823 148.378 44.8929C147.139 43.6036 144.641 45.1892 144.641 45.1892C144.641 45.1892 143.946 42.8417 142.247 42.6528C140.551 42.464 138.415 53.5146 138.134 54.7453C137.854 55.976 136.713 54.8951 136.713 54.8951C136.713 54.8951 136.099 42.9426 135.144 41.6077C134.188 40.2728 132.382 40.9565 132.228 43.698C132.075 46.4427 132.303 62.6572 132.303 62.6572C132.303 62.6572 129.74 61.3711 128.566 60.7166C127.392 60.0622 126.978 56.6533 125.275 56.1616C123.573 55.67 123.123 58.5384 124.228 61.6869C125.334 64.8321 134.394 78.1423 138.81 87.2165C143.222 96.2907 147.781 113.941 147.781 113.941L136.416 119.017C136.416 119.017 109.846 102.483 104.263 88.1119C102.068 82.4596 102.469 72.8091 102.469 72.8091C102.469 72.8091 104.328 70.7807 104.488 68.4038C104.645 66.027 102.022 64.4479 102.022 64.4479C102.022 64.4479 102.362 61.3678 97.76 51.9061C94.9357 46.0976 86.5967 42.8026 79.0664 43.1738C74.3344 43.405 70.7828 45.4985 66.4323 48.0251C55.1581 54.5727 55.2918 71.917 54.02 79.3014C52.7481 86.6858 48.7954 89.7431 40.3357 94.6041C31.8792 99.4685 27.0787 106.032 26.5764 114.983C26.0775 123.933 36.37 129.241 36.37 129.241C36.37 129.241 24.6066 147.842 20.2952 160.292C15.9839 172.746 23.4424 176.37 28.5952 177.014C33.7447 177.656 45.4787 175.575 54.0167 173.358C62.5547 171.141 72.4102 164.626 72.4102 164.626L69.8697 177.392H125.275C125.275 177.392 122.565 159.628 122.51 159.328C122.454 159.026 123.707 151.863 123.707 151.863L166.325 133.574L166.625 133.424L177.315 117.151C177.318 117.151 172.361 105.131 167.747 99.7583ZM64.2668 153.653L52.3045 154.399L58.7357 142.381L63.1482 146.188L64.4201 150.143L64.2668 153.653Z" fill="white"/>
<path fill-rule="evenodd" clip-rule="evenodd" d="M52.3043 154.174C52.3043 154.174 56.8929 148.385 58.2855 142.307C58.4159 141.733 56.7103 139.881 56.5668 139.321C55.1253 133.685 55.4025 129.765 56.12 127.753C57.2027 124.705 58.2985 126.844 57.9137 129.843C57.5778 132.461 58.6866 136.286 60.7053 139.057C62.7371 141.844 64.7363 142.977 65.1667 143.58C66.2821 145.142 65.6885 148.056 65.6885 148.056C65.6885 148.056 69.4292 138.344 73.2416 135.293C77.054 132.239 79.9924 132.252 82.0633 133.128C84.1375 134.004 84.8256 134.066 84.3821 135.069C83.9386 136.071 79.9631 135.583 78.4009 136.859C76.8388 138.139 75.1103 140.291 75.1103 140.291C75.1103 140.291 78.4694 137.592 82.4384 138.946C86.4041 140.301 88.2695 141.336 88.2695 141.336C88.2695 141.336 90.1252 142.704 90.1382 145.442C90.1513 148.18 89.5349 147.555 87.9695 146.637C86.4041 145.719 84.2027 144.869 83.0352 145.442C81.8677 146.015 80.8665 146.783 80.8665 146.783C80.8665 146.783 83.5505 147.444 84.8289 150.814C86.1073 154.184 86.2638 157.98 84.9039 157.756C83.5439 157.531 80.7751 150.664 78.1009 151.635C75.9191 152.426 75.3712 157.899 74.8103 160.146C74.2494 162.389 71.7447 164.922 71.7447 164.922L72.2437 165.495L123.185 165.671L122.363 160.221C122.363 160.221 120.465 122.911 120.494 122.524C120.52 122.136 118.475 104.31 118.475 104.31L112.569 101.175C112.569 101.175 95.715 108.175 82.2134 109.686C68.7117 111.193 55.2949 109.91 55.2949 109.91C55.2949 109.91 49.7116 112.03 45.9481 117.151C41.7509 122.865 37.3677 132.532 32.1889 141.935C22.3725 159.761 20.706 167.973 23.2921 172.391C24.1988 173.941 26.5436 175.833 29.4983 176.497C34.9675 177.724 38.7701 176.122 38.7701 176.122C38.7701 176.122 35.7339 171.339 37.3482 164.255C38.9364 157.287 46.1699 154.773 46.1699 154.773L52.3043 154.174Z" fill="#EC5252"/>
<path fill-rule="evenodd" clip-rule="evenodd" d="M97.6881 97.8927C97.6881 97.8927 95.0596 97.8829 93.9507 96.1019C92.8386 94.321 92.082 89.3101 92.082 89.3101C92.082 89.3101 97.3914 85.7123 98.4382 81.1736C99.4818 76.6349 99.9319 74.4567 99.9319 74.4567L102.176 73.5613C102.176 73.5613 102.009 83.1011 104.344 88.5645C107.103 95.021 114.213 99.7616 114.213 99.7616L97.9882 97.7462L97.6881 97.8927Z" fill="#EC5252"/>
<path fill-rule="evenodd" clip-rule="evenodd" d="M101.95 65.2683C101.513 65.2748 98.7349 66.4632 98.7349 66.4632C98.7349 66.4632 97.3749 61.957 94.7725 59.0723C92.17 56.1875 89.1631 53.8465 89.1631 53.8465C89.1631 53.8465 73.9754 62.5659 72.2665 71.015C70.5576 79.464 70.9946 81.6878 70.9946 81.6878L72.6383 81.4632C72.6383 81.4632 73.7145 83.7228 75.1821 85.1196C76.6496 86.5196 78.9945 88.9257 78.9945 88.9257C78.9945 88.9257 82.4286 97.6223 79.5195 99.527C76.6105 101.432 63.2654 103.913 58.3605 105.349C53.4555 106.784 49.0887 109.151 45.5763 114.009C42.0607 118.864 38.0983 126.027 38.0983 126.027C38.0983 126.027 32.5639 124.825 30.1734 118.561C28.2525 113.531 28.2232 107.315 37.2014 100.123C46.1797 92.9305 54.3035 90.8825 56.7918 80.1934C59.2802 69.5042 59.5835 57.8253 65.9136 51.9028C73.2384 45.0523 81.6361 43.6034 89.6914 46.8268C92.7146 48.0347 96.4846 49.6659 98.2881 52.4237C102.169 58.369 102.251 65.265 101.95 65.2683Z" fill="#A89AFF"/>
<path fill-rule="evenodd" clip-rule="evenodd" d="M63.4353 178.522C62.7145 178.522 61.9905 178.522 61.2665 178.522C62.6461 176.168 63.8397 173.628 64.7822 170.835C57.6465 173.439 49.9467 175.764 41.4576 177.181C32.9751 178.594 21.303 179.228 19.255 171.509C18.1266 167.263 19.3398 162.252 20.4518 158.671C23.9871 147.265 30.8455 139.243 35.4047 129.114C29.691 126.506 25.5688 122.025 25.6862 114.335C25.859 103.021 34.2144 97.8698 41.1609 93.0641C43.5709 91.397 46.0625 89.8537 48.1889 87.8383C50.4587 85.6894 51.9002 83.6219 52.8231 80.226C53.6515 77.1785 53.9646 73.3756 54.4668 69.628C55.4354 62.4292 57.4085 56.3634 61.0448 51.714C64.5767 47.198 69.9089 43.8379 76.5945 42.757C80.4134 42.1384 84.1312 42.4444 87.3599 43.5026C95.7968 46.2701 101.038 52.4401 102.463 62.0873C102.583 62.9078 102.46 64.1581 102.763 64.8483C102.955 65.2911 103.764 65.5939 104.11 66.0433C105.039 67.2577 105.61 69.5824 104.707 71.4904C104.423 72.0895 103.559 72.6365 103.36 73.2812C103.216 73.75 103.327 74.4858 103.285 75.1468C102.613 85.7415 106.314 91.7649 111.285 96.7172C128.866 94.4869 138.291 103.529 146.871 111.271C143.098 102.275 140.551 92.0026 135.731 82.9838C132.372 76.6933 128.021 70.9141 124.74 64.399C123.932 62.7939 121.89 59.3003 122.797 56.9365C123.162 55.9792 124.036 55.1685 125.337 55.2955C127.454 55.5006 127.848 58.4798 129 59.9221C129.626 60.7068 130.343 60.9999 131.168 61.4882C131.482 57.9719 131.416 54.0127 131.243 50.2163C131.106 47.2241 130.298 41.3569 132.515 40.2141C134.214 39.3383 136.037 40.9174 136.553 42.2295C137.73 45.2347 136.377 50.8349 137.15 53.9475C137.864 51.6456 138.144 49.3404 138.793 47.0808C139.295 45.3389 140.202 42.0667 142.084 41.7835C144.65 41.396 145.544 44.577 145.374 47.0808C145.244 49.0507 144.761 50.8219 144.328 52.9773C144.174 53.7424 143.953 54.8299 143.731 55.8881C143.489 57.0407 143.209 58.0858 142.237 57.9035C141.203 57.7114 141.722 56.269 141.937 55.2174C142.198 53.9443 142.355 52.9415 142.534 52.0819C143.072 49.5325 144.406 45.3259 142.534 43.6491C141.07 45.1566 140.489 47.7939 139.918 50.366C139.651 51.5707 139.475 52.7266 139.097 54.1722C138.862 55.0611 138.421 56.9918 137.303 57.083C135.989 57.1904 135.499 55.5788 135.284 54.322C135.056 52.9838 135.059 51.2191 135.059 49.767C135.059 46.6804 135.848 42.5974 133.49 41.8551C132.757 43.1477 132.91 44.9677 132.969 46.6315C133.145 51.7075 133.526 57.1904 133.044 62.1557C135.33 63.3018 136.761 64.5748 137.903 67.0819C138.223 67.7884 140.026 71.6011 138.128 71.6337C137.062 71.6499 137.003 69.9927 136.709 69.0973C136.324 67.9284 135.94 67.1307 135.437 66.4112C133.572 63.7381 129.492 63.5655 127.513 61.0357C126.524 59.7724 126.208 58.0435 124.972 57.1546C123.889 58.2454 124.806 59.7431 125.197 60.7361C125.66 61.9083 126.231 63.0315 126.766 64.0213C130.232 70.4094 134.332 76.1626 137.606 82.5312C142.055 91.1821 144.823 101.061 148.597 110.597C152.2 112.235 157.493 112.945 161.156 111.193C164.71 109.493 166.462 106.215 167.362 102.011C163.768 95.1153 158.677 89.2807 154.278 83.0521C152.836 81.0107 151 78.7869 150.165 76.485C149.484 74.6096 149.973 71.6565 149.865 69.3936C149.745 66.8084 149.604 64.4251 150.165 62.452C150.674 60.6612 151.698 58.9975 152.706 57.4509C153.828 55.7318 156.443 52.5703 154.349 50.734C152.99 52.3163 151.943 54.1331 150.612 55.9597C150.022 56.7704 149.435 57.5323 148.668 58.4961C148.257 59.0137 147.374 60.7752 146.35 60.5863C145.048 60.3454 145.873 58.444 146.125 57.4509C147.064 53.7261 147.892 50.3791 148.368 46.4785C147.83 45.7264 146.392 46.2636 146.2 45.2836C145.811 43.304 148.965 44.3882 149.49 44.8375C151.02 46.1399 149.96 49.1125 149.49 51.1833C149.141 52.7136 148.848 54.221 148.518 55.5104C149.334 54.7778 150.094 53.4461 150.984 52.0787C151.926 50.6298 153.224 47.9827 155.321 49.1679C156.163 49.6432 157.448 51.04 156.965 53.4982C156.623 55.2434 155.478 56.7379 154.646 57.9784C153.766 59.2938 152.81 60.5798 152.181 62.3055C151.173 65.0665 151.936 68.5112 151.806 71.7085C151.75 73.1086 151.62 74.6682 151.881 75.5896C152.321 77.1361 153.665 79.0343 154.646 80.4409C157.771 84.908 161.417 89.4435 164.44 93.6534C167.991 98.5959 171.288 105.026 173.712 111.118C174.018 111.893 174.85 113.459 173.562 113.654C172.446 113.824 172.322 112.531 171.993 111.714C170.975 109.184 169.694 106.592 168.702 104.473C167.548 108.116 165.5 111.242 162.124 112.906C158.716 114.586 153.267 114.465 149.565 112.906C150.824 116.236 152.119 119.434 153.528 122.758C153.844 123.51 155.047 125.597 153.903 125.968C152.673 126.366 152.494 125.005 152.109 124.103C151.297 122.208 150.687 120.746 149.94 118.952C149.568 118.053 149.317 117.06 148.893 116.266C148.352 115.247 147.119 114.28 146.203 113.28C143.467 110.301 140.173 107.543 137.009 105.293C133.774 102.995 129.978 100.81 125.719 99.4717C124.388 99.0549 122.21 98.3061 121.01 98.4265C120.149 98.5145 118.6 99.6019 117.497 100.142C109.24 104.19 100.02 107.771 90.0602 109.77C79.1285 111.965 64.8735 111.795 53.5015 110.145C52.7057 110.027 51.7273 109.695 51.1827 109.77C50.7457 109.832 49.8195 110.659 49.164 111.261C44.8233 115.26 41.7609 120.778 39.0704 126.115C35.7798 132.649 32.5609 138.474 29.0518 144.55C25.7155 150.329 22.0433 156.838 20.9019 164.854C20.1975 169.809 21.2019 173.319 24.6393 174.856C27.744 176.243 32.7403 176.295 37.4235 175.751C36.569 173.042 35.8483 170.145 36.0798 166.719C36.4646 160.976 40.551 157.743 43.7797 154.926C43.0687 154.591 41.0663 154.939 40.9391 153.731C40.7826 152.25 42.4132 152.664 43.4796 152.836C45.244 153.119 46.8094 153.364 48.5639 153.507C49.3792 153.575 50.8566 153.803 51.3295 153.657C51.9295 153.468 52.6209 151.657 53.0482 150.896C54.8712 147.649 56.267 145.263 58.0575 142.238C56.5214 140.044 55.4452 137.237 54.9919 133.88C54.8353 132.708 54.6201 131.145 55.8137 131.194C56.5638 131.223 56.6845 132.047 56.7856 132.985C57.0595 135.554 57.6237 137.719 58.5793 139.477C60.2849 142.622 63.5788 143.85 65.0072 147.089C66.2693 143.814 67.6782 140.493 69.9415 137.537C72.0515 134.782 74.6899 132.177 78.7632 131.865C81.5222 131.653 84.5943 132.265 85.1194 134.326C85.4684 135.703 84.7281 136.667 83.9225 137.087C82.6213 137.768 80.8211 137.156 79.36 137.533C78.5675 137.738 78.0979 138.087 77.5663 138.653C79.3111 137.963 81.3135 137.888 83.1724 138.354C85.2857 138.881 87.474 139.936 88.4068 141.265C90.0537 141.978 91.6745 143.762 91.6224 146.041C91.6061 146.806 91.2669 147.695 90.6505 147.982C88.834 148.822 86.799 146.272 84.6693 146.191C83.841 146.158 83.2474 146.38 82.2038 146.712C84.216 148.457 87.3305 151.237 87.2881 155.294C87.2751 156.427 86.9392 157.398 86.3163 157.906C84.0693 159.745 82.4321 156.672 81.607 155.294C80.9287 154.161 79.7481 152.39 78.2447 152.608C76.8847 152.804 76.5521 156.105 76.2259 157.609C75.7074 160.006 75.2541 161.542 74.5073 162.985C72.7853 166.303 70.1828 167.97 67.0292 169.702C66.1943 173.016 64.8311 175.784 63.4353 178.522ZM94.5347 49.8451C91.0256 46.625 85.2107 43.6198 78.4599 44.3947C65.2485 45.9185 58.6021 55.2597 56.629 67.9056C55.9507 72.2458 55.8268 76.7845 54.6103 81.0432C52.3861 88.8249 45.6647 92.0971 39.6574 96.3428C33.9633 100.374 27.519 105.173 27.5451 114.556C27.5647 121.557 31.5369 125.291 36.2168 127.32C40.6293 119.557 43.796 111.86 51.5415 107.165C56.9323 103.9 64.7789 102.604 72.1755 101.194C74.5594 100.741 77.6935 100.455 78.8284 98.9573C80.7982 96.359 78.9719 91.8138 78.3034 89.2546C76.0531 87.6723 74.1518 85.5657 72.6973 83.2833C72.5048 82.9805 72.3777 82.313 71.8004 82.4628C72.0417 85.7252 71.6047 89.2351 70.6785 91.4947C70.2024 92.6538 69.736 93.7283 68.9599 94.9297C68.5033 95.633 67.4271 97.6158 66.3443 97.3163C64.6452 96.8507 66.9053 94.5716 67.1662 94.1808C69.0023 91.4329 70.0328 88.6132 69.8567 84.2536C69.736 81.2386 69.6447 78.6143 70.0067 76.1919C70.3752 73.7207 70.9916 71.6076 71.9504 69.6248C74.9573 63.3929 80.6123 58.1086 86.3032 54.1755C87.099 53.6252 88.3187 52.6452 89.0688 52.6843C89.9004 52.7298 91.1593 54.1755 91.9094 54.9243C95.0467 58.0598 97.8514 61.2929 99.3092 65.5972C99.7201 65.2097 100.467 65.1609 100.878 64.7767C100.366 58.2291 98.3373 53.3354 94.5347 49.8451ZM74.7258 82.9089C76.389 85.3996 78.424 87.5258 81.3037 88.6556C86.0847 90.531 90.9538 89.1049 93.7878 86.4904C98.0405 82.5703 98.9798 75.9901 97.9753 68.6512C97.0785 62.1036 92.8486 58.5123 89.0786 54.768C89.0036 54.768 88.9905 54.7062 88.9286 54.6931C84.9237 57.2881 80.8896 60.6547 77.8631 64.1711C77.7229 64.3339 77.3641 64.6367 77.4881 64.9167C79.0078 64.8614 81.9625 64.7148 81.9005 66.2614C81.8353 67.8666 79.3307 66.5186 77.6381 66.7107C76.5227 66.8344 76.1379 67.3456 75.3193 67.5312C73.1343 70.8718 71.4156 75.0752 71.6569 80.5939C73.6267 80.0827 73.9757 81.7888 74.7258 82.9089ZM103.285 69.2503C103.272 68.0977 102.694 66.7107 101.716 66.6391C100.875 66.5772 100.229 67.2447 99.6973 67.6842C99.9549 69.3903 100.19 71.1225 100.222 73.0597C101.478 72.4411 103.304 71.3081 103.285 69.2503ZM100.219 75.3714C99.9418 82.3358 97.0915 86.7281 92.741 89.6291C93.4552 91.8854 93.2041 94.5032 94.6097 95.9716C95.9272 97.3456 98.7515 97.5377 101.263 97.5377C103.953 97.5377 106.585 97.1828 108.962 97.0167C104.224 92.1719 100.519 84.9243 101.413 74.7007C101.364 74.7007 101.312 74.7007 101.263 74.7007C100.979 74.9872 100.418 74.997 100.219 75.3714ZM80.7037 90.5961C81.8321 93.8976 81.9364 98.7196 79.8068 100.673C78.124 102.216 75.2704 102.526 72.407 103.06C65.7573 104.307 58.1162 105.459 53.5667 108.285C64.6876 109.871 78.274 110.246 88.9286 108.136C99.4918 106.045 108.894 102.317 117.187 98.2084C110.202 97.9317 99.5766 101.409 94.1629 97.9837C91.9387 96.5772 91.6093 93.6078 91.0223 90.5212C88.1817 91.7063 83.3975 91.6608 80.7037 90.3714C80.7037 90.4496 80.7037 90.5245 80.7037 90.5961ZM79.51 135.531C80.5569 135.423 83.1659 135.925 83.2474 135.01C83.2931 134.509 82.3441 134.105 81.8255 133.965C78.1468 132.969 75.2182 134.831 73.4539 136.501C69.8534 139.913 67.6293 144.901 66.0541 150.384C65.8617 151.045 65.4931 153.328 65.0822 153.741C64.4332 154.399 62.2188 154.467 60.8948 154.711C57.1476 155.408 53.1949 155.75 49.0825 155.532C48.2443 155.486 47.2888 155.177 46.6887 155.307C46.1115 155.434 45.1559 156.392 44.52 156.873C42.2697 158.589 40.3749 160.527 39.1356 162.92C37.3941 166.29 37.7952 171.919 39.3606 175.458C48.7466 173.82 55.3963 172.394 63.2103 169.262C66.8303 167.813 70.1698 166.127 72.182 163.216C73.2223 161.708 73.8746 159.732 74.2757 157.84C74.791 155.415 75.0291 151.924 77.0413 150.974C79.8688 149.639 81.9951 152.436 82.9474 153.959C83.5312 154.897 83.9878 156.099 85.0411 156.421C85.7554 154.138 84.578 151.941 83.3225 150.375C82.1354 148.896 80.0677 147.255 77.7163 147.614C76.4803 147.802 75.5215 149.391 74.5007 149.18C74.1811 149.115 73.8322 148.753 73.8289 148.284C73.8159 147.327 75.2247 146.484 76.2944 146.044C77.3185 145.627 78.6425 145.556 79.7318 145.82C81.1211 145.074 82.7289 144.218 84.5911 144.253C86.6555 144.289 88.1883 145.536 89.6754 146.119C89.5906 144.413 88.7459 143.55 87.7317 142.984C83.6453 140.701 78.5675 143.173 75.9194 145.224C75.0975 145.859 73.7572 147.584 72.7788 147.386C72.4788 147.327 72.1331 147.015 72.107 146.565C72.0581 145.787 73.3495 144.778 73.9757 144.25C76.4021 142.209 79.2589 140.805 82.4974 140.145C77.7098 139.438 74.9997 142.179 72.7038 144.621C72.2211 145.136 71.4808 146.441 70.6101 146.337C70.3035 146.301 69.935 146.021 69.8632 145.667C69.6512 144.615 70.9655 143.645 71.5069 143.055C72.3711 142.114 73.0397 141.554 73.7506 140.965C74.9019 138.705 76.4281 135.847 79.51 135.531ZM62.4634 146.279C61.6742 145.432 60.1055 144.325 59.3228 143.667C57.4867 147.008 55.4876 150.186 53.7167 153.595C57.3074 153.471 60.4414 152.895 63.5103 152.253C64.1788 150.492 63.4679 147.356 62.4634 146.279Z" fill="black"/>
<path fill-rule="evenodd" clip-rule="evenodd" d="M87.1348 77.0873C85.664 74.8081 84.415 73.2323 84.6693 69.921C84.9987 65.5874 87.8099 63.4385 92.0691 63.1292C93.253 63.0445 94.3977 63.0413 94.4629 63.9497C94.4694 64.0571 94.4303 64.6236 93.8661 64.845C93.4356 65.0143 92.9594 64.8939 92.4442 64.9199C88.6415 65.1088 86.1336 67.2284 86.538 71.562C86.5902 72.1122 86.7207 72.6169 86.9131 73.1281C87.4642 74.5997 88.9905 75.5928 89.0068 77.0091C89.0199 78.0738 87.9273 80.0078 86.6913 79.5487C85.5401 79.1222 86.613 77.644 87.1348 77.0873Z" fill="black"/>
<path fill-rule="evenodd" clip-rule="evenodd" d="M83.1723 83.4331C83.5148 83.8108 84.167 84.1625 85.1911 84.4034C86.1531 84.6313 87.7838 84.4164 87.8066 85.5234C87.849 87.4119 83.73 85.9402 83.0223 85.5983C82.1157 85.162 79.0795 82.8666 80.2568 81.2712C80.6286 80.7698 81.4634 80.7958 82.0505 80.9717C82.5788 81.1312 83.9974 81.9582 85.7129 82.0917C87.0598 82.1959 89.0361 81.5349 89.0785 82.9122C89.1144 84.1201 87.1348 84.0257 85.8629 83.9573C84.5225 83.8792 84.2453 83.6773 83.1723 83.4331Z" fill="black"/>
<path fill-rule="evenodd" clip-rule="evenodd" d="M129.149 178.522C128.451 178.522 127.754 178.522 127.056 178.522C124.978 174.283 122.979 169.666 122.046 163.968C121.384 159.928 121.423 154.848 121.45 150.085C121.459 148.457 121.371 146.699 121.675 145.383C121.88 144.488 122.741 143.498 123.168 142.772C124.756 140.073 126.009 137.371 126.684 133.815C127.382 130.123 126.566 126.102 125.562 123.067C125.268 122.182 124.381 120.385 125.637 120.157C126.71 119.964 127.131 121.729 127.431 122.618C127.874 123.933 128.145 125.184 128.328 126.05C129.798 133.014 127.577 138.829 125.112 143.218C124.756 143.85 123.615 145.276 123.468 145.904C123.325 146.52 123.419 147.399 123.393 148.219C123.23 153.712 123.22 159.553 123.99 164.118C124.962 169.878 127.14 174.462 129.149 178.522Z" fill="black"/>
<path d="M211.34 178.809H19.5548C19.0787 178.809 18.6938 178.424 18.6938 177.949C18.6938 177.477 19.0787 177.089 19.5548 177.089H211.34C211.816 177.089 212.201 177.474 212.201 177.949C212.198 178.424 211.813 178.809 211.34 178.809Z" fill="black"/>
<path d="M122.438 76.0552C122.22 76.0552 121.998 75.9705 121.832 75.8045L117.869 71.8485C117.533 71.5132 117.533 70.9694 117.869 70.6341C118.205 70.2987 118.75 70.2987 119.086 70.6341L123.048 74.59C123.384 74.9254 123.384 75.4691 123.048 75.8045C122.878 75.9738 122.657 76.0552 122.438 76.0552Z" fill="#D6D6D6"/>
<path d="M118.476 76.0552C118.257 76.0552 118.035 75.9705 117.866 75.8045C117.53 75.4691 117.53 74.9254 117.866 74.59L121.828 70.6341C122.164 70.2987 122.709 70.2987 123.045 70.6341C123.381 70.9694 123.381 71.5132 123.045 71.8485L119.082 75.8045C118.916 75.9738 118.694 76.0552 118.476 76.0552Z" fill="#D6D6D6"/>
<path d="M120.416 77.8557L118.208 81.587H122.624L120.416 77.8557Z" fill="#D6D6D6"/>
<path fill-rule="evenodd" clip-rule="evenodd" d="M90.5131 68.2833C91.3676 68.1205 92.1894 68.6805 92.3525 69.5368L92.6492 71.0866C92.8123 71.9429 92.2546 72.7699 91.4002 72.9327C90.549 73.0955 89.7239 72.5355 89.5608 71.6792L89.264 70.1294C89.101 69.2731 89.6619 68.4493 90.5131 68.2833Z" fill="black"/>
<path fill-rule="evenodd" clip-rule="evenodd" d="M76.5324 70.9108C77.3836 70.748 78.2055 71.3048 78.3685 72.1546L78.6653 73.6946C78.8284 74.5444 78.2707 75.3649 77.4195 75.5277C76.5683 75.6905 75.7465 75.1338 75.5834 74.284L75.2866 72.7439C75.1236 71.8941 75.6812 71.0736 76.5324 70.9108Z" fill="black"/>
<path fill-rule="evenodd" clip-rule="evenodd" d="M65.425 165.931H150.661C153.756 165.931 156.267 168.438 156.267 171.528V175.634C156.267 176.458 155.599 177.128 154.774 177.128H61.3125C60.4874 177.128 59.8188 176.461 59.8188 175.634V171.528C59.8188 168.438 62.3268 165.931 65.425 165.931Z" fill="#F5F5F5"/>
<path d="M154.773 177.988H61.3122C60.0142 177.988 58.9575 176.933 58.9575 175.637V171.531C58.9575 167.973 61.86 165.075 65.4246 165.075H150.661C154.225 165.075 157.128 167.973 157.128 171.531V175.637C157.128 176.933 156.075 177.988 154.773 177.988ZM65.4246 166.791C62.8058 166.791 60.6762 168.917 60.6762 171.531V175.637C60.6762 175.989 60.9632 176.272 61.3122 176.272H154.773C155.122 176.272 155.409 175.989 155.409 175.637V171.531C155.409 168.917 153.28 166.791 150.661 166.791H65.4246Z" fill="black"/>
<path fill-rule="evenodd" clip-rule="evenodd" d="M102.137 96.7595H193.429C198.383 96.7595 202.401 100.771 202.401 105.717V151.276C202.401 156.222 198.383 160.233 193.429 160.233H102.137C97.1829 160.233 93.165 156.222 93.165 151.276V105.717C93.165 100.771 97.1829 96.7595 102.137 96.7595Z" fill="white"/>
<path fill-rule="evenodd" clip-rule="evenodd" d="M104.491 98.4136H195.787C200.74 98.4136 204.758 102.425 204.758 107.371V152.904C204.758 157.853 200.74 161.862 195.787 161.862H104.491C99.5337 161.862 95.519 157.85 95.519 152.904V107.371C95.519 102.425 99.5369 98.4136 104.491 98.4136Z" fill="#E7E7E7"/>
<path d="M193.432 161.09H102.136C96.7162 161.09 92.3037 156.688 92.3037 151.273V105.716C92.3037 100.305 96.7162 95.8999 102.136 95.8999H193.429C198.849 95.8999 203.262 100.302 203.262 105.716V151.276C203.262 156.688 198.852 161.09 193.432 161.09ZM102.136 97.619C97.662 97.619 94.0224 101.253 94.0224 105.716V151.276C94.0224 155.744 97.662 159.374 102.136 159.374H193.429C197.903 159.374 201.543 155.74 201.543 151.276V105.716C201.543 101.249 197.903 97.619 193.429 97.619H102.136Z" fill="black"/>
<path fill-rule="evenodd" clip-rule="evenodd" d="M139.394 150.778H157.745V173.697H139.394V150.778Z" fill="#F5F5F5"/>
<path d="M157.744 174.553H139.393C138.92 174.553 138.532 174.169 138.532 173.693V150.775C138.532 150.303 138.917 149.916 139.393 149.916H157.744C158.217 149.916 158.605 150.3 158.605 150.775V173.693C158.605 174.169 158.22 174.553 157.744 174.553ZM140.254 172.837H156.887V151.638H140.254V172.837Z" fill="black"/>
<path fill-rule="evenodd" clip-rule="evenodd" d="M116.457 169.327H178.216C181.19 169.327 183.6 171.733 183.6 174.703C183.564 176.051 182.56 177.053 181.32 177.053H113.277C112.038 177.053 111.034 176.051 111.034 174.813C111.073 171.733 113.483 169.327 116.457 169.327Z" fill="#F5F5F5"/>
<path d="M181.317 177.913H113.277C111.568 177.913 110.176 176.523 110.176 174.817C110.176 174.732 110.189 174.644 110.215 174.563C110.29 171.193 113.062 168.471 116.457 168.471H178.215C181.659 168.471 184.458 171.268 184.458 174.703C184.458 174.791 184.444 174.882 184.415 174.963C184.34 176.604 182.98 177.913 181.317 177.913ZM111.901 174.934C111.963 175.64 112.557 176.197 113.281 176.197H181.32C182.083 176.197 182.703 175.579 182.703 174.817C182.703 174.735 182.716 174.651 182.739 174.573C182.67 172.144 180.668 170.187 178.219 170.187H116.457C113.962 170.187 111.934 172.212 111.934 174.703C111.93 174.781 111.921 174.859 111.901 174.934Z" fill="black"/>
<path fill-rule="evenodd" clip-rule="evenodd" d="M186.521 126.108C184.46 125.684 179.34 119.765 182.934 113.865C186.525 107.966 188.69 109.548 190.634 105.804C192.578 102.06 190.598 96.6547 193.103 94.7565C195.604 92.8583 199.971 91.3932 201.703 89.5308C203.434 87.6684 209.148 83.5529 212.171 88.7103C215.191 93.8676 213.43 96.3454 211.946 97.9668C210.462 99.5883 205.316 101.278 204.243 103.043C203.17 104.808 203.731 111.303 202.074 113.344C200.418 115.386 197.287 114.494 195.343 117.825C193.403 121.155 193.448 122.735 191.156 124.691C188.863 126.648 188.583 126.528 186.521 126.108Z" fill="white"/>
<path fill-rule="evenodd" clip-rule="evenodd" d="M188.733 125.714C186.672 125.291 181.545 119.369 185.142 113.466C188.736 107.563 190.905 109.145 192.848 105.401C194.795 101.656 192.812 96.2483 195.317 94.3469C197.822 92.4487 202.189 90.9835 203.92 89.1179C205.652 87.2555 211.372 83.1368 214.395 88.2974C217.419 93.458 215.654 95.9358 214.17 97.5572C212.687 99.1787 207.537 100.868 206.464 102.636C205.391 104.404 205.952 110.9 204.295 112.941C202.639 114.983 199.505 114.091 197.561 117.422C195.617 120.752 195.666 122.335 193.37 124.291C191.074 126.252 190.794 126.134 188.733 125.714Z" fill="#EC5252"/>
<path fill-rule="evenodd" clip-rule="evenodd" d="M136.038 133.001H158.632C163.586 133.001 167.603 137.013 167.603 141.958V146.012C167.603 150.958 163.586 154.969 158.632 154.969H136.038C131.084 154.969 127.066 150.958 127.066 146.012V141.958C127.066 137.013 131.084 133.001 136.038 133.001Z" fill="#F5F5F5"/>
<path d="M158.635 155.828H136.041C130.621 155.828 126.208 151.426 126.208 146.012V141.958C126.208 136.547 130.617 132.142 136.041 132.142H158.635C164.055 132.142 168.467 136.544 168.467 141.958V146.012C168.464 151.426 164.055 155.828 158.635 155.828ZM136.037 133.857C131.563 133.857 127.923 137.491 127.923 141.955V146.009C127.923 150.476 131.563 154.109 136.037 154.109H158.631C163.106 154.109 166.742 150.476 166.742 146.009V141.955C166.742 137.488 163.103 133.857 158.631 133.857H136.037Z" fill="black"/>
<path fill-rule="evenodd" clip-rule="evenodd" d="M186.844 127.066C185.997 131.158 185.462 135.71 185.276 140.724C185.22 142.173 185.56 144.748 184.379 144.83C182.937 144.931 183.42 141.978 183.482 140.649C183.691 136.234 183.962 132.63 184.604 128.706C184.728 127.958 185.028 127.14 184.979 126.541C184.933 126.017 183.472 124.532 183.035 123.93C182.364 123.005 181.662 121.879 181.317 120.944C179.927 117.194 181.48 113.563 183.26 111.392C184.118 110.346 185.383 109.389 186.698 108.481C187.875 107.667 189.421 106.758 189.988 105.495C191.14 102.933 189.92 98.4982 191.11 96.2418C192.19 94.1971 195.33 93.5003 197.316 92.2859C200.614 90.2705 201.722 86.5945 206.138 85.7187C207.85 85.3801 209.866 85.9303 210.922 86.6141C213.013 87.9685 214.598 91.003 214.36 94.3013C214.226 96.1474 213.59 97.6744 212.191 98.9279C210.026 100.868 206.021 101.611 204.716 104.004C203.138 106.902 204.677 111.571 202.472 113.931C200.94 115.572 197.806 115.641 196.416 117.363C195.157 118.926 194.897 121.394 193.801 123.259C192.405 125.63 190.142 126.577 186.844 127.066ZM191.407 123.409C193.025 121.866 193.334 118.447 194.769 116.468C195.324 115.702 196.175 115.074 196.938 114.677C198.298 113.964 200.323 113.654 201.201 112.586C202.071 111.528 202.013 109.432 202.097 107.585C202.169 106.032 202.538 104.092 203.069 103.109C204.905 99.7093 210.156 99.3382 211.816 96.3916C213.603 93.2171 211.77 88.7597 209.05 87.7341C206.004 86.5848 203.761 88.6848 202.322 90.1956C200.486 92.1263 198.866 93.7315 196.191 94.8971C194.942 95.4408 193.377 96.0823 192.826 96.9874C191.909 98.4982 192.464 101.035 192.301 103.405C191.997 107.836 188.834 109.077 186.319 111.017C184.718 112.254 183.244 114.022 182.732 116.393C182.308 118.359 182.911 120.143 183.629 121.469C184.157 122.439 184.738 123.432 185.573 124.005C187.148 117.978 188.759 112.251 193.197 109.151C194.597 108.175 196.997 107.537 197.832 106.241C199.28 104.001 198.21 100.702 199.55 97.8828C200.46 95.9683 202.515 94.6985 204.56 93.9269C205.274 93.6566 207.055 93.0119 207.1 94.3013C207.136 95.2618 204.56 95.9423 204.11 96.1669C203.004 96.7172 201.931 97.4823 201.419 98.3321C199.896 100.855 200.871 105.098 199.325 107.364C198.334 108.816 196.42 109.305 194.763 110.275C193.103 111.248 192.115 112.606 191.175 114.156C189.215 117.389 188.152 120.84 187.213 125.128C188.795 124.865 190.422 124.347 191.407 123.409Z" fill="black"/>
<path fill-rule="evenodd" clip-rule="evenodd" d="M181.007 117.069C184.373 117.779 194.222 117.167 195.118 110.16C196.015 103.157 192.767 100.835 193.341 98.6474C193.915 96.4594 200.976 93.1091 200.346 84.1618C199.984 79.0305 195.21 78.3663 195.777 73.9122C196.345 69.4581 202.407 64.8217 201.243 57.5708C200.082 50.3232 191.658 48.8189 187.464 50.6618C183.27 52.5079 180.658 55.9819 181.888 61.2825C183.117 66.5832 184.19 68.0223 182.197 69.8977C180.205 71.7763 176.024 74.889 176.278 78.6626C176.533 82.4362 181.607 87.7661 181.154 89.9541C180.7 92.1421 172.909 101.718 173.405 107.113C173.904 112.511 177.641 116.36 181.007 117.069Z" fill="white"/>
<path fill-rule="evenodd" clip-rule="evenodd" d="M183.212 116.673C186.577 117.386 196.433 116.77 197.333 109.76C198.23 102.754 194.982 100.432 195.552 98.2411C196.126 96.0498 203.19 92.6995 202.561 83.749C202.199 78.6144 197.421 77.9535 197.989 73.4929C198.556 69.0355 204.622 64.3959 203.458 57.1449C202.293 49.8908 193.866 48.3865 189.672 50.2327C185.475 52.0788 182.859 55.5561 184.092 60.8599C185.325 66.1638 186.398 67.5997 184.402 69.4783C182.406 71.357 178.225 74.4729 178.48 78.2465C178.734 82.0234 183.812 87.3533 183.358 89.5413C182.905 91.7293 175.107 101.311 175.606 106.706C176.102 112.111 179.843 115.96 183.212 116.673Z" fill="#EC5252"/>
<path fill-rule="evenodd" clip-rule="evenodd" d="M191.3 48.8521C191.874 48.8521 192.444 48.8521 193.018 48.8521C198.566 49.3958 202.049 54.3708 201.99 60.4203C201.941 65.5809 199.717 68.2736 197.653 71.243C196.977 72.2165 196.068 73.5481 196.084 74.7528C196.107 76.4817 197.842 78.4092 198.849 79.8288C199.864 81.2549 200.995 83.1205 201.168 85.3508C201.595 90.8891 198.729 94.0408 196.009 96.5479C195.246 97.2512 193.954 98.1954 193.915 99.1591C193.863 100.471 195.295 101.855 195.859 103.115C196.462 104.466 196.775 106.185 196.606 108.266C196.058 114.954 190.863 118.499 183.446 118.193C183.091 123.396 182.325 128.453 181.503 133.271C181.304 134.437 181.203 137.481 179.634 137.077C178.926 136.895 179.191 135.886 179.334 135.137C180.4 129.569 181.138 123.966 181.578 118.047C180.978 117.324 180.127 116.972 179.334 116.555C176.849 115.247 174.693 113.606 173.428 111.105C171.419 107.136 172.968 101.998 174.625 98.8629C175.46 97.287 176.493 95.7372 177.615 94.1613C178.558 92.8362 180.342 90.9608 180.156 89.0105C180.061 88.0239 179.282 87.1741 178.662 86.3992C176.852 84.1429 174.873 81.4828 175.597 77.2924C175.972 75.1305 177.315 73.3886 178.587 71.9918C179.761 70.7057 181.914 69.2959 182.25 67.3652C182.455 66.193 181.858 64.8483 181.428 63.6339C181.023 62.4943 180.616 61.332 180.531 60.1273C180.237 56.0183 182.064 53.6285 184.268 51.8442C186.179 50.2912 188.397 49.1809 191.3 48.8521ZM192.868 113.189C194.509 111.092 195.409 106.833 194.065 103.861C193.331 102.239 191.701 100.924 192.046 98.8596C192.226 97.7949 193.165 96.8474 193.915 96.0986C196.319 93.699 198.99 91.7487 199.299 87.4411C199.564 83.7326 197.874 81.6814 196.384 79.679C195.304 78.2301 193.987 76.752 194.215 74.4533C194.46 71.9788 196.527 70.0904 197.803 68.1075C199.045 66.1735 200.128 63.4809 200.121 60.4203C200.115 57.8612 199.286 55.4518 198.178 53.928C196.785 52.0168 194.437 50.4149 191 50.7177C186.845 51.0823 182.758 54.2797 182.403 58.1086C182.057 61.7943 184.304 63.6437 184.197 66.7661C184.073 70.3932 180.169 72.2197 178.44 74.9026C176.976 77.1785 177.244 80.4539 178.44 82.6647C179.367 84.3708 181.526 85.9011 181.953 88.1867C182.184 89.4272 181.865 90.6221 181.431 91.5468C179.282 96.1279 173.943 99.9113 174.328 106.846C174.589 111.564 177.987 113.847 181.803 115.579C182.276 111.05 180.978 108.031 180.606 104.457C180.205 100.608 182.103 97.6386 183.672 95.4995C184.363 94.5585 185.198 93.5329 186.062 92.4389C186.858 91.4329 187.826 90.1175 187.931 88.8542C188.117 86.6174 186.851 84.9438 185.987 83.4038C184.806 81.3005 183.137 78.4971 184.043 75.4919C185.514 70.6113 190.344 68.3419 190.696 61.9831C190.775 60.5798 190.178 57.6658 191.743 57.8025C192.532 57.8709 192.565 59.0626 192.565 60.1924C192.565 66.1442 190.39 68.7815 188.006 71.9853C187.102 73.1965 185.987 74.4663 185.687 76.2408C185.273 78.6892 186.819 80.7437 187.706 82.3619C188.567 83.9345 189.633 85.6634 189.799 87.6625C190.096 91.2863 187.575 93.2692 185.912 95.3497C184.49 97.1307 183.127 99.1136 182.621 101.546C181.992 104.583 183.218 107.195 183.518 109.829C183.737 111.763 183.711 113.755 183.593 116.321C187.8 116.494 191.035 115.533 192.868 113.189Z" fill="black"/>
<path fill-rule="evenodd" clip-rule="evenodd" d="M178.225 126.423C173.698 127.075 165.692 123.623 165.004 120.25C164.316 116.874 167.381 108.034 165.653 104.742C163.924 101.447 157.943 99.9529 157.526 96.1793C157.108 92.4057 159.942 87.7368 163.23 87.447C166.517 87.1572 175.883 90.4164 176.34 96.6286C176.797 102.844 175.107 108.477 176.888 110.082C178.669 111.687 183.56 118.707 182.644 122.142C181.728 125.574 182.752 125.772 178.225 126.423Z" fill="white"/>
<path fill-rule="evenodd" clip-rule="evenodd" d="M180.43 126.03C175.9 126.681 167.887 123.23 167.199 119.854C166.511 116.477 169.58 107.631 167.848 104.336C166.116 101.041 160.132 99.5434 159.714 95.7698C159.297 91.9962 162.134 87.3239 165.421 87.0341C168.709 86.7444 178.085 90.0035 178.542 96.2223C178.998 102.438 177.309 108.074 179.089 109.679C180.87 111.284 185.765 118.307 184.849 121.745C183.932 125.18 184.96 125.379 180.43 126.03Z" fill="#EC5252"/>
<path fill-rule="evenodd" clip-rule="evenodd" d="M177.974 127.489C176.669 131.53 175.061 135.258 175.433 140.998C175.518 142.303 176.314 145.136 174.611 144.954C173.607 144.846 173.551 142.131 173.489 140.848C173.232 135.329 174.706 131.689 175.955 127.785C171.79 126.75 168.223 125.741 165.861 123.159C164.042 121.166 163.706 118.21 164.218 114.801C164.426 113.404 164.739 111.841 165.04 110.321C165.369 108.67 165.646 106.726 165.19 105.469C164.188 102.728 159.854 101.891 158.087 99.7974C154.617 95.6885 158.109 89.2092 161.227 87.4054C165.512 84.9277 171.301 88.0957 173.636 90.466C175.355 92.2079 176.79 94.614 177.227 97.5574C177.785 101.315 176.2 106.332 177.527 109.725C178.284 111.655 180.217 113.163 181.489 115.1C182.908 117.259 184.571 120.733 183.283 123.608C182.327 125.744 180.345 126.668 177.974 127.489ZM181.861 120.993C181.356 115.51 175.622 113.7 175.208 107.931C174.996 104.961 175.776 101.901 175.508 98.6025C175.241 95.3303 173.574 93.2205 171.771 91.5111C170.059 89.8897 167.078 88.125 163.921 88.4506C161.113 88.7403 158.889 91.7749 158.612 94.7215C158.047 100.771 164.749 100.019 166.761 104.199C168.627 108.077 165.48 113.681 165.79 118.232C166.135 123.305 172.159 124.962 176.405 125.77C176.337 121.69 174.269 119.854 172.668 117.187C171.425 115.12 170.649 112.994 170.649 109.65C170.649 106.566 170.887 103.079 169.977 100.917C169.586 99.983 168.917 98.8695 168.183 97.9318C167.609 97.1992 165.966 96.1964 166.165 95.0959C166.191 94.9526 166.383 94.3991 166.987 94.3503C167.877 94.2786 169.067 95.9034 169.677 96.6652C171.249 98.622 172.374 100.817 172.593 103.757C172.831 106.96 172.198 110.763 172.968 113.309C174.318 117.783 178.218 119.798 178.277 125.402C180.162 124.604 182.122 123.829 181.861 120.993Z" fill="black"/>
<path fill-rule="evenodd" clip-rule="evenodd" d="M171.719 134.17H190.562C191.388 134.17 192.059 134.837 192.059 135.664V168.136C192.059 173.081 188.042 177.093 183.088 177.093H179.2C174.243 177.093 170.229 173.081 170.229 168.136V135.664C170.225 134.837 170.894 134.17 171.719 134.17Z" fill="white"/>
<path fill-rule="evenodd" clip-rule="evenodd" d="M173.581 133.05H192.421C193.246 133.05 193.918 133.717 193.918 134.544V167.015C193.918 171.961 189.9 175.973 184.947 175.973H181.059C176.105 175.973 172.087 171.961 172.087 167.015V134.544C172.084 133.717 172.753 133.05 173.581 133.05Z" fill="#BBBBBB"/>
<path d="M183.084 177.949H179.197C173.777 177.949 169.364 173.544 169.364 168.132V135.661C169.364 134.365 170.421 133.31 171.719 133.31H190.562C191.86 133.31 192.917 134.365 192.917 135.661V168.132C192.917 173.547 188.508 177.949 183.084 177.949ZM171.719 135.026C171.37 135.026 171.083 135.309 171.083 135.661V168.132C171.083 172.599 174.722 176.233 179.197 176.233H183.084C187.559 176.233 191.198 172.599 191.198 168.132V135.661C191.198 135.309 190.915 135.026 190.562 135.026H171.719Z" fill="black"/>
</g>
<defs>
<clipPath id="clip0">
<rect width="216.049" height="177.923" fill="white" transform="translate(0 0.885986)"/>
</clipPath>
</defs>
</svg>
