<svg width="217" height="191" viewBox="0 0 217 191" fill="none" xmlns="http://www.w3.org/2000/svg">
<g clip-path="url(#clip0)">
<path d="M198.274 162.088H7.85488C7.33035 162.088 6.90479 161.664 6.90479 161.141V7.71623C6.90479 7.19303 7.33035 6.76855 7.85488 6.76855H198.274C198.799 6.76855 199.224 7.19303 199.224 7.71623V161.138C199.224 161.664 198.799 162.088 198.274 162.088ZM8.80499 160.19H197.324V8.6639H8.80499V160.19Z" fill="#D6D6D6"/>
<path d="M198.274 146.732H7.85488C7.33035 146.732 6.90479 146.307 6.90479 145.784C6.90479 145.261 7.33035 144.836 7.85488 144.836H198.274C198.799 144.836 199.224 145.261 199.224 145.784C199.224 146.307 198.799 146.732 198.274 146.732Z" fill="#D6D6D6"/>
<path d="M198.274 131.411H7.85488C7.33035 131.411 6.90479 130.986 6.90479 130.463C6.90479 129.94 7.33035 129.515 7.85488 129.515H198.274C198.799 129.515 199.224 129.94 199.224 130.463C199.224 130.986 198.799 131.411 198.274 131.411Z" fill="#D6D6D6"/>
<path d="M198.274 116.054H7.85488C7.33035 116.054 6.90479 115.629 6.90479 115.106C6.90479 114.583 7.33035 114.158 7.85488 114.158H198.274C198.799 114.158 199.224 114.583 199.224 115.106C199.224 115.629 198.799 116.054 198.274 116.054Z" fill="#D6D6D6"/>
<path d="M198.274 100.733H7.85488C7.33035 100.733 6.90479 100.309 6.90479 99.7856C6.90479 99.2624 7.33035 98.8379 7.85488 98.8379H198.274C198.799 98.8379 199.224 99.2624 199.224 99.7856C199.224 100.309 198.799 100.733 198.274 100.733Z" fill="#D6D6D6"/>
<path d="M198.274 85.3763H7.85488C7.33035 85.3763 6.90479 84.9518 6.90479 84.4286C6.90479 83.9054 7.33035 83.481 7.85488 83.481H198.274C198.799 83.481 199.224 83.9054 199.224 84.4286C199.224 84.9518 198.799 85.3763 198.274 85.3763Z" fill="#D6D6D6"/>
<path d="M198.274 70.0194H7.85488C7.33035 70.0194 6.90479 69.5949 6.90479 69.0717C6.90479 68.5485 7.33035 68.124 7.85488 68.124H198.274C198.799 68.124 199.224 68.5485 199.224 69.0717C199.224 69.5949 198.799 70.0194 198.274 70.0194Z" fill="#D6D6D6"/>
<path d="M198.274 54.6986H7.85488C7.33035 54.6986 6.90479 54.2741 6.90479 53.7509C6.90479 53.2277 7.33035 52.8032 7.85488 52.8032H198.274C198.799 52.8032 199.224 53.2277 199.224 53.7509C199.224 54.2741 198.799 54.6986 198.274 54.6986Z" fill="#D6D6D6"/>
<path d="M198.274 39.3416H7.85488C7.33035 39.3416 6.90479 38.9172 6.90479 38.394C6.90479 37.8708 7.33035 37.4463 7.85488 37.4463H198.274C198.799 37.4463 199.224 37.8708 199.224 38.394C199.224 38.9172 198.799 39.3416 198.274 39.3416Z" fill="#D6D6D6"/>
<path d="M198.274 24.0208H7.85488C7.33035 24.0208 6.90479 23.5964 6.90479 23.0732C6.90479 22.55 7.33035 22.1255 7.85488 22.1255H198.274C198.799 22.1255 199.224 22.55 199.224 23.0732C199.224 23.5964 198.799 24.0208 198.274 24.0208Z" fill="#D6D6D6"/>
<path d="M179.216 162.088C178.691 162.088 178.266 161.664 178.266 161.141V7.71623C178.266 7.19303 178.691 6.76855 179.216 6.76855C179.74 6.76855 180.166 7.19303 180.166 7.71623V161.138C180.166 161.664 179.74 162.088 179.216 162.088Z" fill="#D6D6D6"/>
<path d="M160.201 162.088C159.677 162.088 159.251 161.664 159.251 161.141V7.71623C159.251 7.19303 159.677 6.76855 160.201 6.76855C160.726 6.76855 161.151 7.19303 161.151 7.71623V161.138C161.151 161.664 160.726 162.088 160.201 162.088Z" fill="#D6D6D6"/>
<path d="M141.14 162.088C140.615 162.088 140.189 161.664 140.189 161.141V7.71623C140.189 7.19303 140.615 6.76855 141.14 6.76855C141.664 6.76855 142.09 7.19303 142.09 7.71623V161.138C142.09 161.664 141.664 162.088 141.14 162.088Z" fill="#D6D6D6"/>
<path d="M122.124 162.088C121.6 162.088 121.174 161.664 121.174 161.141V7.71623C121.174 7.19303 121.6 6.76855 122.124 6.76855C122.649 6.76855 123.075 7.19303 123.075 7.71623V161.138C123.078 161.664 122.649 162.088 122.124 162.088Z" fill="#D6D6D6"/>
<path d="M103.066 162.088C102.541 162.088 102.116 161.664 102.116 161.141V7.71623C102.116 7.19303 102.541 6.76855 103.066 6.76855C103.59 6.76855 104.016 7.19303 104.016 7.71623V161.138C104.016 161.664 103.59 162.088 103.066 162.088Z" fill="#D6D6D6"/>
<path d="M84.0048 162.088C83.4803 162.088 83.0547 161.664 83.0547 161.141V7.71623C83.0547 7.19303 83.4803 6.76855 84.0048 6.76855C84.5293 6.76855 84.9549 7.19303 84.9549 7.71623V161.138C84.9549 161.664 84.5293 162.088 84.0048 162.088Z" fill="#D6D6D6"/>
<path d="M64.9892 162.088C64.4646 162.088 64.0391 161.664 64.0391 161.141V7.71623C64.0391 7.19303 64.4646 6.76855 64.9892 6.76855C65.5137 6.76855 65.9393 7.19303 65.9393 7.71623V161.138C65.9393 161.664 65.5137 162.088 64.9892 162.088Z" fill="#D6D6D6"/>
<path d="M45.9315 162.088C45.407 162.088 44.9814 161.664 44.9814 161.141V7.71623C44.9814 7.19303 45.407 6.76855 45.9315 6.76855C46.4561 6.76855 46.8816 7.19303 46.8816 7.71623V161.138C46.8816 161.664 46.4561 162.088 45.9315 162.088Z" fill="#D6D6D6"/>
<path d="M26.9159 162.088C26.3914 162.088 25.9658 161.664 25.9658 161.141V7.71623C25.9658 7.19303 26.3914 6.76855 26.9159 6.76855C27.4405 6.76855 27.866 7.19303 27.866 7.71623V161.138C27.866 161.664 27.4405 162.088 26.9159 162.088Z" fill="#D6D6D6"/>
<path d="M7.85487 115.175C7.64374 115.175 7.42931 115.106 7.25446 114.962C6.84869 114.629 6.78931 114.034 7.1225 113.629L58.9656 50.4539C59.2691 50.0853 59.8003 49.9965 60.2093 50.2531L85.0505 65.9095L98.7511 56.0577C99.1239 55.7911 99.6352 55.824 99.9651 56.1432L118.357 73.7706L197.241 5.63346C197.637 5.29125 198.238 5.33402 198.584 5.72889C198.927 6.12375 198.884 6.72263 198.488 7.06814L118.944 75.768C118.575 76.0904 118.02 76.0773 117.664 75.7351L99.2162 58.055L85.6377 67.8213C85.3243 68.0484 84.902 68.0615 84.5722 67.8542L59.8992 52.3032L8.59054 114.827C8.4025 115.057 8.12869 115.175 7.85487 115.175Z" fill="#EC5252"/>
<path fill-rule="evenodd" clip-rule="evenodd" d="M93.8389 87.3934H95.9503L103.739 91.3881H106.533L110.69 90.5523L116.13 89.8053L119.228 91.7665L123.414 99.1274L108.143 115.149L105.243 112.286L101.615 107.219L100.935 103.224L102.218 99.2294L102.446 97.3341L99.9519 94.2541L93.3705 89.5816C93.3771 89.5783 92.0245 86.6398 93.8389 87.3934Z" fill="white"/>
<path fill-rule="evenodd" clip-rule="evenodd" d="M85.2485 141.44L78.5516 126.844L81.6922 115.544L76.6481 98.8016L68.2126 93.03L62.4263 94.6785C62.4263 94.6785 56.2572 102.977 57.877 111.832C59.4968 120.687 60.625 127.097 61.7632 135.998C62.9013 144.899 65.2799 165.096 76.813 168.821C88.3429 172.546 96.4385 169.189 104.099 163.296C111.759 157.403 125.598 146.554 125.598 146.554L131.137 190.759H198.195C198.195 190.759 197.175 175.948 198.607 168.41C200.039 160.868 200.841 153.895 200.841 153.895C200.841 153.895 214.894 130.71 215.31 124.534C215.726 118.357 211.938 107.35 202.658 102.596C193.382 97.8407 177.019 90.5193 174.545 87.8309C172.07 85.1458 169.461 78.8017 170.408 76.8635C171.355 74.9221 177.817 64.1226 177.022 52.0364C176.227 39.9536 173.251 35.7055 161.642 34.1392C156.305 33.4186 149.063 33.8727 144.362 35.3764C138.837 37.1435 136.26 40.0786 136.26 40.0786L130.058 38.5123L131.381 43.4613L126.337 42.8822C126.337 42.8822 127.35 45.0177 129.148 46.8407C130.946 48.6636 133.034 48.9038 133.034 48.9038C133.034 48.9038 130.012 52.7505 130.553 57.6468C131.094 62.5398 132.918 66.1561 131.711 68.0383C130.5 69.9205 129.125 71.9376 129.148 73.0696C129.171 74.2015 132.424 74.9945 132.869 76.37C133.314 77.7454 136.138 85.827 142.792 85.771C149.446 85.7151 150.317 82.8852 150.317 82.8852C150.317 82.8852 153.157 88.3771 151.393 89.8118C149.628 91.2465 128.518 93.0892 120.221 101.77C111.927 110.453 85.2485 141.44 85.2485 141.44Z" fill="white"/>
<path fill-rule="evenodd" clip-rule="evenodd" d="M98.0646 130.391C98.0646 130.391 97.7776 139.038 100.463 144.823C103.726 151.852 114.272 155.297 114.272 155.297L129.9 144.491L134.845 190.759L198.036 190.762C198.036 190.762 198.056 159.828 200.51 155.294C217.757 123.438 221.901 114.547 196.707 99.2097C187.852 93.8198 177.358 90.8781 177.358 90.8781C177.358 90.8781 172.446 89.9436 161.979 91.2071C152.761 92.3193 130.276 96.3502 122.371 103.58C107.595 117.1 98.0646 130.391 98.0646 130.391Z" fill="#EC5252"/>
<path fill-rule="evenodd" clip-rule="evenodd" d="M154.936 71.1007C154.936 71.1007 156.292 78.7479 158.552 79.1987C160.815 79.6462 161.58 79.4027 163.484 79.3666C165.387 79.3304 169.082 78.8993 169.082 78.8993C169.082 78.8993 168.736 77.5995 169.824 76.0102C171.451 73.641 173.654 71.2027 175.485 64.3091C177.313 57.4154 179.101 43.888 173.76 39.5412C168.419 35.1977 155.635 32.529 147.655 34.1217C144.125 34.8258 140.516 35.8492 138.289 37.1983C135.479 38.8995 134.449 40.8804 133.833 40.7389C132.727 40.4856 129.346 38.3336 129.346 38.3336L134.278 44.556L128 43.345C128 43.345 131.461 45.9248 132.873 46.0992C134.285 46.2769 135.155 46.8659 137.854 46.5237C141.628 46.0433 143.917 45.7142 144.907 46.9219C145.864 48.0867 146.131 54.24 146.735 59.0738C147.322 63.7727 145.079 67.3627 146.339 67.0238C147.744 66.6453 149.153 64.2202 149.153 64.2202C149.153 64.2202 149.931 59.1659 152.871 59.2021C155.81 59.2383 157.849 62.2722 157.816 64.9441C157.786 67.616 154.936 71.1007 154.936 71.1007Z" fill="#A89AFF"/>
<path fill-rule="evenodd" clip-rule="evenodd" d="M59.5693 76.2518L79.9701 76.877C81.9462 76.9362 84.041 78.4827 84.6447 80.3287L95.9272 114.764C96.5309 116.61 95.4191 118.058 93.443 117.999L73.0423 117.374C71.0662 117.314 68.9714 115.768 68.3677 113.922L57.0852 79.4864C56.4815 77.6404 57.5933 76.1925 59.5693 76.2518Z" fill="#F5F5F5"/>
<path d="M92.7469 119.118C92.6446 119.114 72.6397 118.505 72.6397 118.505C70.2975 118.436 67.9024 116.669 67.1833 114.488L56.1186 80.9275C55.7326 79.7594 56.0196 78.3313 56.8641 77.2026C57.6691 76.1299 58.8039 75.4949 60.0146 75.5409L80.3065 75.9654C82.6554 76.0378 85.0537 77.8015 85.7729 79.9831L96.7386 113.826C97.1015 114.932 96.8343 116.248 96.0162 117.341C95.1782 118.463 93.9642 119.118 92.7469 119.118ZM59.9223 77.4429C59.3812 77.4429 58.8105 77.7752 58.3849 78.3412C57.9132 78.9729 57.7318 79.7561 57.9231 80.3385L68.9878 113.899C69.4595 115.324 71.1552 116.567 72.6991 116.613L92.704 117.222C93.3572 117.222 94.0236 116.837 94.492 116.209C94.9341 115.62 95.0991 114.935 94.9308 114.419L83.9651 80.5754C83.4966 79.1572 81.7977 77.9134 80.257 77.8673L59.9684 77.4429C59.952 77.4396 59.9388 77.4396 59.9223 77.4429Z" fill="black"/>
<path fill-rule="evenodd" clip-rule="evenodd" d="M63.8545 78.0219L79.6631 78.5057C81.3456 78.555 83.1238 79.8647 83.6384 81.4277L93.2351 110.582C93.7497 112.145 92.8029 113.372 91.1237 113.32L75.3151 112.839C73.6327 112.786 71.8545 111.48 71.3399 109.914L61.7432 80.7597C61.2286 79.1967 62.1754 77.9726 63.8545 78.0219Z" fill="#BBBBBB"/>
<path fill-rule="evenodd" clip-rule="evenodd" d="M64.3298 113.086C64.3298 113.086 67.477 101.072 72.4782 103.214C77.4761 105.36 69.9281 108.262 70.6275 113.323C71.3268 118.384 73.8769 120.217 71.3269 124.603C68.7768 128.989 63.3599 121.961 63.3599 121.961L64.3298 113.086Z" fill="white"/>
<path fill-rule="evenodd" clip-rule="evenodd" d="M208.61 106.136C201.21 99.0483 190.373 95.3169 180.334 90.4666C178.002 89.3413 175.379 88.1567 173.885 85.9323C173.149 84.8365 172.691 83.5005 172.232 82.056C171.774 80.6147 171.058 78.6898 171.322 77.107C171.543 75.7974 172.628 74.4318 173.308 73.0663C175.313 69.0189 176.666 64.6754 177.524 59.2954C178.695 51.9311 178.662 43.9582 174.631 39.6706C172.654 37.5679 170.18 36.3241 167.109 35.1362C164.051 33.9516 161.049 33.1882 157.354 32.9085C153.557 32.6223 149.723 33.0402 146.359 33.8167C143.053 34.5768 139.526 35.6825 137.184 37.3606C136.871 37.5844 136.363 37.9694 136.026 38.3511C135.703 38.7196 135.554 39.2922 134.951 39.3415C134.215 39.4008 133.301 38.667 132.635 38.3511C131.866 37.9858 131.216 37.5877 130.072 37.693C128.389 38.3873 129.484 41.0724 129.907 42.3096C128.732 42.2504 125.915 40.1379 125.196 41.8983C124.575 43.4218 126.951 45.7976 127.841 46.6827C129.329 48.1602 130.863 48.9927 132.222 49.8153C130.128 53.0368 128.864 57.8245 129.989 62.8459C130.362 64.5043 131.368 66.3601 130.9 68.0416C130.454 69.6342 128.158 70.8912 128.336 72.7405C128.524 74.6984 130.929 75.3598 131.893 76.7813C132.599 77.8211 133.07 79.0978 133.71 80.2429C135.356 83.188 138.26 86.9556 142.723 87.005C145.811 87.0379 147.068 85.6822 149.42 84.4482C149.707 85.1261 149.968 85.7184 150.248 86.5937C150.456 87.2353 150.937 88.3574 150.66 88.9859C150.222 89.9796 146.82 90.4765 145.121 90.799C138.903 91.9868 132.773 93.2734 128.01 95.6657C118.133 100.618 111.597 108.581 105.026 116.695C99.5562 123.448 94.291 130.262 88.6564 136.899C88.1022 137.554 87.4655 138.153 86.9212 138.795C86.3933 139.42 86.0008 140.193 85.2684 140.608C84.3348 138.502 83.3319 136.136 82.2927 133.681C81.3195 131.384 79.8746 128.94 79.5645 126.59C79.416 125.475 80.2771 123.658 80.8049 122.303C81.0226 121.746 82.6457 118.946 81.0523 118.676C79.6338 118.433 79.1521 121.128 78.7365 122.224C78.1459 123.783 77.4136 125.241 77.4961 126.758C77.5719 128.124 78.3703 129.552 78.9014 130.881C79.9736 133.566 80.9929 136.05 82.1245 138.633C82.6853 139.907 83.2131 141.194 84.0247 142.181C83.1637 143.296 81.7715 144.826 80.6367 146.139C80.1979 146.646 79.4754 147.9 80.5542 148.281C81.534 148.63 82.527 147.044 83.035 146.468C87.769 141.124 92.0313 135.721 96.7587 130.387C96.8246 130.312 96.9302 129.805 97.171 130.058C94.9442 144.379 102.36 151.904 112.135 155.293C111.931 155.748 111.449 156.067 111.06 156.366C108.107 158.633 104.957 161.003 101.799 163.211C98.2135 165.721 94.2548 168.311 89.3162 169.147C77.0012 171.236 69.9777 163.823 66.8272 155.458C65.1975 151.128 64.2177 145.84 63.6866 140.203C63.1654 134.675 62.2615 129.193 61.2058 124.287C60.1699 119.473 58.5369 114.247 58.8075 108.288C59.0021 104.02 60.3547 100.842 62.1988 97.8144C62.4429 97.4097 62.8124 96.8865 63.0235 96.3962C62.7266 95.9519 62.4528 95.4913 62.2483 94.9944C61.2388 95.0174 60.4536 96.7055 60.0512 97.4031C58.3093 100.414 56.8248 104.086 56.8281 108.535C56.8413 108.63 56.8083 108.683 56.7456 108.699V109.69C56.9468 115.567 58.4479 120.772 59.5563 125.935C60.7143 131.332 61.1827 136.63 61.8722 142.674C63.1489 153.888 66.4874 163.75 74.1905 168.485C78.3274 171.029 84.249 172.098 89.9001 171.042C95.1587 170.058 99.223 167.492 102.878 164.938C108.5 161.012 113.943 156.778 119.165 152.569C120.917 151.157 122.5 149.538 124.374 148.364C126.251 160.924 127.97 173.359 129.336 186.379C129.458 187.56 129.28 191.236 130.989 190.917C131.688 190.785 131.764 189.666 131.648 188.607C130.213 175.119 128.564 162.325 126.604 149.601C126.459 148.647 126.083 147.271 126.192 146.797C126.387 145.938 129.296 145.06 128.343 143.582C127.693 142.576 126.565 143.625 125.945 144.158C121.877 147.663 118.172 150.799 114.039 153.888C108.882 151.799 104.234 149.565 101.39 145.145C98.6226 140.845 98.2498 133.355 99.6551 126.922C99.8465 126.05 101.417 124.603 102.136 123.708C104.62 120.611 107.18 117.186 109.493 114.471C116.262 106.531 123.53 98.535 134.545 95.2576C138.847 93.9776 143.742 93.4413 148.186 92.2896C149.704 91.898 150.865 91.1478 152.155 90.7233C156.582 89.2689 162.642 88.5088 168.524 88.7424C170.405 88.8181 172.813 88.8378 174.146 89.3215C174.848 89.5749 175.462 90.2889 176.211 90.7233C176.976 91.1675 177.85 91.5064 178.609 91.8783C189.499 97.2089 202.322 101.312 209.53 110.187C211.737 112.901 213.505 115.787 213.911 119.835C214.324 123.954 212.819 127.867 211.43 131.213C208.686 137.834 205.492 144.043 201.84 149.769C202.375 145.257 202.649 140.769 202.916 135.998C203.002 134.445 203.358 132.122 202.009 132.122C200.841 132.122 200.986 133.928 200.933 135.09C200.501 144.507 199.548 152.615 198.287 161.147C197.1 169.203 196.381 178.446 196.717 188.113C196.74 188.798 196.618 189.584 196.8 190.094C196.991 190.634 197.674 190.969 198.04 190.92C199.158 190.765 198.716 188.057 198.703 186.797C198.687 185.129 198.683 182.845 198.703 182.263C198.835 178.6 198.795 175.53 199.033 172.533C199.534 166.284 200.488 160.601 201.266 154.639C204.463 149.746 207.369 144.728 209.946 139.384C212.516 134.06 215.399 128.627 216.062 121.572V120.664C215.478 114.119 212.298 109.67 208.61 106.136ZM152.722 88.4067C152.531 86.2876 151.818 84.6917 150.987 83.211C151.383 82.9938 152.419 81.1347 150.987 80.901C149.997 80.7398 148.615 82.4871 147.678 83.1287C146.378 84.0172 144.577 85.0998 142.387 84.9418C139.414 84.7279 138.058 82.5496 136.353 80.7365C136.729 80.0784 137.547 79.4927 138.088 78.5911C138.655 77.6467 139.757 74.955 138.088 74.8793C137.102 74.8366 136.927 76.1034 136.6 76.8602C136.201 77.7849 135.749 78.4594 135.195 78.7556C134.245 76.0475 132.457 74.1752 130.401 72.5694C131.187 70.8846 132.932 69.756 133.047 67.4559C133.13 65.8633 132.437 64.3167 132.054 62.6715C130.817 57.3408 132.417 52.6978 134.947 49.3941C137.422 49.8186 139.559 49.2362 141.974 49.1473C144.34 51.5396 143.627 58.1404 143.627 63.0005C143.627 65.0966 143.535 68.0811 145.197 68.4431C146.695 68.7688 147.836 67.4296 148.506 66.7122C149.413 65.7349 150.086 64.909 150.736 63.9087C150.733 61.4112 151.818 58.8413 154.292 60.0324C155.876 60.7958 157.384 63.2045 156.773 65.7218C156.5 66.8504 155.576 67.9199 154.708 68.6898C153.88 69.4269 152.062 70.1903 152.062 71.0821C152.062 72.3818 153.837 72.0495 154.296 71.6579C155.061 74.4812 155.774 77.3078 158.017 78.8313C159.831 80.0652 162.236 79.1603 165.209 79.1603C166.759 79.1603 168.349 79.3249 168.349 78.1699C168.349 76.9754 166.327 77.0346 164.628 77.0972C162.484 77.1761 161.065 77.798 159.752 77.4262C158.149 76.9754 157.146 74.343 156.612 72.5595C156.394 71.8389 156.028 70.9866 156.117 70.4141C156.196 69.8876 157.519 68.6273 157.852 68.1041C158.37 67.298 158.822 66.4358 158.928 65.2183C159.145 62.7537 158.129 60.6609 156.945 59.4467C156.084 58.5649 153.976 57.1401 151.901 57.7982C149.657 58.5089 149.087 60.8485 148.595 63.4875C147.728 64.3825 146.942 65.8008 145.867 66.2088C145.174 60.2661 146.718 52.8722 144.462 48.8907C143.835 47.7851 142.908 46.946 140.988 47.0776C140.209 47.1302 139.269 47.4231 138.26 47.4889C135.805 47.6534 133.737 46.5676 132.308 47.5712C131.22 46.8374 130.062 45.8502 129.085 44.8499C128.831 44.59 128.257 44.3333 128.425 43.9417C129.445 44.2675 132.186 45.0769 132.559 43.7772C132.958 42.382 131.342 41.4936 131.401 40.0655C132.806 40.5656 134.142 41.7239 135.865 41.2204C137.032 40.8782 137.21 39.9667 137.93 39.3251C139.385 38.0253 142.073 37.0875 144.544 36.357C150.291 34.6525 157.407 34.2511 163.477 36.028C164.885 36.4426 166.34 37.002 167.693 37.5943C169.059 38.1931 170.563 38.792 171.579 39.4929C178.909 44.5274 176.118 59.4994 173.479 67.446C172.991 68.9136 172.374 70.2956 171.744 71.5691C170.863 73.3427 169.194 75.1821 169.181 77.5875C169.171 79.3216 169.768 81.1182 170.256 82.701C170.738 84.2541 171.417 85.7118 172.16 86.9885C165.38 86.1067 158.304 87.0971 152.722 88.4067Z" fill="black"/>
<path fill-rule="evenodd" clip-rule="evenodd" d="M135.112 54.5964C136.026 54.4681 136.992 54.4714 137.758 54.8432C138.78 55.3401 140.684 57.1367 140.486 58.2226C140.404 58.6866 139.925 58.9663 139.493 58.9663C138.365 58.9663 138.543 58.2522 138.088 57.729C137.771 57.3638 137.217 56.7451 136.6 56.574C135.389 56.2384 133.298 57.5908 133.291 55.8337C133.288 54.7445 134.485 54.6853 135.112 54.5964Z" fill="black"/>
<path fill-rule="evenodd" clip-rule="evenodd" d="M137.342 64.6556C136.917 65.0669 136.287 65.4453 135.689 64.8201C135.373 64.4878 134.868 61.5 135.03 60.8616C135.198 60.2002 136.118 59.8942 136.682 60.2825C137.425 60.8024 137.313 63.5533 137.342 64.6556Z" fill="black"/>
<path fill-rule="evenodd" clip-rule="evenodd" d="M153.135 61.9343C153.583 61.8356 154.266 61.9639 154.375 62.6746C154.487 63.4117 153.91 64.0238 153.629 64.6556C153.389 65.1985 153.244 66.0837 152.554 66.2219C150.687 66.597 151.462 64.5272 151.894 63.5828C152.171 62.9774 152.399 62.0955 153.135 61.9343Z" fill="black"/>
<path fill-rule="evenodd" clip-rule="evenodd" d="M70.8749 101.766C72.8906 101.414 74.5466 102.671 74.3454 105.231C74.164 107.554 71.8778 109.078 71.6172 111.25C71.4324 112.79 72.1219 114.336 72.5244 115.537C73.0522 117.1 73.7516 118.607 73.5998 120.733C73.5075 122.039 73.0225 123.319 72.4419 124.362C71.9998 125.155 71.1916 126.909 70.0436 126.672C68.3413 126.32 70.1458 124.339 70.5384 123.622C70.9739 122.826 71.4423 121.7 71.5314 120.901C71.9174 117.452 69.397 115.511 69.5487 111.5C69.6147 109.802 70.446 108.499 71.284 107.13C71.6238 106.574 71.9603 106.459 72.1912 105.563C72.7817 103.29 71.0794 103.648 70.0403 104.409C67.5628 106.231 66.418 109.147 65.7417 112.737C65.5174 113.931 65.458 116.38 64.4188 116.449C63.0036 116.541 63.3104 114.224 63.5908 112.655C64.3562 108.436 66.771 102.487 70.8749 101.766Z" fill="black"/>
<path fill-rule="evenodd" clip-rule="evenodd" d="M104.327 90.8615C105.072 90.437 105.874 90.3547 106.807 90.3679C107.272 90.3745 107.81 90.618 108.213 90.5324C108.559 90.46 108.757 90.0454 109.123 89.8743C110.159 89.384 111.403 89.5255 112.597 89.7098C113.184 89.1175 114.695 88.8016 116.071 88.8839C119.571 89.0978 121.755 92.5331 123.098 95.4814C123.592 96.5673 125.146 99.69 123.098 99.6045C121.95 99.5584 121.491 96.8272 120.947 95.7282C119.874 93.5499 118.43 90.8944 115.16 90.9438C115.253 91.4308 116.236 92 116.153 92.8391C116.104 93.3294 115.675 93.7703 115.078 93.744C113.877 93.6946 113.253 90.8319 110.779 91.5986C110.845 92.204 112.267 92.9345 112.267 93.9085C112.267 94.5765 111.713 95.0306 111.109 94.9812C110.156 94.899 109.869 93.3787 108.793 92.8358C107.896 92.3817 107.174 92.4179 106.065 92.5068C106.065 93.2405 109.272 95.2873 108.298 96.6298C107.434 97.821 106.355 96.2349 105.818 95.5571C104.594 94.0138 103.172 92.5166 101.767 91.3518C99.4836 89.4564 97.4812 87.9954 94.2449 88.0547C94.6342 90.7068 97.7484 91.0787 99.7014 92.6713C102.898 95.2774 104.056 99.973 106.151 103.721C106.596 104.517 107.939 106.202 107.721 107.104C107.616 107.545 107.108 107.795 106.646 107.762C105.626 107.693 104.653 105.353 104.247 104.629C103.505 103.293 103.03 102.158 102.43 100.917C100.074 107.265 105.795 111.164 108.879 114.195C108.506 114.784 107.952 115.195 107.556 115.761C104.92 113.053 100.226 109.914 99.7838 104.876C99.5958 102.724 100.279 99.8381 101.272 98.3606C100.592 97.2056 100.279 96.2975 99.454 95.3103C97.7616 93.2833 94.522 92.589 93.087 90.7759C91.421 88.67 91.9785 85.544 95.5678 85.9092C99.1768 86.2811 102.235 89.0287 104.327 90.8615Z" fill="black"/>
<path fill-rule="evenodd" clip-rule="evenodd" d="M6.40988 109.772C9.94966 109.772 12.8165 112.635 12.8165 116.162C12.8165 119.693 9.94636 122.553 6.40988 122.553C2.87009 122.556 0 119.693 0 116.162C0 112.635 2.87009 109.772 6.40988 109.772Z" fill="#EC5252"/>
<path fill-rule="evenodd" clip-rule="evenodd" d="M59.6551 47.9167C63.1949 47.9167 66.065 50.7795 66.065 54.307C66.065 57.8377 63.1949 60.6972 59.6551 60.6972C56.1153 60.6972 53.2485 57.8344 53.2485 54.307C53.2485 50.7795 56.1186 47.9167 59.6551 47.9167Z" fill="#EC5252"/>
<path fill-rule="evenodd" clip-rule="evenodd" d="M99.0975 50.5559C102.637 50.5559 105.504 53.4187 105.504 56.9461C105.504 60.4769 102.634 63.3364 99.0975 63.3364C95.5577 63.3364 92.6909 60.4769 92.6909 56.9461C92.6909 53.4187 95.5577 50.5559 99.0975 50.5559Z" fill="#EC5252"/>
<path fill-rule="evenodd" clip-rule="evenodd" d="M196.499 0C200.039 0 202.906 2.86277 202.906 6.39022C202.906 9.92097 200.036 12.7804 196.499 12.7804C192.96 12.7804 190.093 9.91768 190.093 6.39022C190.093 2.86277 192.963 0 196.499 0Z" fill="#EC5252"/>
<path fill-rule="evenodd" clip-rule="evenodd" d="M84.6709 61.8555C87.0891 61.8555 89.052 63.8133 89.052 66.2286C89.052 68.6439 87.0891 70.5984 84.6709 70.5984C82.2495 70.5984 80.2866 68.6406 80.2866 66.2286C80.2866 63.8133 82.2495 61.8555 84.6709 61.8555Z" fill="#EC5252"/>
<path fill-rule="evenodd" clip-rule="evenodd" d="M118.654 69.3613C121.075 69.3613 123.035 71.3192 123.035 73.7312C123.035 76.1464 121.072 78.1043 118.654 78.1043C116.232 78.1043 114.27 76.1464 114.27 73.7312C114.27 71.3159 116.232 69.3613 118.654 69.3613Z" fill="#EC5252"/>
</g>
<defs>
<clipPath id="clip0">
<rect width="216.049" height="190.927" fill="white"/>
</clipPath>
</defs>
</svg>
