<svg width="201" height="189" viewBox="0 0 201 189" fill="none" xmlns="http://www.w3.org/2000/svg">
<g clip-path="url(#clip0)">
<path d="M72.5545 169.469C71.9327 169.469 71.4105 168.968 71.4002 168.347C71.3899 167.718 71.8812 167.2 72.5098 167.193C73.1935 167.193 73.7157 167.691 73.726 168.316C73.7363 168.944 73.245 169.463 72.6163 169.469C72.5648 169.469 72.5614 169.469 72.5545 169.469ZM68.3393 169.384C67.5869 169.353 67.0991 168.821 67.1266 168.192C67.1541 167.564 67.6865 167.08 68.3118 167.1C69.0298 167.138 69.5107 167.677 69.4764 168.306C69.442 168.913 68.9405 169.384 68.3393 169.384ZM76.7869 169.332C76.1926 169.332 75.6945 168.872 75.6498 168.271C75.6051 167.643 76.0792 167.1 76.7079 167.056C77.4637 167.049 77.9652 167.519 77.9996 168.124C78.034 168.752 77.553 169.291 76.9243 169.325C76.8384 169.332 76.8144 169.332 76.7869 169.332ZM64.0897 169.047C64.0485 169.047 64.0038 169.044 63.9591 169.04C63.2618 168.961 62.8117 168.398 62.8804 167.773C62.9491 167.149 63.5091 166.699 64.1378 166.767C64.8386 166.846 65.2886 167.409 65.2165 168.034C65.1547 168.615 64.66 169.047 64.0897 169.047ZM81.0399 168.989C80.4593 168.989 79.9646 168.549 79.9062 167.962C79.8444 167.337 80.3013 166.778 80.93 166.716C81.6205 166.64 82.177 167.09 82.2492 167.715C82.3179 168.34 81.8679 168.903 81.2426 168.972C81.1155 168.985 81.0777 168.989 81.0399 168.989ZM85.2723 168.453C84.7124 168.453 84.2245 168.041 84.1455 167.471C84.0596 166.846 84.4925 166.273 85.1177 166.187C85.7979 166.084 86.3785 166.51 86.4747 167.131C86.5709 167.753 86.1449 168.336 85.5231 168.433C85.3754 168.45 85.3239 168.453 85.2723 168.453ZM59.871 168.433C59.8023 168.433 59.7336 168.426 59.6649 168.415C58.9709 168.288 58.5621 167.691 58.6789 167.073C58.7923 166.455 59.3935 166.046 60.0084 166.16C60.6955 166.287 61.1078 166.881 60.9944 167.499C60.8879 168.048 60.4104 168.433 59.871 168.433ZM89.4807 167.743C88.9482 167.743 88.4741 167.368 88.3642 166.826C88.2405 166.208 88.6424 165.61 89.2574 165.487C89.9651 165.356 90.5594 165.765 90.6762 166.386C90.7896 167.004 90.3808 167.598 89.7589 167.712C89.6284 167.736 89.5528 167.743 89.4807 167.743ZM55.7073 167.512C55.6146 167.512 55.5184 167.502 55.4222 167.475C54.7248 167.286 54.3675 166.658 54.5359 166.05C54.7042 165.442 55.3294 165.089 55.9375 165.253C56.6005 165.425 56.9681 166.043 56.8101 166.654C56.6761 167.169 56.2158 167.512 55.7073 167.512ZM93.6581 166.867C93.1394 166.867 92.6687 166.51 92.5485 165.981C92.4076 165.367 92.7924 164.755 93.4039 164.618C94.0875 164.46 94.699 164.845 94.8399 165.459C94.9807 166.074 94.596 166.685 93.9845 166.822C93.8264 166.857 93.7406 166.867 93.6581 166.867ZM51.6295 166.263C51.5024 166.263 51.3753 166.242 51.2516 166.197C50.5852 165.961 50.276 165.308 50.489 164.714C50.702 164.124 51.3547 163.815 51.9456 164.028C52.6017 164.261 52.9143 164.91 52.7048 165.504C52.5399 165.971 52.1002 166.263 51.6295 166.263ZM97.7978 165.834C97.2893 165.834 96.8255 165.494 96.695 164.979C96.537 164.371 96.9046 163.75 97.5161 163.592C98.1757 163.41 98.8043 163.767 98.9692 164.374C99.1376 164.982 98.7803 165.607 98.1722 165.775C97.9867 165.823 97.8905 165.834 97.7978 165.834ZM47.6822 164.659C47.5208 164.659 47.3593 164.625 47.2047 164.553C46.5657 164.258 46.3184 163.581 46.5829 163.011C46.8474 162.441 47.5242 162.191 48.0945 162.455C48.7335 162.75 48.9808 163.427 48.7197 163.997C48.5239 164.416 48.1117 164.659 47.6822 164.659ZM101.896 164.639C101.408 164.639 100.955 164.323 100.807 163.832C100.625 163.231 100.965 162.592 101.566 162.411C102.216 162.201 102.858 162.531 103.054 163.128C103.246 163.725 102.92 164.368 102.319 164.563C102.116 164.625 102.006 164.639 101.896 164.639ZM105.94 163.259C105.483 163.259 105.05 162.98 104.878 162.531C104.651 161.944 104.943 161.284 105.531 161.058C106.184 160.804 106.843 161.092 107.073 161.679C107.303 162.266 107.015 162.926 106.427 163.156C106.214 163.231 106.077 163.259 105.94 163.259ZM43.9033 162.692C43.7075 162.692 43.5117 162.644 43.333 162.538C42.7181 162.17 42.5395 161.473 42.8624 160.931C43.1853 160.392 43.8861 160.213 44.4255 160.536C45.0198 160.883 45.2053 161.58 44.8893 162.122C44.6797 162.49 44.2949 162.692 43.9033 162.692ZM40.3408 160.354C40.1038 160.354 39.8667 160.282 39.664 160.131C39.1041 159.726 38.9907 159.015 39.3617 158.503C39.7293 157.995 40.4439 157.879 40.9523 158.249C41.526 158.675 41.6325 159.389 41.2581 159.894C41.0313 160.196 40.6878 160.354 40.3408 160.354ZM37.0394 157.662C36.768 157.662 36.4932 157.566 36.2733 157.367C35.7511 156.893 35.7168 156.176 36.1393 155.709C36.5619 155.242 37.2833 155.207 37.7505 155.63C38.2693 156.1 38.307 156.821 37.8845 157.288C37.6578 157.535 37.3486 157.662 37.0394 157.662ZM34.1124 154.569C33.7792 154.569 33.4494 154.425 33.2227 154.143C32.7795 153.583 32.8654 152.869 33.3601 152.478C33.8548 152.086 34.5693 152.172 34.961 152.667C35.3938 153.206 35.3183 153.923 34.827 154.318C34.614 154.486 34.3632 154.569 34.1124 154.569ZM31.7764 151.012C31.3641 151.012 30.9656 150.789 30.7629 150.394C30.44 149.786 30.6496 149.096 31.2061 148.801C31.7626 148.506 32.4531 148.718 32.7486 149.271C33.0784 149.91 32.8585 150.596 32.2985 150.885C32.1302 150.974 31.9516 151.012 31.7764 151.012ZM57.0574 150.384C56.4288 150.384 55.9169 149.872 55.9169 149.244C55.9169 148.615 56.4288 148.104 57.0574 148.104C57.7548 148.104 58.2633 148.602 58.2701 149.227C58.2804 149.855 57.7754 150.373 57.1468 150.38L57.0574 150.384ZM52.8766 150.154C52.0795 150.071 51.6158 149.508 51.6845 148.883C51.7532 148.258 52.296 147.805 52.9281 147.874C53.598 147.953 54.0618 148.519 53.9896 149.144C53.9244 149.724 53.4468 150.154 52.8766 150.154ZM61.307 150.061C60.7539 150.061 60.2695 149.656 60.1802 149.093C60.084 148.471 60.5134 147.891 61.1352 147.795C61.8464 147.695 62.4201 148.128 62.5094 148.753C62.5987 149.378 62.1624 149.951 61.5406 150.04C61.4204 150.057 61.362 150.061 61.307 150.061ZM48.6854 149.388C48.5961 149.388 48.5067 149.378 48.414 149.357C47.7132 149.175 47.349 148.554 47.5105 147.946C47.6685 147.338 48.2937 146.974 48.9018 147.132C49.5648 147.294 49.9427 147.908 49.7916 148.519C49.6645 149.038 49.1973 149.388 48.6854 149.388ZM65.4707 149.154C64.976 149.154 64.5225 148.832 64.3783 148.334C64.203 147.73 64.55 147.098 65.1547 146.923C65.8143 146.724 66.4498 147.064 66.6319 147.664C66.814 148.265 66.4738 148.904 65.8727 149.086C65.6837 149.141 65.5772 149.154 65.4707 149.154ZM44.6213 148.104C44.4839 148.104 44.3465 148.08 44.2091 148.025C43.5632 147.785 43.2643 147.129 43.4842 146.538C43.7041 145.948 44.3602 145.649 44.9511 145.869C45.621 146.126 45.913 146.789 45.6828 147.373C45.5076 147.829 45.0782 148.104 44.6213 148.104ZM69.4523 147.633C69.0332 147.633 68.6313 147.403 68.432 147.005C68.1503 146.442 68.3771 145.759 68.9405 145.477C69.5932 145.165 70.2734 145.405 70.5448 145.975C70.8162 146.542 70.5757 147.221 70.0054 147.493C69.7959 147.592 69.6241 147.633 69.4523 147.633ZM30.2476 147.029C29.7426 147.029 29.2857 146.7 29.1552 146.188C28.9868 145.536 29.351 144.901 29.959 144.743C30.5671 144.588 31.1855 144.938 31.3435 145.549C31.5118 146.202 31.1477 146.837 30.5396 146.995C30.44 147.015 30.3404 147.029 30.2476 147.029ZM40.7427 146.336C40.5675 146.336 40.3889 146.294 40.2206 146.209C39.5953 145.886 39.3755 145.199 39.664 144.64C39.9526 144.08 40.6397 143.86 41.1997 144.149C41.8249 144.471 42.0448 145.158 41.7562 145.718C41.5535 146.112 41.155 146.336 40.7427 146.336ZM73.1179 145.464C72.7675 145.464 72.424 145.306 72.2006 145.004C71.8262 144.499 71.9327 143.785 72.4377 143.41C73.0183 142.992 73.7294 143.105 74.1004 143.613C74.4714 144.121 74.3546 144.835 73.8462 145.203C73.592 145.391 73.3515 145.464 73.1179 145.464ZM36.9913 144.313C36.7989 144.313 36.6065 144.265 36.4279 144.162C35.8198 143.819 35.6274 143.125 35.9366 142.576C36.2458 142.027 36.9398 141.835 37.4894 142.144C38.1044 142.494 38.2933 143.191 37.9841 143.737C37.7711 144.107 37.3864 144.313 36.9913 144.313ZM29.7289 142.823C29.1002 142.823 28.5883 142.312 28.5883 141.683C28.5883 140.99 29.1002 140.475 29.7289 140.475C30.3575 140.475 30.8694 140.98 30.8694 141.611C30.8694 142.312 30.3575 142.823 29.7289 142.823ZM76.2922 142.635C76.0208 142.635 75.746 142.538 75.5261 142.339C75.0589 141.917 75.0245 141.196 75.4471 140.729C75.9074 140.211 76.6254 140.169 77.0995 140.588C77.5702 141.007 77.6114 141.725 77.1923 142.195C76.9106 142.507 76.6014 142.635 76.2922 142.635ZM33.3326 142.126C33.1265 142.126 32.9204 142.071 32.7314 141.955C32.1268 141.57 31.9722 140.866 32.3123 140.334C32.6524 139.805 33.3566 139.648 33.8857 139.987C34.4697 140.351 34.6346 141.055 34.3014 141.587C34.0849 141.938 33.7139 142.126 33.3326 142.126ZM29.7838 139.768C29.5605 139.768 29.3338 139.702 29.1345 139.565C28.5505 139.15 28.4303 138.439 28.7944 137.927C28.8735 137.818 28.9662 137.725 29.0727 137.653C29.0487 137.509 29.0521 137.361 29.0865 137.21C29.2273 136.54 29.8319 136.146 30.4503 136.276C31.0652 136.406 31.4603 137.011 31.3298 137.625C31.2473 137.982 31.0962 138.209 30.8935 138.363C30.9656 138.669 30.9141 139.002 30.7217 139.28C30.4984 139.599 30.1446 139.768 29.7838 139.768ZM78.7519 139.167C78.5733 139.167 78.3878 139.122 78.2195 139.033C77.6629 138.738 77.4534 138.048 77.7488 137.491C78.0855 136.867 78.776 136.661 79.3325 136.959C79.8856 137.258 80.0918 137.948 79.7929 138.504C79.5558 138.947 79.1608 139.167 78.7519 139.167ZM26.3553 137.224C26.1114 137.224 25.8675 137.145 25.6614 136.98C25.1151 136.558 25.0224 135.843 25.4071 135.342C25.7919 134.844 26.5065 134.752 27.0046 135.136C27.5508 135.569 27.6402 136.29 27.252 136.784C27.0252 137.073 26.6885 137.224 26.3553 137.224ZM80.2807 135.205C80.1982 135.205 80.1124 135.194 80.0265 135.177C79.4115 135.037 79.0302 134.425 79.1711 133.814C79.3394 133.117 79.9578 132.74 80.5693 132.891C81.1808 133.038 81.5552 133.656 81.4075 134.267C81.2701 134.848 80.7994 135.205 80.2807 135.205ZM31.5221 134.559C31.3676 134.559 31.213 134.528 31.0652 134.463C30.4881 134.209 30.227 133.54 30.4812 132.963C30.7492 132.328 31.4225 132.06 31.9997 132.304C32.5802 132.551 32.8482 133.217 32.6043 133.797C32.381 134.305 31.9619 134.559 31.5221 134.559ZM23.0986 134.487C22.8306 134.487 22.5592 134.391 22.3428 134.199C21.8137 133.722 21.7794 133.001 22.2019 132.534C22.6245 132.067 23.3459 132.032 23.8131 132.455C24.3319 132.915 24.3731 133.636 23.954 134.106C23.7272 134.357 23.4146 134.487 23.0986 134.487ZM20.0136 131.552C19.7216 131.552 19.4296 131.442 19.2063 131.219C18.7081 130.711 18.715 129.99 19.1616 129.547C19.6116 129.107 20.3331 129.114 20.7728 129.56C21.2606 130.051 21.2606 130.772 20.8175 131.215C20.5976 131.442 20.3056 131.552 20.0136 131.552ZM80.7513 130.982C80.1295 130.982 79.6211 130.48 79.6108 129.859C79.6005 129.155 80.1055 128.64 80.7342 128.63C81.3732 128.63 81.8816 129.128 81.8885 129.753C81.8988 130.456 81.3938 130.971 80.7651 130.982C80.7617 130.982 80.7548 130.982 80.7513 130.982ZM33.5181 130.783C33.3154 130.783 33.1093 130.728 32.9272 130.614C32.3913 130.281 32.223 129.591 32.5562 129.059C32.91 128.489 33.6212 128.314 34.1571 128.644C34.693 128.977 34.8614 129.667 34.5281 130.199C34.2876 130.587 33.9063 130.783 33.5181 130.783ZM17.1278 128.417C16.8049 128.417 16.4854 128.283 16.2621 128.019C15.8052 127.483 15.8636 126.766 16.3411 126.357C16.8187 125.949 17.5401 126.003 17.9489 126.484C18.4058 127.02 18.3508 127.737 17.8699 128.146C17.6535 128.328 17.3889 128.417 17.1278 128.417ZM36.0328 127.356C35.7752 127.356 35.5141 127.27 35.3011 127.092C34.8167 126.687 34.7549 125.969 35.1568 125.488C35.5965 124.953 36.3145 124.884 36.8023 125.282C37.2867 125.681 37.3589 126.398 36.9604 126.886C36.6821 127.215 36.3592 127.356 36.0328 127.356ZM80.236 126.759C79.707 126.759 79.2363 126.391 79.123 125.856C78.9718 125.19 79.3531 124.579 79.9681 124.438C80.583 124.297 81.1945 124.682 81.3319 125.293C81.4831 126 81.088 126.604 80.4731 126.731C80.3941 126.752 80.3116 126.759 80.236 126.759ZM14.4688 125.09C14.1184 125.09 13.7749 124.932 13.5516 124.63C13.1325 124.067 13.239 123.353 13.744 122.979C14.2524 122.604 14.9635 122.711 15.338 123.216C15.7571 123.779 15.6506 124.493 15.1456 124.867C14.9395 125.018 14.7025 125.09 14.4688 125.09ZM38.9392 124.239C38.6403 124.239 38.3414 124.122 38.1181 123.888C37.6818 123.435 37.6956 122.714 38.149 122.278C38.654 121.791 39.3789 121.804 39.8152 122.261C40.2515 122.714 40.2377 123.435 39.7843 123.871C39.5094 124.132 39.2243 124.239 38.9392 124.239ZM78.9581 122.701C78.5183 122.701 78.1027 122.446 77.9137 122.021C77.632 121.362 77.9034 120.692 78.484 120.445C79.0646 120.198 79.731 120.469 79.9784 121.049C80.2532 121.677 79.9921 122.35 79.415 122.604C79.2673 122.67 79.1092 122.701 78.9581 122.701ZM12.0503 121.581C11.6759 121.581 11.3049 121.396 11.0884 121.056C10.7105 120.459 10.8686 119.755 11.3976 119.418C11.9301 119.082 12.6343 119.24 12.971 119.772C13.3455 120.359 13.1909 121.063 12.6618 121.403C12.4729 121.523 12.2599 121.581 12.0503 121.581ZM42.165 121.447C41.8249 121.447 41.4882 121.296 41.2615 121.004C40.8767 120.507 40.9695 119.793 41.4676 119.408C41.9967 118.982 42.7147 119.061 43.1097 119.552C43.5048 120.043 43.4258 120.761 42.9345 121.152C42.6528 121.372 42.4089 121.447 42.165 121.447ZM76.8384 119.02C76.4983 119.02 76.1617 118.869 75.9349 118.577C75.5055 118.021 75.5983 117.307 76.0964 116.922C76.5945 116.538 77.3091 116.63 77.6938 117.128C78.1233 117.684 78.0305 118.399 77.5324 118.783C77.3263 118.941 77.0823 119.02 76.8384 119.02ZM45.6519 118.989C45.2775 118.989 44.9064 118.804 44.69 118.464C44.3499 117.935 44.5045 117.228 45.037 116.891C45.6451 116.514 46.3493 116.675 46.6791 117.211C47.0123 117.746 46.8474 118.447 46.315 118.78C46.0745 118.931 45.8615 118.989 45.6519 118.989ZM9.8929 117.911C9.48753 117.911 9.09589 117.695 8.88977 117.314C8.55654 116.703 8.75922 116.009 9.31232 115.707C9.86542 115.405 10.5559 115.607 10.8583 116.16C11.1949 116.785 10.9888 117.475 10.4357 117.774C10.2605 117.866 10.075 117.911 9.8929 117.911ZM49.3621 116.888C48.943 116.888 48.5411 116.658 48.3418 116.26C48.0601 115.697 48.2869 115.013 48.8503 114.732C49.4721 114.419 50.1592 114.643 50.4409 115.202C50.726 115.762 50.5027 116.448 49.9393 116.733C49.7091 116.85 49.5339 116.888 49.3621 116.888ZM73.7878 116.047C73.5645 116.047 73.3378 115.978 73.142 115.837C72.5957 115.449 72.4617 114.728 72.8259 114.217C73.19 113.705 73.8909 113.575 74.4027 113.939C74.949 114.327 75.0829 115.048 74.7188 115.559C74.4955 115.879 74.1451 116.047 73.7878 116.047ZM53.2682 115.175C52.8044 115.175 52.3716 114.893 52.1998 114.433C51.9799 113.843 52.2788 113.187 52.8697 112.967C53.519 112.72 54.1751 113.015 54.4019 113.602C54.6252 114.189 54.3332 114.849 53.7457 115.072C53.5327 115.151 53.3987 115.175 53.2682 115.175ZM7.99313 114.097C7.56027 114.097 7.14459 113.849 6.95564 113.427C6.66707 112.778 6.92472 112.105 7.49844 111.848C8.07215 111.59 8.74548 111.848 9.00314 112.425C9.29171 113.056 9.03749 113.733 8.46378 113.994C8.31262 114.066 8.15116 114.097 7.99313 114.097ZM70.0329 114.097C69.9127 114.097 69.7924 114.076 69.6722 114.038C68.9886 113.798 68.6794 113.149 68.8889 112.555C69.0985 111.961 69.7512 111.652 70.3421 111.862C70.9914 112.078 71.3143 112.723 71.1151 113.321C70.9536 113.794 70.5104 114.097 70.0329 114.097ZM57.3391 113.915C56.8238 113.915 56.36 113.564 56.2329 113.043C56.0852 112.431 56.4597 111.817 57.0712 111.666C57.7548 111.498 58.3698 111.875 58.5209 112.486C58.6686 113.098 58.2942 113.712 57.6827 113.863C57.5178 113.904 57.4285 113.915 57.3391 113.915ZM61.5681 113.201C60.9875 113.201 60.4791 112.761 60.4207 112.174C60.3588 111.549 60.8055 110.993 61.4307 110.931C62.104 110.866 62.6709 111.322 62.7327 111.947C62.7945 112.572 62.3514 113.128 61.7261 113.19C61.6437 113.201 61.6059 113.201 61.5681 113.201ZM65.8761 113.197C65.0653 113.125 64.605 112.565 64.6668 111.94C64.7287 111.316 65.2852 110.856 65.9104 110.917C66.5975 110.976 67.0613 111.528 67.0098 112.153C66.9582 112.751 66.4601 113.197 65.8761 113.197ZM6.35788 110.165C5.89411 110.165 5.46125 109.884 5.28948 109.424C5.04213 108.775 5.33757 108.119 5.92502 107.893C6.51591 107.669 7.17207 107.961 7.39537 108.548C7.64616 109.214 7.34384 109.87 6.75639 110.09C6.62584 110.141 6.49186 110.165 6.35788 110.165ZM4.97342 106.138C4.48559 106.138 4.03212 105.822 3.8844 105.331C3.67484 104.682 4.00464 104.04 4.6024 103.845C5.20016 103.652 5.84258 103.979 6.03839 104.579C6.24795 105.27 5.91128 105.905 5.30665 106.09C5.19672 106.121 5.08335 106.138 4.97342 106.138ZM3.83287 102.032C3.31756 102.032 2.85378 101.682 2.72667 101.16C2.5549 100.494 2.92249 99.8723 3.53399 99.7178C4.14549 99.5599 4.76386 99.9272 4.92189 100.538C5.09022 101.235 4.71577 101.853 4.10427 102.001C4.01151 102.025 3.92219 102.032 3.83287 102.032ZM2.91562 97.8741C2.38313 97.8741 1.90561 97.4964 1.79912 96.954C1.66857 96.2501 2.07738 95.6562 2.69575 95.5429C3.31412 95.4261 3.90845 95.8347 4.02525 96.4561C4.15923 97.1325 3.75729 97.7333 3.13892 97.8535C3.06334 97.8672 2.98776 97.8741 2.91562 97.8741ZM2.20106 93.6717C1.64109 93.6717 1.15326 93.2597 1.07425 92.6898C0.971186 92.01 1.39717 91.4263 2.01898 91.3336C2.64422 91.2409 3.22137 91.6666 3.31756 92.2881C3.41719 92.9988 2.98433 93.5721 2.35909 93.6614C2.30755 93.6683 2.25602 93.6717 2.20106 93.6717ZM1.67888 89.4453C1.0983 89.4453 0.603599 89.0058 0.545197 88.4153C0.469618 87.7355 0.919655 87.169 1.5449 87.1003C2.17357 87.0316 2.73354 87.4814 2.80569 88.1063C2.87439 88.8238 2.41749 89.38 1.79224 89.4418C1.75446 89.4418 1.71667 89.4453 1.67888 89.4453ZM1.32503 85.1982C0.730708 85.1982 0.232576 84.7382 0.187916 84.1373C0.146691 83.4198 0.627646 82.8842 1.25632 82.8464C1.89187 82.8121 2.42436 83.2927 2.45871 83.921C2.50681 84.6077 2.03272 85.1502 1.40405 85.1948C1.37656 85.1982 1.35251 85.1982 1.32503 85.1982ZM1.13952 80.9409C0.517714 80.9409 0.00927545 80.4431 -0.00103074 79.8182C-0.0182077 79.1315 0.476489 78.6062 1.10517 78.5891C1.73384 78.5753 2.25946 79.0663 2.27664 79.6946C2.28694 80.4122 1.78537 80.9306 1.15326 80.9375C1.14983 80.9409 1.14296 80.9409 1.13952 80.9409ZM1.17387 76.6801C0.497101 76.6527 0.00927545 76.1239 0.0333232 75.4922C0.0539356 74.8055 0.57268 74.3214 1.20479 74.3283C1.83347 74.3455 2.3316 74.8708 2.31099 75.4991C2.28694 76.2029 1.78194 76.6801 1.17387 76.6801ZM1.44527 72.4297C0.70666 72.361 0.249753 71.8048 0.308155 71.1799C0.366556 70.4967 0.919655 70.0298 1.5449 70.0813C2.17357 70.1328 2.63735 70.6855 2.58582 71.3104C2.52055 71.9902 2.02585 72.4297 1.44527 72.4297ZM1.95371 68.1998C1.89531 68.1998 1.83691 68.1964 1.7785 68.1861C1.1567 68.0899 0.730708 67.5062 0.826899 66.8848C0.92309 66.205 1.49337 65.7724 2.12204 65.8583C2.74385 65.9441 3.18014 66.5209 3.09426 67.1458C2.9912 67.7981 2.50681 68.1998 1.95371 68.1998ZM2.69919 64.0077C2.62018 64.0077 2.54116 64.0008 2.46215 63.9837C1.84721 63.8532 1.45214 63.2489 1.58612 62.6309C1.7201 61.958 2.32473 61.5563 2.93623 61.6799C3.5546 61.8035 3.95654 62.4009 3.83287 63.0189C3.69889 63.6403 3.2248 64.0077 2.69919 64.0077ZM3.68515 59.8636C3.58552 59.8636 3.48589 59.8499 3.38283 59.8224C2.77477 59.6576 2.41749 59.0293 2.58239 58.4251C2.75416 57.759 3.37596 57.3951 3.98746 57.553C4.59553 57.7109 4.96311 58.3324 4.80509 58.9401C4.64362 59.5306 4.18328 59.8636 3.68515 59.8636ZM4.90471 55.7814C4.78447 55.7814 4.6608 55.7608 4.54056 55.723C3.9428 55.5239 3.62331 54.8784 3.82256 54.281C4.03556 53.6253 4.67798 53.2957 5.27573 53.4914C5.87349 53.6836 6.20329 54.3257 6.01091 54.9265C5.8254 55.4827 5.38223 55.7814 4.90471 55.7814ZM6.35445 51.761C6.22047 51.761 6.08305 51.7369 5.95251 51.6854C5.36506 51.4588 5.06961 50.8099 5.29635 50.2263C5.54026 49.598 6.20673 49.2958 6.79418 49.5224C7.38163 49.749 7.67708 50.3979 7.45034 50.9816C7.25452 51.476 6.81823 51.761 6.35445 51.761ZM8.03779 47.8641C7.87976 47.8641 7.7183 47.8298 7.56371 47.7611C6.99 47.5002 6.73921 46.8238 7.00374 46.2505C7.30605 45.605 7.98626 45.3612 8.55654 45.6256C9.12681 45.8934 9.37072 46.5698 9.10276 47.1397C8.8829 47.6169 8.47065 47.8641 8.03779 47.8641ZM9.94444 44.0428C9.76236 44.0428 9.58028 43.9982 9.40851 43.9089C8.85198 43.6102 8.64586 42.9201 8.9413 42.3674C9.26766 41.7494 9.95818 41.5399 10.5147 41.8352C11.0712 42.1305 11.2808 42.8206 10.9854 43.3768C10.7449 43.8231 10.3498 44.0428 9.94444 44.0428ZM12.0641 40.3348C11.8579 40.3348 11.6518 40.2799 11.4663 40.1632C10.9304 39.8336 10.7655 39.1297 11.0953 38.5941C11.4457 38.007 12.1465 37.8285 12.6859 38.1512C13.2252 38.474 13.4039 39.1744 13.081 39.7134C12.8199 40.1426 12.4454 40.3348 12.0641 40.3348ZM14.3864 36.7539C14.1631 36.7539 13.9398 36.6886 13.7405 36.5513C13.2218 36.1942 13.0913 35.4835 13.4485 34.9685C13.847 34.3883 14.5582 34.2578 15.0769 34.6149C15.5957 34.972 15.7262 35.6827 15.3689 36.1977C15.1044 36.5822 14.7471 36.7539 14.3864 36.7539ZM16.9011 33.3068C16.6572 33.3068 16.4133 33.2278 16.2037 33.0699C15.7056 32.6854 15.6128 31.9712 15.9976 31.4734C16.4236 30.9206 17.1382 30.8245 17.6363 31.2056C18.1378 31.5867 18.2306 32.3043 17.8493 32.8021C17.5813 33.1557 17.2446 33.3068 16.9011 33.3068ZM19.6048 30.0074C19.3402 30.0074 19.0757 29.9181 18.8593 29.7293C18.3818 29.3173 18.3302 28.5997 18.739 28.1225C19.1994 27.5903 19.9174 27.5388 20.3949 27.9474C20.8724 28.3594 20.924 29.0769 20.5151 29.5542C20.2437 29.8735 19.9243 30.0074 19.6048 30.0074ZM22.4802 26.8556C22.1951 26.8556 21.9099 26.7491 21.69 26.5363C21.2366 26.1002 21.2228 25.3792 21.6591 24.926C22.147 24.4213 22.8684 24.4042 23.3219 24.8402C23.7753 25.2762 23.7891 25.9972 23.3528 26.4504C23.0779 26.7388 22.7791 26.8556 22.4802 26.8556ZM25.5205 23.8617C25.2148 23.8617 24.909 23.7381 24.6823 23.4943C24.2563 23.0308 24.2838 22.3133 24.7441 21.8841C25.2422 21.4103 25.9637 21.4275 26.3965 21.8841C26.8294 22.3407 26.8122 23.0617 26.3553 23.4943C26.077 23.7621 25.7988 23.8617 25.5205 23.8617ZM128.819 23.4943C128.435 23.4943 128.06 23.2986 127.844 22.945C127.48 22.3545 127.644 21.654 128.18 21.321C128.716 20.9914 129.417 21.1562 129.75 21.6918C130.121 22.2995 129.95 22.9999 129.41 23.3261C129.225 23.4394 129.019 23.4943 128.819 23.4943ZM28.7154 21.0361C28.3925 21.0361 28.0696 20.8987 27.8428 20.6309C27.4375 20.1502 27.4959 19.4327 27.9768 19.0241C28.5334 18.5675 29.2514 18.6361 29.6499 19.1237C30.0484 19.6112 29.9797 20.3288 29.4918 20.727C29.2376 20.9468 28.9765 21.0361 28.7154 21.0361ZM126.308 20.0541C125.989 20.0541 125.669 19.9202 125.446 19.6593C124.985 19.1202 125.04 18.4027 125.521 17.9941C126.002 17.5855 126.72 17.6439 127.129 18.1211C127.586 18.6499 127.531 19.3674 127.054 19.7794C126.837 19.9648 126.573 20.0541 126.308 20.0541ZM32.0581 18.3821C31.7111 18.3821 31.3676 18.2241 31.1443 17.9254C30.7664 17.4207 30.8694 16.7066 31.371 16.3324C31.931 15.9101 32.6455 16.0096 33.0234 16.5143C33.4013 17.0156 33.3017 17.7297 32.8001 18.1108C32.5356 18.31 32.2951 18.3821 32.0581 18.3821ZM123.34 16.9984C123.069 16.9984 122.797 16.9023 122.577 16.7066C122.052 16.2259 122.017 15.5049 122.443 15.0414C122.869 14.5779 123.591 14.547 124.054 14.9693C124.57 15.4328 124.608 16.1538 124.188 16.6208C123.965 16.8714 123.653 16.9984 123.34 16.9984ZM35.5313 15.9101C35.1637 15.9101 34.8064 15.735 34.5865 15.4088C34.2327 14.8869 34.3735 14.1797 34.8923 13.826C35.4729 13.4312 36.1805 13.5685 36.5344 14.0904C36.8882 14.6123 36.7508 15.3195 36.2321 15.6732C35.971 15.8448 35.7511 15.9101 35.5313 15.9101ZM120.039 14.3067C119.808 14.3067 119.575 14.238 119.372 14.0904C118.798 13.6715 118.688 12.9574 119.059 12.4493C119.43 11.9411 120.145 11.8313 120.653 12.2021C121.217 12.6072 121.334 13.3213 120.963 13.8295C120.739 14.1419 120.392 14.3067 120.039 14.3067ZM39.1315 13.62C38.7433 13.62 38.3655 13.4209 38.1525 13.0638C37.8295 12.5248 38.0082 11.8244 38.5475 11.5017C39.135 11.1412 39.8358 11.3094 40.1656 11.845C40.4954 12.3806 40.3271 13.081 39.7911 13.4106C39.5301 13.5651 39.3308 13.62 39.1315 13.62ZM116.483 11.9583C116.287 11.9583 116.088 11.9068 115.906 11.8004C115.294 11.4364 115.119 10.736 115.442 10.197C115.765 9.65797 116.466 9.47944 117.005 9.80217C117.606 10.1558 117.785 10.8528 117.465 11.3952C117.256 11.7557 116.875 11.9583 116.483 11.9583ZM42.8452 11.5188C42.4364 11.5188 42.0413 11.2991 41.8386 10.9146C41.5432 10.3584 41.7562 9.66827 42.3093 9.37301C42.9311 9.04341 43.6216 9.25284 43.917 9.80904C44.2125 10.3652 44.0029 11.0553 43.4464 11.3506C43.2094 11.4776 43.0238 11.5188 42.8452 11.5188ZM112.742 9.92234C112.573 9.92234 112.402 9.88457 112.24 9.80561C111.608 9.49661 111.378 8.81337 111.656 8.24687C111.934 7.68381 112.615 7.45034 113.181 7.72844C113.814 8.03744 114.044 8.72067 113.765 9.28717C113.566 9.68887 113.161 9.92234 112.742 9.92234ZM46.6619 9.62021C46.2325 9.62021 45.8237 9.37644 45.6279 8.96444C45.3599 8.39451 45.6073 7.71814 46.1741 7.45034C46.8165 7.15164 47.4967 7.40227 47.7613 7.97221C48.0258 8.54214 47.775 9.21851 47.2047 9.48287C46.9917 9.58587 46.8268 9.62021 46.6619 9.62021ZM108.853 8.17477C108.709 8.17477 108.564 8.14731 108.423 8.08894C107.778 7.82801 107.496 7.16537 107.729 6.58171C107.963 5.99804 108.63 5.7165 109.214 5.94997C109.859 6.21434 110.145 6.88041 109.904 7.46407C109.725 7.90697 109.303 8.17477 108.853 8.17477ZM50.5783 7.92071C50.1282 7.92071 49.6988 7.64947 49.5202 7.20657C49.2866 6.62291 49.5683 5.96027 50.1523 5.72337C50.805 5.46244 51.468 5.74397 51.7051 6.32764C51.9387 6.91131 51.657 7.57394 51.073 7.81084C50.8634 7.89667 50.7191 7.92071 50.5783 7.92071ZM104.864 6.6847C104.741 6.6847 104.617 6.66411 104.497 6.62291C103.834 6.39974 103.514 5.75084 103.714 5.15687C103.916 4.5629 104.562 4.24017 105.16 4.44274C105.826 4.66934 106.146 5.31824 105.943 5.9122C105.782 6.386 105.338 6.6847 104.864 6.6847ZM54.5736 6.43407C54.0996 6.43407 53.6598 6.1388 53.4949 5.665C53.2888 5.07104 53.6049 4.42214 54.1992 4.21614C54.8794 3.98954 55.5218 4.31227 55.7211 4.90967C55.9203 5.50707 55.5974 6.15254 54.9996 6.35167C54.8244 6.41347 54.6973 6.43407 54.5736 6.43407ZM100.793 5.4281C100.694 5.4281 100.594 5.41437 100.495 5.3869C99.8075 5.19464 99.4536 4.5629 99.6254 3.95864C99.7972 3.35437 100.426 3.00074 101.03 3.1724C101.697 3.35437 102.058 3.97924 101.893 4.58694C101.755 5.09164 101.295 5.4281 100.793 5.4281ZM58.6446 5.16374C58.1465 5.16374 57.6895 4.83757 57.5487 4.33287C57.3769 3.7286 57.7308 3.09687 58.3354 2.9252C59.0053 2.73294 59.6374 3.08314 59.8126 3.6874C59.9844 4.29167 59.634 4.9234 59.0294 5.09507C58.8541 5.15 58.7476 5.16374 58.6446 5.16374ZM96.6641 4.3775C96.5816 4.3775 96.4958 4.3672 96.4133 4.35004C95.7228 4.1921 95.3415 3.58097 95.4823 2.96984C95.6232 2.35527 96.2347 1.97417 96.8462 2.11493C97.5298 2.26944 97.9146 2.87714 97.7772 3.4917C97.6569 4.017 97.1863 4.3775 96.6641 4.3775ZM62.7808 4.11657C62.2621 4.11657 61.7914 3.7595 61.6712 3.23077C61.5303 2.6162 61.9151 2.0085 62.5266 1.86773C63.1896 1.7201 63.8149 2.1012 63.9523 2.71577C64.0897 3.33034 63.7187 3.9346 63.1037 4.07537C62.9491 4.10627 62.8632 4.11657 62.7808 4.11657ZM92.4935 3.51574C92.4248 3.51574 92.3561 3.50887 92.2874 3.49857C91.5969 3.37154 91.1846 2.77757 91.298 2.15957C91.4114 1.54157 92.0023 1.133 92.6241 1.24287C93.3146 1.3699 93.7268 1.96387 93.6135 2.58187C93.5104 3.1312 93.0329 3.51574 92.4935 3.51574ZM66.9651 3.29944C66.4189 3.29944 65.9379 2.9046 65.8417 2.3484C65.7352 1.72697 66.1544 1.13987 66.7762 1.03687C67.4735 0.923567 68.0644 1.34587 68.1641 1.9673C68.2637 2.58874 67.8411 3.1724 67.2193 3.2754C67.0922 3.29257 67.0269 3.29944 66.9651 3.29944ZM88.2817 2.84967C88.2336 2.84967 88.1855 2.84624 88.1374 2.83937C87.4366 2.7501 86.9969 2.18017 87.0759 1.5553C87.1549 0.930434 87.7252 0.490967 88.3504 0.569934C89.0444 0.655767 89.4875 1.2257 89.412 1.85057C89.3364 2.4308 88.8451 2.84967 88.2817 2.84967ZM71.1872 2.71577C70.6135 2.71577 70.1222 2.2866 70.057 1.70293C69.9883 1.07807 70.4383 0.515 71.0635 0.446334C71.7747 0.374234 72.3312 0.824001 72.3965 1.4523C72.4617 2.07717 72.0083 2.64024 71.383 2.70547C71.2731 2.71234 71.2284 2.71577 71.1872 2.71577ZM84.0356 2.43767C83.2626 2.3896 82.7851 1.85057 82.8229 1.22227C82.8607 0.593967 83.4 0.116733 84.0322 0.157933C84.702 0.202567 85.1967 0.745034 85.1555 1.37333C85.1143 1.97417 84.6299 2.43767 84.0356 2.43767ZM75.4368 2.37244C74.8322 2.37244 74.3306 1.89863 74.2997 1.2875C74.2688 0.6592 74.7531 0.1236 75.3818 0.0961334C76.0826 0.0583667 76.6151 0.539034 76.6495 1.16733C76.6838 1.79563 76.2029 2.33124 75.5742 2.369C75.4746 2.37244 75.454 2.37244 75.4368 2.37244ZM79.7723 2.27974C79.0611 2.2763 78.5561 1.7613 78.5596 1.133C78.563 0.5047 79.0749 0 79.7001 0C80.4112 0.00343334 80.9162 0.518434 80.9128 1.14673C80.9094 1.77503 80.3975 2.27974 79.7723 2.27974Z" fill="#A5FFB9"/>
<path fill-rule="evenodd" clip-rule="evenodd" d="M27.5103 13.3108H113.151C116.398 13.3108 119.033 15.9442 119.033 19.1887V115.02C119.033 118.268 116.398 120.901 113.151 120.901H27.5103C24.2604 120.901 21.6289 118.268 21.6289 115.02V19.1887C21.6289 15.9442 24.2639 13.3108 27.5103 13.3108Z" fill="#CDDEFF"/>
<path d="M113.151 121.746H27.5102C23.8 121.746 20.7803 118.728 20.7803 115.02V19.1888C20.7803 15.4808 23.8 12.4629 27.5102 12.4629H113.151C116.861 12.4629 119.881 15.4808 119.881 19.1888V115.02C119.878 118.728 116.861 121.746 113.151 121.746ZM27.5102 14.1555C24.7344 14.1555 22.4739 16.4147 22.4739 19.1888V115.02C22.4739 117.798 24.7344 120.053 27.5102 120.053H113.151C115.927 120.053 118.187 117.794 118.187 115.02V19.1888C118.187 16.4112 115.927 14.1555 113.151 14.1555H27.5102Z" fill="#EC5252"/>
<path d="M95.4555 39.7683H64.2861V41.4575H95.4555V39.7683Z" fill="white"/>
<path d="M82.8442 45.9792H64.3687V47.6684H82.8442V45.9792Z" fill="white"/>
<path d="M95.4965 52.0391H64.3271V53.7283H95.4965V52.0391Z" fill="white"/>
<path d="M95.4555 39.7683H64.2861V41.4575H95.4555V39.7683Z" fill="white"/>
<path d="M95.4965 52.0391H64.3271V53.7283H95.4965V52.0391Z" fill="white"/>
<path d="M95.4555 39.7683H64.2861V41.4575H95.4555V39.7683Z" fill="white"/>
<path d="M82.8442 45.9792H64.3687V47.6684H82.8442V45.9792Z" fill="white"/>
<path d="M95.4965 52.0391H64.3271V53.7283H95.4965V52.0391Z" fill="white"/>
<path d="M95.4555 39.7683H64.2861V41.4575H95.4555V39.7683Z" fill="white"/>
<path d="M95.5377 45.9792H87.1553V47.6684H95.5377V45.9792Z" fill="white"/>
<path d="M95.4965 52.0391H64.3271V53.7283H95.4965V52.0391Z" fill="white"/>
<path d="M95.4555 23.1235H64.2861V24.8127H95.4555V23.1235Z" fill="white"/>
<path d="M82.8442 29.3345H64.3687V31.0237H82.8442V29.3345Z" fill="white"/>
<path d="M95.4965 35.3943H64.3271V37.0835H95.4965V35.3943Z" fill="white"/>
<path d="M95.4555 23.1235H64.2861V24.8127H95.4555V23.1235Z" fill="white"/>
<path d="M95.5377 29.3345H87.1553V31.0237H95.5377V29.3345Z" fill="white"/>
<path d="M95.4965 35.3943H64.3271V37.0835H95.4965V35.3943Z" fill="white"/>
<path d="M72.6032 114.993L65.5641 105.16L59.6278 112.685L40.022 108.96L39.8742 108.469L30.5918 77.971L32.2099 77.48L41.3446 107.487L58.9338 110.831L65.6328 102.348L73.9774 114.011L72.6032 114.993Z" fill="white"/>
<path fill-rule="evenodd" clip-rule="evenodd" d="M73.8812 111.676C75.568 111.676 76.9318 113.042 76.9318 114.725C76.9318 116.407 75.5645 117.774 73.8812 117.774C72.1979 117.774 70.8306 116.407 70.8306 114.725C70.8306 113.042 72.1979 111.676 73.8812 111.676Z" fill="white"/>
<path fill-rule="evenodd" clip-rule="evenodd" d="M65.4989 101.167C67.1857 101.167 68.5495 102.533 68.5495 104.216C68.5495 105.901 67.1822 107.264 65.4989 107.264C63.8121 107.264 62.4482 105.898 62.4482 104.216C62.4482 102.533 63.8155 101.167 65.4989 101.167Z" fill="white"/>
<path fill-rule="evenodd" clip-rule="evenodd" d="M59.2876 109.032C60.8301 109.032 62.0806 110.282 62.0806 111.824C62.0806 113.365 60.8301 114.615 59.2876 114.615C57.7451 114.615 56.4946 113.365 56.4946 111.824C56.4912 110.282 57.7451 109.032 59.2876 109.032Z" fill="white"/>
<path fill-rule="evenodd" clip-rule="evenodd" d="M40.7914 105.359C42.2755 105.359 43.4745 106.561 43.4745 108.04C43.4745 109.52 42.2721 110.722 40.7914 110.722C39.3108 110.722 38.1084 109.52 38.1084 108.04C38.1084 106.557 39.3108 105.359 40.7914 105.359Z" fill="white"/>
<path fill-rule="evenodd" clip-rule="evenodd" d="M31.3819 74.5652C33.1477 74.5652 34.5803 75.9969 34.5803 77.7616C34.5803 79.5264 33.1477 80.9581 31.3819 80.9581C29.6162 80.9581 28.1836 79.5264 28.1836 77.7616C28.1836 75.9969 29.6162 74.5652 31.3819 74.5652Z" fill="white"/>
<path fill-rule="evenodd" clip-rule="evenodd" d="M167.894 172.82H76.9355C76.9355 172.82 81.1919 158.016 85.0224 148.643C88.8563 139.27 92.5219 134.607 92.5219 134.607L88.846 121.306C88.846 121.306 78.076 113.183 77.5229 107.71C76.9698 102.238 80.0239 97.1289 80.0239 97.1289C80.0239 97.1289 60.5349 97.819 52.6713 94.5573C44.8042 91.2922 35.0512 80.8102 42.0078 70.0845C44.6771 65.9679 51.4277 63.4341 58.4805 60.6051C69.807 56.0593 82.2328 52.3754 82.2328 52.3754C82.2328 52.3754 80.7213 48.894 81.6454 45.1722C82.5661 41.4505 82.3497 37.9382 84.4384 35.6172C86.5271 33.2963 89.375 31.0955 92.381 29.5162C95.387 27.9403 99.3652 27.0167 99.3652 27.0167C99.3652 27.0167 103.385 12.7684 110.688 7.69049C117.992 2.60915 142.043 3.32329 150.762 11.5839C159.481 19.8445 161.247 26.9309 160.175 42.4496C159.533 51.7574 169.159 65.6177 175.397 65.8203C181.636 66.0229 193.083 66.7061 195.25 71.1866C200.112 81.2188 191.794 87.7937 191.794 87.7937C191.794 87.7937 198.569 96.3976 197.088 102.492C195.611 108.586 190.764 112.047 190.764 112.047C190.764 112.047 201.764 128.173 199.734 133.285C197.707 138.398 165.689 164.299 165.689 164.299C165.689 164.299 166.324 166.606 166.864 168.34C167.407 170.074 167.894 172.82 167.894 172.82Z" fill="white"/>
<path fill-rule="evenodd" clip-rule="evenodd" d="M167.162 126.154C167.162 126.154 161.477 120.922 158.704 118.292C155.932 115.659 152.971 113.001 152.971 113.001C152.971 113.001 147.677 117.519 144.88 121.526C142.087 125.533 139.954 128.067 139.954 128.067C139.954 128.067 144.915 131.39 152.895 130.271C160.876 129.152 167.162 126.154 167.162 126.154Z" fill="#EC5252"/>
<path fill-rule="evenodd" clip-rule="evenodd" d="M118.627 63.5408C118.627 63.5408 119.404 71.6984 116.126 71.9181C112.849 72.1378 105.518 70.0572 100.832 70.5242C96.1461 70.9911 92.3774 71.2589 92.3774 71.2589C92.3774 71.2589 91.948 69.2676 91.9377 67.7329C91.9274 66.1982 92.3053 63.5442 92.3053 63.5442C92.3053 63.5442 100.578 60.4405 102.014 58.6208C103.446 56.8011 103.776 54.4218 104.954 52.4477C106.133 50.4735 107.528 48.9216 107.528 48.9216C107.528 48.9216 110.41 59.0397 113.265 60.6053C116.113 62.1674 118.627 63.5408 118.627 63.5408Z" fill="#EC5252"/>
<path fill-rule="evenodd" clip-rule="evenodd" d="M98.2588 37.0867C98.2588 37.0867 103.951 13.8156 114.436 8.94023C124.921 4.06489 145.293 5.37643 151.865 13.6439C158.437 21.9079 160.845 25.4374 160.099 38.4841C159.357 51.5273 165.514 60.787 170.54 63.3243C179.07 67.6262 191.915 63.8873 194.951 70.9669C199.431 81.4077 192.378 88.0168 192.378 88.0168C192.378 88.0168 200.675 96.7203 196.789 104.112C192.904 111.501 190.685 111.903 190.685 111.903C190.685 111.903 170.849 81.9982 160.683 78.3176C150.518 74.6371 135.732 73.5522 134.653 71.5574C133.571 69.5592 134.21 58.6961 134.21 58.6961L139.064 53.7727C139.064 53.7727 152.703 56.1417 151.051 47.452C150.168 42.8032 145.681 44.513 145.681 44.513C145.681 44.513 134.135 35.0302 127.223 30.0346C120.311 25.0391 113.838 19.5252 113.838 19.5252L111.561 22.8315L109.795 28.1978C109.795 28.1978 102.807 29.9797 101.708 33.1212C100.605 36.2627 100.385 39.2188 100.385 39.2188L98.2588 37.0867Z" fill="#A89AFF"/>
<path fill-rule="evenodd" clip-rule="evenodd" d="M134.107 39.1433C135.021 39.1433 135.763 39.8849 135.763 40.7982V43.15C135.763 44.0633 135.021 44.8049 134.107 44.8049C133.193 44.8049 132.451 44.0633 132.451 43.15V40.7982C132.451 39.8815 133.193 39.1433 134.107 39.1433Z" fill="black"/>
<path fill-rule="evenodd" clip-rule="evenodd" d="M115.872 37.0869C116.786 37.0869 117.528 37.8285 117.528 38.7418V41.0936C117.528 42.0069 116.786 42.7485 115.872 42.7485C114.958 42.7485 114.216 42.0069 114.216 41.0936V38.7418C114.216 37.8251 114.958 37.0869 115.872 37.0869Z" fill="black"/>
<path fill-rule="evenodd" clip-rule="evenodd" d="M179.001 152.536C179.001 152.536 181.447 146.988 179.077 144.159C176.706 141.33 172.752 140.557 172.752 140.557C172.752 140.557 183.896 128.503 183.268 127.181C182.639 125.859 176.356 131.15 176.356 131.15C176.356 131.15 167.437 125.519 162.016 121.083C156.595 116.644 152.308 113.513 152.308 113.513C152.308 113.513 145.537 120.033 142.823 124.757C140.109 129.481 138.044 134.017 138.044 134.017L96.9398 134.092L91.9413 118.144C91.9413 118.144 81.8412 113.743 81.3534 106.09C80.7075 95.9891 89.2823 91.876 88.4853 90.4374C87.6917 88.9989 85.3247 91.0245 85.3247 91.0245L80.1029 96.6827C80.1029 96.6827 63.7573 97.8431 54.9558 95.0656C46.1509 92.288 34.8931 89.2735 42.4544 75.7393C44.7802 71.5781 58.8515 65.5251 58.8515 65.5251C58.8515 65.5251 56.8796 72.1618 60.9094 74.4896C64.9425 76.8208 71.5728 76.4741 71.5728 76.4741L74.9567 75.1522C74.9567 75.1522 87.8463 73.9265 95.1053 73.6072C102.364 73.2879 106.944 75.0046 106.944 75.0046C106.944 75.0046 95.837 84.6591 103.635 88.968C111.43 93.2768 122.626 92.9575 129.885 88.6727C137.148 84.3913 142.902 78.0912 142.902 78.0912C142.902 78.0912 161.219 77.6105 172.683 93.1566C181.911 105.668 197.466 126.117 197.463 132.475C197.452 144.128 179.001 152.536 179.001 152.536Z" fill="#EC5252"/>
<path fill-rule="evenodd" clip-rule="evenodd" d="M35.3155 18.8591H55.6839C58.9338 18.8591 61.5653 21.4925 61.5653 24.7404V49.5806C61.5653 52.8286 58.9304 55.4585 55.6839 55.4585H35.3155C32.0656 55.4585 29.4341 52.8286 29.4341 49.5806V24.7404C29.4306 21.4925 32.0656 18.8591 35.3155 18.8591Z" fill="#F2F9FF"/>
<path fill-rule="evenodd" clip-rule="evenodd" d="M43.5501 32.8982C43.9555 32.8982 44.2853 33.3583 44.2853 33.9282C44.2853 34.4981 43.9555 34.9582 43.5501 34.9582C43.1447 34.9582 42.8149 34.4981 42.8149 33.9282C42.8149 33.3583 43.1447 32.8982 43.5501 32.8982Z" fill="#CDDEFF"/>
<path fill-rule="evenodd" clip-rule="evenodd" d="M48.9915 32.675C49.3969 32.675 49.7267 33.1351 49.7267 33.705C49.7267 34.275 49.3969 34.735 48.9915 34.735C48.5861 34.735 48.2563 34.275 48.2563 33.705C48.2563 33.1385 48.5861 32.675 48.9915 32.675Z" fill="#CDDEFF"/>
<path fill-rule="evenodd" clip-rule="evenodd" d="M96.9358 134.899C96.9358 134.899 87.1277 148.492 83.627 163.265C80.1264 178.042 79.9512 187.886 79.9512 187.886H171.061C171.061 187.886 168.883 174.4 167.43 168.601C165.973 162.802 163.27 160.179 163.27 160.179C163.27 160.179 160.016 159.877 157.385 160.766C154.753 161.655 150.528 163.622 148.783 162.311C147.038 160.996 148.195 160.766 148.195 160.766C148.195 160.766 146.34 161.418 145.474 159.884C144.609 158.349 145.99 155.695 145.99 155.695C145.99 155.695 142.369 155.685 141.726 153.71C141.084 151.74 141.726 150.844 141.726 150.844C141.726 150.844 138.398 147.081 141.283 143.788C144.169 140.496 146.137 138.793 146.137 138.793L139.741 133.426L96.9358 134.899Z" fill="black"/>
<path fill-rule="evenodd" clip-rule="evenodd" d="M126.268 3.02124C126.635 3.02124 127.003 3.02124 127.371 3.02124C130.679 3.13111 133.75 3.51907 136.564 4.19887C139.291 4.85807 141.707 5.69237 144.135 6.77044C153.112 10.7531 161.044 17.8361 161.56 30.0656C161.697 33.2861 161.048 36.3521 160.752 39.3974C159.787 49.3713 164.043 56.8834 169.43 61C171.32 62.4454 173.549 63.6883 176.194 64.3784C178.891 65.0856 182.237 64.8899 185.607 65.1852C191.815 65.7345 195.917 68.8074 197.37 73.7823C199.26 80.237 195.903 85.2874 192.664 88.4049C194.1 89.9636 195.436 91.67 196.559 93.6956C197.635 95.6355 198.734 98.1143 198.545 100.899C198.171 106.385 194.392 109.063 191.561 112.287C194.553 117.341 198.614 121.307 200.311 127.349C202.424 134.885 196.996 139.802 193.179 143.074C188.957 146.696 184.285 150.044 179.798 153.58C175.648 156.855 171.423 160.244 167.52 163.646C167.311 163.828 166.919 164.124 166.933 164.457C169.447 170.441 171.117 178.18 172.079 185.764C172.209 186.78 172.601 188.16 171.344 188.411C170.543 188.188 170.42 187.992 170.241 187.014C169.385 182.307 168.76 177.345 167.74 173.273C166.874 169.806 165.789 165.933 163.988 163.131C163.655 162.613 162.412 160.687 161.855 160.56C159.182 159.935 157.018 162.143 155.166 162.984C153.067 163.938 149.546 164.357 148.035 162.616C147.643 162.167 147.694 161.81 147.299 160.999C144.06 161.192 143.101 157.844 144.726 155.489C141.435 156.145 139.776 153.058 141.27 150.418C140.257 149.656 139.092 148.708 139.36 146.596C139.666 144.186 141.909 141.646 143.331 140.131C143.946 139.476 144.616 138.944 144.95 138.367C144.156 137.903 143.431 137.282 142.596 136.678C141.689 136.018 140.721 135.043 139.508 135.06C125.632 135.26 109.084 135.418 95.0985 135.575C94.7069 135.757 94.6931 136.042 94.2912 136.163C94.0164 136.245 93.8102 136.245 93.6282 136.238C93.2675 136.217 93.5766 136.073 93.2606 136.31C92.7762 136.674 92.1681 138.253 91.7147 139.101C88.1556 145.769 84.8954 152.715 82.2295 160.041C79.6049 167.258 77.6914 175.749 76.3481 184.583C76.221 185.417 76.1214 187.944 75.5408 188.184C73.4315 189.05 74.1357 186.039 74.2903 185.026C74.5033 183.611 74.6854 182.135 74.8778 180.985C77.9112 162.925 83.8991 148.502 91.5669 135.205C91.8143 134.779 92.3708 134.075 92.3743 133.663C92.3777 133.316 91.9654 132.661 91.7868 132.118C90.8421 129.268 90.0176 126.886 89.066 124.184C88.7156 123.191 88.4682 121.677 87.9632 120.949C87.7296 120.616 87.0666 120.352 86.6406 120.067C81.8379 116.867 77.1211 112.387 76.86 104.857C76.7844 102.646 77.3032 100.672 77.9628 99.1272C78.1998 98.5675 78.5193 98.0148 78.4781 97.6577C62.8024 98.5675 46.8381 97.0809 41.2006 86.9285C39.2562 83.43 38.5485 78.3624 40.17 73.6278C42.8668 65.7723 51.3728 63.06 59.1402 60.1794C67.1516 57.2096 74.7679 54.1711 82.2261 50.8476C81.5596 49.2889 80.7592 47.6821 80.9035 45.4813C80.9516 44.7637 81.302 44.2659 81.3432 43.6445C81.3982 42.8514 81.4428 42.2334 81.5631 41.5124C82.2604 37.3306 84.2839 35.1916 86.7093 32.7677C89.7187 29.7601 93.6453 27.0649 98.6198 26.0795C98.6335 25.9971 98.7022 25.9662 98.7675 25.9319C102.248 12.6243 109.472 3.04184 126.268 3.02124ZM194.35 106.265C195.446 104.724 196.566 102.739 196.556 100.312C196.546 98.0388 195.494 95.9754 194.57 94.3583C193.574 92.6107 192.509 91.0108 191.262 89.7301C190.826 89.2804 190.094 89.0778 190.087 88.4083C190.077 87.5706 191.781 86.4341 192.44 85.6891C194.749 83.0763 196.896 79.2585 195.457 74.3728C194.677 71.7326 193.045 69.8477 190.97 68.7147C188.706 67.4787 186.075 67.1937 182.516 67.0255C179.073 66.8607 176.181 66.5585 173.766 65.6281C171.32 64.6874 169.296 63.5166 167.369 61.8823C162.14 57.4465 158.025 50.1609 158.691 40.2043C158.904 37.0525 159.447 34.0277 159.498 30.8725C159.601 24.6444 157.221 19.7176 154.057 16.1778C148.038 9.43814 137.656 4.45981 124.499 5.08124C110.073 5.76104 104.285 13.9942 100.822 25.7293C104.041 25.6126 107.047 26.1894 108.026 28.373C108.73 29.942 108.249 32.0398 106.775 32.5617C105.453 33.0286 103.982 32.1188 102.584 32.1222C100.114 32.1256 98.7607 33.4234 96.9227 34.4019C97.4518 35.1504 98.0152 35.7924 98.5408 36.6061C100.131 39.0781 100.983 42.278 102.437 44.7637C103.361 44.2178 104.439 43.181 106.188 42.999C109.101 42.6969 113.052 44.1869 113.244 46.3053C113.45 48.5713 110.365 48.5644 109.273 49.7592C110.008 53.5153 111.3 56.1487 113.389 58.5039C115.415 60.7905 118.281 62.5415 122.578 62.1055C126.34 61.7244 129.487 60.1966 131.988 58.5795C133.809 57.4018 135.763 55.8225 137.429 54.3187C137.983 53.8174 138.687 52.9419 139.267 52.9213C139.731 52.9076 140.068 53.2578 140.518 53.3642C143.902 54.1573 147.835 52.6364 149.488 50.8648C149.955 50.3635 150.566 49.512 150.663 48.6606C150.821 47.2666 150.089 45.9517 148.972 45.5019C147.791 45.0247 146.2 45.447 145.149 45.8693C144.218 46.2435 142.064 47.6889 142.06 45.8693C142.057 44.8633 143.129 44.7191 143.898 44.3243C139.25 40.1116 134.224 36.2456 129.339 32.2012C124.461 28.1601 119.559 24.0882 114.56 20.3699C114.041 21.4926 113.365 22.4574 112.87 23.6041C119.486 25.2967 123.197 29.8905 123.605 37.7872C123.65 38.1717 123.207 37.4988 123.31 38.0069C123.197 42.6179 121.737 45.8899 118.164 47.0435C118.267 47.9258 119.717 48.1387 119.706 49.1756C119.703 49.7112 119.239 50.2605 118.679 50.2777C118.013 50.2983 117.35 49.3713 116.989 48.9558C116.535 48.4305 115.938 47.8331 116.106 46.8237C116.367 45.241 118.222 45.2993 119.342 44.4719C121.022 43.229 121.548 39.8609 121.62 37.4164C121.685 35.2156 120.922 33.2174 120.149 31.6106C118.308 27.7928 115.007 25.8289 110.372 25.0701C108.943 24.8367 106.13 25.1834 106.181 23.7483C106.239 22.0797 109.496 23.0925 110.812 23.1612C111.557 21.8497 112.234 20.4695 113.018 19.1923C112.76 18.3339 111.757 18.5124 111.843 17.4275C111.887 16.8576 112.344 16.5486 112.798 16.5451C113.492 16.5451 114.296 17.5168 115.003 18.0901C125.354 26.4469 136.474 35.3083 146.324 43.514C151.332 42.2608 154.184 47.5344 151.765 51.2287C149.958 53.9857 145.973 55.771 141.545 55.4895C140.937 55.4517 140.088 55.074 139.484 55.1942C138.972 55.2972 138.281 56.2551 137.721 56.7392C137.12 57.2576 136.193 57.6731 135.956 58.2842C135.671 59.0224 135.715 60.3854 135.588 61.4429C135.272 64.0865 134.279 68.7868 135.66 70.7747C136.313 71.7154 138.165 72.3334 139.776 72.7591C144.572 74.0157 150.522 74.1325 154.85 75.3307C160.986 77.0302 165.813 80.0653 169.997 83.7802C178.908 91.6974 183.756 100.995 190.438 110.454C191.784 109.259 193.2 107.882 194.35 106.265ZM100.241 27.7859C96.6513 28.3833 93.8171 29.7326 91.4192 31.4596C91.0825 31.6999 90.581 31.8784 90.684 32.1222C92.6937 31.9986 93.9511 32.6269 95.2428 33.2243C97.1013 31.9093 99.6367 30.1171 102.667 30.1377C103.962 30.148 104.937 30.7111 106.198 30.6527C107.109 27.8271 102.825 27.3533 100.241 27.7859ZM97.8881 39.9124C97.5136 37.3752 94.7756 34.4122 91.7868 34.1067C89.5778 33.8801 87.6059 34.9581 86.273 36.3109C87.0425 35.7341 88.1796 35.4491 89.3614 35.5761C92.7487 35.9366 95.9333 39.3803 96.7887 42.484C97.6098 41.969 98.0907 41.2858 97.8881 39.9124ZM92.9617 39.7648C91.9002 38.6833 90.5878 37.9074 89.4335 37.6327C87.2452 37.1143 86.0153 39.0163 85.3145 40.2764C89.6843 39.1022 92.2128 42.0926 93.9923 44.465C95.8818 43.4659 94.3221 41.1519 92.9617 39.7648ZM87.8155 41.969C85.1805 41.454 83.1365 44.0359 82.9647 46.01C82.8513 47.3044 83.3392 48.5507 83.772 49.464C84.0709 50.0957 85.3283 51.5377 85.2424 52.3308C85.1324 53.3333 83.5934 53.3196 83.1846 52.5505C76.063 55.8156 68.6048 58.7477 61.1293 61.6626C60.4594 63.7089 59.8514 65.8238 60.0266 68.2031C60.3186 72.2064 63.2765 75.0251 67.3783 75.4783C68.7113 75.626 70.6523 75.7221 72.0092 75.3307C72.449 75.2037 73.1841 74.6235 73.775 74.2286C75.5408 73.051 77.4234 71.8047 79.069 70.7747C83.9988 67.695 88.3445 64.6874 93.7725 62.1021C96.373 60.8661 99.647 59.7743 101.344 57.9889C103.395 55.8294 103.711 51.9497 105.827 49.6837C107.229 48.1833 109.276 47.4829 111.121 46.525C109.884 45.3302 107.892 44.5715 105.903 45.0556C103.938 45.5328 102.309 47.7198 101.416 49.3163C101.014 50.0339 100.832 50.8716 100.018 50.8613C99.5577 50.8545 99.1317 50.5214 99.063 50.0545C98.8671 48.6915 100.825 47.2735 100.976 46.3087C100.441 45.1551 99.884 44.0187 99.3584 42.8548C98.6026 43.3732 97.9705 44.6504 96.4898 44.6916C96.112 45.5877 95.2875 46.0341 94.4321 46.4529C94.1503 49.1618 90.6875 48.0941 88.6949 47.4074C87.6334 47.04 85.6546 46.6727 85.8264 45.4229C86.0359 43.9226 88.3652 45.1826 89.2824 45.495C90.3817 45.8693 91.2715 46.2504 92.3708 46.2298C91.694 44.211 89.9214 42.381 87.8155 41.969ZM107.373 50.9334C105.264 53.5187 104.989 57.0413 102.742 59.3829C99.7088 62.5381 94.8443 63.0634 91.1993 65.8513C90.9417 67.0838 91.0035 68.8898 91.2715 70.0399C97.1288 69.2194 104.697 69.8717 110.534 70.5549C111.822 70.706 115.58 71.5678 116.563 70.6271C117.161 70.0537 117.133 68.313 117.226 67.3928C117.363 66.0332 117.411 64.9105 117.446 63.6471C112.008 61.4875 109.022 56.8765 107.373 50.9334ZM119.431 64.0865C118.926 67.18 119.741 71.0287 117.521 72.3883C116.123 73.2467 113.588 73.0098 111.492 72.6836C111.32 73.8166 110.475 74.0432 109.726 74.6681C108.342 75.8251 107.229 76.9684 106.051 78.3418C104.697 79.9176 102.639 82.2489 102.962 85.102C103.213 87.3268 105.236 88.8924 106.858 89.8778C108.651 90.9661 110.427 91.6253 112.739 91.9343C117.762 92.6004 122.424 91.1035 125.828 89.4383C129.301 87.7354 132.335 85.2393 135.093 82.8257C137.587 80.6421 140.023 78.4207 142.521 76.3607C142.868 76.0758 143.383 75.7564 143.331 75.4783C139.477 74.7058 135.341 74.39 133.774 71.4373C132.132 68.3439 133.606 63.6402 133.774 59.8258C130.019 62.2325 125.804 64.5432 119.431 64.0865ZM43.9936 70.6236C40.3761 75.0663 40.4723 83.0935 43.918 87.5259C50.2872 95.7076 65.4648 96.6037 79.945 95.5359C80.7077 94.5231 81.5871 93.5858 82.446 92.6691C83.0781 91.9961 84.4797 90.2245 85.5344 90.4649C86.0497 90.5816 86.2558 90.949 86.2696 91.3472C86.2936 92.0442 85.4622 92.5043 84.9469 92.9643C81.4806 96.044 77.7395 100.497 79.1377 107.292C80.1408 112.17 83.2808 115.178 86.565 117.578C87.6712 118.385 88.9492 118.982 90.021 120.077C90.0691 120.441 90.0863 120.826 90.1687 121.179C90.6634 123.298 91.5772 125.358 92.3021 127.425C93.0338 129.516 93.769 131.624 94.4355 133.742C101.241 133.457 108.706 133.375 115.903 133.375C123.183 133.375 130.555 133.131 137.739 133.155C137.584 131.325 138.326 130.285 139.061 128.894C142.352 122.663 146.595 117.272 151.339 112.874C150.663 111.923 149.951 111.34 148.914 110.155C148.426 109.595 146.66 108.119 146.856 107.068C146.925 106.705 147.375 106.347 147.739 106.334C148.378 106.31 148.996 107.22 149.505 107.803C157.004 116.49 166.266 124.026 175.751 130.216C176.658 129.663 176.93 127.778 178.324 127.94C178.709 127.984 179.108 128.317 179.132 128.822C179.176 129.691 177.902 130.683 177.294 131.394C175.305 133.715 172.732 136.674 171.34 138.597C177.668 138.968 182.206 143.225 180.605 150.353C185.601 146.322 191.722 142.737 195.972 137.495C197.363 135.778 198.844 133.601 198.841 130.807C198.834 127.088 196.7 123.761 195.093 121.179C193.286 118.282 191.403 115.731 189.723 113.097C186.167 107.518 182.78 102.252 178.915 97.0054C171.835 87.3989 164.061 78.3727 149.357 76.2096C148.327 76.0586 146.98 75.7049 146.341 75.8423C145.984 75.9178 145.18 76.7281 144.723 77.092C144.125 77.5693 143.613 77.9984 143.105 78.4138C135.554 84.6007 129.755 92.5352 117.59 93.9188C113.694 94.3617 110.427 93.8158 107.59 92.5214C104.979 91.3301 102.478 89.5241 101.413 86.9354C100.035 83.5913 102.017 80.3262 103.546 78.2628C105.01 76.2852 106.806 74.5376 108.62 73.0475C108.785 72.9102 109.3 72.7214 109.136 72.3849C99.8771 70.7541 88.9011 72.0793 80.6802 73.7067C79.4228 73.9574 77.6811 74.1188 76.8566 74.5891C73.1051 76.7212 68.8865 79.7735 65.1659 82.2317C64.3586 82.7639 62.5172 83.9381 62.5172 82.1596C62.5172 81.4627 63.2902 81.1296 63.8399 80.7623C65.3205 79.7769 66.5779 78.9048 67.8833 78.0431C68.1479 77.868 68.5979 77.6928 68.4708 77.5281C60.5556 77.5349 56.1892 70.706 58.7658 62.5381C58.7177 62.5381 58.6696 62.5381 58.6181 62.5381C53.3653 64.6153 47.3328 66.5242 43.9936 70.6236ZM81.8585 71.4339C84.2392 70.9738 86.7265 70.6167 89.2102 70.2597C88.7705 69.3979 89.1484 67.8666 88.9182 67.0255C86.5753 68.5052 84.1259 69.8751 81.8585 71.4339ZM152.738 114.272C148.615 118.237 144.857 122.563 142.002 127.792C145.932 128.63 150.384 129.114 154.795 128.747C159.1 128.389 162.666 127.023 165.751 125.66C161.237 122.045 156.764 118.381 152.738 114.272ZM167.589 126.985C164.466 128.465 160.086 130.25 155.311 130.731C150.405 131.229 145.441 130.577 140.975 129.557C140.532 130.439 140.092 131.322 139.652 132.204C141.992 133.855 144.348 135.496 146.636 137.199C148.835 135.761 151.274 134.041 154.576 134.113C157.43 134.175 159.255 135.836 160.677 137.567C162.209 139.428 163.24 141.574 164.057 143.74C167.654 139.816 171.034 135.675 174.497 131.617C172.031 130.237 169.894 128.527 167.589 126.985ZM167.297 143.225C166.52 144.131 165.514 144.948 164.944 145.872C164.614 146.408 164.621 147.07 163.841 147.05C163.016 147.026 162.48 145.079 162.151 144.258C161.611 142.919 161.292 142.14 160.752 141.172C159.416 138.762 157.437 135.778 153.768 136.101C150.814 136.362 148.086 138.329 145.973 140.289C145.084 141.117 144.118 142.003 143.105 143.376C142.524 144.162 141.03 146.15 141.267 147.565C141.325 147.908 141.978 148.715 142.294 148.667C142.517 148.632 143.393 147.228 143.544 147.05C146.3 143.805 149.684 141.642 154.132 140.07C155.098 139.73 157.272 138.744 157.221 140.437C157.193 141.278 155.919 141.491 155.163 141.759C150.834 143.294 147.413 145.378 144.871 148.519C143.874 149.748 142.73 151.135 142.737 153.075C143.273 153.861 145.176 153.281 145.31 154.473C147.825 150.675 151.91 147.695 156.266 145.436C157.131 144.986 159.327 143.898 159.059 145.803C158.966 146.487 157.904 146.748 157.149 147.125C153.456 148.979 150.357 151.293 147.959 154.181C147.014 155.317 145.887 156.766 145.973 158.589C146.43 159.015 147.22 159.108 148.107 159.104C150.226 155.935 153.858 153.508 157.664 151.757C158.715 151.273 161.91 149.515 161.855 151.537C161.834 152.33 161.027 152.433 160.309 152.715C158.217 153.535 156.341 154.493 154.795 155.506C152.459 157.037 150.371 158.531 149.429 161.236C149.56 161.446 150.134 161.758 150.604 161.823C154.785 162.424 156.592 158.867 160.457 158.589C162.401 158.448 166.672 158.799 166.486 160.426C166.421 161.003 165.857 161.391 165.091 161.161C165.201 161.49 165.648 162.122 165.974 162.483C169.966 159.001 174.034 155.599 178.252 152.34C177.933 151.389 178.4 150.686 178.62 149.841C179.561 146.25 178.201 143.438 175.899 141.979C174.257 140.938 172.192 140.458 169.578 140.509C168.784 141.289 168.101 142.284 167.297 143.225Z" fill="black"/>
<path fill-rule="evenodd" clip-rule="evenodd" d="M148.179 46.8924C148.526 46.8546 149.24 46.8855 149.357 47.555C149.539 48.6056 148.265 48.9352 147.299 49.3197C146.413 49.6734 143.829 51.0604 143.771 49.3197C143.74 48.3927 145.083 48.1318 145.757 47.8503C146.32 47.6099 147.196 46.9988 148.179 46.8924Z" fill="black"/>
<path fill-rule="evenodd" clip-rule="evenodd" d="M127.446 52.99C128.082 52.8561 128.662 53.1136 128.697 53.7968C128.759 55.0809 125.808 56.2723 124.21 56.2963C123.207 56.31 121.96 56.1796 121.932 55.1942C121.898 54.0166 123.066 54.3153 124.138 54.3118C125.584 54.3084 126.357 53.481 127.298 52.99C127.333 52.9728 127.405 53.0003 127.446 52.99Z" fill="black"/>
<path fill-rule="evenodd" clip-rule="evenodd" d="M110.691 27.3119C105.322 26.9686 100.691 31.044 100.351 36.4137C100.011 41.78 104.089 46.4082 109.458 46.7481C114.828 47.088 119.459 43.0126 119.799 37.6463C120.135 32.28 116.061 27.6518 110.691 27.3119Z" fill="#BBBBBB"/>
<path fill-rule="evenodd" clip-rule="evenodd" d="M110.691 27.3119C105.322 26.9686 100.691 31.044 100.351 36.4137C100.011 41.78 104.089 46.4082 109.458 46.7481C114.828 47.088 119.459 43.0126 119.799 37.6463C120.135 32.28 116.061 27.6518 110.691 27.3119Z" fill="#BBBBBB"/>
<path d="M110.087 47.6133C109.86 47.6133 109.63 47.6065 109.403 47.5927C103.577 47.2219 99.135 42.1852 99.506 36.3623C99.6847 33.5401 100.952 30.9582 103.075 29.0905C105.198 27.2227 107.909 26.2889 110.747 26.4708C116.573 26.8416 121.012 31.8783 120.641 37.7013C120.462 40.5235 119.194 43.1054 117.071 44.9731C115.12 46.6863 112.664 47.6133 110.087 47.6133ZM110.06 28.136C107.895 28.136 105.831 28.9119 104.192 30.3539C102.409 31.923 101.344 34.0929 101.193 36.4653C100.884 41.3578 104.614 45.5911 109.51 45.9035C111.877 46.0512 114.168 45.2718 115.955 43.7028C117.738 42.1337 118.803 39.9639 118.954 37.5914C119.263 32.6989 115.536 28.4656 110.64 28.1532C110.444 28.1429 110.252 28.136 110.06 28.136Z" fill="black"/>
<path fill-rule="evenodd" clip-rule="evenodd" d="M134.42 30.7316C129.05 30.3883 124.42 34.4637 124.079 39.83C123.739 45.1963 127.814 49.8244 133.187 50.1643C138.556 50.5042 143.187 46.4323 143.527 41.0625C143.867 35.6997 139.789 31.0715 134.42 30.7316Z" fill="#BBBBBB"/>
<path fill-rule="evenodd" clip-rule="evenodd" d="M134.42 30.7316C129.05 30.3883 124.42 34.4637 124.079 39.83C123.739 45.1963 127.814 49.8244 133.187 50.1643C138.556 50.5042 143.187 46.4323 143.527 41.0625C143.867 35.6997 139.789 31.0715 134.42 30.7316Z" fill="#BBBBBB"/>
<path d="M133.818 51.033C133.592 51.033 133.362 51.0261 133.135 51.0124C130.311 50.8339 127.728 49.567 125.859 47.4452C123.99 45.3234 123.059 42.6007 123.237 39.782C123.416 36.9598 124.684 34.3779 126.807 32.5102C128.93 30.6424 131.637 29.7086 134.478 29.8905C137.299 30.0691 139.885 31.336 141.754 33.4578C143.623 35.5796 144.554 38.3022 144.375 41.121C144.197 43.9432 142.929 46.525 140.806 48.3928C138.851 50.106 136.392 51.033 133.818 51.033ZM133.788 31.5557C131.623 31.5557 129.559 32.3316 127.92 33.7736C126.137 35.3427 125.072 37.5125 124.921 39.885C124.612 44.7775 128.342 49.0108 133.234 49.3232C135.612 49.4777 137.896 48.6915 139.679 47.1224C141.462 45.5534 142.527 43.3835 142.678 41.0111C142.988 36.1186 139.257 31.8853 134.361 31.5729C134.172 31.5626 133.98 31.5557 133.788 31.5557Z" fill="black"/>
<path d="M110.052 29.0013C110.224 29.0013 110.396 29.0082 110.571 29.0185C112.718 29.1558 114.683 30.1172 116.102 31.7308C117.524 33.3445 118.232 35.4114 118.095 37.5572C117.827 41.7836 114.302 45.0934 110.069 45.0934C109.898 45.0934 109.723 45.0865 109.551 45.0762C105.119 44.7947 101.746 40.9631 102.027 36.5375C102.295 32.3111 105.82 29.0013 110.052 29.0013ZM110.052 28.2666C105.452 28.2666 101.588 31.8407 101.292 36.4929C100.983 41.3339 104.662 45.5054 109.503 45.8144C109.692 45.8247 109.881 45.8316 110.069 45.8316C114.669 45.8316 118.534 42.2574 118.83 37.6053C119.139 32.7677 115.46 28.5928 110.619 28.2872C110.43 28.2735 110.241 28.2666 110.052 28.2666Z" fill="white"/>
<path d="M133.805 32.4552C133.977 32.4552 134.148 32.4621 134.323 32.4724C136.471 32.6097 138.436 33.571 139.854 35.1847C141.277 36.7984 141.984 38.8687 141.847 41.0111C141.579 45.2375 138.054 48.5472 133.822 48.5472C133.65 48.5472 133.475 48.5404 133.303 48.5301C128.872 48.2485 125.498 44.4169 125.78 39.9914C126.048 35.7684 129.572 32.4552 133.805 32.4552ZM133.805 31.7205C129.205 31.7205 125.34 35.2946 125.045 39.9467C124.735 44.7877 128.415 48.9592 133.255 49.2682C133.444 49.2785 133.633 49.2854 133.822 49.2854C138.422 49.2854 142.287 45.7113 142.582 41.0591C142.891 36.2216 139.212 32.0466 134.372 31.7411C134.179 31.7273 133.99 31.7205 133.805 31.7205Z" fill="white"/>
<path fill-rule="evenodd" clip-rule="evenodd" d="M103.316 26.344L101.1 26.653L100.255 30.4915L103.154 31.1781C103.154 31.1781 105.573 31.7034 105.693 31.724C105.813 31.7446 107.284 30.9378 107.284 30.9378V28.2667L103.316 26.344Z" fill="white"/>
<path fill-rule="evenodd" clip-rule="evenodd" d="M106.785 32.5616C108.259 32.0397 108.74 29.9419 108.036 28.3729C107.225 26.567 105.03 25.8597 102.474 25.7361C102.474 25.7361 100.784 26.1378 100.33 26.5258C99.6499 27.1094 100.165 27.7583 100.67 27.724C101.512 27.6656 102.731 27.6725 102.859 27.6828C104.937 27.8545 106.83 28.6819 106.194 30.6492C104.933 30.7076 103.961 30.1445 102.663 30.1342C102.597 30.1342 101.319 30.1067 100.251 30.4878C99.1826 30.8689 102.47 32.1221 102.47 32.1221C103.989 32.1187 105.459 33.0319 106.785 32.5616Z" fill="black"/>
<path fill-rule="evenodd" clip-rule="evenodd" d="M59.3973 50.1644C60.4211 51.3969 61.3796 52.9969 62.1903 54.6483C62.4239 55.129 62.953 55.7573 62.338 56.2654C61.5822 56.4954 61.3143 55.7744 61.0876 55.3109C59.4867 52.0149 57.3052 49.0108 53.9557 47.3765C51.6677 50.1678 48.4109 52.784 43.5155 53.0346C38.3246 53.299 35.1434 50.7068 32.9276 47.5962C30.2343 48.252 29.0422 51.2699 28.8842 54.432C28.8429 55.2972 29.1178 56.7186 28.2967 56.7838C27.0359 56.8868 27.668 53.093 27.857 52.1557C28.2074 50.415 29.2861 48.1627 30.65 47.2323C32.2096 46.1714 34.7037 45.8349 36.9745 45.3954C38.9808 45.004 39.5614 44.8839 39.7675 42.4565C39.9152 40.7055 40.0904 39.2532 39.18 38.5597C38.3178 38.6421 37.6788 38.6043 37.1222 38.3399C35.0129 37.3374 35.329 33.135 37.6375 32.9771C38.5136 32.9153 38.8365 33.3994 39.4755 33.7118C39.6129 32.7264 39.9015 31.8406 40.1385 30.7729C40.3275 29.9248 40.3721 28.3867 40.8737 27.9095C41.5024 27.3086 43.4708 27.8511 44.3297 28.0571C46.8341 28.6511 48.2151 29.3858 49.9156 30.7763C50.6955 31.4115 51.5715 32.0947 51.9734 32.8329C52.554 33.9006 52.6846 35.4628 52.5609 36.7263C52.2895 39.5279 50.3726 41.7218 46.8238 41.5776C46.8719 42.9509 46.7001 44.0976 46.7516 45.471C52.0559 44.6435 56.2505 46.3945 58.59 49.2168C59.1672 48.0837 59.6 47.5962 59.3973 46.4254C58.9816 44.0084 56.333 43.974 55.3539 42.2368C54.0106 39.8506 55.4191 35.3014 55.3539 32.6097C55.292 30.124 54.4023 28.0811 53.0006 26.5121C50.8088 24.0573 46.8169 22.0179 42.265 22.3234C39.7366 22.4917 37.7612 23.6521 36.4558 25.0426C35.0473 26.543 34.1128 28.2288 34.1025 31.1402C34.0957 34.0036 34.5869 36.9254 32.9998 38.6352C31.976 39.7373 30.5228 40.4171 29.3239 41.3544C27.9051 42.4599 25.6549 44.386 26.0156 47.3078C26.1874 48.6983 27.5169 49.718 27.1905 51.421C26.9294 52.784 25.1258 52.8733 24.693 54.1402C24.3254 55.2045 24.8819 56.1521 25.2804 56.6396C25.7751 57.2473 26.8298 57.7726 27.9257 58.037C28.7124 58.2224 30.9591 58.1675 31.0141 58.9194C31.0897 59.9803 29.1246 59.5683 28.0734 59.3623C26.287 59.0086 25.3354 58.6172 24.4697 57.7452C23.9235 57.1924 23.3051 55.9942 23.2948 54.9539C23.2673 52.8561 24.9231 52.3033 25.94 51.0605C25.5347 49.0623 24.5143 48.561 24.6895 46.2847C24.8785 43.847 26.3385 42.1818 27.8501 40.8463C29.6056 39.3013 32.6356 38.3331 32.9242 35.7752C33.1612 33.674 32.7455 31.6381 32.8486 30.045C33.0272 27.4082 34.2709 25.2315 35.7893 23.7998C37.3524 22.3269 39.4205 21.2145 42.4059 21.0085C48.5999 20.5827 54.1824 24.4521 55.9345 28.7232C56.2849 29.5781 56.5288 30.7557 56.5941 31.7376C56.7933 34.6937 55.8589 37.2516 56.0787 40.0429C56.2711 42.4805 58.219 42.5046 59.5347 43.9363C61.1253 45.6392 61.0257 48.5232 59.3973 50.1644ZM42.265 40.0257C42.3956 38.9854 43.9862 39.8437 44.3984 39.9502C46.2535 40.4411 48.7614 40.4068 49.8401 39.5107C50.9875 38.5562 51.9013 35.5383 50.9428 33.5573C50.6749 33.0045 49.8744 32.4071 49.2526 31.8681C47.3769 30.2407 44.8106 29.2038 41.9009 28.9292C41.815 28.9429 41.8219 29.0459 41.8287 29.1489C41.5298 30.1995 41.2688 31.4424 41.018 32.5273C40.8153 33.4062 40.726 35.5521 39.8431 35.6139C39.0564 35.6654 38.6235 34.141 37.7097 34.292C37.0192 34.4053 36.8543 35.6036 36.9745 36.201C37.2493 37.5709 38.6201 37.0044 39.6232 37.3031C40.1454 37.4576 41.0248 38.5528 41.1657 39.212C41.3684 40.1424 41.1623 41.5226 41.0901 42.5183C41.018 43.5861 40.8325 44.5955 40.4305 45.2375C39.3587 46.937 36.6069 46.4598 34.3293 47.222C36.2531 50.0167 39.2659 52.0458 43.9587 51.7059C47.3975 51.4553 50.0496 49.5601 51.9734 47.8125C52.2071 47.5996 52.6365 47.2838 52.5609 46.9301C50.7917 46.3842 48.2976 46.5662 46.3119 46.7825C44.7522 46.216 45.6798 43.15 45.6489 41.4917C44.9137 41.2342 42.1242 41.169 42.265 40.0257Z" fill="#CDDEFF"/>
<path fill-rule="evenodd" clip-rule="evenodd" d="M45.2059 36.5718C46.0064 36.2216 46.1678 37.334 46.8961 37.3786C47.3668 37.4095 48.3665 36.4138 48.6585 37.3065C48.947 38.1786 47.487 38.7039 46.9683 38.7039C46.2606 38.7004 44.9002 38.0344 44.8349 37.2344C44.8005 36.7503 45.0032 36.661 45.2059 36.5718Z" fill="#CDDEFF"/>
</g>
<defs>
<clipPath id="clip0">
<rect width="200.782" height="188.415" fill="white"/>
</clipPath>
</defs>
</svg>
