<svg width="215" height="189" viewBox="0 0 215 189" fill="none" xmlns="http://www.w3.org/2000/svg">
<g clip-path="url(#clip0)">
<path d="M39.5044 141.486C38.7628 141.46 38.2749 140.933 38.298 140.308C38.3211 139.683 38.855 139.193 39.4747 139.216C40.1504 139.229 40.6514 139.742 40.6415 140.367C40.6317 140.986 40.1273 141.486 39.5044 141.486ZM35.2919 140.871C35.2029 140.871 35.1106 140.861 35.0183 140.838C34.3393 140.67 33.9669 140.055 34.1152 139.449C34.2668 138.84 34.8799 138.469 35.4897 138.62C36.1687 138.788 36.5412 139.403 36.3928 140.009C36.2643 140.525 35.8028 140.871 35.2919 140.871ZM31.2805 139.462C31.1157 139.462 30.9509 139.426 30.7927 139.35C30.1565 139.041 29.9192 138.363 30.1928 137.801C30.4664 137.238 31.1454 137.001 31.709 137.274C32.3353 137.574 32.5759 138.248 32.3056 138.814C32.1112 139.225 31.7057 139.462 31.2805 139.462ZM27.7207 137.169C27.457 137.169 27.1933 137.077 26.9791 136.892C26.4451 136.425 26.399 135.708 26.8143 135.237C27.2296 134.767 27.9481 134.72 28.4162 135.135C28.937 135.586 28.9897 136.303 28.581 136.777C28.3536 137.034 28.0371 137.169 27.7207 137.169ZM24.9948 133.944C24.6092 133.944 24.2334 133.746 24.0191 133.394C23.6599 132.782 23.8412 132.088 24.3817 131.772C24.9223 131.456 25.6178 131.637 25.9375 132.177C26.2935 132.766 26.1188 133.463 25.5782 133.786C25.3936 133.891 25.1926 133.944 24.9948 133.944ZM23.4159 130.031C22.9018 130.031 22.437 129.682 22.3117 129.163C22.1502 128.471 22.5326 127.863 23.1424 127.721C23.7522 127.58 24.3619 127.961 24.5037 128.57C24.6652 129.241 24.2894 129.854 23.6796 129.998C23.5906 130.021 23.5016 130.031 23.4159 130.031ZM22.9446 125.822C22.3183 125.822 21.8074 125.326 21.8074 124.697C21.8074 123.996 22.315 123.489 22.9446 123.489C23.5709 123.489 24.0818 123.996 24.0818 124.625C24.0818 125.306 23.5709 125.822 22.9446 125.822ZM22.9809 121.587C22.3546 121.587 21.8437 121.081 21.8437 120.452C21.847 119.748 22.3546 119.244 22.9809 119.244C23.617 119.248 24.1213 119.761 24.118 120.386C24.1147 121.081 23.6071 121.587 22.9809 121.587ZM22.9611 117.346C22.3381 117.346 21.8305 116.842 21.8239 116.22C21.814 115.529 22.315 115.013 22.9446 115.006C23.5808 115.006 24.0884 115.503 24.095 116.125C24.1015 116.832 23.5939 117.342 22.9677 117.349C22.9677 117.346 22.9644 117.346 22.9611 117.346ZM22.9018 113.101C22.2854 113.101 21.7778 112.607 21.7679 111.988C21.758 111.281 22.259 110.768 22.8853 110.758C23.5115 110.745 24.029 111.251 24.0356 111.877C24.0488 112.568 23.5511 113.088 22.9248 113.097C22.9149 113.101 22.9083 113.101 22.9018 113.101ZM22.8095 108.856C22.1964 108.856 21.6921 108.369 21.6756 107.753C21.6591 107.046 22.1601 106.529 22.7864 106.516C23.4127 106.506 23.9334 107 23.9466 107.628C23.9664 108.319 23.472 108.843 22.8424 108.859C22.8292 108.856 22.8193 108.856 22.8095 108.856ZM22.6908 104.614C22.0777 104.614 21.5734 104.127 21.5569 103.512C21.5339 102.821 22.025 102.294 22.6512 102.274C23.2742 102.248 23.8049 102.742 23.8247 103.37C23.8444 104.078 23.35 104.598 22.7238 104.614C22.7139 104.614 22.704 104.614 22.6908 104.614ZM22.5557 100.372C21.9459 100.372 21.4416 99.8886 21.4218 99.2765C21.3987 98.5789 21.8898 98.0524 22.5161 98.0327C23.1358 98.0129 23.6698 98.4999 23.6895 99.1285C23.7126 99.8261 23.2215 100.353 22.5952 100.372C22.582 100.372 22.5688 100.372 22.5557 100.372ZM22.4073 96.1306C21.7975 96.1306 21.2932 95.6469 21.2735 95.0348C21.2438 94.3438 21.7316 93.814 22.3579 93.791C22.9875 93.7646 23.5148 94.2517 23.5379 94.8769C23.561 95.5844 23.0732 96.1076 22.4436 96.1306C22.4337 96.1306 22.4205 96.1306 22.4073 96.1306ZM22.2458 91.8923C21.6393 91.8923 21.1383 91.4151 21.112 90.803C21.0856 90.0955 21.5767 89.5723 22.2063 89.5493C22.8259 89.5263 23.3599 90.0166 23.3797 90.6418C23.4094 91.3328 22.9215 91.8593 22.2953 91.8857C22.2755 91.889 22.2623 91.8923 22.2458 91.8923ZM22.0744 87.6506C21.4679 87.6506 20.9669 87.1734 20.9406 86.5646C20.9109 85.867 21.3987 85.3372 22.025 85.3109C22.6545 85.2846 23.1819 85.7716 23.205 86.3968C23.2347 87.0944 22.7468 87.6242 22.1206 87.6506C22.1074 87.6506 22.0909 87.6506 22.0744 87.6506ZM21.8964 83.4089C21.2899 83.4089 20.7889 82.9317 20.7626 82.3229C20.7296 81.6319 21.2141 81.0988 21.8404 81.0692C22.47 81.0429 23.0006 81.5233 23.0303 82.1485C23.06 82.856 22.5721 83.3825 21.9459 83.4089C21.9294 83.4089 21.9129 83.4089 21.8964 83.4089ZM21.7151 79.1705C21.1087 79.1705 20.6076 78.6933 20.5813 78.0813C20.5483 77.3902 21.0328 76.8604 21.6591 76.8275C22.292 76.7979 22.8193 77.2816 22.849 77.9068C22.8787 78.6143 22.3909 79.1409 21.7646 79.1672C21.7481 79.1705 21.7316 79.1705 21.7151 79.1705ZM21.5306 74.9255C20.9241 74.9255 20.4198 74.4483 20.3967 73.8363C20.3637 73.1452 20.8483 72.6154 21.4745 72.5825C22.1041 72.5529 22.6348 73.0366 22.6644 73.6619C22.6941 74.3694 22.2063 74.8959 21.58 74.9222C21.5635 74.9255 21.547 74.9255 21.5306 74.9255ZM21.346 70.6871C20.7395 70.6871 20.2385 70.2099 20.2121 69.5979C20.1791 68.9068 20.6637 68.3737 21.2899 68.3441C21.9195 68.3145 22.4502 68.7982 22.4798 69.4235C22.5095 70.131 22.0217 70.6575 21.3954 70.6838C21.3789 70.6871 21.3625 70.6871 21.346 70.6871ZM21.1647 66.4454C20.5582 66.4454 20.0572 65.9682 20.0308 65.3595C19.9979 64.6684 20.4824 64.1353 21.1087 64.1057C21.7349 64.0794 22.2689 64.5598 22.2986 65.1851C22.3282 65.8926 21.8404 66.4191 21.2141 66.4454C21.1977 66.4454 21.1812 66.4454 21.1647 66.4454ZM20.9867 62.207C20.3802 62.207 19.8759 61.7299 19.8528 61.1178C19.8199 60.4267 20.3044 59.8969 20.9307 59.864C21.5668 59.8344 22.0909 60.3181 22.1206 60.9434C22.1502 61.6509 21.6624 62.1774 21.0361 62.2037C21.0164 62.2037 20.9999 62.207 20.9867 62.207ZM178.713 60.9697C178.107 60.9697 177.603 60.4926 177.579 59.8805C177.55 59.1829 178.038 58.6531 178.664 58.6267C179.303 58.6004 179.821 59.0874 179.844 59.7127C179.874 60.4103 179.386 60.9401 178.759 60.9664C178.746 60.9697 178.73 60.9697 178.713 60.9697ZM20.8021 57.9653C20.1956 57.9653 19.6913 57.4882 19.6682 56.8761C19.6386 56.1785 20.1264 55.6487 20.7527 55.6223C21.3855 55.5993 21.9096 56.083 21.9327 56.7083C21.9624 57.4092 21.4745 57.9357 20.8483 57.962C20.8318 57.9653 20.8153 57.9653 20.8021 57.9653ZM178.545 56.7214C177.932 56.7214 177.428 56.2344 177.411 55.6191C177.408 55.5631 179.679 55.4677 179.679 55.4677L178.545 55.5137L179.679 55.4677C179.699 56.1818 179.204 56.7017 178.578 56.7181C178.565 56.7214 178.555 56.7214 178.545 56.7214ZM20.6472 53.7236C20.0341 53.7236 19.5298 53.2366 19.5133 52.6212C19.4903 51.9302 19.9814 51.4037 20.6076 51.3839C21.2306 51.3576 21.7613 51.8512 21.7811 52.4797C21.8008 53.1872 21.3064 53.7072 20.6802 53.7269C20.667 53.7236 20.6571 53.7236 20.6472 53.7236ZM178.387 52.4765C177.774 52.4765 177.27 51.9894 177.253 51.3741C177.227 50.6896 177.711 50.1631 178.341 50.1368C178.977 50.1137 179.498 50.5975 179.521 51.2227C179.541 51.9368 179.046 52.46 178.42 52.4765C178.41 52.4765 178.4 52.4765 178.387 52.4765ZM20.5747 49.4819C19.9484 49.4819 19.4375 48.9752 19.4375 48.3466C19.4342 47.6556 19.9385 47.1423 20.5648 47.139C21.2075 47.1455 21.7053 47.6391 21.7086 48.2644C21.7086 48.9719 21.2009 49.4819 20.5747 49.4819ZM178.245 48.2282C177.639 48.2282 177.134 47.751 177.111 47.139C177.092 46.4249 177.586 45.9017 178.212 45.8852C178.858 45.8852 179.363 46.3722 179.379 46.9876C179.406 47.6721 178.918 48.1986 178.291 48.2249C178.275 48.2282 178.258 48.2282 178.245 48.2282ZM20.6505 45.2369C19.9748 45.2106 19.4903 44.6808 19.5133 44.0556C19.5463 43.3481 20.077 42.8644 20.7065 42.8973C21.3328 42.9269 21.8173 43.46 21.7877 44.0852C21.7613 44.7598 21.257 45.2369 20.6505 45.2369ZM178.113 43.9799C177.5 43.9799 176.996 43.4929 176.98 42.8775C176.96 42.1799 177.454 41.6567 178.084 41.6402C178.73 41.6402 179.234 42.1273 179.251 42.7426C179.27 43.4435 178.776 43.9635 178.15 43.9799C178.136 43.9799 178.127 43.9799 178.113 43.9799ZM20.9834 41.0084C20.9406 41.0084 20.8944 41.0051 20.8516 41.0018C20.2286 40.9294 19.7836 40.3667 19.8561 39.7448C19.9418 39.0439 20.5088 38.6029 21.1317 38.6786C21.7547 38.7543 22.1964 39.3203 22.1206 39.9422C22.0415 40.5839 21.5503 41.0084 20.9834 41.0084ZM178.005 39.7349C177.385 39.7349 176.877 39.238 176.871 38.6161C176.851 37.9316 177.345 37.4117 177.975 37.3952C178.621 37.3952 179.125 37.8823 179.142 38.4976C179.152 39.2117 178.651 39.7251 178.024 39.7349C178.015 39.7349 178.008 39.7349 178.005 39.7349ZM21.7217 36.8325C21.6327 36.8325 21.5404 36.8227 21.4482 36.7996C20.8384 36.6483 20.4659 36.0362 20.6175 35.4274C20.7856 34.7495 21.402 34.3777 22.0085 34.5258C22.6183 34.6771 22.9907 35.2892 22.8391 35.898C22.6974 36.487 22.2326 36.8325 21.7217 36.8325ZM177.916 35.4867C177.303 35.4867 176.798 34.9996 176.782 34.3843C176.772 33.6702 177.273 33.1536 177.899 33.147C178.535 33.147 179.043 33.6439 179.05 34.2658C179.066 34.9503 178.575 35.4702 177.945 35.4867C177.939 35.4867 177.929 35.4867 177.916 35.4867ZM23.116 32.8344C22.9512 32.8344 22.7864 32.7982 22.6282 32.7225C22.0612 32.4526 21.8206 31.7748 22.0909 31.2121C22.4007 30.577 23.0797 30.34 23.6434 30.6132C24.207 30.8863 24.4443 31.5642 24.1708 32.1269C23.9466 32.5974 23.5379 32.8344 23.116 32.8344ZM177.863 31.2384C177.243 31.2384 176.736 30.7415 176.729 30.1195C176.729 29.4055 177.237 28.8954 177.863 28.8954C178.489 28.8954 179 29.4022 179 30.0307C179.01 30.7152 178.509 31.2285 177.879 31.2384C177.876 31.2384 177.87 31.2384 177.863 31.2384ZM25.4596 29.3199C25.1827 29.3199 24.9058 29.2212 24.6883 29.0172C24.2268 28.5927 24.2004 27.8753 24.6256 27.4146C25.1069 26.898 25.8254 26.8749 26.2836 27.3027C26.7417 27.7305 26.7648 28.4479 26.3363 28.9053C26.0693 29.1982 25.7628 29.3199 25.4596 29.3199ZM177.863 26.9901C177.237 26.9901 176.726 26.4833 176.726 25.8548C176.726 25.1539 177.233 24.6471 177.863 24.6471C178.489 24.6471 179 25.1539 179 25.7824C179 26.4833 178.489 26.9901 177.863 26.9901ZM28.8216 26.7762C28.4096 26.7762 28.0141 26.5525 27.8097 26.1609C27.5229 25.6047 27.7405 24.9203 28.2975 24.634C28.9205 24.3148 29.6061 24.532 29.8929 25.0881C30.1796 25.6442 29.9621 26.3287 29.405 26.615C29.1743 26.7334 28.9963 26.7762 28.8216 26.7762ZM32.8165 25.3974C32.2891 25.3974 31.8178 25.0289 31.7057 24.4958C31.5772 23.8837 31.9694 23.2815 32.5825 23.1532C33.278 23.0117 33.8779 23.4098 33.9998 24.0252C34.1251 24.6406 33.7263 25.2362 33.1099 25.3612C32.9714 25.3908 32.8956 25.3974 32.8165 25.3974ZM49.785 25.0157C49.1621 25.0157 48.6544 24.5122 48.6512 23.8903C48.6479 23.2651 49.1522 22.7517 49.7784 22.7484C50.4871 22.7484 50.9947 23.2552 50.9947 23.8804C50.9947 24.5056 50.4871 25.0157 49.8575 25.0157C49.7916 25.0157 49.7883 25.0157 49.785 25.0157ZM45.6055 25.0157C44.8969 25.0124 44.3925 24.4991 44.3958 23.8738C44.3991 23.2519 44.9067 22.7484 45.5297 22.7484C46.2318 22.7484 46.7394 23.2552 46.7394 23.8837C46.7427 24.5089 46.2318 25.0157 45.6055 25.0157ZM41.3568 24.9861C40.6415 24.9762 40.1405 24.4629 40.1471 23.8343C40.157 23.2124 40.6613 22.7155 41.281 22.7155C41.9897 22.7188 42.494 23.2322 42.4907 23.8574C42.4874 24.4826 41.9798 24.9861 41.3568 24.9861ZM54.0403 24.9795C53.4207 24.9795 52.9131 24.4826 52.9065 23.8607C52.8966 23.2354 53.4009 22.7188 54.0271 22.7122C54.7292 22.6991 55.2434 23.2025 55.2533 23.8311C55.2632 24.4563 54.7589 24.9729 54.1326 24.9795C54.0502 24.9795 54.0436 24.9795 54.0403 24.9795ZM37.0323 24.9466C36.4159 24.9466 35.9083 24.453 35.8984 23.8343C35.8852 23.2091 36.3829 22.6892 37.0092 22.676C37.7179 22.6662 38.2288 23.1598 38.242 23.785C38.2551 24.4102 37.7574 24.9301 37.1279 24.9433C37.0488 24.9466 37.0389 24.9466 37.0323 24.9466ZM58.2923 24.9038C57.676 24.9038 57.1684 24.4102 57.1585 23.7916C57.1453 23.1663 57.643 22.6464 58.2726 22.6332C58.9878 22.63 59.4921 23.117 59.5053 23.7422C59.5185 24.3674 59.0208 24.8874 58.3945 24.9005C58.3088 24.9038 58.2989 24.9038 58.2923 24.9038ZM62.5444 24.7755C61.9346 24.7755 61.4303 24.2917 61.4105 23.6797C61.3874 23.0545 61.8785 22.5279 62.5081 22.5082C63.197 22.4819 63.731 22.9656 63.754 23.5908C63.7804 24.2161 63.2926 24.7459 62.6663 24.7689C62.5707 24.7755 62.5575 24.7755 62.5444 24.7755ZM66.7931 24.5879C66.1932 24.5879 65.6922 24.1206 65.6592 23.5152C65.6262 22.8899 66.1042 22.3535 66.7304 22.3206C67.4391 22.291 67.9698 22.7715 67.9995 23.3967C68.0291 24.0219 67.5446 24.555 66.9183 24.5846C66.8359 24.5879 66.8161 24.5879 66.7931 24.5879ZM71.0418 24.3312C70.4485 24.3312 69.9508 23.8738 69.9112 23.2749C69.8684 22.6497 70.3397 22.11 70.966 22.0672C71.6615 22.0179 72.202 22.4852 72.2482 23.1071C72.2943 23.7323 71.8263 24.2753 71.2 24.3214C71.0912 24.3312 71.0649 24.3312 71.0418 24.3312ZM75.2806 23.9824C74.7038 23.9824 74.2094 23.5448 74.15 22.9557C74.0907 22.3338 74.5489 21.7777 75.1718 21.7184C75.8673 21.6526 76.4244 22.1067 76.4837 22.732C76.543 23.3539 76.0882 23.91 75.4619 23.9693C75.3531 23.9791 75.3169 23.9824 75.2806 23.9824ZM79.5096 23.5152C78.9492 23.5152 78.4614 23.1005 78.3856 22.5279C78.3032 21.906 78.7416 21.3367 79.3645 21.2577C80.0699 21.1722 80.6368 21.6131 80.7126 22.2351C80.7885 22.857 80.3468 23.423 79.7238 23.4987C79.6084 23.5119 79.5557 23.5152 79.5096 23.5152ZM83.7154 22.88C83.1749 22.88 82.6969 22.495 82.598 21.9488C82.486 21.3334 82.898 20.7444 83.5144 20.6325C84.2131 20.5108 84.7999 20.9254 84.9086 21.544C85.0141 22.1627 84.5988 22.7484 83.9824 22.8537C83.8506 22.8735 83.7813 22.88 83.7154 22.88ZM177.764 22.7517C177.164 22.7517 176.663 22.2844 176.63 21.6789C176.591 20.9813 177.072 20.4449 177.698 20.412C178.321 20.3824 178.862 20.8563 178.895 21.4815C178.934 22.1791 178.453 22.7155 177.827 22.7484C177.807 22.7517 177.784 22.7517 177.764 22.7517ZM87.8718 21.985C87.3675 21.985 86.9061 21.646 86.7742 21.136C86.616 20.5305 86.9786 19.9119 87.5884 19.7539C88.2542 19.5729 88.8772 19.9316 89.042 20.5371C89.2068 21.1426 88.8475 21.7645 88.2443 21.929C88.063 21.9718 87.9674 21.985 87.8718 21.985ZM91.8931 20.6095C91.4613 20.6095 91.0526 20.3627 90.8615 19.9481C90.6011 19.3788 90.8516 18.7042 91.4218 18.4442C92.0546 18.1513 92.7304 18.4014 92.994 18.9674C93.2577 19.5367 93.0105 20.208 92.4403 20.4713C92.2129 20.5766 92.0514 20.6095 91.8931 20.6095ZM177.24 18.5495C176.726 18.5495 176.261 18.1974 176.136 17.6775C175.981 16.9897 176.363 16.3777 176.976 16.2427C177.586 16.1045 178.196 16.4863 178.334 17.095C178.492 17.763 178.117 18.3751 177.504 18.5199C177.415 18.5396 177.326 18.5495 177.24 18.5495ZM95.1563 18.0362C94.975 18.0362 94.7937 17.9934 94.6223 17.9012C94.0686 17.6051 93.8609 16.9173 94.1576 16.3678C94.4641 15.7656 95.1497 15.5451 95.7068 15.8281C96.2671 16.1111 96.4879 16.7956 96.2045 17.3517C95.954 17.819 95.5617 18.0362 95.1563 18.0362ZM175.582 14.683C175.236 14.683 174.896 14.525 174.676 14.2256C174.264 13.676 174.362 12.9652 174.863 12.5901C175.364 12.2117 176.076 12.3137 176.455 12.8138C176.867 13.3766 176.765 14.0906 176.258 14.4625C176.053 14.6106 175.816 14.683 175.582 14.683ZM96.7978 14.3177C96.4748 14.3177 96.155 14.1828 95.9309 13.9162C95.5255 13.4391 95.5848 12.7217 96.0627 12.317C96.6099 11.8628 97.3252 11.9287 97.7273 12.4091C98.1294 12.8895 98.0635 13.6069 97.5823 14.0051C97.3186 14.2288 97.0582 14.3177 96.7978 14.3177ZM100.559 12.3992C100.087 12.3992 99.6456 12.1031 99.4841 11.6292C99.2831 11.0369 99.5995 10.3919 100.193 10.1912C100.869 9.96741 101.511 10.2899 101.706 10.8855C101.903 11.4811 101.58 12.1228 100.984 12.317C100.803 12.3795 100.681 12.3992 100.559 12.3992ZM172.339 12.0438C172.167 12.0438 171.996 12.0043 171.831 11.9254C171.215 11.6259 170.977 10.948 171.251 10.3853C171.524 9.82262 172.203 9.58569 172.767 9.85882C173.407 10.178 173.634 10.8592 173.354 11.4186C173.156 11.8135 172.754 12.0438 172.339 12.0438ZM104.672 11.333C104.142 11.333 103.67 10.9612 103.561 10.4248C103.436 9.80946 103.835 9.21384 104.448 9.0888C105.137 8.95059 105.737 9.34876 105.859 9.96412C105.981 10.5795 105.582 11.1751 104.969 11.2968C104.824 11.3265 104.748 11.333 104.672 11.333ZM168.33 10.6947C168.251 10.6947 168.169 10.6848 168.087 10.6683C167.421 10.5202 167.025 9.91147 167.16 9.2994C167.296 8.68733 167.892 8.30232 168.505 8.43724C169.184 8.58532 169.573 9.19081 169.441 9.80288C169.323 10.336 168.851 10.6947 168.33 10.6947ZM108.898 10.6387C108.338 10.6387 107.84 10.2307 107.761 9.66138C107.675 9.03944 108.094 8.47015 108.713 8.38459C109.376 8.29245 109.966 8.72353 110.052 9.34547C110.137 9.96741 109.719 10.5367 109.099 10.6223C109.003 10.6354 108.951 10.6387 108.898 10.6387ZM113.094 10.1648C112.514 10.1648 112.019 9.72719 111.963 9.13816C111.904 8.51622 112.362 7.96009 112.985 7.90086C113.69 7.83505 114.241 8.29574 114.297 8.92097C114.353 9.5462 113.892 10.0957 113.269 10.1517C113.166 10.1649 113.13 10.1648 113.094 10.1648ZM164.141 10.0234C164.098 10.0234 164.059 10.0201 164.016 10.0168C163.32 9.94108 162.869 9.38167 162.938 8.75973C163.007 8.13779 163.568 7.68697 164.191 7.75607C164.886 7.83176 165.338 8.39117 165.268 9.0164C165.206 9.59227 164.715 10.0234 164.141 10.0234ZM117.366 9.83249C116.772 9.83249 116.258 9.37509 116.219 8.77618C116.176 8.15095 116.631 7.61128 117.257 7.5685C117.923 7.52572 118.483 7.993 118.526 8.61823C118.569 9.24346 118.114 9.78313 117.488 9.82591C117.418 9.8292 117.392 9.83249 117.366 9.83249ZM159.909 9.68441C159.147 9.64492 158.666 9.10854 158.702 8.48331C158.735 7.85808 159.279 7.37764 159.899 7.41384C160.598 7.45333 161.079 7.98642 161.043 8.61165C161.01 9.21713 160.509 9.68441 159.909 9.68441ZM121.581 9.60543C120.975 9.60543 120.474 9.12828 120.448 8.51622C120.421 7.89099 120.909 7.36119 121.535 7.33815C122.218 7.30525 122.758 7.78898 122.791 8.41421C122.821 9.03944 122.336 9.57253 121.71 9.60214C121.611 9.60214 121.598 9.60543 121.581 9.60543ZM155.663 9.52646C154.938 9.51 154.441 8.99337 154.454 8.36814C154.467 7.74949 154.971 7.25918 155.588 7.25918C156.319 7.27892 156.814 7.79885 156.797 8.42408C156.784 9.03944 156.277 9.52646 155.663 9.52646ZM151.415 9.45406C150.699 9.44419 150.195 8.93084 150.205 8.30232C150.215 7.68038 150.719 7.18349 151.339 7.18349C152.064 7.19665 152.562 7.71658 152.549 8.34181C152.539 8.96046 152.031 9.45406 151.415 9.45406ZM125.833 9.45077C125.22 9.45077 124.716 8.96375 124.7 8.34839C124.683 7.72316 125.178 7.19995 125.804 7.18349C126.522 7.1802 127.027 7.66722 127.043 8.28258C127.06 8.90781 126.565 9.43103 125.939 9.44748C125.853 9.45077 125.843 9.45077 125.833 9.45077ZM147.166 9.38825C146.451 9.37838 145.946 8.86503 145.956 8.23651C145.966 7.61128 146.494 7.11768 147.107 7.11768C147.809 7.12755 148.31 7.6409 148.3 8.26942C148.293 8.89136 147.786 9.38825 147.166 9.38825ZM130.082 9.36192C129.462 9.36192 128.955 8.86503 128.948 8.24309C128.938 7.61786 129.443 7.10122 130.069 7.09464C130.774 7.09464 131.282 7.58496 131.292 8.2036C131.305 8.82883 130.807 9.34876 130.181 9.36192C130.095 9.36192 130.089 9.36192 130.082 9.36192ZM142.914 9.33889C142.205 9.3356 141.701 8.82225 141.704 8.19702C141.708 7.57508 142.215 7.07161 142.838 7.07161C143.553 7.08148 144.054 7.59483 144.048 8.22006C144.041 8.842 143.534 9.33889 142.914 9.33889ZM134.337 9.31585C133.714 9.31585 133.207 8.81238 133.204 8.19044C133.2 7.56521 133.705 7.05186 134.331 7.04857C135.04 7.04857 135.547 7.55534 135.547 8.18057C135.547 8.8058 135.04 9.31585 134.41 9.31585C134.341 9.31585 134.341 9.31585 134.337 9.31585ZM138.662 9.31256C137.96 9.31256 137.452 8.8058 137.452 8.17728C137.452 7.55205 137.96 7.04199 138.589 7.04199C139.298 7.04528 139.802 7.55863 139.799 8.18386C139.793 8.80909 139.285 9.31256 138.662 9.31256Z" fill="#CDDEFF"/>
<path fill-rule="evenodd" clip-rule="evenodd" d="M14.8819 51.5649H163.346C168.205 51.5649 172.144 55.4973 172.144 60.3478V93.7252C172.144 98.5756 168.205 102.508 163.346 102.508H14.8819C10.0234 102.508 6.08447 98.5756 6.08447 93.7252V60.3478C6.08447 55.4973 10.0234 51.5649 14.8819 51.5649Z" fill="#E2EBFF"/>
<path fill-rule="evenodd" clip-rule="evenodd" d="M67.6202 90.3851C67.4323 89.3584 67.3664 88.3613 67.34 87.3577H17.8255C16.2104 87.3577 14.9019 88.6641 14.9019 90.2765C14.9019 91.8889 16.2104 93.1953 17.8255 93.1953H67.7026C67.7323 92.2575 67.7653 91.3196 67.6202 90.3851Z" fill="#F7F7F7"/>
<path fill-rule="evenodd" clip-rule="evenodd" d="M77.3573 87.3545H67.3403C67.3667 88.3582 67.4326 89.3552 67.6205 90.3819C67.7655 91.3198 67.7326 92.2543 67.7029 93.1922H77.354C78.9691 93.1922 80.2777 91.8858 80.2777 90.2733C80.2809 88.6642 78.9724 87.3545 77.3573 87.3545Z" fill="#CDDEFF"/>
<path fill-rule="evenodd" clip-rule="evenodd" d="M17.8783 68.6238C16.2632 68.6238 14.9546 69.9302 14.9546 71.5393C14.9546 73.1518 16.2632 74.4582 17.8783 74.4582H30.0278C29.9685 72.5068 29.9157 70.5587 29.7707 68.6238H17.8783Z" fill="#F7F7F7"/>
<path fill-rule="evenodd" clip-rule="evenodd" d="M77.3568 68.6238H29.7705C29.9155 70.5587 29.9683 72.5068 30.0276 74.4582H77.3568C78.9719 74.4582 80.2805 73.1518 80.2805 71.5393C80.2805 69.9302 78.9719 68.6238 77.3568 68.6238Z" fill="#CDDEFF"/>
<path fill-rule="evenodd" clip-rule="evenodd" d="M17.8321 78.0023C16.2137 78.0023 14.9019 79.312 14.9019 80.9277C14.9019 82.5435 16.2137 83.8532 17.8321 83.8532H51.4527C51.1066 81.9182 51.0703 79.9372 50.6847 77.999H17.8321V78.0023Z" fill="#F7F7F7"/>
<path fill-rule="evenodd" clip-rule="evenodd" d="M77.3178 78.0024H50.6851C51.0707 79.9407 51.107 81.9216 51.4531 83.8566H77.3178C78.9362 83.8566 80.2481 82.5469 80.2481 80.9311C80.2481 79.3121 78.9362 78.0024 77.3178 78.0024Z" fill="#CDDEFF"/>
<path fill-rule="evenodd" clip-rule="evenodd" d="M66.9611 84.8699C69.9408 84.8699 72.3569 87.2787 72.3569 90.2501C72.3569 93.2216 69.9408 95.6304 66.9611 95.6304C63.9814 95.6304 61.562 93.2216 61.562 90.2501C61.562 87.2787 63.9814 84.8699 66.9611 84.8699Z" fill="#CDDEFF"/>
<path fill-rule="evenodd" clip-rule="evenodd" d="M28.9696 66.1394C31.9493 66.1394 34.3654 68.5449 34.3654 71.5131C34.3654 74.4813 31.9493 76.8901 28.9696 76.8901C25.9899 76.8901 23.5771 74.4846 23.5771 71.5131C23.5771 68.5449 25.9932 66.1394 28.9696 66.1394Z" fill="#CDDEFF"/>
<path fill-rule="evenodd" clip-rule="evenodd" d="M49.4878 74.2576C53.1729 74.2576 56.1592 77.2554 56.1592 80.9541C56.1592 84.6528 53.1729 87.6506 49.4878 87.6506C45.8027 87.6506 42.8164 84.6528 42.8164 80.9541C42.8164 77.2554 45.8027 74.2576 49.4878 74.2576Z" fill="#CDDEFF"/>
<path d="M163.238 101.337H14.773C9.45636 101.337 5.13184 97.0192 5.13184 91.7114V58.334C5.13184 53.0261 9.45636 48.7087 14.773 48.7087H163.238C168.554 48.7087 172.879 53.0261 172.879 58.334V91.7114C172.879 97.0192 168.554 101.337 163.238 101.337ZM14.773 50.3936C10.3859 50.3936 6.81616 53.9541 6.81616 58.334V91.7114C6.81616 96.0913 10.3859 99.6518 14.773 99.6518H163.238C167.625 99.6518 171.191 96.088 171.191 91.7114V58.334C171.191 53.9541 167.621 50.3936 163.238 50.3936H14.773Z" fill="#CDDEFF"/>
<path d="M132.336 60.9697H0V62.6546H132.336V60.9697Z" fill="#CDDEFF"/>
<path fill-rule="evenodd" clip-rule="evenodd" d="M123.977 23.3113H203.233C208.091 23.3113 212.03 27.2436 212.03 32.0941V71.7666C212.03 76.617 208.091 80.5494 203.233 80.5494H123.977C119.119 80.5494 115.18 76.617 115.18 71.7666V32.0941C115.176 27.2436 119.119 23.3113 123.977 23.3113Z" fill="#F7F7F7"/>
<path fill-rule="evenodd" clip-rule="evenodd" d="M177.299 37.6587H197.725C202.583 37.6587 206.522 41.5911 206.522 46.4415V66.5706C206.522 71.4211 202.583 75.3535 197.725 75.3535H177.299C172.44 75.3535 168.501 71.4211 168.501 66.5706V46.4415C168.501 41.5911 172.44 37.6587 177.299 37.6587Z" fill="#CDDEFF"/>
<path d="M204.736 79.9636H125.481C120.164 79.9636 115.839 75.6462 115.839 70.3384V30.6692C115.839 25.3613 120.164 21.0439 125.481 21.0439H204.736C210.053 21.0439 214.377 25.3613 214.377 30.6692V70.3417C214.374 75.6462 210.049 79.9636 204.736 79.9636ZM125.481 22.7255C121.093 22.7255 117.524 26.2893 117.524 30.6659V70.3384C117.524 74.7183 121.093 78.2788 125.481 78.2788H204.736C209.123 78.2788 212.69 74.7183 212.69 70.3384V30.6692C212.69 26.2893 209.12 22.7288 204.736 22.7288H125.481V22.7255Z" fill="#CDDEFF"/>
<path fill-rule="evenodd" clip-rule="evenodd" d="M50.566 92.9222C50.566 92.9222 47.5632 86.8739 46.726 84.2084C45.8921 81.543 46.6997 76.2351 50.0057 78.5616C53.3117 80.8882 58.7635 90.7701 59.7062 98.1478C60.5929 105.081 59.5051 116.707 59.2876 126.03C59.103 133.904 59.8479 140.18 59.8479 140.18C59.8479 140.18 67.0104 140.627 73.0391 138.436C79.0677 136.241 90.9766 129.235 90.9766 129.235C90.9766 129.235 86.6883 118.609 93.3498 113.969C101.656 108.184 109.056 108.043 109.056 108.043L108.568 102.327C108.568 102.327 100.862 101.537 98.5874 96.3313C96.3131 91.1288 97.8886 88.5949 97.8886 88.5949C97.8886 88.5949 96.847 87.2589 96.145 85.5971C95.4396 83.9353 97.77 84.6 99.006 83.5075C100.242 82.4117 101.659 79.5357 101.659 79.5357C101.659 79.5357 94.2101 69.4563 104.102 63.2962C113.994 57.136 145.824 53.5525 150.096 67.5477C154.371 81.543 147.551 104.334 152.749 110.975C157.944 117.612 158.402 117.316 158.402 117.316C158.402 117.316 159.015 94.4194 160.008 89.0161C161 83.6128 160.743 77.0084 166.217 75.8435C171.696 74.6786 179.814 72.7141 182.411 72.4969C185.009 72.2797 188.832 72.9543 187.576 74.7971C186.317 76.6399 185.833 78.7722 185.833 78.7722C185.833 78.7722 190.566 78.7953 193.79 77.9364C197.017 77.0775 200.481 74.8399 201.259 76.6103C202.037 78.3839 201.259 79.539 201.259 79.539C201.259 79.539 206.493 78.3445 205.026 80.6545C203.563 82.9613 201.954 84.6988 201.954 84.6988C201.954 84.6988 202.482 87.249 199.093 88.8121C195.705 90.3752 187.791 91.6849 184.435 92.2278C181.08 92.7708 177.454 93.9686 177.454 93.9686L180.384 126.731C180.384 126.731 199.769 134.148 195.879 150.289C191.99 166.429 178.36 173.85 178.36 173.85C178.36 173.85 173.176 186.809 163.703 186.536C154.229 186.262 147.439 180.402 147.439 180.402C147.439 180.402 141.922 182.735 137.597 181.448C133.276 180.161 131.733 178.45 131.733 178.45H98.449C98.449 178.45 95.3308 176.693 93.3531 173.85C91.3755 171.01 90.7723 166.044 90.7723 166.044C90.7723 166.044 74.9772 168.341 59.7128 166.949C44.4484 165.561 32.7405 161.28 32.701 147.291C32.6614 133.305 36.7486 112.999 36.7486 112.999C36.7486 112.999 31.2243 108.296 33.7458 104.423C36.2674 100.553 36.8871 101.146 36.8871 101.146C36.8871 101.146 37.599 97.1935 38.8417 96.6143C40.081 96.0352 41.4225 96.1964 41.4225 96.1964C41.4225 96.1964 41.9038 91.8725 44.7022 91.6651C47.5039 91.4578 50.566 92.9222 50.566 92.9222Z" fill="white"/>
<path fill-rule="evenodd" clip-rule="evenodd" d="M46.2613 2.89258H120.385C125.243 2.89258 129.182 6.82494 129.182 11.6754V49.0773C129.182 53.9278 125.243 57.8601 120.385 57.8601H46.2613C41.4027 57.8601 37.4639 53.9278 37.4639 49.0773V11.6754C37.4639 6.82494 41.4027 2.89258 46.2613 2.89258Z" fill="#CDDEFF"/>
<path d="M130.649 11.7839H38.9307V13.4688H130.649V11.7839Z" fill="#E2EBFF"/>
<path d="M120.899 40.3306H73.6822C73.2174 40.3306 72.8384 39.9522 72.8384 39.4882C72.8384 39.0242 73.2141 38.6458 73.6822 38.6458H120.899C121.364 38.6458 121.743 39.0242 121.743 39.4882C121.74 39.9522 121.364 40.3306 120.899 40.3306Z" fill="#CDDEFF"/>
<path d="M77.2747 47.4319C77.0242 47.4319 76.777 47.32 76.6122 47.1094C76.3255 46.7441 76.3881 46.2143 76.7539 45.928L78.5767 44.4999L76.7111 43.177C76.332 42.9072 76.2431 42.384 76.5133 42.0023C76.7803 41.6238 77.3077 41.535 77.69 41.8048L80.4753 43.7792C80.6928 43.9339 80.8247 44.1807 80.8313 44.4439C80.8378 44.7105 80.7192 44.9606 80.5082 45.1251L77.7955 47.2476C77.6406 47.3727 77.456 47.4319 77.2747 47.4319Z" fill="#CDDEFF"/>
<path d="M120.899 45.5266H84.9742C84.5094 45.5266 84.1304 45.1482 84.1304 44.6842C84.1304 44.2202 84.5061 43.8418 84.9742 43.8418H120.899C121.364 43.8418 121.743 44.2202 121.743 44.6842C121.739 45.1515 121.364 45.5266 120.899 45.5266Z" fill="#CDDEFF"/>
<path d="M120.899 29.0567H113.496C113.031 29.0567 112.652 28.6782 112.652 28.2142C112.652 27.7503 113.028 27.3718 113.496 27.3718H120.899C121.364 27.3718 121.743 27.7503 121.743 28.2142C121.74 28.6815 121.364 29.0567 120.899 29.0567Z" fill="#CDDEFF"/>
<path d="M94.7972 34.8418H73.6822C73.2174 34.8418 72.8384 34.4634 72.8384 33.9994C72.8384 33.5354 73.2141 33.157 73.6822 33.157H94.7972C95.262 33.157 95.641 33.5354 95.641 33.9994C95.641 34.4634 95.262 34.8418 94.7972 34.8418Z" fill="#CDDEFF"/>
<path d="M120.899 40.3306H73.6822C73.2174 40.3306 72.8384 39.9522 72.8384 39.4882C72.8384 39.0242 73.2141 38.6458 73.6822 38.6458H120.899C121.364 38.6458 121.743 39.0242 121.743 39.4882C121.74 39.9522 121.364 40.3306 120.899 40.3306Z" fill="#CDDEFF"/>
<path d="M120.823 23.094H73.6094C73.1447 23.094 72.7656 22.7156 72.7656 22.2516C72.7656 21.7876 73.1414 21.4092 73.6094 21.4092H120.823C121.288 21.4092 121.667 21.7876 121.667 22.2516C121.667 22.7156 121.291 23.094 120.823 23.094Z" fill="#CDDEFF"/>
<path d="M108.506 29.0567H73.6822C73.2174 29.0567 72.8384 28.6782 72.8384 28.2142C72.8384 27.7503 73.2141 27.3718 73.6822 27.3718H108.509C108.974 27.3718 109.353 27.7503 109.353 28.2142C109.35 28.6815 108.974 29.0567 108.506 29.0567Z" fill="#CDDEFF"/>
<path d="M120.899 34.8418H101.323C100.859 34.8418 100.479 34.4634 100.479 33.9994C100.479 33.5354 100.855 33.157 101.323 33.157H120.899C121.364 33.157 121.743 33.5354 121.743 33.9994C121.74 34.4634 121.364 34.8418 120.899 34.8418Z" fill="#CDDEFF"/>
<path d="M120.899 40.3306H73.6822C73.2174 40.3306 72.8384 39.9522 72.8384 39.4882C72.8384 39.0242 73.2141 38.6458 73.6822 38.6458H120.899C121.364 38.6458 121.743 39.0242 121.743 39.4882C121.74 39.9522 121.364 40.3306 120.899 40.3306Z" fill="#CDDEFF"/>
<path d="M122.096 5.62663L118.283 9.43335L119.474 10.6224L123.287 6.81565L122.096 5.62663Z" fill="#E2EBFF"/>
<path d="M119.474 5.62886L118.283 6.81787L122.096 10.6246L123.287 9.43557L119.474 5.62886Z" fill="#E2EBFF"/>
<path fill-rule="evenodd" clip-rule="evenodd" d="M53.0083 18.2632H61.0014C65.86 18.2632 69.7988 22.1956 69.7988 27.046V40.8801C69.7988 45.7305 65.86 49.6629 61.0014 49.6629H53.0083C48.1498 49.6629 44.2109 45.7305 44.2109 40.8801V27.046C44.2076 22.1956 48.1465 18.2632 53.0083 18.2632Z" fill="#E2EBFF"/>
<path d="M209.558 33.8513H125.296C124.689 33.8513 124.195 33.3609 124.195 32.7522C124.195 32.1467 124.686 31.6531 125.296 31.6531H209.558C210.165 31.6531 210.659 32.1434 210.659 32.7522C210.659 33.3609 210.165 33.8513 209.558 33.8513Z" fill="#CDDEFF"/>
<path d="M161.442 44.319H127.936C127.33 44.319 126.835 43.8287 126.835 43.2199C126.835 42.6145 127.327 42.1208 127.936 42.1208H161.442C162.048 42.1208 162.542 42.6112 162.542 43.2199C162.542 43.8287 162.048 44.319 161.442 44.319Z" fill="#CDDEFF"/>
<path d="M161.514 50.6139H128.009C127.402 50.6139 126.908 50.1236 126.908 49.5149C126.908 48.9094 127.399 48.4158 128.009 48.4158H161.514C162.12 48.4158 162.615 48.9061 162.615 49.5149C162.615 50.1236 162.124 50.6139 161.514 50.6139Z" fill="#CDDEFF"/>
<path d="M161.514 57.2744H128.009C127.402 57.2744 126.908 56.784 126.908 56.1753C126.908 55.5698 127.399 55.0762 128.009 55.0762H161.514C162.12 55.0762 162.615 55.5665 162.615 56.1753C162.615 56.784 162.124 57.2744 161.514 57.2744Z" fill="#CDDEFF"/>
<path d="M204.06 25.1647L200.247 28.9719L201.438 30.1608L205.251 26.3535L204.06 25.1647Z" fill="#CDDEFF"/>
<path d="M201.444 25.1739L200.252 26.3628L204.065 30.17L205.256 28.9812L201.444 25.1739Z" fill="#CDDEFF"/>
<path fill-rule="evenodd" clip-rule="evenodd" d="M195.131 24.9236C196.647 24.9236 197.88 26.151 197.88 27.668C197.88 29.185 196.65 30.4124 195.131 30.4124C193.611 30.4124 192.382 29.185 192.382 27.668C192.379 26.151 193.611 24.9236 195.131 24.9236Z" fill="#CDDEFF"/>
<path d="M121.852 56.6524H47.7281C42.4114 56.6524 38.0869 52.335 38.0869 47.0271V9.62525C38.0869 4.31738 42.4114 0 47.7281 0H121.852C127.168 0 131.493 4.31738 131.493 9.62525V47.0271C131.493 52.335 127.168 56.6524 121.852 56.6524ZM47.7281 1.68483C43.341 1.68483 39.7745 5.24864 39.7745 9.62525V47.0271C39.7745 51.407 43.3442 54.9676 47.7281 54.9676H121.852C126.239 54.9676 129.805 51.4038 129.805 47.0271V9.62525C129.805 5.24535 126.235 1.68483 121.852 1.68483H47.7281Z" fill="#CDDEFF"/>
<path fill-rule="evenodd" clip-rule="evenodd" d="M16.6787 53.9805C18.1982 53.9805 19.4276 55.2079 19.4276 56.7249C19.4276 58.2419 18.1982 59.4693 16.6787 59.4693C15.1591 59.4693 13.9297 58.2386 13.9297 56.7249C13.9297 55.2112 15.1624 53.9805 16.6787 53.9805Z" fill="#CDDEFF"/>
<path d="M25.6143 54.2243L21.8013 58.031L22.9923 59.22L26.8053 55.4133L25.6143 54.2243Z" fill="#CDDEFF"/>
<path d="M22.9923 54.2265L21.8013 55.4155L25.6143 59.2222L26.8053 58.0332L22.9923 54.2265Z" fill="#CDDEFF"/>
<path fill-rule="evenodd" clip-rule="evenodd" d="M93.5378 127.088C93.5378 127.088 92.0447 124.196 93.2577 120.678C94.4113 117.325 100.334 113.573 104.636 112.524C115.988 109.756 116.047 110.286 118.737 107.367C121.423 104.448 121.248 101.233 121.248 101.233C121.248 101.233 123.767 101.256 124.251 97.6102C124.723 94.0431 121.736 93.4278 121.736 93.4278C121.736 93.4278 114.356 90.5715 110.361 83.8815C106.363 77.1915 106.033 71.6862 106.033 71.6862L102.266 77.3988C102.266 77.3988 98.8347 69.363 106.314 65.763C113.796 62.1597 136.216 57.6548 144.285 66.3224C152.357 74.9868 150.706 85.0661 150.706 85.0661C150.706 85.0661 145.29 112.402 158.663 118.447C172.035 124.489 193.279 129.74 195.168 144.716C197.574 163.776 176.881 173.984 176.881 173.984C176.881 173.984 171.791 187.219 163.479 187.294C152.278 187.393 145.261 177.399 145.261 177.399C145.261 177.399 134.651 179.89 128.437 171.127C122.227 162.364 119.459 151.676 119.643 140.675C119.825 129.675 124.459 114.682 124.459 114.682L122.715 113.359L118.668 123.672C118.668 123.672 110.351 123.258 105.546 123.672C100.74 124.09 93.5378 127.088 93.5378 127.088Z" fill="#A89AFF"/>
<path fill-rule="evenodd" clip-rule="evenodd" d="M62.0991 144.109C62.0991 144.109 76.0285 143.497 85.205 137.975C94.3781 132.453 99.5563 129.195 106.007 128.218C112.457 127.241 119.478 127.869 119.478 127.869C119.478 127.869 113.611 151.46 120.665 163.198C127.719 174.936 132.32 179.155 132.32 179.155H104.817C104.817 179.155 99.1081 176.956 96.4415 171.836C93.7749 166.716 93.3695 165.495 93.3695 165.495L66.0775 167.236C66.0775 167.236 57.8306 162.622 58.3283 155.251C58.8293 147.887 62.0991 144.109 62.0991 144.109Z" fill="#EC5252"/>
<path fill-rule="evenodd" clip-rule="evenodd" d="M109.112 84.7384C109.83 85.153 110.078 86.0711 109.662 86.7885L108.855 88.1837C108.44 88.9011 107.52 89.1479 106.801 88.7332C106.083 88.3186 105.836 87.4005 106.251 86.6832L107.058 85.2879C107.474 84.5705 108.393 84.3237 109.112 84.7384Z" fill="black"/>
<path fill-rule="evenodd" clip-rule="evenodd" d="M157.803 115.052C158.185 105.022 158.35 95.8741 159.49 86.5088C160.024 82.1157 160.746 77.7753 164.036 76.1168C166.616 74.8137 170.763 75.0046 174.079 74.2148C177.51 73.3987 179.972 71.8159 183.829 72.0923C186.934 72.3128 190.625 74.2576 188.813 77.5088C190.886 77.3903 193.065 77.0316 195.263 76.4854C198.256 75.7384 203.78 73.685 203.474 78.4598C204.644 79.1344 206.097 79.5753 206.259 81.0956C206.506 83.3958 204.031 84.5969 202.666 85.6335C203.424 87.0353 202.047 88.2331 201.054 89.2203C198.948 91.3132 196.189 92.3465 192.771 93.0276C188.018 93.9721 182.899 94.186 179.063 95.443C180.022 105.95 181.123 116.316 182.141 126.767C186.95 128.787 190.84 131.706 193.651 135.915C196.367 139.979 198.296 145.659 197.096 152.309C195.098 163.402 187.204 170.48 178.769 175.216C176.208 181.001 173.146 186.572 166.307 188.023C158.254 189.728 152.202 185.588 147.832 182.021C144.536 183.268 140.897 183.495 137.861 182.607C134.858 181.728 132.435 179.997 130.458 178.289C126.222 174.633 122.847 170.23 120.414 164.896C118.058 159.726 116.162 153.155 116.162 145.721C116.162 138.288 116.977 131.177 118.654 124.862C112.718 124.513 107.385 124.977 102.747 126.178C98.1722 127.363 94.3355 129.508 90.7262 131.594C83.623 135.695 77.5186 140.045 67.8543 141.549C67.2511 141.644 66.5458 141.638 66.0217 141.842C65.2998 142.121 64.3143 143.533 63.7506 144.329C61.8422 147.015 60.0293 150.437 60.0853 154.721C60.1677 160.799 63.7177 163.771 67.2709 166.285C76.8165 166.156 87.2125 165.271 96.445 164.09C97.7799 163.919 100.226 163.248 99.9653 165.261C99.807 166.476 97.6678 166.463 96.6658 166.578C95.0936 166.759 93.9234 166.851 92.5621 167.019C93.9103 173.228 96.946 177.621 102.75 179.898C103.647 180.25 105.826 180.678 104.728 181.948C104.458 182.261 102.975 182.475 102.236 182.389C101.01 182.248 98.6402 180.77 97.6909 180.119C95.0474 178.316 93.0566 175.538 91.7513 172.507C91.0789 170.944 90.3241 169.266 90.3603 167.312C81.4245 168.039 71.6515 169.2 62.1355 168.7C52.6163 168.203 44.5111 166.38 38.4561 162.333C35.16 160.128 33.0504 157.871 32.1506 153.622C31.2771 149.496 31.8803 144.422 32.3714 139.719C33.3075 130.772 34.8732 122.002 36.6235 113.956C35.4368 112.864 34.0525 111.686 33.2515 109.932C31.7089 106.556 33.0603 101.998 36.1851 101.004C35.9412 98.0328 37.3618 95.5088 40.4371 95.3673C41.4325 93.6265 42.8235 91.4711 45.4208 91.2704C46.9931 91.1486 48.3115 91.7673 49.6003 92.2938C48.5522 89.1775 43.9178 84.3764 46.3767 79.3384C46.7788 78.5124 47.738 77.364 49.2345 77.364C51.6769 77.364 53.4469 80.059 54.5116 81.6814C55.8432 83.7084 56.8914 85.9296 57.7385 88.0488C59.6206 92.7578 60.9127 97.7629 61.4763 103.416C62.0795 109.438 61.3412 115.697 60.9621 121.492C60.5633 127.59 60.616 133.993 61.328 139.643C74.3675 139.584 82.1398 133.635 90.5779 128.738C89.2528 126.366 87.9772 123.141 88.8902 120.103C89.6517 117.57 91.8007 115.368 93.5081 113.808C97.2789 110.363 101.982 107.497 108.684 107.224C108.344 105.881 107.902 104.637 107.583 103.272C101.805 103.068 98.0898 99.7011 97.2459 93.8306C96.9987 92.1062 96.5768 88.5161 98.3469 88.4898C99.751 88.4667 99.6422 90.1055 99.5928 91.4909C99.7642 92.0766 101.3 93.564 103.11 94.2715C104.521 94.8243 106.914 93.8766 106.923 95.6602C106.93 97.3615 103.759 97.2002 102.233 96.6112C101.3 96.2525 100.684 95.522 100.107 95.1468C101.086 99.6551 105.223 101.159 110.737 100.78C112.112 100.688 114.267 99.9446 114.257 101.731C114.244 103.397 111.884 103.074 110.226 103.268C110.305 104.387 110.915 105.601 111.106 106.855C114.409 106.394 116.446 104.67 118.143 102.61C117.138 102.103 114.498 101.386 114.623 99.6847C114.666 99.1286 115.042 98.6514 115.648 98.5856C116.261 98.5198 116.921 99.1154 117.188 99.3161C117.85 99.8163 118.608 100.382 119.607 100.415C121.225 100.468 123.121 98.9805 123.493 97.5622C123.961 95.7885 123.041 93.9589 121.001 94.1234C120.068 94.1991 117.956 95.4232 117.557 93.903C117.372 93.202 117.728 92.8466 117.995 92.4386C114.594 89.9278 111.65 86.9662 109.274 83.4353C107.576 83.1523 104.89 83.6591 105.094 81.7538C105.209 80.6909 106.581 80.5527 107.879 80.8751C107.375 79.2561 106.455 77.4199 106.119 75.3863C105.229 76.3504 104.405 77.6141 103.772 79.1936C102.958 81.2272 102.658 83.5176 100.839 84.462C99.7115 85.051 96.6032 85.3209 96.3659 83.8038C96.0462 81.7603 98.1095 82.7607 99.4445 82.3395C100.39 82.04 100.193 81.3753 100.69 80.5823C100.272 80.0821 100.018 80.0294 99.8103 79.6313C99.0226 78.1274 98.7391 76.1826 98.4919 74.2872C97.6019 67.4788 101.455 64.2276 105.75 62.0656C110.104 59.874 115.243 58.3636 120.998 57.5277C130.372 56.1654 139.855 57.8239 145.851 61.5522C150.647 64.5369 153.686 69.0385 153.768 76.6269C153.844 84.0539 152.496 90.609 152.156 97.9999C151.804 105.7 153.287 111.699 157.803 115.052ZM120.929 117.027C121.334 115.825 121.934 112.446 123.569 112.561C125.632 112.709 123.879 116.072 123.569 116.951C121.796 122.002 120.52 126.997 119.61 132.907C118.433 140.552 118.354 150.279 120.197 156.985C122.122 163.991 125.481 169.615 129.581 174.11C131.641 176.371 134.136 178.477 137.205 179.747C139.697 180.777 142.835 180.846 145.633 180.112C146.451 179.898 147.341 179.392 148.273 179.382C148.956 179.375 149.678 180.264 150.106 180.626C153.653 183.63 158.58 186.71 165.133 185.677C171.007 184.749 173.733 180.31 175.763 175.798C176.053 175.157 176.267 174.367 176.643 173.748C176.956 173.235 178.057 172.731 178.697 172.356C185.869 168.167 192.399 162 194.459 152.816C195.253 149.269 195.013 144.905 193.8 141.694C191.413 135.385 186.99 131.509 180.899 128.959C174.814 126.412 168.535 124.526 162.72 121.42C156.969 118.346 152.242 114.595 150.479 108.027C148.563 100.896 150.258 92.1523 150.917 84.5344C151.243 80.7633 151.56 76.0345 150.844 72.5333C150.113 68.9563 148.412 66.5705 145.933 64.629C141.305 61.006 133.929 59.1698 125.26 59.5778C120.471 59.8049 115.708 60.8283 111.33 62.4309C107.655 63.78 102.978 65.6459 101.435 69.0188C100.292 71.5164 100.852 74.7709 101.801 77.5812C102.233 76.5545 102.793 75.6528 103.486 74.6525C103.891 74.0634 105.335 72.6813 105.391 72.0923C105.546 70.4996 103.904 66.7252 106.343 66.8963C107.688 66.9917 107.51 69.1866 107.662 70.4832C108.802 80.1479 113.341 86.0876 119.683 90.609C120.204 90.9808 120.84 91.5534 121.15 91.6324C121.861 91.8134 122.593 91.685 123.055 91.8529C125.055 92.5768 126.404 94.8704 126.061 97.5622C125.715 100.28 123.213 102.133 121.001 102.686C120.451 104.032 119.353 105.154 118.288 106.125C117.26 107.066 115.965 107.964 114.551 108.54C111.469 109.794 107.589 109.501 104.069 110.442C100.845 111.304 98.3732 112.995 96.1516 114.904C94.23 116.556 91.1415 118.915 91.0954 122.223C91.0624 124.44 91.9886 125.869 92.7072 127.491C99.4873 123.805 108.538 121.653 119.244 122.367C119.818 120.604 120.293 118.919 120.929 117.027ZM182.431 74.5801C179.531 74.794 177.342 76.1695 173.855 76.8473C170.957 77.4133 167.071 77.1896 164.912 78.5322C162.846 79.8155 162.358 83.9388 161.979 87.0221C160.802 96.6737 160.614 106.799 160.219 116.954C165.792 120.732 172.797 123.085 179.498 125.737C178.565 115.858 177.579 106.036 176.564 96.2426C175.621 96.5684 174.339 96.3446 174.366 95.1435C174.392 94.0675 175.434 94.0346 176.419 93.6068C176.815 93.4357 177.095 93.1658 177.372 93.0934C177.668 93.0178 178.005 93.0737 178.324 93.021C179.989 92.7348 181.828 92.0667 183.822 91.7772C189.208 90.9907 195.283 90.7603 198.632 88.0455C198.876 87.8481 199.324 87.7 199.291 87.3117C197.185 88.4338 193.971 89.0722 190.935 89.5066C189.478 89.7139 187.033 90.326 187.049 88.5556C187.066 87.1241 188.727 87.3413 190.128 87.1636C194.254 86.6437 197.86 85.4953 200.682 83.8697C201.796 83.2247 203.049 82.583 203.615 81.3819C203.345 81.1647 202.969 81.0528 202.663 80.8686C201.918 81.2898 201.707 81.836 201.051 82.3329C198.385 84.3534 193.483 85.2616 188.882 85.5545C187.122 85.6664 184.973 85.9263 185.071 84.3106C185.164 82.787 188.012 83.0964 189.323 82.9943C191.192 82.8496 192.84 82.6225 194.235 82.3362C197.396 81.6879 200.244 80.8291 200.979 77.9464C198.563 77.93 196.364 78.9336 193.869 79.4108C192.672 79.6378 191.38 79.7925 190.058 79.9241C188.747 80.0525 187.211 79.8254 185.879 80.1446C185.243 80.296 184.468 80.9311 183.68 81.2437C181.894 81.9479 180.49 82.1552 178.769 82.9252C177.718 83.3958 175.358 84.7976 175.397 82.6324C175.417 81.5728 176.983 80.9903 177.889 80.5823C181.195 79.1015 185.243 78.802 186.759 75.8239C185.872 74.9486 184.287 74.4451 182.431 74.5801ZM48.2819 83.7282C48.651 85.6433 49.9201 87.3315 50.9221 89.217C51.9637 91.1816 52.7976 93.1494 53.414 94.8507C54.1589 95.8708 56.1366 96.2953 56.1267 97.8518C56.1201 98.5264 55.7048 99.0529 54.8807 99.0233C54.1457 98.9936 53.4337 98.069 52.7547 97.4865C52.0329 96.8679 51.3308 96.3183 50.7012 95.8774C48.7433 94.4986 45.9647 92.8368 44.1024 94.4854C43.786 94.7651 43.219 95.2785 43.3706 95.5845C45.6318 96.2459 47.2238 96.8909 49.2345 98.1446C50.0453 98.6481 52.6394 100.001 52.6064 101.291C52.5899 101.912 52.168 102.449 51.433 102.462C50.6155 102.478 49.5179 101.343 48.7928 100.853C47.092 99.6978 45.3121 98.6185 43.074 98.0723C40.4371 97.4273 38.3506 97.9275 38.5286 100.708C42.0093 101.146 44.2408 102.436 46.591 103.926C47.3886 104.433 48.4599 104.983 48.4236 105.904C48.3939 106.671 47.738 107.056 47.2502 107.076C46.5514 107.102 45.6252 106.236 44.9759 105.832C44.1914 105.341 43.3706 104.917 42.7048 104.588C41.1952 103.847 39.0725 102.669 37.0618 103.272C35.6874 103.68 34.9886 105.628 35.0809 107.224C35.1534 108.474 35.773 109.369 36.3268 110.077C36.574 110.396 36.7981 111.005 37.2069 110.883C37.9056 109.593 37.4244 106.829 39.0395 106.638C41.4688 106.348 39.9756 110.031 39.6262 111.541C39.267 113.101 38.9209 114.901 38.6011 116.444C36.5608 126.237 34.7051 136.751 34.2008 147.548C34.0096 151.668 34.5798 154.883 36.3268 157.209C38.0012 159.437 40.5623 160.974 43.219 162.185C48.3214 164.511 55.0324 166.012 62.864 166.285C62.9991 165.9 62.33 165.531 62.0564 165.261C59.5481 162.757 57.544 159.457 57.5869 154.577C57.6297 149.749 59.4755 146.215 61.473 143.378C61.7565 142.974 62.2443 142.46 62.1322 142.134C59.6832 142.253 57.1023 142.26 54.5083 142.062C52.6921 141.924 48.3808 142.092 48.4236 140.232C48.4599 138.676 50.187 139.13 51.5022 139.281C53.8359 139.548 56.5123 139.739 58.8328 139.722C58.167 134.273 58.1175 128.534 58.3944 122.743C58.6647 117.027 59.4393 111.396 59.1987 105.763C58.9712 100.379 57.7385 95.3673 56.1201 90.9051C55.3883 88.8814 54.5379 86.7391 53.4074 84.6858C52.5207 83.0766 50.9485 80.421 49.1554 79.855C48.2852 80.4901 48.0182 82.3625 48.2819 83.7282Z" fill="black"/>
<path fill-rule="evenodd" clip-rule="evenodd" d="M120.269 95.0712C121.014 95.0482 122.161 95.6569 121.588 96.8284C121.337 97.3418 120.582 97.4898 119.828 97.6346C119.132 97.7663 118.255 98.0591 117.702 97.9999C116.861 97.9077 116.156 96.8284 116.822 95.9498C117.293 95.3311 119.261 95.1041 120.269 95.0712Z" fill="black"/>
</g>
<defs>
<clipPath id="clip0">
<rect width="214.374" height="188.415" fill="white"/>
</clipPath>
</defs>
</svg>
