<svg width="127" height="51" viewBox="0 0 127 51" fill="none" xmlns="http://www.w3.org/2000/svg">
<path fill-rule="evenodd" clip-rule="evenodd" d="M25.3411 33.5033C27.3785 34.2467 29.5123 34.6184 31.7424 34.6184C32.9445 34.6184 34.0685 34.4969 35.1145 34.254L24.2273 47L0 18.6364L9.08523 8L22.8198 8C22.3272 8.55263 21.9149 9.17939 21.5829 9.8803C21.0873 10.899 20.8395 12.0278 20.8395 13.2668V13.3494C20.8395 14.671 21.046 15.7998 21.459 16.7359C21.8995 17.672 22.519 18.4705 23.3174 19.1313C24.1434 19.7645 25.1483 20.3152 26.3322 20.7832C27.5437 21.2238 28.9203 21.623 30.4621 21.9809C31.8112 22.2838 32.8988 22.5866 33.7248 22.8895C34.5783 23.1923 35.239 23.5227 35.7071 23.8807C36.2027 24.2386 36.5331 24.624 36.6983 25.037C36.891 25.4225 36.9874 25.8768 36.9874 26.3999V26.4825C36.9874 27.5563 36.5193 28.4373 35.5832 29.1256C34.6746 29.7864 33.4357 30.1168 31.8663 30.1168C30.0767 30.1168 28.4522 29.8002 26.993 29.1669C25.5613 28.5061 24.1434 27.57 22.7392 26.3586L19.6831 29.9929C21.4177 31.5623 23.3036 32.7324 25.3411 33.5033ZM42.0664 26.1152C42.0669 26.0726 42.0671 26.0298 42.0671 25.9869V25.9043C42.0671 24.7204 41.8744 23.6879 41.489 22.8069C41.1035 21.8983 40.5116 21.1136 39.7131 20.4528C38.9422 19.7645 37.9785 19.1863 36.8222 18.7183C35.6658 18.2502 34.3305 17.8235 32.8162 17.438C31.412 17.1076 30.2694 16.791 29.3884 16.4881C28.5073 16.1853 27.8052 15.8687 27.2821 15.5383C26.759 15.1803 26.4011 14.7949 26.2083 14.3819C26.0156 13.9414 25.9192 13.4458 25.9192 12.8951V12.8125C25.9192 11.8489 26.3322 11.0367 27.1582 10.3759C27.9842 9.71511 29.1406 9.38472 30.6273 9.38472C31.9489 9.38472 33.2567 9.64628 34.5507 10.1694C35.8448 10.665 37.1526 11.3946 38.4741 12.3582L40.5697 9.40536L48.4545 18.6364L42.0664 26.1152Z" fill="#594FC5"/>
<rect x="44" y="2" width="22" height="32" fill="white"/>
<path d="M46.4918 30H51.6688V23.645L53.3118 21.63L58.5818 30H64.9368L56.7218 17.538L64.6578 7.99H58.1168L51.7308 16.422H51.6688V7.99H46.4918V30ZM67.1412 30H72.4422V7.99H67.1412V30ZM76.5533 30H90.9993V25.381H81.8543V7.99H76.5533V30ZM93.6881 30H108.134V25.381H98.9891V7.99H93.6881V30ZM117.519 30.279C121.177 30.279 125.61 28.419 125.61 23.242C125.61 18.995 122.634 18.003 118.759 16.515C116.372 15.585 115.566 15.027 115.597 13.973C115.597 12.919 116.372 12.268 117.643 12.268C118.883 12.268 120.247 12.857 122.138 14.345L125.052 10.563C122.944 8.765 120.309 7.649 117.426 7.711C113.334 7.773 110.203 10.532 110.203 14.19C110.203 18.53 113.551 20.111 116.899 21.258C119.379 22.095 120.154 22.622 120.154 23.831C120.154 24.823 119.41 25.691 117.674 25.691C116.155 25.691 114.14 24.916 112.466 23.087L109.428 26.776C111.784 29.194 114.698 30.279 117.519 30.279ZM40.9375 37.0605H42.127L45.791 47H44.2871L41.5322 38.9814L38.7773 47H37.2734L40.9375 37.0605ZM38.9619 43.4932H44.1914V44.8193H38.9619V43.4932ZM50.0225 47.1025C49.3753 47.1025 48.8216 46.9818 48.3613 46.7402C47.9056 46.4987 47.557 46.1478 47.3154 45.6875C47.0739 45.2272 46.9531 44.6712 46.9531 44.0195V42.8506C46.9531 42.208 47.0739 41.6589 47.3154 41.2031C47.557 40.7474 47.9056 40.401 48.3613 40.1641C48.8216 39.9225 49.3753 39.8018 50.0225 39.8018C50.3916 39.8018 50.738 39.8473 51.0615 39.9385C51.3896 40.0251 51.6836 40.1527 51.9434 40.3213C52.2031 40.4899 52.4196 40.695 52.5928 40.9365L51.5879 41.8389C51.3874 41.611 51.1527 41.4355 50.8838 41.3125C50.6149 41.1895 50.3346 41.1279 50.043 41.1279C49.5052 41.1279 49.0882 41.2783 48.792 41.5791C48.4958 41.8799 48.3477 42.3037 48.3477 42.8506V44.0195C48.3477 44.5801 48.4935 45.013 48.7852 45.3184C49.0814 45.6237 49.5007 45.7764 50.043 45.7764C50.3392 45.7764 50.6217 45.7103 50.8906 45.5781C51.1595 45.446 51.3919 45.2591 51.5879 45.0176L52.5928 45.9883C52.415 46.2253 52.1963 46.4281 51.9365 46.5967C51.6768 46.7607 51.3828 46.8861 51.0547 46.9727C50.7311 47.0592 50.387 47.1025 50.0225 47.1025ZM58.1367 42.502C58.1367 42.0371 58.0114 41.6771 57.7607 41.4219C57.5146 41.1621 57.1637 41.0322 56.708 41.0322C56.4255 41.0322 56.1475 41.0755 55.874 41.1621C55.6051 41.2487 55.3659 41.3695 55.1562 41.5244L54.1377 40.8271C54.4066 40.5036 54.7598 40.2529 55.1973 40.0752C55.6393 39.8929 56.1292 39.8018 56.667 39.8018C57.2549 39.8018 57.7585 39.9066 58.1777 40.1162C58.597 40.3213 58.916 40.6221 59.1348 41.0186C59.3535 41.4105 59.4629 41.8844 59.4629 42.4404V47H58.1367V42.502ZM56.4004 47.1025C55.5254 47.1025 54.8714 46.9225 54.4385 46.5625C54.0055 46.1979 53.7891 45.6465 53.7891 44.9082C53.7891 44.2064 53.9873 43.68 54.3838 43.3291C54.7803 42.9782 55.3796 42.8027 56.1816 42.8027H58.1982L58.2939 43.9238H56.1885C55.8239 43.9238 55.5505 44.0059 55.3682 44.1699C55.1904 44.3294 55.1016 44.5755 55.1016 44.9082C55.1016 45.2682 55.2201 45.5348 55.457 45.708C55.6986 45.8812 56.0632 45.9678 56.5508 45.9678C57.084 45.9678 57.4805 45.9108 57.7402 45.7969C58.0046 45.6829 58.1367 45.5052 58.1367 45.2637L58.2803 46.2617C58.1572 46.4531 58.0046 46.6104 57.8223 46.7334C57.6445 46.8564 57.4372 46.9476 57.2002 47.0068C56.9632 47.0706 56.6966 47.1025 56.4004 47.1025ZM65.6152 37.0605H67.0098V47H65.6152V37.0605ZM63.8311 47.123C63.3115 47.123 62.8672 47.0114 62.498 46.7881C62.1335 46.5602 61.8555 46.2298 61.6641 45.7969C61.4727 45.3639 61.377 44.8444 61.377 44.2383V42.6729C61.377 42.0622 61.4704 41.5404 61.6572 41.1074C61.8441 40.6745 62.1152 40.3464 62.4707 40.123C62.8307 39.8952 63.2614 39.7812 63.7627 39.7812C64.182 39.7812 64.5648 39.8906 64.9111 40.1094C65.262 40.3281 65.5446 40.6357 65.7588 41.0322L65.6152 42.4814C65.6152 42.1807 65.5605 41.9232 65.4512 41.709C65.3418 41.4948 65.1823 41.333 64.9727 41.2236C64.7676 41.1097 64.5169 41.0527 64.2207 41.0527C63.7604 41.0527 63.4027 41.1963 63.1475 41.4834C62.8968 41.7705 62.7715 42.1738 62.7715 42.6934V44.2383C62.7715 44.7533 62.8968 45.152 63.1475 45.4346C63.4027 45.7126 63.7604 45.8516 64.2207 45.8516C64.5169 45.8516 64.7676 45.7946 64.9727 45.6807C65.1823 45.5622 65.3418 45.3936 65.4512 45.1748C65.5605 44.9561 65.6152 44.694 65.6152 44.3887L65.7109 45.8857C65.5697 46.2367 65.3372 46.5306 65.0137 46.7676C64.6947 47.0046 64.3005 47.123 63.8311 47.123ZM72.0342 47.1025C71.3779 47.1025 70.8174 46.9795 70.3525 46.7334C69.8877 46.4873 69.5322 46.1273 69.2861 45.6533C69.0446 45.1748 68.9238 44.5983 68.9238 43.9238V43.124C68.9238 42.4222 69.04 41.8229 69.2725 41.3262C69.5094 40.8294 69.8512 40.4512 70.2979 40.1914C70.7445 39.9316 71.2822 39.8018 71.9111 39.8018C72.5036 39.8018 73.0094 39.9499 73.4287 40.2461C73.848 40.5423 74.167 40.9707 74.3857 41.5312C74.609 42.0918 74.7207 42.764 74.7207 43.5479V44.0127H69.9355V42.8916H73.3945C73.3535 42.3128 73.2031 41.8639 72.9434 41.5449C72.6882 41.2214 72.3441 41.0596 71.9111 41.0596C71.3825 41.0596 70.9723 41.2327 70.6807 41.5791C70.3936 41.9255 70.25 42.4154 70.25 43.0488V43.9512C70.25 44.5391 70.4049 44.9902 70.7148 45.3047C71.0247 45.6191 71.4645 45.7764 72.0342 45.7764C72.3167 45.7764 72.597 45.7194 72.875 45.6055C73.153 45.4915 73.4014 45.332 73.6201 45.127L74.5361 46.043C74.1852 46.3802 73.791 46.6423 73.3535 46.8291C72.916 47.0114 72.4762 47.1025 72.0342 47.1025ZM85.1113 42.7002C85.1113 42.1989 84.9814 41.8115 84.7217 41.5381C84.4619 41.2646 84.0973 41.1279 83.6279 41.1279C83.195 41.1279 82.86 41.2601 82.623 41.5244C82.3861 41.7887 82.2676 42.1624 82.2676 42.6455L81.9873 41.2783C82.2106 40.8089 82.5046 40.4466 82.8691 40.1914C83.2383 39.9316 83.6439 39.8018 84.0859 39.8018C84.5964 39.8018 85.0316 39.9157 85.3916 40.1436C85.7562 40.3669 86.0319 40.695 86.2188 41.1279C86.4102 41.5609 86.5059 42.0827 86.5059 42.6934V47H85.1113V42.7002ZM76.6348 39.9043H78.0293V47H76.6348V39.9043ZM80.873 42.7002C80.873 42.1989 80.75 41.8115 80.5039 41.5381C80.2578 41.2646 79.9092 41.1279 79.458 41.1279C79.0023 41.1279 78.6491 41.2487 78.3984 41.4902C78.1523 41.7318 78.0293 42.0713 78.0293 42.5088L77.8857 41.1416C78.1045 40.7132 78.3893 40.3828 78.7402 40.1504C79.0957 39.918 79.4876 39.8018 79.916 39.8018C80.4128 39.8018 80.8366 39.9157 81.1875 40.1436C81.5384 40.3669 81.805 40.695 81.9873 41.1279C82.1742 41.5609 82.2676 42.0827 82.2676 42.6934V47H80.873V42.7002ZM93.9502 39.9043L90.9287 48.6611C90.8193 48.9847 90.6758 49.2399 90.498 49.4268C90.3203 49.6182 90.1016 49.7549 89.8418 49.8369C89.582 49.9189 89.263 49.96 88.8848 49.96H88.6045V48.6201H88.8848C89.1445 48.6201 89.3496 48.5677 89.5 48.4629C89.6549 48.3581 89.7894 48.1781 89.9033 47.9229L92.5283 39.9043H93.9502ZM87.668 39.9043H89.0898L91.2705 46.0703L90.498 47.5811L87.668 39.9043Z" fill="#161616"/>
</svg>
