<svg width="22" height="22" viewBox="0 0 22 22" fill="none" xmlns="http://www.w3.org/2000/svg">
<g clip-path="url(#clip0)">
<path d="M19.8525 3.9532H18.0478V2.14843C18.0478 0.963785 17.084 0 15.8994 0H2.14941C0.964762 0 0.000976562 0.963785 0.000976562 2.14843V15.8984C0.000976562 17.083 0.964762 18.0468 2.14941 18.0468H3.95413V19.8516C3.95413 21.0362 4.91791 22 6.10256 22H19.8525C21.0372 22 22.0009 21.0362 22.0009 19.8516V6.10158C22.001 4.91694 21.0372 3.9532 19.8525 3.9532ZM2.14941 17.1874C1.43862 17.1874 0.860348 16.6092 0.860348 15.8984V2.14843C0.860348 1.43764 1.43862 0.859372 2.14941 0.859372H15.8994C16.6101 0.859372 17.1884 1.43764 17.1884 2.14843V15.8984C17.1884 16.6092 16.6101 17.1874 15.8994 17.1874H2.14941ZM21.1416 19.8516C21.1416 20.5624 20.5633 21.1406 19.8525 21.1406H6.10256C5.39177 21.1406 4.8135 20.5624 4.8135 19.8516V18.0468H15.8994C17.084 18.0468 18.0478 17.083 18.0478 15.8984V4.81257H19.8525C20.5633 4.81257 21.1416 5.39084 21.1416 6.10162V19.8516Z" fill="#352E7D"/>
<path d="M6.11267 19.6367H6.10107C5.86376 19.6367 5.67139 19.8291 5.67139 20.0664C5.67139 20.3037 5.86376 20.4961 6.10107 20.4961H6.11267C6.34999 20.4961 6.54236 20.3037 6.54236 20.0664C6.54236 19.8291 6.35003 19.6367 6.11267 19.6367Z" fill="#352E7D"/>
<path d="M19.853 19.6367H7.34717C7.10985 19.6367 6.91748 19.8291 6.91748 20.0664C6.91748 20.3037 7.10985 20.4961 7.34717 20.4961H19.8529C20.0902 20.4961 20.2826 20.3037 20.2826 20.0664C20.2826 19.8291 20.0902 19.6367 19.853 19.6367Z" fill="#352E7D"/>
<path d="M4.72791 1.50391H4.71631C4.47899 1.50391 4.28662 1.69628 4.28662 1.93359C4.28662 2.17091 4.47899 2.36328 4.71631 2.36328H4.72791C4.96522 2.36328 5.15759 2.17091 5.15759 1.93359C5.15759 1.69628 4.96527 1.50391 4.72791 1.50391Z" fill="#352E7D"/>
<path d="M3.48197 1.50391H2.14844C1.91112 1.50391 1.71875 1.69628 1.71875 1.93359C1.71875 2.17091 1.91112 2.36328 2.14844 2.36328H3.48192C3.71924 2.36328 3.91161 2.17091 3.91161 1.93359C3.91165 1.69628 3.71928 1.50391 3.48197 1.50391Z" fill="#352E7D"/>
<path d="M12.6105 8.64238C12.5084 8.2643 12.2652 7.94861 11.9264 7.75396L9.82447 6.54044C9.80337 6.52673 9.7821 6.51358 9.7607 6.5013L7.66418 5.29078C7.42403 5.13244 7.14486 5.04883 6.85581 5.04883C6.04495 5.04883 5.38525 5.70848 5.38525 6.51938V11.53C5.38525 11.5475 5.38633 11.5648 5.38835 11.5817C5.39681 11.8214 5.46449 12.0569 5.5854 12.2657C5.84708 12.7176 6.33426 12.9983 6.85684 12.9983C7.11405 12.9983 7.36817 12.9299 7.59113 12.8007L9.7607 11.548C9.77299 11.5409 9.78481 11.5333 9.79615 11.5252L11.911 10.3043C12.1419 10.1753 12.3338 9.98557 12.4663 9.75518C12.6614 9.41564 12.7126 9.02041 12.6105 8.64238ZM11.7213 9.32695C11.6661 9.4229 11.5863 9.50171 11.4906 9.55486C11.4885 9.55602 11.4864 9.55722 11.4843 9.55842L9.33011 10.802C9.31778 10.8091 9.30596 10.8168 9.29462 10.8249L7.16097 12.0568C7.0682 12.1105 6.96302 12.1389 6.85684 12.1389C6.63985 12.1389 6.4376 12.0225 6.32906 11.8351C6.27522 11.7421 6.24682 11.6368 6.2469 11.5304C6.2469 11.5158 6.24617 11.5012 6.24467 11.4868V6.51938H6.24471C6.24471 6.18238 6.51889 5.9082 6.8559 5.9082C6.9784 5.9082 7.09631 5.94412 7.1969 6.01205C7.20527 6.01768 7.21382 6.02305 7.22255 6.02812L9.33192 7.24603C9.34249 7.25213 9.35263 7.25857 9.36268 7.26523C9.36982 7.26992 9.37708 7.27443 9.38447 7.27873L11.4975 8.49865C11.638 8.57938 11.7387 8.71001 11.781 8.8665C11.8232 9.02299 11.802 9.18653 11.7213 9.32695Z" fill="#352E7D"/>
</g>
<defs>
<clipPath id="clip0">
<rect width="22" height="22" fill="white"/>
</clipPath>
</defs>
</svg>
