<svg width="22" height="22" viewBox="0 0 22 22" fill="none" xmlns="http://www.w3.org/2000/svg">
<g clip-path="url(#clip0)">
<path d="M0.490234 21.5663C0.490234 21.8058 0.684391 22 0.92391 22H21.0761C21.3156 22 21.5098 21.8058 21.5098 21.5663V2.37376C21.5098 2.13429 21.3156 1.94009 21.0761 1.94009H19.5258V1.39895C19.5258 0.627571 18.8982 0 18.1269 0C17.3555 0 16.7279 0.627571 16.7279 1.39895V1.94013H12.3989V1.39895C12.3989 0.627571 11.7714 0 11 0C10.2286 0 9.6011 0.627571 9.6011 1.39895V1.94013H5.34527V1.39895C5.34527 0.627571 4.71774 0 3.94641 0C3.17507 0 2.54746 0.627571 2.54746 1.39895V1.94013H0.92391C0.684391 1.94013 0.490234 2.13433 0.490234 2.37381V21.5663ZM17.5953 1.39895C17.5953 1.10583 17.8338 0.867351 18.1269 0.867351C18.42 0.867351 18.6584 1.10583 18.6584 1.39895V1.94013H17.5953V1.39895ZM10.4685 1.39895C10.4685 1.10583 10.7069 0.867351 11 0.867351C11.2931 0.867351 11.5316 1.10583 11.5316 1.39895V1.94013H10.4685V1.39895ZM3.41481 1.39895C3.41481 1.10583 3.65329 0.867351 3.94641 0.867351C4.23949 0.867351 4.47797 1.10583 4.47797 1.39895V1.94013H3.41481V1.39895ZM1.35758 21.1326V7.07984H2.98113C3.53797 7.07984 3.5388 6.21248 2.98113 6.21248H1.35758V2.80744H2.54746C2.54746 3.64374 2.74058 4.42566 3.5136 4.88314C3.98895 5.1646 4.4372 4.42184 3.95539 4.13674C3.45146 3.83846 3.41481 3.32885 3.41481 2.80744H9.6011C9.6011 3.64374 9.79422 4.42561 10.5672 4.88314C11.0426 5.16455 11.4908 4.42197 11.009 4.13674C10.5051 3.83846 10.4685 3.32885 10.4685 2.80744H16.7279C16.7279 3.64374 16.9211 4.42561 17.694 4.88314C18.1694 5.16455 18.6176 4.42197 18.1359 4.13674C17.6319 3.83846 17.5953 3.32885 17.5953 2.80744H20.6424V6.21248H6.50466C5.94782 6.21248 5.947 7.07984 6.50466 7.07984H20.6424V21.1326H1.35758Z" fill="#352E7D"/>
<path d="M5.76307 8.03125H2.98104C2.74152 8.03125 2.54736 8.22545 2.54736 8.46493V11.2469C2.54736 11.4864 2.74152 11.6806 2.98104 11.6806H5.76302C6.00254 11.6806 6.1967 11.4864 6.1967 11.2469V8.46493C6.19674 8.22545 6.00258 8.03125 5.76307 8.03125ZM5.32939 10.8133H3.41471V8.8986H5.32935V10.8133H5.32939Z" fill="#352E7D"/>
<path d="M10.2064 8.03125H7.4244C7.18488 8.03125 6.99072 8.22545 6.99072 8.46493V11.2469C6.99072 11.4864 7.18488 11.6806 7.4244 11.6806H10.2064C10.4459 11.6806 10.6401 11.4864 10.6401 11.2469V8.46493C10.6401 8.22545 10.4459 8.03125 10.2064 8.03125ZM9.77271 10.8133H7.85807V8.8986H9.77271V10.8133Z" fill="#352E7D"/>
<path d="M14.6492 8.03125H11.8673C11.6277 8.03125 11.4336 8.22545 11.4336 8.46493V11.2469C11.4336 11.4864 11.6277 11.6806 11.8673 11.6806H14.6492C14.8888 11.6806 15.0829 11.4864 15.0829 11.2469V8.46493C15.0829 8.22545 14.8888 8.03125 14.6492 8.03125ZM14.2156 10.8133H12.3009V8.8986H14.2156V10.8133Z" fill="#352E7D"/>
<path d="M19.0921 8.03125H16.3101C16.0706 8.03125 15.8765 8.22545 15.8765 8.46493V11.2469C15.8765 11.4864 16.0706 11.6806 16.3101 11.6806H19.0921C19.3316 11.6806 19.5258 11.4864 19.5258 11.2469V8.46493C19.5258 8.22545 19.3316 8.03125 19.0921 8.03125ZM18.6584 10.8133H16.7438V8.8986H18.6584V10.8133Z" fill="#352E7D"/>
<path d="M5.76307 12.2817H2.98104C2.74152 12.2817 2.54736 12.4759 2.54736 12.7154V15.4974C2.54736 15.7369 2.74152 15.9311 2.98104 15.9311H5.76302C6.00254 15.9311 6.1967 15.7369 6.1967 15.4974V12.7154C6.19674 12.4759 6.00258 12.2817 5.76307 12.2817ZM5.32939 15.0638H3.41471V13.1491H5.32935V15.0638H5.32939Z" fill="#352E7D"/>
<path d="M10.2064 12.2817H7.4244C7.18488 12.2817 6.99072 12.4759 6.99072 12.7154V15.4974C6.99072 15.7369 7.18488 15.9311 7.4244 15.9311H10.2064C10.4459 15.9311 10.6401 15.7369 10.6401 15.4974V12.7154C10.6401 12.4759 10.4459 12.2817 10.2064 12.2817ZM9.77271 15.0638H7.85807V13.1491H9.77271V15.0638Z" fill="#352E7D"/>
<path d="M14.6492 12.2817H11.8673C11.6277 12.2817 11.4336 12.4759 11.4336 12.7154V15.4974C11.4336 15.7369 11.6277 15.9311 11.8673 15.9311H14.6492C14.8888 15.9311 15.0829 15.7369 15.0829 15.4974V12.7154C15.0829 12.4759 14.8888 12.2817 14.6492 12.2817ZM14.2156 15.0638H12.3009V13.1491H14.2156V15.0638Z" fill="#352E7D"/>
<path d="M19.0921 12.2817H16.3101C16.0706 12.2817 15.8765 12.4759 15.8765 12.7154V15.4974C15.8765 15.7369 16.0706 15.9311 16.3101 15.9311H19.0921C19.3316 15.9311 19.5258 15.7369 19.5258 15.4974V12.7154C19.5258 12.4759 19.3316 12.2817 19.0921 12.2817ZM18.6584 15.0638H16.7438V13.1491H18.6584V15.0638Z" fill="#352E7D"/>
<path d="M5.76307 16.5322H2.98104C2.74152 16.5322 2.54736 16.7264 2.54736 16.9659V19.7479C2.54736 19.9874 2.74152 20.1816 2.98104 20.1816H5.76302C6.00254 20.1816 6.1967 19.9874 6.1967 19.7479V16.9659C6.19674 16.7264 6.00258 16.5322 5.76307 16.5322ZM5.32939 19.3143H3.41471V17.3996H5.32935V19.3143H5.32939Z" fill="#352E7D"/>
<path d="M10.2064 16.5322H7.4244C7.18488 16.5322 6.99072 16.7264 6.99072 16.9659V19.7479C6.99072 19.9874 7.18488 20.1816 7.4244 20.1816H10.2064C10.4459 20.1816 10.6401 19.9874 10.6401 19.7479V16.9659C10.6401 16.7264 10.4459 16.5322 10.2064 16.5322ZM9.77271 19.3143H7.85807V17.3996H9.77271V19.3143Z" fill="#352E7D"/>
<path d="M14.6492 16.5322H11.8673C11.6277 16.5322 11.4336 16.7264 11.4336 16.9659V19.7479C11.4336 19.9874 11.6277 20.1816 11.8673 20.1816H14.6492C14.8888 20.1816 15.0829 19.9874 15.0829 19.7479V16.9659C15.0829 16.7264 14.8888 16.5322 14.6492 16.5322ZM14.2156 19.3143H12.3009V17.3996H14.2156V19.3143Z" fill="#352E7D"/>
<path d="M19.0921 16.5322H16.3101C16.0706 16.5322 15.8765 16.7264 15.8765 16.9659V19.7479C15.8765 19.9874 16.0706 20.1816 16.3101 20.1816H19.0921C19.3316 20.1816 19.5258 19.9874 19.5258 19.7479V16.9659C19.5258 16.7264 19.3316 16.5322 19.0921 16.5322ZM18.6584 19.3143H16.7438V17.3996H18.6584V19.3143Z" fill="#352E7D"/>
<path d="M4.34188 6.81335C4.48729 7.16783 5.00792 7.1602 5.14643 6.80472C5.29111 6.43345 4.87586 6.07398 4.52901 6.27035C4.34123 6.37668 4.25878 6.61373 4.34188 6.81335Z" fill="#352E7D"/>
</g>
<defs>
<clipPath id="clip0">
<rect width="22" height="22" fill="white"/>
</clipPath>
</defs>
</svg>
