<svg width="1920" height="825" viewBox="0 0 1920 825" fill="none" xmlns="http://www.w3.org/2000/svg">
<mask id="mask0" mask-type="alpha" maskUnits="userSpaceOnUse" x="-46" y="0" width="1983" height="817">
<rect x="-46" width="1983" height="817" fill="#A799E1"/>
</mask>
<g mask="url(#mask0)">
<g opacity="0.08">
<path d="M1195.87 36.4676C1188.04 30.4565 1186.2 18.7009 1191.78 10.266C1197.36 1.83112 1208.27 -0.144309 1216.1 5.86678C1223.93 11.8779 1225.77 23.6334 1220.19 32.0683C1214.61 40.5033 1203.7 42.4787 1195.87 36.4676ZM1211.8 12.3747C1207.3 8.9208 1201.03 10.06 1197.82 14.9076C1194.62 19.7553 1195.67 26.5057 1200.17 29.9596C1204.67 33.4136 1210.94 32.2744 1214.15 27.4267C1217.34 22.5791 1216.3 15.8287 1211.8 12.3747Z" fill="white"/>
<path d="M1168.19 19.2948L1163.09 13.4776L1227.53 -51.9536L1232.63 -46.1364L1168.19 19.2948Z" fill="white"/>
<path d="M1405.92 744.419C1397.14 735.257 1396.91 720.12 1405.41 710.667C1413.9 701.214 1427.96 700.96 1436.74 710.122C1445.51 719.272 1445.74 734.421 1437.25 743.874C1428.74 753.339 1414.69 753.569 1405.92 744.419ZM1430.18 717.43C1425.14 712.17 1417.06 712.303 1412.18 717.745C1407.3 723.174 1407.43 731.876 1412.47 737.135C1417.51 742.395 1425.59 742.25 1430.47 736.82C1435.36 731.379 1435.22 722.689 1430.18 717.43Z" fill="white"/>
<path d="M1413.11 841.942C1404.34 832.779 1404.11 817.643 1412.61 808.19C1421.11 798.737 1435.16 798.482 1443.94 807.644C1452.71 816.794 1452.95 831.943 1444.44 841.396C1435.95 850.849 1421.89 851.104 1413.11 841.942ZM1437.38 814.952C1432.34 809.693 1424.26 809.838 1419.38 815.267C1414.5 820.697 1414.63 829.398 1419.67 834.658C1424.71 839.918 1432.79 839.772 1437.67 834.343C1442.54 828.901 1442.42 820.2 1437.38 814.952Z" fill="white"/>
<path d="M1381.39 814.71L1376.03 806.36L1468.51 737.378L1473.87 745.728L1381.39 814.71Z" fill="white"/>
<path d="M450.672 717.975C442.482 717.975 435.834 710.8 435.834 701.99C435.834 693.179 442.494 686.005 450.672 686.005C458.851 686.005 465.51 693.179 465.51 701.99C465.51 710.8 458.851 717.975 450.672 717.975ZM450.672 692.803C445.97 692.803 442.145 696.924 442.145 701.99C442.145 707.056 445.97 711.176 450.672 711.176C455.374 711.176 459.199 707.056 459.199 701.99C459.199 696.924 455.363 692.803 450.672 692.803Z" fill="white"/>
<path d="M496.311 761.301C488.121 761.301 481.473 754.126 481.473 745.316C481.473 736.493 488.132 729.331 496.311 729.331C504.489 729.331 511.149 736.505 511.149 745.316C511.16 754.126 504.5 761.301 496.311 761.301ZM496.311 736.129C491.608 736.129 487.784 740.25 487.784 745.316C487.784 750.382 491.608 754.502 496.311 754.502C501.013 754.502 504.838 750.382 504.838 745.316C504.838 740.25 501.013 736.129 496.311 736.129Z" fill="white"/>
<path d="M469.268 764.112L463.069 762.792L477.739 683.169L483.937 684.49L469.268 764.112Z" fill="white"/>
<path d="M676.866 40.3821C665.201 42.612 654.041 34.2013 651.971 21.6338C649.901 9.07836 657.709 -2.95594 669.374 -5.18586C681.029 -7.41578 692.2 0.994887 694.27 13.5624C696.328 26.13 688.521 38.1522 676.866 40.3821ZM670.972 4.52157C664.278 5.79408 659.79 12.702 660.971 19.925C662.152 27.1359 668.576 31.9714 675.269 30.6868C681.963 29.4143 686.451 22.4943 685.259 15.2834C684.077 8.06036 677.665 3.23694 670.972 4.52157Z" fill="white"/>
<path d="M752.048 89.6826C740.382 91.9126 729.223 83.5019 727.153 70.9343C725.083 58.3668 732.89 46.3446 744.556 44.1147C756.21 41.8848 767.381 50.2954 769.451 62.863C771.51 75.4305 763.703 87.4648 752.048 89.6826ZM746.153 53.8221C739.46 55.0946 734.971 62.0146 736.164 69.2255C737.345 76.4364 743.768 81.272 750.462 79.9873C757.155 78.7148 761.644 71.7948 760.452 64.5839C759.259 57.373 752.847 52.5375 746.153 53.8221Z" fill="white"/>
<path d="M714.17 101.05L705.035 100.844L707.285 -16.5779L716.42 -16.3719L714.17 101.05Z" fill="white"/>
<path d="M862.708 148.775C852.561 148.775 844.293 139.88 844.293 128.936C844.293 118.005 852.55 109.097 862.708 109.097C872.856 109.097 881.124 117.993 881.124 128.936C881.124 139.88 872.867 148.775 862.708 148.775ZM862.708 121.265C858.782 121.265 855.587 124.707 855.587 128.936C855.587 133.166 858.782 136.608 862.708 136.608C866.635 136.608 869.829 133.166 869.829 128.936C869.841 124.707 866.646 121.265 862.708 121.265Z" fill="white"/>
<path d="M1443.18 435.599C1433.04 435.599 1424.78 426.704 1424.78 415.772C1424.78 404.841 1433.04 395.933 1443.18 395.933C1453.33 395.933 1461.6 404.829 1461.6 415.772C1461.6 426.704 1453.34 435.599 1443.18 435.599ZM1443.18 408.089C1439.26 408.089 1436.06 411.531 1436.06 415.76C1436.06 419.99 1439.26 423.431 1443.18 423.431C1447.11 423.431 1450.31 419.99 1450.31 415.76C1450.32 411.531 1447.12 408.089 1443.18 408.089Z" fill="white"/>
<path d="M393.728 263.604C389.161 263.604 385.438 259.605 385.438 254.673C385.438 249.752 389.15 245.741 393.728 245.741C398.296 245.741 402.019 249.74 402.019 254.673C402.019 259.593 398.307 263.604 393.728 263.604ZM393.728 251.219C391.962 251.219 390.522 252.77 390.522 254.673C390.522 256.575 391.962 258.126 393.728 258.126C395.495 258.126 396.935 256.575 396.935 254.673C396.935 252.77 395.506 251.219 393.728 251.219Z" fill="white"/>
<path d="M1034.95 239.912C1017.39 239.912 1003.1 224.52 1003.1 205.602C1003.1 186.684 1017.39 171.293 1034.95 171.293C1052.51 171.293 1066.8 186.684 1066.8 205.602C1066.8 224.52 1052.51 239.912 1034.95 239.912ZM1034.95 192.332C1028.16 192.332 1022.63 198.294 1022.63 205.614C1022.63 212.934 1028.16 218.885 1034.95 218.885C1041.75 218.885 1047.28 212.934 1047.28 205.614C1047.27 198.282 1041.75 192.332 1034.95 192.332Z" fill="#FFBC00"/>
<path d="M434.666 348.911C439.636 348.911 443.665 344.57 443.665 339.216C443.665 333.861 439.636 329.52 434.666 329.52C429.695 329.52 425.666 333.861 425.666 339.216C425.666 344.57 429.695 348.911 434.666 348.911Z" fill="#FFBC00"/>
<path d="M1457.25 53.2041C1462.84 53.2041 1467.37 48.3208 1467.37 42.2969C1467.37 36.273 1462.84 31.3896 1457.25 31.3896C1451.66 31.3896 1447.12 36.273 1447.12 42.2969C1447.12 48.3208 1451.66 53.2041 1457.25 53.2041Z" fill="#FFBC00"/>
<path d="M1579.87 562.208C1584.84 562.208 1588.87 557.867 1588.87 552.512C1588.87 547.158 1584.84 542.817 1579.87 542.817C1574.9 542.817 1570.87 547.158 1570.87 552.512C1570.87 557.867 1574.9 562.208 1579.87 562.208Z" fill="#FFBC00"/>
<path d="M1055.64 19.2705C1061.85 19.2705 1066.89 13.8446 1066.89 7.15135C1066.89 0.458141 1061.85 -4.96777 1055.64 -4.96777C1049.43 -4.96777 1044.39 0.458141 1044.39 7.15135C1044.39 13.8446 1049.43 19.2705 1055.64 19.2705Z" fill="#FFBC00"/>
<path d="M336.794 101.681C342.386 101.681 346.919 96.7973 346.919 90.7734C346.919 84.7495 342.386 79.8662 336.794 79.8662C331.203 79.8662 326.67 84.7495 326.67 90.7734C326.67 96.7973 331.203 101.681 336.794 101.681Z" fill="#FFBC00"/>
<path d="M1438.15 246.431C1434.97 246.431 1431.89 245.171 1429.2 244.08C1424.87 242.311 1422.09 241.329 1419.69 243.268C1418.21 244.468 1416.09 244.153 1414.97 242.541C1413.86 240.929 1414.15 238.651 1415.64 237.451C1421.12 233.016 1426.93 235.379 1431.59 237.281C1435.92 239.039 1438.69 240.032 1441.09 238.093C1443.49 236.154 1443.39 233.016 1443.03 228.035C1442.63 222.678 1442.15 216.025 1447.63 211.589C1453.12 207.153 1458.91 209.517 1463.57 211.407C1467.9 213.164 1470.68 214.158 1473.07 212.219C1475.47 210.28 1475.37 207.129 1475.01 202.16C1474.61 196.804 1474.13 190.15 1479.62 185.715C1485.1 181.279 1490.9 183.642 1495.56 185.545C1499.89 187.314 1502.67 188.296 1505.07 186.357C1507.46 184.418 1507.36 181.279 1507 176.298C1506.61 170.953 1506.12 164.288 1511.61 159.852C1517.09 155.417 1522.9 157.78 1527.55 159.683C1531.89 161.452 1534.66 162.434 1537.06 160.495C1539.46 158.556 1539.36 155.405 1539 150.436C1538.6 145.079 1538.12 138.426 1543.61 133.99C1549.09 129.555 1554.89 131.918 1559.55 133.808C1563.88 135.578 1566.67 136.559 1569.05 134.62C1570.54 133.42 1572.67 133.736 1573.78 135.347C1574.89 136.959 1574.6 139.238 1573.1 140.437C1567.63 144.873 1561.82 142.51 1557.16 140.619C1552.83 138.85 1550.05 137.88 1547.66 139.807C1545.26 141.746 1545.36 144.897 1545.72 149.866C1546.12 155.223 1546.6 161.876 1541.11 166.312C1535.63 170.747 1529.83 168.384 1525.17 166.481C1520.84 164.712 1518.06 163.73 1515.66 165.669C1513.27 167.609 1513.37 170.747 1513.73 175.728C1514.12 181.085 1514.61 187.738 1509.12 192.174C1503.64 196.61 1497.83 194.246 1493.18 192.344C1488.85 190.574 1486.07 189.593 1483.67 191.532C1481.27 193.471 1481.38 196.61 1481.74 201.591C1482.13 206.947 1482.61 213.601 1477.12 218.036C1471.64 222.472 1465.84 220.109 1461.18 218.206C1456.85 216.437 1454.07 215.455 1451.68 217.394C1449.28 219.333 1449.38 222.472 1449.75 227.453C1450.15 232.809 1450.63 239.463 1445.14 243.899C1442.83 245.765 1440.47 246.431 1438.15 246.431Z" fill="#FFBC00"/>
<path d="M1636.48 707.504C1636.09 707.504 1635.69 707.431 1635.29 707.261C1628.88 704.644 1627.63 698.099 1626.62 692.84C1625.69 687.956 1624.97 684.902 1622.16 683.75C1619.36 682.599 1616.94 684.38 1613.24 687.374C1609.26 690.585 1604.29 694.597 1597.88 691.979C1591.46 689.361 1590.22 682.817 1589.2 677.57C1588.27 672.686 1587.55 669.631 1584.75 668.48C1581.96 667.341 1579.54 669.11 1575.83 672.104C1571.83 675.327 1566.87 679.327 1560.46 676.709C1554.05 674.091 1552.8 667.547 1551.79 662.299C1550.85 657.415 1550.13 654.361 1547.34 653.21C1544.54 652.071 1542.13 653.84 1538.42 656.834C1534.44 660.045 1529.47 664.057 1523.07 661.439C1516.65 658.821 1515.41 652.277 1514.39 647.029C1513.46 642.145 1512.74 639.091 1509.94 637.94C1507.15 636.801 1504.73 638.57 1501.02 641.564C1497.04 644.787 1492.06 648.787 1485.66 646.169C1479.25 643.551 1478 637.007 1476.99 631.759C1476.06 626.875 1475.34 623.821 1472.55 622.67C1470.8 621.955 1469.92 619.858 1470.59 617.98C1471.25 616.101 1473.2 615.156 1474.94 615.871C1481.35 618.489 1482.6 625.033 1483.61 630.281C1484.55 635.165 1485.27 638.219 1488.07 639.37C1490.87 640.509 1493.28 638.74 1496.99 635.746C1500.97 632.523 1505.95 628.523 1512.35 631.141C1518.76 633.759 1520.01 640.303 1521.02 645.563C1521.95 650.447 1522.67 653.501 1525.47 654.652C1528.28 655.791 1530.69 654.022 1534.4 651.029C1538.39 647.805 1543.34 643.806 1549.75 646.423C1556.16 649.041 1557.41 655.585 1558.42 660.833C1559.36 665.717 1560.08 668.771 1562.87 669.922C1565.67 671.074 1568.09 669.292 1571.79 666.299C1575.77 663.075 1580.74 659.076 1587.14 661.693C1593.56 664.311 1594.81 670.856 1595.82 676.115C1596.75 680.999 1597.47 684.053 1600.27 685.205C1603.07 686.356 1605.49 684.574 1609.19 681.581C1613.18 678.369 1618.15 674.358 1624.56 676.976C1630.97 679.593 1632.22 686.138 1633.23 691.397C1634.17 696.281 1634.89 699.335 1637.69 700.487C1639.43 701.202 1640.31 703.298 1639.65 705.177C1639.13 706.607 1637.85 707.504 1636.48 707.504Z" fill="#FFBC00"/>
<path d="M912.207 48.7926C910.722 48.7926 909.361 47.7261 908.956 46.1143C907.538 40.5153 912.331 36.6856 916.178 33.6073C917.685 32.3954 920.835 29.8868 920.914 28.8445C920.363 27.9962 916.459 27.5357 914.592 27.3175C909.822 26.76 903.893 26.0693 902.487 20.4702C901.081 14.8712 905.862 11.0415 909.721 7.96326C911.228 6.75134 914.378 4.24268 914.457 3.21255C913.905 2.36422 910.002 1.9037 908.134 1.68555C903.365 1.12807 897.436 0.437271 896.03 -5.16177C894.624 -10.7608 899.405 -14.5905 903.263 -17.6687C904.771 -18.8806 907.921 -21.3893 907.999 -22.4194C907.437 -23.2677 903.545 -23.7162 901.677 -23.9343C896.907 -24.4918 890.979 -25.1826 889.573 -30.7695C888.167 -36.3685 892.948 -40.1982 896.806 -43.2643C898.314 -44.4763 901.464 -46.9849 901.542 -48.015C900.98 -48.8634 897.087 -49.3118 895.22 -49.5299C890.45 -50.0874 884.522 -50.7782 883.116 -56.3772C881.709 -61.9763 886.49 -65.8059 890.349 -68.8842C891.856 -70.0961 895.006 -72.6048 895.085 -73.6349C894.601 -75.574 895.659 -77.5736 897.459 -78.0947C899.259 -78.6159 901.115 -77.4767 901.599 -75.5376C903.005 -69.9385 898.224 -66.1089 894.365 -63.0306C892.858 -61.8187 889.708 -59.3101 889.629 -58.2799C890.191 -57.4316 894.084 -56.9832 895.951 -56.7651C900.721 -56.2076 906.65 -55.5168 908.056 -49.9177C909.462 -44.3187 904.681 -40.489 900.822 -37.4229C899.315 -36.211 896.165 -33.7023 896.086 -32.6722C896.649 -31.8239 900.541 -31.3755 902.408 -31.1573C907.178 -30.5998 913.107 -29.909 914.513 -24.3221C915.919 -18.7231 911.138 -14.8934 907.279 -11.8152C905.772 -10.6032 902.622 -8.09459 902.543 -7.06447C903.095 -6.21613 906.998 -5.75561 908.866 -5.53746C913.636 -4.97998 919.564 -4.2892 920.97 1.30984C922.376 6.90889 917.595 10.7385 913.737 13.8168C912.229 15.0287 909.079 17.5374 909.001 18.5675C909.552 19.4158 913.456 19.8764 915.323 20.0945C920.093 20.652 926.021 21.3428 927.427 26.9418C928.845 32.5409 924.052 36.3705 920.194 39.4488C918.686 40.6607 915.537 43.1693 915.458 44.2116C915.942 46.1506 914.884 48.1503 913.084 48.6715C912.803 48.7442 912.499 48.7926 912.207 48.7926Z" fill="#FFBC00"/>
<path d="M1572.72 193.325L1576.11 218.897L1599.15 226.047L1577.62 237.415L1578.43 263.229L1561.74 244.686L1539.2 253.485L1550.41 230.664L1535.68 210.292L1559.3 214.728L1572.72 193.325Z" fill="#99005F"/>
<path d="M1651.49 445.403L1654.11 465.254L1672 470.805L1655.28 479.628L1655.91 499.673L1642.95 485.275L1625.46 492.11L1634.17 474.38L1622.72 458.565L1641.06 462.019L1651.49 445.403Z" fill="#99005F"/>
<path d="M492.915 -16.4688L502.804 -5.59789L516.056 -10.8697L509.52 2.63101L518.272 14.5805L504.345 12.0476L496.493 24.7121L494.423 9.64798L480.822 5.52748L493.478 -1.25924L492.915 -16.4688Z" fill="#99005F"/>
<path d="M269.128 478.428L281.638 493.274L299.345 487.069L290.097 504.472L301.054 520.687L282.83 516.591L271.896 532.831L269.882 512.895L252.164 506.714L269.151 498.485L269.128 478.428Z" fill="#99005F"/>
<path d="M1611.93 736.578L1609.79 751.339L1621.41 759.483L1607.72 761.846L1604.12 776.268L1597.8 762.985L1583.96 763.749L1593.74 753.169L1588.78 739.22L1601.14 745.97L1611.93 736.578Z" fill="#99005F"/>
<path d="M1449.37 544.962C1454.2 544.962 1458.11 540.746 1458.11 535.545C1458.11 530.345 1454.2 526.129 1449.37 526.129C1444.54 526.129 1440.63 530.345 1440.63 535.545C1440.63 540.746 1444.54 544.962 1449.37 544.962Z" fill="#99005F"/>
<path d="M1243.03 225.126C1242.79 230.313 1238.67 234.312 1233.85 234.034C1229.04 233.767 1225.33 229.331 1225.59 224.144C1225.83 218.957 1229.95 214.958 1234.77 215.237C1239.58 215.503 1243.28 219.939 1243.03 225.126Z" fill="#99005F"/>
<path d="M959.748 -5.08902C959.5 0.0979652 955.383 4.09728 950.568 3.81854C945.753 3.55192 942.041 -0.88368 942.3 -6.07067C942.547 -11.2577 946.665 -15.257 951.479 -14.9782C956.294 -14.6995 959.995 -10.276 959.748 -5.08902Z" fill="#99005F"/>
<path d="M578.389 174.88C578.141 180.067 574.024 184.067 569.209 183.788C564.394 183.521 560.682 179.086 560.94 173.899C561.188 168.712 565.305 164.712 570.12 164.991C574.935 165.27 578.636 169.693 578.389 174.88Z" fill="#99005F"/>
<path d="M314.194 246.201C319.021 246.201 322.935 241.985 322.935 236.785C322.935 231.584 319.021 227.368 314.194 227.368C309.367 227.368 305.453 231.584 305.453 236.785C305.453 241.985 309.367 246.201 314.194 246.201Z" fill="#99005F"/>
<path d="M303.9 737.208C303.653 742.395 299.535 746.394 294.721 746.115C289.906 745.849 286.193 741.413 286.452 736.226C286.7 731.039 290.817 727.04 295.632 727.319C300.447 727.597 304.148 732.021 303.9 737.208Z" fill="#99005F"/>
<path d="M1367.45 600.88C1363.79 600.88 1360.61 598.177 1358.14 596.069C1355.49 593.815 1353.67 592.384 1352.39 592.99C1350.68 593.802 1348.69 592.978 1347.93 591.148C1347.18 589.318 1347.95 587.161 1349.66 586.349C1354.75 583.913 1359.14 587.646 1362.33 590.373C1364.98 592.627 1366.81 594.057 1368.08 593.451C1369.36 592.833 1369.6 590.421 1369.83 586.785C1370.1 582.398 1370.46 576.399 1375.56 573.951C1380.67 571.515 1385.05 575.248 1388.24 577.963C1390.89 580.217 1392.72 581.647 1394 581.041C1395.28 580.423 1395.52 578.011 1395.74 574.375C1396.01 569.988 1396.37 563.989 1401.48 561.541C1406.59 559.093 1410.97 562.826 1414.17 565.553C1416.82 567.807 1418.65 569.237 1419.93 568.631C1421.21 568.013 1421.45 565.589 1421.68 561.965C1421.95 557.578 1422.32 551.579 1427.41 549.131C1429.12 548.319 1431.11 549.143 1431.87 550.973C1432.62 552.803 1431.86 554.961 1430.16 555.773C1428.87 556.391 1428.64 558.814 1428.41 562.438C1428.14 566.825 1427.77 572.824 1422.68 575.272C1417.57 577.708 1413.19 573.975 1409.99 571.261C1407.34 569.007 1405.51 567.577 1404.23 568.183C1402.94 568.801 1402.71 571.212 1402.48 574.848C1402.21 579.235 1401.85 585.234 1396.75 587.682C1391.64 590.118 1387.26 586.385 1384.07 583.659C1381.42 581.405 1379.59 579.974 1378.31 580.58C1377.03 581.198 1376.79 583.61 1376.56 587.246C1376.29 591.633 1375.93 597.632 1370.83 600.08C1369.66 600.65 1368.53 600.88 1367.45 600.88Z" fill="white"/>
<path d="M1260.11 152.666C1257.7 152.666 1255.32 151.951 1253.38 149.636C1249.64 145.164 1251.57 139.517 1252.99 135.396C1254.16 131.991 1254.86 129.664 1253.91 128.549C1252.98 127.434 1250.76 127.931 1247.49 128.84C1243.54 129.93 1238.13 131.421 1234.38 126.949C1230.64 122.477 1232.57 116.83 1233.99 112.709C1235.16 109.304 1235.86 106.977 1234.91 105.862C1233.98 104.747 1231.76 105.244 1228.5 106.153C1224.55 107.243 1219.14 108.734 1215.39 104.262C1211.66 99.7901 1213.59 94.1547 1215 90.0342C1216.17 86.6288 1216.87 84.3019 1215.92 83.1869C1214.67 81.6962 1214.78 79.3936 1216.17 78.0484C1217.55 76.7032 1219.69 76.8244 1220.94 78.315C1224.67 82.787 1222.75 88.4224 1221.33 92.5429C1220.16 95.9484 1219.46 98.2631 1220.41 99.3902C1221.34 100.517 1223.56 100.008 1226.82 99.0993C1230.77 98.0086 1236.18 96.518 1239.93 100.99C1243.67 105.462 1241.74 111.109 1240.32 115.23C1239.15 118.635 1238.45 120.962 1239.4 122.077C1240.33 123.192 1242.55 122.695 1245.81 121.786C1249.76 120.696 1255.17 119.205 1258.92 123.677C1262.66 128.149 1260.73 133.796 1259.31 137.917C1258.14 141.322 1257.44 143.649 1258.39 144.764C1259.32 145.891 1261.54 145.382 1264.81 144.486C1268.76 143.395 1274.17 141.904 1277.92 146.376C1279.17 147.867 1279.05 150.169 1277.67 151.515C1276.29 152.86 1274.15 152.739 1272.9 151.248C1271.95 150.121 1269.75 150.63 1266.48 151.527C1264.58 152.048 1262.34 152.666 1260.11 152.666Z" fill="white"/>
<path d="M1336.05 219.26L1225.8 167.185L1243.08 128.428L1285.01 34.3589L1386.61 82.3385L1361.75 149.66L1336.05 219.26Z" fill="#FFBC00"/>
<path d="M1353.38 89.8159C1351.6 88.9796 1350.78 86.7376 1351.57 84.8107L1356.71 72.1704C1362.03 59.0818 1356.94 43.5572 1344.93 37.5097C1332.54 31.2805 1317.85 37.3037 1312.4 50.7075L1307.08 63.7961C1306.3 65.7109 1304.22 66.5956 1302.43 65.7473C1300.65 64.9111 1299.83 62.669 1300.62 60.7421L1305.74 48.1746C1312.63 31.2442 1330.83 22.9304 1346.68 30.0322C1362.89 37.3037 1370.39 57.5184 1363.37 74.776L1358.05 87.8647C1357.25 89.7795 1355.17 90.6521 1353.38 89.8159Z" fill="#FCAB0A"/>
<path d="M1292.83 130.573C1288.16 131.457 1283.7 128.1 1282.88 123.071C1282.06 118.041 1285.17 113.23 1289.84 112.345C1294.51 111.461 1298.98 114.818 1299.8 119.847C1300.62 124.877 1297.5 129.676 1292.83 130.573ZM1290.47 116.223C1287.79 116.732 1285.99 119.496 1286.48 122.38C1286.95 125.264 1289.51 127.203 1292.19 126.682C1294.87 126.173 1296.67 123.41 1296.19 120.526C1295.72 117.641 1293.15 115.714 1290.47 116.223Z" fill="white"/>
<path d="M1322.9 150.302C1318.23 151.187 1313.77 147.83 1312.95 142.801C1312.13 137.771 1315.24 132.96 1319.91 132.075C1324.58 131.191 1329.05 134.548 1329.87 139.577C1330.7 144.594 1327.57 149.406 1322.9 150.302ZM1320.55 135.953C1317.87 136.462 1316.07 139.226 1316.56 142.11C1317.03 144.994 1319.6 146.933 1322.27 146.412C1324.95 145.903 1326.75 143.14 1326.27 140.256C1325.79 137.371 1323.23 135.432 1320.55 135.953Z" fill="white"/>
<path d="M1307.75 154.847L1304.09 154.762L1304.99 107.789L1308.65 107.873L1307.75 154.847Z" fill="white"/>
<path d="M1390.79 633.589L1319.62 664.639L1310.89 638.885L1289.7 576.363L1355.28 547.75L1372.74 589.96L1390.79 633.589Z" fill="#FFBC00"/>
<path d="M1343.65 567.419C1342.5 567.916 1341.18 567.322 1340.72 566.086L1337.65 557.929C1334.48 549.482 1325.63 545.071 1317.72 548.283C1309.56 551.603 1305.57 561.517 1308.82 570.17L1311.99 578.617C1312.45 579.853 1311.9 581.271 1310.75 581.768C1309.61 582.265 1308.29 581.671 1307.83 580.435L1304.78 572.327C1300.67 561.396 1305.25 548.743 1315.32 544.102C1325.63 539.363 1337.53 544.683 1341.71 555.821L1344.89 564.268C1345.36 565.504 1344.81 566.922 1343.65 567.419Z" fill="#FCAB0A"/>
<path d="M508.775 615.665L381.273 671.28L365.625 625.13L327.658 513.125L445.148 461.873L476.433 537.485L508.775 615.665Z" fill="#FFBC00"/>
<path d="M424.302 497.116C422.244 498.013 419.892 496.946 419.06 494.716L413.57 480.101C407.878 464.964 392.027 457.05 377.853 462.819C363.251 468.757 356.085 486.512 361.912 502.024L367.605 517.161C368.437 519.379 367.447 521.912 365.377 522.809C363.319 523.705 360.967 522.639 360.135 520.421L354.668 505.89C347.311 486.306 355.523 463.631 373.556 455.329C392.005 446.834 413.334 456.371 420.826 476.319L426.518 491.456C427.362 493.686 426.372 496.219 424.302 497.116Z" fill="#FCAB0A"/>
<path d="M399.633 567.128C392.839 568.425 386.336 563.529 385.133 556.209C383.929 548.889 388.474 541.884 395.269 540.587C402.063 539.29 408.565 544.187 409.769 551.506C410.973 558.826 406.428 565.831 399.633 567.128ZM396.202 546.235C392.299 546.974 389.689 550.997 390.375 555.203C391.061 559.408 394.807 562.22 398.7 561.468C402.603 560.729 405.213 556.693 404.516 552.5C403.841 548.307 400.106 545.495 396.202 546.235Z" fill="white"/>
<path d="M443.428 595.85C436.634 597.147 430.131 592.251 428.928 584.931C427.724 577.611 432.269 570.606 439.063 569.31C445.858 568.013 452.36 572.909 453.564 580.229C454.768 587.537 450.212 594.554 443.428 595.85ZM439.986 574.957C436.082 575.696 433.472 579.732 434.17 583.925C434.856 588.131 438.602 590.942 442.495 590.191C446.398 589.452 449.008 585.416 448.311 581.223C447.624 577.029 443.89 574.218 439.986 574.957Z" fill="white"/>
<path d="M421.368 602.467L416.047 602.346L417.352 533.946L422.673 534.067L421.368 602.467Z" fill="white"/>
<path d="M1510.12 456.771C1515.09 456.771 1519.12 452.431 1519.12 447.076C1519.12 441.721 1515.09 437.381 1510.12 437.381C1505.15 437.381 1501.12 441.721 1501.12 447.076C1501.12 452.431 1505.15 456.771 1510.12 456.771Z" fill="#FFBC00"/>
</g>
</g>
</svg>
