<svg width="12" height="11" viewBox="0 0 12 11" fill="none" xmlns="http://www.w3.org/2000/svg">
<path d="M11.9686 4.21931C11.8896 3.99658 11.6741 3.83888 11.4201 3.81782L7.95607 3.52954L6.58706 0.591498C6.48599 0.375643 6.256 0.236328 6.00002 0.236328C5.74403 0.236328 5.51395 0.375643 5.41352 0.591498L4.04451 3.52954L0.579912 3.81782C0.32594 3.8393 0.110879 3.997 0.0314104 4.21931C-0.047601 4.44205 0.0253678 4.68635 0.217449 4.84078L2.83599 6.94552L2.06392 10.0627C2.00743 10.2919 2.10447 10.5289 2.31194 10.6663C2.42345 10.7406 2.55446 10.7777 2.68593 10.7777C2.79891 10.7777 2.91198 10.7502 3.01297 10.6948L6.00002 9.05757L8.98652 10.6948C9.20561 10.8148 9.48109 10.8038 9.6881 10.6663C9.89556 10.5289 9.99261 10.2919 9.93612 10.0627L9.16404 6.94552L11.7826 4.84078C11.9746 4.68635 12.0476 4.44255 11.9686 4.21931Z" fill="#FFA902"/>
</svg>
