<svg width="12" height="11" viewBox="0 0 12 11" fill="none" xmlns="http://www.w3.org/2000/svg">
<path d="M2.68586 10.7774C2.55438 10.7774 2.42382 10.7398 2.3124 10.6659C2.10485 10.528 2.00789 10.291 2.06438 10.0623L2.83637 6.9451L0.218262 4.84041C0.0258136 4.68641 -0.0477051 4.44252 0.0313069 4.21936C0.110319 3.99663 0.32529 3.83893 0.579813 3.81736L4.04389 3.52908L5.41346 0.591096C5.51445 0.37524 5.74444 0.23584 5.99997 0.23584C6.2555 0.23584 6.48548 0.37524 6.58647 0.590593L7.95604 3.52908L11.4196 3.81736C11.6746 3.83843 11.8896 3.99663 11.9686 4.21936C12.0476 4.4421 11.9746 4.68641 11.7821 4.84041L9.16402 6.94468L9.93601 10.0618C9.99259 10.291 9.89554 10.528 9.68808 10.6655C9.48107 10.803 9.20504 10.8136 8.98704 10.6935L5.99997 9.05716L3.01289 10.6944C2.9119 10.7494 2.79938 10.7774 2.68586 10.7774ZM5.99997 8.35227C6.11349 8.35227 6.22592 8.38022 6.327 8.43519L9.14607 9.98076L8.41748 7.03859C8.36548 6.82919 8.44302 6.61057 8.61954 6.4689L11.0916 4.48155L7.821 4.20929C7.58552 4.18957 7.383 4.05386 7.29098 3.85496L5.99997 1.0824L4.70739 3.85538C4.61639 4.05294 4.41387 4.18865 4.17894 4.20837L0.907855 4.48062L3.37984 6.46798C3.55691 6.61006 3.63437 6.82827 3.5819 7.03817L2.85386 9.98026L5.67293 8.43519C5.77392 8.38022 5.88644 8.35227 5.99997 8.35227ZM4.01743 3.58589C4.01743 3.58589 4.01743 3.5864 4.01688 3.58682L4.01743 3.58589ZM7.98149 3.58455L7.98204 3.58547C7.98204 3.58497 7.98204 3.58497 7.98149 3.58455Z" fill="#FFA902"/>
</svg>
