<svg width="42" height="42" fill="none" xmlns="http://www.w3.org/2000/svg"><path d="M41.626 17.115a1.31 1.31 0 00-2.486-.297 2.626 2.626 0 01-2.389 1.557c-1.174.003-2.167-.79-2.497-1.878a1.314 1.314 0 00-1.557-.9 5.222 5.222 0 01-1.197.153 5.267 5.267 0 01-5.25-5.25c0-.39.056-.782.154-1.196a1.314 1.314 0 00-.9-1.558c-1.089-.33-1.882-1.321-1.879-2.496a2.624 2.624 0 011.557-2.389 1.31 1.31 0 00.764-1.352A1.311 1.311 0 0024.884.374 21.033 21.033 0 0021 0C9.416.003.003 9.416 0 21c.003 11.584 9.416 20.997 21 21 11.584-.003 20.997-9.416 21-21 0-1.336-.14-2.633-.374-3.885zm-7.639 16.872c-3.332 3.33-7.918 5.388-12.987 5.388s-9.655-2.058-12.987-5.388C4.683 30.655 2.625 26.07 2.625 21s2.058-9.655 5.388-12.987C11.345 4.683 15.93 2.625 21 2.625c.236 0 .467.025.702.035A5.196 5.196 0 0021 5.25c.003 1.96 1.09 3.64 2.674 4.536a6.613 6.613 0 00-.049.714 7.883 7.883 0 007.875 7.875c.247 0 .48-.024.714-.049.896 1.583 2.575 2.671 4.536 2.674a5.197 5.197 0 002.59-.702c.01.233.035.466.035.702 0 5.069-2.058 9.655-5.388 12.987z" fill="#373737"/><path d="M15.75 13.125a2.625 2.625 0 100-5.25 2.625 2.625 0 000 5.25zm-5.25 10.5a2.625 2.625 0 100-5.25 2.625 2.625 0 000 5.25zm13.125 10.5a2.625 2.625 0 100-5.25 2.625 2.625 0 000 5.25zm-1.312-10.5a1.312 1.312 0 100-2.625 1.312 1.312 0 000 2.625zm10.5 5.25a1.312 1.312 0 100-2.625 1.312 1.312 0 000 2.625zM14.438 31.5a1.312 1.312 0 100-2.625 1.312 1.312 0 000 2.625z" fill="#373737"/></svg>