<svg width="21" height="16" fill="none" xmlns="http://www.w3.org/2000/svg"><g clip-path="url(#clip0)"><path d="M17.777 1.425A17.53 17.53 0 0013.503.12a.065.065 0 00-.069.032c-.184.323-.389.744-.532 1.075a16.252 16.252 0 00-4.801 0 10.81 10.81 0 00-.54-1.075.068.068 0 00-.07-.032c-1.5.254-2.934.699-4.274 1.304a.06.06 0 00-.028.024C.467 5.449-.279 9.35.087 13.205a.07.07 0 00.027.048 17.532 17.532 0 005.244 2.607.069.069 0 00.074-.024c.403-.542.764-1.114 1.072-1.716a.065.065 0 00-.036-.09 11.56 11.56 0 01-1.638-.769.066.066 0 01-.007-.11c.11-.08.22-.165.325-.25a.066.066 0 01.068-.01c3.437 1.544 7.158 1.544 10.554 0a.066.066 0 01.069.009c.105.085.215.17.326.252a.066.066 0 01-.006.11c-.523.3-1.067.554-1.639.766a.066.066 0 00-.035.092c.315.601.675 1.173 1.072 1.716a.067.067 0 00.073.024 17.476 17.476 0 005.252-2.607.066.066 0 00.028-.047c.437-4.456-.734-8.326-3.105-11.757a.053.053 0 00-.028-.024zm-10.76 9.433c-1.034 0-1.887-.934-1.887-2.081 0-1.148.836-2.082 1.888-2.082 1.059 0 1.903.942 1.887 2.082 0 1.147-.836 2.081-1.887 2.081zm6.978 0c-1.034 0-1.887-.934-1.887-2.081 0-1.148.836-2.082 1.887-2.082 1.06 0 1.904.942 1.888 2.082 0 1.147-.828 2.081-1.888 2.081z" fill="#6F6F79"/></g><defs><clipPath id="clip0"><path fill="#fff" d="M0 0h21v16H0z"/></clipPath></defs></svg>