<svg width="30" height="23" fill="none" xmlns="http://www.w3.org/2000/svg"><g clip-path="url(#clip0)"><path d="M25.396 2.048A24.928 24.928 0 0019.29.174a.093.093 0 00-.098.046 16.97 16.97 0 00-.76 1.545 23.074 23.074 0 00-6.86 0 15.577 15.577 0 00-.77-1.545.097.097 0 00-.098-.046 24.858 24.858 0 00-6.107 1.874.087.087 0 00-.04.034c-3.89 5.75-4.955 11.36-4.432 16.9a.102.102 0 00.039.07 24.98 24.98 0 007.491 3.747.097.097 0 00.105-.034 17.566 17.566 0 001.533-2.467.094.094 0 00-.052-.131 16.459 16.459 0 01-2.34-1.104.095.095 0 01-.01-.158c.157-.116.315-.238.465-.36a.094.094 0 01.097-.013c4.91 2.218 10.225 2.218 15.077 0a.093.093 0 01.098.012c.15.122.307.245.466.361.054.04.05.124-.009.158-.747.432-1.524.798-2.34 1.103a.094.094 0 00-.052.132c.45.863.965 1.686 1.532 2.466a.096.096 0 00.105.035 24.897 24.897 0 007.503-3.748.095.095 0 00.039-.068c.625-6.405-1.048-11.968-4.436-16.9a.076.076 0 00-.039-.035zm-15.371 13.56c-1.478 0-2.696-1.342-2.696-2.992s1.194-2.992 2.696-2.992c1.514 0 2.72 1.354 2.696 2.992 0 1.65-1.194 2.993-2.696 2.993zm9.968 0c-1.478 0-2.696-1.342-2.696-2.992s1.195-2.992 2.696-2.992c1.514 0 2.72 1.354 2.697 2.992 0 1.65-1.183 2.993-2.697 2.993z" fill="#fff"/></g></svg>