<svg width="31" height="40" fill="none" xmlns="http://www.w3.org/2000/svg"><path d="M15.142 22.973A5.75 5.75 0 009.4 28.716a5.75 5.75 0 005.743 5.743 5.75 5.75 0 005.743-5.743 5.75 5.75 0 00-5.743-5.743zm0 9.19a3.45 3.45 0 01-3.446-3.447 3.45 3.45 0 013.446-3.446 3.45 3.45 0 013.446 3.446 3.45 3.45 0 01-3.446 3.446z" fill="#FF7A00"/><path d="M30.284 5.477L24.807 0H5.477L0 5.477l7.07 16.79a10.288 10.288 0 00-2.266 6.45c0 5.7 4.638 10.337 10.338 10.337 5.7 0 10.338-4.637 10.338-10.338 0-2.437-.848-4.68-2.265-6.45l7.07-16.789zm-8.832 15.056a10.319 10.319 0 00-3.315-1.712L23.456 6.19l1.271-3.02 2.84 2.84-6.115 14.524zm-6.989-2.132L9.619 6.891h11.049l-4.846 11.51c-.467-.03-.89-.03-1.357 0zM8.65 4.595l-.967-2.298H22.6l-.967 2.298H8.65zM5.557 3.169l1.272 3.02 5.319 12.632a10.32 10.32 0 00-3.316 1.712L2.717 6.01l2.84-2.84zm9.585 33.588c-4.433 0-8.04-3.607-8.04-8.04 0-4.434 3.607-8.041 8.04-8.041 4.434 0 8.04 3.607 8.04 8.04 0 4.434-3.606 8.04-8.04 8.04z" fill="#FF7A00"/></svg>