<svg width="42" height="27" fill="none" xmlns="http://www.w3.org/2000/svg"><path d="M38.674 10.938a6.176 6.176 0 00-2.155-3.476 6.176 6.176 0 00-3.857-1.358h-.014l-.217-.99a6.533 6.533 0 00-2.279-3.677A6.532 6.532 0 0026.072 0H0v1.232a7.47 7.47 0 002.24 5.337v.924c0 2.201.954 4.184 2.47 5.556v.706c0 4.131 3.361 7.493 7.493 7.493h.812c.936 2.81 3.59 4.84 6.71 4.84H42l-3.326-15.15zM7.326 14.986h13.008v-2.463H9.733a5.04 5.04 0 01-4.877-3.798h13.008V6.262H7.494a5.039 5.039 0 01-4.878-3.798h23.457a4.07 4.07 0 013.952 3.178l2.885 13.143H12.203a5.039 5.039 0 01-4.877-3.799zm8.368 6.262h20.28l-2.776-12.64a3.717 3.717 0 013.07 2.859l2.669 12.159H19.724a4.612 4.612 0 01-4.03-2.378z" fill="#FF7A00"/></svg>