<svg width="42" height="42" fill="none" xmlns="http://www.w3.org/2000/svg"><path d="M19.212 27.125c-.349 0-.686-.14-.931-.389l-4.774-4.812a1.313 1.313 0 011.863-1.85l3.777 3.808 7.425-8.557a1.313 1.313 0 011.983 1.72l-8.351 9.625c-.24.275-.583.44-.947.451-.017.004-.033.004-.045.004z" fill="#FF7A00"/><path d="M21 38.5c-9.65 0-17.5-7.85-17.5-17.5S11.35 3.5 21 3.5 38.5 11.35 38.5 21 30.65 38.5 21 38.5zm0-32.375C12.798 6.125 6.125 12.798 6.125 21S12.798 35.875 21 35.875 35.875 29.202 35.875 21 29.202 6.125 21 6.125z" fill="#FF7A00"/><path d="M21 7.761a1.313 1.313 0 01-1.313-1.312V1.312a1.313 1.313 0 012.625 0V6.45c0 .724-.588 1.312-1.312 1.312zM21 42a1.313 1.313 0 01-1.313-1.313v-5.136a1.313 1.313 0 012.625 0v5.136c0 .725-.588 1.313-1.312 1.313zm19.688-19.687H35.55a1.313 1.313 0 010-2.625h5.136a1.313 1.313 0 010 2.625zm-34.239 0H1.313a1.313 1.313 0 010-2.625h5.136a1.313 1.313 0 010 2.625z" fill="#FF7A00"/></svg>