<svg width="42" height="42" fill="none" xmlns="http://www.w3.org/2000/svg"><path d="M40.197 0H1.723c-.68 0-1.23.55-1.23 1.23v18.846a18.265 18.265 0 009.405 15.968l10.465 5.802a1.23 1.23 0 001.193 0l10.466-5.802a18.266 18.266 0 009.405-15.968V1.23c0-.68-.55-1.23-1.23-1.23zm-1.23 20.076a15.803 15.803 0 01-8.138 13.815l-9.87 5.471-9.868-5.47a15.804 15.804 0 01-8.138-13.817V2.462h36.013v17.615z" fill="#FF7A00"/><path d="M10.163 21.668a1.23 1.23 0 002.276 0l3.137-7.618a1.23 1.23 0 00-2.275-.938l-2 4.856-2-4.855a1.23 1.23 0 00-2.275.937l3.137 7.618zm7.659.762c.68 0 1.23-.55 1.23-1.23v-2.58h3.14a3.139 3.139 0 003.136-3.134 3.139 3.139 0 00-3.135-3.136h-4.37a1.23 1.23 0 00-1.231 1.231V21.2c0 .68.55 1.23 1.23 1.23zm1.23-7.618h3.14a.675.675 0 010 1.348h-3.14v-1.348zm8.428 7.618c.68 0 1.231-.55 1.231-1.23v-4.19l4.095 4.972a1.23 1.23 0 002.18-.782v-7.62a1.23 1.23 0 00-2.46 0v4.19l-4.095-4.972a1.23 1.23 0 00-2.18.782v7.62c0 .68.55 1.23 1.23 1.23z" fill="#FF7A00"/></svg>