<svg width="25" height="31" fill="none" xmlns="http://www.w3.org/2000/svg"><path d="M9.476 1.211L1.209 9.478a4.136 4.136 0 000 5.844 4.102 4.102 0 002.922 1.211c1.104 0 2.143-.43 2.923-1.21l5.344-5.345 5.344 5.344a4.105 4.105 0 002.923 1.211c1.103 0 2.14-.43 2.922-1.21a4.105 4.105 0 001.21-2.923 4.103 4.103 0 00-1.21-2.922L15.32 1.21A4.102 4.102 0 0012.398 0a4.1 4.1 0 00-2.922 1.211zm4.383 1.461l8.267 8.267c.78.783.78 2.139 0 2.922a2.068 2.068 0 01-2.923 0l-6.805-6.805-6.806 6.805c-.39.39-.909.606-1.46.606a2.052 2.052 0 01-1.462-.606 2.067 2.067 0 01-.002-2.922l8.267-8.267c.392-.39.911-.605 1.463-.605s1.07.215 1.461.605z" fill="#FF7A00"/><path d="M9.476 15.678l-8.267 8.266a4.136 4.136 0 000 5.845A4.102 4.102 0 004.131 31c1.104 0 2.143-.43 2.923-1.211l5.344-5.345 5.344 5.345A4.105 4.105 0 0020.665 31c1.103 0 2.14-.43 2.922-1.211a4.105 4.105 0 001.21-2.922 4.107 4.107 0 00-1.21-2.923l-8.267-8.266a4.102 4.102 0 00-2.922-1.211c-1.104 0-2.143.43-2.922 1.21zm4.383 1.46l8.267 8.267c.78.784.78 2.14 0 2.923a2.068 2.068 0 01-2.923 0l-6.805-6.806-6.806 6.806c-.39.39-.909.605-1.46.605a2.055 2.055 0 01-1.462-.605 2.068 2.068 0 01-.002-2.922l8.267-8.267c.392-.39.911-.606 1.463-.606s1.07.215 1.461.606z" fill="#FF7A00"/></svg>