<svg width="35" height="35" fill="none" xmlns="http://www.w3.org/2000/svg"><path d="M28.618 8.108a15.593 15.593 0 00-10.093-4.58V2.05h1.504a1.025 1.025 0 000-2.051h-5.058a1.025 1.025 0 000 2.05h1.504v1.478A15.56 15.56 0 009.18 5.874l-.975-.976a2.492 2.492 0 00-1.775-.737c-.671 0-1.302.262-1.776.737l-1.48 1.485a2.512 2.512 0 000 3.544l.98.982a15.672 15.672 0 00-2.377 8.338c0 4.207 1.636 8.163 4.605 11.138A15.604 15.604 0 0017.5 35c4.2 0 8.149-1.639 11.118-4.615a15.666 15.666 0 004.605-11.138 15.67 15.67 0 00-4.605-11.139zM4.625 7.831l1.482-1.484a.456.456 0 01.648 0l.743.744a16.021 16.021 0 00-2.129 2.133l-.744-.746a.458.458 0 010-.647zM17.5 32.95c-7.539 0-13.672-6.147-13.672-13.702 0-7.556 6.133-13.703 13.672-13.703 7.539 0 13.672 6.147 13.672 13.703 0 7.555-6.133 13.702-13.672 13.702z" fill="#FF7A00"/><path d="M20.03 18.655h-1.447v-4.147a1.025 1.025 0 10-2.051 0v5.172c0 .567.459 1.026 1.025 1.026h2.472a1.025 1.025 0 000-2.05z" fill="#FF7A00"/></svg>