<svg width="35" height="35" fill="none" xmlns="http://www.w3.org/2000/svg"><g clip-path="url(#clip0)" fill="#FF7A00"><path d="M27.324 11.29l1.908-1.113C25.105 3.087 16.21.38 8.832 3.967V1.251H6.625v6.623h6.623V5.667h-2.82a13.466 13.466 0 0116.896 5.623zM7.177 28.49a13.44 13.44 0 01-3.18-17.13l-1.914-1.103A15.674 15.674 0 005.46 29.95H2.761v2.207h6.623v-6.622H7.177v2.953zm23.14-13.365l-4.683 4.683 1.561 1.56 1.877-1.876A13.492 13.492 0 0115.694 31.54v2.208c8.195-.022 14.993-6.346 15.605-14.518l2.14 2.139 1.56-1.56-4.683-4.684z"/></g><defs><clipPath id="clip0"><path fill="#fff" d="M0 0h35v35H0z"/></clipPath></defs></svg>