<svg width="16" height="16" fill="none" xmlns="http://www.w3.org/2000/svg"><g clip-path="url(#clip0)" fill="#fff"><path d="M15.906 5.813l-.839-1.12-.466 3.267a1.416 1.416 0 01-.398.795L8.458 14.5a2.638 2.638 0 01-1.879.778c-.212 0-.42-.026-.621-.074.305.478.84.796 1.448.796h6.875A1.72 1.72 0 0016 14.281V6.094a.47.47 0 00-.094-.281zM9.673 7.788a.469.469 0 100-.938.469.469 0 000 .938zm-5.303 0a.469.469 0 100-.938.469.469 0 000 .938z"/><path d="M7.795 13.837l5.745-5.745a.468.468 0 00.133-.265l.663-4.64a.469.469 0 00-.133-.398l-.994-.995-1.326 1.326.331.332a.469.469 0 01-.662.663l-1.326-1.326a.469.469 0 01.662-.663l.332.331 1.326-1.325-.994-.995a.47.47 0 00-.398-.132l-4.64.663A.469.469 0 006.247.8L.503 6.545a1.72 1.72 0 000 2.431l4.861 4.861c.335.335.775.503 1.216.503.44 0 .88-.168 1.215-.503zm1.878-7.924c.775 0 1.406.63 1.406 1.406 0 .775-.63 1.406-1.406 1.406a1.407 1.407 0 010-2.812zM4.37 8.725a1.407 1.407 0 11.001-2.813 1.407 1.407 0 01-.001 2.813zm1.547 2.377a.47.47 0 01-.445-.617l2.21-6.629a.469.469 0 01.889.296l-2.21 6.63a.469.469 0 01-.444.32z"/><path d="M14.203.8a.469.469 0 00-.663-.663l-.994.995.662.663.995-.995z"/></g><defs><clipPath id="clip0"><path fill="#fff" d="M0 0h16v16H0z"/></clipPath></defs></svg>