<svg width="31" height="35" fill="none" xmlns="http://www.w3.org/2000/svg"><path d="M15.5 0C7.019 0 .12 6.9.12 15.38v8.34a3.08 3.08 0 003.075 3.077h1.202a3.081 3.081 0 002.9 2.05 3.08 3.08 0 003.076-3.076v-8.34a3.08 3.08 0 00-3.076-3.076 3.081 3.081 0 00-2.9 2.051H3.195c-.36 0-.704.063-1.025.177V15.38c0-7.35 5.98-13.33 13.33-13.33s13.33 5.98 13.33 13.33v1.202a3.062 3.062 0 00-1.025-.177h-1.202a3.081 3.081 0 00-2.9-2.05 3.08 3.08 0 00-3.076 3.076v8.34a3.08 3.08 0 003.969 2.943 3.081 3.081 0 01-2.944 2.183H18.4a3.081 3.081 0 00-2.9-2.05 3.08 3.08 0 00-3.076 3.076A3.08 3.08 0 0015.5 35a3.081 3.081 0 002.9-2.05h3.252c2.827 0 5.127-2.3 5.127-5.128v-1.025h1.026a3.08 3.08 0 003.076-3.076v-8.34C30.88 6.9 23.98 0 15.5 0zM6.271 17.432a1.027 1.027 0 012.051 0v8.34a1.027 1.027 0 01-2.05 0v-8.34zm-3.076 1.025h1.026v6.29H3.195c-.565 0-1.025-.46-1.025-1.026v-4.239c0-.565.46-1.025 1.025-1.025zM15.5 32.949a1.027 1.027 0 010-2.05 1.027 1.027 0 010 2.05zm9.229-7.177a1.027 1.027 0 01-2.051 0v-8.34a1.027 1.027 0 012.05 0v8.34zm4.101-2.051c0 .565-.46 1.025-1.025 1.025h-1.026v-6.289h1.026c.565 0 1.025.46 1.025 1.025v4.239z" fill="#FF7A00"/></svg>