<svg width="30" height="24" fill="none" xmlns="http://www.w3.org/2000/svg"><path d="M26.5 5.972c.017.26.017.52.017.783 0 8.003-6.092 17.233-17.233 17.233v-.005A17.147 17.147 0 010 21.268a12.162 12.162 0 008.964-2.51 6.064 6.064 0 01-5.659-4.206 6.047 6.047 0 002.735-.104A6.057 6.057 0 011.18 8.51v-.077a6.01 6.01 0 002.75.758 6.064 6.064 0 01-1.875-8.087 17.19 17.19 0 0012.482 6.328A6.063 6.063 0 0124.86 1.909a12.153 12.153 0 003.846-1.47 6.08 6.08 0 01-2.662 3.349c1.2-.142 2.373-.463 3.478-.954a12.303 12.303 0 01-3.023 3.138z" fill="#fff"/></svg>