<svg width="33" height="22" fill="none" xmlns="http://www.w3.org/2000/svg"><path d="M32.43 22H.57a.574.574 0 01-.57-.579V.579C0 .259.255 0 .569 0h31.862c.314 0 .569.26.569.579v20.842c0 .32-.255.579-.57.579z" fill="#F5F5F5"/><path d="M33 1.692H0V.58C0 .259.255 0 .569 0h31.862c.314 0 .569.26.569.579v1.113zm0 5.078H0v1.692h33V6.769zm0-3.386H0v1.693h33V3.384zm0 8.462H.569A.574.574 0 010 11.267v-1.113h33v1.692zm0 5.078H0v1.692h33v-1.692zM32.43 22H.57a.574.574 0 01-.57-.579v-1.113h33v1.113c0 .32-.255.579-.57.579zm.57-8.461H0v1.692h33V13.54z" fill="#FF4B55"/><path d="M14.793.001H.57A.574.574 0 000 .58v10.688c0 .32.255.579.569.579h14.224c.314 0 .57-.26.57-.579V.58a.574.574 0 00-.57-.579z" fill="#41479B"/><path d="M1.598 1.329l.126.384.398.003c.052 0 .073.068.032.099l-.32.24.12.387c.015.05-.04.091-.083.06l-.324-.235-.323.236c-.042.03-.098-.011-.083-.061l.12-.386-.32-.241c-.041-.031-.02-.098.032-.099l.398-.003.126-.384a.053.053 0 01.101 0zm0 2.011l.125.384.399.003c.051 0 .073.067.031.098l-.32.24.12.387c.016.05-.04.092-.082.061l-.324-.236-.324.236a.054.054 0 01-.083-.06l.12-.387-.32-.24c-.041-.032-.02-.099.032-.1l.398-.002.126-.385a.053.053 0 01.102 0zm0 2.01l.125.384.399.003c.051 0 .073.067.031.099l-.32.24.12.387c.016.05-.04.091-.082.06l-.324-.235-.324.235c-.042.031-.098-.01-.083-.06l.12-.387-.32-.24c-.04-.032-.02-.098.032-.099l.398-.003.126-.384a.053.053 0 01.102 0zm0 2.01l.125.385.399.003c.051 0 .073.067.031.098l-.32.24.12.387c.016.05-.04.091-.082.06l-.324-.235-.324.236a.054.054 0 01-.083-.06l.12-.387-.32-.24c-.041-.032-.02-.099.032-.1l.398-.002.126-.385a.053.053 0 01.102 0zm0 2.01l.125.385.399.003c.051 0 .073.067.031.098l-.32.241.12.386c.016.05-.04.092-.082.061l-.324-.235-.324.235a.054.054 0 01-.083-.06l.12-.387-.32-.24c-.04-.032-.02-.099.032-.099l.398-.003.126-.384a.053.053 0 01.102 0zm1.533-7.055l.126.384.398.003c.052 0 .073.067.032.098l-.32.241.12.386c.015.05-.04.092-.083.061l-.324-.235-.323.235a.054.054 0 01-.083-.06l.12-.387-.32-.24c-.041-.032-.02-.099.031-.1l.399-.002.126-.384a.053.053 0 01.101 0zm0 2.01l.126.384.398.003c.052 0 .073.068.032.099l-.32.24.12.387c.015.05-.04.091-.083.06l-.324-.235-.323.236c-.042.03-.098-.011-.083-.061l.12-.386-.32-.241c-.041-.031-.02-.098.031-.099l.399-.003.126-.384a.053.053 0 01.101 0zm0 2.01l.126.385.398.003c.052 0 .073.067.032.098l-.32.241.12.386c.015.05-.04.092-.083.061l-.324-.235-.323.235a.054.054 0 01-.083-.06l.12-.387-.32-.24c-.041-.032-.02-.099.031-.1l.399-.002.126-.385a.053.053 0 01.101 0zm0 2.011l.126.384.398.003c.052 0 .073.068.032.099l-.32.24.12.387c.015.05-.04.091-.083.06l-.324-.235-.323.236c-.042.03-.098-.011-.083-.061l.12-.387-.32-.24c-.041-.031-.02-.098.031-.099l.399-.003.126-.384a.053.053 0 01.101 0zm1.534-7.017l.126.384.398.003c.051 0 .073.068.031.099l-.32.24.12.387c.016.05-.04.091-.082.06l-.324-.235-.324.236c-.042.03-.098-.011-.082-.061l.12-.387-.32-.24c-.042-.031-.02-.098.03-.099l.399-.003.126-.384a.053.053 0 01.102 0zm0 2.011l.126.384.398.003c.051 0 .073.067.031.098l-.32.24.12.387c.016.05-.04.092-.082.061l-.324-.236-.324.236a.053.053 0 01-.082-.06l.12-.387-.32-.24c-.042-.032-.02-.099.03-.1l.399-.002.126-.385a.053.053 0 01.102 0zm0 2.01l.126.384.398.003c.051 0 .073.067.031.099l-.32.24.12.387c.016.05-.04.091-.082.06l-.324-.235-.324.235a.053.053 0 01-.082-.06l.12-.387-.32-.24c-.042-.032-.02-.098.03-.099l.399-.003.126-.384a.053.053 0 01.102 0zm0 2.01l.126.384.398.004c.051 0 .073.067.031.098l-.32.24.12.387c.016.05-.04.091-.082.06l-.324-.235-.324.236c-.042.03-.098-.011-.082-.061l.12-.386-.32-.24c-.042-.032-.02-.099.03-.1l.399-.003.126-.384a.053.053 0 01.102 0zm0 2.01l.126.385.398.003c.051 0 .073.067.031.098l-.32.241.12.386c.016.05-.04.092-.082.061l-.324-.235-.324.235a.053.053 0 01-.082-.06l.12-.387-.32-.24c-.042-.032-.02-.099.03-.099l.399-.003.126-.384a.053.053 0 01.102 0zm1.533-7.055l.126.384.398.003c.052 0 .073.067.032.098l-.32.241.12.386c.015.05-.04.092-.083.061l-.323-.235-.324.235a.054.054 0 01-.083-.06l.12-.387-.32-.24c-.041-.032-.02-.099.032-.1L5.97 2.7l.126-.384a.053.053 0 01.101 0zm0 2.01l.126.384.398.003c.052 0 .073.068.032.099l-.32.24.12.387c.015.05-.04.091-.083.06l-.323-.235-.324.236c-.042.03-.098-.011-.083-.061l.12-.386-.32-.241c-.041-.031-.02-.098.032-.099l.398-.003.126-.384a.053.053 0 01.101 0zm0 2.01l.126.385.398.003c.052 0 .073.067.032.098l-.32.241.12.386c.015.05-.04.092-.083.061l-.323-.235-.324.235a.054.054 0 01-.083-.06l.12-.387-.32-.24c-.041-.032-.02-.099.032-.1l.398-.002.126-.385a.053.053 0 01.101 0zm0 2.011l.126.384.398.003c.052 0 .073.068.032.099l-.32.24.12.387c.015.05-.04.091-.083.06l-.323-.235-.324.236c-.042.03-.098-.011-.083-.061l.12-.387-.32-.24c-.041-.031-.02-.098.032-.099l.398-.003.126-.384a.053.053 0 01.101 0zm1.534-7.017l.126.384.398.003c.051 0 .073.068.031.099l-.32.24.12.387c.016.05-.04.091-.082.06l-.324-.235-.324.236c-.042.03-.098-.011-.083-.061l.12-.387-.32-.24c-.041-.031-.02-.098.032-.099l.398-.003.126-.384a.053.053 0 01.102 0zm0 2.011l.126.384.398.003c.051 0 .073.067.031.098l-.32.24.12.387c.016.05-.04.092-.082.061l-.324-.236-.324.236a.054.054 0 01-.083-.06l.12-.387-.32-.24c-.041-.032-.02-.099.032-.1l.398-.002.126-.385a.053.053 0 01.102 0zm0 2.01l.126.384.398.003c.051 0 .073.067.031.099l-.32.24.12.387c.016.05-.04.091-.082.06l-.324-.235-.324.235a.054.054 0 01-.083-.06l.12-.387-.32-.24c-.041-.032-.02-.098.032-.099l.398-.003.126-.384a.053.053 0 01.102 0zm0 2.01l.126.384.398.004c.051 0 .073.067.031.098l-.32.24.12.387c.016.05-.04.091-.082.06l-.324-.235-.324.236c-.042.03-.098-.011-.083-.061l.12-.386-.32-.24c-.041-.032-.02-.099.032-.1l.398-.003.126-.384a.053.053 0 01.102 0zm0 2.01l.126.385.398.003c.051 0 .073.067.031.098l-.32.241.12.386c.016.05-.04.092-.082.061l-.324-.235-.324.235a.054.054 0 01-.083-.06l.12-.387-.32-.24c-.041-.032-.02-.099.032-.099l.398-.003.126-.384a.053.053 0 01.102 0zm1.533-7.055l.126.384.398.003c.052 0 .073.067.032.098l-.32.241.12.386c.015.05-.04.092-.083.061l-.324-.235-.323.235a.054.054 0 01-.083-.06l.12-.387-.32-.24c-.041-.032-.02-.099.032-.1l.398-.002.126-.384a.053.053 0 01.101 0zm0 2.01l.126.384.398.003c.052 0 .073.068.032.099l-.32.24.12.387c.015.05-.04.091-.083.06l-.324-.235-.323.236c-.042.03-.098-.011-.083-.061l.12-.386-.32-.241c-.041-.031-.02-.098.032-.099l.398-.003.126-.384a.053.053 0 01.101 0zm0 2.01l.126.385.398.003c.052 0 .073.067.032.098l-.32.241.12.386c.015.05-.04.092-.083.061l-.324-.235-.323.235a.054.054 0 01-.083-.06l.12-.387-.32-.24c-.041-.032-.02-.099.032-.1l.398-.002.126-.385a.053.053 0 01.101 0zm0 2.011l.126.384.398.003c.052 0 .073.068.032.099l-.32.24.12.387c.015.05-.04.091-.083.06l-.324-.235-.323.236c-.042.03-.098-.011-.083-.061l.12-.387-.32-.24c-.041-.031-.02-.098.032-.099l.398-.003.126-.384a.053.053 0 01.101 0zm1.534-7.017l.126.384.398.003c.052 0 .073.068.031.099l-.32.24.12.387c.016.05-.04.091-.082.06l-.324-.235-.324.236c-.042.03-.098-.011-.082-.061l.12-.387-.32-.24c-.042-.031-.02-.098.031-.099l.398-.003.126-.384a.053.053 0 01.102 0zm0 2.011l.126.384.398.003c.052 0 .073.067.031.098l-.32.24.12.387c.016.05-.04.092-.082.061l-.324-.236-.324.236a.053.053 0 01-.082-.06l.12-.387-.32-.24c-.042-.032-.02-.099.031-.1l.398-.002.126-.385a.053.053 0 01.102 0zm0 2.01l.126.384.398.003c.052 0 .073.067.031.099l-.32.24.12.387c.016.05-.04.091-.082.06l-.324-.235-.324.235a.053.053 0 01-.082-.06l.12-.387-.32-.24c-.042-.032-.02-.098.031-.099l.398-.003.126-.384a.053.053 0 01.102 0zm0 2.01l.126.384.398.004c.052 0 .073.067.031.098l-.32.24.12.387c.016.05-.04.091-.082.06l-.324-.235-.324.236c-.042.03-.098-.011-.082-.061l.12-.386-.32-.24c-.042-.032-.02-.099.031-.1l.398-.003.126-.384a.053.053 0 01.102 0zm0 2.01l.126.385.398.003c.052 0 .073.067.031.098l-.32.241.12.386c.016.05-.04.092-.082.061l-.324-.235-.324.235a.053.053 0 01-.082-.06l.12-.387-.32-.24c-.042-.032-.02-.099.031-.099l.398-.003.126-.384a.053.053 0 01.102 0zm1.533-7.055l.126.384.399.003c.051 0 .072.067.03.098l-.32.241.12.386c.016.05-.04.092-.082.061l-.323-.235-.324.235a.054.054 0 01-.083-.06l.12-.387-.32-.24c-.041-.032-.02-.099.032-.1l.398-.002.126-.384a.053.053 0 01.101 0zm0 2.01l.126.384.399.003c.051 0 .072.068.03.099l-.32.24.12.387c.016.05-.04.091-.082.06l-.323-.235-.324.236c-.042.03-.098-.011-.083-.061l.12-.386-.32-.241c-.041-.031-.02-.098.032-.099l.398-.003.126-.384a.053.053 0 01.101 0zm0 2.01l.126.385.399.003c.051 0 .072.067.03.098l-.32.241.12.386c.016.05-.04.092-.082.061l-.323-.235-.324.235a.054.054 0 01-.083-.06l.12-.387-.32-.24c-.041-.032-.02-.099.032-.1l.398-.002.126-.385a.053.053 0 01.101 0zm0 2.011l.126.384.399.003c.051 0 .072.068.03.099l-.32.24.12.387c.016.05-.04.091-.082.06l-.323-.235-.324.236c-.042.03-.098-.011-.083-.061l.12-.387-.32-.24c-.041-.031-.02-.098.032-.099l.398-.003.126-.384a.053.053 0 01.101 0zm1.534-7.017l.126.384.398.003c.052 0 .073.068.032.099l-.32.24.12.387c.015.05-.04.091-.083.06l-.324-.235-.324.236c-.042.03-.098-.011-.082-.061l.12-.387-.32-.24c-.042-.031-.02-.098.031-.099l.399-.003.125-.384a.053.053 0 01.102 0zm0 2.011l.126.384.398.003c.052 0 .073.067.032.098l-.32.24.12.387c.015.05-.04.092-.083.061l-.324-.236-.324.236a.053.053 0 01-.082-.06l.12-.387-.32-.24c-.042-.032-.02-.099.031-.1l.399-.002.125-.385a.053.053 0 01.102 0zm0 2.01l.126.384.398.003c.052 0 .073.067.032.099l-.32.24.12.387c.015.05-.04.091-.083.06l-.324-.235-.324.235a.053.053 0 01-.082-.06l.12-.387-.32-.24c-.042-.032-.02-.098.031-.099l.399-.003.125-.384a.053.053 0 01.102 0zm0 2.01l.126.384.398.004c.052 0 .073.067.032.098l-.32.24.12.387c.015.05-.04.091-.083.06l-.324-.235-.324.236c-.042.03-.098-.011-.082-.061l.12-.386-.32-.24c-.042-.032-.02-.099.031-.1l.399-.003.125-.384a.053.053 0 01.102 0zm0 2.01l.126.385.398.003c.052 0 .073.067.032.098l-.32.241.12.386c.015.05-.04.092-.083.061l-.324-.235-.324.235a.053.053 0 01-.082-.06l.12-.387-.32-.24c-.042-.032-.02-.099.031-.099l.399-.003.125-.384a.053.053 0 01.102 0z" fill="#F5F5F5"/></svg>