<svg width="21" height="21" viewBox="0 0 21 21" fill="none" xmlns="http://www.w3.org/2000/svg">
<path d="M20.8162 4.77356C20.6604 4.58194 20.4266 4.4707 20.1797 4.4707H5.3212L5.26034 3.91158L5.25816 3.89361C4.96695 1.67393 3.05907 0 0.820312 0C0.367254 0 0 0.367254 0 0.820312C0 1.27337 0.367254 1.64062 0.820312 1.64062C2.2356 1.64062 3.44215 2.69674 3.63038 4.09861L4.60544 13.0565C3.75272 13.4435 3.1582 14.3031 3.1582 15.2988C3.1582 15.3057 3.15828 15.3125 3.15845 15.3193C3.15828 15.3261 3.1582 15.333 3.1582 15.3398C3.1582 16.6968 4.26218 17.8008 5.61914 17.8008H5.95293C5.8695 18.0454 5.82422 18.3075 5.82422 18.5801C5.82422 19.9144 6.90978 21 8.24414 21C9.5785 21 10.6641 19.9144 10.6641 18.5801C10.6641 18.3075 10.6188 18.0454 10.5354 17.8008H14.0741C13.9906 18.0454 13.9454 18.3075 13.9454 18.5801C13.9454 19.9144 15.0309 21 16.3653 21C17.6996 21 18.7852 19.9144 18.7852 18.5801C18.7852 17.2458 17.6996 16.1602 16.3653 16.1602H5.61914C5.16682 16.1602 4.79883 15.7922 4.79883 15.3398C4.79883 15.333 4.79875 15.3261 4.79858 15.3193C4.79875 15.3125 4.79883 15.3057 4.79883 15.2988C4.79883 14.8465 5.16682 14.4785 5.61914 14.4785H16.0917C17.5479 14.4785 18.8842 13.5776 19.4962 12.1832C19.6783 11.7684 19.4896 11.2845 19.0748 11.1024C18.66 10.9203 18.1761 11.109 17.994 11.5238C17.649 12.3098 16.8845 12.8379 16.0917 12.8379H6.23196L5.49978 6.11133H19.1706L18.7692 8.03562C18.6768 8.47912 18.9613 8.91364 19.4048 9.00613C19.4613 9.01794 19.5176 9.0236 19.5731 9.0236C19.9534 9.0236 20.2946 8.75766 20.3753 8.37063L20.9827 5.45852C21.0331 5.21678 20.972 4.96519 20.8162 4.77356ZM16.3652 17.8008C16.795 17.8008 17.1445 18.1504 17.1445 18.5801C17.1445 19.0098 16.795 19.3594 16.3652 19.3594C15.9355 19.3594 15.5859 19.0098 15.5859 18.5801C15.5859 18.1504 15.9355 17.8008 16.3652 17.8008ZM8.24414 17.8008C8.67386 17.8008 9.02344 18.1504 9.02344 18.5801C9.02344 19.0098 8.67386 19.3594 8.24414 19.3594C7.81442 19.3594 7.46484 19.0098 7.46484 18.5801C7.46484 18.1504 7.81442 17.8008 8.24414 17.8008Z" fill="#E5E5E5"/>
</svg>
