<svg width="12" height="12" viewBox="0 0 12 12" fill="none" xmlns="http://www.w3.org/2000/svg">
<path d="M11.832 1.06564L11.0031 0.246559C10.7788 0.0222596 10.4082 0.0222596 10.1741 0.246559L6.03923 4.38137L1.8264 0.168542C1.60201 -0.055855 1.23143 -0.055855 0.997473 0.168542L0.168542 0.997473C-0.055855 1.22177 -0.055855 1.59235 0.168542 1.8264L4.37171 6.02957L0.246559 10.1742C0.0222596 10.3985 0.0222596 10.7691 0.246559 11.0032L1.07549 11.8321C1.29979 12.0564 1.67037 12.0564 1.90442 11.8321L6.03923 7.69719L10.1741 11.8321C10.3984 12.0564 10.769 12.0564 11.0031 11.8321L11.832 11.0032C12.0563 10.7789 12.0563 10.4083 11.832 10.1742L7.68734 6.03933L11.8222 1.90452C12.0563 1.67027 12.0563 1.29969 11.832 1.06564Z" fill="#FF7A00"/>
</svg>
