<svg width="42" height="42" viewBox="0 0 42 42" fill="none" xmlns="http://www.w3.org/2000/svg">
<path d="M41.6259 17.115C41.5196 16.5506 41.0616 16.1228 40.4919 16.0545C39.921 15.9863 39.3763 16.2947 39.1401 16.8184C38.724 17.7371 37.8105 18.3763 36.7513 18.375C35.5766 18.3776 34.5844 17.5849 34.2536 16.4968C34.0541 15.8327 33.3716 15.4389 32.697 15.5964C32.2822 15.6936 31.8898 15.75 31.5 15.75C28.6086 15.7448 26.2553 13.3914 26.25 10.5C26.25 10.1102 26.3064 9.71775 26.4036 9.30431C26.5624 8.62969 26.1673 7.94587 25.5032 7.74638C24.4151 7.41694 23.6224 6.42469 23.625 5.25C23.6237 4.1895 24.2629 3.27731 25.1816 2.86125C25.7053 2.625 26.0138 2.079 25.9455 1.50937C25.8772 0.938437 25.4494 0.480375 24.885 0.374063C23.6329 0.139125 22.3361 0 21 0C9.41587 0.002625 0.002625 9.41587 0 21C0.002625 32.5841 9.41587 41.9974 21 42C32.5841 41.9974 41.9974 32.5841 42 21C42 19.6639 41.8609 18.3671 41.6259 17.115ZM33.9872 33.9872C30.6548 37.317 26.0689 39.375 21 39.375C15.9311 39.375 11.3453 37.317 8.01281 33.9872C4.683 30.6548 2.625 26.0689 2.625 21C2.625 15.9311 4.683 11.3453 8.01281 8.01281C11.3453 4.683 15.9311 2.625 21 2.625C21.2362 2.625 21.4672 2.64994 21.7022 2.66044C21.2638 3.42431 21.0013 4.30369 21 5.25C21.0026 7.20956 22.0894 8.88956 23.6736 9.786C23.6486 10.0196 23.625 10.2533 23.625 10.5C23.6276 14.8457 27.1543 18.3724 31.5 18.375C31.7467 18.375 31.9804 18.3514 32.214 18.3264C33.1104 19.9093 34.7891 20.9974 36.75 21C37.6963 20.9987 38.5757 20.7362 39.3396 20.2978C39.3501 20.5314 39.375 20.7638 39.375 21C39.375 26.0689 37.317 30.6548 33.9872 33.9872Z" fill="#373737"/>
<path d="M15.75 13.125C17.1997 13.125 18.375 11.9497 18.375 10.5C18.375 9.05025 17.1997 7.875 15.75 7.875C14.3003 7.875 13.125 9.05025 13.125 10.5C13.125 11.9497 14.3003 13.125 15.75 13.125Z" fill="#373737"/>
<path d="M10.5 23.625C11.9497 23.625 13.125 22.4497 13.125 21C13.125 19.5503 11.9497 18.375 10.5 18.375C9.05025 18.375 7.875 19.5503 7.875 21C7.875 22.4497 9.05025 23.625 10.5 23.625Z" fill="#373737"/>
<path d="M23.625 34.125C25.0747 34.125 26.25 32.9497 26.25 31.5C26.25 30.0503 25.0747 28.875 23.625 28.875C22.1753 28.875 21 30.0503 21 31.5C21 32.9497 22.1753 34.125 23.625 34.125Z" fill="#373737"/>
<path d="M22.3125 23.625C23.0374 23.625 23.625 23.0374 23.625 22.3125C23.625 21.5876 23.0374 21 22.3125 21C21.5876 21 21 21.5876 21 22.3125C21 23.0374 21.5876 23.625 22.3125 23.625Z" fill="#373737"/>
<path d="M32.8125 28.875C33.5374 28.875 34.125 28.2874 34.125 27.5625C34.125 26.8376 33.5374 26.25 32.8125 26.25C32.0876 26.25 31.5 26.8376 31.5 27.5625C31.5 28.2874 32.0876 28.875 32.8125 28.875Z" fill="#373737"/>
<path d="M14.4375 31.5C15.1624 31.5 15.75 30.9124 15.75 30.1875C15.75 29.4626 15.1624 28.875 14.4375 28.875C13.7126 28.875 13.125 29.4626 13.125 30.1875C13.125 30.9124 13.7126 31.5 14.4375 31.5Z" fill="#373737"/>
</svg>
