<svg width="21" height="16" viewBox="0 0 21 16" fill="none" xmlns="http://www.w3.org/2000/svg">
<g clip-path="url(#clip0)">
<path d="M17.7774 1.42485C16.4389 0.820803 15.0036 0.37577 13.5029 0.120881C13.4756 0.115962 13.4483 0.128255 13.4342 0.152843C13.2496 0.475755 13.0451 0.897021 12.902 1.22813C11.2879 0.990461 9.68204 0.990461 8.10103 1.22813C7.95782 0.889661 7.74592 0.475755 7.5605 0.152843C7.54642 0.129076 7.51912 0.116782 7.49179 0.120881C5.99192 0.374955 4.55662 0.819988 3.21732 1.42485C3.20572 1.42976 3.19579 1.43797 3.18919 1.44861C0.466718 5.44902 -0.279081 9.3511 0.0867826 13.2048C0.0884381 13.2237 0.0991986 13.2417 0.114098 13.2532C1.91031 14.5505 3.65024 15.3382 5.35787 15.8603C5.3852 15.8685 5.41416 15.8586 5.43155 15.8365C5.83549 15.2939 6.19556 14.7219 6.50429 14.1203C6.52251 14.085 6.50512 14.0432 6.46788 14.0293C5.89674 13.8162 5.3529 13.5564 4.82976 13.2614C4.78838 13.2376 4.78507 13.1794 4.82314 13.1515C4.93323 13.0704 5.04334 12.986 5.14846 12.9007C5.16748 12.8852 5.19398 12.8819 5.21634 12.8917C8.65312 14.435 12.3739 14.435 15.7701 12.8917C15.7924 12.8811 15.8189 12.8843 15.8388 12.8999C15.9439 12.9851 16.054 13.0704 16.1649 13.1515C16.203 13.1794 16.2005 13.2376 16.1591 13.2614C15.636 13.5621 15.0922 13.8162 14.5202 14.0285C14.483 14.0424 14.4664 14.085 14.4846 14.1203C14.8 14.721 15.16 15.2931 15.5565 15.8357C15.5731 15.8586 15.6029 15.8685 15.6302 15.8603C17.3461 15.3382 19.086 14.5505 20.8823 13.2532C20.898 13.2417 20.9079 13.2245 20.9096 13.2056C21.3474 8.75032 20.1762 4.88024 17.8047 1.44943C17.7989 1.43797 17.789 1.42976 17.7774 1.42485ZM7.01752 10.8583C5.98281 10.8583 5.13024 9.92399 5.13024 8.77656C5.13024 7.62912 5.96628 6.69481 7.01752 6.69481C8.07701 6.69481 8.92133 7.63733 8.90477 8.77656C8.90477 9.92399 8.06873 10.8583 7.01752 10.8583ZM13.9954 10.8583C12.9607 10.8583 12.1082 9.92399 12.1082 8.77656C12.1082 7.62912 12.9442 6.69481 13.9954 6.69481C15.0549 6.69481 15.8992 7.63733 15.8827 8.77656C15.8827 9.92399 15.0549 10.8583 13.9954 10.8583Z" fill="#6F6F79"/>
</g>
<defs>
<clipPath id="clip0">
<rect width="21" height="16" fill="white"/>
</clipPath>
</defs>
</svg>
