<svg width="30" height="23" viewBox="0 0 30 23" fill="none" xmlns="http://www.w3.org/2000/svg">
<g clip-path="url(#clip0)">
<path d="M25.3963 2.04811C23.4842 1.17979 21.4337 0.540059 19.2899 0.173656C19.2508 0.166585 19.2118 0.184257 19.1917 0.219601C18.928 0.683788 18.6359 1.28936 18.4314 1.76533C16.1255 1.42368 13.8315 1.42368 11.5729 1.76533C11.3683 1.27878 11.0656 0.683788 10.8007 0.219601C10.7806 0.185436 10.7416 0.167764 10.7026 0.173656C8.55989 0.538888 6.50945 1.17862 4.59617 2.04811C4.57961 2.05517 4.56541 2.06697 4.55599 2.08227C0.66674 7.83286 -0.398688 13.4421 0.123975 18.9818C0.12634 19.0089 0.141712 19.0348 0.162998 19.0513C2.72901 20.9163 5.21463 22.0485 7.6541 22.799C7.69314 22.8108 7.73451 22.7967 7.75935 22.7648C8.33641 21.9849 8.8508 21.1626 9.29185 20.2978C9.31787 20.2471 9.29303 20.187 9.23983 20.167C8.42391 19.8607 7.647 19.4872 6.89966 19.0631C6.84055 19.0289 6.83582 18.9452 6.8902 18.9052C7.04747 18.7886 7.20477 18.6672 7.35494 18.5447C7.38211 18.5223 7.41997 18.5176 7.45192 18.5317C12.3616 20.7502 17.6769 20.7502 22.5287 18.5317C22.5606 18.5164 22.5985 18.5211 22.6268 18.5435C22.7771 18.666 22.9343 18.7886 23.0928 18.9052C23.1472 18.9452 23.1436 19.0289 23.0845 19.0631C22.3372 19.4954 21.5602 19.8607 20.7431 20.1658C20.6899 20.1859 20.6663 20.2471 20.6923 20.2978C21.1428 21.1614 21.6572 21.9837 22.2236 22.7637C22.2473 22.7967 22.2898 22.8108 22.3289 22.799C24.7802 22.0485 27.2658 20.9163 29.8318 19.0513C29.8543 19.0348 29.8685 19.0101 29.8708 18.983C30.4964 12.5785 28.8231 7.01523 25.4353 2.08344C25.427 2.06697 25.4128 2.05517 25.3963 2.04811ZM10.025 15.6087C8.54687 15.6087 7.32892 14.2656 7.32892 12.6162C7.32892 10.9668 8.52325 9.62368 10.025 9.62368C11.5386 9.62368 12.7448 10.9785 12.7211 12.6162C12.7211 14.2656 11.5268 15.6087 10.025 15.6087ZM19.9934 15.6087C18.5153 15.6087 17.2974 14.2656 17.2974 12.6162C17.2974 10.9668 18.4917 9.62368 19.9934 9.62368C21.507 9.62368 22.7132 10.9785 22.6896 12.6162C22.6896 14.2656 21.507 15.6087 19.9934 15.6087Z" fill="white"/>
</g>
</svg>
