<svg width="33" height="22" viewBox="0 0 33 22" fill="none" xmlns="http://www.w3.org/2000/svg">
<path d="M32.4309 22H0.568991C0.254783 22 0 21.7407 0 21.421V0.578973C0 0.259252 0.254783 0 0.568991 0H32.431C32.7452 0 33 0.259252 33 0.578973V21.421C32.9999 21.7408 32.7452 22 32.4309 22Z" fill="#41479B"/>
<path d="M16.7314 2.51906L16.9595 3.2151L17.6806 3.22081C17.7739 3.22153 17.8126 3.34273 17.7375 3.3992L17.1575 3.83506L17.3749 4.53458C17.4031 4.62509 17.3018 4.70011 17.2258 4.64483L16.6392 4.21814L16.0526 4.64483C15.9767 4.70005 15.8753 4.62515 15.9035 4.53458L16.1209 3.83506L15.5408 3.3992C15.4658 3.34273 15.5044 3.22153 15.5978 3.22081L16.3189 3.2151L16.547 2.51906C16.5765 2.42895 16.7018 2.42895 16.7314 2.51906Z" fill="#FFE15A"/>
<path d="M16.7314 17.4631L16.9595 18.1591L17.6806 18.1648C17.7739 18.1656 17.8126 18.2868 17.7375 18.3432L17.1575 18.7791L17.3749 19.4786C17.4031 19.5691 17.3018 19.6441 17.2258 19.5889L16.6392 19.1622L16.0526 19.5889C15.9767 19.6441 15.8753 19.5692 15.9035 19.4786L16.1209 18.7791L15.5408 18.3432C15.4658 18.2868 15.5044 18.1656 15.5978 18.1648L16.3189 18.1591L16.547 17.4631C16.5765 17.373 16.7018 17.373 16.7314 17.4631Z" fill="#FFE15A"/>
<path d="M24.0744 9.99111L24.3025 10.6871L25.0236 10.6929C25.117 10.6936 25.1556 10.8148 25.0806 10.8712L24.5005 11.3071L24.7179 12.0066C24.7461 12.0971 24.6448 12.1722 24.5688 12.1169L23.9822 11.6902L23.3956 12.1169C23.3197 12.1721 23.2183 12.0972 23.2465 12.0066L23.4639 11.3071L22.8839 10.8712C22.8088 10.8148 22.8474 10.6936 22.9408 10.6929L23.6619 10.6871L23.89 9.99111C23.9195 9.90099 24.0449 9.90099 24.0744 9.99111Z" fill="#FFE15A"/>
<path d="M9.3881 9.99111L9.61626 10.6871L10.3373 10.6929C10.4307 10.6936 10.4694 10.8148 10.3943 10.8712L9.81419 11.3071L10.0317 12.0066C10.0598 12.0971 9.9585 12.1722 9.88251 12.1169L9.29593 11.6902L8.70934 12.1169C8.63342 12.1721 8.53203 12.0972 8.5602 12.0066L8.77766 11.3071L8.19758 10.8712C8.1225 10.8148 8.16117 10.6936 8.25456 10.6929L8.9756 10.6871L9.20376 9.99111C9.23328 9.90099 9.35864 9.90099 9.3881 9.99111Z" fill="#FFE15A"/>
<path d="M10.4904 6.08913L10.7186 6.78517L11.4396 6.79088C11.533 6.7916 11.5717 6.9128 11.4966 6.96926L10.9165 7.40513L11.134 8.10465C11.1621 8.19515 11.0608 8.27018 10.9848 8.21489L10.3982 7.78821L9.81164 8.21489C9.73571 8.27012 9.63433 8.19522 9.66249 8.10465L9.87996 7.40513L9.29988 6.96926C9.22479 6.9128 9.26346 6.7916 9.35686 6.79088L10.0779 6.78517L10.3061 6.08913C10.3356 5.99902 10.4608 5.99902 10.4904 6.08913Z" fill="#FFE15A"/>
<path d="M23.2091 13.5611L23.4373 14.2572L24.1583 14.2629C24.2517 14.2636 24.2904 14.3848 24.2153 14.4412L23.6352 14.8771L23.8527 15.5766C23.8809 15.6671 23.7795 15.7422 23.7036 15.6869L23.117 15.2602L22.5304 15.6869C22.4545 15.7421 22.3531 15.6672 22.3812 15.5766L22.5987 14.8771L22.0186 14.4412C21.9435 14.3848 21.9822 14.2636 22.0756 14.2629L22.7966 14.2572L23.0248 13.5611C23.0543 13.471 23.1796 13.471 23.2091 13.5611Z" fill="#FFE15A"/>
<path d="M20.5216 3.35414L20.7498 4.05018L21.4708 4.05589C21.5642 4.05661 21.6029 4.17781 21.5278 4.23428L20.9477 4.67015L21.1652 5.36966C21.1934 5.46017 21.092 5.5352 21.0161 5.47991L20.4295 5.05322L19.8429 5.47991C19.767 5.53513 19.6656 5.46023 19.6937 5.36966L19.9112 4.67015L19.3311 4.23428C19.256 4.17781 19.2947 4.05661 19.3881 4.05589L20.1091 4.05018L20.3373 3.35414C20.3668 3.26403 20.492 3.26403 20.5216 3.35414Z" fill="#FFE15A"/>
<path d="M13.1781 16.2961L13.4063 16.9921L14.1273 16.9978C14.2207 16.9986 14.2594 17.1198 14.1843 17.1762L13.6042 17.6121L13.8217 18.3116C13.8499 18.4021 13.7485 18.4772 13.6726 18.4219L13.086 17.9952L12.4994 18.4219C12.4235 18.4771 12.3221 18.4022 12.3502 18.3116L12.5677 17.6121L11.9876 17.1762C11.9125 17.1198 11.9512 16.9986 12.0446 16.9978L12.7656 16.9921L12.9938 16.2961C13.0233 16.206 13.1486 16.206 13.1781 16.2961Z" fill="#FFE15A"/>
<path d="M23.0248 6.08913L22.7966 6.78517L22.0756 6.79088C21.9822 6.7916 21.9435 6.9128 22.0186 6.96926L22.5987 7.40513L22.3812 8.10465C22.3531 8.19515 22.4544 8.27018 22.5304 8.21489L23.117 7.78821L23.7036 8.21489C23.7795 8.27012 23.8809 8.19522 23.8527 8.10465L23.6352 7.40513L24.2153 6.96926C24.2904 6.9128 24.2517 6.7916 24.1583 6.79088L23.4373 6.78517L23.2091 6.08913C23.1796 5.99902 23.0543 5.99902 23.0248 6.08913Z" fill="#FFE15A"/>
<path d="M10.3061 13.5611L10.0779 14.2572L9.35686 14.2629C9.26346 14.2636 9.22479 14.3848 9.29988 14.4412L9.87996 14.8771L9.66249 15.5766C9.63433 15.6671 9.73565 15.7422 9.81164 15.6869L10.3982 15.2602L10.9848 15.6869C11.0607 15.7421 11.1621 15.6672 11.134 15.5766L10.9165 14.8771L11.4966 14.4412C11.5717 14.3848 11.533 14.2636 11.4396 14.2629L10.7186 14.2572L10.4904 13.5611C10.4608 13.471 10.3356 13.471 10.3061 13.5611Z" fill="#FFE15A"/>
<path d="M12.9938 3.35414L12.7656 4.05018L12.0446 4.05589C11.9512 4.05661 11.9125 4.17781 11.9876 4.23428L12.5677 4.67015L12.3502 5.36966C12.3221 5.46017 12.4234 5.5352 12.4994 5.47991L13.086 5.05322L13.6726 5.47991C13.7485 5.53513 13.8499 5.46023 13.8217 5.36966L13.6042 4.67015L14.1843 4.23428C14.2594 4.17781 14.2207 4.05661 14.1273 4.05589L13.4063 4.05018L13.1781 3.35414C13.1486 3.26403 13.0233 3.26403 12.9938 3.35414Z" fill="#FFE15A"/>
<path d="M20.3373 16.2961L20.1091 16.9921L19.3881 16.9978C19.2947 16.9986 19.256 17.1198 19.3311 17.1762L19.9112 17.6121L19.6937 18.3116C19.6656 18.4021 19.7669 18.4772 19.8429 18.4219L20.4295 17.9952L21.0161 18.4219C21.092 18.4771 21.1934 18.4022 21.1652 18.3116L20.9477 17.6121L21.5278 17.1762C21.6029 17.1198 21.5642 16.9986 21.4708 16.9978L20.7498 16.9921L20.5216 16.2961C20.4921 16.206 20.3668 16.206 20.3373 16.2961Z" fill="#FFE15A"/>
</svg>
