<svg width="31" height="40" viewBox="0 0 31 40" fill="none" xmlns="http://www.w3.org/2000/svg">
<path d="M15.1421 22.973C11.9752 22.973 9.3988 25.5494 9.3988 28.7163C9.3988 31.8831 11.9752 34.4595 15.1421 34.4595C18.3089 34.4595 20.8853 31.8831 20.8853 28.7163C20.8853 25.5494 18.3089 22.973 15.1421 22.973ZM15.1421 32.1622C13.242 32.1622 11.6961 30.6165 11.6961 28.7163C11.6961 26.8161 13.242 25.2703 15.1421 25.2703C17.0422 25.2703 18.588 26.8161 18.588 28.7163C18.588 30.6165 17.0422 32.1622 15.1421 32.1622Z" fill="#FF7A00"/>
<path d="M30.2843 5.47716L24.8071 0H5.47716L0 5.47716L7.06919 22.2667C5.65275 24.0361 4.80428 26.2788 4.80428 28.7163C4.80428 34.4167 9.44185 39.0542 15.1422 39.0542C20.8425 39.0542 25.48 34.4167 25.48 28.7163C25.48 26.2788 24.6316 24.0361 23.2151 22.2667L30.2843 5.47716ZM21.4522 20.5335C20.4712 19.7754 19.3509 19.1894 18.1367 18.8213L23.4555 6.18909L24.7272 3.1689L27.5677 6.00944L21.4522 20.5335ZM14.4635 18.4013L9.61751 6.89192H20.6669L15.8208 18.4013C15.3539 18.3709 14.9311 18.3708 14.4635 18.4013ZM8.6502 4.59461L7.68295 2.29731H22.6013L21.6341 4.59461H8.6502ZM5.55718 3.16883L6.82889 6.18902L12.1477 18.8212C10.9334 19.1894 9.81309 19.7754 8.83214 20.5335L2.71664 6.00937L5.55718 3.16883ZM15.1422 36.7569C10.7086 36.7569 7.10158 33.1499 7.10158 28.7163C7.10158 24.2827 10.7086 20.6757 15.1422 20.6757C19.5757 20.6757 23.1827 24.2827 23.1827 28.7163C23.1827 33.1499 19.5757 36.7569 15.1422 36.7569Z" fill="#FF7A00"/>
</svg>
