<svg width="42" height="27" viewBox="0 0 42 27" fill="none" xmlns="http://www.w3.org/2000/svg">
<path d="M38.6736 10.9384C38.3736 9.57298 37.6088 8.33835 36.5193 7.46228C35.4298 6.58621 34.06 6.10364 32.6619 6.10364H32.6481L32.4309 5.11349C32.1136 3.6693 31.3045 2.36353 30.1523 1.43683C29.0003 0.510452 27.5516 0 26.0728 0H0V1.23175C0 3.31906 0.858124 5.2093 2.23952 6.56923V7.49336C2.23952 9.69443 3.19377 11.6766 4.70975 13.0487V13.7547C4.70975 17.8863 8.07143 21.248 12.2031 21.248H13.0145C13.9511 24.0573 16.6043 26.0888 19.7243 26.0888H42L38.6736 10.9384ZM7.3261 14.9864H20.3341V12.5229H9.73288C7.38441 12.5229 5.40637 10.9047 4.85555 8.72511H17.8639V6.26161H7.49336C5.14458 6.26161 3.16685 4.64342 2.61603 2.4635H26.0728C27.9582 2.4635 29.6203 3.80035 30.0247 5.64189L32.9102 18.7845H12.2031C9.85464 18.7845 7.87692 17.1663 7.3261 14.9864ZM15.6939 21.248H35.9736L33.198 8.60783C34.689 8.83022 35.9374 9.96359 36.2674 11.4668L38.937 23.6256H19.7243C17.9924 23.6253 16.4809 22.6643 15.6939 21.248Z" fill="#FF7A00"/>
</svg>
