<svg width="42" height="42" viewBox="0 0 42 42" fill="none" xmlns="http://www.w3.org/2000/svg">
<path d="M19.2116 27.125C18.8633 27.125 18.5256 26.985 18.2806 26.7365L13.5066 21.924C12.9956 21.4095 12.9991 20.5782 13.5136 20.0672C14.0298 19.5562 14.8611 19.5615 15.3703 20.0742L19.1468 23.8823L26.5721 15.3247C27.0463 14.777 27.8776 14.7192 28.4236 15.1935C28.9713 15.6677 29.0308 16.4972 28.5548 17.045L20.2038 26.67C19.9641 26.9448 19.6211 27.1093 19.2571 27.1215C19.2396 27.125 19.2238 27.125 19.2116 27.125Z" fill="#FF7A00"/>
<path d="M21 38.5C11.3505 38.5 3.5 30.6495 3.5 21C3.5 11.3505 11.3505 3.49997 21 3.49997C30.6495 3.49997 38.5 11.3505 38.5 21C38.5 30.6495 30.6495 38.5 21 38.5ZM21 6.12497C12.7978 6.12497 6.125 12.7977 6.125 21C6.125 29.2022 12.7978 35.875 21 35.875C29.2023 35.875 35.875 29.2022 35.875 21C35.875 12.7977 29.2023 6.12497 21 6.12497Z" fill="#FF7A00"/>
<path d="M21 7.76123C20.2755 7.76123 19.6875 7.17323 19.6875 6.44873V1.31247C19.6875 0.58797 20.2755 -3.05176e-05 21 -3.05176e-05C21.7245 -3.05176e-05 22.3125 0.58797 22.3125 1.31247V6.44873C22.3125 7.17323 21.7245 7.76123 21 7.76123Z" fill="#FF7A00"/>
<path d="M21 42C20.2755 42 19.6875 41.412 19.6875 40.6875V35.5513C19.6875 34.8268 20.2755 34.2388 21 34.2388C21.7245 34.2388 22.3125 34.8268 22.3125 35.5513V40.6875C22.3125 41.412 21.7245 42 21 42Z" fill="#FF7A00"/>
<path d="M40.6875 22.3125H35.5513C34.8268 22.3125 34.2388 21.7245 34.2388 21C34.2388 20.2755 34.8268 19.6875 35.5513 19.6875H40.6875C41.412 19.6875 42 20.2755 42 21C42 21.7245 41.412 22.3125 40.6875 22.3125Z" fill="#FF7A00"/>
<path d="M6.44876 22.3125H1.3125C0.588001 22.3125 0 21.7245 0 21C0 20.2755 0.588001 19.6875 1.3125 19.6875H6.44876C7.17326 19.6875 7.76126 20.2755 7.76126 21C7.76126 21.7245 7.17326 22.3125 6.44876 22.3125Z" fill="#FF7A00"/>
</svg>
