<svg width="42" height="42" viewBox="0 0 42 42" fill="none" xmlns="http://www.w3.org/2000/svg">
<path d="M40.1969 0H1.72266C1.04301 0 0.492188 0.550827 0.492188 1.23047V20.0755C0.492188 26.7089 4.09612 32.8276 9.89758 36.0438L20.363 41.8456C20.5485 41.9484 20.7542 42 20.9596 42C21.165 42 21.3707 41.9484 21.5563 41.8456L32.0217 36.0438C37.8231 32.8276 41.4271 26.7089 41.4271 20.0755V1.23047C41.4274 0.550827 40.8762 0 40.1969 0ZM38.9664 20.0755C38.9664 25.8148 35.8483 31.1087 30.8287 33.8914L20.9596 39.3625L11.0906 33.8914C6.07127 31.1087 2.95312 25.8148 2.95312 20.0755V2.46094H38.9664V20.0755Z" fill="#FF7A00"/>
<path d="M10.1631 21.6681C10.3531 22.1292 10.8024 22.4301 11.301 22.4301C11.7996 22.4301 12.2488 22.1292 12.4388 21.6681L15.5762 14.0495C15.8348 13.4211 15.5355 12.702 14.9071 12.4431C14.2784 12.1842 13.5594 12.4841 13.3008 13.1125L11.301 17.9684L9.30113 13.1125C9.04222 12.4841 8.32316 12.1845 7.69479 12.4431C7.06642 12.702 6.76681 13.4211 7.02572 14.0495L10.1631 21.6681Z" fill="#FF7A00"/>
<path d="M17.8223 22.4301C18.5019 22.4301 19.0527 21.8793 19.0527 21.1996V18.6208H22.1927C23.9214 18.6208 25.3278 17.2144 25.3278 15.4857C25.3278 13.7569 23.9214 12.3505 22.1927 12.3505H17.8223C17.1426 12.3505 16.5918 12.9014 16.5918 13.581V21.1996C16.5918 21.8793 17.1426 22.4301 17.8223 22.4301ZM19.0527 14.8115H22.1927C22.5644 14.8115 22.8669 15.114 22.8669 15.4857C22.8669 15.8574 22.5644 16.1599 22.1927 16.1599H19.0527V14.8115Z" fill="#FF7A00"/>
<path d="M27.4807 22.4301C28.1604 22.4301 28.7112 21.8793 28.7112 21.1996V17.0103L32.806 21.9818C33.0444 22.2711 33.3953 22.4301 33.7561 22.4301C33.8949 22.4301 34.0355 22.4067 34.1714 22.358C34.6604 22.1824 34.9866 21.719 34.9866 21.1996V13.581C34.9866 12.9013 34.4354 12.3505 33.7561 12.3505C33.0765 12.3505 32.5256 12.9013 32.5256 13.581V17.7703L28.4308 12.7988C28.1008 12.3979 27.5541 12.2473 27.0654 12.4226C26.5764 12.5982 26.2502 13.0615 26.2502 13.581V21.1996C26.2502 21.8793 26.8014 22.4301 27.4807 22.4301Z" fill="#FF7A00"/>
</svg>
