<svg width="35" height="35" viewBox="0 0 35 35" fill="none" xmlns="http://www.w3.org/2000/svg">
<path d="M34.3559 12.4593C33.9559 12.0103 33.4093 11.7183 32.8137 11.6354V11.6342L23.5119 10.3492L19.8309 1.55358C19.2934 0.26614 17.814 -0.341802 16.5266 0.195686C15.9129 0.451943 15.4249 0.939849 15.1687 1.55358L11.4878 10.3492L2.18591 11.6342C0.800038 11.8271 -0.16706 13.107 0.0258469 14.4929C0.108751 15.0885 0.400748 15.6351 0.849693 16.0351L7.85798 22.2847L6.41799 32.0915C6.262 33.0873 6.71936 34.0794 7.57792 34.6075C8.4244 35.1488 9.51322 35.1286 10.339 34.5563L17.4997 29.6866L24.6605 34.5612C25.816 35.3455 27.3885 35.0445 28.1727 33.8891C28.5291 33.364 28.6751 32.7241 28.5816 32.0964L27.1416 22.2859L34.1499 16.0363C35.1946 15.1055 35.2869 13.5039 34.3559 12.4593ZM24.9743 20.8735C24.6607 21.1536 24.5091 21.5725 24.5705 21.9885L26.0704 32.4877L18.206 27.1406C17.782 26.8525 17.225 26.8525 16.8011 27.1406L8.89034 32.4552L10.429 21.9835C10.4887 21.5692 10.3371 21.1526 10.0252 20.8736L2.52573 14.114L12.5351 12.7328C12.9733 12.6724 13.3469 12.3848 13.5175 11.9766L17.5147 2.4998C17.5192 2.50537 17.5226 2.51174 17.5247 2.51855L21.4807 11.9717C21.6513 12.3798 22.0249 12.6674 22.4631 12.7278L32.485 14.1702L24.9743 20.8735Z" fill="#FF7A00"/>
</svg>
