<svg width="25" height="31" viewBox="0 0 25 31" fill="none" xmlns="http://www.w3.org/2000/svg">
<path d="M9.47566 1.21106L1.209 9.47773C-0.403 11.0877 -0.403 13.7123 1.209 15.3223C1.98813 16.1035 3.02766 16.5333 4.13126 16.5333C5.23486 16.5333 6.27439 16.1035 7.05353 15.3223L12.3979 9.97786L17.7423 15.3223C18.5235 16.1035 19.561 16.5333 20.6646 16.5333C21.7682 16.5333 22.8057 16.1035 23.5868 15.3223C24.368 14.5411 24.7979 13.5036 24.7979 12.4C24.7979 11.2964 24.368 10.2589 23.5868 9.47773L15.3202 1.21106C14.5411 0.429859 13.5015 -8.12854e-06 12.3979 -8.08774e-06C11.2943 -8.04694e-06 10.2548 0.429859 9.47566 1.21106ZM13.8591 2.67219L22.1257 10.9389C22.9069 11.7221 22.9069 13.0779 22.1257 13.8611C21.3197 14.6671 20.0095 14.6671 19.2035 13.8611L12.3979 7.05559L5.5924 13.8611C5.2018 14.2517 4.68306 14.4667 4.13126 14.4667C3.57946 14.4667 3.06073 14.2517 2.67013 13.8611C2.26713 13.4581 2.0646 12.9291 2.0646 12.4C2.0646 11.8709 2.26713 11.3419 2.66806 10.9389L10.9347 2.67219C11.3274 2.28159 11.8461 2.06666 12.3979 2.06666C12.9497 2.06666 13.4685 2.28159 13.8591 2.67219Z" fill="#FF7A00"/>
<path d="M9.47567 15.6777L1.209 23.9444C-0.403 25.5543 -0.403 28.179 1.209 29.7889C1.98813 30.5701 3.02767 31 4.13127 31C5.23487 31 6.2744 30.5701 7.05353 29.7889L12.3979 24.4445L17.7423 29.7889C18.5235 30.5701 19.561 31 20.6646 31C21.7682 31 22.8057 30.5701 23.5869 29.7889C24.3681 29.0077 24.7979 27.9703 24.7979 26.8667C24.7979 25.7631 24.3681 24.7256 23.5869 23.9444L15.3202 15.6777C14.5411 14.8965 13.5015 14.4667 12.3979 14.4667C11.2943 14.4667 10.2548 14.8965 9.47567 15.6777ZM13.8591 17.1389L22.1257 25.4055C22.9069 26.1888 22.9069 27.5445 22.1257 28.3278C21.3197 29.1338 20.0095 29.1338 19.2035 28.3278L12.3979 21.5223L5.5924 28.3278C5.2018 28.7184 4.68307 28.9333 4.13127 28.9333C3.57947 28.9333 3.06073 28.7184 2.67013 28.3278C2.26713 27.9248 2.0646 27.3957 2.0646 26.8667C2.0646 26.3376 2.26713 25.8085 2.66807 25.4055L10.9347 17.1389C11.3274 16.7483 11.8461 16.5333 12.3979 16.5333C12.9497 16.5333 13.4685 16.7483 13.8591 17.1389Z" fill="#FF7A00"/>
</svg>
