<svg width="35" height="35" viewBox="0 0 35 35" fill="none" xmlns="http://www.w3.org/2000/svg">
<path d="M28.6184 8.10845C25.8916 5.37612 22.3396 3.772 18.5254 3.52755V2.05078H20.0293C20.5956 2.05078 21.0547 1.59168 21.0547 1.02539C21.0547 0.459102 20.5956 0 20.0293 0H14.9708C14.4045 0 13.9454 0.459102 13.9454 1.02539C13.9454 1.59168 14.4045 2.05078 14.9708 2.05078H16.4747V3.52755C13.8594 3.69517 11.3677 4.50215 9.18051 5.87392L8.20646 4.89788C7.73239 4.42285 7.10177 4.16131 6.43069 4.16131C5.7596 4.16131 5.12899 4.42292 4.65499 4.89788L3.17357 6.38251C2.19842 7.35957 2.19842 8.94947 3.17357 9.9266L4.15425 10.9093C2.60639 13.3861 1.77747 16.2525 1.77747 19.2469C1.77747 23.4542 3.41262 27.41 6.38174 30.3853C9.35141 33.3611 13.3 35 17.5001 35C21.7001 35 25.6487 33.3611 28.6184 30.3853C31.5875 27.41 33.2226 23.4542 33.2226 19.2469C33.2226 15.0395 31.5875 11.0837 28.6184 8.10845ZM4.62518 7.83118L6.10666 6.34662C6.22342 6.22966 6.3598 6.21216 6.43076 6.21216C6.50171 6.21216 6.63816 6.22959 6.75492 6.34662L7.49798 7.09119C7.11264 7.41063 6.73995 7.74963 6.38181 8.10852C6.0247 8.46638 5.68735 8.83873 5.36941 9.22373L4.62518 8.478C4.44717 8.29965 4.44717 8.00946 4.62518 7.83118ZM17.5001 32.9492C9.96138 32.9492 3.82825 26.8023 3.82825 19.2469C3.82825 11.6914 9.96138 5.54449 17.5001 5.54449C25.0387 5.54449 31.1719 11.6913 31.1719 19.2469C31.1719 26.8024 25.0387 32.9492 17.5001 32.9492Z" fill="#FF7A00"/>
<path d="M20.0293 18.6551H18.5826V14.5079C18.5826 13.9416 18.1235 13.4825 17.5573 13.4825C16.991 13.4825 16.5319 13.9416 16.5319 14.5079V19.6805C16.5319 20.2468 16.991 20.7059 17.5573 20.7059H20.0293C20.5956 20.7059 21.0547 20.2468 21.0547 19.6805C21.0547 19.1142 20.5956 18.6551 20.0293 18.6551Z" fill="#FF7A00"/>
</svg>
