<svg width="35" height="35" viewBox="0 0 35 35" fill="none" xmlns="http://www.w3.org/2000/svg">
<g clip-path="url(#clip0)">
<path d="M25.1562 33.5417H4.01042C1.79813 33.5417 0 31.7435 0 29.5312V17.1354C0 14.9231 1.79813 13.125 4.01042 13.125H25.1562C27.3685 13.125 29.1667 14.9231 29.1667 17.1354V29.5312C29.1667 31.7435 27.3685 33.5417 25.1562 33.5417ZM4.01042 15.3125C3.00563 15.3125 2.1875 16.1306 2.1875 17.1354V29.5312C2.1875 30.536 3.00563 31.3542 4.01042 31.3542H25.1562C26.161 31.3542 26.9792 30.536 26.9792 29.5312V17.1354C26.9792 16.1306 26.161 15.3125 25.1562 15.3125H4.01042Z" fill="#FF7A00"/>
<path d="M9.11458 24.7917H6.92708C5.51979 24.7917 4.375 23.6469 4.375 22.2396V20.0521C4.375 18.6448 5.51979 17.5 6.92708 17.5H9.11458C10.5219 17.5 11.6667 18.6448 11.6667 20.0521V22.2396C11.6667 23.6469 10.5219 24.7917 9.11458 24.7917ZM6.92708 19.6875C6.72583 19.6875 6.5625 19.8508 6.5625 20.0521V22.2396C6.5625 22.4408 6.72583 22.6042 6.92708 22.6042H9.11458C9.31583 22.6042 9.47917 22.4408 9.47917 22.2396V20.0521C9.47917 19.8508 9.31583 19.6875 9.11458 19.6875H6.92708Z" fill="#FF7A00"/>
<path d="M23.6979 29.1667H5.46875C4.865 29.1667 4.375 28.6767 4.375 28.0729C4.375 27.4692 4.865 26.9792 5.46875 26.9792H23.6979C24.3017 26.9792 24.7917 27.4692 24.7917 28.0729C24.7917 28.6767 24.3017 29.1667 23.6979 29.1667Z" fill="#FF7A00"/>
<path d="M33.1771 9.47913H7.65625C7.0525 9.47913 6.5625 8.98913 6.5625 8.38538C6.5625 7.78163 7.0525 7.29163 7.65625 7.29163H33.1771C33.7808 7.29163 34.2708 7.78163 34.2708 8.38538C34.2708 8.98913 33.7808 9.47913 33.1771 9.47913Z" fill="#FF7A00"/>
<path d="M32.4478 21.4667C32.0672 21.4667 31.6968 21.2669 31.4955 20.9125C31.1966 20.3875 31.3818 19.7196 31.9068 19.4221C32.4726 19.1013 32.811 18.518 32.811 17.8646V5.46879C32.811 4.464 31.9928 3.64587 30.988 3.64587H9.84367C8.83888 3.64587 8.02075 4.464 8.02075 5.46879V9.84379C8.02075 10.4475 7.53075 10.9375 6.927 10.9375C6.32325 10.9375 5.83325 10.4475 5.83325 9.84379V5.46879C5.83325 3.2565 7.63138 1.45837 9.84367 1.45837H30.9895C33.2018 1.45837 34.9999 3.2565 34.9999 5.46879V17.8646C34.9999 19.2953 34.2285 20.6209 32.9874 21.3253C32.8168 21.4215 32.6316 21.4667 32.4478 21.4667Z" fill="#FF7A00"/>
</g>
<defs>
<clipPath id="clip0">
<rect width="35" height="35" fill="white"/>
</clipPath>
</defs>
</svg>
