<svg width="35" height="35" viewBox="0 0 35 35" fill="none" xmlns="http://www.w3.org/2000/svg">
<g clip-path="url(#clip0)">
<path d="M27.3243 11.29L29.2317 10.1773C25.1048 3.0879 16.2098 0.379592 8.83235 3.96632V1.25208H6.62476V7.87487H13.2475V5.66727H10.4273C16.6719 3.01836 23.912 5.42761 27.3243 11.29Z" fill="#FF7A00"/>
<path d="M7.17656 28.4893C2.05859 24.3327 0.711544 17.0773 3.99652 11.3606L2.08253 10.2568C-1.66424 16.7813 -0.246553 25.0477 5.46015 29.9508H2.76137V32.1584H9.38416V25.5356H7.17656V28.4893Z" fill="#FF7A00"/>
<path d="M30.3166 15.1246L25.6343 19.8081L27.195 21.3688L29.0715 19.4924C28.3355 26.3311 22.5728 31.5213 15.6946 31.5403V33.7479C23.8896 33.7264 30.6879 27.4018 31.3001 19.2297L33.4392 21.3688L35 19.8081L30.3166 15.1246Z" fill="#FF7A00"/>
</g>
<defs>
<clipPath id="clip0">
<rect width="35" height="35" fill="white"/>
</clipPath>
</defs>
</svg>
