<svg width="67" height="67" viewBox="0 0 67 67" fill="none" xmlns="http://www.w3.org/2000/svg">
<path fill-rule="evenodd" clip-rule="evenodd" d="M12.23 13.7983L22.2876 15.2659L25.6325 27.0525L13.771 26.7683L9.8044 17.0036L7.28562 15.1797C6.31334 15.7005 5.16374 15.9028 4.00184 15.6744C1.32602 15.1484 -0.433117 12.5359 0.093068 9.85917C0.619123 7.18336 3.23173 5.42409 5.90833 5.9504C8.58414 6.47659 10.3434 9.08907 9.81697 11.7657C9.80074 11.8485 9.78242 11.9303 9.76214 12.0113L12.23 13.7983ZM51.181 53.871C53.737 53.871 55.8092 55.9431 55.8092 58.4992C55.8092 61.0553 53.737 63.1274 51.181 63.1274C48.6249 63.1274 46.5527 61.0553 46.5527 58.4992C46.5527 55.9431 48.6249 53.871 51.181 53.871ZM27.3095 53.871C29.8655 53.871 31.9377 55.9431 31.9377 58.4992C31.9377 61.0553 29.8655 63.1274 27.3095 63.1274C24.7534 63.1274 22.6812 61.0553 22.6812 58.4992C22.6814 55.9431 24.7534 53.871 27.3095 53.871ZM24.0458 44.7239L30.4112 43.8911L26.7787 31.0911L15.4164 30.8188L20.1894 42.5683C19.8424 42.9653 19.5469 43.4171 19.3102 43.9182C17.5074 47.7345 20.3353 52.0638 24.5307 52.0638H56.064C57.1754 52.0638 58.0762 51.1628 58.0762 50.0516C58.0762 48.9402 57.1752 48.0394 56.064 48.0394H24.5305C23.8872 48.0394 23.3722 47.7643 23.0336 47.2249C22.4041 46.2219 22.9915 44.9703 24.0458 44.7239ZM26.643 15.9015L34.6477 17.0695C34.4506 20.7023 35.3605 24.2585 37.1744 27.329L29.8362 27.1532L26.643 15.9015ZM56.5001 35.8696C54.1609 38.6643 50.9386 40.7208 47.1882 41.6042L46.09 34.9481C49.3862 36.2654 52.9902 36.6009 56.5001 35.8696ZM43.2209 42.2149L41.597 32.3713C41.209 32.0685 40.8347 31.7508 40.4748 31.4192L30.9823 31.1917L34.4369 43.3643L43.2209 42.2149Z" fill="white"/>
<path d="M39 17C39 24.7315 45.2679 31 52.9987 31C56.8641 31 60.3637 29.4329 62.897 26.8995C67.2649 22.5312 68.2731 15.7795 65.3041 10.3206L53.9384 21.6874C53.1624 22.4634 51.9044 22.4634 51.1284 21.6874L47.1543 17.7129C46.3783 16.9368 46.3783 15.6787 47.1543 14.9026C47.9303 14.1266 49.1882 14.1266 49.9642 14.9026L52.5335 17.4721L62.9004 7.10415C60.3973 4.57293 56.8398 3 52.9987 3C45.2679 3 39 9.26846 39 17Z" fill="#FF7A00"/>
</svg>
