<svg width="75" height="75" viewBox="0 0 75 75" fill="none" xmlns="http://www.w3.org/2000/svg">
<path d="M54.4716 17.7669C52.4907 15.6177 49.4477 15.3436 47.065 17.0986L26.278 32.1756C25.549 32.599 24.9802 32.908 24.4103 33.0345C24.3439 33.0482 24.2804 33.0608 24.2203 33.0722C24.4275 32.3804 24.6872 31.5696 24.9425 30.7765C25.8866 27.8337 26.2917 26.4833 26.3049 25.5723C26.4044 23.7213 26.3266 21.3283 24.9087 19.1196L24.8972 19.1019C24.1265 17.926 22.6056 16.8285 21.2798 16.4926C19.8441 16.1287 18.6156 16.2603 17.6285 16.884C16.6684 17.4911 16.043 18.4873 15.7706 19.8452C15.1097 22.9299 13.9327 26.1096 12.172 29.5658C11.8704 30.146 11.574 30.8149 11.2868 31.4626C10.9229 32.2843 10.5464 33.1346 10.1864 33.7423L10.167 33.776C8.78053 36.2176 8.42806 38.5231 8.27699 40.25C8.27013 40.3226 7.56174 47.5645 3.87216 53.6561C2.06743 56.6562 2.54121 60.5031 5.03145 63.0186L15.6556 73.6427L15.7546 73.736C16.7044 74.5748 17.9055 75 19.1042 75C20.1296 75 21.1527 74.6887 22.0128 74.0575L23.1904 73.2055C23.7917 72.7701 24.4246 72.3649 25.0826 71.9942C26.3323 71.2903 27.6095 70.7376 28.8798 70.3496C34.528 68.6256 39.9743 65.3446 43.574 62.8744C44.6709 62.2295 45.4051 61.1177 45.6477 59.7272L45.6637 59.6191C46.9317 49.3629 43.8155 40.5487 42.3724 37.1469L54.1358 25.387C56.2214 23.2996 56.3948 20.0569 54.5392 17.8442L54.4716 17.7669Z" fill="white"/>
<path d="M60.6777 11.1442C55.7711 6.23757 47.7865 6.23757 42.8799 11.1442C42.021 12.0031 42.021 13.3953 42.8799 14.2536C43.7382 15.1119 45.1304 15.1119 45.9887 14.2536C49.1816 11.0613 54.376 11.0613 57.5689 14.2536C60.7613 17.4465 60.7613 22.641 57.5689 25.8339C56.7101 26.6922 56.7101 28.0843 57.5689 28.9426C57.9981 29.3718 58.5606 29.5869 59.1236 29.5869C59.6861 29.5869 60.2486 29.3718 60.6777 28.9426C65.5849 24.0354 65.5849 16.0514 60.6777 11.1442Z" fill="#FF7A00"/>
<path d="M66.323 5.96695C62.4755 2.11887 57.3595 0 51.9172 0C46.4756 0 41.3595 2.11887 37.5114 5.96695C36.6531 6.82583 36.6531 8.21743 37.5114 9.07631C38.3703 9.93462 39.7619 9.93462 40.6208 9.07631C43.6386 6.05907 47.6503 4.39682 51.9172 4.39682C56.1847 4.39682 60.1965 6.05907 63.2143 9.07631C69.4433 15.3053 69.4433 25.4402 63.2143 31.6692C62.3554 32.5281 62.3554 33.9197 63.2143 34.7786C63.6434 35.2077 64.2059 35.4223 64.7684 35.4223C65.3308 35.4223 65.8939 35.2077 66.323 34.7786C74.2664 26.8353 74.2664 13.9103 66.323 5.96695Z" fill="#FF7A00"/>
</svg>
