<svg width="69" height="69" viewBox="0 0 69 69" fill="none" xmlns="http://www.w3.org/2000/svg">
<g clip-path="url(#clip0)">
<path d="M67.5854 0.00858559C54.1161 -0.232914 38.7549 6.80796 29.0317 17.7301C19.7397 17.9055 10.6921 21.7148 4.03069 28.3762C3.64256 28.7586 3.50456 29.3307 3.67419 29.8482C3.84669 30.3686 4.29519 30.7452 4.83569 30.8228L15.9159 32.4098L14.5474 33.9422C14.0386 34.5115 14.0644 35.3768 14.6049 35.9173L33.0826 54.395C33.3614 54.6738 33.7294 54.8147 34.1003 54.8147C34.4424 54.8147 34.7846 54.694 35.0577 54.4496L36.5901 53.0811L38.1771 64.1613C38.2547 64.7018 38.6802 65.0986 39.1948 65.2711C39.3271 65.3142 39.4651 65.3343 39.6059 65.3343C40.0142 65.3343 40.4311 65.1561 40.7186 64.8715C47.2879 58.3021 51.0973 49.2545 51.2727 39.9625C62.2063 30.2191 69.3047 14.8637 68.9913 1.41159C68.9712 0.646836 68.3531 0.0287106 67.5854 0.00858559ZM54.3374 24.8256C52.9373 26.2257 51.0973 26.9272 49.2544 26.9272C47.4116 26.9272 45.5716 26.2257 44.1714 24.8256C41.3712 22.0225 41.3712 17.4627 44.1714 14.6596C46.9746 11.8565 51.5343 11.8565 54.3374 14.6596C57.1406 17.4627 57.1406 22.0253 54.3374 24.8256Z" fill="white"/>
<path d="M7.83142 48.6018C4.75517 51.6781 0.531796 65.5759 0.0602959 67.1485C-0.0920791 67.6545 0.0487959 68.2036 0.419671 68.5774C0.695671 68.8534 1.0608 69 1.43742 69C1.57542 69 1.71342 68.9799 1.85142 68.9396C3.42405 68.4681 17.3218 64.2447 20.398 61.1685C23.8624 57.7041 23.8624 52.0662 20.398 48.6018C16.9308 45.1375 11.2958 45.1403 7.83142 48.6018Z" fill="#FF7A00"/>
</g>
<defs>
<clipPath id="clip0">
<rect width="69" height="69" fill="white"/>
</clipPath>
</defs>
</svg>
