<svg width="68" height="68" viewBox="0 0 68 68" fill="none" xmlns="http://www.w3.org/2000/svg">
<path d="M34.0012 0C17.5981 0 4.30273 13.2954 4.30273 29.6985C4.30273 40.9197 10.5228 50.6727 19.6984 55.7262L19.3492 68L33.3621 59.3637C33.5736 59.3684 33.785 59.3969 34.0012 59.3969C50.4043 59.3969 63.6997 46.1015 63.6997 29.6985C63.6997 13.2954 50.4043 0 34.0012 0ZM37.7836 47.0044H30.1737V22.5091H37.7836V47.0044ZM33.9276 19.5083C31.5208 19.5083 29.9195 17.8025 29.9717 15.6974C29.9218 13.495 31.5208 11.839 33.9775 11.839C36.4317 11.839 37.9903 13.495 38.0402 15.6974C38.0378 17.8025 36.427 19.5083 33.9276 19.5083Z" fill="white"/>
</svg>
