<?xml version="1.0" encoding="UTF-8"?>
<!DOCTYPE svg PUBLIC "-//W3C//DTD SVG 1.1//EN" "http://www.w3.org/Graphics/SVG/1.1/DTD/svg11.dtd">
<!-- Creator: CorelDRAW 2019 (64-Bit) -->
<svg xmlns="http://www.w3.org/2000/svg" xml:space="preserve" width="72.4593mm" height="68.474mm" version="1.1" style="shape-rendering:geometricPrecision; text-rendering:geometricPrecision; image-rendering:optimizeQuality; fill-rule:evenodd; clip-rule:evenodd"
viewBox="0 0 7233.16 6835.33"
 xmlns:xlink="http://www.w3.org/1999/xlink"
 xmlns:xodm="http://www.corel.com/coreldraw/odm/2003">
 <defs>
  <style type="text/css">
   <![CDATA[
    .fil2 {fill:#161617}
    .fil0 {fill:#FF7A00}
    .fil3 {fill:#161617;fill-rule:nonzero}
    .fil1 {fill:white;fill-rule:nonzero}
   ]]>
  </style>
 </defs>
 <g id="Слой_x0020_1">
  <metadata id="CorelCorpID_0Corel-Layer"/>
  <path class="fil0" d="M3852.8 1411.86c786.17,0 1464.67,460.84 1780.15,1127.14l980.21 -1017.9c-597.92,-885.96 -1874.48,-1468.55 -2760.36,-1468.55 -885.9,0 -1201.64,172.04 -1699.95,469.54 -500.55,-88.26 -1094.52,-354.28 -1605.79,-103.49 -666.95,460.87 -222.02,1239.4 167.32,1498.07l-3.93 -2.66c-485.65,550.03 -768.98,1404.92 -619.26,1650.09 112.06,125.39 241.23,102.6 319.1,0 -117.75,845.27 23.72,1699.06 236.47,1700.97 141.2,-31.08 242.57,-167.53 278.35,-301.2 206.38,821.23 811.64,1448.73 943.96,1369.64 93.98,-20.67 116.14,-87.93 128.03,-190.31 101.43,95.26 1464.08,969.04 1217.21,503.82 200.94,57.23 420.12,61.19 638.47,61.19 1837.88,0 3327.82,-1489.94 3327.82,-3327.82 0,-127.09 -7.15,-252.55 -21,-375.95 -885.25,1.62 -1775.62,-1.31 -2667.18,-2.53l0 -1.05 -637.25 0.54 -22.16 0 0 0.03 -1146.12 0.95 396.11 669.61 -396.11 669.57 1805.52 0.93 0 -0.21 1078.02 0.21c-337.12,600.55 -979.95,1006.42 -1717.65,1006.42 -1087.21,0 -1968.56,-881.34 -1968.56,-1968.53 0,-1087.22 881.34,-1968.54 1968.56,-1968.54zm-3136.44 506.12c27.34,18.12 13.56,8.94 0,0z"/>
  <path class="fil1" d="M3852.8 1359.31c396.85,0 767.12,114.53 1079.54,312.34 301.52,190.92 549.03,459.43 714.45,777.41l898.86 -933.43c-280.43,-399.59 -702.01,-734.94 -1159.69,-978.44 -516.76,-274.9 -1078.03,-432.09 -1533.16,-432.09 -437.54,0 -733.02,42.09 -979.52,120.54 -246.23,78.37 -447.25,194.37 -693.54,341.41 -11.22,6.71 -23.95,8.73 -35.91,6.64l-0.02 0.14c-119.5,-21.07 -244.98,-52.39 -373.37,-84.43 -397.86,-99.28 -824.9,-205.84 -1196.69,-25.54 -93.51,65.12 -163.41,136.57 -213.34,211.74 -94.76,142.65 -118.17,300.46 -95.81,454.75 22.85,157.66 93.15,312.09 184.33,444.08 85.49,123.71 188.88,227.1 288.56,294.63 2.65,1.69 5.25,3.38 7.77,5.26l15.75 10.36 -2.47 3.72c10.84,16.95 11.38,39.38 -0.44,57.23 -5.7,8.6 -13.5,14.98 -22.27,18.91 -223.25,257.62 -401.83,580.31 -511.79,873.32 -116.16,309.53 -156.31,580.29 -90.17,695.42 11.33,12.25 22.67,22.62 33.92,31.15 31.97,24.27 63.83,34.36 93.24,32.85 29.02,-1.5 56.98,-14.38 81.31,-36.13 9.39,-8.39 18.2,-17.99 26.28,-28.64 17.46,-23.01 50.27,-27.51 73.28,-10.05 15.6,11.84 22.69,30.73 20.19,48.83l0.12 0.02c-27.17,195.04 -40.41,390.05 -42.06,574.38 -2.66,296.58 24.55,566.43 71.82,764.73 42.57,178.54 95.62,292.34 150.27,301.75 52.3,-13.18 98.3,-44.27 135.77,-84.83l2.73 -2.75c44.68,-49.34 77,-112 93.65,-174.24 7.48,-28 36.25,-44.63 64.25,-37.15 19.34,5.16 33.24,20.47 37.54,38.68 68.82,273.5 182.69,525.05 308.15,734.95 116.62,195.14 242.93,353.91 352.1,460.61 98.45,96.21 174.85,147.84 207.23,140.29 4.54,-2.52 9.29,-4.29 14.14,-5.36l-0.03 -0.15c30.99,-6.82 49.51,-20.22 60.73,-39.47 14.31,-24.55 21.26,-60.76 26.45,-105.47 3.28,-28.79 29.3,-49.47 58.09,-46.19 12.25,1.4 23.02,6.91 31.12,14.99 65,59.39 579.44,395.22 922.19,550.17 81.04,36.64 151.12,62.54 200.97,71.08 22,3.77 33.77,13.71 34.3,10.54 1.78,-10.52 -5.5,-31.88 -23.7,-66.19 -13.61,-25.61 -3.86,-57.42 21.75,-71.02 12.95,-6.88 27.48,-7.79 40.45,-3.69 96.27,27.27 197.4,41.95 300.8,49.8 104.74,7.96 213.3,8.92 321.86,8.92 904.42,0 1723.26,-366.61 2315.96,-959.32 592.7,-592.7 959.31,-1411.53 959.31,-2315.95 0,-63.8 -1.7,-125.69 -5.04,-185.56 -2.57,-45.96 -6.13,-91.97 -10.64,-137.97 -627.2,1.03 -1256.97,-0.17 -1887.84,-1.35 -243.89,-0.45 -487.97,-0.94 -732.12,-1.26 -3.56,0 -7.05,-0.36 -10.42,-1.04l-626.82 0.53 0 0.21c-8.92,0 -17.89,0.22 -26.79,-0.18l-1049.63 0.87 349.41 590.67c10.2,17.26 9.37,37.98 -0.37,53.99l-349.02 589.97 1707.01 0.88c2.18,-0.28 4.39,-0.42 6.64,-0.42l4.69 0.21 1073.33 0.21c28.9,0 52.34,23.44 52.34,52.34 0,9.29 -2.43,18.03 -6.68,25.59l0.11 0.06c-175.99,313.51 -433.32,575.41 -743.41,757.11 -299.62,175.55 -648.21,276.2 -1020.01,276.2 -558.1,0 -1063.39,-226.22 -1429.14,-591.96 -365.73,-365.74 -591.97,-871.02 -591.97,-1429.12 0,-558.11 226.22,-1063.39 591.97,-1429.13 365.73,-365.73 871.02,-591.96 1429.14,-591.96zm1023.7 401.02c-296.01,-187.42 -647.11,-295.93 -1023.7,-295.93 -529.1,0 -1008.11,214.45 -1354.83,561.17 -346.72,346.71 -561.18,825.72 -561.18,1354.82 0,529.08 214.47,1008.09 561.18,1354.81 346.72,346.71 825.74,561.17 1354.83,561.17 352.99,0 683.45,-95.27 967.04,-261.43 267.8,-156.91 494.15,-377.13 658.59,-640.13l-981.34 -0.19 -4.66 0.21 -1802.07 -0.93c-10.19,0.69 -20.68,-1.59 -30.14,-7.18 -24.94,-14.73 -33.21,-46.91 -18.48,-71.84l380.33 -642.89 -380.33 -642.93 0.1 -0.06c-4.62,-7.8 -7.28,-16.9 -7.28,-26.62 0,-28.9 23.44,-52.34 52.34,-52.34l1141.06 -0.95 5.06 -0.24 22.16 0 0 0.21 632.52 -0.54 4.72 -0.21c3.96,0 7.82,0.44 11.53,1.28l720.59 1.24c645.52,1.21 1289.88,2.44 1931.52,1.28 27.9,-1.91 52.59,18.53 55.68,46.58 7.01,62.44 12.35,125.95 15.95,190.38 3.61,64.86 5.46,128.67 5.46,191.31 0,933.44 -378.37,1778.54 -990.09,2390.26 -611.73,611.73 -1456.83,990.1 -2390.27,990.1 -109.78,0 -220.01,-1.02 -329.67,-9.34 -77.09,-5.86 -153.21,-15.34 -227.57,-30.62 1.48,12.5 1.29,23.91 -0.47,34.3 -11.81,69.82 -68.41,90.59 -155.41,75.67 -59.17,-10.15 -137.76,-38.81 -226.42,-78.89 -291.75,-131.89 -708.28,-394.86 -879.79,-515.67 -6.02,21.48 -13.81,41.17 -24.24,59.07 -25.42,43.59 -63.23,73.61 -122.52,88.08 -5.54,2.57 -11.27,4.59 -17.17,6.08 -67.85,17.05 -180.88,-44.45 -306.17,-166.9 -114.96,-112.36 -247.4,-278.62 -368.93,-481.95 -108.28,-181.16 -208.24,-392.15 -279.94,-621.18 -16.49,26.87 -35.43,52.42 -56.59,75.74l-2.71 3.18c-53.02,57.37 -119.72,101.03 -197.16,118.06l-0.04 -0.2c-3.75,0.83 -7.66,1.25 -11.66,1.22 -5.28,-0.04 -10.24,-0.36 -14.88,-0.92l-2.19 -0.25c-102.82,-14.32 -186.28,-158.35 -239.52,-381.63 -48.88,-205.06 -77.02,-483.76 -74.28,-789.77 1.34,-149.12 9.97,-304.54 27.08,-460.83 -24.19,10.4 -49.77,16.54 -76.21,17.91 -53.21,2.74 -108.69,-13.89 -161.79,-54.19 -17.12,-12.98 -33.89,-28.37 -50.13,-46.25 -3,-2.95 -5.7,-6.32 -8,-10.08 -86.02,-140.86 -48.58,-448.81 79.5,-790.11 110.03,-293.2 286.66,-615.39 507.54,-878.12 -95.19,-73.07 -190.53,-173.14 -270.76,-289.24 -99.67,-144.27 -176.66,-314.1 -201.98,-488.84 -25.82,-178.12 1.67,-360.98 112.22,-527.4 57.59,-86.69 137.65,-168.49 244.33,-242.2 2.15,-1.42 4.4,-2.74 6.78,-3.9 407.14,-199.72 854.61,-88.04 1271.41,15.97 118.9,29.67 235.24,58.72 347.54,79.39 244.3,-145.63 446.82,-260.93 698.66,-341.09 257.41,-81.93 562.78,-125.87 1011.13,-125.87 471.63,0 1050.94,161.65 1582.44,444.41 484.81,257.92 931.17,617.24 1221.43,1047.34 13.49,20.08 11.71,47.55 -5.74,65.68l-979.07 1016.72c-4.51,5 -10.06,9.21 -16.54,12.27 -26.18,12.35 -57.44,1.14 -69.79,-25.05 -156.01,-329.52 -403.24,-607.41 -709.03,-801.04z"/>
  <path class="fil2" d="M2187.99 5206.04c-261.33,503.08 -684.67,-182.28 -754.25,-843.63 -635.12,486.27 -449.6,-847.87 -294.29,-1231.68 -505.71,44.09 -237.2,-615.84 88.15,-1044.78 -374.73,390.58 -814.14,1267.3 -233.75,1216.72 -155.3,383.8 -340.82,1717.95 294.3,1231.68 69.58,661.35 492.92,1346.71 754.25,843.63 285.19,293.01 816.98,860.93 965.52,563.03 647.76,238.04 1920.76,251.58 2903.1,-760.99 -792.82,686.08 -1758.67,943.31 -2757.51,589.08 -148.54,297.86 -680.33,-270.05 -965.52,-563.07z"/>
  <path class="fil2" d="M947.98 605.58c-234.39,286.22 -207.35,734.34 143.88,1089.04 43.28,-70.4 87.64,-131.08 130.42,-176.96 -294.37,-284.99 -374.64,-634.45 -274.3,-912.08z"/>
  <path class="fil3" d="M3259.96 3560.85l511.71 0c40.92,0 61.44,-13.69 61.44,-41.2l0 -20.67c0,-27.51 -20.52,-41.2 -61.44,-41.2l-511.71 0 0.42 -122.33 511.15 0c149.99,0 224.98,54.6 224.98,163.81l0 20.39c0,42.32 -11.31,76.4 -33.94,102.37 22.63,25.97 33.94,60.05 33.94,102.37l0 20.38c0,109.22 -75,163.82 -224.98,163.82l-511.57 0 0 -347.75zm511.71 122.34l-348.31 0 0 103.06 348.31 0c40.92,0 61.44,-13.69 61.44,-41.2l0 -20.66c0,-27.51 -20.52,-41.2 -61.44,-41.2zm464.02 -347.75l245.52 0c163.68,0 245.52,68.29 245.52,204.74l0 204.59c0,109.22 -81.84,163.82 -245.52,163.82l-245.52 0c-163.68,0 -245.52,-68.29 -245.52,-204.74l0 -163.67c0,-136.45 81.84,-204.74 245.52,-204.74zm245.66 122.33l-245.8 0c-54.6,0 -81.98,27.37 -81.98,82.13l0 164.23c0,54.74 27.37,82.12 81.98,82.12l245.8 0c54.6,0 81.98,-27.37 81.98,-82.12l0 -164.23c0,-54.75 -27.37,-82.13 -81.98,-82.13zm484.55 -122.33l245.52 0c163.68,0 245.52,68.29 245.52,204.74l0 204.59c0,109.22 -81.84,163.82 -245.52,163.82l-245.52 0c-163.68,0 -245.52,-68.29 -245.52,-204.74l0 -163.67c0,-136.45 81.84,-204.74 245.52,-204.74zm245.66 122.33l-245.8 0c-54.6,0 -81.98,27.37 -81.98,82.13l0 164.23c0,54.74 27.37,82.12 81.98,82.12l245.8 0c54.6,0 81.98,-27.37 81.98,-82.12l0 -164.23c0,-54.75 -27.37,-82.13 -81.98,-82.13zm464.16 225.41c-150.13,0 -225.12,-54.61 -225.12,-163.68l0 -20.39c0,-109.07 75,-163.67 224.98,-163.67l511.57 0 0 122.33 -511.71 0c-40.92,0 -61.44,13.69 -61.44,41.2l0 20.67c0,27.51 20.52,41.2 61.44,41.2l286.58 0c150.13,0 225.12,54.6 225.12,163.68l0 20.38c0,109.08 -75,163.68 -225.12,163.68l-511.43 0 -0.42 -122.34 512.13 0c40.92,0 61.44,-13.69 61.44,-41.2l0 -20.66c0,-27.51 -20.52,-41.2 -61.44,-41.2l-286.58 0zm955.06 -225.41l0 450.81 -163.4 0 0 -450.81 -286.43 0 0 -122.33 736.27 0 0 122.33 -286.43 0z"/>
 </g>
</svg>
