<svg width="18" height="16" viewBox="0 0 18 16" fill="none" xmlns="http://www.w3.org/2000/svg">
<path d="M17.7527 1.00949L10.3715 8.51227C9.9933 8.89671 9.49672 9.08879 9 9.08879C8.50328 9.08879 8.0067 8.89671 7.62863 8.51227L0.24733 1.00949C0.0902252 1.29426 0 1.62216 0 1.97128V14.0285C0 15.1155 0.86998 16 1.9395 16H16.0606C17.13 16 18 15.1155 18 14.0285V1.97128C18 1.62216 17.9098 1.29426 17.7527 1.00949Z" fill="#6F6F79"/>
<path d="M9.62567 7.75432L17.0068 0.251405C16.7267 0.0915722 16.404 0 16.0606 0H1.9395C1.59604 0 1.27332 0.0915722 0.993164 0.251405L8.37433 7.75432C8.71944 8.10497 9.2807 8.10497 9.62567 7.75432Z" fill="#6F6F79"/>
</svg>
