<svg width="28" height="28" viewBox="0 0 28 28" fill="none" xmlns="http://www.w3.org/2000/svg">
<path d="M27.6153 3.34961L16.1335 14.8314C15.5451 15.4197 14.7727 15.7137 14 15.7137C13.2273 15.7137 12.4549 15.4197 11.8668 14.8314L0.384735 3.34961C0.14035 3.7854 0 4.2872 0 4.82147V23.2732C0 24.9366 1.3533 26.2902 3.017 26.2902H24.9832C26.6467 26.2902 28 24.9366 28 23.2732V4.82147C28 4.2872 27.8596 3.7854 27.6153 3.34961Z" fill="white"/>
<path d="M14.9733 13.6714L26.4551 2.18942C26.0193 1.94482 25.5173 1.80469 24.9832 1.80469H3.017C2.48273 1.80469 1.98071 1.94482 1.54492 2.18942L13.0267 13.6714C13.5636 14.2081 14.4366 14.2081 14.9733 13.6714Z" fill="white"/>
</svg>
