<svg width="140" height="16" viewBox="0 0 140 16" fill="none" xmlns="http://www.w3.org/2000/svg">
<path d="M0 2C0 0.895431 0.895431 0 2 0H22C23.1046 0 24 0.895431 24 2V14C24 15.1046 23.1046 16 22 16H2C0.89543 16 0 15.1046 0 14V2Z" fill="#FDEACE"/>
<path d="M14.504 3.26367L9.33948 3.28142L9.49598 12.7364L14.6605 12.7186L14.504 3.26367Z" fill="#FF5F00"/>
<path d="M9.67938 8.02793C9.64743 6.10488 10.5089 4.39617 11.8582 3.28782C10.8397 2.48859 9.56287 2.00799 8.17872 2.01273C4.8996 2.02397 2.29139 4.72533 2.34669 8.05305C2.40199 11.3807 5.09969 14.0639 8.3788 14.0527C9.76295 14.0479 11.0237 13.5587 12.0155 12.7525C10.6298 11.6703 9.71134 9.95099 9.67938 8.02793Z" fill="#EB001B"/>
<path d="M21.6533 7.94698C21.7086 11.2747 19.1004 13.976 15.8213 13.9873C14.4371 13.992 13.1602 13.5114 12.1417 12.7122C13.5076 11.6038 14.3525 9.89515 14.3206 7.97209C14.2886 6.04904 13.3705 4.34642 11.9845 3.24744C12.9763 2.44133 14.237 1.95204 15.6212 1.9473C18.9003 1.93607 21.5983 4.63598 21.6533 7.94698Z" fill="#F79E1B"/>
<path d="M29 2C29 0.895431 29.8954 0 31 0H51C52.1046 0 53 0.895431 53 2V14C53 15.1046 52.1046 16 51 16H31C29.8954 16 29 15.1046 29 14V2Z" fill="#E4E5E7"/>
<path d="M32.6275 5.22576C32.6275 5.12094 32.5901 5.03925 32.5152 4.98071C32.4417 4.92218 32.3117 4.86159 32.1252 4.79897C31.9387 4.73635 31.7862 4.67577 31.6678 4.61723C31.2825 4.428 31.0898 4.16797 31.0898 3.83716C31.0898 3.67243 31.1375 3.52744 31.2328 3.4022C31.3295 3.27559 31.4656 3.17757 31.6412 3.10814C31.8168 3.03735 32.0142 3.00195 32.2334 3.00195C32.4471 3.00195 32.6384 3.04007 32.8072 3.11631C32.9774 3.19254 33.1095 3.30146 33.2034 3.44304C33.2973 3.58326 33.3443 3.7439 33.3443 3.92497H32.6296C32.6296 3.8038 32.5921 3.70987 32.5173 3.64316C32.4437 3.57645 32.3437 3.5431 32.2171 3.5431C32.0891 3.5431 31.9877 3.57169 31.9128 3.62887C31.8393 3.68468 31.8025 3.75616 31.8025 3.84328C31.8025 3.91952 31.8434 3.98895 31.9251 4.05157C32.0067 4.11284 32.1504 4.17682 32.3559 4.24353C32.5615 4.30887 32.7303 4.37967 32.8624 4.4559C33.1836 4.64105 33.3443 4.89631 33.3443 5.22168C33.3443 5.4817 33.2463 5.68591 33.0502 5.8343C32.8542 5.98269 32.5853 6.05688 32.2436 6.05688C32.0026 6.05688 31.7841 6.014 31.5881 5.92823C31.3934 5.84111 31.2464 5.72267 31.147 5.57291C31.049 5.4218 31 5.24823 31 5.05219H31.7188C31.7188 5.21147 31.7597 5.32923 31.8413 5.40546C31.9244 5.48034 32.0585 5.51778 32.2436 5.51778C32.3621 5.51778 32.4553 5.49259 32.5234 5.44222C32.5928 5.39049 32.6275 5.31834 32.6275 5.22576Z" fill="#0058E0"/>
<path d="M35.4006 5.46078H34.4184L34.2469 6.01622H33.4811L34.5715 3.04297H35.2454L36.3441 6.01622H35.5742L35.4006 5.46078ZM34.5899 4.90738H35.2291L34.9085 3.87614L34.5899 4.90738Z" fill="#0058E0"/>
<path d="M37.504 3.04297L38.1677 5.11159L38.8293 3.04297H39.7727V6.01622H39.0539V5.32192L39.1233 3.90064L38.4046 6.01622H37.9308L37.21 3.8986L37.2794 5.32192V6.01622H36.5626V3.04297H37.504Z" fill="#0058E0"/>
<path d="M41.7637 5.22576C41.7637 5.12094 41.7263 5.03925 41.6514 4.98071C41.5779 4.92218 41.4479 4.86159 41.2614 4.79897C41.0749 4.73635 40.9224 4.67577 40.804 4.61723C40.4187 4.428 40.2261 4.16797 40.2261 3.83716C40.2261 3.67243 40.2737 3.52744 40.369 3.4022C40.4657 3.27559 40.6018 3.17757 40.7774 3.10814C40.953 3.03735 41.1504 3.00195 41.3696 3.00195C41.5834 3.00195 41.7746 3.04007 41.9434 3.11631C42.1136 3.19254 42.2457 3.30146 42.3396 3.44304C42.4335 3.58326 42.4805 3.7439 42.4805 3.92497H41.7658C41.7658 3.8038 41.7283 3.70987 41.6535 3.64316C41.5799 3.57645 41.4799 3.5431 41.3533 3.5431C41.2253 3.5431 41.1239 3.57169 41.049 3.62887C40.9755 3.68468 40.9387 3.75616 40.9387 3.84328C40.9387 3.91952 40.9796 3.98895 41.0613 4.05157C41.1429 4.11284 41.2866 4.17682 41.4921 4.24353C41.6977 4.30887 41.8665 4.37967 41.9986 4.4559C42.3199 4.64105 42.4805 4.89631 42.4805 5.22168C42.4805 5.4817 42.3825 5.68591 42.1864 5.8343C41.9904 5.98269 41.7215 6.05688 41.3798 6.05688C41.1389 6.05688 40.9204 6.014 40.7243 5.92823C40.5296 5.84111 40.3826 5.72267 40.2832 5.57291C40.1852 5.4218 40.1362 5.24823 40.1362 5.05219H40.855C40.855 5.21147 40.8959 5.32923 40.9775 5.40546C41.0606 5.48034 41.1947 5.51778 41.3798 5.51778C41.4983 5.51778 41.5915 5.49259 41.6596 5.44222C41.729 5.39049 41.7637 5.31834 41.7637 5.22576Z" fill="#0058E0"/>
<path d="M45.1801 3.04297V4.98906C45.1801 5.20961 45.1331 5.40088 45.0392 5.56288C44.9453 5.72353 44.8105 5.84605 44.6349 5.93046C44.4593 6.01486 44.2517 6.05706 44.012 6.05706C43.6499 6.05706 43.3647 5.96313 43.1564 5.77526C42.9481 5.58739 42.8419 5.33009 42.8379 5.00336V3.04297H43.5587V5.01765C43.5669 5.34302 43.718 5.50571 44.012 5.50571C44.1604 5.50571 44.2728 5.46486 44.349 5.38318C44.4252 5.3015 44.4633 5.16876 44.4633 4.98498V3.04297H45.1801Z" fill="#0058E0"/>
<path d="M48.1125 6.01622H47.3998L46.3461 4.16611V6.01622H45.6294V3.04297H46.3461L47.3978 4.89309V3.04297H48.1125V6.01622Z" fill="#0058E0"/>
<path d="M51 5.64856C50.8897 5.77108 50.7284 5.86978 50.516 5.94466C50.3037 6.01954 50.0709 6.05697 49.8176 6.05697C49.4283 6.05697 49.1172 5.93785 48.8844 5.69961C48.6516 5.46137 48.5271 5.12988 48.5107 4.70513L48.5087 4.44783C48.5087 4.15513 48.5604 3.89987 48.6639 3.68205C48.7673 3.46287 48.915 3.29474 49.107 3.17766C49.3003 3.05922 49.5236 3 49.7768 3C50.1471 3 50.4343 3.08509 50.6386 3.25526C50.8441 3.42407 50.9639 3.6766 50.998 4.01287H50.3077C50.2832 3.84678 50.2301 3.72834 50.1485 3.65755C50.0668 3.58675 49.9511 3.55136 49.8013 3.55136C49.6216 3.55136 49.4827 3.6276 49.3847 3.78007C49.2867 3.93254 49.237 4.15036 49.2357 4.43353V4.61323C49.2357 4.91001 49.286 5.13328 49.3868 5.28303C49.4889 5.43142 49.6488 5.50562 49.8667 5.50562C50.0532 5.50562 50.192 5.46409 50.2832 5.38105V4.91954H49.785V4.4274H51V5.64856Z" fill="#0058E0"/>
<path d="M41.8019 10.9002V12.6149H41V8H42.7655C43.281 8 43.6899 8.13418 43.9921 8.40254C44.2964 8.67089 44.4485 9.02588 44.4485 9.46751C44.4485 9.9197 44.2995 10.2715 44.0016 10.523C43.7058 10.7744 43.2905 10.9002 42.7559 10.9002H41.8019ZM41.8019 10.2567H42.7655C43.0507 10.2567 43.2684 10.1902 43.4184 10.0571C43.5684 9.92182 43.6434 9.72742 43.6434 9.47385C43.6434 9.22451 43.5674 9.02588 43.4152 8.87797C43.2631 8.72795 43.0539 8.65082 42.7876 8.64659H41.8019V10.2567Z" fill="black"/>
<path d="M47.0887 12.6149C47.0549 12.5494 47.0254 12.4427 47 12.2948C46.7549 12.5504 46.4548 12.6783 46.0998 12.6783C45.7554 12.6783 45.4744 12.58 45.2567 12.3835C45.0391 12.187 44.9303 11.944 44.9303 11.6545C44.9303 11.289 45.0655 11.009 45.336 10.8146C45.6086 10.6181 45.9974 10.5198 46.5024 10.5198H46.9746V10.2948C46.9746 10.1173 46.925 9.97574 46.8257 9.87009C46.7264 9.76232 46.5753 9.70844 46.3724 9.70844C46.197 9.70844 46.0534 9.75281 45.9414 9.84156C45.8294 9.9282 45.7734 10.0391 45.7734 10.1743H45.0032C45.0032 9.98631 45.0655 9.81092 45.1902 9.64822C45.3148 9.4834 45.4839 9.3545 45.6973 9.26153C45.9128 9.16856 46.1527 9.12207 46.4168 9.12207C46.8183 9.12207 47.1384 9.22349 47.3772 9.42635C47.616 9.62709 47.7385 9.91024 47.7448 10.2758V11.8225C47.7448 12.131 47.7882 12.3772 47.8748 12.561V12.6149H47.0887ZM46.2425 12.0602C46.3946 12.0602 46.5372 12.0232 46.6704 11.9493C46.8056 11.8753 46.907 11.776 46.9746 11.6513V11.0048H46.5594C46.2742 11.0048 46.0597 11.0544 45.916 11.1537C45.7723 11.253 45.7005 11.3936 45.7005 11.5753C45.7005 11.7232 45.7491 11.8415 45.8463 11.9303C45.9456 12.0169 46.0777 12.0602 46.2425 12.0602Z" fill="black"/>
<path d="M49.7005 11.5118L50.3978 9.1853H51.2187L49.8558 13.1346C49.6466 13.7115 49.2916 13.9999 48.7908 13.9999C48.6788 13.9999 48.5552 13.9809 48.42 13.9428V13.347L48.5658 13.3565C48.7602 13.3565 48.906 13.3206 49.0032 13.2487C49.1025 13.179 49.1807 13.0607 49.2377 12.8937L49.3487 12.5989L48.1442 9.1853H48.9746L49.7005 11.5118Z" fill="black"/>
<path d="M58 2C58 0.895431 58.8954 0 60 0H80C81.1046 0 82 0.895431 82 2V14C82 15.1046 81.1046 16 80 16H60C58.8954 16 58 15.1046 58 14V2Z" fill="#D8E3F3"/>
<path d="M78.655 5.01758H77.3977C77.0175 5.01758 76.7251 5.13454 76.5497 5.51465L74.152 10.9825H75.848C75.848 10.9825 76.1404 10.2515 76.1988 10.0761C76.3743 10.0761 78.0409 10.0761 78.2749 10.0761C78.3333 10.2808 78.4795 10.9533 78.4795 10.9533H80L78.655 5.01758ZM76.6667 8.84799C76.8129 8.49711 77.3099 7.18132 77.3099 7.18132C77.3099 7.21056 77.4561 6.83044 77.5146 6.62576L77.6316 7.15208C77.6316 7.15208 77.9532 8.58483 78.0117 8.87723H76.6667V8.84799Z" fill="#3362AB"/>
<path d="M74.269 9.0235C74.269 10.2515 73.1579 11.0703 71.4328 11.0703C70.7018 11.0703 70 10.9241 69.6199 10.7486L69.8538 9.40361L70.0585 9.49133C70.5848 9.72525 70.9357 9.81297 71.579 9.81297C72.0468 9.81297 72.5439 9.63753 72.5439 9.22817C72.5439 8.96502 72.3392 8.78958 71.6959 8.49718C71.0819 8.20478 70.2632 7.73695 70.2632 6.88899C70.2632 5.7194 71.4035 4.92993 73.0117 4.92993C73.6257 4.92993 74.1521 5.04689 74.4737 5.19309L74.2398 6.47964L74.1228 6.36268C73.8304 6.24572 73.4503 6.12876 72.8947 6.12876C72.2807 6.158 71.9883 6.42116 71.9883 6.65508C71.9883 6.91823 72.3392 7.12291 72.8947 7.38607C73.8304 7.82467 74.269 8.32174 74.269 9.0235Z" fill="#3362AB"/>
<path d="M60 5.07594L60.0292 4.95898H62.5439C62.8947 4.95898 63.1579 5.07593 63.2456 5.45605L63.8012 8.08763C63.2456 6.68412 61.9591 5.54377 60 5.07594Z" fill="#F9B50B"/>
<path d="M67.3392 5.01752L64.7953 10.9532H63.0701L61.6082 5.98243C62.6608 6.65495 63.538 7.70758 63.8596 8.43857L64.0351 9.05261L65.614 4.98828H67.3392V5.01752Z" fill="#3362AB"/>
<path d="M68.0117 4.98828H69.6199L68.5965 10.9532H66.9883L68.0117 4.98828Z" fill="#3362AB"/>
<path d="M87 2C87 0.895431 87.8954 0 89 0H109C110.105 0 111 0.895431 111 2V14C111 15.1046 110.105 16 109 16H89C87.8954 16 87 15.1046 87 14V2Z" fill="#E6E6E6"/>
<path d="M105.605 12.5644C106.527 12.5644 106.961 12.2127 107.34 11.1465L109 6.49001H108.039L106.926 10.0926H106.906L105.793 6.49489H104.804L106.406 10.927L106.32 11.1965C106.259 11.5824 105.913 11.8577 105.523 11.8292C105.449 11.8292 105.304 11.8215 105.246 11.8138V12.5457C105.365 12.5619 105.485 12.5697 105.605 12.5692V12.5644ZM102.402 10.2325C101.898 10.2325 101.578 9.98848 101.578 9.61928C101.578 9.23666 101.886 9.01384 102.476 8.97846L103.527 8.91219V9.25618C103.504 9.82299 103.025 10.2642 102.459 10.241C102.439 10.2402 102.421 10.2386 102.402 10.2369V10.2325ZM102.148 10.955C102.72 10.9705 103.255 10.6724 103.543 10.1776H103.562V10.9095H104.437V7.87818C104.437 6.99909 103.734 6.43268 102.652 6.43268C101.648 6.43268 100.906 7.00681 100.878 7.79604H101.73C101.832 7.39472 102.213 7.13001 102.625 7.17474C103.203 7.17474 103.527 7.44432 103.527 7.94039V8.27625L102.348 8.34659C101.25 8.41287 100.656 8.86217 100.656 9.64368C100.656 10.4362 101.269 10.9595 102.148 10.9595L102.148 10.955ZM97.0774 5.61499H98.1671C98.9876 5.61499 99.4564 6.0525 99.4564 6.82221C99.4564 7.59192 98.9876 8.0331 98.1634 8.0331H97.0774V5.61499ZM96.132 4.81803V10.9082H97.0774V8.83209H98.3862C99.4524 8.88942 100.363 8.07172 100.42 7.00559C100.423 6.94501 100.424 6.88483 100.421 6.82424C100.472 5.7699 99.6581 4.87455 98.6038 4.82372C98.5416 4.82088 98.4798 4.82128 98.4176 4.82413L96.132 4.81803ZM92.9942 5.9545C92.451 5.9232 91.9862 6.26312 91.7284 6.26312C91.4706 6.26312 91.0721 5.97036 90.6424 5.97849C90.0731 5.99313 89.5543 6.30826 89.279 6.80676C88.6931 7.81475 89.1265 9.30701 89.6929 10.1271C89.9702 10.5338 90.3028 10.979 90.7399 10.9631C91.1539 10.9477 91.3181 10.6936 91.8183 10.6936C92.3184 10.6936 92.4668 10.9631 92.9043 10.955C93.3573 10.9473 93.6427 10.5484 93.9209 10.1418C94.1168 9.8539 94.2693 9.53877 94.3738 9.20657C93.8399 8.97318 93.4939 8.44743 93.4911 7.86476C93.4992 7.3508 93.7684 6.8767 94.2059 6.60711C93.927 6.21108 93.4793 5.96792 92.995 5.95085L92.9942 5.9545ZM92.6551 5.41656C92.4172 5.71623 92.0533 5.88823 91.6707 5.88131C91.6463 5.50805 91.7731 5.14088 92.0224 4.86194C92.2704 4.57406 92.6201 4.39353 92.9983 4.35815C93.0251 4.74199 92.9019 5.12095 92.6543 5.41534" fill="black"/>
<path d="M116 2C116 0.895431 116.895 0 118 0H138C139.105 0 140 0.895431 140 2V14C140 15.1046 139.105 16 138 16H118C116.895 16 116 15.1046 116 14V2Z" fill="#E4E5E7"/>
<path d="M127.459 8.53748V10.8494H126.72V5.14003H128.679C128.913 5.13518 129.145 5.17636 129.363 5.2612C129.58 5.34603 129.779 5.47284 129.947 5.6343C130.117 5.78596 130.252 5.97195 130.343 6.17978C130.435 6.38761 130.48 6.61246 130.477 6.83921C130.482 7.06718 130.437 7.2935 130.346 7.50265C130.254 7.7118 130.118 7.89885 129.947 8.05096C129.605 8.37531 129.182 8.53733 128.679 8.53703H127.459V8.53748ZM127.459 5.84294V7.83594H128.697C128.833 7.83994 128.968 7.81575 129.094 7.76492C129.22 7.71409 129.333 7.63774 129.428 7.54075C129.522 7.45007 129.596 7.34161 129.647 7.22177C129.698 7.10194 129.725 6.97317 129.725 6.84309C129.725 6.713 129.698 6.58423 129.647 6.4644C129.596 6.34457 129.522 6.2361 129.428 6.14542C129.335 6.04639 129.221 5.96817 129.095 5.91594C128.969 5.86371 128.834 5.83867 128.697 5.84248H127.459V5.84294Z" fill="#5F6368"/>
<path d="M132.179 6.81567C132.725 6.81567 133.156 6.96054 133.472 7.25026C133.787 7.53999 133.945 7.93722 133.945 8.44197V10.8496H133.239V10.3075H133.206C132.901 10.7539 132.494 10.9771 131.986 10.9771C131.553 10.9771 131.19 10.8496 130.899 10.5945C130.759 10.4774 130.647 10.3307 130.571 10.1652C130.495 9.9997 130.458 9.81951 130.461 9.63777C130.461 9.23355 130.615 8.91209 130.922 8.67338C131.23 8.43468 131.641 8.31502 132.155 8.31441C132.593 8.31441 132.954 8.39413 133.238 8.55357V8.38593C133.239 8.26203 133.212 8.1395 133.159 8.02722C133.106 7.91494 133.029 7.81573 132.933 7.73678C132.738 7.5618 132.483 7.46632 132.22 7.46938C131.808 7.46938 131.481 7.64218 131.241 7.98779L130.59 7.58099C130.948 7.07078 131.478 6.81567 132.179 6.81567ZM131.223 9.65371C131.223 9.74706 131.245 9.83916 131.287 9.92237C131.33 10.0056 131.392 10.0775 131.468 10.1321C131.632 10.2597 131.834 10.3273 132.042 10.3234C132.354 10.3229 132.653 10.1997 132.873 9.98079C133.118 9.75211 133.24 9.4838 133.24 9.17585C133.01 8.99363 132.689 8.90252 132.277 8.90252C131.977 8.90252 131.726 8.97435 131.526 9.11799C131.324 9.26377 131.223 9.44097 131.223 9.65371Z" fill="#5F6368"/>
<path d="M138 6.94312L135.534 12.5713H134.771L135.687 10.602L134.065 6.94312H134.868L136.04 9.74926H136.056L137.196 6.94312H138Z" fill="#5F6368"/>
<path d="M124.474 8.03923C124.474 7.81572 124.455 7.5926 124.417 7.37231H121.303V8.63554H123.087C123.05 8.83729 122.973 9.02962 122.859 9.20092C122.746 9.37222 122.599 9.51895 122.427 9.63227V10.4522H123.492C124.115 9.88145 124.474 9.03733 124.474 8.03923Z" fill="#4285F4"/>
<path d="M121.303 11.2444C122.194 11.2444 122.944 10.9538 123.492 10.4527L122.427 9.63276C122.131 9.83229 121.749 9.94617 121.303 9.94617C120.441 9.94617 119.71 9.36945 119.448 8.59229H118.352V9.43733C118.627 9.98056 119.048 10.4372 119.569 10.7563C120.09 11.0754 120.69 11.2444 121.303 11.2444Z" fill="#34A853"/>
<path d="M119.448 8.59221C119.31 8.18498 119.31 7.74397 119.448 7.33673V6.4917H118.352C118.12 6.94868 118 7.45303 118 7.96447C118 8.47591 118.12 8.98027 118.352 9.43725L119.448 8.59221Z" fill="#FBBC04"/>
<path d="M121.303 5.98284C121.774 5.9752 122.229 6.15193 122.57 6.47483L123.512 5.53869C122.915 4.98114 122.123 4.67503 121.303 4.68454C120.69 4.68457 120.09 4.85357 119.569 5.17269C119.048 5.4918 118.627 5.94846 118.352 6.49169L119.448 7.33672C119.71 6.55956 120.441 5.98284 121.303 5.98284Z" fill="#EA4335"/>
</svg>
