<svg width="12" height="12" viewBox="0 0 12 12" fill="none" xmlns="http://www.w3.org/2000/svg">
<g opacity="0.5" clip-path="url(#clip0)">
<path d="M11.8317 1.06564L11.0028 0.246559C10.7785 0.0222596 10.4079 0.0222596 10.1739 0.246559L6.03898 4.38137L1.82616 0.168542C1.60176 -0.055855 1.23118 -0.055855 0.997229 0.168542L0.168297 0.997473C-0.0560991 1.22177 -0.0560991 1.59235 0.168297 1.8264L4.37147 6.02957L0.246314 10.1742C0.0220155 10.3985 0.0220155 10.7691 0.246314 11.0032L1.07525 11.8321C1.29954 12.0564 1.67013 12.0564 1.90418 11.8321L6.03898 7.69719L10.1739 11.8321C10.3982 12.0564 10.7688 12.0564 11.0028 11.8321L11.8317 11.0032C12.056 10.7789 12.056 10.4083 11.8317 10.1742L7.68709 6.03933L11.822 1.90452C12.056 1.67027 12.056 1.29969 11.8317 1.06564Z" fill="white"/>
</g>
<defs>
<clipPath id="clip0">
<rect width="12" height="12" fill="white"/>
</clipPath>
</defs>
</svg>
