<svg width="16" height="16" viewBox="0 0 16 16" fill="none" xmlns="http://www.w3.org/2000/svg">
<g clip-path="url(#clip0)">
<path d="M15.9063 5.81251L15.0671 4.6937L14.6006 7.95969C14.5579 8.25888 14.4166 8.54138 14.2028 8.75513L8.45758 14.5004C7.95645 15.0016 7.28939 15.2776 6.57933 15.2776C6.36711 15.2776 6.15889 15.2524 5.95764 15.2045C6.26327 15.6823 6.79817 16 7.40627 16H14.2813C15.229 16 16 15.229 16 14.2813V6.09376C16 5.99235 15.9671 5.89366 15.9063 5.81251Z" fill="white"/>
<path d="M9.67297 7.7876C9.93186 7.7876 10.1417 7.57773 10.1417 7.31885C10.1417 7.05996 9.93186 6.8501 9.67297 6.8501C9.41409 6.8501 9.20422 7.05996 9.20422 7.31885C9.20422 7.57773 9.41409 7.7876 9.67297 7.7876Z" fill="white"/>
<path d="M4.36963 7.7876C4.62851 7.7876 4.83838 7.57773 4.83838 7.31885C4.83838 7.05996 4.62851 6.8501 4.36963 6.8501C4.11074 6.8501 3.90088 7.05996 3.90088 7.31885C3.90088 7.57773 4.11074 7.7876 4.36963 7.7876Z" fill="white"/>
<path d="M7.79489 13.8374L13.5401 8.09216C13.6119 8.02044 13.6584 7.92741 13.6727 7.827L14.3357 3.1866C14.3565 3.04053 14.3074 2.89316 14.2031 2.78885L13.2087 1.79447L11.8829 3.12032L12.2144 3.45178C12.3974 3.63482 12.3974 3.93163 12.2144 4.11469C12.1228 4.20622 12.0029 4.252 11.8829 4.252C11.763 4.252 11.643 4.20622 11.5515 4.11469L10.2256 2.78885C10.0426 2.60582 10.0426 2.309 10.2256 2.12594C10.4087 1.94291 10.7055 1.94291 10.8885 2.12594L11.22 2.45741L12.5458 1.13157L11.5515 0.137191C11.4471 0.0328468 11.2998 -0.0160907 11.1537 0.0045968L6.51327 0.667534C6.41286 0.681878 6.31983 0.728409 6.24811 0.800128L0.502861 6.54538C-0.167295 7.2155 -0.167295 8.30594 0.502861 8.97606L5.36421 13.8374C5.69927 14.1725 6.13942 14.34 6.57955 14.34C7.01967 14.34 7.45983 14.1725 7.79489 13.8374ZM9.67314 5.91253C10.4485 5.91253 11.0794 6.54338 11.0794 7.31878C11.0794 8.09419 10.4485 8.72503 9.67314 8.72503C8.89774 8.72503 8.26689 8.09419 8.26689 7.31878C8.26689 6.54338 8.89774 5.91253 9.67314 5.91253ZM4.36983 8.72503C3.59442 8.72503 2.96358 8.09419 2.96358 7.31878C2.96358 6.54338 3.59442 5.91253 4.36983 5.91253C5.14524 5.91253 5.77608 6.54338 5.77608 7.31878C5.77608 8.09419 5.14527 8.72503 4.36983 8.72503ZM5.91671 11.1022C5.86758 11.1022 5.81758 11.0944 5.76842 11.0781C5.52283 10.9962 5.39011 10.7308 5.47196 10.4851L7.68164 3.85597C7.76352 3.61038 8.02899 3.47766 8.27458 3.5595C8.52017 3.64138 8.65289 3.90682 8.57105 4.15244L6.36136 10.7816C6.29586 10.978 6.11296 11.1022 5.91671 11.1022Z" fill="white"/>
<path d="M14.2028 0.80018C14.3858 0.617148 14.3858 0.320336 14.2028 0.137273C14.0198 -0.0457578 13.7229 -0.0457578 13.5399 0.137273L12.5455 1.13165L13.2084 1.79455L14.2028 0.80018Z" fill="white"/>
</g>
<defs>
<clipPath id="clip0">
<rect width="16" height="16" fill="white"/>
</clipPath>
</defs>
</svg>
