<svg width="13" height="13" viewBox="0 0 13 13" fill="none" xmlns="http://www.w3.org/2000/svg">
<g clip-path="url(#clip0)">
<path d="M8.68212 1.48762C6.69895 -0.495548 3.4712 -0.495548 1.48803 1.48762C-0.494708 3.47122 -0.494708 6.69854 1.48803 8.68214C3.25409 10.4478 6.00465 10.6369 7.98652 9.25821C8.02822 9.45554 8.12366 9.64384 8.27714 9.79732L11.1653 12.6854C11.5861 13.1055 12.2663 13.1055 12.685 12.6854C13.1054 12.265 13.1054 11.5849 12.685 11.1657L9.79687 8.27673C9.64425 8.12455 9.45552 8.02868 9.25819 7.98698C10.6378 6.00467 10.4486 3.25454 8.68212 1.48762ZM7.77028 7.7703C6.28968 9.25091 3.88004 9.25091 2.39986 7.7703C0.920121 6.2897 0.920121 3.88049 2.39986 2.39989C3.88004 0.919711 6.28968 0.919711 7.77028 2.39989C9.25088 3.88049 9.25088 6.2897 7.77028 7.7703Z" fill="#E5E5E5"/>
</g>
<defs>
<clipPath id="clip0">
<rect width="13" height="13" fill="white"/>
</clipPath>
</defs>
</svg>
