<svg width="30" height="30" viewBox="0 0 30 30" fill="none" xmlns="http://www.w3.org/2000/svg">
<g clip-path="url(#clip0)">
<path d="M14.9118 23.9263C9.94952 23.9263 7.68231 21.3984 7.68231 19.5443C7.68164 19.102 7.86317 18.6789 8.18419 18.3746C8.50522 18.0704 8.93739 17.9117 9.37903 17.9361C11.5036 17.9361 10.9479 21.123 14.9118 21.123C16.938 21.123 18.1282 19.9033 18.1282 18.7574C18.1282 18.0689 17.7348 17.282 16.3971 16.9672L11.9708 15.8508C8.4151 14.9459 7.79542 12.9689 7.79542 11.1344C7.79542 7.32789 11.2774 5.95084 14.5921 5.95084C17.6462 5.95084 21.2758 7.63773 21.2758 9.91969C21.2758 10.9033 20.4544 11.4295 19.5003 11.4295C17.6856 11.4295 17.9905 8.88199 14.3413 8.88199C12.5266 8.88199 11.5725 9.73281 11.5725 10.923C11.5725 12.1131 12.9839 12.5164 14.2233 12.7869L17.4889 13.5246C21.0692 14.3312 22.0233 16.4312 22.0233 18.4426C22.0233 21.5361 19.6282 23.9263 14.9069 23.9263H14.9118ZM28.6135 17.3803C28.7552 16.5684 28.826 15.7456 28.8249 14.9213C28.8423 10.7809 27.023 6.84586 23.8575 4.17694C20.692 1.50801 16.5062 0.379918 12.4282 1.09674C11.1748 0.375085 9.75321 -0.00321187 8.3069 2.05422e-05C5.33818 0.0181558 2.60173 1.60924 1.11737 4.18029C-0.366981 6.75135 -0.376583 9.91673 1.09214 12.4967C0.272605 16.9999 1.70819 21.619 4.93585 24.8643C8.1635 28.1096 12.7748 29.5704 17.2823 28.7754C18.5342 29.4965 19.954 29.8748 21.3987 29.8722C24.3659 29.853 27.1007 28.2626 28.5847 25.6931C30.0688 23.1236 30.0797 19.96 28.6135 17.3803Z" fill="white"/>
</g>
</svg>
