<svg width="19" height="19" viewBox="0 0 19 19" fill="none" xmlns="http://www.w3.org/2000/svg">
<g clip-path="url(#clip0)">
<path d="M9.44317 15.1533C6.30038 15.1533 4.86448 13.5523 4.86448 12.378C4.86405 12.0979 4.97902 11.8299 5.18234 11.6372C5.38565 11.4445 5.65936 11.3441 5.93907 11.3595C7.28464 11.3595 6.93267 13.3779 9.44317 13.3779C10.7264 13.3779 11.4802 12.6054 11.4802 11.8797C11.4802 11.4436 11.231 10.9452 10.3838 10.7459L7.58054 10.0388C5.32858 9.46572 4.93612 8.21359 4.93612 7.05179C4.93612 4.64097 7.14136 3.76884 9.24071 3.76884C11.175 3.76884 13.4737 4.8372 13.4737 6.28244C13.4737 6.90539 12.9535 7.23867 12.3492 7.23867C11.1999 7.23867 11.393 5.62523 9.08185 5.62523C7.93251 5.62523 7.32825 6.16408 7.32825 6.91785C7.32825 7.67162 8.22218 7.92703 9.0071 8.09834L11.0753 8.56556C13.3428 9.07638 13.9471 10.4064 13.9471 11.6803C13.9471 13.6395 12.4302 15.1533 9.44005 15.1533H9.44317ZM18.1209 11.0075C18.2107 10.4933 18.2555 9.97218 18.2548 9.45015C18.2658 6.82787 17.1136 4.33568 15.1088 2.64536C13.104 0.955043 10.4529 0.240584 7.87021 0.694573C7.07639 0.237523 6.17605 -0.0020647 5.26005 -1.75075e-05C3.37986 0.0114682 1.64677 1.01915 0.706684 2.64749C-0.233406 4.27582 -0.239487 6.28056 0.690706 7.91457C0.171665 10.7665 1.08087 13.692 3.12505 15.7474C5.16923 17.8027 8.08972 18.7279 10.9445 18.2244C11.7373 18.6811 12.6366 18.9206 13.5515 18.919C15.4308 18.9069 17.1628 17.8996 18.1027 16.2723C19.0426 14.6449 19.0495 12.6413 18.1209 11.0075Z" fill="#6F6F79"/>
</g>
<defs>
<clipPath id="clip0">
<rect width="19" height="19" fill="white"/>
</clipPath>
</defs>
</svg>
