<svg width="31" height="35" viewBox="0 0 31 35" fill="none" xmlns="http://www.w3.org/2000/svg">
<path d="M15.5 0C7.01899 0 0.119141 6.89985 0.119141 15.3809C0.119141 16.3207 0.119141 23.5914 0.119141 23.7207C0.119141 25.4169 1.49911 26.7969 3.19531 26.7969H4.39707C4.82035 27.9903 5.96011 28.8477 7.29688 28.8477C8.99308 28.8477 10.373 27.4677 10.373 25.7715V17.4316C10.373 15.7354 8.99308 14.3555 7.29688 14.3555C5.96011 14.3555 4.82035 15.2128 4.39707 16.4062H3.19531C2.83581 16.4062 2.49087 16.4688 2.16992 16.5826V15.3809C2.16992 8.03065 8.14979 2.05078 15.5 2.05078C22.8502 2.05078 28.8301 8.03065 28.8301 15.3809V16.5826C28.5091 16.4688 28.1642 16.4062 27.8047 16.4062H26.6029C26.1796 15.2128 25.0399 14.3555 23.7031 14.3555C22.0069 14.3555 20.627 15.7354 20.627 17.4316V25.7715C20.627 27.4677 22.0069 28.8477 23.7031 28.8477C24.0135 28.8477 24.3132 28.801 24.596 28.7151C24.2124 29.9772 23.0381 30.8984 21.6523 30.8984H18.3998C17.9765 29.705 16.8368 28.8477 15.5 28.8477C13.8038 28.8477 12.4238 30.2276 12.4238 31.9238C12.4238 33.62 13.8038 35 15.5 35C16.8368 35 17.9765 34.1426 18.3998 32.9492H21.6523C24.4793 32.9492 26.7793 30.6493 26.7793 27.8223V26.7969H27.8047C29.5009 26.7969 30.8809 25.4169 30.8809 23.7207C30.8809 23.5933 30.8809 16.32 30.8809 15.3809C30.8809 6.89985 23.981 0 15.5 0ZM6.27148 17.4316C6.27148 16.8662 6.73147 16.4062 7.29688 16.4062C7.86228 16.4062 8.32227 16.8662 8.32227 17.4316V25.7715C8.32227 26.3369 7.86228 26.7969 7.29688 26.7969C6.73147 26.7969 6.27148 26.3369 6.27148 25.7715V17.4316ZM3.19531 18.457H4.2207V24.7461H3.19531C2.62991 24.7461 2.16992 24.2861 2.16992 23.7207V19.4824C2.16992 18.917 2.62991 18.457 3.19531 18.457ZM15.5 32.9492C14.9346 32.9492 14.4746 32.4892 14.4746 31.9238C14.4746 31.3584 14.9346 30.8984 15.5 30.8984C16.0654 30.8984 16.5254 31.3584 16.5254 31.9238C16.5254 32.4892 16.0654 32.9492 15.5 32.9492ZM24.7285 25.7715C24.7285 26.3369 24.2685 26.7969 23.7031 26.7969C23.1377 26.7969 22.6777 26.3369 22.6777 25.7715V17.4316C22.6777 16.8662 23.1377 16.4062 23.7031 16.4062C24.2685 16.4062 24.7285 16.8662 24.7285 17.4316V25.7715ZM28.8301 23.7207C28.8301 24.2861 28.3701 24.7461 27.8047 24.7461H26.7793V18.457H27.8047C28.3701 18.457 28.8301 18.917 28.8301 19.4824V23.7207Z" fill="#FF7A00"/>
</svg>
