<svg width="30" height="24" viewBox="0 0 30 24" fill="none" xmlns="http://www.w3.org/2000/svg">
<path d="M26.4993 5.97181C26.5173 6.23206 26.5173 6.49232 26.5173 6.75497C26.5173 14.7581 20.4247 23.9882 9.28406 23.9882V23.9834C5.99308 23.9882 2.77046 23.0455 0 21.2681C0.478535 21.3257 0.959468 21.3545 1.4416 21.3557C4.16889 21.3581 6.81822 20.443 8.96383 18.7579C6.37207 18.7087 4.09933 17.0189 3.30537 14.5519C4.21327 14.727 5.14875 14.691 6.03985 14.4475C3.21422 13.8766 1.18135 11.394 1.18135 8.5108C1.18135 8.48441 1.18135 8.45923 1.18135 8.43404C2.02328 8.90298 2.96596 9.16324 3.93022 9.19202C1.2689 7.41341 0.448551 3.87297 2.05566 1.1049C5.13076 4.88881 9.66784 7.18913 14.5383 7.4326C14.0502 5.32896 14.717 3.12458 16.2906 1.6458C18.73 -0.647326 22.5667 -0.529792 24.8598 1.90846C26.2163 1.64101 27.5164 1.14328 28.7061 0.438072C28.2539 1.8401 27.3077 3.03104 26.0436 3.78782C27.2441 3.64629 28.4171 3.32487 29.5216 2.83434C28.7085 4.05287 27.6843 5.11428 26.4993 5.97181Z" fill="white"/>
</svg>
