<svg width="33" height="22" viewBox="0 0 33 22" fill="none" xmlns="http://www.w3.org/2000/svg">
<path d="M32.4309 22H0.568991C0.254783 22 0 21.7407 0 21.421V0.578973C0 0.259252 0.254783 0 0.568991 0H32.431C32.7452 0 33 0.259252 33 0.578973V21.421C32.9999 21.7408 32.7452 22 32.4309 22Z" fill="#F5F5F5"/>
<path d="M32.9999 1.69239H0V0.578973C0 0.259252 0.254783 0 0.568991 0H32.431C32.7452 0 33 0.259252 33 0.578973L32.9999 1.69239Z" fill="#FF4B55"/>
<path d="M32.9999 6.76923H0V8.46155H32.9999V6.76923Z" fill="#FF4B55"/>
<path d="M32.9999 3.38446H0V5.07678H32.9999V3.38446Z" fill="#FF4B55"/>
<path d="M32.9999 11.8462H0.568991C0.254783 11.8462 0 11.5869 0 11.2672V10.1538H32.9999V11.8462Z" fill="#FF4B55"/>
<path d="M32.9999 16.9236H0V18.6159H32.9999V16.9236Z" fill="#FF4B55"/>
<path d="M32.4309 22H0.568991C0.254783 22 0 21.7407 0 21.421V20.3077H32.9999V21.4211C32.9999 21.7408 32.7452 22 32.4309 22Z" fill="#FF4B55"/>
<path d="M32.9999 13.5388H0V15.2311H32.9999V13.5388Z" fill="#FF4B55"/>
<path d="M14.7931 0.000976562H0.568991C0.254783 0.000976562 0 0.260163 0 0.579884V11.2681C0 11.5878 0.254783 11.847 0.568991 11.847H14.7931C15.1073 11.847 15.3621 11.5878 15.3621 11.2681V0.579884C15.3621 0.260163 15.1073 0.000976562 14.7931 0.000976562Z" fill="#41479B"/>
<path d="M1.59829 1.32895L1.72423 1.71327L2.12236 1.71635C2.17392 1.71681 2.19525 1.78371 2.15381 1.81486L1.83354 2.05555L1.95368 2.44178C1.96928 2.49175 1.91327 2.5332 1.87131 2.50264L1.54744 2.26713L1.22356 2.5027C1.1816 2.5332 1.12572 2.49182 1.14119 2.44184L1.26133 2.05562L0.941062 1.81493C0.899619 1.78371 0.920953 1.71688 0.972515 1.71642L1.37064 1.71334L1.49658 1.32902C1.51282 1.27917 1.58192 1.27917 1.59829 1.32895Z" fill="#F5F5F5"/>
<path d="M1.59756 3.33928L1.7235 3.7236L2.12162 3.72668C2.17319 3.72714 2.19452 3.79404 2.15308 3.82519L1.83281 4.06588L1.95295 4.4521C1.96855 4.50208 1.91254 4.54353 1.87058 4.51296L1.5467 4.27745L1.22283 4.51303C1.18087 4.54353 1.12499 4.50214 1.14046 4.45217L1.2606 4.06595L0.94033 3.82525C0.898886 3.79404 0.92022 3.72721 0.971783 3.72675L1.36991 3.72366L1.49585 3.33934C1.51209 3.28957 1.58119 3.28957 1.59756 3.33928Z" fill="#F5F5F5"/>
<path d="M1.59756 5.34971L1.7235 5.73404L2.12162 5.73712C2.17319 5.73758 2.19452 5.80447 2.15308 5.83563L1.83281 6.07632L1.95295 6.46254C1.96855 6.51251 1.91254 6.55396 1.87058 6.5234L1.5467 6.28789L1.22283 6.52347C1.18087 6.55396 1.12499 6.51258 1.14046 6.46261L1.2606 6.07638L0.94033 5.83569C0.898886 5.80447 0.92022 5.73764 0.971783 5.73718L1.36991 5.7341L1.49585 5.34978C1.51209 5.3 1.58119 5.3 1.59756 5.34971Z" fill="#F5F5F5"/>
<path d="M1.59756 7.3602L1.7235 7.74452L2.12162 7.7476C2.17319 7.74806 2.19452 7.81496 2.15308 7.84611L1.83281 8.0868L1.95295 8.47303C1.96855 8.523 1.91254 8.56445 1.87058 8.53389L1.5467 8.29838L1.22283 8.53395C1.18087 8.56445 1.12499 8.52307 1.14046 8.47309L1.2606 8.08687L0.94033 7.84618C0.898886 7.81496 0.92022 7.74813 0.971783 7.74767L1.36991 7.74459L1.49585 7.36027C1.51209 7.31042 1.58119 7.31042 1.59756 7.3602Z" fill="#F5F5F5"/>
<path d="M1.59756 9.37057L1.7235 9.75489L2.12162 9.75797C2.17319 9.75843 2.19452 9.82532 2.15308 9.85647L1.83281 10.0972L1.95295 10.4834C1.96855 10.5334 1.91254 10.5748 1.87058 10.5443L1.5467 10.3087L1.22283 10.5443C1.18087 10.5748 1.12499 10.5334 1.14046 10.4835L1.2606 10.0972L0.94033 9.85654C0.898886 9.82532 0.92022 9.75849 0.971783 9.75803L1.36991 9.75495L1.49585 9.37063C1.51209 9.32072 1.58119 9.32072 1.59756 9.37057Z" fill="#F5F5F5"/>
<path d="M3.13125 2.31451L3.25719 2.69883L3.65532 2.70191C3.70688 2.70237 3.72821 2.76926 3.68677 2.80042L3.3665 3.04111L3.48664 3.42733C3.50224 3.47731 3.44623 3.51875 3.40427 3.48819L3.0804 3.25262L2.75652 3.48819C2.71456 3.51869 2.65868 3.47731 2.67415 3.42733L2.79429 3.04111L2.47402 2.80042C2.43258 2.7692 2.45391 2.70237 2.50547 2.70191L2.9036 2.69883L3.02954 2.31451C3.04572 2.26479 3.11494 2.26479 3.13125 2.31451Z" fill="#F5F5F5"/>
<path d="M3.13125 4.32499L3.25719 4.70931L3.65532 4.7124C3.70688 4.71285 3.72821 4.77975 3.68677 4.8109L3.3665 5.05159L3.48664 5.43782C3.50224 5.48779 3.44623 5.52924 3.40427 5.49868L3.0804 5.2631L2.75652 5.49868C2.71456 5.52918 2.65868 5.48786 2.67415 5.43782L2.79429 5.05159L2.47402 4.8109C2.43258 4.77968 2.45391 4.71285 2.50547 4.7124L2.9036 4.70931L3.02954 4.32499C3.04572 4.27521 3.11494 4.27521 3.13125 4.32499Z" fill="#F5F5F5"/>
<path d="M3.13125 6.33543L3.25719 6.71975L3.65532 6.72283C3.70688 6.72329 3.72821 6.79019 3.68677 6.82134L3.3665 7.06203L3.48664 7.44825C3.50224 7.49823 3.44623 7.53968 3.40427 7.50912L3.0804 7.27354L2.75652 7.50912C2.71456 7.53961 2.65868 7.49823 2.67415 7.44825L2.79429 7.06203L2.47402 6.82134C2.43258 6.79012 2.45391 6.72329 2.50547 6.72283L2.9036 6.71975L3.02954 6.33543C3.04572 6.28565 3.11494 6.28565 3.13125 6.33543Z" fill="#F5F5F5"/>
<path d="M3.13125 8.34582L3.25719 8.73014L3.65532 8.73322C3.70688 8.73368 3.72821 8.80057 3.68677 8.83173L3.3665 9.07242L3.48664 9.45864C3.50224 9.50862 3.44623 9.55007 3.40427 9.5195L3.0804 9.28393L2.75652 9.5195C2.71456 9.55 2.65868 9.50862 2.67415 9.45864L2.79429 9.07242L2.47402 8.83173C2.43258 8.80051 2.45391 8.73368 2.50547 8.73322L2.9036 8.73014L3.02954 8.34582C3.04572 8.2961 3.11494 8.2961 3.13125 8.34582Z" fill="#F5F5F5"/>
<path d="M4.6647 1.32884L4.79064 1.71316L5.18876 1.71624C5.24033 1.7167 5.26166 1.78359 5.22022 1.81475L4.89995 2.05544L5.02009 2.44166C5.03569 2.49164 4.97968 2.53309 4.93772 2.50252L4.61384 2.26695L4.28997 2.50252C4.24801 2.53302 4.19213 2.49164 4.20759 2.44166L4.32774 2.05544L4.00747 1.81475C3.96603 1.78353 3.98736 1.7167 4.03892 1.71624L4.43705 1.71316L4.56299 1.32884C4.57923 1.27906 4.64839 1.27906 4.6647 1.32884Z" fill="#F5F5F5"/>
<path d="M4.6647 3.33929L4.79064 3.72361L5.18876 3.72669C5.24033 3.72715 5.26166 3.79404 5.22022 3.8252L4.89995 4.06589L5.02009 4.45211C5.03569 4.50209 4.97968 4.54353 4.93772 4.51297L4.61384 4.2774L4.28997 4.51297C4.24801 4.54347 4.19213 4.50209 4.20759 4.45211L4.32774 4.06589L4.00747 3.8252C3.96603 3.79398 3.98736 3.72715 4.03892 3.72669L4.43705 3.72361L4.56299 3.33929C4.57923 3.28957 4.64839 3.28957 4.6647 3.33929Z" fill="#F5F5F5"/>
<path d="M4.6647 5.34972L4.79064 5.73404L5.18876 5.73713C5.24033 5.73759 5.26166 5.80448 5.22022 5.83563L4.89995 6.07633L5.02009 6.46255C5.03569 6.51252 4.97968 6.55397 4.93772 6.52341L4.61384 6.28783L4.28997 6.52341C4.24801 6.55391 4.19213 6.51252 4.20759 6.46255L4.32774 6.07633L4.00747 5.83563C3.96603 5.80442 3.98736 5.73759 4.03892 5.73713L4.43705 5.73404L4.56299 5.34972C4.57923 5.30001 4.64839 5.30001 4.6647 5.34972Z" fill="#F5F5F5"/>
<path d="M4.6647 7.36015L4.79064 7.74447L5.18876 7.74755C5.24033 7.74801 5.26166 7.81491 5.22022 7.84606L4.89995 8.08675L5.02009 8.47297C5.03569 8.52295 4.97968 8.5644 4.93772 8.53383L4.61384 8.29826L4.28997 8.53383C4.24801 8.56433 4.19213 8.52295 4.20759 8.47297L4.32774 8.08675L4.00747 7.84606C3.96603 7.81484 3.98736 7.74801 4.03892 7.74755L4.43705 7.74447L4.56299 7.36015C4.57923 7.31037 4.64839 7.31037 4.6647 7.36015Z" fill="#F5F5F5"/>
<path d="M4.6647 9.37057L4.79064 9.75489L5.18876 9.75798C5.24033 9.75844 5.26166 9.82533 5.22022 9.85648L4.89995 10.0972L5.02009 10.4834C5.03569 10.5334 4.97968 10.5748 4.93772 10.5443L4.61384 10.3087L4.28997 10.5443C4.24801 10.5748 4.19213 10.5334 4.20759 10.4834L4.32774 10.0972L4.00747 9.85648C3.96603 9.82527 3.98736 9.75844 4.03892 9.75798L4.43705 9.75489L4.56299 9.37057C4.57923 9.32073 4.64839 9.32073 4.6647 9.37057Z" fill="#F5F5F5"/>
<path d="M6.19839 2.31451L6.32433 2.69883L6.72245 2.70191C6.77402 2.70237 6.79535 2.76926 6.75391 2.80042L6.43364 3.04111L6.55378 3.42733C6.56938 3.47731 6.51337 3.51875 6.47141 3.48819L6.14753 3.25262L5.82366 3.48819C5.7817 3.51869 5.72582 3.47731 5.74129 3.42733L5.86143 3.04111L5.54116 2.80042C5.49972 2.7692 5.52105 2.70237 5.57261 2.70191L5.97074 2.69883L6.09668 2.31451C6.11286 2.26479 6.18208 2.26479 6.19839 2.31451Z" fill="#F5F5F5"/>
<path d="M6.19839 4.32499L6.32433 4.70931L6.72245 4.7124C6.77402 4.71285 6.79535 4.77975 6.75391 4.8109L6.43364 5.05159L6.55378 5.43782C6.56938 5.48779 6.51337 5.52924 6.47141 5.49868L6.14753 5.2631L5.82366 5.49868C5.7817 5.52918 5.72582 5.48786 5.74129 5.43782L5.86143 5.05159L5.54116 4.8109C5.49972 4.77968 5.52105 4.71285 5.57261 4.7124L5.97074 4.70931L6.09668 4.32499C6.11286 4.27521 6.18208 4.27521 6.19839 4.32499Z" fill="#F5F5F5"/>
<path d="M6.19839 6.33543L6.32433 6.71975L6.72245 6.72283C6.77402 6.72329 6.79535 6.79019 6.75391 6.82134L6.43364 7.06203L6.55378 7.44825C6.56938 7.49823 6.51337 7.53968 6.47141 7.50912L6.14753 7.27354L5.82366 7.50912C5.7817 7.53961 5.72582 7.49823 5.74129 7.44825L5.86143 7.06203L5.54116 6.82134C5.49972 6.79012 5.52105 6.72329 5.57261 6.72283L5.97074 6.71975L6.09668 6.33543C6.11286 6.28565 6.18208 6.28565 6.19839 6.33543Z" fill="#F5F5F5"/>
<path d="M6.19839 8.34582L6.32433 8.73014L6.72245 8.73322C6.77402 8.73368 6.79535 8.80057 6.75391 8.83173L6.43364 9.07242L6.55378 9.45864C6.56938 9.50862 6.51337 9.55007 6.47141 9.5195L6.14753 9.28393L5.82366 9.5195C5.7817 9.55 5.72582 9.50862 5.74129 9.45864L5.86143 9.07242L5.54116 8.83173C5.49972 8.80051 5.52105 8.73368 5.57261 8.73322L5.97074 8.73014L6.09668 8.34582C6.11286 8.2961 6.18208 8.2961 6.19839 8.34582Z" fill="#F5F5F5"/>
<path d="M7.73165 1.32884L7.8576 1.71316L8.25572 1.71624C8.30728 1.7167 8.32862 1.78359 8.28717 1.81475L7.96691 2.05544L8.08705 2.44166C8.10265 2.49164 8.04664 2.53309 8.00468 2.50252L7.68074 2.26695L7.35686 2.50252C7.3149 2.53302 7.25902 2.49164 7.27449 2.44166L7.39463 2.05544L7.07436 1.81475C7.03292 1.78353 7.05425 1.7167 7.10582 1.71624L7.50394 1.71316L7.62988 1.32884C7.64619 1.27906 7.71535 1.27906 7.73165 1.32884Z" fill="#F5F5F5"/>
<path d="M7.73165 3.33929L7.8576 3.72361L8.25572 3.72669C8.30728 3.72715 8.32862 3.79404 8.28717 3.8252L7.96691 4.06589L8.08705 4.45211C8.10265 4.50209 8.04664 4.54353 8.00468 4.51297L7.68074 4.2774L7.35686 4.51297C7.3149 4.54347 7.25902 4.50209 7.27449 4.45211L7.39463 4.06589L7.07436 3.8252C7.03292 3.79398 7.05425 3.72715 7.10582 3.72669L7.50394 3.72361L7.62988 3.33929C7.64619 3.28957 7.71535 3.28957 7.73165 3.33929Z" fill="#F5F5F5"/>
<path d="M7.73165 5.34972L7.8576 5.73404L8.25572 5.73713C8.30728 5.73759 8.32862 5.80448 8.28717 5.83563L7.96691 6.07633L8.08705 6.46255C8.10265 6.51252 8.04664 6.55397 8.00468 6.52341L7.68074 6.28783L7.35686 6.52341C7.3149 6.55391 7.25902 6.51252 7.27449 6.46255L7.39463 6.07633L7.07436 5.83563C7.03292 5.80442 7.05425 5.73759 7.10582 5.73713L7.50394 5.73404L7.62988 5.34972C7.64619 5.30001 7.71535 5.30001 7.73165 5.34972Z" fill="#F5F5F5"/>
<path d="M7.73165 7.36015L7.8576 7.74447L8.25572 7.74755C8.30728 7.74801 8.32862 7.81491 8.28717 7.84606L7.96691 8.08675L8.08705 8.47297C8.10265 8.52295 8.04664 8.5644 8.00468 8.53383L7.68074 8.29826L7.35686 8.53383C7.3149 8.56433 7.25902 8.52295 7.27449 8.47297L7.39463 8.08675L7.07436 7.84606C7.03292 7.81484 7.05425 7.74801 7.10582 7.74755L7.50394 7.74447L7.62988 7.36015C7.64619 7.31037 7.71535 7.31037 7.73165 7.36015Z" fill="#F5F5F5"/>
<path d="M7.73165 9.37057L7.8576 9.75489L8.25572 9.75798C8.30728 9.75844 8.32862 9.82533 8.28717 9.85648L7.96691 10.0972L8.08705 10.4834C8.10265 10.5334 8.04664 10.5748 8.00468 10.5443L7.68074 10.3087L7.35686 10.5443C7.3149 10.5748 7.25902 10.5334 7.27449 10.4834L7.39463 10.0972L7.07436 9.85648C7.03292 9.82527 7.05425 9.75844 7.10582 9.75798L7.50394 9.75489L7.62988 9.37057C7.64619 9.32073 7.71535 9.32073 7.73165 9.37057Z" fill="#F5F5F5"/>
<path d="M9.26528 2.31451L9.39122 2.69883L9.78935 2.70191C9.84091 2.70237 9.86224 2.76926 9.8208 2.80042L9.50053 3.04111L9.62068 3.42733C9.63627 3.47731 9.58026 3.51875 9.5383 3.48819L9.21443 3.25262L8.89055 3.48819C8.84859 3.51869 8.79271 3.47731 8.80818 3.42733L8.92832 3.04111L8.60805 2.80042C8.56661 2.7692 8.58795 2.70237 8.63951 2.70191L9.03763 2.69883L9.16357 2.31451C9.17988 2.26479 9.24898 2.26479 9.26528 2.31451Z" fill="#F5F5F5"/>
<path d="M9.26528 4.32499L9.39122 4.70931L9.78935 4.7124C9.84091 4.71285 9.86224 4.77975 9.8208 4.8109L9.50053 5.05159L9.62068 5.43782C9.63627 5.48779 9.58026 5.52924 9.5383 5.49868L9.21443 5.2631L8.89055 5.49868C8.84859 5.52918 8.79271 5.48786 8.80818 5.43782L8.92832 5.05159L8.60805 4.8109C8.56661 4.77968 8.58795 4.71285 8.63951 4.7124L9.03763 4.70931L9.16357 4.32499C9.17988 4.27521 9.24898 4.27521 9.26528 4.32499Z" fill="#F5F5F5"/>
<path d="M9.26528 6.33543L9.39122 6.71975L9.78935 6.72283C9.84091 6.72329 9.86224 6.79019 9.8208 6.82134L9.50053 7.06203L9.62068 7.44825C9.63627 7.49823 9.58026 7.53968 9.5383 7.50912L9.21443 7.27354L8.89055 7.50912C8.84859 7.53961 8.79271 7.49823 8.80818 7.44825L8.92832 7.06203L8.60805 6.82134C8.56661 6.79012 8.58795 6.72329 8.63951 6.72283L9.03763 6.71975L9.16357 6.33543C9.17988 6.28565 9.24898 6.28565 9.26528 6.33543Z" fill="#F5F5F5"/>
<path d="M9.26528 8.34582L9.39122 8.73014L9.78935 8.73322C9.84091 8.73368 9.86224 8.80057 9.8208 8.83173L9.50053 9.07242L9.62068 9.45864C9.63627 9.50862 9.58026 9.55007 9.5383 9.5195L9.21443 9.28393L8.89055 9.5195C8.84859 9.55 8.79271 9.50862 8.80818 9.45864L8.92832 9.07242L8.60805 8.83173C8.56661 8.80051 8.58795 8.73368 8.63951 8.73322L9.03763 8.73014L9.16357 8.34582C9.17988 8.2961 9.24898 8.2961 9.26528 8.34582Z" fill="#F5F5F5"/>
<path d="M10.799 1.32884L10.9249 1.71316L11.323 1.71624C11.3746 1.7167 11.3959 1.78359 11.3545 1.81475L11.0342 2.05544L11.1544 2.44166C11.17 2.49164 11.114 2.53309 11.072 2.50252L10.7481 2.26695L10.4242 2.50252C10.3823 2.53302 10.3264 2.49164 10.3419 2.44166L10.462 2.05544L10.1417 1.81475C10.1003 1.78353 10.1216 1.7167 10.1732 1.71624L10.5713 1.71316L10.6973 1.32884C10.7134 1.27906 10.7827 1.27906 10.799 1.32884Z" fill="#F5F5F5"/>
<path d="M10.799 3.33929L10.9249 3.72361L11.323 3.72669C11.3746 3.72715 11.3959 3.79404 11.3545 3.8252L11.0342 4.06589L11.1544 4.45211C11.17 4.50209 11.114 4.54353 11.072 4.51297L10.7481 4.2774L10.4242 4.51297C10.3823 4.54347 10.3264 4.50209 10.3419 4.45211L10.462 4.06589L10.1417 3.8252C10.1003 3.79398 10.1216 3.72715 10.1732 3.72669L10.5713 3.72361L10.6973 3.33929C10.7134 3.28957 10.7827 3.28957 10.799 3.33929Z" fill="#F5F5F5"/>
<path d="M10.799 5.34972L10.9249 5.73404L11.323 5.73713C11.3746 5.73759 11.3959 5.80448 11.3545 5.83563L11.0342 6.07633L11.1544 6.46255C11.17 6.51252 11.114 6.55397 11.072 6.52341L10.7481 6.28783L10.4242 6.52341C10.3823 6.55391 10.3264 6.51252 10.3419 6.46255L10.462 6.07633L10.1417 5.83563C10.1003 5.80442 10.1216 5.73759 10.1732 5.73713L10.5713 5.73404L10.6973 5.34972C10.7134 5.30001 10.7827 5.30001 10.799 5.34972Z" fill="#F5F5F5"/>
<path d="M10.799 7.36015L10.9249 7.74447L11.323 7.74755C11.3746 7.74801 11.3959 7.81491 11.3545 7.84606L11.0342 8.08675L11.1544 8.47297C11.17 8.52295 11.114 8.5644 11.072 8.53383L10.7481 8.29826L10.4242 8.53383C10.3823 8.56433 10.3264 8.52295 10.3419 8.47297L10.462 8.08675L10.1417 7.84606C10.1003 7.81484 10.1216 7.74801 10.1732 7.74755L10.5713 7.74447L10.6973 7.36015C10.7134 7.31037 10.7827 7.31037 10.799 7.36015Z" fill="#F5F5F5"/>
<path d="M10.799 9.37057L10.9249 9.75489L11.323 9.75798C11.3746 9.75844 11.3959 9.82533 11.3545 9.85648L11.0342 10.0972L11.1544 10.4834C11.17 10.5334 11.114 10.5748 11.072 10.5443L10.7481 10.3087L10.4242 10.5443C10.3823 10.5748 10.3264 10.5334 10.3419 10.4834L10.462 10.0972L10.1417 9.85648C10.1003 9.82527 10.1216 9.75844 10.1732 9.75798L10.5713 9.75489L10.6973 9.37057C10.7134 9.32073 10.7827 9.32073 10.799 9.37057Z" fill="#F5F5F5"/>
<path d="M12.3324 2.31451L12.4584 2.69883L12.8565 2.70191C12.9081 2.70237 12.9294 2.76926 12.8879 2.80042L12.5677 3.04111L12.6878 3.42733C12.7034 3.47731 12.6474 3.51875 12.6054 3.48819L12.2816 3.25262L11.9577 3.48819C11.9157 3.51869 11.8599 3.47731 11.8753 3.42733L11.9955 3.04111L11.6752 2.80042C11.6337 2.7692 11.6551 2.70237 11.7066 2.70191L12.1048 2.69883L12.2307 2.31451C12.247 2.26479 12.3162 2.26479 12.3324 2.31451Z" fill="#F5F5F5"/>
<path d="M12.3324 4.32499L12.4584 4.70931L12.8565 4.7124C12.9081 4.71285 12.9294 4.77975 12.8879 4.8109L12.5677 5.05159L12.6878 5.43782C12.7034 5.48779 12.6474 5.52924 12.6054 5.49868L12.2816 5.2631L11.9577 5.49868C11.9157 5.52918 11.8599 5.48786 11.8753 5.43782L11.9955 5.05159L11.6752 4.8109C11.6337 4.77968 11.6551 4.71285 11.7066 4.7124L12.1048 4.70931L12.2307 4.32499C12.247 4.27521 12.3162 4.27521 12.3324 4.32499Z" fill="#F5F5F5"/>
<path d="M12.3324 6.33543L12.4584 6.71975L12.8565 6.72283C12.9081 6.72329 12.9294 6.79019 12.8879 6.82134L12.5677 7.06203L12.6878 7.44825C12.7034 7.49823 12.6474 7.53968 12.6054 7.50912L12.2816 7.27354L11.9577 7.50912C11.9157 7.53961 11.8599 7.49823 11.8753 7.44825L11.9955 7.06203L11.6752 6.82134C11.6337 6.79012 11.6551 6.72329 11.7066 6.72283L12.1048 6.71975L12.2307 6.33543C12.247 6.28565 12.3162 6.28565 12.3324 6.33543Z" fill="#F5F5F5"/>
<path d="M12.3324 8.34582L12.4584 8.73014L12.8565 8.73322C12.9081 8.73368 12.9294 8.80057 12.8879 8.83173L12.5677 9.07242L12.6878 9.45864C12.7034 9.50862 12.6474 9.55007 12.6054 9.5195L12.2816 9.28393L11.9577 9.5195C11.9157 9.55 11.8599 9.50862 11.8753 9.45864L11.9955 9.07242L11.6752 8.83173C11.6337 8.80051 11.6551 8.73368 11.7066 8.73322L12.1048 8.73014L12.2307 8.34582C12.247 8.2961 12.3162 8.2961 12.3324 8.34582Z" fill="#F5F5F5"/>
<path d="M13.8661 1.32884L13.9921 1.71316L14.3902 1.71624C14.4417 1.7167 14.4631 1.78359 14.4216 1.81475L14.1014 2.05544L14.2215 2.44166C14.2371 2.49164 14.1811 2.53309 14.1391 2.50252L13.8153 2.26695L13.4914 2.50252C13.4494 2.53302 13.3935 2.49164 13.409 2.44166L13.5292 2.05544L13.2089 1.81475C13.1674 1.78353 13.1888 1.7167 13.2403 1.71624L13.6385 1.71316L13.7644 1.32884C13.7806 1.27906 13.8497 1.27906 13.8661 1.32884Z" fill="#F5F5F5"/>
<path d="M13.8661 3.33929L13.9921 3.72361L14.3902 3.72669C14.4417 3.72715 14.4631 3.79404 14.4216 3.8252L14.1014 4.06589L14.2215 4.45211C14.2371 4.50209 14.1811 4.54353 14.1391 4.51297L13.8153 4.2774L13.4914 4.51297C13.4494 4.54347 13.3935 4.50209 13.409 4.45211L13.5292 4.06589L13.2089 3.8252C13.1674 3.79398 13.1888 3.72715 13.2403 3.72669L13.6385 3.72361L13.7644 3.33929C13.7806 3.28957 13.8497 3.28957 13.8661 3.33929Z" fill="#F5F5F5"/>
<path d="M13.8661 5.34972L13.9921 5.73404L14.3902 5.73713C14.4417 5.73759 14.4631 5.80448 14.4216 5.83563L14.1014 6.07633L14.2215 6.46255C14.2371 6.51252 14.1811 6.55397 14.1391 6.52341L13.8153 6.28783L13.4914 6.52341C13.4494 6.55391 13.3935 6.51252 13.409 6.46255L13.5292 6.07633L13.2089 5.83563C13.1674 5.80442 13.1888 5.73759 13.2403 5.73713L13.6385 5.73404L13.7644 5.34972C13.7806 5.30001 13.8497 5.30001 13.8661 5.34972Z" fill="#F5F5F5"/>
<path d="M13.8661 7.36015L13.9921 7.74447L14.3902 7.74755C14.4417 7.74801 14.4631 7.81491 14.4216 7.84606L14.1014 8.08675L14.2215 8.47297C14.2371 8.52295 14.1811 8.5644 14.1391 8.53383L13.8153 8.29826L13.4914 8.53383C13.4494 8.56433 13.3935 8.52295 13.409 8.47297L13.5292 8.08675L13.2089 7.84606C13.1674 7.81484 13.1888 7.74801 13.2403 7.74755L13.6385 7.74447L13.7644 7.36015C13.7806 7.31037 13.8497 7.31037 13.8661 7.36015Z" fill="#F5F5F5"/>
<path d="M13.8661 9.37057L13.9921 9.75489L14.3902 9.75798C14.4417 9.75844 14.4631 9.82533 14.4216 9.85648L14.1014 10.0972L14.2215 10.4834C14.2371 10.5334 14.1811 10.5748 14.1391 10.5443L13.8153 10.3087L13.4914 10.5443C13.4494 10.5748 13.3935 10.5334 13.409 10.4834L13.5292 10.0972L13.2089 9.85648C13.1674 9.82527 13.1888 9.75844 13.2403 9.75798L13.6385 9.75489L13.7644 9.37057C13.7806 9.32073 13.8497 9.32073 13.8661 9.37057Z" fill="#F5F5F5"/>
</svg>
