<svg xmlns="http://www.w3.org/2000/svg" width="1440" height="636.686"><path d="M0 467.656l18.5-16c18.4-16 55.5-48 92.5-42.7 36.7 5.7 74 47.7 111 85.4 36.5 37.3 73 69.3 110 96 37.2 26.3 74 48.3 111 21.3 37-27 74-101 111-101.3 36.8.3 74 74.3 111 106.6 36.5 31.7 73 21.7 110-5.3 37.3-27 74-69 111-101.3 37.1-31.7 74-53.7 111-37.4 36.8 15.7 74 69.7 111 96 36.6 26.7 74 26.7 110-16 37.4-42.3 74-128.3 111-149.3 37.2-21 74 21 93 42.7l18 21.3v-128h-18.5L929.776 17.69 1421.5 339.656l-3.918-341.425-332.13-22.998-753.771 38.92L775 339.655 331.68 14.152 554 339.656 331.68 14.152l.32 325.504-.32-325.504L7.077 10.614 18 339.656 7.076 10.614z" fill="#09f"/><path d="M0 467.656l18.5-16c18.4-16 55.5-48 92.5-42.7 36.7 5.7 74 47.7 111 85.4 36.5 37.3 73 69.3 110 96 37.2 26.3 74 48.3 111 21.3 37-27 74-101 111-101.3 36.8.3 74 74.3 111 106.6 36.5 31.7 73 21.7 110-5.3 37.3-27 74-69 111-101.3 37.1-31.7 74-53.7 111-37.4 36.8 15.7 74 69.7 111 96 36.6 26.7 74 26.7 110-16 37.4-42.3 74-128.3 111-149.3 37.2-21 74 21 93 42.7l18 21.3v-128h-18.5L929.776 17.69 1440 339.656 1417.582-1.769l-332.13-22.998-753.771 38.92L775 339.655 331.68 14.152 554 339.656 331.68 14.152l.32 325.504-.32-325.504L7.077 10.614 18 339.656 7.076 10.614z" fill="#09f"/><path d="M0 467.656l18.5-16c18.4-16 55.5-48 92.5-42.7 36.7 5.7 74 47.7 111 85.4 36.5 37.3 73 69.3 110 96 37.2 26.3 74 48.3 111 21.3 37-27 74-101 111-101.3 36.8.3 74 74.3 111 106.6 36.5 31.7 73 21.7 110-5.3 37.3-27 74-69 111-101.3 37.1-31.7 74-53.7 111-37.4 36.8 15.7 74 69.7 111 96 36.6 26.7 74 26.7 110-16 37.4-42.3 74-128.3 111-149.3 37.2-21 74 21 93 42.7l18 21.3v-128h-18.5L929.776 17.69 1440 339.656l18.27-344.963-372.818-19.46-753.771 38.92L775 339.655 331.68 14.152 554 339.656 331.68 14.152l.32 325.504-.32-325.504L7.077 10.614 18 339.656 7.076 10.614z" fill="#09f"/><path d="M0 467.656l18.5-16c18.4-16 55.5-48 92.5-42.7 36.7 5.7 74 47.7 111 85.4 36.5 37.3 73 69.3 110 96 37.2 26.3 74 48.3 111 21.3 37-27 74-101 111-101.3 36.8.3 74 74.3 111 106.6 36.5 31.7 73 21.7 110-5.3 37.3-27 74-69 111-101.3 37.1-31.7 74-53.7 111-37.4 36.8 15.7 74 69.7 111 96 36.6 26.7 74 26.7 110-16 37.4-42.3 74-128.3 111-149.3 37.2-21 74 21 93 42.7l18 21.3v-128h-18.5L929.776 17.69 1440 339.656l18.27-344.963-372.818-19.46-753.771 38.92L775 339.655 331.68 14.152 554 339.656 331.68 14.152l.32 325.504L634.187-15.921 7.077 10.614 18 339.656 7.076 10.614z" fill="#fff"/><path d="M0 467.656l18.5-16c18.4-16 55.5-48 92.5-42.7 36.7 5.7 74 47.7 111 85.4 36.5 37.3 73 69.3 110 96 37.2 26.3 74 48.3 111 21.3 37-27 74-101 111-101.3 36.8.3 74 74.3 111 106.6 36.5 31.7 73 21.7 110-5.3 37.3-27 74-69 111-101.3 37.1-31.7 74-53.7 111-37.4 36.8 15.7 74 69.7 111 96 36.6 26.7 74 26.7 110-16 37.4-42.3 74-128.3 111-149.3 37.2-21 74 21 93 42.7l18 21.3v-128l39.878-37.15L929.776 17.69 1440 339.656l18.27-344.963-372.818-19.46-753.771 38.92L775 339.655 331.68 14.152 554 339.656 331.68 14.152l.32 325.504L634.187-15.921-33.612-7.076.31 336.118l27.995-275.97z" fill="#fff"/></svg>