<svg xmlns="http://www.w3.org/2000/svg" width="1473.671" height="594.237"><path d="M3.538 74.838L46.85 44.835C65.295 31.48 102.486 4.773 139.577 9.196c36.79 4.758 74.182 39.812 111.273 71.277 36.59 31.131 73.18 57.84 110.27 80.124 37.292 21.95 31.725-.478 68.816-23.013s116.639-95.951 153.73-96.201c36.89.25 120.177 111.543 157.268 138.501 36.59 26.458 27.184 21.025 64.275-1.51C842.6 155.84 882.929 74.168 920.019 47.21c37.192-26.458 70.644-44.82 107.735-31.215 36.89 13.104 74.182 104.79 111.273 126.74 36.69 22.285 74.182 22.285 110.27-13.353C1286.79 94.077 1323.48 22.3 1360.57 4.772c37.291-17.526 74.182 17.528 93.228 35.64l18.045 17.777 72.53 197.657-70.702 332.564-113.101-369.974 113.1 369.974-334.643-369.974 334.644 369.974-557.19-369.974 613.799 396.51-814.113-32.364-132.501-364.146 511.43 398.278-378.929-34.132 222.9 7.077-313.121-19.97 833.572 32.873L0 594.237c-144.856-16.8-153.065-308.57 3.538-519.4z" fill="#fff"/><path d="M3.538 74.838L46.85 44.835C65.295 31.48 102.486 4.773 139.577 9.196c36.79 4.758 74.182 39.812 111.273 71.277 36.59 31.131 73.18 57.84 110.27 80.124 37.292 21.95 31.725-.478 68.816-23.013s116.639-95.951 153.73-96.201c36.89.25 120.177 111.543 157.268 138.501 36.59 26.458 27.184 21.025 64.275-1.51C842.6 155.84 882.929 74.168 920.019 47.21c37.192-26.458 70.644-44.82 107.735-31.215 36.89 13.104 74.182 104.79 111.273 126.74 36.69 22.285 74.182 22.285 110.27-13.353C1286.79 94.077 1323.48 22.3 1360.57 4.772c37.291-17.526 74.182 17.528 93.228 35.64l18.045 17.777-1606.29 572.694L1473.67 588.41l-113.1-369.974 113.1 369.974-334.643-369.974 334.644 369.974-557.19-369.974 613.799 396.51-814.113-32.364-132.501-364.146 511.43 398.278-378.929-34.132 222.9 7.077-313.121-19.97 833.572 32.873L0 594.237c-144.856-16.8-153.065-308.57 3.538-519.4z" fill="#fff"/></svg>