<svg width="127" height="90" fill="none" xmlns="http://www.w3.org/2000/svg"><path d="M51.764 14.24c-3.289-5.362-8.151-9.46-13.856-11.682a26.922 26.922 0 00-17.78-.634C14.292 3.734 9.175 7.477 5.545 12.592 1.915 17.707-.03 23.917 0 30.288a30.52 30.52 0 003.928 14.995c2.568 4.54 6.254 8.275 10.672 10.814a27.125 27.125 0 0014.444 3.621c5.038-.168 9.94-1.75 14.194-4.58-2.212 6.876-6.331 14.21-13.118 21.563-1.299 1.406-2.01 3.295-1.979 5.25a7.67 7.67 0 00.582 2.813c.368.888.9 1.692 1.566 2.365a7.017 7.017 0 002.31 1.558c.861.355 1.78.53 2.705.513 1.868-.033 3.647-.842 4.945-2.248 25.089-27.218 21.83-56.805 11.515-72.677v-.035zm67.532 0c-3.289-5.362-8.151-9.46-13.856-11.682a26.922 26.922 0 00-17.78-.634c-5.836 1.81-10.953 5.553-14.583 10.668-3.63 5.115-5.575 11.325-5.545 17.696.004 5.277 1.36 10.455 3.928 14.995 2.568 4.54 6.254 8.275 10.672 10.814a27.125 27.125 0 0014.444 3.621c5.038-.168 9.94-1.75 14.194-4.58-2.212 6.876-6.331 14.21-13.118 21.563a7.422 7.422 0 00-1.488 2.42 7.683 7.683 0 00.091 5.643 7.39 7.39 0 001.566 2.365 7.014 7.014 0 002.311 1.558 6.762 6.762 0 005.39-.096 7.048 7.048 0 002.26-1.639c25.088-27.218 21.829-56.805 11.514-72.677v-.035z" fill="#F8F8F8" fill-opacity=".2"/></svg>