<svg width="47" height="47" viewBox="0 0 47 47" fill="none" xmlns="http://www.w3.org/2000/svg">
<circle cx="23.5" cy="23.5" r="23" stroke="white"/>
<path d="M11.5234 19.1973H11.5508C13.1504 19.1973 14.2054 19.776 14.7158 20.9336C14.8206 21.2526 14.873 21.5807 14.873 21.918C14.873 22.7975 14.529 23.611 13.8408 24.3584C11.8311 26.4411 10.735 27.5827 10.5527 27.7832H15.2422C15.2604 27.7878 15.2695 27.7992 15.2695 27.8174C15.0326 28.6012 14.9049 28.9954 14.8867 29H8.35156C8.33333 29 8.32422 28.9909 8.32422 28.9727V28.2617L12.7061 23.791C13.2165 23.2168 13.4717 22.6631 13.4717 22.1299V21.9316C13.4717 21.2754 13.098 20.8151 12.3506 20.5508C12.0589 20.4551 11.7467 20.4072 11.4141 20.4072C10.6211 20.4072 9.66862 20.7718 8.55664 21.501H8.52246V20.2432C9.47038 19.5459 10.4707 19.1973 11.5234 19.1973ZM20.8066 19.1973H22.5635C22.5863 19.2018 22.5977 19.2132 22.5977 19.2314V25.3906H24.0605C24.0788 25.3906 24.1927 25.7324 24.4023 26.416C24.4297 26.5163 24.4434 26.5687 24.4434 26.5732L24.416 26.5869H22.5977V28.9658C22.5977 28.9886 22.5863 29 22.5635 29H21.2578C21.235 29 21.2236 28.9886 21.2236 28.9658V26.5869H16.1855C16.1582 26.5869 16.0238 26.2565 15.7822 25.5957C15.8005 25.5866 17.2109 23.7865 20.0137 20.1953C20.4375 19.6439 20.7018 19.3112 20.8066 19.1973ZM17.5254 25.377V25.3906H21.2441C21.2624 25.3906 21.2715 25.3815 21.2715 25.3633V20.5508C20.9889 20.8971 19.7402 22.5059 17.5254 25.377ZM31.1016 17.8301C31.1243 17.8346 31.1357 17.8438 31.1357 17.8574C28.2191 26.1882 26.7402 30.3991 26.6992 30.4902H25.5645C25.5462 30.4902 25.5371 30.4811 25.5371 30.4629C28.4538 22.1322 29.9303 17.9212 29.9668 17.8301H31.1016ZM32.4756 19.1973H39.0312C39.0495 19.2018 39.0586 19.2132 39.0586 19.2314V19.9287C38.931 20.266 37.6117 23.2897 35.1006 29H33.6514L33.624 28.9863L37.4932 20.4277H32.4756C32.4528 20.4277 32.4414 20.4163 32.4414 20.3936V19.2314C32.446 19.2087 32.4574 19.1973 32.4756 19.1973Z" fill="white"/>
</svg>
