<svg width="60" height="54" viewBox="0 0 60 54" fill="none" xmlns="http://www.w3.org/2000/svg">
<path d="M6.96854 34.6908C6.96379 34.7295 6.9613 34.7684 6.96108 34.8073C6.96104 35.0519 7.05156 35.2878 7.21518 35.4697C10.4033 44.9036 19.3386 51.714 29.8348 51.714C42.9958 51.714 53.7031 41.0067 53.7031 27.8457C53.7003 22.9514 52.1947 18.176 49.3898 14.1652C46.5849 10.1543 42.6161 7.10154 38.0199 5.41953C36.6412 2.27439 33.5455 0.0471889 29.9534 0.000695573C28.1789 -0.0214025 26.4377 0.483482 24.9503 1.45144C23.4629 2.41939 22.2961 3.8069 21.5977 5.43831C18.25 6.67183 15.2211 8.6394 12.7332 11.1966C10.2454 13.7537 8.36174 16.8356 7.22065 20.2159C7.05363 20.3983 6.96102 20.6368 6.96108 20.8842C6.96134 20.9242 6.96399 20.9643 6.96904 21.004C5.63272 25.4685 5.63272 30.2265 6.96904 34.691L6.96854 34.6908ZM14.8387 43.7619C12.4778 41.5388 10.6386 38.8203 9.45332 35.8018H13.9227V36.7963C13.9227 37.0601 14.0274 37.3131 14.2139 37.4996C14.4004 37.6861 14.6534 37.7908 14.9172 37.7908H18.3979L21.0831 41.3711C21.1758 41.4946 21.2959 41.5948 21.434 41.6639C21.5721 41.7329 21.7243 41.7689 21.8787 41.7689H22.4943C22.6753 42.465 22.8681 43.1281 23.0729 43.7579H14.9172C14.8907 43.7579 14.8647 43.7599 14.8387 43.7619ZM28.012 21.3249L28.8403 22.2572V23.994C27.9028 24.2361 27.0858 24.8117 26.5424 25.6131C25.999 26.4144 25.7665 27.3865 25.8885 28.347C26.0105 29.3075 26.4786 30.1905 27.2051 30.8306C27.9316 31.4706 28.8666 31.8238 29.8348 31.8238C30.803 31.8238 31.738 31.4706 32.4645 30.8306C33.191 30.1905 33.6592 29.3075 33.7812 28.347C33.9032 27.3865 33.6707 26.4144 33.1272 25.6131C32.5838 24.8117 31.7668 24.2361 30.8293 23.994V22.2568L31.4045 21.6095L40.7654 19.9077L44.7525 20.705V25.6951L42.9447 31.1182L39.3351 32.9231C39.1699 33.0057 39.031 33.1327 38.9339 33.2899C38.8368 33.447 38.7854 33.6281 38.7854 33.8128V36.7963H38.2027L35.5106 34.1041C35.4183 34.0117 35.3086 33.9385 35.188 33.8885C35.0673 33.8385 34.938 33.8128 34.8074 33.8128H30.8293C30.6987 33.8128 30.5694 33.8385 30.4487 33.8885C30.3281 33.9385 30.2184 34.0117 30.1261 34.1041L27.5777 36.6525L25.1768 35.8528C25.0273 35.803 24.8681 35.7894 24.7123 35.8131C24.5565 35.8369 24.4086 35.8973 24.2807 35.9895C24.1529 36.0816 24.0488 36.2028 23.977 36.3431C23.9052 36.4834 23.8677 36.6387 23.8678 36.7963V39.7799H22.376L19.6908 36.1996C19.5982 36.0761 19.4781 35.9759 19.34 35.9068C19.2019 35.8378 19.0496 35.8018 18.8952 35.8018H15.9117V32.8183C15.9116 32.6031 15.8418 32.3938 15.7128 32.2216L12.9703 28.5649L13.8626 21.4264L17.2377 18.8951H20.7226L28.012 21.3249ZM23.6966 17.7897C23.7608 17.421 23.8286 17.0574 23.9001 16.6989L25.3635 18.3454L23.6966 17.7897ZM29.8348 27.8457C30.0986 27.8457 30.3515 27.741 30.538 27.5545C30.7245 27.3679 30.8293 27.115 30.8293 26.8512V26.1259C31.2085 26.3448 31.5049 26.6827 31.6724 27.0872C31.84 27.4918 31.8694 27.9403 31.7561 28.3632C31.6427 28.7861 31.393 29.1598 31.0457 29.4264C30.6983 29.6929 30.2727 29.8374 29.8348 29.8374C29.397 29.8374 28.9713 29.6929 28.624 29.4264C28.2766 29.1598 28.0269 28.7861 27.9136 28.3632C27.8002 27.9403 27.8296 27.4918 27.9972 27.0872C28.1648 26.6827 28.4611 26.3448 28.8403 26.1259V26.8512C28.8403 27.115 28.9451 27.3679 29.1316 27.5545C29.3181 27.741 29.5711 27.8457 29.8348 27.8457ZM33.5481 19.1982L35.7694 16.6995C35.9005 17.3584 36.0196 18.0351 36.1268 18.7297L33.5481 19.1982ZM36.0489 37.4552C35.7113 39.5965 35.1914 41.7051 34.495 43.7579H25.1749C24.9554 43.1346 24.7482 42.4716 24.5533 41.7689H24.8623C25.126 41.7689 25.379 41.6641 25.5655 41.4776C25.752 41.2911 25.8568 41.0381 25.8568 40.7744V38.1762L27.5313 38.7344C27.7065 38.7928 27.8945 38.8013 28.0743 38.7588C28.2541 38.7164 28.4184 38.6247 28.549 38.4941L31.2412 35.8018H34.3955L36.0489 37.4552ZM17.2698 45.7469H23.8034C24.4089 47.2046 25.0873 48.4146 25.8237 49.3551C22.7461 48.7815 19.8285 47.5508 17.2698 45.7469ZM29.8348 49.725C28.5153 49.725 27.144 48.2567 25.978 45.7469H33.6979C32.5449 48.2509 31.1839 49.725 29.8348 49.725ZM33.8546 49.3534C34.3301 48.7353 34.7494 48.076 35.1076 47.3834C35.373 46.8771 35.6262 46.3295 35.8676 45.7469H42.3998C39.8436 47.549 36.929 48.7791 33.8546 49.3534ZM44.8309 43.7619C44.8049 43.7599 44.7789 43.7579 44.7525 43.7579H36.5967C37.1168 42.1289 37.5307 40.4679 37.8356 38.7854H39.7799C40.0437 38.7854 40.2966 38.6806 40.4831 38.4941C40.6697 38.3076 40.7744 38.0546 40.7744 37.7908V35.8018H50.2163C49.031 38.8203 47.1918 41.5388 44.8309 43.7619ZM50.8799 21.8646C51.991 25.7747 51.9921 29.9168 50.883 33.8274C50.829 33.818 50.7743 33.8132 50.7195 33.8128H42.0036L44.2028 32.7132C44.4386 32.5953 44.618 32.3885 44.7014 32.1383L46.6904 26.1712C46.7242 26.0698 46.7415 25.9636 46.7415 25.8567V21.8787H50.7195C50.7733 21.8783 50.8269 21.8736 50.8799 21.8646ZM38.6999 7.83644C40.5086 8.63769 42.1998 9.68148 43.7269 10.9391H38.6253C38.7311 10.3212 38.7847 9.69551 38.7854 9.06864C38.7848 8.65645 38.7562 8.24477 38.6999 7.83644ZM38.0946 12.9281H45.747C45.7771 12.9281 45.8065 12.9262 45.836 12.9236C47.7212 14.9491 49.2069 17.3126 50.2147 19.8897H46.7415C46.7415 19.6597 46.6618 19.4369 46.5161 19.2591C46.3703 19.0813 46.1675 18.9595 45.942 18.9144L40.9695 17.9199C40.8465 17.8954 40.7199 17.8943 40.5965 17.9167L38.0844 18.373C37.8774 17.0415 37.6264 15.7647 37.3353 14.5616C37.6321 14.0385 37.886 13.4922 38.0946 12.9281ZM22.8732 8.95005C22.8732 7.10372 23.6067 5.33302 24.9122 4.02747C26.2178 2.72192 27.9885 1.98847 29.8348 1.98847C29.8658 1.98847 29.897 1.98847 29.9281 1.9891C33.715 2.0382 36.7964 5.21404 36.7964 9.06864C36.7974 11.3113 35.9746 13.4763 34.4841 15.1521L29.8348 20.3817L25.1855 15.1519C23.6951 13.4762 22.8722 11.3113 22.8732 9.06864V8.95005ZM20.9541 7.84365C20.9084 8.21069 20.8851 8.58017 20.8842 8.95005V9.06877C20.8849 9.69559 20.9385 10.3212 21.0443 10.9391H15.9427C17.4654 9.68519 19.1512 8.64387 20.9541 7.84365ZM13.8336 12.9237C13.863 12.9263 13.8926 12.9282 13.9227 12.9282H21.575C21.7834 13.4922 22.0373 14.0384 22.334 14.5613C22.1332 15.3911 21.9506 16.2587 21.789 17.154L21.1987 16.9572C21.0973 16.9235 20.9911 16.9062 20.8842 16.9061H16.9062C16.691 16.9061 16.4816 16.9759 16.3095 17.105L12.5966 19.8897H9.45494C10.4628 17.3126 11.9484 14.9491 13.8336 12.9236V12.9237ZM8.78563 21.8787H11.8016L10.9468 28.7169C10.9149 28.9726 10.9834 29.2308 11.138 29.437L13.9227 33.1498V33.8128H8.78277C7.67889 29.9112 7.67988 25.7797 8.78563 21.8787Z" fill="#606060"/>
<path d="M29.8358 13.9226C30.8193 13.9226 31.7807 13.631 32.5984 13.0846C33.4162 12.5382 34.0535 11.7616 34.4299 10.853C34.8062 9.94439 34.9047 8.94458 34.7128 7.98C34.521 7.01542 34.0474 6.12939 33.352 5.43397C32.6565 4.73854 31.7705 4.26495 30.8059 4.07309C29.8413 3.88122 28.8415 3.97969 27.9329 4.35605C27.0243 4.73241 26.2477 5.36976 25.7013 6.18749C25.1549 7.00522 24.8633 7.96662 24.8633 8.95009C24.8648 10.2684 25.3891 11.5324 26.3213 12.4646C27.2536 13.3968 28.5175 13.9212 29.8358 13.9226ZM29.8358 5.96656C30.4259 5.96656 31.0028 6.14154 31.4934 6.46938C31.984 6.79721 32.3664 7.26318 32.5923 7.80835C32.8181 8.35351 32.8772 8.9534 32.762 9.53215C32.6469 10.1109 32.3628 10.6425 31.9455 11.0598C31.5283 11.477 30.9966 11.7612 30.4179 11.8763C29.8391 11.9914 29.2393 11.9323 28.6941 11.7065C28.1489 11.4807 27.683 11.0983 27.3551 10.6077C27.0273 10.117 26.8523 9.54018 26.8523 8.95009C26.8532 8.15909 27.1679 7.40076 27.7272 6.84144C28.2865 6.28211 29.0448 5.96748 29.8358 5.96656Z" fill="#606060"/>
<path d="M1.59184 21.8936C1.33199 21.8484 1.06485 21.9084 0.849177 22.0602C0.633509 22.212 0.486976 22.4433 0.441811 22.7031C0.14765 24.4016 -0.000163529 26.1222 1.35763e-07 27.846C1.35763e-07 28.1097 0.104779 28.3627 0.291285 28.5492C0.477792 28.7357 0.73075 28.8405 0.99451 28.8405C1.25827 28.8405 1.51123 28.7357 1.69774 28.5492C1.88424 28.3627 1.98902 28.1097 1.98902 27.846C1.98882 26.2364 2.12677 24.6297 2.40137 23.0437C2.42374 22.9151 2.42054 22.7832 2.39196 22.6558C2.36339 22.5284 2.30999 22.4078 2.23482 22.301C2.15964 22.1942 2.06417 22.1032 1.95385 22.0333C1.84352 21.9634 1.72051 21.9159 1.59184 21.8936Z" fill="#606060"/>
<path d="M1.60092 33.8418C1.47415 33.8732 1.35482 33.9293 1.24973 34.0068C1.14464 34.0844 1.05585 34.1819 0.988438 34.2937C0.921023 34.4056 0.876301 34.5296 0.856824 34.6588C0.837347 34.7879 0.843498 34.9196 0.874925 35.0464C1.13424 36.0918 1.45022 37.1224 1.82145 38.1336C1.86586 38.257 1.93425 38.3704 2.02267 38.4673C2.11109 38.5642 2.2178 38.6426 2.33665 38.698C2.45551 38.7535 2.58416 38.7849 2.7152 38.7904C2.84624 38.796 2.97708 38.7756 3.1002 38.7303C3.22331 38.6851 3.33625 38.6159 3.43254 38.5269C3.52882 38.4378 3.60653 38.3306 3.6612 38.2114C3.71587 38.0921 3.74642 37.9633 3.75109 37.8322C3.75575 37.7011 3.73445 37.5704 3.68839 37.4476C3.34226 36.5044 3.04762 35.543 2.80577 34.5678C2.77434 34.441 2.71825 34.3216 2.64069 34.2165C2.56313 34.1114 2.46562 34.0226 2.35373 33.9552C2.24185 33.8878 2.11778 33.8431 1.98861 33.8236C1.85944 33.8041 1.7277 33.8103 1.60092 33.8418Z" fill="#606060"/>
<path d="M4.46797 41.6143C4.24076 41.7483 4.07607 41.967 4.01011 42.2224C3.94416 42.4777 3.98235 42.7488 4.11628 42.9761C4.59203 43.783 5.11216 44.5771 5.66225 45.336C5.73857 45.4426 5.8352 45.533 5.94657 45.602C6.05795 45.6711 6.18188 45.7175 6.31124 45.7385C6.44059 45.7595 6.57283 45.7548 6.70034 45.7245C6.82786 45.6942 6.94813 45.6391 7.05426 45.5622C7.16038 45.4853 7.25026 45.3882 7.31872 45.2764C7.38719 45.1647 7.43289 45.0405 7.45321 44.911C7.47352 44.7816 7.46805 44.6494 7.4371 44.522C7.40615 44.3947 7.35033 44.2747 7.27286 44.169C6.75932 43.4604 6.27375 42.7192 5.8297 41.966C5.69576 41.7388 5.47704 41.5741 5.22167 41.5082C4.9663 41.4422 4.69518 41.4804 4.46797 41.6143Z" fill="#606060"/>
<path d="M11.6922 48.9708C11.5933 48.8847 11.4784 48.8191 11.354 48.7776C11.2297 48.7362 11.0983 48.7197 10.9676 48.7292C10.8368 48.7386 10.7092 48.7739 10.5922 48.8328C10.4751 48.8918 10.3708 48.9733 10.2853 49.0727C10.1999 49.1721 10.1349 49.2874 10.0942 49.412C10.0534 49.5366 10.0377 49.6681 10.048 49.7987C10.0582 49.9294 10.0942 50.0568 10.1538 50.1736C10.2135 50.2903 10.2956 50.3941 10.3955 50.479C11.7381 51.6329 13.1802 52.6656 14.705 53.5652C14.9322 53.6991 15.2033 53.7373 15.4587 53.6714C15.7141 53.6054 15.9329 53.4407 16.0668 53.2135C16.2008 52.9863 16.239 52.7151 16.173 52.4597C16.1071 52.2043 15.9424 51.9856 15.7151 51.8516C14.2918 51.0119 12.9456 50.0479 11.6922 48.9708Z" fill="#606060"/>
<path d="M57.6174 29.7676C57.5514 30.7332 57.4355 31.6948 57.2702 32.6484C57.2465 32.7776 57.2487 32.9102 57.2766 33.0386C57.3045 33.1669 57.3575 33.2885 57.4326 33.3962C57.5077 33.504 57.6034 33.5958 57.7142 33.6663C57.825 33.7369 57.9487 33.7848 58.0781 33.8072C58.2075 33.8297 58.3401 33.8264 58.4682 33.7974C58.5963 33.7683 58.7174 33.7142 58.8244 33.6381C58.9315 33.5621 59.0224 33.4655 59.092 33.3541C59.1616 33.2427 59.2084 33.1186 59.2297 32.989C59.407 31.9674 59.5312 30.9373 59.6017 29.9028C59.6166 29.6414 59.5278 29.3846 59.3546 29.1882C59.1814 28.9918 58.9377 28.8717 58.6764 28.8539C58.4151 28.8361 58.1574 28.922 57.9591 29.0931C57.7608 29.2641 57.638 29.5065 57.6174 29.7676Z" fill="#606060"/>
<path d="M58.2065 18.5872C58.1229 18.3389 57.9446 18.1335 57.7103 18.0159C57.4761 17.8983 57.2049 17.8779 56.9557 17.9592C56.7065 18.0404 56.4995 18.2167 56.3796 18.4498C56.2598 18.6829 56.2368 18.9539 56.3156 19.2038C56.8251 20.768 57.1946 22.3744 57.4196 24.004C57.4375 24.1333 57.4806 24.2579 57.5466 24.3706C57.6126 24.4833 57.7002 24.5819 57.8043 24.6608C57.9084 24.7397 58.027 24.7973 58.1533 24.8303C58.2797 24.8633 58.4113 24.8711 58.5407 24.8533C58.6701 24.8354 58.7947 24.7923 58.9074 24.7263C59.0201 24.6603 59.1187 24.5727 59.1975 24.4686C59.2764 24.3645 59.334 24.2459 59.367 24.1196C59.4 23.9932 59.4078 23.8616 59.39 23.7322C59.1488 21.9855 58.7528 20.2637 58.2065 18.5872Z" fill="#606060"/>
<path d="M52.4685 8.40609C52.3838 8.30546 52.2801 8.22261 52.1632 8.16234C52.0463 8.10208 51.9186 8.06559 51.7875 8.05499C51.6565 8.04439 51.5246 8.0599 51.3996 8.1006C51.2745 8.14131 51.1588 8.20641 51.0591 8.29214C50.9594 8.37787 50.8776 8.48252 50.8186 8.60004C50.7596 8.71756 50.7245 8.84562 50.7153 8.9768C50.7061 9.10798 50.7231 9.23968 50.7651 9.36428C50.8072 9.48887 50.8735 9.6039 50.9603 9.70268C52.4772 11.4669 53.7677 13.4139 54.8016 15.4983C54.858 15.6179 54.9376 15.7251 55.0359 15.8136C55.1342 15.9021 55.2491 15.97 55.374 16.0135C55.4989 16.0571 55.6312 16.0752 55.7631 16.067C55.8951 16.0588 56.0241 16.0243 56.1426 15.9656C56.2611 15.9069 56.3667 15.8252 56.4533 15.7252C56.5398 15.6252 56.6055 15.5089 56.6466 15.3832C56.6876 15.2575 56.7032 15.1249 56.6924 14.9931C56.6816 14.8613 56.6446 14.733 56.5836 14.6157C55.4762 12.3823 54.0937 10.2963 52.4685 8.40609Z" fill="#606060"/>
</svg>
