<svg width="26" height="27" viewBox="0 0 26 27" fill="none" xmlns="http://www.w3.org/2000/svg">
<path d="M13 25.8769C6.10316 25.8769 0.499953 20.2029 0.499954 13.1884C0.499954 6.17399 6.10316 0.499999 13 0.499999C19.8968 0.5 25.5 6.174 25.5 13.1884C25.5 20.2029 19.8968 25.8769 13 25.8769Z" stroke="black"/>
<path fill-rule="evenodd" clip-rule="evenodd" d="M18.3885 10.0607C18.7403 10.4125 18.7403 10.9829 18.3885 11.3347L13.5841 16.139C13.2324 16.4908 12.662 16.4908 12.3102 16.139L7.50584 11.3347C7.15405 10.9829 7.15405 10.4125 7.50584 10.0607C7.85763 9.70893 8.42799 9.70893 8.77979 10.0607L12.9472 14.2281L17.1146 10.0607C17.4663 9.70893 18.0367 9.70893 18.3885 10.0607Z" fill="black"/>
</svg>
