<svg width="26" height="25" viewBox="0 0 26 25" fill="none" xmlns="http://www.w3.org/2000/svg">
<path d="M24.8623 12.5C24.8623 19.1207 19.4154 24.5 12.6812 24.5C5.94688 24.5 0.5 19.1207 0.5 12.5C0.5 5.87934 5.94688 0.5 12.6812 0.5C19.4154 0.5 24.8623 5.87934 24.8623 12.5Z" stroke="white"/>
<path fill-rule="evenodd" clip-rule="evenodd" d="M9.67362 7.31912C10.0119 6.98086 10.5603 6.98086 10.8986 7.31912L15.5181 11.9387C15.8564 12.277 15.8564 12.8254 15.5181 13.1636L10.8986 17.7832C10.5603 18.1215 10.0119 18.1215 9.67362 17.7832C9.33536 17.4449 9.33536 16.8965 9.67362 16.5583L13.6807 12.5512L9.67362 8.54407C9.33536 8.20581 9.33536 7.65738 9.67362 7.31912Z" fill="white"/>
</svg>
