<svg width="16" height="15" viewBox="0 0 16 15" fill="none" xmlns="http://www.w3.org/2000/svg">
<path d="M15.3926 7.50028C15.3926 11.3003 12.2654 14.3931 8.39258 14.3931C4.51978 14.3931 1.39258 11.3003 1.39258 7.50028C1.39258 3.70022 4.51978 0.607422 8.39258 0.607422C12.2654 0.607422 15.3926 3.70022 15.3926 7.50028Z" stroke="#FD780F"/>
<path fill-rule="evenodd" clip-rule="evenodd" d="M6.61489 4.43618C6.81494 4.23612 7.1393 4.23612 7.33935 4.43618L10.0715 7.16832C10.2716 7.36838 10.2716 7.69273 10.0715 7.89279L7.33935 10.6249C7.1393 10.825 6.81494 10.825 6.61489 10.6249C6.41483 10.4249 6.41483 10.1005 6.61489 9.90046L8.98479 7.53055L6.61489 5.16064C6.41483 4.96059 6.41483 4.63623 6.61489 4.43618Z" fill="#FD780F"/>
</svg>
