<?xml version="1.0" encoding="UTF-8" standalone="no"?>
<svg
   xmlns:dc="http://purl.org/dc/elements/1.1/"
   xmlns:cc="http://creativecommons.org/ns#"
   xmlns:rdf="http://www.w3.org/1999/02/22-rdf-syntax-ns#"
   xmlns:svg="http://www.w3.org/2000/svg"
   xmlns="http://www.w3.org/2000/svg"
   xmlns:sodipodi="http://sodipodi.sourceforge.net/DTD/sodipodi-0.dtd"
   xmlns:inkscape="http://www.inkscape.org/namespaces/inkscape"
   width="12"
   height="12"
   viewBox="0 0 12 12"
   fill="none"
   version="1.1"
   id="svg4"
   sodipodi:docname="close-sm.svg"
   inkscape:version="0.92.4 (5da689c313, 2019-01-14)">
  <metadata
     id="metadata10">
    <rdf:RDF>
      <cc:Work
         rdf:about="">
        <dc:format>image/svg+xml</dc:format>
        <dc:type
           rdf:resource="http://purl.org/dc/dcmitype/StillImage" />
      </cc:Work>
    </rdf:RDF>
  </metadata>
  <defs
     id="defs8" />
  <sodipodi:namedview
     pagecolor="#ffffff"
     bordercolor="#666666"
     borderopacity="1"
     objecttolerance="10"
     gridtolerance="10"
     guidetolerance="10"
     inkscape:pageopacity="0"
     inkscape:pageshadow="2"
     inkscape:window-width="769"
     inkscape:window-height="480"
     id="namedview6"
     showgrid="false"
     inkscape:zoom="19.666667"
     inkscape:cx="6"
     inkscape:cy="6"
     inkscape:window-x="0"
     inkscape:window-y="0"
     inkscape:window-maximized="0"
     inkscape:current-layer="svg4" />
  <path
     d="M7.32643 6.00016L11.0374 2.28922C11.2135 2.11341 11.3126 1.87484 11.3128 1.62599C11.313 1.37714 11.2144 1.13839 11.0385 0.962271C10.8627 0.78615 10.6242 0.687084 10.3753 0.686864C10.1265 0.686644 9.88771 0.785289 9.71159 0.961099L6.00065 4.67204L2.28971 0.961099C2.11359 0.784979 1.87472 0.686035 1.62565 0.686035C1.37658 0.686035 1.13771 0.784979 0.961587 0.961099C0.785467 1.13722 0.686523 1.37609 0.686523 1.62516C0.686523 1.87423 0.785467 2.1131 0.961587 2.28922L4.67253 6.00016L0.961587 9.7111C0.785467 9.88722 0.686523 10.1261 0.686523 10.3752C0.686523 10.6242 0.785467 10.8631 0.961587 11.0392C1.13771 11.2153 1.37658 11.3143 1.62565 11.3143C1.87472 11.3143 2.11359 11.2153 2.28971 11.0392L6.00065 7.32829L9.71159 11.0392C9.88771 11.2153 10.1266 11.3143 10.3757 11.3143C10.6247 11.3143 10.8636 11.2153 11.0397 11.0392C11.2158 10.8631 11.3148 10.6242 11.3148 10.3752C11.3148 10.1261 11.2158 9.88722 11.0397 9.7111L7.32643 6.00016Z"
     id="path2"
     fill="#333333"
     style="fill:#ffffff;fill-opacity:1" />
</svg>
