<svg width="17" height="18" viewBox="0 0 17 18" fill="none" xmlns="http://www.w3.org/2000/svg">
<path d="M3.51134 3.86451C4.78732 2.58413 6.55059 1.79308 8.5 1.79308C12.3897 1.79308 15.5429 4.94627 15.5429 8.83594C15.5429 12.7256 12.3897 15.8788 8.5 15.8788C4.61034 15.8788 1.45714 12.7256 1.45714 8.83594C1.45714 8.43356 1.13095 8.10737 0.728571 8.10737C0.326193 8.10737 0 8.43356 0 8.83594C0 13.5304 3.80558 17.3359 8.5 17.3359C13.1944 17.3359 17 13.5304 17 8.83594C17 4.14152 13.1944 0.335938 8.5 0.335938C6.1477 0.335938 4.01742 1.29243 2.47921 2.83593C2.45449 2.86074 2.43193 2.88688 2.41152 2.91412L1.18988 1.69248C1.05662 1.55922 0.858289 1.51507 0.68108 1.57923C0.503871 1.64339 0.379772 1.80427 0.36271 1.99196L0.0192575 5.76993C0.00620677 5.91349 0.0575957 6.05543 0.159525 6.15736C0.261455 6.25929 0.403393 6.31068 0.546952 6.29763L4.32492 5.95417C4.51261 5.93711 4.67349 5.81301 4.73765 5.6358C4.80181 5.4586 4.75767 5.26027 4.6244 5.127L3.43137 3.93398C3.45927 3.91308 3.48601 3.88993 3.51134 3.86451Z" fill="#FD780F"/>
<path d="M9.22857 3.97879C9.22857 3.57642 8.90238 3.25022 8.5 3.25022C8.09762 3.25022 7.77143 3.57642 7.77143 3.97879V8.83594C7.77143 9.08714 7.90084 9.32063 8.11386 9.45376L11.0281 11.2752C11.3694 11.4885 11.8189 11.3847 12.0321 11.0435C12.2454 10.7023 12.1416 10.2528 11.8004 10.0395L9.22857 8.43213V3.97879Z" fill="#FD780F"/>
</svg>
