<svg width="18" height="14" viewBox="0 0 18 14" fill="none" xmlns="http://www.w3.org/2000/svg">
<path fill-rule="evenodd" clip-rule="evenodd" d="M0.184718 3.6175C-0.0838185 6.03182 -0.0718484 8.81632 0.301823 11.2208C0.508584 12.5513 1.63075 13.5713 3.01594 13.6878L4.4636 13.8096C7.48217 14.0635 10.5178 14.0635 13.5364 13.8096L14.984 13.6878C16.3692 13.5713 17.4914 12.5513 17.6982 11.2208C18.0718 8.81631 18.0838 6.03197 17.8153 3.61764C17.7806 3.33774 17.7415 3.05822 17.6982 2.77917C17.4914 1.4487 16.3692 0.428718 14.984 0.312202L13.5364 0.190431C10.5178 -0.0634772 7.48217 -0.0634771 4.4636 0.190432L3.01594 0.312202C1.63075 0.428718 0.508584 1.4487 0.301823 2.77917C0.258465 3.05817 0.219429 3.33765 0.184718 3.6175ZM4.58812 1.57653C7.52383 1.32959 10.4762 1.32959 13.4119 1.57653L14.8595 1.6983C15.5826 1.75912 16.1684 2.29156 16.2763 2.98606C16.2875 3.05819 16.2984 3.13034 16.309 3.20253L10.9784 6.06816C9.74801 6.7296 8.25191 6.7296 7.02149 6.06815L1.69097 3.20257C1.70157 3.13037 1.71248 3.0582 1.72369 2.98606C1.83162 2.29155 2.41739 1.75912 3.14046 1.6983L4.58812 1.57653ZM16.485 4.69957C16.6709 6.80303 16.6013 8.92235 16.2763 11.0139C16.1684 11.7084 15.5826 12.2409 14.8595 12.3017L13.4119 12.4235C10.4762 12.6704 7.52383 12.6704 4.58812 12.4235L3.14046 12.3017C2.41739 12.2409 1.83162 11.7084 1.72369 11.0139C1.39865 8.92236 1.32909 6.80305 1.51502 4.6996L6.32321 7.28439C7.98789 8.17929 10.012 8.17929 11.6767 7.28439L16.485 4.69957Z" fill="#FD780F"/>
</svg>
