<svg width="31" height="31" viewBox="0 0 31 31" fill="none" xmlns="http://www.w3.org/2000/svg">
<g clip-path="url(#clip0_350:2402)">
<path d="M26.9868 0H4.44621C2.37436 0 0.689453 1.68491 0.689453 3.75676V26.2973C0.689453 28.3691 2.37436 30.0541 4.44621 30.0541H26.9868C29.0586 30.0541 30.7435 28.3691 30.7435 26.2973V3.75676C30.7435 1.68491 29.0586 0 26.9868 0Z" fill="white"/>
<path d="M26.0468 15.0271H21.3509V11.2704C21.3509 10.2335 22.1924 10.3312 23.2293 10.3312H25.1076V5.63525H21.3509C18.2384 5.63525 15.7157 8.15792 15.7157 11.2704V15.0271H11.959V19.7231H15.7157V30.0542H21.3509V19.7231H24.1684L26.0468 15.0271Z" fill="#01565E"/>
</g>
<defs>
<clipPath id="clip0_350:2402">
<rect width="30.0541" height="30.0541" fill="white" transform="translate(0.689453)"/>
</clipPath>
</defs>
</svg>
