<svg width="27" height="28" viewBox="0 0 27 28" fill="none" xmlns="http://www.w3.org/2000/svg">
<path fill-rule="evenodd" clip-rule="evenodd" d="M1.79023 13.9719L4.29773 6.68564C4.3102 6.64941 4.32505 6.61408 4.34218 6.57991C4.76097 5.74465 5.51297 5.10445 6.31516 4.67846C7.12351 4.24918 8.06208 3.99414 8.9469 3.99414C10.2135 3.99414 11.4726 4.51584 12.4181 5.34334C12.7213 5.60864 12.999 5.91186 13.2364 6.24698C13.4739 5.91186 13.7516 5.60864 14.0548 5.34334C15.0002 4.51584 16.2594 3.99414 17.526 3.99414C18.4108 3.99414 19.3494 4.24918 20.1577 4.67846C20.9599 5.10445 21.7119 5.74465 22.1307 6.57991C22.1478 6.61408 22.1627 6.64941 22.1752 6.68564L24.6826 13.9718C24.948 14.6492 25.094 15.3891 25.094 16.164C25.094 19.4117 22.5288 22.0444 19.3644 22.0444C16.4809 22.0444 14.095 19.8584 13.694 17.013H12.7788C12.3779 19.8584 9.99195 22.0444 7.10852 22.0444C3.94504 22.0444 1.38036 19.4131 1.37891 16.1667M4.61272 10.8692L5.83715 7.31123C6.0592 6.90013 6.49243 6.49628 7.0755 6.18664C7.674 5.86881 8.35362 5.69225 8.9469 5.69225C9.78615 5.69225 10.6717 6.04659 11.3446 6.63544C12.016 7.22304 12.4092 7.9811 12.4092 8.75655V13.9274C11.5517 11.7889 9.5014 10.2834 7.10852 10.2834C6.21388 10.2834 5.36714 10.4939 4.61272 10.8692ZM11.1008 15.3211C11.1551 15.5933 11.1836 15.8752 11.1836 16.164C11.1836 18.4738 9.35911 20.3463 7.10852 20.3463C4.85792 20.3463 3.03345 18.4738 3.03345 16.1639C3.03345 14.4382 4.05183 12.9566 5.50546 12.3176C5.53567 12.3043 5.56607 12.2914 5.59665 12.2788C6.06427 12.087 6.57449 11.9816 7.10852 11.9816C8.51507 11.9816 9.75519 12.7129 10.4875 13.8254C10.7805 14.2704 10.9922 14.7765 11.1008 15.3211ZM14.0637 13.9274C14.2781 13.3928 14.567 12.8977 14.9172 12.4559C15.9678 11.1303 17.5697 10.2834 19.3644 10.2834C19.3893 10.2834 19.4142 10.2836 19.4391 10.2839C19.9718 10.2909 20.4869 10.3725 20.975 10.519C21.2815 10.6109 21.5773 10.7284 21.8602 10.8692L20.6357 7.31122C20.4137 6.90013 19.9805 6.49628 19.3974 6.18664C18.7989 5.86881 18.1193 5.69225 17.526 5.69225C16.6867 5.69225 15.8011 6.04659 15.1283 6.63544C14.4569 7.22304 14.0637 7.9811 14.0637 8.75655V13.9274ZM15.2893 16.1639C15.2893 16.1639 15.2893 16.1639 15.2893 16.1639C15.2893 18.4738 17.1138 20.3463 19.3644 20.3463C21.6142 20.3463 23.4381 18.4751 23.4394 16.1664C23.4394 16.1656 23.4394 16.1648 23.4394 16.164C23.4394 16.1292 23.439 16.0945 23.4382 16.06C23.4372 16.0183 23.4356 15.9767 23.4335 15.9353C23.347 14.2873 22.3308 12.8928 20.9137 12.2944C20.4359 12.0927 19.9127 11.9816 19.3644 11.9816C17.9577 11.9816 16.7176 12.713 15.9853 13.8255C15.5459 14.493 15.2893 15.2977 15.2893 16.1639Z" fill="white"/>
<path d="M1.79023 13.9719C1.52492 14.6493 1.37891 15.3891 1.37891 16.1639C1.37891 16.1639 1.37891 16.1639 1.37891 16.1639" fill="white"/>
</svg>
