<svg width="23" height="25" viewBox="0 0 23 25" fill="none" xmlns="http://www.w3.org/2000/svg">
<path d="M6.64428 10.2217H4.00852C3.78469 10.2217 3.60352 10.4029 3.60352 10.6267V13.2624C3.60352 13.486 3.78469 13.6674 4.00852 13.6674H6.64428C6.86811 13.6674 7.04928 13.486 7.04928 13.2624V10.6267C7.04928 10.4031 6.86811 10.2217 6.64428 10.2217ZM6.23927 12.8574H4.41352V11.0317H6.23927V12.8574Z" fill="#FD780F"/>
<path d="M12.7927 10.2217H10.157C9.93312 10.2217 9.75195 10.4029 9.75195 10.6267V13.2624C9.75195 13.486 9.93312 13.6674 10.157 13.6674H12.7927C13.0163 13.6674 13.1977 13.486 13.1977 13.2624V10.6267C13.1977 10.4031 13.0163 10.2217 12.7927 10.2217ZM12.3877 12.8574H10.562V11.0317H12.3877V12.8574Z" fill="#FD780F"/>
<path d="M18.7497 10.2217H16.114C15.8904 10.2217 15.709 10.4029 15.709 10.6267V13.2624C15.709 13.486 15.8904 13.6674 16.114 13.6674H18.7497C18.9733 13.6674 19.1548 13.486 19.1548 13.2624V10.6267C19.1548 10.4031 18.9733 10.2217 18.7497 10.2217ZM18.3447 12.8574H16.519V11.0317H18.3447V12.8574Z" fill="#FD780F"/>
<path d="M6.64428 16.2256H4.00852C3.78469 16.2256 3.60352 16.407 3.60352 16.6306V19.2663C3.60352 19.4899 3.78469 19.6714 4.00852 19.6714H6.64428C6.86811 19.6714 7.04928 19.4899 7.04928 19.2663V16.6306C7.04928 16.407 6.86811 16.2256 6.64428 16.2256ZM6.23927 18.8613H4.41352V17.0356H6.23927V18.8613Z" fill="#FD780F"/>
<path d="M12.7927 16.2256H10.157C9.93312 16.2256 9.75195 16.407 9.75195 16.6306V19.2663C9.75195 19.4899 9.93312 19.6714 10.157 19.6714H12.7927C13.0163 19.6714 13.1977 19.4899 13.1977 19.2663V16.6306C13.1977 16.407 13.0163 16.2256 12.7927 16.2256ZM12.3877 18.8613H10.562V17.0356H12.3877V18.8613Z" fill="#FD780F"/>
<path d="M18.7497 16.2256H16.114C15.8904 16.2256 15.709 16.407 15.709 16.6306V19.2663C15.709 19.4899 15.8904 19.6714 16.114 19.6714H18.7497C18.9733 19.6714 19.1548 19.4899 19.1548 19.2663V16.6306C19.1548 16.407 18.9733 16.2256 18.7497 16.2256ZM18.3447 18.8613H16.519V17.0356H18.3447V18.8613Z" fill="#FD780F"/>
<path d="M21.9574 2.37865H19.2825C19.279 2.37865 19.276 2.37946 19.2725 2.37973V1.84027C19.2725 0.9579 18.5548 0.240234 17.6725 0.240234C16.7901 0.240234 16.0724 0.95817 16.0724 1.84027V2.37865H13.0584V1.84027C13.0584 0.9579 12.3407 0.240234 11.4584 0.240234C10.576 0.240234 9.85834 0.95817 9.85834 1.84027V2.37865H6.84403V1.84027C6.84403 0.9579 6.12637 0.240234 5.244 0.240234C4.36164 0.240234 3.64397 0.95817 3.64397 1.84027V2.37892C3.64262 2.37892 3.64127 2.37865 3.63992 2.37865H0.96555C0.741718 2.37865 0.560547 2.55982 0.560547 2.78365V23.7752C0.560547 23.9988 0.741718 24.1802 0.96555 24.1802H21.9574C22.181 24.1802 22.3624 23.9988 22.3624 23.7752V2.78365C22.3624 2.55982 22.181 2.37865 21.9574 2.37865ZM16.8824 1.84027C16.8824 1.40448 17.2367 1.05024 17.6725 1.05024C18.1082 1.05024 18.4625 1.40448 18.4625 1.84027V4.07507C18.4625 4.51059 18.1082 4.8651 17.6725 4.8651C17.2367 4.8651 16.8824 4.51086 16.8824 4.07507V1.84027ZM11.4584 1.05024C11.8939 1.05024 12.2484 1.40448 12.2484 1.84027V4.07507C12.2484 4.51059 11.8942 4.8651 11.4584 4.8651C11.0226 4.8651 10.6683 4.51086 10.6683 4.07507V2.82145C10.6694 2.80876 10.6721 2.79661 10.6721 2.78338C10.6721 2.77015 10.6694 2.758 10.6683 2.74531V1.84027C10.6683 1.40448 11.0226 1.05024 11.4584 1.05024ZM4.45398 1.84027C4.45398 1.40448 4.80822 1.05024 5.244 1.05024C5.67952 1.05024 6.03403 1.40448 6.03403 1.84027V4.07507C6.03403 4.51059 5.67979 4.8651 5.244 4.8651C4.80822 4.8651 4.45398 4.51086 4.45398 4.07507V1.84027ZM21.5524 23.3702H1.37055V3.18866H3.63992C3.64127 3.18866 3.64262 3.18839 3.64397 3.18839V4.07534C3.64397 4.95771 4.36191 5.67537 5.244 5.67537C6.1261 5.67537 6.84403 4.95771 6.84403 4.07534V3.18893H9.85834V4.07534C9.85834 4.95771 10.5763 5.67537 11.4584 5.67537C12.3405 5.67537 13.0584 4.95771 13.0584 4.07534V3.18893H16.0724V4.07534C16.0724 4.95771 16.7901 5.67537 17.6725 5.67537C18.5548 5.67537 19.2725 4.95771 19.2725 4.07534V3.18758C19.276 3.18758 19.279 3.18866 19.2825 3.18866H21.5524V23.3702Z" fill="#FD780F"/>
</svg>
