<svg width="19" height="24" viewBox="0 0 19 24" fill="none" xmlns="http://www.w3.org/2000/svg">
<path fill-rule="evenodd" clip-rule="evenodd" d="M4.25042 10.2152C4.25042 7.22461 6.52106 4.80023 9.32203 4.80023C12.123 4.80023 14.3936 7.22461 14.3936 10.2152C14.3936 13.2059 12.123 15.6302 9.32203 15.6302C6.52106 15.6302 4.25042 13.2059 4.25042 10.2152ZM9.32203 6.51023C7.40557 6.51023 5.85198 8.16902 5.85198 10.2152C5.85198 12.2614 7.40557 13.9202 9.32203 13.9202C11.2385 13.9202 12.7921 12.2614 12.7921 10.2152C12.7921 8.16902 11.2385 6.51023 9.32203 6.51023Z" fill="#FD780F"/>
<path fill-rule="evenodd" clip-rule="evenodd" d="M0.27253 8.91205C0.650848 4.01163 4.48621 0.240234 9.09144 0.240234H9.55262C14.1578 0.240234 17.9932 4.01163 18.3715 8.91205C18.5748 11.5445 17.8132 14.1584 16.2472 16.2032L11.1296 22.8856C10.1954 24.1055 8.44867 24.1055 7.51443 22.8856L2.39684 16.2032C0.830879 14.1584 0.0693037 11.5445 0.27253 8.91205ZM9.09144 1.95023C5.31972 1.95023 2.17852 5.03904 1.86868 9.05252C1.69954 11.2434 2.33338 13.4189 3.63669 15.1207L8.75427 21.8032C9.04771 22.1863 9.59635 22.1863 9.88979 21.8032L15.0074 15.1207C16.3107 13.4189 16.9445 11.2434 16.7754 9.05252C16.4655 5.03904 13.3243 1.95023 9.55262 1.95023H9.09144Z" fill="#FD780F"/>
</svg>
