<svg width="23" height="23" viewBox="0 0 23 23" fill="none" xmlns="http://www.w3.org/2000/svg">
<g clip-path="url(#clip0_25:2284)">
<path d="M5.62726 21.602C5.38996 21.602 5.1543 21.528 4.95318 21.3825C4.57854 21.111 4.40354 20.6443 4.5055 20.194L5.89895 14.0559L1.17326 9.91155C0.82589 9.6083 0.693189 9.12807 0.835806 8.68865C0.978423 8.25005 1.36645 7.93954 1.82586 7.89707L8.07852 7.32941L10.5506 1.54426C10.7329 1.11922 11.148 0.844727 11.6092 0.844727C12.0705 0.844727 12.4856 1.11922 12.6679 1.54327L15.1399 7.32941L21.3916 7.89707C21.852 7.93855 22.24 8.25005 22.3827 8.68865C22.5253 9.12724 22.3934 9.6083 22.046 9.91155L17.3203 14.055L18.7138 20.193C18.8159 20.6443 18.6408 21.111 18.2663 21.3817C17.8926 21.6524 17.3944 21.6732 17.0009 21.4367L11.6092 18.2147L6.21756 21.4385C6.03528 21.5468 5.83218 21.602 5.62726 21.602ZM11.6092 16.8267C11.8142 16.8267 12.0171 16.8818 12.1995 16.99L17.288 20.0334L15.9728 14.24C15.879 13.8276 16.019 13.3971 16.3376 13.1182L20.7997 9.20491L14.8962 8.66882C14.4712 8.62998 14.1056 8.36276 13.9395 7.9711L11.6092 2.51167L9.27614 7.97193C9.11187 8.36094 8.74632 8.62816 8.32227 8.667L2.41798 9.20309L6.87991 13.1164C7.19952 13.3962 7.33933 13.8258 7.24463 14.2391L5.93051 20.0324L11.0189 16.99C11.2012 16.8818 11.4043 16.8267 11.6092 16.8267ZM8.03076 7.44129C8.03076 7.44129 8.03076 7.44228 8.02977 7.44311L8.03076 7.44129ZM15.1859 7.43864L15.1869 7.44046C15.1869 7.43947 15.1869 7.43947 15.1859 7.43864Z" fill="#FD780F"/>
</g>
<defs>
<clipPath id="clip0_25:2284">
<rect width="21.66" height="21.66" fill="white" transform="translate(0.779297 0.379883)"/>
</clipPath>
</defs>
</svg>
