<svg width="21" height="21" viewBox="0 0 21 21" fill="none" xmlns="http://www.w3.org/2000/svg">
<path fill-rule="evenodd" clip-rule="evenodd" d="M9.48896 2.39058C5.19762 2.691 1.80961 6.26742 1.80961 10.6352C1.80961 15.1998 5.50998 18.9002 10.0746 18.9002C13.7316 18.9002 16.8345 16.5246 17.9233 13.2328C17.0853 13.579 16.1669 13.7702 15.2046 13.7702C11.2696 13.7702 8.07961 10.5802 8.07961 6.64516C8.07961 5.05013 8.60414 3.57752 9.48896 2.39058ZM0.0996094 10.6352C0.0996094 5.12612 4.56557 0.660156 10.0746 0.660156C10.5872 0.660156 11.0912 0.698889 11.5839 0.773722C11.9247 0.825489 12.2011 1.07687 12.2849 1.41126C12.3687 1.74565 12.2434 2.09764 11.9673 2.30397C10.6437 3.29281 9.78961 4.86913 9.78961 6.64516C9.78961 9.63578 12.214 12.0602 15.2046 12.0602C16.4976 12.0602 17.6827 11.608 18.6138 10.8525C18.8814 10.6354 19.2531 10.6001 19.5567 10.763C19.8604 10.9258 20.0366 11.255 20.0037 11.598C19.5187 16.6557 15.259 20.6102 10.0746 20.6102C4.56557 20.6102 0.0996094 16.1442 0.0996094 10.6352Z" fill="#FD780F"/>
</svg>
