<svg width="23" height="21" viewBox="0 0 23 21" fill="none" xmlns="http://www.w3.org/2000/svg">
<path fill-rule="evenodd" clip-rule="evenodd" d="M4.45094 5.50516C4.45094 2.82934 6.62012 0.660156 9.29594 0.660156C11.9718 0.660156 14.1409 2.82934 14.1409 5.50516C14.1409 8.18098 11.9718 10.3502 9.29594 10.3502C6.62012 10.3502 4.45094 8.18098 4.45094 5.50516ZM9.29594 2.37016C7.56452 2.37016 6.16094 3.77374 6.16094 5.50516C6.16094 7.23657 7.56452 8.64016 9.29594 8.64016C11.0274 8.64016 12.4309 7.23657 12.4309 5.50516C12.4309 3.77374 11.0274 2.37016 9.29594 2.37016Z" fill="#FD780F"/>
<path fill-rule="evenodd" clip-rule="evenodd" d="M0.460938 16.3352C0.460938 13.9741 2.37492 12.0602 4.73594 12.0602H5.12453C5.33485 12.0602 5.54385 12.0934 5.74378 12.1587L6.73047 12.4809C8.39747 13.0252 10.1944 13.0252 11.8614 12.4809L12.8481 12.1587C13.048 12.0934 13.257 12.0602 13.4673 12.0602H13.8559C16.217 12.0602 18.1309 13.9741 18.1309 16.3352V17.6898C18.1309 18.5485 17.5086 19.2806 16.6612 19.419C11.7833 20.2154 6.80857 20.2154 1.93071 19.419C1.08324 19.2806 0.460938 18.5485 0.460938 17.6898V16.3352ZM4.73594 13.7702C3.31933 13.7702 2.17094 14.9185 2.17094 16.3352V17.6898C2.17094 17.7104 2.18589 17.728 2.20624 17.7313C6.90162 18.4979 11.6903 18.4979 16.3856 17.7313C16.406 17.728 16.4209 17.7104 16.4209 17.6898V16.3352C16.4209 14.9185 15.2725 13.7702 13.8559 13.7702H13.4673C13.4373 13.7702 13.4074 13.7749 13.3789 13.7842L12.3922 14.1064C10.3803 14.7634 8.21158 14.7634 6.19968 14.1064L5.21299 13.7842C5.18443 13.7749 5.15457 13.7702 5.12453 13.7702H4.73594Z" fill="#FD780F"/>
<path d="M18.9859 4.08016C19.4581 4.08016 19.8409 4.46295 19.8409 4.93516V6.93016H21.8359C22.3081 6.93016 22.6909 7.31295 22.6909 7.78516C22.6909 8.25736 22.3081 8.64016 21.8359 8.64016H19.8409V10.6352C19.8409 11.1074 19.4581 11.4902 18.9859 11.4902C18.5137 11.4902 18.1309 11.1074 18.1309 10.6352V8.64016H16.1359C15.6637 8.64016 15.2809 8.25736 15.2809 7.78516C15.2809 7.31295 15.6637 6.93016 16.1359 6.93016H18.1309V4.93516C18.1309 4.46295 18.5137 4.08016 18.9859 4.08016Z" fill="#FD780F"/>
</svg>
