<svg width="20" height="17" viewBox="0 0 20 17" fill="none" xmlns="http://www.w3.org/2000/svg">
<path fill-rule="evenodd" clip-rule="evenodd" d="M18.9131 1.50734C19.1379 1.90791 19.2151 2.47584 18.9153 2.97943L18.7328 3.28599C15.9481 7.96315 12.7554 12.3086 9.19289 16.2692C8.72236 16.7923 8.05129 16.7653 7.59946 16.5087C7.15745 16.2576 6.82604 15.7525 6.85511 15.1461L7.12422 9.53189C7.15396 8.91141 6.80016 8.2969 6.28781 8.02762L1.43892 5.47915C0.892394 5.19191 0.644737 4.63544 0.653084 4.13957C0.661466 3.64153 0.949233 3.03506 1.63286 2.87058C6.73188 1.64375 11.971 0.939849 17.2865 0.766975L17.6346 0.755652C18.237 0.73606 18.689 1.10783 18.9131 1.50734ZM17.5993 2.25759L17.3352 2.26618C12.2375 2.43197 7.21367 3.09548 2.32159 4.2485L6.98566 6.69984C8.03129 7.2494 8.67923 8.42032 8.6225 9.60371L8.36657 14.9431C11.7462 11.1438 14.7837 6.98667 17.4439 2.51863L17.5993 2.25759Z" fill="#FD780F"/>
</svg>
