<svg width="156" height="148" viewBox="0 0 156 148" fill="none" xmlns="http://www.w3.org/2000/svg">
<g clip-path="url(#clip0_117:2771)">
<path d="M105.128 36.5857C98.5615 37.8648 89.3411 40.5409 84.8091 42.4679C78.3052 45.2415 73.2951 45.9925 61.5126 46.0089C46.5124 46.0157 36.5172 47.7474 27.0634 51.9614C21.0303 54.6465 19.8375 56.1788 20.7369 60.0828C21.3096 62.5949 20.4653 64.0079 13.3472 72.2491C0.812545 86.7525 0.104342 94.5655 10.8542 99.6235C18.2489 103.112 20.9967 102.834 23.3106 98.3862C25.8086 93.5942 21.7565 90.64 18.3028 94.7325C14.9662 98.6794 11.7441 95.8706 12.4626 89.6279C12.9719 85.1235 13.9086 83.5529 20.3123 76.3969C24.6361 71.5563 28.1116 68.605 28.8913 69.1025C29.6028 69.5522 31.4894 72.1567 33.0117 74.7568C36.6712 81.0405 44.4578 86.0687 51.9215 86.9822C56.3752 87.5241 58.9474 86.8554 62.8066 84.1498C67.7903 80.6757 67.8875 80.4769 69.4918 71.7692C72.3177 56.3839 74.6814 55.2363 82.5244 65.4226C88.5421 73.2227 96.4453 77.8876 102.297 77.0704C104.347 76.7834 108.84 74.9971 112.299 73.11C119.341 69.2373 122.06 64.5538 121.261 57.6988C120.999 55.3963 121.385 52.6722 122.157 51.4995C123.522 49.4283 123.584 49.4585 130.394 56.7624C134.181 60.8189 137.539 64.9114 137.872 65.8858C138.768 68.4548 137.252 72.3942 135.009 73.3257C133.42 73.9828 133.129 73.7969 133.078 72.0909C132.987 68.626 128.445 67.7654 125.966 70.7405C124.184 72.8832 124.213 74.042 126.121 76.5409C127.422 78.2503 129.888 80.1385 131.532 80.7111C135.894 82.2223 143.213 78.7176 145.849 73.8625C147.805 70.24 147.583 69.2905 143.167 62.4919C140.52 58.4139 135.709 53.0159 132.484 50.4952C128.537 47.4189 126.564 44.9604 126.445 42.9889C126.325 41.0174 124.793 39.1229 121.724 37.1568C117.645 34.5376 115.883 34.4869 105.128 36.5857Z" fill="#ED6F00"/>
<path d="M99.2153 47.5474C91.4943 49.0007 84.7867 50.8485 84.2467 51.6712C82.8065 53.865 88.4409 64.695 92.3025 67.1646C95.9472 69.4845 100.942 70.2623 104.579 69.0713C109.888 67.336 114.394 56.7873 113.524 48.1732C113.206 45.0466 112.641 45.0163 99.2153 47.5474Z" fill="#1D3451"/>
<path d="M45.8488 55.735L32.5703 57.9033L34.1357 63.3796C35.9928 69.8827 41.5111 76.6124 46.4192 78.3478C50.7444 79.8702 58.1527 76.6842 61.2539 71.97C64.0009 67.7925 63.8641 56.682 61.041 54.8366C59.9942 54.1359 53.0681 54.5579 45.8488 55.735Z" fill="#1D3451"/>
</g>
<defs>
<clipPath id="clip0_117:2771">
<rect width="122" height="105" fill="white" transform="translate(46.1562) rotate(26.077)"/>
</clipPath>
</defs>
</svg>
