<svg width="34" height="48" viewBox="0 0 34 48" fill="none" xmlns="http://www.w3.org/2000/svg">
<path fill-rule="evenodd" clip-rule="evenodd" d="M13.4984 0.609454C13.9245 0.115604 14.5862 -0.101439 15.2193 0.0449662C23.6814 2.00184 27.9587 11.3422 26.9527 19.6989C26.5617 22.9475 25.5957 25.4942 24.1732 27.5204C24.1645 27.5328 24.1558 27.5451 24.1471 27.5575C24.4702 27.3975 24.7683 27.2249 25.0472 27.0425C26.4352 26.1352 27.4539 24.9376 28.7803 23.3783C28.9406 23.1899 29.1054 22.9961 29.2759 22.7969C29.6591 22.3494 30.2386 22.1238 30.821 22.1954C31.4034 22.2671 31.9119 22.6266 32.1769 23.154C33.3435 25.4762 34 28.1016 34 30.8762C34 40.3334 26.3888 48 17 48C7.61116 48 0 40.3334 0 30.8762C0 24.884 3.05697 19.612 7.6777 16.5547L7.83611 16.3939C7.91749 16.3113 8.00675 16.237 8.10261 16.172C10.1329 14.7959 11.5908 13.6703 12.5723 12.3467C13.4995 11.0962 14.069 9.57088 14.069 7.25726C14.069 5.54423 13.7549 3.90922 13.1833 2.40461C12.9511 1.79353 13.0723 1.1033 13.4984 0.609454ZM17.4015 4.72571C17.5232 5.55232 17.5862 6.39771 17.5862 7.25726C17.5862 10.2531 16.8178 12.5416 15.3902 14.4667C14.0496 16.2748 12.1938 17.6634 10.2109 19.013L10.0414 19.1851C9.95056 19.2773 9.84994 19.3592 9.74133 19.4292C5.99449 21.8455 3.51724 26.07 3.51724 30.8762C3.51724 38.3768 9.55368 44.4572 17 44.4572C24.4463 44.4572 30.4828 38.3768 30.4828 30.8762C30.4828 29.6485 30.3214 28.4602 30.0192 27.3311C29.1277 28.3035 28.1437 29.2419 26.9621 30.0143C24.7972 31.4296 22.0881 32.2376 18.1724 32.2376C17.3699 32.2376 16.6692 31.6903 16.4692 30.9074C16.2693 30.1246 16.6209 29.3046 17.3238 28.9146C18.9155 28.0313 20.2648 26.9515 21.3015 25.4748C22.3361 24.0012 23.1287 22.0336 23.4611 19.2725C24.1806 13.2951 21.7247 7.39526 17.4015 4.72571Z" fill="#FD780F"/>
</svg>
