<svg width="39" height="49" viewBox="0 0 39 49" fill="none" xmlns="http://www.w3.org/2000/svg">
<mask id="path-1-inside-1_66:3258" fill="white">
<path d="M34.3115 31.0128H4.68612C4.3346 31.0128 4.05469 30.7277 4.05469 30.3843V13.3161C4.05469 12.9661 4.34111 12.6875 4.68612 12.6875H34.3115C34.6631 12.6875 34.943 12.9726 34.943 13.3161V30.3843C34.943 30.7342 34.6566 31.0128 34.3115 31.0128ZM5.31756 29.7557H33.6736V13.9446H5.31756V29.7557Z"/>
</mask>
<path d="M34.3115 31.0128H4.68612C4.3346 31.0128 4.05469 30.7277 4.05469 30.3843V13.3161C4.05469 12.9661 4.34111 12.6875 4.68612 12.6875H34.3115C34.6631 12.6875 34.943 12.9726 34.943 13.3161V30.3843C34.943 30.7342 34.6566 31.0128 34.3115 31.0128ZM5.31756 29.7557H33.6736V13.9446H5.31756V29.7557Z" fill="#606060"/>
<path d="M5.31756 29.7557H3.31756V31.7557H5.31756V29.7557ZM33.6736 29.7557V31.7557H35.6736V29.7557H33.6736ZM33.6736 13.9446H35.6736V11.9446H33.6736V13.9446ZM5.31756 13.9446V11.9446H3.31756V13.9446H5.31756ZM34.3115 29.0128H4.68612V33.0128H34.3115V29.0128ZM4.68612 29.0128C5.44398 29.0128 6.05469 29.628 6.05469 30.3843H2.05469C2.05469 31.8275 3.22523 33.0128 4.68612 33.0128V29.0128ZM6.05469 30.3843V13.3161H2.05469V30.3843H6.05469ZM6.05469 13.3161C6.05469 14.0927 5.42358 14.6875 4.68612 14.6875V10.6875C3.25865 10.6875 2.05469 11.8396 2.05469 13.3161H6.05469ZM4.68612 14.6875H34.3115V10.6875H4.68612V14.6875ZM34.3115 14.6875C33.5537 14.6875 32.943 14.0724 32.943 13.3161H36.943C36.943 11.8728 35.7724 10.6875 34.3115 10.6875V14.6875ZM32.943 13.3161V30.3843H36.943V13.3161H32.943ZM32.943 30.3843C32.943 29.6077 33.5741 29.0128 34.3115 29.0128V33.0128C35.739 33.0128 36.943 31.8608 36.943 30.3843H32.943ZM5.31756 31.7557H33.6736V27.7557H5.31756V31.7557ZM35.6736 29.7557V13.9446H31.6736V29.7557H35.6736ZM33.6736 11.9446H5.31756V15.9446H33.6736V11.9446ZM3.31756 13.9446V29.7557H7.31756V13.9446H3.31756Z" fill="#606060" mask="url(#path-1-inside-1_66:3258)"/>
<mask id="path-3-inside-2_66:3258" fill="white">
<path d="M31.7145 7.73708H7.28378C6.93226 7.73708 6.65234 7.45196 6.65234 7.10852V0.628557C6.65234 0.278639 6.93877 0 7.28378 0H31.7145C32.066 0 32.3459 0.285119 32.3459 0.628557V7.10204C32.3459 7.45196 32.066 7.73708 31.7145 7.73708ZM7.91522 6.47349H31.0766V1.26359H7.91522V6.47349Z"/>
</mask>
<path d="M31.7145 7.73708H7.28378C6.93226 7.73708 6.65234 7.45196 6.65234 7.10852V0.628557C6.65234 0.278639 6.93877 0 7.28378 0H31.7145C32.066 0 32.3459 0.285119 32.3459 0.628557V7.10204C32.3459 7.45196 32.066 7.73708 31.7145 7.73708ZM7.91522 6.47349H31.0766V1.26359H7.91522V6.47349Z" fill="#606060"/>
<path d="M7.91522 6.47349H5.91522V8.47349H7.91522V6.47349ZM31.0766 6.47349V8.47349H33.0766V6.47349H31.0766ZM31.0766 1.26359H33.0766V-0.736406H31.0766V1.26359ZM7.91522 1.26359V-0.736406H5.91522V1.26359H7.91522ZM31.7145 5.73708H7.28378V9.73708H31.7145V5.73708ZM7.28378 5.73708C8.04163 5.73708 8.65234 6.3522 8.65234 7.10852H4.65234C4.65234 8.55173 5.82289 9.73708 7.28378 9.73708V5.73708ZM8.65234 7.10852V0.628557H4.65234V7.10852H8.65234ZM8.65234 0.628557C8.65234 1.40518 8.02124 2 7.28378 2V-2C5.8563 -2 4.65234 -0.847903 4.65234 0.628557H8.65234ZM7.28378 2H31.7145V-2H7.28378V2ZM31.7145 2C30.9566 2 30.3459 1.38488 30.3459 0.628557H34.3459C34.3459 -0.814638 33.1754 -2 31.7145 -2V2ZM30.3459 0.628557V7.10204H34.3459V0.628557H30.3459ZM30.3459 7.10204C30.3459 6.36557 30.9434 5.73708 31.7145 5.73708V9.73708C33.1887 9.73708 34.3459 8.53835 34.3459 7.10204H30.3459ZM7.91522 8.47349H31.0766V4.47349H7.91522V8.47349ZM33.0766 6.47349V1.26359H29.0766V6.47349H33.0766ZM31.0766 -0.736406H7.91522V3.26359H31.0766V-0.736406ZM5.91522 1.26359V6.47349H9.91522V1.26359H5.91522Z" fill="#606060" mask="url(#path-3-inside-2_66:3258)"/>
<mask id="path-5-inside-3_66:3258" fill="white">
<path d="M34.3126 13.9448H4.68719C4.48539 13.9448 4.29661 13.8476 4.17943 13.6921L1.84898 10.5493C1.70577 10.3549 1.68624 10.1022 1.79039 9.88836C1.90106 9.67452 2.11587 9.54492 2.35673 9.54492H36.6431C36.8839 9.54492 37.0987 9.681 37.2094 9.88836C37.3201 10.1022 37.294 10.3549 37.1508 10.5493L34.8204 13.6921C34.7032 13.8541 34.5144 13.9448 34.3126 13.9448ZM5.00616 12.6877H33.9871L35.3867 10.802H3.61309L5.00616 12.6877Z"/>
</mask>
<path d="M34.3126 13.9448H4.68719C4.48539 13.9448 4.29661 13.8476 4.17943 13.6921L1.84898 10.5493C1.70577 10.3549 1.68624 10.1022 1.79039 9.88836C1.90106 9.67452 2.11587 9.54492 2.35673 9.54492H36.6431C36.8839 9.54492 37.0987 9.681 37.2094 9.88836C37.3201 10.1022 37.294 10.3549 37.1508 10.5493L34.8204 13.6921C34.7032 13.8541 34.5144 13.9448 34.3126 13.9448ZM5.00616 12.6877H33.9871L35.3867 10.802H3.61309L5.00616 12.6877Z" fill="#606060"/>
<path d="M4.17943 13.6921L2.57292 14.8834L2.57747 14.8895L2.58207 14.8956L4.17943 13.6921ZM1.84898 10.5493L0.238743 11.7356L0.242467 11.7406L1.84898 10.5493ZM1.79039 9.88836L0.0141515 8.96914L0.00297844 8.99073L-0.00766647 9.01258L1.79039 9.88836ZM37.2094 9.88836L38.9856 8.96914L38.9798 8.95788L38.9738 8.9467L37.2094 9.88836ZM37.1508 10.5493L38.7573 11.7406L38.761 11.7356L37.1508 10.5493ZM34.8204 13.6921L33.2138 12.5008L33.2068 12.5104L33.1998 12.52L34.8204 13.6921ZM5.00616 12.6877L3.39752 13.8761L3.9971 14.6877H5.00616V12.6877ZM33.9871 12.6877V14.6877H34.9934L35.5931 13.8797L33.9871 12.6877ZM35.3867 10.802L36.9927 11.994L39.3618 8.80204H35.3867V10.802ZM3.61309 10.802V8.80204H-0.351016L2.00446 11.9904L3.61309 10.802ZM34.3126 11.9448H4.68719V15.9448H34.3126V11.9448ZM4.68719 11.9448C5.12225 11.9448 5.52147 12.1497 5.77679 12.4886L2.58207 14.8956C3.07174 15.5455 3.84852 15.9448 4.68719 15.9448V11.9448ZM5.78594 12.5008L3.45549 9.35805L0.242467 11.7406L2.57292 14.8834L5.78594 12.5008ZM3.4592 9.36308C3.76743 9.78146 3.80243 10.3248 3.58845 10.7641L-0.00766647 9.01258C-0.429954 9.87958 -0.355896 10.9284 0.238751 11.7356L3.4592 9.36308ZM3.56663 10.8076C3.33068 11.2635 2.85677 11.5449 2.35673 11.5449V7.54492C1.37497 7.54492 0.471428 8.08553 0.0141515 8.96914L3.56663 10.8076ZM2.35673 11.5449H36.6431V7.54492H2.35673V11.5449ZM36.6431 11.5449C36.1138 11.5449 35.6668 11.2457 35.445 10.83L38.9738 8.9467C38.5307 8.11628 37.654 7.54492 36.6431 7.54492V11.5449ZM35.4332 10.8076C35.1744 10.3075 35.2579 9.74674 35.5406 9.36308L38.761 11.7356C39.3301 10.9631 39.4658 9.89689 38.9856 8.96914L35.4332 10.8076ZM35.5443 9.35805L33.2138 12.5008L36.4269 14.8834L38.7573 11.7406L35.5443 9.35805ZM33.1998 12.52C33.4833 12.128 33.9159 11.9448 34.3126 11.9448V15.9448C35.113 15.9448 35.923 15.5802 36.4409 14.8642L33.1998 12.52ZM5.00616 14.6877H33.9871V10.6877H5.00616V14.6877ZM35.5931 13.8797L36.9927 11.994L33.7807 9.61005L32.3811 11.4957L35.5931 13.8797ZM35.3867 8.80204H3.61309V12.802H35.3867V8.80204ZM2.00446 11.9904L3.39752 13.8761L6.61479 11.4993L5.22173 9.61364L2.00446 11.9904Z" fill="#606060" mask="url(#path-5-inside-3_66:3258)"/>
<mask id="path-7-inside-4_66:3258" fill="white">
<path d="M36.6437 29.7559H2.35742V31.0195H36.6437V29.7559Z"/>
</mask>
<path d="M36.6437 29.7559H2.35742V31.0195H36.6437V29.7559Z" fill="#606060"/>
<path d="M2.35742 29.7559V27.7559H0.357422V29.7559H2.35742ZM36.6437 29.7559H38.6437V27.7559H36.6437V29.7559ZM36.6437 31.0195V33.0195H38.6437V31.0195H36.6437ZM2.35742 31.0195H0.357422V33.0195H2.35742V31.0195ZM2.35742 31.7559H36.6437V27.7559H2.35742V31.7559ZM34.6437 29.7559V31.0195H38.6437V29.7559H34.6437ZM36.6437 29.0195H2.35742V33.0195H36.6437V29.0195ZM4.35742 31.0195V29.7559H0.357422V31.0195H4.35742Z" fill="#606060" mask="url(#path-7-inside-4_66:3258)"/>
<mask id="path-9-inside-5_66:3258" fill="white">
<path d="M38.3608 46.8174H0.630859V48.081H38.3608V46.8174Z"/>
</mask>
<path d="M38.3608 46.8174H0.630859V48.081H38.3608V46.8174Z" fill="#606060"/>
<path d="M0.630859 46.8174V44.8174H-1.36914V46.8174H0.630859ZM38.3608 46.8174H40.3608V44.8174H38.3608V46.8174ZM38.3608 48.081V50.081H40.3608V48.081H38.3608ZM0.630859 48.081H-1.36914V50.081H0.630859V48.081ZM0.630859 48.8174H38.3608V44.8174H0.630859V48.8174ZM36.3608 46.8174V48.081H40.3608V46.8174H36.3608ZM38.3608 46.081H0.630859V50.081H38.3608V46.081ZM2.63086 48.081V46.8174H-1.36914V48.081H2.63086Z" fill="#606060" mask="url(#path-9-inside-5_66:3258)"/>
<mask id="path-11-inside-6_66:3258" fill="white">
<path d="M28.0761 35.1406H10.9297V36.4042H28.0761V35.1406Z"/>
</mask>
<path d="M28.0761 35.1406H10.9297V36.4042H28.0761V35.1406Z" fill="#606060"/>
<path d="M10.9297 35.1406V33.1406H8.92969V35.1406H10.9297ZM28.0761 35.1406H30.0761V33.1406H28.0761V35.1406ZM28.0761 36.4042V38.4042H30.0761V36.4042H28.0761ZM10.9297 36.4042H8.92969V38.4042H10.9297V36.4042ZM10.9297 37.1406H28.0761V33.1406H10.9297V37.1406ZM26.0761 35.1406V36.4042H30.0761V35.1406H26.0761ZM28.0761 34.4042H10.9297V38.4042H28.0761V34.4042ZM12.9297 36.4042V35.1406H8.92969V36.4042H12.9297Z" fill="#606060" mask="url(#path-11-inside-6_66:3258)"/>
<mask id="path-13-inside-7_66:3258" fill="white">
<path d="M38.7455 9.54492H0.253906V10.8085H38.7455V9.54492Z"/>
</mask>
<path d="M38.7455 9.54492H0.253906V10.8085H38.7455V9.54492Z" fill="#606060"/>
<path d="M0.253906 9.54492V7.54492H-1.74609V9.54492H0.253906ZM38.7455 9.54492H40.7455V7.54492H38.7455V9.54492ZM38.7455 10.8085V12.8085H40.7455V10.8085H38.7455ZM0.253906 10.8085H-1.74609V12.8085H0.253906V10.8085ZM0.253906 11.5449H38.7455V7.54492H0.253906V11.5449ZM36.7455 9.54492V10.8085H40.7455V9.54492H36.7455ZM38.7455 8.80852H0.253906V12.8085H38.7455V8.80852ZM2.25391 10.8085V9.54492H-1.74609V10.8085H2.25391Z" fill="#606060" mask="url(#path-13-inside-7_66:3258)"/>
<mask id="path-15-inside-8_66:3258" fill="white">
<path d="M26.4351 48.0811H12.5631C12.2116 48.0811 11.9316 47.796 11.9316 47.4526V35.7692C11.9316 35.4193 12.2181 35.1406 12.5631 35.1406H26.4351C26.7867 35.1406 27.0666 35.4257 27.0666 35.7692V47.4461C27.0666 47.796 26.7867 48.0811 26.4351 48.0811ZM13.1945 46.8175H25.8037V36.4042H13.1945V46.8175Z"/>
</mask>
<path d="M26.4351 48.0811H12.5631C12.2116 48.0811 11.9316 47.796 11.9316 47.4526V35.7692C11.9316 35.4193 12.2181 35.1406 12.5631 35.1406H26.4351C26.7867 35.1406 27.0666 35.4257 27.0666 35.7692V47.4461C27.0666 47.796 26.7867 48.0811 26.4351 48.0811ZM13.1945 46.8175H25.8037V36.4042H13.1945V46.8175Z" fill="#606060"/>
<path d="M13.1945 46.8175H11.1945V48.8175H13.1945V46.8175ZM25.8037 46.8175V48.8175H27.8037V46.8175H25.8037ZM25.8037 36.4042H27.8037V34.4042H25.8037V36.4042ZM13.1945 36.4042V34.4042H11.1945V36.4042H13.1945ZM26.4351 46.0811H12.5631V50.0811H26.4351V46.0811ZM12.5631 46.0811C13.3209 46.0811 13.9316 46.6962 13.9316 47.4526H9.93164C9.93164 48.8958 11.1022 50.0811 12.5631 50.0811V46.0811ZM13.9316 47.4526V35.7692H9.93164V47.4526H13.9316ZM13.9316 35.7692C13.9316 36.5458 13.3005 37.1406 12.5631 37.1406V33.1406C11.1356 33.1406 9.93164 34.2927 9.93164 35.7692H13.9316ZM12.5631 37.1406H26.4351V33.1406H12.5631V37.1406ZM26.4351 37.1406C25.6773 37.1406 25.0666 36.5255 25.0666 35.7692H29.0666C29.0666 34.326 27.896 33.1406 26.4351 33.1406V37.1406ZM25.0666 35.7692V47.4461H29.0666V35.7692H25.0666ZM25.0666 47.4461C25.0666 46.7096 25.664 46.0811 26.4351 46.0811V50.0811C27.9093 50.0811 29.0666 48.8824 29.0666 47.4461H25.0666ZM13.1945 48.8175H25.8037V44.8175H13.1945V48.8175ZM27.8037 46.8175V36.4042H23.8037V46.8175H27.8037ZM25.8037 34.4042H13.1945V38.4042H25.8037V34.4042ZM11.1945 36.4042V46.8175H15.1945V36.4042H11.1945Z" fill="#606060" mask="url(#path-15-inside-8_66:3258)"/>
<mask id="path-17-inside-9_66:3258" fill="white">
<path d="M13.332 26.3729H8.29355C7.94202 26.3729 7.66211 26.0877 7.66211 25.7443V18.8561C7.66211 18.5062 7.94853 18.2275 8.29355 18.2275H13.332C13.6835 18.2275 13.9635 18.5127 13.9635 18.8561V25.7443C13.9635 26.0877 13.677 26.3729 13.332 26.3729ZM8.92498 25.1093H12.6941V19.4847H8.92498V25.1093Z"/>
</mask>
<path d="M13.332 26.3729H8.29355C7.94202 26.3729 7.66211 26.0877 7.66211 25.7443V18.8561C7.66211 18.5062 7.94853 18.2275 8.29355 18.2275H13.332C13.6835 18.2275 13.9635 18.5127 13.9635 18.8561V25.7443C13.9635 26.0877 13.677 26.3729 13.332 26.3729ZM8.92498 25.1093H12.6941V19.4847H8.92498V25.1093Z" fill="#606060"/>
<path d="M8.92498 25.1093H6.92498V27.1093H8.92498V25.1093ZM12.6941 25.1093V27.1093H14.6941V25.1093H12.6941ZM12.6941 19.4847H14.6941V17.4847H12.6941V19.4847ZM8.92498 19.4847V17.4847H6.92498V19.4847H8.92498ZM13.332 24.3729H8.29355V28.3729H13.332V24.3729ZM8.29355 24.3729C9.0514 24.3729 9.66211 24.988 9.66211 25.7443H5.66211C5.66211 27.1875 6.83265 28.3729 8.29355 28.3729V24.3729ZM9.66211 25.7443V18.8561H5.66211V25.7443H9.66211ZM9.66211 18.8561C9.66211 19.6327 9.03101 20.2275 8.29355 20.2275V16.2275C6.86606 16.2275 5.66211 17.3796 5.66211 18.8561H9.66211ZM8.29355 20.2275H13.332V16.2275H8.29355V20.2275ZM13.332 20.2275C12.5742 20.2275 11.9635 19.6124 11.9635 18.8561H15.9635C15.9635 17.4129 14.7929 16.2275 13.332 16.2275V20.2275ZM11.9635 18.8561V25.7443H15.9635V18.8561H11.9635ZM11.9635 25.7443C11.9635 24.9746 12.5811 24.3729 13.332 24.3729V28.3729C14.773 28.3729 15.9635 27.2009 15.9635 25.7443H11.9635ZM8.92498 27.1093H12.6941V23.1093H8.92498V27.1093ZM14.6941 25.1093V19.4847H10.6941V25.1093H14.6941ZM12.6941 17.4847H8.92498V21.4847H12.6941V17.4847ZM6.92498 19.4847V25.1093H10.925V19.4847H6.92498Z" fill="#606060" mask="url(#path-17-inside-9_66:3258)"/>
<mask id="path-19-inside-10_66:3258" fill="white">
<path d="M22.0156 26.3729H16.9771C16.6256 26.3729 16.3457 26.0877 16.3457 25.7443V18.8561C16.3457 18.5062 16.6256 18.2275 16.9771 18.2275H22.0156C22.3671 18.2275 22.647 18.5127 22.647 18.8561V25.7443C22.6536 26.0877 22.3671 26.3729 22.0156 26.3729ZM17.6151 25.1093H21.3842V19.4847H17.6151V25.1093Z"/>
</mask>
<path d="M22.0156 26.3729H16.9771C16.6256 26.3729 16.3457 26.0877 16.3457 25.7443V18.8561C16.3457 18.5062 16.6256 18.2275 16.9771 18.2275H22.0156C22.3671 18.2275 22.647 18.5127 22.647 18.8561V25.7443C22.6536 26.0877 22.3671 26.3729 22.0156 26.3729ZM17.6151 25.1093H21.3842V19.4847H17.6151V25.1093Z" fill="#606060"/>
<path d="M22.647 25.7443H20.647V25.7633L20.6474 25.7822L22.647 25.7443ZM21.3842 25.1093V27.1093H23.3842V25.1093H21.3842ZM21.3842 19.4847H23.3842V17.4847H21.3842V19.4847ZM17.6151 19.4847V17.4847H15.6151V19.4847H17.6151ZM22.0156 24.3729H16.9771V28.3729H22.0156V24.3729ZM16.9771 24.3729C17.735 24.3729 18.3457 24.988 18.3457 25.7443H14.3457C14.3457 27.1875 15.5162 28.3729 16.9771 28.3729V24.3729ZM18.3457 25.7443V18.8561H14.3457V25.7443H18.3457ZM18.3457 18.8561C18.3457 19.6194 17.7216 20.2275 16.9771 20.2275V16.2275C15.5297 16.2275 14.3457 17.393 14.3457 18.8561H18.3457ZM16.9771 20.2275H22.0156V16.2275H16.9771V20.2275ZM22.0156 20.2275C21.2578 20.2275 20.647 19.6124 20.647 18.8561H24.647C24.647 17.4129 23.4765 16.2275 22.0156 16.2275V20.2275ZM20.647 18.8561V25.7443H24.647V18.8561H20.647ZM20.6474 25.7822C20.6319 24.9619 21.2928 24.3729 22.0156 24.3729V28.3729C23.4415 28.3729 24.6753 27.2136 24.6467 25.7064L20.6474 25.7822ZM17.6151 27.1093H21.3842V23.1093H17.6151V27.1093ZM23.3842 25.1093V19.4847H19.3842V25.1093H23.3842ZM21.3842 17.4847H17.6151V21.4847H21.3842V17.4847ZM15.6151 19.4847V25.1093H19.6151V19.4847H15.6151Z" fill="#606060" mask="url(#path-19-inside-10_66:3258)"/>
<mask id="path-21-inside-11_66:3258" fill="white">
<path d="M30.707 26.3729H25.6685C25.317 26.3729 25.0371 26.0877 25.0371 25.7443V18.8561C25.0371 18.5062 25.3235 18.2275 25.6685 18.2275H30.707C31.0585 18.2275 31.3385 18.5127 31.3385 18.8561V25.7443C31.3385 26.0877 31.0585 26.3729 30.707 26.3729ZM26.3 25.1093H30.0691V19.4847H26.3V25.1093Z"/>
</mask>
<path d="M30.707 26.3729H25.6685C25.317 26.3729 25.0371 26.0877 25.0371 25.7443V18.8561C25.0371 18.5062 25.3235 18.2275 25.6685 18.2275H30.707C31.0585 18.2275 31.3385 18.5127 31.3385 18.8561V25.7443C31.3385 26.0877 31.0585 26.3729 30.707 26.3729ZM26.3 25.1093H30.0691V19.4847H26.3V25.1093Z" fill="#606060"/>
<path d="M26.3 25.1093H24.3V27.1093H26.3V25.1093ZM30.0691 25.1093V27.1093H32.0691V25.1093H30.0691ZM30.0691 19.4847H32.0691V17.4847H30.0691V19.4847ZM26.3 19.4847V17.4847H24.3V19.4847H26.3ZM30.707 24.3729H25.6685V28.3729H30.707V24.3729ZM25.6685 24.3729C26.4264 24.3729 27.0371 24.988 27.0371 25.7443H23.0371C23.0371 27.1875 24.2077 28.3729 25.6685 28.3729V24.3729ZM27.0371 25.7443V18.8561H23.0371V25.7443H27.0371ZM27.0371 18.8561C27.0371 19.6327 26.406 20.2275 25.6685 20.2275V16.2275C24.2411 16.2275 23.0371 17.3796 23.0371 18.8561H27.0371ZM25.6685 20.2275H30.707V16.2275H25.6685V20.2275ZM30.707 20.2275C29.9492 20.2275 29.3385 19.6124 29.3385 18.8561H33.3385C33.3385 17.4129 32.1679 16.2275 30.707 16.2275V20.2275ZM29.3385 18.8561V25.7443H33.3385V18.8561H29.3385ZM29.3385 25.7443C29.3385 24.988 29.9492 24.3729 30.707 24.3729V28.3729C32.1679 28.3729 33.3385 27.1875 33.3385 25.7443H29.3385ZM26.3 27.1093H30.0691V23.1093H26.3V27.1093ZM32.0691 25.1093V19.4847H28.0691V25.1093H32.0691ZM30.0691 17.4847H26.3V21.4847H30.0691V17.4847ZM24.3 19.4847V25.1093H28.3V19.4847H24.3Z" fill="#606060" mask="url(#path-21-inside-11_66:3258)"/>
<mask id="path-23-inside-12_66:3258" fill="white">
<path d="M34.3139 43.2862C31.7296 43.2862 29.627 41.1932 29.627 38.6207C29.627 36.0481 31.7296 33.9551 34.3139 33.9551C36.8982 33.9551 39.0009 36.0481 39.0009 38.6207C39.0009 41.1932 36.8982 43.2862 34.3139 43.2862ZM34.3139 35.2122C32.4261 35.2122 30.8898 36.7415 30.8898 38.6207C30.8898 40.4998 32.4261 42.0291 34.3139 42.0291C36.2017 42.0291 37.738 40.4998 37.738 38.6207C37.7315 36.7415 36.1952 35.2122 34.3139 35.2122Z"/>
</mask>
<path d="M34.3139 43.2862C31.7296 43.2862 29.627 41.1932 29.627 38.6207C29.627 36.0481 31.7296 33.9551 34.3139 33.9551C36.8982 33.9551 39.0009 36.0481 39.0009 38.6207C39.0009 41.1932 36.8982 43.2862 34.3139 43.2862ZM34.3139 35.2122C32.4261 35.2122 30.8898 36.7415 30.8898 38.6207C30.8898 40.4998 32.4261 42.0291 34.3139 42.0291C36.2017 42.0291 37.738 40.4998 37.738 38.6207C37.7315 36.7415 36.1952 35.2122 34.3139 35.2122Z" fill="#606060"/>
<path d="M39.0009 38.6207H41.0009H39.0009ZM37.738 38.6207H39.738L39.738 38.6137L37.738 38.6207ZM34.3139 41.2862C32.8255 41.2862 31.627 40.08 31.627 38.6207H27.627C27.627 42.3064 30.6336 45.2862 34.3139 45.2862V41.2862ZM31.627 38.6207C31.627 37.1613 32.8255 35.9551 34.3139 35.9551V31.9551C30.6336 31.9551 27.627 34.9349 27.627 38.6207H31.627ZM34.3139 35.9551C35.8023 35.9551 37.0009 37.1613 37.0009 38.6207H41.0009C41.0009 34.9349 37.9942 31.9551 34.3139 31.9551V35.9551ZM37.0009 38.6207C37.0009 40.08 35.8023 41.2862 34.3139 41.2862V45.2862C37.9942 45.2862 41.0009 42.3064 41.0009 38.6207H37.0009ZM34.3139 33.2122C31.3302 33.2122 28.8898 35.6283 28.8898 38.6207H32.8898C32.8898 37.8546 33.522 37.2122 34.3139 37.2122V33.2122ZM28.8898 38.6207C28.8898 41.613 31.3302 44.0291 34.3139 44.0291V40.0291C33.522 40.0291 32.8898 39.3867 32.8898 38.6207H28.8898ZM34.3139 44.0291C37.2976 44.0291 39.738 41.613 39.738 38.6207H35.738C35.738 39.3867 35.1058 40.0291 34.3139 40.0291V44.0291ZM39.738 38.6137C39.7276 35.6306 37.295 33.2122 34.3139 33.2122V37.2122C35.0954 37.2122 35.7353 37.8523 35.738 38.6276L39.738 38.6137Z" fill="#606060" mask="url(#path-23-inside-12_66:3258)"/>
<mask id="path-25-inside-13_66:3258" fill="white">
<path d="M11.5604 7.10156H10.291V10.1731H11.5604V7.10156Z"/>
</mask>
<path d="M11.5604 7.10156H10.291V10.1731H11.5604V7.10156Z" fill="#606060"/>
<path d="M10.291 7.10156V5.10156H8.29102V7.10156H10.291ZM11.5604 7.10156H13.5604V5.10156H11.5604V7.10156ZM11.5604 10.1731V12.1731H13.5604V10.1731H11.5604ZM10.291 10.1731H8.29102V12.1731H10.291V10.1731ZM10.291 9.10156H11.5604V5.10156H10.291V9.10156ZM9.5604 7.10156V10.1731H13.5604V7.10156H9.5604ZM11.5604 8.17307H10.291V12.1731H11.5604V8.17307ZM12.291 10.1731V7.10156H8.29102V10.1731H12.291Z" fill="#606060" mask="url(#path-25-inside-13_66:3258)"/>
<mask id="path-27-inside-14_66:3258" fill="white">
<path d="M28.7069 7.10156H27.4375V10.1731H28.7069V7.10156Z"/>
</mask>
<path d="M28.7069 7.10156H27.4375V10.1731H28.7069V7.10156Z" fill="#606060"/>
<path d="M27.4375 7.10156V5.10156H25.4375V7.10156H27.4375ZM28.7069 7.10156H30.7069V5.10156H28.7069V7.10156ZM28.7069 10.1731V12.1731H30.7069V10.1731H28.7069ZM27.4375 10.1731H25.4375V12.1731H27.4375V10.1731ZM27.4375 9.10156H28.7069V5.10156H27.4375V9.10156ZM26.7069 7.10156V10.1731H30.7069V7.10156H26.7069ZM28.7069 8.17307H27.4375V12.1731H28.7069V8.17307ZM29.4375 10.1731V7.10156H25.4375V10.1731H29.4375Z" fill="#606060" mask="url(#path-27-inside-14_66:3258)"/>
<mask id="path-29-inside-15_66:3258" fill="white">
<path d="M20.1346 35.7695H18.8652V46.9993H20.1346V35.7695Z"/>
</mask>
<path d="M20.1346 35.7695H18.8652V46.9993H20.1346V35.7695Z" fill="#606060"/>
<path d="M18.8652 35.7695V33.7695H16.8652V35.7695H18.8652ZM20.1346 35.7695H22.1346V33.7695H20.1346V35.7695ZM20.1346 46.9993V48.9993H22.1346V46.9993H20.1346ZM18.8652 46.9993H16.8652V48.9993H18.8652V46.9993ZM18.8652 37.7695H20.1346V33.7695H18.8652V37.7695ZM18.1346 35.7695V46.9993H22.1346V35.7695H18.1346ZM20.1346 44.9993H18.8652V48.9993H20.1346V44.9993ZM20.8652 46.9993V35.7695H16.8652V46.9993H20.8652Z" fill="#606060" mask="url(#path-29-inside-15_66:3258)"/>
<mask id="path-31-inside-16_66:3258" fill="white">
<path d="M4.68695 43.2862C2.10262 43.2862 0 41.1932 0 38.6207C0 36.0481 2.10262 33.9551 4.68695 33.9551C7.27128 33.9551 9.3739 36.0481 9.3739 38.6207C9.3739 41.1932 7.27128 43.2862 4.68695 43.2862ZM4.68695 35.2122C2.79915 35.2122 1.26287 36.7415 1.26287 38.6207C1.26287 40.4998 2.79915 42.0291 4.68695 42.0291C6.57475 42.0291 8.11102 40.4998 8.11102 38.6207C8.11102 36.7415 6.57475 35.2122 4.68695 35.2122Z"/>
</mask>
<path d="M4.68695 43.2862C2.10262 43.2862 0 41.1932 0 38.6207C0 36.0481 2.10262 33.9551 4.68695 33.9551C7.27128 33.9551 9.3739 36.0481 9.3739 38.6207C9.3739 41.1932 7.27128 43.2862 4.68695 43.2862ZM4.68695 35.2122C2.79915 35.2122 1.26287 36.7415 1.26287 38.6207C1.26287 40.4998 2.79915 42.0291 4.68695 42.0291C6.57475 42.0291 8.11102 40.4998 8.11102 38.6207C8.11102 36.7415 6.57475 35.2122 4.68695 35.2122Z" fill="#606060"/>
<path d="M4.68695 41.2862C3.19856 41.2862 2 40.08 2 38.6207H-2C-2 42.3064 1.00667 45.2862 4.68695 45.2862V41.2862ZM2 38.6207C2 37.1613 3.19856 35.9551 4.68695 35.9551V31.9551C1.00668 31.9551 -2 34.9349 -2 38.6207H2ZM4.68695 35.9551C6.17534 35.9551 7.3739 37.1613 7.3739 38.6207H11.3739C11.3739 34.9349 8.36722 31.9551 4.68695 31.9551V35.9551ZM7.3739 38.6207C7.3739 40.08 6.17534 41.2862 4.68695 41.2862V45.2862C8.36722 45.2862 11.3739 42.3064 11.3739 38.6207H7.3739ZM4.68695 33.2122C1.70321 33.2122 -0.737128 35.6283 -0.737128 38.6207H3.26287C3.26287 37.8546 3.89509 37.2122 4.68695 37.2122V33.2122ZM-0.737128 38.6207C-0.737128 41.613 1.70321 44.0291 4.68695 44.0291V40.0291C3.89509 40.0291 3.26287 39.3867 3.26287 38.6207H-0.737128ZM4.68695 44.0291C7.67069 44.0291 10.111 41.613 10.111 38.6207H6.11102C6.11102 39.3867 5.4788 40.0291 4.68695 40.0291V44.0291ZM10.111 38.6207C10.111 35.6283 7.67069 33.2122 4.68695 33.2122V37.2122C5.47881 37.2122 6.11102 37.8546 6.11102 38.6207H10.111Z" fill="#606060" mask="url(#path-31-inside-16_66:3258)"/>
<mask id="path-33-inside-17_66:3258" fill="white">
<path d="M34.3115 48.0812H4.68612C4.3346 48.0812 4.05469 47.7961 4.05469 47.4527V42.6575C4.05469 42.3076 4.34111 42.0289 4.68612 42.0289C6.57392 42.0289 8.1102 40.4996 8.1102 38.6205C8.1102 36.7413 6.57392 35.212 4.68612 35.212C4.3346 35.212 4.05469 34.9269 4.05469 34.5834V30.3844C4.05469 30.0345 4.34111 29.7559 4.68612 29.7559H34.3115C34.6631 29.7559 34.943 30.041 34.943 30.3844V34.5834C34.943 34.9334 34.6566 35.212 34.3115 35.212C32.4237 35.212 30.8875 36.7413 30.8875 38.6205C30.8875 40.4996 32.4237 42.0289 34.3115 42.0289C34.6631 42.0289 34.943 42.314 34.943 42.6575V47.4527C34.943 47.7961 34.6566 48.0812 34.3115 48.0812ZM5.31756 46.8176H33.6736V43.2407C31.3887 42.9296 29.6181 40.9727 29.6181 38.614C29.6181 36.2553 31.3887 34.2983 33.6736 33.9873V31.0065H5.31756V33.9873C7.60245 34.2983 9.37307 36.2553 9.37307 38.614C9.37307 40.9727 7.60245 42.9296 5.31756 43.2407V46.8176Z"/>
</mask>
<path d="M34.3115 48.0812H4.68612C4.3346 48.0812 4.05469 47.7961 4.05469 47.4527V42.6575C4.05469 42.3076 4.34111 42.0289 4.68612 42.0289C6.57392 42.0289 8.1102 40.4996 8.1102 38.6205C8.1102 36.7413 6.57392 35.212 4.68612 35.212C4.3346 35.212 4.05469 34.9269 4.05469 34.5834V30.3844C4.05469 30.0345 4.34111 29.7559 4.68612 29.7559H34.3115C34.6631 29.7559 34.943 30.041 34.943 30.3844V34.5834C34.943 34.9334 34.6566 35.212 34.3115 35.212C32.4237 35.212 30.8875 36.7413 30.8875 38.6205C30.8875 40.4996 32.4237 42.0289 34.3115 42.0289C34.6631 42.0289 34.943 42.314 34.943 42.6575V47.4527C34.943 47.7961 34.6566 48.0812 34.3115 48.0812ZM5.31756 46.8176H33.6736V43.2407C31.3887 42.9296 29.6181 40.9727 29.6181 38.614C29.6181 36.2553 31.3887 34.2983 33.6736 33.9873V31.0065H5.31756V33.9873C7.60245 34.2983 9.37307 36.2553 9.37307 38.614C9.37307 40.9727 7.60245 42.9296 5.31756 43.2407V46.8176Z" fill="#606060"/>
<path d="M5.31756 46.8176H3.31756V48.8176H5.31756V46.8176ZM33.6736 46.8176V48.8176H35.6736V46.8176H33.6736ZM33.6736 43.2407H35.6736V41.4945L33.9434 41.259L33.6736 43.2407ZM33.6736 33.9873L33.9434 35.969L35.6736 35.7335V33.9873H33.6736ZM33.6736 31.0065H35.6736V29.0065H33.6736V31.0065ZM5.31756 31.0065V29.0065H3.31756V31.0065H5.31756ZM5.31756 33.9873H3.31756V35.7335L5.04779 35.969L5.31756 33.9873ZM5.31756 43.2407L5.04779 41.259L3.31756 41.4945V43.2407H5.31756ZM34.3115 46.0812H4.68612V50.0812H34.3115V46.0812ZM4.68612 46.0812C5.44396 46.0812 6.05469 46.6963 6.05469 47.4527H2.05469C2.05469 48.8959 3.22525 50.0812 4.68612 50.0812V46.0812ZM6.05469 47.4527V42.6575H2.05469V47.4527H6.05469ZM6.05469 42.6575C6.05469 43.4341 5.42358 44.0289 4.68612 44.0289V40.0289C3.25864 40.0289 2.05469 41.181 2.05469 42.6575H6.05469ZM4.68612 44.0289C7.66986 44.0289 10.1102 41.6128 10.1102 38.6205H6.1102C6.1102 39.3865 5.47798 40.0289 4.68612 40.0289V44.0289ZM10.1102 38.6205C10.1102 35.6281 7.66986 33.212 4.68612 33.212V37.212C5.47798 37.212 6.1102 37.8544 6.1102 38.6205H10.1102ZM4.68612 33.212C5.44398 33.212 6.05469 33.8271 6.05469 34.5834H2.05469C2.05469 36.0266 3.22523 37.212 4.68612 37.212V33.212ZM6.05469 34.5834V30.3844H2.05469V34.5834H6.05469ZM6.05469 30.3844C6.05469 31.161 5.42358 31.7559 4.68612 31.7559V27.7559C3.25864 27.7559 2.05469 28.908 2.05469 30.3844H6.05469ZM4.68612 31.7559H34.3115V27.7559H4.68612V31.7559ZM34.3115 31.7559C33.5537 31.7559 32.943 31.1407 32.943 30.3844H36.943C36.943 28.9412 35.7724 27.7559 34.3115 27.7559V31.7559ZM32.943 30.3844V34.5834H36.943V30.3844H32.943ZM32.943 34.5834C32.943 33.8068 33.5741 33.212 34.3115 33.212V37.212C35.739 37.212 36.943 36.0599 36.943 34.5834H32.943ZM34.3115 33.212C31.3278 33.212 28.8875 35.6281 28.8875 38.6205H32.8875C32.8875 37.8544 33.5197 37.212 34.3115 37.212V33.212ZM28.8875 38.6205C28.8875 41.6128 31.3278 44.0289 34.3115 44.0289V40.0289C33.5197 40.0289 32.8875 39.3865 32.8875 38.6205H28.8875ZM34.3115 44.0289C33.5537 44.0289 32.943 43.4138 32.943 42.6575H36.943C36.943 41.2143 35.7724 40.0289 34.3115 40.0289V44.0289ZM32.943 42.6575V47.4527H36.943V42.6575H32.943ZM32.943 47.4527C32.943 46.6829 33.5606 46.0812 34.3115 46.0812V50.0812C35.7525 50.0812 36.943 48.9093 36.943 47.4527H32.943ZM5.31756 48.8176H33.6736V44.8176H5.31756V48.8176ZM35.6736 46.8176V43.2407H31.6736V46.8176H35.6736ZM33.9434 41.259C32.6261 41.0796 31.6181 39.9488 31.6181 38.614H27.6181C27.6181 41.9966 30.1513 44.7796 33.4038 45.2224L33.9434 41.259ZM31.6181 38.614C31.6181 37.2792 32.6261 36.1483 33.9434 35.969L33.4038 32.0056C30.1513 32.4483 27.6181 35.2314 27.6181 38.614H31.6181ZM35.6736 33.9873V31.0065H31.6736V33.9873H35.6736ZM33.6736 29.0065H5.31756V33.0065H33.6736V29.0065ZM3.31756 31.0065V33.9873H7.31756V31.0065H3.31756ZM5.04779 35.969C6.36503 36.1483 7.37307 37.2792 7.37307 38.614H11.3731C11.3731 35.2314 8.83986 32.4483 5.58733 32.0056L5.04779 35.969ZM7.37307 38.614C7.37307 39.9488 6.36503 41.0796 5.04779 41.259L5.58733 45.2224C8.83986 44.7796 11.3731 41.9966 11.3731 38.614H7.37307ZM3.31756 43.2407V46.8176H7.31756V43.2407H3.31756Z" fill="#606060" mask="url(#path-33-inside-17_66:3258)"/>
<mask id="path-35-inside-18_66:3258" fill="white">
<path d="M25.6678 3.19434H13.332V4.45793H25.6678V3.19434Z"/>
</mask>
<path d="M25.6678 3.19434H13.332V4.45793H25.6678V3.19434Z" fill="#606060"/>
<path d="M13.332 3.19434V1.19434H11.332V3.19434H13.332ZM25.6678 3.19434H27.6678V1.19434H25.6678V3.19434ZM25.6678 4.45793V6.45793H27.6678V4.45793H25.6678ZM13.332 4.45793H11.332V6.45793H13.332V4.45793ZM13.332 5.19434H25.6678V1.19434H13.332V5.19434ZM23.6678 3.19434V4.45793H27.6678V3.19434H23.6678ZM25.6678 2.45793H13.332V6.45793H25.6678V2.45793ZM15.332 4.45793V3.19434H11.332V4.45793H15.332Z" fill="#606060" mask="url(#path-35-inside-18_66:3258)"/>
</svg>
