<svg width="47" height="47" viewBox="0 0 47 47" fill="none" xmlns="http://www.w3.org/2000/svg">
<circle cx="23.5" cy="23.5" r="23" stroke="white"/>
<path d="M28.66 17.1846C28.66 16.5422 29.1816 16.0215 29.825 16.0215C30.4684 16.0215 30.99 16.5422 30.99 17.1846C30.99 17.8269 30.4684 18.3476 29.825 18.3476C29.1816 18.3476 28.66 17.8269 28.66 17.1846Z" fill="white"/>
<path fill-rule="evenodd" clip-rule="evenodd" d="M24 17.4753C20.9438 17.4753 18.4663 19.9488 18.4663 23C18.4663 26.0512 20.9438 28.5247 24 28.5247C27.0562 28.5247 29.5337 26.0512 29.5337 23C29.5337 19.9488 27.0562 17.4753 24 17.4753ZM20.2137 23C20.2137 20.9123 21.9089 19.22 24 19.22C26.0911 19.22 27.7862 20.9123 27.7862 23C27.7862 25.0877 26.0911 26.78 24 26.78C21.9089 26.78 20.2137 25.0877 20.2137 23Z" fill="white"/>
<path fill-rule="evenodd" clip-rule="evenodd" d="M30.1258 12.338C26.0873 11.8873 21.9127 11.8873 17.8742 12.338C15.5301 12.5995 13.6378 14.443 13.3622 16.7954C12.8793 20.9178 12.8793 25.0822 13.3622 29.2046C13.6378 31.557 15.5301 33.4005 17.8742 33.662C21.9127 34.1127 26.0873 34.1127 30.1258 33.662C32.4699 33.4005 34.3622 31.557 34.6378 29.2046C35.1207 25.0822 35.1207 20.9178 34.6378 16.7954C34.3622 14.443 32.4699 12.5995 30.1258 12.338ZM18.0683 14.0718C21.9778 13.6356 26.0222 13.6356 29.9317 14.0718C31.4813 14.2447 32.7226 15.4655 32.9021 16.9981C33.3693 20.9858 33.3693 25.0142 32.9021 29.0019C32.7226 30.5345 31.4813 31.7553 29.9317 31.9282C26.0222 32.3644 21.9778 32.3644 18.0683 31.9282C16.5187 31.7553 15.2774 30.5345 15.0979 29.0019C14.6307 25.0142 14.6307 20.9858 15.0979 16.9981C15.2774 15.4655 16.5187 14.2447 18.0683 14.0718Z" fill="white"/>
</svg>
