<svg width="31" height="31" viewBox="0 0 31 31" fill="none" xmlns="http://www.w3.org/2000/svg">
<path d="M10.0188 15.027C10.0188 12.2607 12.2607 10.0176 15.027 10.0176C17.7933 10.0176 20.0364 12.2607 20.0364 15.027C20.0364 17.7933 17.7933 20.0364 15.027 20.0364C12.2607 20.0364 10.0188 17.7933 10.0188 15.027ZM7.31083 15.027C7.31083 19.2887 10.7654 22.7432 15.027 22.7432C19.2887 22.7432 22.7432 19.2887 22.7432 15.027C22.7432 10.7654 19.2887 7.31083 15.027 7.31083C10.7654 7.31083 7.31083 10.7654 7.31083 15.027ZM21.2455 7.00488C21.2453 7.36153 21.3509 7.71021 21.549 8.00683C21.747 8.30345 22.0285 8.53469 22.358 8.6713C22.6874 8.80792 23.05 8.84377 23.3998 8.77433C23.7496 8.7049 24.071 8.53328 24.3233 8.28119C24.5756 8.02911 24.7474 7.70787 24.8171 7.3581C24.8869 7.00834 24.8513 6.64575 24.715 6.3162C24.5786 5.98664 24.3476 5.70492 24.0511 5.50666C23.7547 5.3084 23.4061 5.2025 23.0494 5.20236H23.0487C22.5706 5.20258 22.1122 5.39254 21.7741 5.73051C21.436 6.06848 21.2459 6.52682 21.2455 7.00488ZM8.95611 27.2587C7.49103 27.1919 6.69472 26.9479 6.16553 26.7417C5.46395 26.4686 4.96337 26.1433 4.43706 25.6177C3.91075 25.0921 3.58497 24.592 3.31304 23.8904C3.10675 23.3615 2.86271 22.5649 2.79611 21.0999C2.72326 19.5159 2.70871 19.0401 2.70871 15.0271C2.70871 11.0142 2.72446 10.5397 2.79611 8.95442C2.86283 7.48935 3.10867 6.69436 3.31304 6.16385C3.58617 5.46226 3.91148 4.96168 4.43706 4.43538C4.96265 3.90907 5.46275 3.58328 6.16553 3.31136C6.69448 3.10506 7.49103 2.86103 8.95611 2.79443C10.5401 2.72157 11.0159 2.70703 15.027 2.70703C19.0382 2.70703 19.5145 2.72278 21.0998 2.79443C22.5648 2.86115 23.3598 3.10699 23.8903 3.31136C24.5919 3.58328 25.0925 3.90979 25.6188 4.43538C26.1451 4.96096 26.4697 5.46226 26.7428 6.16385C26.9491 6.6928 27.1932 7.48935 27.2598 8.95442C27.3326 10.5397 27.3471 11.0142 27.3471 15.0271C27.3471 19.0401 27.3326 19.5146 27.2598 21.0999C27.193 22.5649 26.9478 23.3613 26.7428 23.8904C26.4697 24.592 26.1444 25.0926 25.6188 25.6177C25.0932 26.1428 24.5919 26.4686 23.8903 26.7417C23.3614 26.948 22.5648 27.1921 21.0998 27.2587C19.5158 27.3315 19.04 27.3461 15.027 27.3461C11.0141 27.3461 10.5396 27.3315 8.95611 27.2587ZM8.83169 0.0910037C7.23197 0.163855 6.13884 0.417511 5.1842 0.788979C4.19555 1.17259 3.3586 1.68723 2.52226 2.52226C1.68591 3.35728 1.17259 4.19555 0.788979 5.1842C0.417511 6.13944 0.163855 7.23197 0.0910037 8.83169C0.0169505 10.4339 0 10.9462 0 15.027C0 19.1079 0.0169505 19.6201 0.0910037 21.2224C0.163855 22.8222 0.417511 23.9146 0.788979 24.8699C1.17259 25.8579 1.68603 26.6971 2.52226 27.5318C3.35848 28.3665 4.19555 28.8804 5.1842 29.2651C6.14064 29.6365 7.23197 29.8902 8.83169 29.963C10.4348 30.0359 10.9462 30.0541 15.027 30.0541C19.1079 30.0541 19.6201 30.0371 21.2224 29.963C22.8222 29.8902 23.9146 29.6365 24.8699 29.2651C25.8579 28.8804 26.6955 28.3668 27.5318 27.5318C28.3681 26.6968 28.8804 25.8579 29.2651 24.8699C29.6365 23.9146 29.8914 22.8221 29.9631 21.2224C30.0359 19.6189 30.0529 19.1079 30.0529 15.027C30.0529 10.9462 30.0359 10.4339 29.9631 8.83169C29.8902 7.23185 29.6365 6.13884 29.2651 5.1842C28.8804 4.19615 28.3668 3.3586 27.5318 2.52226C26.6968 1.68591 25.8579 1.17259 24.8711 0.788979C23.9146 0.417511 22.8221 0.162653 21.2236 0.0910037C19.6213 0.0181527 19.1091 0 15.0282 0C10.9474 0 10.4348 0.0169505 8.83169 0.0910037Z" fill="white"/>
</svg>
