<svg width="84" height="84" viewBox="0 0 84 84" fill="none" xmlns="http://www.w3.org/2000/svg">
<path d="M84 84H0V0H84V84Z" fill="#FD780F"/>
<path d="M9.45117 37.9266H11.4195C11.4671 37.953 11.6154 38.2758 11.8746 38.9002C11.8905 38.9267 13.1181 41.7258 15.5574 47.3029H15.5838C15.7161 46.9695 17.0971 43.8476 19.7217 37.9266H21.5419L21.5896 37.9424C18.2718 45.5355 16.3511 49.8851 15.8273 50.9962H15.2082C15.0918 50.811 14.3827 49.2078 13.0757 46.1916C10.7211 40.895 9.51465 38.1383 9.45117 37.9266ZM28.9657 37.9266C31.1457 37.9266 32.9394 38.752 34.3523 40.3977C35.2518 41.5882 35.7015 42.9005 35.7015 44.345V44.5778C35.7015 46.6891 34.8073 48.4246 33.0136 49.7845C31.786 50.5941 30.4314 50.9962 28.9445 50.9962C26.6057 50.9962 24.7379 50.0914 23.341 48.287C22.542 47.1494 22.1452 45.9113 22.1452 44.5778V44.345C22.1452 42.3554 22.9706 40.6781 24.6162 39.3182C25.8755 38.3922 27.3254 37.9266 28.9657 37.9266ZM23.9865 44.3133V44.6043C23.9865 45.9377 24.5051 47.1071 25.5474 48.1071C26.5158 48.9379 27.6481 49.3559 28.9445 49.3559C30.6166 49.3559 31.9606 48.6892 32.9766 47.3505C33.5639 46.4933 33.8602 45.5779 33.8602 44.6043V44.3133C33.8602 42.7418 33.1564 41.4295 31.7542 40.3765C30.8812 39.8368 29.9446 39.5669 28.9445 39.5669C27.2196 39.5669 25.8385 40.2707 24.8014 41.6729C24.2564 42.5248 23.9865 43.4031 23.9865 44.3133ZM44.0301 37.9266C45.2419 37.9266 46.2948 38.1488 47.1944 38.5986C47.6018 38.7944 47.8081 38.9055 47.8187 38.9372C47.8081 39.6198 47.7869 40.2283 47.7552 40.7627H47.7393C46.6282 39.9638 45.4482 39.5669 44.1942 39.5669H43.9455C42.3422 39.5669 41.0193 40.2019 39.9663 41.4718C39.3261 42.3554 39.0086 43.3555 39.0086 44.472C39.0086 46.1917 39.7336 47.5462 41.1781 48.5463C42.0353 49.0861 42.9507 49.3559 43.9296 49.3559H44.2418C45.2048 49.3559 46.1414 49.0913 47.0568 48.5622V46.1546H43.6914C43.6544 46.1546 43.5275 45.7208 43.2999 44.853C43.2946 44.8424 43.247 44.6943 43.1623 44.4138L43.1994 44.3873H48.7765C48.8029 44.3926 48.8135 44.4085 48.8135 44.435V49.3559C48.3849 49.7316 47.8981 50.0438 47.3583 50.2872C46.2842 50.7581 45.1572 50.9962 43.9772 50.9962C41.6331 50.9962 39.76 50.0914 38.3578 48.2818C37.5747 47.123 37.1832 45.9324 37.1832 44.6995V44.2868C37.1832 42.4877 37.8869 40.9321 39.2891 39.6146C40.5907 38.4875 42.1729 37.9266 44.0301 37.9266ZM51.4591 37.916H53.2476C53.2741 37.9214 53.2899 37.9372 53.2899 37.9636V45.398C53.2899 47.2553 53.946 48.4722 55.253 49.0437C55.7663 49.2395 56.3166 49.3347 56.8934 49.3347C58.5601 49.3347 59.6554 48.6733 60.1899 47.3505C60.428 46.7685 60.5496 46.0806 60.5496 45.2816V37.9636C60.5496 37.9319 60.5602 37.916 60.5814 37.916H62.3064C62.3381 37.9214 62.354 37.9372 62.354 37.9636V45.4826C62.354 47.8638 61.428 49.5252 59.5814 50.4671C58.7718 50.8216 57.8722 50.9962 56.8722 50.9962C54.3376 50.9962 52.655 49.938 51.8136 47.8161C51.5543 47.0594 51.4221 46.2816 51.4221 45.4826V37.9636C51.4274 37.9319 51.4433 37.916 51.4591 37.916ZM65.1214 37.9266H74.2912V37.9424C74.2912 38.0007 74.1219 38.5245 73.7886 39.5193L66.9469 39.5669V43.5672H73.4606L73.4976 43.5884C73.1642 44.6413 72.9896 45.1652 72.9632 45.1652H66.9469V49.3718H74.5188C74.5453 49.3771 74.5559 49.3929 74.5559 49.4194L74.0637 50.9962H65.1214C65.0949 50.9962 65.0791 50.9804 65.0791 50.9486V37.9689C65.0843 37.9424 65.0949 37.9266 65.1214 37.9266Z" fill="white"/>
<path d="M18.6024 58.46C18.6342 58.4653 18.65 58.4811 18.65 58.5023C18.3591 59.5235 18.1897 60.0579 18.1474 60.1003H14.1948V71.482C14.1948 71.5137 14.1789 71.5296 14.1471 71.5296H12.3587C12.3322 71.5296 12.3216 71.5137 12.3216 71.482V60.1003H7.88744L7.83984 60.0791L8.35842 58.46H18.6024ZM20.1051 58.46H25.4388C26.8516 58.46 28.0634 58.8357 29.0687 59.5817C30.1058 60.4336 30.6244 61.5184 30.6244 62.8359V63.1904C30.6244 64.6985 29.9735 65.8731 28.6771 66.7145C28.3914 66.8997 28.0951 67.0372 27.7829 67.1272V67.1748L30.8254 71.482V71.5296H28.82C28.7777 71.4978 27.8358 70.1644 25.9944 67.5293C25.6346 67.5558 25.2695 67.5664 24.8938 67.5664H21.9465V71.482C21.9465 71.5137 21.936 71.5296 21.9095 71.5296H20.1051C20.0787 71.5296 20.0628 71.5137 20.0628 71.482V58.5023C20.0681 58.4758 20.0787 58.46 20.1051 58.46ZM21.9465 60.1003V65.9525H25.2483C26.9469 65.9525 28.0474 65.3651 28.5448 64.1852C28.6665 63.8412 28.7301 63.5237 28.7301 63.2327V62.8624C28.7301 61.5342 28.0051 60.6612 26.55 60.2431C26.1003 60.1479 25.6611 60.1003 25.2271 60.1003H21.9465ZM37.9317 58.46C38.1169 58.7721 40.1964 63.0846 44.1702 71.4026C44.1807 71.4026 44.2019 71.4396 44.2337 71.5137L44.1861 71.5296H42.2653C42.1436 71.3285 41.6251 70.2438 40.7149 68.2754H34.4818C34.4552 68.2754 34.0743 69.0797 33.3388 70.683C33.0689 71.2386 32.9208 71.5243 32.9049 71.5296H30.9788L30.9365 71.5137L37.3337 58.46H37.9317ZM37.5613 61.6665L35.1802 66.7462H39.9847L37.6036 61.6665H37.5613ZM42.7116 58.46H44.6799C44.7275 58.4864 44.8757 58.8092 45.135 59.4336C45.1509 59.46 46.3785 62.2591 48.8178 67.8362H48.8442C48.9765 67.5029 50.3575 64.3809 52.9821 58.46H54.8023L54.8499 58.4758C51.5322 66.0689 49.6115 70.4184 49.0877 71.5296H48.4686C48.3521 71.3443 47.6431 69.7411 46.3361 66.725C43.9815 61.4284 42.775 58.6716 42.7116 58.46ZM56.1251 58.46H65.295V58.4758C65.295 58.534 65.1257 59.0579 64.7923 60.0527L57.9506 60.1003V64.1005H64.4643L64.5014 64.1217C64.168 65.1747 63.9934 65.6985 63.9669 65.6985H57.9506V69.9052H65.5226C65.549 69.9104 65.5596 69.9263 65.5596 69.9528L65.0675 71.5296H56.1251C56.0987 71.5296 56.0828 71.5137 56.0828 71.482V58.5023C56.0881 58.4758 56.0987 58.46 56.1251 58.46ZM67.2793 58.46H69.0572C69.0889 58.4653 69.1048 58.4811 69.1048 58.5023V69.8892H76.1211C76.1476 69.8946 76.1582 69.9104 76.1582 69.9369L75.6661 71.5137H75.6185C74.338 71.5137 71.5494 71.519 67.2528 71.5296L67.237 71.482V58.5023C67.2422 58.4758 67.2528 58.46 67.2793 58.46Z" fill="white"/>
<path d="M18.5859 18.4908C20.4895 19.1907 22.3601 19.9603 24.2327 20.7256L25.6302 21.3144C25.8623 21.4109 26.0971 21.5157 26.3267 21.6054L27.0113 21.867C27.9325 22.1833 28.8631 22.4732 29.8226 22.6183C33.6399 23.2778 37.6332 22.516 40.8904 20.5082C41.683 20.0198 42.5363 19.4026 43.3635 18.8435L45.8734 17.1468C47.5528 16.0251 49.2334 14.9047 50.9369 13.8174C54.3295 11.622 57.7569 9.47696 61.2817 7.47266C58.1649 10.0663 54.9506 12.5192 51.7015 14.9219C50.084 16.1337 48.4438 17.3124 46.8029 18.4895L44.3311 20.2415L43.0893 21.1085C42.8783 21.2527 42.6836 21.3968 42.4594 21.5418L41.7898 21.9755C38.1645 24.2123 33.6453 24.9346 29.5511 23.9288C28.5252 23.6953 27.5316 23.3374 26.5809 22.9047L25.8781 22.5589C25.6468 22.4427 25.4303 22.3208 25.2053 22.2021L23.87 21.484C22.0989 20.5066 20.3256 19.5337 18.5859 18.4908Z" fill="white"/>
<path d="M49.0582 19.3513L56.4979 17.0056L61.8955 15.277L62.2304 15.1693C62.3322 15.1363 62.432 15.0968 62.5301 15.0521C62.7257 14.9618 62.9122 14.848 63.0841 14.7128C63.2551 14.5772 63.4127 14.4218 63.5491 14.2473C63.6857 14.0787 63.7989 13.8744 63.9265 13.6718L65.4137 11.2598L64.1907 13.8161C64.0882 14.0249 63.9955 14.2473 63.8575 14.4633C63.7246 14.6763 63.5643 14.8732 63.3835 15.0512C63.2019 15.2285 62.9984 15.3853 62.7783 15.5173C62.6676 15.5831 62.5533 15.6428 62.4358 15.6954L62.1093 15.8402L56.9264 18.1323L42.1719 23.8276L49.0582 19.3513Z" fill="white"/>
<path d="M29.0956 25.6455L26.9945 26.6104C26.4763 26.8485 26.2489 27.4619 26.4872 27.9806C26.6806 28.4017 27.1222 28.6308 27.5588 28.5738C27.6595 28.5606 27.76 28.5323 27.8569 28.4878L32.6072 26.306C32.6359 26.293 32.6602 26.2746 32.6871 26.2591C31.4686 26.1932 30.2615 25.9888 29.0956 25.6455Z" fill="white"/>
</svg>
