<svg width="393" height="235" viewBox="0 0 393 235" fill="none" xmlns="http://www.w3.org/2000/svg">
<g clip-path="url(#clip0_74:1587)">
<path d="M135.377 122.65C135.666 121.935 135.785 121.163 135.727 120.395L132.182 74.015C132.149 73.583 132.06 73.1571 131.917 72.748L117.453 31.3143C117.159 30.4744 116.647 29.7278 115.969 29.1518L109.138 23.3481C108.213 22.5623 108.297 21.11 109.307 20.4362C109.965 19.9967 110.831 20.0311 111.453 20.5214L122.467 29.2112C123.22 29.8052 123.786 30.6032 124.098 31.51L137.589 70.7256C137.683 70.9981 137.753 71.2782 137.798 71.5628L142.995 104.067C143.064 104.5 143.076 104.94 143.03 105.376L138.244 151.181C138.191 151.683 138.215 152.19 138.315 152.684L146.004 191.012C146.614 194.051 144.341 196.906 141.243 196.993L134.16 197.192L128.651 196.975C126.121 196.875 124.065 194.899 123.864 192.375L121.217 159.07C121.156 158.297 121.275 157.519 121.566 156.8L135.377 122.65Z" fill="#ED6F00"/>
<path d="M109.206 20.2651C109.393 19.5216 108.899 18.7787 108.141 18.6627L84.496 15.0419C82.8642 14.792 81.2142 15.3637 80.0868 16.5695L53.744 44.7455C52.8214 45.7323 52.3373 47.0505 52.4021 48.4L52.9473 59.758C53.1788 64.5814 59.4359 66.3069 62.107 62.284L70.4487 49.7203L84.4747 23.817C85.3509 22.1989 87.045 21.1928 88.885 21.1978L107.941 21.2492C108.539 21.2509 109.06 20.8449 109.206 20.2651Z" fill="#7AC8CC"/>
<path d="M109.391 19.5302C109.492 19.127 109.801 18.8083 110.2 18.6936L126.207 14.0987C127.163 13.8243 128.178 13.8411 129.125 14.1471L155.578 22.7002C156.738 23.0755 157.722 23.862 158.343 24.9118L177.987 58.1157C178.45 58.8993 178.691 59.7945 178.683 60.7049L178.648 64.7319C178.614 68.6996 174.193 71.0484 170.886 68.8563L164.683 64.7446C163.812 64.1675 163.144 63.3321 162.772 62.3557L150.598 30.3736C150.108 29.0856 149.119 28.0615 147.844 27.5377C142.053 25.1582 125.559 18.4152 124.995 18.5755C124.457 18.7293 114.744 20.3107 110.702 20.966C109.875 21.1001 109.187 20.3428 109.391 19.5302Z" fill="#7AC8CC"/>
<path d="M108.739 18.7543C108.335 18.6926 107.932 18.8673 107.702 19.2039L94.0324 39.1472C93.4134 40.0503 93.1071 41.1151 93.1625 42.2085C93.4947 48.7578 94.7019 72.3655 94.8693 72.8513C94.9901 73.2097 107.925 89.228 117.341 100.86C120.385 104.621 126.451 102.285 126.204 97.4533L124.479 63.7616C124.448 63.1485 124.304 62.5464 124.054 61.9854L111.236 33.1627C111.019 32.6763 110.882 32.1585 110.829 31.6288L109.635 19.6988C109.587 19.2163 109.218 18.8277 108.739 18.7543Z" fill="#7AC8CC"/>
<path d="M109.12 20.6107C109.022 21.0018 109.159 21.4145 109.471 21.6695L130.436 38.7815C131.028 39.2647 131.501 39.8773 131.819 40.5721L149.201 78.5043C149.316 78.7548 149.41 79.0144 149.482 79.2804L150.515 83.0968C151.921 88.2869 159.407 87.9043 160.276 82.598L163.083 65.4501C163.253 64.4167 163.093 63.3562 162.627 62.4183L147.812 32.585C147.37 31.6966 146.675 30.9594 145.813 30.4674L126.344 19.3459C125.465 18.8439 124.455 18.6204 123.446 18.7049L110.042 19.828C109.599 19.8651 109.228 20.1797 109.12 20.6107Z" fill="#7AC8CC"/>
<path d="M104.382 19.1048C104.077 19.0287 103.755 19.0587 103.47 19.1896L74.2365 32.5984C72.7292 33.2898 71.6628 34.6834 71.3895 36.319L66.379 66.3021C66.2909 66.8287 66.2879 67.366 66.3698 67.8936L67.3156 73.9823C68.0451 78.679 74.2995 79.8039 76.62 75.6558L81.3993 67.112C81.6842 66.6029 81.8777 66.0478 81.9711 65.472L86.681 36.4511C86.8937 35.1405 87.6189 33.9684 88.6967 33.1931L104.854 21.5705C105.811 20.8825 105.525 19.3901 104.382 19.1048Z" fill="#7AC8CC"/>
<path d="M103.391 19.2712C101.525 19.0042 99.9676 17.7102 99.3632 15.9245L98.8829 14.5052C97.8256 11.3814 100.029 8.10762 103.321 7.91115L109.031 7.57037C109.932 7.51664 110.83 7.70738 111.63 8.12236L115.184 9.96424C118.485 11.6752 118.83 16.2622 115.822 18.448L114.472 19.4295C113.42 20.1939 112.112 20.5185 110.824 20.3344L103.391 19.2712Z" fill="#7AC8CC"/>
<path d="M112.329 21.3031C112.804 21.3103 113.263 21.1323 113.609 20.807L120.183 14.6248C120.868 13.9806 121.72 13.5427 122.643 13.3612L147.529 8.46543C148.285 8.31668 149.069 8.43245 149.75 8.79332C153.121 10.5799 156.388 6.25577 153.748 3.50157L151.746 1.41258C150.895 0.525533 149.671 0.10099 148.454 0.271451L122.638 3.8879C121.232 4.08493 119.975 4.8708 119.183 6.04931L110.84 18.4554C110.03 19.6592 110.878 21.2811 112.329 21.3031Z" fill="#7AC8CC"/>
<path d="M126.988 112.765L117.513 76.3682L103.466 43.2744L108.016 22.0068L100.281 44.0136L114.864 77.8153L126.988 112.765Z" fill="#7AC8CC"/>
<path d="M133.502 39.3651L151.637 76.0689C151.637 76.0689 156.973 67.1059 156.711 66.7675C156.449 66.429 139.108 38.6143 139.108 38.6143L133.502 39.3651Z" fill="#7AC8CC"/>
<path d="M156.901 75.2793C156.901 75.2793 156.466 100.488 156.213 99.7368C155.959 98.986 152.998 80.6361 152.998 80.6361L156.901 75.2793Z" fill="#7AC8CC"/>
<path d="M83.9929 35.4082L79.4178 65.9345L71.8984 80.1492L78.3111 35.1826L83.9929 35.4082Z" fill="#7AC8CC"/>
<path d="M66.1869 33.8096L53.9023 46.5227L54.4008 66.2031L57.5226 48.2732L66.1869 33.8096Z" fill="#7AC8CC"/>
<path d="M159.447 30.1602L175.851 59.4104L176.924 69.5287L159.447 30.1602Z" fill="#7AC8CC"/>
<path d="M139.395 152.627L135.551 73.3338L189.906 34.7549L241.494 73.3338L240.413 152.627H139.395Z" fill="#F3A005"/>
<path d="M130.473 79.2664L127.127 74.3532L190.083 29.8301L193.429 38.0072L130.473 79.2664Z" fill="#FCBD6E"/>
<path d="M249.697 79.2664L253.042 74.3532L190.082 29.8301V40.2013L249.697 79.2664Z" fill="#FCBD6E"/>
<path d="M190.084 83.2812C197.815 83.2812 204.083 77.5092 204.083 70.3891C204.083 63.269 197.815 57.4971 190.084 57.4971C182.352 57.4971 176.084 63.269 176.084 70.3891C176.084 77.5092 182.352 83.2812 190.084 83.2812Z" fill="#FCDB6E"/>
<path d="M190.084 80.6322C196.227 80.6322 201.207 76.0463 201.207 70.3893C201.207 64.7324 196.227 60.1465 190.084 60.1465C183.941 60.1465 178.961 64.7324 178.961 70.3893C178.961 76.0463 183.941 80.6322 190.084 80.6322Z" fill="#069EA6"/>
<path d="M182.763 71.4786C182.763 65.8223 187.744 61.2357 193.882 61.2357C194.342 61.2357 194.794 61.2707 195.242 61.3213C193.7 60.5744 191.947 60.1465 190.08 60.1465C183.938 60.1465 178.957 64.733 178.957 70.3893C178.957 75.6216 183.219 79.928 188.715 80.5466C185.184 78.831 182.763 75.4154 182.763 71.4786Z" fill="#E2D6C0"/>
<path d="M147.53 155.405H142.406V196.711H147.53V155.405Z" fill="#ED6F00"/>
<path d="M238.038 155.405H232.914V196.711H238.038V155.405Z" fill="#ED6F00"/>
<path d="M243.636 158.555L137 156.945V153H243.636V158.555Z" fill="#FCBD6E"/>
<path d="M147.531 152.627H139.395L135.551 75.9363L147.531 68.0859V152.627Z" fill="#FCDB6E"/>
<path d="M240.413 152.627H232.412L233.181 68.4395L241.49 73.8818L240.413 152.627Z" fill="#FCDB6E"/>
<path d="M221.868 152.627H196.961L195.664 90.6601L222.878 89.7109L221.868 152.627Z" fill="#FCDB6E"/>
<path d="M199.133 94.7607H218.789L219.275 152.627H200.109L199.133 94.7607Z" fill="#DB3D27"/>
<path d="M216.714 136.471H214.412L213.922 129.512L217.166 129.722L216.714 136.471Z" fill="#F3A005"/>
<path d="M203.383 107.318H199.344L199.314 105.334H203.383L204.033 106.326L203.383 107.318Z" fill="#F3A005"/>
<path d="M203.382 143.653L199.956 143.723L199.922 141.669H203.382L204.032 142.661L203.382 143.653Z" fill="#F3A005"/>
<path d="M147.531 176.058L173.608 157.128L164.268 156.988L147.531 169.834V176.058Z" fill="#ED6F00"/>
<path d="M212.401 157.715L232.915 170.907V176.353L200.852 157.54L212.401 157.715Z" fill="#ED6F00"/>
<path d="M226.152 161.827H193.717V164.317H226.152V161.827Z" fill="#FCBD6E"/>
<path d="M226.152 168.919H193.717V171.409H226.152V168.919Z" fill="#FCBD6E"/>
<path d="M226.152 176.011H193.717V178.5H226.152V176.011Z" fill="#FCBD6E"/>
<path d="M226.152 183.103H193.717V185.592H226.152V183.103Z" fill="#FCBD6E"/>
<path d="M226.152 190.194H193.717V192.684H226.152V190.194Z" fill="#FCBD6E"/>
<path d="M193.721 148.329H188.141V196.715H193.721V148.329Z" fill="#FCDB6E"/>
<path d="M231.731 148.329H226.15V196.715H231.731V148.329Z" fill="#FCDB6E"/>
<path d="M289.077 196.711H93.9902L181.177 201.329L165.534 204.32L272.813 200.516L263.105 198.423L289.077 196.711Z" fill="#FCBD6E"/>
<path d="M245.68 196.71H257.868C259.646 187.814 261.868 171.385 259.004 153.502C254.733 126.823 243.454 117.413 243.454 117.413C243.454 117.413 234.388 128.671 235.859 155.603C236.801 172.922 242.051 188.086 245.68 196.71Z" fill="#069EA6"/>
<path d="M284.06 149.709C283.895 119.047 275.636 106.991 275.636 106.991C275.636 106.991 266.587 118.553 264.365 149.149C262.942 168.763 265.383 186.499 267.322 196.714H277.998C280.608 186.58 284.165 169.168 284.06 149.709Z" fill="#F3A005"/>
<path d="M273.11 179.127L272.404 195.252H270.026C270.026 195.252 269.582 183.394 273.11 179.127Z" fill="#069EA6"/>
<path d="M249.939 177.365L252.318 194.159H254.434C254.43 194.155 254.565 187.83 249.939 177.365Z" fill="#DB3D27"/>
<path d="M285.642 149.709C285.478 119.047 277.219 106.991 277.219 106.991H275.635C275.829 107.232 276.56 108.617 276.581 108.656C278.752 112.889 283.927 125.493 284.058 149.709" fill="#F38405"/>
<path d="M284.06 149.71C284.165 169.176 280.613 186.589 278.002 196.715H279.586C282.197 186.581 285.754 169.172 285.648 149.71" fill="#F38405"/>
<path opacity="0.3" d="M244.121 121.343C244.121 121.343 255.751 136.188 257.512 153.958C259.274 171.724 257.512 186.165 257.512 186.165L254.429 186.651C254.429 186.651 252.578 177.645 248.878 172.374L244.121 121.343Z" fill="white"/>
<path opacity="0.3" d="M268.573 172.821H266.456C266.456 172.821 265.354 148.158 267.998 134.651C270.643 121.144 274.694 111.368 274.694 111.368L272.341 157.49L268.573 172.821Z" fill="white"/>
<path d="M185.892 91.4619H158.514V134.557H185.892V91.4619Z" fill="#FCDB6E"/>
<path d="M182.763 95.2549H161.641V130.764H182.763V95.2549Z" fill="#069EA6"/>
<path d="M164.353 100.791L182.763 99.5302V95.2549H161.641V130.764H165.265L164.353 100.791Z" fill="#E2D6C0"/>
<path d="M155.861 134.558H188.541V138.316L155.861 137.802V134.558Z" fill="#FCBD6E"/>
</g>
<path d="M80.0256 200.227C68.3808 200.227 58.5599 211.185 54.3509 211.185C47.8971 211.185 33.6774 217.54 5.47669 224.114C-16.4968 229.237 48.8792 224.114 61.927 217.54C74.9748 210.966 73.0107 217.54 69.6435 224.114C66.2763 230.688 80.0256 231.565 93.0734 231.565C106.121 231.565 153.262 231.565 174.727 224.114C196.193 216.663 209.381 217.54 200.963 224.114C192.545 230.688 188.617 231.565 196.895 231.565C205.172 231.565 290.193 237.044 309.695 231.565C329.196 226.086 284.909 227.305 290.193 224.114C329.758 200.227 376.283 211.185 390.173 211.185C404.062 211.185 344.349 192.88 329.758 192.88C315.167 192.88 279.5 186.761 301.581 200.227C310.024 205.376 267.465 211.185 257.784 211.185H219.763C203.91 211.185 185.11 211.185 174.727 217.54C164.345 223.895 160.15 204.32 150.47 204.32C90.6673 204.32 139.828 211.185 101.491 211.185C95.3182 211.185 91.6704 200.227 80.0256 200.227Z" fill="#65D0D9" stroke="#7AC8CC"/>
<defs>
<clipPath id="clip0_74:1587">
<rect width="236.777" height="204.32" fill="white" transform="translate(52.3008)"/>
</clipPath>
</defs>
</svg>
