<svg width="42" height="34" viewBox="0 0 42 34" fill="none" xmlns="http://www.w3.org/2000/svg">
<path d="M33.5898 9.2024H8.40534L20.9976 2.03716L33.5898 9.2024ZM20.5875 0.607548L20.5875 0.607539L20.5847 0.609138L5.59742 9.13596C5.32737 9.2868 5.16457 9.57651 5.18504 9.88426L4.62593 10.2024H5.27423C5.41692 10.478 5.70441 10.6427 6.01033 10.6427H35.987C36.2896 10.6427 36.5794 10.4791 36.723 10.2024H37.3692L36.8114 9.885C36.8311 9.57966 36.6727 9.29095 36.4017 9.13699L21.4147 0.609153L21.4147 0.609144L21.4119 0.607547C21.156 0.464151 20.8434 0.46415 20.5875 0.607548Z" fill="white" stroke="white"/>
<path d="M6.01873 23.3942H35.9763L36.5867 22.3492C36.5867 22.3493 36.5867 22.3494 36.5867 22.3494H37.0516V22.3481V21.7001C37.0516 21.1002 36.5461 20.6553 35.9763 20.6553H6.01873C5.45353 20.6553 4.94336 21.0959 4.94336 21.7001V22.3494C4.94336 22.9493 5.44895 23.3942 6.01873 23.3942Z" fill="white" stroke="white"/>
<path d="M10.8672 29.6132C10.8672 30.0373 11.2211 30.3343 11.6007 30.3343C11.9803 30.3343 12.3343 30.0373 12.3343 29.6132V22.6713C12.3343 22.2472 11.9803 21.9502 11.6007 21.9502C11.2211 21.9502 10.8672 22.2472 10.8672 22.6713V29.6132Z" fill="white" stroke="white"/>
<path d="M12.5098 29.5729C12.5098 29.997 12.8637 30.294 13.2433 30.294C13.6229 30.294 13.9769 29.997 13.9769 29.5729V22.6733C13.9769 22.2492 13.6229 21.9521 13.2433 21.9521C12.8637 21.9521 12.5098 22.2492 12.5098 22.6733V29.5729Z" fill="white" stroke="white"/>
<path d="M29.4846 31.7508L29.4847 31.7508V31.7421V22.6713C29.4847 22.2472 29.1307 21.9502 28.7511 21.9502C28.3715 21.9502 28.0176 22.2472 28.0176 22.6713V31.7421C28.0176 32.1663 28.3715 32.4633 28.7511 32.4633C29.1337 32.4633 29.4775 32.1634 29.4846 31.7508Z" fill="white" stroke="white"/>
<path d="M29.6621 31.7019C29.6621 32.126 30.0161 32.423 30.3957 32.423C30.7753 32.423 31.1292 32.126 31.1292 31.7019V22.6733C31.1292 22.2492 30.7753 21.9521 30.3957 21.9521C30.0161 21.9521 29.6621 22.2492 29.6621 22.6733V31.7019Z" fill="white" stroke="white"/>
<path d="M10.0999 21.3744C10.0999 21.3737 10.0999 21.373 10.0999 21.3724L10.0999 21.3744ZM9.63281 21.3724C9.63281 21.7965 9.98677 22.0935 10.3664 22.0935C10.7377 22.0935 11.0999 21.8022 11.0999 21.3744V9.92329C11.0999 9.49916 10.746 9.20215 10.3664 9.20215C9.98677 9.20215 9.63281 9.49915 9.63281 9.92329V21.3724Z" fill="white" stroke="white"/>
<path d="M13.9515 21.3744C13.9515 21.3737 13.9515 21.373 13.9515 21.3724L13.9515 21.3744ZM13.4844 21.3724C13.4844 21.7965 13.8383 22.0935 14.2179 22.0935C14.5893 22.0935 14.9515 21.8022 14.9515 21.3744V9.92329C14.9515 9.49916 14.5975 9.20215 14.2179 9.20215C13.8383 9.20215 13.4844 9.49915 13.4844 9.92329V21.3724Z" fill="white" stroke="white"/>
<path d="M27.512 21.3744C27.512 21.3737 27.512 21.373 27.512 21.3724L27.512 21.3744ZM27.0449 21.3724C27.0449 21.7965 27.3989 22.0935 27.7785 22.0935C28.1498 22.0935 28.512 21.8022 28.512 21.3744V9.92329C28.512 9.49916 28.1581 9.20215 27.7785 9.20215C27.3989 9.20215 27.0449 9.49916 27.0449 9.92329V21.3724Z" fill="white" stroke="white"/>
<path d="M32.3635 21.3832L32.3636 21.3832V21.3744V9.92329C32.3636 9.49915 32.0096 9.20215 31.63 9.20215C31.2504 9.20215 30.8965 9.49915 30.8965 9.92329V21.3724C30.8965 21.7965 31.2504 22.0935 31.63 22.0935C32.0097 22.0935 32.3562 21.7965 32.3635 21.3832Z" fill="white" stroke="white"/>
<path d="M38.4075 31.0111L38.3942 31.0004C38.0389 30.7131 37.6316 30.3838 37.1133 30.1336C36.5781 29.8753 35.9415 29.708 35.1189 29.708C33.4424 29.708 32.5757 30.4085 31.83 31.0113C31.4782 31.2954 31.1841 31.5305 30.8274 31.7038C30.4824 31.8714 30.0622 31.9878 29.4713 31.9878C28.8805 31.9878 28.4603 31.8714 28.1153 31.7038C27.7586 31.5305 27.4645 31.2954 27.1126 31.0113C26.367 30.4085 25.5003 29.708 23.8238 29.708C22.1473 29.708 21.2806 30.4085 20.5349 31.0113C20.1831 31.2954 19.889 31.5305 19.5323 31.7038C19.1873 31.8714 18.7671 31.9878 18.1762 31.9878C17.5853 31.9878 17.1652 31.8714 16.8201 31.7038C16.4634 31.5305 16.1692 31.2953 15.8173 31.0111C15.0717 30.4083 14.205 29.708 12.5287 29.708C10.8523 29.708 9.98567 30.4083 9.24002 31.0111C8.88809 31.2953 8.59393 31.5305 8.23718 31.7038C7.89214 31.8714 7.47199 31.9878 6.8811 31.9878C6.29022 31.9878 5.87007 31.8714 5.52502 31.7038C5.16836 31.5305 4.87425 31.2954 4.52242 31.0113L38.4075 31.0111ZM38.4075 31.0111C38.7595 31.2953 39.0536 31.5305 39.4104 31.7038C39.7554 31.8714 40.1756 31.9878 40.7665 31.9878C41.146 31.9878 41.5 32.2848 41.5 32.7089V32.7176L41.4999 32.7176C41.4928 33.1302 41.149 33.4301 40.7665 33.4301C39.9439 33.4301 39.3073 33.2627 38.7721 33.0044C38.2537 32.7542 37.8465 32.425 37.4911 32.1377L37.4778 32.1269C37.1259 31.8427 36.8317 31.6076 36.475 31.4342C36.1299 31.2666 35.7098 31.1503 35.1189 31.1503C34.528 31.1503 34.1079 31.2666 33.7628 31.4342C33.4061 31.6076 33.1119 31.8427 32.76 32.1269M38.4075 31.0111L32.76 32.1269M14.8876 32.1269C14.5356 31.8427 14.2415 31.6076 13.8847 31.4342C13.5397 31.2666 13.1195 31.1503 12.5287 31.1503C11.9378 31.1503 11.5176 31.2666 11.1726 31.4342C10.8159 31.6076 10.5217 31.8427 10.1698 32.1269L14.8876 32.1269ZM14.8876 32.1269C15.6332 32.7297 16.4999 33.4301 18.1762 33.4301C19.8527 33.4301 20.7194 32.7296 21.4651 32.1267M14.8876 32.1269L21.4651 32.1267M21.4651 32.1267C21.8169 31.8426 22.111 31.6075 22.4677 31.4342C22.8127 31.2666 23.2329 31.1503 23.8238 31.1503C24.4147 31.1503 24.8348 31.2666 25.1799 31.4342C25.5366 31.6076 25.8308 31.8427 26.1827 32.1269M21.4651 32.1267L26.1827 32.1269M26.1827 32.1269C26.9283 32.7297 27.795 33.4301 29.4713 33.4301C31.1477 33.4301 32.0143 32.7297 32.76 32.1269M26.1827 32.1269H32.76M4.52239 31.0113C3.77671 30.4085 2.91006 29.708 1.23355 29.708C0.85396 29.708 0.5 30.005 0.5 30.4291C0.5 30.8533 0.85395 31.1503 1.23355 31.1503C1.82443 31.1503 2.24458 31.2666 2.58963 31.4342C2.94629 31.6075 3.2404 31.8426 3.59223 32.1267L4.52239 31.0113ZM6.8811 33.4301C8.55746 33.4301 9.4241 32.7297 10.1697 32.1269H3.59247C4.33811 32.7297 5.20475 33.4301 6.8811 33.4301Z" fill="white" stroke="white"/>
</svg>
