<svg width="25" height="21" viewBox="0 0 25 21" fill="none" xmlns="http://www.w3.org/2000/svg">
<path d="M12.7986 1.02166L12.7986 1.02167L3.87931 6.09618C3.8793 6.09619 3.87929 6.09619 3.87929 6.09619C3.80154 6.13915 3.76505 6.22525 3.78976 6.30775C3.81444 6.39015 3.89103 6.4453 3.98153 6.4453H21.819C21.9082 6.4453 21.9861 6.39017 22.0107 6.30775L22.0108 6.30768C22.0341 6.22524 21.999 6.14038 21.9212 6.09621L13.0032 1.02167L13.0031 1.02166C12.9397 0.986114 12.8621 0.986114 12.7986 1.02166ZM4.30111 6.17332L12.8996 1.28059L21.4981 6.17332H4.30111Z" fill="#606060" stroke="black" stroke-width="0.01"/>
<path d="M3.9869 14.0329H21.813L22.1553 13.7037H22.1603V13.7037V13.3174C22.1603 13.1361 22.005 12.9882 21.813 12.9882H3.9869C3.79617 12.9882 3.63953 13.1349 3.63953 13.3174V13.7037C3.63953 13.885 3.79489 14.0329 3.9869 14.0329ZM3.92621 13.3162C3.92621 13.2845 3.95277 13.2589 3.9869 13.2589H21.813C21.8471 13.2589 21.8737 13.2845 21.8737 13.3162V13.7025C21.8737 13.7342 21.8471 13.7598 21.813 13.7598H3.9869C3.95277 13.7598 3.92621 13.7342 3.92621 13.7025V13.3162Z" fill="#606060" stroke="black" stroke-width="0.01"/>
<path d="M7.16492 18.026C7.16492 18.1019 7.22933 18.1625 7.30889 18.1625C7.38846 18.1625 7.45286 18.1019 7.45286 18.026V13.8953C7.45286 13.8193 7.38846 13.7587 7.30889 13.7587C7.22933 13.7587 7.16492 13.8193 7.16492 13.8953V18.026Z" fill="#606060" stroke="black" stroke-width="0.01"/>
<path d="M8.14344 18.0018C8.14344 18.0778 8.20784 18.1384 8.28741 18.1384C8.36697 18.1384 8.43138 18.0778 8.43138 18.0018V13.8962C8.43138 13.8203 8.36697 13.7596 8.28741 13.7596C8.20784 13.7596 8.14344 13.8203 8.14344 13.8962V18.0018Z" fill="#606060" stroke="black" stroke-width="0.01"/>
<path d="M17.6579 19.2929V19.2928V13.8953C17.6579 13.8193 17.5935 13.7587 17.514 13.7587C17.4344 13.7587 17.37 13.8193 17.37 13.8953V19.2928C17.37 19.3688 17.4344 19.4294 17.514 19.4294C17.5923 19.4294 17.6566 19.3688 17.6579 19.2929Z" fill="#606060" stroke="black" stroke-width="0.01"/>
<path d="M18.3485 19.2686C18.3485 19.3446 18.4129 19.4052 18.4925 19.4052C18.5721 19.4052 18.6365 19.3446 18.6365 19.2686V13.8962C18.6365 13.8203 18.5721 13.7596 18.4925 13.7596C18.4129 13.7596 18.3485 13.8203 18.3485 13.8962V19.2686Z" fill="#606060" stroke="black" stroke-width="0.01"/>
<path d="M6.43055 13.123C6.43055 13.199 6.49495 13.2596 6.57452 13.2596C6.65276 13.2596 6.71849 13.1991 6.71849 13.1242V6.3103C6.71849 6.23431 6.65408 6.17371 6.57452 6.17371C6.49495 6.17371 6.43055 6.23431 6.43055 6.3103V13.123Z" fill="#606060" stroke="black" stroke-width="0.01"/>
<path d="M8.72156 13.123C8.72156 13.199 8.78597 13.2596 8.86553 13.2596C8.94377 13.2596 9.0095 13.1991 9.0095 13.1242V6.3103C9.0095 6.23431 8.9451 6.17371 8.86553 6.17371C8.78597 6.17371 8.72156 6.23431 8.72156 6.3103V13.123Z" fill="#606060" stroke="black" stroke-width="0.01"/>
<path d="M16.7919 13.123C16.7919 13.199 16.8563 13.2596 16.9358 13.2596C17.0141 13.2596 17.0798 13.1991 17.0798 13.1242V6.3103C17.0798 6.23431 17.0154 6.17371 16.9358 6.17371C16.8563 6.17371 16.7919 6.23431 16.7919 6.3103V13.123Z" fill="#606060" stroke="black" stroke-width="0.01"/>
<path d="M19.3708 13.1243V13.1242V6.3103C19.3708 6.23431 19.3064 6.17371 19.2269 6.17371C19.1473 6.17371 19.0829 6.23431 19.0829 6.3103V13.123C19.0829 13.199 19.1473 13.2596 19.2269 13.2596C19.3052 13.2596 19.3695 13.199 19.3708 13.1243Z" fill="#606060" stroke="black" stroke-width="0.01"/>
<path d="M24.8068 19.868V19.8681C24.8055 19.944 24.7412 20.0046 24.6628 20.0046C24.2161 20.0046 23.8809 19.9144 23.6032 19.7804C23.3256 19.6465 23.1057 19.4687 22.8897 19.2941L22.8891 19.2936C22.6833 19.1275 22.4836 18.9663 22.237 18.8464C21.9903 18.7266 21.6963 18.6481 21.3023 18.6481C20.9082 18.6481 20.6143 18.7266 20.3675 18.8464C20.1209 18.9663 19.9212 19.1275 19.7154 19.2936L19.7148 19.2941C19.2826 19.6436 18.8342 20.0046 17.9417 20.0046C17.0492 20.0046 16.6009 19.6436 16.1686 19.2941L16.168 19.2936C15.9622 19.1275 15.7625 18.9663 15.5159 18.8464C15.2692 18.7266 14.9752 18.6481 14.5812 18.6481C14.1871 18.6481 13.8932 18.7266 13.6464 18.8464C13.3998 18.9663 13.2001 19.1275 12.9943 19.2936L12.9937 19.2941C12.5615 19.6436 12.1131 20.0046 11.2206 20.0046C10.3281 20.0046 9.87976 19.6436 9.4475 19.2941M24.8068 19.868L9.4475 19.2941M24.8068 19.868C24.8068 19.792 24.7424 19.7314 24.6628 19.7314C24.2687 19.7314 23.9748 19.6529 23.7281 19.5331C23.4814 19.4132 23.2818 19.252 23.076 19.0859L23.0754 19.0854C22.8594 18.9108 22.6395 18.733 22.3619 18.5991C22.0842 18.4651 21.749 18.3749 21.3023 18.3749C20.4098 18.3749 19.9614 18.7359 19.5291 19.0854L19.5285 19.0859C19.3228 19.252 19.1231 19.4132 18.8765 19.5331C18.6297 19.6529 18.3358 19.7314 17.9417 19.7314C17.5476 19.7314 17.2537 19.6529 17.007 19.5331C16.7603 19.4132 16.5607 19.252 16.3549 19.0859L16.3543 19.0854C15.922 18.7359 15.4736 18.3749 14.5812 18.3749C13.6887 18.3749 13.2403 18.7359 12.808 19.0854L12.8074 19.0859C12.6017 19.252 12.402 19.4132 12.1554 19.5331C11.9086 19.6529 11.6147 19.7314 11.2206 19.7314C10.8265 19.7314 10.5326 19.6529 10.2859 19.5331M24.8068 19.868L10.2859 19.5331M9.4475 19.2941L9.44688 19.2936M9.4475 19.2941L9.44688 19.2936M8.79482 18.8464C8.54807 18.7266 8.25414 18.6481 7.86007 18.6481C7.46599 18.6481 7.17206 18.7266 6.92531 18.8464C6.67869 18.9663 6.47902 19.1275 6.27325 19.2936L6.27263 19.2941M8.79482 18.8464L6.27263 19.2941M8.79482 18.8464C9.04145 18.9663 9.24111 19.1275 9.44688 19.2936M8.79482 18.8464L9.44688 19.2936M6.27263 19.2941C5.84037 19.6436 5.39199 20.0046 4.49952 20.0046C3.60705 20.0046 3.15867 19.6436 2.7264 19.2941M6.27263 19.2941L2.7264 19.2941M2.7264 19.2941L2.72579 19.2936M2.7264 19.2941L2.72579 19.2936M2.07373 18.8464C1.82697 18.7266 1.53305 18.6481 1.13897 18.6481C1.0594 18.6481 0.995 18.5875 0.995 18.5115C0.995 18.4355 1.0594 18.3749 1.13897 18.3749C2.03144 18.3749 2.47982 18.7359 2.91208 19.0854L2.91209 19.0854M2.07373 18.8464L2.91209 19.0854M2.07373 18.8464C2.32035 18.9663 2.52002 19.1275 2.72579 19.2936M2.07373 18.8464L2.72579 19.2936M2.91209 19.0854L2.9127 19.0859C3.11847 19.252 3.31814 19.4132 3.56476 19.5331C3.81151 19.6529 4.10544 19.7314 4.49952 19.7314C4.89359 19.7314 5.18752 19.6529 5.43428 19.5331C5.6809 19.4132 5.88057 19.252 6.08634 19.0859L6.08695 19.0854M2.91209 19.0854L6.08695 19.0854M6.08695 19.0854C6.51922 18.7359 6.9676 18.3749 7.86007 18.3749C8.75254 18.3749 9.20092 18.7359 9.63318 19.0854M6.08695 19.0854L9.63318 19.0854M9.63318 19.0854L9.63379 19.0859M9.63318 19.0854L9.63379 19.0859M10.2859 19.5331C10.0392 19.4132 9.83956 19.252 9.63379 19.0859M10.2859 19.5331L9.63379 19.0859" fill="#606060" stroke="black" stroke-width="0.01"/>
</svg>
