<svg width="40" height="34" viewBox="0 0 40 34" fill="none" xmlns="http://www.w3.org/2000/svg">
<g clip-path="url(#clip0_25:2425)">
<path d="M39.3593 21.3427C39.3457 21.3427 39.3344 21.3452 39.3208 21.3452L0.524686 21.1829C0.257657 21.1829 0.0426766 20.9432 0.0449396 20.6485C0.0449396 20.3539 0.262183 20.1167 0.529212 20.1192L39.3231 20.279C39.5901 20.279 39.8051 20.5187 39.8028 20.8133C39.8028 21.093 39.6059 21.3202 39.3593 21.3427Z" fill="white"/>
<path d="M32.573 30.5216C32.4372 30.534 32.3014 30.539 32.1679 30.539L6.75945 30.4342C5.15728 30.4267 3.43291 29.1407 2.02988 26.9058C0.776199 24.9082 -0.00225804 22.5185 4.9204e-06 20.6657C4.9204e-06 20.371 0.217249 20.1338 0.482014 20.1338C0.749043 20.1338 0.964024 20.3735 0.964024 20.6657C0.961761 23.8519 3.8244 29.3554 6.76172 29.3679L32.1702 29.4728C33.6094 29.4778 35.2252 28.6013 36.497 27.1256C37.9158 25.4775 38.7305 23.32 38.7893 21.0502C38.7961 20.7556 39.0179 20.5258 39.2849 20.5333C39.5519 20.5408 39.7601 20.788 39.7533 21.0802C39.6153 26.299 35.9335 30.2369 32.573 30.5216Z" fill="white"/>
<path d="M25.1518 19.6441L24.1878 19.6391L24.1901 19.1073C24.1901 18.9799 24.1787 6.55204 19.8361 3.76282C15.1111 6.5021 15.0093 18.9425 15.0093 19.0698L15.007 19.6017L14.043 19.5967L14.0452 19.0648C14.0475 18.5105 14.1539 5.44834 19.646 2.6791L19.8565 2.57422L20.0624 2.68908C25.1405 5.50577 25.1563 18.5579 25.1541 19.1123L25.1518 19.6441Z" fill="white"/>
<path d="M0.788543 22.3669L0.785156 23.4307L39.1513 23.5979L39.1547 22.5341L0.788543 22.3669Z" fill="white"/>
<path d="M36.6838 27.5751C36.5186 27.5901 36.3511 27.5077 36.2493 27.3479L34.3688 24.3439L32.5765 27.1756C32.486 27.3179 32.3389 27.4028 32.1827 27.4028C32.0266 27.4028 31.8795 27.3204 31.7867 27.1781L29.9469 24.3214L28.1818 27.1531C28.0891 27.3029 27.9307 27.3903 27.7677 27.3828C27.6025 27.3753 27.4532 27.278 27.3694 27.1206L25.9234 24.3963L24.2624 27.278C24.1741 27.4328 24.0203 27.5252 23.8528 27.5252C23.6876 27.5252 23.5337 27.4303 23.4455 27.2755L21.7935 24.3614L20.0918 27.3629C19.999 27.5252 19.8361 27.6201 19.6618 27.6126C19.4876 27.6051 19.3337 27.4952 19.2522 27.3254L17.8718 24.3689L16.032 27.2655C15.9393 27.4103 15.7876 27.4952 15.6292 27.4927C15.4686 27.4902 15.3215 27.3978 15.2332 27.2505L13.5088 24.3089L11.8999 27.0732C11.8116 27.223 11.6623 27.3154 11.4993 27.3179C11.3364 27.3204 11.1848 27.233 11.0943 27.0832L9.36763 24.2665L7.60932 27.218C7.51654 27.3728 7.35813 27.4627 7.18841 27.4577C7.02095 27.4503 6.86707 27.3479 6.7856 27.1856L5.31694 24.2915L3.2486 27.5551C3.09698 27.7948 2.79601 27.8548 2.57651 27.685C2.35926 27.5177 2.30495 27.1856 2.45883 26.9433L4.96845 22.9855C5.06349 22.8357 5.2219 22.7508 5.38709 22.7583C5.55229 22.7683 5.70165 22.8706 5.78311 23.0305L7.24046 25.8996L8.9603 23.013C9.04856 22.8631 9.20017 22.7733 9.36084 22.7733C9.52151 22.7733 9.67313 22.8606 9.76365 23.008L11.4858 25.8172L13.1038 23.0354C13.192 22.8831 13.3436 22.7907 13.5088 22.7907C13.6718 22.7907 13.8257 22.8831 13.9139 23.0329L15.6564 26.0045L17.5437 23.0329C17.641 22.8806 17.8017 22.7957 17.9714 22.8082C18.1388 22.8207 18.2905 22.9306 18.3674 23.0954L19.7252 26.002L21.3862 23.0729C21.4744 22.9181 21.6283 22.8232 21.7958 22.8232C21.961 22.8232 22.1171 22.9181 22.2054 23.0729L23.8596 25.992L25.5342 23.0854C25.6247 22.9281 25.7831 22.8357 25.9506 22.8382C26.118 22.8407 26.2719 22.9406 26.3579 23.1004L27.8198 25.8546L29.5441 23.0854C29.6324 22.9431 29.7795 22.8557 29.9379 22.8557C30.0963 22.8532 30.2434 22.9381 30.3339 23.0804L32.176 25.942L33.975 23.1004C34.0655 22.958 34.2126 22.8731 34.371 22.8731C34.5294 22.8731 34.6765 22.9605 34.767 23.1029L37.0413 26.7386C37.1929 26.9808 37.1386 27.3129 36.9191 27.4777C36.849 27.5377 36.7675 27.5676 36.6838 27.5751Z" fill="white"/>
<path d="M24.4813 15.8415C24.4677 15.8415 24.4542 15.844 24.4428 15.844L14.7981 15.804C14.5311 15.804 14.3161 15.5643 14.3184 15.2696C14.3184 14.975 14.5356 14.7378 14.8027 14.7403L24.4474 14.7802C24.7144 14.7802 24.9294 15.0199 24.9271 15.3146C24.9248 15.5917 24.7302 15.819 24.4813 15.8415Z" fill="white"/>
<path d="M24.4735 18.0866C24.4599 18.0866 24.4463 18.0891 24.435 18.0891L14.7903 18.0491C14.5233 18.0491 14.3083 17.8094 14.3106 17.5147C14.3106 17.2201 14.5278 16.9829 14.7948 16.9854L24.4396 17.0253C24.7066 17.0253 24.9216 17.265 24.9193 17.5597C24.917 17.8394 24.7202 18.0666 24.4735 18.0866Z" fill="white"/>
<path d="M8.67245 13.5461C8.62719 13.5511 8.57967 13.5511 8.53441 13.5511C7.5885 13.5461 6.82362 12.6946 6.82814 11.6533C6.83267 10.6245 7.59981 9.76554 8.54799 9.77053C9.00511 9.77303 9.43507 9.97029 9.75867 10.3299C10.0823 10.6894 10.2588 11.1639 10.2565 11.6683C10.2497 12.6446 9.55501 13.4712 8.67245 13.5461ZM8.4801 10.8368C8.0954 10.8692 7.79216 11.2313 7.7899 11.6583C7.78764 12.1128 8.12256 12.4873 8.53668 12.4873C8.94853 12.4898 9.28798 12.1153 9.28798 11.6633C9.28798 11.4436 9.21104 11.2338 9.07073 11.0765C8.93043 10.9192 8.7426 10.8318 8.5412 10.8318C8.52084 10.8343 8.50047 10.8343 8.4801 10.8368Z" fill="white"/>
<path d="M9.64251 15.9937C9.64025 16.4532 9.30081 16.8253 8.88442 16.8253C8.46804 16.8228 8.13086 16.4482 8.13086 15.9887C8.13312 15.5293 8.47256 15.1572 8.88895 15.1572C9.30759 15.1597 9.64478 15.5343 9.64251 15.9937Z" fill="white"/>
<path d="M31.0968 15.8939C30.9678 15.9039 30.8321 15.8589 30.7302 15.7515L28.6461 13.5991C28.5533 13.5017 28.4967 13.3693 28.4944 13.227C28.4899 13.0872 28.5374 12.9498 28.6234 12.845L30.5741 10.5452C30.7551 10.3304 31.0606 10.3179 31.2552 10.5202L33.3394 12.6702C33.4322 12.7675 33.4888 12.8999 33.491 13.0422C33.4956 13.1821 33.448 13.3194 33.3621 13.4243L31.4114 15.7241C31.3254 15.8289 31.2122 15.8839 31.0968 15.8939ZM29.6576 13.187L31.038 14.6104L32.3279 13.0872L30.9475 11.6638L29.6576 13.187Z" fill="white"/>
<path d="M31.028 11.3267C31.0144 11.3267 31.0008 11.3292 30.9895 11.3292C30.7225 11.3292 30.5075 11.0895 30.5098 10.7949L30.5143 9.50889C30.5143 9.21424 30.7316 8.97701 30.9986 8.97951C31.2656 8.97951 31.4806 9.21923 31.4783 9.51388L31.4738 10.7999C31.4715 11.077 31.2769 11.3068 31.028 11.3267Z" fill="white"/>
<path d="M31.0104 16.7974C30.9968 16.7974 30.9833 16.7999 30.972 16.7999C30.7049 16.7999 30.4899 16.5602 30.4922 16.2655L30.4967 15.2667C30.4967 14.972 30.714 14.7348 30.981 14.7373C31.248 14.7373 31.463 14.977 31.4608 15.2717L31.4562 16.2705C31.454 16.5477 31.2593 16.7774 31.0104 16.7974Z" fill="white"/>
<path d="M29.0723 13.7362C29.0587 13.7362 29.0474 13.7387 29.0338 13.7387L27.9544 13.7337C27.6873 13.7337 27.4724 13.494 27.4746 13.1993C27.4746 12.9047 27.6919 12.6674 27.9589 12.6699L29.0361 12.6749C29.3031 12.6749 29.5181 12.9147 29.5158 13.2093C29.5158 13.4865 29.3189 13.7162 29.0723 13.7362Z" fill="white"/>
<path d="M34.2341 13.7586C34.2205 13.7586 34.2092 13.7611 34.1956 13.7611L33.1184 13.7562C32.8514 13.7562 32.6364 13.5164 32.6387 13.2218C32.6387 12.9271 32.8559 12.6899 33.123 12.6924L34.2001 12.6974C34.4672 12.6974 34.6821 12.9371 34.6799 13.2318C34.6776 13.5089 34.483 13.7362 34.2341 13.7586Z" fill="white"/>
<path d="M17.4449 1.18559C17.2299 1.20307 17.0239 1.06073 16.9515 0.826009C16.9176 0.713641 16.9176 0.598776 16.9493 0.4939C16.9764 0.226714 17.1529 0.0619078 17.472 0.00697245C17.7345 -0.0404717 17.9812 0.159293 18.0242 0.451449C18.0468 0.606267 18.0061 0.756091 17.9223 0.870956C17.8658 0.980827 17.7571 1.0907 17.5648 1.16061C17.5241 1.1731 17.4833 1.18059 17.4449 1.18559Z" fill="white"/>
<path d="M12.6474 9.76843C12.618 9.77092 12.5908 9.77092 12.5614 9.76593C12.2967 9.73596 12.1043 9.47377 12.1315 9.18162C12.5003 5.21378 14.0708 2.92897 15.3245 1.7129C15.5236 1.51813 15.8291 1.5406 16.0056 1.76035C16.1822 1.98009 16.1618 2.31719 15.9626 2.51196C14.8402 3.60318 13.4304 5.66575 13.091 9.29149C13.0638 9.55368 12.8737 9.75095 12.6474 9.76843Z" fill="white"/>
<path d="M31.163 33.8706C30.9209 33.8906 30.6742 33.9105 30.423 33.9305C30.1515 33.953 29.8731 33.973 29.588 33.9979C29.3232 34.0204 29.0902 33.8007 29.0698 33.5085C29.0494 33.2164 29.2486 32.9592 29.5133 32.9367C29.8007 32.9117 30.0813 32.8892 30.3529 32.8693C32.1497 32.7269 33.5708 32.6146 34.9082 32.0402C36.4583 31.3735 37.6283 30.6244 38.2891 29.1362C38.4067 28.8715 38.6964 28.7641 38.934 28.8939C39.1739 29.0238 39.2712 29.3434 39.1535 29.6056C38.3072 31.5084 36.7819 32.3773 35.2567 33.0341C33.9917 33.5759 32.6611 33.7432 31.163 33.8706Z" fill="white"/>
<path d="M39.5247 28.0143C39.3528 28.0293 39.1853 27.9419 39.088 27.782C39.0224 27.7121 38.9771 27.6247 38.9567 27.5373C38.8888 27.2676 39.0269 26.983 39.2668 26.8906C39.3437 26.8606 39.432 26.8531 39.518 26.8706C39.742 26.8706 39.9457 27.0429 39.9909 27.2951C40.0135 27.4175 39.9954 27.5398 39.9479 27.6447C39.9072 27.7895 39.8099 27.9144 39.6718 27.9768C39.6243 27.9968 39.5745 28.0118 39.5247 28.0143Z" fill="white"/>
</g>
<defs>
<clipPath id="clip0_25:2425">
<rect width="40" height="34" fill="white"/>
</clipPath>
</defs>
</svg>
