<svg width="24" height="21" viewBox="0 0 24 21" fill="none" xmlns="http://www.w3.org/2000/svg">
<path d="M23.6156 12.8044C23.6074 12.8044 23.6007 12.8059 23.5925 12.8059L0.315198 12.7086C0.154983 12.7086 0.0259966 12.5647 0.0273544 12.3879C0.0273544 12.2112 0.157699 12.0688 0.317913 12.0703L23.5939 12.1662C23.7541 12.1662 23.8831 12.31 23.8817 12.4868C23.8817 12.6546 23.7636 12.791 23.6156 12.8044Z" fill="#606060"/>
<path d="M19.5435 18.3126C19.462 18.3201 19.3806 18.3231 19.3005 18.3231L4.05561 18.2602C3.09432 18.2557 2.05971 17.4841 1.21791 16.1432C0.465712 14.9447 -0.0013548 13.5109 2.95219e-06 12.3992C2.95219e-06 12.2224 0.130347 12.0801 0.289204 12.0801C0.449419 12.0801 0.578406 12.2239 0.578406 12.3992C0.577048 14.3109 2.29461 17.613 4.05697 17.6205L19.3018 17.6834C20.1653 17.6864 21.1348 17.1605 21.8978 16.2751C22.7492 15.2863 23.2379 13.9918 23.2732 12.6299C23.2773 12.4531 23.4104 12.3153 23.5706 12.3198C23.7308 12.3243 23.8557 12.4726 23.8516 12.6479C23.7688 15.7792 21.5598 18.1419 19.5435 18.3126Z" fill="#606060"/>
<path d="M15.091 11.7857L14.5126 11.7827L14.5139 11.4636C14.5139 11.3872 14.5072 3.9306 11.9016 2.2571C9.06664 3.90064 9.00554 11.3647 9.00554 11.4412L9.00418 11.7603L8.42578 11.7573L8.42714 11.4382C8.4285 11.1055 8.49231 3.26839 11.7876 1.60687L11.9138 1.54395L12.0374 1.61286C15.0842 3.30285 15.0937 11.134 15.0923 11.4666L15.091 11.7857Z" fill="#606060"/>
<path d="M0.472735 13.4204L0.470703 14.0586L23.49 14.1589L23.4921 13.5207L0.472735 13.4204Z" fill="#606060"/>
<path d="M22.0111 16.5446C21.912 16.5536 21.8115 16.5042 21.7504 16.4083L20.6221 14.6059L19.5468 16.3049C19.4925 16.3903 19.4042 16.4413 19.3106 16.4413C19.2169 16.4413 19.1286 16.3918 19.0729 16.3064L17.9691 14.5925L16.91 16.2914C16.8544 16.3813 16.7593 16.4338 16.6616 16.4293C16.5625 16.4248 16.4728 16.3663 16.4226 16.272L15.555 14.6374L14.5584 16.3663C14.5055 16.4592 14.4131 16.5147 14.3127 16.5147C14.2135 16.5147 14.1212 16.4577 14.0683 16.3648L13.0771 14.6164L12.0561 16.4173C12.0004 16.5147 11.9027 16.5716 11.7981 16.5671C11.6936 16.5626 11.6012 16.4967 11.5524 16.3948L10.7241 14.6209L9.62027 16.3589C9.5646 16.4457 9.47363 16.4967 9.37859 16.4952C9.28219 16.4937 9.19394 16.4383 9.14098 16.3499L8.10638 14.585L7.14101 16.2435C7.08806 16.3334 6.99845 16.3888 6.90069 16.3903C6.80293 16.3918 6.71196 16.3394 6.65765 16.2495L5.62169 14.5595L4.56672 16.3304C4.51105 16.4233 4.416 16.4772 4.31417 16.4742C4.2137 16.4697 4.12137 16.4083 4.07249 16.3109L3.19131 14.5745L1.95033 16.5326C1.85936 16.6765 1.67878 16.7124 1.54707 16.6106C1.41673 16.5102 1.38414 16.3109 1.47647 16.1656L2.98222 13.7909C3.03924 13.701 3.13429 13.6501 3.2334 13.6546C3.33252 13.6606 3.42213 13.722 3.47101 13.8179L4.3454 15.5393L5.37729 13.8074C5.43025 13.7175 5.52121 13.6636 5.61762 13.6636C5.71402 13.6636 5.80499 13.716 5.8593 13.8044L6.89254 15.4899L7.86334 13.8209C7.91629 13.7295 8.00726 13.674 8.10638 13.674C8.20413 13.674 8.29646 13.7295 8.34941 13.8194L9.39488 15.6023L10.5272 13.8194C10.5856 13.728 10.682 13.677 10.7839 13.6845C10.8843 13.692 10.9753 13.7579 11.0215 13.8568L11.8361 15.6008L12.8327 13.8433C12.8857 13.7505 12.978 13.6935 13.0785 13.6935C13.1776 13.6935 13.2713 13.7505 13.3242 13.8433L14.3167 15.5948L15.3215 13.8508C15.3758 13.7564 15.4708 13.701 15.5713 13.7025C15.6718 13.704 15.7641 13.7639 15.8157 13.8598L16.6928 15.5124L17.7274 13.8508C17.7804 13.7654 17.8686 13.713 17.9637 13.713C18.0587 13.7115 18.147 13.7624 18.2013 13.8478L19.3065 15.5648L20.3859 13.8598C20.4402 13.7744 20.5285 13.7235 20.6235 13.7235C20.7185 13.7235 20.8068 13.7759 20.8611 13.8613L22.2256 16.0427C22.3166 16.1881 22.284 16.3873 22.1523 16.4862C22.1102 16.5222 22.0614 16.5401 22.0111 16.5446Z" fill="#606060"/>
<path d="M14.6875 9.50447C14.6794 9.50447 14.6712 9.50597 14.6644 9.50597L8.8777 9.482C8.71748 9.482 8.5885 9.33817 8.58985 9.16138C8.58985 8.98459 8.7202 8.84226 8.88041 8.84376L14.6672 8.86773C14.8274 8.86773 14.9564 9.01156 14.955 9.18835C14.9536 9.35465 14.8369 9.49099 14.6875 9.50447Z" fill="#606060"/>
<path d="M14.6836 10.8512C14.6755 10.8512 14.6673 10.8527 14.6605 10.8527L8.87379 10.8287C8.71358 10.8287 8.58459 10.6849 8.58595 10.5081C8.58595 10.3313 8.71629 10.1889 8.87651 10.1904L14.6633 10.2144C14.8235 10.2144 14.9525 10.3582 14.9511 10.535C14.9497 10.7028 14.8316 10.8392 14.6836 10.8512Z" fill="#606060"/>
<path d="M5.20228 8.12762C5.17513 8.13061 5.14662 8.13061 5.11946 8.13061C4.55192 8.12762 4.093 7.61673 4.09572 6.99197C4.09843 6.37471 4.55871 5.85932 5.12761 5.86232C5.40187 5.86382 5.65985 5.98217 5.854 6.19792C6.04816 6.41366 6.15407 6.69832 6.15271 7.00096C6.14864 7.58676 5.73181 8.08267 5.20228 8.12762ZM5.08687 6.50206C4.85606 6.52153 4.67412 6.73877 4.67276 6.99497C4.6714 7.26764 4.87235 7.49237 5.12082 7.49237C5.36793 7.49387 5.57159 7.26914 5.57159 6.99796C5.57159 6.86612 5.52543 6.74027 5.44125 6.64588C5.35707 6.5515 5.24437 6.49906 5.12353 6.49906C5.11131 6.50056 5.09909 6.50056 5.08687 6.50206Z" fill="#606060"/>
<path d="M5.78588 9.59565C5.78453 9.87133 5.58086 10.0946 5.33104 10.0946C5.08121 10.0931 4.87891 9.86833 4.87891 9.59266C4.88026 9.31698 5.08393 9.09375 5.33375 9.09375C5.58494 9.09525 5.78724 9.31998 5.78588 9.59565Z" fill="#606060"/>
<path d="M18.6573 9.53627C18.5799 9.54226 18.4984 9.51529 18.4373 9.45087L17.1869 8.15941C17.1312 8.10098 17.0972 8.02157 17.0959 7.93618C17.0932 7.85228 17.1217 7.76987 17.1733 7.70695L18.3437 6.32709C18.4523 6.19825 18.6356 6.19075 18.7523 6.31211L20.0028 7.60207C20.0585 7.6605 20.0924 7.73991 20.0938 7.82531C20.0965 7.90921 20.068 7.99161 20.0164 8.05453L18.846 9.43439C18.7944 9.49732 18.7265 9.53028 18.6573 9.53627ZM17.7938 7.9122L18.622 8.76619L19.3959 7.85228L18.5677 6.99829L17.7938 7.9122Z" fill="#606060"/>
<path d="M18.6156 6.79603C18.6075 6.79603 18.5993 6.79753 18.5925 6.79753C18.4323 6.79753 18.3033 6.6537 18.3047 6.47691L18.3074 5.70533C18.3074 5.52854 18.4378 5.38621 18.598 5.38771C18.7582 5.38771 18.8872 5.53154 18.8858 5.70832L18.8831 6.4799C18.8817 6.64621 18.765 6.78404 18.6156 6.79603Z" fill="#606060"/>
<path d="M18.6059 10.0788C18.5977 10.0788 18.5896 10.0803 18.5828 10.0803C18.4226 10.0803 18.2936 9.93648 18.2949 9.75969L18.2976 9.16041C18.2976 8.98362 18.428 8.84129 18.5882 8.84279C18.7484 8.84279 18.8774 8.98661 18.8761 9.1634L18.8733 9.76269C18.872 9.92899 18.7552 10.0668 18.6059 10.0788Z" fill="#606060"/>
<path d="M17.443 8.24229C17.4348 8.24229 17.428 8.24379 17.4199 8.24379L16.7722 8.24079C16.612 8.24079 16.483 8.09696 16.4844 7.92017C16.4844 7.74338 16.6147 7.60105 16.7749 7.60255L17.4212 7.60555C17.5815 7.60555 17.7104 7.74938 17.7091 7.92617C17.7091 8.09247 17.591 8.2303 17.443 8.24229Z" fill="#606060"/>
<path d="M20.5393 8.25498C20.5311 8.25498 20.5243 8.25648 20.5162 8.25648L19.8699 8.25349C19.7097 8.25349 19.5807 8.10966 19.582 7.93287C19.582 7.75608 19.7124 7.61375 19.8726 7.61525L20.5189 7.61824C20.6791 7.61824 20.8081 7.76207 20.8067 7.93886C20.8054 8.10516 20.6886 8.2415 20.5393 8.25498Z" fill="#606060"/>
<path d="M10.4677 0.711341C10.3387 0.721828 10.2151 0.63643 10.1717 0.495598C10.1513 0.428178 10.1513 0.35926 10.1703 0.296335C10.1866 0.136026 10.2925 0.0371441 10.484 0.00418341C10.6415 -0.0242827 10.7895 0.0955745 10.8153 0.270866C10.8289 0.363755 10.8044 0.453648 10.7542 0.522566C10.7202 0.588487 10.6551 0.654409 10.5397 0.696359C10.5152 0.70385 10.4908 0.708344 10.4677 0.711341Z" fill="#606060"/>
<path d="M7.58844 5.86118C7.57079 5.86268 7.5545 5.86268 7.53685 5.85968C7.37799 5.8417 7.26258 5.68439 7.27888 5.5091C7.50019 3.12843 8.44247 1.75757 9.19467 1.02794C9.31415 0.911075 9.49745 0.924559 9.60335 1.0564C9.70926 1.18824 9.69704 1.3905 9.57755 1.50736C8.90411 2.16208 8.05823 3.39961 7.85456 5.57502C7.83827 5.73233 7.72422 5.85069 7.58844 5.86118Z" fill="#606060"/>
<path d="M18.6982 20.3217C18.5529 20.3337 18.4049 20.3457 18.2542 20.3577C18.0913 20.3712 17.9243 20.3831 17.7532 20.3981C17.5943 20.4116 17.4545 20.2798 17.4423 20.1045C17.43 19.9292 17.5495 19.7749 17.7084 19.7614C17.8808 19.7464 18.0492 19.7329 18.2121 19.7209C19.2902 19.6355 20.1428 19.5681 20.9453 19.2235C21.8753 18.8235 22.5773 18.374 22.9737 17.4811C23.0444 17.3223 23.2181 17.2579 23.3607 17.3358C23.5046 17.4137 23.563 17.6055 23.4924 17.7628C22.9846 18.9044 22.0695 19.4258 21.1544 19.8198C20.3954 20.1449 19.597 20.2453 18.6982 20.3217Z" fill="#606060"/>
<path d="M23.7144 16.808C23.6113 16.817 23.5108 16.7645 23.4524 16.6686C23.413 16.6267 23.3859 16.5742 23.3737 16.5218C23.3329 16.36 23.4157 16.1892 23.5597 16.1338C23.6058 16.1158 23.6588 16.1113 23.7104 16.1218C23.8448 16.1218 23.967 16.2252 23.9941 16.3765C24.0077 16.4499 23.9969 16.5233 23.9683 16.5862C23.9439 16.6731 23.8855 16.748 23.8027 16.7855C23.7742 16.7975 23.7443 16.8065 23.7144 16.808Z" fill="#606060"/>
</svg>
