<svg width="21" height="22" viewBox="0 0 21 22" fill="none" xmlns="http://www.w3.org/2000/svg">
<mask id="path-1-outside-1_182:8565" maskUnits="userSpaceOnUse" x="0" y="0" width="21" height="22" fill="black">
<rect fill="white" width="21" height="22"/>
<path d="M19.9916 17.1004V16.3978V12.368V12.0558V12.0297H18.9914C18.9914 12.0297 18.9439 12.0186 18.9202 12.0186C18.8293 12.0186 18.6592 12.0297 18.6592 12.0297H17.9278V11.7807C17.9278 11.7472 17.9318 11.3271 17.6471 11.052C17.4969 10.9033 17.2952 10.829 17.0501 10.8253C16.805 10.8253 16.6073 10.8959 16.4571 11.0372C16.4096 11.0818 16.374 11.1301 16.3384 11.1822V10.7621H16.2238C16.204 10.5539 16.1329 10.1933 15.8877 9.95167C15.7296 9.79554 15.524 9.71747 15.2789 9.71376C15.18 9.71376 15.0891 9.72862 14.9982 9.75465V7.16729H15.1365V6.61338L15.1523 6.47955C15.1603 6.43123 15.2986 5.30483 15.0219 4.39033C14.3142 2.04089 11.4398 1.59108 10.6887 1.51301L10.657 1H10.3249L10.2933 1.51673C9.48278 1.60595 6.70731 2.08178 6.01146 4.38662C5.74261 5.27509 5.86517 6.35688 5.88099 6.46468L5.87704 7.16357H6.00751V9.74349C5.8968 9.69888 5.77819 9.67658 5.64772 9.6803C5.39864 9.68402 5.1891 9.7658 5.027 9.92565C4.77001 10.1747 4.69884 10.5502 4.67907 10.7584H4.59605V11.2305C4.55651 11.1561 4.50907 11.0855 4.44185 11.0223C4.29557 10.8848 4.10184 10.8178 3.88043 10.8178C3.65112 10.8216 3.46134 10.8922 3.31901 11.0335C3.03435 11.3123 3.04225 11.7546 3.04225 11.777V12.0223H2.27129H1.00612C0.970532 12.1227 1.101 20.6617 1.12077 21H19.9956C20.0074 20.7918 19.9916 20.3717 19.9916 20.3717V17.1004ZM16.6943 11.2565C16.7813 11.1747 16.8999 11.1338 17.0462 11.1375C17.2003 11.1375 17.319 11.1822 17.4059 11.2677C17.5127 11.3717 17.5562 11.513 17.5759 11.6245H16.5164C16.5401 11.5093 16.5836 11.3569 16.6943 11.2565ZM15.4726 11.9219V12.8141H15.0772V11.9219H14.7451V12.8141H14.5791V11.0744H16.0063V12.8141H15.8047V11.9219H15.4726ZM13.563 12.0929V12.8141H13.4641V12.0929H12.796V12.8141H12.6971V12.0929H12.0289V12.8141H11.9301V12.0929H11.2619V12.8141H11.1631V12.0929H10.4949V12.8141H10.3961V12.0929H9.72791V12.8141H9.62907V12.0929H8.9609V12.8141H8.86205V12.0929H8.19389V12.8141H8.09504V12.0929H7.42687V12.8141H7.32803V12.0929H6.69544V11.6059H14.247V12.8141H14.2311V12.0929H13.563ZM6.33961 7.16729H9.72791C8.82647 7.34201 7.33594 7.83643 6.6994 9.2342C6.56497 9.52416 6.4859 9.84758 6.4345 10.1338C6.40683 10.0855 6.3752 10.0372 6.33566 9.99257V7.16729H6.33961ZM6.20914 6.85502V6.6171H10.3486L10.3328 6.85502H6.20914ZM6.69149 11.29V11.0744H14.247V11.29H6.69149ZM6.69544 10.7621C6.71126 10.4758 6.77847 9.85502 7.00383 9.35688C7.84596 7.51301 10.4435 7.38662 10.4593 7.38662H10.5028C10.6017 7.39034 13.136 7.53903 13.9623 9.35688C14.1876 9.8513 14.2509 10.4721 14.2707 10.7621H6.69544ZM10.6887 6.61338H14.8044V6.8513H10.7045L10.6887 6.61338ZM14.2707 9.2342C13.6341 7.83643 12.1436 7.34201 11.2422 7.16729H14.666V9.94052C14.6107 9.99257 14.5672 10.052 14.5316 10.1115C14.4842 9.83271 14.4011 9.51673 14.2707 9.2342ZM15.2749 10.026C15.5358 10.0297 15.7138 10.1673 15.8166 10.4424C15.8601 10.5576 15.8798 10.6729 15.8917 10.7621H14.666C14.6858 10.5911 14.7412 10.316 14.9151 10.1561C15.0061 10.0669 15.1286 10.026 15.2749 10.026ZM6.33171 4.47212C7.05127 2.08922 10.2379 1.829 10.5147 1.81041C10.7914 1.829 13.99 2.0855 14.7095 4.47212C14.9112 5.1487 14.8716 5.9777 14.844 6.30112H6.19728C6.16961 5.9777 6.13007 5.1487 6.33171 4.47212ZM5.09026 10.4275C5.197 10.1413 5.38283 10 5.65168 9.99628C5.80587 9.99257 5.93239 10.0372 6.03123 10.1301C6.20914 10.2974 6.26845 10.5836 6.28822 10.7621H5.01514C5.02304 10.6691 5.04281 10.5465 5.09026 10.4275ZM4.92815 11.0744H6.35543V12.8141H6.17356V11.9219H5.84145V12.8141H5.44608V11.9219H5.11398V12.8141H4.92815V11.0744ZM3.56019 11.2565C3.64321 11.1784 3.74996 11.1375 3.88439 11.1375C4.02672 11.1375 4.12161 11.171 4.20463 11.2454C4.31534 11.3494 4.35883 11.5056 4.37859 11.6208H3.39018C3.40599 11.5093 3.45344 11.3606 3.56019 11.2565ZM3.37436 11.9368H4.45371V12.8141H4.28371V12.0297H3.37436V11.9368ZM3.61949 20.3717H1.60707V12.6543H3.61554V20.3717H3.61949ZM7.39524 20.3717H5.05072V18.4758L5.3512 18.2565L5.30771 18.1487C5.30375 18.1413 5.07049 17.5576 5.11002 17.0558C5.15747 16.4238 6.02332 16.1673 6.2131 16.119C6.40683 16.1673 7.30826 16.4238 7.35966 17.0558C7.3992 17.5539 7.15802 18.1413 7.15802 18.1487L7.11453 18.2565L7.40315 18.4758V20.3717H7.39524ZM12.282 20.3717H8.71972V18.0706L9.15463 17.8104L9.09137 17.684C9.08741 17.6766 8.74344 16.9851 8.80275 16.3941C8.87787 15.6059 10.2617 15.3011 10.4831 15.2565C10.7084 15.3011 12.1476 15.6059 12.2227 16.3941C12.278 16.9814 11.9301 17.6766 11.9261 17.684L11.8629 17.8067L12.282 18.0669V20.3717ZM15.947 20.3717H13.6025V18.4758L13.899 18.2565L13.8555 18.1487C13.8516 18.1413 13.6183 17.5539 13.6579 17.0558C13.7053 16.4238 14.5712 16.1673 14.7609 16.119C14.9547 16.1673 15.8561 16.4201 15.9075 17.0558C15.947 17.5539 15.7059 18.1413 15.7059 18.1487L15.6624 18.2565L15.951 18.4758V20.3717H15.947ZM16.6508 20.3717H16.2831V18.3234L16.0577 18.1524C16.1329 17.9442 16.2752 17.4684 16.2436 17.0335C16.1724 16.0967 14.8558 15.8178 14.8005 15.8067L14.7609 15.7955L14.7253 15.803C14.67 15.8141 13.4009 16.0929 13.3257 17.0297C13.2902 17.4647 13.4325 17.9368 13.5037 18.1487L13.2664 18.3234V20.3717H12.6101V17.8996L12.278 17.6952C12.3848 17.4498 12.5983 16.8885 12.5469 16.368C12.4441 15.2788 10.5819 14.9554 10.5028 14.9442L10.4752 14.9405L10.4475 14.9442C10.3724 14.9591 8.56948 15.2788 8.46669 16.368C8.41529 16.8848 8.62484 17.4461 8.72763 17.6952L8.38366 17.8996V20.3755H7.72735V18.3271L7.50199 18.1561C7.57711 17.948 7.71944 17.4721 7.68782 17.0372C7.61665 16.1004 6.30008 15.8216 6.24473 15.8104L6.20914 15.803L6.17356 15.8104C6.11821 15.8216 4.84908 16.1004 4.77396 17.0372C4.73838 17.4721 4.88071 17.9442 4.95188 18.1561L4.71861 18.3234V20.3717H4.28371V13.1264H16.6468V20.3717H16.6508ZM16.6508 12.8141H16.4808V11.9368H17.5957V12.0297H16.6508V12.8141ZM19.3274 20.3717H17.319V12.6543H19.3274V20.3717Z"/>
</mask>
<path d="M19.9916 17.1004V16.3978V12.368V12.0558V12.0297H18.9914C18.9914 12.0297 18.9439 12.0186 18.9202 12.0186C18.8293 12.0186 18.6592 12.0297 18.6592 12.0297H17.9278V11.7807C17.9278 11.7472 17.9318 11.3271 17.6471 11.052C17.4969 10.9033 17.2952 10.829 17.0501 10.8253C16.805 10.8253 16.6073 10.8959 16.4571 11.0372C16.4096 11.0818 16.374 11.1301 16.3384 11.1822V10.7621H16.2238C16.204 10.5539 16.1329 10.1933 15.8877 9.95167C15.7296 9.79554 15.524 9.71747 15.2789 9.71376C15.18 9.71376 15.0891 9.72862 14.9982 9.75465V7.16729H15.1365V6.61338L15.1523 6.47955C15.1603 6.43123 15.2986 5.30483 15.0219 4.39033C14.3142 2.04089 11.4398 1.59108 10.6887 1.51301L10.657 1H10.3249L10.2933 1.51673C9.48278 1.60595 6.70731 2.08178 6.01146 4.38662C5.74261 5.27509 5.86517 6.35688 5.88099 6.46468L5.87704 7.16357H6.00751V9.74349C5.8968 9.69888 5.77819 9.67658 5.64772 9.6803C5.39864 9.68402 5.1891 9.7658 5.027 9.92565C4.77001 10.1747 4.69884 10.5502 4.67907 10.7584H4.59605V11.2305C4.55651 11.1561 4.50907 11.0855 4.44185 11.0223C4.29557 10.8848 4.10184 10.8178 3.88043 10.8178C3.65112 10.8216 3.46134 10.8922 3.31901 11.0335C3.03435 11.3123 3.04225 11.7546 3.04225 11.777V12.0223H2.27129H1.00612C0.970532 12.1227 1.101 20.6617 1.12077 21H19.9956C20.0074 20.7918 19.9916 20.3717 19.9916 20.3717V17.1004ZM16.6943 11.2565C16.7813 11.1747 16.8999 11.1338 17.0462 11.1375C17.2003 11.1375 17.319 11.1822 17.4059 11.2677C17.5127 11.3717 17.5562 11.513 17.5759 11.6245H16.5164C16.5401 11.5093 16.5836 11.3569 16.6943 11.2565ZM15.4726 11.9219V12.8141H15.0772V11.9219H14.7451V12.8141H14.5791V11.0744H16.0063V12.8141H15.8047V11.9219H15.4726ZM13.563 12.0929V12.8141H13.4641V12.0929H12.796V12.8141H12.6971V12.0929H12.0289V12.8141H11.9301V12.0929H11.2619V12.8141H11.1631V12.0929H10.4949V12.8141H10.3961V12.0929H9.72791V12.8141H9.62907V12.0929H8.9609V12.8141H8.86205V12.0929H8.19389V12.8141H8.09504V12.0929H7.42687V12.8141H7.32803V12.0929H6.69544V11.6059H14.247V12.8141H14.2311V12.0929H13.563ZM6.33961 7.16729H9.72791C8.82647 7.34201 7.33594 7.83643 6.6994 9.2342C6.56497 9.52416 6.4859 9.84758 6.4345 10.1338C6.40683 10.0855 6.3752 10.0372 6.33566 9.99257V7.16729H6.33961ZM6.20914 6.85502V6.6171H10.3486L10.3328 6.85502H6.20914ZM6.69149 11.29V11.0744H14.247V11.29H6.69149ZM6.69544 10.7621C6.71126 10.4758 6.77847 9.85502 7.00383 9.35688C7.84596 7.51301 10.4435 7.38662 10.4593 7.38662H10.5028C10.6017 7.39034 13.136 7.53903 13.9623 9.35688C14.1876 9.8513 14.2509 10.4721 14.2707 10.7621H6.69544ZM10.6887 6.61338H14.8044V6.8513H10.7045L10.6887 6.61338ZM14.2707 9.2342C13.6341 7.83643 12.1436 7.34201 11.2422 7.16729H14.666V9.94052C14.6107 9.99257 14.5672 10.052 14.5316 10.1115C14.4842 9.83271 14.4011 9.51673 14.2707 9.2342ZM15.2749 10.026C15.5358 10.0297 15.7138 10.1673 15.8166 10.4424C15.8601 10.5576 15.8798 10.6729 15.8917 10.7621H14.666C14.6858 10.5911 14.7412 10.316 14.9151 10.1561C15.0061 10.0669 15.1286 10.026 15.2749 10.026ZM6.33171 4.47212C7.05127 2.08922 10.2379 1.829 10.5147 1.81041C10.7914 1.829 13.99 2.0855 14.7095 4.47212C14.9112 5.1487 14.8716 5.9777 14.844 6.30112H6.19728C6.16961 5.9777 6.13007 5.1487 6.33171 4.47212ZM5.09026 10.4275C5.197 10.1413 5.38283 10 5.65168 9.99628C5.80587 9.99257 5.93239 10.0372 6.03123 10.1301C6.20914 10.2974 6.26845 10.5836 6.28822 10.7621H5.01514C5.02304 10.6691 5.04281 10.5465 5.09026 10.4275ZM4.92815 11.0744H6.35543V12.8141H6.17356V11.9219H5.84145V12.8141H5.44608V11.9219H5.11398V12.8141H4.92815V11.0744ZM3.56019 11.2565C3.64321 11.1784 3.74996 11.1375 3.88439 11.1375C4.02672 11.1375 4.12161 11.171 4.20463 11.2454C4.31534 11.3494 4.35883 11.5056 4.37859 11.6208H3.39018C3.40599 11.5093 3.45344 11.3606 3.56019 11.2565ZM3.37436 11.9368H4.45371V12.8141H4.28371V12.0297H3.37436V11.9368ZM3.61949 20.3717H1.60707V12.6543H3.61554V20.3717H3.61949ZM7.39524 20.3717H5.05072V18.4758L5.3512 18.2565L5.30771 18.1487C5.30375 18.1413 5.07049 17.5576 5.11002 17.0558C5.15747 16.4238 6.02332 16.1673 6.2131 16.119C6.40683 16.1673 7.30826 16.4238 7.35966 17.0558C7.3992 17.5539 7.15802 18.1413 7.15802 18.1487L7.11453 18.2565L7.40315 18.4758V20.3717H7.39524ZM12.282 20.3717H8.71972V18.0706L9.15463 17.8104L9.09137 17.684C9.08741 17.6766 8.74344 16.9851 8.80275 16.3941C8.87787 15.6059 10.2617 15.3011 10.4831 15.2565C10.7084 15.3011 12.1476 15.6059 12.2227 16.3941C12.278 16.9814 11.9301 17.6766 11.9261 17.684L11.8629 17.8067L12.282 18.0669V20.3717ZM15.947 20.3717H13.6025V18.4758L13.899 18.2565L13.8555 18.1487C13.8516 18.1413 13.6183 17.5539 13.6579 17.0558C13.7053 16.4238 14.5712 16.1673 14.7609 16.119C14.9547 16.1673 15.8561 16.4201 15.9075 17.0558C15.947 17.5539 15.7059 18.1413 15.7059 18.1487L15.6624 18.2565L15.951 18.4758V20.3717H15.947ZM16.6508 20.3717H16.2831V18.3234L16.0577 18.1524C16.1329 17.9442 16.2752 17.4684 16.2436 17.0335C16.1724 16.0967 14.8558 15.8178 14.8005 15.8067L14.7609 15.7955L14.7253 15.803C14.67 15.8141 13.4009 16.0929 13.3257 17.0297C13.2902 17.4647 13.4325 17.9368 13.5037 18.1487L13.2664 18.3234V20.3717H12.6101V17.8996L12.278 17.6952C12.3848 17.4498 12.5983 16.8885 12.5469 16.368C12.4441 15.2788 10.5819 14.9554 10.5028 14.9442L10.4752 14.9405L10.4475 14.9442C10.3724 14.9591 8.56948 15.2788 8.46669 16.368C8.41529 16.8848 8.62484 17.4461 8.72763 17.6952L8.38366 17.8996V20.3755H7.72735V18.3271L7.50199 18.1561C7.57711 17.948 7.71944 17.4721 7.68782 17.0372C7.61665 16.1004 6.30008 15.8216 6.24473 15.8104L6.20914 15.803L6.17356 15.8104C6.11821 15.8216 4.84908 16.1004 4.77396 17.0372C4.73838 17.4721 4.88071 17.9442 4.95188 18.1561L4.71861 18.3234V20.3717H4.28371V13.1264H16.6468V20.3717H16.6508ZM16.6508 12.8141H16.4808V11.9368H17.5957V12.0297H16.6508V12.8141ZM19.3274 20.3717H17.319V12.6543H19.3274V20.3717Z" fill="#606060"/>
<path d="M19.9916 17.1004V16.3978V12.368V12.0558V12.0297H18.9914C18.9914 12.0297 18.9439 12.0186 18.9202 12.0186C18.8293 12.0186 18.6592 12.0297 18.6592 12.0297H17.9278V11.7807C17.9278 11.7472 17.9318 11.3271 17.6471 11.052C17.4969 10.9033 17.2952 10.829 17.0501 10.8253C16.805 10.8253 16.6073 10.8959 16.4571 11.0372C16.4096 11.0818 16.374 11.1301 16.3384 11.1822V10.7621H16.2238C16.204 10.5539 16.1329 10.1933 15.8877 9.95167C15.7296 9.79554 15.524 9.71747 15.2789 9.71376C15.18 9.71376 15.0891 9.72862 14.9982 9.75465V7.16729H15.1365V6.61338L15.1523 6.47955C15.1603 6.43123 15.2986 5.30483 15.0219 4.39033C14.3142 2.04089 11.4398 1.59108 10.6887 1.51301L10.657 1H10.3249L10.2933 1.51673C9.48278 1.60595 6.70731 2.08178 6.01146 4.38662C5.74261 5.27509 5.86517 6.35688 5.88099 6.46468L5.87704 7.16357H6.00751V9.74349C5.8968 9.69888 5.77819 9.67658 5.64772 9.6803C5.39864 9.68402 5.1891 9.7658 5.027 9.92565C4.77001 10.1747 4.69884 10.5502 4.67907 10.7584H4.59605V11.2305C4.55651 11.1561 4.50907 11.0855 4.44185 11.0223C4.29557 10.8848 4.10184 10.8178 3.88043 10.8178C3.65112 10.8216 3.46134 10.8922 3.31901 11.0335C3.03435 11.3123 3.04225 11.7546 3.04225 11.777V12.0223H2.27129H1.00612C0.970532 12.1227 1.101 20.6617 1.12077 21H19.9956C20.0074 20.7918 19.9916 20.3717 19.9916 20.3717V17.1004ZM16.6943 11.2565C16.7813 11.1747 16.8999 11.1338 17.0462 11.1375C17.2003 11.1375 17.319 11.1822 17.4059 11.2677C17.5127 11.3717 17.5562 11.513 17.5759 11.6245H16.5164C16.5401 11.5093 16.5836 11.3569 16.6943 11.2565ZM15.4726 11.9219V12.8141H15.0772V11.9219H14.7451V12.8141H14.5791V11.0744H16.0063V12.8141H15.8047V11.9219H15.4726ZM13.563 12.0929V12.8141H13.4641V12.0929H12.796V12.8141H12.6971V12.0929H12.0289V12.8141H11.9301V12.0929H11.2619V12.8141H11.1631V12.0929H10.4949V12.8141H10.3961V12.0929H9.72791V12.8141H9.62907V12.0929H8.9609V12.8141H8.86205V12.0929H8.19389V12.8141H8.09504V12.0929H7.42687V12.8141H7.32803V12.0929H6.69544V11.6059H14.247V12.8141H14.2311V12.0929H13.563ZM6.33961 7.16729H9.72791C8.82647 7.34201 7.33594 7.83643 6.6994 9.2342C6.56497 9.52416 6.4859 9.84758 6.4345 10.1338C6.40683 10.0855 6.3752 10.0372 6.33566 9.99257V7.16729H6.33961ZM6.20914 6.85502V6.6171H10.3486L10.3328 6.85502H6.20914ZM6.69149 11.29V11.0744H14.247V11.29H6.69149ZM6.69544 10.7621C6.71126 10.4758 6.77847 9.85502 7.00383 9.35688C7.84596 7.51301 10.4435 7.38662 10.4593 7.38662H10.5028C10.6017 7.39034 13.136 7.53903 13.9623 9.35688C14.1876 9.8513 14.2509 10.4721 14.2707 10.7621H6.69544ZM10.6887 6.61338H14.8044V6.8513H10.7045L10.6887 6.61338ZM14.2707 9.2342C13.6341 7.83643 12.1436 7.34201 11.2422 7.16729H14.666V9.94052C14.6107 9.99257 14.5672 10.052 14.5316 10.1115C14.4842 9.83271 14.4011 9.51673 14.2707 9.2342ZM15.2749 10.026C15.5358 10.0297 15.7138 10.1673 15.8166 10.4424C15.8601 10.5576 15.8798 10.6729 15.8917 10.7621H14.666C14.6858 10.5911 14.7412 10.316 14.9151 10.1561C15.0061 10.0669 15.1286 10.026 15.2749 10.026ZM6.33171 4.47212C7.05127 2.08922 10.2379 1.829 10.5147 1.81041C10.7914 1.829 13.99 2.0855 14.7095 4.47212C14.9112 5.1487 14.8716 5.9777 14.844 6.30112H6.19728C6.16961 5.9777 6.13007 5.1487 6.33171 4.47212ZM5.09026 10.4275C5.197 10.1413 5.38283 10 5.65168 9.99628C5.80587 9.99257 5.93239 10.0372 6.03123 10.1301C6.20914 10.2974 6.26845 10.5836 6.28822 10.7621H5.01514C5.02304 10.6691 5.04281 10.5465 5.09026 10.4275ZM4.92815 11.0744H6.35543V12.8141H6.17356V11.9219H5.84145V12.8141H5.44608V11.9219H5.11398V12.8141H4.92815V11.0744ZM3.56019 11.2565C3.64321 11.1784 3.74996 11.1375 3.88439 11.1375C4.02672 11.1375 4.12161 11.171 4.20463 11.2454C4.31534 11.3494 4.35883 11.5056 4.37859 11.6208H3.39018C3.40599 11.5093 3.45344 11.3606 3.56019 11.2565ZM3.37436 11.9368H4.45371V12.8141H4.28371V12.0297H3.37436V11.9368ZM3.61949 20.3717H1.60707V12.6543H3.61554V20.3717H3.61949ZM7.39524 20.3717H5.05072V18.4758L5.3512 18.2565L5.30771 18.1487C5.30375 18.1413 5.07049 17.5576 5.11002 17.0558C5.15747 16.4238 6.02332 16.1673 6.2131 16.119C6.40683 16.1673 7.30826 16.4238 7.35966 17.0558C7.3992 17.5539 7.15802 18.1413 7.15802 18.1487L7.11453 18.2565L7.40315 18.4758V20.3717H7.39524ZM12.282 20.3717H8.71972V18.0706L9.15463 17.8104L9.09137 17.684C9.08741 17.6766 8.74344 16.9851 8.80275 16.3941C8.87787 15.6059 10.2617 15.3011 10.4831 15.2565C10.7084 15.3011 12.1476 15.6059 12.2227 16.3941C12.278 16.9814 11.9301 17.6766 11.9261 17.684L11.8629 17.8067L12.282 18.0669V20.3717ZM15.947 20.3717H13.6025V18.4758L13.899 18.2565L13.8555 18.1487C13.8516 18.1413 13.6183 17.5539 13.6579 17.0558C13.7053 16.4238 14.5712 16.1673 14.7609 16.119C14.9547 16.1673 15.8561 16.4201 15.9075 17.0558C15.947 17.5539 15.7059 18.1413 15.7059 18.1487L15.6624 18.2565L15.951 18.4758V20.3717H15.947ZM16.6508 20.3717H16.2831V18.3234L16.0577 18.1524C16.1329 17.9442 16.2752 17.4684 16.2436 17.0335C16.1724 16.0967 14.8558 15.8178 14.8005 15.8067L14.7609 15.7955L14.7253 15.803C14.67 15.8141 13.4009 16.0929 13.3257 17.0297C13.2902 17.4647 13.4325 17.9368 13.5037 18.1487L13.2664 18.3234V20.3717H12.6101V17.8996L12.278 17.6952C12.3848 17.4498 12.5983 16.8885 12.5469 16.368C12.4441 15.2788 10.5819 14.9554 10.5028 14.9442L10.4752 14.9405L10.4475 14.9442C10.3724 14.9591 8.56948 15.2788 8.46669 16.368C8.41529 16.8848 8.62484 17.4461 8.72763 17.6952L8.38366 17.8996V20.3755H7.72735V18.3271L7.50199 18.1561C7.57711 17.948 7.71944 17.4721 7.68782 17.0372C7.61665 16.1004 6.30008 15.8216 6.24473 15.8104L6.20914 15.803L6.17356 15.8104C6.11821 15.8216 4.84908 16.1004 4.77396 17.0372C4.73838 17.4721 4.88071 17.9442 4.95188 18.1561L4.71861 18.3234V20.3717H4.28371V13.1264H16.6468V20.3717H16.6508ZM16.6508 12.8141H16.4808V11.9368H17.5957V12.0297H16.6508V12.8141ZM19.3274 20.3717H17.319V12.6543H19.3274V20.3717Z" stroke="black" stroke-width="0.02" mask="url(#path-1-outside-1_182:8565)"/>
</svg>
