<svg width="33" height="34" viewBox="0 0 33 34" fill="none" xmlns="http://www.w3.org/2000/svg">
<mask id="path-1-outside-1_25:2411" maskUnits="userSpaceOnUse" x="-1" y="-1" width="35" height="36" fill="black">
<rect fill="white" x="-1" y="-1" width="35" height="36"/>
<path d="M32.99 27.3706V26.1762V19.3257V18.7948V18.7506H31.2525C31.2525 18.7506 31.17 18.7316 31.1288 18.7316C30.9709 18.7316 30.6756 18.7506 30.6756 18.7506H29.405V18.3271C29.405 18.2703 29.4119 17.5561 28.9174 17.0885C28.6564 16.8357 28.3061 16.7093 27.8803 16.703C27.4545 16.703 27.1111 16.823 26.8502 17.0632C26.7678 17.139 26.7059 17.2212 26.6441 17.3097V16.5955H26.445C26.4106 16.2416 26.287 15.6286 25.8612 15.2178C25.5865 14.9524 25.2294 14.8197 24.8035 14.8134C24.6319 14.8134 24.4739 14.8387 24.3159 14.8829V10.4844H24.5563V9.54275L24.5838 9.31524C24.5975 9.23309 24.8379 7.31822 24.3571 5.76357C23.1278 1.76952 18.1349 1.00483 16.83 0.872119L16.775 0H16.1981L16.1432 0.878439C14.7353 1.03011 9.91406 1.83903 8.70532 5.75725C8.2383 7.26766 8.45121 9.10669 8.47868 9.28996L8.47181 10.4781H8.69845V14.8639C8.50615 14.7881 8.30011 14.7502 8.07347 14.7565C7.6408 14.7628 7.2768 14.9019 6.99522 15.1736C6.54881 15.597 6.42519 16.2353 6.39085 16.5892H6.24663V17.3918C6.17795 17.2654 6.09553 17.1454 5.97878 17.0379C5.72467 16.8041 5.38815 16.6903 5.00355 16.6903C4.60521 16.6967 4.27556 16.8167 4.02831 17.0569C3.53383 17.5309 3.54756 18.2829 3.54756 18.3208V18.7379H2.20833H0.0106223C-0.0511883 18.9086 0.175451 33.4249 0.20979 34H32.9969C33.0175 33.6461 32.99 32.932 32.99 32.932V27.3706ZM27.2622 17.4361C27.4133 17.297 27.6194 17.2275 27.8735 17.2338C28.1413 17.2338 28.3474 17.3097 28.4984 17.455C28.6839 17.632 28.7594 17.8721 28.7938 18.0617H26.9532C26.9944 17.8658 27.0699 17.6067 27.2622 17.4361ZM25.1401 18.5673V20.084H24.4533V18.5673H23.8764V20.084H23.5879V17.1264H26.0672V20.084H25.717V18.5673H25.1401ZM21.8229 18.858V20.084H21.6512V18.858H20.4905V20.084H20.3188V18.858H19.1582V20.084H18.9865V18.858H17.8258V20.084H17.6541V18.858H16.4935V20.084H16.3218V18.858H15.1611V20.084H14.9894V18.858H13.8287V20.084H13.657V18.858H12.4964V20.084H12.3247V18.858H11.164V20.084H10.9923V18.858H9.89345V18.0301H23.011V20.084H22.9836V18.858H21.8229ZM9.27535 10.4844H15.1611C13.5952 10.7814 11.006 11.6219 9.90032 13.9981C9.66681 14.4911 9.52946 15.0409 9.44018 15.5275C9.3921 15.4454 9.33716 15.3632 9.26848 15.2874V10.4844H9.27535ZM9.04871 9.95353V9.54907H16.2393L16.2119 9.95353H9.04871ZM9.88659 17.4929V17.1264H23.011V17.4929H9.88659ZM9.89345 16.5955C9.92092 16.1089 10.0377 15.0535 10.4291 14.2067C11.892 11.0721 16.4042 10.8572 16.4316 10.8572H16.5072C16.6789 10.8636 21.0812 11.1164 22.5166 14.2067C22.908 15.0472 23.0179 16.1026 23.0522 16.5955H9.89345ZM16.83 9.54275H23.9794V9.94721H16.8575L16.83 9.54275ZM23.0522 13.9981C21.9465 11.6219 19.3573 10.7814 17.7915 10.4844H23.739V15.1989C23.6429 15.2874 23.5673 15.3885 23.5055 15.4896C23.4231 15.0156 23.2789 14.4784 23.0522 13.9981ZM24.7967 15.3442C25.25 15.3506 25.559 15.5844 25.7376 16.052C25.8131 16.248 25.8475 16.4439 25.8681 16.5955H23.739C23.7734 16.3048 23.8695 15.8372 24.1717 15.5654C24.3297 15.4138 24.5426 15.3442 24.7967 15.3442ZM9.26161 5.9026C10.5116 1.85167 16.047 1.40929 16.5278 1.3777C17.0085 1.40929 22.5646 1.84535 23.8146 5.9026C24.1648 7.05279 24.0962 8.46208 24.0481 9.0119H9.0281C8.98003 8.46208 8.91135 7.05279 9.26161 5.9026ZM7.10511 16.0268C7.29054 15.5401 7.61333 15.3 8.08034 15.2937C8.34819 15.2874 8.56796 15.3632 8.73965 15.5212C9.04871 15.8056 9.15173 16.2922 9.18606 16.5955H6.97462C6.98835 16.4375 7.02269 16.229 7.10511 16.0268ZM6.82353 17.1264H9.30282V20.084H8.9869V18.5673H8.41V20.084H7.72321V18.5673H7.14631V20.084H6.82353V17.1264ZM4.44725 17.4361C4.59148 17.3033 4.77691 17.2338 5.01041 17.2338C5.25766 17.2338 5.42249 17.2907 5.56671 17.4171C5.75901 17.5941 5.83456 17.8595 5.8689 18.0554H4.15193C4.17941 17.8658 4.26182 17.613 4.44725 17.4361ZM4.12446 18.5926H5.99938V20.084H5.70407V18.7506H4.12446V18.5926ZM4.55027 32.932H1.05453V19.8123H4.5434V32.932H4.55027ZM11.1091 32.932H7.03643V29.7089L7.55839 29.3361L7.48284 29.1528C7.47597 29.1402 7.07077 28.148 7.13945 27.2948C7.22186 26.2204 8.72592 25.7844 9.05558 25.7022C9.3921 25.7844 10.958 26.2204 11.0473 27.2948C11.1159 28.1416 10.697 29.1402 10.697 29.1528L10.6214 29.3361L11.1228 29.7089V32.932H11.1091ZM19.5977 32.932H13.4098V29.0201L14.1653 28.5777L14.0554 28.3628C14.0485 28.3502 13.451 27.1747 13.554 26.1699C13.6845 24.8301 16.0882 24.3119 16.4728 24.2361C16.8643 24.3119 19.3642 24.8301 19.4947 26.1699C19.5909 27.1684 18.9865 28.3502 18.9796 28.3628L18.8697 28.5714L19.5977 29.0138V32.932ZM25.9642 32.932H21.8916V29.7089L22.4067 29.3361L22.3311 29.1528C22.3243 29.1402 21.9191 28.1416 21.9877 27.2948C22.0701 26.2204 23.5742 25.7844 23.9039 25.7022C24.2404 25.7844 25.8063 26.2141 25.8955 27.2948C25.9642 28.1416 25.5453 29.1402 25.5453 29.1528L25.4697 29.3361L25.9711 29.7089V32.932H25.9642ZM27.1867 32.932H26.548V29.4498L26.1565 29.1591C26.287 28.8052 26.5342 27.9963 26.4793 27.2569C26.3557 25.6643 24.0687 25.1903 23.9725 25.1714L23.9039 25.1524L23.842 25.1651C23.7459 25.184 21.5413 25.658 21.4108 27.2506C21.349 27.99 21.5963 28.7926 21.7199 29.1528L21.3078 29.4498V32.932H20.1678V28.7294L19.5909 28.3818C19.7763 27.9647 20.1471 27.0104 20.0579 26.1257C19.8793 24.274 16.6445 23.7242 16.5072 23.7052L16.4591 23.6989L16.411 23.7052C16.2806 23.7305 13.1488 24.274 12.9702 26.1257C12.881 27.0041 13.245 27.9584 13.4235 28.3818L12.826 28.7294V32.9383H11.686V29.4561L11.2945 29.1654C11.425 28.8115 11.6722 28.0026 11.6173 27.2632C11.4937 25.6706 9.20667 25.1967 9.11052 25.1777L9.04871 25.1651L8.9869 25.1777C8.89075 25.1967 6.68617 25.6706 6.55568 27.2632C6.49387 28.0026 6.74111 28.8052 6.86473 29.1654L6.45953 29.4498V32.932H5.70407V20.6149H27.1798V32.932H27.1867ZM27.1867 20.084H26.8914V18.5926H28.8281V18.7506H27.1867V20.084ZM31.8362 32.932H28.3474V19.8123H31.8362V32.932Z"/>
</mask>
<path d="M32.99 27.3706V26.1762V19.3257V18.7948V18.7506H31.2525C31.2525 18.7506 31.17 18.7316 31.1288 18.7316C30.9709 18.7316 30.6756 18.7506 30.6756 18.7506H29.405V18.3271C29.405 18.2703 29.4119 17.5561 28.9174 17.0885C28.6564 16.8357 28.3061 16.7093 27.8803 16.703C27.4545 16.703 27.1111 16.823 26.8502 17.0632C26.7678 17.139 26.7059 17.2212 26.6441 17.3097V16.5955H26.445C26.4106 16.2416 26.287 15.6286 25.8612 15.2178C25.5865 14.9524 25.2294 14.8197 24.8035 14.8134C24.6319 14.8134 24.4739 14.8387 24.3159 14.8829V10.4844H24.5563V9.54275L24.5838 9.31524C24.5975 9.23309 24.8379 7.31822 24.3571 5.76357C23.1278 1.76952 18.1349 1.00483 16.83 0.872119L16.775 0H16.1981L16.1432 0.878439C14.7353 1.03011 9.91406 1.83903 8.70532 5.75725C8.2383 7.26766 8.45121 9.10669 8.47868 9.28996L8.47181 10.4781H8.69845V14.8639C8.50615 14.7881 8.30011 14.7502 8.07347 14.7565C7.6408 14.7628 7.2768 14.9019 6.99522 15.1736C6.54881 15.597 6.42519 16.2353 6.39085 16.5892H6.24663V17.3918C6.17795 17.2654 6.09553 17.1454 5.97878 17.0379C5.72467 16.8041 5.38815 16.6903 5.00355 16.6903C4.60521 16.6967 4.27556 16.8167 4.02831 17.0569C3.53383 17.5309 3.54756 18.2829 3.54756 18.3208V18.7379H2.20833H0.0106223C-0.0511883 18.9086 0.175451 33.4249 0.20979 34H32.9969C33.0175 33.6461 32.99 32.932 32.99 32.932V27.3706ZM27.2622 17.4361C27.4133 17.297 27.6194 17.2275 27.8735 17.2338C28.1413 17.2338 28.3474 17.3097 28.4984 17.455C28.6839 17.632 28.7594 17.8721 28.7938 18.0617H26.9532C26.9944 17.8658 27.0699 17.6067 27.2622 17.4361ZM25.1401 18.5673V20.084H24.4533V18.5673H23.8764V20.084H23.5879V17.1264H26.0672V20.084H25.717V18.5673H25.1401ZM21.8229 18.858V20.084H21.6512V18.858H20.4905V20.084H20.3188V18.858H19.1582V20.084H18.9865V18.858H17.8258V20.084H17.6541V18.858H16.4935V20.084H16.3218V18.858H15.1611V20.084H14.9894V18.858H13.8287V20.084H13.657V18.858H12.4964V20.084H12.3247V18.858H11.164V20.084H10.9923V18.858H9.89345V18.0301H23.011V20.084H22.9836V18.858H21.8229ZM9.27535 10.4844H15.1611C13.5952 10.7814 11.006 11.6219 9.90032 13.9981C9.66681 14.4911 9.52946 15.0409 9.44018 15.5275C9.3921 15.4454 9.33716 15.3632 9.26848 15.2874V10.4844H9.27535ZM9.04871 9.95353V9.54907H16.2393L16.2119 9.95353H9.04871ZM9.88659 17.4929V17.1264H23.011V17.4929H9.88659ZM9.89345 16.5955C9.92092 16.1089 10.0377 15.0535 10.4291 14.2067C11.892 11.0721 16.4042 10.8572 16.4316 10.8572H16.5072C16.6789 10.8636 21.0812 11.1164 22.5166 14.2067C22.908 15.0472 23.0179 16.1026 23.0522 16.5955H9.89345ZM16.83 9.54275H23.9794V9.94721H16.8575L16.83 9.54275ZM23.0522 13.9981C21.9465 11.6219 19.3573 10.7814 17.7915 10.4844H23.739V15.1989C23.6429 15.2874 23.5673 15.3885 23.5055 15.4896C23.4231 15.0156 23.2789 14.4784 23.0522 13.9981ZM24.7967 15.3442C25.25 15.3506 25.559 15.5844 25.7376 16.052C25.8131 16.248 25.8475 16.4439 25.8681 16.5955H23.739C23.7734 16.3048 23.8695 15.8372 24.1717 15.5654C24.3297 15.4138 24.5426 15.3442 24.7967 15.3442ZM9.26161 5.9026C10.5116 1.85167 16.047 1.40929 16.5278 1.3777C17.0085 1.40929 22.5646 1.84535 23.8146 5.9026C24.1648 7.05279 24.0962 8.46208 24.0481 9.0119H9.0281C8.98003 8.46208 8.91135 7.05279 9.26161 5.9026ZM7.10511 16.0268C7.29054 15.5401 7.61333 15.3 8.08034 15.2937C8.34819 15.2874 8.56796 15.3632 8.73965 15.5212C9.04871 15.8056 9.15173 16.2922 9.18606 16.5955H6.97462C6.98835 16.4375 7.02269 16.229 7.10511 16.0268ZM6.82353 17.1264H9.30282V20.084H8.9869V18.5673H8.41V20.084H7.72321V18.5673H7.14631V20.084H6.82353V17.1264ZM4.44725 17.4361C4.59148 17.3033 4.77691 17.2338 5.01041 17.2338C5.25766 17.2338 5.42249 17.2907 5.56671 17.4171C5.75901 17.5941 5.83456 17.8595 5.8689 18.0554H4.15193C4.17941 17.8658 4.26182 17.613 4.44725 17.4361ZM4.12446 18.5926H5.99938V20.084H5.70407V18.7506H4.12446V18.5926ZM4.55027 32.932H1.05453V19.8123H4.5434V32.932H4.55027ZM11.1091 32.932H7.03643V29.7089L7.55839 29.3361L7.48284 29.1528C7.47597 29.1402 7.07077 28.148 7.13945 27.2948C7.22186 26.2204 8.72592 25.7844 9.05558 25.7022C9.3921 25.7844 10.958 26.2204 11.0473 27.2948C11.1159 28.1416 10.697 29.1402 10.697 29.1528L10.6214 29.3361L11.1228 29.7089V32.932H11.1091ZM19.5977 32.932H13.4098V29.0201L14.1653 28.5777L14.0554 28.3628C14.0485 28.3502 13.451 27.1747 13.554 26.1699C13.6845 24.8301 16.0882 24.3119 16.4728 24.2361C16.8643 24.3119 19.3642 24.8301 19.4947 26.1699C19.5909 27.1684 18.9865 28.3502 18.9796 28.3628L18.8697 28.5714L19.5977 29.0138V32.932ZM25.9642 32.932H21.8916V29.7089L22.4067 29.3361L22.3311 29.1528C22.3243 29.1402 21.9191 28.1416 21.9877 27.2948C22.0701 26.2204 23.5742 25.7844 23.9039 25.7022C24.2404 25.7844 25.8063 26.2141 25.8955 27.2948C25.9642 28.1416 25.5453 29.1402 25.5453 29.1528L25.4697 29.3361L25.9711 29.7089V32.932H25.9642ZM27.1867 32.932H26.548V29.4498L26.1565 29.1591C26.287 28.8052 26.5342 27.9963 26.4793 27.2569C26.3557 25.6643 24.0687 25.1903 23.9725 25.1714L23.9039 25.1524L23.842 25.1651C23.7459 25.184 21.5413 25.658 21.4108 27.2506C21.349 27.99 21.5963 28.7926 21.7199 29.1528L21.3078 29.4498V32.932H20.1678V28.7294L19.5909 28.3818C19.7763 27.9647 20.1471 27.0104 20.0579 26.1257C19.8793 24.274 16.6445 23.7242 16.5072 23.7052L16.4591 23.6989L16.411 23.7052C16.2806 23.7305 13.1488 24.274 12.9702 26.1257C12.881 27.0041 13.245 27.9584 13.4235 28.3818L12.826 28.7294V32.9383H11.686V29.4561L11.2945 29.1654C11.425 28.8115 11.6722 28.0026 11.6173 27.2632C11.4937 25.6706 9.20667 25.1967 9.11052 25.1777L9.04871 25.1651L8.9869 25.1777C8.89075 25.1967 6.68617 25.6706 6.55568 27.2632C6.49387 28.0026 6.74111 28.8052 6.86473 29.1654L6.45953 29.4498V32.932H5.70407V20.6149H27.1798V32.932H27.1867ZM27.1867 20.084H26.8914V18.5926H28.8281V18.7506H27.1867V20.084ZM31.8362 32.932H28.3474V19.8123H31.8362V32.932Z" fill="white"/>
<path d="M32.99 27.3706V26.1762V19.3257V18.7948V18.7506H31.2525C31.2525 18.7506 31.17 18.7316 31.1288 18.7316C30.9709 18.7316 30.6756 18.7506 30.6756 18.7506H29.405V18.3271C29.405 18.2703 29.4119 17.5561 28.9174 17.0885C28.6564 16.8357 28.3061 16.7093 27.8803 16.703C27.4545 16.703 27.1111 16.823 26.8502 17.0632C26.7678 17.139 26.7059 17.2212 26.6441 17.3097V16.5955H26.445C26.4106 16.2416 26.287 15.6286 25.8612 15.2178C25.5865 14.9524 25.2294 14.8197 24.8035 14.8134C24.6319 14.8134 24.4739 14.8387 24.3159 14.8829V10.4844H24.5563V9.54275L24.5838 9.31524C24.5975 9.23309 24.8379 7.31822 24.3571 5.76357C23.1278 1.76952 18.1349 1.00483 16.83 0.872119L16.775 0H16.1981L16.1432 0.878439C14.7353 1.03011 9.91406 1.83903 8.70532 5.75725C8.2383 7.26766 8.45121 9.10669 8.47868 9.28996L8.47181 10.4781H8.69845V14.8639C8.50615 14.7881 8.30011 14.7502 8.07347 14.7565C7.6408 14.7628 7.2768 14.9019 6.99522 15.1736C6.54881 15.597 6.42519 16.2353 6.39085 16.5892H6.24663V17.3918C6.17795 17.2654 6.09553 17.1454 5.97878 17.0379C5.72467 16.8041 5.38815 16.6903 5.00355 16.6903C4.60521 16.6967 4.27556 16.8167 4.02831 17.0569C3.53383 17.5309 3.54756 18.2829 3.54756 18.3208V18.7379H2.20833H0.0106223C-0.0511883 18.9086 0.175451 33.4249 0.20979 34H32.9969C33.0175 33.6461 32.99 32.932 32.99 32.932V27.3706ZM27.2622 17.4361C27.4133 17.297 27.6194 17.2275 27.8735 17.2338C28.1413 17.2338 28.3474 17.3097 28.4984 17.455C28.6839 17.632 28.7594 17.8721 28.7938 18.0617H26.9532C26.9944 17.8658 27.0699 17.6067 27.2622 17.4361ZM25.1401 18.5673V20.084H24.4533V18.5673H23.8764V20.084H23.5879V17.1264H26.0672V20.084H25.717V18.5673H25.1401ZM21.8229 18.858V20.084H21.6512V18.858H20.4905V20.084H20.3188V18.858H19.1582V20.084H18.9865V18.858H17.8258V20.084H17.6541V18.858H16.4935V20.084H16.3218V18.858H15.1611V20.084H14.9894V18.858H13.8287V20.084H13.657V18.858H12.4964V20.084H12.3247V18.858H11.164V20.084H10.9923V18.858H9.89345V18.0301H23.011V20.084H22.9836V18.858H21.8229ZM9.27535 10.4844H15.1611C13.5952 10.7814 11.006 11.6219 9.90032 13.9981C9.66681 14.4911 9.52946 15.0409 9.44018 15.5275C9.3921 15.4454 9.33716 15.3632 9.26848 15.2874V10.4844H9.27535ZM9.04871 9.95353V9.54907H16.2393L16.2119 9.95353H9.04871ZM9.88659 17.4929V17.1264H23.011V17.4929H9.88659ZM9.89345 16.5955C9.92092 16.1089 10.0377 15.0535 10.4291 14.2067C11.892 11.0721 16.4042 10.8572 16.4316 10.8572H16.5072C16.6789 10.8636 21.0812 11.1164 22.5166 14.2067C22.908 15.0472 23.0179 16.1026 23.0522 16.5955H9.89345ZM16.83 9.54275H23.9794V9.94721H16.8575L16.83 9.54275ZM23.0522 13.9981C21.9465 11.6219 19.3573 10.7814 17.7915 10.4844H23.739V15.1989C23.6429 15.2874 23.5673 15.3885 23.5055 15.4896C23.4231 15.0156 23.2789 14.4784 23.0522 13.9981ZM24.7967 15.3442C25.25 15.3506 25.559 15.5844 25.7376 16.052C25.8131 16.248 25.8475 16.4439 25.8681 16.5955H23.739C23.7734 16.3048 23.8695 15.8372 24.1717 15.5654C24.3297 15.4138 24.5426 15.3442 24.7967 15.3442ZM9.26161 5.9026C10.5116 1.85167 16.047 1.40929 16.5278 1.3777C17.0085 1.40929 22.5646 1.84535 23.8146 5.9026C24.1648 7.05279 24.0962 8.46208 24.0481 9.0119H9.0281C8.98003 8.46208 8.91135 7.05279 9.26161 5.9026ZM7.10511 16.0268C7.29054 15.5401 7.61333 15.3 8.08034 15.2937C8.34819 15.2874 8.56796 15.3632 8.73965 15.5212C9.04871 15.8056 9.15173 16.2922 9.18606 16.5955H6.97462C6.98835 16.4375 7.02269 16.229 7.10511 16.0268ZM6.82353 17.1264H9.30282V20.084H8.9869V18.5673H8.41V20.084H7.72321V18.5673H7.14631V20.084H6.82353V17.1264ZM4.44725 17.4361C4.59148 17.3033 4.77691 17.2338 5.01041 17.2338C5.25766 17.2338 5.42249 17.2907 5.56671 17.4171C5.75901 17.5941 5.83456 17.8595 5.8689 18.0554H4.15193C4.17941 17.8658 4.26182 17.613 4.44725 17.4361ZM4.12446 18.5926H5.99938V20.084H5.70407V18.7506H4.12446V18.5926ZM4.55027 32.932H1.05453V19.8123H4.5434V32.932H4.55027ZM11.1091 32.932H7.03643V29.7089L7.55839 29.3361L7.48284 29.1528C7.47597 29.1402 7.07077 28.148 7.13945 27.2948C7.22186 26.2204 8.72592 25.7844 9.05558 25.7022C9.3921 25.7844 10.958 26.2204 11.0473 27.2948C11.1159 28.1416 10.697 29.1402 10.697 29.1528L10.6214 29.3361L11.1228 29.7089V32.932H11.1091ZM19.5977 32.932H13.4098V29.0201L14.1653 28.5777L14.0554 28.3628C14.0485 28.3502 13.451 27.1747 13.554 26.1699C13.6845 24.8301 16.0882 24.3119 16.4728 24.2361C16.8643 24.3119 19.3642 24.8301 19.4947 26.1699C19.5909 27.1684 18.9865 28.3502 18.9796 28.3628L18.8697 28.5714L19.5977 29.0138V32.932ZM25.9642 32.932H21.8916V29.7089L22.4067 29.3361L22.3311 29.1528C22.3243 29.1402 21.9191 28.1416 21.9877 27.2948C22.0701 26.2204 23.5742 25.7844 23.9039 25.7022C24.2404 25.7844 25.8063 26.2141 25.8955 27.2948C25.9642 28.1416 25.5453 29.1402 25.5453 29.1528L25.4697 29.3361L25.9711 29.7089V32.932H25.9642ZM27.1867 32.932H26.548V29.4498L26.1565 29.1591C26.287 28.8052 26.5342 27.9963 26.4793 27.2569C26.3557 25.6643 24.0687 25.1903 23.9725 25.1714L23.9039 25.1524L23.842 25.1651C23.7459 25.184 21.5413 25.658 21.4108 27.2506C21.349 27.99 21.5963 28.7926 21.7199 29.1528L21.3078 29.4498V32.932H20.1678V28.7294L19.5909 28.3818C19.7763 27.9647 20.1471 27.0104 20.0579 26.1257C19.8793 24.274 16.6445 23.7242 16.5072 23.7052L16.4591 23.6989L16.411 23.7052C16.2806 23.7305 13.1488 24.274 12.9702 26.1257C12.881 27.0041 13.245 27.9584 13.4235 28.3818L12.826 28.7294V32.9383H11.686V29.4561L11.2945 29.1654C11.425 28.8115 11.6722 28.0026 11.6173 27.2632C11.4937 25.6706 9.20667 25.1967 9.11052 25.1777L9.04871 25.1651L8.9869 25.1777C8.89075 25.1967 6.68617 25.6706 6.55568 27.2632C6.49387 28.0026 6.74111 28.8052 6.86473 29.1654L6.45953 29.4498V32.932H5.70407V20.6149H27.1798V32.932H27.1867ZM27.1867 20.084H26.8914V18.5926H28.8281V18.7506H27.1867V20.084ZM31.8362 32.932H28.3474V19.8123H31.8362V32.932Z" stroke="white" stroke-width="1.4" mask="url(#path-1-outside-1_25:2411)"/>
</svg>
