<svg width="18" height="20" viewBox="0 0 18 20" fill="none" xmlns="http://www.w3.org/2000/svg">
<path fill-rule="evenodd" clip-rule="evenodd" d="M4.06452 5.00617C4.06452 2.24134 6.27421 0 9 0C11.7258 0 13.9355 2.24134 13.9355 5.00617C13.9355 7.771 11.7258 10.0123 9 10.0123C6.27421 10.0123 4.06452 7.771 4.06452 5.00617ZM9 1.76688C7.23625 1.76688 5.80645 3.21716 5.80645 5.00617C5.80645 6.79518 7.23625 8.24545 9 8.24545C10.7637 8.24545 12.1935 6.79518 12.1935 5.00617C12.1935 3.21716 10.7637 1.76688 9 1.76688Z" fill="#FD780F"/>
<path fill-rule="evenodd" clip-rule="evenodd" d="M4.35484 13.5461C2.91177 13.5461 1.74194 14.7327 1.74194 16.1964V17.5961C1.74194 17.6174 1.75716 17.6356 1.7779 17.639C6.56097 18.4311 11.439 18.4311 16.2221 17.639C16.2428 17.6356 16.2581 17.6174 16.2581 17.5961V16.1964C16.2581 14.7327 15.0882 13.5461 13.6452 13.5461H13.2493C13.2187 13.5461 13.1883 13.551 13.1592 13.5606L12.1541 13.8935C10.1046 14.5723 7.89539 14.5723 5.84592 13.8935L4.8408 13.5606C4.81171 13.551 4.78129 13.5461 4.75069 13.5461H4.35484ZM0 16.1964C0 13.7569 1.94973 11.7792 4.35484 11.7792H4.75069C4.96494 11.7792 5.17784 11.8136 5.3815 11.881L6.38662 12.2139C8.08475 12.7764 9.91525 12.7764 11.6134 12.2139L12.6185 11.881C12.8222 11.8136 13.0351 11.7792 13.2493 11.7792H13.6452C16.0503 11.7792 18 13.7569 18 16.1964V17.5961C18 18.4834 17.3661 19.2399 16.5028 19.3828C11.5338 20.2057 6.46618 20.2057 1.49722 19.3828C0.633929 19.2399 0 18.4834 0 17.5961V16.1964Z" fill="#FD780F"/>
</svg>
