<svg width="20" height="20" viewBox="0 0 20 20" fill="none" xmlns="http://www.w3.org/2000/svg">
<path fill-rule="evenodd" clip-rule="evenodd" d="M2.57606 7.77092C4.61694 12.2175 8.24864 15.7527 12.7633 17.6683L12.7776 17.6743L13.6498 18.0633C14.7604 18.5584 16.0658 18.2068 16.7779 17.2207L18.233 15.2055C18.3219 15.0824 18.299 14.9113 18.1809 14.8159L15.6405 12.7653C15.5142 12.6634 15.3285 12.6871 15.2319 12.8176L14.2432 14.1525C14.0031 14.4767 13.5695 14.5893 13.2021 14.423C9.82624 12.8943 7.11349 10.18 5.58574 6.80222C5.41947 6.4346 5.53206 6.00072 5.85606 5.76047L7.1902 4.77119C7.32056 4.67453 7.34429 4.48872 7.24241 4.36236L5.19271 1.82018C5.09744 1.70202 4.92645 1.67907 4.80344 1.76793L2.77857 3.23055C1.78652 3.94714 1.43716 5.2643 1.94353 6.37879L2.57538 7.76943L2.57606 7.77092ZM12.0874 19.243C7.18194 17.1595 3.23637 13.3172 1.0188 8.48453L1.01747 8.48162L0.384298 7.08806C-0.459658 5.23059 0.122613 3.03531 1.77602 1.84101L3.80089 0.378384C4.662 -0.243619 5.85894 -0.0829732 6.52579 0.744099L8.57549 3.28629C9.28865 4.1708 9.12254 5.47145 8.21001 6.14811L7.44552 6.71498C8.73688 9.22215 10.7835 11.27 13.2893 12.5621L13.8558 11.7972C14.5321 10.8841 15.832 10.7179 16.716 11.4315L19.2563 13.4821C20.0832 14.1495 20.2435 15.3476 19.6214 16.2092L18.1662 18.2244C16.9794 19.8679 14.8037 20.4539 12.9527 19.6288L12.0874 19.243Z" fill="#FD780F"/>
</svg>
