<svg width="31" height="30" viewBox="0 0 31 30" fill="none" xmlns="http://www.w3.org/2000/svg">
<path fill-rule="evenodd" clip-rule="evenodd" d="M4.73461 11.4276C7.71347 17.9141 13.0143 23.071 19.6039 25.8654L19.6247 25.8742L20.8977 26.4416C22.5188 27.1638 24.4241 26.6509 25.4635 25.2124L27.5874 22.2728C27.7172 22.0933 27.6837 21.8436 27.5113 21.7045L23.8034 18.7132C23.6191 18.5645 23.348 18.5991 23.207 18.7894L21.7639 20.7367C21.4135 21.2096 20.7805 21.374 20.2443 21.1313C15.3169 18.9014 11.3574 14.9419 9.12753 10.0145C8.88484 9.47826 9.04917 8.84534 9.52209 8.49487L11.4694 7.05177C11.6597 6.91076 11.6943 6.63971 11.5456 6.45538L8.55385 2.74698C8.41481 2.57462 8.16523 2.54114 7.98568 2.67076L5.03019 4.80436C3.58221 5.84967 3.07228 7.77108 3.81138 9.39684L4.73362 11.4254C4.73395 11.4262 4.73428 11.4269 4.73461 11.4276ZM18.6174 28.1625C11.4573 25.1232 5.69839 19.5182 2.46165 12.4686L2.4597 12.4643L1.53553 10.4315C0.303695 7.7219 1.15358 4.51955 3.56688 2.77736L6.52236 0.643763C7.77923 -0.263581 9.52628 -0.02924 10.4996 1.17725L13.4913 4.88566C14.5323 6.17594 14.2898 8.07327 12.9579 9.06033L11.8421 9.88726C13.7269 13.5446 16.7142 16.5319 20.3715 18.4167L21.1985 17.3009C22.1855 15.969 24.0829 15.7265 25.3731 16.7674L29.081 19.7588C30.2879 20.7324 30.522 22.4801 29.6138 23.737L27.4899 26.6766C25.7576 29.074 22.582 29.9289 19.8803 28.7252L18.6174 28.1625Z" fill="white"/>
</svg>
