<svg width="24" height="23" viewBox="0 0 24 23" fill="none" xmlns="http://www.w3.org/2000/svg">
<path d="M18.6127 3.41838L18.9379 2.9898C19.0541 2.83725 19.2703 2.80819 19.4211 2.92442C19.5718 3.04065 19.6027 3.25675 19.4864 3.40749L19.1613 3.83607C19.0941 3.92506 18.9905 3.97228 18.887 3.97228C18.8143 3.97228 18.7399 3.94867 18.6781 3.90145C18.5255 3.78704 18.4965 3.56911 18.6127 3.41838ZM2.65488 11.4435C2.68576 11.4525 2.71845 11.4562 2.74934 11.4562C2.9001 11.4562 3.03816 11.3563 3.08175 11.2056C3.08902 11.182 3.76838 8.79386 4.44048 7.81502C4.54766 7.65702 4.50769 7.44273 4.35148 7.33558C4.19344 7.22844 3.9791 7.26839 3.87192 7.42457C3.13443 8.49785 2.4478 10.915 2.41873 11.0185C2.36424 11.2019 2.47141 11.3926 2.65488 11.4435ZM4.78562 7.06862C4.88007 7.06862 4.97453 7.03049 5.04174 6.95421L5.23611 6.73992C5.36326 6.59827 5.35236 6.38034 5.21068 6.25322C5.06899 6.12428 4.85101 6.13699 4.72386 6.27683L4.52949 6.49112C4.40234 6.63277 4.41324 6.8507 4.55492 6.97782C4.62032 7.03957 4.70388 7.06862 4.78562 7.06862ZM17.1632 15.5187C15.9588 16.9406 14.4929 17.5908 14.4766 17.598C14.3022 17.6743 14.2223 17.8777 14.2967 18.052C14.3531 18.1828 14.4802 18.2591 14.6128 18.2591C14.6582 18.2591 14.7055 18.25 14.749 18.23C14.8144 18.201 16.373 17.5145 17.6863 15.9636C17.8098 15.8183 17.7917 15.6004 17.6463 15.4769C17.5047 15.3552 17.2867 15.3734 17.1632 15.5187ZM18.4765 14.4744C18.3239 14.36 18.1077 14.3891 17.9933 14.5416L17.7771 14.8267C17.6627 14.9793 17.6918 15.1954 17.8425 15.3098C17.9043 15.357 17.9788 15.3806 18.0514 15.3806C18.155 15.3806 18.2585 15.3334 18.3257 15.2444L18.5419 14.9593C18.6581 14.8068 18.6291 14.5907 18.4765 14.4744ZM23.9695 14.1367C23.9169 14.2547 23.8006 14.3346 23.6716 14.3401C23.6153 14.3437 23.0104 14.3727 22.2421 14.3727C21.2085 14.3727 19.8788 14.3201 19.1976 14.0767C18.4692 13.817 17.8716 13.2777 17.5283 12.9145C17.3412 13.1978 17.1377 13.4738 16.9252 13.7389C16.9125 13.7607 16.898 13.7825 16.8798 13.8025C16.8743 13.808 16.8689 13.8116 16.8634 13.817C15.6428 15.3116 14.1514 16.4594 13.6773 16.8081C13.6192 16.8498 13.5574 16.8916 13.4939 16.9297C13.7772 17.4509 13.9371 18.3063 13.2722 19.2288C12.3404 20.5219 10.4694 21.8966 10.3913 21.9547C10.3314 21.9983 10.2587 22.0219 10.1878 22.0219C10.1225 22.0219 10.0552 22.0037 9.99712 21.9638C9.87723 21.8839 9.8191 21.7386 9.8518 21.597C9.85725 21.5733 10.3731 19.3414 10.1043 17.8959C8.80914 18.072 7.52306 18.1265 6.76196 18.1447C6.75106 18.1447 6.74016 18.1447 6.72926 18.1447C6.43135 18.1447 6.14253 18.0575 5.89367 17.8904L5.44319 17.5908C5.23429 17.4509 5.07262 17.2621 4.97635 17.046C4.81831 16.69 4.69479 16.325 4.59852 15.9563C2.76568 15.9345 0.482359 16.7172 0.458745 16.7245C0.422415 16.7372 0.384269 16.7427 0.346123 16.7427C0.248032 16.7427 0.153575 16.7009 0.0863651 16.6264C-0.00627578 16.5211 -0.0262571 16.3704 0.0355034 16.2451C1.46145 13.3576 3.75749 12.4986 4.50588 12.2879C4.85464 10.372 5.75381 8.55051 6.84733 7.18485C6.87821 7.1449 6.91454 7.10858 6.94724 7.07044C6.95814 7.05591 6.97085 7.04138 6.98357 7.02867C7.34868 6.62188 7.82642 6.26593 8.36591 5.95721C7.61752 5.64666 6.48222 5.10367 5.87914 4.44989C4.61305 3.07515 4.36238 0.485477 4.35148 0.376514C4.33876 0.243943 4.40415 0.11682 4.51859 0.0478108C4.63303 -0.0193827 4.77653 -0.0157507 4.88734 0.058707C5.47407 0.452788 6.45315 0.696137 7.49037 0.954015C8.3532 1.16831 9.24328 1.38986 9.98259 1.72038C11.325 2.32331 11.7882 3.87602 11.9353 4.61334C13.156 4.30643 14.2005 4.15206 14.6019 4.0994C14.9834 3.47105 16.3566 1.36444 17.6445 1.28453L17.7953 1.27545C19.4828 1.16831 20.2421 1.13744 20.5164 1.53515C20.7435 1.86385 21.2266 4.18294 20.6254 4.94022C20.2203 5.45053 18.6599 6.9978 18.1495 7.50266C18.3402 8.00933 18.4801 8.58139 18.5619 9.22426C19.0341 9.06808 19.808 8.96457 20.7289 9.42948C21.668 9.90346 22.3002 11.0458 22.9123 12.1499C23.252 12.7619 23.5717 13.3412 23.9259 13.7789C24.0059 13.8806 24.0222 14.0186 23.9695 14.1367ZM17.9152 10.0179C16.8725 9.80358 14.8435 9.44764 13.9698 9.29691L14.0297 10.9422C14.4366 11.2655 15.73 12.2988 16.5801 13.0561C17.3012 12.1081 17.8643 11.0494 17.9152 10.0179ZM13.2359 16.2741C12.5366 15.644 11.1015 14.3055 10.9199 13.7644C10.691 13.8061 10.3749 13.8606 10.0988 13.8897C9.95171 14.5416 9.55208 16.3232 9.37951 17.2875C11.0053 17.1095 12.5075 16.7863 13.2359 16.2741ZM5.11985 12.7801L7.07621 12.1045L6.91091 10.8769L5.69204 10.5972C5.45045 11.2292 5.26517 11.8902 5.15436 12.5603C5.15618 12.6021 5.14891 12.6439 5.1362 12.682C5.13075 12.7147 5.1253 12.7474 5.11985 12.7801ZM9.81184 13.2196C10.0843 13.2105 10.5239 13.136 10.8109 13.0815C10.7655 12.5258 10.7709 11.8539 10.7782 11.507L8.42586 10.2576L7.59209 10.7697L7.77556 12.1354C8.60024 12.6657 9.57751 13.2087 9.81184 13.2196ZM7.77556 7.21209L8.57299 7.69879L10.9199 7.12129L11.434 5.99171L11.3649 5.48685C10.6965 5.68117 10.008 5.91907 9.3777 6.20964C9.36498 6.2169 9.35227 6.22235 9.33773 6.22961C8.74011 6.50928 8.19698 6.83435 7.77556 7.21209ZM12.037 5.30525L12.0915 5.70296C12.829 5.71386 13.8335 5.75018 14.0987 5.86277C14.3549 5.97174 15.136 6.42756 15.4248 6.59827L16.8108 6.44209C16.2967 5.73928 15.6119 5.18176 14.7545 4.77678C14.4312 4.82037 13.3231 4.97836 12.037 5.30525ZM14.8199 7.04502C14.4221 6.81438 13.9752 6.56195 13.8281 6.49839C13.6701 6.44572 12.8036 6.40395 12.0116 6.39306L11.6083 7.27928L13.552 8.44518C13.8208 8.15825 14.3403 7.59891 14.8199 7.04502ZM14.3004 8.65221C15.2068 8.81021 16.8653 9.10259 17.877 9.30417C17.7971 8.66856 17.65 8.08742 17.4338 7.56259C17.4284 7.55169 17.4247 7.54261 17.4211 7.53171C17.3575 7.38098 17.2885 7.23388 17.214 7.09223L15.5229 7.28292C15.1087 7.77143 14.6364 8.29082 14.3004 8.65221ZM11.5393 11.1311L13.3358 10.8242L13.2704 9.08261L11.107 7.78596L8.84547 8.34167L8.77099 9.6583L11.5393 11.1311ZM15.3013 4.281C16.135 4.71867 17.0269 5.41603 17.6809 6.52018C17.6918 6.53471 17.7008 6.55105 17.7099 6.5674C17.759 6.65093 17.8044 6.74174 17.8498 6.83072C18.471 6.21508 19.7462 4.94022 20.0841 4.51345C20.3911 4.12664 20.1422 2.35963 19.9587 1.95465C19.699 1.84751 18.6272 1.91652 17.8371 1.96737L17.6845 1.97645C16.967 2.02003 15.9207 3.30579 15.3013 4.281ZM9.1906 5.53952C9.85907 5.23806 10.5748 4.99289 11.2632 4.79676C11.1451 4.1902 10.7691 2.83362 9.6974 2.35418C9.01622 2.04909 8.1552 1.83479 7.32143 1.62777C6.52218 1.42982 5.75562 1.23913 5.13257 0.972176C5.28152 1.78758 5.6321 3.1714 6.38231 3.9868C7.08166 4.73864 8.72376 5.37063 9.1906 5.53952ZM5.96088 9.9525L7.15977 10.2267L8.07891 9.66193L8.15883 8.25631L7.29782 7.73148C6.79102 8.38162 6.33145 9.13709 5.96088 9.9525ZM4.45138 15.268C4.33331 14.5362 4.3206 13.7916 4.39507 13.0543C3.6485 13.3267 2.17896 14.0567 1.06364 15.8201C1.90104 15.5877 3.23434 15.2826 4.45138 15.268ZM8.66927 17.3565C8.82003 16.4467 9.23601 14.5761 9.40858 13.817C8.81095 13.5991 7.92269 13.0525 7.40862 12.722L5.04719 13.5392C4.98906 14.6379 5.14891 15.7402 5.60485 16.7699C5.64845 16.868 5.72292 16.9551 5.82283 17.0205L6.27332 17.3202C6.41319 17.4128 6.57667 17.4618 6.74561 17.4582C7.36321 17.4418 8.01896 17.4092 8.66927 17.3565ZM12.8763 17.2385C12.2786 17.4836 11.5448 17.6616 10.7837 17.7942C10.9599 18.7748 10.8291 20.0079 10.6983 20.8378C11.3159 20.3294 12.1914 19.5503 12.7128 18.8275C13.2359 18.0993 13.0434 17.5236 12.8763 17.2385ZM16.1459 13.5918C15.3176 12.8509 13.9988 11.7958 13.5974 11.478L11.5393 11.8303C11.5193 11.8339 11.5012 11.8357 11.4812 11.8357C11.4757 11.8357 11.4703 11.8339 11.4648 11.8339C11.4612 12.4822 11.4848 13.2631 11.5756 13.5464C11.6683 13.8261 12.7745 14.9321 13.7936 15.8455C14.3767 15.377 15.3122 14.5671 16.1459 13.5918ZM22.9995 13.6736C22.7579 13.2995 22.5291 12.8872 22.3056 12.4841C21.7443 11.4707 21.1649 10.4247 20.4147 10.0451C19.5627 9.61471 18.8925 9.81448 18.6091 9.9416C18.5909 10.7407 18.3166 11.5397 17.9025 12.2952C18.1568 12.5858 18.7362 13.176 19.4301 13.4248C20.144 13.6808 21.9006 13.699 22.9995 13.6736Z" fill="#606060"/>
</svg>
