<svg width="40" height="37" viewBox="0 0 40 37" fill="none" xmlns="http://www.w3.org/2000/svg">
<path d="M30.7752 5.65212L31.3128 4.94348C31.505 4.69125 31.8624 4.64321 32.1117 4.83538C32.361 5.02755 32.4121 5.38488 32.2199 5.63411L31.6822 6.34275C31.5711 6.48989 31.3999 6.56796 31.2287 6.56796C31.1086 6.56796 30.9854 6.52892 30.8833 6.45085C30.631 6.26168 30.583 5.90135 30.7752 5.65212ZM4.38971 18.9212C4.44077 18.9362 4.49483 18.9422 4.54589 18.9422C4.79518 18.9422 5.02344 18.7771 5.09552 18.5278C5.10754 18.4888 6.23083 14.5402 7.34212 12.9217C7.51932 12.6605 7.45325 12.3062 7.19495 12.129C6.93364 11.9519 6.57924 12.0179 6.40203 12.2761C5.18262 14.0508 4.04731 18.0474 3.99926 18.2186C3.90915 18.5218 4.08636 18.8371 4.38971 18.9212ZM7.91278 11.6876C8.06896 11.6876 8.22514 11.6246 8.33627 11.4984L8.65764 11.1441C8.86788 10.9099 8.84986 10.5496 8.61559 10.3394C8.38132 10.1262 8.0209 10.1472 7.81066 10.3784L7.48929 10.7327C7.27904 10.967 7.29707 11.3273 7.53134 11.5375C7.63946 11.6396 7.77762 11.6876 7.91278 11.6876ZM28.3784 25.6593C26.3871 28.0105 23.9633 29.0854 23.9363 29.0975C23.648 29.2236 23.5158 29.5599 23.6389 29.8481C23.7321 30.0643 23.9423 30.1904 24.1615 30.1904C24.2366 30.1904 24.3147 30.1754 24.3868 30.1424C24.4949 30.0944 27.0719 28.9593 29.2434 26.395C29.4477 26.1548 29.4176 25.7944 29.1773 25.5903C28.9431 25.3891 28.5827 25.4191 28.3784 25.6593ZM30.5499 23.9328C30.2976 23.7436 29.9402 23.7916 29.751 24.0439L29.3936 24.5153C29.2044 24.7675 29.2524 25.1248 29.5017 25.314C29.6038 25.3921 29.727 25.4311 29.8471 25.4311C30.0183 25.4311 30.1895 25.353 30.3006 25.2059L30.6581 24.7345C30.8503 24.4823 30.8022 24.1249 30.5499 23.9328ZM39.6324 23.3742C39.5453 23.5694 39.3531 23.7015 39.1399 23.7106C39.0467 23.7166 38.0466 23.7646 36.7761 23.7646C35.0671 23.7646 32.8686 23.6775 31.7423 23.2752C30.5379 22.8458 29.5498 21.954 28.9821 21.3534C28.6728 21.8218 28.3364 22.2782 27.985 22.7166C27.9639 22.7527 27.9399 22.7887 27.9099 22.8217C27.9009 22.8307 27.8919 22.8368 27.8828 22.8458C25.8645 25.317 23.3987 27.2147 22.6148 27.7913C22.5187 27.8603 22.4165 27.9294 22.3114 27.9924C22.78 28.8542 23.0443 30.2685 21.945 31.7939C20.4042 33.9319 17.3106 36.2049 17.1815 36.301C17.0824 36.3731 16.9622 36.4121 16.8451 36.4121C16.737 36.4121 16.6258 36.3821 16.5297 36.316C16.3315 36.1839 16.2354 35.9437 16.2895 35.7095C16.2985 35.6704 17.1514 31.9801 16.7069 29.5899C14.5655 29.8812 12.439 29.9712 11.1806 30.0013C11.1625 30.0013 11.1445 30.0013 11.1265 30.0013C10.6339 30.0013 10.1564 29.8571 9.74489 29.5809L9.00003 29.0854C8.65463 28.8542 8.38732 28.5419 8.22814 28.1846C7.96684 27.5961 7.7626 26.9925 7.60342 26.383C4.57292 26.3469 0.797557 27.6411 0.758512 27.6531C0.698442 27.6742 0.635369 27.6832 0.572296 27.6832C0.410109 27.6832 0.253929 27.6141 0.1428 27.491C-0.0103767 27.3168 -0.0434148 27.0676 0.0587031 26.8604C2.41643 22.0861 6.21281 20.6658 7.45024 20.3175C8.02691 17.1496 9.51363 14.1378 11.3217 11.8798C11.3728 11.8137 11.4328 11.7537 11.4869 11.6906C11.5049 11.6666 11.526 11.6426 11.547 11.6216C12.1507 10.9489 12.9406 10.3604 13.8326 9.84994C12.5952 9.33647 10.718 8.43866 9.72087 7.35767C7.62745 5.08461 7.21297 0.802711 7.19495 0.622547C7.17392 0.403348 7.28205 0.193156 7.47127 0.0790527C7.66048 -0.0320484 7.89776 -0.0260429 8.08097 0.0970691C9.05109 0.748662 10.67 1.15103 12.3849 1.57742C13.8116 1.93174 15.2833 2.29807 16.5057 2.84457C18.7253 3.84148 19.4912 6.40881 19.7344 7.62792C21.7528 7.12046 23.4798 6.86523 24.1435 6.77815C24.7743 5.7392 27.0449 2.25603 29.1743 2.12391L29.4236 2.1089C32.2139 1.93174 33.4693 1.88069 33.9228 2.53829C34.2983 3.08178 35.0972 6.91627 34.103 8.16841C33.4333 9.01218 30.8533 11.5705 30.0093 12.4053C30.3247 13.243 30.5559 14.1889 30.6911 15.2519C31.472 14.9936 32.7515 14.8225 34.2742 15.5912C35.827 16.3749 36.8722 18.2636 37.8844 20.0893C38.446 21.1012 38.9747 22.059 39.5603 22.7827C39.6925 22.9509 39.7195 23.1791 39.6324 23.3742ZM29.6219 16.5641C27.8979 16.2097 24.543 15.6212 23.0983 15.372L23.1974 18.0924C23.8702 18.6269 26.0087 20.3355 27.4143 21.5876C28.6067 20.0202 29.5378 18.2696 29.6219 16.5641ZM21.8849 26.9085C20.7286 25.8665 18.3558 23.6535 18.0555 22.7587C17.6771 22.8277 17.1545 22.9178 16.6979 22.9659C16.4546 24.0439 15.7939 26.9895 15.5086 28.584C18.1967 28.2897 20.6805 27.7552 21.8849 26.9085ZM8.46542 21.1312L11.7002 20.0142L11.4268 17.9843L9.41151 17.5219C9.01205 18.5669 8.70569 19.6599 8.52248 20.7679C8.52548 20.8369 8.51347 20.906 8.49245 20.9691C8.48344 21.0231 8.47443 21.0772 8.46542 21.1312ZM16.2234 21.8579C16.6739 21.8429 17.4007 21.7197 17.8753 21.6297C17.8002 20.7108 17.8092 19.5998 17.8212 19.0263L13.9317 16.9604L12.5531 17.8072L12.8565 20.0652C14.2201 20.942 15.8359 21.8398 16.2234 21.8579ZM12.8565 11.9248L14.175 12.7296L18.0555 11.7747L18.9055 9.90699L18.7913 9.07224C17.6861 9.39353 16.5478 9.78688 15.5055 10.2673C15.4845 10.2793 15.4635 10.2883 15.4395 10.3004C14.4513 10.7628 13.5533 11.3003 12.8565 11.9248ZM19.9026 8.77196L19.9927 9.42956C21.2121 9.44758 22.8731 9.50763 23.3116 9.6938C23.7351 9.87396 25.0265 10.6276 25.5041 10.9099L27.7957 10.6517C26.9458 9.48961 25.8135 8.56778 24.3958 7.89817C23.8612 7.97023 22.0291 8.23147 19.9026 8.77196ZM24.5039 11.6486C23.8462 11.2672 23.1073 10.8499 22.864 10.7448C22.6027 10.6577 21.1701 10.5886 19.8606 10.5706L19.1938 12.0359L22.4075 13.9637C22.852 13.4893 23.711 12.5644 24.5039 11.6486ZM23.645 14.306C25.1437 14.5672 27.8858 15.0507 29.5588 15.384C29.4266 14.333 29.1833 13.3721 28.8259 12.5044C28.8169 12.4863 28.8109 12.4713 28.8049 12.4533C28.6998 12.2041 28.5857 11.9609 28.4625 11.7266L25.6663 12.0419C24.9815 12.8497 24.2006 13.7085 23.645 14.306ZM19.0797 18.4047L22.0501 17.8973L21.942 15.0176L18.3649 12.8737L14.6255 13.7925L14.5024 15.9695L19.0797 18.4047ZM25.2999 7.07842C26.6785 7.80208 28.1532 8.95513 29.2344 10.7808C29.2524 10.8048 29.2674 10.8318 29.2825 10.8589C29.3636 10.997 29.4386 11.1471 29.5137 11.2943C30.5409 10.2763 32.6494 8.16841 33.208 7.46277C33.7156 6.82319 33.3041 3.90153 33.0008 3.23192C32.5713 3.05476 30.7992 3.16886 29.4927 3.25294L29.2404 3.26795C28.054 3.34002 26.324 5.46595 25.2999 7.07842ZM15.1962 9.15931C16.3015 8.66086 17.4848 8.25549 18.6231 7.9312C18.4279 6.92828 17.8062 4.68524 16.0342 3.89252C14.9079 3.38806 13.4842 3.03374 12.1056 2.69143C10.7841 2.36413 9.51663 2.04884 8.48644 1.60744C8.73272 2.95567 9.31239 5.24375 10.5528 6.59198C11.7092 7.83511 14.4243 8.88006 15.1962 9.15931ZM9.85602 16.456L11.8383 16.9094L13.3581 15.9755L13.4902 13.6514L12.0666 12.7836C11.2286 13.8586 10.4687 15.1077 9.85602 16.456ZM7.36014 25.2449C7.16491 24.0348 7.14389 22.8037 7.26703 21.5846C6.0326 22.035 3.6028 23.2421 1.75867 26.1578C3.14327 25.7734 5.34781 25.269 7.36014 25.2449ZM14.3342 28.6981C14.5835 27.1937 15.2713 24.1009 15.5566 22.8458C14.5685 22.4854 13.0998 21.5816 12.2498 21.0351L8.34528 22.3863C8.24917 24.203 8.51347 26.0257 9.26734 27.7282C9.33943 27.8904 9.46257 28.0345 9.62776 28.1426L10.3726 28.638C10.6039 28.7912 10.8742 28.8722 11.1535 28.8662C12.1747 28.8392 13.259 28.7852 14.3342 28.6981ZM21.2902 28.5029C20.3021 28.9083 19.0887 29.2025 17.8302 29.4217C18.1216 31.0432 17.9053 33.0821 17.6891 34.4543C18.7103 33.6136 20.1579 32.3254 21.0199 31.1303C21.8849 29.9262 21.5665 28.9743 21.2902 28.5029ZM26.6965 22.4734C25.3269 21.2483 23.1464 19.5037 22.4826 18.9782L19.0797 19.5608C19.0466 19.5668 19.0166 19.5698 18.9836 19.5698C18.9746 19.5698 18.9655 19.5668 18.9565 19.5668C18.9505 20.6388 18.9896 21.9299 19.1397 22.3984C19.2929 22.8608 21.122 24.6894 22.807 26.1998C23.7711 25.4251 25.3179 24.0859 26.6965 22.4734ZM38.0286 22.6085C37.6291 21.99 37.2507 21.3084 36.8812 20.6418C35.9532 18.9662 34.9951 17.2367 33.7546 16.6091C32.346 15.8974 31.2377 16.2277 30.7692 16.4379C30.7391 17.7591 30.2856 19.0803 29.6008 20.3295C30.0213 20.8099 30.9794 21.7858 32.1268 22.1972C33.3071 22.6206 36.2115 22.6506 38.0286 22.6085Z" fill="white"/>
</svg>
