<svg width="77" height="77" viewBox="0 0 77 77" fill="none" xmlns="http://www.w3.org/2000/svg">
<g clip-path="url(#clip0_53:1423)">
<path d="M25.5024 30.6021C30.1442 30.6021 34.3285 27.8058 36.1053 23.5178C37.8811 19.2298 36.9 14.2944 33.6175 11.0119C30.335 7.72947 25.3987 6.7483 21.1116 8.52416C16.8227 10.3009 14.0273 14.4852 14.0273 19.127C14.0326 25.461 19.1676 30.5951 25.5024 30.6021ZM17.3917 22.8233C18.4949 23.2738 19.6433 23.6032 20.8179 23.8054C21.0201 24.9791 21.3503 26.1276 21.7991 27.2316C19.8507 26.3367 18.2866 24.7726 17.3917 22.8233ZM20.4772 17.1019C20.4284 17.7746 20.4014 18.4499 20.4014 19.1261C20.4014 19.8023 20.4276 20.4776 20.4772 21.1442C17.9259 20.5508 16.5761 19.6106 16.5761 19.1261C16.5761 18.6416 17.925 17.7014 20.4772 17.108V17.1019ZM25.5024 10.2007C25.9869 10.2007 26.9271 11.5496 27.5205 14.1018C26.8539 14.053 26.1786 14.026 25.5024 14.026C24.8262 14.026 24.1509 14.0521 23.4843 14.1018C24.0777 11.5496 25.0171 10.2007 25.5024 10.2007ZM25.5024 16.5756C26.3773 16.5756 27.1824 16.6201 27.9353 16.6924C28.0076 17.4452 28.0521 18.2504 28.0521 19.1253C28.0521 20.0001 28.0076 20.8053 27.9353 21.5581C27.1824 21.6304 26.3773 21.6749 25.5024 21.6749C24.6276 21.6749 23.8224 21.6304 23.0696 21.5581C22.9972 20.8053 22.9528 20.0001 22.9528 19.1253C22.9528 18.2504 22.9972 17.4452 23.0696 16.6924C23.8215 16.6209 24.6276 16.5756 25.5024 16.5756ZM34.4279 19.1261C34.4279 19.6106 33.079 20.5508 30.5267 21.1442C30.5755 20.4776 30.6026 19.8023 30.6026 19.1261C30.6026 18.4499 30.5764 17.7746 30.5267 17.108C33.079 17.7014 34.4279 18.6416 34.4279 19.1261ZM25.5024 28.0516C25.0179 28.0516 24.0777 26.7027 23.4843 24.1504C24.1509 24.1992 24.8262 24.2263 25.5024 24.2263C26.1786 24.2263 26.8539 24.2001 27.5205 24.1504C26.9262 26.7027 25.9869 28.0516 25.5024 28.0516ZM29.1996 27.2368C29.6501 26.1337 29.9795 24.9852 30.1817 23.8106C31.3554 23.6085 32.5039 23.2782 33.6079 22.8294C32.713 24.7778 31.1489 26.3419 29.1996 27.2368ZM33.6123 15.4289C32.5091 14.9784 31.3606 14.649 30.186 14.4469C29.9839 13.2731 29.6536 12.1247 29.2049 11.0206C31.1541 11.9155 32.7174 13.4796 33.6123 15.4289ZM21.8043 11.0154C21.3538 12.1186 21.0245 13.267 20.8223 14.4416C19.6486 14.6438 18.5001 14.974 17.3961 15.4228C18.291 13.4744 19.8559 11.9103 21.8043 11.0154Z" fill="#FD780F"/>
<path d="M7.65011 8.9259C7.65011 8.22184 8.22173 7.65109 8.92493 7.65109H14.0251V5.10059H8.92493C6.81272 5.10059 5.09961 6.8137 5.09961 8.9259V14.026H7.65011V8.9259Z" fill="#FD780F"/>
<path d="M7.65011 54.8286V49.7285H5.09961V54.8286C5.09961 56.9408 6.81185 58.654 8.92493 58.654H14.0251V56.1035H8.92493C8.22173 56.1043 7.65011 55.5327 7.65011 54.8286Z" fill="#FD780F"/>
<path d="M43.3535 8.9259V14.026H45.904V8.9259C45.904 6.8137 44.1917 5.10059 42.0786 5.10059H36.9785V7.65109H42.0786C42.7827 7.65109 43.3535 8.22271 43.3535 8.9259Z" fill="#FD780F"/>
<path d="M68.6344 37.7704L51.0039 27.3253V3.82532C51.0039 1.71224 49.2908 0 47.1786 0H3.82532C1.71224 0 0 1.71311 0 3.82532V59.9303C0 62.0433 1.71224 63.7556 3.82532 63.7556H39.528V65.0304C39.535 71.3653 44.6691 76.4994 51.0039 76.5063H73.9558C75.3648 76.5063 76.5063 75.3649 76.5063 73.9558V51.8771C76.5238 46.1234 73.5402 40.7758 68.6344 37.7704ZM2.5505 59.9303V3.82532C2.5505 3.12125 3.12212 2.5505 3.82532 2.5505H47.1786C47.8827 2.5505 48.4534 3.12212 48.4534 3.82532V51.9389L39.0017 42.7312C36.5305 40.2216 32.4934 40.1902 29.983 42.6606C27.4734 45.1309 27.4421 49.1688 29.9124 51.6793L38.0397 61.2051H3.82532C3.12125 61.2051 2.5505 60.6335 2.5505 59.9303ZM73.9558 73.9558H51.0039C46.0772 73.9489 42.0846 69.9571 42.0785 65.0304V62.4799C42.0785 62.1767 41.9704 61.883 41.7735 61.6521L31.7841 49.9496C30.2923 48.4534 30.2923 46.0319 31.7841 44.5358C33.3029 43.0841 35.6974 43.0893 37.2101 44.5471L53.937 60.8426L55.7215 59.0145L51.0039 54.4241V30.2906L67.3125 39.9515C71.4559 42.4959 73.9733 47.0148 73.9558 51.8771V73.9558Z" fill="#FD780F"/>
<path d="M64.83 41.6084L63.4863 43.7755C67.6306 46.3208 70.148 50.8406 70.1297 55.7028H72.6802C72.7011 49.9579 69.7253 44.6164 64.83 41.6084Z" fill="#FD780F"/>
<path d="M14.0271 33.1533H11.4766V35.7038H14.0271V33.1533Z" fill="#FD780F"/>
<path d="M34.4279 33.1533H16.5762V35.7038H34.4279V33.1533Z" fill="#FD780F"/>
<path d="M39.529 33.1533H36.9785V35.7038H39.529V33.1533Z" fill="#FD780F"/>
</g>
<defs>
<clipPath id="clip0_53:1423">
<rect width="76.5063" height="76.5063" fill="white"/>
</clipPath>
</defs>
</svg>
