<svg width="90" height="79" viewBox="0 0 90 79" fill="none" xmlns="http://www.w3.org/2000/svg">
<g clip-path="url(#clip0_53:1409)">
<path d="M20.8469 75.6929C20.3504 75.9428 19.7269 75.7727 19.4556 75.3207L3.59054 48.656C3.31919 48.1987 3.50394 47.6245 4.00044 47.3746L12.2447 43.2167L10.582 40.4199L2.33196 44.5778C0.161198 45.6731 -0.635517 48.1934 0.553783 50.1926L16.413 76.852C17.2271 78.2238 18.7686 79.0001 20.3562 79.0001C21.0836 79.0001 21.8226 78.8352 22.5039 78.4896L30.7712 74.3211L29.1085 71.5244L20.8469 75.6929Z" fill="#FD780F"/>
<path d="M88.7639 23.1821L66.0055 1.27608C65.1684 0.467896 64.0426 0.015951 62.8302 0C62.8071 0 62.784 0 62.7609 0C61.5774 0 60.4631 0.420043 59.6145 1.18569L23.4389 33.9278L14.1035 38.6386L15.7662 41.4354L63.2343 17.4823C63.7308 17.2324 64.3543 17.3972 64.6257 17.8598L80.4849 44.5192C80.7563 44.9765 80.5715 45.5507 80.075 45.8006L32.5665 69.775L34.2292 72.5717L81.7493 48.5974C83.9201 47.5021 84.7168 44.9818 83.5275 42.9826L79.9249 36.9266L88.6715 28.9883C90.4093 27.4091 90.4497 24.8091 88.7639 23.1821ZM86.2409 26.7179L78.1929 34.0182L67.6682 16.3232C66.4789 14.324 63.7424 13.5903 61.5716 14.6856L34.6103 28.2918L62.045 3.46137C62.2413 3.28059 62.5242 3.17425 62.7782 3.1902C63.0553 3.19552 63.3151 3.29654 63.5057 3.48264L86.264 25.3887C86.6451 25.7609 86.6335 26.3564 86.2409 26.7179Z" fill="#FD780F"/>
<path d="M15.7664 41.807L12.7285 43.3398L15.497 47.9935L18.535 46.4606L15.7664 41.807Z" fill="#FD780F"/>
<path d="M20.1668 49.1966L17.1289 50.7295L20.1748 55.8495L23.2127 54.3166L20.1668 49.1966Z" fill="#FD780F"/>
<path d="M24.8367 57.0452L21.7988 58.5781L24.8448 63.6981L27.8827 62.1652L24.8367 57.0452Z" fill="#FD780F"/>
<path d="M29.5106 64.9007L26.4727 66.4336L29.2412 71.0873L32.2791 69.5544L29.5106 64.9007Z" fill="#FD780F"/>
<path d="M52.5822 30.9183L52.3051 30.5568C52.155 30.36 51.8721 30.2856 51.6296 30.376L51.1851 30.5408C50.1459 30.9236 49.3665 31.7425 49.0893 32.7421L47.1033 38.713L34.2289 43.2431L33.4668 45.6464L45.4637 44.3225L43.7952 52.0215L40.6315 54.0047L40.262 55.1639L44.2975 54.6428L47.392 57.0833L47.7615 55.9242L46.1681 52.7872L49.3145 45.3168L58.6846 52.4309L59.4467 50.0276L51.2255 39.8084L53.0614 33.8161C53.4136 32.8324 53.2346 31.7584 52.5822 30.9183Z" fill="#FD780F"/>
</g>
<defs>
<clipPath id="clip0_53:1409">
<rect width="90" height="79" fill="white"/>
</clipPath>
</defs>
</svg>
