<svg width="63" height="78" viewBox="0 0 63 78" fill="none" xmlns="http://www.w3.org/2000/svg">
<path d="M7.54476 47.8103V48.8103H8.54476H54.1061H55.1061V47.8103V22.4056V21.4056H54.1061H8.54476H7.54476V22.4056V47.8103ZM55.1311 48.8302H7.53019C7.52736 48.8302 7.52585 48.8299 7.52529 48.8298L7.52385 48.8294C7.52295 48.829 7.52115 48.828 7.51911 48.8259C7.51702 48.8238 7.51602 48.822 7.51572 48.8213C7.51569 48.8212 7.51562 48.8214 7.51562 48.8202V21.3957C7.51562 21.3948 7.51566 21.3943 7.51569 21.3939C7.51599 21.3934 7.51668 21.3924 7.51799 21.3911C7.52011 21.389 7.52247 21.3875 7.52435 21.3867C7.52564 21.3862 7.52713 21.3857 7.53019 21.3857H55.1311C55.134 21.3857 55.1355 21.386 55.1361 21.3861L55.1375 21.3866C55.1384 21.3869 55.1402 21.3879 55.1422 21.39C55.1443 21.3921 55.1453 21.3939 55.1456 21.3946L55.1456 21.3947C55.1457 21.3947 55.1457 21.3948 55.1457 21.3957V48.8202C55.1457 48.8211 55.1457 48.8217 55.1456 48.822C55.1454 48.8225 55.1447 48.8235 55.1434 48.8248C55.1412 48.8269 55.1389 48.8284 55.137 48.8292C55.1357 48.8297 55.1342 48.8302 55.1311 48.8302Z" fill="#FD780F" stroke="#FD780F" stroke-width="2"/>
<path d="M11.7186 10.4013V11.4013H12.7186H49.9333H50.9333V10.4013V2.03029V1.03029H49.9333H12.7186H11.7186V2.03029V10.4013ZM50.9583 11.4316H11.704C11.7012 11.4316 11.6997 11.4314 11.6991 11.4313L11.6977 11.4308C11.6968 11.4304 11.695 11.4294 11.6929 11.4274C11.6908 11.4253 11.6898 11.4234 11.6896 11.4227C11.6895 11.4227 11.6895 11.4227 11.6895 11.4226C11.6895 11.4225 11.6895 11.4223 11.6895 11.4217V1.00994C11.6895 1.0091 11.6895 1.00851 11.6895 1.00815C11.6898 1.00766 11.6905 1.00665 11.6918 1.00536C11.6939 1.00326 11.6963 1.0018 11.6982 1.00101C11.6995 1.00047 11.701 1 11.704 1H50.9583C50.9612 1 50.9627 1.00027 50.9632 1.00038L50.9647 1.00082C50.9656 1.0012 50.9674 1.0022 50.9694 1.00424C50.9715 1.00634 50.9725 1.00819 50.9728 1.0089L50.9728 1.00893C50.9729 1.00897 50.9729 1.00901 50.9729 1.00994V11.4113C50.9729 11.4175 50.9718 11.4207 50.9711 11.4223C50.9702 11.4246 50.9687 11.4268 50.9669 11.4286C50.9652 11.4304 50.9639 11.431 50.9636 11.4311L50.963 11.4313C50.9626 11.4314 50.9612 11.4316 50.9583 11.4316Z" fill="#FD780F" stroke="#FD780F" stroke-width="2"/>
<path d="M55.1432 21.4048L55.1432 21.4048L55.1427 21.4055C55.1399 21.406 55.1359 21.4065 55.1306 21.4065H7.52968C7.52842 21.4065 7.5248 21.4062 7.51968 21.4036C7.51724 21.4024 7.51524 21.401 7.51381 21.3998C7.51319 21.3993 7.51279 21.3989 7.51256 21.3987L3.77447 16.3576C3.77436 16.3575 3.77426 16.3573 3.77415 16.3572C3.77198 16.3542 3.77107 16.3521 3.77063 16.3509C3.77013 16.3496 3.76977 16.3481 3.76961 16.3463C3.76948 16.3447 3.76946 16.3423 3.76999 16.3392C3.77036 16.339 3.77114 16.3387 3.77253 16.3383C3.77434 16.3378 3.77837 16.3369 3.7852 16.3369H58.8751C58.8773 16.3369 58.8787 16.3372 58.8797 16.3375C58.8809 16.3378 58.8829 16.3386 58.8854 16.3401C58.8877 16.3416 58.8903 16.3435 58.8929 16.3461C58.8915 16.3489 58.8895 16.3526 58.8863 16.357C58.8862 16.3572 58.886 16.3574 58.8858 16.3576L55.1432 21.4048ZM7.23788 20.9808L7.53767 21.3866H8.0422H54.6077H55.1108L55.4107 20.9826L57.6594 17.9528L58.844 16.3568H56.8564H5.80387H3.82182L4.99956 17.951L7.23788 20.9808Z" fill="#FD780F" stroke="#FD780F" stroke-width="2"/>
<path d="M4.78711 48.8408V48.8105H57.877V48.8408H4.78711Z" fill="#FD780F" stroke="#FD780F" stroke-width="2"/>
<path d="M2.01367 76.2549V76.2246H60.6367V76.2549H2.01367Z" fill="#FD780F" stroke="#FD780F" stroke-width="2"/>
<path d="M18.5625 57.4932V57.4629H44.1127V57.4932H18.5625Z" fill="#FD780F" stroke="#FD780F" stroke-width="2"/>
<path d="M1.4082 16.3672V16.3369H61.2549V16.3672H1.4082Z" fill="#FD780F" stroke="#FD780F" stroke-width="2"/>
<path d="M20.201 75.2249V76.2249H21.201H41.461H42.461V75.2249V58.4932V57.4932H41.461H21.201H20.201V58.4932V75.2249ZM42.4755 76.2552H20.1864C20.1836 76.2552 20.1821 76.2549 20.1815 76.2548L20.1801 76.2543C20.1792 76.254 20.1774 76.253 20.1754 76.2509C20.1733 76.2488 20.1723 76.247 20.172 76.2463C20.1719 76.2462 20.1719 76.2464 20.1719 76.2452V57.4728C20.1719 57.472 20.1719 57.4714 20.1719 57.471C20.1722 57.4705 20.1729 57.4695 20.1742 57.4682C20.1764 57.4662 20.1787 57.4647 20.1806 57.4639C20.1819 57.4634 20.1834 57.4629 20.1864 57.4629H42.4755C42.4784 57.4629 42.4799 57.4632 42.4804 57.4633L42.4819 57.4637C42.4828 57.4641 42.4846 57.4651 42.4866 57.4671C42.4887 57.4692 42.4897 57.4711 42.49 57.4718C42.49 57.4719 42.4901 57.4717 42.4901 57.4728V76.2348C42.4901 76.2411 42.489 76.2442 42.4883 76.2459C42.4874 76.2481 42.4859 76.2503 42.4841 76.2521C42.4833 76.253 42.4826 76.2536 42.482 76.2539C42.4814 76.2544 42.481 76.2546 42.4808 76.2546L42.4802 76.2548C42.4798 76.2549 42.4784 76.2552 42.4755 76.2552Z" fill="#FD780F" stroke="#FD780F" stroke-width="2"/>
<path d="M13.3397 40.3454V41.3454H14.3397H20.3957H21.3957V40.3454V31.308V30.308H20.3957H14.3397H13.3397V31.308V40.3454ZM21.4207 41.3757H13.3251C13.3223 41.3757 13.3208 41.3754 13.3202 41.3753L13.3188 41.3748C13.3179 41.3745 13.3161 41.3735 13.314 41.3714C13.3119 41.3693 13.3109 41.3675 13.3106 41.3668C13.3106 41.3667 13.3106 41.3667 13.3106 41.3667C13.3106 41.3666 13.3105 41.3664 13.3105 41.3657V30.298C13.3105 30.2972 13.3106 30.2966 13.3106 30.2962C13.3109 30.2957 13.3116 30.2947 13.3129 30.2934C13.315 30.2913 13.3174 30.2899 13.3193 30.2891C13.3206 30.2886 13.322 30.2881 13.3251 30.2881H21.4207C21.4236 30.2881 21.4251 30.2884 21.4256 30.2885L21.4271 30.2889C21.428 30.2893 21.4298 30.2903 21.4318 30.2923C21.4339 30.2944 21.4349 30.2963 21.4352 30.297C21.4352 30.2971 21.4353 30.2969 21.4353 30.298V41.3628C21.4345 41.3641 21.433 41.3664 21.4304 41.3689C21.4267 41.3726 21.4231 41.3746 21.4213 41.3754C21.421 41.3755 21.4208 41.3756 21.4207 41.3757Z" fill="#FD780F" stroke="#FD780F" stroke-width="2"/>
<path d="M35.3884 41.3657V41.3714C35.387 41.3724 35.3855 41.3732 35.3839 41.3739C35.3817 41.3748 35.3789 41.3757 35.3739 41.3757H27.2782C27.2754 41.3757 27.2739 41.3754 27.2733 41.3753L27.2719 41.3748C27.271 41.3745 27.2692 41.3735 27.2672 41.3714C27.2651 41.3693 27.2641 41.3675 27.2638 41.3668C27.2638 41.3667 27.2637 41.3667 27.2637 41.3667C27.2637 41.3666 27.2637 41.3664 27.2637 41.3657V30.298C27.2637 30.2946 27.264 30.2927 27.2641 30.2921C27.2643 30.2914 27.2644 30.2912 27.2643 30.2913C27.2642 30.2915 27.2642 30.2913 27.2646 30.2909C27.2651 30.2905 27.2657 30.2901 27.2667 30.2896C27.2671 30.2894 27.2681 30.2891 27.2696 30.2888C27.2711 30.2885 27.2738 30.2881 27.2782 30.2881H35.3739C35.3767 30.2881 35.3782 30.2884 35.3788 30.2885L35.3802 30.2889C35.3811 30.2893 35.3829 30.2903 35.3849 30.2923C35.387 30.2944 35.388 30.2963 35.3883 30.297C35.3883 30.297 35.3883 30.297 35.3883 30.297C35.3884 30.2971 35.3884 30.2971 35.3884 30.298V41.3657ZM27.3033 40.3454V41.3454H28.3033H34.3593H35.3593V40.3454V31.308V30.308H34.3593H28.3033H27.3033V31.308V40.3454Z" fill="#FD780F" stroke="#FD780F" stroke-width="2"/>
<path d="M41.2557 40.3454V41.3454H42.2557H48.3117H49.3117V40.3454V31.308V30.308H48.3117H42.2557H41.2557V31.308V40.3454ZM49.3367 41.3757H41.2411C41.2383 41.3757 41.2368 41.3754 41.2362 41.3753L41.2348 41.3748C41.2339 41.3745 41.2321 41.3735 41.23 41.3714C41.228 41.3693 41.227 41.3675 41.2267 41.3668C41.2267 41.3667 41.2266 41.3667 41.2266 41.3667C41.2266 41.3667 41.2266 41.3666 41.2266 41.3657V30.298C41.2266 30.2972 41.2266 30.2966 41.2266 30.2962C41.2269 30.2957 41.2276 30.2947 41.2289 30.2934C41.231 30.2914 41.2334 30.2899 41.2353 30.2891C41.2366 30.2886 41.2381 30.2881 41.2411 30.2881H49.3367C49.3396 30.2881 49.3411 30.2884 49.3416 30.2885L49.3431 30.2889C49.344 30.2893 49.3458 30.2903 49.3478 30.2923C49.3499 30.2944 49.3509 30.2963 49.3512 30.297C49.3512 30.297 49.3512 30.297 49.3512 30.297C49.3513 30.2971 49.3513 30.2971 49.3513 30.298V41.3657C49.3513 41.3667 49.3513 41.3667 49.3512 41.3667C49.3512 41.3667 49.3512 41.3667 49.3512 41.3668C49.3509 41.3675 49.3499 41.3693 49.3478 41.3714C49.3471 41.3722 49.3463 41.3728 49.3457 41.3733C49.3446 41.3741 49.3436 41.3746 49.3431 41.3748L49.3416 41.3753C49.3411 41.3754 49.3396 41.3757 49.3367 41.3757Z" fill="#FD780F" stroke="#FD780F" stroke-width="2"/>
<path d="M61.6341 62.0541L61.634 62.0506C61.6217 58.4792 58.705 55.5775 55.1324 55.5775C51.5512 55.5775 48.6307 58.4781 48.6307 62.0541C48.6307 65.6301 51.5512 68.5307 55.1324 68.5307C58.7136 68.5307 61.634 65.6301 61.6341 62.0541ZM55.1324 68.5505C51.5279 68.5505 48.6016 65.631 48.6016 62.0541C48.6016 58.4772 51.5279 55.5576 55.1324 55.5576C58.7368 55.5576 61.6632 58.4772 61.6632 62.0541C61.6632 65.631 58.7368 68.5505 55.1324 68.5505Z" fill="#FD780F" stroke="#FD780F" stroke-width="2"/>
<path d="M17.5371 15.3463V12.4111H17.5767V15.3463H17.5371Z" fill="#FD780F" stroke="#FD780F" stroke-width="2"/>
<path d="M45.0859 15.3463V12.4111H45.1255V15.3463H45.0859Z" fill="#FD780F" stroke="#FD780F" stroke-width="2"/>
<path d="M31.3105 74.5162V58.4727H31.3501V74.5162H31.3105Z" fill="#FD780F" stroke="#FD780F" stroke-width="2"/>
<path d="M7.53081 68.5505C3.92637 68.5505 1 65.631 1 62.0541C1 58.4772 3.92637 55.5576 7.53081 55.5576C11.1352 55.5576 14.0616 58.4772 14.0616 62.0541C14.0616 65.631 11.1352 68.5505 7.53081 68.5505ZM7.53081 55.5775C3.94959 55.5775 1.02913 58.4781 1.02913 62.0541C1.02913 65.6301 3.94959 68.5307 7.53081 68.5307C11.112 68.5307 14.0325 65.6301 14.0325 62.0541C14.0325 58.4781 11.112 55.5775 7.53081 55.5775Z" fill="#FD780F" stroke="#FD780F" stroke-width="2"/>
<path d="M7.54476 75.2247V76.2247H8.54476H54.1061H55.1061V75.2247V69.4774V68.6043L54.241 68.4866C51.0536 68.0527 48.5899 65.3214 48.5899 62.0434C48.5899 58.7655 51.0536 56.0342 54.241 55.6003L55.1061 55.4825V54.6094V49.82V48.82H54.1061H8.54476H7.54476V49.82V54.6094V55.4825L8.40987 55.6003C11.5973 56.0342 14.061 58.7655 14.061 62.0434C14.061 65.3214 11.5973 68.0527 8.40987 68.4866L7.54476 68.6043V69.4774V75.2247ZM55.1311 76.255H7.53019C7.52736 76.255 7.52585 76.2547 7.52529 76.2546L7.52385 76.2542C7.52294 76.2538 7.52115 76.2528 7.51911 76.2507C7.51702 76.2486 7.51602 76.2468 7.51572 76.2461L7.5157 76.2461C7.51567 76.246 7.51562 76.246 7.51562 76.2451V68.5404C7.51562 68.5395 7.51566 68.5389 7.51569 68.5386C7.51599 68.5381 7.51668 68.5371 7.51799 68.5358C7.52011 68.5337 7.52247 68.5322 7.52435 68.5314C7.52564 68.5309 7.52713 68.5304 7.53019 68.5304C11.1114 68.5304 14.0319 65.6298 14.0319 62.0538C14.0319 58.4778 11.1114 55.5772 7.53019 55.5772C7.52736 55.5772 7.52585 55.577 7.52529 55.5769L7.52385 55.5764C7.52295 55.576 7.52115 55.575 7.51911 55.573C7.51702 55.5709 7.51602 55.569 7.51572 55.5683C7.51569 55.5683 7.51562 55.5684 7.51562 55.5673V48.8205C7.51562 48.8196 7.51566 48.8191 7.51569 48.8187C7.51599 48.8182 7.51668 48.8172 7.51799 48.8159C7.52011 48.8138 7.52247 48.8123 7.52435 48.8116C7.52564 48.811 7.52713 48.8105 7.53019 48.8105H55.1311C55.134 48.8105 55.1355 48.8108 55.1361 48.8109L55.1375 48.8114C55.1384 48.8118 55.1402 48.8127 55.1422 48.8148C55.1443 48.8169 55.1453 48.8187 55.1456 48.8195L55.1456 48.8195C55.1457 48.8195 55.1457 48.8196 55.1457 48.8205V55.5673C55.1457 55.5682 55.1457 55.5687 55.1456 55.5691C55.1454 55.5696 55.1447 55.5706 55.1434 55.5719C55.1412 55.574 55.1389 55.5755 55.137 55.5762C55.1357 55.5768 55.1342 55.5772 55.1311 55.5772C51.5499 55.5772 48.6295 58.4778 48.6295 62.0538C48.6295 65.6298 51.5499 68.5304 55.1311 68.5304C55.134 68.5304 55.1355 68.5307 55.1361 68.5308L55.1375 68.5312C55.1384 68.5316 55.1402 68.5326 55.1422 68.5347C55.1443 68.5368 55.1453 68.5386 55.1456 68.5393C55.1457 68.5394 55.1457 68.5392 55.1457 68.5404V76.2421C55.1449 76.2435 55.1434 76.2457 55.1408 76.2482C55.1394 76.2497 55.1379 76.2509 55.1366 76.2519C55.1346 76.2533 55.1328 76.2543 55.1317 76.2547C55.1315 76.2549 55.1312 76.2549 55.1311 76.255Z" fill="#FD780F" stroke="#FD780F" stroke-width="2"/>
<path d="M22.4219 6.16311V6.13281H40.2425V6.16311H22.4219Z" fill="#FD780F" stroke="#FD780F" stroke-width="2"/>
</svg>
