<svg width="75" height="92" viewBox="0 0 75 92" fill="none" xmlns="http://www.w3.org/2000/svg">
<path d="M37.5001 88.8568L36.4367 88.5299C33.3602 87.589 25.8094 83.3583 18.6598 76.8856C11.517 70.4261 3.00977 60.2232 3.00977 48.312V13.5259L6.69489 13.5726C6.94235 13.5726 7.1965 13.5793 7.45733 13.5793C14.0585 13.5793 26.4448 12.545 35.2396 5.61176L37.5001 3.83008L39.7607 5.61176C48.5488 12.545 60.9351 13.5793 67.5429 13.5793C67.8038 13.5793 68.0579 13.5793 68.3054 13.5726L71.9905 13.5259V48.3053C71.9905 60.2165 63.4833 70.4195 56.3404 76.8789C49.1909 83.3516 41.6401 87.589 38.5635 88.5232L37.5001 88.8568Z" stroke="#FD780F" stroke-width="3.45141" stroke-miterlimit="10"/>
<path d="M43.8735 27.0117H31.126V36.881H21.2344V49.5997H31.126V59.469H43.8735V49.5997H53.7651V36.881H43.8735V27.0117ZM49.7523 40.8848V45.5959H39.8606V55.4652H35.1389V45.5959H25.2472V40.8848H35.1389V31.0155H39.8606V40.8848H49.7523Z" fill="#FD780F"/>
</svg>
