<svg width="88" height="88" viewBox="0 0 88 88" fill="none" xmlns="http://www.w3.org/2000/svg">
<path d="M85.4717 50.0925C85.4751 50.0755 85.477 50.0595 85.48 50.0324L85.4717 50.0925ZM85.4717 50.0925L85.7168 50.1415M85.4717 50.0925L85.7168 50.1415M85.7168 50.1415L85.9619 50.1905M85.7168 50.1415L85.9619 50.1905M85.9619 50.1905C85.9699 50.1507 85.9738 50.1153 85.9766 50.0901L85.9619 50.1905ZM85.4949 49.9295C85.487 49.9694 85.483 50.0047 85.4802 50.0299L85.9769 50.0876C85.9799 50.0606 85.9818 50.0446 85.9852 50.0275L85.7401 49.9785L85.4949 49.9295Z" fill="#FD780F" stroke="#FD780F" stroke-width="0.5"/>
<path d="M84.7861 55.0645H84.979L85.0279 54.8779C85.414 53.4035 85.7181 51.883 85.9403 50.3513L85.4457 50.2777C85.2143 51.7932 84.9136 53.2965 84.5438 54.753L84.7773 54.8123L84.7773 54.8145V55.0645H84.7773H84.7774H84.7774H84.7774H84.7774H84.7774H84.7774H84.7774H84.7774H84.7774H84.7774H84.7774H84.7774H84.7774H84.7774H84.7774H84.7774H84.7774H84.7774H84.7775H84.7775H84.7775H84.7775H84.7775H84.7775H84.7775H84.7775H84.7775H84.7775H84.7775H84.7776H84.7776H84.7776H84.7776H84.7776H84.7776H84.7776H84.7776H84.7777H84.7777H84.7777H84.7777H84.7777H84.7777H84.7777H84.7777H84.7778H84.7778H84.7778H84.7778H84.7778H84.7778H84.7779H84.7779H84.7779H84.7779H84.7779H84.7779H84.778H84.778H84.778H84.778H84.778H84.7781H84.7781H84.7781H84.7781H84.7781H84.7782H84.7782H84.7782H84.7782H84.7782H84.7783H84.7783H84.7783H84.7783H84.7784H84.7784H84.7784H84.7784H84.7784H84.7785H84.7785H84.7785H84.7785H84.7786H84.7786H84.7786H84.7786H84.7787H84.7787H84.7787H84.7788H84.7788H84.7788H84.7788H84.7789H84.7789H84.7789H84.779H84.779H84.779H84.779H84.7791H84.7791H84.7791H84.7792H84.7792H84.7792H84.7793H84.7793H84.7793H84.7794H84.7794H84.7794H84.7795H84.7795H84.7795H84.7796H84.7796H84.7796H84.7797H84.7797H84.7797H84.7798H84.7798H84.7798H84.7799H84.7799H84.78H84.78H84.78H84.7801H84.7801H84.7801H84.7802H84.7802H84.7803H84.7803H84.7803H84.7804H84.7804H84.7805H84.7805H84.7805H84.7806H84.7806H84.7807H84.7807H84.7807H84.7808H84.7808H84.7809H84.7809H84.781H84.781H84.7811H84.7811H84.7811H84.7812H84.7812H84.7813H84.7813H84.7814H84.7814H84.7815H84.7815H84.7816H84.7816H84.7817H84.7817H84.7818H84.7818H84.7818H84.7819H84.7819H84.782H84.782H84.7821H84.7821H84.7822H84.7822H84.7823H84.7824H84.7824H84.7825H84.7825H84.7826H84.7826H84.7827H84.7827H84.7828H84.7828H84.7829H84.7829H84.783H84.783H84.7831H84.7832H84.7832H84.7833H84.7833H84.7834H84.7834H84.7835H84.7836H84.7836H84.7837H84.7837H84.7838H84.7838H84.7839H84.784H84.784H84.7841H84.7841H84.7842H84.7843H84.7843H84.7844H84.7844H84.7845H84.7846H84.7846H84.7847H84.7848H84.7848H84.7849H84.7849H84.785H84.7851H84.7851H84.7852H84.7853H84.7853H84.7854H84.7855H84.7855H84.7856H84.7857H84.7857H84.7858H84.7859H84.7859H84.786H84.7861Z" fill="#FD780F" stroke="#FD780F" stroke-width="0.5"/>
<path d="M82.9335 27.3722C81.5419 24.1681 79.776 21.1741 77.6708 18.4374L77.4727 18.5898L77.2745 18.7423C79.3545 21.4463 81.0996 24.4047 82.4749 27.5714L82.7042 27.4718L82.9335 27.3722Z" fill="#FD780F" stroke="#FD780F" stroke-width="0.5"/>
<path d="M84.9853 35.4153L85.4714 35.2984C85.4359 35.1447 85.4005 35.0029 85.3657 34.8635L85.3656 34.8632C85.3656 34.8632 85.3656 34.8632 85.3656 34.8632L85.123 34.9238L84.8805 34.9845C84.8976 35.053 84.9148 35.1246 84.9323 35.1976L84.9325 35.1982C84.9499 35.2706 84.9676 35.3443 84.9853 35.4153Z" fill="#FD780F" stroke="#FD780F" stroke-width="0.5"/>
<path d="M83.5618 28.9191L83.0916 29.0863C83.1193 29.1831 83.1596 29.277 83.1928 29.3545C83.1937 29.3565 83.1945 29.3586 83.1954 29.3606L83.6656 29.1934C83.6379 29.0965 83.5976 29.0026 83.5644 28.9252C83.5636 28.9232 83.5627 28.9211 83.5618 28.9191Z" fill="#FD780F" stroke="#FD780F" stroke-width="0.5"/>
<path d="M84.7636 54.8154C84.7753 54.8154 84.7753 54.8037 84.7753 54.8037L85.0253 54.8036L84.7636 54.7777L84.5303 54.7547C84.5334 54.7398 84.5392 54.7198 84.5501 54.6979C84.5642 54.6697 84.5893 54.6338 84.6316 54.6056C84.6755 54.5763 84.7227 54.5654 84.7636 54.5654H84.5136V54.8154C84.5136 54.8247 84.5129 54.8354 84.5115 54.846C84.5068 54.8668 84.5022 54.8832 84.4964 54.8978L84.7636 55.0178L84.7729 54.8154H84.7636ZM84.7636 54.8154C84.7636 54.8395 84.7616 54.8656 84.7576 54.8912C84.7597 54.8818 84.7617 54.8723 84.7636 54.863V54.8154Z" fill="#FD780F" stroke="#FD780F" stroke-width="0.5"/>
<path d="M84.3688 32.9376C84.3881 33.0148 84.4103 33.0876 84.4308 33.1535C84.4337 33.1627 84.4365 33.1718 84.4393 33.1806C84.457 33.2373 84.4728 33.288 84.4866 33.3386L84.7278 33.2729L84.969 33.2071C84.9526 33.1469 84.9338 33.0868 84.9163 33.0307C84.9136 33.0221 84.9109 33.0135 84.9083 33.005C84.888 32.94 84.8695 32.8788 84.8539 32.8163L84.6113 32.877L84.3688 32.9376Z" fill="#FD780F" stroke="#FD780F" stroke-width="0.5"/>
<path d="M85.9881 50.0111C86.0231 49.7429 86.0581 49.4632 86.0929 49.1843L85.8449 49.1533L85.5968 49.1223C85.5619 49.4015 85.5271 49.6798 85.4923 49.9464L85.7402 49.9788L85.9881 50.0111Z" fill="#FD780F" stroke="#FD780F" stroke-width="0.5"/>
<path d="M86.3727 43.2346L85.873 43.2471C85.873 43.3792 85.8789 43.5105 85.8846 43.6367L85.8849 43.6434C85.8908 43.7734 85.8963 43.8988 85.8963 44.026H86.1463H86.3963V44.0258V44.0257V44.0256V44.0254V44.0253V44.0252V44.025V44.0249V44.0248V44.0246V44.0245V44.0244V44.0242V44.0241V44.0239V44.0238V44.0237V44.0235V44.0234V44.0233V44.0231V44.023V44.0229V44.0227V44.0226V44.0224V44.0223V44.0222V44.022V44.0219V44.0218V44.0216V44.0215V44.0214V44.0212V44.0211V44.0209V44.0208V44.0207V44.0205V44.0204V44.0203V44.0201V44.02V44.0198V44.0197V44.0196V44.0194V44.0193V44.0192V44.019V44.0189V44.0188V44.0186V44.0185V44.0183V44.0182V44.0181V44.0179V44.0178V44.0177V44.0175V44.0174V44.0172V44.0171V44.017V44.0168V44.0167V44.0166V44.0164V44.0163V44.0161V44.016V44.0159V44.0157V44.0156V44.0155V44.0153V44.0152V44.015V44.0149V44.0148V44.0146V44.0145V44.0144V44.0142V44.0141V44.0139V44.0138V44.0137V44.0135V44.0134V44.0132V44.0131V44.013V44.0128V44.0127V44.0126V44.0124V44.0123V44.0121V44.012V44.0119V44.0117V44.0116V44.0114V44.0113V44.0112V44.011V44.0109V44.0107V44.0106V44.0105V44.0103V44.0102V44.01V44.0099V44.0098V44.0096V44.0095V44.0093V44.0092V44.0091V44.0089V44.0088V44.0086V44.0085V44.0084V44.0082V44.0081V44.0079V44.0078V44.0077V44.0075V44.0074V44.0072V44.0071V44.007V44.0068V44.0067V44.0065V44.0064V44.0063V44.0061V44.006V44.0058V44.0057V44.0055V44.0054V44.0053V44.0051V44.005V44.0048V44.0047V44.0045V44.0044V44.0043V44.0041V44.004V44.0038V44.0037V44.0035V44.0034V44.0033V44.0031V44.003V44.0028V44.0027V44.0025V44.0024V44.0023V44.0021V44.002V44.0018V44.0017V44.0015V44.0014V44.0012V44.0011V44.001V44.0008V44.0007V44.0005V44.0004V44.0002V44.0001V43.9999V43.9998V43.9997V43.9995V43.9994V43.9992V43.9991V43.9989V43.9988V43.9986V43.9985V43.9983V43.9982V43.998V43.9979V43.9978V43.9976V43.9975V43.9973V43.9972V43.997V43.9969V43.9967V43.9966V43.9964V43.9963V43.9961V43.996V43.9958V43.9957V43.9955V43.9954V43.9952V43.9951V43.9949V43.9948V43.9946V43.9945V43.9943V43.9942V43.994V43.9939V43.9937V43.9936V43.9934V43.9933V43.9931V43.993V43.9928V43.9927V43.9925V43.9924V43.9922V43.9921V43.9919V43.9918V43.9916V43.9915V43.9913V43.9912V43.991V43.9909V43.9907V43.9906V43.9904V43.9903V43.9901V43.99V43.9898V43.9897V43.9895V43.9893V43.9892V43.989V43.9889V43.9887V43.9886V43.9884V43.9883V43.9881V43.988V43.9878V43.9877V43.9875V43.9873V43.9872V43.987V43.9869V43.9867V43.9866V43.9864V43.9863V43.9861V43.9859V43.9858V43.9856V43.9855V43.9853V43.9852V43.985V43.9848V43.9847V43.9845V43.9844V43.9842V43.984V43.9839V43.9837V43.9836V43.9834V43.9833V43.9831V43.9829V43.9828V43.9826V43.9825V43.9823V43.9821V43.982V43.9818V43.9817V43.9815V43.9813V43.9812V43.981V43.9808V43.9807V43.9805V43.9804V43.9802V43.98V43.9799V43.9797V43.9796V43.9794V43.9792V43.9791V43.9789V43.9787V43.9786V43.9784V43.9782V43.9781V43.9779V43.9777V43.9776V43.9774V43.9773V43.9771V43.9769V43.9768V43.9766V43.9764V43.9763V43.9761V43.9759V43.9758V43.9756V43.9754V43.9753V43.9751V43.9749V43.9748V43.9746V43.9744V43.9743V43.9741V43.9739V43.9737V43.9736V43.9734V43.9732V43.9731V43.9729V43.9727V43.9726V43.9724V43.9722V43.972V43.9719V43.9717V43.9715V43.9714V43.9712V43.971V43.9708V43.9707V43.9705V43.9703V43.9702V43.97V43.9698V43.9696V43.9695V43.9693V43.9691V43.9689V43.9688V43.9686V43.9684V43.9682V43.9681V43.9679V43.9677V43.9675V43.9674V43.9672V43.967V43.9668V43.9667V43.9665V43.9663V43.9661V43.9659V43.9658V43.9656V43.9654V43.9652V43.9651V43.9649V43.9647V43.9645V43.9643V43.9642V43.964V43.9638V43.9636V43.9634V43.9633V43.9631V43.9629V43.9627V43.9625V43.9623V43.9622V43.962V43.9618V43.9616V43.9614V43.9613V43.9611V43.9609V43.9607V43.9605V43.9603V43.9601V43.96V43.9598V43.9596V43.9594V43.9592V43.959V43.9588V43.9587V43.9585V43.9583V43.9581V43.9579V43.9577V43.9575V43.9574V43.9572V43.957V43.9568V43.9566V43.9564V43.9562V43.956V43.9558V43.9556V43.9555V43.9553V43.9551V43.9549V43.9547V43.9545V43.9543V43.9541V43.9539V43.9537V43.9535V43.9533V43.9532V43.953V43.9528V43.9526V43.9524V43.9522V43.952V43.9518V43.9516V43.9514V43.9512V43.951V43.9508V43.9506V43.9504V43.9502V43.95V43.9498V43.9496V43.9494V43.9492V43.949V43.9488V43.9486V43.9484V43.9482V43.948V43.9478V43.9476V43.9474V43.9472V43.947V43.9468V43.9466V43.9464V43.9462V43.946V43.9458V43.9456V43.9454V43.9452V43.945V43.9448V43.9446C86.3963 43.7058 86.3844 43.468 86.3729 43.2374L86.3727 43.2346Z" fill="#FD780F" stroke="#FD780F" stroke-width="0.5"/>
<path d="M86.2776 41.1602L85.7797 41.2033C85.7857 41.3117 85.7947 41.4166 85.8033 41.5172L85.8035 41.5189C85.8122 41.6212 85.8206 41.7192 85.8262 41.8195L86.3258 41.8056C86.3258 41.5799 86.3008 41.3572 86.2776 41.1602Z" fill="#FD780F" stroke="#FD780F" stroke-width="0.5"/>
<path d="M84.243 30.833L83.7664 30.984C83.7861 31.0496 83.8087 31.111 83.8285 31.1646L83.8295 31.1674C83.8503 31.2237 83.868 31.272 83.8829 31.3216L84.1223 31.2498L84.3618 31.178C84.3394 31.1033 84.3075 31.0147 84.2806 30.9397C84.2658 30.8985 84.2525 30.8614 84.243 30.833Z" fill="#FD780F" stroke="#FD780F" stroke-width="0.5"/>
<path d="M85.8847 45.0264C85.8847 45.2021 85.8846 45.3682 85.8736 45.5329L86.123 45.5495L86.3725 45.5662C86.3847 45.3834 86.3847 45.202 86.3847 45.0301V45.0264H86.1347H85.8847Z" fill="#FD780F" stroke="#FD780F" stroke-width="0.5"/>
<path d="M80.9216 64.1575L80.6003 64.8193L81.2583 64.4903C81.285 64.477 81.3186 64.4568 81.3509 64.4246C81.3831 64.3923 81.4032 64.3587 81.4166 64.332L81.4166 64.332L81.4187 64.3276C82.2195 62.6448 82.6419 61.7418 83.0405 60.7221C83.3545 59.9798 83.6472 59.226 83.9192 58.4631C84.3176 57.3543 84.6719 56.2236 84.9802 55.0776L84.4976 54.9469C84.1892 56.0778 83.8403 57.1961 83.4485 58.2946C83.1554 59.1105 82.8383 59.9143 82.498 60.7033L82.4979 60.7032L82.4958 60.7085C82.1038 61.6771 81.6998 62.5546 80.9216 64.1575Z" fill="#FD780F" stroke="#FD780F" stroke-width="0.5"/>
<path d="M85.654 39.6421L86.1512 39.5925C86.1428 39.4655 86.1216 39.3289 86.1026 39.2066C86.0941 39.1518 86.0861 39.0998 86.0798 39.0529L85.832 39.0859L85.5842 39.119L85.654 39.6421Z" fill="#FD780F" stroke="#FD780F" stroke-width="0.5"/>
<path d="M85.6534 48.5845L86.1501 48.6409C86.1743 48.4632 86.1883 48.2791 86.2015 48.1042C86.2079 48.021 86.214 47.9399 86.2211 47.8625C86.2211 47.8625 86.2211 47.8625 86.2211 47.8625L85.9721 47.8398L85.7231 47.8172C85.7231 47.8172 85.7231 47.8173 85.7231 47.8173L85.6534 48.5845Z" fill="#FD780F" stroke="#FD780F" stroke-width="0.5"/>
<path d="M85.7764 36.9552L85.2818 37.0285C85.2943 37.1161 85.3098 37.1996 85.3244 37.2768C85.3256 37.2833 85.3268 37.2897 85.328 37.2961C85.3415 37.3672 85.3538 37.4322 85.3637 37.4969L85.6108 37.4589L85.8579 37.4209C85.8457 37.3415 85.8305 37.2597 85.8162 37.1824L85.8159 37.1805C85.8012 37.1012 85.7874 37.0264 85.7764 36.9552Z" fill="#FD780F" stroke="#FD780F" stroke-width="0.5"/>
<path d="M85.8263 46.4422L85.8262 46.4435C85.8146 46.6524 85.803 46.8608 85.7914 47.0575L86.041 47.0722L86.2906 47.0869C86.3022 46.8893 86.3138 46.6803 86.3254 46.4717L86.3255 46.4699L86.0759 46.4561L85.8263 46.4422Z" fill="#FD780F" stroke="#FD780F" stroke-width="0.5"/>
<path d="M64.6328 43.2056C64.6444 43.4191 64.6444 43.62 64.6444 43.7913V43.7916C64.6444 43.595 64.6444 43.3805 64.6325 43.1418L64.1328 43.1543V43.1544V43.1546V43.1547V43.1548V43.155V43.1551V43.1552V43.1554V43.1555V43.1556V43.1558V43.1559V43.156V43.1562V43.1563V43.1564V43.1566V43.1567V43.1568V43.157V43.1571V43.1572V43.1574V43.1575V43.1576V43.1578V43.1579V43.158V43.1581V43.1583V43.1584V43.1585V43.1587V43.1588V43.1589V43.159V43.1592V43.1593V43.1594V43.1595V43.1597V43.1598V43.1599V43.16V43.1602V43.1603V43.1604V43.1605V43.1607V43.1608V43.1609V43.161V43.1612V43.1613V43.1614V43.1615V43.1617V43.1618V43.1619V43.162V43.1622V43.1623V43.1624V43.1625V43.1626V43.1628V43.1629V43.163V43.1631V43.1632V43.1634V43.1635V43.1636V43.1637V43.1638V43.164V43.1641V43.1642V43.1643V43.1644V43.1646V43.1647V43.1648V43.1649V43.165V43.1651V43.1653V43.1654V43.1655V43.1656V43.1657V43.1658V43.166V43.1661V43.1662V43.1663V43.1664V43.1665V43.1666V43.1668V43.1669V43.167V43.1671V43.1672V43.1673V43.1674V43.1676V43.1677V43.1678V43.1679V43.168V43.1681V43.1682V43.1684V43.1685V43.1686V43.1687V43.1688V43.1689V43.169V43.1691V43.1693V43.1694V43.1695V43.1696V43.1697V43.1698V43.1699V43.17V43.1701V43.1703V43.1704V43.1705V43.1706V43.1707V43.1708V43.1709V43.171V43.1711V43.1712V43.1713V43.1715V43.1716V43.1717V43.1718V43.1719V43.172V43.1721V43.1722V43.1723V43.1724V43.1725V43.1726V43.1728V43.1729V43.173V43.1731V43.1732V43.1733V43.1734V43.1735V43.1736V43.1737V43.1738V43.1739V43.174V43.1741V43.1743V43.1744V43.1745V43.1746V43.1747V43.1748V43.1749V43.175V43.1751V43.1752V43.1753V43.1754V43.1755V43.1756V43.1757V43.1758V43.1759V43.176V43.1761V43.1763V43.1764V43.1765V43.1766V43.1767V43.1768V43.1769V43.177V43.1771V43.1772V43.1773V43.1774V43.1775V43.1776V43.1777V43.1778V43.1779V43.178V43.1781V43.1782V43.1783V43.1784V43.1785V43.1786V43.1787V43.1789V43.179V43.1791V43.1792V43.1793V43.1794V43.1795V43.1796V43.1797V43.1798V43.1799V43.18V43.1801V43.1802V43.1803V43.1804V43.1805V43.1806V43.1807V43.1808V43.1809V43.181V43.1811V43.1812V43.1813V43.1814V43.1815V43.1816V43.1817V43.1818V43.1819V43.182V43.1821V43.1822V43.1823V43.1824V43.1825V43.1826V43.1827V43.1829V43.183V43.1831V43.1832V43.1833V43.1834V43.1835V43.1836V43.1837V43.1838V43.1839V43.184V43.1841V43.1842V43.1843V43.1844V43.1845V43.1846V43.1847V43.1848V43.1849V43.185V43.1851V43.1852V43.1853V43.1854V43.1855V43.1856V43.1857V43.1858V43.1859V43.186V43.1861V43.1862V43.1863V43.1864V43.1865V43.1866V43.1867V43.1868V43.1869V43.187V43.1872V43.1873V43.1874V43.1875V43.1876V43.1877V43.1878V43.1879V43.188V43.1881V43.1882V43.1883V43.1884V43.1885V43.1886V43.1887V43.1888V43.1889V43.189V43.1891V43.1892V43.1893V43.1894V43.1895V43.1896V43.1897V43.1898V43.1899V43.1901V43.1902V43.1903V43.1904V43.1905V43.1906V43.1907V43.1908V43.1909V43.191V43.1911V43.1912V43.1913V43.1914V43.1915V43.1916V43.1917V43.1918V43.1919V43.192V43.1922V43.1923V43.1924V43.1925V43.1926V43.1927V43.1928V43.1929V43.193V43.1931V43.1932V43.1933V43.1934V43.1935V43.1936V43.1938V43.1939V43.194V43.1941V43.1942V43.1943V43.1944V43.1945V43.1946V43.1947V43.1948V43.1949V43.1951V43.1952V43.1953V43.1954V43.1955V43.1956V43.1957V43.1958V43.1959V43.196V43.1961V43.1963V43.1964V43.1965V43.1966V43.1967V43.1968V43.1969V43.197V43.1971V43.1972V43.1974V43.1975V43.1976V43.1977V43.1978V43.1979V43.198V43.1981V43.1983V43.1984V43.1985V43.1986V43.1987V43.1988V43.1989V43.199V43.1992V43.1993V43.1994V43.1995V43.1996V43.1997V43.1998V43.2V43.2001V43.2002V43.2003V43.2004V43.2005V43.2007V43.2008V43.2009V43.201V43.2011V43.2012V43.2014V43.2015V43.2016V43.2017V43.2018V43.2019V43.2021V43.2022V43.2023V43.2024V43.2025V43.2026V43.2028V43.2029V43.203V43.2031V43.2032V43.2034V43.2035V43.2036V43.2037V43.2038V43.204V43.2041V43.2042V43.2043V43.2045V43.2046V43.2047V43.2048V43.2049V43.2051V43.2052V43.2053V43.2054V43.2056V43.2057V43.2058V43.2059V43.2061V43.2062V43.2063V43.2064V43.2066V43.2067V43.2068V43.2069V43.2071V43.2072V43.2073V43.2074V43.2076V43.2077V43.2078V43.2079V43.2081V43.2082V43.2083V43.2085V43.2086V43.2087V43.2088V43.209V43.2091V43.2092V43.2094V43.2095V43.2096V43.2098V43.2099V43.21V43.2101V43.2103V43.2104V43.2105V43.2107V43.2108V43.2109V43.2111V43.2112V43.2113V43.2115V43.2116V43.2118V43.2119V43.212V43.2122V43.2123V43.2124H64.1324L64.1444 43.7937C64.1444 43.6132 64.1444 43.4282 64.1359 43.2261C64.1357 43.2216 64.1355 43.217 64.1353 43.2124C64.1346 43.1973 64.1339 43.1821 64.1331 43.1668L64.3828 43.1543M64.6328 43.2056V43.2056V43.2054V43.2053V43.2052V43.2051V43.2049V43.2048V43.2047V43.2046V43.2045V43.2043V43.2042V43.2041V43.204V43.2038V43.2037V43.2036V43.2035V43.2034V43.2032V43.2031V43.203V43.2029V43.2028V43.2026V43.2025V43.2024V43.2023V43.2022V43.2021V43.2019V43.2018V43.2017V43.2016V43.2015V43.2014V43.2012V43.2011V43.201V43.2009V43.2008V43.2007V43.2005V43.2004V43.2003V43.2002V43.2001V43.2V43.1998V43.1997V43.1996V43.1995V43.1994V43.1993V43.1992V43.199V43.1989V43.1988V43.1987V43.1986V43.1985V43.1984V43.1983V43.1981V43.198V43.1979V43.1978V43.1977V43.1976V43.1975V43.1974V43.1972V43.1971V43.197V43.1969V43.1968V43.1967V43.1966V43.1965V43.1964V43.1963V43.1961V43.196V43.1959V43.1958V43.1957V43.1956V43.1955V43.1954V43.1953V43.1952V43.1951V43.1949V43.1948V43.1947V43.1946V43.1945V43.1944V43.1943V43.1942V43.1941V43.194V43.1939V43.1938V43.1936V43.1935V43.1934V43.1933V43.1932V43.1931V43.193V43.1929V43.1928V43.1927V43.1926V43.1925V43.1924V43.1923V43.1922V43.192V43.1919V43.1918V43.1917V43.1916V43.1915V43.1914V43.1913V43.1912V43.1911V43.191V43.1909V43.1908V43.1907V43.1906V43.1905V43.1904V43.1903V43.1902V43.1901V43.1899V43.1898V43.1897V43.1896V43.1895V43.1894V43.1893V43.1892V43.1891V43.189V43.1889V43.1888V43.1887V43.1886V43.1885V43.1884V43.1883V43.1882V43.1881V43.188V43.1879V43.1878V43.1877V43.1876V43.1875V43.1874V43.1873V43.1872V43.187V43.1869V43.1868V43.1867V43.1866V43.1865V43.1864V43.1863V43.1862V43.1861V43.186V43.1859V43.1858V43.1857V43.1856V43.1855V43.1854V43.1853V43.1852V43.1851V43.185V43.1849V43.1848V43.1847V43.1846V43.1845V43.1844V43.1843V43.1842V43.1841V43.184V43.1839V43.1838V43.1837V43.1836V43.1835V43.1834V43.1833V43.1832V43.1831V43.183V43.1829V43.1827V43.1826V43.1825V43.1824V43.1823V43.1822V43.1821V43.182V43.1819V43.1818V43.1817V43.1816V43.1815V43.1814V43.1813V43.1812V43.1811V43.181V43.1809V43.1808V43.1807V43.1806V43.1805V43.1804V43.1803V43.1802V43.1801V43.18V43.1799V43.1798V43.1797V43.1796V43.1795V43.1794V43.1793V43.1792V43.1791V43.179V43.1789V43.1787V43.1786V43.1785V43.1784V43.1783V43.1782V43.1781V43.178V43.1779V43.1778V43.1777V43.1776V43.1775V43.1774V43.1773V43.1772V43.1771V43.177V43.1769V43.1768V43.1767V43.1766V43.1765V43.1764V43.1763V43.1761V43.176V43.1759V43.1758V43.1757V43.1756V43.1755V43.1754V43.1753V43.1752V43.1751V43.175V43.1749V43.1748V43.1747V43.1746V43.1745V43.1744V43.1743V43.1741V43.174V43.1739V43.1738V43.1737V43.1736V43.1735V43.1734V43.1733V43.1732V43.1731V43.173V43.1729V43.1728V43.1726V43.1725V43.1724V43.1723V43.1722V43.1721V43.172V43.1719V43.1718V43.1717V43.1716V43.1715V43.1713V43.1712V43.1711V43.171V43.1709V43.1708V43.1707V43.1706V43.1705V43.1704V43.1703V43.1701V43.17V43.1699V43.1698V43.1697V43.1696V43.1695V43.1694V43.1693V43.1691V43.169V43.1689V43.1688V43.1687V43.1686V43.1685V43.1684V43.1682V43.1681V43.168V43.1679V43.1678V43.1677V43.1676V43.1674V43.1673V43.1672V43.1671V43.167V43.1669V43.1668V43.1666V43.1665V43.1664V43.1663V43.1662V43.1661V43.166V43.1658V43.1657V43.1656V43.1655V43.1654V43.1653V43.1651V43.165V43.1649V43.1648V43.1647V43.1646V43.1644V43.1643V43.1642V43.1641V43.164V43.1638V43.1637V43.1636V43.1635V43.1634V43.1632V43.1631V43.163V43.1629V43.1628V43.1626V43.1625V43.1624V43.1623V43.1622V43.162V43.1619V43.1618V43.1617V43.1615V43.1614V43.1613V43.1612V43.161V43.1609V43.1608V43.1607V43.1605V43.1604V43.1603V43.1602V43.16V43.1599V43.1598V43.1597V43.1595V43.1594V43.1593V43.1592V43.159V43.1589V43.1588V43.1587V43.1585V43.1584V43.1583V43.1581V43.158V43.1579V43.1578V43.1576V43.1575V43.1574V43.1572V43.1571V43.157V43.1568V43.1567V43.1566V43.1564V43.1563V43.1562V43.156V43.1559V43.1558V43.1556V43.1555V43.1554V43.1552V43.1551V43.155V43.1548V43.1547V43.1546V43.1544V43.1543H64.3828M64.6328 43.2056C64.6327 43.2032 64.6326 43.2009 64.6324 43.1986L64.3855 43.2123C64.3847 43.1931 64.3838 43.1738 64.3828 43.1543M64.6328 43.2056V43.2057V43.2058V43.2059V43.2061V43.2062V43.2063V43.2064V43.2066V43.2067V43.2068V43.2069V43.2071V43.2072V43.2073V43.2074V43.2076V43.2077V43.2078V43.2079V43.2081V43.2082V43.2083V43.2085V43.2086V43.2087V43.2088V43.209V43.2091V43.2092V43.2094V43.2095V43.2096V43.2098V43.2099V43.21V43.2101V43.2103V43.2104V43.2105V43.2107V43.2108V43.2109V43.2111V43.2112V43.2113V43.2115V43.2116V43.2118V43.2119V43.212V43.2122V43.2123V43.2124H64.3855C64.3944 43.4219 64.3944 43.6126 64.3944 43.7936C64.3944 43.6192 64.3944 43.4216 64.3828 43.2124V43.1543" fill="#FD780F" stroke="#FD780F" stroke-width="0.5"/>
<path d="M64.29 39.8005C64.5353 39.9541 64.8685 40.2082 65.3127 40.5889C66.0611 41.237 66.8674 42.3912 67.733 43.678L68.1905 44.3579V43.5384V43.5382V43.538V43.5378V43.5376V43.5374V43.5372V43.537V43.5368V43.5366V43.5364V43.5362V43.536V43.5358V43.5356V43.5353V43.5351V43.5349V43.5347V43.5345V43.5343V43.5341V43.5339V43.5337V43.5335V43.5333V43.5331V43.5329V43.5327V43.5325V43.5323V43.5321V43.5319V43.5317V43.5315V43.5313V43.5311V43.5308V43.5306V43.5304V43.5302V43.53V43.5298V43.5296V43.5294V43.5292V43.529V43.5288V43.5286V43.5284V43.5282V43.528V43.5278V43.5276V43.5274V43.5272V43.527V43.5268V43.5266V43.5264V43.5261V43.5259V43.5257V43.5255V43.5253V43.5251V43.5249V43.5247V43.5245V43.5243V43.5241V43.5239V43.5237V43.5235V43.5233V43.5231V43.5229V43.5227V43.5225V43.5223V43.5221V43.5219V43.5217V43.5214V43.5212V43.521V43.5208V43.5206V43.5204V43.5202V43.52V43.5198V43.5196V43.5194V43.5192V43.519V43.5188V43.5186V43.5184V43.5182V43.518V43.5178V43.5176V43.5174V43.5172V43.517V43.5167V43.5165V43.5163V43.5161V43.5159V43.5157V43.5155V43.5153V43.5151V43.5149V43.5147V43.5145V43.5143V43.5141V43.5139V43.5137V43.5135V43.5133V43.5131V43.5129V43.5127V43.5125V43.5123V43.512V43.5118V43.5116V43.5114V43.5112V43.511V43.5108V43.5106V43.5104V43.5102V43.51V43.5098V43.5096V43.5094V43.5092V43.509V43.5088V43.5086V43.5084V43.5082V43.508V43.5078V43.5076V43.5073V43.5071V43.5069V43.5067V43.5065V43.5063V43.5061V43.5059V43.5057V43.5055V43.5053V43.5051V43.5049V43.5047V43.5045V43.5043V43.5041V43.5039V43.5037V43.5035V43.5033V43.5031V43.5029V43.5026V43.5024V43.5022V43.502V43.5018V43.5016V43.5014V43.5012V43.501V43.5008V43.5006V43.5004V43.5002V43.5V43.4998V43.4996V43.4994V43.4992V43.499V43.4988V43.4986V43.4984V43.4982V43.4979V43.4977V43.4975V43.4973V43.4971V43.4969V43.4967V43.4965V43.4963V43.4961V43.4959V43.4957V43.4955V43.4953V43.4951V43.4949V43.4947V43.4945V43.4943V43.4941V43.4939V43.4937V43.4935V43.4932V43.493V43.4928V43.4926V43.4924V43.4922V43.492V43.4918V43.4916V43.4914V43.4912V43.491V43.4908V43.4906V43.4904V43.4902V43.49V43.4898V43.4896V43.4894V43.4892V43.489V43.4888V43.4885V43.4883V43.4881V43.4879V43.4877V43.4875V43.4873V43.4871V43.4869V43.4867V43.4865V43.4863V43.4861V43.4859V43.4857V43.4855V43.4853V43.4851V43.4849V43.4847V43.4845V43.4843V43.4841V43.4838V43.4836V43.4834V43.4832V43.483V43.4828V43.4826V43.4824V43.4822V43.482V43.4818V43.4816V43.4814V43.4812V43.481V43.4808V43.4806V43.4804V43.4802V43.48V43.4798V43.4796V43.4794V43.4791V43.4789V43.4787V43.4785V43.4783V43.4781V43.4779V43.4777V43.4775V43.4773V43.4771V43.4769V43.4767V43.4765V43.4763V43.4761V43.4759V43.4757V43.4755V43.4753V43.4751V43.4749V43.4747V43.4744V43.4742V43.474V43.4738V43.4736V43.4734V43.4732V43.473V43.4728V43.4726V43.4724V43.4722V43.472V43.4718V43.4716V43.4714V43.4712V43.471V43.4708V43.4706V43.4704V43.4702V43.47V43.4697V43.4695V43.4693V43.4691V43.4689V43.4687V43.4685V43.4683V43.4681V43.4679V43.4677V43.4675V43.4673V43.4671V43.4669V43.4667V43.4665V43.4663V43.4661V43.4659V43.4657V43.4655V43.4653V43.465V43.4648V43.4646V43.4644V43.4642V43.464V43.4638V43.4636V43.4634V43.4632V43.463V43.4628V43.4626V43.4624V43.4622V43.462V43.4618V43.4616V43.4614V43.4612V43.461V43.4608V43.4606V43.4603V43.4601V43.4599V43.4597V43.4595V43.4593V43.4591V43.4589V43.4587V43.4585V43.4583V43.4581V43.4579V43.4577V43.4575V43.4573V43.4571V43.4569V43.4567V43.4565V43.4563V43.4561V43.4559V43.4556V43.4554V43.4552V43.455V43.4548V43.4546V43.4544V43.4542V43.454V43.4538V43.4536V43.4534V43.4532V43.453V43.4528V43.4526V43.4524V43.4522V43.452V43.4518V43.4516V43.4514V43.4512V43.4509V43.4507V43.4505V43.4503V43.4501V43.4499V43.4497V43.4495V43.4493V43.4491V43.4489V43.4487V43.4485V43.4483V43.4481V43.4479V43.4477V43.4475V43.4473V43.4471V43.4469V43.4467V43.4465V43.4462V43.446V43.4458V43.4456V43.4454V43.4452V43.445V43.4448V43.4446V43.4444V43.4442V43.444V43.4438V43.4436V43.4434V43.4432V43.443V43.4428V43.4426V43.4424V43.4422V43.442V43.4418V43.4415V43.4413V43.4411V43.4409V43.4407V43.4405V43.4403V43.4401V43.4399V43.4397V43.4395V43.4393V43.4391V43.4389V43.4387V43.4385V43.4383V43.4381V43.4379V43.4377V43.4375V43.4373V43.437V43.4368V43.4366V43.4364V43.4362V43.436V43.4358V43.4356V43.4354V43.4352V43.435V43.4348V43.4346V43.4344V43.4342V43.434V43.4338V43.3567L68.147 43.2929C67.2821 42.0244 66.4364 40.8052 65.6137 40.1154C65.1517 39.7235 64.7899 39.4493 64.5103 39.2787C64.3705 39.1935 64.2433 39.1292 64.1286 39.0903C64.0172 39.0525 63.8928 39.0299 63.7717 39.0594C63.6355 39.0926 63.5401 39.1822 63.4862 39.294C63.4379 39.3943 63.4247 39.5074 63.4239 39.6096C63.4221 39.8147 63.471 40.0753 63.5349 40.3513L64.0225 40.2406C63.9645 39.9795 63.9371 39.7889 63.9435 39.6671C63.9442 39.6535 63.9453 39.642 63.9466 39.6325C63.9611 39.6361 63.9799 39.6416 64.0035 39.6504C64.0733 39.6764 64.1672 39.7237 64.29 39.8005Z" fill="#FD780F" stroke="#FD780F" stroke-width="0.5"/>
<path d="M48.4942 18.4553C49.227 18.5125 49.9615 18.6272 50.7072 18.7437L50.7458 18.4967L50.7844 18.2497L50.7796 18.2489C50.0388 18.1332 49.2868 18.0157 48.5331 17.9568L48.5137 18.2061L48.4942 18.4553Z" fill="#FD780F" stroke="#FD780F" stroke-width="0.5"/>
<path d="M44.7968 73.5794C43.4344 71.7647 43.2309 69.261 43.2643 66.6047C43.2722 65.9807 43.2928 65.3525 43.3135 64.7256C43.3147 64.6887 43.3159 64.6518 43.3171 64.6149C43.3389 63.9522 43.3598 63.2915 43.3641 62.6452C43.3726 61.3545 43.3155 60.1064 43.0619 58.9909L43.0619 58.9908C42.5751 56.8537 41.7099 55.5579 40.4922 54.7461L40.2129 55.1608C41.2735 55.8824 42.0603 57.0621 42.5043 59.0769L42.5043 59.0771C42.7393 60.1386 42.7912 61.3422 42.7769 62.6226C42.7697 63.2618 42.7462 63.9165 42.7215 64.5798C42.7202 64.6164 42.7188 64.6529 42.7174 64.6895C42.6941 65.3161 42.6704 65.9498 42.6597 66.5798C42.6147 69.2335 42.7945 71.8973 44.2566 73.8669L44.2574 73.8679C45.2939 75.2499 46.3637 75.868 47.4685 75.8161L47.4599 75.3163C46.6372 75.3061 45.7366 74.8248 44.7968 73.5794Z" fill="#FD780F" stroke="#FD780F" stroke-width="0.5"/>
<path d="M39.1885 26.8707L39.2536 27.1902L39.5453 27.0444C39.565 27.0345 39.5809 27.0242 39.5898 27.0182L39.6017 27.0101L39.6054 27.0076L39.8045 26.9412L39.7597 26.7237C39.5554 25.7333 38.9738 24.8627 38.224 24.3451C37.4704 23.8248 36.5285 23.6527 35.6447 24.1109L35.8654 24.5595C36.5389 24.2455 37.2688 24.3813 37.8918 24.8256C38.5175 25.2717 39.0148 26.0183 39.1885 26.8707Z" fill="#FD780F" stroke="#FD780F" stroke-width="0.5"/>
<path d="M34.9012 36.8182C35.2307 36.6425 35.6079 36.4978 36.023 36.3856L36.2787 36.3165L36.1949 36.0652L36.1833 36.0303L36.1076 35.8032L35.8774 35.869C35.4607 35.9881 35.0602 36.133 34.7036 36.3175L34.7036 36.3175L34.7021 36.3182C32.7183 37.3611 30.8383 39.5237 29.5952 41.9627C28.3531 44.3999 27.7193 47.1681 28.2984 49.4361L28.7834 49.3146C28.2685 47.2159 28.8502 44.5945 30.0539 42.2273C31.2567 39.8619 33.0536 37.804 34.9012 36.8182ZM34.9012 36.8182L34.8847 36.7874L34.9012 36.8182Z" fill="#FD780F" stroke="#FD780F" stroke-width="0.5"/>
<path d="M59.7752 46.7996L59.7776 46.8572C60.198 46.8396 60.5861 46.8382 60.9561 46.8369C61.197 46.836 61.4302 46.8352 61.6598 46.8299C62.224 46.817 62.7473 46.7767 63.1907 46.6244C63.6461 46.468 64.0182 46.193 64.2706 45.7237C64.5169 45.2656 64.6381 44.6427 64.6441 43.8074L64.1441 43.8029C64.1356 44.5769 64.0168 45.0896 63.8255 45.4339C63.6401 45.7676 63.3756 45.9631 63.022 46.0829C62.657 46.2065 62.2018 46.2479 61.6456 46.2631C61.4394 46.2687 61.2161 46.2707 60.9807 46.2728C60.6009 46.2762 60.1896 46.2799 59.7674 46.2996C59.6867 46.3031 59.5878 46.281 59.4679 46.2346C59.3671 46.1956 59.2685 46.1465 59.1651 46.095C59.1451 46.0851 59.125 46.0751 59.1047 46.065C58.9925 46.0096 58.8524 45.9417 58.7237 45.919C58.6555 45.9069 58.5659 45.9024 58.4749 45.9379C58.3759 45.9765 58.3056 46.0502 58.263 46.1386L58.2383 46.19L58.2383 46.247L58.4541 46.247L58.4541 46.247C58.2383 46.247 58.2383 46.2471 58.2383 46.2472L58.2383 46.2475L58.2383 46.248L58.2383 46.249L58.2383 46.2509L58.2384 46.2549L58.2388 46.2631C58.2391 46.2687 58.2397 46.2744 58.2404 46.2802C58.2418 46.2919 58.2441 46.3039 58.2472 46.3164C58.2534 46.3413 58.263 46.3671 58.2763 46.3937L58.4557 46.7525L58.6632 46.4802C58.7175 46.4957 58.7933 46.5305 58.9046 46.5857C58.9165 46.5917 58.9287 46.5978 58.9413 46.604C59.045 46.6558 59.1689 46.7177 59.2956 46.7658C59.4377 46.8197 59.6047 46.8653 59.7787 46.8572L59.7752 46.7996Z" fill="#FD780F" stroke="#FD780F" stroke-width="0.5"/>
<path d="M35.5997 31.3564L35.2713 30.9793C35.2084 31.034 35.1457 31.089 35.0832 31.1443C34.6026 31.5684 34.1414 31.9968 33.7614 32.4191L34.1308 32.7561C34.5027 32.354 34.9478 31.9319 35.412 31.521C35.474 31.4662 35.5366 31.4114 35.5997 31.3564Z" fill="#FD780F" stroke="#FD780F" stroke-width="0.5"/>
<path d="M33.8941 32.774L33.7071 32.5147C33.6834 32.5265 33.648 32.5467 33.6153 32.5794C33.5821 32.6126 33.5332 32.6784 33.5332 32.774V33.3776L33.96 32.9508L33.9779 32.9329L33.9957 32.9151L33.9904 32.9076M33.8941 32.774H33.8547H33.8368L33.8904 32.8812L33.9308 32.9619C33.932 32.9613 33.9361 32.9592 33.942 32.9552C33.9451 32.9531 33.9496 32.95 33.9549 32.9457C33.9591 32.9422 33.9639 32.938 33.9689 32.9329C33.9746 32.9272 33.9819 32.9192 33.9895 32.9088C33.9898 32.9084 33.9901 32.908 33.9904 32.9076M33.8941 32.774L33.9904 32.9076M33.8941 32.774H34.0332C34.0332 32.8344 34.0108 32.8793 33.9904 32.9076" fill="#FD780F" stroke="#FD780F" stroke-width="0.5"/>
<path d="M28.4642 49.9899L28.9471 49.8606C28.9228 49.7634 28.8957 49.6666 28.8528 49.5666L28.623 49.665L28.3933 49.7635C28.4148 49.8137 28.4302 49.8688 28.4493 49.9372C28.454 49.9539 28.4589 49.9714 28.4642 49.9899Z" fill="#FD780F" stroke="#FD780F" stroke-width="0.5"/>
<path d="M47.9902 17.9209L47.9626 18.4194C48.0813 18.4326 48.1979 18.4325 48.3097 18.4325C48.3119 18.4325 48.3141 18.4325 48.3163 18.4325V18.1825V17.9325C48.2657 17.9325 48.2167 17.93 48.1624 17.9271C48.1602 17.927 48.1581 17.9269 48.1559 17.9267C48.1052 17.924 48.0482 17.9209 47.9902 17.9209Z" fill="#FD780F" stroke="#FD780F" stroke-width="0.5"/>
<path d="M85.4077 41.2301L85.4243 41.4785L85.6728 41.4629L86.4168 41.4164L86.667 41.4008L86.6507 41.1507L86.6505 41.1478C86.6158 40.615 86.5806 40.0754 86.5218 39.5466L86.4942 39.2986L86.2462 39.3257L85.5021 39.4071L85.2525 39.4344L85.2809 39.6838C85.3383 40.1886 85.3728 40.7059 85.4077 41.2301Z" fill="#FD780F" stroke="#FD780F" stroke-width="0.5"/>
<path d="M84.0111 33.0489L84.0773 33.2884L84.3172 33.2236L85.0496 33.026L85.2345 32.9761V32.7846V32.7846V32.7845V32.7844V32.7844V32.7843V32.7842V32.7842V32.7841V32.784V32.784V32.7839V32.7838V32.7838V32.7837V32.7836V32.7836V32.7835V32.7834V32.7834V32.7833V32.7833V32.7832V32.7831V32.7831V32.783V32.7829V32.7829V32.7828V32.7828V32.7827V32.7826V32.7826V32.7825V32.7825V32.7824V32.7823V32.7823V32.7822V32.7822V32.7821V32.7821V32.782V32.7819V32.7819V32.7818V32.7818V32.7817V32.7816V32.7816V32.7815V32.7815V32.7814V32.7814V32.7813V32.7813V32.7812V32.7811V32.7811V32.781V32.781V32.7809V32.7809V32.7808V32.7808V32.7807V32.7807V32.7806V32.7806V32.7805V32.7805V32.7804V32.7804V32.7803V32.7802V32.7802V32.7801V32.7801V32.78V32.78V32.7799V32.7799V32.7798V32.7798V32.7797V32.7797V32.7796V32.7796V32.7795V32.7795V32.7795V32.7794V32.7794V32.7793V32.7793V32.7792V32.7792V32.7791V32.7791V32.779V32.779V32.7789V32.7789V32.7788V32.7788V32.7787V32.7787V32.7787V32.7786V32.7786V32.7785V32.7785V32.7784V32.7784V32.7783V32.7783V32.7782V32.7782V32.7782V32.7781V32.7781V32.778V32.778V32.7779V32.7779V32.7779V32.7778V32.7778V32.7777V32.7777V32.7776V32.7776V32.7776V32.7775V32.7775V32.7774V32.7774V32.7774V32.7773V32.7773V32.7772V32.7772V32.7771V32.7771V32.7771V32.777V32.777V32.7769V32.7769V32.7769V32.7768V32.7768V32.7767V32.7767V32.7767V32.7766V32.7766V32.7765V32.7765V32.7765V32.7764V32.7764V32.7764V32.7763V32.7763V32.7762V32.7762V32.7762V32.7761V32.7761V32.776V32.776V32.776V32.7759V32.7759V32.7759V32.7758V32.7758V32.7757V32.7757V32.7757V32.7756V32.7756V32.7756V32.7755V32.7755V32.7754V32.7754V32.7754V32.7753V32.7753V32.7753V32.7752V32.7752V32.7752V32.7751V32.7751V32.7751V32.775V32.775V32.7749V32.7749V32.7749V32.7748V32.7748V32.7748V32.7747V32.7747V32.7747V32.7746V32.7746V32.7746V32.7745V32.7745V32.7744V32.7744V32.7744V32.7743V32.7743V32.7743V32.7742V32.7742V32.7742V32.7741V32.7741V32.7741V32.774V32.774V32.774V32.7739V32.7739V32.7739V32.7738V32.7738V32.7738V32.7737V32.7737V32.7737V32.7736V32.7736V32.7736V32.7735V32.7735V32.7734V32.7734V32.7734V32.7733V32.7733V32.7733V32.7732V32.7732V32.7732V32.7731V32.7731V32.7731V32.773V32.773V32.773V32.7729V32.7729V32.7729V32.7728V32.7728V32.7728V32.7727V32.7727V32.7727V32.7726V32.7726V32.7726V32.7725V32.7725V32.7725V32.7724V32.7724V32.7724V32.7723V32.7723V32.7723V32.7722V32.7722V32.7722V32.7721V32.7721V32.772V32.772V32.772V32.7719V32.7719V32.7719V32.7718V32.7718V32.7718V32.7717V32.7717V32.7717V32.7716V32.7716V32.7716V32.7715V32.7715V32.7715V32.7714V32.7714V32.7714V32.7713V32.7713V32.7712V32.7712V32.7712V32.7711V32.7711V32.7711V32.771V32.771V32.771V32.7709V32.7709V32.7709V32.7708V32.7708V32.7707V32.7707V32.7707V32.7706V32.7706V32.7706V32.7705V32.7705V32.7705V32.7704V32.7704V32.7703V32.7703V32.7703V32.7702V32.7702V32.7702V32.7701V32.7701V32.77V32.77V32.77V32.7699V32.7699V32.7699V32.7698V32.7698V32.7697V32.7697V32.7697V32.7696V32.7696V32.7695V32.7695V32.7695V32.7694V32.7694V32.7693V32.7693V32.7693V32.7692V32.7692V32.7691V32.7691V32.7691V32.769V32.769V32.7689V32.7689V32.7689V32.7688V32.7688V32.7687V32.7687V32.7687V32.7686V32.7686V32.7685V32.7685V32.7685V32.7684V32.7684V32.7683V32.7683V32.7682V32.7682V32.7682V32.7681V32.7681V32.768V32.768V32.7679V32.7679V32.7679V32.7678V32.7678V32.7677V32.7677V32.7676V32.7676V32.7675V32.7675V32.7674V32.7674V32.7674V32.7673V32.7673V32.7672V32.7672V32.7671V32.7671V32.767V32.767V32.7669V32.7669V32.7668V32.7668V32.7668V32.7667V32.7667V32.7666V32.7666V32.7665V32.7665V32.7664V32.7664V32.7663V32.7663V32.7662V32.7662V32.7661V32.7661V32.766V32.766V32.7659V32.7659V32.7658V32.7658V32.7657V32.7657V32.7656V32.7656V32.7655V32.7655V32.7654V32.7653V32.7653V32.7652V32.7652V32.7651V32.7651V32.765V32.765V32.7649V32.7649V32.7648V32.7648V32.7647V32.7646V32.7646V32.7645V32.7645V32.7644V32.7644V32.7643V32.7642V32.7642V32.7641V32.7641V32.764V32.764V32.7639V32.7638V32.7638V32.7637V32.7637V32.7636V32.7635V32.7635V32.7634V32.7634V32.7633V32.7632V32.7632V32.7631V32.7631V32.763V32.7629V32.7629V32.7628V32.7628V32.7627V32.7626V32.7626V32.7625V32.7624V32.7624V32.7623V32.7622V32.7622V32.7621V32.762V32.762V32.7619V32.7619V32.7618V32.7617V32.7617V32.7616V32.7615V32.7614V32.7614V32.7249L85.2241 32.69C85.1755 32.5271 85.1277 32.3629 85.0796 32.1981C84.9685 31.8166 84.8565 31.4325 84.7339 31.0563L84.6566 30.8194L84.4194 30.8959L83.6986 31.1284L83.46 31.2054L83.5377 31.4438C83.7102 31.9728 83.8601 32.5029 84.0111 33.0489Z" fill="#FD780F" stroke="#FD780F" stroke-width="0.5"/>
<path d="M84.5062 35.0569L84.5595 35.3074L84.8086 35.2481L85.5411 35.0737L85.7785 35.0172L85.7277 34.7785C85.6109 34.2298 85.4819 33.6663 85.3288 33.113L85.2626 32.8736L85.0228 32.9383L84.2903 33.136L84.0461 33.2019L84.1149 33.4453C84.264 33.973 84.3906 34.5136 84.5062 35.0569Z" fill="#FD780F" stroke="#FD780F" stroke-width="0.5"/>
<path d="M85.0148 55.3678L85.248 55.439L85.3251 55.2078L85.3483 55.138L85.3611 55.0995V55.059V54.9892V54.7392H85.1111H84.7719L84.4648 54.6266L84.2037 54.5309L84.1362 54.8007L84.1246 54.8472L84.0662 55.0805L84.2971 55.1478L84.3476 55.1626L84.3462 55.239L84.6275 55.2495L85.0148 55.3678Z" fill="#FD780F" stroke="#FD780F" stroke-width="0.5"/>
<path d="M84.9113 37.1048L84.9533 37.3516L85.2001 37.3092L85.9441 37.1813L86.1893 37.1392L86.1484 36.8938C86.0548 36.3325 85.9495 35.7708 85.8324 35.2204L85.7799 34.9737L85.5337 35.0284L84.8012 35.1912L84.5583 35.2452L84.6112 35.4883C84.726 36.0166 84.8181 36.5574 84.9113 37.1048Z" fill="#FD780F" stroke="#FD780F" stroke-width="0.5"/>
<path d="M85.2131 39.1633L85.2447 39.4106L85.4921 39.3797L86.2362 39.2867L86.4849 39.2556L86.4532 39.007L86.453 39.0061C86.3834 38.4604 86.3133 37.9117 86.2316 37.3626L86.1945 37.1135L85.9457 37.1524L85.2016 37.2687L84.9504 37.3079L84.9939 37.5585C85.0647 37.9657 85.1148 38.3714 85.1665 38.7895C85.1817 38.9129 85.1971 39.0374 85.2131 39.1633Z" fill="#FD780F" stroke="#FD780F" stroke-width="0.5"/>
<path d="M83.3958 31.0585V31.3721L83.7226 31.2667L84.4434 31.0342L84.6836 30.9567L84.6038 30.7172L84.6029 30.7146C84.4175 30.1583 84.23 29.5959 84.0188 29.0444L83.9299 28.8121L83.6971 28.8999L82.988 29.1673L82.7511 29.2566L82.8434 29.4923C83.0124 29.9243 83.1582 30.3557 83.3083 30.7998C83.3372 30.8855 83.3663 30.9717 83.3958 31.0585Z" fill="#FD780F" stroke="#FD780F" stroke-width="0.5"/>
<path d="M76.9841 18.9746L77.1356 19.1718L77.3337 19.0213L77.9149 18.5795L78.0137 18.5045V18.3805C78.0137 18.3578 78.0108 18.3337 78.0039 18.3092C78.0033 18.3071 78.0027 18.3049 78.002 18.3029V18.272L77.9499 18.2045C76.424 16.2273 74.7395 14.3777 72.9051 12.7014H72.9604L72.4376 12.2604L72.0683 11.9488C72.0681 11.9486 72.0679 11.9484 72.0677 11.9483C71.8715 11.7751 71.6715 11.5987 71.4709 11.4335C63.8114 5.03724 54.1058 1.50586 44.1191 1.50586C41.0202 1.50586 37.9097 1.84497 34.8926 2.51155L34.8926 2.51155L34.8914 2.5118L33.0895 2.9187L33.0998 3.40853L35.018 3.7573L35.0609 3.76509L35.1039 3.75793L35.1736 3.7463L35.1737 3.74666L35.1869 3.74373C38.0404 3.10833 40.9752 2.78474 43.922 2.77315H44.1307C53.097 2.77315 61.8441 5.71594 68.98 11.077C66.1258 11.3118 63.5523 13.0525 61.1378 14.6978L61.1367 14.6986C60.0911 15.4189 59.0065 16.1455 57.9363 16.7439C57.9363 16.7439 57.9363 16.744 57.9362 16.744L57.541 16.9648L57.2812 17.11L57.469 17.3408L58.0271 18.0267L58.1579 18.1875L58.3401 18.0888L58.6191 17.9377L58.6199 17.9372C59.6785 17.3588 60.7357 16.6494 61.7537 15.9664C61.8318 15.914 61.9097 15.8617 61.9874 15.8096L61.9886 15.8088C63.2408 14.9585 64.4999 14.1081 65.7885 13.4688C67.0757 12.8302 68.3763 12.4108 69.7071 12.4108C70.0773 12.4108 70.4472 12.4407 70.8072 12.5004C73.0861 14.4194 75.1602 16.6 76.9841 18.9746ZM77.5813 18.5459C77.5813 18.5459 77.5804 18.545 77.5795 18.544L77.5811 18.5457L77.5813 18.5459Z" fill="#FD780F" stroke="#FD780F" stroke-width="0.5"/>
<path d="M86.0258 50.609L86.276 50.6481L86.3118 50.3974L86.3351 50.2346L86.37 49.9903L86.1262 49.9523L85.3822 49.836L85.1319 49.7969L85.0961 50.0476L85.0728 50.2104L85.0379 50.4547L85.2817 50.4928L86.0258 50.609Z" fill="#FD780F" stroke="#FD780F" stroke-width="0.5"/>
<path d="M85.5016 43.2596V43.5134L85.7554 43.5095L86.5111 43.4979L86.7572 43.4941V43.2479V43.2478V43.2477V43.2475V43.2474V43.2473V43.2471V43.247V43.2468V43.2467V43.2466V43.2464V43.2463V43.2462V43.246V43.2459V43.2458V43.2456V43.2455V43.2453V43.2452V43.2451V43.2449V43.2448V43.2447V43.2445V43.2444V43.2443V43.2441V43.244V43.2439V43.2437V43.2436V43.2434V43.2433V43.2432V43.243V43.2429V43.2428V43.2426V43.2425V43.2424V43.2422V43.2421V43.242V43.2418V43.2417V43.2415V43.2414V43.2413V43.2411V43.241V43.2409V43.2407V43.2406V43.2405V43.2403V43.2402V43.2401V43.2399V43.2398V43.2396V43.2395V43.2394V43.2392V43.2391V43.239V43.2388V43.2387V43.2386V43.2384V43.2383V43.2382V43.238V43.2379V43.2378V43.2376V43.2375V43.2374V43.2372V43.2371V43.2369V43.2368V43.2367V43.2365V43.2364V43.2363V43.2361V43.236V43.2359V43.2357V43.2356V43.2355V43.2353V43.2352V43.2351V43.2349V43.2348V43.2347V43.2345V43.2344V43.2343V43.2341V43.234V43.2339V43.2337V43.2336V43.2335V43.2333V43.2332V43.2331V43.2329V43.2328V43.2327V43.2325V43.2324V43.2323V43.2321V43.232V43.2319V43.2317V43.2316V43.2315V43.2313V43.2312V43.2311V43.2309V43.2308V43.2307V43.2305V43.2304V43.2303V43.2302V43.23V43.2299V43.2298V43.2296V43.2295V43.2294V43.2292V43.2291V43.229V43.2288V43.2287V43.2286V43.2284V43.2283V43.2282V43.2281V43.2279V43.2278V43.2277V43.2275V43.2274V43.2273V43.2271V43.227V43.2269V43.2268V43.2266V43.2265V43.2264V43.2262V43.2261V43.226V43.2258V43.2257V43.2256V43.2255V43.2253V43.2252V43.2251V43.2249V43.2248V43.2247V43.2246V43.2244V43.2243V43.2242V43.224V43.2239V43.2238V43.2237V43.2235V43.2234V43.2233V43.2232V43.223V43.2229V43.2228V43.2226V43.2225V43.2224V43.2223V43.2221V43.222V43.2219V43.2218V43.2216V43.2215V43.2214V43.2213V43.2211V43.221V43.2209V43.2208V43.2206V43.2205V43.2204V43.2203V43.2201V43.22V43.2199V43.2198V43.2196V43.2195V43.2194V43.2193V43.2191V43.219V43.2189V43.2188V43.2186V43.2185V43.2184V43.2183V43.2181V43.218V43.2179V43.2178V43.2177V43.2175V43.2174V43.2173V43.2172V43.217V43.2169V43.2168V43.2167V43.2166V43.2164V43.2163V43.2162V43.2161V43.216V43.2158V43.2157V43.2156V43.2155V43.2154V43.2152V43.2151V43.215V43.2149V43.2148V43.2146V43.2145V43.2144V43.2143V43.2142V43.214V43.2139V43.2138V43.2137V43.2136V43.2134V43.2133V43.2132V43.2131V43.213V43.2129V43.2127V43.2126V43.2125V43.2124V43.2123V43.2122V43.212V43.2119V43.2118V43.2117V43.2116V43.2115V43.2113V43.2112V43.2111V43.211V43.2109V43.2108V43.2107V43.2105V43.2104V43.2103V43.2102V43.2101V43.21V43.2099V43.2097V43.2096V43.2095V43.2094V43.2093V43.2092V43.2091V43.209V43.2088V43.2087V43.2086V43.2085V43.2084V43.2083V43.2082V43.2081V43.208V43.2078V43.2077V43.2076V43.2075V43.2074V43.2073V43.2072V43.2071V43.207V43.2069V43.2067V43.2066V43.2065V43.2064V43.2063V43.2062V43.2061V43.206V43.2059V43.2058V43.2057V43.2056V43.2054V43.2053V43.2052V43.2051V43.205V43.2049V43.2048V43.2047V43.2046V43.2045V43.2044V43.2043V43.2042V43.2041V43.204V43.2039V43.2038V43.2037V43.2036V43.2034V43.2033V43.2032V43.2031V43.203V43.2029V43.2028V43.2027V43.2026V43.2025V43.2024V43.2023V43.2022V43.2021V43.202V43.2019V43.2018V43.2017V43.2016V43.2015V43.2014V43.2013V43.2012V43.2011V43.201V43.2009V43.2008V43.2007V43.2006V43.2005V43.2004V43.2003V43.2002V43.2001V43.2V43.1999V43.1998V43.1998V43.1997V43.1996V43.1995V43.1994V43.1993V43.1992V43.1991V43.199V43.1989V43.1988V43.1987V43.1986V43.1985V43.1984V43.1983V43.1982V43.1981V43.1981V43.198V43.1979V43.1978V43.1977V43.1976V43.1975V43.1974V43.1973V43.1972V43.1971V43.197V43.197V43.1969V43.1968V43.1967V43.1966V43.1965V43.1964V43.1963V43.1962V43.1962V43.1961V43.196V43.1959V43.1958V43.1957V43.1956V43.1955V43.1955V43.1954V43.1953V43.1952V43.1951V43.195V43.1949V43.1949V43.1948V43.1947V43.1946V43.1945V43.1944V43.1944V43.1943V43.1942V43.1941V43.194V43.1939V43.1939V43.1938V43.1937V43.1936V43.1935V43.1935V43.1934V43.1933V43.1932V43.1931V43.1931V43.193V43.1929V43.1928V43.1927V43.1927V43.1926V43.1925V43.1924V43.1924V43.1923V43.1922V43.1921V43.192V43.192V43.1919V43.1918V43.1917V43.1917V43.1916V43.1915V43.1914V43.1914V43.1913V43.1912V43.1912V43.1911V43.191V43.1909V43.1909V43.1908V43.1907V43.1906V43.1906V43.1905V43.1904V43.1904V43.1903V43.1902V43.1902V43.1901V43.19V43.1899V43.1899V43.1898H86.7573L86.7572 43.1837C86.7456 42.7074 86.7339 42.2394 86.7104 41.7593L86.6981 41.5064L86.4454 41.522L85.6897 41.5685L85.4373 41.584L85.4557 41.8362C85.4814 42.1874 85.4878 42.5299 85.4943 42.8834C85.4965 43.0006 85.4987 43.119 85.5016 43.2394V43.2596Z" fill="#FD780F" stroke="#FD780F" stroke-width="0.5"/>
<path d="M80.5247 65.8961L80.7353 66.0301L80.8696 65.8197L81.4701 64.8793C81.4891 64.861 81.5179 64.8329 81.5394 64.809C81.5719 64.7729 81.6175 64.7161 81.6459 64.6413L82.269 63.3028L82.6451 62.495L81.9037 62.9893L80.7528 63.7565L80.7114 63.7841L80.6837 63.8254L79.8351 65.0926L79.8348 65.0931L79.8115 65.128L79.6729 65.336L79.8809 65.4746L79.8905 65.481L79.8853 65.4892L79.8863 65.4898L80.5247 65.8961Z" fill="#FD780F" stroke="#FD780F" stroke-width="0.5"/>
<path d="M83.0554 29.3813L83.0707 29.3759L83.0763 29.3894L83.425 29.2499L83.4224 29.2428L83.7669 29.0969L83.9193 29.0323V28.8667V28.8551V28.8084L83.9025 28.765L83.9015 28.7622C83.7046 28.2527 83.5053 27.7368 83.2822 27.2317L82.1199 24.5585L81.6436 24.6967L82.097 27.6031L82.0988 27.6143L82.1015 27.6252L82.1247 27.7182L82.1296 27.7377L82.1375 27.7561C82.3451 28.2406 82.5415 28.7371 82.7393 29.2376L82.828 29.462L83.0554 29.3813Z" fill="#FD780F" stroke="#FD780F" stroke-width="0.5"/>
<path d="M86.4317 46.7292L86.681 46.7445L86.6966 46.4953L86.7082 46.3093L86.7082 46.3093L86.7084 46.3055L86.7259 45.9333L86.7433 45.5615L86.7554 45.3076L86.5013 45.2997L85.7456 45.2765L85.4999 45.2689L85.4882 45.5145L85.4708 45.8746L85.4534 46.2333L85.4419 46.4176L85.4263 46.6673L85.6761 46.6827L86.4317 46.7292Z" fill="#FD780F" stroke="#FD780F" stroke-width="0.5"/>
<path d="M86.4999 45.2877L86.7576 45.2956V45.0378V44.8402C86.7576 44.7275 86.7604 44.6144 86.7634 44.4976L86.7634 44.4961C86.7663 44.3809 86.7692 44.262 86.7692 44.1426V44.038V43.788H86.5193L86.5192 43.7764H86.403H85.7636H85.5136V44.0264V44.038C85.5136 44.3643 85.5136 44.6853 85.5021 45.0056L85.4931 45.2567L85.7443 45.2644L86.4999 45.2877Z" fill="#FD780F" stroke="#FD780F" stroke-width="0.5"/>
<path d="M86.3323 48.1115L86.5843 48.1347L86.6045 47.8825L86.6277 47.5918L86.6278 47.5918L86.6279 47.5897C86.6337 47.5087 86.6395 47.4306 86.6453 47.352C86.6511 47.2736 86.6569 47.1948 86.6628 47.1131L86.6805 46.865L86.4326 46.846L85.6769 46.7878L85.4277 46.7687L85.4085 47.0179C85.4026 47.0939 85.3968 47.1726 85.391 47.251L85.391 47.2512C85.3852 47.3296 85.3794 47.4075 85.3736 47.4826L85.3504 47.7728L85.3307 48.019L85.5766 48.0417L86.3323 48.1115Z" fill="#FD780F" stroke="#FD780F" stroke-width="0.5"/>
<path d="M86.1861 49.4597L86.4343 49.4903L86.4647 49.242L86.5345 48.6723L86.5653 48.4205L86.3131 48.3934L85.5575 48.312L85.3131 48.2857L85.2826 48.5295L85.2129 49.0876L85.1818 49.3361L85.4304 49.3667L86.1861 49.4597Z" fill="#FD780F" stroke="#FD780F" stroke-width="0.5"/>
<path d="M82.4559 28.4926C82.4559 28.1198 82.4332 27.7367 82.3769 27.3313L82.8617 27.2178C82.87 27.2425 82.8808 27.2689 82.896 27.3054L82.8973 27.3085C82.911 27.3413 82.9286 27.3834 82.9431 27.4271L82.9514 27.4518L82.9543 27.4777C83.001 27.8859 83.0377 28.2843 83.0256 28.6752C82.9606 31.8173 82.9868 34.6612 83.2449 37.748C83.2599 37.9095 83.2755 38.0718 83.2918 38.2349L82.4559 28.4926ZM82.4559 28.4926C82.4117 31.7033 82.4516 34.604 82.7469 37.792M82.4559 28.4926L82.7469 37.792M82.7469 37.792C82.7653 38.0125 82.7849 38.2343 82.8058 38.4575L82.8059 38.4583C82.8243 38.6488 82.8388 38.831 82.8492 39.0055C82.9098 40.2551 82.747 41.1007 82.3433 41.8099C81.8603 42.6586 81.014 43.3481 79.6682 44.2861L79.6677 44.2864C79.2562 44.5748 78.7672 44.9996 78.2446 45.4577C78.2091 45.4888 78.1734 45.5201 78.1376 45.5516C77.641 45.9872 77.1109 46.4521 76.5686 46.8784C75.9865 47.336 75.4001 47.7413 74.8385 48.0132C74.2743 48.2865 73.7603 48.4129 73.3137 48.3476L73.3135 48.3476C72.4031 48.2153 71.5174 47.5533 70.6415 46.594C69.8076 45.6806 69.0172 44.5376 68.2497 43.4279C68.2155 43.3783 68.1812 43.3288 68.147 43.2794L67.6914 42.6209V43.4216V43.4218V43.422V43.4222V43.4224V43.4226V43.4228V43.423V43.4232V43.4235V43.4237V43.4239V43.4241V43.4243V43.4245V43.4247V43.4249V43.4251V43.4253V43.4255V43.4257V43.4259V43.4261V43.4263V43.4265V43.4267V43.4269V43.4271V43.4273V43.4275V43.4277V43.4279V43.4282V43.4284V43.4286V43.4288V43.429V43.4292V43.4294V43.4296V43.4298V43.43V43.4302V43.4304V43.4306V43.4308V43.431V43.4312V43.4314V43.4316V43.4318V43.432V43.4322V43.4324V43.4326V43.4329V43.4331V43.4333V43.4335V43.4337V43.4339V43.4341V43.4343V43.4345V43.4347V43.4349V43.4351V43.4353V43.4355V43.4357V43.4359V43.4361V43.4363V43.4365V43.4367V43.4369V43.4371V43.4373V43.4376V43.4378V43.438V43.4382V43.4384V43.4386V43.4388V43.439V43.4392V43.4394V43.4396V43.4398V43.44V43.4402V43.4404V43.4406V43.4408V43.441V43.4412V43.4414V43.4416V43.4418V43.442V43.4423V43.4425V43.4427V43.4429V43.4431V43.4433V43.4435V43.4437V43.4439V43.4441V43.4443V43.4445V43.4447V43.4449V43.4451V43.4453V43.4455V43.4457V43.4459V43.4461V43.4463V43.4465V43.4467V43.447V43.4472V43.4474V43.4476V43.4478V43.448V43.4482V43.4484V43.4486V43.4488V43.449V43.4492V43.4494V43.4496V43.4498V43.45V43.4502V43.4504V43.4506V43.4508V43.451V43.4512V43.4514V43.4517V43.4519V43.4521V43.4523V43.4525V43.4527V43.4529V43.4531V43.4533V43.4535V43.4537V43.4539V43.4541V43.4543V43.4545V43.4547V43.4549V43.4551V43.4553V43.4555V43.4557V43.4559V43.4562V43.4564V43.4566V43.4568V43.457V43.4572V43.4574V43.4576V43.4578V43.458V43.4582V43.4584V43.4586V43.4588V43.459V43.4592V43.4594V43.4596V43.4598V43.46V43.4602V43.4604V43.4606V43.4608V43.4611V43.4613V43.4615V43.4617V43.4619V43.4621V43.4623V43.4625V43.4627V43.4629V43.4631V43.4633V43.4635V43.4637V43.4639V43.4641V43.4643V43.4645V43.4647V43.4649V43.4651V43.4653V43.4655V43.4658V43.466V43.4662V43.4664V43.4666V43.4668V43.467V43.4672V43.4674V43.4676V43.4678V43.468V43.4682V43.4684V43.4686V43.4688V43.469V43.4692V43.4694V43.4696V43.4698V43.47V43.4702V43.4705V43.4707V43.4709V43.4711V43.4713V43.4715V43.4717V43.4719V43.4721V43.4723V43.4725V43.4727V43.4729V43.4731V43.4733V43.4735V43.4737V43.4739V43.4741V43.4743V43.4745V43.4747V43.475V43.4752V43.4754V43.4756V43.4758V43.476V43.4762V43.4764V43.4766V43.4768V43.477V43.4772V43.4774V43.4776V43.4778V43.478V43.4782V43.4784V43.4786V43.4788V43.479V43.4792V43.4794V43.4797V43.4799V43.4801V43.4803V43.4805V43.4807V43.4809V43.4811V43.4813V43.4815V43.4817V43.4819V43.4821V43.4823V43.4825V43.4827V43.4829V43.4831V43.4833V43.4835V43.4837V43.4839V43.4841V43.4844V43.4846V43.4848V43.485V43.4852V43.4854V43.4856V43.4858V43.486V43.4862V43.4864V43.4866V43.4868V43.487V43.4872V43.4874V43.4876V43.4878V43.488V43.4882V43.4884V43.4886V43.4888V43.489V43.4893V43.4895V43.4897V43.4899V43.4901V43.4903V43.4905V43.4907V43.4909V43.4911V43.4913V43.4915V43.4917V43.4919V43.4921V43.4923V43.4925V43.4927V43.4929V43.4931V43.4933V43.4935V43.4938V43.494V43.4942V43.4944V43.4946V43.4948V43.495V43.4952V43.4954V43.4956V43.4958V43.496V43.4962V43.4964V43.4966V43.4968V43.497V43.4972V43.4974V43.4976V43.4978V43.498V43.4982V43.4985V43.4987V43.4989V43.4991V43.4993V43.4995V43.4997V43.4999V43.5001V43.5003V43.5005V43.5007V43.5009V43.5011V43.5013V43.5015V43.5017V43.5019V43.5021V43.5023V43.5025V43.5027V43.5029V43.5032V43.5034V43.5036V43.5038V43.504V43.5042V43.5044V43.5046V43.5048V43.505V43.5052V43.5054V43.5056V43.5058V43.506V43.5062V43.5064V43.5066V43.5068V43.507V43.5072V43.5074V43.5076V43.5079V43.5081V43.5083V43.5085V43.5087V43.5089V43.5091V43.5093V43.5095V43.5097V43.5099V43.5101V43.5103V43.5105V43.5107V43.5109V43.5111V43.5113V43.5115V43.5117V43.5119V43.5121V43.5123V43.5126V43.5128V43.513V43.5132V43.5134V43.5136V43.5138V43.514V43.5142V43.5144V43.5146V43.5148V43.515V43.5152V43.5154V43.5156V43.5158V43.516V43.5162V43.5164V43.5166V43.5168V43.517V43.5173V43.5175V43.5177V43.5179V43.5181V43.5183V43.5185V43.5187V43.5189V43.5191V43.5193V43.5195V43.5197V43.5199V43.5201V43.5203V43.5205V43.5207V43.5209V43.5211V43.5213V43.5215V43.5217V43.522V43.5222V43.5224V43.5226V43.5228V43.523V43.5232V43.5234V43.5236V43.5238V43.524V43.5242V43.5244V43.5246V43.5248V43.525V43.5252V43.5254V43.5256V43.5258V43.526V43.5262V43.6035L67.735 43.6673C67.7695 43.7178 67.8041 43.7684 67.8388 43.8192C68.596 44.9278 69.4002 46.1052 70.2554 47.0522C71.145 48.0372 72.1278 48.817 73.2168 48.9817L82.7469 37.792ZM79.9423 44.8591C79.5574 45.129 79.0895 45.5332 78.5603 45.9949C78.5295 46.0217 78.4986 46.0487 78.4674 46.0759C77.9672 46.5125 77.4203 46.9898 76.8595 47.4275C76.2644 47.892 75.6438 48.3198 75.034 48.6118C74.4268 48.9025 73.805 49.0709 73.2169 48.9817L79.9423 44.8591ZM79.9423 44.8591C79.9426 44.859 79.9428 44.8588 79.943 44.8587L79.8709 44.7558C79.8992 44.7351 79.9271 44.7152 79.9546 44.6959C81.294 43.7624 82.2321 43.0161 82.7779 42.0572C83.2454 41.2357 83.412 40.2839 83.3485 38.979C83.4313 40.3746 83.2685 41.3743 82.7775 42.2308C82.2286 43.1883 81.2875 43.9314 79.9423 44.8591Z" fill="#FD780F" stroke="#FD780F" stroke-width="0.5"/>
<path d="M15.6584 76.8828L15.6586 76.883C23.5514 83.7468 33.6658 87.5353 44.1427 87.5353C59.3546 87.5353 73.6533 79.3987 81.4298 66.339C81.4304 66.338 81.431 66.3369 81.4316 66.3359L82.0447 65.3711C82.1531 65.2485 82.2582 65.1043 82.3282 64.9392C83.1611 63.2156 83.5838 62.3351 83.9709 61.3388C84.8004 59.4222 85.5013 57.4124 86.0505 55.3441L86.1147 55.1026L85.8732 55.0383L83.6875 54.4571L83.4464 54.3929L83.3818 54.634C82.8616 56.576 82.2145 58.4595 81.4289 60.2848L81.4288 60.2847L81.4258 60.2923C81.0707 61.1972 80.6925 62.012 79.9315 63.5919C79.9308 63.5928 79.93 63.5938 79.9291 63.5949C79.925 63.6002 79.9188 63.608 79.9084 63.6215C79.8927 63.6418 79.8705 63.6719 79.85 63.7097L79.0893 64.8738L79.0891 64.8737L79.0837 64.8827C71.7813 77.1536 58.3887 84.7799 44.1427 84.7799C34.3329 84.7799 24.8698 81.2327 17.4749 74.7968L17.4748 74.7967C8.601 67.0784 3.517 55.9052 3.517 44.1426C3.517 39.1855 4.40667 34.3212 6.17454 29.6763L6.26358 29.4423L6.02951 29.3536L3.91365 28.5514L3.68001 28.4628L3.59131 28.6964C1.70888 33.6539 0.75 38.8573 0.75 44.1426C0.75 56.701 6.18731 68.6278 15.6584 76.8828Z" fill="#FD780F" stroke="#FD780F" stroke-width="0.5"/>
<path d="M70.1987 12.9801L70.3908 13.1409L70.5512 12.9484L72.0044 11.2046L72.1642 11.0129L71.9727 10.8528C64.1851 4.33969 54.3047 0.75 44.1434 0.75C35.9934 0.75 28.0653 3.03017 21.1896 7.33331L20.978 7.46578L21.1102 7.67761L22.3076 9.59584L22.4402 9.80826L22.6524 9.6753C29.0879 5.64305 36.5171 3.517 44.1434 3.517C53.6526 3.517 62.9079 6.87942 70.1987 12.9801Z" fill="#FD780F" stroke="#FD780F" stroke-width="0.5"/>
<path d="M86.7958 50.5744L87.0432 50.6102L87.0791 50.3629C87.383 48.2705 87.5351 46.1773 87.5235 44.1298C87.5234 38.1555 86.3307 32.3672 83.9687 26.9181L83.8693 26.6889L83.64 26.7881L81.5707 27.6833L81.3411 27.7826L81.4405 28.0121C83.6473 33.1074 84.7681 38.5376 84.7681 44.1305C84.7681 46.0358 84.618 48.0004 84.3404 49.9665L84.3056 50.2131L84.5521 50.2488L86.7958 50.5744Z" fill="#FD780F" stroke="#FD780F" stroke-width="0.5"/>
<path d="M4.87688 50.768L4.87693 50.7671C4.92401 49.9079 5.02983 49.0856 5.13444 48.3069C5.3093 46.943 5.46691 45.6947 5.30854 44.3705C5.1369 42.9863 4.7589 41.6325 4.34006 40.1898L4.33948 40.1878C4.02594 39.0729 3.69765 37.9009 3.4629 36.7037L3.46254 36.7019C3.00292 34.2623 3.02727 31.6391 3.53182 28.9274C3.54504 28.8498 3.57012 28.7777 3.58838 28.7251C3.59227 28.714 3.59585 28.7037 3.59894 28.6944L3.60233 28.6842L3.60254 28.6843C6.95843 19.8912 13.2018 12.3031 21.1999 7.32163C21.5858 7.07884 22.0549 7.05224 22.4629 7.22107C22.8743 7.39129 23.1887 7.76019 23.2753 8.20597M4.87688 50.768L21.4024 29.192M4.87688 50.768C4.72205 53.8051 5.99764 56.5119 7.20222 59.06C8.07686 60.9259 8.87467 62.6393 9.19343 64.426C10.1316 69.832 12.1432 73.6526 15.7023 76.8111C16.6905 77.6935 17.8406 78.5382 19.1163 79.3343C19.3345 79.4786 19.5915 79.5484 19.8446 79.5484C20.116 79.5484 20.3953 79.4635 20.6314 79.3107L20.6316 79.3109L20.6415 79.3038C21.0904 78.9812 21.3209 78.4167 21.1929 77.8716C21.0644 77.276 20.9244 76.6928 20.7847 76.1341C20.0617 73.1837 19.5212 70.9571 20.8018 68.3287L20.802 68.3282C21.127 67.6572 21.5395 67.0043 21.9774 66.3113C22.0149 66.2518 22.0526 66.1921 22.0905 66.1321M4.87688 50.768L22.0905 66.1321M23.2753 8.20597C23.2989 8.32409 23.3224 8.45337 23.3454 8.57997L23.3457 8.58154L23.0998 8.62626M23.2753 8.20597C23.2753 8.20572 23.2752 8.20546 23.2752 8.20521L23.03 8.25424M23.2753 8.20597C23.2754 8.20622 23.2754 8.20648 23.2755 8.20673L23.03 8.25424M23.0998 8.62626L23.3453 8.57948C23.3688 8.7025 23.3939 8.83349 23.4214 8.94909C23.4508 9.07263 23.4767 9.14973 23.4936 9.18083L23.4961 9.18544L23.4961 9.18546C23.6344 9.45213 23.94 9.88952 24.2602 10.3476C24.2941 10.3961 24.3281 10.4448 24.3622 10.4936C25.0393 11.4462 25.7079 12.4009 25.9548 13.2156L25.9555 13.2181C26.2812 14.3338 26.2116 15.1377 25.8872 15.7518C25.5679 16.3561 25.0237 16.7314 24.507 17.0368C24.5066 17.0371 24.5062 17.0373 24.5058 17.0376L24.4929 17.0453C24.1108 17.2769 23.8266 17.4491 23.5975 17.7877C23.4699 17.9777 23.3847 18.1051 23.3298 18.2072C23.2762 18.3071 23.2679 18.3545 23.2684 18.3834C23.2688 18.4117 23.2782 18.4572 23.3343 18.5522C23.392 18.6499 23.4809 18.771 23.6148 18.9525L23.6158 18.9539C23.6325 18.9768 23.6494 19 23.6666 19.0236C23.9368 19.3943 24.2751 19.8583 24.5913 20.502L24.5921 20.5035C25.2162 21.7952 25.1924 23.6214 24.6575 25.3048C24.1216 26.9915 23.0543 28.5934 21.5205 29.4123M23.0998 8.62626C23.0765 8.49838 23.0533 8.37049 23.03 8.25424M23.0998 8.62626L23.03 8.25424M21.5205 29.4123C21.5204 29.4124 21.5203 29.4125 21.5202 29.4125L21.4024 29.192M21.5205 29.4123C21.5207 29.4123 21.5208 29.4122 21.5209 29.4121L21.4024 29.192M21.5205 29.4123C21.0342 29.6741 20.5173 29.814 19.9841 29.814C19.2158 29.814 18.6017 29.5357 18.0927 29.3044M21.4024 29.192C20.949 29.4361 20.4724 29.564 19.9841 29.564C19.2749 29.564 18.7053 29.3082 18.1937 29.0757M18.0927 29.3044C18.0936 29.3048 18.0944 29.3052 18.0953 29.3055L18.1937 29.0757M18.0927 29.3044C18.0686 29.2941 18.0449 29.2839 18.0215 29.2739C17.6325 29.1067 17.3576 28.9886 17.0893 28.9886C16.4219 28.9886 15.9855 29.1736 15.5954 29.547C15.1864 29.9384 14.8231 30.5402 14.3306 31.408L14.3287 31.4114L14.3286 31.4113C14.2714 31.5086 14.2141 31.6089 14.1558 31.7109L14.1555 31.7114C14.0976 31.8127 14.0388 31.9157 13.9799 32.0159L13.9797 32.0162C13.4142 32.974 13.0171 33.6269 12.5215 34.1148C12.041 34.5878 11.4803 34.8955 10.6232 35.2042M18.0927 29.3044C18.0919 29.3041 18.0911 29.3037 18.0903 29.3033L18.1937 29.0757M18.1937 29.0757L10.6232 35.2042M10.6232 35.2042C10.6306 35.1556 10.6389 35.1121 10.6479 35.0739L10.4046 35.0164M10.6232 35.2042L13.7644 31.8891C12.6251 33.819 12.2414 34.377 10.4046 35.0164M10.6232 35.2042C10.5954 35.3856 10.579 35.6381 10.5763 35.9539C10.5729 36.3495 10.591 36.829 10.6292 37.3629C10.7056 38.4308 10.8615 39.7068 11.0809 40.9485L11.0811 40.9493C11.3027 42.2282 11.678 43.1822 12.2528 44.038C12.8305 44.8983 13.6173 45.6709 14.6817 46.5792L14.6811 46.5787L14.5201 46.7699C12.3809 44.9447 11.2881 43.6078 10.8347 40.992L10.6232 35.2042ZM10.6232 35.2042C10.5785 35.2203 10.5331 35.2364 10.4868 35.2525L10.4046 35.0164M10.6232 35.2042L10.4046 35.0164M24.2504 58.573C23.7081 56.1714 22.2589 53.9802 20.5389 52.0391C18.8211 50.1006 16.8153 48.3922 15.1334 46.9597L15.1239 46.9516L15.1229 46.9507L14.6823 46.5797L24.2504 58.5728C24.2504 58.5729 24.2504 58.5729 24.2504 58.573ZM24.2504 58.573C24.9487 61.6553 23.4052 64.0729 22.1014 66.1151L22.0905 66.1321M24.2504 58.573L22.0905 66.1321M21.1697 10.6658C14.4131 15.289 9.14292 21.9407 6.21705 29.5618C5.7959 31.8982 5.78664 34.1377 6.17429 36.2019C6.38127 37.2711 6.66916 38.3197 6.99433 39.4462L6.99452 39.4469C7.41216 40.9086 7.84815 42.4385 8.03696 44.0423C8.24735 45.6918 8.054 47.1894 7.87096 48.6072L7.8625 48.6727C7.86248 48.6728 7.86246 48.673 7.86244 48.6732C7.85192 48.7573 7.84129 48.8415 7.83065 48.9258C7.7466 49.5913 7.66211 50.2604 7.63166 50.9202L7.63163 50.9208C7.51895 53.242 8.55499 55.462 9.70069 57.8937L9.70083 57.894C10.5938 59.796 11.5274 61.7898 11.9178 63.9547L11.918 63.9557C12.7587 68.7236 14.4914 72.0405 17.5459 74.7518L17.5467 74.7525C17.5807 74.783 17.6147 74.8131 17.6488 74.8431C17.1287 72.3905 16.949 69.9125 18.3179 67.1097C18.7437 66.2345 19.2629 65.4208 19.7618 64.6435C21.0065 62.6942 21.992 61.1107 21.5539 59.1716L21.1697 10.6658ZM21.1697 10.6658C21.4201 11.1048 21.7654 11.6031 22.1295 12.1088C22.3678 12.44 22.6437 12.8281 22.8741 13.183C23.1117 13.549 23.2783 13.8465 23.3244 14.0078L23.3243 14.0079L23.326 14.0131C23.3975 14.2444 23.4225 14.3932 23.4308 14.4778C23.4308 14.4783 23.4309 14.4788 23.4309 14.4793C23.4107 14.4932 23.388 14.5083 23.3633 14.5244C23.2847 14.5754 23.1928 14.6311 23.1152 14.6754L23.1152 14.6754L23.1114 14.6776L23.1092 14.6789C22.6169 14.972 21.9134 15.3907 21.3232 16.2638L21.3223 16.2651C20.6632 17.2537 20.447 18.0459 20.5337 18.7591C20.6192 19.4625 20.9958 20.043 21.4094 20.6081C21.4301 20.6366 21.4507 20.6649 21.4712 20.6932C21.6966 21.0033 21.9165 21.3059 22.1191 21.7211C22.2663 22.0255 22.3339 22.4496 22.3148 22.9454C22.2958 23.4379 22.192 23.983 22.014 24.5164C21.6541 25.5946 21.0119 26.5671 20.2274 26.9831L20.2268 26.9834C20.1541 27.0222 20.103 27.0402 20.0688 27.049C20.0362 27.0574 20.0139 27.0586 19.9957 27.0586C19.9311 27.0586 19.8344 27.0368 19.6937 26.9852C19.577 26.9425 19.4492 26.8869 19.3043 26.8238C19.2778 26.8123 19.2508 26.8006 19.2232 26.7886C19.2105 26.7831 19.1978 26.7775 19.1849 26.7719C18.6567 26.542 17.9749 26.2453 17.0694 26.2332V26.2332H17.0661C15.5976 26.2332 14.5554 26.7485 13.7566 27.4935C12.9699 28.2272 12.4241 29.1808 11.9337 30.0404C11.8618 30.1558 11.79 30.2825 11.7206 30.4053C11.678 30.4806 11.6362 30.5544 11.5958 30.6231C11.0626 31.5294 10.8227 31.9318 10.5562 32.1777C10.3041 32.4103 10.0239 32.5063 9.3298 32.7318C9.16179 32.7828 8.89956 32.8636 8.64464 33.0971C8.38851 33.3318 8.16096 33.6996 8.00754 34.2894C7.704 35.4562 7.67526 37.5534 8.35641 41.419C8.64648 43.0764 9.15784 44.3621 9.91282 45.5013C10.6656 46.6372 11.6537 47.6169 12.8809 48.6687L12.8826 48.6701L13.3233 49.0413C13.3235 49.0415 13.3237 49.0416 13.324 49.0418C14.8894 50.3745 16.7309 51.9423 18.2933 53.6675C19.8584 55.3958 21.1204 57.2578 21.5538 59.1714L21.1697 10.6658Z" fill="#FD780F" stroke="#FD780F" stroke-width="0.5"/>
<mask id="path-50-outside-1_53:1458" maskUnits="userSpaceOnUse" x="26.1797" y="9.6377" width="59" height="68" fill="black">
<rect fill="white" x="26.1797" y="9.6377" width="59" height="68"/>
<path d="M47.3622 76.7061C45.9671 76.7061 44.6883 75.9272 43.549 74.3926C41.5727 71.7303 41.7122 68.138 41.8401 64.6503C41.9098 62.6623 41.9912 60.779 41.6424 59.256C40.817 55.5126 38.922 55.0127 34.481 54.6988C29.1798 54.3152 27.7498 51.1762 27.3545 49.3278C26.3664 44.6194 29.7262 38.5741 33.4231 36.0397C32.4349 35.6328 32.0978 34.9934 31.9932 34.5051C31.6444 32.8775 33.4696 31.308 35.4111 29.6688C35.5041 29.5875 35.6087 29.5061 35.7017 29.4247C34.574 29.2038 33.551 28.7504 33.0976 27.7855C32.6558 26.8322 32.9232 25.7161 33.8998 24.4489C34.6438 23.484 35.6436 22.9376 36.7015 22.9376C37.992 22.9376 39.2243 23.7281 39.9683 24.9256C40.0381 24.8442 40.1078 24.7512 40.1776 24.6466C40.6775 23.9839 40.9216 23.1585 41.189 22.2866C41.6424 20.7869 42.1423 19.0895 44.014 17.9618C45.0487 17.3341 46.2578 17.0202 47.6877 17.0202C48.7457 17.0202 49.8036 17.1829 50.8267 17.3457C51.9195 17.5201 52.9309 17.6712 53.8842 17.6247C56.3023 17.4968 58.5809 15.9622 60.9874 14.3346C63.673 12.521 66.4515 10.6377 69.6834 10.6377C70.2182 10.6377 70.753 10.6842 71.2761 10.7888C71.4621 10.8237 71.6365 10.9051 71.7877 11.033C76.9378 15.3461 81.0649 20.8682 83.7272 27.0066C83.7737 27.1112 83.7969 27.2158 83.8085 27.3205C83.8667 27.8204 83.9016 28.2621 83.8899 28.669C83.8085 32.5869 83.8899 35.377 84.1689 38.3067C84.541 42.2478 83.2505 43.608 80.4255 45.5611C80.0535 45.8168 79.5536 46.2586 79.0188 46.7236C77.3331 48.1885 75.4148 49.8625 73.5199 49.8625C73.3687 49.8625 73.2176 49.8509 73.0665 49.8277C70.6135 49.4556 68.7301 46.6887 67.056 44.2474C66.4399 43.3406 65.847 42.4803 65.3122 41.8409C65.4052 42.271 65.4749 42.7128 65.4982 43.1429C65.5796 44.8751 65.3122 45.9912 64.603 46.7352C63.6846 47.7002 62.3593 47.7118 60.9526 47.7118C60.8596 47.7118 60.7549 47.7118 60.6619 47.7118C61.0688 48.3628 61.1735 48.5488 61.2316 48.7116C62.8243 53.0828 60.6619 57.0355 58.7437 60.5116L58.3601 61.2091C58.1159 61.6509 57.7323 62.5577 57.2905 63.6157C54.5004 70.2423 51.4196 76.7061 47.3622 76.7061ZM38.4686 36.9C37.7246 36.9 36.9573 37.0046 36.2946 37.179C35.9342 37.272 35.6203 37.3999 35.3413 37.5394C32.1094 39.2367 28.7496 44.9216 29.5866 48.8744C30.04 51.0367 31.749 52.2458 34.6554 52.4434C38.55 52.7224 42.5841 53.0131 43.8629 58.7678C44.2582 60.5697 44.1884 62.6856 44.1071 64.7317C43.9908 67.8241 43.8745 71.0095 45.3742 73.0324C46.0718 73.9625 46.7461 74.4391 47.3738 74.4391C50.2686 74.4391 53.7447 66.243 55.2328 62.7321C55.721 61.5695 56.1047 60.6627 56.3953 60.128L56.779 59.4188C58.5344 56.2334 60.348 52.9317 59.1506 49.5486C59.046 49.351 58.6275 48.6884 58.3484 48.2466C57.2789 46.5492 57.1626 46.3632 57.4881 45.7587C57.6858 45.3518 58.1275 45.0728 58.6274 45.0728C58.9995 45.0728 59.3134 45.2239 59.5691 45.3518C59.6389 45.3867 59.7435 45.4448 59.8016 45.4564C60.1969 45.4448 60.5922 45.4448 60.9642 45.4332C61.871 45.4332 62.7313 45.4216 62.9754 45.1658C63.0801 45.0495 63.3242 44.6426 63.2544 43.2476C63.2196 42.643 63.0336 41.9106 62.8708 41.2712C62.5802 40.1668 62.3709 39.3646 62.8708 38.7252C63.1149 38.3997 63.4986 38.2137 63.9171 38.2137C64.4984 38.2137 65.1029 38.5508 66.219 39.5041C67.1374 40.2947 68.021 41.5851 68.951 42.9569C70.2879 44.9216 71.9504 47.3514 73.4269 47.5723C73.4617 47.5723 73.5082 47.5839 73.5431 47.5839C74.5894 47.5839 76.3798 46.0261 77.554 45.003C78.1352 44.5031 78.6816 44.0149 79.1583 43.6893C81.6811 41.9339 82.2042 41.2945 81.9368 38.5043C81.6462 35.4816 81.5648 32.6101 81.6462 28.6109C81.6462 28.3551 81.6346 28.0645 81.5997 27.7274C79.1234 22.0657 75.3218 16.962 70.5902 12.9396C70.2996 12.8931 70.0089 12.8698 69.7183 12.8698C67.1723 12.8698 64.8007 14.4742 62.2779 16.1715C59.7203 17.9037 57.0696 19.6941 54.0237 19.8568C52.8611 19.9149 51.6637 19.7289 50.5128 19.5545C49.5246 19.4034 48.6062 19.2639 47.711 19.2639C46.6879 19.2639 45.8974 19.4615 45.2115 19.8684C44.0838 20.5543 43.7699 21.589 43.3746 22.9144C43.084 23.8909 42.7469 25.007 42.0028 25.9951C41.4913 26.6811 40.9449 27.3321 40.0032 27.7739C39.7126 27.9017 39.3987 27.9134 39.108 27.7971C39.1545 27.8552 39.1894 27.9017 39.2243 27.9715C39.4103 28.3203 39.4103 28.7504 39.201 29.0992C38.7941 29.7618 37.9222 30.5059 36.9108 31.3778C36.1551 32.0172 34.667 33.2844 34.3183 33.9354C34.3648 33.9471 34.4113 33.9703 34.481 33.9936C34.7368 34.0749 35.0158 34.0517 35.3762 33.9471C35.9575 33.7727 36.6318 33.3774 37.2828 32.9821C38.2129 32.4241 39.1662 31.8545 40.1892 31.7149C41.6657 31.5057 42.9212 31.9823 44.1071 32.4357C44.8976 32.738 45.6533 33.0286 46.3973 33.0635H46.5019C47.0483 33.0635 47.804 32.8426 48.5364 32.6217C49.4548 32.3544 50.4081 32.0637 51.3382 32.0637C51.9311 32.0637 52.4659 32.18 52.9193 32.4125C53.8144 32.8543 54.5701 33.8889 54.9538 35.1794C55.3258 36.4349 55.2676 37.644 54.7677 38.4811C53.6517 40.3993 50.6871 40.6899 49.0131 40.6899C46.4787 40.6899 43.8513 40.0738 42.6306 39.1902C42.0377 38.7601 41.6424 38.3299 41.3169 37.9812C40.7705 37.3883 40.5031 37.0976 39.5847 36.9465C39.2475 36.9349 38.8639 36.9 38.4686 36.9ZM38.9453 34.6562C39.294 34.6679 39.6312 34.7027 39.9451 34.7609C41.6308 35.0282 42.3516 35.8072 42.9794 36.4931C43.27 36.807 43.549 37.1092 43.9559 37.3999C44.6883 37.923 46.7809 38.4694 49.0131 38.4694C50.9429 38.4694 52.431 38.0509 52.8146 37.3882C52.9541 37.1557 53.0006 36.5861 52.7798 35.8769C52.5589 35.1445 52.1752 34.6214 51.9078 34.4935C51.3847 34.2377 50.2337 34.5283 49.1526 34.8422C48.1876 35.1329 47.1646 35.4235 46.2462 35.3654C45.1417 35.2956 44.2001 34.9352 43.2816 34.5865C42.3051 34.2145 41.4099 33.8657 40.4799 33.9936C40.0497 34.0401 39.5033 34.3307 38.9453 34.6562ZM36.7132 25.2162C36.3644 25.2162 36.0156 25.4255 35.7017 25.844C35.1437 26.5648 35.1669 26.8671 35.1669 26.8671C35.3065 27.0414 35.9575 27.3088 38.2477 27.4135C38.3756 27.4251 38.5035 27.4483 38.6314 27.4948C38.5151 27.3553 38.4454 27.1926 38.4105 27.0066C38.2129 26.0416 37.4456 25.2162 36.7132 25.2162Z"/>
</mask>
<path d="M47.3622 76.7061C45.9671 76.7061 44.6883 75.9272 43.549 74.3926C41.5727 71.7303 41.7122 68.138 41.8401 64.6503C41.9098 62.6623 41.9912 60.779 41.6424 59.256C40.817 55.5126 38.922 55.0127 34.481 54.6988C29.1798 54.3152 27.7498 51.1762 27.3545 49.3278C26.3664 44.6194 29.7262 38.5741 33.4231 36.0397C32.4349 35.6328 32.0978 34.9934 31.9932 34.5051C31.6444 32.8775 33.4696 31.308 35.4111 29.6688C35.5041 29.5875 35.6087 29.5061 35.7017 29.4247C34.574 29.2038 33.551 28.7504 33.0976 27.7855C32.6558 26.8322 32.9232 25.7161 33.8998 24.4489C34.6438 23.484 35.6436 22.9376 36.7015 22.9376C37.992 22.9376 39.2243 23.7281 39.9683 24.9256C40.0381 24.8442 40.1078 24.7512 40.1776 24.6466C40.6775 23.9839 40.9216 23.1585 41.189 22.2866C41.6424 20.7869 42.1423 19.0895 44.014 17.9618C45.0487 17.3341 46.2578 17.0202 47.6877 17.0202C48.7457 17.0202 49.8036 17.1829 50.8267 17.3457C51.9195 17.5201 52.9309 17.6712 53.8842 17.6247C56.3023 17.4968 58.5809 15.9622 60.9874 14.3346C63.673 12.521 66.4515 10.6377 69.6834 10.6377C70.2182 10.6377 70.753 10.6842 71.2761 10.7888C71.4621 10.8237 71.6365 10.9051 71.7877 11.033C76.9378 15.3461 81.0649 20.8682 83.7272 27.0066C83.7737 27.1112 83.7969 27.2158 83.8085 27.3205C83.8667 27.8204 83.9016 28.2621 83.8899 28.669C83.8085 32.5869 83.8899 35.377 84.1689 38.3067C84.541 42.2478 83.2505 43.608 80.4255 45.5611C80.0535 45.8168 79.5536 46.2586 79.0188 46.7236C77.3331 48.1885 75.4148 49.8625 73.5199 49.8625C73.3687 49.8625 73.2176 49.8509 73.0665 49.8277C70.6135 49.4556 68.7301 46.6887 67.056 44.2474C66.4399 43.3406 65.847 42.4803 65.3122 41.8409C65.4052 42.271 65.4749 42.7128 65.4982 43.1429C65.5796 44.8751 65.3122 45.9912 64.603 46.7352C63.6846 47.7002 62.3593 47.7118 60.9526 47.7118C60.8596 47.7118 60.7549 47.7118 60.6619 47.7118C61.0688 48.3628 61.1735 48.5488 61.2316 48.7116C62.8243 53.0828 60.6619 57.0355 58.7437 60.5116L58.3601 61.2091C58.1159 61.6509 57.7323 62.5577 57.2905 63.6157C54.5004 70.2423 51.4196 76.7061 47.3622 76.7061ZM38.4686 36.9C37.7246 36.9 36.9573 37.0046 36.2946 37.179C35.9342 37.272 35.6203 37.3999 35.3413 37.5394C32.1094 39.2367 28.7496 44.9216 29.5866 48.8744C30.04 51.0367 31.749 52.2458 34.6554 52.4434C38.55 52.7224 42.5841 53.0131 43.8629 58.7678C44.2582 60.5697 44.1884 62.6856 44.1071 64.7317C43.9908 67.8241 43.8745 71.0095 45.3742 73.0324C46.0718 73.9625 46.7461 74.4391 47.3738 74.4391C50.2686 74.4391 53.7447 66.243 55.2328 62.7321C55.721 61.5695 56.1047 60.6627 56.3953 60.128L56.779 59.4188C58.5344 56.2334 60.348 52.9317 59.1506 49.5486C59.046 49.351 58.6275 48.6884 58.3484 48.2466C57.2789 46.5492 57.1626 46.3632 57.4881 45.7587C57.6858 45.3518 58.1275 45.0728 58.6274 45.0728C58.9995 45.0728 59.3134 45.2239 59.5691 45.3518C59.6389 45.3867 59.7435 45.4448 59.8016 45.4564C60.1969 45.4448 60.5922 45.4448 60.9642 45.4332C61.871 45.4332 62.7313 45.4216 62.9754 45.1658C63.0801 45.0495 63.3242 44.6426 63.2544 43.2476C63.2196 42.643 63.0336 41.9106 62.8708 41.2712C62.5802 40.1668 62.3709 39.3646 62.8708 38.7252C63.1149 38.3997 63.4986 38.2137 63.9171 38.2137C64.4984 38.2137 65.1029 38.5508 66.219 39.5041C67.1374 40.2947 68.021 41.5851 68.951 42.9569C70.2879 44.9216 71.9504 47.3514 73.4269 47.5723C73.4617 47.5723 73.5082 47.5839 73.5431 47.5839C74.5894 47.5839 76.3798 46.0261 77.554 45.003C78.1352 44.5031 78.6816 44.0149 79.1583 43.6893C81.6811 41.9339 82.2042 41.2945 81.9368 38.5043C81.6462 35.4816 81.5648 32.6101 81.6462 28.6109C81.6462 28.3551 81.6346 28.0645 81.5997 27.7274C79.1234 22.0657 75.3218 16.962 70.5902 12.9396C70.2996 12.8931 70.0089 12.8698 69.7183 12.8698C67.1723 12.8698 64.8007 14.4742 62.2779 16.1715C59.7203 17.9037 57.0696 19.6941 54.0237 19.8568C52.8611 19.9149 51.6637 19.7289 50.5128 19.5545C49.5246 19.4034 48.6062 19.2639 47.711 19.2639C46.6879 19.2639 45.8974 19.4615 45.2115 19.8684C44.0838 20.5543 43.7699 21.589 43.3746 22.9144C43.084 23.8909 42.7469 25.007 42.0028 25.9951C41.4913 26.6811 40.9449 27.3321 40.0032 27.7739C39.7126 27.9017 39.3987 27.9134 39.108 27.7971C39.1545 27.8552 39.1894 27.9017 39.2243 27.9715C39.4103 28.3203 39.4103 28.7504 39.201 29.0992C38.7941 29.7618 37.9222 30.5059 36.9108 31.3778C36.1551 32.0172 34.667 33.2844 34.3183 33.9354C34.3648 33.9471 34.4113 33.9703 34.481 33.9936C34.7368 34.0749 35.0158 34.0517 35.3762 33.9471C35.9575 33.7727 36.6318 33.3774 37.2828 32.9821C38.2129 32.4241 39.1662 31.8545 40.1892 31.7149C41.6657 31.5057 42.9212 31.9823 44.1071 32.4357C44.8976 32.738 45.6533 33.0286 46.3973 33.0635H46.5019C47.0483 33.0635 47.804 32.8426 48.5364 32.6217C49.4548 32.3544 50.4081 32.0637 51.3382 32.0637C51.9311 32.0637 52.4659 32.18 52.9193 32.4125C53.8144 32.8543 54.5701 33.8889 54.9538 35.1794C55.3258 36.4349 55.2676 37.644 54.7677 38.4811C53.6517 40.3993 50.6871 40.6899 49.0131 40.6899C46.4787 40.6899 43.8513 40.0738 42.6306 39.1902C42.0377 38.7601 41.6424 38.3299 41.3169 37.9812C40.7705 37.3883 40.5031 37.0976 39.5847 36.9465C39.2475 36.9349 38.8639 36.9 38.4686 36.9ZM38.9453 34.6562C39.294 34.6679 39.6312 34.7027 39.9451 34.7609C41.6308 35.0282 42.3516 35.8072 42.9794 36.4931C43.27 36.807 43.549 37.1092 43.9559 37.3999C44.6883 37.923 46.7809 38.4694 49.0131 38.4694C50.9429 38.4694 52.431 38.0509 52.8146 37.3882C52.9541 37.1557 53.0006 36.5861 52.7798 35.8769C52.5589 35.1445 52.1752 34.6214 51.9078 34.4935C51.3847 34.2377 50.2337 34.5283 49.1526 34.8422C48.1876 35.1329 47.1646 35.4235 46.2462 35.3654C45.1417 35.2956 44.2001 34.9352 43.2816 34.5865C42.3051 34.2145 41.4099 33.8657 40.4799 33.9936C40.0497 34.0401 39.5033 34.3307 38.9453 34.6562ZM36.7132 25.2162C36.3644 25.2162 36.0156 25.4255 35.7017 25.844C35.1437 26.5648 35.1669 26.8671 35.1669 26.8671C35.3065 27.0414 35.9575 27.3088 38.2477 27.4135C38.3756 27.4251 38.5035 27.4483 38.6314 27.4948C38.5151 27.3553 38.4454 27.1926 38.4105 27.0066C38.2129 26.0416 37.4456 25.2162 36.7132 25.2162Z" fill="#FD780F"/>
<path d="M47.3622 76.7061C45.9671 76.7061 44.6883 75.9272 43.549 74.3926C41.5727 71.7303 41.7122 68.138 41.8401 64.6503C41.9098 62.6623 41.9912 60.779 41.6424 59.256C40.817 55.5126 38.922 55.0127 34.481 54.6988C29.1798 54.3152 27.7498 51.1762 27.3545 49.3278C26.3664 44.6194 29.7262 38.5741 33.4231 36.0397C32.4349 35.6328 32.0978 34.9934 31.9932 34.5051C31.6444 32.8775 33.4696 31.308 35.4111 29.6688C35.5041 29.5875 35.6087 29.5061 35.7017 29.4247C34.574 29.2038 33.551 28.7504 33.0976 27.7855C32.6558 26.8322 32.9232 25.7161 33.8998 24.4489C34.6438 23.484 35.6436 22.9376 36.7015 22.9376C37.992 22.9376 39.2243 23.7281 39.9683 24.9256C40.0381 24.8442 40.1078 24.7512 40.1776 24.6466C40.6775 23.9839 40.9216 23.1585 41.189 22.2866C41.6424 20.7869 42.1423 19.0895 44.014 17.9618C45.0487 17.3341 46.2578 17.0202 47.6877 17.0202C48.7457 17.0202 49.8036 17.1829 50.8267 17.3457C51.9195 17.5201 52.9309 17.6712 53.8842 17.6247C56.3023 17.4968 58.5809 15.9622 60.9874 14.3346C63.673 12.521 66.4515 10.6377 69.6834 10.6377C70.2182 10.6377 70.753 10.6842 71.2761 10.7888C71.4621 10.8237 71.6365 10.9051 71.7877 11.033C76.9378 15.3461 81.0649 20.8682 83.7272 27.0066C83.7737 27.1112 83.7969 27.2158 83.8085 27.3205C83.8667 27.8204 83.9016 28.2621 83.8899 28.669C83.8085 32.5869 83.8899 35.377 84.1689 38.3067C84.541 42.2478 83.2505 43.608 80.4255 45.5611C80.0535 45.8168 79.5536 46.2586 79.0188 46.7236C77.3331 48.1885 75.4148 49.8625 73.5199 49.8625C73.3687 49.8625 73.2176 49.8509 73.0665 49.8277C70.6135 49.4556 68.7301 46.6887 67.056 44.2474C66.4399 43.3406 65.847 42.4803 65.3122 41.8409C65.4052 42.271 65.4749 42.7128 65.4982 43.1429C65.5796 44.8751 65.3122 45.9912 64.603 46.7352C63.6846 47.7002 62.3593 47.7118 60.9526 47.7118C60.8596 47.7118 60.7549 47.7118 60.6619 47.7118C61.0688 48.3628 61.1735 48.5488 61.2316 48.7116C62.8243 53.0828 60.6619 57.0355 58.7437 60.5116L58.3601 61.2091C58.1159 61.6509 57.7323 62.5577 57.2905 63.6157C54.5004 70.2423 51.4196 76.7061 47.3622 76.7061ZM38.4686 36.9C37.7246 36.9 36.9573 37.0046 36.2946 37.179C35.9342 37.272 35.6203 37.3999 35.3413 37.5394C32.1094 39.2367 28.7496 44.9216 29.5866 48.8744C30.04 51.0367 31.749 52.2458 34.6554 52.4434C38.55 52.7224 42.5841 53.0131 43.8629 58.7678C44.2582 60.5697 44.1884 62.6856 44.1071 64.7317C43.9908 67.8241 43.8745 71.0095 45.3742 73.0324C46.0718 73.9625 46.7461 74.4391 47.3738 74.4391C50.2686 74.4391 53.7447 66.243 55.2328 62.7321C55.721 61.5695 56.1047 60.6627 56.3953 60.128L56.779 59.4188C58.5344 56.2334 60.348 52.9317 59.1506 49.5486C59.046 49.351 58.6275 48.6884 58.3484 48.2466C57.2789 46.5492 57.1626 46.3632 57.4881 45.7587C57.6858 45.3518 58.1275 45.0728 58.6274 45.0728C58.9995 45.0728 59.3134 45.2239 59.5691 45.3518C59.6389 45.3867 59.7435 45.4448 59.8016 45.4564C60.1969 45.4448 60.5922 45.4448 60.9642 45.4332C61.871 45.4332 62.7313 45.4216 62.9754 45.1658C63.0801 45.0495 63.3242 44.6426 63.2544 43.2476C63.2196 42.643 63.0336 41.9106 62.8708 41.2712C62.5802 40.1668 62.3709 39.3646 62.8708 38.7252C63.1149 38.3997 63.4986 38.2137 63.9171 38.2137C64.4984 38.2137 65.1029 38.5508 66.219 39.5041C67.1374 40.2947 68.021 41.5851 68.951 42.9569C70.2879 44.9216 71.9504 47.3514 73.4269 47.5723C73.4617 47.5723 73.5082 47.5839 73.5431 47.5839C74.5894 47.5839 76.3798 46.0261 77.554 45.003C78.1352 44.5031 78.6816 44.0149 79.1583 43.6893C81.6811 41.9339 82.2042 41.2945 81.9368 38.5043C81.6462 35.4816 81.5648 32.6101 81.6462 28.6109C81.6462 28.3551 81.6346 28.0645 81.5997 27.7274C79.1234 22.0657 75.3218 16.962 70.5902 12.9396C70.2996 12.8931 70.0089 12.8698 69.7183 12.8698C67.1723 12.8698 64.8007 14.4742 62.2779 16.1715C59.7203 17.9037 57.0696 19.6941 54.0237 19.8568C52.8611 19.9149 51.6637 19.7289 50.5128 19.5545C49.5246 19.4034 48.6062 19.2639 47.711 19.2639C46.6879 19.2639 45.8974 19.4615 45.2115 19.8684C44.0838 20.5543 43.7699 21.589 43.3746 22.9144C43.084 23.8909 42.7469 25.007 42.0028 25.9951C41.4913 26.6811 40.9449 27.3321 40.0032 27.7739C39.7126 27.9017 39.3987 27.9134 39.108 27.7971C39.1545 27.8552 39.1894 27.9017 39.2243 27.9715C39.4103 28.3203 39.4103 28.7504 39.201 29.0992C38.7941 29.7618 37.9222 30.5059 36.9108 31.3778C36.1551 32.0172 34.667 33.2844 34.3183 33.9354C34.3648 33.9471 34.4113 33.9703 34.481 33.9936C34.7368 34.0749 35.0158 34.0517 35.3762 33.9471C35.9575 33.7727 36.6318 33.3774 37.2828 32.9821C38.2129 32.4241 39.1662 31.8545 40.1892 31.7149C41.6657 31.5057 42.9212 31.9823 44.1071 32.4357C44.8976 32.738 45.6533 33.0286 46.3973 33.0635H46.5019C47.0483 33.0635 47.804 32.8426 48.5364 32.6217C49.4548 32.3544 50.4081 32.0637 51.3382 32.0637C51.9311 32.0637 52.4659 32.18 52.9193 32.4125C53.8144 32.8543 54.5701 33.8889 54.9538 35.1794C55.3258 36.4349 55.2676 37.644 54.7677 38.4811C53.6517 40.3993 50.6871 40.6899 49.0131 40.6899C46.4787 40.6899 43.8513 40.0738 42.6306 39.1902C42.0377 38.7601 41.6424 38.3299 41.3169 37.9812C40.7705 37.3883 40.5031 37.0976 39.5847 36.9465C39.2475 36.9349 38.8639 36.9 38.4686 36.9ZM38.9453 34.6562C39.294 34.6679 39.6312 34.7027 39.9451 34.7609C41.6308 35.0282 42.3516 35.8072 42.9794 36.4931C43.27 36.807 43.549 37.1092 43.9559 37.3999C44.6883 37.923 46.7809 38.4694 49.0131 38.4694C50.9429 38.4694 52.431 38.0509 52.8146 37.3882C52.9541 37.1557 53.0006 36.5861 52.7798 35.8769C52.5589 35.1445 52.1752 34.6214 51.9078 34.4935C51.3847 34.2377 50.2337 34.5283 49.1526 34.8422C48.1876 35.1329 47.1646 35.4235 46.2462 35.3654C45.1417 35.2956 44.2001 34.9352 43.2816 34.5865C42.3051 34.2145 41.4099 33.8657 40.4799 33.9936C40.0497 34.0401 39.5033 34.3307 38.9453 34.6562ZM36.7132 25.2162C36.3644 25.2162 36.0156 25.4255 35.7017 25.844C35.1437 26.5648 35.1669 26.8671 35.1669 26.8671C35.3065 27.0414 35.9575 27.3088 38.2477 27.4135C38.3756 27.4251 38.5035 27.4483 38.6314 27.4948C38.5151 27.3553 38.4454 27.1926 38.4105 27.0066C38.2129 26.0416 37.4456 25.2162 36.7132 25.2162Z" stroke="#FD780F" mask="url(#path-50-outside-1_53:1458)"/>
<path d="M80.1774 48.5035L80.1774 48.5035L80.1766 48.5044C78.4622 50.5593 78.4945 53.5854 79.398 55.5133C80.0661 56.9464 81.1985 57.8082 82.5193 57.8082C83.7172 57.8082 84.8151 57.1187 85.804 55.8465C85.934 55.6995 86.0201 55.5254 86.0635 55.3403C86.4959 53.7269 86.8346 52.0446 87.0798 50.3631L87.0799 50.3631L87.0807 50.3562C87.1082 50.1225 87.0822 49.8561 86.9804 49.6231C86.2759 47.9838 84.8378 46.8916 83.275 46.8916C82.463 46.8916 81.2864 47.1873 80.1774 48.5035ZM81.898 54.3386L81.898 54.3386L81.8972 54.3369C81.6382 53.781 81.5041 53.0364 81.5553 52.2885C81.6065 51.5411 81.8409 50.8153 82.2913 50.2796C82.4235 50.1255 82.5815 49.9665 82.7552 49.8473C82.9298 49.7275 83.1045 49.6586 83.275 49.6586C83.5828 49.6586 83.9803 49.914 84.2705 50.4095C84.0669 51.7483 83.7987 53.0751 83.4661 54.3586C82.8796 55.0357 82.5389 55.0412 82.5193 55.0412C82.4582 55.0412 82.3552 54.9962 82.2232 54.8512C82.0986 54.7142 81.9837 54.526 81.898 54.3386Z" fill="#FD780F" stroke="#FD780F" stroke-width="0.5"/>
<path d="M12.5163 40.6265L12.5161 40.6258C12.2207 39.6975 12.1142 38.6265 12.2661 37.653C12.4176 36.6816 12.8325 35.7767 13.6104 35.2302L12.5163 40.6265ZM12.5163 40.6265C13.0458 42.2752 14.1377 43.3344 15.5212 43.3344C16.3745 43.3344 17.2017 42.9201 17.9534 42.1684L17.9544 42.1674M12.5163 40.6265L17.9544 42.1674M17.9544 42.1674C19.0576 41.0514 19.2422 39.2372 18.5075 37.4666C17.8237 35.8112 16.5682 34.7197 15.1725 34.7197C14.6171 34.7197 14.0792 34.9008 13.6104 35.2302L17.9544 42.1674ZM15.1555 39.79L15.1554 39.7898C14.9747 39.2094 14.9478 38.6457 14.9966 38.2091C15.021 37.9906 15.0638 37.8096 15.1122 37.6778C15.1511 37.5718 15.1855 37.5198 15.2014 37.4993C15.2117 37.5046 15.2248 37.5119 15.2408 37.5221C15.2981 37.5585 15.3727 37.6187 15.4561 37.7067C15.6225 37.882 15.8122 38.1545 15.9639 38.5282L15.9639 38.5282L15.9644 38.5294C16.1163 38.8983 16.1895 39.2696 16.1882 39.5797C16.1869 39.898 16.1083 40.1082 16.0084 40.2092C15.846 40.366 15.717 40.4598 15.6262 40.5129C15.5959 40.5306 15.572 40.5426 15.5539 40.5507C15.5302 40.5279 15.4994 40.4937 15.4639 40.4455C15.3695 40.3171 15.2531 40.1047 15.1555 39.79Z" fill="#FD780F" stroke="#FD780F" stroke-width="0.5"/>
<path d="M57.2141 73.7051C56.7633 73.2476 56.4563 72.545 56.4014 71.5585L57.2141 73.7051ZM57.2141 73.7051C57.665 74.1625 58.2377 74.3521 58.7785 74.3521M57.2141 73.7051L58.7785 74.3521M58.7785 74.3521C59.2603 74.3521 59.742 74.2085 60.2544 73.9401C60.7508 73.6817 61.2318 73.0873 61.6611 72.359C62.0972 71.6191 62.5036 70.6996 62.8353 69.7383C63.1672 68.7767 63.4267 67.7659 63.5657 66.8419C63.7039 65.9238 63.7268 65.0677 63.5667 64.4271C63.4225 63.8503 63.1412 63.375 62.7327 63.0603C62.3217 62.7436 61.8023 62.6055 61.2164 62.6697M58.7785 74.3521L61.2164 62.6697M61.2164 62.6697C60.4214 62.7539 59.7161 63.2055 59.1159 63.843C58.5148 64.4814 58.0022 65.3234 57.5904 66.2299C56.7689 68.038 56.3231 70.1596 56.4014 71.5584L61.2164 62.6697ZM60.2133 67.2111L60.2133 67.211C60.4557 66.7021 60.6891 66.3212 60.8934 66.0419C60.8022 66.7715 60.575 67.76 60.2764 68.7177C60.073 69.3704 59.8404 69.9962 59.6035 70.5009C59.4495 70.8289 59.3011 71.0891 59.1668 71.2722C59.1655 70.9463 59.2051 70.505 59.3032 69.9835C59.4566 69.1686 59.7467 68.1897 60.2133 67.2111Z" fill="#FD780F" stroke="#FD780F" stroke-width="0.5"/>
<path d="M29.2696 11.2261L29.2696 11.2261C29.9326 9.86298 31.4661 8.84132 33.1304 8.16265C34.8037 7.48033 36.6667 7.12109 38.0625 7.12109C38.4109 7.12109 38.7464 7.1451 39.0456 7.181L39.0503 7.18157L39.0503 7.18161C40.5396 7.38914 41.6704 8.16682 42.1989 9.41257L42.1996 9.41418C42.8481 10.9731 42.4132 13.054 41.1578 14.7399C40.0458 16.2385 38.4183 17.0171 36.9156 17.7338M29.2696 11.2261L36.807 17.5086M29.2696 11.2261L29.2685 11.2284M29.2696 11.2261L29.2685 11.2284M36.9156 17.7338C36.9152 17.734 36.9149 17.7341 36.9146 17.7343L36.807 17.5086M36.9156 17.7338C36.9159 17.7336 36.9162 17.7335 36.9166 17.7333L36.807 17.5086M36.9156 17.7338C36.8724 17.7549 36.8293 17.7759 36.7865 17.7967C35.8754 18.2407 35.0463 18.6447 34.3947 19.168L34.3953 19.1675L34.2377 18.9735M36.807 17.5086C36.76 17.5316 36.7131 17.5544 36.6664 17.5771C35.7648 18.0164 34.9119 18.4319 34.2377 18.9735M34.2377 18.9735L34.3943 19.1684M34.2377 18.9735L34.3943 19.1684M34.3943 19.1684L34.0251 19.4683L33.8657 19.2757L34.0233 19.4698L34.3943 19.1684ZM28.4973 12.6667C27.9243 13.6853 27.2986 14.7988 26.9221 15.9207C26.5448 17.0451 26.4068 18.2094 26.8435 19.3203L28.4976 12.6661C28.4975 12.6663 28.4974 12.6665 28.4973 12.6667ZM28.4973 12.6667C28.5418 12.5866 28.5858 12.5076 28.6292 12.4298M28.4973 12.6667L28.6292 12.4298M29.2685 11.2284C29.0949 11.595 28.8719 11.9947 28.6292 12.4298M29.2685 11.2284L28.6292 12.4298M29.4137 18.3136L29.4137 18.3136C29.5458 18.6548 29.6597 18.7903 29.722 18.8418C29.751 18.8658 29.7686 18.8714 29.7734 18.8728C29.7786 18.8742 29.7812 18.8746 29.7967 18.8746C29.9164 18.8746 30.0853 18.828 30.2984 18.7279C30.5068 18.63 30.7363 18.4912 30.9709 18.331C31.4402 18.0106 31.908 17.6201 32.2398 17.3407L32.2408 17.3398L32.2423 17.3386C32.3805 17.2234 32.5213 17.1061 32.6394 17.0116M29.4137 18.3136L30.6803 13.8931C30.9941 13.335 31.2848 12.8119 31.5289 12.312L31.7533 12.4222C31.7534 12.4221 31.7534 12.422 31.7534 12.4219C31.8863 12.1516 32.1765 11.8504 32.607 11.5475C33.0327 11.2479 33.5745 10.9613 34.1802 10.7122C35.3939 10.213 36.8349 9.87646 38.0625 9.87646C38.2903 9.87646 38.4915 9.88815 38.6413 9.91811L38.6487 9.9196L38.6562 9.92064C39.0843 9.97949 39.3161 10.1068 39.4429 10.214C39.5676 10.3196 39.61 10.4213 39.6335 10.4777L39.6337 10.4783L39.6343 10.4797C39.7497 10.752 39.7578 11.1609 39.6354 11.6397C39.5145 12.1121 39.2737 12.623 38.932 13.0805C38.2319 14.01 37.0405 14.5899 35.6995 15.2369C34.6676 15.7238 33.584 16.2465 32.6394 17.0116M29.4137 18.3136L29.4125 18.3105C29.3276 18.0994 29.3102 17.8291 29.3596 17.5008C29.4089 17.1739 29.5219 16.8071 29.6786 16.4157C29.9925 15.6316 30.4662 14.7861 30.8983 14.0153L29.4137 18.3136ZM32.6394 17.0116C32.6392 17.0118 32.639 17.0119 32.6387 17.0121L32.7961 17.2064L32.6399 17.0112C32.6398 17.0113 32.6396 17.0115 32.6394 17.0116Z" fill="#FD780F" stroke="#FD780F" stroke-width="0.5"/>
</svg>
