<svg width="31" height="20" viewBox="0 0 31 20" fill="none" xmlns="http://www.w3.org/2000/svg">
<path d="M9.69238 15.1852C7.10099 15.1852 4.93332 13.1659 4.66299 10.5454C4.62576 10.1845 4.62576 9.8155 4.66299 9.45462C4.93332 6.8341 7.10099 4.81481 9.69238 4.81481C12.2838 4.81481 14.4514 6.8341 14.7218 9.45462C14.759 9.8155 14.759 10.1845 14.7218 10.5454C14.4514 13.1659 12.2838 15.1852 9.69238 15.1852Z" fill="white"/>
<path fill-rule="evenodd" clip-rule="evenodd" d="M9.80032 20H21.1997C26.0222 20 30.1279 16.4201 30.8801 11.5596C31.04 10.5263 31.04 9.47372 30.8801 8.44037C30.1279 3.57985 26.0222 0 21.1997 0H9.80032C4.97784 0 0.872052 3.57986 0.119927 8.44038C-0.0399757 9.47372 -0.0399756 10.5263 0.119927 11.5596C0.872054 16.4201 4.97784 20 9.80032 20ZM9.80032 17.7778C6.0495 17.7778 2.85611 14.9934 2.27113 11.213C2.14676 10.4093 2.14676 9.59068 2.27113 8.78696C2.85611 5.00655 6.0495 2.22222 9.80032 2.22222L21.1997 2.22222C24.9505 2.22222 28.1439 5.00655 28.7289 8.78696C28.8532 9.59067 28.8532 10.4093 28.7289 11.213C28.1439 14.9934 24.9505 17.7778 21.1997 17.7778H9.80032Z" fill="white"/>
</svg>
