<svg width="47" height="47" viewBox="0 0 47 47" fill="none" xmlns="http://www.w3.org/2000/svg">
<circle cx="23.5" cy="23.5" r="23" stroke="white"/>
<path fill-rule="evenodd" clip-rule="evenodd" d="M16.3833 25.3257C16.4371 25.3439 16.4914 25.3569 16.5457 25.3648C16.6048 25.5048 16.6813 25.6859 16.7704 25.8976C16.988 26.4143 17.2812 27.1132 17.5839 27.8423C18.2011 29.3292 18.8237 30.862 18.9612 31.3007C19.1314 31.843 19.3113 32.2118 19.5078 32.4635C19.6093 32.5936 19.7268 32.7073 19.8642 32.7934C19.9334 32.8367 20.0065 32.8723 20.0828 32.8987C20.0862 32.8999 20.0895 32.901 20.0929 32.9022C20.4861 33.0517 20.8447 32.9894 21.0692 32.9132C21.1893 32.8725 21.2865 32.8233 21.3554 32.7834C21.3905 32.7631 21.4201 32.7441 21.4438 32.7281L21.4494 32.7243L24.9226 30.5435L28.9344 33.6404C28.9936 33.6861 29.0581 33.7244 29.1265 33.7544C29.6085 33.9662 30.0752 34.0401 30.5143 33.9797C30.9525 33.9194 31.3005 33.734 31.5595 33.5253C31.8132 33.321 31.9852 33.0921 32.0923 32.9221C32.1469 32.8352 32.188 32.7584 32.217 32.6996C32.2315 32.67 32.2432 32.6446 32.2523 32.6241L32.2639 32.5971L32.2682 32.5865L32.27 32.582L32.2709 32.5799L32.2717 32.578C32.2927 32.5249 32.3089 32.47 32.3199 32.4139L35.9824 13.8223C35.9941 13.7628 36 13.7024 36 13.6417C36 13.0973 35.7963 12.5796 35.3172 12.2654C34.9077 11.9969 34.4516 11.9854 34.1633 12.0074C33.8523 12.0312 33.5651 12.1085 33.3724 12.1702C33.2721 12.2024 33.188 12.2334 33.1274 12.257C33.0969 12.2689 33.0719 12.2791 33.0533 12.2869L33.0394 12.2928L12.4996 20.4055L12.4969 20.4065C12.4839 20.4113 12.4671 20.4176 12.4471 20.4254C12.4073 20.441 12.354 20.463 12.2918 20.4914C12.1704 20.5468 12.0001 20.6334 11.8253 20.7539C11.5461 20.9464 10.904 21.4736 11.0121 22.3438C11.0984 23.0381 11.5708 23.4644 11.8586 23.6695C12.0166 23.782 12.1667 23.8625 12.2761 23.915C12.3268 23.9393 12.4321 23.9823 12.4778 24.001L12.4893 24.0058L16.3833 25.3257ZM33.7582 14.0018L33.7553 14.0031C33.7451 14.0076 33.7348 14.0119 33.7244 14.016L13.1597 22.1385C13.149 22.1427 13.1382 22.1468 13.1273 22.1506L13.1158 22.155C13.1027 22.1601 13.0805 22.1692 13.0527 22.1819C13.037 22.1891 13.0205 22.1969 13.0037 22.2053C13.0268 22.2184 13.0488 22.2298 13.0684 22.2392C13.0872 22.2482 13.1016 22.2543 13.1095 22.2576L16.9715 23.5667C17.0422 23.5906 17.1081 23.6224 17.1686 23.6607L29.9207 16.1444L29.9326 16.1373C29.942 16.1318 29.9541 16.1247 29.9688 16.1164C29.9978 16.0999 30.0377 16.0779 30.0851 16.0536C30.1736 16.0082 30.3152 15.9409 30.4747 15.8913C30.5858 15.8567 30.9133 15.7593 31.2673 15.8737C31.4858 15.9442 31.7121 16.0959 31.8592 16.3529C31.9323 16.4806 31.9713 16.6089 31.9901 16.7263C32.0402 16.9113 32.0323 17.0939 31.9931 17.2516C31.9086 17.5912 31.6716 17.8562 31.4559 18.0588C31.2712 18.2326 28.8804 20.5536 26.522 22.8449C25.3458 23.9875 24.1817 25.1189 23.3116 25.9646L22.7401 26.5201L29.9562 32.0904C30.1217 32.15 30.2195 32.147 30.2648 32.1407C30.3187 32.1333 30.3628 32.1124 30.4079 32.0761C30.4583 32.0355 30.5024 31.9806 30.5354 31.9283L30.5367 31.9262L34.0889 13.8944C34.0362 13.9071 33.9829 13.9223 33.9315 13.9388C33.8733 13.9575 33.8253 13.9752 33.7935 13.9876C33.7778 13.9938 33.7664 13.9984 33.7603 14.001L33.7582 14.0018ZM23.36 29.3373L21.9203 28.226L21.5715 30.4603L23.36 29.3373ZM20.5996 26.0208L22.0313 24.6292C22.9015 23.7835 24.0657 22.652 25.242 21.5093L26.4371 20.3483L18.4245 25.071L18.4675 25.1731C18.6859 25.6917 18.9804 26.3936 19.2847 27.1266C19.5122 27.6747 19.7501 28.2518 19.9668 28.7861L20.3146 26.5584C20.3482 26.3436 20.4524 26.1576 20.5996 26.0208Z" fill="white"/>
</svg>
