<svg width="31" height="31" viewBox="0 0 31 31" fill="none" xmlns="http://www.w3.org/2000/svg">
<g clip-path="url(#clip0_350:2396)">
<path d="M15.9723 30.0541C24.2715 30.0541 30.9994 23.3262 30.9994 15.027C30.9994 6.72783 24.2715 0 15.9723 0C7.67314 0 0.945312 6.72783 0.945312 15.027C0.945312 23.3262 7.67314 30.0541 15.9723 30.0541Z" fill="white"/>
<path d="M7.82126 14.7015L22.3098 9.11525C22.9823 8.87231 23.5696 9.27929 23.3517 10.2961L23.3529 10.2949L20.886 21.917C20.7032 22.741 20.2135 22.9414 19.5286 22.5532L15.7718 19.7844L13.9598 21.5301C13.7594 21.7304 13.5904 21.8995 13.2022 21.8995L13.4689 18.0764L20.4314 11.7863C20.7345 11.5196 20.3638 11.3693 19.9643 11.6348L11.3601 17.052L7.65095 15.8949C6.84575 15.6395 6.82822 15.0897 7.82126 14.7015Z" fill="#01565E"/>
</g>
<defs>
<clipPath id="clip0_350:2396">
<rect width="30.0541" height="30.0541" fill="white" transform="translate(0.945312)"/>
</clipPath>
</defs>
</svg>
