<svg width="167" height="75" viewBox="0 0 167 75" fill="none" xmlns="http://www.w3.org/2000/svg">
<path d="M0 39.1451C6.76297 41.6316 13.4089 44.3658 20.0617 47.0848L25.0268 49.1766C25.8513 49.5196 26.6855 49.8917 27.5012 50.2104L29.9333 51.1399C33.2064 52.2637 36.5126 53.2937 39.9214 53.8093C53.4835 56.1521 67.6709 53.4459 79.2429 46.3124C82.0587 44.5771 85.0904 42.3845 88.0293 40.3981L96.9463 34.3702C102.913 30.3851 108.884 26.4045 114.936 22.5414C126.989 14.7415 139.166 7.12085 151.689 0C140.615 9.21452 129.196 17.9293 117.653 26.4657C111.906 30.7708 106.079 34.9585 100.249 39.1404L91.4669 45.3649L87.0553 48.4451C86.3055 48.9577 85.6136 49.4694 84.8171 49.9846L82.4382 51.5255C69.5583 59.4725 53.5027 62.0384 38.957 58.465C35.312 57.6356 31.7821 56.3641 28.4043 54.8266L25.9073 53.598C25.0859 53.1852 24.3166 52.7521 23.517 52.3305L18.773 49.7794C12.4808 46.3067 6.18069 42.8503 0 39.1451Z" fill="#FD780F"/>
<path d="M108.261 42.2037L134.692 33.8699L153.869 27.7285L155.059 27.3459C155.42 27.2287 155.775 27.0883 156.123 26.9292C156.818 26.6085 157.481 26.2044 158.091 25.7241C158.699 25.2423 159.259 24.6899 159.743 24.0701C160.229 23.471 160.631 22.7453 161.084 22.0254L166.368 13.4561L162.023 22.538C161.659 23.2801 161.33 24.0701 160.839 24.8375C160.367 25.5942 159.798 26.2936 159.155 26.9263C158.51 27.5563 157.787 28.1133 157.005 28.5822C156.612 28.8159 156.206 29.0279 155.788 29.215L154.628 29.7294L136.215 37.8725L83.7949 58.1068L108.261 42.2037Z" fill="#FD780F"/>
<path d="M37.3377 64.5664L29.873 67.9945C28.0319 68.8404 27.2238 71.0195 28.0706 72.8625C28.7576 74.3586 30.3264 75.1724 31.8777 74.97C32.2353 74.9232 32.5927 74.8225 32.9368 74.6646L49.8136 66.9131C49.9155 66.8667 50.0018 66.8016 50.0976 66.7463C45.7684 66.5121 41.4799 65.7862 37.3377 64.5664Z" fill="#FD780F"/>
</svg>
