<svg width="54" height="54" viewBox="0 0 54 54" fill="none" xmlns="http://www.w3.org/2000/svg">
<path d="M50.4687 18.0243C52.2265 14.5347 54.0003 10.27 54.0003 8.12287C54.0016 3.6451 50.3781 0.0113906 45.9003 0C41.4226 0.0112851 37.7991 3.6451 37.8004 8.12287C37.8004 10.27 39.5742 14.535 41.332 18.0243C39.7072 18.6306 38.4502 19.9484 37.9212 21.6H37.8004C37.3033 21.6 36.9004 22.003 36.9004 22.4999C36.9004 22.997 37.3033 23.3999 37.8004 23.3999H37.9173C38.5439 25.9837 41.8204 27.8999 45.9003 27.8999C50.4425 27.8999 54.0003 25.5277 54.0003 22.4999C54.0003 20.6724 52.6707 19.0174 50.4687 18.0243ZM39.6004 8.12287C39.5981 4.63882 42.4164 1.81037 45.9003 1.80003C49.3844 1.81037 52.2026 4.63882 52.2003 8.12287C52.2003 10.6124 48.8376 17.7613 46.6561 21.1825C46.4851 21.4318 46.2021 21.5809 45.8997 21.5808C45.5973 21.5807 45.3145 21.4315 45.1435 21.1821C42.9631 17.7613 39.6004 10.6124 39.6004 8.12287ZM45.9004 26.1C42.4859 26.1 39.6005 24.4516 39.6005 22.5C39.6005 21.3959 40.5869 20.3114 42.1659 19.6235C42.6999 20.6141 43.206 21.4906 43.6259 22.1493C44.1198 22.928 44.9778 23.4 45.8999 23.4C46.822 23.4001 47.6801 22.9283 48.1742 22.1498C48.5943 21.4909 49.1007 20.6141 49.6348 19.6234C51.2139 20.3113 52.2005 21.3958 52.2005 22.5C52.2004 24.4516 49.315 26.1 45.9004 26.1Z" fill="#606060"/>
<path d="M50.4003 8.09964C50.4003 5.61438 48.3856 3.59961 45.9003 3.59961C43.4151 3.59961 41.4004 5.61438 41.4004 8.09964C41.4004 10.5849 43.4152 12.5997 45.9004 12.5997C48.3844 12.5967 50.3975 10.5837 50.4003 8.09964ZM43.2004 8.09964C43.2004 6.60852 44.4092 5.39964 45.9004 5.39964C47.3916 5.39964 48.6004 6.60842 48.6004 8.09964C48.6004 9.59086 47.3915 10.7996 45.9004 10.7996C44.4098 10.798 43.202 9.59012 43.2004 8.09964Z" fill="#606060"/>
<path d="M18.9 26.1004C18.9 22.1239 15.6765 18.9004 11.7 18.9004C7.72354 18.9004 4.5 22.1239 4.5 26.1004C4.5 30.0769 7.72354 33.3004 11.7 33.3004C15.6746 33.2958 18.8954 30.075 18.9 26.1004ZM6.30003 26.1004C6.30003 23.1181 8.71769 20.7004 11.7 20.7004C14.6824 20.7004 17.1 23.1181 17.1 26.1004C17.1 29.0827 14.6824 31.5004 11.7 31.5004C8.71906 31.4971 6.3033 29.0814 6.30003 26.1004Z" fill="#606060"/>
<path d="M23.3999 47.6996H23.3014C22.8173 45.7714 20.4356 44.19 16.7862 43.3974C19.7548 37.9362 23.3999 29.8537 23.3999 26.134C23.4127 21.9455 21.1854 18.0697 17.5602 15.9718C13.9351 13.874 9.46491 13.874 5.83974 15.9718C2.21458 18.0697 -0.0127071 21.9455 5.45477e-05 26.134C5.45477e-05 29.8537 3.64515 37.9362 6.61388 43.3974C2.50968 44.2888 5.45477e-05 46.1764 5.45477e-05 48.4344C5.45477e-05 51.6072 5.02995 53.9996 11.7 53.9996C17.5989 53.9996 22.208 52.127 23.1965 49.4996H23.3999C23.897 49.4996 24.2999 49.0967 24.2999 48.5996C24.2999 48.1025 23.897 47.6996 23.3999 47.6996ZM1.79998 26.134C1.79671 20.6594 6.22544 16.2154 11.7 16.1997C17.1744 16.2153 21.6033 20.6594 21.6 26.134C21.6 29.9444 16.5129 40.791 13.2144 45.9647C12.8864 46.4844 12.3147 46.7997 11.7001 46.7997C11.0854 46.7997 10.5138 46.4844 10.1858 45.9647C6.88705 40.791 1.79998 29.9444 1.79998 26.134ZM11.7 52.1997C6.0337 52.1997 1.79998 50.212 1.79998 48.4344C1.79998 47.2686 3.77994 45.7621 7.53905 45.0549C7.94342 45.7572 8.32627 46.3954 8.66862 46.9324C9.32685 47.9706 10.4707 48.5996 11.7 48.5996C12.9292 48.5996 14.073 47.9705 14.7314 46.9324C15.0737 46.3954 15.4566 45.7572 15.8609 45.0549C19.6201 45.7621 21.6 47.2686 21.6 48.4344C21.6 50.212 17.3663 52.1997 11.7 52.1997Z" fill="#606060"/>
<path d="M31.9695 30.5999C31.9695 30.1028 31.5667 29.6999 31.0696 29.6999H30.1502C29.9289 29.7 29.7084 29.677 29.4919 29.6313C29.2584 29.5812 29.0144 29.6261 28.814 29.7561C28.6136 29.8862 28.4733 30.0907 28.424 30.3244C28.3211 30.8106 28.6315 31.2882 29.1175 31.3918C29.457 31.4639 29.8031 31.5 30.1502 31.4999H31.0696C31.5667 31.4998 31.9695 31.0968 31.9695 30.5999Z" fill="#606060"/>
<path d="M47.805 31.3538C47.9632 30.8861 47.7149 30.3783 47.2487 30.2157C46.6322 30.0074 45.9965 29.8611 45.3511 29.7789C45.0317 29.7377 44.7148 29.8703 44.5198 30.1265C44.3248 30.3827 44.2815 30.7236 44.4063 31.0203C44.5311 31.3171 44.8049 31.5248 45.1243 31.5648C45.6507 31.6318 46.1692 31.751 46.6721 31.9207C47.1414 32.0746 47.6469 31.8216 47.805 31.3538Z" fill="#606060"/>
<path d="M51.3437 35.0075C51.6632 34.9648 51.9353 34.7544 52.0572 34.4561C52.1792 34.1578 52.1322 33.8171 51.9342 33.5628C51.5373 33.0492 51.0914 32.5754 50.6026 32.1483C50.2283 31.822 49.6605 31.8606 49.3337 32.2344C49.007 32.6082 49.0446 33.176 49.4179 33.5035C49.819 33.8536 50.1849 34.242 50.5103 34.6632C50.7064 34.9189 51.0243 35.0503 51.3437 35.0075Z" fill="#606060"/>
<path d="M37.2847 30.6002C37.2847 30.1031 36.8818 29.7002 36.3847 29.7002H34.6129C34.1158 29.7002 33.7129 30.1031 33.7129 30.6002C33.7129 31.0972 34.1158 31.5001 34.6129 31.5001H36.3847C36.8817 31.5001 37.2847 31.0971 37.2847 30.6002Z" fill="#606060"/>
<path d="M53.6589 37.0283C53.5754 36.7176 53.3322 36.4751 53.0213 36.3925C52.7104 36.3098 52.3789 36.3996 52.1521 36.6278C51.9254 36.8561 51.8377 37.1881 51.9223 37.4985C52.0605 38.0113 52.1477 38.5365 52.1825 39.0665C52.2138 39.5392 52.6062 39.9067 53.0798 39.9072C53.1001 39.9072 53.1202 39.9067 53.1405 39.9054C53.6363 39.8722 54.0116 39.4437 53.9789 38.9478C53.936 38.299 53.8288 37.656 53.6589 37.0283Z" fill="#606060"/>
<path d="M52.9117 41.6437C52.4419 41.4824 51.9301 41.7324 51.7688 42.2023C51.5958 42.7054 51.3738 43.1902 51.1061 43.6499C50.8569 44.0793 51.0025 44.6295 51.4317 44.8794C51.8607 45.1294 52.4112 44.9847 52.6618 44.556C52.9888 43.9943 53.2597 43.4017 53.4704 42.7868C53.6316 42.317 53.3816 41.8051 52.9117 41.6437Z" fill="#606060"/>
<path d="M28.714 47.7002H26.9429C26.4459 47.7002 26.043 48.1032 26.043 48.6002C26.043 49.0971 26.4459 49.5001 26.9429 49.5001H28.714C29.211 49.5001 29.6139 49.0972 29.6139 48.6002C29.6139 48.1031 29.2109 47.7002 28.714 47.7002Z" fill="#606060"/>
<path d="M44.6 47.6844C44.4339 47.6946 44.2668 47.6996 44.099 47.6998H42.8843C42.3873 47.6998 41.9844 48.1028 41.9844 48.5998C41.9844 49.0968 42.3873 49.4998 42.8843 49.4998H44.099C44.3038 49.4998 44.5077 49.4934 44.7107 49.4809C45.0321 49.4617 45.3188 49.2724 45.4625 48.9842C45.6063 48.6961 45.5851 48.3532 45.4071 48.085C45.229 47.8168 44.9214 47.664 44.6 47.6844Z" fill="#606060"/>
<path d="M42.5972 30.6002C42.5972 30.1031 42.1943 29.7002 41.6972 29.7002H39.9254C39.4283 29.7002 39.0254 30.1031 39.0254 30.6002C39.0254 31.0972 39.4284 31.5001 39.9254 31.5001H41.6972C42.1943 31.5001 42.5972 31.0971 42.5972 30.6002Z" fill="#606060"/>
<path d="M49.011 46.0295C48.5887 46.3534 48.1357 46.6352 47.6584 46.8707C47.2126 47.0906 47.0294 47.6303 47.2493 48.0761C47.4692 48.5219 48.0089 48.7051 48.4547 48.4852C49.0374 48.1975 49.5906 47.8533 50.1062 47.4577C50.5006 47.1553 50.5751 46.5904 50.2728 46.196C49.9704 45.8017 49.4055 45.7272 49.011 46.0295Z" fill="#606060"/>
<path d="M34.0293 47.7002H32.2574C31.7603 47.7002 31.3574 48.1032 31.3574 48.6002C31.3574 49.0971 31.7603 49.5001 32.2574 49.5001H34.0293C34.5263 49.5001 34.9292 49.0972 34.9292 48.6002C34.9292 48.1031 34.5263 47.7002 34.0293 47.7002Z" fill="#606060"/>
<path d="M39.3419 47.7002H37.57C37.3313 47.7001 37.1023 47.7949 36.9335 47.9638C36.7647 48.1325 36.6699 48.3615 36.6699 48.6003C36.6698 48.8389 36.7646 49.0679 36.9335 49.2368C37.1022 49.4055 37.3312 49.5003 37.57 49.5003H39.3419C39.8389 49.5003 40.2418 49.0974 40.2418 48.6004C40.2418 48.1033 39.8388 47.7002 39.3419 47.7002Z" fill="#606060"/>
<path d="M27.404 24.4732C27.6305 24.4735 27.8487 24.3881 28.0148 24.2341C28.3536 23.9217 28.7564 23.6869 29.1952 23.5463C29.5015 23.4486 29.7325 23.195 29.801 22.8809C29.8696 22.5668 29.7654 22.24 29.5277 22.0236C29.2899 21.8071 28.9548 21.7339 28.6485 21.8316C27.9587 22.0525 27.3255 22.4213 26.7931 22.9122C26.5211 23.1637 26.4308 23.5561 26.5658 23.9011C26.7008 24.2461 27.0335 24.4732 27.404 24.4732Z" fill="#606060"/>
<path d="M32.4429 23.3995H34.214C34.711 23.3995 35.1139 22.9965 35.1139 22.4996C35.1139 22.0025 34.7109 21.5996 34.214 21.5996H32.4429C31.9459 21.5996 31.543 22.0026 31.543 22.4996C31.543 22.9965 31.9459 23.3995 32.4429 23.3995Z" fill="#606060"/>
<path d="M27.3405 28.9059C27.5031 28.6356 27.5123 28.2999 27.3648 28.021C27.149 27.6138 27.026 27.1638 27.0044 26.7035C26.9751 26.2094 26.5559 25.8294 26.0613 25.8483C25.5648 25.8729 25.1822 26.2949 25.2061 26.7914C25.2401 27.5154 25.4341 28.2229 25.7739 28.8631C25.9301 29.1579 26.2365 29.3423 26.5702 29.3421C26.8856 29.3417 27.1779 29.1762 27.3405 28.9059Z" fill="#606060"/>
</svg>
