<svg width="48" height="48" viewBox="0 0 48 48" fill="none" xmlns="http://www.w3.org/2000/svg">
<path d="M16.0002 19.1997C18.9125 19.1997 21.5377 17.4453 22.6524 14.755C23.7666 12.0647 23.151 8.96823 21.0916 6.90882C19.0322 4.84942 15.9352 4.23384 13.2454 5.348C10.5546 6.46272 8.80078 9.08796 8.80078 12.0002C8.80406 15.9742 12.0257 19.1953 16.0002 19.1997ZM10.9116 14.3193C11.6037 14.6019 12.3242 14.8086 13.0612 14.9354C13.188 15.6718 13.3952 16.3924 13.6768 17.085C12.4544 16.5236 11.473 15.5423 10.9116 14.3193ZM12.8474 10.7297C12.8168 11.1517 12.7999 11.5754 12.7999 11.9997C12.7999 12.4239 12.8163 12.8476 12.8474 13.2658C11.2467 12.8935 10.3999 12.3036 10.3999 11.9997C10.3999 11.6957 11.2462 11.1058 12.8474 10.7335V10.7297ZM16.0002 6.39985C16.3042 6.39985 16.8941 7.24614 17.2664 8.84741C16.8482 8.8168 16.4245 8.79985 16.0002 8.79985C15.576 8.79985 15.1523 8.81625 14.7341 8.84741C15.1064 7.24614 15.6957 6.39985 16.0002 6.39985ZM16.0002 10.3995C16.5491 10.3995 17.0543 10.4274 17.5266 10.4727C17.572 10.9451 17.5999 11.4502 17.5999 11.9991C17.5999 12.548 17.572 13.0532 17.5266 13.5255C17.0543 13.5709 16.5491 13.5988 16.0002 13.5988C15.4514 13.5988 14.9462 13.5709 14.4739 13.5255C14.4285 13.0532 14.4006 12.548 14.4006 11.9991C14.4006 11.4502 14.4285 10.9451 14.4739 10.4727C14.9457 10.4279 15.4514 10.3995 16.0002 10.3995ZM21.6 11.9997C21.6 12.3036 20.7538 12.8935 19.1525 13.2658C19.1831 12.8476 19.2001 12.4239 19.2001 11.9997C19.2001 11.5754 19.1836 11.1517 19.1525 10.7335C20.7538 11.1058 21.6 11.6957 21.6 11.9997ZM16.0002 17.5995C15.6963 17.5995 15.1064 16.7532 14.7341 15.1519C15.1523 15.1825 15.576 15.1995 16.0002 15.1995C16.4245 15.1995 16.8482 15.1831 17.2664 15.1519C16.8935 16.7532 16.3042 17.5995 16.0002 17.5995ZM18.3199 17.0883C18.6025 16.3962 18.8092 15.6757 18.936 14.9387C19.6724 14.8119 20.3929 14.6047 21.0856 14.3231C20.5242 15.5455 19.5428 16.5269 18.3199 17.0883ZM21.0883 9.68003C20.3962 9.39739 19.6757 9.19074 18.9387 9.0639C18.8119 8.3275 18.6047 7.60696 18.3231 6.91429C19.5461 7.47575 20.5269 8.45707 21.0883 9.68003ZM13.6801 6.91101C13.3974 7.60313 13.1908 8.32368 13.0639 9.06062C12.3275 9.18746 11.607 9.39466 10.9143 9.6762C11.4758 8.45379 12.4576 7.47247 13.6801 6.91101Z" fill="#606060"/>
<path d="M4.7994 5.6002C4.7994 5.15846 5.15803 4.80038 5.59922 4.80038H8.79904V3.2002H5.59922C4.27403 3.2002 3.19922 4.275 3.19922 5.6002V8.80001H4.7994V5.6002Z" fill="#606060"/>
<path d="M4.7994 34.4V31.2002H3.19922V34.4C3.19922 35.7252 4.27348 36.8 5.59922 36.8H8.79904V35.1998H5.59922C5.15803 35.2004 4.7994 34.8417 4.7994 34.4Z" fill="#606060"/>
<path d="M27.2008 5.6002V8.80001H28.801V5.6002C28.801 4.275 27.7267 3.2002 26.401 3.2002H23.2012V4.80038H26.401C26.8427 4.80038 27.2008 5.15901 27.2008 5.6002Z" fill="#606060"/>
<path d="M43.0611 23.6971L31.9998 17.1439V2.4C31.9998 1.07426 30.925 0 29.5998 0H2.4C1.07426 0 0 1.07481 0 2.4V37.6002C0 38.9259 1.07426 40.0002 2.4 40.0002H24.7998V40.8C24.8042 44.7745 28.0253 47.9956 31.9998 48H46.3998C47.2838 48 48 47.2838 48 46.3998V32.5476C48.0109 28.9378 46.139 25.5827 43.0611 23.6971ZM1.60018 37.6002V2.4C1.60018 1.95827 1.95882 1.60018 2.4 1.60018H29.5998C30.0415 1.60018 30.3996 1.95882 30.3996 2.4V32.5864L24.4696 26.8095C22.9192 25.235 20.3863 25.2153 18.8113 26.7652C17.2368 28.3151 17.2171 30.8485 18.767 32.4235L23.8661 38.4H2.4C1.95827 38.4 1.60018 38.0414 1.60018 37.6002ZM46.3998 46.3998H31.9998C28.9088 46.3954 26.4038 43.891 26.4 40.8V39.1998C26.4 39.0096 26.3322 38.8253 26.2087 38.6805L19.9413 31.3383C19.0054 30.3996 19.0054 28.8804 19.9413 27.9417C20.8942 27.0309 22.3965 27.0342 23.3456 27.9488L33.84 38.1726L34.9596 37.0256L31.9998 34.1456V19.0043L42.2318 25.0655C44.8313 26.6619 46.4107 29.497 46.3998 32.5476V46.3998Z" fill="#606060"/>
<path d="M40.6731 26.1045L39.8301 27.4641C42.4302 29.061 44.0096 31.8967 43.9981 34.9473H45.5983C45.6114 31.3429 43.7444 27.9917 40.6731 26.1045Z" fill="#606060"/>
<path d="M8.7994 20.7998H7.19922V22.4H8.7994V20.7998Z" fill="#606060"/>
<path d="M21.6006 20.7998H10.4004V22.4H21.6006V20.7998Z" fill="#606060"/>
<path d="M24.8014 20.7998H23.2012V22.4H24.8014V20.7998Z" fill="#606060"/>
</svg>
