<svg width="47" height="47" viewBox="0 0 47 47" fill="none" xmlns="http://www.w3.org/2000/svg">
<circle cx="23.5" cy="23.5" r="23" stroke="white"/>
<path d="M19.5382 17.5151C19.7679 17.5212 20.0225 17.5337 20.2647 18.0736C20.4254 18.4329 20.696 19.0945 20.9164 19.6335C21.088 20.0529 21.2291 20.398 21.2645 20.4686C21.3452 20.6299 21.3949 20.816 21.2893 21.0332C21.2768 21.0588 21.2651 21.0833 21.2538 21.1069C21.1691 21.2833 21.1088 21.4088 20.9664 21.573C20.9079 21.6405 20.8469 21.7145 20.7861 21.7882C20.6792 21.9179 20.5731 22.0467 20.482 22.1377C20.3206 22.2989 20.1529 22.4728 20.3392 22.7954C20.5255 23.118 21.1776 24.179 22.1401 25.0353C23.1748 25.9602 24.0746 26.3499 24.5294 26.5469C24.6178 26.5852 24.6893 26.6162 24.7418 26.6424C25.0648 26.8037 25.2572 26.7789 25.4435 26.5617C25.6299 26.3445 26.2507 25.6185 26.4681 25.2959C26.6793 24.9733 26.8966 25.023 27.1947 25.1346C27.4927 25.2463 29.0824 26.0281 29.4052 26.1894C29.469 26.2213 29.5287 26.25 29.5841 26.2766C29.8087 26.3848 29.9614 26.4583 30.0262 26.5679C30.1069 26.7044 30.1069 27.3497 29.8399 28.1067C29.5668 28.8637 28.2503 29.5897 27.6541 29.6455C27.5977 29.6508 27.5415 29.6576 27.4837 29.6647C26.9374 29.731 26.2439 29.8152 23.7731 28.8389C20.7286 27.6369 18.7189 24.6548 18.3125 24.0519C18.2805 24.0043 18.2584 23.9715 18.2466 23.9556L18.2397 23.9464C18.0548 23.698 16.9239 22.1788 16.9239 20.6114C16.9239 19.1117 17.6598 18.3309 17.9954 17.9748C18.0167 17.9522 18.0363 17.9314 18.0541 17.9121C18.3521 17.5895 18.6999 17.5089 18.9172 17.5089C19.1346 17.5089 19.3519 17.5089 19.5382 17.5151Z" fill="white"/>
<path fill-rule="evenodd" clip-rule="evenodd" d="M11.1256 35.3615C11.0229 35.7358 11.3625 36.0812 11.7366 35.9831L17.5201 34.4666C19.3457 35.4593 21.4011 35.9867 23.4938 35.9867H23.5C30.3864 35.9867 36 30.3838 36 23.4965C36 20.1583 34.7021 17.0187 32.3425 14.6608C29.9829 12.303 26.8469 11 23.4999 11C16.6136 11 11 16.6029 11 23.4903C10.9992 25.6814 11.5753 27.834 12.6704 29.7323L11.1256 35.3615ZM14.4857 30.2343C14.6198 29.7457 14.5528 29.2235 14.2998 28.7849C13.3707 27.1744 12.8823 25.348 12.8829 23.4903C12.8829 17.6559 17.6445 12.8903 23.4999 12.8903C26.3492 12.8903 29.0075 13.9955 31.0142 16.0006C33.0185 18.0034 34.1171 20.6608 34.1171 23.4965C34.1171 29.3308 29.3555 34.0964 23.5 34.0964H23.4938C21.7157 34.0964 19.9684 33.6481 18.4169 32.8044C17.997 32.5761 17.5063 32.5165 17.0442 32.6376L13.5766 33.5469L14.4857 30.2343Z" fill="white"/>
</svg>
