<svg width="31" height="31" viewBox="0 0 31 31" fill="none" xmlns="http://www.w3.org/2000/svg">
<g clip-path="url(#clip0_350:2393)">
<path d="M15.3491 0H15.3416C7.0561 0 0.318359 6.73962 0.318359 15.027C0.318359 18.3142 1.37776 21.3609 3.17913 23.8347L1.30639 29.4173L7.0824 27.5708C9.45855 29.1449 12.293 30.0541 15.3491 30.0541C23.6347 30.0541 30.3724 23.3126 30.3724 15.027C30.3724 6.7415 23.6347 0 15.3491 0Z" fill="white"/>
<path d="M24.0935 21.2201C23.731 22.2438 22.2922 23.0928 21.1445 23.3408C20.3593 23.508 19.3337 23.6413 15.8813 22.21C11.4652 20.3805 8.62134 15.893 8.39969 15.6019C8.18744 15.3107 6.61523 13.2257 6.61523 11.0693C6.61523 8.91297 7.71033 7.86295 8.15175 7.41214C8.51427 7.0421 9.11348 6.87305 9.68826 6.87305C9.87422 6.87305 10.0414 6.88244 10.1917 6.88995C10.6331 6.90874 10.8547 6.93503 11.1459 7.63191C11.5084 8.50536 12.3912 10.6617 12.4964 10.8834C12.6035 11.105 12.7106 11.4056 12.5603 11.6967C12.4194 11.9973 12.2955 12.1306 12.0738 12.3861C11.8522 12.6415 11.6418 12.8369 11.4201 13.1111C11.2173 13.3497 10.9881 13.6052 11.2436 14.0466C11.499 14.4786 12.3819 15.9193 13.6817 17.0764C15.3591 18.5697 16.719 19.0468 17.2055 19.2497C17.5681 19.4 18.0001 19.3643 18.2649 19.0825C18.6012 18.72 19.0163 18.1189 19.4389 17.5272C19.7395 17.1027 20.1189 17.0501 20.5171 17.2004C20.9228 17.3412 23.0698 18.4025 23.5112 18.6223C23.9527 18.844 24.2438 18.9491 24.3509 19.1351C24.4561 19.3211 24.4561 20.1945 24.0935 21.2201Z" fill="#01565E"/>
</g>
<defs>
<clipPath id="clip0_350:2393">
<rect width="30.0541" height="30.0541" fill="white" transform="translate(0.318359)"/>
</clipPath>
</defs>
</svg>
