<svg width="20" height="20" viewBox="0 0 20 20" fill="none" xmlns="http://www.w3.org/2000/svg">
<path d="M10 0.5C10.3788 0.5 10.725 0.714002 10.8944 1.05279L13.4733 6.2106L19.1439 7.03541C19.5206 7.0902 19.8335 7.35402 19.9511 7.71599C20.0687 8.07796 19.9706 8.47531 19.6981 8.741L15.571 12.7649L16.4994 18.4385C16.5607 18.8135 16.4043 19.1908 16.0956 19.4124C15.787 19.6339 15.3794 19.6614 15.0438 19.4834L10 16.8071L4.95621 19.4834C4.62059 19.6614 4.21303 19.6339 3.90437 19.4124C3.5957 19.1908 3.43927 18.8135 3.50062 18.4385L4.42903 12.7649L0.301898 8.741C0.0293929 8.47531 -0.0686675 8.07796 0.048939 7.71599C0.166546 7.35402 0.479428 7.0902 0.856059 7.03541L6.52667 6.2106L9.10557 1.05279C9.27496 0.714002 9.62123 0.5 10 0.5ZM10 3.73607L8.08193 7.57221C7.93558 7.86491 7.65528 8.06748 7.33144 8.11459L3.14839 8.72303L6.1981 11.6965C6.43179 11.9243 6.53958 12.2519 6.48687 12.574L5.80001 16.7715L9.53128 14.7917C9.82441 14.6361 10.1756 14.6361 10.4687 14.7917L14.2 16.7715L13.5131 12.574C13.4604 12.2519 13.5682 11.9243 13.8019 11.6965L16.8516 8.72303L12.6686 8.11459C12.3447 8.06748 12.0644 7.86491 11.9181 7.57221L10 3.73607Z" fill="white" fill-opacity="0.4"/>
</svg>
