<svg width="16" height="16" viewBox="0 0 16 16" fill="none" xmlns="http://www.w3.org/2000/svg">
<path d="M2 3.41421V5C2 5.55229 1.55228 6 1 6C0.447715 6 1.78814e-07 5.55229 1.78814e-07 5L0 1C0 0.447716 0.447715 3.57628e-07 1 2.98023e-07L5 0C5.55229 0 6 0.447715 6 1C6 1.55228 5.55229 2 5 2H3.41421L5.70711 4.29289C6.09763 4.68342 6.09763 5.31658 5.70711 5.70711C5.31658 6.09763 4.68342 6.09763 4.29289 5.70711L2 3.41421ZM11 2C10.4477 2 10 1.55229 10 1C10 0.447716 10.4477 1.01328e-06 11 1.01328e-06H15C15.5523 1.01328e-06 16 0.447716 16 1V5.00001C16 5.55229 15.5523 6.00001 15 6.00001C14.4477 6.00001 14 5.55229 14 5.00001V3.41421L11.7071 5.70711C11.3166 6.09763 10.6834 6.09763 10.2929 5.70711C9.90237 5.31658 9.90237 4.68342 10.2929 4.29289L12.5858 2H11ZM1 10C1.55228 10 2 10.4477 2 11L2 12.5858L4.29289 10.2929C4.68342 9.90237 5.31658 9.90237 5.70711 10.2929C6.09763 10.6834 6.09763 11.3166 5.70711 11.7071L3.41421 14H5C5.55228 14 6 14.4477 6 15C6 15.5523 5.55228 16 5 16H1C0.734784 16 0.48043 15.8946 0.292893 15.7071C0.105357 15.5196 0 15.2652 0 15L2.38419e-07 11C2.38419e-07 10.4477 0.447716 10 1 10ZM10.2929 11.7071C9.90237 11.3166 9.90237 10.6834 10.2929 10.2929C10.6834 9.90237 11.3166 9.90237 11.7071 10.2929L14 12.5858V11C14 10.4477 14.4477 10 15 10C15.5523 10 16 10.4477 16 11V15C16 15.5523 15.5523 16 15 16H11C10.4477 16 10 15.5523 10 15C10 14.4477 10.4477 14 11 14H12.5858L10.2929 11.7071Z" fill="white" fill-opacity="0.4"/>
</svg>
