<svg width="87" height="129" viewBox="0 0 87 129" fill="none" xmlns="http://www.w3.org/2000/svg">
<path d="M86.613 96.417H0.891602V100.009H86.613V96.417Z" fill="#BCB5B5"/>
<path d="M47.8246 48.7922C46.7958 50.5461 44.8732 49.1463 44.7215 51.8446C46.7452 51.8446 47.2005 52.9239 48.1955 54.5429C48.1955 55.4704 46.897 55.8921 46.1212 55.9933C44.8227 54.2394 43.6422 52.5697 41.4667 54.1381C41.3149 54.0875 41.1632 54.0876 40.9945 54.0876C40.7416 52.2831 42.3436 53.0588 43.0688 51.912C42.4954 47.6116 37.8914 43.1089 35.3111 39.9553C34.586 37.375 34.5354 35.0309 34.3836 32.3494C37.0145 32.3494 39.1394 32.9734 41.4161 34.2045C41.6691 33.6817 41.6184 33.1252 41.5678 32.4506C51.3997 35.5031 49.9832 43.4293 47.8246 48.7922ZM53.4235 64.9482C54.7221 67.7983 56.3241 70.4291 57.7744 73.1274C57.7238 73.549 57.7239 74.0043 57.7239 74.4765C57.3698 74.5777 56.9987 74.6789 56.6446 74.7801C54.8401 73.9031 55.1943 72.1324 55.1943 70.5303C53.8451 68.1019 52.9682 65.8757 50.3373 64.7795C49.511 63.481 47.6896 61.3561 48.8364 59.8552C52.1249 59.872 52.6984 62.3005 53.4235 64.9482ZM58.1286 78.8613H59.0056C59.1574 79.2154 59.3597 79.5864 59.5789 79.9405C59.9331 80.5645 61.7545 83.3134 61.5015 84.1904C61.0293 84.4939 60.574 84.8144 60.1524 85.1685C59.4272 84.4434 59.4272 81.2897 59.326 80.1935C58.8032 80.1429 58.3478 80.0923 57.8756 80.0417C57.9262 79.2828 57.9263 79.2829 58.1286 78.8613ZM54.5028 79.9574C53.103 79.0805 51.7033 78.2036 50.3542 77.3772C50.1012 75.4041 48.0269 74.2235 46.6778 72.8744C45.902 71.3735 45.1768 69.8726 44.4517 68.4223C42.175 65.7914 38.7009 66.1455 41.9726 62.4691C43.3723 61.8957 43.3723 61.8957 44.1987 61.744C45.3286 64.4928 46.273 65.4709 48.8532 67.073C51.7033 70.0749 51.0794 74.173 53.9294 77.0062C54.0812 77.4109 55.1773 79.755 54.5028 79.9574ZM37.1663 54.0201C36.3399 55.9932 36.2387 56.4485 34.0632 56.6509C33.8102 56.0269 33.6417 55.9258 33.8103 55.2512C36.8627 53.3962 35.463 51.3218 32.8321 49.9221C32.5792 49.3487 32.3094 48.8427 32.107 48.3199C32.2588 47.9489 32.4105 47.5948 32.5791 47.2912C36.3567 47.0888 38.2793 46.9371 39.4598 50.5967C39.19 51.8952 37.9926 53.0419 37.1663 54.0201ZM29.7122 59.501C27.8572 59.0288 25.9852 58.7758 24.0627 58.7758C20.6561 57.3761 19.307 56.7016 18.936 52.924C19.7117 52.1482 20.2851 51.7265 21.3138 51.2712C23.3375 52.7215 25.142 54.1213 26.5417 56.1281C27.9415 56.8027 29.122 56.3305 30.5217 57.3761C31.8203 57.4772 31.8203 57.4773 32.1239 57.6291C32.1239 57.7808 32.1238 57.9327 32.1744 58.1013C31.3143 58.7253 30.6904 59.0962 29.7122 59.501ZM31.2132 72.9588V73.6333C30.5892 73.7851 30.0158 73.9369 29.4593 74.1055C28.5823 72.3517 27.6042 70.7495 26.508 69.1305C24.5855 67.208 22.0052 66.3817 23.9278 63.852H25.3275C28.1101 66.2973 27.4356 70.8507 31.2132 72.9588ZM30.235 19.0266C30.9602 19.1278 31.7359 19.2289 32.2587 19.7517C31.6179 25.0471 31.5336 30.4606 31.5336 35.7897C29.2906 30.781 29.8134 24.4232 30.235 19.0266ZM37.571 8.78993C36.9133 9.86924 34.9233 9.88612 34.3331 8.90799C35.3281 7.47452 36.9639 7.12036 37.571 8.78993ZM45.9863 7.94671C46.1549 7.9973 49.0387 8.78996 48.9375 8.82369C48.6846 8.90801 48.2461 9.05984 47.9932 9.19476C46.9138 9.75128 45.5816 9.11035 45.9863 7.94671ZM74.5376 28.9259C75.0604 28.302 75.6675 27.6274 75.8867 26.801C75.4145 26.7504 75.0098 26.7505 74.5882 26.7505C66.3078 26.7505 57.5047 25.4182 49.4267 27.4756C47.4536 28.2683 45.2611 29.297 43.3386 30.5787C39.7633 29.6006 38.2624 29.7018 34.586 30.1571C34.4848 26.5313 34.1644 22.9054 34.6366 19.347C36.2893 19.2964 40.0669 19.1953 40.8427 17.2727C42.5966 16.9186 42.5966 16.9185 45.8682 16.6993C47.9931 18.099 50.0169 16.0248 49.5953 13.7987C48.3473 13.7481 47.1162 13.6975 45.9189 13.6975C45.8683 13.4445 45.8177 13.1747 45.8177 12.9217C47.2174 12.3989 48.6677 12.399 50.1181 12.3484C52.4116 11.4714 51.6359 9.12728 49.1737 8.75627C49.1737 7.87932 49.14 7.17098 48.4654 6.4964C44.536 5.41709 39.8477 6.78311 36.3568 5.24846C35.1089 5.26532 33.726 5.40019 32.5286 5.299C32.6804 4.37146 32.7815 4.27032 33.3043 3.44396C32.8321 3.39337 32.4274 3.59573 28.7004 4.2703C28.751 3.02234 28.8015 1.8419 28.9027 0.644531H28.5318C27.2838 1.57207 27.2837 1.57208 25.9515 2.97182C24.4505 7.22163 21.7017 8.60447 17.9747 11.0498C17.9747 11.5726 18.2276 11.9773 18.2276 12.9048C17.3507 15.1309 14.9728 16.5813 14.0284 18.858C16.7773 19.9542 15.2764 21.337 13.9778 23.3607C13.6237 32.0121 13.6236 32.0122 13.3032 35.1152C12.7298 37.5943 12.7299 37.5943 11.3301 41.5405C10.9928 44.8291 9.67742 58.7927 13.8598 60.1249C13.8598 60.9007 17.064 63.2786 17.688 63.852C18.7167 65.4541 18.9359 66.8033 19.1889 68.6078C20.5886 70.1593 22.3931 71.2385 24.1639 72.3347C25.766 73.9368 26.4912 76.1124 27.8403 77.9169C31.2132 79.6708 34.6198 81.2222 35.1932 81.6438C37.2169 85.725 41.2474 86.1973 43.2205 81.7957C42.9676 78.4228 41.6184 77.2423 38.195 77.2423C38.3974 78.0686 38.5492 78.4397 38.448 79.266C36.2725 77.1917 35.9689 73.9875 34.0463 72.0649C33.22 71.7614 32.3937 71.441 31.6179 71.1374C31.0951 70.3616 30.5892 69.5858 30.117 68.8607C31.4155 68.8607 32.9671 69.687 34.1981 70.1592C38.5997 71.0868 38.7009 70.9856 41.0282 74.5103C43.8782 75.7582 44.0806 77.7145 45.7839 79.7888C46.3067 80.143 46.8632 80.5139 47.4366 80.9187C48.1112 82.5714 48.8364 84.2241 49.5615 85.8937C51.737 86.0455 52.3104 85.9443 54.2161 84.865C54.8907 86.8887 57.0155 86.72 58.9212 86.2647C59.2248 87.0404 59.2248 87.226 59.6465 89.8231C61.3498 89.8231 62.9855 89.8568 64.7563 89.8568C65.0093 89.334 66.6957 87.7318 67.3197 87.7318C67.6233 85.6575 63.913 81.9812 63.2385 79.3503C62.2097 77.6976 61.1642 76.0449 60.1355 74.426C59.1068 69.8726 59.1067 69.8726 58.4322 67.8995C57.3023 66.2974 56.2567 65.0494 55.6833 63.1437C55.1099 58.6915 53.9799 54.7116 51.855 50.7147C51.8045 50.4618 51.8045 50.1919 51.8045 49.9389C51.6527 45.1663 51.2817 39.0446 49.376 35.7561C49.7976 35.6043 50.2024 35.4525 50.6746 35.3345C56.0543 35.5874 60.4559 37.5605 65.5826 35.2838C64.6551 34.9803 64.6552 34.9802 64.183 34.6092C64.8575 32.4843 71.1142 33.4625 71.8393 30.8823C71.013 30.5787 71.0129 30.5787 70.6419 30.2583C70.7094 30.0559 72.5139 29.6511 74.5376 28.9259Z" fill="#BCB5B5"/>
<path d="M25.259 116.3L27.2321 122.27H23.3027L25.259 116.3ZM63.2374 116.3L65.1937 122.27H61.2981L63.2374 116.3ZM72.2092 107.227V110.819H78.0612L72.2936 124.563L66.6103 107.21H61.8714L56.5085 123.416V107.21H49.1895L45.277 118.947L41.7354 107.21H34.0621V123.416L28.6656 107.21H23.9436L18.4458 123.888L14.2297 113.298L20.3683 107.193H14.4321L7.33221 114.411V107.193H0.991211V128.189H7.33221V119.909L9.08607 118.188L12.9818 128.189H21.3633L22.1391 125.845H28.4295L29.1884 128.189H37.9747V116.772L41.6174 128.189H46.7104L50.2013 116.772V128.189H59.3417L60.1175 125.845H66.3911L67.1668 128.189H86.4596V124.58H79.4946L86.5608 107.193H72.2092V107.227Z" fill="#BCB5B5"/>
</svg>
