<svg width="140" height="121" viewBox="0 0 140 121" fill="none" xmlns="http://www.w3.org/2000/svg">
<path d="M35.2242 75.5409C31.3622 75.3892 29.5072 75.1362 27.1124 74.9507C16.6903 80.7014 25.4766 88.1723 36.7588 86.9581C44.0273 86.1823 46.675 82.7926 45.7812 79.6558C45.191 77.5647 42.7963 75.8445 35.2242 75.5409Z" fill="#BCB5B5"/>
<path d="M31.5139 58.1535C36.7924 58.1535 39.5245 54.5614 39.5245 49.5359C39.5245 44.0212 36.354 39.6196 30.4683 39.6196C25.3079 39.6196 22.2217 43.0431 22.2217 48.0855C22.2217 53.7351 25.5102 58.1535 31.5139 58.1535Z" fill="#BCB5B5"/>
<path d="M87.0812 0.579102C59.508 0.579102 0.078125 6.39729 0.078125 50.7167C0.078125 80.8364 30.2316 120.08 63.5892 120.08C74.3824 120.08 83.6072 116.252 92.2586 109.911C112.884 94.5808 139.023 60.2114 139.023 33.4983C139.006 13.514 124.908 0.579102 87.0812 0.579102ZM48.8498 85.2549C42.6437 93.0125 22.7269 93.8051 17.0774 86.3511C13.2323 81.2749 18.3928 76.9239 23.9243 74.5123C20.1129 73.4836 18.1567 70.6166 18.1567 67.8509C18.1567 65.0177 20.1298 62.5724 23.8062 60.8522C18.8987 59.014 15.4921 54.3426 15.4921 49.0978C15.4921 41.4582 21.4284 35.5726 31.0579 35.5726C33.1491 35.5726 35.5944 36.0616 37.6687 36.6856C39.4058 37.1747 41.244 37.5457 43.2002 37.5457C45.5275 37.5457 48.2258 37.4277 50.435 36.8037V41.7281C49.2039 41.4751 45.2914 41.2221 43.2002 41.2221C45.1565 43.4314 46.2695 46.5007 46.2695 49.4519C46.2695 56.3326 40.8561 62.1002 31.294 62.1002C30.4677 62.1002 29.5907 62.0664 28.5451 61.9315C27.5333 62.117 26.6395 62.5724 25.948 63.1457C24.9024 63.989 24.4134 65.0683 24.4134 66.0296C24.4134 67.6317 25.206 68.7953 29.2028 69.0989C37.7868 69.7734 43.0316 69.8915 46.5562 71.5105C50.4182 73.2644 53.7067 79.1837 48.8498 85.2549ZM65.1407 75.5916C60.8403 75.5916 57.029 74.7315 53.1165 73.1294V67.4967C57.1639 69.6891 62.2063 71.0383 65.3937 71.0383C68.834 71.0383 73.1344 70.1782 73.1344 66.1307C73.1344 62.0833 68.834 60.1102 64.1626 57.9009C59.0021 55.4556 53.4875 52.7573 53.4875 46.4838C53.4875 38.878 60.8572 35.5557 67.4849 35.5557C71.0432 35.5557 74.6016 36.4158 77.6878 38.136V43.6675C74.7365 41.3233 71.1782 39.9742 67.3668 39.9742C63.6735 39.9742 60.1152 41.4582 60.1152 44.7636C60.1152 48.693 64.7866 50.9023 69.6941 53.3476C74.8546 55.9278 80.2511 58.8622 80.2511 64.5118C80.2343 72.7584 72.0214 75.5916 65.1407 75.5916ZM113.659 75.1026C109.865 75.1026 106.661 73.0114 102.731 68.3568C96.4746 60.8691 91.4322 54.8485 91.4322 54.8485V64.6804C91.4322 71.5442 91.8032 72.6572 92.4104 74.2425H83.3373C84.0794 72.2862 84.4335 71.5442 84.4335 64.6804V30.6651C84.4335 25.1336 84.0625 22.6882 82.9494 21.2042L91.4322 18.9949V51.8972L102.596 41.4582C102.596 41.4582 104.806 39.4851 106.779 36.9217H116.476C115.987 37.0398 114.266 37.4108 108.128 43.1784L97.6889 52.9934C97.6889 52.9934 104.519 61.2907 110.421 67.8003C114.958 72.7078 117.825 73.2475 119.916 73.2475C120.287 73.2475 120.776 73.1294 121.147 72.9945C119.309 74.3605 116.611 75.1026 113.659 75.1026Z" fill="#BCB5B5"/>
</svg>
