<svg width="547" height="129" viewBox="0 0 547 129" fill="none" xmlns="http://www.w3.org/2000/svg">
<path fill-rule="evenodd" clip-rule="evenodd" d="M474.652 72.7873L470.284 72.9053V55.3158H475.226C477.873 55.3158 479.475 58.3008 479.475 63.9335C479.829 70.1564 477.873 72.7873 474.652 72.7873ZM494.08 44.2866V59.9198C492.697 51.6394 487.301 44.2866 476.491 44.2866L457.063 44.4046V73.1414H437.753L437.635 68.8916H452.003V58.8911H437.635V54.8605H454.988V44.4046H424.177V54.8605C422.575 47.8449 417.398 44.4046 408.78 44.4046H387.514V70.8479C375.439 75.6711 367.631 74.069 367.277 64.6418C367.277 54.9785 374.293 52.4489 385.322 55.67L384.293 44.978C370.734 42.3303 360.261 44.978 354.055 55.788C353.027 50.1553 349.806 44.7588 340.024 44.5227H318.404L318.522 73.0402H299.095V69.0096H313.345V59.0091H299.095V54.7593H316.347V44.5227H234.842V66.1427L224.386 44.6407H208.989V73.1583H188.751V69.1277H203.002V59.3633L188.751 59.4813V55.1135H205.767V44.8768H175.31V70.9659C164.163 75.5699 155.309 74.7604 155.309 64.3045C155.309 55.4507 163.708 52.7018 173.708 56.2602L172.326 45.231C154.163 41.4365 141.869 48.452 141.514 65.114C141.632 79.1451 156.692 87.7628 175.31 82.3662V83.3949H221.181V63.1577L231.418 83.2769H247.287V54.5401H259.936L260.054 83.2769H274.085L273.967 54.7593H285.569V83.2769H331.44V54.7593H335.808C338.22 54.7593 340.058 55.5688 340.058 58.2165C339.822 61.4376 337.073 62.2471 332.587 61.4376L338.793 83.1588H353.28L347.074 67.0703C350.059 66.2608 352.251 64.4226 353.28 61.6737C353.28 83.7491 372.471 86.3968 387.531 81.7928V83.1757H400.753V54.6581H405.121C408.342 54.6581 409.151 56.4963 409.151 58.1153C409.387 60.8811 406.166 62.2471 401.562 61.4544L408.122 83.1757H421.799L415.829 67.0871C420.197 65.9403 422.963 63.748 424.228 60.0716V83.1757L479.071 83.0576C486.542 83.0576 492.292 77.7622 494.131 68.8073V83.0576H508.162V54.5401H521.839L521.957 83.0576H535.988V54.5401H546.68V44.3034H494.08V44.2866Z" fill="#BCB5B5"/>
<path fill-rule="evenodd" clip-rule="evenodd" d="M37.1078 52.6682H48.1371L41.5768 64.507L42.6055 66.5813C42.6055 66.5813 52.2688 64.0516 52.488 70.713C52.7241 77.4925 41.3406 76.4638 37.6642 74.2714C35.826 78.9766 35.0166 82.4337 35.0166 82.4337C35.0166 82.4337 52.0327 89.4493 60.077 77.4925C52.7241 68.9929 55.7092 60.1391 55.7092 60.1391L53.5167 59.6838L62.2525 44.5059H60.4142H36.8548L37.1078 52.6682Z" fill="#BCB5B5"/>
<path fill-rule="evenodd" clip-rule="evenodd" d="M77.6827 74.7436C72.05 74.7436 67.3282 70.0385 67.3282 64.3889C67.3282 58.6382 72.0331 54.0342 77.6827 54.0342C83.4334 54.0342 88.0374 58.6382 88.0374 64.3889C88.0374 70.0385 83.4334 74.7436 77.6827 74.7436ZM77.6827 44.5059C66.7546 44.5059 57.9177 53.3596 57.9177 64.3889C57.9177 75.317 66.7714 84.1539 77.6827 84.1539C88.7119 84.1539 97.5658 75.3001 97.5658 64.3889C97.5826 53.3596 88.7288 44.5059 77.6827 44.5059Z" fill="#BCB5B5"/>
<path fill-rule="evenodd" clip-rule="evenodd" d="M111.26 69.9208C110.805 70.4942 109.759 69.9208 109.995 69.3474V59.583C109.658 58.4362 111.024 58.2001 111.598 58.7735L115.847 63.0233C116.421 63.8328 116.657 64.8615 115.847 65.4349L111.26 69.9208ZM101.715 99.8044C101.378 100.614 100.906 101.643 99.8768 101.643H93.6709C92.6422 101.643 92.4059 100.614 92.8612 100.04L99.8768 93.143C100.686 92.3335 101.715 92.9069 101.715 93.7164V99.8044ZM74.6985 100.968H53.3144C50.3295 101.204 47.9179 100.395 45.7255 97.983L30.2104 82.5859C27.9169 80.3935 26.7531 77.7627 27.1072 74.3055L26.9893 53.2757C26.9893 50.2907 28.1361 47.643 29.9743 45.8048L46.2988 29.4801C47.9009 27.878 49.9754 27.0685 52.9604 27.0685H74.9177C77.7847 26.7312 80.2131 27.5239 82.0513 29.7162L97.9205 45.4675C100.113 47.3057 101.142 49.7173 101.142 52.6011V75.5872C101.378 78.4542 100.332 80.8826 97.9205 82.4847L82.9787 97.7807C80.5671 100.159 77.9196 101.187 74.6985 100.968ZM69.8753 111.542L65.6255 115.91C64.816 116.601 63.7872 116.601 63.2138 115.91L58.6099 111.542C58.1545 110.851 58.6098 110.041 59.1832 110.041H69.0657C70.0944 110.041 70.4487 111.07 69.8753 111.542ZM35.3877 102.216H29.1817C28.3722 102.216 27.5795 101.761 27.5795 100.715L27.3433 94.509C27.3433 93.4803 28.3722 93.2442 28.9456 93.6995L36.1802 100.715C36.6524 101.187 36.1803 102.216 35.3877 102.216ZM26.7531 34.7418V28.873C26.9892 27.8443 27.5626 27.0348 28.5913 27.0348H34.7974C35.8262 27.0348 36.0622 28.0635 35.6069 28.6369L28.5913 35.5344C27.7987 36.1247 26.7531 35.5513 26.7531 34.7418ZM59.4024 17.1523L63.6523 12.9025C64.4618 12.3291 65.4906 12.093 66.064 12.9025L70.5497 17.1523C71.1231 17.9618 70.5498 18.7544 69.7403 18.7544H60.195C59.0651 18.7544 58.8291 17.7257 59.4024 17.1523ZM93.5527 27.0348H99.7589C100.568 27.0348 101.597 27.4901 101.361 28.5357V34.9779C101.361 35.7874 100.332 36.1247 99.9781 35.5513L93.0805 28.5357C92.2878 28.0804 92.8613 27.0348 93.5527 27.0348ZM16.8707 70.0388L12.6208 65.789C12.0474 65.2157 11.8113 64.1869 12.6208 63.3774L17.1068 58.7735C17.6802 58.3181 18.7088 58.7735 18.4896 59.583L18.7257 69.2462C18.7088 70.2581 17.6801 70.6122 16.8707 70.0388ZM109.422 45.8891V19.2266H82.8608L64.4617 0.608398L45.9616 19.0074L19.2823 19.1254V45.788L0.545898 64.4062L19.5183 83.0244L19.6364 109.805L46.0796 109.687L64.5968 128.423L82.9956 109.687H109.776V83.2436L128.394 64.6254L109.422 45.8891Z" fill="#BCB5B5"/>
</svg>
