<svg width="357" height="126" viewBox="0 0 357 126" fill="none" xmlns="http://www.w3.org/2000/svg">
<path d="M339.168 66.8539L336.672 58.4555C336.638 58.3543 336.537 58.27 336.419 58.27C336.301 58.27 336.216 58.3375 336.183 58.4555L333.653 66.8708L333.636 66.9045C333.636 66.9214 333.636 66.9383 333.636 66.9552C333.636 67.0901 333.737 67.1912 333.872 67.1912H338.932C339.067 67.1912 339.168 67.0901 339.168 66.9552C339.168 66.9383 339.168 66.9214 339.168 66.9045V66.8539Z" fill="#BCB5B5"/>
<path d="M232.179 0.661133V125.407H356.925V0.661133H232.179ZM265.739 76.635H259.095C258.926 76.635 258.774 76.5338 258.707 76.382V76.3651L257.56 72.9417C257.493 72.7899 257.358 72.6887 257.172 72.6887H248.302C248.133 72.6887 247.981 72.7899 247.914 72.9417L246.666 76.382C246.598 76.5338 246.463 76.635 246.295 76.635H239.718C239.481 76.635 239.313 76.4495 239.313 76.2303C239.313 76.1797 239.33 76.129 239.347 76.0785V76.0616L249.937 49.6857L249.954 49.6521C250.022 49.5172 250.157 49.416 250.325 49.416H255.25C255.401 49.416 255.553 49.5172 255.621 49.6521L255.638 49.7026L266.11 76.0447L266.127 76.0953C266.144 76.1291 266.144 76.1797 266.144 76.2134C266.144 76.4495 265.958 76.635 265.739 76.635ZM280.057 71.0529C283.514 71.0529 285.336 68.7425 286.162 67.3259C286.229 67.2247 286.364 67.1404 286.499 67.1404H293.127C293.346 67.1404 293.532 67.3259 293.532 67.5451C293.532 67.5957 293.532 67.6295 293.515 67.6801C293.515 67.6969 293.515 67.6968 293.498 67.7137C291.525 73.4307 286.263 77.1578 280.125 77.1578C271.591 77.1578 265.773 70.3446 265.773 62.9917C265.773 56.0436 271.153 48.91 280.04 48.91C287.781 48.91 292.25 54.3235 293.565 58.5227C293.565 58.5396 293.582 58.5564 293.582 58.5733C293.582 58.607 293.599 58.6407 293.599 58.6745C293.599 58.8937 293.414 59.0792 293.194 59.0792H286.55C286.415 59.0792 286.28 59.0117 286.213 58.8937C286.196 58.86 286.179 58.8431 286.179 58.8263C285.184 56.9881 283.228 54.998 280.023 54.998C275.352 54.998 272.738 59.0793 272.738 62.9412C272.738 67.0729 275.521 71.0529 280.057 71.0529ZM309.654 77.1578C301.12 77.1578 295.302 70.3446 295.302 62.9917C295.302 56.0436 300.682 48.91 309.57 48.91C317.31 48.91 321.779 54.3235 323.095 58.5227C323.095 58.5396 323.112 58.5564 323.112 58.5733C323.129 58.607 323.129 58.6407 323.129 58.6745C323.129 58.8937 322.943 59.0792 322.724 59.0792H316.079C315.944 59.0792 315.809 59.0117 315.742 58.8937C315.725 58.86 315.708 58.8431 315.708 58.8263C314.713 56.9881 312.757 54.998 309.553 54.998C304.881 54.998 302.267 59.0793 302.267 62.9412C302.267 67.0561 305.067 71.036 309.587 71.036C313.044 71.036 314.865 68.7256 315.691 67.309C315.759 67.2078 315.894 67.1235 316.029 67.1235H322.656C322.876 67.1235 323.061 67.309 323.061 67.5282C323.061 67.5788 323.044 67.6126 323.044 67.6632C323.044 67.68 323.044 67.68 323.027 67.6968C321.054 73.4307 315.792 77.1578 309.654 77.1578ZM349.386 76.635H342.742C342.573 76.635 342.421 76.5338 342.354 76.382V76.3651L341.207 72.9417C341.14 72.7899 341.005 72.6887 340.819 72.6887H331.949C331.78 72.6887 331.628 72.7899 331.561 72.9417L330.313 76.382C330.245 76.5338 330.11 76.635 329.942 76.635H323.365C323.145 76.635 322.96 76.4495 322.96 76.2303C322.96 76.1797 322.977 76.129 322.994 76.0785V76.0616L333.584 49.6857L333.601 49.6521C333.669 49.5172 333.804 49.416 333.972 49.416H338.897C339.065 49.416 339.2 49.5172 339.268 49.6521L339.285 49.7026L349.757 76.0447L349.774 76.0953C349.791 76.1291 349.791 76.1797 349.791 76.2134C349.791 76.4495 349.606 76.635 349.386 76.635Z" fill="#BCB5B5"/>
<path d="M255.537 66.8539L253.041 58.4555C253.007 58.3543 252.906 58.27 252.805 58.27C252.687 58.27 252.602 58.3375 252.569 58.4555L250.039 66.8708L250.022 66.9045C250.022 66.9214 250.022 66.9383 250.022 66.9552C250.022 67.0901 250.123 67.1912 250.258 67.1912H255.317C255.452 67.1912 255.554 67.0901 255.554 66.9552C255.554 66.9383 255.554 66.9214 255.554 66.9045L255.537 66.8539Z" fill="#BCB5B5"/>
<path d="M15.4565 76.6352H6.65337V74.2742H9.2841L9.41915 55.0151H2.99374L2.79137 58.7421H0.0424805V58.6578L0.261725 52.6372H21.7637L21.9661 58.7421H19.2341L19.0148 55.0151H12.5896L12.4546 74.2742H15.4565V76.6352Z" fill="#BCB5B5"/>
<path d="M43.6702 76.6346H35.7272V74.2735H38.0038C38.0038 72.9244 38.0376 71.5246 38.0713 70.1586C38.1051 68.7252 38.1386 67.2579 38.1386 65.8076C38.1386 64.1549 38.1387 60.7146 34.1756 60.7146C30.9207 60.7146 28.9645 63.0587 28.9645 66.9881L28.8633 74.2735H31.4942V76.6346H23.2813V74.2735H25.8447L25.9795 51.7766H22.5225V49.4155H29.0152V49.5167L28.9814 59.3149C28.9814 59.9389 28.8465 61.1363 28.7284 61.9964C29.774 59.4836 32.5567 58.185 34.9346 58.185C39.0663 58.185 41.1574 60.4785 41.1574 64.9981C41.1574 66.5665 41.1236 68.2699 41.0899 69.9057C41.0562 71.4741 41.0226 72.9581 41.0226 74.2735H43.6533V76.6346H43.6702Z" fill="#BCB5B5"/>
<path d="M54.1096 76.6349H45.4076V74.2738H48.2576L48.3926 60.9679H45.1377V58.6069H51.4114V58.7081L51.2763 74.2907H54.1096V76.6349ZM49.5393 54.0366C48.3082 54.0366 47.2964 53.0248 47.2964 51.7937C47.2964 50.5626 48.2913 49.5508 49.5393 49.5508C50.7704 49.5508 51.7823 50.5626 51.7823 51.7937C51.7823 53.0248 50.7872 54.0366 49.5393 54.0366Z" fill="#BCB5B5"/>
<path d="M76.0338 76.6348H68.0906V74.2738H70.3674C70.3674 72.9247 70.401 71.5249 70.4347 70.1589C70.4685 68.7254 70.5022 67.2582 70.5022 65.8079C70.5022 64.1552 70.5023 60.7149 66.5392 60.7149C63.2844 60.7149 61.3279 63.059 61.3279 66.9884L61.2606 74.2738H63.8576V76.6348H55.9146V74.2738H58.2081L58.3431 60.9678H55.4761V58.6069H61.3786V58.7081C61.3786 59.4164 61.345 60.3776 61.2775 60.8666L61.092 62.0303C62.1376 59.5175 64.9201 58.2021 67.298 58.2021C71.4297 58.2021 73.521 60.4957 73.521 65.0153C73.521 66.5837 73.4872 68.2869 73.4535 69.9228C73.4198 71.4912 73.386 72.9753 73.386 74.2907H76.0169V76.6348H76.0338Z" fill="#BCB5B5"/>
<path d="M96.3873 76.6346H88.4443V74.2735H90.5355L83.5367 67.6121L83.4692 74.2735H85.8303V76.6346H77.8872V74.2735H80.4506L80.5855 51.7766H77.1284V49.4155H83.6211V49.4998L83.5536 66.3473L90.097 60.9507H87.6853V58.5897H95.6285V60.9507H93.7397L86.4374 66.8869L94.3975 74.2735H96.3873V76.6346Z" fill="#BCB5B5"/>
<path d="M130.521 76.6352H122.173V74.2741H124.703L122.173 67.0899H113.539L110.739 74.2741H113.606V76.6352H105.46V74.2741H107.703L116.709 52.2324H120.014L128.177 74.2741H130.521V76.6352ZM114.466 64.7121H121.33L118.463 56.7689C118.227 56.1112 118.126 55.7065 118.024 55.3355C117.923 55.7065 117.822 56.1112 117.586 56.7689L114.466 64.7121Z" fill="#BCB5B5"/>
<path d="M150.64 76.6346H142.696V74.2735H144.973C144.973 72.9244 145.007 71.5246 145.041 70.1586C145.074 68.7252 145.108 67.2579 145.108 65.8076C145.108 64.1549 145.108 60.7146 141.145 60.7146C137.89 60.7146 135.934 63.0587 135.934 66.9881L135.833 74.2735H138.464V76.6346H130.251V74.2735H132.814L132.949 51.7766H129.492V49.4155H135.984V49.5167L135.951 59.3149C135.951 59.9389 135.816 61.1363 135.698 61.9964C136.743 59.4836 139.526 58.185 141.904 58.185C146.036 58.185 148.127 60.4785 148.127 64.9981C148.127 66.5665 148.093 68.2699 148.059 69.9057C148.026 71.4741 147.992 72.9581 147.992 74.2735H150.623V76.6346H150.64Z" fill="#BCB5B5"/>
<path d="M161.485 77.057C155.531 77.057 152.26 73.7178 152.26 67.6467C152.26 61.896 155.548 58.1689 160.624 58.1689C165.734 58.1689 168.433 61.5249 168.433 67.8491V67.9502H155.413C155.565 72.3012 157.825 74.5105 162.108 74.5105C163.829 74.5105 165.768 74.0214 167.438 73.1781L167.573 73.1107L167.455 75.7753L167.404 75.7922C166.072 76.4668 163.306 77.057 161.485 77.057ZM155.413 65.5892H165.262C165.228 62.2838 162.901 60.5468 160.608 60.5468C157.758 60.5468 155.633 62.6042 155.413 65.5892Z" fill="#BCB5B5"/>
<path d="M176.781 77.0568C175.971 77.0568 174.453 76.9388 173.188 76.1124C171.822 75.2355 171.148 73.7851 171.148 71.8457C171.148 66.7358 176.73 66.2805 182.464 66.2805V65.0831C182.464 61.862 181.3 60.5297 178.467 60.5297C177.438 60.5297 175.802 60.7152 174.588 61.2212V64.0206H171.839V59.5685L171.89 59.5516C174.217 58.6072 176.275 58.1519 178.197 58.1519C183.138 58.1519 185.348 60.1587 185.348 64.6783C185.348 65.3192 185.314 66.5334 185.263 67.9331C185.213 69.9063 185.128 72.3684 185.128 74.2404H187.692V76.6014H182.379V75.7751C182.379 74.9656 182.498 73.9368 182.616 73.1779C181.503 75.8762 179.681 77.0568 176.781 77.0568ZM182.481 68.4391C178.383 68.4391 174.183 68.4559 174.183 71.7107C174.183 73.7682 175.819 74.6958 177.455 74.6958C178.619 74.6958 182.43 74.2404 182.481 68.4391Z" fill="#BCB5B5"/>
<path d="M197.086 77.0562C192.532 77.0562 189.581 73.6327 189.581 68.3373C189.581 62.0637 193.258 58.1681 199.16 58.1681C200.003 58.1681 201.791 58.3199 202.769 58.8933L202.836 51.7766H199.278V49.4155H205.872V49.5167L205.737 74.2735H208.402V76.6346H202.718V76.5502C202.718 75.2348 202.853 74.1217 202.971 73.3966C202.145 75.2516 200.222 77.0562 197.086 77.0562ZM199.379 60.7146C195.163 60.7146 192.752 63.5141 192.752 68.371C192.752 72.8907 195.298 74.5097 197.676 74.5097C201.066 74.5097 202.769 72.0137 202.769 67.0893V61.4736C202.651 61.423 202.533 61.3723 202.415 61.3217C201.875 61.0688 201.099 60.7146 199.379 60.7146Z" fill="#BCB5B5"/>
</svg>
