<svg width="148" height="121" viewBox="0 0 148 121" fill="none" xmlns="http://www.w3.org/2000/svg">
<path fill-rule="evenodd" clip-rule="evenodd" d="M1.15843 50.6384C1.59703 50.0818 2.11996 49.9299 2.30552 50.3179C2.50795 50.7228 2.28858 51.465 1.81625 52.0048C1.36078 52.5109 0.854722 52.629 0.669161 52.2748C0.517339 51.9205 0.719835 51.1951 1.15843 50.6384Z" fill="#BCB5B5"/>
<path fill-rule="evenodd" clip-rule="evenodd" d="M26.1011 18.5962C26.5395 18.0396 27.3828 18.4275 27.9899 19.4394C28.597 20.4512 28.7151 21.6992 28.2429 22.222C27.7875 22.7448 26.9275 22.3738 26.3541 21.3956C25.7807 20.4175 25.6626 19.1527 26.1011 18.5962Z" fill="#BCB5B5"/>
<path fill-rule="evenodd" clip-rule="evenodd" d="M28.3772 15.679C28.8157 15.1225 29.6927 15.5441 30.3336 16.6234C30.9744 17.7027 31.1262 19.0013 30.654 19.5241C30.1987 20.0469 29.3048 19.6421 28.6977 18.5797C28.0737 17.551 27.9388 16.2355 28.3772 15.679Z" fill="#BCB5B5"/>
<path fill-rule="evenodd" clip-rule="evenodd" d="M39.7112 1.12487C40.1496 0.568349 41.1783 1.22606 42.0047 2.57521C42.831 3.95808 43.1346 5.47587 42.6624 5.99866C42.2071 6.52146 41.1615 5.88061 40.3689 4.54833C39.5763 3.23291 39.2727 1.68139 39.7112 1.12487Z" fill="#BCB5B5"/>
<path fill-rule="evenodd" clip-rule="evenodd" d="M2.06951 52.4767C2.54185 51.9706 3.0817 51.8694 3.26726 52.2742C3.48656 52.6622 3.23353 53.3707 2.74432 53.8262C2.25512 54.2985 1.71525 54.3829 1.52969 54.0286C1.361 53.6575 1.59718 52.9827 2.06951 52.4767Z" fill="#BCB5B5"/>
<path fill-rule="evenodd" clip-rule="evenodd" d="M2.9791 54.2984C3.48517 53.8429 4.05874 53.7924 4.26117 54.1803C4.44673 54.5852 4.17685 55.2262 3.6539 55.6479C3.13096 56.0528 2.55741 56.0865 2.38872 55.7323C2.22003 55.3949 2.47302 54.7539 2.9791 54.2984Z" fill="#BCB5B5"/>
<path fill-rule="evenodd" clip-rule="evenodd" d="M3.90544 56.1197C4.44526 55.7149 5.05252 55.7149 5.25495 56.1029C5.45738 56.5077 5.1537 57.115 4.58015 57.4693C4.0066 57.8235 3.43308 57.8235 3.24752 57.4693C3.06196 57.1319 3.36563 56.5246 3.90544 56.1197Z" fill="#BCB5B5"/>
<path fill-rule="evenodd" clip-rule="evenodd" d="M4.81667 57.9572C5.39022 57.603 6.03127 57.6536 6.21683 58.0416C6.41926 58.4464 6.08189 59.0031 5.49147 59.3067C4.88419 59.6104 4.26 59.5598 4.09131 59.2055C3.92262 58.8682 4.24312 58.3115 4.81667 57.9572Z" fill="#BCB5B5"/>
<path fill-rule="evenodd" clip-rule="evenodd" d="M5.73033 59.7787C6.33762 59.4919 6.99551 59.5763 7.19794 59.9643C7.40037 60.3691 7.0293 60.8921 6.40514 61.1451C5.76411 61.3981 5.12309 61.3138 4.93753 60.9427C4.76884 60.6053 5.12304 60.0655 5.73033 59.7787Z" fill="#BCB5B5"/>
<path fill-rule="evenodd" clip-rule="evenodd" d="M6.64044 61.6173C7.28146 61.3812 7.97305 61.5161 8.17548 61.9041C8.37791 62.309 7.9899 62.7813 7.31514 62.9837C6.64037 63.1862 5.96567 63.0512 5.79698 62.6801C5.62829 62.3258 5.99941 61.8535 6.64044 61.6173Z" fill="#BCB5B5"/>
<path fill-rule="evenodd" clip-rule="evenodd" d="M7.54997 63.4554C8.2416 63.2699 8.95012 63.4385 9.15255 63.8265C9.35498 64.2314 8.93328 64.6531 8.22477 64.8049C7.51627 64.9399 6.80776 64.7712 6.63907 64.4001C6.47038 64.0627 6.8752 63.641 7.54997 63.4554Z" fill="#BCB5B5"/>
<path fill-rule="evenodd" clip-rule="evenodd" d="M8.47826 65.2936C9.18676 65.1586 9.94586 65.3611 10.1483 65.7659C10.3507 66.1539 9.89531 66.5419 9.15307 66.6431C8.41083 66.7275 7.68549 66.5082 7.49993 66.1539C7.33123 65.7997 7.75289 65.4285 8.47826 65.2936Z" fill="#BCB5B5"/>
<path fill-rule="evenodd" clip-rule="evenodd" d="M9.38891 67.1319C10.148 67.0476 10.9071 67.3006 11.1095 67.7055C11.3119 68.1103 10.8396 68.4308 10.0636 68.4815C9.28763 68.5152 8.51172 68.2621 8.34303 67.891C8.17434 67.5368 8.64667 67.2163 9.38891 67.1319Z" fill="#BCB5B5"/>
<path fill-rule="evenodd" clip-rule="evenodd" d="M10.2976 68.9533C11.0904 68.9364 11.8833 69.2401 12.0857 69.6281C12.2881 70.0329 11.7821 70.3366 10.9724 70.3028C10.1627 70.286 9.36974 69.9823 9.20105 69.6281C9.03236 69.2738 9.50474 68.9702 10.2976 68.9533Z" fill="#BCB5B5"/>
<path fill-rule="evenodd" clip-rule="evenodd" d="M11.2258 70.7742C12.0524 70.808 12.879 71.1453 13.0815 71.5502C13.267 71.9551 12.744 72.2081 11.8837 72.1406C11.0403 72.0563 10.2136 71.7189 10.0618 71.3646C9.87627 71.0104 10.3992 70.7574 11.2258 70.7742Z" fill="#BCB5B5"/>
<path fill-rule="evenodd" clip-rule="evenodd" d="M12.1208 72.6133C12.9811 72.7145 13.8413 73.0856 14.0438 73.4736C14.2462 73.8616 13.6895 74.0809 12.8123 73.9629C11.9351 73.8279 11.0748 73.4399 10.9061 73.0857C10.7206 72.7483 11.2604 72.529 12.1208 72.6133Z" fill="#BCB5B5"/>
<path fill-rule="evenodd" clip-rule="evenodd" d="M13.0322 74.4511C13.9263 74.6029 14.8203 75.0247 15.0228 75.4127C15.2252 75.8175 14.6348 76.0031 13.707 75.8175C12.7961 75.6151 11.9188 75.1934 11.7333 74.8391C11.5646 74.468 12.1382 74.2993 13.0322 74.4511Z" fill="#BCB5B5"/>
<path fill-rule="evenodd" clip-rule="evenodd" d="M13.9582 76.2892C14.886 76.4916 15.797 76.9639 15.9994 77.3351C16.2019 77.7399 15.5777 77.8749 14.633 77.6387C13.6715 77.3857 12.7774 76.9133 12.5918 76.5591C12.4231 76.2048 13.0304 76.0867 13.9582 76.2892Z" fill="#BCB5B5"/>
<path fill-rule="evenodd" clip-rule="evenodd" d="M14.8681 78.1103C15.8294 78.3633 16.7737 78.8861 16.9593 79.274C17.1616 79.6787 16.5207 79.763 15.5257 79.4595C14.5307 79.1559 13.6032 78.65 13.4346 78.2958C13.2828 77.9248 13.9068 77.8573 14.8681 78.1103Z" fill="#BCB5B5"/>
<path fill-rule="evenodd" clip-rule="evenodd" d="M15.7798 79.9323C16.7748 80.2358 17.7528 80.7923 17.9552 81.1971C18.1239 81.585 17.4662 81.6356 16.4544 81.2814C15.4256 80.9273 14.4812 80.3707 14.3126 80.0166C14.1271 79.6793 14.7848 79.6287 15.7798 79.9323Z" fill="#BCB5B5"/>
<path fill-rule="evenodd" clip-rule="evenodd" d="M16.6885 81.7696C17.7172 82.1407 18.7291 82.7309 18.9315 83.1188C19.1338 83.5235 18.4256 83.5235 17.38 83.1188C16.3175 82.6972 15.3225 82.1069 15.1539 81.7528C14.9684 81.4155 15.6598 81.3986 16.6885 81.7696Z" fill="#BCB5B5"/>
<path fill-rule="evenodd" clip-rule="evenodd" d="M7.81887 56.1702C8.39242 55.816 9.05041 55.9172 9.28658 56.3558C9.52275 56.7944 9.23593 57.4185 8.61177 57.7222C8.00449 58.0258 7.3466 57.9415 7.14417 57.5366C6.94174 57.1318 7.22845 56.5245 7.81887 56.1702Z" fill="#BCB5B5"/>
<path fill-rule="evenodd" clip-rule="evenodd" d="M8.91477 58.2779C9.52206 57.9912 10.2306 58.1261 10.4499 58.5816C10.6861 59.037 10.3655 59.6106 9.72446 59.8636C9.08343 60.1167 8.40869 59.9817 8.17253 59.56C7.9701 59.1551 8.29061 58.5647 8.91477 58.2779Z" fill="#BCB5B5"/>
<path fill-rule="evenodd" clip-rule="evenodd" d="M10.0128 60.3865C10.6539 60.1503 11.3792 60.3359 11.6153 60.7914C11.8515 61.23 11.4804 61.7697 10.8056 61.9553C10.1309 62.1577 9.42237 61.9722 9.21994 61.5673C9.00064 61.1625 9.35494 60.6227 10.0128 60.3865Z" fill="#BCB5B5"/>
<path fill-rule="evenodd" clip-rule="evenodd" d="M11.1098 62.5108C11.8015 62.3252 12.5437 62.5446 12.7799 63C13.0329 63.4555 12.6449 63.9447 11.9364 64.0796C11.2279 64.2146 10.4688 64.0122 10.2664 63.5904C10.0302 63.1687 10.4182 62.6795 11.1098 62.5108Z" fill="#BCB5B5"/>
<path fill-rule="evenodd" clip-rule="evenodd" d="M12.2053 64.6183C12.9138 64.5002 13.7066 64.7532 13.9428 65.2087C14.179 65.6473 13.7741 66.0859 13.015 66.1702C12.2728 66.2546 11.4969 66.0015 11.2776 65.5798C11.0583 65.1918 11.48 64.7363 12.2053 64.6183Z" fill="#BCB5B5"/>
<path fill-rule="evenodd" clip-rule="evenodd" d="M13.2844 66.7272C14.0435 66.6597 14.8364 66.9633 15.0725 67.4019C15.3087 67.8574 14.8701 68.2454 14.0941 68.2791C13.3181 68.296 12.5084 68.0092 12.2891 67.6044C12.1035 67.1995 12.5422 66.8115 13.2844 66.7272Z" fill="#BCB5B5"/>
<path fill-rule="evenodd" clip-rule="evenodd" d="M14.3814 68.835C15.1742 68.8182 16.0009 69.1893 16.2371 69.611C16.4732 70.0665 15.984 70.4207 15.1743 70.387C14.3646 70.3701 13.5379 70.0159 13.3186 69.611C13.1331 69.223 13.6054 68.8519 14.3814 68.835Z" fill="#BCB5B5"/>
<path fill-rule="evenodd" clip-rule="evenodd" d="M15.4755 70.9602C16.302 70.9939 17.1624 71.3819 17.3986 71.8374C17.6347 72.276 17.1286 72.5965 16.2851 72.5122C15.4417 72.4278 14.5814 72.0398 14.3789 71.635C14.1596 71.2132 14.6657 70.9265 15.4755 70.9602Z" fill="#BCB5B5"/>
<path fill-rule="evenodd" clip-rule="evenodd" d="M16.5724 73.068C17.4327 73.1523 18.31 73.5909 18.563 74.0295C18.7992 74.4681 18.2762 74.7549 17.3822 74.6199C16.505 74.485 15.6109 74.0464 15.3916 73.6247C15.1892 73.2367 15.7121 72.9836 16.5724 73.068Z" fill="#BCB5B5"/>
<path fill-rule="evenodd" clip-rule="evenodd" d="M17.6667 75.1928C18.5608 75.3447 19.4886 75.8001 19.7248 76.2556C19.961 76.6942 19.4042 76.9304 18.4933 76.7448C17.5655 76.5424 16.6546 76.07 16.4353 75.6652C16.216 75.2603 16.7895 75.041 17.6667 75.1928Z" fill="#BCB5B5"/>
<path fill-rule="evenodd" clip-rule="evenodd" d="M18.7632 77.3011C19.691 77.5035 20.6526 78.0265 20.8719 78.4651C21.108 78.9037 20.5345 79.0892 19.5729 78.8699C18.6114 78.6169 17.6498 78.094 17.4474 77.6722C17.2618 77.2674 17.8354 77.0987 18.7632 77.3011Z" fill="#BCB5B5"/>
<path fill-rule="evenodd" clip-rule="evenodd" d="M14.6324 61.5664C15.3241 61.3809 16.1 61.6339 16.3699 62.1569C16.6398 62.6629 16.2856 63.2028 15.5771 63.3377C14.8686 63.4895 14.0926 63.2196 13.8395 62.7473C13.6034 62.2749 13.9577 61.752 14.6324 61.5664Z" fill="#BCB5B5"/>
<path fill-rule="evenodd" clip-rule="evenodd" d="M15.9149 63.9617C16.6234 63.8267 17.45 64.1472 17.7031 64.6364C17.9898 65.1425 17.6018 65.6317 16.8596 65.7161C16.1174 65.8173 15.3076 65.4967 15.0715 65.0413C14.8184 64.5689 15.2064 64.0797 15.9149 63.9617Z" fill="#BCB5B5"/>
<path fill-rule="evenodd" clip-rule="evenodd" d="M17.1966 66.3387C17.9557 66.2543 18.7823 66.6254 19.0522 67.1146C19.3389 67.6376 18.9172 68.0762 18.1413 68.1099C17.3653 68.1268 16.5386 67.7894 16.2856 67.3171C16.0326 66.8616 16.4544 66.423 17.1966 66.3387Z" fill="#BCB5B5"/>
<path fill-rule="evenodd" clip-rule="evenodd" d="M18.4775 68.7344C19.2703 68.7175 20.1307 69.1224 20.4175 69.6116C20.6705 70.1177 20.2487 70.5225 19.4221 70.5057C18.6124 70.4888 17.7522 70.0839 17.4991 69.6116C17.2461 69.1561 17.6846 68.7513 18.4775 68.7344Z" fill="#BCB5B5"/>
<path fill-rule="evenodd" clip-rule="evenodd" d="M19.7432 71.1288C20.5698 71.1625 21.4638 71.6011 21.7337 72.1072C22.0036 72.6133 21.5313 72.9675 20.6878 72.9001C19.8444 72.8326 18.9503 72.3771 18.7142 71.9048C18.4611 71.4324 18.9334 71.095 19.7432 71.1288Z" fill="#BCB5B5"/>
<path fill-rule="evenodd" clip-rule="evenodd" d="M21.0252 73.5405C21.8855 73.6417 22.7965 74.0972 23.0833 74.6032C23.37 75.1093 22.8639 75.4298 21.9699 75.2949C21.0927 75.1768 20.1649 74.6707 19.9119 74.1984C19.6757 73.7429 20.1817 73.4393 21.0252 73.5405Z" fill="#BCB5B5"/>
<path fill-rule="evenodd" clip-rule="evenodd" d="M18.1756 60.6219C18.8673 60.4363 19.6601 60.74 19.9806 61.2967C20.2843 61.8702 19.9638 62.4438 19.2553 62.5787C18.5468 62.7137 17.737 62.41 17.4503 61.8702C17.1635 61.381 17.5009 60.8075 18.1756 60.6219Z" fill="#BCB5B5"/>
<path fill-rule="evenodd" clip-rule="evenodd" d="M19.6404 63.3036C20.3489 63.1855 21.1924 63.5061 21.496 64.0796C21.7997 64.6363 21.4623 65.1761 20.72 65.2604C19.9778 65.3448 19.1343 64.9905 18.8476 64.4676C18.5777 63.9446 18.9319 63.4217 19.6404 63.3036Z" fill="#BCB5B5"/>
<path fill-rule="evenodd" clip-rule="evenodd" d="M21.1084 65.9681C21.8507 65.9006 22.7279 66.2886 23.0315 66.8453C23.3352 67.4188 22.9641 67.908 22.1881 67.9418C21.4121 67.9755 20.5517 67.5875 20.265 67.0477C19.9782 66.5416 20.3493 66.0355 21.1084 65.9681Z" fill="#BCB5B5"/>
<path fill-rule="evenodd" clip-rule="evenodd" d="M22.5574 68.6328C23.3502 68.6159 24.2274 69.0714 24.5479 69.6281C24.8516 70.2016 24.4467 70.6402 23.6201 70.6233C22.8104 70.6065 21.9163 70.151 21.6464 69.6281C21.3596 69.1051 21.7814 68.6496 22.5574 68.6328Z" fill="#BCB5B5"/>
<path fill-rule="evenodd" clip-rule="evenodd" d="M24.0265 71.3141C24.8531 71.3478 25.7639 71.837 26.0845 72.3937C26.3881 72.9672 25.9495 73.3552 25.106 73.2877C24.2626 73.2034 23.3348 72.7142 23.048 72.1913C22.7613 71.6683 23.1999 71.2803 24.0265 71.3141Z" fill="#BCB5B5"/>
<path fill-rule="evenodd" clip-rule="evenodd" d="M18.444 53.7415C19.0513 53.4547 19.8272 53.7246 20.1814 54.3488C20.5188 54.9729 20.2995 55.6814 19.6585 55.9345C19.0175 56.1875 18.2415 55.9176 17.921 55.3272C17.5836 54.7536 17.8198 54.0451 18.444 53.7415Z" fill="#BCB5B5"/>
<path fill-rule="evenodd" clip-rule="evenodd" d="M20.0787 56.7098C20.7198 56.4736 21.5295 56.7941 21.8838 57.4014C22.238 58.0256 21.9681 58.6835 21.2765 58.8859C20.6017 59.0883 19.8089 58.7678 19.4884 58.1942C19.1679 57.6207 19.4208 56.9459 20.0787 56.7098Z" fill="#BCB5B5"/>
<path fill-rule="evenodd" clip-rule="evenodd" d="M21.7154 59.6782C22.407 59.4927 23.2336 59.8469 23.5878 60.4711C23.9252 61.0952 23.6553 61.7025 22.9299 61.8543C22.2214 62.0061 21.3948 61.6519 21.0743 61.0446C20.7538 60.4711 21.0406 59.8638 21.7154 59.6782Z" fill="#BCB5B5"/>
<path fill-rule="evenodd" clip-rule="evenodd" d="M23.3691 62.629C24.0944 62.4941 24.9548 62.8989 25.2922 63.5062C25.6464 64.1304 25.3259 64.7039 24.5668 64.7883C23.8246 64.8895 22.9811 64.4846 22.6437 63.8942C22.3232 63.3375 22.6437 62.764 23.3691 62.629Z" fill="#BCB5B5"/>
<path fill-rule="evenodd" clip-rule="evenodd" d="M25.0036 65.5811C25.7627 65.5136 26.6569 65.9522 26.9943 66.5763C27.3485 67.2005 26.9942 67.7234 26.2183 67.7741C25.4423 67.8078 24.5482 67.3692 24.2277 66.7788C23.9072 66.1883 24.2445 65.6485 25.0036 65.5811Z" fill="#BCB5B5"/>
<path fill-rule="evenodd" clip-rule="evenodd" d="M26.6384 68.5317C27.4313 68.5148 28.3422 69.004 28.6964 69.6282C29.0338 70.2523 28.6796 70.7415 27.853 70.7247C27.0432 70.7078 26.1155 70.2186 25.795 69.6282C25.4913 69.0546 25.8456 68.5485 26.6384 68.5317Z" fill="#BCB5B5"/>
<path fill-rule="evenodd" clip-rule="evenodd" d="M28.2931 71.4827C29.1197 71.5165 30.0644 72.0563 30.4187 72.6804C30.756 73.3046 30.3512 73.7432 29.5078 73.6588C28.6643 73.5914 27.7196 73.0684 27.3991 72.478C27.0617 71.9044 27.4665 71.4321 28.2931 71.4827Z" fill="#BCB5B5"/>
<path fill-rule="evenodd" clip-rule="evenodd" d="M19.7923 49.0194C20.3658 48.6651 21.1417 48.9519 21.5297 49.6266C21.9177 50.3014 21.749 51.0943 21.1249 51.4148C20.5176 51.7184 19.7585 51.4316 19.3874 50.7906C19.0332 50.1496 19.2187 49.3567 19.7923 49.0194Z" fill="#BCB5B5"/>
<path fill-rule="evenodd" clip-rule="evenodd" d="M21.6155 52.2575C22.2228 51.9707 23.0493 52.2744 23.4204 52.966C23.8084 53.6408 23.6061 54.383 22.965 54.6529C22.324 54.9059 21.5312 54.5854 21.16 53.9444C20.8058 53.2865 20.9914 52.5442 21.6155 52.2575Z" fill="#BCB5B5"/>
<path fill-rule="evenodd" clip-rule="evenodd" d="M23.4356 55.4783C24.0766 55.2421 24.9202 55.5964 25.3081 56.288C25.6961 56.9628 25.4431 57.6713 24.7852 57.8737C24.1104 58.0761 23.2838 57.705 22.9295 57.064C22.5584 56.4398 22.7946 55.7145 23.4356 55.4783Z" fill="#BCB5B5"/>
<path fill-rule="evenodd" clip-rule="evenodd" d="M25.2581 58.7328C25.9328 58.5472 26.8101 58.9352 27.1981 59.6268C27.586 60.3016 27.3329 60.9595 26.6076 61.1113C25.8991 61.2631 25.0387 60.8583 24.6845 60.2004C24.3133 59.5762 24.5833 58.9183 25.2581 58.7328Z" fill="#BCB5B5"/>
<path fill-rule="evenodd" clip-rule="evenodd" d="M27.0951 61.9539C27.8205 61.8189 28.7145 62.2744 29.0856 62.9492C29.4736 63.624 29.1868 64.2481 28.4446 64.3324C27.7024 64.4168 26.8083 63.9782 26.4541 63.3372C26.0829 62.713 26.3697 62.0888 27.0951 61.9539Z" fill="#BCB5B5"/>
<path fill-rule="evenodd" clip-rule="evenodd" d="M28.9168 65.1923C29.6759 65.1248 30.5869 65.614 30.9749 66.2887C31.3629 66.9635 31.0255 67.5539 30.2495 67.5877C29.4736 67.6045 28.5626 67.1322 28.1914 66.4912C27.8372 65.8501 28.1577 65.2766 28.9168 65.1923Z" fill="#BCB5B5"/>
<path fill-rule="evenodd" clip-rule="evenodd" d="M30.721 68.4306C31.5139 68.4137 32.4585 68.9535 32.8465 69.6283C33.2176 70.303 32.8634 70.8428 32.0537 70.826C31.244 70.8091 30.2993 70.2693 29.9451 69.6283C29.5908 68.9872 29.945 68.4474 30.721 68.4306Z" fill="#BCB5B5"/>
<path fill-rule="evenodd" clip-rule="evenodd" d="M32.5604 71.6681C33.387 71.7019 34.3654 72.2754 34.7534 72.9502C35.1245 73.625 34.7534 74.131 33.9099 74.0467C33.0665 73.9792 32.0881 73.4057 31.7339 72.7646C31.3627 72.1067 31.7338 71.6175 32.5604 71.6681Z" fill="#BCB5B5"/>
<path fill-rule="evenodd" clip-rule="evenodd" d="M20.7712 43.7071C21.311 43.3023 22.1038 43.589 22.5256 44.3144C22.9473 45.0398 22.8124 45.9338 22.2557 46.305C21.6822 46.6592 20.9061 46.3893 20.5181 45.6977C20.1133 45.006 20.2314 44.112 20.7712 43.7071Z" fill="#BCB5B5"/>
<path fill-rule="evenodd" clip-rule="evenodd" d="M22.7963 47.2318C23.3699 46.8776 24.1796 47.1981 24.6013 47.9403C25.0231 48.6657 24.8712 49.5092 24.2639 49.8297C23.6567 50.1333 22.847 49.8128 22.4422 49.1212C22.0542 48.4296 22.2059 47.5861 22.7963 47.2318Z" fill="#BCB5B5"/>
<path fill-rule="evenodd" clip-rule="evenodd" d="M24.7854 50.7399C25.3927 50.4531 26.2361 50.8074 26.6579 51.5496C27.0796 52.2918 26.9108 53.0847 26.2698 53.3546C25.6288 53.6076 24.7853 53.2365 24.3805 52.5449C24.0094 51.8364 24.1781 51.0267 24.7854 50.7399Z" fill="#BCB5B5"/>
<path fill-rule="evenodd" clip-rule="evenodd" d="M26.7911 54.2646C27.4321 54.0284 28.3093 54.4333 28.7311 55.1755C29.1528 55.9177 28.9503 56.6768 28.2756 56.8793C27.6008 57.0817 26.7237 56.6769 26.3357 55.9684C25.9477 55.2599 26.15 54.4839 26.7911 54.2646Z" fill="#BCB5B5"/>
<path fill-rule="evenodd" clip-rule="evenodd" d="M28.7989 57.7719C29.4905 57.5863 30.3846 58.0418 30.8063 58.7841C31.2112 59.5263 30.9919 60.2348 30.2834 60.3866C29.5749 60.5216 28.6808 60.083 28.2759 59.3745C27.8711 58.6828 28.1072 57.9575 28.7989 57.7719Z" fill="#BCB5B5"/>
<path fill-rule="evenodd" clip-rule="evenodd" d="M30.8064 61.2962C31.5318 61.1613 32.4596 61.6674 32.8645 62.3927C33.2862 63.1181 33.0163 63.7929 32.274 63.8772C31.5318 63.9616 30.604 63.4724 30.216 62.7807C29.828 62.106 30.0979 61.4312 30.8064 61.2962Z" fill="#BCB5B5"/>
<path fill-rule="evenodd" clip-rule="evenodd" d="M32.812 64.8047C33.5543 64.7372 34.5158 65.2602 34.9375 66.0024C35.3593 66.7446 35.0725 67.3688 34.2965 67.4025C33.5205 67.4363 32.559 66.9133 32.171 66.2048C31.783 65.5132 32.0698 64.889 32.812 64.8047Z" fill="#BCB5B5"/>
<path fill-rule="evenodd" clip-rule="evenodd" d="M34.8192 68.3119C35.6121 68.295 36.5905 68.8854 37.0123 69.6108C37.434 70.353 37.1134 70.9435 36.3037 70.8928C35.494 70.876 34.4987 70.3024 34.1107 69.6108C33.7059 68.9192 34.0264 68.3287 34.8192 68.3119Z" fill="#BCB5B5"/>
<path fill-rule="evenodd" clip-rule="evenodd" d="M36.8267 71.8369C37.6532 71.8707 38.6485 72.5117 39.0703 73.2371C39.492 73.9793 39.1377 74.5192 38.2943 74.4348C37.4508 74.3673 36.4387 73.7432 36.0507 73.0515C35.6628 72.343 36.0169 71.8032 36.8267 71.8369Z" fill="#BCB5B5"/>
<path fill-rule="evenodd" clip-rule="evenodd" d="M38.834 75.362C39.6943 75.4632 40.7233 76.1211 41.1619 76.8634C41.5837 77.5887 41.2125 78.0948 40.3185 77.9599C39.4413 77.8418 38.3954 77.1839 37.9905 76.4754C37.6025 75.7669 37.9905 75.2608 38.834 75.362Z" fill="#BCB5B5"/>
<path fill-rule="evenodd" clip-rule="evenodd" d="M21.4114 37.8387C21.9175 37.3832 22.6934 37.67 23.1489 38.446C23.6043 39.2557 23.5537 40.2341 23.0139 40.6389C22.4909 41.0606 21.6981 40.7907 21.2764 40.0316C20.8378 39.2725 20.9053 38.2941 21.4114 37.8387Z" fill="#BCB5B5"/>
<path fill-rule="evenodd" clip-rule="evenodd" d="M23.5882 41.6495C24.128 41.2447 24.9378 41.5652 25.4101 42.358C25.8656 43.1509 25.7813 44.0787 25.2077 44.4329C24.6342 44.7872 23.8244 44.4836 23.3858 43.7413C22.9472 42.9822 23.0484 42.0544 23.5882 41.6495Z" fill="#BCB5B5"/>
<path fill-rule="evenodd" clip-rule="evenodd" d="M25.7815 45.4443C26.3551 45.1069 27.2154 45.4611 27.654 46.254C28.1094 47.0637 27.9914 47.9409 27.401 48.2446C26.7937 48.5482 25.9503 48.194 25.5117 47.4348C25.0899 46.6757 25.208 45.7817 25.7815 45.4443Z" fill="#BCB5B5"/>
<path fill-rule="evenodd" clip-rule="evenodd" d="M27.9741 49.222C28.5814 48.9352 29.4587 49.34 29.9141 50.1329C30.3696 50.9257 30.2346 51.7692 29.5936 52.0222C28.9526 52.2753 28.0753 51.8535 27.6367 51.1113C27.215 50.3691 27.3669 49.5256 27.9741 49.222Z" fill="#BCB5B5"/>
<path fill-rule="evenodd" clip-rule="evenodd" d="M30.1494 53.033C30.7905 52.7968 31.7014 53.2354 32.1569 54.0451C32.6123 54.838 32.4267 55.6477 31.7519 55.8501C31.0772 56.0525 30.1831 55.5971 29.7445 54.838C29.3228 54.0789 29.5084 53.2691 30.1494 53.033Z" fill="#BCB5B5"/>
<path fill-rule="evenodd" clip-rule="evenodd" d="M32.3416 56.8284C33.0332 56.6428 33.961 57.132 34.4165 57.9248C34.8719 58.7177 34.6695 59.4768 33.961 59.6286C33.2525 59.7636 32.3247 59.2744 31.903 58.5153C31.4644 57.773 31.6668 57.0139 32.3416 56.8284Z" fill="#BCB5B5"/>
<path fill-rule="evenodd" clip-rule="evenodd" d="M34.534 60.6388C35.2594 60.5039 36.2041 61.0437 36.6595 61.8366C37.115 62.6294 36.8788 63.3548 36.1366 63.4391C35.3944 63.5235 34.4328 63.0005 34.0111 62.2414C33.5894 61.4823 33.8255 60.7738 34.534 60.6388Z" fill="#BCB5B5"/>
<path fill-rule="evenodd" clip-rule="evenodd" d="M36.7247 64.4336C37.4838 64.3661 38.4623 64.9397 38.9009 65.7325C39.3732 66.5085 39.1033 67.2002 38.3273 67.2339C37.5513 67.2676 36.5729 66.6941 36.1343 65.9181C35.7126 65.1759 35.9656 64.5011 36.7247 64.4336Z" fill="#BCB5B5"/>
<path fill-rule="evenodd" clip-rule="evenodd" d="M38.8999 68.2113C39.6927 68.1944 40.7048 68.8186 41.1603 69.6114C41.6157 70.4043 41.3289 71.0284 40.5192 70.9947C39.7095 70.9947 38.6974 70.3705 38.2757 69.6114C37.8202 68.8692 38.1239 68.245 38.8999 68.2113Z" fill="#BCB5B5"/>
<path fill-rule="evenodd" clip-rule="evenodd" d="M41.093 72.0058C41.9196 72.0395 42.9655 72.7311 43.4209 73.524C43.8764 74.3168 43.5558 74.9073 42.7124 74.8061C41.8689 74.7386 40.8231 74.0638 40.3845 73.3216C39.9628 72.5625 40.2664 71.972 41.093 72.0058Z" fill="#BCB5B5"/>
<path fill-rule="evenodd" clip-rule="evenodd" d="M43.2879 75.8C44.1479 75.8843 45.2272 76.6094 45.6657 77.4021C46.1379 78.2116 45.7838 78.7344 44.9069 78.5994C44.0299 78.4814 42.9505 77.7562 42.5121 76.9973C42.0905 76.2722 42.4446 75.7156 43.2879 75.8Z" fill="#BCB5B5"/>
<path fill-rule="evenodd" clip-rule="evenodd" d="M45.4792 79.5946C46.373 79.7464 47.4692 80.5052 47.9246 81.2979C48.3799 82.0736 48.0089 82.5796 47.0982 82.3941C46.1876 82.2086 45.0745 81.4328 44.636 80.6907C44.2144 79.9656 44.5685 79.4597 45.4792 79.5946Z" fill="#BCB5B5"/>
<path fill-rule="evenodd" clip-rule="evenodd" d="M24.0447 35.4939C24.5508 35.0553 25.3604 35.3589 25.8665 36.2192C26.3557 37.0796 26.322 38.1086 25.7991 38.5134C25.2761 38.9183 24.4495 38.5978 23.9772 37.7881C23.5048 36.9784 23.5387 35.9494 24.0447 35.4939Z" fill="#BCB5B5"/>
<path fill-rule="evenodd" clip-rule="evenodd" d="M26.4052 39.5756C26.945 39.1876 27.7884 39.5587 28.2776 40.3853C28.7668 41.2288 28.7163 42.2241 28.1428 42.5614C27.5692 42.9157 26.7425 42.5614 26.2702 41.7517C25.7979 40.9589 25.8654 39.9805 26.4052 39.5756Z" fill="#BCB5B5"/>
<path fill-rule="evenodd" clip-rule="evenodd" d="M28.7826 43.6566C29.3562 43.3024 30.2164 43.7241 30.7057 44.5676C31.2117 45.411 31.1274 46.3557 30.5201 46.6593C29.9128 46.963 29.0526 46.5413 28.5802 45.7484C28.1079 44.9387 28.2091 43.994 28.7826 43.6566Z" fill="#BCB5B5"/>
<path fill-rule="evenodd" clip-rule="evenodd" d="M31.1431 47.7216C31.7504 47.4348 32.6444 47.8903 33.1505 48.7337C33.6397 49.594 33.5386 50.4713 32.8975 50.7243C32.2565 50.9773 31.3456 50.5219 30.8901 49.7121C30.4178 48.9024 30.5358 48.0252 31.1431 47.7216Z" fill="#BCB5B5"/>
<path fill-rule="evenodd" clip-rule="evenodd" d="M33.5039 51.8025C34.1449 51.5663 35.0895 52.0555 35.5788 52.9158C36.068 53.7762 35.933 54.6196 35.2582 54.8052C34.5835 55.0076 33.6557 54.5015 33.1834 53.6918C32.7279 52.8989 32.8629 52.0386 33.5039 51.8025Z" fill="#BCB5B5"/>
<path fill-rule="evenodd" clip-rule="evenodd" d="M35.881 55.8834C36.5558 55.6978 37.5173 56.2545 38.0234 57.098C38.5126 57.9583 38.3608 58.7511 37.6354 58.903C36.9269 59.0548 35.9823 58.4981 35.5099 57.6884C35.0376 56.8787 35.2062 56.0521 35.881 55.8834Z" fill="#BCB5B5"/>
<path fill-rule="evenodd" clip-rule="evenodd" d="M38.2595 59.965C38.9848 59.8301 39.9632 60.4205 40.4524 61.264C40.9416 62.1243 40.7392 62.8665 39.9969 62.9677C39.2547 63.0521 38.2763 62.4785 37.804 61.6688C37.3316 60.8591 37.5341 60.1 38.2595 59.965Z" fill="#BCB5B5"/>
<path fill-rule="evenodd" clip-rule="evenodd" d="M40.6229 64.046C41.3652 63.9785 42.3942 64.6027 42.8665 65.4461C43.3557 66.3065 43.1365 67.015 42.3605 67.0487C41.5845 67.0824 40.5723 66.4583 40.1 65.6486C39.6445 64.8389 39.8807 64.1135 40.6229 64.046Z" fill="#BCB5B5"/>
<path fill-rule="evenodd" clip-rule="evenodd" d="M42.9974 68.1102C43.7902 68.0933 44.8193 68.7849 45.3253 69.6284C45.8145 70.4887 45.5783 71.1466 44.7517 71.1297C43.942 71.1129 42.8961 70.4381 42.4238 69.6284C41.9514 68.8187 42.2045 68.127 42.9974 68.1102Z" fill="#BCB5B5"/>
<path fill-rule="evenodd" clip-rule="evenodd" d="M45.376 72.1917C46.2026 72.2254 47.2654 72.9508 47.7546 73.7943C48.2438 74.6546 47.9739 75.2788 47.1135 75.1944C46.2701 75.1269 45.1904 74.4184 44.7181 73.5918C44.2626 72.799 44.5494 72.158 45.376 72.1917Z" fill="#BCB5B5"/>
<path fill-rule="evenodd" clip-rule="evenodd" d="M47.7364 76.272C48.5965 76.3732 49.6758 77.1321 50.1818 77.9753C50.6877 78.8185 50.3841 79.4088 49.4903 79.2739C48.6133 79.1558 47.5002 78.397 47.028 77.5706C46.5558 76.7611 46.8932 76.1709 47.7364 76.272Z" fill="#BCB5B5"/>
<path fill-rule="evenodd" clip-rule="evenodd" d="M50.1154 80.3536C51.0093 80.4885 52.1223 81.3149 52.6282 82.1581C53.1173 83.0013 52.7801 83.541 51.8694 83.3554C50.9587 83.1868 49.812 82.3773 49.3398 81.5678C48.8676 80.7583 49.2216 80.2018 50.1154 80.3536Z" fill="#BCB5B5"/>
<path fill-rule="evenodd" clip-rule="evenodd" d="M24.1288 28.7821C24.601 28.2761 25.4104 28.5966 25.9501 29.5072C26.4729 30.4179 26.5235 31.5309 26.0007 32.0031C25.5117 32.4585 24.6853 32.1381 24.1794 31.278C23.6734 30.401 23.6566 29.288 24.1288 28.7821Z" fill="#BCB5B5"/>
<path fill-rule="evenodd" clip-rule="evenodd" d="M26.6573 33.1506C27.1632 32.6953 28.0064 33.0663 28.5461 33.9601C29.0689 34.8708 29.0689 35.9501 28.5461 36.3548C28.0064 36.7764 27.1632 36.4054 26.6573 35.5454C26.1513 34.6684 26.1513 33.606 26.6573 33.1506Z" fill="#BCB5B5"/>
<path fill-rule="evenodd" clip-rule="evenodd" d="M29.221 37.5006C29.7608 37.0957 30.6212 37.5175 31.161 38.4115C31.684 39.3225 31.6671 40.3515 31.0936 40.7057C30.52 41.06 29.6597 40.6551 29.1536 39.7779C28.6475 38.9345 28.6812 37.9054 29.221 37.5006Z" fill="#BCB5B5"/>
<path fill-rule="evenodd" clip-rule="evenodd" d="M31.7829 41.8692C32.3564 41.5149 33.2505 41.9872 33.7734 42.8813C34.3132 43.7922 34.2626 44.7707 33.6553 45.0743C33.048 45.3779 32.154 44.9056 31.6479 44.0622C31.1418 43.2018 31.1925 42.2234 31.7829 41.8692Z" fill="#BCB5B5"/>
<path fill-rule="evenodd" clip-rule="evenodd" d="M34.3142 46.2204C34.9215 45.9337 35.8662 46.4229 36.3891 47.3507C36.9289 48.2616 36.8446 49.1894 36.2036 49.4424C35.5626 49.6954 34.6517 49.1894 34.1287 48.3291C33.6226 47.4519 33.707 46.5072 34.3142 46.2204Z" fill="#BCB5B5"/>
<path fill-rule="evenodd" clip-rule="evenodd" d="M36.8598 50.5711C37.5008 50.3349 38.4793 50.8747 39.0022 51.7856C39.5251 52.6966 39.4239 53.5906 38.7491 53.7931C38.0744 53.9955 37.1297 53.4388 36.6236 52.5616C36.1175 51.7013 36.2188 50.8072 36.8598 50.5711Z" fill="#BCB5B5"/>
<path fill-rule="evenodd" clip-rule="evenodd" d="M39.4066 54.9389C40.0982 54.7533 41.0766 55.3437 41.6164 56.2547C42.1394 57.1656 42.0213 58.009 41.2959 58.1609C40.5874 58.2958 39.5921 57.7223 39.0861 56.8451C38.5969 55.9679 38.7318 55.1244 39.4066 54.9389Z" fill="#BCB5B5"/>
<path fill-rule="evenodd" clip-rule="evenodd" d="M41.9702 59.3068C42.6956 59.1887 43.7078 59.8129 44.2476 60.7238C44.7706 61.6347 44.6188 62.4276 43.8597 62.5288C43.1174 62.6132 42.1053 61.989 41.6161 61.1118C41.0931 60.2346 41.2449 59.4249 41.9702 59.3068Z" fill="#BCB5B5"/>
<path fill-rule="evenodd" clip-rule="evenodd" d="M44.5329 63.6576C45.292 63.5901 46.3379 64.248 46.8609 65.1589C47.4007 66.0699 47.1982 66.829 46.4054 66.8627C45.6294 66.8964 44.6004 66.2217 44.0774 65.3445C43.5882 64.501 43.7738 63.7419 44.5329 63.6576Z" fill="#BCB5B5"/>
<path fill-rule="evenodd" clip-rule="evenodd" d="M47.0801 68.0081C47.873 67.9912 48.9357 68.7166 49.4924 69.6275C50.0153 70.5385 49.796 71.2638 48.9695 71.247C48.1597 71.2301 47.097 70.5047 46.591 69.6275C46.0511 68.7503 46.2873 68.025 47.0801 68.0081Z" fill="#BCB5B5"/>
<path fill-rule="evenodd" clip-rule="evenodd" d="M49.6261 72.3771C50.4524 72.4109 51.5654 73.1866 52.0882 74.0804C52.611 74.9911 52.3581 75.6657 51.5148 75.5813C50.6716 75.5139 49.5754 74.755 49.0695 73.878C48.5636 73.018 48.7997 72.3265 49.6261 72.3771Z" fill="#BCB5B5"/>
<path fill-rule="evenodd" clip-rule="evenodd" d="M52.1901 76.7278C53.0502 76.8122 54.1801 77.6385 54.7197 78.5323C55.2425 79.443 54.9727 80.067 54.0789 79.9489C53.2019 79.8309 52.072 79.0214 51.5492 78.1444C51.0602 77.2675 51.33 76.6435 52.1901 76.7278Z" fill="#BCB5B5"/>
<path fill-rule="evenodd" clip-rule="evenodd" d="M54.7351 81.0956C55.6289 81.2305 56.7926 82.1074 57.3322 83.0013C57.855 83.8951 57.5514 84.4853 56.6239 84.2998C55.7132 84.1311 54.5496 83.2542 54.0606 82.411C53.5378 81.534 53.8413 80.9438 54.7351 81.0956Z" fill="#BCB5B5"/>
<path fill-rule="evenodd" clip-rule="evenodd" d="M57.2823 85.4466C58.2099 85.6322 59.4073 86.5428 59.93 87.4366C60.4528 88.3473 60.1155 88.9038 59.1711 88.6509C58.2099 88.4148 57.0462 87.521 56.5234 86.6609C56.0344 85.8008 56.3548 85.2611 57.2823 85.4466Z" fill="#BCB5B5"/>
<path fill-rule="evenodd" clip-rule="evenodd" d="M26.5741 26.1514C27.0463 25.6454 27.8895 26.0333 28.446 26.9946C29.0194 27.9559 29.0869 29.1195 28.5809 29.5917C28.0919 30.0639 27.2486 29.676 26.692 28.7485C26.1524 27.821 26.1019 26.6573 26.5741 26.1514Z" fill="#BCB5B5"/>
<path fill-rule="evenodd" clip-rule="evenodd" d="M29.2882 30.7886C29.7941 30.3332 30.671 30.7717 31.2444 31.733C31.8178 32.6942 31.8516 33.8073 31.3119 34.212C30.7891 34.6336 29.9121 34.212 29.3725 33.2845C28.8159 32.3569 28.7822 31.2439 29.2882 30.7886Z" fill="#BCB5B5"/>
<path fill-rule="evenodd" clip-rule="evenodd" d="M32.0208 35.4439C32.5604 35.0391 33.4711 35.5113 34.0445 36.4557C34.6179 37.417 34.601 38.4794 34.0276 38.8504C33.4542 39.2046 32.5604 38.7493 32.0208 37.8386C31.498 36.8942 31.4811 35.8317 32.0208 35.4439Z" fill="#BCB5B5"/>
<path fill-rule="evenodd" clip-rule="evenodd" d="M34.7694 40.0645C35.3428 39.7272 36.2703 40.2331 36.8268 41.1944C37.4002 42.1557 37.3665 43.1844 36.7763 43.4879C36.1692 43.7915 35.2584 43.2856 34.7019 42.358C34.1791 41.4474 34.196 40.4186 34.7694 40.0645Z" fill="#BCB5B5"/>
<path fill-rule="evenodd" clip-rule="evenodd" d="M37.501 44.7018C38.1082 44.4151 39.0863 44.9547 39.6429 45.9328C40.2162 46.8941 40.1656 47.8723 39.5248 48.1421C38.8839 48.3951 37.9226 47.8385 37.383 46.911C36.8265 45.9834 36.8771 44.9885 37.501 44.7018Z" fill="#BCB5B5"/>
<path fill-rule="evenodd" clip-rule="evenodd" d="M40.2335 49.3571C40.8746 49.121 41.8698 49.7114 42.4434 50.6898C43.0169 51.6513 42.9326 52.5791 42.2747 52.7816C41.5831 52.984 40.6047 52.3767 40.0649 51.4489C39.5082 50.5211 39.5756 49.5933 40.2335 49.3571Z" fill="#BCB5B5"/>
<path fill-rule="evenodd" clip-rule="evenodd" d="M53.9096 72.5451C54.7359 72.5788 55.8659 73.4051 56.4392 74.3664C57.0126 75.3277 56.7765 76.0529 55.9333 75.9685C55.0901 75.9011 53.9602 75.1084 53.4037 74.164C52.864 73.2365 53.0832 72.5113 53.9096 72.5451Z" fill="#BCB5B5"/>
<path fill-rule="evenodd" clip-rule="evenodd" d="M56.6414 77.1825C57.5015 77.2668 58.6483 78.1438 59.2217 79.105C59.7951 80.0663 59.5589 80.7577 58.6651 80.6228C57.7882 80.4879 56.6246 79.6278 56.068 78.7003C55.5284 77.7896 55.7813 77.0813 56.6414 77.1825Z" fill="#BCB5B5"/>
<path fill-rule="evenodd" clip-rule="evenodd" d="M59.3746 81.8207C60.2684 81.9556 61.4658 82.8663 62.0223 83.8444C62.5957 84.8056 62.309 85.4296 61.3815 85.2441C60.4708 85.0586 59.2903 84.1648 58.7338 83.2541C58.211 82.3266 58.4808 81.6858 59.3746 81.8207Z" fill="#BCB5B5"/>
<path fill-rule="evenodd" clip-rule="evenodd" d="M62.1073 86.4584C63.0348 86.6608 64.2491 87.6052 64.8225 88.5665C65.3959 89.5277 65.0754 90.1179 64.131 89.865C63.1698 89.6457 61.9724 88.7014 61.4159 87.7738C60.8762 86.8632 61.1797 86.2729 62.1073 86.4584Z" fill="#BCB5B5"/>
<path fill-rule="evenodd" clip-rule="evenodd" d="M29.0193 23.5207C29.4915 23.0148 30.3685 23.4195 30.9587 24.4651C31.5658 25.4938 31.6502 26.6912 31.1611 27.1634C30.672 27.6187 29.7783 27.214 29.2049 26.219C28.6146 25.2409 28.5471 24.0266 29.0193 23.5207Z" fill="#BCB5B5"/>
<path fill-rule="evenodd" clip-rule="evenodd" d="M31.9364 28.4454C32.4424 27.99 33.3362 28.4622 33.9433 29.4741C34.5504 30.5197 34.6009 31.6833 34.0781 32.0881C33.5553 32.4928 32.6447 32.0375 32.0713 31.0593C31.481 30.0643 31.4305 28.8838 31.9364 28.4454Z" fill="#BCB5B5"/>
<path fill-rule="evenodd" clip-rule="evenodd" d="M34.8357 33.3695C35.3753 32.9816 36.3028 33.4875 36.9268 34.4825C37.5339 35.5113 37.5677 36.6243 36.9775 36.9785C36.4041 37.3326 35.4766 36.8436 34.9032 35.8654C34.3298 34.8873 34.296 33.7742 34.8357 33.3695Z" fill="#BCB5B5"/>
<path fill-rule="evenodd" clip-rule="evenodd" d="M37.7711 38.2938C38.3444 37.9396 39.3057 38.4962 39.896 39.5249C40.5031 40.5368 40.5031 41.6161 39.9129 41.9365C39.3057 42.24 38.3444 41.6835 37.7711 40.7054C37.1808 39.7104 37.1808 38.6311 37.7711 38.2938Z" fill="#BCB5B5"/>
<path fill-rule="evenodd" clip-rule="evenodd" d="M64.0117 82.5631C64.9055 82.698 66.1367 83.6593 66.7269 84.688C67.334 85.6998 67.081 86.3913 66.1535 86.2058C65.2428 86.0203 64.0117 85.0758 63.4383 84.0977C62.865 83.1027 63.101 82.4281 64.0117 82.5631Z" fill="#BCB5B5"/>
<path fill-rule="evenodd" clip-rule="evenodd" d="M66.9287 87.4876C67.8562 87.69 69.1041 88.6681 69.7112 89.6799C70.3183 90.7086 70.0316 91.3326 69.0704 91.0965C68.1091 90.8604 66.8781 89.8654 66.2878 88.8873C65.7144 87.926 66.0011 87.2852 66.9287 87.4876Z" fill="#BCB5B5"/>
<path fill-rule="evenodd" clip-rule="evenodd" d="M69.8299 92.3948C70.7911 92.6477 72.0728 93.6765 72.6631 94.7052C73.2702 95.7171 72.9498 96.3073 71.9717 96.0206C70.9935 95.7339 69.7287 94.7052 69.1385 93.7102C68.5651 92.7489 68.8686 92.1587 69.8299 92.3948Z" fill="#BCB5B5"/>
<path fill-rule="evenodd" clip-rule="evenodd" d="M31.4642 20.8897C31.9364 20.3838 32.8471 20.856 33.488 21.9353C34.1288 23.0146 34.2469 24.2795 33.741 24.7348C33.2519 25.207 32.3412 24.7517 31.7172 23.7061C31.1101 22.6605 30.992 21.3957 31.4642 20.8897Z" fill="#BCB5B5"/>
<path fill-rule="evenodd" clip-rule="evenodd" d="M34.567 26.0837C35.0729 25.6283 36.0004 26.1511 36.6581 27.2304C37.299 28.3098 37.3833 29.524 36.8605 29.9287C36.3377 30.3335 35.3933 29.8444 34.7694 28.782C34.1285 27.7532 34.0611 26.539 34.567 26.0837Z" fill="#BCB5B5"/>
<path fill-rule="evenodd" clip-rule="evenodd" d="M37.6529 31.2954C38.1926 30.8906 39.1539 31.464 39.8116 32.5264C40.4524 33.5889 40.503 34.7526 39.9465 35.1236C39.3731 35.4777 38.4118 34.9381 37.8047 33.9093C37.1807 32.8637 37.1132 31.6832 37.6529 31.2954Z" fill="#BCB5B5"/>
<path fill-rule="evenodd" clip-rule="evenodd" d="M74.8384 93.6934C75.7996 93.9463 77.115 95.0256 77.7559 96.1049C78.3967 97.1843 78.1269 97.8251 77.1319 97.5216C76.1369 97.2349 74.8384 96.1724 74.2144 95.1268C73.5904 94.0813 73.8771 93.4573 74.8384 93.6934Z" fill="#BCB5B5"/>
<path fill-rule="evenodd" clip-rule="evenodd" d="M77.925 98.9045C78.92 99.208 80.2523 100.338 80.91 101.417C81.5509 102.497 81.2473 103.087 80.2186 102.733C79.1899 102.395 77.8576 101.282 77.2505 100.237C76.6265 99.2081 76.93 98.6009 77.925 98.9045Z" fill="#BCB5B5"/>
<path fill-rule="evenodd" clip-rule="evenodd" d="M33.9095 18.2765C34.3817 17.7706 35.3093 18.2765 36.0007 19.4233C36.6921 20.5701 36.8439 21.8518 36.338 22.324C35.8321 22.7962 34.8877 22.2734 34.2468 21.1772C33.5891 20.0641 33.4373 18.7825 33.9095 18.2765Z" fill="#BCB5B5"/>
<path fill-rule="evenodd" clip-rule="evenodd" d="M84.8393 96.3066C85.8005 96.5596 87.1495 97.7233 87.8747 98.9206C88.5999 100.118 88.3639 100.86 87.3858 100.573C86.3908 100.27 85.0416 99.1061 84.3501 97.9425C83.6418 96.7789 83.8611 96.0537 84.8393 96.3066Z" fill="#BCB5B5"/>
<path fill-rule="evenodd" clip-rule="evenodd" d="M88.2966 102.074C89.2916 102.378 90.6746 103.592 91.3998 104.79C92.125 105.97 91.8719 106.678 90.8432 106.324C89.8144 105.97 88.4316 104.756 87.7402 103.609C87.0319 102.462 87.3016 101.771 88.2966 102.074Z" fill="#BCB5B5"/>
<path fill-rule="evenodd" clip-rule="evenodd" d="M98.6507 105.228C99.6457 105.532 101.096 106.83 101.906 108.163C102.698 109.461 102.496 110.237 101.484 109.9C100.455 109.562 99.0048 108.264 98.2291 106.982C97.4533 105.701 97.6557 104.925 98.6507 105.228Z" fill="#BCB5B5"/>
<path fill-rule="evenodd" clip-rule="evenodd" d="M102.479 111.552C103.508 111.906 105.009 113.256 105.785 114.571C106.577 115.87 106.341 116.595 105.296 116.19C104.233 115.785 102.749 114.453 101.99 113.205C101.231 111.94 101.434 111.198 102.479 111.552Z" fill="#BCB5B5"/>
<path fill-rule="evenodd" clip-rule="evenodd" d="M113.187 115.279C114.215 115.633 115.784 117.084 116.644 118.5C117.504 119.917 117.335 120.726 116.273 120.338C115.227 119.934 113.676 118.5 112.849 117.134C112.023 115.768 112.158 114.925 113.187 115.279Z" fill="#BCB5B5"/>
<path d="M76.2543 50.6216C76.2543 53.1681 75.546 55.0738 74.1463 56.3386C72.7465 57.5866 70.6891 58.2106 67.974 58.2106H47.1465V32.2226H67.0632C69.7109 32.2226 71.7515 32.8466 73.1681 34.1283C74.5847 35.3931 75.293 37.2144 75.293 39.6092C75.293 42.2232 74.315 43.8927 72.3756 44.6348C73.4886 45.0058 74.3656 45.6466 75.0233 46.5236C75.8496 47.6197 76.2543 48.9858 76.2543 50.6216ZM71.448 39.6092C71.448 38.4118 71.1444 37.5012 70.5373 36.8603C69.8121 36.1014 68.6486 35.7135 67.0465 35.7135H51.0254V43.117H67.0465C68.6823 43.117 69.829 42.8303 70.4699 42.2569C71.1107 41.6835 71.448 40.7897 71.448 39.6092ZM51.0254 46.6079V54.7196H67.9402C69.4074 54.7196 70.5205 54.3486 71.2626 53.6066C72.0046 52.8645 72.3756 51.8864 72.3756 50.6722C72.3756 49.4917 71.9877 48.5135 71.2457 47.7547C70.4868 46.9958 69.3906 46.6247 67.9402 46.6247H51.0254V46.6079ZM96.9301 43.6735C102.968 43.6735 106.779 44.0276 108.347 44.736C110.286 45.6129 111.265 47.7378 111.265 51.1107C111.265 54.298 110.084 56.3892 107.74 57.3673C105.817 58.1768 101.922 58.5816 96.0531 58.5816C89.7121 58.5816 85.6141 57.8901 83.7927 56.4904C82.4099 55.4279 81.7016 53.1175 81.7016 49.5423H85.5634C85.5634 51.9876 86.1032 53.5391 87.1994 54.1462C88.2787 54.7702 91.2468 55.0738 96.07 55.0738C100.792 55.0738 103.861 54.8545 105.261 54.3992C106.661 53.9439 107.369 52.8477 107.369 51.0938C107.369 49.3231 106.846 48.2269 105.801 47.7884C104.755 47.3668 101.787 47.1475 96.9132 47.1475C90.9433 47.1475 86.9294 46.4224 84.8889 44.9889C83.3205 43.9096 82.5448 41.9365 82.5448 39.1033C82.5448 36.0508 83.4891 34.0608 85.3779 33.167C87.2667 32.2732 91.1119 31.8179 96.9301 31.8179C102.715 31.8179 106.526 32.5093 108.347 33.9091C109.781 35.0221 110.506 37.1976 110.506 40.4355H106.711C106.711 38.1926 106.138 36.776 105.008 36.1857C103.878 35.5955 101.18 35.3088 96.9301 35.3088C93.2874 35.3088 91.0443 35.3594 90.2179 35.4606C87.6883 35.7641 86.4235 36.9784 86.4235 39.0864C86.4235 40.8571 87.0982 42.0714 88.4642 42.6954C89.8302 43.3699 92.6634 43.6735 96.9301 43.6735ZM120.068 45.2587C120.068 50.0482 120.591 52.8983 121.619 53.809C122.648 54.7196 125.953 55.175 131.519 55.175C136.949 55.175 140.238 54.8546 141.368 54.2306C142.497 53.6066 143.054 51.684 143.054 48.463H130.541V44.9721H146.933V48.4461C146.933 52.9151 146.022 55.7315 144.201 56.912C142.379 58.0756 138.163 58.6659 131.536 58.6659C124.807 58.6659 120.574 57.8901 118.82 56.3555C117.083 54.8208 116.206 51.0938 116.206 45.2082C116.206 39.3225 117.066 35.6292 118.803 34.1283C120.54 32.6274 124.773 31.8853 131.536 31.8853C138.18 31.8853 142.413 32.3913 144.218 33.3863C146.022 34.3813 146.933 36.8266 146.933 40.7222H143.071C143.071 38.1926 142.464 36.6748 141.249 36.152C140.035 35.6292 136.797 35.3762 131.536 35.3762C125.92 35.3762 122.614 35.8147 121.602 36.7085C120.574 37.5855 120.068 40.4355 120.068 45.2587Z" fill="#BCB5B5"/>
<path d="M46.5242 61.7525H54.383V62.7644H51.027V69.274H49.9139V62.7644H46.5411V61.7525H46.5242ZM55.6984 61.7525H62.8995V62.7644H56.8284V64.9568H62.6971V65.9686H56.8284V68.2622H62.8995V69.274H55.6984V61.7525ZM66.1543 65.5302C66.1543 66.8962 66.3061 67.7225 66.5928 67.9923C66.8795 68.2622 67.7901 68.3802 69.291 68.3802C70.6908 68.3802 71.5509 68.2959 71.8544 68.1441C72.2086 67.9586 72.3941 67.4696 72.3941 66.6601H73.5071C73.5071 67.8574 73.2541 68.5995 72.7651 68.9199C72.276 69.2403 71.1124 69.3921 69.291 69.3921C67.4359 69.3921 66.2724 69.1729 65.7664 68.7344C65.2774 68.2959 65.0244 67.2335 65.0244 65.5302C65.0244 63.8269 65.2605 62.7644 65.7495 62.3091C66.2386 61.8706 67.4191 61.6514 69.2741 61.6514C71.1123 61.6514 72.2591 61.8032 72.7651 62.1067C73.2541 62.4103 73.5071 63.1692 73.5071 64.3665H72.3941C72.3941 63.557 72.2254 63.068 71.905 62.9162C71.5677 62.7475 70.7076 62.6632 69.3079 62.6632C67.7901 62.6632 66.8963 62.7981 66.6096 63.0511C66.2892 63.3209 66.1543 64.1304 66.1543 65.5302ZM75.5646 61.7525H76.6776V64.9568H83.1367V61.7525H84.2497V69.274H83.1367V65.9518H76.6776V69.274H75.5646V61.7525ZM86.4082 61.7525H88.0442L94.5032 68.3465V61.7525H95.6163V69.274H93.9299L87.5382 62.7307V69.274H86.4251V61.7525H86.4082ZM102.429 69.3921C100.861 69.3921 99.7818 69.2909 99.1578 69.0885C98.5338 68.8862 98.146 68.4983 97.9774 67.9418C97.8593 67.5539 97.8085 66.7444 97.8085 65.5302C97.8085 64.2991 97.8593 63.4896 97.9774 63.1186C98.146 62.5452 98.5507 62.1573 99.1747 61.9549C99.7986 61.7525 100.895 61.6514 102.446 61.6514C104.015 61.6514 105.094 61.7525 105.718 61.9549C106.342 62.1573 106.73 62.5452 106.915 63.1186C107.033 63.5064 107.084 64.3159 107.084 65.5302C107.084 66.7613 107.033 67.5539 106.915 67.9249C106.747 68.4983 106.359 68.8862 105.735 69.0885C105.094 69.2909 103.998 69.3921 102.429 69.3921ZM102.429 68.3802C104.166 68.3802 105.178 68.2453 105.482 67.9923C105.785 67.7394 105.937 66.913 105.937 65.5302C105.937 64.1304 105.785 63.3041 105.482 63.0511C105.178 62.7981 104.15 62.6632 102.429 62.6632C100.692 62.6632 99.6806 62.7981 99.3601 63.0511C99.0566 63.3041 98.9048 64.1304 98.9048 65.5302C98.9048 66.913 99.0566 67.7225 99.3601 67.9923C99.6806 68.2453 100.692 68.3802 102.429 68.3802ZM108.45 61.7525H109.563V68.2622H115.314V69.274H108.433V61.7525H108.45ZM121.132 69.3921C119.564 69.3921 118.484 69.2909 117.86 69.0885C117.236 68.8862 116.848 68.4983 116.68 67.9418C116.562 67.5539 116.511 66.7444 116.511 65.5302C116.511 64.2991 116.562 63.4896 116.68 63.1186C116.848 62.5452 117.253 62.1573 117.877 61.9549C118.501 61.7525 119.597 61.6514 121.149 61.6514C122.717 61.6514 123.797 61.7525 124.421 61.9549C125.044 62.1573 125.432 62.5452 125.618 63.1186C125.736 63.5064 125.787 64.3159 125.787 65.5302C125.787 66.7613 125.736 67.5539 125.618 67.9249C125.449 68.4983 125.061 68.8862 124.437 69.0885C123.797 69.2909 122.7 69.3921 121.132 69.3921ZM121.132 68.3802C122.869 68.3802 123.881 68.2453 124.184 67.9923C124.488 67.7394 124.64 66.913 124.64 65.5302C124.64 64.1304 124.488 63.3041 124.184 63.0511C123.881 62.7981 122.852 62.6632 121.132 62.6632C119.395 62.6632 118.383 62.7981 118.079 63.0511C117.776 63.3041 117.624 64.1304 117.624 65.5302C117.624 66.913 117.776 67.7225 118.079 67.9923C118.383 68.2453 119.395 68.3802 121.132 68.3802ZM128.181 65.5302C128.181 66.913 128.333 67.7394 128.637 68.0092C128.94 68.2791 129.902 68.3971 131.504 68.3971C133.072 68.3971 134.033 68.3128 134.354 68.1273C134.674 67.9418 134.843 67.3852 134.843 66.4577H131.217V65.4458H135.973V66.4577C135.973 67.7563 135.703 68.5657 135.18 68.903C134.657 69.2403 133.426 69.409 131.504 69.409C129.547 69.409 128.333 69.1897 127.827 68.7344C127.321 68.2959 127.068 67.2166 127.068 65.5133C127.068 63.81 127.321 62.7307 127.827 62.3091C128.333 61.8706 129.564 61.6514 131.52 61.6514C133.443 61.6514 134.674 61.8031 135.197 62.0898C135.72 62.3765 135.989 63.0848 135.989 64.2148H134.86C134.86 63.4896 134.691 63.0343 134.337 62.8993C133.983 62.7476 133.055 62.6801 131.52 62.6801C129.901 62.6801 128.94 62.815 128.637 63.068C128.333 63.3041 128.181 64.1304 128.181 65.5302ZM145.99 61.7525H147.491L143.039 66.2722V69.2909H141.926V66.2722L137.49 61.7525H138.991L142.499 65.3278L145.99 61.7525Z" fill="#BCB5B5"/>
<path fill-rule="evenodd" clip-rule="evenodd" d="M1.15843 50.6384C1.59703 50.0818 2.11996 49.9299 2.30552 50.3179C2.50795 50.7228 2.28858 51.465 1.81625 52.0048C1.36078 52.5109 0.854722 52.629 0.669161 52.2748C0.517339 51.9205 0.719835 51.1951 1.15843 50.6384Z" fill="#BCB5B5"/>
<path fill-rule="evenodd" clip-rule="evenodd" d="M26.1011 18.5962C26.5395 18.0396 27.3828 18.4275 27.9899 19.4394C28.597 20.4512 28.7151 21.6992 28.2429 22.222C27.7875 22.7448 26.9275 22.3738 26.3541 21.3956C25.7807 20.4175 25.6626 19.1527 26.1011 18.5962Z" fill="#BCB5B5"/>
<path fill-rule="evenodd" clip-rule="evenodd" d="M28.3772 15.679C28.8157 15.1225 29.6927 15.5441 30.3336 16.6234C30.9744 17.7027 31.1262 19.0013 30.654 19.5241C30.1987 20.0469 29.3048 19.6421 28.6977 18.5797C28.0737 17.551 27.9388 16.2355 28.3772 15.679Z" fill="#BCB5B5"/>
<path fill-rule="evenodd" clip-rule="evenodd" d="M39.7112 1.12487C40.1496 0.568349 41.1783 1.22606 42.0047 2.57521C42.831 3.95808 43.1346 5.47587 42.6624 5.99866C42.2071 6.52146 41.1615 5.88061 40.3689 4.54833C39.5763 3.23291 39.2727 1.68139 39.7112 1.12487Z" fill="#BCB5B5"/>
<path fill-rule="evenodd" clip-rule="evenodd" d="M2.06951 52.4767C2.54185 51.9706 3.0817 51.8694 3.26726 52.2742C3.48656 52.6622 3.23353 53.3707 2.74432 53.8262C2.25512 54.2985 1.71525 54.3829 1.52969 54.0286C1.361 53.6575 1.59718 52.9827 2.06951 52.4767Z" fill="#BCB5B5"/>
<path fill-rule="evenodd" clip-rule="evenodd" d="M2.9791 54.2984C3.48517 53.8429 4.05874 53.7924 4.26117 54.1803C4.44673 54.5852 4.17685 55.2262 3.6539 55.6479C3.13096 56.0528 2.55741 56.0865 2.38872 55.7323C2.22003 55.3949 2.47302 54.7539 2.9791 54.2984Z" fill="#BCB5B5"/>
<path fill-rule="evenodd" clip-rule="evenodd" d="M3.90544 56.1197C4.44526 55.7149 5.05252 55.7149 5.25495 56.1029C5.45738 56.5077 5.1537 57.115 4.58015 57.4693C4.0066 57.8235 3.43308 57.8235 3.24752 57.4693C3.06196 57.1319 3.36563 56.5246 3.90544 56.1197Z" fill="#BCB5B5"/>
<path fill-rule="evenodd" clip-rule="evenodd" d="M4.81667 57.9572C5.39022 57.603 6.03127 57.6536 6.21683 58.0416C6.41926 58.4464 6.08189 59.0031 5.49147 59.3067C4.88419 59.6104 4.26 59.5598 4.09131 59.2055C3.92262 58.8682 4.24312 58.3115 4.81667 57.9572Z" fill="#BCB5B5"/>
<path fill-rule="evenodd" clip-rule="evenodd" d="M5.73033 59.7787C6.33762 59.4919 6.99551 59.5763 7.19794 59.9643C7.40037 60.3691 7.0293 60.8921 6.40514 61.1451C5.76411 61.3981 5.12309 61.3138 4.93753 60.9427C4.76884 60.6053 5.12304 60.0655 5.73033 59.7787Z" fill="#BCB5B5"/>
<path fill-rule="evenodd" clip-rule="evenodd" d="M6.64044 61.6173C7.28146 61.3812 7.97305 61.5161 8.17548 61.9041C8.37791 62.309 7.9899 62.7813 7.31514 62.9837C6.64037 63.1862 5.96567 63.0512 5.79698 62.6801C5.62829 62.3258 5.99941 61.8535 6.64044 61.6173Z" fill="#BCB5B5"/>
<path fill-rule="evenodd" clip-rule="evenodd" d="M7.54997 63.4554C8.2416 63.2699 8.95012 63.4385 9.15255 63.8265C9.35498 64.2314 8.93328 64.6531 8.22477 64.8049C7.51627 64.9399 6.80776 64.7712 6.63907 64.4001C6.47038 64.0627 6.8752 63.641 7.54997 63.4554Z" fill="#BCB5B5"/>
<path fill-rule="evenodd" clip-rule="evenodd" d="M8.47826 65.2936C9.18676 65.1586 9.94586 65.3611 10.1483 65.7659C10.3507 66.1539 9.89531 66.5419 9.15307 66.6431C8.41083 66.7275 7.68549 66.5082 7.49993 66.1539C7.33123 65.7997 7.75289 65.4285 8.47826 65.2936Z" fill="#BCB5B5"/>
<path fill-rule="evenodd" clip-rule="evenodd" d="M9.38891 67.1319C10.148 67.0476 10.9071 67.3006 11.1095 67.7055C11.3119 68.1103 10.8396 68.4308 10.0636 68.4815C9.28763 68.5152 8.51172 68.2621 8.34303 67.891C8.17434 67.5368 8.64667 67.2163 9.38891 67.1319Z" fill="#BCB5B5"/>
<path fill-rule="evenodd" clip-rule="evenodd" d="M10.2976 68.9533C11.0904 68.9364 11.8833 69.2401 12.0857 69.6281C12.2881 70.0329 11.7821 70.3366 10.9724 70.3028C10.1627 70.286 9.36974 69.9823 9.20105 69.6281C9.03236 69.2738 9.50474 68.9702 10.2976 68.9533Z" fill="#BCB5B5"/>
<path fill-rule="evenodd" clip-rule="evenodd" d="M11.2258 70.7742C12.0524 70.808 12.879 71.1453 13.0815 71.5502C13.267 71.9551 12.744 72.2081 11.8837 72.1406C11.0403 72.0563 10.2136 71.7189 10.0618 71.3646C9.87627 71.0104 10.3992 70.7574 11.2258 70.7742Z" fill="#BCB5B5"/>
<path fill-rule="evenodd" clip-rule="evenodd" d="M12.1208 72.6133C12.9811 72.7145 13.8413 73.0856 14.0438 73.4736C14.2462 73.8616 13.6895 74.0809 12.8123 73.9629C11.9351 73.8279 11.0748 73.4399 10.9061 73.0857C10.7206 72.7483 11.2604 72.529 12.1208 72.6133Z" fill="#BCB5B5"/>
<path fill-rule="evenodd" clip-rule="evenodd" d="M13.0322 74.4511C13.9263 74.6029 14.8203 75.0247 15.0228 75.4127C15.2252 75.8175 14.6348 76.0031 13.707 75.8175C12.7961 75.6151 11.9188 75.1934 11.7333 74.8391C11.5646 74.468 12.1382 74.2993 13.0322 74.4511Z" fill="#BCB5B5"/>
<path fill-rule="evenodd" clip-rule="evenodd" d="M13.9582 76.2892C14.886 76.4916 15.797 76.9639 15.9994 77.3351C16.2019 77.7399 15.5777 77.8749 14.633 77.6387C13.6715 77.3857 12.7774 76.9133 12.5918 76.5591C12.4231 76.2048 13.0304 76.0867 13.9582 76.2892Z" fill="#BCB5B5"/>
<path fill-rule="evenodd" clip-rule="evenodd" d="M14.8681 78.1103C15.8294 78.3633 16.7737 78.8861 16.9593 79.274C17.1616 79.6787 16.5207 79.763 15.5257 79.4595C14.5307 79.1559 13.6032 78.65 13.4346 78.2958C13.2828 77.9248 13.9068 77.8573 14.8681 78.1103Z" fill="#BCB5B5"/>
<path fill-rule="evenodd" clip-rule="evenodd" d="M15.7798 79.9323C16.7748 80.2358 17.7528 80.7923 17.9552 81.1971C18.1239 81.585 17.4662 81.6356 16.4544 81.2814C15.4256 80.9273 14.4812 80.3707 14.3126 80.0166C14.1271 79.6793 14.7848 79.6287 15.7798 79.9323Z" fill="#BCB5B5"/>
<path fill-rule="evenodd" clip-rule="evenodd" d="M16.6885 81.7696C17.7172 82.1407 18.7291 82.7309 18.9315 83.1188C19.1338 83.5235 18.4256 83.5235 17.38 83.1188C16.3175 82.6972 15.3225 82.1069 15.1539 81.7528C14.9684 81.4155 15.6598 81.3986 16.6885 81.7696Z" fill="#BCB5B5"/>
<path fill-rule="evenodd" clip-rule="evenodd" d="M7.81887 56.1702C8.39242 55.816 9.05041 55.9172 9.28658 56.3558C9.52275 56.7944 9.23593 57.4185 8.61177 57.7222C8.00449 58.0258 7.3466 57.9415 7.14417 57.5366C6.94174 57.1318 7.22845 56.5245 7.81887 56.1702Z" fill="#BCB5B5"/>
<path fill-rule="evenodd" clip-rule="evenodd" d="M8.91477 58.2779C9.52206 57.9912 10.2306 58.1261 10.4499 58.5816C10.6861 59.037 10.3655 59.6106 9.72446 59.8636C9.08343 60.1167 8.40869 59.9817 8.17253 59.56C7.9701 59.1551 8.29061 58.5647 8.91477 58.2779Z" fill="#BCB5B5"/>
<path fill-rule="evenodd" clip-rule="evenodd" d="M10.0128 60.3865C10.6539 60.1503 11.3792 60.3359 11.6153 60.7914C11.8515 61.23 11.4804 61.7697 10.8056 61.9553C10.1309 62.1577 9.42237 61.9722 9.21994 61.5673C9.00064 61.1625 9.35494 60.6227 10.0128 60.3865Z" fill="#BCB5B5"/>
<path fill-rule="evenodd" clip-rule="evenodd" d="M11.1098 62.5108C11.8015 62.3252 12.5437 62.5446 12.7799 63C13.0329 63.4555 12.6449 63.9447 11.9364 64.0796C11.2279 64.2146 10.4688 64.0122 10.2664 63.5904C10.0302 63.1687 10.4182 62.6795 11.1098 62.5108Z" fill="#BCB5B5"/>
<path fill-rule="evenodd" clip-rule="evenodd" d="M12.2053 64.6183C12.9138 64.5002 13.7066 64.7532 13.9428 65.2087C14.179 65.6473 13.7741 66.0859 13.015 66.1702C12.2728 66.2546 11.4969 66.0015 11.2776 65.5798C11.0583 65.1918 11.48 64.7363 12.2053 64.6183Z" fill="#BCB5B5"/>
<path fill-rule="evenodd" clip-rule="evenodd" d="M13.2844 66.7272C14.0435 66.6597 14.8364 66.9633 15.0725 67.4019C15.3087 67.8574 14.8701 68.2454 14.0941 68.2791C13.3181 68.296 12.5084 68.0092 12.2891 67.6044C12.1035 67.1995 12.5422 66.8115 13.2844 66.7272Z" fill="#BCB5B5"/>
<path fill-rule="evenodd" clip-rule="evenodd" d="M14.3814 68.835C15.1742 68.8182 16.0009 69.1893 16.2371 69.611C16.4732 70.0665 15.984 70.4207 15.1743 70.387C14.3646 70.3701 13.5379 70.0159 13.3186 69.611C13.1331 69.223 13.6054 68.8519 14.3814 68.835Z" fill="#BCB5B5"/>
<path fill-rule="evenodd" clip-rule="evenodd" d="M15.4755 70.9602C16.302 70.9939 17.1624 71.3819 17.3986 71.8374C17.6347 72.276 17.1286 72.5965 16.2851 72.5122C15.4417 72.4278 14.5814 72.0398 14.3789 71.635C14.1596 71.2132 14.6657 70.9265 15.4755 70.9602Z" fill="#BCB5B5"/>
<path fill-rule="evenodd" clip-rule="evenodd" d="M16.5724 73.068C17.4327 73.1523 18.31 73.5909 18.563 74.0295C18.7992 74.4681 18.2762 74.7549 17.3822 74.6199C16.505 74.485 15.6109 74.0464 15.3916 73.6247C15.1892 73.2367 15.7121 72.9836 16.5724 73.068Z" fill="#BCB5B5"/>
<path fill-rule="evenodd" clip-rule="evenodd" d="M17.6667 75.1928C18.5608 75.3447 19.4886 75.8001 19.7248 76.2556C19.961 76.6942 19.4042 76.9304 18.4933 76.7448C17.5655 76.5424 16.6546 76.07 16.4353 75.6652C16.216 75.2603 16.7895 75.041 17.6667 75.1928Z" fill="#BCB5B5"/>
<path fill-rule="evenodd" clip-rule="evenodd" d="M18.7632 77.3011C19.691 77.5035 20.6526 78.0265 20.8719 78.4651C21.108 78.9037 20.5345 79.0892 19.5729 78.8699C18.6114 78.6169 17.6498 78.094 17.4474 77.6722C17.2618 77.2674 17.8354 77.0987 18.7632 77.3011Z" fill="#BCB5B5"/>
<path fill-rule="evenodd" clip-rule="evenodd" d="M14.6324 61.5664C15.3241 61.3809 16.1 61.6339 16.3699 62.1569C16.6398 62.6629 16.2856 63.2028 15.5771 63.3377C14.8686 63.4895 14.0926 63.2196 13.8395 62.7473C13.6034 62.2749 13.9577 61.752 14.6324 61.5664Z" fill="#BCB5B5"/>
<path fill-rule="evenodd" clip-rule="evenodd" d="M15.9149 63.9617C16.6234 63.8267 17.45 64.1472 17.7031 64.6364C17.9898 65.1425 17.6018 65.6317 16.8596 65.7161C16.1174 65.8173 15.3076 65.4967 15.0715 65.0413C14.8184 64.5689 15.2064 64.0797 15.9149 63.9617Z" fill="#BCB5B5"/>
<path fill-rule="evenodd" clip-rule="evenodd" d="M17.1966 66.3387C17.9557 66.2543 18.7823 66.6254 19.0522 67.1146C19.3389 67.6376 18.9172 68.0762 18.1413 68.1099C17.3653 68.1268 16.5386 67.7894 16.2856 67.3171C16.0326 66.8616 16.4544 66.423 17.1966 66.3387Z" fill="#BCB5B5"/>
<path fill-rule="evenodd" clip-rule="evenodd" d="M18.4775 68.7344C19.2703 68.7175 20.1307 69.1224 20.4175 69.6116C20.6705 70.1177 20.2487 70.5225 19.4221 70.5057C18.6124 70.4888 17.7522 70.0839 17.4991 69.6116C17.2461 69.1561 17.6846 68.7513 18.4775 68.7344Z" fill="#BCB5B5"/>
<path fill-rule="evenodd" clip-rule="evenodd" d="M19.7432 71.1288C20.5698 71.1625 21.4638 71.6011 21.7337 72.1072C22.0036 72.6133 21.5313 72.9675 20.6878 72.9001C19.8444 72.8326 18.9503 72.3771 18.7142 71.9048C18.4611 71.4324 18.9334 71.095 19.7432 71.1288Z" fill="#BCB5B5"/>
<path fill-rule="evenodd" clip-rule="evenodd" d="M21.0252 73.5405C21.8855 73.6417 22.7965 74.0972 23.0833 74.6032C23.37 75.1093 22.8639 75.4298 21.9699 75.2949C21.0927 75.1768 20.1649 74.6707 19.9119 74.1984C19.6757 73.7429 20.1817 73.4393 21.0252 73.5405Z" fill="#BCB5B5"/>
<path fill-rule="evenodd" clip-rule="evenodd" d="M18.1756 60.6219C18.8673 60.4363 19.6601 60.74 19.9806 61.2967C20.2843 61.8702 19.9638 62.4438 19.2553 62.5787C18.5468 62.7137 17.737 62.41 17.4503 61.8702C17.1635 61.381 17.5009 60.8075 18.1756 60.6219Z" fill="#BCB5B5"/>
<path fill-rule="evenodd" clip-rule="evenodd" d="M19.6404 63.3036C20.3489 63.1855 21.1924 63.5061 21.496 64.0796C21.7997 64.6363 21.4623 65.1761 20.72 65.2604C19.9778 65.3448 19.1343 64.9905 18.8476 64.4676C18.5777 63.9446 18.9319 63.4217 19.6404 63.3036Z" fill="#BCB5B5"/>
<path fill-rule="evenodd" clip-rule="evenodd" d="M21.1084 65.9681C21.8507 65.9006 22.7279 66.2886 23.0315 66.8453C23.3352 67.4188 22.9641 67.908 22.1881 67.9418C21.4121 67.9755 20.5517 67.5875 20.265 67.0477C19.9782 66.5416 20.3493 66.0355 21.1084 65.9681Z" fill="#BCB5B5"/>
<path fill-rule="evenodd" clip-rule="evenodd" d="M22.5574 68.6328C23.3502 68.6159 24.2274 69.0714 24.5479 69.6281C24.8516 70.2016 24.4467 70.6402 23.6201 70.6233C22.8104 70.6065 21.9163 70.151 21.6464 69.6281C21.3596 69.1051 21.7814 68.6496 22.5574 68.6328Z" fill="#BCB5B5"/>
<path fill-rule="evenodd" clip-rule="evenodd" d="M24.0265 71.3141C24.8531 71.3478 25.7639 71.837 26.0845 72.3937C26.3881 72.9672 25.9495 73.3552 25.106 73.2877C24.2626 73.2034 23.3348 72.7142 23.048 72.1913C22.7613 71.6683 23.1999 71.2803 24.0265 71.3141Z" fill="#BCB5B5"/>
<path fill-rule="evenodd" clip-rule="evenodd" d="M18.444 53.7415C19.0513 53.4547 19.8272 53.7246 20.1814 54.3488C20.5188 54.9729 20.2995 55.6814 19.6585 55.9345C19.0175 56.1875 18.2415 55.9176 17.921 55.3272C17.5836 54.7536 17.8198 54.0451 18.444 53.7415Z" fill="#BCB5B5"/>
<path fill-rule="evenodd" clip-rule="evenodd" d="M20.0787 56.7098C20.7198 56.4736 21.5295 56.7941 21.8838 57.4014C22.238 58.0256 21.9681 58.6835 21.2765 58.8859C20.6017 59.0883 19.8089 58.7678 19.4884 58.1942C19.1679 57.6207 19.4208 56.9459 20.0787 56.7098Z" fill="#BCB5B5"/>
<path fill-rule="evenodd" clip-rule="evenodd" d="M21.7154 59.6782C22.407 59.4927 23.2336 59.8469 23.5878 60.4711C23.9252 61.0952 23.6553 61.7025 22.9299 61.8543C22.2214 62.0061 21.3948 61.6519 21.0743 61.0446C20.7538 60.4711 21.0406 59.8638 21.7154 59.6782Z" fill="#BCB5B5"/>
<path fill-rule="evenodd" clip-rule="evenodd" d="M23.3691 62.629C24.0944 62.4941 24.9548 62.8989 25.2922 63.5062C25.6464 64.1304 25.3259 64.7039 24.5668 64.7883C23.8246 64.8895 22.9811 64.4846 22.6437 63.8942C22.3232 63.3375 22.6437 62.764 23.3691 62.629Z" fill="#BCB5B5"/>
<path fill-rule="evenodd" clip-rule="evenodd" d="M25.0036 65.5811C25.7627 65.5136 26.6569 65.9522 26.9943 66.5763C27.3485 67.2005 26.9942 67.7234 26.2183 67.7741C25.4423 67.8078 24.5482 67.3692 24.2277 66.7788C23.9072 66.1883 24.2445 65.6485 25.0036 65.5811Z" fill="#BCB5B5"/>
<path fill-rule="evenodd" clip-rule="evenodd" d="M26.6384 68.5317C27.4313 68.5148 28.3422 69.004 28.6964 69.6282C29.0338 70.2523 28.6796 70.7415 27.853 70.7247C27.0432 70.7078 26.1155 70.2186 25.795 69.6282C25.4913 69.0546 25.8456 68.5485 26.6384 68.5317Z" fill="#BCB5B5"/>
<path fill-rule="evenodd" clip-rule="evenodd" d="M28.2931 71.4827C29.1197 71.5165 30.0644 72.0563 30.4187 72.6804C30.756 73.3046 30.3512 73.7432 29.5078 73.6588C28.6643 73.5914 27.7196 73.0684 27.3991 72.478C27.0617 71.9044 27.4665 71.4321 28.2931 71.4827Z" fill="#BCB5B5"/>
<path fill-rule="evenodd" clip-rule="evenodd" d="M19.7923 49.0194C20.3658 48.6651 21.1417 48.9519 21.5297 49.6266C21.9177 50.3014 21.749 51.0943 21.1249 51.4148C20.5176 51.7184 19.7585 51.4316 19.3874 50.7906C19.0332 50.1496 19.2187 49.3567 19.7923 49.0194Z" fill="#BCB5B5"/>
<path fill-rule="evenodd" clip-rule="evenodd" d="M21.6155 52.2575C22.2228 51.9707 23.0493 52.2744 23.4204 52.966C23.8084 53.6408 23.6061 54.383 22.965 54.6529C22.324 54.9059 21.5312 54.5854 21.16 53.9444C20.8058 53.2865 20.9914 52.5442 21.6155 52.2575Z" fill="#BCB5B5"/>
<path fill-rule="evenodd" clip-rule="evenodd" d="M23.4356 55.4783C24.0766 55.2421 24.9202 55.5964 25.3081 56.288C25.6961 56.9628 25.4431 57.6713 24.7852 57.8737C24.1104 58.0761 23.2838 57.705 22.9295 57.064C22.5584 56.4398 22.7946 55.7145 23.4356 55.4783Z" fill="#BCB5B5"/>
<path fill-rule="evenodd" clip-rule="evenodd" d="M25.2581 58.7328C25.9328 58.5472 26.8101 58.9352 27.1981 59.6268C27.586 60.3016 27.3329 60.9595 26.6076 61.1113C25.8991 61.2631 25.0387 60.8583 24.6845 60.2004C24.3133 59.5762 24.5833 58.9183 25.2581 58.7328Z" fill="#BCB5B5"/>
<path fill-rule="evenodd" clip-rule="evenodd" d="M27.0951 61.9539C27.8205 61.8189 28.7145 62.2744 29.0856 62.9492C29.4736 63.624 29.1868 64.2481 28.4446 64.3324C27.7024 64.4168 26.8083 63.9782 26.4541 63.3372C26.0829 62.713 26.3697 62.0888 27.0951 61.9539Z" fill="#BCB5B5"/>
<path fill-rule="evenodd" clip-rule="evenodd" d="M28.9168 65.1923C29.6759 65.1248 30.5869 65.614 30.9749 66.2887C31.3629 66.9635 31.0255 67.5539 30.2495 67.5877C29.4736 67.6045 28.5626 67.1322 28.1914 66.4912C27.8372 65.8501 28.1577 65.2766 28.9168 65.1923Z" fill="#BCB5B5"/>
<path fill-rule="evenodd" clip-rule="evenodd" d="M30.721 68.4306C31.5139 68.4137 32.4585 68.9535 32.8465 69.6283C33.2176 70.303 32.8634 70.8428 32.0537 70.826C31.244 70.8091 30.2993 70.2693 29.9451 69.6283C29.5908 68.9872 29.945 68.4474 30.721 68.4306Z" fill="#BCB5B5"/>
<path fill-rule="evenodd" clip-rule="evenodd" d="M32.5604 71.6681C33.387 71.7019 34.3654 72.2754 34.7534 72.9502C35.1245 73.625 34.7534 74.131 33.9099 74.0467C33.0665 73.9792 32.0881 73.4057 31.7339 72.7646C31.3627 72.1067 31.7338 71.6175 32.5604 71.6681Z" fill="#BCB5B5"/>
<path fill-rule="evenodd" clip-rule="evenodd" d="M20.7712 43.7071C21.311 43.3023 22.1038 43.589 22.5256 44.3144C22.9473 45.0398 22.8124 45.9338 22.2557 46.305C21.6822 46.6592 20.9061 46.3893 20.5181 45.6977C20.1133 45.006 20.2314 44.112 20.7712 43.7071Z" fill="#BCB5B5"/>
<path fill-rule="evenodd" clip-rule="evenodd" d="M22.7963 47.2318C23.3699 46.8776 24.1796 47.1981 24.6013 47.9403C25.0231 48.6657 24.8712 49.5092 24.2639 49.8297C23.6567 50.1333 22.847 49.8128 22.4422 49.1212C22.0542 48.4296 22.2059 47.5861 22.7963 47.2318Z" fill="#BCB5B5"/>
<path fill-rule="evenodd" clip-rule="evenodd" d="M24.7854 50.7399C25.3927 50.4531 26.2361 50.8074 26.6579 51.5496C27.0796 52.2918 26.9108 53.0847 26.2698 53.3546C25.6288 53.6076 24.7853 53.2365 24.3805 52.5449C24.0094 51.8364 24.1781 51.0267 24.7854 50.7399Z" fill="#BCB5B5"/>
<path fill-rule="evenodd" clip-rule="evenodd" d="M26.7911 54.2646C27.4321 54.0284 28.3093 54.4333 28.7311 55.1755C29.1528 55.9177 28.9503 56.6768 28.2756 56.8793C27.6008 57.0817 26.7237 56.6769 26.3357 55.9684C25.9477 55.2599 26.15 54.4839 26.7911 54.2646Z" fill="#BCB5B5"/>
<path fill-rule="evenodd" clip-rule="evenodd" d="M28.7989 57.7719C29.4905 57.5863 30.3846 58.0418 30.8063 58.7841C31.2112 59.5263 30.9919 60.2348 30.2834 60.3866C29.5749 60.5216 28.6808 60.083 28.2759 59.3745C27.8711 58.6828 28.1072 57.9575 28.7989 57.7719Z" fill="#BCB5B5"/>
<path fill-rule="evenodd" clip-rule="evenodd" d="M30.8064 61.2962C31.5318 61.1613 32.4596 61.6674 32.8645 62.3927C33.2862 63.1181 33.0163 63.7929 32.274 63.8772C31.5318 63.9616 30.604 63.4724 30.216 62.7807C29.828 62.106 30.0979 61.4312 30.8064 61.2962Z" fill="#BCB5B5"/>
<path fill-rule="evenodd" clip-rule="evenodd" d="M32.812 64.8047C33.5543 64.7372 34.5158 65.2602 34.9375 66.0024C35.3593 66.7446 35.0725 67.3688 34.2965 67.4025C33.5205 67.4363 32.559 66.9133 32.171 66.2048C31.783 65.5132 32.0698 64.889 32.812 64.8047Z" fill="#BCB5B5"/>
<path fill-rule="evenodd" clip-rule="evenodd" d="M34.8192 68.3119C35.6121 68.295 36.5905 68.8854 37.0123 69.6108C37.434 70.353 37.1134 70.9435 36.3037 70.8928C35.494 70.876 34.4987 70.3024 34.1107 69.6108C33.7059 68.9192 34.0264 68.3287 34.8192 68.3119Z" fill="#BCB5B5"/>
<path fill-rule="evenodd" clip-rule="evenodd" d="M36.8267 71.8369C37.6532 71.8707 38.6485 72.5117 39.0703 73.2371C39.492 73.9793 39.1377 74.5192 38.2943 74.4348C37.4508 74.3673 36.4387 73.7432 36.0507 73.0515C35.6628 72.343 36.0169 71.8032 36.8267 71.8369Z" fill="#BCB5B5"/>
<path fill-rule="evenodd" clip-rule="evenodd" d="M38.834 75.362C39.6943 75.4632 40.7233 76.1211 41.1619 76.8634C41.5837 77.5887 41.2125 78.0948 40.3185 77.9599C39.4413 77.8418 38.3954 77.1839 37.9905 76.4754C37.6025 75.7669 37.9905 75.2608 38.834 75.362Z" fill="#BCB5B5"/>
<path fill-rule="evenodd" clip-rule="evenodd" d="M21.4114 37.8387C21.9175 37.3832 22.6934 37.67 23.1489 38.446C23.6043 39.2557 23.5537 40.2341 23.0139 40.6389C22.4909 41.0606 21.6981 40.7907 21.2764 40.0316C20.8378 39.2725 20.9053 38.2941 21.4114 37.8387Z" fill="#BCB5B5"/>
<path fill-rule="evenodd" clip-rule="evenodd" d="M23.5882 41.6495C24.128 41.2447 24.9378 41.5652 25.4101 42.358C25.8656 43.1509 25.7813 44.0787 25.2077 44.4329C24.6342 44.7872 23.8244 44.4836 23.3858 43.7413C22.9472 42.9822 23.0484 42.0544 23.5882 41.6495Z" fill="#BCB5B5"/>
<path fill-rule="evenodd" clip-rule="evenodd" d="M25.7815 45.4443C26.3551 45.1069 27.2154 45.4611 27.654 46.254C28.1094 47.0637 27.9914 47.9409 27.401 48.2446C26.7937 48.5482 25.9503 48.194 25.5117 47.4348C25.0899 46.6757 25.208 45.7817 25.7815 45.4443Z" fill="#BCB5B5"/>
<path fill-rule="evenodd" clip-rule="evenodd" d="M27.9741 49.222C28.5814 48.9352 29.4587 49.34 29.9141 50.1329C30.3696 50.9257 30.2346 51.7692 29.5936 52.0222C28.9526 52.2753 28.0753 51.8535 27.6367 51.1113C27.215 50.3691 27.3669 49.5256 27.9741 49.222Z" fill="#BCB5B5"/>
<path fill-rule="evenodd" clip-rule="evenodd" d="M30.1494 53.033C30.7905 52.7968 31.7014 53.2354 32.1569 54.0451C32.6123 54.838 32.4267 55.6477 31.7519 55.8501C31.0772 56.0525 30.1831 55.5971 29.7445 54.838C29.3228 54.0789 29.5084 53.2691 30.1494 53.033Z" fill="#BCB5B5"/>
<path fill-rule="evenodd" clip-rule="evenodd" d="M32.3416 56.8284C33.0332 56.6428 33.961 57.132 34.4165 57.9248C34.8719 58.7177 34.6695 59.4768 33.961 59.6286C33.2525 59.7636 32.3247 59.2744 31.903 58.5153C31.4644 57.773 31.6668 57.0139 32.3416 56.8284Z" fill="#BCB5B5"/>
<path fill-rule="evenodd" clip-rule="evenodd" d="M34.534 60.6388C35.2594 60.5039 36.2041 61.0437 36.6595 61.8366C37.115 62.6294 36.8788 63.3548 36.1366 63.4391C35.3944 63.5235 34.4328 63.0005 34.0111 62.2414C33.5894 61.4823 33.8255 60.7738 34.534 60.6388Z" fill="#BCB5B5"/>
<path fill-rule="evenodd" clip-rule="evenodd" d="M36.7247 64.4336C37.4838 64.3661 38.4623 64.9397 38.9009 65.7325C39.3732 66.5085 39.1033 67.2002 38.3273 67.2339C37.5513 67.2676 36.5729 66.6941 36.1343 65.9181C35.7126 65.1759 35.9656 64.5011 36.7247 64.4336Z" fill="#BCB5B5"/>
<path fill-rule="evenodd" clip-rule="evenodd" d="M38.8999 68.2113C39.6927 68.1944 40.7048 68.8186 41.1603 69.6114C41.6157 70.4043 41.3289 71.0284 40.5192 70.9947C39.7095 70.9947 38.6974 70.3705 38.2757 69.6114C37.8202 68.8692 38.1239 68.245 38.8999 68.2113Z" fill="#BCB5B5"/>
<path fill-rule="evenodd" clip-rule="evenodd" d="M41.093 72.0058C41.9196 72.0395 42.9655 72.7311 43.4209 73.524C43.8764 74.3168 43.5558 74.9073 42.7124 74.8061C41.8689 74.7386 40.8231 74.0638 40.3845 73.3216C39.9628 72.5625 40.2664 71.972 41.093 72.0058Z" fill="#BCB5B5"/>
<path fill-rule="evenodd" clip-rule="evenodd" d="M43.2879 75.8C44.1479 75.8843 45.2272 76.6094 45.6657 77.4021C46.1379 78.2116 45.7838 78.7344 44.9069 78.5994C44.0299 78.4814 42.9505 77.7562 42.5121 76.9973C42.0905 76.2722 42.4446 75.7156 43.2879 75.8Z" fill="#BCB5B5"/>
<path fill-rule="evenodd" clip-rule="evenodd" d="M45.4792 79.5946C46.373 79.7464 47.4692 80.5052 47.9246 81.2979C48.3799 82.0736 48.0089 82.5796 47.0982 82.3941C46.1876 82.2086 45.0745 81.4328 44.636 80.6907C44.2144 79.9656 44.5685 79.4597 45.4792 79.5946Z" fill="#BCB5B5"/>
<path fill-rule="evenodd" clip-rule="evenodd" d="M24.0447 35.4939C24.5508 35.0553 25.3604 35.3589 25.8665 36.2192C26.3557 37.0796 26.322 38.1086 25.7991 38.5134C25.2761 38.9183 24.4495 38.5978 23.9772 37.7881C23.5048 36.9784 23.5387 35.9494 24.0447 35.4939Z" fill="#BCB5B5"/>
<path fill-rule="evenodd" clip-rule="evenodd" d="M26.4052 39.5756C26.945 39.1876 27.7884 39.5587 28.2776 40.3853C28.7668 41.2288 28.7163 42.2241 28.1428 42.5614C27.5692 42.9157 26.7425 42.5614 26.2702 41.7517C25.7979 40.9589 25.8654 39.9805 26.4052 39.5756Z" fill="#BCB5B5"/>
<path fill-rule="evenodd" clip-rule="evenodd" d="M28.7826 43.6566C29.3562 43.3024 30.2164 43.7241 30.7057 44.5676C31.2117 45.411 31.1274 46.3557 30.5201 46.6593C29.9128 46.963 29.0526 46.5413 28.5802 45.7484C28.1079 44.9387 28.2091 43.994 28.7826 43.6566Z" fill="#BCB5B5"/>
<path fill-rule="evenodd" clip-rule="evenodd" d="M31.1431 47.7216C31.7504 47.4348 32.6444 47.8903 33.1505 48.7337C33.6397 49.594 33.5386 50.4713 32.8975 50.7243C32.2565 50.9773 31.3456 50.5219 30.8901 49.7121C30.4178 48.9024 30.5358 48.0252 31.1431 47.7216Z" fill="#BCB5B5"/>
<path fill-rule="evenodd" clip-rule="evenodd" d="M33.5039 51.8025C34.1449 51.5663 35.0895 52.0555 35.5788 52.9158C36.068 53.7762 35.933 54.6196 35.2582 54.8052C34.5835 55.0076 33.6557 54.5015 33.1834 53.6918C32.7279 52.8989 32.8629 52.0386 33.5039 51.8025Z" fill="#BCB5B5"/>
<path fill-rule="evenodd" clip-rule="evenodd" d="M35.881 55.8834C36.5558 55.6978 37.5173 56.2545 38.0234 57.098C38.5126 57.9583 38.3608 58.7511 37.6354 58.903C36.9269 59.0548 35.9823 58.4981 35.5099 57.6884C35.0376 56.8787 35.2062 56.0521 35.881 55.8834Z" fill="#BCB5B5"/>
<path fill-rule="evenodd" clip-rule="evenodd" d="M38.2595 59.965C38.9848 59.8301 39.9632 60.4205 40.4524 61.264C40.9416 62.1243 40.7392 62.8665 39.9969 62.9677C39.2547 63.0521 38.2763 62.4785 37.804 61.6688C37.3316 60.8591 37.5341 60.1 38.2595 59.965Z" fill="#BCB5B5"/>
<path fill-rule="evenodd" clip-rule="evenodd" d="M40.6229 64.046C41.3652 63.9785 42.3942 64.6027 42.8665 65.4461C43.3557 66.3065 43.1365 67.015 42.3605 67.0487C41.5845 67.0824 40.5723 66.4583 40.1 65.6486C39.6445 64.8389 39.8807 64.1135 40.6229 64.046Z" fill="#BCB5B5"/>
<path fill-rule="evenodd" clip-rule="evenodd" d="M42.9974 68.1102C43.7902 68.0933 44.8193 68.7849 45.3253 69.6284C45.8145 70.4887 45.5783 71.1466 44.7517 71.1297C43.942 71.1129 42.8961 70.4381 42.4238 69.6284C41.9514 68.8187 42.2045 68.127 42.9974 68.1102Z" fill="#BCB5B5"/>
<path fill-rule="evenodd" clip-rule="evenodd" d="M45.376 72.1917C46.2026 72.2254 47.2654 72.9508 47.7546 73.7943C48.2438 74.6546 47.9739 75.2788 47.1135 75.1944C46.2701 75.1269 45.1904 74.4184 44.7181 73.5918C44.2626 72.799 44.5494 72.158 45.376 72.1917Z" fill="#BCB5B5"/>
<path fill-rule="evenodd" clip-rule="evenodd" d="M47.7364 76.272C48.5965 76.3732 49.6758 77.1321 50.1818 77.9753C50.6877 78.8185 50.3841 79.4088 49.4903 79.2739C48.6133 79.1558 47.5002 78.397 47.028 77.5706C46.5558 76.7611 46.8932 76.1709 47.7364 76.272Z" fill="#BCB5B5"/>
<path fill-rule="evenodd" clip-rule="evenodd" d="M50.1154 80.3536C51.0093 80.4885 52.1223 81.3149 52.6282 82.1581C53.1173 83.0013 52.7801 83.541 51.8694 83.3554C50.9587 83.1868 49.812 82.3773 49.3398 81.5678C48.8676 80.7583 49.2216 80.2018 50.1154 80.3536Z" fill="#BCB5B5"/>
<path fill-rule="evenodd" clip-rule="evenodd" d="M24.1288 28.7821C24.601 28.2761 25.4104 28.5966 25.9501 29.5072C26.4729 30.4179 26.5235 31.5309 26.0007 32.0031C25.5117 32.4585 24.6853 32.1381 24.1794 31.278C23.6734 30.401 23.6566 29.288 24.1288 28.7821Z" fill="#BCB5B5"/>
<path fill-rule="evenodd" clip-rule="evenodd" d="M26.6573 33.1506C27.1632 32.6953 28.0064 33.0663 28.5461 33.9601C29.0689 34.8708 29.0689 35.9501 28.5461 36.3548C28.0064 36.7764 27.1632 36.4054 26.6573 35.5454C26.1513 34.6684 26.1513 33.606 26.6573 33.1506Z" fill="#BCB5B5"/>
<path fill-rule="evenodd" clip-rule="evenodd" d="M29.221 37.5006C29.7608 37.0957 30.6212 37.5175 31.161 38.4115C31.684 39.3225 31.6671 40.3515 31.0936 40.7057C30.52 41.06 29.6597 40.6551 29.1536 39.7779C28.6475 38.9345 28.6812 37.9054 29.221 37.5006Z" fill="#BCB5B5"/>
<path fill-rule="evenodd" clip-rule="evenodd" d="M31.7829 41.8692C32.3564 41.5149 33.2505 41.9872 33.7734 42.8813C34.3132 43.7922 34.2626 44.7707 33.6553 45.0743C33.048 45.3779 32.154 44.9056 31.6479 44.0622C31.1418 43.2018 31.1925 42.2234 31.7829 41.8692Z" fill="#BCB5B5"/>
<path fill-rule="evenodd" clip-rule="evenodd" d="M34.3142 46.2204C34.9215 45.9337 35.8662 46.4229 36.3891 47.3507C36.9289 48.2616 36.8446 49.1894 36.2036 49.4424C35.5626 49.6954 34.6517 49.1894 34.1287 48.3291C33.6226 47.4519 33.707 46.5072 34.3142 46.2204Z" fill="#BCB5B5"/>
<path fill-rule="evenodd" clip-rule="evenodd" d="M36.8598 50.5711C37.5008 50.3349 38.4793 50.8747 39.0022 51.7856C39.5251 52.6966 39.4239 53.5906 38.7491 53.7931C38.0744 53.9955 37.1297 53.4388 36.6236 52.5616C36.1175 51.7013 36.2188 50.8072 36.8598 50.5711Z" fill="#BCB5B5"/>
<path fill-rule="evenodd" clip-rule="evenodd" d="M39.4066 54.9389C40.0982 54.7533 41.0766 55.3437 41.6164 56.2547C42.1394 57.1656 42.0213 58.009 41.2959 58.1609C40.5874 58.2958 39.5921 57.7223 39.0861 56.8451C38.5969 55.9679 38.7318 55.1244 39.4066 54.9389Z" fill="#BCB5B5"/>
<path fill-rule="evenodd" clip-rule="evenodd" d="M41.9702 59.3068C42.6956 59.1887 43.7078 59.8129 44.2476 60.7238C44.7706 61.6347 44.6188 62.4276 43.8597 62.5288C43.1174 62.6132 42.1053 61.989 41.6161 61.1118C41.0931 60.2346 41.2449 59.4249 41.9702 59.3068Z" fill="#BCB5B5"/>
<path fill-rule="evenodd" clip-rule="evenodd" d="M44.5329 63.6576C45.292 63.5901 46.3379 64.248 46.8609 65.1589C47.4007 66.0699 47.1982 66.829 46.4054 66.8627C45.6294 66.8964 44.6004 66.2217 44.0774 65.3445C43.5882 64.501 43.7738 63.7419 44.5329 63.6576Z" fill="#BCB5B5"/>
<path fill-rule="evenodd" clip-rule="evenodd" d="M47.0801 68.0081C47.873 67.9912 48.9357 68.7166 49.4924 69.6275C50.0153 70.5385 49.796 71.2638 48.9695 71.247C48.1597 71.2301 47.097 70.5047 46.591 69.6275C46.0511 68.7503 46.2873 68.025 47.0801 68.0081Z" fill="#BCB5B5"/>
<path fill-rule="evenodd" clip-rule="evenodd" d="M49.6261 72.3771C50.4524 72.4109 51.5654 73.1866 52.0882 74.0804C52.611 74.9911 52.3581 75.6657 51.5148 75.5813C50.6716 75.5139 49.5754 74.755 49.0695 73.878C48.5636 73.018 48.7997 72.3265 49.6261 72.3771Z" fill="#BCB5B5"/>
<path fill-rule="evenodd" clip-rule="evenodd" d="M52.1901 76.7278C53.0502 76.8122 54.1801 77.6385 54.7197 78.5323C55.2425 79.443 54.9727 80.067 54.0789 79.9489C53.2019 79.8309 52.072 79.0214 51.5492 78.1444C51.0602 77.2675 51.33 76.6435 52.1901 76.7278Z" fill="#BCB5B5"/>
<path fill-rule="evenodd" clip-rule="evenodd" d="M54.7351 81.0956C55.6289 81.2305 56.7926 82.1074 57.3322 83.0013C57.855 83.8951 57.5514 84.4853 56.6239 84.2998C55.7132 84.1311 54.5496 83.2542 54.0606 82.411C53.5378 81.534 53.8413 80.9438 54.7351 81.0956Z" fill="#BCB5B5"/>
<path fill-rule="evenodd" clip-rule="evenodd" d="M57.2823 85.4466C58.2099 85.6322 59.4073 86.5428 59.93 87.4366C60.4528 88.3473 60.1155 88.9038 59.1711 88.6509C58.2099 88.4148 57.0462 87.521 56.5234 86.6609C56.0344 85.8008 56.3548 85.2611 57.2823 85.4466Z" fill="#BCB5B5"/>
<path fill-rule="evenodd" clip-rule="evenodd" d="M26.5741 26.1514C27.0463 25.6454 27.8895 26.0333 28.446 26.9946C29.0194 27.9559 29.0869 29.1195 28.5809 29.5917C28.0919 30.0639 27.2486 29.676 26.692 28.7485C26.1524 27.821 26.1019 26.6573 26.5741 26.1514Z" fill="#BCB5B5"/>
<path fill-rule="evenodd" clip-rule="evenodd" d="M29.2882 30.7886C29.7941 30.3332 30.671 30.7717 31.2444 31.733C31.8178 32.6942 31.8516 33.8073 31.3119 34.212C30.7891 34.6336 29.9121 34.212 29.3725 33.2845C28.8159 32.3569 28.7822 31.2439 29.2882 30.7886Z" fill="#BCB5B5"/>
<path fill-rule="evenodd" clip-rule="evenodd" d="M32.0208 35.4439C32.5604 35.0391 33.4711 35.5113 34.0445 36.4557C34.6179 37.417 34.601 38.4794 34.0276 38.8504C33.4542 39.2046 32.5604 38.7493 32.0208 37.8386C31.498 36.8942 31.4811 35.8317 32.0208 35.4439Z" fill="#BCB5B5"/>
<path fill-rule="evenodd" clip-rule="evenodd" d="M34.7694 40.0645C35.3428 39.7272 36.2703 40.2331 36.8268 41.1944C37.4002 42.1557 37.3665 43.1844 36.7763 43.4879C36.1692 43.7915 35.2584 43.2856 34.7019 42.358C34.1791 41.4474 34.196 40.4186 34.7694 40.0645Z" fill="#BCB5B5"/>
<path fill-rule="evenodd" clip-rule="evenodd" d="M37.501 44.7018C38.1082 44.4151 39.0863 44.9547 39.6429 45.9328C40.2162 46.8941 40.1656 47.8723 39.5248 48.1421C38.8839 48.3951 37.9226 47.8385 37.383 46.911C36.8265 45.9834 36.8771 44.9885 37.501 44.7018Z" fill="#BCB5B5"/>
<path fill-rule="evenodd" clip-rule="evenodd" d="M40.2335 49.3571C40.8746 49.121 41.8698 49.7114 42.4434 50.6898C43.0169 51.6513 42.9326 52.5791 42.2747 52.7816C41.5831 52.984 40.6047 52.3767 40.0649 51.4489C39.5082 50.5211 39.5756 49.5933 40.2335 49.3571Z" fill="#BCB5B5"/>
<path fill-rule="evenodd" clip-rule="evenodd" d="M53.9096 72.5451C54.7359 72.5788 55.8659 73.4051 56.4392 74.3664C57.0126 75.3277 56.7765 76.0529 55.9333 75.9685C55.0901 75.9011 53.9602 75.1084 53.4037 74.164C52.864 73.2365 53.0832 72.5113 53.9096 72.5451Z" fill="#BCB5B5"/>
<path fill-rule="evenodd" clip-rule="evenodd" d="M56.6414 77.1825C57.5015 77.2668 58.6483 78.1438 59.2217 79.105C59.7951 80.0663 59.5589 80.7577 58.6651 80.6228C57.7882 80.4879 56.6246 79.6278 56.068 78.7003C55.5284 77.7896 55.7813 77.0813 56.6414 77.1825Z" fill="#BCB5B5"/>
<path fill-rule="evenodd" clip-rule="evenodd" d="M59.3746 81.8207C60.2684 81.9556 61.4658 82.8663 62.0223 83.8444C62.5957 84.8056 62.309 85.4296 61.3815 85.2441C60.4708 85.0586 59.2903 84.1648 58.7338 83.2541C58.211 82.3266 58.4808 81.6858 59.3746 81.8207Z" fill="#BCB5B5"/>
<path fill-rule="evenodd" clip-rule="evenodd" d="M62.1073 86.4584C63.0348 86.6608 64.2491 87.6052 64.8225 88.5665C65.3959 89.5277 65.0754 90.1179 64.131 89.865C63.1698 89.6457 61.9724 88.7014 61.4159 87.7738C60.8762 86.8632 61.1797 86.2729 62.1073 86.4584Z" fill="#BCB5B5"/>
<path fill-rule="evenodd" clip-rule="evenodd" d="M29.0193 23.5207C29.4915 23.0148 30.3685 23.4195 30.9587 24.4651C31.5658 25.4938 31.6502 26.6912 31.1611 27.1634C30.672 27.6187 29.7783 27.214 29.2049 26.219C28.6146 25.2409 28.5471 24.0266 29.0193 23.5207Z" fill="#BCB5B5"/>
<path fill-rule="evenodd" clip-rule="evenodd" d="M31.9364 28.4454C32.4424 27.99 33.3362 28.4622 33.9433 29.4741C34.5504 30.5197 34.6009 31.6833 34.0781 32.0881C33.5553 32.4928 32.6447 32.0375 32.0713 31.0593C31.481 30.0643 31.4305 28.8838 31.9364 28.4454Z" fill="#BCB5B5"/>
<path fill-rule="evenodd" clip-rule="evenodd" d="M34.8357 33.3695C35.3753 32.9816 36.3028 33.4875 36.9268 34.4825C37.5339 35.5113 37.5677 36.6243 36.9775 36.9785C36.4041 37.3326 35.4766 36.8436 34.9032 35.8654C34.3298 34.8873 34.296 33.7742 34.8357 33.3695Z" fill="#BCB5B5"/>
<path fill-rule="evenodd" clip-rule="evenodd" d="M37.7711 38.2938C38.3444 37.9396 39.3057 38.4962 39.896 39.5249C40.5031 40.5368 40.5031 41.6161 39.9129 41.9365C39.3057 42.24 38.3444 41.6835 37.7711 40.7054C37.1808 39.7104 37.1808 38.6311 37.7711 38.2938Z" fill="#BCB5B5"/>
<path fill-rule="evenodd" clip-rule="evenodd" d="M64.0117 82.5631C64.9055 82.698 66.1367 83.6593 66.7269 84.688C67.334 85.6998 67.081 86.3913 66.1535 86.2058C65.2428 86.0203 64.0117 85.0758 63.4383 84.0977C62.865 83.1027 63.101 82.4281 64.0117 82.5631Z" fill="#BCB5B5"/>
<path fill-rule="evenodd" clip-rule="evenodd" d="M66.9287 87.4876C67.8562 87.69 69.1041 88.6681 69.7112 89.6799C70.3183 90.7086 70.0316 91.3326 69.0704 91.0965C68.1091 90.8604 66.8781 89.8654 66.2878 88.8873C65.7144 87.926 66.0011 87.2852 66.9287 87.4876Z" fill="#BCB5B5"/>
<path fill-rule="evenodd" clip-rule="evenodd" d="M69.8299 92.3948C70.7911 92.6477 72.0728 93.6765 72.6631 94.7052C73.2702 95.7171 72.9498 96.3073 71.9717 96.0206C70.9935 95.7339 69.7287 94.7052 69.1385 93.7102C68.5651 92.7489 68.8686 92.1587 69.8299 92.3948Z" fill="#BCB5B5"/>
<path fill-rule="evenodd" clip-rule="evenodd" d="M31.4642 20.8897C31.9364 20.3838 32.8471 20.856 33.488 21.9353C34.1288 23.0146 34.2469 24.2795 33.741 24.7348C33.2519 25.207 32.3412 24.7517 31.7172 23.7061C31.1101 22.6605 30.992 21.3957 31.4642 20.8897Z" fill="#BCB5B5"/>
<path fill-rule="evenodd" clip-rule="evenodd" d="M34.567 26.0837C35.0729 25.6283 36.0004 26.1511 36.6581 27.2304C37.299 28.3098 37.3833 29.524 36.8605 29.9287C36.3377 30.3335 35.3933 29.8444 34.7694 28.782C34.1285 27.7532 34.0611 26.539 34.567 26.0837Z" fill="#BCB5B5"/>
<path fill-rule="evenodd" clip-rule="evenodd" d="M37.6529 31.2954C38.1926 30.8906 39.1539 31.464 39.8116 32.5264C40.4524 33.5889 40.503 34.7526 39.9465 35.1236C39.3731 35.4777 38.4118 34.9381 37.8047 33.9093C37.1807 32.8637 37.1132 31.6832 37.6529 31.2954Z" fill="#BCB5B5"/>
<path fill-rule="evenodd" clip-rule="evenodd" d="M74.8384 93.6934C75.7996 93.9463 77.115 95.0256 77.7559 96.1049C78.3967 97.1843 78.1269 97.8251 77.1319 97.5216C76.1369 97.2349 74.8384 96.1724 74.2144 95.1268C73.5904 94.0813 73.8771 93.4573 74.8384 93.6934Z" fill="#BCB5B5"/>
<path fill-rule="evenodd" clip-rule="evenodd" d="M77.925 98.9045C78.92 99.208 80.2523 100.338 80.91 101.417C81.5509 102.497 81.2473 103.087 80.2186 102.733C79.1899 102.395 77.8576 101.282 77.2505 100.237C76.6265 99.2081 76.93 98.6009 77.925 98.9045Z" fill="#BCB5B5"/>
<path fill-rule="evenodd" clip-rule="evenodd" d="M33.9095 18.2765C34.3817 17.7706 35.3093 18.2765 36.0007 19.4233C36.6921 20.5701 36.8439 21.8518 36.338 22.324C35.8321 22.7962 34.8877 22.2734 34.2468 21.1772C33.5891 20.0641 33.4373 18.7825 33.9095 18.2765Z" fill="#BCB5B5"/>
<path fill-rule="evenodd" clip-rule="evenodd" d="M84.8393 96.3066C85.8005 96.5596 87.1495 97.7233 87.8747 98.9206C88.5999 100.118 88.3639 100.86 87.3858 100.573C86.3908 100.27 85.0416 99.1061 84.3501 97.9425C83.6418 96.7789 83.8611 96.0537 84.8393 96.3066Z" fill="#BCB5B5"/>
<path fill-rule="evenodd" clip-rule="evenodd" d="M88.2966 102.074C89.2916 102.378 90.6746 103.592 91.3998 104.79C92.125 105.97 91.8719 106.678 90.8432 106.324C89.8144 105.97 88.4316 104.756 87.7402 103.609C87.0319 102.462 87.3016 101.771 88.2966 102.074Z" fill="#BCB5B5"/>
<path fill-rule="evenodd" clip-rule="evenodd" d="M98.6507 105.228C99.6457 105.532 101.096 106.83 101.906 108.163C102.698 109.461 102.496 110.237 101.484 109.9C100.455 109.562 99.0048 108.264 98.2291 106.982C97.4533 105.701 97.6557 104.925 98.6507 105.228Z" fill="#BCB5B5"/>
<path fill-rule="evenodd" clip-rule="evenodd" d="M102.479 111.552C103.508 111.906 105.009 113.256 105.785 114.571C106.577 115.87 106.341 116.595 105.296 116.19C104.233 115.785 102.749 114.453 101.99 113.205C101.231 111.94 101.434 111.198 102.479 111.552Z" fill="#BCB5B5"/>
<path fill-rule="evenodd" clip-rule="evenodd" d="M113.187 115.279C114.215 115.633 115.784 117.084 116.644 118.5C117.504 119.917 117.335 120.726 116.273 120.338C115.227 119.934 113.676 118.5 112.849 117.134C112.023 115.768 112.158 114.925 113.187 115.279Z" fill="#BCB5B5"/>
<path d="M76.2543 50.6216C76.2543 53.1681 75.546 55.0738 74.1463 56.3386C72.7465 57.5866 70.6891 58.2106 67.974 58.2106H47.1465V32.2226H67.0632C69.7109 32.2226 71.7515 32.8466 73.1681 34.1283C74.5847 35.3931 75.293 37.2144 75.293 39.6092C75.293 42.2232 74.315 43.8927 72.3756 44.6348C73.4886 45.0058 74.3656 45.6466 75.0233 46.5236C75.8496 47.6197 76.2543 48.9858 76.2543 50.6216ZM71.448 39.6092C71.448 38.4118 71.1444 37.5012 70.5373 36.8603C69.8121 36.1014 68.6486 35.7135 67.0465 35.7135H51.0254V43.117H67.0465C68.6823 43.117 69.829 42.8303 70.4699 42.2569C71.1107 41.6835 71.448 40.7897 71.448 39.6092ZM51.0254 46.6079V54.7196H67.9402C69.4074 54.7196 70.5205 54.3486 71.2626 53.6066C72.0046 52.8645 72.3756 51.8864 72.3756 50.6722C72.3756 49.4917 71.9877 48.5135 71.2457 47.7547C70.4868 46.9958 69.3906 46.6247 67.9402 46.6247H51.0254V46.6079ZM96.9301 43.6735C102.968 43.6735 106.779 44.0276 108.347 44.736C110.286 45.6129 111.265 47.7378 111.265 51.1107C111.265 54.298 110.084 56.3892 107.74 57.3673C105.817 58.1768 101.922 58.5816 96.0531 58.5816C89.7121 58.5816 85.6141 57.8901 83.7927 56.4904C82.4099 55.4279 81.7016 53.1175 81.7016 49.5423H85.5634C85.5634 51.9876 86.1032 53.5391 87.1994 54.1462C88.2787 54.7702 91.2468 55.0738 96.07 55.0738C100.792 55.0738 103.861 54.8545 105.261 54.3992C106.661 53.9439 107.369 52.8477 107.369 51.0938C107.369 49.3231 106.846 48.2269 105.801 47.7884C104.755 47.3668 101.787 47.1475 96.9132 47.1475C90.9433 47.1475 86.9294 46.4224 84.8889 44.9889C83.3205 43.9096 82.5448 41.9365 82.5448 39.1033C82.5448 36.0508 83.4891 34.0608 85.3779 33.167C87.2667 32.2732 91.1119 31.8179 96.9301 31.8179C102.715 31.8179 106.526 32.5093 108.347 33.9091C109.781 35.0221 110.506 37.1976 110.506 40.4355H106.711C106.711 38.1926 106.138 36.776 105.008 36.1857C103.878 35.5955 101.18 35.3088 96.9301 35.3088C93.2874 35.3088 91.0443 35.3594 90.2179 35.4606C87.6883 35.7641 86.4235 36.9784 86.4235 39.0864C86.4235 40.8571 87.0982 42.0714 88.4642 42.6954C89.8302 43.3699 92.6634 43.6735 96.9301 43.6735ZM120.068 45.2587C120.068 50.0482 120.591 52.8983 121.619 53.809C122.648 54.7196 125.953 55.175 131.519 55.175C136.949 55.175 140.238 54.8546 141.368 54.2306C142.497 53.6066 143.054 51.684 143.054 48.463H130.541V44.9721H146.933V48.4461C146.933 52.9151 146.022 55.7315 144.201 56.912C142.379 58.0756 138.163 58.6659 131.536 58.6659C124.807 58.6659 120.574 57.8901 118.82 56.3555C117.083 54.8208 116.206 51.0938 116.206 45.2082C116.206 39.3225 117.066 35.6292 118.803 34.1283C120.54 32.6274 124.773 31.8853 131.536 31.8853C138.18 31.8853 142.413 32.3913 144.218 33.3863C146.022 34.3813 146.933 36.8266 146.933 40.7222H143.071C143.071 38.1926 142.464 36.6748 141.249 36.152C140.035 35.6292 136.797 35.3762 131.536 35.3762C125.92 35.3762 122.614 35.8147 121.602 36.7085C120.574 37.5855 120.068 40.4355 120.068 45.2587Z" fill="#BCB5B5"/>
<path d="M46.5242 61.7525H54.383V62.7644H51.027V69.274H49.9139V62.7644H46.5411V61.7525H46.5242ZM55.6984 61.7525H62.8995V62.7644H56.8284V64.9568H62.6971V65.9686H56.8284V68.2622H62.8995V69.274H55.6984V61.7525ZM66.1543 65.5302C66.1543 66.8962 66.3061 67.7225 66.5928 67.9923C66.8795 68.2622 67.7901 68.3802 69.291 68.3802C70.6908 68.3802 71.5509 68.2959 71.8544 68.1441C72.2086 67.9586 72.3941 67.4696 72.3941 66.6601H73.5071C73.5071 67.8574 73.2541 68.5995 72.7651 68.9199C72.276 69.2403 71.1124 69.3921 69.291 69.3921C67.4359 69.3921 66.2724 69.1729 65.7664 68.7344C65.2774 68.2959 65.0244 67.2335 65.0244 65.5302C65.0244 63.8269 65.2605 62.7644 65.7495 62.3091C66.2386 61.8706 67.4191 61.6514 69.2741 61.6514C71.1123 61.6514 72.2591 61.8032 72.7651 62.1067C73.2541 62.4103 73.5071 63.1692 73.5071 64.3665H72.3941C72.3941 63.557 72.2254 63.068 71.905 62.9162C71.5677 62.7475 70.7076 62.6632 69.3079 62.6632C67.7901 62.6632 66.8963 62.7981 66.6096 63.0511C66.2892 63.3209 66.1543 64.1304 66.1543 65.5302ZM75.5646 61.7525H76.6776V64.9568H83.1367V61.7525H84.2497V69.274H83.1367V65.9518H76.6776V69.274H75.5646V61.7525ZM86.4082 61.7525H88.0442L94.5032 68.3465V61.7525H95.6163V69.274H93.9299L87.5382 62.7307V69.274H86.4251V61.7525H86.4082ZM102.429 69.3921C100.861 69.3921 99.7818 69.2909 99.1578 69.0885C98.5338 68.8862 98.146 68.4983 97.9774 67.9418C97.8593 67.5539 97.8085 66.7444 97.8085 65.5302C97.8085 64.2991 97.8593 63.4896 97.9774 63.1186C98.146 62.5452 98.5507 62.1573 99.1747 61.9549C99.7986 61.7525 100.895 61.6514 102.446 61.6514C104.015 61.6514 105.094 61.7525 105.718 61.9549C106.342 62.1573 106.73 62.5452 106.915 63.1186C107.033 63.5064 107.084 64.3159 107.084 65.5302C107.084 66.7613 107.033 67.5539 106.915 67.9249C106.747 68.4983 106.359 68.8862 105.735 69.0885C105.094 69.2909 103.998 69.3921 102.429 69.3921ZM102.429 68.3802C104.166 68.3802 105.178 68.2453 105.482 67.9923C105.785 67.7394 105.937 66.913 105.937 65.5302C105.937 64.1304 105.785 63.3041 105.482 63.0511C105.178 62.7981 104.15 62.6632 102.429 62.6632C100.692 62.6632 99.6806 62.7981 99.3601 63.0511C99.0566 63.3041 98.9048 64.1304 98.9048 65.5302C98.9048 66.913 99.0566 67.7225 99.3601 67.9923C99.6806 68.2453 100.692 68.3802 102.429 68.3802ZM108.45 61.7525H109.563V68.2622H115.314V69.274H108.433V61.7525H108.45ZM121.132 69.3921C119.564 69.3921 118.484 69.2909 117.86 69.0885C117.236 68.8862 116.848 68.4983 116.68 67.9418C116.562 67.5539 116.511 66.7444 116.511 65.5302C116.511 64.2991 116.562 63.4896 116.68 63.1186C116.848 62.5452 117.253 62.1573 117.877 61.9549C118.501 61.7525 119.597 61.6514 121.149 61.6514C122.717 61.6514 123.797 61.7525 124.421 61.9549C125.044 62.1573 125.432 62.5452 125.618 63.1186C125.736 63.5064 125.787 64.3159 125.787 65.5302C125.787 66.7613 125.736 67.5539 125.618 67.9249C125.449 68.4983 125.061 68.8862 124.437 69.0885C123.797 69.2909 122.7 69.3921 121.132 69.3921ZM121.132 68.3802C122.869 68.3802 123.881 68.2453 124.184 67.9923C124.488 67.7394 124.64 66.913 124.64 65.5302C124.64 64.1304 124.488 63.3041 124.184 63.0511C123.881 62.7981 122.852 62.6632 121.132 62.6632C119.395 62.6632 118.383 62.7981 118.079 63.0511C117.776 63.3041 117.624 64.1304 117.624 65.5302C117.624 66.913 117.776 67.7225 118.079 67.9923C118.383 68.2453 119.395 68.3802 121.132 68.3802ZM128.181 65.5302C128.181 66.913 128.333 67.7394 128.637 68.0092C128.94 68.2791 129.902 68.3971 131.504 68.3971C133.072 68.3971 134.033 68.3128 134.354 68.1273C134.674 67.9418 134.843 67.3852 134.843 66.4577H131.217V65.4458H135.973V66.4577C135.973 67.7563 135.703 68.5657 135.18 68.903C134.657 69.2403 133.426 69.409 131.504 69.409C129.547 69.409 128.333 69.1897 127.827 68.7344C127.321 68.2959 127.068 67.2166 127.068 65.5133C127.068 63.81 127.321 62.7307 127.827 62.3091C128.333 61.8706 129.564 61.6514 131.52 61.6514C133.443 61.6514 134.674 61.8031 135.197 62.0898C135.72 62.3765 135.989 63.0848 135.989 64.2148H134.86C134.86 63.4896 134.691 63.0343 134.337 62.8993C133.983 62.7476 133.055 62.6801 131.52 62.6801C129.901 62.6801 128.94 62.815 128.637 63.068C128.333 63.3041 128.181 64.1304 128.181 65.5302ZM145.99 61.7525H147.491L143.039 66.2722V69.2909H141.926V66.2722L137.49 61.7525H138.991L142.499 65.3278L145.99 61.7525Z" fill="#BCB5B5"/>
</svg>
