<svg width="229" height="121" viewBox="0 0 229 121" fill="none" xmlns="http://www.w3.org/2000/svg">
<path d="M180.533 3.20976L164.107 70.0431L147.631 3.20976H100.039V27.8991C94.2549 6.29594 73.0565 0.882488 54.101 0.57893C30.9968 0.275372 5.39677 10.2928 4.50296 40.8509H36.4609C36.4609 31.6093 44.9099 26.3308 52.8699 26.4657C62.668 26.3813 67.1708 30.5637 67.39 37.0733C67.0527 42.7229 63.7136 46.6691 52.9542 46.6691H42.2116V68.8289H51.976C57.5244 68.8289 65.2314 71.8476 65.535 79.7401C65.906 89.1504 59.3626 93.2821 51.3015 93.3665C36.9331 92.8437 33.2229 81.7975 33.2229 72.2861H0.0507812C0.185696 78.6776 -0.0166778 120.383 51.976 120.08C76.8847 120.316 95.0138 109.826 100.124 95.3902V117.516H132.115V45.438L149.806 117.533H178.408L196.149 45.5224V117.601H228.799V3.20976H180.533ZM100.157 69.8745C96.0763 61.4592 90.3424 57.7659 87.1044 56.6022C93.8839 53.5835 97.4254 49.5023 100.157 41.3737V69.8745Z" fill="#BCB5B5"/>
</svg>
