<svg width="530" height="121" viewBox="0 0 530 121" fill="none" xmlns="http://www.w3.org/2000/svg">
<path fill-rule="evenodd" clip-rule="evenodd" d="M209.843 83.8443H195.609V68.5821H209.489C216.437 68.5821 219.726 71.6852 219.726 76.1542C219.742 81.77 215.644 83.8443 209.843 83.8443ZM195.609 38.513H209.843C214.278 38.513 217.246 41.498 217.246 45.8659C217.246 49.3062 214.514 52.9826 209.506 52.9826H195.626V38.513H195.609ZM226.336 59.6272C226.336 59.6272 237.028 55.9507 237.028 43.6735C237.028 29.3219 226.893 22.3232 212.895 22.3232H176.485V100.017H216.201C228.377 100.017 240.452 91.4164 240.452 78.3297C240.452 62.9494 226.336 59.7452 226.336 59.6272Z" fill="#BCB5B5"/>
<path fill-rule="evenodd" clip-rule="evenodd" d="M282.478 83.2716C271.432 83.2716 265.985 73.406 265.985 61.1287C265.985 48.9696 271.449 39.0871 282.478 39.0871C293.524 39.0871 299.09 48.9527 299.09 61.1287C299.106 73.406 293.524 83.2716 282.478 83.2716ZM282.478 20.3677C259.947 20.3677 246.743 38.3956 246.743 61.1119C246.743 83.9462 259.947 101.856 282.478 101.856C305.127 101.856 318.214 83.9462 318.214 61.1119C318.214 38.3956 305.127 20.3677 282.478 20.3677Z" fill="#BCB5B5"/>
<path fill-rule="evenodd" clip-rule="evenodd" d="M359.684 52.8655L356.952 52.2921C350.324 50.8923 345.113 49.1891 345.113 44.4839C345.113 39.3234 350.122 37.2491 354.557 37.2491C361.05 37.2491 366.733 40.4702 370.494 44.4839L382.552 32.544C377.088 26.3379 368.099 20.3848 354.22 20.3848C337.828 20.3848 325.432 29.559 325.432 44.838C325.432 58.7174 335.5 65.6824 347.744 68.2457L350.476 68.8191C360.645 70.9609 364.355 72.4955 364.355 77.4199C364.355 82.007 360.139 85.1101 353.883 85.1101C346.26 85.1101 339.43 81.7878 334.202 75.1264L321.807 87.3024C328.637 95.4479 337.288 101.873 354.119 101.873C368.689 101.873 384.171 93.6097 384.171 76.5092C384.154 58.5993 370.764 55.1759 359.684 52.8655Z" fill="#BCB5B5"/>
<path fill-rule="evenodd" clip-rule="evenodd" d="M427.443 83.2715C418.909 83.2715 409.921 76.1716 409.921 60.6564C409.921 46.8108 418.235 39.0869 426.869 39.0869C433.7 39.0869 437.798 42.308 440.985 47.8058L456.686 37.3668C448.827 25.5449 439.619 20.5024 426.751 20.5024C403.31 20.5024 390.561 38.7496 390.561 60.6733C390.561 83.7437 404.676 101.873 426.532 101.873C441.896 101.873 449.299 96.4762 457.259 85.0085L441.44 74.3334C438.253 79.595 434.846 83.2715 427.443 83.2715Z" fill="#BCB5B5"/>
<path fill-rule="evenodd" clip-rule="evenodd" d="M508.851 22.3232V50.9083H485.308V22.3232H464.936V100.034H485.308V69.3916H508.851V100.034H529.341V22.3232H508.851Z" fill="#BCB5B5"/>
<path fill-rule="evenodd" clip-rule="evenodd" d="M102.198 18.5126C90.9666 7.17974 75.991 0.939941 60.0205 0.939941C26.9664 0.939941 0.0678711 27.8385 0.0678711 60.8926C0.0678711 76.8632 6.30767 91.8387 17.6405 103.07C28.9565 114.285 43.9995 120.457 60.0037 120.457C92.8385 120.457 119.568 93.7443 119.568 60.8926C119.585 44.8715 113.396 29.8117 102.198 18.5126ZM83.4619 22.189C83.0572 21.936 82.585 21.818 82.1297 21.818C80.7131 21.818 79.5494 22.9816 79.5494 24.3982C79.5494 24.3982 79.5494 42.5611 79.5494 42.6623H40.1038C40.1038 42.5611 40.1038 24.3982 40.1038 24.3982C40.1038 22.8636 39.2268 21.818 37.9114 21.818C37.4392 21.818 36.9839 21.9529 36.5791 22.189C22.9359 30.4694 14.7904 44.939 14.7904 60.8757C14.7904 76.8125 22.7335 90.7593 36.5791 99.1746C36.9839 99.4108 37.4392 99.5457 37.9114 99.5457C38.9907 99.5457 40.1038 98.7193 40.1038 97.3533C40.1038 97.3533 40.1038 78.7857 40.1038 78.7014H79.5494C79.5494 78.8025 79.5494 96.9654 79.5494 96.9654C79.5494 98.382 80.7131 99.5457 82.1297 99.5457C82.5176 99.5457 82.9223 99.4276 83.2596 99.2252C96.7848 91.0798 104.863 76.7282 104.863 60.8757C104.863 44.7872 96.8522 30.3176 83.4619 22.189ZM79.5494 69.5778H40.1038V51.7859H79.5494V69.5778ZM31.0814 82.3609C30.9465 82.1585 30.5248 81.5177 30.5248 81.5177C25.9546 74.6876 23.914 68.3129 23.914 60.8757C23.914 53.5566 26.2582 46.1026 30.5248 39.8965C30.5248 39.8965 30.9127 39.3232 31.0982 39.0533C31.0982 39.3738 30.997 43.438 30.997 43.438V78.6845C30.9802 78.6845 31.0645 81.6189 31.0814 82.3609ZM89.1115 81.8213C89.1115 81.8213 88.6899 82.4452 88.555 82.6645C88.555 82.4115 88.5887 81.6526 88.5887 81.6526L88.6731 78.988V42.5274C88.6731 42.5274 88.5887 39.593 88.5718 38.8509C88.7067 39.0533 89.1284 39.6942 89.1284 39.6942C93.3445 46.0014 95.756 53.7253 95.756 60.9095C95.7223 68.1949 93.4962 75.2442 89.1115 81.8213ZM60.0205 112.531C46.2255 112.531 33.1894 107.151 23.3238 97.387C13.4244 87.5889 7.97724 74.637 7.97724 60.8757C7.97724 32.1727 31.3174 8.83243 60.0205 8.83243C73.765 8.83243 86.7336 14.2796 96.5318 24.179C106.296 34.0446 111.676 47.0807 111.676 60.8757C111.676 89.3596 88.5044 112.531 60.0205 112.531Z" fill="#BCB5B5"/>
</svg>
