<svg width="302" height="120" viewBox="0 0 302 120" fill="none" xmlns="http://www.w3.org/2000/svg">
<path fill-rule="evenodd" clip-rule="evenodd" d="M39.376 29.6964V39.2416L38.5834 39.4272V29.882V29.2748V28.2798L105.299 11.7191C117.576 8.41365 127.475 6.79471 136.987 6.69352C146.498 6.59234 155.487 8.58233 166.095 11.3818C199.031 19.6791 232.237 27.6896 265.055 36.2904V46.3584L264.262 46.1729V37.2348C256.167 35.2279 185.691 17.8071 165.757 12.8659C155.335 10.117 146.33 8.36307 137.02 8.46426C127.728 8.56544 117.981 10.1676 105.872 13.4224L39.376 29.6964ZM64.3352 72.2789C64.3352 74.7579 64.3352 77.2538 64.3352 79.716C64.3352 82.1951 64.3352 84.6741 64.3352 87.1363C64.3352 87.9627 64.1666 88.5867 63.8124 88.9914C63.4751 89.3962 63.0029 89.6154 62.4295 89.6154C62.1934 89.6154 61.9405 89.6323 61.7044 89.6323C61.7044 86.3774 61.7044 83.1226 61.7044 79.8847C61.7044 76.6299 61.7044 73.375 61.7044 70.1033C62.0248 70.0696 62.3452 70.0528 62.6488 70.019C63.7787 69.9347 64.3352 70.6768 64.3352 72.2789ZM64.3183 47.3197C64.3183 50.018 64.3183 52.7331 64.3183 55.4314C64.3183 58.1466 64.3352 60.8617 64.3352 63.56C64.3352 64.4707 63.8124 64.9935 62.8006 65.0947C62.4464 65.1284 62.0754 65.179 61.7212 65.1959C61.7212 61.8567 61.7212 58.4839 61.7212 55.1279C61.7212 51.7719 61.7044 48.4159 61.7044 45.0599C62.0248 45.0093 62.3452 44.9418 62.6488 44.8912C63.745 44.6888 64.3183 45.4983 64.3183 47.3197ZM56.3247 41.1473C56.3247 45.6164 56.3247 50.0854 56.3415 54.5376C56.3415 59.0067 56.3584 63.4757 56.3584 67.9279C56.3584 72.3801 56.3584 76.8491 56.3584 81.3182C56.3584 85.7703 56.3584 90.2394 56.3584 94.6747C58.5339 94.6915 60.7262 94.6916 62.9692 94.7084C63.863 94.7084 64.7737 94.7084 65.6843 94.7253C68.5344 94.7421 69.9679 93.3087 69.9679 90.408C69.9679 87.3893 69.9679 84.3706 69.9679 81.3688C69.9679 78.35 69.9679 75.3313 69.9679 72.3126C69.9679 70.7442 69.6812 69.3276 69.1416 68.7205C68.6019 68.1134 67.4382 67.5906 65.6506 67.1353C65.6506 67.1015 65.6506 67.0678 65.6506 67.0172C67.3708 66.3932 68.5176 65.7693 69.0741 65.1453C69.6643 64.4876 69.951 63.4251 69.951 61.9748C69.951 58.8212 69.951 55.6675 69.951 52.5139C69.951 49.3602 69.951 46.2066 69.951 43.053C69.951 41.6027 69.6137 40.6077 68.956 40.0512C68.2983 39.5115 67.1684 39.208 65.5832 39.3766C64.6556 39.4778 63.745 39.7307 62.868 39.8994C60.6419 40.321 58.4664 40.7426 56.3247 41.1473ZM92.3806 34.4185C92.3806 39.4609 92.3806 44.5033 92.3806 49.5458C92.3806 54.5714 92.3806 59.6138 92.3806 64.6562C92.3806 69.6818 92.3806 74.7242 92.3806 79.7497C92.3806 84.7753 92.3806 89.8009 92.3806 94.8096C94.6236 94.8096 96.9171 94.8265 99.2612 94.8265V79.4294V63.9985V56.2746V48.5507V40.8269C99.2612 38.2467 99.2612 35.6664 99.2612 33.0693C96.9171 33.5415 94.6236 33.98 92.3806 34.4185ZM82.3126 64.4201C81.3176 64.5213 80.3226 64.6225 79.3445 64.7237C79.3445 61.452 79.3445 56.8986 79.3445 53.6438C79.3445 50.389 79.3445 47.1004 79.3445 43.8288C79.3445 43.3397 79.4962 42.9012 79.7998 42.4965C80.1033 42.0917 80.4406 41.8725 80.8116 41.805C81.1995 41.7376 81.5368 41.8388 81.8404 42.1086C82.144 42.3784 82.2957 42.7663 82.2957 43.2385C82.2957 46.5608 82.2957 49.883 82.2957 53.2053C82.2957 56.5276 82.3126 61.1147 82.3126 64.4201ZM79.3613 69.8336C80.3395 69.7492 81.3344 69.6649 82.3294 69.5806C82.3294 73.999 82.3294 77.1358 82.3294 81.5542C82.3294 85.9558 82.3294 90.3743 82.3294 94.759C84.4037 94.759 86.5287 94.7759 88.6704 94.7759C88.6704 90.2225 88.6704 85.6354 88.6704 81.082C88.6704 76.5118 88.6704 71.9247 88.6704 67.3545C88.6704 62.7843 88.6704 58.1971 88.6704 53.61C88.6704 49.0229 88.6704 44.4359 88.6704 39.8656C88.6704 37.9768 88.0465 36.712 86.7816 36.088C85.5337 35.4809 83.4593 35.4472 80.5924 36.0037C77.8435 36.5434 75.9379 37.3191 74.8923 38.3141C73.8467 39.2923 73.3239 40.7089 73.3408 42.5639C73.3408 46.9149 73.3408 51.2828 73.3408 55.6169C73.3408 59.9679 73.3408 64.3189 73.3408 68.653C73.3408 73.004 73.3408 77.355 73.3408 81.706C73.3408 86.0401 73.3408 90.3912 73.3408 94.7084C75.3307 94.7084 77.3376 94.7253 79.3782 94.7253C79.3782 90.3911 79.3782 86.0233 79.3782 81.6554C79.3613 77.3213 79.3613 74.2183 79.3613 69.8336ZM48.2972 67.7761C47.5046 67.8604 46.7289 67.9279 45.9531 68.0122C45.9531 65.1115 45.9531 60.9292 45.9362 58.0117C45.9362 55.111 45.9193 52.1935 45.9193 49.2759C45.9193 48.8543 46.0374 48.4665 46.2735 48.1123C46.5096 47.7582 46.7794 47.5558 47.083 47.5052C47.3865 47.4546 47.6733 47.5558 47.9094 47.7919C48.1455 48.0448 48.2635 48.3821 48.2635 48.8037C48.2635 51.7719 48.2635 54.7063 48.2635 57.6575C48.2804 60.6088 48.2804 64.8417 48.2972 67.7761ZM45.9531 72.5824C46.7289 72.5149 47.5046 72.4475 48.2803 72.38C48.2803 76.3094 48.2803 78.974 48.2803 82.8865C48.2803 86.7991 48.2803 90.7284 48.2803 94.6241C49.933 94.6241 51.6026 94.641 53.289 94.641C53.289 90.6104 53.2891 86.5461 53.2722 82.4818C53.2722 78.4175 53.2722 74.3532 53.2722 70.2889C53.2722 66.2414 53.2553 62.1603 53.2553 58.096C53.2553 54.0317 53.2553 49.9505 53.2385 45.8862C53.2385 44.1998 52.7494 43.0867 51.7544 42.5133C50.7594 41.9399 49.1236 41.8725 46.8469 42.311C44.6714 42.7326 43.1536 43.3903 42.3272 44.2672C41.5009 45.1273 41.113 46.3921 41.113 48.0448C41.113 51.9236 41.113 55.8193 41.113 59.6981C41.113 63.5937 41.1299 67.4725 41.1299 71.3513C41.1299 75.2301 41.1299 79.1258 41.1299 83.0046C41.1299 86.8665 41.1468 90.7622 41.1468 94.6073C42.7151 94.6073 44.3172 94.6241 45.9362 94.6241C45.9362 90.7622 45.9362 86.8665 45.9193 82.9877C45.9531 79.1089 45.9531 76.4781 45.9531 72.5824ZM253.873 48.2641C254.801 48.4496 255.712 48.6182 256.605 48.8037C256.858 52.0586 257.145 55.3134 257.398 58.5344C257.651 61.7555 257.904 64.9935 258.174 68.1977C258.427 65.0441 258.663 61.9073 258.916 58.7706C259.169 55.6338 259.439 52.5139 259.675 49.394C260.552 49.5626 261.429 49.7313 262.356 49.8999C261.833 54.6725 261.361 59.4957 260.889 64.3189C260.417 69.159 259.945 74.0159 259.472 78.9065C259.472 81.6723 259.489 84.4212 259.489 87.1869V95.4505C258.612 95.4505 257.719 95.4505 256.825 95.4336V87.0857V78.7042C256.319 73.6786 255.83 68.6362 255.341 63.5769C254.868 58.4838 254.379 53.374 253.873 48.2641ZM245.121 50.9624V46.5608C247.735 47.0667 250.315 47.5726 252.828 48.0617C252.828 49.4783 252.845 50.9118 252.845 52.3284C252.052 52.1766 251.259 52.0417 250.45 51.9068C250.467 55.5495 250.467 59.1753 250.467 62.7842V73.6617C250.467 77.2876 250.484 80.9134 250.484 84.5393C250.484 88.1651 250.501 91.7909 250.501 95.4167C249.556 95.3998 248.612 95.4167 247.684 95.3998C247.684 91.7403 247.667 88.0639 247.667 84.4043C247.667 80.7448 247.667 77.0852 247.65 73.4088C247.65 69.7492 247.634 66.0896 247.634 62.4132V51.4008C246.79 51.249 245.964 51.0973 245.121 50.9624ZM240.062 95.3661C240.045 91.2175 240.045 87.0689 240.045 82.9202C240.045 78.7716 240.028 74.623 240.028 70.4744C240.028 66.3257 240.011 62.1772 240.011 58.0285C240.011 53.8799 240.011 49.7313 240.011 45.5658C241.023 45.7681 242.035 45.9705 243.03 46.156C243.047 50.2709 243.046 54.3689 243.046 58.467C243.046 62.565 243.063 66.6799 243.063 70.7611C243.063 74.876 243.08 78.974 243.08 83.072C243.08 87.17 243.097 91.2681 243.097 95.3661C242.102 95.3661 241.09 95.3661 240.062 95.3661ZM228.88 91.1332C228.88 88.2494 228.864 85.3656 228.864 82.4649C228.864 79.5643 228.88 76.6805 228.864 73.7798C229.96 73.8641 231.056 73.9485 232.169 74.0496V81.7398V89.4299C232.169 89.7166 232.237 90.0033 232.388 90.2899C232.54 90.5766 232.709 90.7116 232.928 90.7116C233.164 90.7116 233.333 90.5935 233.468 90.3405C233.619 90.0707 233.704 89.784 233.704 89.4636C233.704 85.3824 233.704 81.3013 233.687 77.2201C233.687 76.2251 233.417 74.9434 232.877 73.3413C232.034 70.8791 231.14 68.3664 230.297 65.8704C229.977 64.9935 229.656 64.1166 229.336 63.2396C229.251 62.936 229.15 62.6156 229.049 62.2783C228.948 61.8904 228.897 61.452 228.88 60.9629C228.847 60.4738 228.83 59.7318 228.83 58.7199C228.813 55.0266 228.83 51.3165 228.83 47.6401C228.83 46.0211 229.15 44.8743 229.757 44.2504C230.381 43.6264 231.427 43.4578 232.894 43.7444C234.277 44.0143 235.272 44.5877 235.862 45.4309C236.453 46.2741 236.756 47.4715 236.756 49.0567V56.1903V63.3239C235.744 63.2059 234.699 63.0709 233.67 62.936C233.67 58.7537 233.653 54.5376 233.653 50.3384C233.653 50.0686 233.586 49.7481 233.417 49.4108C233.265 49.0736 233.063 48.8881 232.844 48.8375C232.692 48.8037 232.506 48.9049 232.338 49.1579C232.186 49.394 232.102 49.7313 232.102 50.1529C232.118 52.9524 232.118 55.7518 232.118 58.5513C232.118 60.1534 232.169 61.2159 232.321 61.7049C232.523 62.3121 232.793 62.9023 233.012 63.4926C233.923 66.0053 234.867 68.5013 235.812 70.9972C236.301 72.2789 236.604 73.0715 236.672 73.4256C236.739 73.7798 236.756 74.5556 236.756 75.7698V77.5068C236.773 79.8172 236.773 82.1108 236.773 84.4043V91.285C236.773 92.8702 236.503 94.017 235.913 94.7421C235.339 95.4505 234.311 95.8046 232.844 95.8046C231.461 95.8046 230.466 95.4673 229.808 94.7084C229.218 93.9664 228.88 92.769 228.88 91.1332ZM221.966 63.3745C221.966 60.9629 221.966 58.5345 221.966 56.1229C221.966 53.7113 221.949 51.2828 221.949 48.8543C221.949 47.5052 221.696 46.7969 221.106 46.6957C220.836 46.6451 220.533 46.6114 220.28 46.5608C220.28 49.6807 220.28 52.8006 220.28 55.9205C220.28 59.0404 220.296 62.1434 220.296 65.2633C220.499 65.297 220.718 65.3139 220.887 65.3308C221.629 65.4151 221.949 64.7574 221.966 63.3745ZM216.721 95.2481C216.704 90.7284 216.721 86.2088 216.704 81.706C216.704 77.1864 216.688 72.6668 216.688 68.1471C216.688 63.6275 216.688 59.1078 216.688 54.5882C216.688 50.0686 216.688 45.5489 216.688 41.0124C218.155 41.2991 219.622 41.5858 221.055 41.8725C221.612 41.9737 222.185 42.0917 222.708 42.1929C223.686 42.3784 224.361 42.8337 224.749 43.542C225.153 44.2503 225.339 45.3972 225.339 46.9655C225.356 49.4277 225.356 51.8899 225.356 54.3521C225.356 56.8143 225.356 59.2765 225.373 61.7218C225.373 64.7911 224.597 66.7811 222.927 67.6243C222.708 67.7424 222.438 67.8267 222.202 67.911C222.556 67.9616 222.809 68.0628 222.978 68.1471C224.58 68.9229 225.39 70.6599 225.39 73.4762C225.39 76.3937 225.39 79.2944 225.373 82.1951C225.373 85.1126 225.373 88.0133 225.39 90.914V92.6678C225.39 92.7353 225.39 92.8027 225.39 92.8871C225.44 93.6797 225.575 94.4892 225.811 95.2987C224.648 95.2987 223.484 95.2987 222.303 95.2818C222.084 94.6578 221.983 93.764 221.983 92.6341C221.983 89.295 221.966 85.9389 221.966 82.5998V72.5487C221.966 71.1321 221.629 70.39 220.971 70.3226C220.752 70.3057 220.516 70.272 220.28 70.2552C220.28 74.4207 220.28 78.603 220.296 82.7685C220.296 86.934 220.313 91.0994 220.313 95.2649C219.133 95.2649 217.902 95.2481 216.721 95.2481ZM205.507 95.1975C205.49 90.4923 205.49 85.8041 205.49 81.1158C205.49 76.4275 205.473 71.7223 205.473 67.0172C205.473 62.3289 205.473 57.6238 205.456 52.9186C205.456 48.2304 205.439 43.5083 205.439 38.82C208.137 39.3428 210.802 39.8488 213.382 40.3547C213.399 42.0074 213.399 43.6601 213.399 45.3128C212.05 45.0767 210.701 44.8406 209.318 44.5877C209.318 47.6401 209.318 50.7094 209.335 53.7619C209.335 56.8143 209.335 59.8836 209.318 62.9529C210.633 63.1047 211.949 63.2565 213.247 63.4083V68.3495C211.966 68.2314 210.65 68.0965 209.335 67.9616C209.335 71.6717 209.335 75.3819 209.352 79.0752C209.352 82.7685 209.352 86.4786 209.352 90.1719C210.701 90.2057 212.084 90.2394 213.416 90.2562V95.1975C210.836 95.2312 208.188 95.2143 205.507 95.1975ZM190.497 35.9194C191.931 36.2061 193.364 36.4759 194.781 36.7626C194.916 40.3716 195.067 43.9637 195.236 47.5389C195.388 51.131 195.557 54.7231 195.708 58.2983C195.86 61.8736 196.029 65.4488 196.181 69.0072C196.332 72.5655 196.484 76.1408 196.636 79.716C196.788 76.1745 196.939 72.633 197.091 69.1084C197.243 65.5837 197.378 62.0591 197.547 58.5344C197.698 55.0267 197.85 51.4852 197.985 47.9942C198.137 44.4865 198.305 40.9787 198.457 37.4709C199.823 37.7407 201.189 38.0106 202.538 38.2635C202.336 42.9856 202.134 47.7076 201.931 52.4296C201.746 57.1516 201.527 61.8905 201.341 66.6125C201.156 71.3682 200.936 76.1239 200.734 80.8966C200.532 85.6523 200.329 90.4249 200.127 95.1975C197.833 95.1806 195.489 95.1806 193.145 95.1638C192.926 90.2731 192.69 85.3656 192.47 80.4581C192.251 75.5505 192.032 70.6093 191.813 65.6849C191.593 60.7437 191.391 55.7856 191.155 50.8443C190.936 45.8525 190.7 40.8944 190.497 35.9194ZM182.79 95.0963C182.79 90.037 182.79 84.9777 182.79 79.9353C182.79 74.876 182.79 69.8167 182.773 64.7743C182.773 59.715 182.773 54.6556 182.773 49.6132C182.773 44.5539 182.756 39.4946 182.756 34.4353C184.291 34.722 185.758 35.0256 187.242 35.3123C187.242 40.3041 187.242 45.2959 187.242 50.2878C187.242 55.2627 187.259 60.2546 187.259 65.2465C187.259 70.2383 187.259 75.2301 187.259 80.2051V95.1469C185.809 95.1132 184.291 95.0963 182.79 95.0963ZM164.982 95.0289C164.998 89.6829 164.982 84.3537 164.982 79.0246C164.982 73.6786 164.998 68.3326 164.982 62.9866C164.965 57.6575 164.982 52.3115 164.965 46.9824C164.965 41.6364 164.982 36.3073 164.982 30.9444C166.263 31.1974 167.545 31.4503 168.793 31.6864C169.518 36.8806 170.294 42.058 171.019 47.2016C171.744 52.3115 172.503 57.4045 173.228 62.4807V47.522V32.5634C174.83 32.867 176.449 33.1874 177.967 33.4909C177.967 38.6345 177.984 43.7782 177.984 48.9049C177.984 54.0317 178.001 59.1753 178.001 64.3021C178.001 69.4288 177.984 74.5724 177.984 79.6992C177.984 84.8259 177.984 89.9527 178.001 95.0795C176.837 95.0795 175.724 95.0626 174.577 95.0626C173.818 89.9864 173.026 84.8765 172.284 79.7666C171.525 74.623 170.749 69.4288 169.957 64.2346C169.957 69.3782 169.957 74.5218 169.957 79.6486C169.957 84.7753 169.973 89.9189 169.973 95.0457C168.354 95.0288 166.668 95.0289 164.982 95.0289ZM146.346 89.4805C146.346 84.3031 146.33 79.1089 146.33 73.9316C146.33 68.7542 146.313 63.5769 146.313 58.3827C146.313 53.1885 146.313 48.0111 146.296 42.8338C146.296 37.6564 146.296 32.4622 146.296 27.2343C148.1 27.6221 149.955 27.9932 151.827 28.3473V43.0192V57.6575V72.2957C151.827 77.1695 151.844 82.0433 151.844 86.934C151.844 87.4905 151.979 87.9796 152.232 88.3843C152.502 88.8059 152.789 88.9914 153.109 89.0083C153.446 89.0083 153.733 88.8396 154.003 88.4686C154.273 88.1145 154.391 87.6591 154.391 87.1026C154.391 82.2626 154.391 77.4056 154.391 72.5487C154.391 67.7086 154.391 62.8517 154.374 58.0117C154.374 53.1716 154.374 48.3147 154.357 43.4577C154.357 38.6008 154.374 33.7608 154.357 28.887C156.128 29.2243 157.882 29.5615 159.619 29.9157C159.619 34.9075 159.619 39.9162 159.636 44.8912C159.636 49.883 159.636 54.858 159.652 59.8499C159.652 64.8417 159.652 69.8335 159.636 74.8085C159.619 79.7835 159.652 84.7753 159.652 89.7672C159.652 91.8246 159.13 93.3087 158.135 94.2362C157.123 95.1638 155.369 95.6191 152.907 95.6191C150.478 95.6022 148.741 95.1638 147.763 94.2194C146.785 93.2581 146.346 91.6897 146.346 89.4805ZM41.4166 22.7483L104.86 5.39494C117.121 2.08953 127.037 0.453708 136.548 0.352522C146.06 0.234472 155.133 1.65106 165.724 4.45054C185.691 9.69535 255.442 28.7858 262.407 30.9276L262.356 34.6208L261.53 34.3679L261.597 32.0574C253.401 29.8313 184.983 11.3312 165.184 6.13697C154.762 3.40495 145.874 2.00521 136.565 2.12326C127.273 2.22444 117.542 3.84344 105.434 7.09825L42.3272 23.6253V26.4753L41.4334 26.644L41.4166 22.7483ZM38.4822 40.7257L104.843 27.2343C117.34 24.6877 127.003 22.6472 136.498 22.5123C146.009 22.3774 154.188 24.1987 165.083 26.4922C186.517 30.9781 264.785 47.2691 264.987 47.3197V48.4327C264.768 48.3653 186.787 32.4791 165.15 28.0438C154.475 25.8514 145.807 24.1312 136.515 24.2661C127.205 24.401 117.728 26.4585 105.383 28.9207L38.4822 42.2098V40.7257ZM129.921 65.3645V70.2552V75.1289V85.315C129.921 87.0352 129.937 88.5698 129.971 90.1045C129.988 91.6728 130.022 93.2243 130.022 94.877V94.9951H129.887C126.801 95.012 123.715 94.9951 120.628 94.9614C118.824 94.9445 117.036 94.9445 115.232 94.9276H115.114V94.8096C115.114 93.1738 115.097 91.7234 115.063 90.2731C115.046 88.7722 115.013 87.2713 115.013 85.6354L115.029 66.4438C115.029 63.3576 115.046 60.2715 115.046 57.1684V56.7131C115.046 55.3808 115.249 54.0654 115.62 52.8512C116.008 51.5863 116.547 50.4227 117.239 49.4108C117.93 48.3821 118.756 47.522 119.667 46.8812C120.544 46.2741 121.522 45.8693 122.534 45.7344C123.563 45.6164 124.524 45.785 125.401 46.1897C126.312 46.6114 127.138 47.3028 127.813 48.1797C128.487 49.0735 129.027 50.1529 129.398 51.384C129.752 52.5645 129.937 53.8799 129.921 55.2628C129.921 56.9829 129.904 58.8043 129.904 60.6425C129.937 62.2277 129.921 63.7961 129.921 65.3645ZM122.736 85.8715V88.5192L126.008 88.4855C126.008 87.9964 126.008 87.5917 125.991 87.1701C125.991 86.7316 125.974 86.2763 125.974 85.8378L124.355 85.8547C123.782 85.8547 123.225 85.8715 122.736 85.8715ZM122.011 88.5361V85.9053C121.286 85.9221 120.696 85.939 120.072 85.9558L118.891 85.9896C118.891 86.4786 118.891 86.9171 118.908 87.3556C118.908 87.7772 118.925 88.1819 118.925 88.5867L120.173 88.5698C120.763 88.5529 121.32 88.5361 122.011 88.5361ZM119.212 48.1797L119.616 49.0904L120.004 49.9336C120.325 49.6807 120.662 49.4783 121.016 49.2928C121.387 49.1073 121.758 48.9893 122.146 48.9049V47.7244V46.5945C121.64 46.7126 121.134 46.8812 120.662 47.1341C120.156 47.4208 119.667 47.775 119.212 48.1797ZM116.547 52.1766L117.728 52.9018C117.812 52.6994 117.913 52.5139 118.014 52.3284C118.149 52.0923 118.284 51.873 118.436 51.6707C118.605 51.4177 118.79 51.1816 118.976 50.9455C119.144 50.7431 119.33 50.5576 119.498 50.389L119.431 50.2541C119.195 49.7481 118.976 49.2422 118.706 48.652C118.537 48.8206 118.385 48.9893 118.25 49.1748C118.065 49.4109 117.879 49.647 117.711 49.8999C117.475 50.2541 117.239 50.6251 117.036 51.0298C116.868 51.3839 116.699 51.7719 116.547 52.1766ZM127.61 51.5695C127.914 51.3165 128.217 51.0636 128.521 50.7937C128.369 50.4227 128.2 50.0686 128.015 49.7313C127.813 49.3771 127.593 49.0398 127.357 48.7363C127.189 48.517 127.02 48.3146 126.834 48.1291C126.683 47.9774 126.531 47.8256 126.362 47.6907L125.957 48.652L125.536 49.6807C125.721 49.8156 125.89 49.9673 126.059 50.136C126.244 50.3215 126.43 50.5239 126.598 50.7431C126.733 50.9118 126.868 51.1141 126.986 51.3165C127.087 51.4852 127.189 51.6538 127.273 51.8224L127.61 51.5695ZM128.234 55.482L129.313 55.4145V55.2965C129.313 54.5882 129.263 53.8799 129.162 53.2222C129.061 52.5982 128.926 52.0079 128.74 51.4514L127.56 52.4464C127.745 52.9018 127.897 53.3908 128.015 53.9136C128.133 54.4196 128.217 54.9423 128.234 55.482ZM115.704 56.7468L116.227 56.6794L116.783 56.6119C116.817 56.0722 116.901 55.5494 117.002 55.0435C117.121 54.5207 117.272 53.9979 117.458 53.5257C117.222 53.374 117.019 53.2559 116.8 53.121L116.311 52.8174C116.126 53.4077 115.974 54.0148 115.856 54.6388C115.738 55.2965 115.687 55.9711 115.687 56.6625V56.7468H115.704ZM128.234 58.1971C128.588 58.1803 128.942 58.1634 129.297 58.1465L129.313 56.1397C129.077 56.1566 128.824 56.1734 128.588 56.1903L128.251 56.2072C128.217 56.8143 128.251 57.5563 128.234 58.1971ZM115.687 59.3777L116.75 59.2428V59.1415C116.75 58.5513 116.75 57.961 116.766 57.3539V57.3033L115.704 57.4383C115.704 57.8767 115.704 58.3321 115.704 58.7706L115.687 59.3777ZM128.217 63.6106L128.74 63.5769L129.28 63.56C129.28 61.8399 129.297 61.4688 129.297 60.6931L129.313 58.8549L128.251 58.9055V59.2934C128.234 60.9798 128.217 61.7724 128.217 63.6106ZM115.687 64.6056C116.024 64.5719 116.379 64.5381 116.75 64.4875C116.75 62.6156 116.75 62.1603 116.766 60.6425V59.9342L115.704 60.0522L115.687 64.6056ZM128.217 69.0072L128.74 68.9903C128.909 68.9903 129.094 68.9735 129.28 68.9735V64.2683L128.217 64.3189V69.0072ZM115.67 69.8336L116.716 69.7492V65.1959L115.67 65.2971V69.8336ZM128.217 74.2351L128.538 74.2182C128.774 74.2182 129.027 74.2014 129.28 74.2014V69.6649L128.217 69.6986V74.2351ZM115.67 74.876C116.024 74.8591 116.362 74.8422 116.733 74.8085V70.4407L115.687 70.525L115.67 74.876ZM128.217 79.6823L129.28 79.6654V74.8929C129.094 74.8929 128.926 74.8928 128.74 74.9097C128.571 74.9097 128.386 74.9266 128.217 74.9266V79.6823ZM115.67 80.1545C116.024 80.1377 116.362 80.1208 116.733 80.1039V75.4831L115.67 75.5505C115.67 77.4225 115.67 77.3888 115.67 80.1545ZM128.217 85.0958L129.28 85.0789V80.3569L128.217 80.3738V85.0958ZM115.67 85.3825L116.733 85.3487C116.733 83.6117 116.733 83.325 116.733 80.7954L115.67 80.846V85.3825ZM128.234 88.4686H128.757H129.28C129.28 87.9796 129.28 87.5579 129.263 87.1363C129.263 86.681 129.246 86.2425 129.246 85.7872C128.892 85.7872 128.538 85.7872 128.184 85.7872C128.184 86.2931 128.184 86.7147 128.2 87.1363C128.234 87.5917 128.234 88.0301 128.234 88.4686ZM115.687 88.6373L116.75 88.6204C116.75 88.1482 116.75 87.7434 116.733 87.3387C116.733 86.9002 116.716 86.4786 116.716 86.0402L115.653 86.0739C115.653 86.5461 115.653 86.9846 115.67 87.423C115.687 87.8278 115.687 88.2325 115.687 88.6373ZM122.905 46.4933L122.888 48.8206C123.276 48.8037 123.664 48.8375 124.018 48.9386C124.389 49.023 124.726 49.1747 125.064 49.3602C125.35 48.6688 125.637 47.9774 125.907 47.3534C125.452 47.0498 124.962 46.8137 124.457 46.6788C123.951 46.527 123.445 46.4596 122.905 46.4933ZM118.588 94.1857C118.588 93.3087 118.571 92.5498 118.554 91.7909C118.537 91.0151 118.52 90.2394 118.52 89.3793C118.031 89.3793 117.576 89.413 117.121 89.4299C116.665 89.4468 116.193 89.4636 115.687 89.4805C115.687 90.3574 115.704 91.1332 115.721 91.909C115.738 92.6679 115.755 93.4267 115.755 94.2531C116.244 94.2531 116.699 94.2362 117.154 94.2194C117.627 94.2025 118.082 94.2025 118.588 94.1857ZM119.026 89.3793C119.026 90.2731 119.043 91.032 119.06 91.8078C119.077 92.5835 119.094 93.3593 119.094 94.2025C119.532 94.2025 119.971 94.2194 120.426 94.2194C120.983 94.2362 121.539 94.2362 122.079 94.2362C122.079 93.3593 122.062 92.5835 122.045 91.8246C122.028 91.032 122.011 90.2562 122.011 89.3961C121.488 89.3961 120.932 89.3961 120.375 89.3961C119.937 89.3793 119.482 89.3793 119.026 89.3793ZM125.941 94.2362C125.941 93.3424 125.924 92.5667 125.907 91.7909C125.89 90.9983 125.873 90.2056 125.873 89.3455C125.165 89.3455 124.44 89.3624 123.715 89.3624L122.77 89.3793C122.77 90.2731 122.787 91.0489 122.804 91.8078C122.821 92.6004 122.838 93.3762 122.838 94.2362H124.389C124.912 94.2362 125.435 94.2362 125.941 94.2362ZM126.345 89.3455C126.345 90.2394 126.362 91.0151 126.379 91.7909C126.396 92.5835 126.413 93.3762 126.413 94.2362H127.88C128.369 94.2362 128.875 94.2362 129.364 94.2362C129.364 93.3424 129.347 92.5498 129.33 91.774C129.313 90.9814 129.297 90.1719 129.297 89.3118L126.345 89.3455ZM125.839 53.9136C125.974 54.1666 126.092 54.4533 126.177 54.74C126.261 55.0267 126.329 55.3133 126.379 55.6169L127.695 55.5157C127.661 55.0266 127.593 54.5376 127.492 54.0822C127.391 53.6438 127.273 53.2222 127.104 52.8174C126.902 52.9861 126.716 53.1378 126.531 53.3065C126.312 53.5257 126.076 53.7281 125.839 53.9136ZM124.473 52.3452C124.625 52.4295 124.76 52.5476 124.878 52.6488C125.03 52.7837 125.182 52.9355 125.317 53.1041C125.367 53.1547 125.401 53.2222 125.452 53.2728L125.502 53.3403L125.974 52.9355C126.261 52.6825 126.548 52.4464 126.834 52.1934C126.75 52.0248 126.666 51.8562 126.565 51.7044C126.447 51.5189 126.328 51.3503 126.21 51.1816C126.059 50.9793 125.89 50.8106 125.721 50.6251C125.586 50.4902 125.452 50.3721 125.3 50.2541L124.473 52.3452ZM122.871 51.8562C123.057 51.8562 123.242 51.873 123.411 51.9068C123.596 51.9405 123.782 51.9911 123.951 52.0754L124.828 49.9674C124.524 49.7987 124.22 49.6807 123.883 49.5964C123.563 49.5121 123.225 49.4783 122.888 49.4952L122.871 51.8562ZM121.084 52.3621C121.235 52.2609 121.404 52.1766 121.573 52.1091C121.758 52.0248 121.944 51.9742 122.129 51.9236L122.146 49.5626C121.826 49.6469 121.505 49.765 121.202 49.9168C120.881 50.0686 120.561 50.2709 120.274 50.507L121.084 52.3621ZM119.465 53.9811L119.515 53.8968C119.549 53.8293 119.6 53.7787 119.633 53.7113C119.785 53.5089 119.937 53.3234 120.106 53.1547C120.24 53.0029 120.392 52.868 120.544 52.7331L120.122 51.8056L119.735 50.9455C119.6 51.0804 119.465 51.2322 119.33 51.384C119.144 51.5864 118.976 51.8056 118.824 52.0417C118.689 52.2272 118.571 52.4296 118.453 52.6319C118.352 52.8174 118.267 52.9861 118.166 53.1884C118.385 53.3233 118.588 53.4583 118.807 53.5932L119.465 53.9811ZM118.571 56.3927C118.621 56.0723 118.689 55.735 118.773 55.4145C118.858 55.111 118.976 54.7906 119.111 54.5207C118.874 54.3689 118.655 54.234 118.419 54.0991L117.947 53.8125C117.778 54.2509 117.643 54.6894 117.542 55.1616C117.441 55.6169 117.374 56.0723 117.34 56.5445L117.694 56.4939C117.981 56.477 118.284 56.4264 118.571 56.3927ZM118.487 59.0572V58.3152C118.487 58.0791 118.52 57.6744 118.487 57.4383C118.487 57.4214 118.487 57.4214 118.487 57.4045C118.487 57.3371 118.487 57.2528 118.487 57.1853V57.1178C118.2 57.1516 117.913 57.1853 117.627 57.219L117.289 57.2527V57.3033C117.289 57.3033 117.289 57.3202 117.289 57.3371C117.289 57.7587 117.289 58.1971 117.289 58.6187V59.1922C117.492 59.1753 117.677 59.1416 117.863 59.1247C118.065 59.1078 118.267 59.091 118.487 59.0572ZM118.47 59.7487C118.082 59.7824 117.677 59.833 117.272 59.8836V61.1316C117.272 62.1603 117.272 62.7168 117.272 64.437L118.47 64.3189V62.1603V59.7487ZM118.47 65.0272L117.272 65.1453C117.272 66.6631 117.272 67.1352 117.272 67.9447V69.6986L118.453 69.5974L118.47 65.0272ZM118.47 70.2889L117.289 70.3901C117.289 72.1102 117.289 72.3632 117.289 73.3076V74.7748L117.879 74.741L118.487 74.7073L118.47 70.2889ZM118.453 75.3819C118.166 75.3988 117.879 75.4156 117.61 75.4325L117.272 75.4494C117.272 76.984 117.272 77.4731 117.272 78.2994V80.0702L118.47 80.0196L118.453 75.3819ZM118.453 80.7279L117.255 80.7785C117.255 82.4649 117.255 82.9034 117.255 83.9827V85.3487L118.453 85.315V80.7279ZM118.487 88.5867C118.487 88.1313 118.487 87.7434 118.47 87.3556C118.47 86.9171 118.453 86.4786 118.453 85.9896L117.255 86.0233C117.255 86.4955 117.255 86.9339 117.272 87.3893C117.272 87.794 117.289 88.2156 117.289 88.6035L118.487 88.5867ZM126.43 85.1295L127.678 85.1126V80.4075L126.43 80.4412V85.1295ZM126.43 79.7329L127.678 79.6992V74.9435L126.43 74.994V79.7329ZM126.43 74.3026C126.632 74.2857 126.834 74.2857 127.054 74.2688C127.256 74.2688 127.475 74.252 127.678 74.252V72.3463C127.678 71.7392 127.678 71.4863 127.678 69.7324L127.054 69.7661L126.43 69.7998V74.3026ZM126.43 69.0915L127.678 69.0409V64.3527L126.43 64.4201V69.0915ZM126.43 63.7118L127.678 63.6443C127.678 62.565 127.678 61.941 127.695 61.3339C127.695 60.6931 127.694 60.0691 127.711 58.9561L126.463 59.0404C126.447 60.8954 126.447 61.4857 126.447 63.0878L126.43 63.7118ZM126.463 56.6962C126.463 57.2359 126.463 57.7924 126.447 58.3321L127.07 58.2815L127.711 58.2309C127.711 57.5563 127.728 56.8986 127.728 56.224L127.104 56.2746L126.463 56.3252V56.4264V56.6962ZM118.908 80.711V85.2981L119.92 85.2644C120.628 85.2475 121.337 85.2138 122.045 85.2138V80.5761C121.252 80.6099 120.477 80.6436 119.684 80.6773L118.908 80.711ZM118.908 75.3651V80.0027L119.937 79.9522C120.628 79.9184 121.337 79.8847 122.045 79.851V75.1626C121.117 75.2132 120.207 75.2807 119.279 75.3313L118.908 75.3651ZM118.908 70.2552V74.6736C119.33 74.6568 119.751 74.623 120.173 74.5893C120.797 74.5555 121.404 74.505 122.045 74.4713V70.019C121.286 70.0696 120.51 70.1202 119.751 70.1877L118.908 70.2552ZM118.908 64.9766C118.908 66.5619 118.908 65.7018 118.908 69.5637L119.954 69.4794C120.645 69.4288 121.32 69.3613 122.045 69.3276V64.6899C121.404 64.7405 120.797 64.808 120.19 64.8586C119.735 64.9092 119.279 64.9429 118.908 64.9766ZM118.925 59.6981L118.908 64.2683L119.583 64.2008C120.409 64.1165 121.219 64.0491 122.028 63.9816C122.028 62.9698 122.028 61.9579 122.045 60.946V59.3439C121.134 59.4283 120.207 59.5463 119.279 59.6475L118.925 59.6981ZM118.942 57.0504V57.1684C118.942 57.2359 118.942 57.3034 118.942 57.3877C118.942 57.6912 118.942 58.0116 118.942 58.3152V59.0235C119.347 58.9729 119.785 58.9392 120.207 58.8886C120.814 58.8211 121.438 58.7537 122.062 58.6862L122.079 56.7131C121.151 56.8143 120.207 56.9323 119.262 57.0335L118.942 57.0504ZM119.532 54.8074C119.414 55.0435 119.313 55.3133 119.229 55.5663C119.144 55.8193 119.077 56.0723 119.043 56.3421L119.347 56.3083C120.055 56.224 120.763 56.1397 121.488 56.0554L121.252 55.9036C120.645 55.5326 120.089 55.1616 119.532 54.8074ZM120.763 53.1716C120.645 53.2728 120.527 53.3908 120.409 53.5089C120.257 53.6606 120.122 53.8293 119.988 54.0148C119.937 54.0823 119.903 54.1497 119.853 54.2172C120.224 54.4533 120.578 54.6725 120.915 54.8917L121.741 55.4314C121.59 55.0941 121.455 54.7568 121.303 54.4027C121.134 53.9979 120.949 53.5932 120.763 53.1716ZM122.112 52.4464C121.978 52.4802 121.843 52.5307 121.708 52.5813C121.556 52.6488 121.421 52.7163 121.269 52.8006C121.488 53.2728 121.725 53.8462 121.977 54.4195L122.129 54.7737V53.8968C122.129 53.4077 122.112 52.9186 122.112 52.4464ZM123.748 52.5476C123.613 52.497 123.462 52.4464 123.31 52.4127C123.158 52.379 123.006 52.3621 122.854 52.3621C122.854 52.8512 122.838 53.3403 122.838 53.8125L122.821 54.7063L123.107 54.0148C123.327 53.5426 123.546 53.0367 123.748 52.5476ZM125.148 53.6606C125.081 53.5594 124.912 53.374 124.743 53.2053C124.575 53.0367 124.389 52.8849 124.271 52.8006C124.086 53.2559 123.883 53.6944 123.698 54.1497C123.546 54.5207 123.394 54.8749 123.225 55.2459C123.462 55.0604 123.681 54.8749 123.917 54.6725C124.338 54.3521 124.743 53.9979 125.148 53.6606ZM125.924 55.6675C125.873 55.3977 125.823 55.1447 125.738 54.9086C125.671 54.6725 125.57 54.4533 125.468 54.2341C125.064 54.5713 124.642 54.9086 124.237 55.2628C123.984 55.4651 123.748 55.6675 123.495 55.8699C123.849 55.8362 124.22 55.8193 124.575 55.7855C125.03 55.735 125.485 55.7012 125.924 55.6675ZM125.991 58.349C125.991 57.7924 126.008 57.2191 126.008 56.6625C126.008 56.5782 126.008 56.5107 126.008 56.4433V56.3589L124.929 56.4433C124.237 56.4939 123.529 56.5613 122.821 56.6119L122.804 58.585C123.327 58.5344 123.866 58.5007 124.423 58.467C124.946 58.4332 125.468 58.3996 125.991 58.349ZM125.974 63.7286L125.991 59.0404C125.485 59.0741 124.946 59.1247 124.406 59.1584C123.866 59.1921 123.344 59.2427 122.787 59.2765L122.77 63.9142C123.512 63.8636 124.288 63.813 125.064 63.7624L125.974 63.7286ZM125.974 69.1084V64.437L124.946 64.5044C124.22 64.5382 123.495 64.5887 122.787 64.6393V69.2939C123.58 69.2433 124.389 69.2095 125.199 69.1589L125.974 69.1084ZM125.974 74.3194V69.8167L125.232 69.8504C124.423 69.8841 123.613 69.9347 122.804 69.9853V74.4544C123.411 74.4206 124.018 74.4038 124.642 74.3869C125.064 74.3532 125.519 74.3363 125.974 74.3194ZM125.974 79.7497V75.0109C125.452 75.0277 124.929 75.0446 124.406 75.0783C123.866 75.0952 123.327 75.1121 122.787 75.1458V79.851C123.512 79.8341 124.237 79.8172 124.962 79.7835L125.974 79.7497ZM125.974 85.1295V80.4412L124.962 80.4749C124.237 80.4918 123.512 80.5086 122.787 80.5424V85.1969C123.31 85.1801 123.833 85.1801 124.372 85.1632C124.895 85.1464 125.435 85.1463 125.974 85.1295ZM127.695 88.4686C127.695 87.9796 127.694 87.5579 127.678 87.1532C127.678 86.6979 127.661 86.2594 127.661 85.8041C127.239 85.8209 126.834 85.8209 126.413 85.8209C126.413 86.31 126.413 86.7653 126.43 87.2207C126.43 87.6423 126.447 88.0639 126.447 88.4855L127.695 88.4686ZM0.453125 117.914H301.566V119.853H0.453125V117.914ZM2.78041 117.239V115.283H3.13455H299.289V117.239H2.78041ZM286.573 108.807H285.494V103.056H286.573V108.807ZM284.533 104.034H282.964V108.824H281.885V104.034H280.317V103.056H284.533V104.034ZM279.507 108.807H275.477V103.056H279.406V104.034H276.539V105.316H279.204V106.277H276.539V107.846H279.507V108.807ZM274.465 104.034H272.896V108.824H271.817V104.034H270.249V103.056H274.465V104.034ZM269.237 108.807H268.242V105.046L266.1 108.807H265.021V103.056H266.016V106.884L268.174 103.056H269.237V108.807ZM263.79 107.053C263.469 108.284 262.744 108.908 261.58 108.908C260.822 108.908 260.214 108.621 259.776 108.048C259.371 107.508 259.152 106.834 259.152 105.991C259.152 105.097 259.354 104.389 259.776 103.849C260.214 103.259 260.838 102.972 261.648 102.972C262.306 102.972 262.828 103.174 263.233 103.596C263.469 103.849 263.655 104.203 263.773 104.658L262.71 104.928C262.643 104.625 262.525 104.389 262.322 104.22C262.12 104.051 261.884 103.967 261.597 103.967C260.72 103.967 260.265 104.608 260.265 105.906C260.265 107.255 260.703 107.913 261.564 107.913C262.171 107.913 262.575 107.508 262.744 106.699L263.79 107.053ZM257.061 104.844C257.061 104.641 257.01 104.473 256.892 104.338C256.791 104.203 256.639 104.119 256.454 104.068C256.319 104.051 256.066 104.034 255.678 104.034H255.155V105.67H255.745C256.066 105.67 256.268 105.653 256.386 105.636C256.622 105.586 256.808 105.468 256.926 105.299C257.027 105.164 257.061 105.013 257.061 104.844ZM258.174 104.827C258.174 105.485 257.971 105.974 257.55 106.277C257.364 106.412 257.179 106.513 256.993 106.547C256.74 106.598 256.369 106.631 255.88 106.631H255.189V108.807H254.109V103.056H255.83C256.47 103.056 256.909 103.09 257.094 103.141C257.449 103.242 257.718 103.444 257.904 103.781C258.089 104.068 258.174 104.422 258.174 104.827ZM252.895 108.807H248.865V103.056H252.794V104.034H249.927V105.316H252.592V106.277H249.927V107.846H252.895V108.807ZM246.554 107.087C246.554 106.733 246.402 106.497 246.099 106.379C245.947 106.328 245.627 106.294 245.155 106.294H244.295V107.846H245.289C245.66 107.846 245.913 107.829 246.031 107.812C246.369 107.745 246.554 107.492 246.554 107.087ZM246.335 104.675C246.335 104.304 246.15 104.085 245.795 104.034C245.694 104.018 245.391 104.018 244.885 104.018H244.278V105.333H244.969C245.391 105.333 245.644 105.333 245.745 105.316C246.15 105.265 246.335 105.063 246.335 104.675ZM247.65 107.154C247.65 107.424 247.6 107.677 247.482 107.93C247.364 108.183 247.212 108.369 247.027 108.52C246.841 108.672 246.588 108.756 246.301 108.79C246.082 108.807 245.644 108.824 245.003 108.824H243.198V103.073H245.323C245.694 103.073 245.947 103.09 246.099 103.107C246.386 103.141 246.639 103.242 246.824 103.377C247.195 103.663 247.397 104.034 247.397 104.54C247.397 104.81 247.33 105.063 247.195 105.282C247.06 105.502 246.875 105.67 246.655 105.788C246.976 105.889 247.212 106.058 247.397 106.294C247.566 106.513 247.65 106.8 247.65 107.154ZM241.815 108.807H240.82V105.046L238.679 108.807H237.599V103.056H238.594V106.884L240.753 103.056H241.815V108.807ZM236.166 108.807H235.087V106.294H232.995V108.807H231.916V103.056H232.995V105.316H235.087V103.056H236.166V108.807ZM231.09 103.056L229.302 107.424C229.117 107.879 228.948 108.2 228.796 108.385C228.543 108.706 228.257 108.874 227.919 108.874C227.599 108.874 227.363 108.858 227.177 108.807V107.947C227.329 107.964 227.464 107.964 227.599 107.964C227.852 107.964 228.054 107.896 228.172 107.778C228.257 107.677 228.358 107.475 228.442 107.188L226.486 103.056H227.683L228.914 106.041L229.977 103.056H231.09ZM223.905 110.072H223.012V108.824H222.607L221.966 107.34C221.932 107.272 221.865 107.137 221.764 106.952C221.646 106.699 221.544 106.547 221.494 106.48C221.393 106.362 221.241 106.311 221.022 106.311V108.841H219.942V103.09H221.022V105.535C221.291 105.502 221.494 105.384 221.612 105.181C221.646 105.131 221.73 104.894 221.899 104.439C222.101 103.866 222.303 103.512 222.506 103.326C222.725 103.141 223.113 103.039 223.636 103.039C223.653 103.039 223.72 103.039 223.787 103.039V103.899H223.636C223.416 103.899 223.248 103.933 223.13 104.001C223.012 104.085 222.91 104.22 222.826 104.439C222.792 104.507 222.742 104.692 222.641 104.996C222.556 105.232 222.489 105.4 222.421 105.502C222.337 105.637 222.202 105.755 222.034 105.873C222.287 105.957 222.506 106.142 222.708 106.429C222.809 106.581 222.944 106.851 223.13 107.256L223.416 107.863H223.889V110.072H223.905ZM215.76 107.087C215.76 106.766 215.625 106.547 215.372 106.429C215.204 106.345 214.951 106.311 214.596 106.311H213.5V107.846H214.546C214.833 107.846 215.018 107.846 215.119 107.829C215.322 107.795 215.49 107.694 215.608 107.559C215.709 107.424 215.76 107.272 215.76 107.087ZM216.856 107.104C216.856 107.441 216.772 107.745 216.62 108.048C216.451 108.352 216.232 108.571 215.946 108.672C215.709 108.756 215.372 108.807 214.934 108.807H212.421V103.056H213.5V105.35H214.934C215.709 105.35 216.266 105.603 216.586 106.109C216.772 106.412 216.856 106.733 216.856 107.104ZM218.543 108.807H217.463V103.056H218.543V108.807ZM211.004 108.807H209.925V104.018H208.34V106.48C208.34 107.104 208.34 107.475 208.323 107.593C208.272 108.082 208.154 108.419 207.952 108.588C207.783 108.74 207.513 108.824 207.159 108.824C207.024 108.824 206.805 108.807 206.468 108.79V107.896H206.704C206.923 107.896 207.075 107.863 207.159 107.795C207.227 107.728 207.277 107.559 207.277 107.323V106.328V103.039H210.987V108.807H211.004ZM204.073 106.53L203.348 104.389L202.64 106.53H204.073ZM206.046 108.807H204.882L204.41 107.492H202.302L201.864 108.807H200.717L202.791 103.056H203.921L206.046 108.807ZM200.346 108.807H199.081L198.44 107.323C198.424 107.306 198.407 107.255 198.373 107.205C198.356 107.171 198.305 107.087 198.238 106.935C198.12 106.682 198.036 106.53 197.968 106.463C197.867 106.345 197.698 106.294 197.496 106.294V108.824H196.417V103.073H197.496V105.518C197.766 105.485 197.968 105.367 198.086 105.164C198.12 105.114 198.221 104.861 198.373 104.422C198.575 103.849 198.778 103.478 198.98 103.309C199.199 103.124 199.587 103.023 200.11 103.023C200.127 103.023 200.177 103.023 200.262 103.023V103.883H200.11C199.891 103.883 199.739 103.899 199.621 103.967C199.503 104.034 199.385 104.186 199.284 104.422C199.267 104.473 199.199 104.658 199.098 104.979C199.014 105.215 198.946 105.384 198.879 105.485C198.794 105.62 198.66 105.738 198.491 105.856C198.744 105.94 198.963 106.126 199.166 106.412C199.267 106.564 199.402 106.834 199.587 107.239L200.346 108.807ZM195.034 108.807H194.039V105.046L191.897 108.807H190.818V103.056H191.813V106.884L193.971 103.056H195.034V108.807ZM189.941 104.018H187.428V108.807H186.349V103.056H189.941V104.018ZM184.038 105.906C184.038 105.333 183.92 104.878 183.718 104.54C183.465 104.152 183.094 103.95 182.588 103.95C182.082 103.95 181.694 104.152 181.441 104.54C181.222 104.878 181.104 105.35 181.104 105.923C181.104 106.48 181.222 106.935 181.441 107.289C181.694 107.694 182.082 107.896 182.571 107.896C183.077 107.896 183.448 107.694 183.701 107.289C183.937 106.952 184.038 106.48 184.038 105.906ZM185.151 105.94C185.151 106.834 184.932 107.542 184.494 108.082C184.038 108.638 183.397 108.908 182.588 108.908C181.778 108.908 181.138 108.638 180.682 108.099C180.244 107.576 180.008 106.868 180.008 105.974C180.008 105.013 180.261 104.254 180.75 103.714C181.188 103.225 181.812 102.972 182.571 102.972C183.397 102.972 184.021 103.242 184.494 103.815C184.932 104.321 185.151 105.046 185.151 105.94ZM179.367 104.018H176.854V108.807H175.775V103.056H179.367V104.018ZM172.891 106.53L172.166 104.389L171.457 106.53H172.891ZM174.864 108.807H173.7L173.228 107.492H171.12L170.682 108.807H169.552L171.626 103.056H172.756L174.864 108.807ZM167.528 107.846V104.018H165.943C165.943 105.771 165.791 107.036 165.504 107.846H167.528ZM169.063 110.072H168.169V108.824H164.83V110.072H163.936V107.846H164.391C164.627 107.306 164.796 106.631 164.863 105.788C164.914 105.316 164.931 104.591 164.931 103.663V103.056H168.607V107.846H169.08V110.072H169.063ZM163.278 108.807H159.248V103.056H163.177V104.034H160.31V105.316H162.975V106.277H160.31V107.846H163.278V108.807ZM157.848 108.807H156.769V104.018H154.694V108.807H153.615V103.056H157.831V108.807H157.848ZM148.454 110.072H147.561V108.824H147.156L146.532 107.34C146.498 107.272 146.431 107.137 146.33 106.952C146.212 106.699 146.11 106.547 146.06 106.48C145.959 106.362 145.79 106.311 145.588 106.311V108.841H144.508V103.09H145.588V105.535C145.857 105.502 146.06 105.384 146.178 105.181C146.195 105.131 146.296 104.894 146.465 104.439C146.667 103.866 146.869 103.512 147.072 103.326C147.291 103.141 147.679 103.039 148.201 103.039C148.218 103.039 148.269 103.039 148.353 103.039V103.899H148.201C147.982 103.899 147.814 103.933 147.696 104.001C147.578 104.085 147.476 104.22 147.392 104.439C147.358 104.507 147.308 104.692 147.207 104.996C147.122 105.232 147.055 105.4 146.987 105.502C146.903 105.637 146.768 105.755 146.599 105.873C146.852 105.957 147.072 106.142 147.274 106.429C147.375 106.581 147.51 106.851 147.696 107.256L147.982 107.863H148.454V110.072ZM140.292 107.087C140.292 106.766 140.157 106.547 139.904 106.429C139.736 106.345 139.483 106.311 139.128 106.311H138.032V107.846H139.078C139.365 107.846 139.55 107.846 139.651 107.829C139.854 107.795 140.022 107.694 140.14 107.559C140.242 107.424 140.292 107.272 140.292 107.087ZM141.405 107.104C141.405 107.441 141.321 107.745 141.169 108.048C141 108.352 140.781 108.571 140.494 108.672C140.258 108.756 139.921 108.807 139.483 108.807H136.97V103.056H138.049V105.35H139.483C140.258 105.35 140.815 105.603 141.135 106.109C141.304 106.412 141.405 106.733 141.405 107.104ZM143.092 108.807H142.012V103.056H143.092V108.807ZM135.941 104.034H134.373V108.824H133.293V104.034H131.725V103.056H135.941V104.034ZM131.118 104.034H129.55V108.824H128.47V104.034H126.902V103.056H131.118V104.034ZM125.89 108.807H124.811V104.018H123.225V106.48C123.225 107.104 123.225 107.475 123.209 107.593C123.158 108.082 123.04 108.419 122.838 108.588C122.669 108.74 122.399 108.824 122.045 108.824C121.927 108.824 121.691 108.807 121.354 108.79V107.896H121.59C121.809 107.896 121.977 107.863 122.045 107.795C122.112 107.728 122.163 107.559 122.163 107.323V106.328V103.039H125.873V108.807H125.89ZM120.949 103.056L118.993 106.395H120.055V107.306H118.993V108.824H117.93V107.306H116.868V106.395H117.93L115.991 103.056H117.239L118.487 105.333L119.718 103.056H120.949ZM113.444 110.072H112.55V108.824H112.146L111.522 107.34C111.488 107.272 111.42 107.137 111.319 106.952C111.201 106.699 111.1 106.547 111.049 106.48C110.948 106.362 110.796 106.311 110.577 106.311V108.841H109.498V103.09H110.577V105.535C110.847 105.502 111.049 105.384 111.167 105.181C111.201 105.131 111.286 104.894 111.454 104.439C111.657 103.866 111.859 103.512 112.061 103.326C112.28 103.141 112.668 103.039 113.191 103.039C113.225 103.039 113.275 103.039 113.343 103.039V103.899H113.191C112.972 103.899 112.803 103.933 112.685 104.001C112.567 104.085 112.466 104.22 112.382 104.439C112.348 104.507 112.297 104.692 112.196 104.996C112.112 105.232 112.044 105.4 111.977 105.502C111.893 105.637 111.758 105.755 111.589 105.873C111.842 105.957 112.061 106.142 112.264 106.429C112.365 106.581 112.5 106.851 112.685 107.256L112.972 107.863H113.444V110.072ZM106.648 106.53L105.923 104.389L105.214 106.53H106.648ZM108.621 108.807H107.457L106.985 107.492H104.877L104.439 108.807H103.309L105.383 103.056H106.513L108.621 108.807ZM102.6 107.222C102.6 107.812 102.381 108.25 101.96 108.554C101.605 108.79 101.133 108.925 100.56 108.925C100.003 108.925 99.5648 108.824 99.2781 108.638C98.9408 108.419 98.6878 108.048 98.5192 107.508L99.4974 107.154C99.5817 107.458 99.6997 107.66 99.8684 107.795C100.037 107.93 100.239 107.981 100.526 107.981C100.796 107.981 101.015 107.93 101.184 107.812C101.386 107.677 101.504 107.475 101.504 107.205C101.504 106.682 101.15 106.412 100.442 106.412H100.206V105.552H100.324C100.61 105.552 100.846 105.485 101.015 105.35C101.217 105.198 101.319 104.962 101.319 104.675C101.319 104.439 101.234 104.237 101.066 104.102C100.914 103.984 100.728 103.916 100.492 103.916C100.037 103.916 99.7503 104.152 99.6322 104.642L98.5867 104.389C98.8059 103.444 99.4467 102.989 100.509 102.989C100.998 102.989 101.42 103.107 101.774 103.326C102.196 103.596 102.398 103.984 102.398 104.49C102.398 105.046 102.111 105.485 101.538 105.822C102.246 106.041 102.6 106.513 102.6 107.222ZM96.057 106.53L95.3319 104.389L94.6235 106.53H96.057ZM98.0301 108.807H96.8665L96.3943 107.492H94.2863L93.8478 108.807H92.7179L94.7922 103.056H95.9221L98.0301 108.807ZM92.1951 110.072H91.3013V108.824H90.8965L90.2557 107.34C90.222 107.272 90.1545 107.137 90.0533 106.952C89.9353 106.699 89.8341 106.547 89.7835 106.48C89.6823 106.362 89.5305 106.311 89.3113 106.311V108.841H88.2319V103.09H89.3113V105.535C89.5811 105.502 89.7835 105.384 89.9015 105.181C89.9353 105.131 90.0196 104.894 90.1882 104.439C90.3906 103.866 90.593 103.512 90.7953 103.326C91.0146 103.141 91.4024 103.039 91.9252 103.039C91.9421 103.039 91.9927 103.039 92.077 103.039V103.899H91.9252C91.706 103.899 91.5374 103.933 91.4193 104.001C91.3013 104.085 91.2001 104.22 91.1158 104.439C91.082 104.507 91.0314 104.692 90.9302 104.996C90.8459 105.232 90.7785 105.4 90.711 105.502C90.6267 105.637 90.4918 105.755 90.3232 105.873C90.5761 105.957 90.7953 106.142 90.9977 106.429C91.0989 106.581 91.2338 106.851 91.4193 107.256L91.706 107.863H92.1782V110.072H92.1951ZM81.9753 107.087C81.9753 106.766 81.8404 106.547 81.5874 106.429C81.4187 106.345 81.1658 106.311 80.8116 106.311H79.7155V107.846H80.7611C81.0477 107.846 81.2333 107.846 81.3176 107.829C81.52 107.795 81.6886 107.694 81.8066 107.559C81.9247 107.424 81.9753 107.272 81.9753 107.087ZM83.0883 107.104C83.0883 107.441 83.004 107.745 82.8522 108.048C82.6836 108.352 82.4643 108.571 82.1777 108.672C81.9416 108.756 81.6043 108.807 81.1658 108.807H78.653V103.056H79.7324V105.35H81.1658C81.9415 105.35 82.4981 105.603 82.8185 106.109C82.9871 106.412 83.0883 106.733 83.0883 107.104ZM84.7748 108.807H83.6954V103.056H84.7748V108.807ZM77.4557 104.034H74.8923V105.4H77.1015V106.379H74.8923V108.824H73.813V106.379H73.3745V105.4H73.813V103.056H77.4557V104.034ZM70.9629 106.53L70.2377 104.389L69.5294 106.53H70.9629ZM72.936 108.807H71.7724L71.3002 107.492H69.1921L68.7537 108.807H67.6237L69.6981 103.056H70.828L72.936 108.807ZM65.6 107.846V104.018H64.0148C64.0148 105.771 63.863 107.036 63.5763 107.846H65.6ZM67.1347 110.072H66.2409V108.824H62.9017V110.072H62.0079V107.846H62.4632C62.6993 107.306 62.868 106.631 62.9354 105.788C62.986 105.316 63.0029 104.591 63.0029 103.663V103.056H66.6625V107.846H67.1347V110.072ZM61.1647 108.807H60.0854V106.294H57.9942V108.807H56.9149V103.056H57.9942V105.316H60.0854V103.056H61.1647V108.807ZM52.6988 107.087C52.6988 106.766 52.5639 106.547 52.3109 106.429C52.1423 106.345 51.8893 106.311 51.5352 106.311H50.439V107.846H51.4846C51.7713 107.846 51.9568 107.846 52.058 107.829C52.2604 107.795 52.429 107.694 52.5471 107.559C52.6483 107.424 52.6988 107.272 52.6988 107.087ZM53.8119 107.104C53.8119 107.441 53.7275 107.745 53.5758 108.048C53.4071 108.352 53.1879 108.571 52.9012 108.672C52.6651 108.756 52.3278 108.807 51.8893 108.807H49.3766V103.056H50.4559V105.35H51.8893C52.6651 105.35 53.2216 105.603 53.5421 106.109C53.7107 106.412 53.8119 106.733 53.8119 107.104ZM55.4983 108.807H54.419V103.056H55.4983V108.807ZM48.3647 104.034H46.7963V108.824H45.717V104.034H44.1486V103.056H48.3647V104.034ZM41.6864 106.53L40.9612 104.389L40.253 106.53H41.6864ZM43.6595 108.807H42.4959L42.0237 107.492H39.9156L39.4772 108.807H38.3473L40.4216 103.056H41.5515L43.6595 108.807ZM35.4129 108.807H34.4179V105.046L32.2761 108.807H31.1968V103.056H32.1918V106.884L34.3504 103.056H35.4129V108.807ZM34.4516 101.623C34.4179 101.977 34.2998 102.247 34.1143 102.466C33.9119 102.668 33.659 102.77 33.3217 102.77C33.0013 102.77 32.7314 102.668 32.5291 102.466C32.3267 102.264 32.2087 101.977 32.1918 101.623H32.6808C32.7146 101.994 32.9338 102.179 33.3217 102.179C33.7096 102.179 33.9288 101.994 33.9625 101.623H34.4516ZM28.3467 106.53L27.6215 104.389L26.9133 106.53H28.3467ZM30.3198 108.807H29.1562L28.684 107.492H26.576L26.1375 108.807H25.0076L27.0819 103.056H28.2118L30.3198 108.807ZM23.2369 107.087C23.2369 106.766 23.1019 106.547 22.849 106.429C22.6803 106.362 22.4274 106.311 22.0732 106.311H20.977V107.846H22.0226C22.3093 107.846 22.4948 107.846 22.596 107.829C22.8152 107.795 22.967 107.694 23.0851 107.559C23.1863 107.424 23.2369 107.272 23.2369 107.087ZM24.3499 107.087C24.3499 107.424 24.2656 107.745 24.1138 108.031C23.9451 108.335 23.7259 108.537 23.4392 108.672C23.2031 108.773 22.8658 108.824 22.4273 108.824H19.9146V103.073H23.8777V104.034H20.9939V105.367H22.4273C22.8152 105.367 23.1188 105.417 23.3549 105.502C23.6584 105.62 23.8946 105.822 24.0801 106.109C24.2487 106.379 24.3499 106.716 24.3499 107.087ZM17.0645 106.53L16.3393 104.389L15.631 106.53H17.0645ZM19.0376 108.807H17.874L17.4018 107.492H15.2937L14.8553 108.807H13.7253L15.7997 103.056H16.9296L19.0376 108.807ZM12.9159 98.5029L143.564 98.5366C146.346 98.2162 148.809 99.481 151.085 101.538C153.345 99.5822 155.892 98.4017 158.894 98.5366L289.913 98.5703L295.292 112.854H6.45682L12.5786 98.486H12.9159V98.5029ZM117.424 41.434L114.439 41.94V41.7544L114.591 41.7207C114.996 41.6533 115.249 41.4846 115.316 41.2485C115.35 41.1305 115.367 40.8775 115.367 40.4728V37.1673C115.367 36.9312 115.367 36.7963 115.367 36.7626C115.35 36.6108 115.282 36.5096 115.198 36.459C115.131 36.4253 115.046 36.4085 114.962 36.4253C114.81 36.4591 114.641 36.5265 114.439 36.6614L114.372 36.5096L116.463 35.0762L116.598 35.0593V40.2872C116.598 40.6077 116.598 40.7932 116.615 40.8438C116.648 41.063 116.716 41.1979 116.851 41.2654C116.952 41.316 117.104 41.3328 117.323 41.2822L117.458 41.2654V41.434H117.424ZM122.062 36.7457C122.062 37.454 121.91 38.1455 121.623 38.7863C121.32 39.444 120.898 40.0005 120.359 40.439C119.785 40.9112 119.127 41.2316 118.352 41.4003V41.2654C119.262 40.8775 119.92 40.3041 120.291 39.5452C120.477 39.1742 120.611 38.7526 120.679 38.2973C120.375 38.5334 120.089 38.6683 119.853 38.702C119.38 38.7863 118.993 38.6514 118.723 38.3141C118.47 37.9937 118.352 37.5552 118.352 37.0155C118.352 36.1049 118.655 35.3966 119.245 34.8907C119.532 34.6546 119.836 34.5028 120.139 34.4522C120.493 34.3847 120.831 34.4522 121.117 34.6377C121.404 34.8063 121.623 35.0762 121.792 35.4135C121.978 35.7845 122.062 36.2229 122.062 36.7457ZM120.797 36.9481C120.797 36.3747 120.746 35.8519 120.611 35.3797C120.544 35.1267 120.443 34.9413 120.308 34.8232C120.24 34.7726 120.156 34.7389 120.038 34.7726C119.701 34.8232 119.549 35.2785 119.549 36.1217C119.549 37.5383 119.802 38.213 120.325 38.1118C120.443 38.0949 120.578 38.0106 120.763 37.8925C120.78 37.5384 120.797 37.218 120.797 36.9481ZM126.227 38.078L125.907 39.9837L122.568 40.5571V40.4559C123.36 39.2585 123.833 38.5334 123.951 38.2973C124.49 37.3529 124.76 36.5434 124.76 35.9194C124.76 35.599 124.676 35.346 124.507 35.1605C124.322 34.9581 124.102 34.8907 123.816 34.9413C123.394 35.0087 123.057 35.3123 122.821 35.8351L122.669 35.8013C122.956 34.5702 123.546 33.8788 124.423 33.727C125.03 33.6259 125.485 33.8282 125.772 34.3341C125.907 34.5702 125.974 34.8064 125.974 35.0424C125.974 35.4641 125.873 35.9025 125.671 36.3747C125.401 36.9987 124.777 37.9094 123.833 39.1236L125.064 38.9043C125.485 38.8369 125.772 38.7189 125.873 38.584C125.924 38.5165 126.008 38.3478 126.092 38.1286L126.227 38.078ZM130.629 37.6395C130.629 38.2129 130.427 38.7188 130.039 39.1236C129.685 39.4946 129.229 39.7307 128.706 39.815C128.217 39.8994 127.829 39.8319 127.492 39.6296C127.121 39.3934 126.936 39.0224 126.936 38.4996C126.936 37.825 127.323 37.2179 128.082 36.6951C127.711 36.4422 127.475 36.2398 127.34 36.0543C127.138 35.7845 127.037 35.464 127.037 35.0762C127.037 34.5702 127.239 34.1318 127.627 33.7607C127.964 33.4403 128.386 33.238 128.858 33.1537C129.313 33.0693 129.684 33.1199 130.005 33.3054C130.376 33.5078 130.545 33.8451 130.545 34.3341C130.545 34.9244 130.224 35.4472 129.566 35.9194C129.921 36.1555 130.174 36.3747 130.325 36.5939C130.528 36.8806 130.629 37.2348 130.629 37.6395ZM129.55 34.5197C129.55 34.1149 129.465 33.8114 129.313 33.6259C129.195 33.4909 129.027 33.4235 128.824 33.4572C128.622 33.4909 128.47 33.5921 128.335 33.7776C128.2 33.9463 128.15 34.1487 128.15 34.3679C128.15 34.8738 128.521 35.3292 129.246 35.7339C129.448 35.3966 129.55 34.9919 129.55 34.5197ZM129.499 38.449C129.499 37.8419 129.128 37.3191 128.403 36.8807C128.318 36.9818 128.251 37.083 128.217 37.1505C128.066 37.454 127.998 37.8588 127.998 38.331C127.998 38.9381 128.133 39.3091 128.386 39.444C128.504 39.5115 128.639 39.5284 128.774 39.5115C129.01 39.4778 129.179 39.3428 129.313 39.1236C129.448 38.9381 129.499 38.702 129.499 38.449ZM137.307 27.2174C137.139 50.1866 137.307 72.0765 137.324 95.0457C135.03 95.0626 132.754 95.0288 130.477 95.0457C130.477 81.6723 130.41 68.2989 130.528 54.9086C130.545 53.5763 130.393 52.3453 130.106 51.2322C127.728 41.9231 117.66 43.0362 115.063 52.9186C114.76 54.0486 114.591 55.2628 114.591 56.5445C114.574 69.3782 114.557 82.1951 114.557 95.0289C113.006 95.0289 109.683 95.0457 108.149 95.0457C108.132 73.6617 108.166 52.8343 108.166 31.4503C118.149 29.0219 132.282 27.1162 137.307 27.2174ZM143.496 13.6922C143.007 13.6585 142.501 13.6416 141.995 13.6247C141.995 14.333 141.979 15.0414 141.979 15.7497C141.979 16.458 141.962 17.1663 141.962 17.8746C142.468 17.9083 142.974 17.9252 143.463 17.9758C143.463 17.2675 143.463 16.5591 143.463 15.834C143.479 15.1088 143.496 14.4005 143.496 13.6922ZM147.611 14.0126C147.122 13.962 146.616 13.9115 146.127 13.8609C146.11 14.586 146.11 15.3112 146.093 16.0195C146.093 16.7447 146.093 17.453 146.077 18.1781C146.566 18.2287 147.072 18.2962 147.561 18.3468C147.577 17.6216 147.578 16.8964 147.578 16.1713C147.594 15.463 147.594 14.7378 147.611 14.0126ZM261.968 38.6514C262.086 38.6851 262.188 38.702 262.373 38.7526V39.697V41.0293V42.3447V43.677V45.0093C262.188 44.9755 262.069 44.9586 261.968 44.9249V43.5927V42.2604V40.9281V39.5958C261.564 39.5115 261.176 39.4103 260.788 39.3091V40.7088V42.1086C260.653 42.0749 260.552 42.058 260.417 42.0243C260.4 41.5521 260.4 41.0799 260.4 40.6077V39.2079C259.978 39.1068 259.574 39.0224 259.186 38.9212V40.2704V41.6195V42.9687V44.3347H259.169C259.051 44.3178 258.933 44.2841 258.815 44.2672V42.9012V41.5352C258.815 41.0799 258.798 40.6245 258.798 40.1692C258.798 39.7138 258.798 39.2585 258.798 38.82C258.376 38.7189 257.955 38.6177 257.55 38.5334V39.9668C257.55 40.439 257.583 40.9281 257.583 41.4003C257.465 41.3666 257.331 41.3497 257.213 41.316C257.213 40.8438 257.179 40.3547 257.179 39.8825V38.449C256.757 38.3478 256.336 38.2467 255.914 38.1455V39.5284C255.914 39.9837 255.948 40.4559 255.948 40.9112V42.2941V43.677C255.813 43.6601 255.678 43.6264 255.56 43.6095H255.543V42.2098V40.8269C255.543 40.3716 255.526 39.8994 255.526 39.444V38.0611C255.105 37.9599 254.683 37.8588 254.261 37.7576V39.2248V40.692C254.11 40.6583 253.975 40.6245 253.857 40.6077V39.1405V37.6733C253.401 37.5721 252.963 37.454 252.524 37.3529C252.524 37.8251 252.524 38.2973 252.524 38.7695V40.1861V41.6026V43.0192C252.389 42.9855 252.271 42.9687 252.136 42.9518V41.5183V40.1017C252.136 39.6295 252.119 39.1574 252.119 38.6852V37.2686C251.664 37.1505 251.209 37.0493 250.787 36.9481V38.449V39.95C250.652 39.9162 250.517 39.8994 250.383 39.8656V38.3647V36.8638C249.927 36.7457 249.438 36.6446 249 36.5265V37.9768V39.4272V40.8775V42.3279H248.983C248.848 42.2941 248.696 42.2772 248.578 42.2435H248.561V40.7932V39.3428C248.561 38.8538 248.561 38.3816 248.561 37.8925C248.561 37.4203 248.561 36.9312 248.561 36.4422C248.106 36.3241 247.65 36.223 247.178 36.1049V37.6395V39.1742C247.026 39.1404 246.892 39.1067 246.757 39.0899V37.5552V36.0206C246.268 35.9025 245.779 35.7845 245.306 35.6664V37.1505V38.6346V40.1186V41.6026C245.138 41.5689 245.003 41.5352 244.851 41.5183V40.0343V38.5502V37.0661V35.5821C244.362 35.4641 243.873 35.346 243.401 35.2279V36.7963V38.3647C243.232 38.331 243.08 38.2973 242.945 38.2635V36.6951V35.1268C242.422 35.0087 241.917 34.8738 241.411 34.7557V36.2735V37.7913V39.3091V40.8269H241.394C241.242 40.7932 241.09 40.7763 240.955 40.7426V39.2248V37.707V36.1892V34.6714C240.449 34.5534 239.927 34.4185 239.421 34.3004V35.9025V37.5046C239.252 37.4709 239.1 37.4372 238.948 37.4034V35.8013V34.1992C238.426 34.0643 237.886 33.9463 237.346 33.8113V35.3629V36.9144V38.4659V40.0174H237.33C237.161 39.9837 237.009 39.9499 236.84 39.9162H236.824V38.3478V36.7963V35.2448V33.6933C236.301 33.5584 235.778 33.4403 235.238 33.3054V34.9581C235.238 35.5146 235.255 36.0543 235.255 36.6108C235.087 36.5771 234.918 36.5265 234.749 36.4928C234.749 35.9362 234.715 35.3966 234.715 34.8401V33.1874C234.159 33.0525 233.586 32.9176 233.046 32.7826V34.3679C233.046 34.8907 233.08 35.4303 233.08 35.97V37.5552V39.1573H233.063C232.911 39.1236 232.742 39.0899 232.591 39.0562H232.574V37.454V35.8519C232.574 35.3291 232.54 34.7895 232.54 34.2498V32.6477C231.95 32.5128 231.393 32.3779 230.837 32.243C230.837 32.8164 230.854 33.3729 230.854 33.9294V35.6158C230.685 35.5821 230.516 35.5484 230.348 35.4978V33.8113C230.348 33.2548 230.348 32.6814 230.331 32.108C229.757 31.9731 229.167 31.8382 228.594 31.6864V33.3223V34.9581C228.594 35.4978 228.611 36.0543 228.611 36.5939C228.611 37.1336 228.627 37.6901 228.627 38.2298H228.611C228.442 38.1961 228.273 38.1623 228.105 38.1286H228.088V36.4759C228.088 35.9363 228.088 35.3797 228.088 34.8401C228.088 34.2836 228.054 33.7439 228.054 33.1874V31.5515C227.464 31.4166 226.874 31.2648 226.3 31.1299V32.8669V34.5871C226.132 34.5534 225.946 34.5028 225.761 34.4691V32.732V30.995C225.103 30.8432 224.496 30.6914 223.889 30.5565V32.2261C223.889 32.7826 223.889 33.3392 223.889 33.8957C223.889 34.4522 223.905 35.0256 223.905 35.5821C223.905 36.1386 223.905 36.6952 223.905 37.2686C223.703 37.2348 223.518 37.1842 223.332 37.1505H223.315C223.315 36.594 223.315 36.0374 223.298 35.4641C223.282 34.9075 223.282 34.3341 223.282 33.7776V32.108V30.4216C222.658 30.2698 222.034 30.1181 221.376 29.9663C221.393 30.5565 221.41 31.1636 221.41 31.7539V33.5247C221.207 33.4741 221.022 33.4403 220.819 33.3897C220.819 32.7995 220.819 32.2092 220.802 31.6021C220.786 31.0119 220.786 30.4048 220.786 29.8145C220.128 29.6459 219.47 29.4941 218.812 29.3423V31.0624C218.812 31.6358 218.863 32.2261 218.863 32.7826V34.5028V36.2229H218.846C218.661 36.1892 218.458 36.1386 218.273 36.1049H218.256V34.3847V32.6646C218.256 32.0912 218.222 31.5009 218.222 30.9276V29.2074C217.565 29.0556 216.89 28.8869 216.232 28.7352V30.5565C216.232 31.1637 216.266 31.7876 216.266 32.3947C216.064 32.3441 215.861 32.3104 215.659 32.2598C215.659 31.6527 215.625 31.0287 215.625 30.4216V28.6003C214.951 28.4316 214.259 28.263 213.568 28.0944V29.8651V31.6358V33.4066V35.1773H213.551C213.348 35.1436 213.129 35.093 212.927 35.0424H212.91V33.2717V31.5009V29.7302V27.9594C212.218 27.7908 211.527 27.6221 210.836 27.4535V29.3254V31.1974C210.6 31.1468 210.38 31.0962 210.161 31.0456V29.1568V27.268C209.419 27.0993 208.711 26.9138 208.002 26.7452V28.5666V30.3879V32.2093V34.0306C207.986 34.0306 207.969 34.0306 207.969 34.0306C207.766 33.98 207.53 33.9463 207.328 33.8957H207.311V32.0743V30.253V28.4316V26.5934C206.586 26.4248 205.827 26.2392 205.102 26.0537V27.9932V29.9157C204.849 29.8651 204.63 29.8145 204.41 29.7639V27.8245V25.8851C203.635 25.6996 202.842 25.5141 202.083 25.3286V27.2006V29.0725V30.9444V32.8163H202.066C201.83 32.7658 201.594 32.7152 201.408 32.6815H201.375V30.7926V28.9038V27.015V25.1262C200.599 24.9407 199.823 24.7383 199.031 24.5528V26.5428V28.5328C198.795 28.4822 198.558 28.4316 198.322 28.3641V26.3742V24.3673C197.496 24.1649 196.67 23.9626 195.877 23.7771V25.7165V27.6559V29.5953V31.5346H195.843C195.59 31.484 195.337 31.4335 195.101 31.3829H195.084V29.4435V27.5041V25.5647V23.6253C194.258 23.4229 193.449 23.2206 192.622 23.0182V25.0756V27.1331C192.335 27.0656 192.099 27.015 191.846 26.9644V24.8901V22.8326C190.953 22.6134 190.076 22.4111 189.216 22.1918V24.1818V26.1887V28.1787V30.1855H189.182C188.929 30.1349 188.676 30.0843 188.44 30.0337H188.406V28.0269V26.02V24.0132V22.0063C187.512 21.7871 186.618 21.5678 185.742 21.3655V23.4904V25.6153C185.472 25.5478 185.185 25.4972 184.915 25.4298V23.288V21.1631C184.072 20.9607 183.195 20.7415 182.284 20.5222C182.267 21.6184 182.267 22.7315 182.251 23.8277C182.234 25.4129 182.234 26.9981 182.217 28.5834C181.913 28.5159 181.61 28.4485 181.289 28.381L181.256 28.3641C181.256 27.6896 181.256 27.015 181.272 26.3405C181.272 25.6659 181.272 24.9913 181.289 24.3167C181.289 23.6421 181.306 22.9676 181.306 22.293C181.323 21.6185 181.323 20.9439 181.323 20.2693C180.294 20.0332 179.333 19.7971 178.304 19.561C178.288 20.2693 178.288 20.9608 178.288 21.6691C178.288 22.3774 178.287 23.0857 178.271 23.7771C177.916 23.6928 177.613 23.6253 177.309 23.541C177.309 22.8327 177.309 22.1244 177.309 21.4329C177.309 20.7246 177.326 20.0332 177.326 19.3249C176.281 19.0719 175.218 18.8189 174.189 18.566C174.189 19.2405 174.189 19.9151 174.173 20.5897C174.156 21.2643 174.156 21.9389 174.156 22.6135C174.139 23.288 174.139 23.9626 174.139 24.6371C174.139 25.3117 174.139 25.9863 174.139 26.644H174.122C173.802 26.5597 173.498 26.4922 173.211 26.4248H173.178C173.178 25.7502 173.178 25.0756 173.194 24.4179C173.194 23.7433 173.211 23.0688 173.211 22.3942C173.211 21.7196 173.228 21.045 173.228 20.3705C173.245 19.6959 173.228 19.0214 173.245 18.3468C172.183 18.0938 171.154 17.8408 170.142 17.6047C170.142 18.313 170.125 19.0213 170.125 19.7296C170.125 20.4379 170.125 21.1462 170.108 21.8377C169.788 21.7702 169.484 21.6859 169.164 21.6184C169.181 20.9101 169.181 20.2018 169.181 19.5104C169.181 18.8021 169.198 18.0938 169.198 17.3855C168.135 17.1325 167.039 16.8627 166.01 16.6098C165.993 17.2843 166.01 17.9758 165.993 18.6503C165.976 19.3249 165.977 19.9995 165.977 20.6909C165.96 21.3655 165.96 22.0569 165.96 22.7315C165.96 23.406 165.96 24.0806 165.96 24.7721H165.926C165.622 24.7046 165.302 24.6371 164.998 24.5697H164.965C164.965 23.8951 164.965 23.2037 164.982 22.5291C164.982 21.8545 164.982 21.1631 164.998 20.4885C164.998 19.814 165.015 19.1225 165.015 18.448C165.032 17.7734 165.032 17.0819 165.032 16.4073C164.003 16.1712 162.975 15.9183 161.946 15.6822C161.946 16.3905 161.929 17.1157 161.929 17.8408C161.929 18.5491 161.929 19.2743 161.912 19.9995C161.575 19.932 161.271 19.8645 160.951 19.7971C160.968 19.0719 160.968 18.3636 160.968 17.6385C160.968 16.9133 160.968 16.205 160.985 15.4798C159.939 15.2437 158.877 15.0076 157.848 14.7884C157.848 15.4798 157.848 16.1881 157.831 16.8795C157.814 17.571 157.814 18.2624 157.814 18.9539C157.797 19.6453 157.797 20.3536 157.797 21.045C157.797 21.7365 157.797 22.4279 157.797 23.1194H157.764C157.443 23.0688 157.14 23.0013 156.853 22.9507H156.819C156.819 22.2593 156.819 21.5678 156.819 20.8595C156.819 20.1681 156.836 19.4598 156.853 18.7684C156.87 18.077 156.87 17.3855 156.87 16.6772C156.887 15.9857 156.887 15.2775 156.887 14.586C155.824 14.3668 154.795 14.1644 153.716 13.962C153.716 14.6872 153.699 15.4292 153.682 16.1544C153.682 16.8796 153.682 17.6216 153.666 18.3468C153.345 18.2962 153.042 18.2287 152.738 18.1781C152.738 17.453 152.738 16.7109 152.755 15.9857C152.772 15.2606 152.772 14.5186 152.789 13.7934C151.726 13.6247 150.664 13.4561 149.635 13.3212C149.618 14.0126 149.618 14.7209 149.618 15.4124C149.601 16.1038 149.601 16.8121 149.601 17.5204C149.601 18.2287 149.584 18.9201 149.584 19.6284C149.584 20.3199 149.584 21.0282 149.584 21.7196H149.551C149.247 21.6859 148.927 21.6353 148.64 21.6016C148.623 21.6016 148.589 21.6016 148.589 21.6016C148.589 20.9101 148.589 20.2018 148.606 19.5104C148.606 18.8189 148.606 18.1106 148.623 17.4192C148.623 16.7278 148.623 16.0195 148.64 15.3281C148.64 14.6366 148.64 13.9283 148.657 13.2369C147.628 13.1357 146.616 13.0345 145.588 12.9502C145.588 13.6753 145.571 14.4005 145.571 15.1257C145.554 15.8509 145.554 16.576 145.554 17.2843C145.233 17.2506 144.93 17.2337 144.609 17.2C144.609 16.4748 144.609 15.7665 144.626 15.0413C144.643 14.3162 144.643 13.6079 144.643 12.8827C143.581 12.8321 142.518 12.7815 141.49 12.7646C141.49 13.4392 141.49 14.1138 141.49 14.7884C141.473 15.463 141.473 16.1375 141.456 16.8121C141.456 17.4867 141.456 18.1613 141.456 18.8527C141.456 19.5273 141.456 20.2019 141.456 20.8764H141.439C141.118 20.8596 140.815 20.8258 140.494 20.809H140.461C140.461 20.1344 140.461 19.4767 140.478 18.8021C140.478 18.1275 140.478 17.4529 140.494 16.7784C140.494 16.1038 140.494 15.4292 140.511 14.7547C140.511 14.0801 140.511 13.4055 140.528 12.7309C139.5 12.7309 138.471 12.7309 137.442 12.7478C137.442 13.4392 137.425 14.1475 137.425 14.839C137.425 15.5304 137.425 16.2387 137.408 16.9301C137.071 16.947 136.751 16.947 136.447 16.9639C136.464 16.2725 136.464 15.5641 136.464 14.8727C136.464 14.1812 136.481 13.473 136.481 12.7815C135.418 12.8153 134.356 12.8658 133.327 12.9333C133.327 13.6079 133.327 14.2656 133.31 14.9402C133.294 15.5979 133.293 16.2724 133.293 16.9301C133.293 17.6047 133.293 18.2624 133.293 18.937C133.293 19.5947 133.293 20.2693 133.293 20.927H133.26C132.956 20.9439 132.636 20.9607 132.349 20.9776H132.315C132.315 20.3199 132.315 19.6453 132.315 18.9876C132.315 18.313 132.315 17.6553 132.332 16.9807C132.332 16.323 132.349 15.6485 132.349 14.9907C132.366 14.333 132.349 13.6585 132.349 12.9839C131.303 13.0851 130.258 13.1694 129.229 13.2706C129.229 13.962 129.229 14.6703 129.229 15.3618C129.229 16.0532 129.212 16.7615 129.212 17.453C128.909 17.4867 128.588 17.5204 128.285 17.571C128.285 16.8627 128.302 16.1712 128.302 15.4629C128.302 14.7715 128.302 14.0632 128.302 13.3718C127.239 13.4898 126.177 13.6248 125.148 13.7597C125.148 14.4343 125.148 15.092 125.131 15.7665C125.131 16.4411 125.114 17.0988 125.114 17.7733C125.114 18.4479 125.114 19.1056 125.097 19.7802C125.097 20.4548 125.097 21.1125 125.097 21.7871H125.064C124.76 21.8377 124.44 21.8714 124.119 21.922H124.086C124.086 21.2474 124.086 20.5897 124.086 19.9151C124.086 19.2406 124.086 18.5829 124.102 17.9083C124.102 17.2337 124.102 16.5591 124.119 15.9014C124.119 15.2269 124.119 14.5691 124.136 13.8946C123.107 14.0464 122.079 14.1981 121.05 14.3668C121.05 15.0582 121.05 15.7665 121.033 16.4748C121.033 17.1831 121.033 17.8746 121.016 18.5829C120.662 18.6334 120.359 18.684 120.038 18.7515C120.038 18.0432 120.055 17.3518 120.055 16.6435C120.055 15.952 120.055 15.2437 120.055 14.5354C118.993 14.7041 117.93 14.8896 116.901 15.0919C116.901 15.7665 116.901 16.4242 116.884 17.0988C116.884 17.7734 116.868 18.4311 116.868 19.1056C116.868 19.7802 116.868 20.4548 116.851 21.1125C116.851 21.7871 116.851 22.4448 116.851 23.1194H116.834C116.513 23.17 116.21 23.2374 115.923 23.288H115.889C115.889 22.6303 115.889 21.9557 115.906 21.298C115.906 20.6235 115.906 19.9657 115.906 19.2912C115.906 18.6166 115.923 17.9589 115.923 17.2843C115.923 16.6097 115.923 15.952 115.923 15.2775C114.928 15.463 113.899 15.6653 112.871 15.8677C112.871 16.5592 112.854 17.2674 112.854 17.9589C112.854 18.6503 112.786 19.3755 112.77 20.0669C112.466 20.1344 112.146 20.1849 111.825 20.2524C111.825 19.561 111.909 18.8358 111.909 18.1444C111.909 17.4529 111.909 16.7446 111.926 16.0532C110.864 16.2724 109.801 16.4917 108.756 16.7109C108.756 17.3686 108.722 18.0432 108.722 18.7178C108.722 19.3755 108.688 20.05 108.688 20.7246C108.688 21.3823 108.672 22.0569 108.672 22.7146C108.672 23.3723 108.672 24.0469 108.672 24.7046H108.638C108.334 24.7721 108.031 24.8395 107.744 24.8901H107.71C107.71 24.2324 107.71 23.5578 107.71 22.9001C107.71 22.2424 107.71 21.5678 107.727 20.9101C107.727 20.2356 107.761 19.561 107.778 18.9033C107.778 18.2456 107.811 17.571 107.811 16.8964C106.749 17.1325 105.72 17.3518 104.692 17.5879C104.692 18.2793 104.692 18.9707 104.692 19.679C104.675 20.3705 104.675 21.0619 104.675 21.7702C104.354 21.8377 104.051 21.9051 103.73 21.9726C103.747 21.2812 103.747 20.5897 103.747 19.8814C103.747 19.19 103.747 18.4985 103.747 17.7902C102.685 18.0263 101.622 18.2624 100.661 18.4817C100.627 19.1562 100.594 19.8308 100.594 20.4885C100.577 21.1462 100.577 21.8208 100.577 22.4954C100.577 23.1531 100.577 23.8277 100.56 24.4854C100.56 25.1431 100.56 25.8176 100.56 26.4753H100.543C100.223 26.5428 99.919 26.6271 99.5985 26.6946H99.5648C99.5648 26.0369 99.5648 25.3623 99.5648 24.7046C99.5648 24.0469 99.5648 23.3723 99.5648 22.6978C99.5648 22.04 99.5816 21.3655 99.6154 20.6909C99.6322 20.0163 99.6491 19.3586 99.6491 18.684C99.5817 18.7009 99.5142 18.7178 99.4468 18.7178C98.7216 18.8864 97.9964 19.0551 97.305 19.2237C97.305 19.9151 97.305 20.6066 97.305 21.298C97.305 21.9895 97.305 22.6809 97.305 23.3723C97.0689 23.4229 96.8328 23.4735 96.5967 23.5241C96.5967 22.8327 96.5967 22.1412 96.5967 21.4498C96.5967 20.7584 96.5967 20.0669 96.5967 19.3755C95.7872 19.561 94.9946 19.7465 94.2694 19.9151C94.2357 20.5729 94.2188 21.2305 94.2188 21.8882C94.2188 22.546 94.2188 23.2037 94.2188 23.8614C94.2188 24.5191 94.2188 25.1768 94.2188 25.8345C94.2188 26.4922 94.2188 27.1499 94.2188 27.7908H94.185C93.9489 27.8414 93.7129 27.8919 93.4937 27.9425H93.4599C93.4599 27.3017 93.4599 26.644 93.4599 25.9863C93.4599 25.3286 93.4599 24.6709 93.4599 24.03C93.4599 23.3723 93.4599 22.7146 93.4768 22.0569C93.4936 21.3992 93.4937 20.7415 93.4937 20.0838C92.7348 20.2693 91.9759 20.4379 91.217 20.6234C91.217 21.298 91.217 21.9895 91.217 22.664C91.217 23.3386 91.217 24.03 91.217 24.7046C90.964 24.7552 90.7447 24.8058 90.5086 24.8564C90.5086 24.1818 90.4918 23.5073 90.4918 22.8158C90.4918 22.1412 90.4918 21.4666 90.4918 20.7752C89.716 20.9607 88.9571 21.1294 88.1982 21.3149C88.1982 21.9557 88.1814 22.6134 88.1814 23.2543C88.1814 23.8951 88.1645 24.5528 88.1645 25.1937C88.1645 25.8345 88.1645 26.4922 88.1645 27.1331C88.1645 27.7739 88.1645 28.4147 88.1645 29.0556H88.1308C87.9115 29.1062 87.6923 29.1568 87.4731 29.1905H87.4562C87.4562 28.5497 87.4562 27.9088 87.4562 27.268C87.4562 26.6271 87.4562 25.9863 87.4562 25.3286C87.4562 24.6877 87.4393 24.0469 87.4562 23.4061C87.4731 22.7652 87.5068 22.1075 87.5068 21.4666C86.731 21.6521 85.9553 21.8208 85.2301 21.9894C85.2301 22.664 85.2301 23.3217 85.2301 23.9963C85.2301 24.6709 85.2301 25.3286 85.2301 26.0031C85.0109 26.0537 84.7916 26.1043 84.5724 26.1549C84.5724 25.4803 84.5724 24.8226 84.5555 24.1481C84.5555 23.4735 84.5555 22.8158 84.5555 22.1413C83.8135 22.3099 83.0715 22.4954 82.3463 22.664C82.3463 23.3049 82.3294 23.9457 82.3294 24.5697C82.3294 25.2105 82.3126 25.8514 82.3126 26.4753C82.3126 27.1162 82.3126 27.7402 82.3126 28.381C82.3126 29.0219 82.3126 29.6458 82.3126 30.2698H82.2957C82.0765 30.3204 81.8572 30.3542 81.6549 30.4048H81.6212C81.6212 29.7808 81.6212 29.1399 81.6212 28.516C81.6212 27.892 81.6212 27.2511 81.6212 26.6103C81.6212 25.9694 81.6549 25.3286 81.6549 24.7046C81.6549 24.0638 81.6717 23.4398 81.6717 22.7989C80.9634 22.9676 80.2551 23.1362 79.5468 23.3048C79.5468 23.9626 79.5468 24.6203 79.5468 25.278C79.5468 25.9357 79.5131 26.6103 79.5131 27.268C79.277 27.3186 79.0577 27.3692 78.8554 27.4197C78.8554 26.762 78.8891 26.1044 78.8891 25.4466C78.8891 24.7889 78.8891 24.1312 78.8891 23.4735C78.1808 23.6421 77.4725 23.8108 76.7305 23.9795C76.7305 24.6034 76.7305 25.2274 76.7305 25.8514C76.7305 26.4754 76.7305 27.0994 76.7305 27.7233C76.7305 28.3473 76.7305 28.9713 76.7305 29.5953C76.7305 30.2192 76.7305 30.8432 76.7305 31.4503C76.7136 31.4503 76.6967 31.4672 76.6967 31.4672C76.4944 31.5178 76.2752 31.5515 76.0897 31.6021H76.0728C76.0728 30.995 76.0728 30.371 76.0728 29.747C76.0728 29.123 76.0728 28.4991 76.0728 27.8751C76.0728 27.2511 76.0728 26.6271 76.0728 26.0031C76.0728 25.3792 76.0728 24.7552 76.0728 24.1312C75.3813 24.2999 74.6899 24.4517 74.0153 24.6203C74.0153 25.2612 74.0153 25.9189 74.0153 26.5597C74.0153 27.2005 74.0153 27.8582 74.0153 28.4991C73.7792 28.5497 73.5768 28.6002 73.3745 28.634C73.3745 27.9931 73.3745 27.3354 73.3745 26.6946C73.3745 26.0537 73.3745 25.396 73.3745 24.7552C72.6662 24.9238 71.9748 25.0756 71.3002 25.2443C71.3002 25.8514 71.3002 26.4754 71.3002 27.0825C71.3002 27.6896 71.3002 28.3136 71.3002 28.9207C71.3002 29.5278 71.3002 30.1518 71.3002 30.7589C71.3002 31.366 71.3002 31.99 71.3002 32.5802H71.2833C71.0809 32.614 70.8786 32.6646 70.693 32.6983H70.6762C70.6762 32.0912 70.6762 31.4841 70.6762 30.877C70.6762 30.2698 70.6762 29.6459 70.6762 29.0388C70.6762 28.4316 70.6762 27.8077 70.6762 27.2006C70.6762 26.5934 70.6762 25.9694 70.6762 25.3623C69.9848 25.5309 69.327 25.6827 68.6525 25.8345C68.6525 26.4753 68.6525 27.0993 68.6525 27.7402C68.6525 28.381 68.6525 29.0219 68.6525 29.6458C68.4501 29.6964 68.2477 29.7302 68.0453 29.7808C68.0453 29.1399 68.0453 28.516 68.0453 27.8751C68.0453 27.2343 68.0453 26.5934 68.0453 25.9694C67.3708 26.1212 66.6962 26.2899 66.0554 26.4416C66.0554 27.0487 66.0554 27.6559 66.0554 28.2461C66.0554 28.8364 66.0554 29.4603 66.0554 30.0675C66.0554 30.6746 66.0554 31.2817 66.0554 31.8888C66.0554 32.4959 66.0554 33.0862 66.0554 33.6933H66.0385C65.8362 33.727 65.6506 33.7776 65.4483 33.8113H65.4314C65.4314 33.2211 65.4314 32.614 65.4314 32.0237C65.4314 31.4166 65.4314 30.8095 65.4314 30.2192C65.4314 29.6121 65.4314 29.005 65.4314 28.4148C65.4314 27.8077 65.4314 27.2005 65.4314 26.6103C64.7737 26.7621 64.1328 26.9138 63.492 27.0656C63.492 27.6896 63.492 28.3136 63.492 28.9544C63.492 29.5784 63.492 30.2192 63.492 30.8432C63.2728 30.8938 63.0872 30.9275 62.8849 30.9781C62.8849 30.3542 62.8849 29.7302 62.8849 29.0893C62.8849 28.4485 62.8849 27.8414 62.8849 27.2174C62.2271 27.3692 61.5694 27.521 60.9455 27.6727C60.9455 28.263 60.9455 28.8701 60.9455 29.4604C60.9455 30.0506 60.9455 30.6577 60.9455 31.248C60.9455 31.8382 60.9455 32.4453 60.9455 33.0356C60.9455 33.6258 60.9455 34.2161 60.9455 34.8063H60.9286C60.7431 34.8401 60.5576 34.8907 60.3721 34.9244H60.3552C60.3552 34.3341 60.3552 33.7439 60.3552 33.1537C60.3552 32.5634 60.3552 31.9732 60.3552 31.366C60.3552 30.7758 60.3552 30.1686 60.3552 29.5784C60.3552 28.9881 60.3552 28.381 60.3552 27.7908C59.7144 27.9425 59.0904 28.0943 58.4664 28.2292C58.4664 28.8532 58.4664 29.4604 58.4664 30.0843C58.4664 30.7083 58.4664 31.3154 58.4664 31.9394C58.2809 31.9732 58.0954 32.0237 57.9099 32.0574C57.9099 31.4335 57.9099 30.8264 57.9099 30.2024C57.9099 29.5784 57.9099 28.9713 57.9099 28.3473C57.2691 28.4991 56.6451 28.6508 56.0211 28.7857C56.0211 29.376 56.0211 29.9494 56.0211 30.5397C56.0211 31.1299 56.0211 31.7202 56.0211 32.2936C56.0211 32.8838 56.0211 33.4741 56.0211 34.0475C56.0211 34.6377 56.0211 35.2111 56.0211 35.7845H56.0042C55.8187 35.8182 55.6332 35.8688 55.4477 35.9025H55.4309V34.1655C55.4309 33.5752 55.4309 33.0019 55.4309 32.4116C55.4309 31.8214 55.4309 31.248 55.4309 30.6577C55.4309 30.0675 55.4309 29.4941 55.4309 28.9038C54.8237 29.0387 54.2166 29.1905 53.6095 29.3254C53.6095 29.9325 53.6095 30.5397 53.6095 31.1468C53.6095 31.7539 53.6095 32.361 53.6095 32.9681C53.4071 33.0187 53.2216 33.0525 53.053 33.1031C53.053 32.4959 53.053 31.8888 53.053 31.2817V29.4604C52.4627 29.5953 51.8725 29.7302 51.2822 29.8651C51.2822 30.4385 51.2654 31.0287 51.2654 31.6021C51.2654 32.1755 51.2485 32.7658 51.2485 33.3391C51.2485 33.9125 51.2485 34.5028 51.2485 35.0762C51.2485 35.6495 51.2485 36.2229 51.2485 36.7963H51.2316C51.0461 36.83 50.8606 36.8806 50.692 36.9144H50.6751V35.1942C50.6751 34.6208 50.6751 34.0475 50.6751 33.4741C50.6751 32.9007 50.692 32.3104 50.692 31.737C50.692 31.1636 50.7088 30.5734 50.7088 30C50.1186 30.1349 49.5283 30.2698 48.955 30.4048C48.955 30.995 48.955 31.6021 48.955 32.2093C48.955 32.8164 48.9212 33.4235 48.9212 34.0137C48.7188 34.0643 48.5502 34.098 48.3647 34.1318C48.3647 33.5246 48.4153 32.9175 48.4153 32.3273V30.5397C47.8082 30.6746 47.2179 30.8263 46.6445 30.9613C46.6445 31.5346 46.6445 32.0912 46.6445 32.6646C46.6445 33.238 46.6445 33.8113 46.6445 34.3847C46.6445 34.9581 46.6108 35.5315 46.6108 36.1049V37.7913H46.5939C46.4253 37.8251 46.2398 37.8588 46.088 37.8925H46.0711C46.088 37.336 46.088 36.7626 46.088 36.2061C46.088 35.6327 46.1049 35.0593 46.1049 34.5028C46.1049 33.9463 46.1049 33.3729 46.1049 32.7995V31.0962C45.5146 31.2311 44.9412 31.366 44.4016 31.5009C44.4016 32.0912 44.4184 32.6814 44.4016 33.2717C44.4016 33.8619 44.3679 34.4522 44.3679 35.0424C44.2161 35.0762 44.0643 35.1099 43.8957 35.1436V33.3728C43.8957 32.7826 43.8957 32.1924 43.8957 31.6021C43.3054 31.737 42.7488 31.8719 42.1755 32.0068V33.6933V35.3797V37.0661V38.7357C42.0068 38.7695 41.8382 38.8032 41.737 38.8369V37.1673V35.4809V33.7945V32.108V30.9276C41.8382 30.9107 42.0068 30.8601 42.1755 30.8264C43.474 30.5228 44.7895 30.2024 46.1049 29.8988H46.1217C46.2904 29.8651 46.459 29.8145 46.6277 29.7808H46.6445C47.9937 29.4604 49.3597 29.1399 50.7257 28.8195H50.7426C50.9281 28.7858 51.0967 28.7352 51.2822 28.6846H51.2991C52.6314 28.3641 54.0479 28.0269 55.4477 27.6896H55.4646C55.6501 27.639 55.8356 27.6053 56.0211 27.5547H56.0379C57.4714 27.2174 58.9218 26.8632 60.3721 26.5259H60.389C60.5576 26.4753 60.76 26.4416 60.9455 26.391H60.9623C62.4464 26.0369 63.9473 25.6827 65.4483 25.3286H65.4651C65.6675 25.278 65.853 25.2443 66.0554 25.1937H66.0722C67.59 24.8227 69.1247 24.4685 70.693 24.0975H70.7099C70.8954 24.0469 71.0978 24.0132 71.3002 23.9626H71.317C72.8854 23.5916 74.4875 23.2037 76.0897 22.8326H76.1065C76.292 22.7821 76.5113 22.7315 76.7136 22.6809C76.7136 22.6809 76.7305 22.6809 76.7473 22.664C78.4 22.2762 80.0359 21.8883 81.7055 21.4835H81.7223C81.9416 21.4329 82.1608 21.3823 82.3632 21.3317H82.3969C84.0833 20.927 85.7698 20.5223 87.5406 20.1175H87.5574C87.7598 20.0669 87.9959 20.0163 88.2151 19.9657H88.2319C89.969 19.561 91.7397 19.1394 93.5105 18.7178H93.5442C93.7635 18.6672 93.9995 18.5997 94.2356 18.5491H94.2694C95.9558 18.1444 97.676 17.7397 99.413 17.3349H99.4468C99.8346 17.2506 100.239 17.1663 100.627 17.082H100.661C103.005 16.5592 105.4 16.0195 107.811 15.4967H107.828C108.115 15.4292 108.419 15.3617 108.739 15.2943H108.773C111.184 14.7884 113.579 14.2993 115.923 13.844H115.957C116.244 13.7934 116.547 13.7259 116.868 13.6753H116.901C119.313 13.2537 121.708 12.849 124.102 12.4949H124.136C124.44 12.4611 124.76 12.4105 125.064 12.3768H125.097C127.509 12.0732 129.904 11.8203 132.298 11.601H132.332C132.619 11.5842 132.922 11.5673 133.243 11.5505H133.277C135.654 11.4155 138.066 11.348 140.461 11.348H140.494C140.815 11.348 141.118 11.3481 141.439 11.3649H141.456C143.834 11.4324 146.245 11.5673 148.623 11.7865C148.623 11.7865 148.657 11.7865 148.674 11.7865C148.96 11.8203 149.264 11.854 149.584 11.8877H149.618C152.03 12.225 154.475 12.6635 156.887 13.1525H156.92C157.207 13.22 157.511 13.2706 157.831 13.3381H157.865C160.243 13.8777 162.637 14.4342 165.049 15.0076L165.083 15.0245C165.386 15.092 165.707 15.1762 166.01 15.2437L166.044 15.2606C168.506 15.8508 170.884 16.4411 173.296 17.0145H173.329C173.616 17.0819 173.92 17.1494 174.24 17.2337H174.257C176.669 17.8071 179.046 18.3636 181.39 18.9202L181.424 18.937C181.728 19.0044 182.031 19.0719 182.318 19.1394V19.1225C184.409 19.6453 186.399 20.1344 188.44 20.6403H188.474C188.693 20.6909 188.963 20.7584 189.216 20.8258H189.249C191.256 21.3318 193.212 21.804 195.135 22.293H195.152C195.405 22.3605 195.641 22.4111 195.894 22.4785H195.928C197.783 22.9507 199.638 23.4061 201.442 23.8614H201.476C201.661 23.912 201.898 23.9795 202.134 24.03H202.15C203.938 24.4685 205.658 24.907 207.378 25.3286H207.395C207.598 25.3792 207.834 25.4298 208.036 25.4972C208.036 25.4972 208.053 25.4972 208.07 25.4972C209.723 25.902 211.375 26.3236 212.977 26.7115H212.994C213.197 26.7621 213.416 26.8127 213.618 26.8632H213.635C215.203 27.2511 216.755 27.639 218.29 28.01H218.307C218.475 28.0437 218.678 28.0944 218.863 28.1449H218.88C220.381 28.516 221.848 28.8701 223.349 29.2411H223.366C223.551 29.2917 223.737 29.3423 223.939 29.376H223.956C225.356 29.7133 226.772 30.0675 228.138 30.4048H228.155C228.307 30.4385 228.493 30.4891 228.661 30.5397H228.678C229.994 30.8601 231.309 31.1805 232.624 31.5009H232.641C232.793 31.5347 232.962 31.5684 233.13 31.619H233.147C234.412 31.9226 235.694 32.243 236.925 32.5465H236.942C237.11 32.5802 237.262 32.6308 237.431 32.6646H237.448C238.662 32.9681 239.876 33.2548 241.056 33.5415C241.191 33.5752 241.36 33.609 241.495 33.6427H241.512C242.675 33.9294 243.822 34.1992 244.952 34.4859C245.104 34.5196 245.239 34.5534 245.408 34.604C246.504 34.8738 247.583 35.1436 248.662 35.3966H248.679C248.814 35.4303 248.949 35.464 249.101 35.4978H249.118C250.18 35.7507 251.209 36.0037 252.254 36.2567H252.271C252.389 36.2904 252.524 36.3241 252.659 36.3579C253.671 36.594 254.683 36.8469 255.678 37.083C255.796 37.1167 255.931 37.1505 256.066 37.1842H256.083C257.061 37.4203 258.022 37.6564 258.966 37.8925C259.068 37.9094 259.203 37.9431 259.321 37.9768H259.337C260.096 38.1961 261.041 38.4153 261.968 38.6514ZM47.6901 31.5009C47.3866 31.5684 47.1167 31.6358 46.83 31.7033C46.83 32.2935 46.8469 32.8838 46.83 33.4741C46.8132 34.0812 46.7963 34.6714 46.7963 35.2617C47.083 35.1942 47.3697 35.1436 47.6564 35.0762C47.6564 34.4859 47.6733 33.8788 47.6901 33.2885C47.707 32.6814 47.6901 32.0912 47.6901 31.5009ZM50.0005 30.9613C49.7138 31.0287 49.4271 31.0962 49.1404 31.1636C49.1404 31.7707 49.1573 32.361 49.1404 32.9512C49.1236 33.5584 49.1067 34.1486 49.1067 34.7557C49.3934 34.6883 49.6801 34.6377 49.9668 34.5703C49.9668 33.9631 49.9837 33.3729 50.0005 32.7658C50.0343 32.1586 50.0005 31.5684 50.0005 30.9613ZM43.1536 32.5465C42.8838 32.614 42.6139 32.6646 42.3441 32.732V34.4859V36.2398C42.6139 36.1892 42.8838 36.1218 43.1536 36.0543V34.3004V32.5465ZM45.3966 32.0237C45.1099 32.0912 44.84 32.1587 44.5702 32.2093C44.5702 32.7995 44.5702 33.3897 44.5702 33.98C44.5702 34.5702 44.5702 35.1605 44.5702 35.7507C44.8569 35.6833 45.1267 35.6327 45.3966 35.5652C45.3966 34.975 45.3966 34.3847 45.3966 33.7945C45.3966 33.2042 45.3966 32.614 45.3966 32.0237ZM52.3447 30.4216C52.0748 30.489 51.7881 30.5565 51.5014 30.624C51.5014 31.2311 51.5183 31.8213 51.5014 32.4284C51.4846 33.0356 51.4677 33.6427 51.4677 34.2498C51.7544 34.1824 52.0411 34.1149 52.3278 34.0643C52.3278 33.4572 52.3278 32.8501 52.3447 32.243C52.3615 31.619 52.3447 31.0287 52.3447 30.4216ZM54.7394 29.8651C54.4358 29.9325 54.1323 30 53.8456 30.0675C53.8456 30.6746 53.8456 31.2817 53.8456 31.8888V33.7102C54.1323 33.6427 54.4358 33.5752 54.7394 33.5078C54.7394 32.9007 54.7394 32.2935 54.7394 31.6864C54.7394 31.0793 54.7394 30.4722 54.7394 29.8651ZM57.151 29.3086C56.8474 29.376 56.5607 29.4435 56.2572 29.511C56.2572 30.1181 56.2572 30.742 56.2572 31.3492C56.2572 31.9563 56.2572 32.5802 56.2572 33.1874C56.5607 33.1199 56.8474 33.0525 57.151 32.985C57.151 32.3779 57.151 31.7539 57.151 31.1468C57.151 30.5397 57.151 29.9157 57.151 29.3086ZM59.6469 28.7352C59.3434 28.8026 59.0398 28.8701 58.7362 28.9376C58.7362 29.5616 58.7362 30.1687 58.7362 30.7758C58.7362 31.3998 58.7362 32.0069 58.7362 32.6309C59.0398 32.5634 59.3434 32.4959 59.6469 32.4284C59.6469 31.8045 59.6469 31.1974 59.6469 30.5734C59.6469 29.9663 59.6469 29.3591 59.6469 28.7352ZM62.1428 28.1618C61.8393 28.2292 61.5189 28.3136 61.2153 28.381C61.2153 29.005 61.2153 29.6121 61.2153 30.2361C61.2153 30.8601 61.2153 31.4841 61.2153 32.0912C61.5189 32.0237 61.8393 31.9563 62.1428 31.8888C62.1428 31.2649 62.1428 30.6408 62.1428 30.0169C62.1597 29.4097 62.1428 28.7858 62.1428 28.1618ZM64.7231 27.5716C64.3858 27.639 64.0823 27.7233 63.7618 27.7908C63.7618 28.4147 63.7618 29.0387 63.7618 29.6627C63.7618 30.2867 63.7618 30.9107 63.7618 31.5346C64.0654 31.4672 64.3858 31.3997 64.7231 31.3154C64.7231 30.6914 64.7231 30.0675 64.7231 29.4435C64.7231 28.8195 64.7231 28.1955 64.7231 27.5716ZM67.2865 26.9813C66.966 27.0488 66.6456 27.1331 66.3421 27.2006C66.3421 27.8245 66.3421 28.4654 66.3421 29.0893C66.3421 29.7133 66.3421 30.3542 66.3421 30.9781C66.6625 30.9107 66.9829 30.8432 67.2865 30.7758C67.2865 30.1518 67.2865 29.511 67.2865 28.887C67.2865 28.2461 67.2865 27.6053 67.2865 26.9813ZM69.9342 26.3573C69.6138 26.4248 69.2933 26.5091 68.9729 26.5765C68.9729 27.2174 68.9729 27.8414 68.9729 28.4822C68.9729 29.123 68.9729 29.747 68.9729 30.3879C69.2933 30.3204 69.6138 30.253 69.9342 30.1686C69.9342 29.5278 69.9342 28.9038 69.9342 28.263C69.9342 27.639 69.9342 26.9982 69.9342 26.3573ZM72.5987 25.7502C72.2446 25.8345 71.9241 25.902 71.5869 25.9863C71.5869 26.6272 71.5869 27.268 71.5869 27.9088C71.5869 28.5497 71.5869 29.1905 71.5869 29.8314C71.9241 29.7639 72.2446 29.6796 72.5987 29.6121C72.5987 28.9713 72.5987 28.3304 72.5987 27.6896C72.5987 27.0319 72.5987 26.391 72.5987 25.7502ZM75.3139 25.1262C74.9766 25.2105 74.6562 25.278 74.3189 25.3623C74.3189 26.0031 74.3189 26.6609 74.3189 27.3017C74.3189 27.9426 74.3189 28.6003 74.3189 29.2411C74.6562 29.1737 74.9935 29.0893 75.3139 29.0219C75.3139 28.381 75.3139 27.7233 75.3139 27.0825C75.3139 26.4248 75.3139 25.7671 75.3139 25.1262ZM78.1133 24.4685C77.7761 24.5528 77.4388 24.6203 77.1015 24.7046C77.1015 25.3623 77.1184 26.0032 77.1015 26.6609C77.0847 27.3186 77.0678 27.9763 77.0678 28.6171C77.4051 28.5497 77.7424 28.4654 78.0965 28.3979C78.0965 27.7402 78.1134 27.0993 78.1302 26.4248C78.1302 25.767 78.1133 25.1262 78.1133 24.4685ZM80.9466 23.8277C80.5756 23.912 80.2382 23.9963 79.901 24.0638C79.901 24.7215 79.9178 25.3792 79.901 26.02C79.8841 26.6777 79.8672 27.3355 79.8672 27.9932C80.2214 27.9257 80.5587 27.8414 80.9297 27.757C80.9297 27.0993 80.9466 26.4416 80.9634 25.7671C80.9634 25.1262 80.9466 24.4854 80.9466 23.8277ZM83.7798 23.17C83.4256 23.2543 83.0884 23.3386 82.7342 23.4061C82.7342 24.0638 82.7511 24.7215 82.7342 25.3792C82.7173 26.0537 82.6836 26.7114 82.6836 27.3692C83.0378 27.2848 83.375 27.2174 83.7292 27.1331C83.7292 26.4754 83.7798 25.8008 83.7798 25.1431C83.7798 24.4854 83.7798 23.8277 83.7798 23.17ZM86.6973 22.4954C86.3432 22.5797 85.989 22.664 85.6349 22.7483C85.6349 23.4229 85.6349 24.0806 85.6349 24.7383C85.6349 25.396 85.6349 26.0706 85.6349 26.7284C85.989 26.644 86.3432 26.5765 86.6973 26.4922C86.6973 25.8177 86.6973 25.1599 86.6973 24.4854C86.6805 23.8277 86.6973 23.17 86.6973 22.4954ZM89.6992 21.8039C89.3282 21.8883 88.974 21.9726 88.6198 22.0569C88.6198 22.7315 88.6198 23.406 88.6198 24.0638C88.6198 24.7383 88.5861 25.4129 88.5861 26.0875C88.9403 26.0032 89.3619 25.9188 89.716 25.8345C89.716 25.1599 89.716 24.4854 89.716 23.8108C89.6991 23.1531 89.6992 22.4785 89.6992 21.8039ZM92.6842 21.1125C92.3131 21.1968 91.959 21.2811 91.588 21.3655C91.588 22.04 91.588 22.7146 91.588 23.4061C91.588 24.0807 91.588 24.7552 91.588 25.4298C91.9421 25.3623 92.2794 25.278 92.6504 25.1937C92.6504 24.5191 92.6842 23.8276 92.6842 23.1531C92.701 22.4616 92.6842 21.7871 92.6842 21.1125ZM95.7029 20.4042C95.3319 20.4886 94.9608 20.5729 94.5729 20.6572C94.5729 21.3486 94.5729 22.0232 94.5729 22.6978C94.5729 23.3723 94.5729 24.0637 94.5729 24.7383C94.944 24.654 95.3319 24.5697 95.7029 24.4854C95.7029 23.7939 95.7029 23.1194 95.7029 22.4279C95.7029 21.7871 95.7029 21.0957 95.7029 20.4042ZM98.8396 19.6959C98.4517 19.7802 98.0807 19.8646 97.6929 19.9657C97.6929 20.6572 97.7266 21.3317 97.6929 22.04C97.6591 22.7315 97.6423 23.4229 97.6423 24.1143C98.0301 24.03 98.4011 23.9457 98.789 23.8614C98.789 23.17 98.8059 22.4785 98.8396 21.7702C98.8565 21.0619 98.8396 20.3873 98.8396 19.6959ZM102.634 18.8358C102.145 18.9539 101.639 19.0551 101.133 19.1731C101.116 19.8646 101.116 20.556 101.116 21.2474C101.116 21.9389 101.116 22.6303 101.116 23.3217C101.622 23.2037 102.128 23.0857 102.617 22.9845C102.617 22.293 102.617 21.6016 102.617 20.9101C102.617 20.2187 102.617 19.5272 102.634 18.8358ZM106.749 17.9252C106.243 18.0432 105.754 18.1444 105.248 18.2624C105.231 18.9539 105.265 19.6453 105.231 20.3368C105.197 21.0282 105.164 21.7365 105.164 22.4279C105.67 22.3267 106.159 22.2087 106.665 22.1075C106.665 21.4161 106.698 20.7246 106.732 20.0163C106.783 19.2912 106.749 18.6166 106.749 17.9252ZM110.847 17.0482C110.324 17.1662 109.818 17.2674 109.312 17.3686C109.312 18.0601 109.329 18.7515 109.296 19.443C109.262 20.1513 109.228 20.8427 109.228 21.5341C109.717 21.4329 110.223 21.3317 110.746 21.2137C110.746 20.5222 110.78 19.8308 110.813 19.1225C110.847 18.4311 110.83 17.7396 110.847 17.0482ZM114.928 16.2387C114.439 16.3399 113.916 16.4242 113.427 16.5254C113.41 17.2168 113.444 17.9083 113.41 18.6166C113.377 19.308 113.343 20.0163 113.343 20.7078C113.832 20.6066 114.338 20.5222 114.844 20.4211C114.844 19.7296 114.878 19.0213 114.911 18.313C114.945 17.6384 114.911 16.947 114.928 16.2387ZM118.959 15.5135C118.453 15.5979 117.947 15.699 117.458 15.7834C117.458 16.4748 117.441 17.1831 117.441 17.8746C117.441 18.566 117.441 19.2743 117.441 19.9657C117.93 19.8814 118.436 19.7802 118.942 19.6959C118.942 19.0045 118.959 18.2962 118.959 17.6047C118.942 16.9133 118.942 16.205 118.959 15.5135ZM123.057 14.8559C122.551 14.9402 122.045 15.0076 121.539 15.0919C121.539 15.7834 121.522 16.4917 121.522 17.1831C121.522 17.8746 121.522 18.5829 121.522 19.2743C122.011 19.19 122.517 19.1225 123.04 19.0382C123.04 18.3467 123.04 17.6384 123.057 16.947C123.057 16.2556 123.057 15.5642 123.057 14.8559ZM127.121 14.3162C126.615 14.3668 126.126 14.4343 125.62 14.5017C125.62 15.1932 125.603 15.9014 125.603 16.5929C125.603 17.2843 125.603 17.9757 125.603 18.684C126.092 18.6166 126.598 18.5491 127.087 18.4986C127.087 17.8071 127.104 17.1157 127.104 16.4242C127.104 15.7159 127.121 15.0076 127.121 14.3162ZM131.253 13.8946C130.747 13.9452 130.241 13.9789 129.752 14.0295C129.752 14.7209 129.735 15.4124 129.735 16.1207C129.735 16.8121 129.735 17.5035 129.718 18.195C130.224 18.1444 130.713 18.0938 131.219 18.0601C131.219 17.3686 131.219 16.6772 131.219 15.9857C131.236 15.2774 131.253 14.586 131.253 13.8946ZM135.334 13.6416C134.828 13.6585 134.339 13.6922 133.85 13.7091C133.85 14.4005 133.833 15.0919 133.833 15.7834C133.833 16.4748 133.816 17.1663 133.816 17.8577C134.322 17.824 134.811 17.7902 135.317 17.7902C135.317 17.0988 135.317 16.4073 135.317 15.7159C135.317 15.0245 135.317 14.3331 135.334 13.6416ZM139.415 13.5741C138.926 13.5741 138.42 13.5741 137.914 13.5741C137.914 14.2656 137.897 14.957 137.897 15.6485C137.897 16.3399 137.897 17.0313 137.881 17.7228C138.37 17.7228 138.876 17.7396 139.381 17.7396C139.381 17.0482 139.398 16.3399 139.398 15.6485C139.398 14.9739 139.398 14.2656 139.415 13.5741ZM151.692 14.5523C151.17 14.468 150.664 14.3836 150.175 14.3162C150.175 15.0413 150.158 15.7665 150.158 16.5085C150.158 17.2337 150.158 17.9589 150.141 18.7009C150.647 18.7684 151.136 18.8527 151.676 18.937C151.676 18.2118 151.676 17.4698 151.676 16.7446C151.676 16.0195 151.676 15.2943 151.692 14.5523ZM155.841 15.2943C155.352 15.1931 154.846 15.0919 154.34 15.0076C154.323 15.7328 154.323 16.458 154.323 17.1831C154.323 17.9083 154.306 18.6334 154.306 19.3586C154.795 19.4429 155.301 19.5272 155.807 19.6284C155.824 18.9033 155.824 18.1781 155.824 17.453C155.824 16.7447 155.824 16.0195 155.841 15.2943ZM159.905 16.1713C159.399 16.0532 158.893 15.952 158.404 15.834C158.404 16.5591 158.388 17.2843 158.388 17.9926C158.388 18.7178 158.371 19.4261 158.371 20.1512C158.86 20.2524 159.366 20.3536 159.872 20.4548C159.889 19.7465 159.888 19.0213 159.888 18.313C159.888 17.6047 159.888 16.8796 159.905 16.1713ZM164.02 17.1157C163.497 16.9976 162.992 16.8796 162.486 16.7615C162.486 17.4698 162.469 18.195 162.469 18.8864C162.469 19.5947 162.452 20.303 162.452 21.0282C162.941 21.1463 163.447 21.2474 163.97 21.3655C163.97 20.6572 163.986 19.9489 163.986 19.2406C164.003 18.5323 164.003 17.8071 164.02 17.1157ZM168.118 18.0769C167.629 17.9589 167.123 17.8408 166.567 17.7059C166.55 18.4142 166.55 19.1225 166.55 19.814C166.55 20.5223 166.55 21.2306 166.533 21.922C167.106 22.0569 167.579 22.1581 168.085 22.2761C168.085 21.5847 168.101 20.8764 168.101 20.1681C168.101 19.4767 168.118 18.7852 168.118 18.0769ZM172.216 19.0551C171.71 18.937 171.221 18.819 170.732 18.7009C170.715 19.3924 170.715 20.1007 170.715 20.809C170.715 21.5004 170.699 22.2087 170.699 22.9001C171.188 23.0182 171.694 23.1362 172.183 23.2543C172.183 22.546 172.183 21.8545 172.183 21.1462C172.199 20.4548 172.216 19.7634 172.216 19.0551ZM176.314 20.0332C175.792 19.9152 175.286 19.7971 174.78 19.6622C174.763 20.3536 174.763 21.0619 174.763 21.7534C174.763 22.4448 174.763 23.1531 174.746 23.8445C175.252 23.9626 175.758 24.0806 176.281 24.2155C176.298 23.5241 176.298 22.8158 176.298 22.1244C176.298 21.4329 176.314 20.7415 176.314 20.0332ZM180.328 20.9944C179.89 20.8933 179.401 20.7752 178.895 20.6572C178.895 21.3486 178.878 22.0569 178.878 22.7483C178.878 23.4398 178.878 24.1481 178.861 24.8564C179.35 24.9744 179.856 25.0925 180.294 25.1937C180.311 24.5023 180.311 23.794 180.311 23.0857C180.294 22.3942 180.311 21.6859 180.328 20.9944ZM184.038 21.9051C183.6 21.8039 183.178 21.7028 182.723 21.6016V23.7433V25.8851C183.178 25.9863 183.6 26.0706 184.038 26.1718V24.0469V21.9051ZM187.546 22.7315C187.108 22.6303 186.686 22.5291 186.231 22.4279V24.536V26.644C186.686 26.7452 187.091 26.8295 187.546 26.9307V24.8395V22.7315ZM190.936 23.541C190.531 23.4398 190.092 23.3386 189.705 23.2543V25.3286V27.4029C190.109 27.4872 190.531 27.5884 190.936 27.6727V25.6153V23.541ZM194.241 24.3336C193.836 24.2324 193.449 24.1481 193.044 24.0469V26.0706V28.1112C193.449 28.1955 193.836 28.2798 194.241 28.381V26.3573V24.3336ZM197.445 25.0925C197.074 24.9913 196.686 24.907 196.299 24.8227V26.8295V28.8364C196.686 28.9207 197.074 29.005 197.445 29.0893V27.0993V25.0925ZM200.599 25.8514C200.245 25.7671 199.857 25.6827 199.469 25.5815V27.5547V29.5278C199.857 29.6121 200.245 29.6965 200.599 29.7808V27.8245V25.8514ZM203.635 26.5597C203.247 26.4754 202.876 26.3742 202.505 26.2899V28.2292V30.1686C202.876 30.253 203.247 30.3373 203.635 30.4048V28.4654V26.5597ZM206.569 27.268C206.215 27.1836 205.861 27.0993 205.49 27.015V28.9376V30.8601C205.861 30.9444 206.215 31.0119 206.569 31.0962V29.1905V27.268ZM209.419 27.9425C209.065 27.8582 208.728 27.7739 208.373 27.6896V29.5784V31.4672C208.728 31.5515 209.065 31.619 209.419 31.6864V29.8145V27.9425ZM212.219 28.6003C211.864 28.5159 211.527 28.4316 211.19 28.3641V30.2192V32.0743C211.527 32.1418 211.864 32.2261 212.219 32.2936V30.4385V28.6003ZM214.917 29.2411C214.579 29.1568 214.276 29.0893 213.939 29.005C213.939 29.6121 213.922 30.2361 213.939 30.8264C213.939 31.4503 213.955 32.0575 213.955 32.6646C214.31 32.7489 214.63 32.8164 214.951 32.8838C214.951 32.2767 214.934 31.6696 214.917 31.0624C214.883 30.4553 214.917 29.8482 214.917 29.2411ZM217.548 29.8651C217.227 29.7976 216.907 29.7133 216.603 29.629C216.603 30.2361 216.586 30.8263 216.603 31.4335C216.62 32.0406 216.637 32.6477 216.637 33.2548C216.957 33.3223 217.261 33.3897 217.598 33.4572C217.598 32.8669 217.564 32.2598 217.548 31.6527C217.531 31.0625 217.548 30.4722 217.548 29.8651ZM220.111 30.4722C219.791 30.4047 219.487 30.3204 219.167 30.253C219.167 30.8432 219.15 31.4335 219.167 32.0406C219.183 32.6477 219.2 33.238 219.2 33.8282C219.521 33.8957 219.824 33.9631 220.145 34.0306C220.145 33.4403 220.128 32.8501 220.111 32.243C220.094 31.6527 220.111 31.0624 220.111 30.4722ZM222.641 31.0624C222.337 30.995 222.034 30.9275 221.747 30.8432V32.5971V34.351C222.034 34.4185 222.337 34.4859 222.641 34.5365V32.7826V31.0624ZM229.757 32.7152C229.454 32.6477 229.184 32.5803 228.897 32.5128V34.1992V35.8857C229.184 35.9531 229.454 36.0037 229.757 36.0712V34.3847V32.7152ZM231.967 33.238C231.68 33.1705 231.427 33.1031 231.14 33.0525C231.14 33.609 231.157 34.1655 231.174 34.722C231.191 35.2785 231.174 35.8351 231.174 36.3916C231.444 36.4422 231.731 36.5097 232 36.5771C232 36.0206 231.984 35.464 231.967 34.9075C231.95 34.351 231.967 33.7945 231.967 33.238ZM234.159 33.7439C233.889 33.6764 233.636 33.6258 233.366 33.5584C233.366 34.098 233.349 34.6546 233.366 35.2111C233.383 35.7676 233.4 36.3241 233.4 36.8638C233.67 36.9144 233.923 36.9818 234.193 37.0324C234.193 36.4928 234.176 35.9362 234.159 35.3797C234.142 34.84 234.159 34.3004 234.159 33.7439ZM236.318 34.2498C236.031 34.1824 235.795 34.1317 235.525 34.0643C235.525 34.604 235.508 35.1436 235.525 35.7001C235.542 36.2567 235.559 36.7963 235.559 37.336C235.829 37.3866 236.065 37.454 236.351 37.5046C236.351 36.965 236.351 36.4253 236.334 35.8857C236.301 35.3291 236.318 34.7895 236.318 34.2498ZM225.103 31.6358C224.766 31.5515 224.496 31.4841 224.192 31.4166C224.192 31.99 224.192 32.5803 224.209 33.1537C224.226 33.7439 224.226 34.3173 224.226 34.8907C224.529 34.9581 224.816 35.0087 225.103 35.0762V33.356V31.6358ZM227.447 32.1755C227.16 32.108 226.924 32.0406 226.638 31.99V33.6933V35.4135C226.924 35.4641 227.211 35.5315 227.481 35.5989V33.8957C227.498 33.3223 227.447 32.7489 227.447 32.1755ZM238.392 34.7389C238.156 34.6714 237.886 34.6208 237.633 34.5534V36.1555V37.7576C237.886 37.8082 238.139 37.8588 238.392 37.9262V36.3241V34.7389ZM240.449 35.2111C240.196 35.1605 239.96 35.093 239.69 35.0256V36.6108V38.1961C239.943 38.2467 240.18 38.3141 240.449 38.3647V36.7795V35.2111ZM242.422 35.6833C242.186 35.6327 241.933 35.5652 241.697 35.5146V37.083V38.6514C241.933 38.702 242.17 38.7526 242.422 38.8032V37.2348V35.6833ZM244.362 36.1386C244.126 36.088 243.89 36.0206 243.67 35.97V37.5215V39.073C243.89 39.1236 244.126 39.1742 244.362 39.2248V37.6902V36.1386ZM246.268 36.5771C246.048 36.5265 245.812 36.459 245.576 36.4085V37.9431V39.4778C245.812 39.5284 246.048 39.579 246.268 39.6296V38.1118V36.5771ZM248.14 37.0155C247.92 36.965 247.684 36.9144 247.482 36.8638V38.3816V39.8994C247.701 39.95 247.937 40.0006 248.14 40.0512V38.5502V37.0155ZM249.944 37.4372C249.725 37.3866 249.489 37.3191 249.269 37.2854V38.7863V40.2872C249.489 40.3378 249.725 40.3884 249.961 40.439V38.955C249.961 38.4322 249.961 37.9431 249.944 37.4372ZM251.715 37.8588C251.512 37.8082 251.293 37.7576 251.074 37.707V39.1911V40.6751C251.276 40.7257 251.496 40.7763 251.715 40.81V39.3428C251.732 38.8369 251.715 38.3478 251.715 37.8588ZM253.452 38.2635C253.233 38.213 253.03 38.1624 252.811 38.1118V39.579V41.0461C253.03 41.0967 253.233 41.1304 253.452 41.181V39.7307V38.2635ZM255.155 38.6683C254.953 38.6177 254.733 38.5671 254.548 38.5165V39.9668V41.4172C254.767 41.4678 254.97 41.5183 255.189 41.5521C255.189 41.0799 255.172 40.5908 255.155 40.1017C255.138 39.6127 255.155 39.1405 255.155 38.6683ZM256.808 39.0393C256.605 38.9887 256.403 38.9549 256.201 38.9043C256.201 39.3765 256.184 39.8656 256.201 40.3378C256.218 40.8269 256.234 41.2991 256.234 41.7713C256.437 41.8219 256.639 41.8557 256.842 41.9062C256.842 41.434 256.825 40.9618 256.808 40.4728C256.808 40.0006 256.808 39.5284 256.808 39.0393ZM258.46 39.4272C258.275 39.3766 258.056 39.326 257.87 39.2922C257.87 39.7644 257.853 40.2366 257.87 40.7088C257.887 41.181 257.904 41.6532 257.904 42.1254C258.089 42.1592 258.292 42.2098 258.494 42.2604C258.494 41.7882 258.477 41.316 258.46 40.8438C258.444 40.3716 258.46 39.8994 258.46 39.4272ZM260.063 39.7982C259.86 39.7476 259.658 39.697 259.472 39.6633V41.063V42.4627C259.658 42.5133 259.86 42.547 260.063 42.5976V41.1979V39.7982ZM261.648 40.1692C261.462 40.1186 261.277 40.0849 261.091 40.0343V41.4172V42.8C261.277 42.8338 261.462 42.8843 261.648 42.9181V41.5352V40.1692Z" fill="#BCB5B5"/>
</svg>
