<svg width="150" height="120" viewBox="0 0 150 120" fill="none" xmlns="http://www.w3.org/2000/svg">
<path fill-rule="evenodd" clip-rule="evenodd" d="M70.3991 26.6958H81.7994C83.1485 26.6958 83.5027 27.6234 83.6713 28.045L84.3628 31.0975C84.5314 31.5528 84.4977 32.9694 83.2835 32.9694H68.6621C67.4141 32.9694 67.1106 31.9744 67.3804 31.283L68.4597 28.045C68.7295 27.3199 69.3873 26.6958 70.3991 26.6958ZM68.544 25.1274C67.0262 25.1274 66.3348 25.9707 65.7783 27.3535L63.9063 32.9694H63.8726C62.7258 32.9694 61.832 33.8631 61.832 35.0099V40.356C61.832 41.5028 62.7258 42.3965 63.8726 42.3965H88.0561C89.2028 42.3965 90.0966 41.5028 90.0966 40.356V35.0099C90.0966 33.9306 89.2703 33.0705 88.191 33.0031L86.5214 27.3535C86.0323 26.1056 85.324 25.1274 83.8063 25.1274H68.544ZM82.221 43.0373H86.9599V45.7526C86.9599 46.5115 86.3696 47.1017 85.6107 47.1017H83.5533C82.7944 47.1017 82.2041 46.5115 82.2041 45.7526V43.0373H82.221ZM85.4084 36.1061C86.2684 36.1061 86.9767 36.8144 86.9767 37.6745C86.9767 38.5346 86.2684 39.2429 85.4084 39.2429C84.5483 39.2429 83.84 38.5346 83.84 37.6745C83.8231 36.8144 84.5314 36.1061 85.4084 36.1061ZM66.554 36.1061C67.4141 36.1061 68.1224 36.8144 68.1224 37.6745C68.1224 38.5346 67.4141 39.2429 66.554 39.2429C65.694 39.2429 64.9857 38.5346 64.9857 37.6745C64.9688 36.8144 65.6771 36.1061 66.554 36.1061ZM64.9688 43.0373H69.7245V45.7526C69.7245 46.5115 69.1343 47.1017 68.3754 47.1017H66.3348C65.5759 47.1017 64.9857 46.5115 64.9857 45.7526V43.0373H64.9688Z" fill="#BCB5B5"/>
<path fill-rule="evenodd" clip-rule="evenodd" d="M97.2103 36.8989H102.91C103.585 36.8989 103.754 37.3711 103.855 37.5734L104.192 39.1081C104.276 39.3274 104.26 40.0357 103.652 40.0357H96.3333C95.7094 40.0357 95.5576 39.5297 95.6925 39.1924L96.2322 37.5734C96.3839 37.2024 96.7212 36.8989 97.2103 36.8989ZM96.2828 36.1062C95.5239 36.1062 95.1866 36.5278 94.8999 37.2192L93.9723 40.0357H93.9555C93.3821 40.0357 92.9268 40.4909 92.9268 41.0475V43.7289C92.9268 44.3023 93.3821 44.7576 93.9555 44.7576H106.047C106.621 44.7576 107.076 44.3023 107.076 43.7289V41.0475C107.076 40.5078 106.671 40.0862 106.132 40.0357L105.305 37.2025C105.069 36.5785 104.715 36.0894 103.939 36.0894H96.2828V36.1062ZM103.13 45.0612H105.508V46.4272C105.508 46.8151 105.221 47.1018 104.833 47.1018H103.804C103.433 47.1018 103.13 46.8151 103.13 46.4272V45.0612ZM104.715 41.604C105.153 41.604 105.508 41.9581 105.508 42.3966C105.508 42.8351 105.153 43.1893 104.715 43.1893C104.276 43.1893 103.939 42.8351 103.939 42.3966C103.939 41.9581 104.293 41.604 104.715 41.604ZM95.2878 41.604C95.7262 41.604 96.0635 41.9581 96.0635 42.3966C96.0635 42.8351 95.7094 43.1893 95.2878 43.1893C94.8493 43.1893 94.4951 42.8351 94.4951 42.3966C94.512 41.9581 94.8662 41.604 95.2878 41.604ZM94.512 45.0612H96.8899V46.4272C96.8899 46.8151 96.5863 47.1018 96.2153 47.1018H95.2034C94.8156 47.1018 94.5289 46.8151 94.5289 46.4272V45.0612H94.512Z" fill="#BCB5B5"/>
<path fill-rule="evenodd" clip-rule="evenodd" d="M49.2494 36.8989H54.9495C55.6241 36.8989 55.7927 37.3711 55.877 37.5734L56.2312 39.1081C56.3155 39.3274 56.2986 40.0357 55.6915 40.0357H48.3893C47.7653 40.0357 47.6135 39.5297 47.7484 39.1924L48.2881 37.5734C48.423 37.2024 48.7603 36.8989 49.2494 36.8989ZM48.3218 36.1062C47.5629 36.1062 47.2256 36.5278 46.9389 37.2192L46.0114 40.0357H45.9945C45.4212 40.0357 44.9658 40.4909 44.9658 41.0475V43.7289C44.9658 44.3023 45.4043 44.7576 45.9945 44.7576H58.0863C58.6597 44.7576 59.115 44.3023 59.115 43.7289V41.0475C59.115 40.5078 58.6934 40.0862 58.1537 40.0357L57.3274 37.2025C57.0913 36.5785 56.7371 36.0894 55.9614 36.0894H48.3218V36.1062ZM55.1687 45.0612H57.5466V46.4272C57.5466 46.8151 57.2599 47.1018 56.872 47.1018H55.8433C55.4723 47.1018 55.1687 46.8151 55.1687 46.4272V45.0612ZM56.754 41.604C57.1925 41.604 57.5297 41.9581 57.5297 42.3966C57.5297 42.8351 57.1756 43.1893 56.754 43.1893C56.3155 43.1893 55.9614 42.8351 55.9614 42.3966C55.9782 41.9581 56.3324 41.604 56.754 41.604ZM47.3268 41.604C47.7653 41.604 48.1195 41.9581 48.1195 42.3966C48.1195 42.8351 47.7653 43.1893 47.3268 43.1893C46.8884 43.1893 46.5342 42.8351 46.5342 42.3966C46.5511 41.9581 46.9052 41.604 47.3268 41.604ZM46.5511 45.0612H48.9289V46.4272C48.9289 46.8151 48.6422 47.1018 48.2544 47.1018H47.2425C46.8546 47.1018 46.5679 46.8151 46.5679 46.4272V45.0612H46.5511Z" fill="#BCB5B5"/>
<path fill-rule="evenodd" clip-rule="evenodd" d="M58.9789 103.042L58.3379 104.02L59.6031 104.442L59.6368 103.244C59.6368 102.856 59.6706 102.367 59.6706 101.979H59.6537C59.4344 102.3 59.1982 102.721 58.9789 103.042Z" fill="#BCB5B5"/>
<path fill-rule="evenodd" clip-rule="evenodd" d="M74.9343 105.723C74.9174 106.33 74.7825 106.988 74.5633 107.578C74.4284 107.932 74.2597 108.27 74.0742 108.556L76.1148 108.624L76.2329 105.048L74.9512 105.015L74.9343 105.723Z" fill="#BCB5B5"/>
<path fill-rule="evenodd" clip-rule="evenodd" d="M46.8368 94.6934C46.6006 94.5078 46.4319 94.4066 46.3475 94.356L45.3691 95.6211C45.4366 95.7055 45.5378 95.7899 45.7234 95.9249C46.2801 96.3466 46.8705 96.414 47.2247 95.9417C47.4946 95.5874 47.3934 95.132 46.8368 94.6934Z" fill="#BCB5B5"/>
<path fill-rule="evenodd" clip-rule="evenodd" d="M103.99 94.542C103.248 95.166 103.315 96.2116 104.04 97.0548C104.749 97.898 105.76 98.134 106.502 97.5269C107.261 96.8861 107.177 95.8911 106.452 95.031C105.744 94.1709 104.732 93.9349 103.99 94.542Z" fill="#BCB5B5"/>
<path fill-rule="evenodd" clip-rule="evenodd" d="M112.068 79.6841C104.985 92.7371 91.1567 101.591 75.2536 101.591C59.3505 101.591 45.5218 92.7371 38.4388 79.6841H26.8867C34.7455 98.6565 53.4818 112.047 75.2536 112.047C97.0255 112.047 115.745 98.6396 123.604 79.6841H112.068ZM48.6248 97.0543C48.237 97.5434 47.7142 97.8807 47.1576 97.9144C46.4156 97.965 45.6567 97.6614 44.881 97.0374C44.7292 96.9194 44.5943 96.8013 44.5099 96.717L43.1945 98.4203L41.7779 97.3241L45.6736 92.2817C46.1121 92.5178 46.736 92.9225 47.6298 93.6139C48.3887 94.2042 48.8103 94.7776 48.979 95.3004C49.1476 95.84 49.0633 96.4978 48.6248 97.0543ZM59.4011 107.426L59.4517 105.79L57.6641 105.2L56.7703 106.566L54.9658 105.959L58.9458 100.478L61.2899 101.254L61.3068 108.067L59.4011 107.426ZM78.5253 110.934L77.075 110.9L77.0581 110.107L73.1118 109.972L73.0444 110.782L71.6109 110.748L71.6446 108.589L72.2349 108.556C72.5385 108.1 72.7746 107.628 72.9601 107.122C73.1456 106.549 73.2468 105.942 73.2636 105.301L73.3142 103.513L78.0868 103.665L77.9182 108.724L78.6433 108.809L78.5253 110.934ZM93.3828 106.65L92.8262 105.065C92.5395 104.239 92.236 103.395 92.0336 102.451L91.9999 102.468C91.983 103.429 91.865 104.458 91.7132 105.267L91.3422 107.375L89.2679 108.117L87.1092 102.029L88.6945 101.473L89.2847 103.109C89.6052 104.036 89.9593 105.031 90.2291 105.959L90.2629 105.942C90.3472 104.964 90.499 103.901 90.6339 103.075L91.0049 100.646L92.8262 100.006L94.9849 106.094L93.3828 106.65ZM107.33 98.6396C105.694 100.006 103.788 99.7526 102.591 98.336C101.326 96.8182 101.495 94.8282 103.113 93.4622C104.783 92.0625 106.672 92.2985 107.903 93.7489C109.151 95.2498 109.016 97.223 107.33 98.6396Z" fill="#BCB5B5"/>
<path fill-rule="evenodd" clip-rule="evenodd" d="M98.6464 19.0565C98.4946 18.9553 98.3597 18.9047 98.1741 18.8203L97.1113 20.5241C97.1957 20.6085 97.3475 20.7096 97.5162 20.8109C98.0223 21.1314 98.7476 21.1314 99.1188 20.5579C99.4899 19.9506 99.0682 19.3095 98.6464 19.0565Z" fill="#BCB5B5"/>
<path fill-rule="evenodd" clip-rule="evenodd" d="M81.5993 10.7925H81.5825C81.4138 11.2142 81.2282 11.8047 81.0595 12.2095L80.5703 13.5084L81.9536 13.6771L81.7849 12.2939C81.7174 11.8721 81.6499 11.2479 81.5993 10.7925Z" fill="#BCB5B5"/>
<path fill-rule="evenodd" clip-rule="evenodd" d="M75.2545 7.4873C49.8399 7.4873 28.574 25.7513 23.8857 49.8167H34.5946C39.0636 31.5358 55.5738 17.9431 75.2545 17.9431C94.9351 17.9431 111.445 31.5189 115.914 49.8167H126.623C121.935 25.7513 100.669 7.4873 75.2545 7.4873ZM52.6057 22.9519L51.2397 21.7713L49.6376 22.8507L50.2447 24.5202L48.5245 25.667L46.1804 18.2467L48.3896 16.7627L54.3933 21.7376L52.6057 22.9519ZM61.0041 18.9044L58.9298 13.4572L57.665 13.9463L58.2215 15.4135C58.9467 17.336 59.149 18.7021 58.2721 19.6971C57.9685 20.0681 57.5132 20.3885 56.8724 20.6415L56.0629 19.2248C56.417 19.0224 56.6194 18.8032 56.7374 18.5334C56.9567 17.9938 56.8218 17.2517 56.4339 16.223L55.2534 13.1199L60.2115 11.2311L62.8761 18.213L61.0041 18.9044ZM72.6405 16.4759L72.2358 13.8114C72.1009 12.9851 71.9828 11.99 71.8479 10.8264H71.8142C71.6961 11.8383 71.5275 12.985 71.3757 13.8282L70.9372 16.5097L69.3857 16.6952L68.4582 14.1824C68.1715 13.4066 67.8173 12.3442 67.5138 11.3492H67.4969C67.5812 12.3948 67.6655 13.5078 67.733 14.351L67.9185 17.0325L66.114 17.2348L65.7093 9.74707L68.3907 9.42664L69.1159 11.383C69.4194 12.1756 69.7567 13.1368 70.0265 14.0306H70.0603C70.1615 13.103 70.2795 12.0237 70.4144 11.2143L70.7348 9.15686L73.3488 8.85331L74.5968 16.2399L72.6405 16.4759ZM82.2869 16.9482L82.0339 15.1774L80.1114 14.9413L79.4706 16.6109L77.4131 16.3411L80.5162 9.19052L83.1638 9.52782L84.4287 17.2348L82.2869 16.9482ZM93.6366 14.0306L91.7984 13.4235L89.977 18.9213L88.0714 18.2973L89.8927 12.7995L88.0882 12.1924L88.611 10.5903L94.1763 12.4285L93.6366 14.0306ZM96.2674 21.8051C95.5254 21.3329 94.9857 20.945 94.6822 20.6583L98.6116 14.351L100.298 15.3967L98.9657 17.5384C99.1681 17.6227 99.4379 17.7577 99.6909 17.9094C101.006 18.7358 101.816 20.1861 100.922 21.6364C100.551 22.2266 100.079 22.5639 99.5391 22.682C98.4935 22.9181 97.2287 22.3954 96.2674 21.8051ZM101.816 25.1442L100.113 24.0817L104.076 17.7407L105.779 18.8032L101.816 25.1442Z" fill="#BCB5B5"/>
<path fill-rule="evenodd" clip-rule="evenodd" d="M48.0186 18.7693C48.1704 19.2079 48.4234 19.7645 48.5584 20.1863L49.0307 21.4852L50.1778 20.7092L49.1488 19.7814C48.8283 19.4947 48.3559 19.073 48.0186 18.7524V18.7693Z" fill="#BCB5B5"/>
<path d="M60.4661 87.0232H60.4323L58.6616 87.8664L58.2568 85.927L60.8371 84.7466H62.8777V94.1231H60.4661V87.0232Z" fill="#BCB5B5"/>
<path d="M69.3189 94.2548C66.7386 94.2548 65.7773 91.8938 65.7773 89.4316C65.7773 86.902 66.7892 84.5747 69.3189 84.5747C71.9497 84.5747 72.8604 87.0031 72.8604 89.3979C72.8604 92.1636 71.7473 94.2548 69.3189 94.2548ZM69.3357 92.3155C69.9766 92.3155 70.3644 91.4385 70.3644 89.4148C70.3644 87.4416 69.9934 86.531 69.3189 86.531C68.678 86.531 68.2564 87.391 68.2564 89.4148C68.2564 91.4553 68.678 92.3155 69.3357 92.3155Z" fill="#BCB5B5"/>
<path d="M77.7846 94.1036V91.9956H73.8721V90.3091L77.0088 84.7271H80.1456V90.0561H81.1406V91.9956H80.1456V94.1036H77.7846ZM77.7846 90.073V88.4709C77.7846 87.8638 77.8183 87.2567 77.8521 86.599H77.8015C77.5148 87.2398 77.2618 87.8469 76.9245 88.4878L76.1656 90.0393L76.1488 90.073H77.7846Z" fill="#BCB5B5"/>
<path d="M83.7393 94.2557C82.9127 94.2557 82.3223 93.6316 82.3223 92.7375C82.3223 91.8434 82.9127 91.2192 83.7561 91.2192C84.5996 91.2192 85.1731 91.8266 85.19 92.7375C85.19 93.6484 84.6165 94.2557 83.7393 94.2557Z" fill="#BCB5B5"/>
<path d="M89.7427 94.2548C87.1624 94.2548 86.2012 91.8938 86.2012 89.4316C86.2012 86.902 87.213 84.5747 89.7427 84.5747C92.3735 84.5747 93.2842 87.0031 93.2842 89.3979C93.3011 92.1636 92.1711 94.2548 89.7427 94.2548ZM89.7764 92.3155C90.4173 92.3155 90.8051 91.4385 90.8051 89.4148C90.8051 87.4416 90.4341 86.531 89.7595 86.531C89.1187 86.531 88.6971 87.391 88.6971 89.4148C88.6971 91.4553 89.1018 92.3155 89.7764 92.3155Z" fill="#BCB5B5"/>
<path fill-rule="evenodd" clip-rule="evenodd" d="M19.3334 49.8003C24.0723 23.2559 47.3788 2.98492 75.2555 2.98492C103.132 2.98492 126.439 23.239 131.178 49.8003H134.213C129.441 21.6032 104.802 0 75.2555 0C45.7092 0 21.0705 21.5863 16.2979 49.8003H19.3334Z" fill="#BCB5B5"/>
<path fill-rule="evenodd" clip-rule="evenodd" d="M128.447 79.6841C120.352 101.169 99.5417 116.533 75.2739 116.533C50.9893 116.533 30.1956 101.169 22.0838 79.6841H18.8965C27.1431 102.856 49.3197 119.518 75.2571 119.518C101.211 119.518 123.388 102.856 131.618 79.6841H128.447Z" fill="#BCB5B5"/>
<path d="M39.3997 60.9482H33.4297V69.9032H39.3997V60.9482Z" fill="#BCB5B5"/>
<path d="M117.094 60.9482H111.124V69.9032H117.094V60.9482Z" fill="#BCB5B5"/>
<path d="M69.2866 60.9482H63.2998V69.9032H69.2866V60.9482Z" fill="#BCB5B5"/>
<path d="M54.3433 60.9482H48.3564V63.9333H54.3433V60.9482Z" fill="#BCB5B5"/>
<path d="M24.4605 60.9482H18.4736V69.9032H24.4605V60.9482Z" fill="#BCB5B5"/>
<path fill-rule="evenodd" clip-rule="evenodd" d="M0.512695 49.8003V79.6839H149.998V49.8003H0.512695ZM27.445 69.9025L24.46 72.8876H15.4882V57.9458H24.46L27.445 60.9308V69.9025ZM42.3868 72.8876H30.43V57.9458H42.3868V72.8876ZM57.3286 66.9176H48.3568V72.8876H45.3718V57.9458H57.3286V66.9176ZM72.2704 72.8876H60.3136V57.9458H72.2704V72.8876ZM87.2459 72.8707L85.7281 66.9345H84.2441V72.9044H81.2591V66.9345H79.7582L78.2404 72.8876L75.3228 72.1286L76.8406 66.1756L79.7413 66.9345V66.9513H79.7582V63.9664H79.7413L76.8575 64.7084L75.3397 58.7552L78.2741 57.9963L79.7919 63.9495H79.7582V63.9664V63.9832H81.2591V58.0132H84.2441V63.9832H85.7281V63.9664H85.745H85.7113L87.2291 58.0132L90.1635 58.7721L88.6457 64.7253L85.745 63.9832H85.7281V66.9682L85.7619 66.9513V66.9345L88.6625 66.1756L90.1803 72.1286L87.2459 72.8707ZM105.156 72.8876H102.171V66.9176H96.184V72.8876H93.199V57.9458H96.184V63.9157H102.171V57.9458H105.156V72.8876ZM120.081 72.8876H108.124V57.9458H120.081V72.8876ZM135.023 60.9476H126.068V63.9326H132.038V66.9176H126.068V69.9025H135.023V72.8876H123.066V57.9458H135.023V60.9476Z" fill="#BCB5B5"/>
</svg>
