<svg width="274" height="121" viewBox="0 0 274 121" fill="none" xmlns="http://www.w3.org/2000/svg">
<path d="M51.4686 0.579627C50.794 0.579627 50.1363 0.731406 49.6304 1.00124L2.78126 26.5338L55.263 57.092C55.7521 57.3618 56.1231 57.9858 56.1231 58.5592V103.132C56.1231 103.688 55.7185 104.329 55.2295 104.599L52.4131 106.167C52.177 106.285 51.8734 106.353 51.5698 106.353H51.5192C51.1819 106.353 50.8614 106.285 50.6253 106.167L47.7923 104.599C47.3032 104.346 46.9153 103.705 46.9153 103.132V63.3992C46.8815 63.1125 46.6791 62.7584 46.443 62.6235L0.201172 35.708V88.4259C0.201172 89.6064 1.02748 91.0567 2.05621 91.6638L49.681 119.743C49.9677 119.912 50.305 120.03 50.676 120.097H52.3962C52.7503 120.03 53.1044 119.912 53.3911 119.743L101.016 91.6638C102.028 91.0567 102.854 89.6064 102.854 88.4259V35.6912L71.5203 53.9384C71.0312 54.225 70.2723 54.1913 69.8001 53.9046L67.0176 52.2519C66.7984 52.117 66.579 51.8809 66.4272 51.6111C66.4103 51.5942 66.4105 51.5773 66.3937 51.5605C66.2081 51.2738 66.1237 50.9702 66.1069 50.6835L66.0394 47.4456C66.0225 46.9059 66.3766 46.2314 66.8657 45.9447L100.24 26.5001L53.3911 0.967507C52.8852 0.680813 52.2107 0.545898 51.5361 0.545898H51.4686V0.579627Z" fill="#BCB5B5"/>
<path d="M195.962 56.2996C197.901 55.5238 200.633 55.2371 202.961 55.2371C210.162 55.2371 215.137 59.4195 215.137 66.9072C215.137 75.7441 209.639 79.741 202.286 79.8422V90.0619C202.472 90.0619 202.674 90.0619 202.876 90.0619C217.953 90.0619 227.009 81.596 227.009 66.5193C227.009 52.7918 217.38 44.7138 203.163 44.7138C195.962 44.7138 188.862 46.3665 184.191 48.3059V106.606H195.962V56.2996ZM261.75 56.3839C259.895 55.5069 257.466 55.0179 254.549 55.0179C247.449 55.0179 242.676 59.4026 242.676 67.0927C242.676 75.3731 247.837 80.0445 256.1 80.0445C257.551 80.0445 259.793 79.9433 261.75 79.5555V56.3839ZM273.437 88.0213C268.276 89.3874 261.564 90.0619 255.729 90.0619C240.737 90.0619 230.804 82.0851 230.804 67.4806C230.804 53.6687 240.045 44.7138 253.587 44.7138C256.606 44.7138 259.81 45.1016 261.767 46.0798V26.0112H273.453V88.0213H273.437ZM165.926 56.3839C164.071 55.5069 161.643 55.0179 158.726 55.0179C151.626 55.0179 146.853 59.4026 146.853 67.0927C146.853 75.3731 152.013 80.0445 160.277 80.0445C161.744 80.0445 163.97 79.9433 165.926 79.5555V56.3839ZM177.597 88.0213C172.436 89.3874 165.724 90.0619 159.889 90.0619C144.897 90.0619 134.98 82.0851 134.98 67.4806C134.98 53.6687 144.222 44.7138 157.764 44.7138C160.783 44.7138 163.987 45.1016 165.943 46.0798V26.0112H177.63V88.0213H177.597Z" fill="#BCB5B5"/>
</svg>
