<svg width="351" height="121" viewBox="0 0 351 121" fill="none" xmlns="http://www.w3.org/2000/svg">
<path fill-rule="evenodd" clip-rule="evenodd" d="M220.119 45.1514C219.124 45.1514 218.619 46.1126 218.619 48.0858V84.597C218.619 86.6207 219.124 87.6157 220.119 87.6157C221.081 87.6157 221.57 86.6207 221.57 84.597V48.0689C221.57 46.1126 221.081 45.1514 220.119 45.1514Z" fill="#BCB5B5"/>
<path fill-rule="evenodd" clip-rule="evenodd" d="M195.399 31.7949V51.678C197.355 51.678 198.316 50.3625 198.316 47.7654V35.6569C198.333 33.0766 197.355 31.7949 195.399 31.7949Z" fill="#BCB5B5"/>
<path fill-rule="evenodd" clip-rule="evenodd" d="M150.59 73.9386V84.7655C150.59 86.5868 151.096 87.4975 152.125 87.4975C153.069 87.4975 153.524 86.5868 153.524 84.7655V69.4189C151.568 70.2453 150.59 71.7631 150.59 73.9386Z" fill="#BCB5B5"/>
<path fill-rule="evenodd" clip-rule="evenodd" d="M284.712 73.9386V84.7655C284.712 86.5868 285.218 87.4975 286.247 87.4975C287.191 87.4975 287.646 86.5868 287.646 84.7655V69.4189C285.69 70.2453 284.712 71.7631 284.712 73.9386Z" fill="#BCB5B5"/>
<path fill-rule="evenodd" clip-rule="evenodd" d="M0.27832 0.579102V120.097H350.938V0.579102H0.27832ZM107.013 96.2504L62.8618 95.9469C43.8895 93.3329 35.4068 78.0201 33.8553 69.2844C32.5061 63.1964 32.7085 56.5518 33.9059 50.8685C35.137 41.8292 47.4816 22.0305 62.8787 22.6545L85.8817 22.0474V34.9317L66.8755 35.2353C57.4652 36.7025 46.8744 45.0503 45.7951 54.1908C45.0868 57.5805 45.0532 60.9703 45.6603 64.36C47.0432 71.3755 51.9677 79.4536 61.1587 82.1181C65.8133 83.1131 71.0917 83.5685 76.1847 82.3542C84.9204 78.8802 86.472 74.0738 87.4333 67.092C86.9948 58.4743 82.6269 55.287 74.5489 54.6799C70.6364 54.3257 66.9937 56.4506 67.1961 60.0764C67.2972 62.741 70.2484 65.6079 72.8118 68.1713C73.7731 70.2119 72.677 72.1513 69.945 72.5729C66.8756 73.0788 65.4422 72.7753 63.8063 72.3368C59.7757 70.7178 57.5834 68.8796 55.9812 64.4106C55.0706 60.3463 55.0538 58.1876 56.2511 55.5231C58.2074 51.1215 61.6478 47.698 66.4204 46.2646L107.03 45.961V96.2504H107.013ZM107.94 31.1204C107.805 32.3346 107.367 33.9199 106.338 34.7462L103.792 36.7531L102.982 39.2996C101.97 39.9067 100.857 40.3115 99.6261 40.5138C98.3782 40.615 97.1302 40.3452 95.8654 39.7043C94.4151 39.2659 93.2008 38.4732 92.2396 37.2927C91.565 35.9942 91.3796 34.6956 91.7 33.3971C92.189 31.9468 93.1672 30.8843 94.6512 30.176C95.7812 29.6195 97.1135 28.8606 99.7443 26.5502C101.06 23.7844 102.139 21.0018 102.965 18.2361C102.864 19.5346 104.23 21.1199 104.702 22.1317C104.837 22.4184 106.642 25.5552 107.148 26.0274C107.653 26.4996 108.075 29.923 107.94 31.1204ZM130.387 95.93L126.778 68.6098V95.93H117.367V22.3004H126.778V46.838L130.893 22.3004H139.611L133.827 55.8772L140.708 95.93H130.387ZM162.024 95.93H154.486V93.6196C153.862 95.7108 152.024 96.7564 149.022 96.7564C144.384 96.7564 142.057 93.6365 142.057 87.4135V75.4398C142.057 72.7753 142.63 70.448 143.743 68.458C144.856 66.468 147.133 63.989 150.54 61.004C152.513 59.2838 153.491 57.9178 153.491 56.8891V48.069C153.491 46.1128 153.002 45.1347 152.024 45.1347C150.911 45.1347 150.354 47.4957 150.354 52.2683C150.354 53.1283 150.388 54.3932 150.438 56.0796C150.523 57.7492 150.556 59.0309 150.556 59.8572H142.36V47.951C142.36 39.9067 145.75 35.8761 152.513 35.8761C158.837 35.8761 162.007 40.0585 162.007 48.4569V95.93H162.024ZM184.302 95.93H163.879V87.7171L173.526 45.8767H164.419V36.3146H183.374V44.3758L173.576 86.4691H184.302V95.93ZM199.699 96.0312C198.687 93.94 198.181 88.0206 198.181 78.2562V78.155L198.232 73.7366C198.299 67.6148 198.316 64.478 198.316 64.3431C198.316 61.8472 197.355 60.5992 195.399 60.5992V95.93H185.988V22.3004H197.608C200.256 22.3004 202.566 23.3291 204.522 25.4371C206.495 27.5283 207.473 30.8168 207.473 35.3365V44.1734C207.473 49.8904 205.534 53.7523 201.638 55.776C205.534 57.3613 207.49 61.4087 207.49 67.9352L207.339 75.9964C207.339 87.7677 207.929 94.4459 209.109 96.0312H199.699ZM230.089 84.6815C230.089 92.7258 226.8 96.7564 220.24 96.7564C213.494 96.7564 210.121 92.574 210.121 84.1756V48.4738C210.121 40.0754 213.494 35.893 220.24 35.893C222.854 35.893 225.147 36.8711 227.12 38.8274C229.094 40.7837 230.089 43.8192 230.089 47.9847V84.6815ZM251.692 84.1587C251.692 92.5571 248.336 96.7395 241.641 96.7395C235.063 96.7395 231.792 92.7089 231.792 84.6646V71.9321H240.275V84.5634C240.275 86.5872 240.747 87.5822 241.708 87.5822C242.669 87.5822 243.142 85.6596 243.142 81.7808C243.142 76.7553 242.551 73.5005 241.371 72.0333C236.936 68.0195 234.254 65.2369 233.343 63.6348C232.433 62.0327 231.96 59.6548 231.96 56.4675V48.4569C231.96 40.0585 235.266 35.8761 241.877 35.8761C248.302 35.8761 251.523 39.9067 251.523 47.951V59.7054H243.226L243.395 52.555C243.395 47.5968 242.872 45.1178 241.809 45.1178C240.764 45.1178 240.224 46.6524 240.224 49.7723C240.224 52.9934 240.46 55.4219 240.932 57.0577C241.405 58.7104 244.002 61.5268 248.741 65.5405C250.714 67.9521 251.692 71.19 251.692 75.1869V84.1587ZM274.172 48.322H265.655V33.4477C265.655 32.2334 265.183 31.6432 264.256 31.6432C263.328 31.6432 262.856 32.2334 262.856 33.4477V84.5297C262.856 85.7271 263.328 86.3173 264.256 86.3173C265.2 86.3173 265.655 85.7271 265.655 84.5297V70.7516H263.716V59.4693H274.155V95.93H269.652L268.421 91.8826C266.347 95.0193 264.154 96.6046 261.861 96.6046C259.601 96.6046 257.645 95.6096 255.958 93.6027C254.272 91.579 253.446 88.3917 253.446 84.0238V35.9605C253.446 26.4153 256.987 21.6426 264.07 21.6426C270.799 21.6426 274.155 25.9936 274.155 34.6788V48.322H274.172ZM296.163 95.93H288.625V93.6196C288.001 95.7108 286.162 96.7564 283.161 96.7564C278.523 96.7564 276.196 93.6365 276.196 87.4135V75.4398C276.196 72.7753 276.769 70.448 277.882 68.458C278.995 66.468 281.272 63.989 284.678 61.004C286.652 59.2838 287.63 57.9178 287.63 56.8891V48.069C287.63 46.1128 287.141 45.1347 286.162 45.1347C285.049 45.1347 284.493 47.4957 284.493 52.2683C284.493 53.1283 284.527 54.3932 284.577 56.0796C284.662 57.7492 284.695 59.0309 284.695 59.8572H276.499V47.951C276.499 39.9067 279.889 35.8761 286.652 35.8761C292.976 35.8761 296.146 40.0585 296.146 48.4569V95.93H296.163ZM318.036 84.1587C318.036 92.5571 314.68 96.7395 307.985 96.7395C301.408 96.7395 298.136 92.7089 298.136 84.6646V71.9321H306.619V84.5634C306.619 86.5872 307.091 87.5822 308.052 87.5822C309.014 87.5822 309.486 85.6596 309.486 81.7808C309.486 76.7553 308.896 73.5005 307.715 72.0333C303.28 68.0195 300.598 65.2369 299.688 63.6348C298.777 62.0327 298.305 59.6548 298.305 56.4675V48.4569C298.305 40.0585 301.61 35.8761 308.221 35.8761C314.646 35.8761 317.867 39.9067 317.867 47.951V59.7054H309.57L309.739 52.555C309.739 47.5968 309.216 45.1178 308.154 45.1178C307.108 45.1178 306.568 46.6524 306.568 49.7723C306.568 52.9934 306.804 55.4219 307.277 57.0577C307.749 58.6936 310.346 61.5268 315.085 65.5405C317.058 67.9521 318.036 71.19 318.036 75.1869V84.1587Z" fill="#BCB5B5"/>
</svg>
