<svg width="104" height="121" viewBox="0 0 104 121" fill="none" xmlns="http://www.w3.org/2000/svg">
<path d="M36.1512 9.76611L35.2065 12.8531H37.0959L36.1512 9.76611Z" fill="#BCB5B5"/>
<path d="M55.8977 9.76611L54.9362 12.8531H56.8424L55.8977 9.76611Z" fill="#BCB5B5"/>
<path d="M0.888672 0.929199V120.447H103.323V0.929199H0.888672ZM69.0206 8.82174C69.0206 8.50132 69.2061 8.33266 69.5771 8.33266H74.6364C74.8894 8.33266 75.058 8.34953 75.1423 8.38325C75.2604 8.43385 75.3615 8.53504 75.429 8.70368L75.9012 9.88415C75.9518 10.0191 75.9855 10.1372 75.9855 10.2383C75.9855 10.4407 75.8506 10.5588 75.5976 10.5588H75.1592C74.9062 10.5588 74.7207 10.525 74.5521 10.4576C74.4509 10.3901 74.3497 10.3226 74.2316 10.2552C73.8438 10.0022 73.4896 9.88415 73.1692 9.88415H72.1067V11.6886H73.0174C73.3041 11.6886 73.6245 11.638 73.9618 11.52C74.2991 11.4188 74.5015 11.3514 74.6195 11.3514H74.9231C75.0749 11.3514 75.2266 11.52 75.3447 11.8404L75.8337 13.139C75.8675 13.2402 75.8843 13.3245 75.8843 13.4088C75.8843 13.6449 75.7494 13.763 75.4796 13.763H74.8725C74.687 13.763 74.434 13.6787 74.1136 13.4931C73.8438 13.3414 73.5571 13.257 73.2704 13.257H72.1405V15.6181H73.3884C73.9112 15.6181 74.2991 15.5168 74.5689 15.3145C74.6701 15.2133 74.7713 15.1121 74.8725 15.0109C75.0243 14.8929 75.2266 14.8254 75.4627 14.8254H75.9855C76.3228 14.8254 76.4915 14.9435 76.4915 15.1627C76.4915 15.247 76.4746 15.3314 76.424 15.4494L75.9349 16.7648C75.8337 17.0347 75.5976 17.1696 75.2266 17.1696H69.6108C69.2398 17.1696 69.0543 17.0009 69.0543 16.6805V16.242C69.0543 16.0059 69.1049 15.8542 69.2061 15.7698C69.2567 15.7192 69.3916 15.6855 69.6108 15.6349C69.83 15.5843 69.965 15.5169 70.0493 15.4325C70.1167 15.3313 70.1673 15.1627 70.1673 14.8929V10.5925C70.1673 10.3226 70.1336 10.154 70.0493 10.0528C69.9818 9.95162 69.83 9.88417 69.6108 9.85044C69.3916 9.79985 69.2567 9.76614 69.2061 9.71555C69.1049 9.63123 69.0543 9.47945 69.0543 9.24335V8.82174H69.0206ZM60.8245 16.242C60.8245 16.0059 60.8751 15.8542 60.9763 15.7698C61.0269 15.7192 61.1618 15.6855 61.381 15.6349C61.6003 15.5843 61.7352 15.5169 61.8195 15.4325C61.8869 15.3313 61.9375 15.1627 61.9375 14.8929V10.5925C61.9375 10.3226 61.9038 10.154 61.8195 10.0528C61.752 9.95162 61.6003 9.88417 61.381 9.85044C61.1618 9.79985 61.0269 9.76614 60.9763 9.71555C60.8751 9.64809 60.8245 9.47945 60.8245 9.24335V8.80486C60.8245 8.48444 61.01 8.31578 61.381 8.31578H64.8719C66.2042 8.31578 67.2835 8.72055 68.0761 9.5469C68.8688 10.3564 69.2735 11.4357 69.2735 12.768C69.2735 13.4763 69.1386 14.1509 68.8688 14.7748C68.5989 15.3988 68.2279 15.8879 67.7726 16.2757C67.0643 16.866 66.0862 17.1696 64.8719 17.1696H61.381C61.01 17.1696 60.8245 17.0009 60.8245 16.6805V16.242ZM51.4142 16.242C51.4142 16.0397 51.4817 15.8879 51.5997 15.8204C51.7178 15.7698 51.8358 15.7361 51.9707 15.6855C52.2068 15.5674 52.3755 15.3145 52.5272 14.8929L54.0113 10.3564C54.045 10.2552 54.0619 10.154 54.0619 10.0866C54.0619 9.98538 53.9776 9.90102 53.8258 9.83356C53.7078 9.78297 53.5728 9.71555 53.4548 9.66496C53.3367 9.5975 53.2693 9.46255 53.2693 9.26018V8.82174C53.2693 8.50132 53.4548 8.33266 53.8089 8.33266H58.1431C58.5141 8.33266 58.6996 8.50132 58.6996 8.82174V9.26018C58.6996 9.46255 58.649 9.61435 58.5309 9.69867C58.396 9.74926 58.278 9.78299 58.1599 9.85044C57.9913 9.9179 57.907 10.036 57.907 10.1709C57.907 10.2215 57.9238 10.2889 57.9407 10.3732L59.4585 14.9097C59.5934 15.3145 59.7789 15.5843 60.015 15.7024C60.1331 15.753 60.2511 15.7867 60.386 15.8541C60.5041 15.9385 60.5715 16.0734 60.5715 16.2757V16.7142C60.5715 17.0515 60.386 17.2033 60.0319 17.2033H57.0469C56.6759 17.2033 56.5072 17.0347 56.5072 16.7142V16.2757C56.5072 16.0396 56.5578 15.9047 56.659 15.8373C56.6759 15.8373 56.8108 15.7867 57.0806 15.7024C57.3842 15.618 57.5359 15.4831 57.5359 15.2808C57.5359 15.1796 57.5191 15.0615 57.4685 14.9266L57.3167 14.4544H54.4835L54.3317 14.9435C54.2811 15.0784 54.2643 15.1965 54.2643 15.2976C54.2643 15.4831 54.416 15.6349 54.7196 15.7192C54.9894 15.8036 55.1243 15.8373 55.1412 15.8541C55.2424 15.9216 55.293 16.0734 55.293 16.2926V16.7142C55.293 17.0515 55.1075 17.2033 54.7533 17.2033H51.9876C51.6166 17.2033 51.4479 17.0347 51.4479 16.7142V16.242H51.4142ZM24.9372 65.8737C19.4057 71.4052 19.4057 80.4277 24.9372 85.9592C27.5512 88.5731 31.0421 90.0235 34.7522 90.0235C38.5973 90.0235 42.24 88.5057 44.9889 85.7568L69.0206 61.7251H58.5647C56.9794 61.7251 55.6977 60.4434 55.6977 58.8582C55.6977 57.2729 56.9794 55.9913 58.5647 55.9913H75.9518C77.1154 55.9913 78.161 56.6827 78.5995 57.762C79.038 58.8413 78.8019 60.0724 77.9755 60.8819L49.0363 89.8042C45.2081 93.6324 40.132 95.7573 34.7522 95.7573C29.5074 95.7573 24.5831 93.7168 20.8729 90.0235C13.0984 82.249 13.0984 69.6008 20.8729 61.8263C24.1109 58.5884 28.3944 56.5478 32.9478 56.0924C37.4337 55.6371 41.9702 56.7333 45.7478 59.1449C46.473 59.6171 46.9452 60.3928 47.0463 61.2529C47.1475 62.113 46.844 62.9731 46.22 63.5802L31.9865 77.8137C30.8734 78.9267 29.0521 78.9267 27.9391 77.8137C27.3825 77.2571 27.0958 76.5151 27.0958 75.79C27.0958 75.0648 27.3825 74.3228 27.9391 73.7662C27.9391 73.7662 35.6292 66.0761 39.2887 62.3997C34.3475 60.8313 28.7485 62.0624 24.9372 65.8737ZM44.3818 15.8204C44.3818 15.5337 44.4661 15.2807 44.6347 15.0446L48.5979 9.79985H47.7715C47.1813 9.79985 46.7596 9.90104 46.4898 10.0697C46.3886 10.1709 46.2874 10.2552 46.1863 10.3395C46.0176 10.4744 45.8152 10.5419 45.5791 10.5419H45.1744C44.8371 10.5419 44.6685 10.4407 44.6685 10.2215C44.6685 10.154 44.6853 10.0697 44.7359 9.95162L45.225 8.6868C45.2924 8.51816 45.3768 8.41697 45.4948 8.36637C45.5791 8.33264 45.7309 8.31578 45.9333 8.31578H50.3517C50.7228 8.31578 50.9083 8.48444 50.9083 8.80486V9.46254C50.9083 9.7661 50.8239 10.0191 50.6384 10.2552L46.6416 15.5506H48.0076C48.5304 15.5506 48.9183 15.4494 49.1881 15.247C49.2893 15.1459 49.3905 15.0446 49.4917 14.9435C49.6434 14.8085 49.8458 14.7411 50.0819 14.7411H50.6047C50.942 14.7411 51.0938 14.8592 51.0938 15.0784C51.0938 15.1459 51.0769 15.247 51.0263 15.3819L50.5373 16.7479C50.4698 16.9166 50.4023 17.0347 50.3012 17.0853C50.2 17.1358 50.0482 17.1527 49.8289 17.1527H44.9046C44.5336 17.1527 44.348 16.9841 44.348 16.6636V15.8204H44.3818ZM31.6661 16.242C31.6661 16.0397 31.7335 15.8879 31.8516 15.8204C31.9696 15.7698 32.1045 15.7361 32.2226 15.6855C32.4418 15.5674 32.6273 15.3145 32.7791 14.8929L34.2632 10.3564C34.2969 10.2552 34.3138 10.154 34.3138 10.0866C34.3138 9.98538 34.2295 9.90102 34.0777 9.83356C33.9596 9.78297 33.8247 9.71555 33.7067 9.66496C33.5886 9.5975 33.5211 9.46255 33.5211 9.26018V8.82174C33.5211 8.50132 33.7067 8.33266 34.0608 8.33266H38.3949C38.766 8.33266 38.9515 8.50132 38.9515 8.82174V9.26018C38.9515 9.46255 38.9009 9.61435 38.7828 9.69867C38.6479 9.74926 38.5299 9.78299 38.4118 9.85044C38.2432 9.9179 38.1588 10.036 38.1588 10.1709C38.1588 10.2215 38.1757 10.2889 38.1926 10.3732L39.7104 14.9097C39.8453 15.3145 40.0308 15.5843 40.25 15.7024C40.3681 15.753 40.503 15.7867 40.621 15.8541C40.7391 15.9385 40.8065 16.0734 40.8065 16.2757V16.7142C40.8065 17.0515 40.621 17.2033 40.25 17.2033H37.265C36.894 17.2033 36.7254 17.0347 36.7254 16.7142V16.2757C36.7254 16.0396 36.776 15.9047 36.8771 15.8373C36.894 15.8373 37.0289 15.7867 37.2988 15.7024C37.6023 15.618 37.7541 15.4831 37.7541 15.2808C37.7541 15.1796 37.7372 15.0615 37.6866 14.9266L37.5349 14.4544H34.7017L34.5499 14.9435C34.4993 15.0784 34.4824 15.1965 34.4824 15.2976C34.4824 15.4831 34.6342 15.6349 34.9378 15.7192C35.2076 15.8036 35.3425 15.8373 35.3594 15.8541C35.4605 15.9216 35.5111 16.0734 35.5111 16.2926V16.7142C35.5111 17.0515 35.3256 17.2033 34.9546 17.2033H32.1889C31.8179 17.2033 31.6492 17.0347 31.6492 16.7142V16.242H31.6661ZM24.9035 15.8204C24.9035 15.5337 24.9878 15.2807 25.1564 15.0446L29.1196 9.79985H28.2932C27.703 9.79985 27.2813 9.90104 27.0115 10.0697C26.9103 10.1709 26.8091 10.2552 26.708 10.3395C26.5393 10.4744 26.3369 10.5419 26.1008 10.5419H25.6961C25.3588 10.5419 25.1902 10.4407 25.1902 10.2215C25.1902 10.154 25.207 10.0697 25.2576 9.95162L25.7467 8.6868C25.7973 8.51816 25.8985 8.41697 25.9997 8.36637C26.084 8.33264 26.2358 8.31578 26.4381 8.31578H30.8566C31.2276 8.31578 31.3962 8.48444 31.3962 8.80486V9.46254C31.3962 9.7661 31.3119 10.0191 31.1433 10.2552L27.1464 15.5506H28.5124C29.0352 15.5506 29.4231 15.4494 29.6929 15.247C29.7941 15.1459 29.8953 15.0446 29.9965 14.9435C30.1483 14.8085 30.3507 14.7411 30.5868 14.7411H31.1095C31.4468 14.7411 31.6155 14.8592 31.6155 15.0784C31.6155 15.1459 31.5986 15.247 31.548 15.3819L31.0758 16.7648C31.0084 16.9335 30.9409 17.0515 30.8397 17.1021C30.7385 17.1527 30.5868 17.1696 30.3675 17.1696H25.4431C25.0721 17.1696 24.9035 17.0009 24.9035 16.6805V15.8204ZM16.0666 16.242C16.0666 16.0059 16.1172 15.8542 16.2015 15.7698C16.2521 15.7192 16.3701 15.6855 16.5725 15.6349C16.7749 15.5843 16.9098 15.5 16.9772 15.3819C17.0278 15.2976 17.0447 15.129 17.0447 14.8929V10.5925C17.0447 10.3564 17.0278 10.1877 16.9772 10.1034C16.9098 9.98535 16.7749 9.90104 16.5725 9.85044C16.3701 9.79985 16.2521 9.76614 16.2015 9.71555C16.1172 9.64809 16.0666 9.47945 16.0666 9.24335V8.80486C16.0666 8.48444 16.2352 8.31578 16.5725 8.31578H19.3551C19.5912 8.31578 19.7936 8.48444 19.9285 8.80486L22.3401 14.5218V10.5756C22.3401 10.3226 22.3064 10.1371 22.2389 10.0528C22.1715 9.95162 22.0365 9.88416 21.851 9.83356C21.6655 9.78297 21.5475 9.74926 21.4969 9.69867C21.4126 9.63121 21.3788 9.46257 21.3788 9.22647V8.78798C21.3788 8.46756 21.5475 8.2989 21.8679 8.2989H24.3975C24.7348 8.2989 24.8866 8.46756 24.8866 8.78798V9.22647C24.8866 9.47944 24.8529 9.64809 24.7517 9.71555C24.7348 9.73242 24.5831 9.78299 24.3132 9.85044C24.0434 9.9179 23.9085 10.1709 23.9085 10.5756V16.6468C23.9085 16.8323 23.8748 16.9672 23.7904 17.0347C23.7061 17.1021 23.5712 17.1358 23.352 17.1358H22.104C21.7161 17.1358 21.4463 16.984 21.3114 16.6805L18.5962 10.3901V14.8591C18.5962 15.129 18.6299 15.2976 18.7143 15.3988C18.7817 15.5 18.9335 15.5675 19.1359 15.6012C19.3551 15.6349 19.49 15.6855 19.5406 15.7361C19.6249 15.8204 19.6755 15.9722 19.6755 16.2083V16.6468C19.6755 16.9841 19.49 17.1358 19.1359 17.1358H16.5725C16.2352 17.1358 16.0666 16.9672 16.0666 16.6468V16.242ZM8.22466 16.242C8.22466 16.0059 8.27525 15.8542 8.37643 15.7698C8.42703 15.7192 8.56194 15.6855 8.78118 15.6349C9.00041 15.5843 9.13533 15.5169 9.21965 15.4325C9.28711 15.3313 9.32084 15.1627 9.32084 14.8929V10.5925C9.32084 10.3226 9.28711 10.154 9.21965 10.0528C9.15219 9.95162 9.00041 9.88417 8.78118 9.85044C8.56194 9.79985 8.42703 9.76614 8.37643 9.71555C8.27525 9.63123 8.22466 9.47945 8.22466 9.24335V8.80486C8.22466 8.48444 8.41016 8.31578 8.78118 8.31578H13.8405C14.0934 8.31578 14.2621 8.33264 14.3464 8.36637C14.4645 8.41697 14.5656 8.51816 14.6331 8.6868L15.1053 9.86732C15.1559 10.0022 15.1896 10.1203 15.1896 10.2215C15.1896 10.4238 15.0547 10.5419 14.8017 10.5419H14.3633C14.1272 10.5419 13.9248 10.5082 13.7562 10.4407C13.655 10.3732 13.5538 10.3058 13.4357 10.2383C13.0479 9.98538 12.6937 9.86732 12.3733 9.86732H11.3108V11.6718H12.2215C12.5082 11.6718 12.8286 11.6212 13.1659 11.5032C13.5032 11.402 13.7224 11.3345 13.8236 11.3345H14.0934C14.2452 11.3345 14.397 11.5032 14.515 11.8236L15.0041 13.1221C15.0378 13.2233 15.0547 13.3076 15.0547 13.392C15.0547 13.6281 14.9198 13.7461 14.65 13.7461H14.0428C13.8573 13.7461 13.6044 13.6618 13.284 13.4763C13.0141 13.3245 12.7274 13.2402 12.4407 13.2402H11.3108V15.6012H12.5588C13.0816 15.6012 13.4695 15.5 13.7393 15.2976C13.8405 15.1965 13.9417 15.0952 14.0428 14.994C14.1946 14.876 14.397 14.8086 14.6331 14.8086H15.1559C15.4932 14.8086 15.6618 14.9266 15.6618 15.1459C15.6618 15.2302 15.6281 15.3145 15.5944 15.4325L15.0884 16.7479C14.9873 17.0178 14.7512 17.1527 14.3801 17.1527H8.76431C8.3933 17.1527 8.20779 16.9841 8.20779 16.6636V16.242H8.22466ZM16.0666 94.8466C11.0073 89.7873 8.22466 83.0585 8.22466 75.9249C8.22466 68.7744 11.0073 62.0455 16.0666 57.0031C20.4176 52.6521 26.1852 49.9201 32.3069 49.2961C38.3275 48.689 44.4492 50.1562 49.5085 53.4279C50.0651 53.782 50.6047 54.2205 51.0938 54.7096C52.9151 56.5309 53.927 58.9762 53.927 61.5565C53.927 64.1367 52.932 66.5483 51.1106 68.3865L51.0938 68.4034L51.1106 68.3865L37.0289 82.8055C35.9159 83.9354 34.1114 83.9523 32.9646 82.8561C31.8347 81.7431 31.8179 79.9386 32.914 78.8087C32.914 78.8087 47.0126 64.3728 47.0295 64.3728C48.5641 62.8381 48.5641 60.3254 47.0295 58.7907C46.8271 58.5883 46.6079 58.4197 46.3886 58.2679C38.1251 52.9388 27.079 54.1193 20.1309 61.0843C16.1509 65.0643 13.9754 70.3428 13.9754 75.9586C13.9754 81.5744 16.1678 86.8529 20.1309 90.8329C24.0603 94.7792 29.2882 96.9379 34.8366 96.9379C40.4355 96.9379 45.7478 94.7286 49.7446 90.7149L78.7681 61.6914C79.5102 60.9493 79.9318 59.9543 79.9318 58.8919C79.9318 56.7164 78.161 54.9288 75.9687 54.9288H58.5647C56.9794 54.9288 55.6977 53.6471 55.6977 52.0619C55.6977 50.4766 56.9794 49.1949 58.5647 49.1949H75.9518C81.2978 49.1949 85.6488 53.5459 85.6488 58.8919C85.6488 61.489 84.6369 63.9175 82.8156 65.7557L53.7921 94.7792C48.699 99.8722 41.9702 102.672 34.8197 102.672C27.7367 102.621 21.0753 99.8553 16.0666 94.8466ZM55.4616 102.739C53.8427 102.739 52.5441 101.424 52.5441 99.8048C52.5441 98.1858 53.8595 96.8704 55.4616 96.8704C57.0806 96.8704 58.396 98.1858 58.396 99.8048C58.396 101.424 57.0806 102.739 55.4616 102.739ZM62.2917 102.739C60.6727 102.739 59.3573 101.424 59.3573 99.8048C59.3573 98.1858 60.6727 96.8704 62.2917 96.8704C63.9107 96.8704 65.2261 98.1858 65.2261 99.8048C65.2261 101.424 63.9107 102.739 62.2917 102.739ZM62.2917 95.9091C60.6727 95.9091 59.3573 94.5937 59.3573 92.9747C59.3573 91.3558 60.6727 90.0403 62.2917 90.0403C63.9107 90.0403 65.2261 91.3558 65.2261 92.9747C65.2261 94.5937 63.9107 95.9091 62.2917 95.9091ZM69.1217 102.739C67.5028 102.739 66.2042 101.424 66.2042 99.8048C66.2042 98.1858 67.5196 96.8704 69.1217 96.8704C70.7407 96.8704 72.0561 98.1858 72.0561 99.8048C72.0561 101.424 70.7407 102.739 69.1217 102.739ZM69.1217 95.9091C67.5028 95.9091 66.2042 94.5937 66.2042 92.9747C66.2042 91.3558 67.5196 90.0403 69.1217 90.0403C70.7407 90.0403 72.0561 91.3558 72.0561 92.9747C72.0561 94.5937 70.7407 95.9091 69.1217 95.9091ZM75.9518 102.739C74.3328 102.739 73.0343 101.424 73.0343 99.8048C73.0343 98.1858 74.3497 96.8704 75.9518 96.8704C77.5708 96.8704 78.8862 98.1858 78.8862 99.8048C78.8862 101.424 77.5708 102.739 75.9518 102.739ZM75.9518 95.9091C74.3328 95.9091 73.0343 94.5937 73.0343 92.9747C73.0343 91.3558 74.3497 90.0403 75.9518 90.0403C77.5708 90.0403 78.8862 91.3558 78.8862 92.9747C78.8862 94.5937 77.5708 95.9091 75.9518 95.9091ZM82.7818 102.739C81.1629 102.739 79.8643 101.424 79.8643 99.8048C79.8643 98.1858 81.1797 96.8704 82.7818 96.8704C84.4008 96.8704 85.7162 98.1858 85.7162 99.8048C85.7162 101.424 84.4008 102.739 82.7818 102.739ZM82.7818 95.9091C81.1629 95.9091 79.8643 94.5937 79.8643 92.9747C79.8643 91.3558 81.1797 90.0403 82.7818 90.0403C84.4008 90.0403 85.7162 91.3558 85.7162 92.9747C85.7162 94.5937 84.4008 95.9091 82.7818 95.9091ZM85.7162 9.24335C85.7162 9.49632 85.6656 9.66492 85.5813 9.73238C85.5645 9.74924 85.4127 9.79987 85.1429 9.86732C84.873 9.93478 84.7381 10.1877 84.7381 10.5925V16.6636C84.7381 16.8492 84.7044 16.984 84.6201 17.0515C84.5357 17.1189 84.4008 17.1527 84.1816 17.1527H82.9336C82.5458 17.1527 82.2759 17.0009 82.141 16.6974L79.4258 10.4069V14.876C79.4258 15.1459 79.4596 15.3145 79.5439 15.4157C79.6114 15.5168 79.7631 15.5843 79.9655 15.6181C80.1847 15.6518 80.3197 15.7024 80.3702 15.753C80.4546 15.8373 80.5052 15.9891 80.5052 16.2252V16.6636C80.5052 17.0009 80.3197 17.1527 79.9486 17.1527H77.3684C77.0311 17.1527 76.8625 16.9841 76.8625 16.6636V16.2252C76.8625 15.9891 76.9131 15.8373 76.9974 15.753C77.048 15.7024 77.166 15.6687 77.3684 15.6181C77.5708 15.5675 77.7057 15.4831 77.7731 15.3651C77.8237 15.2807 77.8406 15.1121 77.8406 14.876V10.5756C77.8406 10.3395 77.8237 10.1709 77.7731 10.0866C77.7057 9.96852 77.5708 9.88416 77.3684 9.83356C77.166 9.78297 77.048 9.74926 76.9974 9.69867C76.9131 9.63121 76.8625 9.46257 76.8625 9.22647V8.78798C76.8625 8.46756 77.0311 8.2989 77.3684 8.2989H80.1341C80.3702 8.2989 80.5726 8.46756 80.7075 8.78798L83.1191 14.505V10.5588C83.1191 10.3058 83.0854 10.1203 83.0179 10.036C82.9505 9.93479 82.8156 9.86733 82.6301 9.81673C82.4446 9.76614 82.3265 9.73238 82.2759 9.68179C82.1916 9.61433 82.1579 9.44569 82.1579 9.20959V8.77115C82.1579 8.45073 82.3265 8.28207 82.6469 8.28207H85.1934C85.5139 8.28207 85.6825 8.45073 85.6825 8.77115V9.24335H85.7162Z" fill="#BCB5B5"/>
<path d="M66.3727 14.8256C66.7774 14.3196 66.9966 13.6282 66.9966 12.7512C66.9966 11.8574 66.7774 11.166 66.3558 10.6601C65.9173 10.1373 65.3439 9.88428 64.6356 9.88428H63.9611V15.5844H64.6862C65.3945 15.5676 65.9679 15.3315 66.3727 14.8256Z" fill="#BCB5B5"/>
</svg>
