<svg width="266" height="121" viewBox="0 0 266 121" fill="none" xmlns="http://www.w3.org/2000/svg">
<path fill-rule="evenodd" clip-rule="evenodd" d="M207.737 109.21V101.89C209.035 101.317 209.963 100.558 210.519 99.58C210.806 99.0909 210.941 98.6525 210.941 98.2815C210.941 97.9948 210.857 97.6743 210.671 97.3033C210.165 96.3252 209.187 95.7181 207.737 95.482V88.4833C213.521 89.0904 217.366 90.7768 219.306 93.5257C220.064 94.6219 220.435 95.8024 220.419 97.0672C220.419 97.5731 220.284 98.2477 220.048 99.0909C218.951 102.666 216.506 105.398 212.661 107.304L207.737 109.21ZM253.119 113.341L245.648 120.424L233.37 108.08L233.623 119.092L223.842 118.502L224.5 89.1916L233.691 89.5795L234.112 102.582L242.932 89.2084L251.162 92.3283L242.916 104.437L253.119 113.341ZM192.896 115.567L192.845 115.584V115.466L192.896 115.567ZM207.737 88.4833C206.303 88.3315 204.752 88.2472 203.082 88.2303C199.912 88.1966 196.488 88.399 192.845 88.8712V95.2121V95.3133L195.881 95.4314L196.1 118.839L204.06 118.89L204.161 110.592L207.737 109.21V101.89C206.843 102.278 205.78 102.565 204.532 102.767L204.617 95.4145C205.089 95.3639 205.629 95.3471 206.253 95.3471C206.792 95.3471 207.298 95.3977 207.737 95.4651V88.4833ZM192.845 115.584L185.594 118.755L183.621 114.437L178.241 114.522V107.725L180.551 107.759L178.342 102.902L178.258 103.071V90.1022L181.546 90.136L192.862 115.432V115.584H192.845ZM192.845 88.8712H192.795L192.845 95.2121V88.8712ZM178.241 114.522L172.372 114.623L170.365 118.569L163.215 115.213L175.458 90.0854L178.241 90.1191V103.088L175.93 107.709L178.241 107.742V114.522ZM114.612 113.78V106.983L116.922 107.017L114.713 102.16L114.629 102.329V89.3602L117.917 89.3939L129.284 114.792L121.998 117.979L120.025 113.662L114.612 113.78ZM132.555 117.709C132.623 116.09 133.77 88.2809 133.77 88.2809L159.859 88.5845L158.172 117.827C155.289 117.76 152.388 117.675 149.504 117.608C149.319 117.608 149.369 117.608 149.386 117.355C149.538 114.91 150.769 95.9373 150.196 95.7349C149.588 95.5157 142.607 95.5832 142.607 95.5832L141.342 117.962L132.555 117.709ZM114.612 89.3602V102.329L112.301 106.95L114.612 106.983V113.78L108.743 113.881L106.736 117.827L99.5857 114.471L111.829 89.3434L114.612 89.3602ZM85.8918 116.849V109.783C87.6626 109.581 88.8599 109.075 89.4839 108.248C89.7032 107.945 89.8044 107.692 89.8044 107.489C89.8044 107.287 89.72 107.068 89.5345 106.798C88.9443 105.972 87.73 105.466 85.8918 105.297V99.6643C87.1566 99.4619 88.0336 98.9898 88.4889 98.2309C88.6913 97.9104 88.7925 97.6575 88.7925 97.472C88.7925 97.2359 88.6913 96.966 88.5058 96.6625C88.0505 95.8867 87.1735 95.4145 85.8918 95.2121V88.8037C91.1704 89.3096 94.695 90.7768 96.4658 93.2053C97.2246 94.2509 97.6125 95.3639 97.5957 96.5444C97.5788 98.6356 96.4489 100.356 94.2228 101.688C97.3427 103.122 98.8942 105.061 98.8605 107.489C98.793 112.532 94.4758 115.652 85.8918 116.849ZM85.8918 88.8206V95.229C85.4871 95.1616 85.0317 95.1278 84.5427 95.1278C84.0705 95.1278 83.5645 95.1447 83.0417 95.1953L82.9912 99.7318C83.3116 99.7655 83.7332 99.7824 84.2728 99.7824C84.88 99.7824 85.4196 99.7487 85.8918 99.6812V105.314C85.4871 105.28 85.0486 105.263 84.5933 105.246C84.1211 105.246 83.5308 105.263 82.8394 105.314L82.7888 109.901L83.5983 109.918C84.4584 109.935 85.2173 109.901 85.8918 109.817V116.883C82.9068 117.304 79.4159 117.49 75.4022 117.439L75.2167 96.0891L72.451 95.971L72.4172 89.2422C75.8913 88.8037 79.0786 88.5845 81.9793 88.6182C83.379 88.6351 84.6776 88.7025 85.8918 88.8206ZM26.2258 112.734V105.938L28.5362 105.972L26.327 101.115L26.2427 101.283V88.3146L29.5312 88.3484L40.8978 113.746L33.6124 116.933L31.6393 112.616L26.2258 112.734ZM72.1474 111.2L64.6765 118.283L52.3993 105.938L52.6522 116.95L42.8709 116.36L43.5286 87.0498L52.7197 87.4377L53.1413 100.44L61.9613 87.0667L70.1911 90.1866L61.9445 102.295L72.1474 111.2ZM26.2258 88.3315V101.3L23.9154 105.921L26.2258 105.955V112.751L20.357 112.852L18.3502 116.798L11.1997 113.442L23.4432 88.3146L26.2258 88.3315Z" fill="#BCB5B5"/>
<path fill-rule="evenodd" clip-rule="evenodd" d="M233.37 76.121V64.569C233.42 64.5184 233.471 64.4678 233.521 64.4172C234.078 63.8269 234.752 63.0174 235.579 61.9887C236.388 60.9431 237.366 59.6109 238.513 57.9919L241.768 53.3879C242.797 51.9207 243.623 50.6728 244.264 49.6946C244.888 48.6996 245.36 47.8902 245.664 47.2493C245.967 46.6085 246.186 46.1025 246.271 45.7315C246.372 45.3436 246.406 45.0401 246.372 44.7871C246.338 44.2643 246.22 43.7753 246.051 43.3199C245.883 42.8646 245.714 42.4261 245.562 42.0045C245.411 41.5998 245.326 41.1781 245.326 40.7565C245.326 40.3518 245.478 39.9133 245.765 39.4749C246.119 39.0027 246.574 38.716 247.165 38.5979C247.755 38.4967 248.429 38.5304 249.171 38.6822C249.913 38.834 250.689 39.087 251.482 39.4243C252.291 39.7615 253.084 40.1326 253.86 40.5542C254.635 40.9758 255.361 41.3805 256.001 41.7853C256.659 42.19 257.216 42.5442 257.654 42.8477C258.093 43.1513 258.396 43.3536 258.531 43.4548C259.104 43.8596 259.745 44.3318 260.47 44.8714C261.179 45.428 261.887 46.0182 262.579 46.659C263.27 47.2999 263.843 47.9745 264.332 48.6659C264.822 49.3573 265.125 50.0488 265.226 50.7402C265.344 51.4316 265.193 52.0894 264.754 52.7302C264.45 53.135 264.13 53.4048 263.776 53.4891C263.422 53.5903 263.034 53.624 262.629 53.5734C262.224 53.5228 261.786 53.4722 261.331 53.4216C260.892 53.371 260.42 53.4048 259.931 53.506C259.526 53.624 259.037 53.9276 258.497 54.4335C257.958 54.9394 257.367 55.5803 256.743 56.3392C256.119 57.0981 255.496 57.9244 254.855 58.7845C254.214 59.6446 253.607 60.5047 253.033 61.3141L249.779 65.9181C248.615 67.5708 247.687 68.92 246.996 69.9993C246.304 71.0786 245.799 71.9387 245.478 72.5795C245.141 73.2372 244.955 73.7263 244.871 74.0973C244.804 74.4515 244.804 74.7381 244.871 74.9742C244.955 75.1935 245.04 75.4296 245.158 75.6488C245.394 76.1548 245.613 76.6101 245.849 77.0317C246.068 77.4533 246.186 77.8749 246.22 78.2965C246.254 78.7181 246.102 79.1566 245.782 79.6288C245.596 79.9155 245.343 80.1853 245.023 80.4383C244.702 80.6913 244.264 80.843 243.69 80.8936C243.117 80.9442 242.358 80.8262 241.431 80.5395C240.486 80.2528 239.306 79.7131 237.889 78.9374C236.641 78.2797 235.14 77.3184 233.37 76.121ZM233.37 38.581C233.572 38.2944 233.774 38.0076 233.96 37.7715C234.415 37.1813 234.854 36.7934 235.225 36.6248C235.68 36.4393 236.152 36.3549 236.591 36.3212C237.046 36.3043 237.484 36.2875 237.889 36.2538C238.294 36.2369 238.665 36.1526 239.002 35.9839C239.339 35.8321 239.626 35.5286 239.845 35.0733C240.183 34.3818 240.233 33.6904 239.997 33.0327C239.778 32.375 239.373 31.7341 238.783 31.127C238.193 30.5199 237.501 29.9465 236.726 29.4237C235.95 28.9009 235.157 28.4118 234.365 27.9902C234.01 27.8047 233.673 27.6192 233.336 27.4506V38.581H233.37ZM233.37 27.4674V38.581C233.1 38.9858 232.813 39.4411 232.526 39.9302C232.037 40.7734 231.531 41.6841 231.042 42.6453C230.553 43.6066 230.081 44.5341 229.643 45.4448L227.147 50.5041C226.253 52.3086 225.561 53.7927 225.039 54.9563C224.533 56.1199 224.162 57.0475 223.942 57.7389C223.723 58.4303 223.605 58.9531 223.588 59.3241C223.571 59.6783 223.622 59.9819 223.723 60.1842C223.841 60.3866 223.959 60.6058 224.111 60.8082C224.431 61.2635 224.718 61.6852 225.005 62.073C225.292 62.4609 225.477 62.8488 225.561 63.2535C225.663 63.6583 225.578 64.1136 225.325 64.6364C225.19 64.9568 224.971 65.2604 224.701 65.564C224.431 65.8675 224.01 66.0868 223.453 66.2217C222.897 66.3566 222.138 66.3735 221.16 66.2217C220.182 66.0868 218.934 65.7495 217.416 65.1929C215.881 64.6533 214.009 63.8269 211.783 62.7307C211.412 62.5452 210.957 62.3091 210.417 62.0393C209.877 61.7526 209.287 61.4153 208.68 61.0443C208.056 60.6733 207.466 60.2517 206.909 59.7963C206.336 59.341 205.847 58.8688 205.442 58.3629C205.037 57.857 204.768 57.351 204.65 56.8114C204.515 56.2886 204.582 55.7489 204.835 55.1924C205.037 54.7876 205.307 54.501 205.611 54.3323C205.931 54.1637 206.269 54.0456 206.64 53.995C207.011 53.9276 207.382 53.8938 207.753 53.8601C208.124 53.8095 208.478 53.7252 208.798 53.5903C209.034 53.4891 209.321 53.2867 209.641 52.9832C209.962 52.6627 210.35 52.1737 210.805 51.4991C211.26 50.8414 211.817 49.9307 212.458 48.7671C213.099 47.6034 213.857 46.1362 214.734 44.3655L217.23 39.3062C218.023 37.6872 218.647 36.3381 219.102 35.2588C219.558 34.1795 219.895 33.3025 220.097 32.6279C220.3 31.9533 220.435 31.4137 220.468 31.0258C220.502 30.6379 220.485 30.3175 220.435 30.0814C220.317 29.5755 220.131 29.1033 219.895 28.6817C219.659 28.2601 219.423 27.8553 219.203 27.4674C218.984 27.0796 218.849 26.6917 218.782 26.2701C218.714 25.8653 218.799 25.4269 219.018 24.9378C219.288 24.415 219.709 24.0608 220.266 23.8585C220.839 23.6561 221.497 23.5886 222.273 23.6224C223.032 23.6561 223.824 23.791 224.684 23.9934C225.528 24.1958 226.371 24.4487 227.214 24.7354C228.04 25.0221 228.816 25.3257 229.524 25.6124C230.233 25.9159 230.84 26.1689 231.329 26.405C231.818 26.6242 232.138 26.7929 232.29 26.8603C232.611 27.0796 232.982 27.2651 233.37 27.4674ZM233.37 64.569C232.88 65.0917 232.459 65.4628 232.122 65.6989C231.751 65.9518 231.447 66.1036 231.194 66.1711C230.84 66.2554 230.486 66.2723 230.115 66.2723C229.744 66.2554 229.373 66.2385 228.985 66.2385C228.614 66.2385 228.26 66.2891 227.922 66.4072C227.585 66.5252 227.281 66.7782 227.029 67.1492C226.691 67.6551 226.539 68.1779 226.59 68.7176C226.624 69.2741 226.826 69.8138 227.13 70.3871C227.45 70.9437 227.855 71.5002 228.361 72.023C228.85 72.5458 229.373 73.0517 229.912 73.5239C230.452 73.9961 230.975 74.4177 231.481 74.7887C231.987 75.1597 232.391 75.4633 232.729 75.6826C232.948 75.8343 233.167 75.9861 233.37 76.121V64.569ZM180.905 48.8008V45.4785C180.989 45.3774 181.073 45.293 181.174 45.2256C181.478 45.0063 181.832 44.8883 182.203 44.8377C182.574 44.7871 182.945 44.7534 183.299 44.7365C183.67 44.7197 183.991 44.6522 184.277 44.5173C184.547 44.3992 184.766 44.1463 184.885 43.7752C185.053 43.2862 185.104 42.8646 185.053 42.4936C185.003 42.1225 184.817 41.7684 184.463 41.448C184.126 41.1276 183.586 40.8071 182.861 40.4698C182.338 40.2337 181.68 39.9639 180.905 39.6941V32.2738L182.608 32.7966C182.76 32.8472 182.945 32.8978 183.181 32.9652C183.417 33.0327 183.653 33.1001 183.906 33.1339C184.176 33.1676 184.395 33.1676 184.598 33.117C184.8 33.0664 184.935 32.9483 185.003 32.746C185.053 32.5267 185.07 32.1894 185.036 31.7341C185.003 31.2788 184.935 30.7897 184.851 30.2501C184.75 29.7104 184.682 29.2045 184.581 28.7491C184.48 28.2769 184.412 27.9396 184.362 27.7035C184.311 27.4337 184.244 27.1133 184.176 26.7423C184.092 26.3713 184.008 26.0003 183.873 25.6124C183.755 25.2245 183.586 24.8872 183.384 24.6005C183.181 24.3138 182.945 24.1114 182.642 24.0102C182.372 23.9428 182.102 23.9765 181.798 24.1283C181.512 24.2801 181.208 24.4825 180.921 24.7692V12.0703C181.208 11.4801 181.562 10.9573 181.967 10.5019C182.692 9.64185 183.637 9.08533 184.783 8.79864C185.93 8.52881 187.313 8.63 188.915 9.11907C189.86 9.42262 190.686 9.86108 191.394 10.4682C192.102 11.0584 192.71 11.7668 193.216 12.5594C193.738 13.3689 194.177 14.2289 194.531 15.1396C194.902 16.0503 195.206 16.961 195.458 17.9054C195.711 18.8329 195.948 19.7436 196.15 20.5868C196.217 20.8566 196.335 21.4637 196.487 22.3575C196.639 23.2514 196.825 24.3644 197.044 25.6967C197.263 27.029 197.499 28.4793 197.769 30.0646C198.022 31.6498 198.275 33.2519 198.528 34.8878C198.781 36.5405 199.017 38.1257 199.253 39.6435C199.472 41.1781 199.675 42.5441 199.86 43.7752C200.029 44.9895 200.147 45.9676 200.248 46.7096C200.332 47.4854 200.501 48.1094 200.737 48.5816C200.973 49.0706 201.243 49.4248 201.547 49.7115C201.85 49.9982 202.154 50.2174 202.44 50.4029C202.744 50.5884 202.997 50.7739 203.216 50.9595C203.435 51.145 203.587 51.3979 203.655 51.6846C203.722 51.9882 203.688 52.3929 203.52 52.8988C203.3 53.5565 202.929 54.0456 202.423 54.3829C201.918 54.7202 201.294 54.9226 200.568 55.0069C199.843 55.0912 199.084 55.0912 198.258 55.0069C197.448 54.9226 196.639 54.7877 195.846 54.6022C195.054 54.4166 194.295 54.2311 193.603 54.0287C192.912 53.8264 192.355 53.6577 191.883 53.506C189.927 52.9157 188.19 52.3592 186.672 51.8195C185.154 51.2967 183.89 50.7739 182.878 50.2174C181.984 49.8464 181.326 49.3405 180.905 48.8008ZM180.905 12.1378V24.8366L180.888 24.8535C180.601 25.1233 180.314 25.4269 180.044 25.7641C179.792 26.0846 179.555 26.3713 179.37 26.6242C179.184 26.894 179.049 27.0796 178.965 27.1976C178.864 27.3325 178.695 27.5349 178.476 27.8047C178.274 28.0745 178.038 28.3613 177.785 28.6648C177.549 28.9684 177.329 29.2719 177.127 29.5418C176.941 29.8285 176.807 30.0477 176.756 30.2163C176.672 30.5199 176.739 30.7728 176.941 30.9415C177.144 31.127 177.397 31.2619 177.7 31.3631C178.004 31.4474 178.257 31.5317 178.476 31.5992L180.871 32.3412V39.7615C180.584 39.6604 180.281 39.5592 179.943 39.4411C178.763 39.0364 177.279 38.5642 175.542 38.0245C174.833 37.8053 174.193 37.6198 173.636 37.4848C173.063 37.3499 172.557 37.3162 172.101 37.3837C171.663 37.4343 171.275 37.6198 170.955 37.9402C170.634 38.2606 170.364 38.7497 170.162 39.4074C170.044 39.829 170.061 40.1663 170.246 40.4193C170.415 40.6891 170.651 40.9252 170.971 41.1275C171.292 41.3299 171.595 41.5492 171.899 41.7853C172.203 42.0214 172.422 42.3081 172.574 42.6622C172.725 43.0164 172.708 43.4717 172.557 44.0282C172.354 44.6691 171.966 45.1413 171.444 45.428C170.904 45.7146 170.28 45.8833 169.555 45.917C168.83 45.9507 168.088 45.917 167.312 45.799C166.553 45.6641 165.828 45.5291 165.153 45.3436C164.479 45.1581 163.905 45.0063 163.467 44.8545C161.915 44.3824 160.65 43.927 159.639 43.4885C159.015 43.2187 158.475 42.9489 158.02 42.6959V37.4511C158.306 37.4174 158.61 37.3837 158.93 37.3837C159.369 37.3668 159.824 37.2993 160.279 37.215C160.752 37.1138 161.207 36.9283 161.629 36.6585C162.185 36.2875 162.759 35.7984 163.349 35.2419C163.939 34.6854 164.512 34.0951 165.069 33.488C165.625 32.8809 166.131 32.3244 166.587 31.8184L172.321 25.4269C173.046 24.6174 173.788 23.7573 174.564 22.8466C175.339 21.936 176.098 20.9915 176.823 20.0134C177.549 19.0353 178.223 18.0066 178.813 16.961C179.387 15.9154 179.859 14.8529 180.196 13.7905C180.432 13.1665 180.652 12.6268 180.905 12.1378ZM180.905 45.4785C180.719 45.6809 180.584 45.9676 180.466 46.3049C180.213 47.1312 180.297 47.8901 180.719 48.531C180.77 48.6153 180.837 48.7165 180.905 48.8008V45.4785ZM158.07 7.71932V1.3952C158.222 1.44579 158.374 1.51325 158.526 1.58071C159.032 1.81681 159.453 2.12036 159.757 2.54196C160.077 2.94671 160.263 3.46952 160.296 4.11036C160.33 4.66688 160.263 5.10534 160.111 5.44263C159.959 5.77992 159.74 6.08347 159.47 6.33644C159.2 6.5894 158.897 6.87611 158.576 7.19653C158.391 7.33145 158.239 7.51695 158.07 7.71932ZM158.07 1.3952V7.71932C157.902 7.9217 157.733 8.14092 157.581 8.39389C157.261 8.88295 156.957 9.52381 156.671 10.3333L148.154 36.4224C147.901 37.215 147.614 37.9739 147.311 38.7159C147.007 39.458 146.653 40.1157 146.248 40.7059C145.844 41.2962 145.355 41.7852 144.764 42.1394C144.191 42.4935 143.499 42.7128 142.69 42.7634C141.746 42.7971 140.987 42.6791 140.396 42.3924C139.806 42.1057 139.3 41.6672 138.896 41.0938C138.491 40.5204 138.103 39.8459 137.732 39.0701L131.88 26.8603C131.812 26.7085 131.711 26.4893 131.61 26.2363C131.509 25.9834 131.374 25.7135 131.222 25.4606C131.07 25.2076 130.919 24.9884 130.733 24.8029C130.548 24.6342 130.345 24.5499 130.109 24.5499C129.755 24.5499 129.468 24.7523 129.215 25.1233C128.979 25.4774 128.726 26.0508 128.44 26.8097C128.17 27.5855 127.816 28.5805 127.394 29.8116L124.342 38.581C124.089 39.3399 123.836 40.0314 123.6 40.6553C123.347 41.2793 123.06 41.8358 122.723 42.308C122.368 42.7802 121.913 43.1513 121.357 43.4211C120.783 43.6909 120.041 43.8596 119.131 43.9102C118.085 43.9439 117.242 43.7921 116.601 43.4211C115.96 43.0501 115.437 42.5273 115.016 41.8696C114.594 41.195 114.206 40.4192 113.835 39.5592L102.098 13.4532V4.00918C102.738 3.84053 103.396 3.70561 104.054 3.60442C104.813 3.48637 105.538 3.40204 106.212 3.35144C106.87 3.30085 107.427 3.26714 107.882 3.23341C109.956 3.13222 111.626 3.13223 112.924 3.21655C114.223 3.31774 115.218 3.50324 115.926 3.78993C116.618 4.05976 117.107 4.43079 117.377 4.85239C117.646 5.29087 117.798 5.79678 117.798 6.38703C117.815 6.80864 117.765 7.1628 117.646 7.44949C117.528 7.73618 117.394 8.00601 117.225 8.24211C117.073 8.49508 116.921 8.74804 116.82 9.05159C116.702 9.33829 116.651 9.70932 116.668 10.1478C116.702 10.5694 116.82 11.1091 117.039 11.7499C117.242 12.3907 117.495 13.0316 117.765 13.7062C118.051 14.3807 118.304 14.971 118.523 15.4769C118.76 15.9997 118.911 16.337 118.979 16.5225C119.046 16.708 119.147 16.9947 119.299 17.3657C119.434 17.7536 119.62 18.1583 119.822 18.5968C120.024 19.0353 120.26 19.4737 120.497 19.8785C120.733 20.2832 120.986 20.6205 121.255 20.8735C121.508 21.1433 121.778 21.2614 122.048 21.2614C122.352 21.2445 122.621 21.0759 122.874 20.7892C123.127 20.5025 123.363 20.1315 123.566 19.693C123.768 19.2545 123.954 18.7992 124.122 18.327C124.291 17.8548 124.426 17.4163 124.527 17.0284C124.628 16.6405 124.713 16.3539 124.763 16.1683C124.831 16.0334 124.898 15.8142 124.999 15.5275C125.101 15.2239 125.202 14.9035 125.269 14.6C125.353 14.2964 125.387 14.0603 125.387 13.9254C125.387 13.7905 125.303 13.5038 125.134 13.0653C124.966 12.6437 124.746 12.1546 124.46 11.6318C124.173 11.0922 123.836 10.5863 123.465 10.1141C123.094 9.64185 122.672 9.28769 122.234 9.05159C121.846 8.88295 121.475 8.68058 121.154 8.44448C120.834 8.20838 120.564 7.92169 120.345 7.58441C120.142 7.24712 120.024 6.84237 119.991 6.37017C119.974 6.30272 119.974 6.16779 119.974 5.96542C119.974 5.76305 120.041 5.51008 120.176 5.22339C120.311 4.93669 120.581 4.61629 120.986 4.29587C121.39 3.97545 121.997 3.65502 122.79 3.36832C123.583 3.06477 124.645 2.79495 125.961 2.55884C127.276 2.32274 128.929 2.1541 130.902 2.05291C133.094 1.95172 134.899 1.95171 136.282 2.06976C137.681 2.18782 138.744 2.35647 139.52 2.60944C140.295 2.84554 140.852 3.13221 141.172 3.43577C141.493 3.73933 141.712 4.04288 141.779 4.32958C141.864 4.61627 141.897 4.86924 141.881 5.07161C141.897 5.54381 141.779 5.94857 141.543 6.26899C141.307 6.60628 141.02 6.9267 140.7 7.19653C140.38 7.48323 140.093 7.75306 139.857 8.03975C139.621 8.30958 139.503 8.63 139.503 8.98415C139.536 9.38889 139.654 9.86109 139.891 10.4345C140.127 11.0079 140.396 11.5812 140.717 12.2052C141.037 12.8123 141.341 13.3857 141.644 13.9254C141.931 14.4482 142.167 14.8867 142.336 15.1902C142.437 15.3757 142.555 15.6455 142.724 15.9828C142.876 16.3201 143.061 16.708 143.28 17.1127C143.483 17.5175 143.736 17.9054 143.972 18.2595C144.225 18.6137 144.494 18.9172 144.764 19.1365C145.034 19.3726 145.304 19.4738 145.574 19.4738C145.894 19.44 146.215 19.1871 146.535 18.698C146.855 18.2089 147.159 17.5849 147.446 16.8261C147.732 16.0672 148.002 15.2408 148.255 14.3807C148.491 13.5206 148.711 12.6774 148.896 11.8848C149.082 11.0922 149.216 10.4007 149.301 9.84422C149.402 9.27083 149.453 8.91667 149.436 8.78176C149.402 8.29269 149.267 7.93854 148.997 7.70244C148.744 7.46634 148.424 7.28085 148.053 7.1628C147.682 7.04475 147.311 6.89297 146.923 6.74119C146.552 6.57255 146.232 6.35331 145.979 6.03289C145.709 5.72933 145.557 5.25713 145.523 4.63315C145.506 3.94171 145.675 3.36831 146.063 2.92984C146.434 2.49136 146.94 2.12037 147.581 1.8674C148.221 1.61444 148.896 1.41207 149.638 1.29402C150.38 1.17597 151.088 1.07477 151.763 1.04104C152.438 0.990447 153.028 0.956722 153.5 0.939858C153.972 0.922994 154.512 0.906139 155.085 0.923003C155.659 0.939867 156.266 0.990445 156.839 1.09163C157.278 1.15909 157.682 1.26029 158.07 1.3952ZM158.07 37.4343C157.952 37.4511 157.834 37.468 157.716 37.4848C157.328 37.5523 156.991 37.6872 156.687 37.9065C156.384 38.1257 156.165 38.4967 155.996 39.0027C155.878 39.3568 155.827 39.6941 155.827 40.0482C155.827 40.4024 155.928 40.7565 156.165 41.1107C156.384 41.4817 156.789 41.8527 157.345 42.2575C157.547 42.3924 157.8 42.5441 158.07 42.6959V37.4343ZM102.098 45.7484C102.418 45.6135 102.738 45.4617 103.042 45.293C103.784 44.922 104.425 44.5004 104.981 44.0451C105.538 43.5897 105.959 43.0838 106.196 42.5104C106.449 41.9539 106.499 41.3468 106.314 40.6722C106.162 40.1663 105.976 39.7953 105.757 39.5929C105.538 39.3737 105.285 39.2556 104.998 39.2219C104.712 39.1881 104.391 39.1713 104.037 39.1713C103.683 39.1713 103.312 39.1544 102.907 39.0701C102.654 39.0195 102.384 38.9352 102.098 38.8171V45.7484ZM102.098 3.97544V13.4194L101.912 13.0147C101.558 12.2221 101.187 11.6487 100.816 11.2608C100.445 10.8729 100.091 10.6031 99.7365 10.4345C99.3824 10.2658 99.0788 10.114 98.7922 9.9454C98.5223 9.79362 98.2862 9.55752 98.1176 9.25396C97.9321 8.93354 97.8309 8.42761 97.7803 7.75303C97.7634 7.09533 97.9321 6.5388 98.2693 6.0666C98.6235 5.57754 99.1126 5.18968 99.7197 4.85239C100.344 4.53197 101.018 4.26214 101.777 4.05977C101.878 4.02604 101.996 4.00917 102.098 3.97544ZM102.098 38.834C101.946 38.7665 101.777 38.6822 101.608 38.581C101.153 38.3112 100.681 37.8727 100.175 37.2825C99.7028 36.7091 99.062 35.9502 98.2525 35.0227C97.443 34.0951 96.5155 33.0495 95.5036 31.8859C94.4749 30.7391 93.4124 29.5418 92.2994 28.2938C91.1863 27.0627 90.0902 25.8485 89.0277 24.668C87.9484 23.4875 86.9534 22.3913 86.0427 21.3963C85.132 20.4013 84.3731 19.5749 83.7492 18.9004C83.1252 18.2258 82.7036 17.7873 82.5012 17.6018C81.8604 16.9947 81.1858 16.3707 80.4606 15.7299C79.7355 15.089 78.9766 14.4819 78.1671 13.9254C77.3576 13.352 76.5312 12.8629 75.6543 12.4751L75.5868 12.4413V29.0864C75.6543 29.1539 75.7217 29.2213 75.7892 29.2719C76.059 29.5418 76.2783 29.7779 76.4638 29.9634C76.6324 30.132 76.8854 30.385 77.2227 30.7223C77.56 31.0595 77.8972 31.4306 78.2683 31.8353C78.6393 32.2401 78.9597 32.6111 79.2295 32.9652C79.5162 33.3194 79.6849 33.6061 79.7523 33.8253C79.8029 34.0277 79.7692 34.2132 79.6174 34.365C79.4656 34.5167 79.297 34.6516 79.044 34.7528C78.8079 34.854 78.5718 34.9383 78.3357 35.0058C78.0996 35.0732 77.9141 35.1239 77.7623 35.1744L75.5868 35.7984V43.0838C76.9528 42.6959 78.1502 42.3755 79.1452 42.1225C80.3594 41.8021 81.3713 41.5997 82.147 41.4817C82.9397 41.3636 83.5637 41.3468 84.019 41.4311C84.4912 41.4986 84.8285 41.7009 85.0815 41.9708C85.3176 42.2406 85.5031 42.6453 85.638 43.1344C85.7392 43.5054 85.6886 43.8258 85.5368 44.0788C85.3681 44.3486 85.132 44.5847 84.8453 44.7871C84.5418 45.0063 84.2551 45.2256 83.9684 45.4617C83.6817 45.6978 83.4625 45.9845 83.3107 46.3386C83.1758 46.6759 83.1589 47.1144 83.3107 47.6372C83.5468 48.4804 84.0359 49.0538 84.7273 49.3742C85.4356 49.6946 86.3631 49.7958 87.493 49.6946C88.6398 49.6103 89.989 49.3573 91.5574 48.9695C93.1257 48.5816 94.8796 48.1094 96.8528 47.536C97.325 47.4011 97.8983 47.2324 98.5729 47.0301C99.2643 46.8277 99.9895 46.5916 100.765 46.3049C101.204 46.1531 101.642 45.9676 102.081 45.7821V38.834H102.098ZM43.123 39.3399C42.2629 37.7716 41.5715 36.4561 41.0655 35.4443C40.5596 34.4156 40.2055 33.5892 39.9862 32.9652C39.767 32.3412 39.6658 31.8522 39.6827 31.498C39.6827 31.1439 39.767 30.8234 39.9188 30.5873C40.0874 30.3344 40.2729 30.0646 40.509 29.7779C40.8632 29.2551 41.0824 28.7323 41.133 28.1926C41.1836 27.6698 41.0655 27.1302 40.762 26.5736C40.4416 26.0002 40.0031 25.5955 39.4466 25.3763C38.89 25.157 38.2661 25.0559 37.5915 25.0896C36.9001 25.1402 36.1917 25.2582 35.4497 25.4606C34.7077 25.6798 33.9825 25.9496 33.2742 26.2532C32.5659 26.5568 31.9251 26.8603 31.318 27.1639C30.7108 27.4674 30.2218 27.7373 29.8339 27.9565C27.8608 29.0527 26.3092 30.0308 25.1793 30.9078C24.0326 31.7847 23.2062 32.5605 22.7003 33.2519C22.1775 33.9265 21.8739 34.5167 21.7896 35.0058C21.7053 35.5117 21.7053 35.9333 21.8233 36.2538C21.9414 36.591 22.0594 36.844 22.1775 37.0464C22.4136 37.468 22.7003 37.7715 23.0207 37.9402C23.3411 38.1257 23.6953 38.2269 24.0832 38.2606C24.471 38.2943 24.8589 38.3112 25.2805 38.3112C25.4829 38.2943 25.719 38.3112 25.972 38.3787C26.2249 38.4292 26.5454 38.6148 26.8995 38.9352C27.2705 39.2556 27.7259 39.7784 28.2486 40.5204C28.7714 41.2625 29.4123 42.2912 30.1543 43.6403C30.3736 44.0114 30.5422 44.3486 30.6602 44.6353C30.7614 44.9052 30.7783 45.1918 30.6771 45.4448C30.5759 45.7146 30.323 45.9845 29.9182 46.3049C29.5135 46.6084 28.9064 46.9963 28.08 47.4517L25.5335 48.8514C24.9432 49.1887 24.4036 49.4922 23.9482 49.7283C23.4929 49.9813 23.0713 50.1331 22.6834 50.1837C22.2955 50.2343 21.9414 50.1331 21.5872 49.8633C21.2331 49.5934 20.8621 49.1212 20.4911 48.4298C19.8839 47.3336 19.4117 46.4398 19.0913 45.7146C18.754 45.0063 18.5517 44.433 18.4505 43.9776C18.3493 43.5392 18.3493 43.1513 18.4336 42.814C18.5179 42.4936 18.6697 42.1563 18.8889 41.819C19.1419 41.3805 19.3611 40.9589 19.5467 40.5542C19.7153 40.1494 19.7996 39.7447 19.7828 39.3231C19.7659 38.9014 19.631 38.4292 19.3611 37.9233C19.0239 37.3331 18.5517 36.9452 17.9277 36.7766C17.3206 36.6079 16.6123 36.5742 15.8534 36.6922C15.0945 36.8103 14.3187 37.0127 13.543 37.2825C12.7503 37.5692 12.0252 37.8559 11.3506 38.1931C10.676 38.5136 10.1364 38.8003 9.69789 39.0364C9.22569 39.2893 8.63543 39.6435 7.92713 40.082C7.23569 40.5036 6.4768 41.0095 5.70104 41.5492C4.90842 42.1057 4.16638 42.7128 3.45808 43.3536C2.73292 43.9945 2.1258 44.6522 1.61987 45.3436C1.11394 46.0351 0.776654 46.7096 0.624875 47.4011C0.473096 48.0757 0.557417 48.7502 0.894704 49.3911C1.08021 49.7115 1.31631 49.9476 1.60301 50.0825C1.90656 50.2174 2.22699 50.3017 2.56427 50.3186C2.90156 50.3355 3.22198 50.3355 3.55927 50.3355C3.94715 50.3186 4.28443 50.3017 4.57113 50.3017C4.85782 50.3017 5.12765 50.3523 5.41435 50.5041C5.68417 50.639 6.0046 50.9426 6.35875 51.3811C6.7129 51.8195 7.1851 52.4772 7.74162 53.371C8.28128 54.248 8.97272 55.4285 9.79907 56.8957C10.6254 58.3629 11.6541 60.2011 12.8684 62.3935C13.8128 64.1305 14.6054 65.5977 15.2294 66.8119C15.8534 68.0261 16.3424 69.038 16.6797 69.8475C17.017 70.6738 17.2531 71.3316 17.3712 71.8544C17.4892 72.3771 17.5229 72.7987 17.4723 73.136C17.4386 73.4733 17.3206 73.7769 17.1519 74.0298C16.9833 74.2997 16.7978 74.5695 16.5617 74.8731C16.2244 75.3115 16.0051 75.7837 15.8871 76.2896C15.769 76.7956 15.8365 77.3184 16.1063 77.8412C16.4268 78.3977 16.8652 78.7856 17.4217 79.0048C17.9783 79.224 18.6191 79.2915 19.3274 79.2409C20.0357 79.2072 20.7777 79.0723 21.5535 78.8362C22.3293 78.6169 23.0713 78.364 23.8133 78.0436C24.5385 77.74 25.2131 77.4364 25.8202 77.116C26.4273 76.8125 26.9332 76.5426 27.3211 76.3403C27.7259 76.121 28.2318 75.8175 28.8558 75.4633C29.4629 75.0923 30.1206 74.6707 30.7952 74.1985C31.4697 73.7263 32.1443 73.2035 32.7683 72.647C33.3923 72.0905 33.9319 71.5171 34.3873 70.9268C34.8426 70.3197 35.1293 69.7126 35.2473 69.1223C35.3823 68.5152 35.2811 67.9249 34.9775 67.3347C34.674 66.8119 34.3873 66.4409 34.0837 66.2723C33.797 66.0868 33.4935 65.9856 33.173 65.9518C32.8526 65.935 32.5153 65.9012 32.1443 65.8675C31.7733 65.8338 31.3854 65.6989 30.9638 65.4796C30.5422 65.2604 30.07 64.8557 29.5641 64.2654C29.0413 63.6752 28.4679 62.8151 27.8439 61.702C27.338 60.8082 26.9332 60.083 26.6128 59.4928C26.2924 58.9025 26.1069 58.4135 26.0731 57.9919C26.0394 57.5703 26.1912 57.1655 26.5454 56.7776C26.8826 56.3898 27.4729 55.9344 28.2824 55.4285C29.0919 54.9226 30.2049 54.2817 31.5878 53.5228C32.2118 53.1687 32.7177 52.8988 33.1393 52.6965C33.544 52.4941 33.9151 52.4266 34.2355 52.4266C34.539 52.4604 34.8426 52.629 35.1293 52.9326C35.416 53.253 35.7533 53.7421 36.1074 54.3998C36.9001 55.8332 37.4734 57.0475 37.8445 58.0425C38.2155 59.0375 38.4347 59.8469 38.519 60.4878C38.5865 61.1286 38.5696 61.6514 38.4516 62.0562C38.3335 62.4609 38.1986 62.7982 38.0131 63.0849C37.8445 63.3547 37.6758 63.6246 37.5578 63.8775C37.4228 64.1305 37.3891 64.434 37.4228 64.7545C37.4566 65.0917 37.6421 65.5134 37.9625 66.0362C38.2829 66.5927 38.6877 66.9637 39.2273 67.1829C39.7501 67.3853 40.3404 67.4865 40.9981 67.4359C41.6558 67.4022 42.3472 67.2841 43.0555 67.0817C43.7638 66.8794 44.4553 66.6264 45.1298 66.3229C45.8213 66.0362 46.4453 65.7495 47.0018 65.4459C47.5583 65.1423 48.0305 64.9062 48.4015 64.687C50.3578 63.6077 51.9093 62.6296 53.0561 61.7695C54.2197 60.9094 55.0629 60.1336 55.6195 59.4591C56.176 58.7845 56.5133 58.1943 56.6313 57.7052C56.7662 57.1993 56.7831 56.7776 56.665 56.4235C56.5639 56.0693 56.4458 55.7658 56.294 55.5297C56.0748 55.1249 55.8218 54.8382 55.5351 54.6696C55.2484 54.501 54.9449 54.3998 54.5907 54.3829C54.2534 54.3492 53.8656 54.3492 53.4271 54.366C52.8537 54.366 52.3815 54.2817 52.0105 54.1468C51.6395 53.995 51.319 53.7589 51.0324 53.4385C50.7625 53.1181 50.4927 52.7133 50.2397 52.2243L43.123 39.3399ZM75.6206 12.4076V29.0527C75.4013 28.8503 75.1821 28.648 74.946 28.4625C74.6424 28.2095 74.322 28.0071 73.9847 27.8722C73.6643 27.7373 73.3439 27.7035 73.0403 27.7879C72.7705 27.8722 72.5681 28.0577 72.3995 28.3444C72.2308 28.6311 72.0959 28.9684 72.0116 29.3731C71.9104 29.761 71.8429 30.1657 71.8092 30.5873C71.7586 30.9921 71.7249 31.3631 71.708 31.6835C71.708 32.0039 71.6912 32.24 71.6743 32.375C71.6574 32.5436 71.6406 32.8134 71.59 33.1507C71.5563 33.488 71.5225 33.859 71.4888 34.2469C71.4551 34.6348 71.4382 35.0058 71.4213 35.3431C71.4213 35.6804 71.4382 35.9333 71.4719 36.102C71.5731 36.4055 71.7586 36.5742 72.0116 36.6079C72.2814 36.6585 72.5681 36.6248 72.8885 36.5405C73.1921 36.4561 73.4619 36.3718 73.6643 36.3044L75.6037 35.7478V43.0332C75.317 43.1175 75.0134 43.2019 74.7099 43.2862C74.0016 43.4717 73.3607 43.6741 72.8211 43.8764C72.2646 44.0788 71.8261 44.3318 71.4888 44.6185C71.1515 44.9051 70.9154 45.2593 70.8311 45.6978C70.7299 46.1362 70.7805 46.6928 70.966 47.3505C71.1009 47.7721 71.3033 48.0419 71.59 48.16C71.8767 48.2949 72.214 48.3623 72.585 48.3455C72.956 48.3455 73.3439 48.3623 73.7149 48.3961C74.1028 48.4298 74.44 48.5479 74.7605 48.7671C75.0809 48.9863 75.317 49.3742 75.4856 49.9307C75.6543 50.5884 75.5868 51.1787 75.317 51.7183C75.0303 52.258 74.5918 52.7302 74.0016 53.1518C73.4113 53.5734 72.7705 53.9444 72.0622 54.2648C71.3539 54.5684 70.6624 54.8551 70.0047 55.0575C69.3302 55.2767 68.7736 55.4453 68.3183 55.5803C66.7499 56.0187 65.4514 56.3392 64.372 56.5247C63.2927 56.6933 62.4158 56.7777 61.7412 56.7608C61.0666 56.7439 60.527 56.6259 60.1391 56.4404C59.7512 56.2717 59.4645 56.0356 59.279 55.7321C59.0935 55.4454 58.9417 55.1249 58.8574 54.7708C58.7225 54.2649 58.7056 53.8433 58.8405 53.4891C58.9755 53.1518 59.1778 52.8482 59.4645 52.5784C59.7681 52.3086 60.0885 52.0556 60.4595 51.7858C60.8137 51.5328 61.1678 51.2293 61.5051 50.9089C61.8424 50.5716 62.1291 50.1668 62.3315 49.6946C62.5844 49.0706 62.8205 48.3623 63.006 47.5697C63.1915 46.7771 63.3602 45.9676 63.4951 45.1581C63.63 44.3486 63.7481 43.5897 63.8661 42.9152L65.1984 34.4324C65.3502 33.3531 65.5188 32.2232 65.6875 31.0427C65.8392 29.8453 65.9573 28.648 66.0416 27.4337C66.1259 26.2026 66.1259 24.9884 66.0416 23.8079C65.9573 22.6105 65.7718 21.4806 65.4682 20.3844C65.0972 19.1196 64.996 17.9222 65.1478 16.8092C65.2996 15.6961 65.7718 14.7012 66.5813 13.8579C67.3908 12.9979 68.605 12.3402 70.224 11.8848C71.1684 11.6319 72.1128 11.5475 73.0403 11.6656C73.9004 11.8005 74.7773 12.0366 75.6206 12.4076Z" fill="#BCB5B5"/>
</svg>
