<svg width="622" height="95" viewBox="0 0 622 95" fill="none" xmlns="http://www.w3.org/2000/svg">
<path fill-rule="evenodd" clip-rule="evenodd" d="M453.541 78.9811L453.49 79.2172L453.457 79.4365L453.406 79.6557L453.372 79.8749L453.322 80.1448L453.356 81.359L453.878 82.4383L454.907 83.2309L456.29 83.602L457.74 83.4839L459.022 82.9611L460.034 82.101L460.691 81.0217L460.742 80.8868L460.793 80.7688L460.877 80.6001L460.978 80.3809L461.096 80.111L461.231 79.7906L461.4 79.4365L461.568 79.0149L461.754 78.5595L461.956 78.0536L462.176 77.4971L462.412 76.89L462.664 76.2322L462.917 75.5239L463.187 74.7819L463.474 73.9724L463.508 73.8544L463.761 73.1124L463.896 72.7245L464.064 72.286L464.233 71.7632L464.435 71.1898L464.655 70.549L464.891 69.8407L465.144 69.0649L465.413 68.2217L465.7 67.3279L466.02 66.3498L466.341 65.321L466.678 64.2417L466.897 63.5671L467.1 62.8926L467.319 62.2349L467.521 61.5771L467.741 60.9363L467.943 60.2786L468.145 59.6377L468.365 58.9969L468.567 58.3561L468.769 57.7152L468.972 57.0912L469.174 56.4504L469.377 55.8264L469.562 55.2024L469.764 54.5784L469.95 53.9376L470.135 53.3136L470.321 52.6896L470.506 52.0657L470.692 51.4417L470.86 50.8008L471.029 50.1769L471.198 49.536L471.35 48.912L471.518 48.2712L471.67 47.6303L471.805 46.9895L471.957 46.3318L472.092 45.691L472.21 45.0332L472.328 44.3755L472.446 43.701L472.564 43.0938L472.648 42.4867L472.749 41.9133L472.834 41.3737L472.901 40.8509L472.969 40.345L473.036 39.8559L473.104 39.4006L473.154 38.9621L473.188 38.5405L473.238 38.1357L473.255 37.7478L473.289 37.3937L473.306 37.0395V36.7191L473.323 36.3987L473.289 35.7579L473.205 35.1676L473.053 34.6111L472.8 34.0883L472.429 33.6161L471.873 33.2113L471.147 32.9247L470.388 32.8403L469.528 32.9078L468.752 33.0596L468.027 33.3294L467.353 33.6835L466.729 34.0883L466.105 34.5605L465.447 35.117L464.756 35.741L464.233 36.2301L463.71 36.7191L463.187 37.2251L462.664 37.731L462.142 38.2538L461.619 38.7766L461.113 39.2994L460.607 39.839L460.101 40.3618L459.595 40.9015L459.106 41.4243L458.634 41.9471L458.145 42.4699L457.69 42.9927L457.217 43.4986L456.779 44.0045L456.357 44.4599L455.952 44.9152L455.565 45.3705L455.16 45.8259L454.772 46.2812L454.367 46.7365L453.979 47.1919L453.608 47.6303L453.22 48.0857L452.833 48.541L452.462 48.9964L452.091 49.4517L451.72 49.8902L451.349 50.3455L450.978 50.8008L450.623 51.2562L450.252 51.7115L449.898 52.1669L449.544 52.6391L449.19 53.0944L448.836 53.5497L448.482 54.0219L448.127 54.4941L447.773 54.9663L447.436 55.4385L447.082 55.9107L446.745 56.3998L446.391 56.8889L446.053 57.3779L445.716 57.867L445.362 58.3561L445.024 58.862L444.198 60.11L443.406 61.2736L442.647 62.3529L441.955 63.3648L441.314 64.2923L440.724 65.1524L440.167 65.9281L439.931 66.2486L439.948 66.1474L439.965 65.7932L439.982 65.4222L439.999 65.0681L440.033 64.697L440.066 64.3092L440.1 63.9382L440.134 63.5503L440.167 63.1793L440.201 62.7914L440.286 62.0325L440.319 61.6446L440.37 61.2567L440.42 60.8857L440.471 60.4978L440.522 60.1268L440.572 59.7558L440.623 59.3848L440.674 59.0138L440.724 58.6596L440.775 58.2886L440.842 57.9513L440.893 57.5972L440.96 57.2599L441.011 56.9395L441.078 56.6022L441.179 56.0625L441.281 55.506L441.382 54.9495L441.483 54.3929L441.584 53.8533L441.668 53.2968L441.77 52.7402L441.871 52.2006L441.972 51.6441L442.073 51.0875L442.158 50.5479L442.259 49.9914L442.36 49.4517L442.461 48.8952L442.562 48.3555L442.663 47.799L442.782 47.2593L442.883 46.7197L443.001 46.1632L443.102 45.6235L443.22 45.0838L443.338 44.5273L443.473 43.9877L443.591 43.448L443.726 42.9083L443.861 42.3687L443.996 41.829L444.131 41.2894L444.282 40.7497L444.434 40.21L444.586 39.6704L444.738 39.1476L444.839 38.8778L444.94 38.6079L445.041 38.355L445.142 38.0851L445.261 37.8153L445.345 37.5455L445.412 37.2251L445.446 36.9046L445.395 36.2807L445.193 35.6904L444.822 35.1339L444.282 34.6617L443.591 34.3075L442.832 34.0714L442.023 33.9365L441.196 33.9028H440.741H440.302L439.864 33.9196L439.426 33.9365L438.97 33.9702L438.498 34.004L438.026 34.0714L437.553 34.1726L437.081 34.2907L436.609 34.4593L436.154 34.6617L435.715 34.8978L435.311 35.2013L434.94 35.5386L434.636 35.9096L434.333 36.3818L434.113 37.0395L433.928 37.5961L433.759 38.1863L433.607 38.7597L433.456 39.35L433.304 39.9402L433.169 40.5473L433.034 41.1544L432.899 41.7616L432.781 42.3687L432.663 42.9927L432.562 43.5998L432.461 44.2238L432.359 44.8477L432.275 45.4717L432.191 46.0957L432.106 46.7197L432.022 47.3437L431.938 47.9676L431.87 48.5916L431.803 49.2156L431.735 49.8227L431.668 50.4467L431.617 51.0538L431.55 51.6609L431.499 52.268L431.449 52.8583L431.398 53.4485L431.347 54.0388L431.297 54.6122L431.246 55.1856L431.196 55.7421L431.162 56.2986L431.111 56.8383L431.044 57.3611L430.993 57.9007L430.926 58.4404L430.875 58.9632L430.808 59.5028L430.757 60.0256L430.69 60.5653L430.622 61.0881L430.572 61.6277L430.504 62.1505L430.454 62.6733L430.386 63.213L430.336 63.7358L430.285 64.2754L430.234 64.7982L430.184 65.3379L430.15 65.8776L430.116 66.4003L430.083 66.94L430.049 67.4797L430.032 68.0193L430.015 68.559V69.0986V69.6552V70.1948L430.032 70.7513L430.066 71.3079L430.1 71.8644L430.15 72.4209L430.201 72.9943L430.251 73.399L430.302 73.8038L430.369 74.1917L430.42 74.5795L430.471 74.9506L430.521 75.3047L430.538 75.642L430.572 76.013L430.656 76.755L430.943 77.4802L431.381 78.1211L431.971 78.6607L432.68 79.0992L433.472 79.4196L434.316 79.622L435.193 79.7063H436.086L436.963 79.6051L437.823 79.4027L438.667 79.1161L439.459 78.745L440.184 78.2728L440.842 77.7332L441.382 77.1261L442.073 76.1985L442.259 75.9624L442.461 75.6757L442.68 75.389L442.9 75.1023L443.119 74.8156L443.321 74.529L443.54 74.2423L443.76 73.9556L444.451 73.028L444.62 72.8257L444.856 72.4884L445.126 72.0499L445.463 71.544L445.868 70.9706L446.357 70.3129L446.896 69.6046L447.47 68.8288L448.094 68.0362L448.718 67.2267L449.375 66.4003L450.016 65.574L450.64 64.7645L451.264 63.9887L451.838 63.2467L452.36 62.5553L452.833 61.9313L453.237 61.3748L453.49 61.0038L453.743 60.6327L454.013 60.2786L454.266 59.9076L454.536 59.5534L454.789 59.1993L455.059 58.8283L455.329 58.4741L455.582 58.12L455.851 57.7658L456.121 57.3948L456.391 57.0406L456.661 56.6865L456.931 56.3323L457.2 55.9782L457.47 55.624L457.74 55.2699L458.027 54.9157L458.297 54.5616L458.567 54.2074L458.853 53.8533L459.123 53.4991L459.41 53.145L459.68 52.7908L459.966 52.4367L460.185 52.1669L460.118 52.403L459.949 52.9932L459.646 54.1062L459.477 54.6796L459.308 55.2699L459.022 56.3323L458.836 56.9732L458.668 57.5466L458.516 58.12L458.347 58.6765L458.196 59.233L458.044 59.7895L457.909 60.3292L457.757 60.852L457.622 61.3916L457.487 61.8976L457.352 62.4035L457.234 62.9094L457.116 63.3816L456.998 63.8538L456.897 64.2417L456.813 64.6296L456.728 65.0006L456.627 65.3885L456.543 65.7595L456.458 66.1305L456.357 66.5184L456.273 66.8894L456.189 67.2604L456.003 68.0193L455.919 68.3903L455.835 68.7613L455.666 69.5034L455.565 69.8744L455.48 70.2454L455.396 70.6164L455.312 71.0043L455.227 71.3753L455.143 71.7463L455.059 72.1174L454.974 72.5052L454.89 72.8763L454.806 73.2473L454.721 73.6351L454.637 74.0062L454.553 74.394L454.468 74.7819L454.384 75.1698L454.3 75.5577L454.215 75.9287L454.148 76.266L454.081 76.5864L454.013 76.89L453.946 77.1767L453.878 77.4633L453.828 77.7332L453.76 78.003L453.71 78.256L453.642 78.5089L453.591 78.745L453.541 78.9811Z" fill="#BCB5B5"/>
<path fill-rule="evenodd" clip-rule="evenodd" d="M10.5489 18.7417L10.1948 19.2982L9.94176 19.8716L9.87424 20.2595L9.7394 20.7992L9.58768 21.3726L9.43575 21.9459L9.28403 22.5362L9.13231 23.1264L8.98059 23.7167L8.82866 24.3069L8.67694 24.9141L8.52522 25.5212L8.37329 26.1283L8.22157 26.7354L8.06985 27.3594L7.91813 27.9834L7.7662 28.6073L7.61448 29.2313L7.46276 29.8722L7.31083 30.513L7.15911 31.1539L7.00739 31.7947L6.85566 32.4524L6.70374 33.1101L6.55202 33.7678L6.4003 34.4255L6.24837 35.1001L6.09665 35.7747L5.94493 36.4493L5.7932 37.1407L5.64128 37.8321L5.48956 38.5236L5.33783 39.215L5.18611 39.9233L5.03419 40.6316L4.88246 41.3399L4.73074 42.0482L4.5957 42.7397L4.46086 43.4311L4.32602 44.1225L4.19097 44.814L4.05613 45.4885L3.92129 46.1631L3.78624 46.8377L3.6514 47.5123L3.53324 48.1868L3.41528 48.8445L3.29711 49.5022L3.17915 50.16L3.06119 50.8177L2.94303 51.4585L2.82507 52.0994L2.7069 52.7402L2.58894 53.381L2.48766 54.0219L2.38658 54.6459L2.28529 55.2698L2.18421 55.8938L2.08293 56.5178L1.98185 57.1249L1.88056 57.732L1.79637 58.3392L1.71196 58.9463L1.62756 59.5534L1.54336 60.1436L1.45896 60.7339L1.37476 61.3241L1.22283 62.4709L1.07111 63.5671L0.936269 64.6127L0.818103 65.6077L0.700144 66.5521L0.598859 67.4459L0.49778 68.306L0.413376 69.1155L0.329178 69.8744L0.261655 70.5827L0.211012 71.2404L0.16037 71.8475L0.126814 72.4209L0.0930527 72.9437L0.0761719 73.4159V73.8543L0.0930527 74.5458L0.126814 75.2035L0.177251 75.8443L0.244774 76.4683L0.329178 77.0754L0.430257 77.6488L0.548422 78.2053L0.683263 78.745L0.851865 79.2678L1.03735 79.7568L1.23971 80.2291L1.47584 80.6844L1.72884 81.1229L2.01561 81.5276L2.31905 81.9155L2.65646 82.2865L3.02743 82.6407L3.43216 82.9611L3.87065 83.2646L4.3429 83.5513L4.8487 83.8212L5.3716 84.0741L5.92804 84.2934L6.50137 84.4957L7.10847 84.6812L7.73244 84.8499L8.39017 85.0017L9.06479 85.1366L9.75628 85.2546L10.4813 85.3558L11.2235 85.4401L11.915 85.4907L12.7075 85.5919L13.5339 85.6762L14.3264 85.7606L15.1021 85.828L15.8443 85.8786L16.5695 85.9123L17.2608 85.9292H17.9186H18.6101L19.3351 85.9123L20.0941 85.8786L20.8698 85.828L21.6793 85.7606L22.5225 85.6762L23.3995 85.5919L24.2933 85.4907L25.2376 85.3727L26.199 85.2378L27.1939 85.086L28.2226 84.9342L29.2851 84.7656L30.3813 84.58L31.5113 84.3777L32.6411 84.1753L33.1977 84.0741L33.7879 83.9561L34.395 83.838L35.0021 83.7031L35.6092 83.5513L36.2332 83.3995L36.8572 83.2309L37.4811 83.0623L38.122 82.8768L38.7628 82.6744L39.4206 82.472L40.0783 82.2528L40.736 82.0335L41.4107 81.7974L42.0851 81.5445L42.7597 81.2915L43.4512 81.0217L44.1258 80.7518L44.7835 80.482L45.4244 80.1953L46.0483 79.9086L46.6723 79.6219L47.2794 79.3184L47.8696 79.0148L48.443 78.7113L48.9996 78.4077L49.5561 78.0873L50.0956 77.7669L50.6185 77.4464L51.1245 77.1091L51.6135 76.7719L52.0857 76.4346L52.9627 75.7769L53.8059 75.1023L54.6154 74.4277L55.3742 73.7532L56.0994 73.0786L56.774 72.3871L57.4149 71.6957L58.0051 71.0043L58.4436 70.4646L58.8483 69.9249L59.2193 69.3853L59.5736 68.8456L59.8939 68.306L60.1975 67.7663L60.4672 67.2266L60.7034 66.7039L60.9226 66.1811L61.1081 65.6583L61.2767 65.1355L61.4117 64.6127L61.5128 64.0899L61.5803 63.5671L61.631 63.0443L61.6479 62.5215L61.631 61.712L61.5466 60.9025L61.4286 60.093L61.2431 59.2836L61.0239 58.4909L60.754 57.6983L60.4335 56.9057L60.0625 56.1299L59.6409 55.3542L59.1686 54.5784L58.646 53.8195L58.0726 53.0606L57.4487 52.3186L56.774 51.5766L56.0657 50.8345L55.3068 50.1094L54.8008 49.654L54.2781 49.1987L53.7384 48.7434L53.1819 48.3049L52.6086 47.8664L52.0182 47.4279L51.4111 47.0063L50.7871 46.5847L50.1631 46.1631L49.5223 45.7584L48.8646 45.3536L48.1902 44.9489L47.4987 44.561L46.7903 44.1731L46.0652 43.7852L45.34 43.4142L44.5136 42.9926L43.7042 42.5879L42.8947 42.2L42.1019 41.8121L41.3094 41.4411L40.5337 41.0869L39.7747 40.7328L39.0159 40.3955L38.2739 40.0751L37.5318 39.7547L36.8067 39.4511L36.0815 39.1644L35.3731 38.8946L34.6649 38.6248L33.9734 38.3718L33.2819 38.1357L32.6073 37.8996L31.916 37.6635L31.2077 37.4274L30.4826 37.1913L29.7573 36.9552L29.0152 36.7191L28.2564 36.483L27.4807 36.2469L26.6881 36.0108L25.8785 35.7747L25.069 35.5386L24.2427 35.3025L23.3995 35.0664L22.5394 34.8303L22.472 34.8134V34.7966L22.6238 34.3244L22.7755 33.8353L22.9272 33.3294L23.0791 32.7897L23.2309 32.25L23.3826 31.6935L23.5343 31.1201L23.6862 30.5467L23.838 29.9565L24.0066 29.3494L24.1752 28.7254L24.344 28.0846L24.5126 27.4437L24.5968 27.1064L24.698 26.7523L24.7991 26.3813L24.9004 26.0102L25.0017 25.6224L25.1028 25.2176L25.2207 24.796L25.3389 24.3575L25.4569 23.9022L25.575 23.43L25.7099 22.9578L25.8449 22.4687L25.9798 21.9628L26.1146 21.44L26.2496 20.9004L26.3845 20.3607L26.5362 19.8379L26.6881 19.3151L26.8567 18.8092L27.0253 18.3201L27.1939 17.831L27.3794 17.3588L27.5649 16.9035L27.7673 16.4482L27.9696 16.0097L28.1889 15.5881L28.4081 15.1665L28.6274 14.7617L28.8635 14.3739L29.0996 13.986L29.1165 13.9522L29.3357 13.9354L29.7911 13.9017L30.2634 13.8679L30.7523 13.8342L31.2414 13.8005L31.7474 13.7667L32.2701 13.733L32.8097 13.6824L33.3495 13.6318L33.9059 13.5812L34.4794 13.5306L35.0528 13.48L35.643 13.4295L36.2332 13.3789L36.8234 13.3451L37.4307 13.3114L38.0378 13.2777L38.6618 13.2439L39.2857 13.2102L39.9266 13.1765L40.5843 13.1428L41.2418 13.1259L41.9165 13.109L42.5911 13.0922L43.2826 13.0753L43.9741 13.0584L44.6822 13.0416H45.3906H46.1157H46.8409H48.0382L49.202 13.0584L50.3486 13.0922L51.4617 13.1428L52.5411 13.1934L53.6035 13.2608L54.6322 13.3451L55.6272 13.4295L56.6054 13.5306L57.5497 13.6487L58.4773 13.7667L59.371 13.9017L60.2311 14.0534L61.0574 14.2052L61.8671 14.3739L63.1319 14.6605L64.5822 14.4919L65.6785 14.1546L66.6227 13.615L67.348 12.9235L67.8707 12.1478L68.2081 11.2877L68.3936 10.377L68.444 9.34829L68.3767 8.84235L68.3261 8.43761L68.2754 8.03287L68.2248 7.62812L68.1743 7.22338L68.1237 6.81864L68.0731 6.43076L68.0224 6.04288L67.9889 5.67186L67.9551 5.28398L67.9213 4.8961L67.8876 4.52509L67.8707 4.15407L67.8538 3.78306L67.8369 3.42891L67.82 2.0629L65.8977 1.52324L65.1556 1.33773L64.3799 1.16909L63.5535 1.01731L62.6934 0.882393L61.7827 0.747479L60.8384 0.629429L59.8433 0.528242L58.8146 0.44392L57.7521 0.359598L56.639 0.292141L55.4754 0.241549L54.2781 0.207821L53.0302 0.174091L51.7485 0.157227H50.4161H49.7247H49.0165L48.3081 0.174091L47.5997 0.190956L46.8747 0.207821L46.1494 0.224684L45.4244 0.241549L44.6822 0.258413L43.9403 0.292141L43.1982 0.32587L42.4562 0.359598L41.6972 0.393328L40.9384 0.427056L40.1796 0.47765L39.4037 0.528242L38.628 0.578835L37.8523 0.629429L37.0764 0.680021L36.2838 0.747479L35.4913 0.814936L34.6818 0.882393L33.8721 0.94985L33.0627 1.01731L32.2532 1.08476L31.4269 1.16909L30.6006 1.25341L29.7742 1.33773L28.931 1.42205L28.0878 1.50637L27.2446 1.5907L26.3845 1.69188L25.5244 1.79307L23.838 1.99544L22.219 2.19781L20.6675 2.40018L19.1834 2.60255L17.7668 2.80493L16.4007 3.0073L15.1021 3.20967L13.8711 3.41204L12.7075 3.61441L11.6113 3.81679L10.5657 4.01916L9.58768 4.22153L8.67694 4.4239L7.81684 4.64314L7.02427 4.86237L6.06288 5.14907L5.28719 5.58754L4.6801 6.02601L4.15721 6.54881L3.75248 7.12219L3.44904 7.74617L3.24667 8.40388L3.12851 9.09532L3.09475 9.80362L3.11163 10.2084L3.14539 10.5962L3.19603 10.9841L3.26355 11.3889L3.36463 11.7936L3.4828 12.1984L3.61764 12.6031L3.76936 13.0078L3.92129 13.3957L4.07301 13.7499L4.24161 14.0872L4.41021 14.4244L4.57882 14.7449L4.74762 15.0484L4.91623 15.3351L5.33783 15.976L6.43406 16.465L7.44588 16.5156L8.20469 16.4313L8.96371 16.2964L9.80692 16.094L10.7512 15.8411L11.8137 15.5206L12.6907 15.2508L13.011 15.2339L13.6687 15.1833L13.8373 15.1665L13.7531 15.2508L12.9099 16.094L12.1678 16.8866L11.5269 17.6118L10.9873 18.1346L10.5489 18.7417ZM31.5955 51.2224L32.4387 51.6272L33.2819 52.0488L34.1252 52.5041L34.9684 52.9763L35.8116 53.4822L36.6717 54.005L37.5318 54.5447L38.375 55.1012L39.3195 55.7589L40.1963 56.3998L41.0059 57.0406L41.7479 57.6646L42.4225 58.2886L43.0464 58.8957L43.6029 59.5028L44.092 60.093L44.5136 60.6664L44.8846 61.223L45.1883 61.7795L45.4413 62.3191L45.6267 62.8419L45.7616 63.3479L45.846 63.8538L45.8629 64.0899L45.6267 64.5452L45.2051 65.2367L44.7329 65.9112L44.21 66.5689L43.6367 67.2098L43.0296 67.8506L42.3718 68.4746L41.6635 69.0817L40.9046 69.672L40.0952 70.2454L39.2351 70.8188L38.3244 71.3753L37.3632 71.9149L36.3514 72.4377L35.3058 72.9437L34.1758 73.4496L33.417 73.7869L32.658 74.0904L31.8992 74.3771L31.1233 74.6301L30.3307 74.8662L29.5212 75.0854L28.6949 75.2878L27.8517 75.4565L27.0085 75.6082L26.1652 75.7431L25.3389 75.8612L24.5126 75.9624L23.7031 76.0298L22.9103 76.0804L22.1346 76.1142L21.3758 76.131L20.5664 76.1142L19.8749 76.0636L19.3015 75.9792L18.8293 75.8612L18.475 75.7263L18.2053 75.5914L18.003 75.4565L17.8344 75.2878L17.8006 75.2372L17.7162 75.1023L17.6318 74.8999L17.5307 74.647L17.4294 74.3265L17.3452 73.9555L17.2608 73.5339L17.1766 73.0617L17.1091 72.5558L17.0416 71.9993L16.9911 71.3921L16.9405 70.7513L16.9067 70.0599L16.8899 69.3178L16.873 68.5421V67.7157V66.9062L16.8899 66.0967L16.9236 65.2873L16.9743 64.4609L17.0416 63.6346L17.1091 62.7913L17.1935 61.9481L17.2946 61.088L17.4128 60.228L17.5476 59.351L17.6993 58.4741L17.851 57.5971L18.0198 56.7033L18.2053 55.8095L18.4077 54.8988L18.6269 53.9544L20.111 45.3874L20.1614 45.4548L20.3134 45.6403L20.4482 45.809L20.5495 45.9607L20.6843 46.18L20.9542 46.5341L21.3421 46.9051L21.7806 47.2424L22.2695 47.546L22.8093 47.8495L23.3995 48.1531L24.0572 48.4567L24.9004 48.8108L25.8954 49.0806L26.7048 49.3167L27.5145 49.5866L28.3239 49.8733L29.1503 50.1768L29.9766 50.5141L30.8029 50.8683L31.5955 51.2224ZM113.758 71.4596L114.787 71.1223L115.799 70.7682L116.777 70.414L117.739 70.043L118.666 69.6551L119.054 69.4865L119.492 69.301L119.931 69.1323L120.369 68.9974L120.825 68.8794L121.28 68.795L121.752 68.7444L122.258 68.7276L122.899 68.7613L123.574 68.8962L124.231 69.1492L124.788 69.5202L125.209 69.9755L125.462 70.4477L125.597 70.9199L125.631 71.3753L125.58 72.1679L125.429 72.9268L125.193 73.6688L124.855 74.3771L124.417 75.0686L123.894 75.7263L123.287 76.3503L122.612 76.9068L122.224 77.1935L121.837 77.4633L121.415 77.7331L120.976 78.0198L120.504 78.3065L119.998 78.5932L119.475 78.8968L118.919 79.2003L118.346 79.5039L117.739 79.8243L117.098 80.1447L116.423 80.482L115.732 80.8193L115.007 81.1566L114.248 81.5107L113.472 81.8649L112.696 82.219L111.937 82.5563L111.195 82.8768L110.47 83.1634L109.779 83.4333L109.104 83.6862L108.446 83.9055L107.789 84.0741L107.165 84.2596L106.558 84.4283L105.967 84.5632L105.394 84.6812L104.837 84.7824L104.298 84.8499L103.758 84.9005H103.606L103.134 85.0185L102.375 85.204L101.616 85.3895L100.857 85.5582L100.098 85.7268L99.3396 85.8955L98.5806 86.0472L97.8218 86.199L97.0629 86.3508L96.3039 86.4857L95.5451 86.6206L94.7861 86.7387L94.0273 86.8567L93.2685 86.9748L92.5094 87.076L91.7506 87.1772L90.9916 87.2783L90.2328 87.3627L89.474 87.447L88.715 87.5313L87.9562 87.5988L87.1971 87.6662L86.4383 87.7168L85.6795 87.7674L84.9205 87.818L84.1617 87.8517L83.4027 87.8855L82.6439 87.9192L81.885 87.9361L81.126 87.9529L80.3672 87.9698H79.6082H79.018L78.4278 87.9529L77.8544 87.9361L77.2811 87.9192L76.7245 87.8855L76.168 87.8517L75.6114 87.818L75.0718 87.7674L74.5322 87.7168L74.0093 87.6662L73.4866 87.5988L72.9806 87.5313L72.4746 87.4638L71.9688 87.3795L71.4797 87.2952L69.4896 86.9073L69.5234 85.575L69.5402 85.3558L69.5571 85.1197L69.5909 84.8667L69.6415 84.6138L69.6922 84.3439L69.7257 84.2259L68.9669 84.091L68.1912 83.8886L67.466 83.6019L66.7914 83.2478L66.2011 82.8093L65.7289 82.3371L65.3748 81.848L65.088 81.359L64.8519 80.8362L64.6664 80.2965L64.5316 79.74L64.4303 79.1497L64.3799 78.5426L64.363 77.9186V77.6825L64.3799 77.4464L64.3967 77.1935L64.4303 76.9236L64.4641 76.6369L64.4978 76.3334L64.5485 76.013L64.5991 75.6757L64.6664 75.3215L64.7339 74.9505L64.8015 74.5626L64.8857 74.141L64.9701 73.7026L65.0712 73.2472L65.1724 72.775L65.2735 72.2859L65.4761 71.3584L65.6616 70.5152L65.8133 69.7563L65.9313 69.0817L66.0325 68.4915L66.1001 68.0024L66.1336 67.5977L66.1505 67.2098L66.2349 66.5689L66.3193 65.9618L66.4035 65.3379L66.5048 64.697L66.6059 64.0393L66.7072 63.3647L66.8251 62.6902L66.9433 61.9987L67.0781 61.2904L67.213 60.5652L67.348 59.8232L67.4997 59.0643L67.6514 58.3054L67.8032 57.5297L67.972 56.737L68.1406 55.9276L68.3092 55.1349L68.4609 54.3929L68.6128 53.7015L68.7477 53.0606L68.8656 52.4704L68.9838 51.9307L69.0849 51.4417L69.1693 51.0032L69.2537 50.5984L69.321 50.2611L69.3716 49.9744L69.4223 49.7215L69.456 49.536L69.4729 49.4011L69.4896 49.3505V49.1987L69.5065 48.9626L69.5234 48.7096L69.5571 48.4398L69.5909 48.1531L69.6246 47.8495L69.6753 47.5291L69.7257 47.175L69.7933 46.804L69.8608 46.4161L69.9281 46.0113L70.0125 45.5729L70.0969 45.1175L70.198 44.6285L70.2993 44.1225L70.4003 43.5997L70.5185 43.0432L70.6365 42.4698L70.7713 41.8796L70.9063 41.2556L71.0412 40.6147L71.1929 39.957L71.3448 39.2656L71.5134 38.5573L71.682 37.8321L71.8506 37.0732L72.0361 36.2975L72.2218 35.5049L72.4242 34.6785L72.6265 33.8353L72.8458 32.9752L73.065 32.0814L73.2841 31.2213L73.4866 30.4118L73.689 29.6529L73.8745 28.9446L74.06 28.2869L74.2286 27.6967L74.3972 27.157L74.5658 26.6679L74.7177 26.2295L74.8694 25.8416L75.0211 25.4874L75.1731 25.167L75.3417 24.8635L75.5272 24.6105L75.544 24.4756L75.7126 23.8516L75.9319 23.2276L76.2018 22.6036L76.5052 21.9965L76.8595 21.3894L77.2642 20.7823L77.7194 20.1752L78.2254 19.5681L78.765 18.961L79.3554 18.3538L79.9794 17.7467L80.654 17.1396L81.379 16.5325L82.1378 15.9254L82.9979 15.2677L83.757 14.8123L84.4147 14.4076L85.0724 14.0028L85.73 13.5981L86.4046 13.1934L87.0792 12.7886L87.7538 12.3839L88.4284 11.9791L89.1028 11.5744L89.7606 11.1696L90.4183 10.7649L91.0929 10.3433L91.7675 9.93854L92.4252 9.51693L93.083 9.09532L93.6057 8.7749L93.9766 8.43761L94.6006 7.96541L95.309 7.52694L96.0678 7.12219L96.8941 6.75118L97.788 6.41389L98.7494 6.11034L99.7443 5.8405L100.25 5.72246L100.756 5.6044L101.279 5.48635L101.802 5.3683L102.341 5.25025L102.898 5.1322L103.471 5.01415L104.045 4.8961L104.635 4.79492L105.242 4.69373L105.849 4.59255L106.473 4.49136L107.114 4.39017L107.755 4.28899L108.413 4.1878L109.188 4.06975L109.846 4.03602L110.402 4.00229L110.976 3.96856L111.566 3.93484L112.173 3.90111L112.797 3.86738L113.421 3.83365L114.062 3.79992L114.72 3.76619L115.394 3.73246L116.086 3.69874L116.794 3.68187L117.519 3.66501L118.244 3.64814L118.987 3.63128H119.745H120.471L121.213 3.64814L121.955 3.68187L122.697 3.73246L123.439 3.79992L124.164 3.88424L124.889 3.98543L125.614 4.10348L126.339 4.23839L127.048 4.40704L127.722 4.59255L128.363 4.81178L128.97 5.06475L129.544 5.35144L130.066 5.68873L130.437 5.97542L130.926 6.32957L131.449 6.81864L131.888 7.35829L132.242 7.93168L132.512 8.5388L132.697 9.16278L132.798 9.82049L132.832 10.4951L132.815 11.0684L132.731 11.625L132.596 12.1815L132.411 12.7212L132.174 13.2608L131.871 13.7836L131.567 14.2221L131.635 14.475L131.702 14.7111L131.753 14.9472L131.787 15.1665L131.82 15.3857L131.837 15.6218L131.77 16.3976L131.517 17.1733L131.044 17.8985L130.353 18.5225L129.476 19.0115L128.481 19.332L127.419 19.5006L126.323 19.5512L124.99 19.5175L123.759 19.3994L122.596 19.1971L121.499 18.9104L120.488 18.5225L119.56 18.0334L118.784 17.4769H117.823L115.968 17.4938L114.197 17.5106L112.511 17.5443L110.908 17.5949L109.408 17.6455L107.991 17.713L106.659 17.7804L105.428 17.8648L104.281 17.9491L103.235 18.0503L102.274 18.1515L101.414 18.2695L100.655 18.3876L99.9973 18.5056L99.4407 18.6237L98.9855 18.7586L98.5639 18.9104L98.159 19.079L97.788 19.2814L97.417 19.5175L97.0629 19.7873L96.7255 20.0909L96.4052 20.4281L96.1016 20.7992L95.815 21.2208L95.5451 21.6761L95.2921 22.1652L95.056 22.7048L94.8367 23.2782L94.6513 23.8853L94.4489 24.6611L93.9935 25.673L93.6057 26.5668L93.2347 27.4268L92.8806 28.2363L92.5432 29.0121L92.2229 29.7541L91.9192 30.4624L91.6325 31.137L91.3628 31.7778L91.1267 32.3681L90.9074 32.9246L90.7051 33.4474L90.5196 33.9365L90.351 34.3749L90.199 34.7797L90.0642 35.1507L89.7606 36.0445L89.474 36.9046L89.2041 37.7478L88.9511 38.5573L88.7319 39.3499L88.5295 40.1257L88.344 40.8677L88.1754 41.5929L88.0237 42.2843L87.8886 42.9589L87.7876 43.5997L87.7032 44.1731L88.1079 43.9539L89.3052 43.2962L90.4352 42.7059L91.4808 42.1831L92.4421 41.7278L93.3358 41.3399L94.1621 41.0195L94.938 40.7497L95.3427 40.6485L95.7644 40.4461L96.4221 40.1594L97.0798 39.8896L97.7374 39.6366L98.412 39.4174L99.0866 39.215L99.7612 39.0295L100.436 38.8777L100.807 38.8103L101.195 38.7428L101.599 38.6754L102.021 38.6248L102.459 38.5742L102.915 38.5236L103.387 38.4898L103.876 38.4561L104.399 38.4224L104.922 38.3887L105.461 38.3718L106.035 38.3549L106.625 38.3381L107.232 38.3212H107.856H108.531H108.784L109.138 38.3381L109.593 38.3549L110.167 38.3718L110.858 38.4055L111.667 38.4392L112.578 38.4898L113.607 38.5404L114.635 38.591L115.597 38.6248L116.491 38.6585L117.3 38.6922L118.042 38.7091L118.7 38.7259L119.273 38.7428H119.83L120.521 38.7765L121.263 38.8777L121.972 39.0464L122.646 39.2825L123.253 39.6029L123.793 39.9908L124.248 40.4292L124.602 40.8846L124.889 41.3399L125.125 41.8121L125.311 42.3012L125.462 42.8071L125.58 43.3299L125.665 43.8864L125.715 44.4598L125.732 45.0669L125.682 46.2474L125.53 47.3267L125.277 48.3217L124.889 49.2156L124.332 50.025L123.557 50.7333L122.545 51.273L121.297 51.6103H115.226H114.686L114.113 51.6272L113.506 51.644L112.865 51.6609L112.19 51.6946L111.482 51.7283L110.74 51.7789L109.964 51.8295L109.155 51.8801L108.311 51.9476L107.434 52.015L106.524 52.0994L105.579 52.1837L104.601 52.268L103.589 52.3692L102.544 52.4704L101.498 52.5716L100.47 52.6727L99.4744 52.7571L98.5132 52.8414L97.5856 52.9257L96.6751 52.9932L95.7981 53.0606L94.9549 53.1112L94.1454 53.1618L93.3527 53.2124L92.5938 53.2461L91.8686 53.2799L91.1604 53.3136L90.4858 53.3305L89.845 53.3473H89.2716L88.7994 53.3642L88.3609 53.3979L87.9055 53.4654L87.4333 53.5666L86.9612 53.7015L86.4721 53.8701L85.9661 54.0725L85.4772 54.2917L85.0724 54.511L84.7181 54.7639L84.3809 55.0675L84.0604 55.4385L83.7738 55.877L83.504 56.3829L83.2678 56.9563L83.0992 57.4959V57.6477L83.0823 58.0019L83.0486 58.3729L83.0148 58.7776L82.9644 59.1992L82.8969 59.6546L82.8293 60.1436L82.7451 60.6496L82.6439 61.1892L82.5428 61.7626L82.4246 62.3697L82.3067 63.0106L82.1716 63.6683L82.0199 64.3597L81.8682 65.0849L81.6996 65.8269L81.5308 66.5689L81.379 67.2941L81.2273 67.9855L81.0923 68.6433L80.9743 69.2841L80.8563 69.8912L80.7551 70.4815L80.6707 71.038L80.5865 71.5608L80.5189 72.0667L80.4683 72.5389L80.4179 72.9774L80.3841 73.399L80.3503 73.7869L80.3335 74.141V74.4783V74.8662L80.3503 75.2372L80.3672 75.4565H80.654L81.3622 75.4396L82.0705 75.4227L82.7787 75.4059L83.4871 75.389L84.1954 75.3721L84.9036 75.3553L85.5951 75.3384L86.2866 75.3047L86.9781 75.2709L87.6694 75.2372L88.3609 75.2035L89.0524 75.1698L89.7437 75.136L90.4352 75.1023L91.1267 75.0517L91.8182 75.0011L92.5094 74.9505L93.2009 74.8999L93.8924 74.8493L94.5837 74.7987L95.2752 74.7313L95.9667 74.6638L96.6413 74.5964L97.3157 74.5289L97.9904 74.4614L98.665 74.394L99.3396 74.3265L100.014 74.2422L100.689 74.1579L102.021 73.9893L103.32 73.8037L104.584 73.6014L105.832 73.3821L107.046 73.146L108.244 72.9099L109.408 72.657L110.554 72.3871L111.667 72.1005L112.747 71.7969L113.758 71.4596ZM201.74 72.8425L202.027 72.3534L202.246 71.8643L202.414 71.3584L202.515 70.8525L202.549 70.3297L202.499 69.7394L202.347 69.1661L202.06 68.5927L201.588 68.0699L200.947 67.6314L200.188 67.3278L199.379 67.1592L198.552 67.1086L197.861 67.1592L197.203 67.2773L196.562 67.4628L195.939 67.6989L195.315 67.9687L194.674 68.2891L194.016 68.6433L193.358 69.0311L192.717 69.419L192.11 69.79L191.52 70.1442L190.947 70.4815L190.407 70.785L189.884 71.0717L189.378 71.3416L188.923 71.5777L188.029 72.0161L187.186 72.3871L186.393 72.6907L185.651 72.9268L184.977 73.1123L184.37 73.2304L183.83 73.2978L183.374 73.3147L182.717 73.281L182.11 73.1629L181.519 72.9774L180.929 72.7076L180.339 72.3366L179.749 71.8475L179.158 71.2404L178.484 70.3634L177.995 69.8912L177.607 69.5033L177.219 69.0986L176.831 68.677L176.443 68.2385L176.055 67.7832L175.668 67.311L175.28 66.8388L174.892 66.3497L174.521 65.8438L174.15 65.321L173.779 64.7982L173.408 64.2585L173.037 63.702L172.683 63.1286L172.312 62.5384L171.316 60.9869L170.389 59.5365L169.512 58.1705L168.686 56.9057L167.927 55.7252L167.219 54.629L166.561 53.634L165.954 52.7233L165.414 51.897L164.925 51.155L164.486 50.5141L164.099 49.9576L163.778 49.4854L163.508 49.0975L163.424 48.9795L163.475 48.7939L163.576 48.541L163.727 48.288L163.93 48.0351L164.183 47.7652L164.503 47.4785L164.925 47.175L165.026 47.1075L165.245 46.9726L165.6 46.7702L166.055 46.5004L166.628 46.1631L167.303 45.7584L168.079 45.303L169.293 44.5947L169.546 44.2237L169.63 44.1225L169.782 43.9539L170.001 43.7346L170.288 43.4817L170.625 43.1781L171.013 42.824L171.468 42.4361L171.974 42.0145L172.531 41.5592L173.138 41.0701L173.796 40.5304L174.504 39.957L175.28 39.3499L176.106 38.7091L176.983 38.0345L177.86 37.3431L178.686 36.7022L179.462 36.0951L180.187 35.5217L180.862 34.9989L181.469 34.5099L182.025 34.0545L182.531 33.6329L182.987 33.2619L183.391 32.9246L183.745 32.6211L184.049 32.3512L184.302 32.1151L184.521 31.9128L184.724 31.7104L184.791 31.6092L185.044 31.3562L185.348 31.0358L185.668 30.7154L185.989 30.395L186.326 30.0577L186.68 29.7204L187.051 29.3662L187.422 29.0121L187.81 28.6411L188.198 28.2701L188.602 27.899L189.024 27.5112L189.446 27.1233L189.884 26.7185L190.339 26.3138L190.812 25.8922L191.419 25.3357L192.009 24.7791L192.583 24.2226L193.139 23.6661L193.679 23.1264L194.201 22.5868L194.724 22.0471L195.23 21.5075L195.719 20.9678L196.191 20.4281L196.647 19.8885L197.085 19.3488L197.524 18.8092L197.945 18.2695L198.35 17.7467L198.502 17.5443L198.671 17.46L199.311 17.0047L199.885 16.4819L200.407 15.9085L200.897 15.2677L201.352 14.5594L201.79 13.7836L202.212 12.9404L202.414 12.485L202.6 12.0297L202.785 11.5575L202.954 11.0853L203.106 10.5962L203.241 10.1072L203.359 9.61812L203.477 9.11218L203.578 8.60625L203.662 8.10032L203.73 7.57753L203.797 7.05474L203.848 6.51508L203.882 5.97542L203.898 5.43576L203.915 4.59255L203.511 3.90111L203.207 3.4795L202.903 3.12535L202.482 2.7712L201.976 2.45078L201.386 2.19781L200.711 2.02917L199.935 1.96171L199.497 2.0123L199.227 2.0629L198.957 2.13035L198.637 2.19781L198.266 2.28213L197.827 2.38332L197.321 2.50137L197.035 2.56883H196.731L196.073 2.60255L195.416 2.67001L194.758 2.75433L194.1 2.85552L193.442 2.97357L192.768 3.12535L192.093 3.29399L191.419 3.4795L190.744 3.69874L190.07 3.93484L189.378 4.1878L188.687 4.45763L187.995 4.76119L187.304 5.08161L186.697 5.3683L186.09 5.6044L185.415 5.87423L184.791 6.14406L184.201 6.41389L183.661 6.70059L183.155 6.98728L182.683 7.27397L182.262 7.57753L181.874 7.88109L181.536 8.18465L181.233 8.4882L180.963 8.80863L180.727 9.14591L180.541 9.51693L180.423 9.90481L180.373 10.3264L180.44 10.7649L180.592 11.1865L180.811 11.5575L181.081 11.9117L181.385 12.2489L181.722 12.5694L182.11 12.8898L182.531 13.2102L182.767 13.3789L182.801 13.3957L182.649 13.7161L182.447 14.0872L182.211 14.4919L181.941 14.9304L181.621 15.4026L181.266 15.9254L180.879 16.4819L180.457 17.0553L180.002 17.6624L179.496 18.3032L178.956 18.9778L178.383 19.6861L177.776 20.4281L177.135 21.187L176.477 21.9628L175.836 22.7048L175.195 23.43L174.571 24.1383L173.947 24.8129L173.34 25.4706L172.733 26.1114L172.126 26.7185L171.536 27.3088L170.962 27.8822L170.389 28.4218L169.832 28.9446L169.276 29.4337L168.736 29.9059L168.213 30.3612L167.64 30.8166L166.881 31.508L166.173 32.1489L165.481 32.7728L164.807 33.38L164.149 33.9702L163.525 34.5436L162.918 35.0832L162.328 35.606L161.754 36.112L161.198 36.601L160.675 37.0732L160.169 37.5286L159.68 37.9502L159.208 38.3549L158.769 38.7428L158.348 39.1138L157.572 39.7884L156.813 40.4292L156.054 41.0532L155.295 41.6603L154.553 42.2337L153.811 42.7902L153.086 43.3299L152.361 43.8358L151.653 44.3249L150.944 44.7971L150.253 45.2356L150.287 44.9826L150.422 44.2237L150.573 43.4311L150.742 42.6047L150.944 41.7615L151.164 40.8846L151.417 39.9739L151.687 39.0295L151.973 38.0682L152.294 37.0732L152.631 36.0445L153.002 34.9821L153.373 33.9196L153.727 32.8909L154.064 31.9128L154.385 30.9684L154.671 30.0745L154.941 29.2145L155.194 28.405L155.43 27.6292L155.633 26.8872L155.818 26.1957L155.987 25.538L156.139 24.9309L156.274 24.3575L156.375 23.8179L156.459 23.3288L156.493 23.0421L156.628 22.7554L156.83 22.3001L157.032 21.811L157.252 21.3051L157.471 20.7823L157.69 20.2595L157.909 19.703L158.129 19.1296L158.348 18.5393L158.55 17.9491L158.719 17.3757L158.854 16.8192L158.972 16.2795L159.056 15.7399L159.107 15.2171L159.124 14.7111L159.107 14.1883L159.056 13.6656L158.972 13.1596L158.854 12.6706L158.702 12.1984L158.5 11.743L158.263 11.3045L157.977 10.8829L157.639 10.4613L157.218 10.0566L156.746 9.68557L156.223 9.34829L155.65 9.02786L155.043 8.74117L154.402 8.4882L153.12 8.0666L151.687 8.35329L150.928 8.52193L150.186 8.7243L149.46 8.94354L148.752 9.17964L148.061 9.43261L147.386 9.7193L146.728 10.0229L146.104 10.3433L145.497 10.6806L144.907 11.0516L144.333 11.4395L143.794 11.8442L143.271 12.2658L142.782 12.7212L142.31 13.1934L141.871 13.6656L141.467 14.1546L141.096 14.6437L140.741 15.1496L140.421 15.6724L140.117 16.1952L139.848 16.718L139.612 17.2577L139.392 17.7973L139.207 18.3538L139.055 18.9104L138.92 19.4837L138.819 20.0571L138.752 20.6305L138.701 21.2208L138.684 21.7773V21.7942V21.8448L138.667 21.9459L138.65 22.0977L138.617 22.3001L138.583 22.5362L138.549 22.806L138.499 23.1096L138.448 23.4637L138.381 23.8516L138.313 24.2732L138.229 24.7285L138.144 25.2345L138.06 25.7741L137.959 26.3475L137.858 26.9546L137.757 27.5955L137.638 28.2869L137.52 29.0121L137.385 29.771L137.251 30.5636L137.116 31.39L136.964 32.2669L136.812 33.1776L136.643 34.122L136.475 35.1001L136.306 36.112L136.121 37.1744L135.935 38.2706L135.75 39.4005L135.547 40.5642L135.345 41.7615L135.176 42.7734L135.025 43.7178L134.89 44.6116L134.772 45.4379L134.653 46.1968L134.552 46.9051L134.468 47.546L134.401 48.1362L134.35 48.659L134.299 49.1144L134.266 49.5191L134.249 49.8733V50.1937L134.266 50.4972L134.35 50.902L134.434 51.0369V51.0538L134.451 51.1212V51.2224L134.434 51.3405L134.401 51.4922L134.35 51.6609L134.266 51.8633L134.148 52.1162L133.962 52.4872L133.793 52.9088L133.658 53.3473L133.54 53.8027L133.456 54.2749L133.389 54.7639L133.355 55.2698L133.338 55.6746L133.186 56.4841L133.018 57.361L132.866 58.2042L132.714 59.0306L132.562 59.8232L132.427 60.599L132.293 61.341L132.158 62.0662L132.04 62.7745L131.921 63.449L131.803 64.1068L131.702 64.7307L131.601 65.3379L131.5 65.9112L131.416 66.4678L131.331 66.9905L131.163 67.9687L131.011 68.93L130.859 69.8575L130.724 70.7513L130.606 71.6114L130.488 72.4377L130.387 73.2304L130.286 73.9893L130.201 74.7144L130.134 75.4059L130.066 76.0804L130.016 76.7213L129.982 77.3284L129.948 77.9018L129.932 78.4414V78.9642L129.948 79.6051L129.982 80.2122L130.033 80.8024L130.1 81.3758L130.185 81.9155L130.302 82.4383L130.437 82.9442L130.876 84.2596L132.293 84.5126L132.562 84.5632L132.866 84.6138L133.186 84.6475L133.524 84.6812L133.895 84.715L134.299 84.7487L134.687 84.7824L135.075 84.8161L135.463 84.8499L135.834 84.8836L136.188 84.9005L136.525 84.9173L136.863 84.9342L137.183 84.9511H137.52L138.431 84.9173L139.342 84.8161L140.219 84.6475L141.045 84.3945L141.821 84.0573L142.512 83.6356L143.119 83.1466L143.946 82.2022L143.693 81.0385L143.575 80.4483L143.474 79.8412L143.389 79.2341L143.322 78.6269L143.271 78.0198L143.237 77.3959L143.221 76.7719V76.1816L143.237 75.5745L143.271 74.9674L143.322 74.3434L143.372 73.7194L143.44 73.0786L143.524 72.4377L143.608 71.78L143.71 71.1223L143.828 70.4477L143.946 69.7732L144.081 69.0817L144.232 68.3903L144.401 67.6989L144.57 66.9905L144.755 66.2822L144.89 65.7932L145.025 65.2873L145.177 64.7645L145.346 64.2248L145.531 63.6683L145.716 63.078L145.919 62.4709L146.138 61.8469L146.374 61.2061L146.61 60.5484L146.863 59.8738L147.133 59.1824L147.15 59.1486L147.335 59.3679L147.791 59.9075L148.28 60.4978L148.803 61.1386L149.359 61.8301L149.933 62.5721L150.54 63.3647L151.181 64.2079L151.754 64.9837L152.311 65.692L152.85 66.316L153.356 66.8725L153.862 67.3616L154.368 67.7832L154.907 68.1542L154.975 68.1879L154.992 68.2048L155.329 68.6095L155.751 69.0817L156.24 69.6214L156.813 70.2285L157.454 70.9199L158.179 71.6788L158.972 72.5052L159.309 72.8593L159.646 73.2304L160.001 73.6014L160.338 73.9555L160.692 74.3097L161.046 74.6638L161.4 75.018L161.754 75.3721L162.109 75.7263L162.463 76.0804L162.817 76.4346L163.171 76.7887L163.525 77.1429L163.879 77.497L164.233 77.8512L164.672 78.2897L165.195 78.9305L165.92 79.74L166.662 80.4989L167.421 81.2072L168.197 81.8649L169.006 82.472L169.832 83.0285L170.676 83.5345L171.553 83.9898L172.446 84.3777L173.374 84.715L174.318 85.0017L175.28 85.2209L176.258 85.3727L177.253 85.4739L178.248 85.5076L178.939 85.4907L179.631 85.4401L180.322 85.3727L181.013 85.2715L181.722 85.1534L182.43 85.0017L183.138 84.833L183.847 84.6306L184.555 84.4114L185.28 84.1584L186.005 83.8886L186.73 83.5851L187.473 83.2646L188.215 82.9273L188.957 82.5563L189.918 82.0504L190.474 81.5445L190.845 81.1903L191.216 80.8362L191.587 80.482L191.959 80.1279L192.33 79.7737L192.717 79.4196L193.088 79.0654L193.476 78.7113L193.864 78.3571L194.252 78.003L194.64 77.6488L195.028 77.2947L195.787 76.6032L195.888 76.5864L196.697 76.384L197.473 76.131L198.198 75.8275L198.89 75.4733L199.531 75.0686L200.104 74.6132L200.61 74.141L201.048 73.6688L201.436 73.1966L201.74 72.8425ZM275.133 70.8525L275.032 71.3584L274.863 71.8643L274.644 72.3534L274.358 72.8425L274.02 73.3147L273.632 73.7869L273.194 74.2591L272.688 74.7313L272.115 75.1698L271.474 75.5745L270.782 75.9286L270.057 76.2322L269.281 76.4852L268.472 76.6875L268.371 76.7044L267.612 77.3959L267.224 77.75L266.836 78.1041L266.448 78.4583L266.06 78.8124L265.301 79.5207L264.93 79.8749L264.559 80.2291L264.188 80.5832L263.817 80.9374L263.446 81.2915L263.075 81.6457L262.536 82.1516L261.557 82.6575L260.816 83.0285L260.073 83.3658L259.331 83.6862L258.606 83.9898L257.881 84.2596L257.156 84.5126L256.448 84.7318L255.739 84.9342L255.031 85.1028L254.323 85.2546L253.614 85.3727L252.906 85.4739L252.215 85.5413L251.523 85.5919L250.832 85.6088L249.837 85.575L248.842 85.4739L247.864 85.3221L246.902 85.1028L245.958 84.8161L245.031 84.4789L244.137 84.091L243.26 83.6356L242.416 83.1297L241.59 82.5732L240.781 81.9661L240.005 81.3084L239.246 80.6001L238.504 79.8412L237.779 79.0317L237.239 78.3908L236.818 77.9692L236.463 77.6151L236.109 77.2609L235.755 76.9068L235.401 76.5526L235.047 76.1985L234.693 75.8443L234.001 75.136L233.647 74.7819L233.293 74.4277L232.956 74.0736L232.618 73.7194L232.281 73.3484L231.944 72.9774L231.606 72.6232L230.814 71.7969L230.089 71.038L229.431 70.3466L228.857 69.7394L228.369 69.1998L227.947 68.7276L227.593 68.3228L227.576 68.306L227.508 68.2722L226.952 67.9012L226.446 67.4796L225.94 66.9905L225.417 66.434L224.878 65.8101L224.321 65.1018L223.748 64.326L223.107 63.4828L222.5 62.6902L221.909 61.9481L221.37 61.2567L220.847 60.6158L220.358 60.0256L219.903 59.4859L219.717 59.2667L219.7 59.3004L219.43 59.9919L219.177 60.6664L218.941 61.3241L218.705 61.965L218.486 62.589L218.284 63.1961L218.098 63.7695L217.913 64.326L217.744 64.8657L217.592 65.3884L217.457 65.8944L217.322 66.3834L217.137 67.0917L216.968 67.8L216.8 68.4915L216.648 69.1829L216.513 69.8575L216.395 70.5321L216.277 71.2066L216.176 71.8643L216.091 72.5221L216.007 73.1629L215.94 73.8037L215.889 74.4277L215.838 75.0517L215.805 75.6588L215.788 76.2659V76.8562V77.4802L215.821 78.1041L215.872 78.7113L215.94 79.3184L216.024 79.9255L216.125 80.5326L216.243 81.1229L216.496 82.2865L215.653 83.2309L215.063 83.72L214.371 84.1416L213.595 84.4789L212.769 84.7318L211.892 84.9005L210.981 85.0017L210.071 85.0354H209.733L209.413 85.0185L209.076 85.0017L208.738 84.9848L208.384 84.9679L208.013 84.9342L207.625 84.9005L207.238 84.8667L206.85 84.833L206.445 84.7993L206.074 84.7656L205.737 84.7318L205.416 84.6812L205.129 84.6306L204.86 84.58L203.46 84.3271L203.021 83.0117L202.887 82.5057L202.768 81.9829L202.684 81.4433L202.617 80.8699L202.566 80.2796L202.532 79.6725L202.515 79.0485V78.5258L202.532 77.9861L202.566 77.4127L202.6 76.8056L202.65 76.1647L202.718 75.4902L202.785 74.7819L202.87 74.0567L202.954 73.2978L203.055 72.5052L203.173 71.6788L203.291 70.8188L203.426 69.9249L203.578 68.9974L203.73 68.0361L203.898 67.058L203.983 66.5352L204.067 65.9787L204.151 65.4053L204.253 64.7982L204.354 64.1742L204.472 63.5165L204.59 62.8419L204.708 62.1336L204.843 61.4085L204.978 60.6496L205.113 59.8738L205.264 59.0812L205.416 58.2548L205.568 57.4116L205.737 56.5347L205.888 55.7252L205.905 55.3204L205.939 54.8145L206.006 54.3255L206.091 53.8532L206.209 53.3979L206.361 52.9594L206.529 52.5378L206.715 52.1668L206.833 51.9138L206.917 51.7115L206.968 51.5428L207.001 51.3911L207.018 51.273V51.1718L207.001 51.1044V51.0875L206.917 50.9526L206.833 50.531L206.816 50.2274V49.907L206.833 49.5528L206.867 49.1481L206.917 48.6928L206.968 48.17L207.035 47.5966L207.12 46.9557L207.221 46.2474L207.339 45.4885L207.457 44.6622L207.592 43.7684L207.744 42.824L207.912 41.8121L208.115 40.6147L208.317 39.4511L208.502 38.3212L208.688 37.225L208.873 36.1626L209.042 35.1507L209.211 34.1726L209.379 33.2282L209.531 32.3175L209.683 31.4406L209.818 30.6142L209.953 29.8216L210.088 29.0627L210.206 28.3375L210.324 27.6461L210.425 27.0052L210.526 26.3981L210.627 25.8247L210.712 25.2851L210.796 24.7791L210.863 24.3238L210.931 23.9022L210.998 23.5143L211.049 23.1602L211.1 22.8566L211.15 22.5868L211.184 22.3507L211.217 22.1483L211.234 21.9965L211.251 21.8785V21.811L211.268 21.2714L211.319 20.6811L211.386 20.0909L211.487 19.5175L211.622 18.9441L211.774 18.3876L211.96 17.831L212.179 17.2914L212.415 16.7517L212.685 16.2289L212.988 15.7061L213.309 15.1833L213.663 14.6774L214.051 14.1883L214.456 13.6993L214.894 13.2271L215.349 12.7549L215.838 12.2995L216.361 11.8779L216.901 11.4732L217.457 11.0853L218.048 10.7143L218.655 10.3601L219.296 10.0397L219.953 9.73617L220.628 9.44947L221.319 9.19651L222.028 8.9604L222.753 8.74117L223.495 8.5388L224.254 8.37016L225.687 8.08346L226.952 8.50507L227.593 8.75803L228.2 9.04473L228.773 9.36515L229.296 9.70244L229.768 10.0735L230.19 10.4782L230.544 10.8998L230.814 11.3214L231.05 11.7599L231.252 12.2152L231.404 12.6874L231.522 13.1765L231.606 13.6824L231.657 14.2052L231.674 14.728L231.657 15.2339L231.606 15.7567L231.522 16.2964L231.404 16.836L231.269 17.3926L231.101 17.966L230.898 18.5562L230.679 19.1465L230.443 19.7198L230.224 20.2595L230.004 20.7823L229.785 21.3051L229.566 21.811L229.364 22.2832L229.161 22.7386L229.026 23.0253L228.993 23.3119L228.908 23.801L228.807 24.3407L228.689 24.9141L228.537 25.5212L228.369 26.1789L228.183 26.8703L227.981 27.6124L227.745 28.3881L227.492 29.1976L227.222 30.0577L226.935 30.9515L226.615 31.8959L226.277 32.874L225.923 33.9027L225.552 34.9652L225.181 36.0276L224.844 37.0564L224.523 38.0514L224.237 39.0126L223.967 39.957L223.714 40.8677L223.495 41.7447L223.292 42.6047L223.124 43.4311L222.972 44.2237L222.837 44.9826L222.803 45.2356L223.495 44.7971L224.203 44.3249L224.911 43.8358L225.637 43.3299L226.362 42.7902L227.104 42.2337L227.846 41.6603L228.605 41.0532L229.364 40.4292L230.122 39.7884L230.898 39.1138L231.32 38.7428L231.758 38.3549L232.23 37.9502L232.719 37.5286L233.226 37.0732L233.748 36.601L234.305 36.112L235.468 35.0832L236.075 34.5436L236.699 33.9702L237.357 33.38L238.032 32.7728L238.723 32.1489L239.431 31.508L240.19 30.8166L240.764 30.3612L241.287 29.9059L241.826 29.4337L242.383 28.9446L242.939 28.4218L243.513 27.8822L244.086 27.3088L244.676 26.7185L245.267 26.1114L245.874 25.4706L246.481 24.8129L247.105 24.1383L247.729 23.43L248.37 22.7048L249.01 21.9628L249.668 21.187L250.309 20.4281L250.916 19.6861L251.49 18.9778L252.029 18.3032L252.535 17.6624L252.99 17.0553L253.412 16.4819L253.8 15.9422L254.154 15.4194L254.475 14.9304L254.744 14.475L254.981 14.0703L255.183 13.6993L255.335 13.3789L255.301 13.362L255.065 13.1934L254.643 12.8729L254.255 12.5525L253.918 12.2152L253.614 11.8779L253.345 11.5238L253.125 11.1528L252.974 10.7312L252.923 10.2927L252.974 9.87108L253.092 9.4832L253.277 9.11218L253.513 8.7749L253.783 8.45448L254.087 8.15092L254.424 7.86423L254.795 7.57753L255.216 7.29084L255.689 7.00414L256.195 6.71745L256.751 6.43076L257.341 6.16093L257.965 5.8911L258.623 5.62127L259.23 5.38517L259.837 5.09847L260.546 4.77805L261.237 4.47449L261.929 4.20467L262.62 3.9517L263.295 3.7156L263.969 3.49636L264.644 3.31086L265.318 3.14221L265.993 2.99043L266.651 2.87238L267.308 2.7712L267.966 2.68688L268.624 2.61942L269.281 2.58569H269.585L269.872 2.51823L270.378 2.40018L270.816 2.299L271.187 2.21467L271.507 2.14722L271.777 2.07976L272.047 2.02917L272.486 1.97857L273.261 2.04603L273.936 2.21467L274.526 2.46764L275.032 2.78806L275.454 3.14221L275.808 3.53009L276.111 3.9517L276.516 4.62627L276.499 5.46949L276.483 6.00915L276.449 6.54881L276.398 7.08847L276.331 7.61126L276.263 8.13405L276.179 8.63998L276.078 9.14591L275.96 9.65184L275.842 10.1409L275.707 10.63L275.555 11.119L275.386 11.5912L275.201 12.0634L275.015 12.5188L274.813 12.9741L274.391 13.8173L273.953 14.5931L273.498 15.3014L273.008 15.9422L272.486 16.5156L271.912 17.0384L271.271 17.4938L271.103 17.5781L270.951 17.7804L270.546 18.3032L270.125 18.8429L269.686 19.3826L269.248 19.9222L268.792 20.4619L268.32 21.0015L267.831 21.5412L267.325 22.0809L266.802 22.6205L266.28 23.1602L265.74 23.6998L265.183 24.2564L264.61 24.8129L264.02 25.3694L263.413 25.9259L262.94 26.3475L262.485 26.7523L262.047 27.157L261.625 27.5449L261.203 27.9328L260.799 28.3038L260.411 28.6748L260.023 29.0458L259.652 29.4L259.298 29.7541L258.944 30.0914L258.606 30.4287L258.269 30.7491L257.948 31.0695L257.645 31.39L257.392 31.6598L257.308 31.761L257.105 31.9633L256.886 32.1657L256.633 32.4018L256.33 32.6716L255.975 32.9752L255.571 33.3125L255.115 33.6835L254.609 34.1051L254.053 34.5605L253.446 35.0495L252.788 35.5723L252.063 36.1457L251.287 36.7528L250.461 37.3937L249.584 38.0851L248.707 38.7597L247.897 39.4005L247.122 40.0076L246.413 40.581L245.756 41.1207L245.148 41.6097L244.592 42.0651L244.086 42.4867L243.631 42.8746L243.243 43.2119L242.906 43.5154L242.619 43.7852L242.4 44.0045L242.248 44.1731L242.163 44.2574L241.911 44.6285L239.971 45.7752L239.229 46.2137L238.656 46.551L238.2 46.8208L237.846 47.0232L237.627 47.1581L237.526 47.2256L237.104 47.5291L236.784 47.799L236.531 48.0688L236.328 48.3386L236.177 48.5916L236.075 48.8445L236.025 49.03L236.109 49.1312L236.379 49.5191L236.699 49.9913L237.071 50.5478L237.509 51.1887L237.998 51.9307L238.538 52.7571L239.145 53.6677L239.803 54.6627L240.511 55.7589L241.27 56.9394L242.096 58.2042L242.973 59.5703L243.901 61.0206L244.895 62.5721L245.267 63.1624L245.621 63.7357L245.992 64.2923L246.363 64.8319L246.734 65.3547L247.105 65.8775L247.476 66.3834L247.864 66.8725L248.251 67.3447L248.64 67.8L249.027 68.2554L249.415 68.6938L249.803 69.1155L250.191 69.5202L250.579 69.9081L251.068 70.3803L251.743 71.2572L252.333 71.8643L252.923 72.3534L253.513 72.7244L254.104 72.9943L254.694 73.1798L255.301 73.2978L255.959 73.3315L256.414 73.3147L256.954 73.2472L257.561 73.1292L258.235 72.9437L258.977 72.7076L259.77 72.404L260.613 72.033L261.507 71.5945L261.962 71.3584L262.468 71.0886L262.991 70.8019L263.548 70.4983L264.121 70.161L264.711 69.8069L265.318 69.4359L265.959 69.048L266.617 68.6601L267.275 68.306L267.915 67.9855L268.539 67.7157L269.163 67.4796L269.804 67.2941L270.462 67.1761L271.153 67.1255L271.98 67.1761L272.789 67.3447L273.548 67.6483L274.189 68.0867L274.661 68.6095L274.948 69.1829L275.1 69.7563L275.15 70.3466L275.133 70.8525ZM313.162 73.77L311.864 73.9555L310.532 74.1242L309.857 74.2085L309.182 74.2928L308.508 74.3603L307.833 74.4277L307.159 74.4952L306.484 74.5626L305.809 74.6301L305.118 74.6975L304.427 74.765L303.735 74.8156L303.044 74.8662L302.352 74.9168L301.661 74.9674L300.969 75.018L300.278 75.0686L299.587 75.1023L298.895 75.136L298.204 75.1698L297.512 75.2035L296.821 75.2372L296.129 75.2709L295.438 75.3047L294.747 75.3215L294.038 75.3384L293.33 75.3553L292.622 75.3721L291.913 75.389L291.205 75.4059L290.497 75.4227H290.21L290.193 75.2035L290.176 74.8325V74.4277V74.0904L290.193 73.7363L290.21 73.3484L290.244 72.9268L290.294 72.4883L290.345 72.0161L290.412 71.5102L290.497 70.9705L290.581 70.414L290.682 69.8238L290.8 69.2166L290.918 68.5758L291.053 67.9181L291.205 67.2266L291.357 66.5183L291.525 65.7763L291.694 65.0343L291.846 64.3091L291.998 63.6177L292.133 62.96L292.251 62.3191L292.369 61.712L292.47 61.1386L292.571 60.599L292.655 60.0762L292.723 59.5871L292.79 59.1318L292.841 58.6933L292.875 58.2886L292.908 57.9175L292.925 57.5634V57.4116L293.077 56.872L293.313 56.2986L293.583 55.7926L293.87 55.3542L294.19 54.9832L294.527 54.6796L294.881 54.4266L295.286 54.2074L295.775 53.9882L296.281 53.7858L296.77 53.6171L297.242 53.4822L297.715 53.381L298.17 53.3136L298.609 53.2799L299.081 53.263H299.637L300.278 53.2461L300.953 53.2293L301.661 53.1955L302.386 53.1618L303.145 53.1281L303.938 53.0775L304.747 53.0269L305.59 52.9763L306.467 52.9088L307.378 52.8414L308.306 52.7571L309.267 52.6727L310.262 52.5884L311.29 52.4872L312.336 52.386L313.382 52.2849L314.394 52.1837L315.372 52.0994L316.316 52.015L317.227 51.9307L318.104 51.8633L318.947 51.7958L319.756 51.7452L320.532 51.6946L321.274 51.644L321.982 51.6103L322.657 51.5766L323.298 51.5597L323.905 51.5428L324.478 51.526H325.018H331.089L332.337 51.1887L333.349 50.649L334.125 49.9407L334.681 49.1312L335.069 48.2374L335.322 47.2424L335.474 46.1631L335.524 44.9826L335.508 44.3755L335.457 43.8021L335.373 43.2456L335.255 42.7228L335.103 42.2169L334.917 41.7278L334.681 41.2556L334.395 40.8003L334.024 40.3449L333.568 39.9064L333.029 39.5186L332.421 39.1981L331.747 38.962L331.039 38.7934L330.296 38.6922L329.605 38.6585H329.049L328.475 38.6416L327.817 38.6248L327.076 38.6079L326.266 38.5742L325.372 38.5404L324.411 38.5067L323.382 38.4561L322.353 38.4055L321.443 38.3549L320.633 38.3212L319.942 38.2875L319.368 38.2706L318.913 38.2537L318.559 38.2369H318.306H317.631H317.007L316.4 38.2537L315.81 38.2706L315.237 38.2875L314.697 38.3043L314.174 38.3381L313.668 38.3718L313.179 38.4055L312.707 38.4392L312.252 38.4898L311.813 38.5404L311.392 38.591L310.987 38.6585L310.599 38.7259L310.228 38.7934L309.553 38.9452L308.879 39.1307L308.204 39.3331L307.53 39.5523L306.872 39.8053L306.214 40.0751L305.557 40.3618L305.135 40.5642L304.73 40.6653L303.954 40.9352L303.128 41.2556L302.234 41.6435L301.273 42.0988L300.227 42.6216L299.097 43.2119L297.9 43.8696L297.495 44.0888L297.58 43.5154L297.681 42.8746L297.816 42.2L297.968 41.5086L298.136 40.7834L298.322 40.0414L298.524 39.2825L298.76 38.4898L299.013 37.6804L299.283 36.8371L299.57 35.9771L299.873 35.0832L300.008 34.7122L300.16 34.3075L300.329 33.869L300.514 33.38L300.717 32.8572L300.936 32.3006L301.172 31.7104L301.442 31.0695L301.728 30.395L302.032 29.6867L302.352 28.9446L302.69 28.1689L303.044 27.3425L303.415 26.4824L303.803 25.5886L304.258 24.5768L304.46 23.801L304.646 23.1939L304.865 22.6205L305.101 22.0809L305.354 21.5918L305.624 21.1364L305.911 20.7148L306.214 20.3438L306.535 20.0065L306.872 19.703L307.226 19.4332L307.597 19.1971L307.985 18.9947L308.39 18.826L308.811 18.6743L309.267 18.5393L309.806 18.4213L310.464 18.3032L311.223 18.1852L312.083 18.0671L313.044 17.966L314.107 17.8648L315.254 17.7804L316.485 17.6961L317.817 17.6287L319.234 17.5612L320.735 17.5106L322.337 17.46L324.023 17.4263L325.794 17.4094L327.649 17.3926H328.61L329.386 17.9491L330.313 18.4382L331.325 18.826L332.421 19.1127L333.585 19.3151L334.816 19.4332L336.149 19.4669L337.228 19.4163L338.29 19.2476L339.285 18.9272L340.162 18.4382L340.854 17.8142L341.326 17.089L341.579 16.3133L341.663 15.5206L341.646 15.2845L341.613 15.0822L341.579 14.8629L341.528 14.6268L341.461 14.3907L341.393 14.1378L341.697 13.6993L341.984 13.1765L342.22 12.6368L342.405 12.0972L342.54 11.5406L342.624 10.9841L342.658 10.4107L342.624 9.73617L342.523 9.07846L342.338 8.45448L342.068 7.84736L341.714 7.27397L341.275 6.73431L340.752 6.24525L340.263 5.8911L339.892 5.6044L339.37 5.26712L338.796 4.98043L338.189 4.72746L337.548 4.50822L336.874 4.32272L336.165 4.15407L335.44 4.01916L334.715 3.90111L333.99 3.79992L333.265 3.7156L332.523 3.64814L331.781 3.59755L331.039 3.56382L330.296 3.54696H329.571H328.796L328.054 3.56382L327.328 3.58069L326.603 3.59755L325.895 3.61441L325.203 3.64814L324.529 3.68187L323.871 3.7156L323.23 3.74933L322.606 3.78306L321.982 3.81679L321.375 3.85052L320.785 3.88424L320.212 3.91797L319.655 3.9517L318.997 3.98543L318.222 4.10348L317.564 4.20467L316.906 4.30585L316.265 4.40704L315.641 4.50822L315.034 4.60941L314.427 4.71059L313.837 4.81178L313.264 4.92983L312.69 5.04788L312.134 5.16593L311.594 5.28398L311.054 5.40203L310.532 5.52008L310.026 5.63813L309.52 5.75618L308.525 6.02601L307.58 6.32957L306.686 6.66686L305.86 7.03787L305.084 7.44262L304.393 7.88109L303.769 8.35329L303.398 8.69058L302.875 9.011L302.217 9.43261L301.56 9.85421L300.902 10.259L300.227 10.6637L299.553 11.0684L298.878 11.4732L298.204 11.8779L297.529 12.2827L296.855 12.6874L296.18 13.0922L295.505 13.4969L294.831 13.9017L294.173 14.3064L293.515 14.7111L292.756 15.1665L291.88 15.8242L291.121 16.4313L290.396 17.0384L289.721 17.6455L289.097 18.2526L288.507 18.8598L287.967 19.4669L287.478 20.074L287.023 20.6811L286.618 21.2882L286.264 21.8953L285.96 22.5025L285.69 23.1264L285.471 23.7504L285.303 24.3744L285.286 24.5093L285.1 24.7623L284.931 25.0658L284.78 25.3863L284.628 25.7404L284.476 26.1452L284.324 26.5836L284.156 27.0727L283.987 27.6124L283.819 28.2026L283.633 28.8603L283.448 29.5686L283.245 30.3275L283.043 31.137L282.823 31.9971L282.604 32.8909L282.385 33.751L282.183 34.5942L281.98 35.4205L281.795 36.2132L281.609 36.9889L281.424 37.7478L281.255 38.473L281.086 39.1813L280.935 39.8727L280.783 40.5304L280.648 41.1713L280.513 41.7952L280.378 42.3855L280.26 42.9589L280.142 43.4985L280.024 44.0213L279.923 44.5273L279.822 45.0163L279.737 45.4717L279.653 45.9101L279.586 46.3149L279.518 46.7028L279.467 47.0738L279.417 47.4279L279.366 47.7484L279.333 48.0519L279.299 48.3386L279.265 48.6084L279.248 48.8614L279.231 49.0975V49.2493L279.215 49.3167L279.198 49.4517L279.164 49.654L279.113 49.907L279.046 50.2105L278.978 50.5478L278.894 50.9357L278.81 51.3742L278.709 51.8633L278.591 52.4029L278.472 52.9932L278.186 54.3255L278.034 55.0675L277.865 55.8601L277.697 56.6696L277.528 57.4622L277.444 58.2717L277.292 59.0306L277.14 59.7895L277.005 60.5315L276.87 61.2567L276.735 61.965L276.617 62.6564L276.499 63.3479L276.381 64.0224L276.28 64.6801L276.179 65.321L276.095 65.945L276.01 66.5521L275.926 67.1929L275.909 67.5808L275.875 67.9855L275.808 68.4746L275.707 69.0649L275.589 69.7394L275.437 70.4983L275.251 71.3416L275.049 72.2691L274.948 72.7582L274.847 73.2304L274.745 73.6857L274.661 74.1242L274.577 74.5289L274.492 74.9168L274.425 75.2878L274.358 75.642L274.307 75.9792L274.256 76.2997L274.223 76.6032L274.189 76.8899L274.155 77.1598L274.138 77.4127L274.122 77.6488V77.8849L274.138 78.5089L274.189 79.116L274.29 79.7063L274.425 80.2628L274.61 80.8024L274.847 81.3252L275.133 81.8143L275.487 82.3034L275.96 82.7756L276.55 83.214L277.224 83.5682L277.95 83.8549L278.725 84.0573L279.484 84.1922L279.451 84.3102L279.4 84.5969L279.349 84.8667L279.316 85.1197L279.299 85.3558L279.282 85.575L279.265 86.9073L281.238 87.2952L281.727 87.3795L282.233 87.4638L282.739 87.5313L283.245 87.5988L283.768 87.6662L284.291 87.7168L284.83 87.7674L285.37 87.818L285.927 87.8517L286.483 87.8855L287.039 87.9192L287.613 87.9361L288.186 87.9529L288.777 87.9698H289.367H290.126L290.885 87.9529L291.644 87.9361L292.402 87.9192L293.161 87.8855L293.92 87.8517L294.679 87.818L295.438 87.7674L296.197 87.7168L296.956 87.6662L297.715 87.5988L298.474 87.5313L299.233 87.447L299.991 87.3627L300.75 87.2783L301.509 87.1772L302.268 87.076L303.027 86.9748L303.786 86.8567L304.545 86.7387L305.304 86.6206L306.062 86.4857L306.821 86.3508L307.58 86.199L308.339 86.0472L309.098 85.8955L309.857 85.7268L310.616 85.5582L311.375 85.3895L312.134 85.204L312.893 85.0185L313.365 84.9005H313.517L314.056 84.8499L314.596 84.7824L315.152 84.6812L315.726 84.5632L316.316 84.4283L316.923 84.2596L317.547 84.0741L318.188 83.8717L318.846 83.6525L319.52 83.3995L320.212 83.1297L320.937 82.843L321.679 82.5226L322.438 82.1853L323.23 81.8312L324.006 81.477L324.765 81.1229L325.49 80.7856L326.182 80.4483L326.839 80.111L327.48 79.7906L328.087 79.4702L328.661 79.1666L329.217 78.863L329.74 78.5595L330.229 78.2728L330.701 77.9861L331.14 77.6994L331.561 77.4296L331.949 77.1598L332.337 76.873L333.012 76.3165L333.619 75.6926L334.142 75.0348L334.58 74.3434L334.917 73.6351L335.153 72.8931L335.305 72.1342L335.356 71.3416L335.322 70.8862L335.187 70.414L334.934 69.9418L334.529 69.4865L333.956 69.1155L333.298 68.8625L332.624 68.7276L331.983 68.6938L331.477 68.7107L331.005 68.7613L330.549 68.8456L330.094 68.9637L329.656 69.0986L329.217 69.2672L328.762 69.4528L328.374 69.6214L327.447 70.0093L326.485 70.3803L325.507 70.7344L324.495 71.0886L323.467 71.4259L322.404 71.7463L321.308 72.0499L320.195 72.3366L319.048 72.6064L317.884 72.8593L316.687 73.0954L315.473 73.3315L314.225 73.5508L313.162 73.77ZM357.414 81.2915L357.583 81.7131L357.785 82.0841L358.022 82.4214L358.241 82.6912L358.477 82.9442L358.73 83.1634L358.983 83.3658L359.236 83.5345L359.489 83.6694L359.725 83.7874L361.816 84.6306L360.231 86.7218L359.64 87.4807L359.05 88.189L358.477 88.8636L357.903 89.4876L357.347 90.0778L356.807 90.6175L356.234 91.1403L355.576 91.6631L354.885 92.1521L354.16 92.6075L353.401 93.0122L352.591 93.3664L351.748 93.6699L350.854 93.906L349.927 94.0578L348.949 94.1084L347.937 94.0072L346.942 93.7542L346.031 93.3326L345.238 92.7761L344.581 92.1015L344.041 91.3258L343.619 90.4488L343.282 89.4876L343.012 88.5263L342.793 87.565L342.641 86.5869L342.523 85.6088L342.456 84.6138L342.422 83.6188V82.6238L342.456 81.6457L342.523 80.6675L342.608 79.6894L342.709 78.7281L342.827 77.7837L342.962 76.8393L343.097 75.9118L343.232 75.0348L343.265 74.7987V74.6132V74.5289L342.793 74.3434L341.663 73.8375L340.685 73.3315L339.825 72.8256L339.1 72.3028L338.493 71.7294L338.037 71.0549L337.869 70.3128L337.936 69.7732L338.105 69.3178L338.375 68.8962L338.712 68.5083L339.1 68.1711L339.538 67.8506L340.01 67.5639L340.533 67.2941L341.022 67.058L341.478 66.8388L341.95 66.6195L342.422 66.4003L342.911 66.1811L343.4 65.9618L343.586 65.8775L343.738 65.1186L344.041 63.6683L344.345 62.218L344.648 60.7676L344.952 59.3173L345.255 57.867L345.559 56.4166L345.862 54.9663L346.166 53.516L346.773 50.6153L347.077 49.165L347.38 47.7146L347.987 44.814L348.291 43.3636L348.594 41.9133L349.202 39.0126L349.505 37.5623L349.809 36.112L350.416 33.2113L350.719 31.761L351.023 30.3106L351.63 27.41L351.934 25.9597L352.237 24.5093L352.541 23.059L352.844 21.6087L353.046 20.6305L352.996 20.5631L352.642 20.0909L352.271 19.6187L351.866 19.1465L351.444 18.6743L351.006 18.2021L350.551 17.7299L350.095 17.2577L349.623 16.7855L349.151 16.2964L348.679 15.8073L348.206 15.3014L347.734 14.7955L347.279 14.2727L346.84 13.733L346.166 12.8392L346.217 11.6587L346.318 10.8661L346.503 10.1072L346.756 9.38201L347.077 8.69058L347.481 8.04973L347.954 7.44262L348.493 6.86923L349.083 6.32957L349.741 5.82364L350.449 5.35144L351.191 4.91297L351.984 4.50822L352.81 4.12034L353.67 3.76619L354.294 3.53009L354.918 3.09162L355.728 2.55196L356.487 2.07976L357.212 1.67502L357.92 1.33773L358.629 1.0679L359.387 0.865528L360.146 0.781206L361.074 0.798071L361.9 0.865528L362.727 0.966715L363.57 1.10163L364.413 1.27027L365.273 1.45578L366.133 1.67502L366.993 1.91112L367.87 2.16408L368.747 2.45078L369.624 2.75433L370.501 3.07476L371.378 3.41204L372.238 3.74933L373.098 4.10348L373.958 4.47449L374.801 4.84551L375.645 5.23339L376.471 5.62127L377.28 6.00915L378.073 6.39703L378.849 6.78491L379.608 7.17279L380.35 7.56067L381.058 7.94855L381.75 8.31956L382.407 8.69058L383.048 9.04473L383.655 9.39888L384.229 9.73617L384.768 10.0566L385.274 10.3601L386.353 11.0347L387.433 11.743L388.512 12.4682L389.575 13.2102L390.62 13.9691L391.649 14.7449L392.661 15.5544L393.656 16.3807L394.634 17.2239L395.595 18.084L396.523 18.961L397.433 19.8548L398.31 20.7654L399.154 21.693L399.98 22.6374L400.773 23.5986L401.531 24.5768L402.257 25.5549L402.931 26.5499L403.572 27.5618L404.179 28.5905L404.736 29.6192L405.259 30.6648L405.731 31.7272L406.152 32.7897L406.523 33.869L406.844 34.9483L407.114 36.0445L407.316 37.1407L407.468 38.2537L407.569 39.3668L407.603 40.4798L407.586 41.2219L407.552 41.9639L407.485 42.6891L407.383 43.4142L407.248 44.1225L407.097 44.8308L406.911 45.5391L406.692 46.2306L406.456 46.922L406.186 47.5966L405.883 48.2712L405.562 48.9457L405.208 49.6034L404.82 50.2611L404.398 50.902L403.96 51.5428L403.488 52.1837L402.999 52.8077L402.476 53.4316L401.919 54.0387L401.346 54.6459L400.739 55.2361L400.098 55.8264L399.44 56.3998L398.749 56.9731L398.041 57.5297L397.298 58.0862L396.523 58.6258L395.73 59.1655L394.904 59.6883L394.061 60.2111L393.184 60.717L392.357 61.1892L391.514 61.6446L390.637 62.0999L389.743 62.5384L388.833 62.9768L387.905 63.3985L386.961 63.8201L385.999 64.2248L385.021 64.6296L384.009 65.0174L382.981 65.4053L381.935 65.7763L380.873 66.1473L379.793 66.5015L378.697 66.8556L377.584 67.1929L376.454 67.5302L375.291 67.8506L374.11 68.1711L372.913 68.4746L371.698 68.7782L370.467 69.0817L369.219 69.3684L367.955 69.6551L366.673 69.9249L365.374 70.1948L364.042 70.4477L362.693 70.7007L361.327 70.9368L359.944 71.1729L358.544 71.3921L358.443 71.409L358.376 71.6788L358.258 72.151L358.139 72.657L358.005 73.2135L357.87 73.8037L357.735 74.4109L357.617 74.8999L357.516 75.4227L357.414 75.9624L357.33 76.5189L357.246 77.0923L357.178 77.6657L357.145 78.2391L357.128 78.8124L357.145 79.369L357.178 79.9086L357.246 80.4314L357.347 80.9205L357.414 81.2915ZM363.975 47.293L363.722 48.0351L363.469 48.7771L363.233 49.5022L363.013 50.2105L362.794 50.9189L362.592 51.6103L362.406 52.2849L362.238 52.9257L362.086 53.5497L361.951 54.1568L361.833 54.7302L361.732 55.2867L361.647 55.8095L361.529 56.5684L361.411 57.3104L361.293 58.0187L361.175 58.6933L361.057 59.3342L360.939 59.9413L360.821 60.4978L360.703 61.0206L360.618 61.4085L361.445 61.2735L362.44 61.1049L363.452 60.9025L364.497 60.6833L365.56 60.4472L366.656 60.1942L367.752 59.9244L368.865 59.6208L369.995 59.3004L371.125 58.9631L372.255 58.609L373.385 58.238L374.498 57.8501L375.594 57.4453L376.673 57.0237L377.736 56.5684L378.781 56.0962L379.793 55.6071L380.772 55.1012L381.716 54.5784L382.627 54.0556L383.504 53.516L384.33 52.9594L385.106 52.386L385.831 51.7958L386.505 51.2055L387.113 50.5984L387.669 49.9744L388.158 49.3505L388.58 48.7096L388.934 48.0688L389.17 47.5291L389.221 46.9895L389.271 46.298L389.305 45.6403L389.322 44.9995V44.3755L389.305 43.7684L389.271 43.1781L389.221 42.6047L389.153 42.0482L389.069 41.5086L388.968 40.9858L388.85 40.463L388.715 39.957L388.563 39.468L388.394 38.9789L388.225 38.5067L388.04 38.0345L387.838 37.5792L387.618 37.1238L387.399 36.6685L387.163 36.23L386.91 35.7915L386.657 35.3531L386.387 34.9146L386.117 34.4761L385.831 34.0377L385.527 33.5992L385.224 33.1607L384.903 32.7054L384.583 32.25L384.262 31.7947L383.942 31.3394L383.267 30.4287L382.559 29.5349L381.817 28.6579L381.041 27.7979L380.232 26.9546L379.372 26.1283L378.478 25.3019L377.55 24.4925L376.589 23.6998L375.577 22.9241L374.532 22.1652L373.436 21.4231L372.306 20.698L371.125 19.9897L369.911 19.2982L368.646 18.6237L368.106 18.3538L367.6 18.1009L367.111 17.8648L366.656 17.6455L366.605 17.6287L366.892 17.9154L367.634 18.6574L369.017 20.0234L369.675 20.6811L370.231 21.2376L370.687 21.693L371.041 22.064L371.311 22.3675L371.766 23.0421L372.086 23.7336L372.272 24.425L372.356 25.0996L372.339 25.7404L372.238 26.3644L372.086 26.9378L371.85 27.5786L371.648 27.8653L371.547 28.034L371.429 28.2363L371.294 28.4724L371.159 28.7423L371.007 29.0458L370.838 29.4L370.67 29.7878L370.484 30.1926L370.299 30.6311L370.096 31.1033L369.894 31.6092L369.692 32.1489L369.472 32.7222L369.253 33.3294L369.017 33.9702L368.798 34.5436L368.579 35.117L368.342 35.7241L368.106 36.3481L367.853 36.9889L367.6 37.6635L367.331 38.3549L367.061 39.0464L366.791 39.7547L366.521 40.4798L366.234 41.2219L365.948 41.9639L365.661 42.7228L365.374 43.4817L365.088 44.2406L364.818 44.9995L364.548 45.7584L364.278 46.5173L363.975 47.293ZM562.35 69.79L561.759 70.1442L561.186 70.4646L560.646 70.7682L560.124 71.0549L559.618 71.3247L559.146 71.5608L558.235 71.9993L557.392 72.3703L556.599 72.6738L555.874 72.9099L555.199 73.0954L554.592 73.2135L554.052 73.281L553.597 73.2978L552.973 73.2641L552.434 73.146L551.894 72.9605L551.32 72.6738L550.713 72.2691L550.073 71.7463L549.415 71.1055L548.723 70.3297L548.352 69.9081L547.964 69.4696L547.577 69.0311L547.189 68.5758L546.801 68.1205L546.413 67.6651L546.008 67.1929L545.603 66.7039L545.199 66.2148L544.811 65.7089L544.423 65.2029L544.035 64.6801L543.647 64.1573L543.259 63.6177L542.888 63.0612L542.517 62.4878L541.539 60.9531L540.595 59.5028L539.701 58.1368L538.841 56.8551L538.031 55.6746L537.272 54.5784L536.581 53.5834L535.94 52.6727L535.367 51.8633L534.844 51.1381L534.389 50.4972L534.018 49.9576L533.714 49.5191L533.697 49.4854L533.899 49.283L534.288 48.8951L534.659 48.541L535.029 48.2037L535.384 47.8833L535.738 47.5797L536.092 47.2762L536.446 46.9726L536.8 46.669L537.171 46.3655L537.559 46.0451L537.964 45.7078L538.402 45.3536L538.875 44.9826L539.549 44.443L539.735 44.19L539.819 44.1057L539.988 43.937L540.24 43.7178L540.544 43.448L540.915 43.1275L541.337 42.7734L541.809 42.3855L542.332 41.947L542.905 41.4748L543.529 40.9689L544.187 40.4292L544.895 39.8559L545.637 39.2487L546.413 38.6079L547.222 37.9333L548.133 37.1744L549.027 36.4155L549.921 35.6566L550.798 34.9146L551.658 34.1726L552.518 33.4305L553.378 32.6885L554.238 31.9465L555.081 31.2045L555.924 30.4624L556.768 29.7035L557.611 28.9446L558.454 28.1857L559.297 27.4268L560.157 26.6511L561.017 25.8753L561.692 25.2513L562.417 24.5768L563.176 23.8685L563.969 23.1096L564.778 22.317L565.604 21.5075L566.431 20.6642L567.24 19.8042L568.033 18.9441L568.809 18.0671L569.551 17.1902L570.242 16.3133L570.883 15.4532L571.473 14.5931L571.979 13.7499L572.401 12.9235L572.569 12.5356L572.772 12.0466L572.991 11.4563L573.227 10.7818L573.463 10.0397L573.683 9.2471L573.868 8.42075L574.02 7.57753L574.121 6.73431L574.138 5.8911L574.07 5.06475L573.868 4.25526L573.446 3.44577L572.704 2.68688L571.541 2.13035L570.259 1.96171L569.281 1.99544L568.421 2.07976L567.544 2.19781L566.65 2.34959L565.739 2.5351L564.829 2.73747L563.918 2.97357L563.007 3.22654L562.114 3.49636L561.237 3.76619L560.393 4.05289L559.584 4.33958L558.808 4.62627L558.083 4.91297L557.408 5.1828L556.818 5.43576L556.262 5.67186L555.688 5.92483L555.064 6.19466L554.423 6.48135L553.783 6.78491L553.142 7.12219L552.518 7.51007L551.928 7.94855L551.388 8.45448L550.95 9.04473L550.68 9.73617L550.629 10.4782L550.831 11.2371L551.253 11.9623L551.86 12.6368L552.602 13.2439L552.855 13.4295L552.922 13.48L552.906 13.5138L552.754 13.8679L552.568 14.2558L552.349 14.6774L552.096 15.1328L551.809 15.6218L551.472 16.1277L551.101 16.6674L550.696 17.2408L550.241 17.8479L549.735 18.4719L549.196 19.1296L548.605 19.8042L547.964 20.5125L547.273 21.2376L546.531 21.9965L545.823 22.7386L545.131 23.4469L544.457 24.1383L543.799 24.8129L543.175 25.4537L542.568 26.0777L541.978 26.6848L541.387 27.2751L540.814 27.8485L540.257 28.405L539.718 28.9446L539.178 29.4674L538.655 29.9902L538.132 30.4962L537.627 30.9852L536.918 31.6598L536.227 32.3006L535.552 32.9246L534.895 33.5317L534.254 34.122L533.63 34.6785L533.023 35.2182L532.432 35.741L531.859 36.2469L531.302 36.736L530.763 37.1913L530.24 37.6298L529.734 38.0514L529.262 38.4561L528.807 38.844L528.385 39.215L527.609 39.8896L526.85 40.5304L526.091 41.1544L525.332 41.7615L524.591 42.3349L523.848 42.8914L523.123 43.4311L522.398 43.937L521.69 44.4261L520.982 44.8983L520.712 45.0669L520.745 44.8814L520.88 44.0719L521.015 43.2962L521.133 42.5373L521.251 41.7952L521.386 41.0532L521.538 40.3112L521.707 39.5523L521.892 38.7597L522.111 37.9333L522.364 37.0564L522.668 36.112L523.022 35.0832L523.191 34.5773L523.359 34.0714L523.528 33.5655L523.697 33.0595L523.865 32.5536L524.034 32.0477L524.186 31.5417L524.338 31.0358L524.489 30.5299L524.641 30.024L524.793 29.5349L524.945 29.029L525.096 28.5399L525.248 28.0508L525.4 27.5618L525.552 27.0727L525.703 26.5836L525.855 26.0946L526.007 25.6055L526.159 25.1164L526.311 24.6274L526.462 24.1383L526.614 23.6492L526.783 23.1602L526.951 22.6711L527.12 22.182L527.289 21.693L527.457 21.2039L527.626 20.7148L527.811 20.2258L527.997 19.7367L528.183 19.2308L528.402 18.6405L528.604 18.0503L528.773 17.4769L528.908 16.9204L529.009 16.3807L529.093 15.8411L529.144 15.3183L529.161 14.8123L529.144 14.2895L529.093 13.7836L529.009 13.2777L528.891 12.7886L528.739 12.3164L528.554 11.8611L528.318 11.4226L528.031 10.9673L527.238 10.0735L526.243 9.33142L525.079 8.79176L523.832 8.4882L522.567 8.40388L521.336 8.50507L520.172 8.74117L519.059 9.07846L517.997 9.50007L517.002 9.97226L516.057 10.4951L515.18 11.0516L514.354 11.625L513.612 12.1984L512.954 12.7717L512.381 13.3283L511.925 13.8342L511.521 14.3401L511.166 14.8461L510.846 15.352L510.559 15.8579L510.306 16.3807L510.087 16.9035L509.902 17.4263L509.733 17.9491L509.581 18.4719L509.43 18.9947L509.294 19.5343L509.16 20.074L509.025 20.6137L508.89 21.1702L508.755 21.7436L508.738 21.8279L508.721 21.9459L508.704 22.0809L508.671 22.2495L508.637 22.4519L508.603 22.688L508.553 22.9747L508.502 23.2951L508.434 23.6492L508.367 24.0371L508.3 24.4587L508.232 24.9141L508.148 25.42L508.063 25.9597L507.962 26.533L507.861 27.1402L507.76 27.781L507.642 28.4724L507.524 29.1976L507.389 29.9734L507.119 31.5755L506.967 32.4524L506.815 33.3631L506.664 34.3075L506.495 35.2856L506.326 36.2975L506.141 37.3431L505.955 38.4392L505.77 39.5692L505.568 40.7328L505.365 41.9302L505.23 42.7228L505.095 43.5154L504.96 44.308L504.825 45.1007L504.691 45.8933L504.556 46.6859L504.438 47.4785L504.32 48.2712L504.201 49.0638L504.083 49.8564L503.965 50.649L503.847 51.4417L503.729 52.2343L503.611 53.0269L503.493 53.8195L503.358 54.6796L503.122 56.1805L503.004 56.9731L502.886 57.7658L502.768 58.5584L502.65 59.351L502.532 60.1436L502.414 60.9363L502.296 61.7289L502.161 62.6564L501.942 64.0899L501.689 65.6751L501.554 66.4678L501.436 67.2604L501.267 68.2554L501.115 69.2166L500.98 70.1442L500.845 71.038L500.727 71.8981L500.609 72.7244L500.508 73.5171L500.424 74.2759L500.34 75.0011L500.272 75.7094L500.205 76.384L500.154 77.0248L500.12 77.632L500.087 78.2053L500.07 78.745V79.2678L500.087 79.8918L500.12 80.4989L500.171 81.0891L500.238 81.6625L500.323 82.2022L500.441 82.725L500.576 83.2309L500.947 84.3439L502.549 84.9005L503.375 85.1366L504.201 85.3221L505.045 85.457L505.888 85.5413L506.731 85.575L507.557 85.5582L508.384 85.4907L509.193 85.3727L509.986 85.1872L510.745 84.9511L511.47 84.6475L512.145 84.2934L512.769 83.8717L513.325 83.3827L514.118 82.472L513.915 81.359L513.865 80.8193L513.848 80.2628L513.865 79.6725L513.915 79.0654L513.983 78.4414L514.05 77.8006L514.118 77.1429L514.168 76.6875L514.236 76.1985L514.303 75.6757L514.388 75.1192L514.489 74.5289L514.59 73.9049L514.708 73.2472L514.826 72.5727L514.961 71.8643L515.096 71.1392L515.248 70.3971L515.399 69.6383L515.551 68.8794L515.703 68.1036L515.872 67.3278L516.04 66.5521L516.209 65.7763L516.378 65.0006L516.546 64.2417L516.715 63.4828L516.883 62.7407L517.052 62.0156L517.221 61.3073L517.389 60.6327L517.507 60.1268L517.541 60.1774L518.3 61.1218L519.127 62.1168L520.003 63.1792L520.931 64.2923L521.909 65.439L522.938 66.6195L524 67.8338L525.096 69.0649L526.226 70.296L527.39 71.5271L528.57 72.7582L529.768 73.9724L530.999 75.1698L532.23 76.3503L533.478 77.497L534.726 78.5932L535.974 79.6388L537.222 80.6338L538.47 81.5613L539.701 82.4214L540.932 83.1972L542.163 83.8886L543.394 84.4957L544.625 85.0017L545.873 85.3895L547.138 85.6425L548.369 85.7268L549.128 85.71L549.82 85.6594L550.511 85.5919L551.219 85.4907L551.928 85.3727L552.636 85.2209L553.344 85.0523L554.052 84.8499L554.761 84.6306L555.486 84.3777L556.211 84.1078L556.936 83.8212L557.661 83.5007L558.403 83.1634L559.146 82.7924L559.972 82.3708L560.798 81.8312L561.557 81.3252L562.299 80.8024L563.041 80.2796L563.766 79.7568L564.475 79.2172L565.166 78.6775L565.841 78.1379L566.498 77.5982L567.139 77.0754L567.763 76.5526L568.353 76.0298L568.91 75.5239L569.45 75.0348L569.955 74.5458L570.411 74.0904L570.799 73.7026L571.17 73.3315L571.541 72.9437L571.895 72.5389L572.232 72.1005L572.519 71.5945L572.721 71.038L572.789 70.4477L572.738 69.8238L572.586 69.2504L572.3 68.677L571.828 68.1542L571.187 67.7157L570.428 67.4122L569.618 67.2435L568.792 67.1929L568.1 67.2435L567.443 67.3616L566.802 67.5471L566.178 67.7832L565.554 68.053L564.913 68.3734L564.255 68.7276L563.598 69.1155L562.957 69.5033L562.35 69.79ZM592.958 26.0102L592.469 26.1283L592.048 26.1957L591.694 26.2126L591.323 26.1957L591.188 26.162L591.171 26.1452L591.137 26.1114L591.053 25.9597L590.952 25.6392L590.901 25.1502L590.935 24.4925L590.969 24.2226L591.019 23.9359L591.086 23.6324L591.171 23.3288L591.272 23.0253L591.407 22.7048L591.559 22.3844L591.727 22.064L591.913 21.7267L592.132 21.3894L592.368 21.0521L592.638 20.698L592.925 20.3438L593.245 19.9897L593.498 19.7198L593.633 19.703L594.223 19.5512L594.78 19.3488L595.303 19.0959L595.792 18.8092L596.247 18.4888L596.652 18.1515L597.006 17.831L597.664 17.2408L598.001 16.9372L598.321 16.6505L598.979 16.0603L599.097 15.9591L599.198 15.9085L599.519 15.7736L599.822 15.6724L600.109 15.5881L600.379 15.5206L600.632 15.4869L600.868 15.47H601.07H601.256L601.441 15.4869L601.627 15.5206L601.795 15.5712L601.947 15.6387L602.099 15.723L602.234 15.8242L602.335 15.9254L602.588 16.3133L602.723 16.7011L602.757 17.1565L602.689 17.6793L602.504 18.2695L602.2 18.8935L601.795 19.5512L601.306 20.2258L600.733 20.9004L600.109 21.5581L599.451 22.182L598.777 22.7723L598.102 23.3119L597.444 23.7841L596.837 24.1889L596.281 24.5262L595.522 24.9309L594.797 25.3019L594.139 25.6055L593.532 25.8416L592.958 26.0102ZM609.553 24.425L610.025 24.0371L610.582 23.5818L611.138 23.1264L611.678 22.6711L612.218 22.2158L612.757 21.7773L613.28 21.3388L613.803 20.9172L614.326 20.4956L614.848 20.0909L615.371 19.703L615.658 19.5006L615.944 19.3151L616.231 19.1465L616.518 18.9778L616.821 18.826L617.176 18.6911L617.631 18.5731L618.356 18.5056L619.233 18.6911L619.874 19.0115L620.363 19.3826L620.768 19.8042L621.139 20.2932L621.459 20.8666L621.729 21.5243L621.965 22.4013L621.881 23.1264L621.678 23.7336L621.375 24.3069L620.987 24.8297L620.532 25.3188L620.009 25.7741L619.452 26.2126L618.862 26.6342L618.339 26.9715L617.833 27.2919L617.327 27.5955L616.821 27.8822L616.315 28.1689L615.793 28.4387L615.27 28.6917L614.747 28.9446L614.224 29.1976L613.702 29.4337L613.179 29.6698L612.639 29.9059L612.099 30.142L611.56 30.3781L611.003 30.6142L610.447 30.8503L610.143 30.9852L609.705 31.1707L609.131 31.3731L608.423 31.5755L607.445 31.6935L606.096 31.4574L605.084 30.5805L604.882 29.6698L604.898 29.2988L604.949 28.9952L605.033 28.6579L605.118 28.4556L605.016 28.523L604.038 29.2145L603.027 29.889L601.964 30.5467L600.851 31.1876L599.67 31.8284L599.08 32.1151L598.473 32.4018L597.849 32.6716L597.208 32.9246L596.55 33.1607L595.876 33.38L595.201 33.5823L594.51 33.7678L593.818 33.9365L593.127 34.0883L592.419 34.2063L591.71 34.3075L591.002 34.3918L590.294 34.4424L589.602 34.4761H588.911L588.27 34.4593L587.596 34.4255L586.904 34.3581L586.196 34.2738L585.471 34.1726L584.745 34.0377L584.02 33.869L583.295 33.6835L582.587 33.4643L581.879 33.2113L581.204 32.9077L580.546 32.5705L579.922 32.1826L579.349 31.7441L578.843 31.255L578.438 30.7154L578.118 30.142L577.848 29.5686L577.629 28.9784L577.46 28.3712L577.325 27.7473L577.241 27.1064L577.19 26.4656L577.173 25.8247L577.207 25.1839L577.224 24.9309L576.415 25.3863L575.419 25.9428L574.593 26.3813L571.777 27.5112L571.136 25.2345L571.069 24.6274L571.018 23.9191L570.984 23.1264L570.951 22.317L570.934 21.5581L570.917 20.9341L570.9 19.8885L572.35 18.826L573.21 18.2021L574.054 17.5949L574.897 16.9878L575.723 16.3976L576.549 15.8073L577.359 15.2339L578.152 14.6605L579.113 13.9691L580.074 13.2945L581.035 12.62L581.997 11.9454L582.958 11.2708L583.919 10.5962L584.88 9.93854L585.842 9.28083L586.803 8.62312L587.747 7.94855L588.692 7.27397L589.636 6.5994L590.581 5.92483L591.525 5.23339L592.453 4.54195L593.886 3.46263L594.409 3.42891L594.442 3.41204L594.544 3.37831L595.083 3.17594H596.416H596.686H596.989H597.326H597.714H598.136H598.591L599.063 3.19281L599.654 3.20967L600.159 3.27713L600.733 3.44577L601.239 3.69874L601.627 4.01916L601.897 4.37331L602.065 4.71059L602.15 5.04788L602.183 5.40203L602.15 5.655L602.689 5.53695L603.566 5.38517L604.46 5.28398L605.371 5.25025L606.686 5.30085L607.917 5.43576L609.047 5.67186L610.093 5.99228L611.037 6.41389L611.88 6.90296L612.605 7.45948L613.212 8.08346L613.719 8.74117L614.123 9.43261L614.444 10.1409L614.68 10.8661L614.848 11.6081L614.966 12.3501L615.034 13.109L615.051 13.8679L615.017 14.6268L614.933 15.3857L614.781 16.1277L614.579 16.8529L614.342 17.5612L614.056 18.2358L613.735 18.8766L613.381 19.4669L612.724 20.4619L612.066 21.4063L611.391 22.317L610.683 23.1939L609.958 24.0371L609.553 24.425Z" fill="#BCB5B5"/>
<path fill-rule="evenodd" clip-rule="evenodd" d="M451.938 60.8689C454.704 56.9564 457.638 53.1957 460.691 49.4012C461.821 48.0014 462.327 47.6473 463.001 46.8041C461.905 51.8297 459.561 59.1488 458.414 64.0226C457.453 68.1375 456.508 71.9488 455.648 76.0806C455.277 77.8682 454.94 79.133 454.771 80.1786C454.333 83.0455 458.195 83.3153 459.325 80.6002C459.46 80.2798 460.556 78.0874 462.057 73.669C462.209 73.2305 463.406 69.9419 465.261 63.9551C467.504 56.7372 469.814 50.548 471.012 43.5324C471.585 40.1933 471.872 37.866 471.872 36.3651C471.872 34.7124 471.366 33.8691 470.337 33.8691C468.836 33.8691 467.774 34.628 465.885 36.3651C463.153 38.861 460.354 41.8966 457.993 44.5443C453.625 49.4349 449.931 53.9714 446.339 59.3005C441.718 66.1475 439.172 69.6721 438.666 69.8913C438.531 69.4697 438.447 68.8795 438.447 68.1375C438.447 64.7309 439.003 59.8739 439.644 56.4336C440.757 50.548 441.567 44.6792 443.337 38.861C443.59 38.0346 443.995 37.3938 443.995 36.8541C443.995 35.5724 443.051 34.9316 441.145 34.9316C438.969 34.9316 436.693 34.9147 435.698 36.6855C433.725 42.47 433.151 49.8059 432.645 55.7759C432.156 61.611 431.027 66.9907 431.634 72.8595C431.752 73.9219 431.971 74.9338 432.005 75.895C432.089 79.3691 437.958 79.4028 440.116 76.5359C441.246 75.035 442.41 73.4834 443.54 71.9825C444.687 69.9925 450.049 63.5504 451.938 60.8689Z" fill="#BCB5B5"/>
</svg>
