<svg width="204" height="120" viewBox="0 0 204 120" fill="none" xmlns="http://www.w3.org/2000/svg">
<path d="M132.408 22.8354H108.073V0.304688C120.131 1.99112 129.828 11.081 132.408 22.8354Z" fill="#BCB5B5"/>
<path d="M198.533 88.5054C199.005 88.0501 199.241 87.3755 199.241 86.4985C199.241 85.6216 199.005 84.947 198.533 84.4748C198.043 84.0195 197.352 83.7834 196.475 83.7834H191.905V89.2137H196.475C197.352 89.2305 198.043 88.9945 198.533 88.5054ZM189.51 80.6972H196.796C198.651 80.6972 200.101 81.2031 201.147 82.2318C202.209 83.2605 202.732 84.6772 202.732 86.4985C202.732 87.8477 202.428 88.9945 201.821 89.9052C201.214 90.8158 200.354 91.4566 199.241 91.8276C199.578 92.1143 199.865 92.4854 200.084 92.9576L202.985 98.5228C203.305 99.1299 203.153 99.4166 202.529 99.4166H200.995C200.421 99.4166 200 99.366 199.78 99.2817C199.544 99.1805 199.359 98.9613 199.207 98.6409L196.998 94.1549C196.644 93.4129 196.256 92.9238 195.834 92.6708C195.413 92.4179 194.755 92.2999 193.861 92.2999H191.905V98.5228C191.905 98.8601 191.837 99.0962 191.703 99.2311C191.568 99.366 191.331 99.4334 191.011 99.4334H189.51C189.173 99.4334 188.937 99.366 188.802 99.2311C188.667 99.0962 188.6 98.8601 188.6 98.5228V81.5742C188.6 81.2369 188.667 81.0007 188.802 80.8827C188.937 80.7646 189.173 80.6972 189.51 80.6972ZM169.324 80.6972H181.736C182.073 80.6972 182.309 80.7647 182.427 80.8996C182.562 81.0345 182.63 81.2706 182.63 81.5911V82.8895C182.63 83.2268 182.562 83.463 182.427 83.581C182.292 83.716 182.056 83.7834 181.736 83.7834H177.199V98.5397C177.199 98.877 177.132 99.1131 176.997 99.248C176.862 99.3829 176.626 99.4503 176.305 99.4503H174.771C174.433 99.4503 174.197 99.3829 174.079 99.248C173.944 99.1131 173.877 98.877 173.877 98.5397V83.7834H169.34C169.003 83.7834 168.767 83.716 168.649 83.581C168.514 83.4461 168.447 83.21 168.447 82.8895V81.5911C168.447 81.2538 168.514 81.0176 168.649 80.8996C168.767 80.7647 169.003 80.6972 169.324 80.6972ZM159.981 92.9745V87.1732C159.981 85.9589 159.61 85.0313 158.884 84.3736C158.159 83.7159 157.114 83.3955 155.765 83.3955C154.415 83.3955 153.37 83.7159 152.628 84.3567C151.903 84.9976 151.532 85.9421 151.532 87.1732V92.9745C151.532 94.2056 151.903 95.15 152.628 95.7908C153.353 96.4316 154.399 96.7521 155.765 96.7521C157.114 96.7521 158.159 96.4316 158.884 95.7739C159.61 95.1162 159.981 94.1887 159.981 92.9745ZM148.209 92.9407V87.1899C148.209 85.0313 148.867 83.328 150.183 82.1306C151.498 80.9164 153.353 80.3094 155.748 80.3094C158.126 80.3094 159.964 80.9164 161.296 82.1306C162.612 83.3449 163.269 85.0313 163.269 87.1899V92.9407C163.269 95.0994 162.612 96.8027 161.296 98.0169C159.981 99.2311 158.126 99.8382 155.748 99.8382C153.353 99.8382 151.498 99.2311 150.183 98.0169C148.867 96.8027 148.209 95.1162 148.209 92.9407ZM139.12 80.6972H140.418C140.755 80.6972 140.992 80.7647 141.11 80.8996C141.245 81.0345 141.312 81.2706 141.312 81.5911V98.5397C141.312 98.877 141.245 99.1131 141.11 99.248C140.975 99.3829 140.739 99.4503 140.418 99.4503H139.069C138.732 99.4503 138.496 99.3829 138.378 99.248C138.243 99.1131 138.175 98.877 138.175 98.5397V90.4954C138.175 88.927 138.378 87.1731 138.816 85.2506H138.631C138.158 86.6841 137.433 88.303 136.472 90.0738L133.892 94.644C133.622 95.0656 133.285 95.2849 132.863 95.2849H132.02C131.733 95.2849 131.531 95.2512 131.396 95.1668C131.261 95.0825 131.126 94.9139 130.991 94.6609L128.36 90.0738C127.584 88.7752 126.91 87.1731 126.32 85.2675H126.134C126.505 87.0551 126.691 88.8259 126.691 90.546V98.5734C126.691 98.9106 126.623 99.1468 126.488 99.2817C126.353 99.4166 126.117 99.4841 125.797 99.4841H124.532C124.195 99.4841 123.959 99.4166 123.824 99.2817C123.689 99.1468 123.621 98.9106 123.621 98.5734V81.6247C123.621 81.2874 123.689 81.0514 123.824 80.9333C123.959 80.7984 124.195 80.731 124.532 80.731H125.696C126.067 80.731 126.336 80.7815 126.505 80.8658C126.674 80.9501 126.825 81.1357 126.96 81.4224L132.458 91.2374L137.956 81.4392C138.108 81.1357 138.26 80.9501 138.411 80.8658C138.513 80.7478 138.765 80.6972 139.12 80.6972ZM102.541 86.0769C102.541 84.323 103.182 82.9064 104.447 81.8609C105.728 80.8153 107.499 80.2925 109.759 80.2925C111.563 80.2925 113.014 80.6129 114.093 81.2369C115.172 81.8609 116.049 82.8896 116.69 84.2724C116.96 84.8121 116.791 85.2169 116.184 85.4867L114.734 86.1275C114.43 86.2455 114.211 86.2793 114.059 86.2119C113.907 86.1444 113.756 85.9758 113.604 85.6722C113.216 84.9133 112.727 84.3568 112.12 84.0027C111.513 83.6485 110.737 83.463 109.742 83.463C107.195 83.463 105.914 84.2725 105.914 85.8914C105.846 86.5323 106.082 87.0213 106.639 87.3923C107.195 87.7633 107.887 88.0163 108.713 88.1343C108.983 88.1849 109.573 88.2693 110.501 88.4042C111.428 88.5223 112.069 88.6234 112.406 88.6909C113.857 88.9776 114.953 89.4666 115.729 90.175C116.69 91.0519 117.179 92.2999 117.179 93.9189C117.179 95.7402 116.521 97.1737 115.189 98.2361C113.857 99.2986 112.019 99.8382 109.658 99.8382C107.701 99.8382 106.15 99.4841 105.003 98.7589C103.856 98.0338 102.979 96.9375 102.406 95.4366C102.288 95.0993 102.271 94.8463 102.355 94.6777C102.44 94.5091 102.642 94.3742 102.963 94.273L104.413 93.7502C104.716 93.649 104.936 93.6321 105.104 93.7164C105.256 93.8007 105.408 93.9863 105.559 94.3067C106.251 95.9426 107.617 96.769 109.674 96.769C112.474 96.769 113.874 95.8583 113.874 94.0201C113.874 93.4804 113.671 93.0082 113.283 92.6541C112.879 92.283 112.39 92.0301 111.816 91.8951C111.293 91.7771 110.585 91.659 109.708 91.5747C108.561 91.4567 107.617 91.3049 106.875 91.1531C106.015 90.9845 105.172 90.6134 104.345 90.0738C103.232 89.298 102.625 87.9826 102.541 86.0769ZM92.9281 92.9745V87.1732C92.9281 85.9589 92.5573 85.0313 91.8321 84.3736C91.1069 83.7159 90.0612 83.3955 88.712 83.3955C87.3629 83.3955 86.3173 83.7159 85.5753 84.3567C84.8501 84.9976 84.4791 85.9421 84.4791 87.1732V92.9745C84.4791 94.2056 84.8501 95.15 85.5753 95.7908C86.3004 96.4316 87.346 96.7521 88.712 96.7521C90.0612 96.7521 91.1069 96.4316 91.8321 95.7739C92.5573 95.1162 92.9281 94.1887 92.9281 92.9745ZM81.1568 92.9407V87.1899C81.1568 85.0313 81.8146 83.328 83.13 82.1306C84.4454 80.9164 86.3004 80.3094 88.6951 80.3094C91.073 80.3094 92.9113 80.9164 94.2436 82.1306C95.559 83.3449 96.2168 85.0313 96.2168 87.1899V92.9407C96.2168 95.0994 95.559 96.8027 94.2436 98.0169C92.9282 99.2311 91.073 99.8382 88.6951 99.8382C86.3004 99.8382 84.4454 99.2311 83.13 98.0169C81.8146 96.8027 81.1568 95.1162 81.1568 92.9407ZM64.2083 80.6972H74.681C75.0183 80.6972 75.2545 80.7647 75.3894 80.8996C75.5243 81.0345 75.6086 81.2706 75.6086 81.5911V82.8895C75.6086 83.2268 75.5411 83.463 75.3894 83.581C75.2545 83.716 75.0183 83.7834 74.681 83.7834H66.6029V88.6403H73.3824C73.7197 88.6403 73.9559 88.7078 74.0908 88.8427C74.2257 88.9776 74.2931 89.2137 74.2931 89.5341V90.8327C74.2931 91.17 74.2257 91.406 74.0908 91.5241C73.9559 91.659 73.7197 91.7264 73.3655 91.7264H66.586V98.5397C66.586 98.877 66.5186 99.1131 66.3837 99.248C66.2488 99.3829 66.0128 99.4503 65.6755 99.4503H64.1745C63.8373 99.4503 63.6011 99.3829 63.4662 99.248C63.3313 99.1131 63.2469 98.877 63.2469 98.5397V81.5911C63.2469 81.2538 63.3144 81.0176 63.4662 80.8996C63.6348 80.7647 63.871 80.6972 64.2083 80.6972ZM53.1115 92.9745V87.1732C53.1115 85.9589 52.7404 85.0313 52.0152 84.3736C51.2901 83.7159 50.2445 83.3955 48.8954 83.3955C47.5462 83.3955 46.5007 83.7159 45.7586 84.3567C45.0335 84.9976 44.6624 85.9421 44.6624 87.1732V92.9745C44.6624 94.2056 45.0335 95.15 45.7586 95.7908C46.4838 96.4316 47.5294 96.7521 48.8954 96.7521C50.2445 96.7521 51.2901 96.4316 52.0152 95.7739C52.7404 95.1162 53.1115 94.1887 53.1115 92.9745ZM41.3402 92.9407V87.1899C41.3402 85.0313 41.998 83.328 43.3134 82.1306C44.6288 80.9164 46.4838 80.3094 48.8785 80.3094C51.2564 80.3094 53.0946 80.9164 54.4269 82.1306C55.7423 83.3449 56.4001 85.0313 56.4001 87.1899V92.9407C56.4001 95.0994 55.7423 96.8027 54.4269 98.0169C53.1115 99.2311 51.2564 99.8382 48.8785 99.8382C46.4838 99.8382 44.6288 99.2311 43.3134 98.0169C41.998 96.8027 41.3402 95.1162 41.3402 92.9407ZM30.8675 88.5054C31.3397 88.0501 31.5757 87.3755 31.5757 86.4985C31.5757 85.6216 31.3397 84.947 30.8675 84.4748C30.3784 84.0195 29.6871 83.7834 28.8101 83.7834H24.2397V89.2137H28.8101C29.6871 89.2305 30.3784 88.9945 30.8675 88.5054ZM21.8451 80.6972H29.1304C30.9855 80.6972 32.4358 81.2031 33.4814 82.2318C34.5438 83.2605 35.0667 84.6772 35.0667 86.4985C35.0667 87.8477 34.7631 88.9945 34.156 89.9052C33.5489 90.8158 32.6887 91.4566 31.5757 91.8276C31.913 92.1143 32.1997 92.4854 32.4189 92.9576L35.3197 98.5228C35.6401 99.1299 35.4883 99.4166 34.8643 99.4166H33.3296C32.7562 99.4166 32.3515 99.366 32.1154 99.2817C31.8793 99.1805 31.6939 98.9613 31.5421 98.6409L29.3328 94.1549C28.9786 93.4129 28.5909 92.9238 28.1693 92.6708C27.7476 92.4179 27.0899 92.2999 26.1961 92.2999H24.2397V98.5228C24.2397 98.8601 24.1723 99.0962 24.0374 99.2311C23.9025 99.366 23.6663 99.4334 23.3459 99.4334H21.8451C21.5078 99.4334 21.2717 99.366 21.1368 99.2311C21.0018 99.0962 20.9344 98.8601 20.9344 98.5228V81.5742C20.9344 81.2369 21.0018 81.0007 21.1368 80.8827C21.2717 80.7646 21.5078 80.6972 21.8451 80.6972ZM3.80018 89.8376H8.0669C9.02817 89.8376 9.78701 89.5679 10.3267 89.0451C10.8663 88.5223 11.1361 87.7802 11.1361 86.8358C11.1361 85.8914 10.8663 85.1494 10.3267 84.6097C9.78701 84.0701 9.02817 83.8003 8.0669 83.8003H3.80018V89.8376ZM1.40558 80.6972H8.40411C10.3266 80.6972 11.8446 81.2368 12.9576 82.333C14.0706 83.4292 14.6272 84.9133 14.6272 86.819C14.6272 88.7246 14.0706 90.2087 12.9576 91.2881C11.8446 92.3674 10.3266 92.907 8.40411 92.907H3.81706V98.5228C3.81706 98.8601 3.74961 99.0962 3.6147 99.2311C3.47978 99.366 3.24362 99.4334 2.9232 99.4334H1.42225C1.08497 99.4334 0.848997 99.366 0.714082 99.2311C0.579168 99.0962 0.511719 98.8601 0.511719 98.5228V81.5742C0.511719 81.2369 0.579168 81.0007 0.714082 80.8827C0.832133 80.7646 1.06829 80.6972 1.40558 80.6972Z" fill="#BCB5B5"/>
<path d="M174.973 111.339C174.973 110.884 174.889 110.513 174.737 110.243C174.585 109.973 174.282 109.838 173.827 109.838H172.865V112.806H173.827C174.282 112.806 174.585 112.671 174.737 112.418C174.906 112.165 174.973 111.811 174.973 111.339ZM176.677 111.339C176.677 112.3 176.457 112.992 176.019 113.447C175.58 113.886 174.872 114.122 173.894 114.122H172.882V117.697H171.179V108.573H173.894C174.872 108.573 175.58 108.793 176.019 109.248C176.457 109.686 176.677 110.395 176.677 111.339ZM166.153 109.855V117.697H164.45V109.855H162.646V108.557H167.975V109.855H166.153ZM157.738 117.697V113.7H155.63V117.697H153.927V108.573H155.63V112.418H157.738V108.573H159.441V117.697H157.738ZM145.933 117.697V108.573H150.469V109.872H147.636V112.469H150.082V113.768H147.636V116.415H150.469V117.714H145.933V117.697ZM141.059 119.518V117.68H136.253V108.557H137.956V116.398H140.047V108.557H141.751V116.398H142.661V119.518H141.059ZM126.134 106.499C126.117 106.786 126.067 107.022 125.949 107.207C125.831 107.393 125.696 107.545 125.51 107.663C125.342 107.781 125.122 107.865 124.903 107.899C124.684 107.949 124.431 107.966 124.178 107.966C123.925 107.966 123.689 107.949 123.453 107.899C123.217 107.848 123.014 107.764 122.846 107.663C122.66 107.545 122.525 107.393 122.407 107.207C122.289 107.022 122.239 106.786 122.222 106.499H123.369C123.385 106.718 123.47 106.87 123.622 106.954C123.773 107.039 123.959 107.089 124.178 107.089C124.38 107.089 124.566 107.056 124.718 106.954C124.87 106.87 124.954 106.718 124.971 106.499H126.134ZM121.395 117.697V108.573H123.099V114.155L125.51 108.573H127.028V117.697H125.325V112.115L122.896 117.697H121.395ZM111.951 117.697V108.573H113.655V114.155L116.066 108.573H117.584V117.697H115.881V112.115L113.452 117.697H111.951ZM102.727 108.557H104.43V117.68H102.727V108.557ZM107.094 117.697L104.464 112.941L106.892 108.573H108.68L106.201 112.874L108.966 117.697H107.094ZM99.3706 115.268C99.3537 115.673 99.2694 116.044 99.1176 116.398C98.9658 116.736 98.7466 117.005 98.4767 117.225C98.2406 117.427 97.9708 117.562 97.6673 117.663C97.3806 117.764 97.0264 117.798 96.6048 117.798C96.0989 117.798 95.6773 117.731 95.34 117.579C95.0027 117.427 94.7329 117.242 94.4968 117.022C94.3113 116.837 94.1764 116.634 94.0752 116.415C93.974 116.196 93.8896 115.926 93.8391 115.623C93.7885 115.319 93.7548 114.965 93.738 114.56C93.7211 114.155 93.7211 113.683 93.7211 113.144C93.7211 112.604 93.7211 112.132 93.738 111.727C93.7548 111.322 93.7885 110.968 93.8391 110.665C93.8896 110.361 93.974 110.091 94.0752 109.872C94.1764 109.653 94.3281 109.45 94.4968 109.265C94.716 109.046 95.0027 108.86 95.34 108.708C95.6773 108.556 96.0989 108.489 96.6048 108.489C97.0264 108.489 97.3806 108.54 97.6842 108.641C97.9877 108.742 98.2575 108.894 98.5105 109.079C98.7803 109.299 98.9996 109.568 99.1345 109.889C99.2694 110.226 99.3537 110.58 99.3706 111.002H97.6673C97.6504 110.833 97.6335 110.665 97.5998 110.513C97.566 110.361 97.4986 110.226 97.4143 110.108C97.33 110.007 97.2289 109.922 97.094 109.872C96.9759 109.804 96.8072 109.788 96.6048 109.788C96.4025 109.788 96.2337 109.821 96.1157 109.889C95.9977 109.956 95.8797 110.041 95.8123 110.142C95.6436 110.361 95.5423 110.715 95.4917 111.187C95.458 111.66 95.4244 112.317 95.4244 113.16C95.4244 114.004 95.4411 114.661 95.4917 115.134C95.5255 115.606 95.6436 115.96 95.8123 116.179C95.8966 116.28 95.9977 116.365 96.1157 116.432C96.2506 116.5 96.4025 116.533 96.6048 116.533C96.8072 116.533 96.9759 116.5 97.094 116.449C97.2289 116.398 97.33 116.314 97.4143 116.213C97.4986 116.095 97.566 115.96 97.5998 115.808C97.6335 115.656 97.6504 115.488 97.6673 115.319H99.3706V115.268ZM88.5099 117.697V113.7H86.4018V117.697H84.6985V108.573H86.4018V112.418H88.5099V108.573H90.2132V117.697H88.5099ZM75.2545 117.697V108.573H76.9578V114.155L79.3695 108.573H80.8872V117.697H79.1841V112.115L76.7555 117.697H75.2545ZM70.3807 119.518V117.68H65.5913V108.557H67.2946V116.398H69.3858V108.557H71.0891V116.398H71.9998V119.518H70.3807ZM56.1473 117.697V108.573H57.8506V114.155L60.2621 108.573H61.78V117.697H60.0766V112.115L57.6483 117.697H56.1473ZM50.2786 109.855H48.5077V112.334C48.5077 113.16 48.4403 113.903 48.3054 114.56C48.1705 115.218 47.9681 115.825 47.7152 116.398H50.2786V109.855ZM51.2566 119.417V117.68H46.8888V119.417H45.2866V116.398H45.9781C46.2648 115.791 46.484 115.134 46.6358 114.408C46.7876 113.683 46.8719 112.874 46.8719 111.963V108.557H51.9819V116.398H52.8755V119.417H51.2566ZM38.0013 117.697V108.573H42.5377V109.872H39.7046V112.469H42.1499V113.768H39.7046V116.415H42.5377V117.714H38.0013V117.697ZM32.5204 117.697V111.997L31.0532 115.741H30.1087L28.6584 112.064V117.697H26.9551V108.573H28.4898L30.5809 113.363L32.6552 108.573H34.2068V117.697H32.5204Z" fill="#BCB5B5"/>
<path d="M70.5645 0.0180664H91.5269H100.431H100.904V0.186771V22.7513H81.9479V29.9017H100.904V48.7055H108.054V29.9017H133.047C132.659 45.5349 119.859 58.0989 104.141 58.1832H103.956H91.5269V67.897H70.5645V58.1832V0.0180664Z" fill="#BCB5B5"/>
</svg>
