<svg width="209" height="121" viewBox="0 0 209 121" fill="none" xmlns="http://www.w3.org/2000/svg">
<path fill-rule="evenodd" clip-rule="evenodd" d="M1.96924 79.0492C2.35712 79.6057 3.52079 80.5501 3.68943 80.9212C4.04358 81.6295 3.50395 82.81 3.50395 83.7881C7.34902 82.0848 4.73505 82.5907 8.46207 83.7206L8.12476 80.9212L10.0136 79.0155C9.15347 78.8974 7.77058 78.9649 7.1466 78.3578C6.70813 77.9362 6.6575 76.8906 5.84801 76.2666L4.66759 78.6107L1.96924 79.0492Z" fill="#BCB5B5"/>
<path fill-rule="evenodd" clip-rule="evenodd" d="M196.986 61.3583C197.762 60.9367 197.29 60.7006 198.302 60.4982C199.28 60.2959 198.403 61.1391 199.465 59.6888C200.055 58.8961 200.207 59.2334 200.679 58.6769C201.067 58.2216 201 57.6988 201.539 57.1085C202.787 55.7425 202.585 57.0579 203.698 54.6126C204.221 53.449 204.794 52.6395 205.435 51.5096C206.396 49.8231 207.004 37.411 207.138 34.4935C207.425 28.4729 207.796 22.6884 207.999 16.6173C208.184 10.7316 208.015 4.57614 203.816 1.89471C201.809 0.613025 199.01 0.24201 196.227 0.849125C192.804 1.57429 194.406 3.81725 194.676 7.35876C195.114 13.1601 195.502 18.9951 195.755 25.0157C196.227 37.0062 196.092 49.5702 196.986 61.3583Z" fill="#BCB5B5"/>
<path fill-rule="evenodd" clip-rule="evenodd" d="M67.9064 61.3583C68.6822 60.9367 68.21 60.7006 69.2219 60.4982C70.2 60.2959 69.3232 61.1391 70.3856 59.6888C70.9759 58.8961 71.1276 59.2334 71.5998 58.6769C71.9877 58.2216 71.9203 57.6988 72.4599 57.1085C73.7079 55.7425 73.5053 57.0579 74.6184 54.6126C75.1412 53.449 75.7146 52.6395 76.3555 51.5096C77.3167 49.8231 77.9239 37.411 78.0588 34.4935C78.3455 28.4729 78.7165 22.6884 78.9189 16.6173C79.1044 10.7316 78.9358 4.57614 74.7366 1.89471C72.7297 0.613025 69.9302 0.24201 67.1476 0.849125C63.7242 1.57429 65.3263 3.81725 65.5961 7.35876C66.0346 13.1601 66.4224 18.9951 66.6754 25.0157C67.1476 37.0062 67.0295 49.5702 67.9064 61.3583Z" fill="#BCB5B5"/>
<path fill-rule="evenodd" clip-rule="evenodd" d="M103.052 24.5944C103.086 24.645 103.119 24.7124 103.136 24.7462C103.153 24.7799 103.204 24.8642 103.221 24.8979L103.491 25.5219C103.609 25.8255 103.693 26.0953 103.828 26.4663L105.818 31.9978C106.509 33.7517 108.398 37.9172 108.668 39.3338L97.7398 39.1146L103.052 24.5944ZM93.1863 1.54085C91.7866 18.557 87.2839 31.9641 81.5332 47.1926C80.808 49.1151 79.5094 51.5099 80.3526 53.9383C81.1283 54.2587 80.673 53.5336 81.3813 53.9383C80.7404 59.3855 82.1571 56.8727 82.8822 58.8964C83.0677 59.4024 83.1352 60.2118 83.3038 60.7852L84.0966 61.0045C85.6481 61.4767 84.5518 61.6453 85.6311 62.2187C87.4693 59.1831 89.5269 55.9283 91.2302 52.488C92.1746 50.5992 92.0734 50.8521 96.8966 50.3631C106.56 49.4187 102.361 49.1488 111.771 49.0814L112.125 49.0983C112.732 48.7441 112.226 48.8959 113.002 48.8116C114.705 51.1894 116.544 56.7715 119.916 60.2624C121.181 61.5779 122.918 61.9995 124.2 60.2793C124.706 59.5879 124.959 59.6553 125.364 59.0145C126.696 56.9064 125.347 53.7191 124.638 51.8134C124.638 51.8134 124.992 51.9315 125.009 51.9483C125.667 52.0495 124.858 52.235 125.482 51.9483C124.099 47.9009 122.024 43.7185 120.608 39.4856C117.319 29.7211 115.127 21.778 113.795 11.3896C113.525 9.29844 113.373 5.84125 112.294 4.34033C109.022 0.697632 97.8746 0.25916 93.1863 1.54085Z" fill="#BCB5B5"/>
<path fill-rule="evenodd" clip-rule="evenodd" d="M58.1101 62.8434L54.13 54.563C51.0944 47.7161 49.6947 44.124 47.165 37.0747C46.4567 35.1016 44.8041 28.9967 44.0958 27.7319C42.2745 32.9936 40.6385 51.5949 37.9908 53.6861C36.2201 55.0858 30.9584 54.816 29.7779 52.8766C29.9465 51.46 31.1777 51.8647 30.3176 50.0603C28.901 47.0415 27.9397 45.6081 26.3376 41.7124C25.5281 39.7561 24.7861 37.8842 23.9935 35.8099C23.5887 34.7812 22.2902 30.2784 21.6325 30.0086L20.4857 42.6737C19.8786 46.7886 19.5582 50.2458 17.9223 53.7873C16.4551 56.9915 14.2965 59.4031 10.8562 60.1789C8.00611 60.8197 2.03612 59.5886 0.720703 57.4974C0.956804 55.8616 1.76633 56.1651 2.76132 55.3725C3.46963 54.816 3.80687 53.4331 4.19475 52.4213C4.98737 50.2795 5.69568 48.104 6.30279 45.8442C9.40583 33.9886 11.8174 21.3572 13.6894 9.11367C14.0941 7.12368 14.0942 5.7408 15.106 4.20615C16.7756 1.42354 16.219 3.26175 18.1921 2.1993C20.4688 0.9682 22.3071 1.81142 24.2802 2.16557C24.7524 5.57216 25.039 8.59088 25.663 11.9469C26.2701 15.2186 26.9616 18.1698 27.7205 21.2897L31.3632 34.3427C31.6161 35.1691 32.1389 38.154 32.8472 38.4407C33.2688 37.4795 34.7023 27.8499 35.0902 25.8262C35.8997 21.6101 36.7766 17.5964 37.8222 13.7851C40.7903 3.04251 40.453 -0.988062 52.9664 1.86201C53.2193 4.83013 53.1688 8.11868 53.3374 11.1374C53.7928 18.7769 55.3612 27.968 57.5873 34.9835C59.729 41.7461 64.1306 49.6555 64.7377 55.8279C65.075 59.2513 64.0125 60.2463 61.6346 61.1739C60.5891 61.5786 60.4879 61.7472 60.3867 62.1857L60.2181 63.0289C59.7122 63.2819 59.8976 62.9783 59.2905 63.0458C58.2618 63.1638 59.4761 63.0121 58.4305 63.3831L58.1101 62.8434Z" fill="#BCB5B5"/>
<path fill-rule="evenodd" clip-rule="evenodd" d="M185.688 63.6692L181.708 55.3888C178.672 48.5419 177.272 44.9498 174.743 37.9005C174.034 35.9274 172.382 29.8225 171.673 28.5577C169.852 33.8193 168.216 52.4207 165.568 54.5119C163.798 55.9116 158.536 55.6418 157.356 53.7024C157.524 52.2858 158.755 52.6905 157.895 50.886C156.479 47.8673 155.517 46.4339 153.915 42.5382C153.106 40.5819 152.364 38.71 151.571 36.6357C151.166 35.607 149.868 31.1042 149.21 30.8344L148.063 43.4995C147.456 47.6144 147.136 51.0715 145.5 54.6131C144.033 57.8173 141.874 60.2289 138.434 61.0046C135.584 61.6455 129.614 60.4144 128.298 58.3232C128.534 56.6874 129.344 56.9909 130.339 56.1983C131.047 55.6418 131.384 54.2589 131.772 53.247C132.565 51.1053 133.273 48.9298 133.88 46.67C136.983 34.8143 139.395 22.183 141.267 9.93945C141.672 7.94946 141.672 6.56659 142.684 5.03194C144.353 2.24932 143.797 4.08753 145.77 3.02508C148.046 1.79398 149.885 2.6372 151.858 2.99135C152.33 6.39795 152.617 9.41666 153.241 12.7727C153.848 16.0443 154.539 18.9956 155.298 22.1155L158.941 35.1685C159.194 35.9948 159.716 38.9798 160.425 39.2665C160.846 38.3053 162.28 28.6757 162.668 26.652C163.477 22.4359 164.354 18.4222 165.4 14.6109C168.368 3.8683 168.031 -0.162277 180.544 2.67093C180.797 5.63905 180.729 8.92759 180.915 11.9463C181.37 19.5858 182.939 28.7769 185.165 35.7925C187.307 42.5551 191.708 50.4644 192.315 56.6368C192.653 60.0602 191.59 61.0552 189.212 61.9828C188.167 62.3875 188.066 62.5561 187.964 62.9946L187.796 63.8378C187.29 64.0908 187.475 63.7872 186.868 63.8547C185.839 63.9728 187.054 63.821 186.008 64.192L185.688 63.6692Z" fill="#BCB5B5"/>
<path fill-rule="evenodd" clip-rule="evenodd" d="M28.5806 75.4404L24.8704 83.4172H32.2907L28.5806 75.4404ZM28.5806 69.7402L39.1882 92.271H36.1864L33.1507 85.6264H24.044L21.0085 92.271H18.0066L28.5806 69.7402ZM55.3442 84.5471L58.8014 88.0043C59.7964 87.2791 60.5553 86.3516 61.0949 85.2386C61.6346 84.1255 61.9045 82.9113 61.9045 81.579C61.9045 80.702 61.8033 79.842 61.5672 79.0493C61.3479 78.2399 61.0106 77.5147 60.589 76.8739C59.7121 75.5247 58.5653 74.4791 57.1487 73.7371C55.7153 72.9951 54.1469 72.624 52.4267 72.624C51.1451 72.624 49.9139 72.8433 48.7671 73.2986C47.6035 73.7371 46.5748 74.3779 45.681 75.2043C44.7872 76.0306 44.0957 76.9919 43.6235 78.0712C43.1513 79.1505 42.8984 80.2973 42.8984 81.4778C42.8984 83.0125 43.2356 84.3785 43.8933 85.6096C44.551 86.8407 45.546 87.8863 46.8783 88.7801C47.6372 89.3029 48.4636 89.6907 49.3574 89.9437C50.2681 90.2135 51.2125 90.3316 52.1906 90.3316C53.0676 90.3316 53.8602 90.2473 54.6191 90.0955C55.3611 89.9437 56.0525 89.6907 56.6934 89.3534L51.9376 84.564H55.3442V84.5471ZM65.1762 94.3622H61.7527L58.6496 91.276C57.722 91.7819 56.7271 92.1529 55.614 92.4059C54.5178 92.6589 53.3205 92.7769 52.0219 92.7769C50.7065 92.7769 49.4586 92.5914 48.2612 92.2372C47.0638 91.8831 45.9676 91.3434 44.9558 90.652C43.3199 89.539 42.0889 88.1898 41.2457 86.6383C40.4025 85.0699 39.9809 83.3498 39.9809 81.4778C39.9809 79.96 40.3013 78.5266 40.9253 77.1437C41.5492 75.7608 42.4599 74.5297 43.6235 73.4335C44.8209 72.3711 46.1701 71.5616 47.671 70.9882C49.1719 70.4148 50.774 70.145 52.4267 70.145C54.0794 70.145 55.6309 70.3979 57.0981 70.9039C58.5484 71.4098 59.8639 72.1518 61.0444 73.1637C62.2923 74.2261 63.2536 75.4572 63.9113 76.9076C64.5691 78.341 64.9063 79.8926 64.9063 81.5453C64.9063 83.2823 64.5521 84.8675 63.8438 86.301C63.1355 87.7345 62.09 88.9656 60.7408 89.9606L65.1762 94.3622ZM69.3417 70.5835H72.141V84.0749C72.141 86.2673 72.647 87.8694 73.642 88.8981C74.6539 89.9268 76.2223 90.4328 78.3641 90.4328C80.5059 90.4328 82.091 89.91 83.086 88.8981C84.0978 87.8694 84.5869 86.2673 84.5869 84.0749V70.5835H87.3865V84.0749C87.3865 87.0093 86.6276 89.2017 85.1267 90.652C83.6258 92.1023 81.3659 92.8275 78.3303 92.8275C75.3116 92.8275 73.0518 92.1023 71.5508 90.652C70.0499 89.2017 69.2911 87.0093 69.2911 84.0749V70.5835H69.3417ZM99.7311 75.4404L96.021 83.4172H103.441L99.7311 75.4404ZM99.7311 69.7402L110.339 92.271H107.337L104.301 85.6264H95.1946L92.159 92.271H89.1573L99.7311 69.7402ZM115.466 82.5403V92.271H112.75V70.5835H117.641C119.361 70.5835 120.609 70.6678 121.419 70.8364C122.228 71.0051 122.936 71.2749 123.527 71.6628C124.269 72.1518 124.859 72.8264 125.281 73.6865C125.702 74.5466 125.905 75.491 125.905 76.5366C125.905 77.5822 125.685 78.5434 125.281 79.4035C124.859 80.2636 124.285 80.9381 123.527 81.4272C122.936 81.8151 122.228 82.1018 121.435 82.2704C120.626 82.4391 119.361 82.5234 117.641 82.5234H116.865H115.466V82.5403ZM115.466 80.1961H116.865C119.243 80.1961 120.845 79.9432 121.672 79.4204C122.498 78.8976 122.903 78.0038 122.903 76.7052C122.903 75.3223 122.481 74.3611 121.638 73.7877C120.795 73.2312 119.209 72.9445 116.865 72.9445H115.466V80.1961ZM134.927 75.4404L131.217 83.4172H138.637L134.927 75.4404ZM134.927 69.7402L124.353 92.271H127.355L130.39 85.6264H139.497L142.533 92.271H145.535L134.927 69.7402ZM147.946 92.271V70.5835H153.427C154.996 70.5835 156.142 70.6678 156.867 70.8196C157.593 70.9882 158.233 71.258 158.79 71.6628C159.481 72.1687 160.021 72.8433 160.392 73.6865C160.78 74.5297 160.966 75.4741 160.966 76.486C160.966 78.2567 160.426 79.6227 159.363 80.5334C158.284 81.4609 156.733 81.9163 154.675 81.9163H154.186L163.09 92.2541H159.566L151.049 81.9163H150.661V92.2541H147.946V92.271ZM150.661 72.7758V80.0275H152.769C154.945 80.0275 156.395 79.7745 157.12 79.2517C157.862 78.7289 158.217 77.8351 158.217 76.5366C158.217 75.1537 157.846 74.1756 157.087 73.619C156.328 73.0625 154.894 72.7927 152.769 72.7927H150.661V72.7758ZM165.418 92.271V70.5835H168.167V80.2298L177.965 70.5835H181.27L171.27 80.3479L182.265 92.271H178.673L168.167 80.6009V92.271H165.418Z" fill="#BCB5B5"/>
<path fill-rule="evenodd" clip-rule="evenodd" d="M59.3076 117.87C58.6836 117.87 58.0765 117.685 57.4863 117.314C56.9129 116.943 56.4407 116.437 56.0865 115.779C55.7324 115.122 55.5637 114.396 55.5637 113.587C55.5637 112.508 56.0021 111.529 56.8622 110.653C57.7223 109.776 58.9871 108.899 60.6736 108.039C60.5892 107.516 60.5387 107.145 60.5387 106.926C60.5387 106.082 60.7242 105.273 61.112 104.531C61.4831 103.789 61.9721 103.148 62.5792 102.625C63.1864 102.102 63.8103 101.698 64.4849 101.411C65.1595 101.124 65.8004 100.989 66.4075 100.989C67.1158 100.989 67.6891 101.158 68.1276 101.478C68.566 101.799 68.7853 102.22 68.7853 102.726C68.7853 103.401 68.5999 104.025 68.2288 104.548C67.8578 105.087 67.4024 105.576 66.8122 105.998C66.2388 106.42 65.5474 106.875 64.7042 107.381C63.8778 107.87 63.3718 108.19 63.1863 108.308C63.473 109.371 63.8946 110.45 64.468 111.563C65.2607 111.057 65.8847 110.585 66.34 110.18C66.7954 109.776 67.1664 109.405 67.4868 109.05C67.8072 108.713 68.0095 108.528 68.1107 108.528C68.195 108.528 68.2625 108.612 68.313 108.797C68.3636 108.983 68.3974 109.185 68.3974 109.405C68.3974 109.91 68.2962 110.4 68.1107 110.855C67.9083 111.31 67.6386 111.766 67.2844 112.221C66.9303 112.676 66.4749 113.148 65.9521 113.671L66.8291 114.582C66.9134 114.514 66.9977 114.413 67.1157 114.295C67.2338 114.177 67.3182 114.076 67.3856 114.042C67.4531 113.992 67.5205 113.975 67.588 113.975C67.6723 113.975 67.7398 114.009 67.7904 114.076C67.841 114.143 67.8746 114.211 67.8746 114.312C67.8746 114.649 67.6217 115.24 67.0989 116.049C66.5929 116.859 66.1545 117.263 65.834 117.263C65.6654 117.263 65.4799 117.196 65.3112 117.044C65.1426 116.909 64.9403 116.69 64.7042 116.37C64.4681 116.066 64.2657 115.796 64.1139 115.594C63.1021 116.336 62.1913 116.892 61.3987 117.297C60.5724 117.668 59.8809 117.87 59.3076 117.87ZM62.8828 105.897V106.42C64.1476 105.745 65.1426 105.02 65.8509 104.261C66.5592 103.502 66.9134 102.895 66.9134 102.456C66.9134 102.085 66.711 101.883 66.3232 101.883C65.969 101.883 65.4968 102.085 64.9403 102.49C64.3838 102.895 63.8946 103.418 63.5068 104.025C63.0851 104.649 62.8828 105.273 62.8828 105.897ZM61.0952 109.674C60.4375 110.096 59.8641 110.568 59.3582 111.057C58.8523 111.546 58.4475 112.035 58.1439 112.508C57.8572 112.98 57.7054 113.368 57.7054 113.671C57.7054 114.295 57.9922 114.599 58.5993 114.599C59.0378 114.599 59.628 114.464 60.37 114.194C61.112 113.924 61.8541 113.519 62.5961 112.997C62.1914 112.137 61.7023 111.024 61.0952 109.674ZM96.9993 114.312C96.78 113.924 96.4428 113.57 96.0043 113.266C95.5659 112.963 95.0599 112.71 94.5203 112.524C93.9637 112.339 93.3903 112.187 92.7832 112.103C90.9956 111.85 89.3261 111.293 87.7745 110.45C87.6396 110.383 87.5047 110.248 87.3529 110.029C87.2012 109.809 87.1337 109.59 87.1337 109.388C87.1337 108.646 87.2686 107.904 87.5215 107.162C87.7914 106.42 88.1119 105.829 88.5167 105.408C89.1744 104.716 90.3548 104.092 92.0413 103.569C93.7446 103.047 95.6672 102.777 97.7921 102.777C99.0569 102.777 100.052 102.878 100.743 103.064C101.435 103.249 101.789 103.536 101.789 103.924C101.789 104.564 101.688 105.054 101.519 105.391C101.333 105.728 101.148 105.964 100.946 106.082C100.743 106.2 100.372 106.352 99.8495 106.538C99.2929 106.723 98.8039 106.909 98.3992 107.128C97.9944 107.33 97.6402 107.533 97.3367 107.701C97.05 107.887 96.8644 107.971 96.7969 107.971C96.7126 107.971 96.6621 107.937 96.6621 107.87C96.6621 107.718 96.8139 107.516 97.1343 107.212C97.4547 106.925 97.8425 106.673 98.2979 106.453C98.7869 106.217 99.0231 106.049 99.0231 105.981C99.0231 105.88 98.7533 105.812 98.2137 105.812C96.5778 105.812 95.0599 105.947 93.6771 106.234C92.2942 106.504 91.1981 106.875 90.3886 107.33C89.5791 107.786 89.1911 108.241 89.1911 108.713C89.1911 109.017 89.3598 109.219 89.6971 109.337C90.0344 109.455 90.7596 109.658 91.8895 109.944C93.0195 110.231 94.0312 110.568 94.925 110.922C96.2067 111.445 97.1512 111.985 97.7752 112.558C98.3992 113.115 98.7026 113.756 98.7026 114.447C98.7026 114.919 98.5846 115.408 98.3316 115.897C98.0955 116.386 97.7414 116.825 97.2692 117.23C96.797 117.634 96.2574 117.955 95.6503 118.225C95.1275 118.444 94.4697 118.629 93.6771 118.815C92.8844 119 92.0243 119.152 91.0968 119.253C90.1692 119.355 89.2924 119.405 88.4492 119.405C86.8976 119.405 85.6497 119.27 84.7053 118.983C83.7609 118.714 83.2886 118.292 83.2886 117.719C83.2886 117.466 83.4404 117.078 83.7608 116.538C84.0812 115.999 84.4523 115.644 84.8908 115.459C85.2787 115.324 85.6329 115.24 85.987 115.206C86.3412 115.189 86.5097 115.223 86.5097 115.324C86.5097 115.358 86.4928 115.375 86.476 115.408C86.4422 115.425 86.4255 115.459 86.3918 115.476C86.358 115.493 86.3242 115.509 86.2905 115.526C86.1218 115.594 85.97 115.644 85.852 115.678C85.7508 115.712 85.6496 115.746 85.5821 115.796C85.5146 115.83 85.481 115.88 85.481 115.948C85.481 116.117 86.3917 116.218 88.2299 116.218C89.8152 116.218 91.1305 116.167 92.1423 116.049C93.1542 115.948 94.065 115.746 94.8408 115.459C95.6503 115.223 96.3584 114.818 96.9993 114.312ZM106.157 110.467C104.926 110.737 103.998 111.091 103.374 111.529C102.75 111.985 102.43 112.457 102.43 112.98C102.43 113.216 102.548 113.452 102.767 113.705C103.003 113.958 103.323 114.143 103.728 114.295C102.952 115.627 102.362 116.69 101.991 117.499C101.603 118.309 101.418 118.899 101.418 119.27C101.418 119.523 101.452 119.742 101.519 119.877C101.586 120.029 101.755 120.097 102.008 120.097C102.126 120.097 102.261 120.046 102.379 119.945C102.514 119.844 102.632 119.726 102.716 119.591C102.817 119.456 103.02 119.186 103.307 118.764C103.593 118.36 103.829 118.022 104.015 117.769C104.133 117.601 104.2 117.365 104.2 117.112C104.2 116.994 104.133 116.859 104.015 116.673L105.212 114.599C106.123 114.7 106.713 114.751 107 114.751C108.653 114.751 110.17 114.548 111.57 114.143C112.953 113.739 114.167 113.165 115.196 112.406C116.225 111.648 117.017 110.754 117.557 109.725C118.114 108.696 118.383 107.549 118.383 106.285C118.383 105.728 118.282 105.172 118.063 104.598C117.86 104.025 117.557 103.553 117.169 103.165C116.107 102.052 114.201 101.495 111.469 101.495C109.108 101.495 106.359 102.018 103.273 103.08C102.716 103.941 102.227 104.767 101.822 105.509C101.418 106.268 101.198 106.689 101.198 106.74C101.198 106.807 101.232 106.858 101.283 106.892C101.35 106.925 101.401 106.959 101.468 106.959C101.721 106.875 102.126 106.706 102.699 106.487C103.273 106.268 103.914 106.032 104.639 105.779C105.364 105.526 106.241 105.29 107.253 105.087C108.265 104.868 109.243 104.75 110.154 104.716L106.157 110.467ZM107.539 110.804L109.563 110.433C109.799 110.4 109.917 110.315 109.917 110.214C109.917 110.079 109.85 110.029 109.698 110.029L107.961 110.214L110.271 106.774C110.761 106.065 110.997 105.492 110.997 105.054C110.997 104.919 110.98 104.801 110.963 104.716C112.329 104.716 113.442 104.767 114.302 104.885C115.162 105.003 115.82 105.205 116.292 105.526C116.748 105.846 116.984 106.268 116.984 106.807C116.984 107.212 116.832 107.701 116.528 108.292C116.225 108.882 115.753 109.472 115.078 110.045C114.403 110.636 113.509 111.125 112.363 111.513C111.233 111.917 109.884 112.103 108.332 112.103C108.164 112.103 107.927 112.086 107.675 112.069C107.405 112.052 107.118 112.035 106.781 112.019L107.539 110.804ZM129.429 112.761C128.367 112.794 127.591 112.811 127.102 112.811C126.343 112.811 125.281 112.794 123.948 112.761C123.662 113.047 123.324 113.401 122.92 113.806C122.515 114.211 122.127 114.582 121.773 114.919C121.419 115.256 121.098 115.543 120.829 115.796C120.576 116.032 120.356 116.235 120.188 116.403C119.21 117.314 118.569 117.904 118.265 118.191C117.978 118.461 117.658 118.714 117.321 118.933C117 119.152 116.697 119.27 116.427 119.27C116.123 119.27 115.972 119.135 115.972 118.865C115.972 118.579 116.191 118.123 116.629 117.499C117.068 116.875 117.574 116.336 118.13 115.864C118.687 115.391 119.142 115.155 119.496 115.155C119.598 115.155 119.733 115.206 119.901 115.273L122.414 112.71C122.094 112.659 121.672 112.643 121.166 112.626C120.66 112.609 120.306 112.575 120.137 112.524C119.952 112.457 119.867 112.322 119.867 112.086C119.867 111.732 120.272 111.158 121.082 110.383C121.52 109.944 121.942 109.674 122.33 109.556C122.717 109.438 123.46 109.371 124.556 109.371C123.915 109.455 123.443 109.556 123.19 109.674C122.92 109.792 122.768 109.961 122.751 110.18C123.004 110.18 123.24 110.18 123.46 110.18C123.679 110.18 123.965 110.18 124.32 110.18C124.674 110.18 124.927 110.163 125.095 110.163C126.546 108.814 127.861 107.651 129.041 106.656C130.222 105.661 131.487 104.716 132.786 103.822C134.101 102.929 135.501 102.102 136.985 101.36C137.271 101.714 137.423 102.102 137.423 102.49C137.423 102.811 137.305 103.198 137.086 103.62C136.867 104.059 136.378 104.851 135.652 106.032C134.927 107.212 134.185 108.477 133.426 109.809C133.679 109.809 133.882 109.809 134.05 109.809C134.219 109.809 134.388 109.826 134.573 109.826C135.079 109.826 135.383 109.843 135.501 109.86C135.602 109.877 135.669 109.961 135.669 110.113C135.669 110.18 135.602 110.298 135.467 110.467C135.332 110.636 135.079 110.922 134.742 111.327C134.404 111.732 134.067 112.137 133.73 112.541L131.774 112.693C130.728 114.548 130.222 115.577 130.222 115.83C130.222 116.167 130.408 116.353 130.795 116.353C130.981 116.353 131.757 115.982 133.106 115.24L133.005 115.914C132.28 116.437 131.723 116.842 131.318 117.145C130.914 117.449 130.559 117.685 130.273 117.887C129.986 118.09 129.699 118.225 129.463 118.326C129.21 118.427 128.974 118.478 128.721 118.478C128.434 118.478 128.148 118.343 127.861 118.09C127.574 117.837 127.439 117.466 127.439 116.994C127.439 116.808 127.524 116.521 127.659 116.167C127.81 115.813 127.979 115.459 128.148 115.138C128.283 114.801 128.721 114.009 129.429 112.761ZM126.917 109.894L131.217 109.809C131.723 109 132.128 108.325 132.448 107.819C132.769 107.313 133.106 106.774 133.477 106.167C133.848 105.576 134.185 105.07 134.438 104.666C134.708 104.244 135.011 103.789 135.332 103.266C134.691 103.637 134.05 104.059 133.376 104.531C132.718 104.986 131.959 105.559 131.133 106.2C130.306 106.858 129.564 107.465 128.924 108.022C128.283 108.595 127.608 109.202 126.917 109.894Z" fill="#BCB5B5"/>
<path fill-rule="evenodd" clip-rule="evenodd" d="M189.078 79.0492C189.466 79.6057 190.63 80.5501 190.798 80.9212C191.153 81.6295 190.613 82.81 190.613 83.7881C194.458 82.0848 191.844 82.5907 195.571 83.7206L195.234 80.9212L197.122 79.0155C196.262 78.8974 194.88 78.9649 194.256 78.3578C193.817 77.9362 193.767 76.8906 192.957 76.2666L191.777 78.6107L189.078 79.0492Z" fill="#BCB5B5"/>
</svg>
