<svg width="351" height="120" viewBox="0 0 351 120" fill="none" xmlns="http://www.w3.org/2000/svg">
<path d="M314.987 81.9085C314.043 80.8798 312.997 79.6487 311.884 78.1983C310.771 76.748 310.197 75.2976 310.197 73.8473C310.197 73.4257 310.4 72.7006 310.771 71.6719C311.159 70.6431 312.221 69.159 313.941 67.1859L345.36 30.1855H310.703L287.346 62.6494V30.1855H258.12V44.8238C257.007 42.7157 255.624 40.8269 253.921 39.1405C251.594 36.8301 248.272 34.7558 243.954 32.9344C239.637 31.0962 234.038 30.1855 227.141 30.1855H208.792H176.851H114.639L123.678 52.4634H147.221V109.499L151.723 119.803H176.463V52.4634H176.851H208.792H211.356C214.29 52.4634 216.971 52.632 219.434 52.9862C221.879 53.3234 224.24 54.0992 226.483 55.2797C227.596 55.8699 228.861 56.8143 230.227 58.096C231.61 59.3777 232.554 61.334 233.077 63.9817H199.18V84.202H233.077C233.161 86.0908 232.689 88.1145 231.643 90.29C230.615 92.4655 228.49 94.1857 225.302 95.4674C224.189 95.9059 222.452 96.3443 220.125 96.8165C217.798 97.2887 214.307 97.5248 209.652 97.5248H182.619V119.803H227.107C228.827 119.803 230.766 119.718 232.925 119.55C235.067 119.381 237.293 119.01 239.586 118.47C241.863 117.914 244.106 117.121 246.315 116.092C248.508 115.064 250.548 113.748 252.454 112.112C254.613 110.241 256.366 108.065 257.766 105.586C257.884 105.367 257.969 105.114 258.087 104.894V119.786H287.313V84.8091C287.38 84.8934 287.447 85.0115 287.515 85.0958L314.936 119.786H350.115L314.987 81.9085Z" fill="#BCB5B5"/>
<path d="M47.6875 119.802H93.6428L70.724 66.0557L47.6875 119.802Z" fill="#BCB5B5"/>
<path d="M127.691 17.116H121.131L119.866 20.3034H114.841L121.873 1.98877H127.067L133.948 20.3034H128.872L127.691 17.116ZM126.41 13.4903L124.437 7.67204L122.464 13.4903H126.41Z" fill="#BCB5B5"/>
<path d="M145.517 0.30127V20.3192H141.132V0.30127H145.517Z" fill="#BCB5B5"/>
<path d="M158.384 0.30127V20.3192H153.999V0.30127H158.384Z" fill="#BCB5B5"/>
<path d="M167.289 4.8039C166.817 4.3317 166.581 3.67405 166.581 3.06693C166.581 2.44295 166.935 1.71773 167.289 1.32986C167.609 0.975704 168.132 0.621582 168.958 0.621582C169.498 0.621582 170.139 0.790147 170.662 1.27921C171.134 1.71769 171.454 2.37541 171.454 3.08371C171.454 3.77515 171.184 4.31482 170.712 4.78702C170.274 5.22549 169.751 5.49529 169.043 5.49529C168.385 5.51216 167.727 5.24237 167.289 4.8039ZM171.218 8.04182V20.3191H166.834V8.04182H171.218Z" fill="#BCB5B5"/>
<path d="M189.161 8.04124H193.563V20.3185H189.161V18.9694C188.15 20.3691 186.548 20.7232 185.35 20.7232C184.035 20.7232 182.416 20.3354 180.932 18.767C179.751 17.5022 179.178 16.1024 179.178 14.2642C179.178 11.9538 180.088 10.3348 181.067 9.3567C182.112 8.31112 183.731 7.61963 185.485 7.61963C187.458 7.61963 188.639 8.63149 189.161 9.20488V8.04124ZM184.541 12.1561C183.934 12.7295 183.664 13.5222 183.664 14.163C183.664 14.8713 183.967 15.6471 184.507 16.1699C184.979 16.6083 185.738 16.9962 186.48 16.9962C187.188 16.9962 187.913 16.6927 188.453 16.1362C188.841 15.7483 189.279 15.1411 189.279 14.163C189.279 13.5896 189.111 12.8138 188.436 12.1561C188.031 11.7683 187.391 11.3636 186.463 11.3636C185.923 11.3636 185.182 11.549 184.541 12.1561Z" fill="#BCB5B5"/>
<path d="M202.046 8.04176H206.431V9.57647C207.645 7.99122 209.264 7.77197 210.327 7.77197C211.591 7.77197 212.941 8.07548 213.952 9.08734C214.998 10.1329 215.099 11.1786 215.099 12.5108V20.3022H210.714V14.0961C210.714 13.3878 210.748 12.3085 210.175 11.7014C209.77 11.2629 209.214 11.1786 208.775 11.1786C208.084 11.1786 207.51 11.4315 207.156 11.7519C206.718 12.1567 206.448 12.9662 206.448 13.7082V20.3022H202.063V8.04176H202.046Z" fill="#BCB5B5"/>
<path d="M232.857 20.033C231.676 20.6064 230.715 20.7244 229.804 20.7244C227.41 20.7244 225.858 19.7126 224.981 18.8525C223.834 17.7226 223.092 16.0867 223.092 14.2654C223.092 12.4609 223.834 10.7238 225.065 9.50961C226.212 8.41343 227.915 7.6377 230.007 7.6377C230.782 7.6377 231.76 7.77267 232.857 8.32919V12.0056C232.283 11.6009 231.507 11.2129 230.58 11.2129C229.534 11.2129 228.877 11.6177 228.438 12.0561C227.831 12.6633 227.595 13.4559 227.595 14.1642C227.595 14.8556 227.848 15.6483 228.371 16.2217C228.776 16.6602 229.501 17.1492 230.614 17.1492C231.255 17.1492 232.064 17.0143 232.857 16.3229V20.033Z" fill="#BCB5B5"/>
<path d="M253.837 14.973H244.696C244.696 15.6307 244.95 16.5076 245.472 17.0304C245.742 17.3002 246.299 17.6375 247.277 17.6375C247.378 17.6375 248.154 17.6037 248.71 17.3002C248.98 17.1315 249.283 16.8617 249.486 16.4738H253.685C253.5 17.1653 253.112 18.1265 252.201 19.0035C251.29 19.8804 249.874 20.7068 247.209 20.7068C245.59 20.7068 243.634 20.3527 242.133 18.8349C241.34 18.0422 240.329 16.5245 240.329 14.1972C240.329 12.1397 241.104 10.487 242.167 9.44142C243.179 8.44643 244.781 7.65381 247.192 7.65381C248.626 7.65381 250.464 7.95735 251.914 9.32336C253.651 10.9761 253.871 13.1178 253.871 14.4838V14.973H253.837ZM249.806 12.4601C249.705 11.9879 249.418 11.4652 249.098 11.1447C248.525 10.5713 247.732 10.487 247.294 10.487C246.552 10.487 245.978 10.6725 245.506 11.1447C245.202 11.482 244.932 11.9204 244.848 12.4601H249.806Z" fill="#BCB5B5"/>
<path d="M106.747 27.7903C99.1914 16.5081 85.9698 29.0214 79.1397 46.4085L73.4731 59.6471L99.2588 119.819H146.159L106.747 27.7903Z" fill="#BCB5B5"/>
<path d="M43.8095 61.6368C52.8994 40.4552 57.3515 22.0225 81.3326 14.7371C64.9068 13.0001 45.6309 17.7389 38.7671 31.281L0.788574 119.819H18.8671C27.1812 100.408 35.4954 81.0139 43.8095 61.6368Z" fill="#BCB5B5"/>
<path d="M86.3405 15.4795C86.0876 16.1709 85.1433 16.9467 83.3389 17.4526C60.7069 23.7936 54.6864 53.2893 46.4566 72.4809C39.7783 88.0635 33.1 103.629 26.4049 119.212C26.3037 119.431 26.135 119.634 25.9326 119.819H47.6539L79.1059 46.4255C85.9359 29.0384 99.1407 16.5251 106.713 27.8073C104.099 21.6518 96.0713 17.3683 86.3405 15.4795Z" fill="#BCB5B5"/>
</svg>
