<svg width="207" height="121" viewBox="0 0 207 121" fill="none" xmlns="http://www.w3.org/2000/svg">
<path d="M38.9788 35.4972H43.9031C47.5964 35.6152 49.2491 39.0724 47.1917 48.0442C45.1343 57.1341 40.4122 60.119 36.7189 60.119H31.7946L38.9788 35.4972ZM140.839 60.1023C142.07 56.6451 143.504 48.7525 149.052 48.7525C154.601 48.7525 151.717 57.1173 151.11 60.1023H140.839ZM193.81 57.6063C190.522 57.6063 187.655 54.8575 187.857 51.0293C185.597 51.5015 182.106 56.1728 181.499 58.5676L175.951 78.1639H163.825L171.836 50.6751H167.114L168.143 46.9649H184.771L183.337 51.9905C186.828 47.336 191.77 46.2566 193.81 46.1386C197.099 46.1386 199.763 48.4153 199.763 51.6363C199.78 54.8406 197.099 57.6063 193.81 57.6063ZM161.785 63.3402H139.811C138.175 68.3658 137.348 74.8079 141.463 74.9429C145.78 75.179 148.243 70.8785 149.676 66.5781H160.351C156.86 78.1639 147.012 79.2432 140.839 78.8891C127.904 78.1808 126.049 69.9341 128.933 61.0803C132.626 49.4945 140.232 45.3122 149.676 45.3122C163.421 45.6495 163.421 56.9992 161.785 63.3402ZM120.501 78.147H94.6311L112.912 50.6582H102.439L103.468 46.948H129.338L111.057 74.302H121.53L120.501 78.147ZM59.0979 49.7138C55.607 63.4582 43.0768 63.2221 38.9788 63.2221H30.9682L26.4485 78.0458H14.7446L26.8701 35.5141H20.917L21.7434 32.411H46.8037C60.7337 32.3772 60.953 42.2935 59.0979 49.7138ZM103.451 0.706055C46.7701 0.706055 0.76416 27.4697 0.76416 60.4732C0.76416 81.1489 19.0451 99.4298 46.5677 110.189L67.9179 35.4972C69.9754 28.4479 77.3619 13.6241 93.383 13.0339C97.9026 12.6629 106.74 15.9008 106.74 24.5016C106.74 27.8407 103.856 30.4716 100.162 30.4716C96.6716 30.4716 93.7878 27.8407 93.7878 24.5016C93.7878 21.1625 96.6716 18.5317 100.162 18.5317C99.1338 17.0982 95.8452 15.1757 93.383 15.1757C91.1232 15.1757 85.5749 16.137 82.084 27.9589L76.5356 46.8468H97.2787L88.4418 78.147H77.3451L85.1532 50.6582H75.5069L57.4284 113.883C71.392 117.947 87.0083 120.207 103.434 120.207C160.115 120.207 206.121 93.443 206.121 60.4564C206.138 27.4866 160.132 0.706055 103.451 0.706055Z" fill="#BCB5B5"/>
</svg>
