<svg width="461" height="121" viewBox="0 0 461 121" fill="none" xmlns="http://www.w3.org/2000/svg">
<path d="M170.424 39.1052C169.969 38.3295 169.413 37.6886 168.806 37.2164C168.148 36.7105 167.338 36.4575 166.411 36.4575C165.483 36.4575 164.657 36.7105 163.982 37.1996C163.342 37.6718 162.785 38.3126 162.33 39.1052L138.45 78.8545L137.876 79.7989H138.973H147.253H147.607L147.793 79.4953L166.107 48.5323L174.253 62.2262H162.616H162.262L162.077 62.5298L158.653 68.4154L158.114 69.3598H159.193H178.486L184.523 79.5121L184.709 79.8157H185.063H193.799H194.895L194.321 78.8713L170.424 39.1052Z" fill="#BCB5B5"/>
<path d="M211.862 71.3V37.6557V37.0317H211.254H203.986H203.362V37.6557V79.1757V79.7996H203.986H239.182H239.806V79.1757V71.9239V71.3H239.182H211.862Z" fill="#BCB5B5"/>
<path d="M290.905 41.2312C289.555 39.8989 287.869 38.8533 285.913 38.1113C283.973 37.3861 281.73 37.0151 279.268 37.0151H250.076H249.452V37.6391V79.1591V79.783H250.076H257.26H257.884V79.1591V45.5147H279.251C281.612 45.5147 283.484 46.1725 284.783 47.4542C286.098 48.7527 286.739 50.4729 286.739 52.7158C286.739 54.925 286.098 56.6452 284.766 57.9944C283.467 59.3098 281.612 59.9843 279.234 59.9843H262.556H261.932V60.6083V67.6407V68.2647H262.556H279.234C281.697 68.2647 283.94 67.8768 285.879 67.101C287.835 66.3253 289.522 65.2291 290.871 63.8462C292.22 62.4465 293.266 60.7769 293.974 58.8544C294.682 56.9487 295.036 54.807 295.036 52.4966C295.036 50.1524 294.682 47.9937 293.957 46.1049C293.299 44.2161 292.254 42.5804 290.905 41.2312Z" fill="#BCB5B5"/>
<path d="M342.727 66.7635C345.139 65.6673 347.062 64.0146 348.461 61.8222C350.03 59.3938 350.822 56.3413 350.822 52.783C350.822 50.3882 350.468 48.2128 349.76 46.2902C349.052 44.3508 348.006 42.6644 346.657 41.2984C345.308 39.9323 343.638 38.853 341.699 38.1279C339.776 37.4027 337.567 37.0317 335.138 37.0317H305.322H304.698V37.6557V79.1757V79.7996H305.322H312.523H313.147V79.1757V45.5313H335.138C337.483 45.5313 339.304 46.1385 340.569 47.3358C341.817 48.5163 342.457 50.3882 342.457 52.901C342.457 55.4307 341.85 57.37 340.636 58.6686C339.422 59.9503 337.584 60.608 335.155 60.608H317.852H317.229V61.232V67.6236V68.2475H317.852H333.115L343.436 79.5804L343.621 79.7828H343.891H354.178H355.679L354.634 78.7203L342.727 66.7635Z" fill="#BCB5B5"/>
<path d="M407.826 42.8667C405.988 41.0285 403.745 39.5782 401.199 38.5663C398.635 37.5545 395.785 37.0317 392.716 37.0317H382.614C379.663 37.0317 376.88 37.5376 374.367 38.5326C371.855 39.5276 369.628 40.9611 367.773 42.7824C365.918 44.6038 364.434 46.8467 363.406 49.427C362.36 52.0072 361.854 54.891 361.854 57.9941C361.854 61.0634 362.377 63.964 363.406 66.6117C364.434 69.2594 365.901 71.5867 367.757 73.5261C369.612 75.4655 371.838 77.017 374.351 78.1132C376.88 79.2263 379.663 79.7996 382.631 79.7996H392.733C395.768 79.7996 398.601 79.2263 401.148 78.1301C403.694 77.017 405.921 75.4655 407.776 73.5261C409.631 71.5867 411.098 69.2594 412.144 66.6117C413.172 63.964 413.695 61.0634 413.695 57.9941C413.695 54.9248 413.189 52.0578 412.16 49.5113C411.115 46.931 409.664 44.7049 407.826 42.8667ZM404.234 63.5255C403.627 65.1108 402.75 66.4936 401.654 67.6236C400.558 68.7535 399.225 69.6642 397.708 70.305C396.19 70.9459 394.503 71.2832 392.699 71.2832H382.597C380.826 71.2832 379.174 70.9459 377.673 70.305C376.189 69.6642 374.873 68.7535 373.794 67.6236C372.715 66.4936 371.855 65.1108 371.248 63.5086C370.624 61.9065 370.32 60.1696 370.32 58.3145C370.32 56.4257 370.624 54.6718 371.248 53.1203C371.872 51.5688 372.715 50.2196 373.794 49.1066C374.873 47.9935 376.172 47.0997 377.673 46.4757C379.174 45.8349 380.826 45.5313 382.597 45.5313H392.699C394.503 45.5313 396.19 45.8517 397.724 46.4757C399.242 47.1166 400.558 47.9935 401.654 49.1066C402.75 50.2196 403.61 51.5856 404.234 53.154C404.841 54.7224 405.162 56.4762 405.162 58.3313C405.162 60.1864 404.841 61.9403 404.234 63.5255Z" fill="#BCB5B5"/>
<path d="M437.135 55.0259H436.511V55.6499V61.9909V62.5979H437.135H458.148H458.772V61.9909V55.6499V55.0259H458.148H437.135Z" fill="#BCB5B5"/>
<path d="M459.868 37.0317H424.622H423.998V37.6557V79.1757V79.7996H424.622H431.822H432.446V79.1757V45.5313H459.868H460.492V44.9074V37.6557V37.0317H459.868Z" fill="#BCB5B5"/>
<path d="M87.7575 29.2239L77.7907 21.9722L51.0776 41.7203L76.7957 62.0756L87.7575 54.0988C91.7713 51.1644 94.0986 46.6279 94.0986 41.6529C94.0817 36.6948 91.7713 32.1583 87.7575 29.2239Z" fill="#BCB5B5"/>
<path d="M21.6323 63.1877L48.2443 82.5649L73.9286 63.8623L48.2443 43.5239L21.6323 63.1877Z" fill="#BCB5B5"/>
<path d="M74.89 20.1169L48.2443 0.706055L22.5938 19.3749L48.3287 39.747L74.89 20.1169Z" fill="#BCB5B5"/>
<path d="M19.8447 21.2129L8.95024 29.1223C4.9028 32.0735 2.57568 36.6438 2.57568 41.6693C2.57568 46.6949 4.9028 51.2482 8.95024 54.2163L18.8329 61.4005L45.5797 41.6187L19.8447 21.2129Z" fill="#BCB5B5"/>
<path d="M94.0972 41.6698C94.0972 46.6448 91.7868 51.1813 87.7562 54.0988L76.7944 62.0756L77.7894 21.9722L87.7562 29.2407C91.7868 32.1582 94.0972 36.6948 94.0972 41.6698Z" fill="#BCB5B5"/>
<path d="M73.9295 63.8623L48.2451 82.5649V43.5239L73.9295 63.8623Z" fill="#BCB5B5"/>
<path d="M74.8908 20.1169L48.3295 39.747L48.2451 0.706055L74.8908 20.1169Z" fill="#BCB5B5"/>
<path d="M45.5783 41.6018L18.8315 61.4005L19.8434 21.2129L45.5783 41.6018Z" fill="#BCB5B5"/>
<path d="M49.7769 120.223V97.4899C49.7769 89.6312 53.7736 82.2109 60.6543 77.2865L95.6984 52.1924V72.6656C95.6984 81.2327 91.4148 89.3613 84.0113 94.8422L49.7769 120.223Z" fill="#BCB5B5"/>
<path d="M46.7089 120.223V97.4899C46.7089 89.6312 42.7122 82.2109 35.8315 77.2865L0.770508 52.1924V72.6656C0.770508 81.2327 5.05414 89.3613 12.4576 94.8422L46.7089 120.223Z" fill="#BCB5B5"/>
</svg>
