<svg width="320" height="121" viewBox="0 0 320 121" fill="none" xmlns="http://www.w3.org/2000/svg">
<path d="M282.888 0.929199H0.747501L37.9839 39.9533L0.342773 78.9773H282.078L319.517 39.7509L282.888 0.929199ZM280.307 74.2553L279.869 74.7106H279.245L15.9592 73.9686L12.4346 73.9518L14.8967 71.4389L45.691 39.9364L14.5257 8.43385L12.013 5.9042H15.5713L280.442 5.34764H281.083L281.522 5.8199L312.316 38.739L313.277 39.7677L312.299 40.7796L280.307 74.2553Z" fill="#BCB5B5"/>
<path d="M279.819 8.34961L19.1475 8.88923L48.8287 38.9078L49.8574 39.9533L48.8287 40.9989L19.4678 71.0174L278.571 71.7426L309.163 39.7678L279.819 8.34961ZM112.272 61.0675H96.5883V43.6466H82.6586V61.0675H66.9578V19.1596H82.6586V34.6917H96.5883V19.1596H112.272V61.0675ZM163.405 28.7892C160.403 28.1821 157.57 27.8785 154.905 27.8785C150.841 27.8785 147.434 29.0084 144.753 31.2682C142.072 33.528 140.705 36.395 140.705 39.8859C140.705 43.6466 142.072 46.6316 144.77 48.824C147.485 51.0164 151.094 52.1125 155.63 52.1125C157.84 52.1125 160.437 51.7921 163.405 51.1681V61.1181C160.083 61.7589 157.115 62.0962 154.484 62.0962C145.394 62.0962 138.041 60.0219 132.375 55.8901C126.742 51.7583 123.909 46.3281 123.909 39.5823C123.909 33.3257 126.759 28.1652 132.459 24.084C138.159 20.0028 145.343 17.9791 154.045 17.9791C157.435 17.9791 160.555 18.2658 163.388 18.8055V28.7892H163.405ZM209.883 28.7892C206.881 28.1821 204.048 27.8785 201.383 27.8785C197.319 27.8785 193.913 29.0084 191.231 31.2682C188.55 33.528 187.184 36.395 187.184 39.8859C187.184 43.6466 188.55 46.6316 191.248 48.824C193.98 51.0164 197.572 52.1125 202.109 52.1125C204.318 52.1125 206.915 51.7921 209.883 51.1681V61.1181C206.561 61.7589 203.593 62.0962 200.962 62.0962C191.872 62.0962 184.519 60.0219 178.853 55.8901C173.22 51.7583 170.387 46.3281 170.387 39.5823C170.387 33.3257 173.237 28.1652 178.937 24.084C184.637 20.0028 191.821 17.9791 200.523 17.9791C203.913 17.9791 207.033 18.2658 209.866 18.8055V28.7892H209.883ZM266.598 61.0675H249.346L235.972 43.6466H235.719V61.0675H220.018V19.1596H235.719V38.874H235.972L250.796 19.1596H267.272L251.217 40.5604L266.598 61.0675Z" fill="#BCB5B5"/>
<path d="M215.481 120.244V108.423H224.234V110.429H217.859V113.043H223.796V115.033H217.859V118.254H224.453V120.244H215.481ZM203.558 120.244V108.423H205.953V113.077H210.625V108.423H213.002V120.244H210.625V115.084H205.953V120.244H203.558ZM197.892 115.556L196.256 111.171L194.654 115.556H197.892ZM202.294 120.244H199.696L198.668 117.563H193.946L192.968 120.244H190.438L195.042 108.423H197.571L202.294 120.244ZM185.244 120.244V110.429H181.736V108.423H191.129V110.429H187.639V120.244H185.244ZM178.633 115.893L180.943 116.619C180.589 117.917 179.999 118.862 179.173 119.486C178.346 120.11 177.301 120.43 176.036 120.43C174.467 120.43 173.186 119.89 172.174 118.828C171.162 117.749 170.656 116.281 170.656 114.426C170.656 112.453 171.162 110.935 172.174 109.839C173.186 108.76 174.518 108.203 176.188 108.203C177.638 108.203 178.801 108.625 179.712 109.485C180.252 109.991 180.657 110.716 180.926 111.66L178.566 112.234C178.431 111.61 178.127 111.138 177.689 110.784C177.25 110.429 176.71 110.261 176.069 110.261C175.192 110.261 174.484 110.564 173.945 111.205C173.405 111.829 173.135 112.858 173.135 114.258C173.135 115.759 173.405 116.821 173.945 117.445C174.484 118.086 175.176 118.389 176.036 118.389C176.677 118.389 177.216 118.187 177.672 117.782C178.11 117.394 178.43 116.754 178.633 115.893ZM159.492 120.244L163.539 114.072L159.88 108.423H162.662L165.04 112.217L167.368 108.423H170.133L166.457 114.156L170.487 120.244H167.604L164.99 116.163L162.359 120.244H159.492ZM155.04 115.556L153.404 111.171L151.802 115.556H155.04ZM159.424 120.244H156.827L155.799 117.563H151.077L150.099 120.244H147.569L152.173 108.423H154.702L159.424 120.244ZM140.115 111.644L137.787 111.104C138.293 109.181 139.71 108.22 142.054 108.22C143.437 108.22 144.483 108.524 145.191 109.131C145.899 109.738 146.253 110.446 146.253 111.273C146.253 111.829 146.085 112.352 145.764 112.807C145.444 113.263 144.955 113.667 144.314 114.005C145.09 114.274 145.68 114.645 146.085 115.151C146.473 115.64 146.675 116.248 146.675 116.973C146.675 118.001 146.287 118.845 145.528 119.486C144.769 120.126 143.622 120.447 142.122 120.447C140.89 120.447 139.912 120.244 139.204 119.823C138.496 119.418 137.956 118.642 137.585 117.512L139.778 116.787C139.997 117.496 140.3 117.951 140.671 118.17C141.042 118.373 141.515 118.474 142.054 118.474C142.813 118.474 143.353 118.305 143.707 117.985C144.044 117.664 144.23 117.293 144.23 116.872C144.23 116.383 144.027 115.995 143.639 115.691C143.251 115.404 142.661 115.253 141.886 115.253H141.346V113.465H141.616C142.341 113.465 142.914 113.296 143.285 112.976C143.673 112.655 143.859 112.217 143.859 111.677C143.859 111.239 143.707 110.885 143.386 110.581C143.066 110.295 142.628 110.143 142.037 110.143C141.025 110.16 140.385 110.666 140.115 111.644ZM132.762 115.556L131.126 111.171L129.524 115.556H132.762ZM137.164 120.244H134.566L133.538 117.563H128.816L127.837 120.244H125.308L129.912 108.423H132.441L137.164 120.244ZM116.471 108.423H118.866V113.448C119.405 113.398 119.76 113.263 119.945 113.043C120.131 112.824 120.417 112.217 120.822 111.205C121.311 109.923 121.817 109.131 122.306 108.81C122.795 108.507 123.605 108.338 124.701 108.338C124.751 108.338 124.869 108.338 125.055 108.321V110.092L124.718 110.075C124.229 110.075 123.874 110.143 123.655 110.261C123.436 110.379 123.25 110.564 123.099 110.817C122.964 111.07 122.745 111.576 122.475 112.335C122.323 112.74 122.171 113.077 122.002 113.364C121.834 113.634 121.53 113.887 121.109 114.14C121.631 114.291 122.087 114.595 122.424 115.05C122.778 115.506 123.149 116.146 123.571 116.99L125.19 120.228H122.39L120.974 117.175C120.957 117.125 120.906 117.057 120.839 116.922C120.822 116.872 120.721 116.686 120.535 116.366C120.232 115.792 119.979 115.421 119.776 115.269C119.574 115.118 119.287 115.05 118.883 115.05V120.228H116.488V108.423H116.471ZM102.322 115.084V118.238H104.531C105.391 118.238 105.931 118.221 106.167 118.17C106.521 118.103 106.808 117.951 107.027 117.698C107.246 117.445 107.364 117.108 107.364 116.686C107.364 116.332 107.28 116.028 107.111 115.775C106.943 115.522 106.69 115.354 106.369 115.236C106.049 115.118 105.34 115.067 104.261 115.067H102.322V115.084ZM102.322 110.396V113.128H103.89C104.818 113.128 105.408 113.111 105.627 113.094C106.032 113.043 106.352 112.908 106.588 112.672C106.825 112.436 106.943 112.133 106.943 111.745C106.943 111.374 106.841 111.087 106.639 110.851C106.437 110.615 106.133 110.48 105.745 110.446C105.509 110.413 104.835 110.396 103.705 110.396H102.322ZM99.9271 108.423H104.649C105.577 108.423 106.285 108.456 106.74 108.541C107.196 108.625 107.617 108.777 107.971 109.03C108.325 109.283 108.629 109.603 108.882 110.008C109.118 110.413 109.236 110.885 109.236 111.391C109.236 111.947 109.084 112.453 108.798 112.908C108.494 113.364 108.089 113.718 107.583 113.954C108.309 114.156 108.848 114.527 109.236 115.033C109.624 115.539 109.81 116.13 109.81 116.821C109.81 117.361 109.692 117.883 109.439 118.389C109.186 118.895 108.848 119.3 108.41 119.604C107.971 119.907 107.449 120.093 106.808 120.16C106.403 120.194 105.459 120.228 103.924 120.244H99.8934V108.423H99.9271ZM297.054 91.9799V95.3358H298.353C299.297 95.3358 299.921 95.2684 300.241 95.1503C300.562 95.0323 300.798 94.8299 300.984 94.5769C301.169 94.3071 301.253 94.0036 301.253 93.6494C301.253 93.2278 301.135 92.8736 300.865 92.587C300.612 92.3171 300.292 92.1316 299.904 92.0642C299.618 92.0136 299.044 91.9799 298.184 91.9799H297.054ZM294.676 101.795V89.973H298.505C299.955 89.973 300.899 90.0404 301.338 90.1585C302.012 90.3271 302.586 90.715 303.041 91.3221C303.496 91.9124 303.732 92.6882 303.732 93.6157C303.732 94.3409 303.598 94.948 303.345 95.4539C303.075 95.943 302.754 96.3309 302.333 96.6176C301.928 96.9042 301.506 97.0897 301.102 97.1741C300.528 97.2921 299.702 97.3427 298.623 97.3427H297.071V101.795H294.676ZM283.799 95.8755C283.799 97.2078 284.102 98.2196 284.726 98.9111C285.35 99.6025 286.126 99.9398 287.087 99.9398C288.049 99.9398 288.824 99.6025 289.432 98.9111C290.039 98.2196 290.342 97.2078 290.342 95.8249C290.342 94.4758 290.039 93.4639 289.448 92.7893C288.858 92.1147 288.066 91.7943 287.087 91.7943C286.109 91.7943 285.317 92.1316 284.709 92.8062C284.102 93.4976 283.799 94.5264 283.799 95.8755ZM281.337 95.9598C281.337 94.7624 281.505 93.7506 281.876 92.9243C282.146 92.3171 282.517 91.7774 282.972 91.3052C283.445 90.833 283.951 90.4789 284.507 90.2428C285.249 89.9224 286.092 89.7706 287.054 89.7706C288.791 89.7706 290.19 90.3103 291.236 91.3896C292.282 92.4689 292.804 93.9698 292.804 95.8923C292.804 97.798 292.282 99.2989 291.253 100.378C290.224 101.458 288.824 101.997 287.087 101.997C285.334 101.997 283.934 101.458 282.888 100.395C281.86 99.3158 281.337 97.8318 281.337 95.9598ZM274.81 101.795V91.9799H271.302V89.973H280.696V91.9799H277.205V101.795H274.81ZM262.229 95.9092C262.229 97.2246 262.499 98.2365 263.005 98.9448C263.528 99.6531 264.253 100.007 265.214 100.007C266.193 100.007 266.918 99.6531 267.407 98.9448C267.896 98.2365 268.132 97.1741 268.132 95.7743C268.132 94.4083 267.845 93.4302 267.289 92.8062C266.732 92.1822 266.007 91.8618 265.13 91.8618C264.27 91.8618 263.579 92.1822 263.039 92.8231C262.499 93.4471 262.229 94.4758 262.229 95.9092ZM255.534 89.973H257.929V94.9142H259.851C259.986 93.4639 260.509 92.2328 261.386 91.2547C262.28 90.2765 263.562 89.7875 265.265 89.7875C266.901 89.7875 268.182 90.3103 269.144 91.3727C270.105 92.4352 270.594 93.9361 270.594 95.8923C270.594 97.174 270.375 98.2702 269.97 99.164C269.548 100.075 268.958 100.766 268.199 101.272C267.423 101.761 266.479 102.014 265.332 102.014C264.169 102.014 263.241 101.829 262.567 101.458C261.875 101.087 261.285 100.496 260.762 99.6868C260.239 98.8773 259.953 97.9498 259.851 96.9042H257.929V101.812H255.534V89.973ZM246.107 99.8049H248.434C249.193 99.8049 249.716 99.7712 250.003 99.7037C250.289 99.6362 250.559 99.4676 250.778 99.2146C251.015 98.9617 251.116 98.6412 251.116 98.2702C251.116 97.7306 250.913 97.3258 250.525 97.0729C250.138 96.8199 249.463 96.7019 248.536 96.7019H246.107V99.8049ZM243.712 89.973H246.09V94.695H249.278C250.778 94.695 251.875 95.0492 252.549 95.7575C253.224 96.4658 253.561 97.309 253.561 98.2871C253.561 99.0966 253.359 99.7712 252.954 100.345C252.549 100.901 252.077 101.289 251.554 101.491C251.031 101.694 250.273 101.795 249.278 101.795H243.696V89.973H243.712ZM234.235 99.8049H236.562C237.304 99.8049 237.827 99.7712 238.13 99.7037C238.434 99.6362 238.687 99.4676 238.923 99.2146C239.142 98.9617 239.26 98.6412 239.26 98.2702C239.26 97.7137 239.075 97.3258 238.67 97.0729C238.282 96.8199 237.607 96.7019 236.68 96.7019H234.251V99.8049H234.235ZM231.84 89.973H240.677V91.963H234.235V94.695H237.422C238.299 94.695 239.041 94.7962 239.614 95.0154C240.188 95.2347 240.694 95.6225 241.098 96.2128C241.503 96.7862 241.722 97.4776 241.722 98.2534C241.722 99.046 241.52 99.7375 241.098 100.311C240.677 100.884 240.205 101.272 239.682 101.474C239.159 101.677 238.4 101.778 237.422 101.778H231.84V89.973ZM219.967 89.973H222.194V97.8318L226.983 89.973H229.361V101.795H227.135V94.0879L222.362 101.795H219.967V89.973ZM211.299 91.9799V95.3358H212.598C213.542 95.3358 214.166 95.2684 214.486 95.1503C214.807 95.0323 215.043 94.8299 215.229 94.5769C215.414 94.3071 215.498 94.0036 215.498 93.6494C215.498 93.2278 215.363 92.8736 215.11 92.587C214.857 92.3171 214.537 92.1316 214.149 92.0642C213.863 92.0136 213.289 91.9799 212.429 91.9799H211.299ZM208.921 101.795V89.973H212.749C214.2 89.973 215.144 90.0404 215.583 90.1585C216.257 90.3271 216.831 90.715 217.286 91.3221C217.741 91.9124 217.977 92.6882 217.977 93.6157C217.977 94.3409 217.842 94.948 217.589 95.4539C217.32 95.943 216.999 96.3309 216.578 96.6176C216.173 96.9042 215.768 97.0897 215.346 97.1741C214.773 97.2921 213.947 97.3427 212.867 97.3427H211.316V101.795H208.921ZM201.501 101.795V91.9799H197.993V89.973H207.387V91.9799H203.896V101.795H201.501ZM194.89 97.4439L197.2 98.169C196.846 99.4676 196.256 100.412 195.43 101.036C194.603 101.66 193.558 101.98 192.293 101.98C190.725 101.98 189.426 101.441 188.431 100.378C187.419 99.2989 186.913 97.8318 186.913 95.9767C186.913 94.0036 187.419 92.4858 188.431 91.3896C189.443 90.3103 190.775 89.7538 192.445 89.7538C193.895 89.7538 195.059 90.1754 195.969 91.0355C196.509 91.5414 196.914 92.2665 197.184 93.2109L194.823 93.7843C194.688 93.1772 194.401 92.6881 193.946 92.334C193.49 91.9798 192.967 91.8112 192.327 91.8112C191.45 91.8112 190.741 92.1316 190.202 92.7556C189.662 93.3796 189.392 94.4083 189.392 95.808C189.392 97.309 189.662 98.3714 190.202 98.9954C190.741 99.6363 191.433 99.9398 192.293 99.9398C192.934 99.9398 193.474 99.7374 193.929 99.3327C194.35 98.9448 194.688 98.3208 194.89 97.4439ZM175.496 89.973H177.722V97.8318L182.512 89.973H184.89V101.795H182.663V94.0879L177.874 101.795H175.496V89.973ZM166.912 91.963C166.912 95.5551 166.592 98.169 165.934 99.8049H170.42V91.963H166.912ZM164.652 89.973H172.815V99.8049H173.86V104.375H171.87V101.795H164.433V104.375H162.443V99.8049H163.438C163.927 98.793 164.248 97.6294 164.399 96.2802C164.551 94.948 164.636 93.2615 164.636 91.2209V89.973H164.652ZM153.404 87.0386H154.5C154.433 87.7637 154.18 88.3372 153.741 88.7588C153.286 89.1804 152.712 89.3827 151.987 89.3827C151.279 89.3827 150.689 89.1804 150.25 88.7588C149.795 88.3372 149.542 87.7637 149.475 87.0386H150.587C150.621 87.4265 150.756 87.7132 150.992 87.8987C151.228 88.0842 151.566 88.1854 152.004 88.1854C152.443 88.1854 152.78 88.0842 153.016 87.8987C153.235 87.7132 153.37 87.4265 153.404 87.0386ZM147.265 89.973H149.508V97.8318L154.298 89.973H156.675V101.795H154.449V94.0879L149.66 101.795H147.265V89.973ZM142.375 89.973H144.752V101.795H142.375V89.973ZM133.538 99.8049H135.865C136.607 99.8049 137.13 99.7712 137.417 99.7037C137.703 99.6362 137.973 99.4676 138.192 99.2146C138.411 98.9617 138.53 98.6412 138.53 98.2702C138.53 97.7474 138.344 97.3427 137.973 97.0897C137.602 96.8199 136.927 96.7019 135.949 96.7019H133.521V99.8049H133.538ZM131.143 89.973H133.521V94.695H136.708C137.551 94.695 138.26 94.8131 138.867 95.0323C139.474 95.2684 139.98 95.6731 140.385 96.2634C140.789 96.8536 140.992 97.5282 140.992 98.2871C140.992 99.0797 140.789 99.7712 140.368 100.345C139.946 100.918 139.491 101.306 138.968 101.491C138.462 101.677 137.703 101.778 136.725 101.778H131.143V89.973ZM119.169 101.795V89.973H121.564V94.6275H126.235V89.973H128.613V101.795H126.235V96.6344H121.564V101.795H119.169ZM107.246 101.795V89.973H109.641V94.6275H114.312V89.973H116.707V101.795H114.312V96.6344H109.641V101.795H107.246ZM96.2169 101.795V89.973H104.986V91.9799H98.6117V94.5938H104.548V96.5838H98.6117V99.8049H105.206V101.795H96.2169ZM86.6885 96.6513V99.8049H88.8978C89.7579 99.8049 90.2975 99.788 90.5336 99.7374C90.8877 99.67 91.1745 99.5182 91.3937 99.2652C91.6129 99.0122 91.7311 98.675 91.7311 98.2534C91.7311 97.8992 91.6467 97.5957 91.4781 97.3427C91.3094 97.0897 91.0564 96.9042 90.736 96.803C90.4155 96.685 89.7072 96.6344 88.6279 96.6344H86.6885V96.6513ZM86.6885 91.9461V94.6781H88.257C89.1845 94.6781 89.7748 94.6612 89.994 94.6275C90.3988 94.5769 90.7191 94.442 90.9552 94.2059C91.1913 93.9698 91.3095 93.6663 91.3095 93.2784C91.3095 92.9074 91.2082 92.6207 91.0058 92.3846C90.8035 92.1485 90.4999 92.0136 90.112 91.9799C89.8759 91.9461 89.2014 91.9293 88.0715 91.9293H86.6885V91.9461ZM84.3108 89.973H89.0326C89.9602 89.973 90.6685 90.0067 91.1238 90.091C91.5791 90.1753 92.0009 90.3271 92.3551 90.5801C92.7261 90.8331 93.0126 91.1535 93.2656 91.5751C93.5017 91.9798 93.6199 92.452 93.6199 92.958C93.6199 93.5145 93.4681 94.0204 93.1814 94.4926C92.8779 94.948 92.4729 95.3021 91.967 95.5382C92.6922 95.7406 93.232 96.1116 93.6199 96.6176C94.0078 97.1235 94.1932 97.7137 94.1932 98.4052C94.1932 98.9448 94.0752 99.4676 93.8223 99.9735C93.5693 100.479 93.2318 100.884 92.7934 101.188C92.3549 101.491 91.8322 101.677 91.1913 101.744C90.8034 101.795 89.8422 101.812 88.3076 101.829H84.277V89.973H84.3108ZM76.8735 101.795V91.9799H73.3658V89.973H82.7592V91.9799H79.2683V101.795H76.8735ZM70.2626 97.4439L72.573 98.169C72.2189 99.4676 71.6288 100.412 70.8024 101.036C69.9761 101.66 68.9305 101.98 67.6657 101.98C66.0973 101.98 64.7987 101.441 63.8037 100.378C62.7918 99.2989 62.2858 97.8318 62.2858 95.9767C62.2858 94.0036 62.7918 92.4858 63.8037 91.3896C64.8155 90.3103 66.1478 89.7538 67.8174 89.7538C69.2677 89.7538 70.4313 90.1754 71.342 91.0355C71.8816 91.5414 72.2863 92.2665 72.5562 93.2109L70.1953 93.7843C70.0604 93.1772 69.7737 92.6881 69.3183 92.334C68.863 91.9798 68.3403 91.8112 67.6994 91.8112C66.8225 91.8112 66.1142 92.1316 65.5745 92.7556C65.0349 93.3796 64.7649 94.4083 64.7649 95.808C64.7649 97.309 65.0349 98.3714 65.5745 98.9954C66.1142 99.6363 66.8056 99.9398 67.6657 99.9398C68.3065 99.9398 68.8461 99.7374 69.3015 99.3327C69.7399 98.9448 70.0603 98.3208 70.2626 97.4439ZM50.7845 101.795V89.973H53.1791V94.6275H57.8505V89.973H60.2284V101.795H57.8505V96.6344H53.1791V101.795H50.7845ZM38.9457 89.973H41.1717V97.8318L45.9613 89.973H48.339V101.795H46.113V94.0879L41.3236 101.795H38.9457V89.973ZM30.3787 91.963C30.3787 95.5551 30.0581 98.169 29.4004 99.8049H33.8864V91.963H30.3787ZM28.1018 89.973H36.2643V99.8049H37.3099V104.375H35.3198V101.795H27.8826V104.375H25.8927V99.8049H26.8876C27.3767 98.793 27.6972 97.6294 27.849 96.2802C28.0008 94.948 28.0849 93.2615 28.0849 91.2209V89.973H28.1018ZM16.1451 101.795V89.973H24.9144V91.9799H18.5399V94.5938H24.4762V96.5838H18.5399V99.8049H25.1337V101.795H16.1451Z" fill="#BCB5B5"/>
</svg>
