<svg width="234" height="145" viewBox="0 0 234 145" fill="none" xmlns="http://www.w3.org/2000/svg">
<path d="M224.419 141.574C223.44 141.574 222.496 141.574 221.484 141.574C220.118 137.24 218.752 132.906 217.403 128.572C217.369 128.572 217.319 128.589 217.285 128.589C217.285 132.889 217.285 137.206 217.285 141.49C216.779 141.625 213.862 141.658 212.968 141.557C212.833 141.102 212.765 125.367 212.9 124.103C213.322 123.968 218.465 123.917 219.41 124.052C219.612 124.71 219.831 125.384 220.034 126.076C220.81 128.639 221.602 131.186 222.344 133.749C222.58 134.575 222.732 135.419 222.934 136.346C223.204 135.284 223.44 134.272 223.727 133.26C224.014 132.231 224.334 131.203 224.638 130.174C224.941 129.162 225.245 128.15 225.548 127.155C225.852 126.126 226.172 125.098 226.493 124.052C228.651 124.052 230.793 124.052 232.935 124.052C232.935 124.069 232.952 124.069 232.969 124.086C232.986 124.103 233.003 124.119 233.003 124.136C233.019 124.288 233.036 124.423 233.036 124.575C233.036 130.174 233.036 135.773 233.019 141.372C233.019 141.422 232.986 141.49 232.952 141.574C231.535 141.574 230.119 141.574 228.635 141.574C228.635 137.24 228.635 132.923 228.635 128.538C228.314 128.723 228.331 129.01 228.264 129.229C227.033 133.142 225.818 137.054 224.604 140.984C224.553 141.169 224.486 141.355 224.419 141.574Z" fill="#BCB5B5"/>
<path d="M191.402 132.703C191.537 131.691 191.571 130.629 191.824 129.617C192.633 126.446 194.674 124.524 197.895 123.833C199.902 123.394 201.909 123.428 203.882 123.951C206.614 124.676 208.469 126.396 209.295 129.094C210.038 131.472 210.054 133.934 209.346 136.329C208.469 139.28 206.445 141.068 203.427 141.759C201.217 142.265 199.025 142.198 196.883 141.489C194.084 140.562 192.364 138.572 191.74 135.688C191.571 134.727 191.537 133.732 191.402 132.703ZM196.445 132.771C196.478 132.771 196.512 132.787 196.546 132.787C196.546 133.108 196.529 133.428 196.546 133.732C196.63 134.676 196.833 135.604 197.322 136.447C197.811 137.273 198.502 137.813 199.447 137.982C199.969 138.066 200.492 138.117 201.015 138.117C202.668 138.083 203.916 137.122 204.371 135.553C204.86 133.867 204.894 132.147 204.455 130.443C204 128.689 202.921 127.678 201.133 127.56C198.755 127.391 197.389 128.335 196.833 130.393C196.613 131.135 196.563 131.961 196.445 132.771Z" fill="#BCB5B5"/>
<path d="M96.4861 144.744C95.3056 144.744 94.1756 144.744 92.9783 144.744C92.9783 143.716 92.9783 142.704 92.9783 141.624C92.4724 141.607 92.017 141.607 91.5616 141.591C90.1788 141.557 90.6004 141.81 89.8078 140.663C88.4586 138.757 87.1432 136.818 85.8109 134.895C85.6929 134.727 85.558 134.575 85.4062 134.356C84.8497 134.912 84.31 135.418 83.821 135.958C83.686 136.11 83.6355 136.38 83.6355 136.599C83.6186 138.015 83.6355 139.415 83.6355 140.832C83.6355 141.051 83.6355 141.287 83.6355 141.557C82.0502 141.557 80.5492 141.557 79.0314 141.557C78.8797 141.118 78.8122 125.451 78.9471 124.102C79.3519 123.95 82.5055 123.9 83.5848 124.035C83.6017 124.237 83.6186 124.473 83.6186 124.693C83.6186 126.531 83.6186 128.352 83.6186 130.19C83.6186 130.393 83.6354 130.595 83.6691 130.949C83.939 130.679 84.0908 130.528 84.2426 130.359C86.0808 128.386 87.9021 126.413 89.7235 124.423C90.027 124.102 90.3306 123.967 90.7691 123.967C92.1519 123.984 93.5516 123.984 94.9345 123.984C95.12 123.984 95.3055 123.984 95.5753 123.984C95.2549 124.541 94.7996 124.861 94.4455 125.249C94.0576 125.671 93.6528 126.059 93.2481 126.463C92.8602 126.851 92.4724 127.239 92.0845 127.627C91.6966 128.015 91.3088 128.403 90.9209 128.791C90.5161 129.195 90.1282 129.6 89.7235 130.005C89.3356 130.393 88.9646 130.781 88.5598 131.185C89.3862 132.298 90.1619 133.361 90.9545 134.423C92.0844 135.941 93.2144 137.459 94.3274 139.01C94.6141 139.398 94.9008 139.567 95.373 139.516C95.7271 139.483 96.0813 139.516 96.4861 139.516C96.4861 141.253 96.4861 142.973 96.4861 144.744Z" fill="#BCB5B5"/>
<path d="M5.65764 141.575C4.05552 141.575 2.53765 141.575 1.03672 141.575C0.901808 141.086 0.88503 124.778 1.01995 123.985C2.52087 123.968 4.03864 123.985 5.64075 123.985C5.64075 126.296 5.64075 128.539 5.64075 130.798C5.9949 130.798 6.11293 130.562 6.24785 130.411C8.06919 128.437 9.90739 126.447 11.7119 124.457C12.0154 124.12 12.319 123.952 12.7912 123.968C14.1572 124.002 15.5232 123.985 16.9061 123.985C17.1085 123.985 17.3108 123.985 17.5132 123.985C17.5301 124.036 17.5638 124.07 17.5806 124.12C17.0241 124.71 16.4508 125.267 15.8774 125.84C15.2872 126.447 14.6968 127.038 14.1066 127.628C13.5332 128.218 12.943 128.792 12.3696 129.382C11.7962 129.972 11.2228 130.546 10.6156 131.153C10.7337 131.321 10.818 131.49 10.9361 131.625C12.7574 134.104 14.5957 136.566 16.4002 139.045C16.6363 139.366 16.8892 139.517 17.294 139.484C17.6818 139.45 18.0866 139.484 18.5082 139.484C18.5082 141.271 18.5082 142.991 18.5082 144.728C17.3446 144.728 16.2147 144.728 15.0004 144.728C15.0004 143.717 15.0004 142.688 15.0004 141.575C14.3427 141.575 13.7524 141.541 13.1791 141.592C12.6563 141.642 12.3359 141.44 12.0492 141.018C10.6832 138.995 9.28339 136.988 7.90052 134.981C7.7656 134.795 7.63076 134.61 7.44525 134.357C6.87186 134.93 6.29841 135.47 5.79248 136.026C5.67443 136.161 5.67441 136.414 5.67441 136.617C5.65755 138 5.67441 139.399 5.67441 140.782C5.65755 141.035 5.65764 141.271 5.65764 141.575Z" fill="#BCB5B5"/>
<path d="M160.388 134.407C160.388 135.503 160.388 136.515 160.388 137.611C163.711 137.611 166.999 137.611 170.338 137.611C170.338 138.96 170.338 140.225 170.338 141.557C165.448 141.557 160.591 141.557 155.683 141.557C155.683 135.705 155.683 129.887 155.683 124.018C160.489 124.018 165.262 124.018 170.035 124.018C170.17 124.473 170.203 127.104 170.068 127.964C166.864 127.964 163.66 127.964 160.405 127.964C160.405 128.959 160.405 129.887 160.405 130.899C163.221 130.899 166.004 130.899 168.837 130.899C168.837 132.096 168.837 133.209 168.837 134.407C166.004 134.407 163.222 134.407 160.388 134.407Z" fill="#BCB5B5"/>
<path d="M150.638 124.052C150.638 129.87 150.638 135.688 150.638 141.557C149.087 141.557 147.552 141.557 145.933 141.557C145.899 137.054 145.933 132.551 145.916 128.015C144.382 128.015 142.898 128.015 141.329 128.015C141.312 128.234 141.295 128.453 141.295 128.673C141.295 130.545 141.295 132.417 141.279 134.289C141.262 135.553 141.144 136.801 140.773 138.032C140.25 139.803 139.086 140.899 137.315 141.388C135.983 141.776 134.617 141.776 133.251 141.675C133.133 141.658 132.998 141.641 132.88 141.608C132.813 141.591 132.762 141.557 132.678 141.523C132.678 140.258 132.678 138.977 132.678 137.712C133.082 137.712 133.453 137.712 133.841 137.712C135.646 137.729 136.236 137.29 136.573 135.52C136.742 134.575 136.843 133.597 136.86 132.636C136.894 130.022 136.877 127.408 136.877 124.794C136.877 124.541 136.877 124.288 136.877 124.052C137.366 123.951 149.896 123.917 150.638 124.052Z" fill="#BCB5B5"/>
<path d="M116.152 141.506C116.152 135.688 116.152 129.87 116.152 124.018C120.976 124.018 125.731 124.018 130.555 124.018C130.555 125.333 130.555 126.598 130.555 127.981C129.762 127.998 128.969 127.981 128.177 127.981C127.35 127.981 126.541 127.981 125.714 127.981C124.922 127.981 124.112 127.981 123.32 127.981C122.527 127.981 121.718 127.981 120.841 127.981C120.79 128.959 120.824 129.887 120.824 130.899C123.691 130.899 126.49 130.899 129.34 130.899C129.34 132.096 129.34 133.226 129.34 134.407C126.507 134.407 123.724 134.407 120.824 134.407C120.807 135.486 120.807 136.498 120.824 137.611C124.146 137.661 127.435 137.611 130.706 137.644C130.858 138.117 130.892 140.579 130.774 141.489C130.335 141.624 116.793 141.658 116.152 141.506Z" fill="#BCB5B5"/>
<path d="M190.828 124.019C188.416 126.464 186.089 128.791 183.728 131.169C186.274 134.626 188.804 138.05 191.401 141.558C191.114 141.575 190.946 141.592 190.794 141.592C189.243 141.592 187.674 141.575 186.123 141.608C185.701 141.608 185.482 141.457 185.263 141.136C183.88 139.096 182.463 137.072 181.063 135.048C180.928 134.846 180.777 134.643 180.574 134.374C179.984 134.947 179.428 135.487 178.905 136.043C178.787 136.178 178.77 136.431 178.77 136.633C178.753 138.05 178.77 139.45 178.77 140.866C178.77 141.085 178.753 141.322 178.736 141.575C177.168 141.575 175.667 141.575 174.115 141.575C174.115 135.723 174.115 129.904 174.115 124.036C175.65 124.036 177.168 124.036 178.787 124.036C178.787 126.312 178.787 128.555 178.787 130.781C178.837 130.798 178.888 130.815 178.922 130.849C179.073 130.697 179.242 130.545 179.377 130.394C181.198 128.437 183.02 126.481 184.824 124.491C185.161 124.12 185.516 123.968 186.021 123.985C187.371 124.019 188.72 124.002 190.069 124.002C190.271 123.985 190.474 124.002 190.828 124.019Z" fill="#BCB5B5"/>
<path d="M38.812 135.401C40.3973 135.401 41.8813 135.401 43.3991 135.401C43.4328 135.637 43.4497 135.84 43.4666 136.042C43.5846 137.071 44.0736 137.796 45.0855 138.167C46.5358 138.707 48.0031 138.791 49.4703 138.235C50.7182 137.762 51.1905 135.924 50.3304 134.895C50.1617 134.693 49.9087 134.524 49.6558 134.44C49.2004 134.305 48.7114 134.204 48.2392 134.17C47.5309 134.12 46.8057 134.153 46.0974 134.153C45.895 134.153 45.6926 134.153 45.4397 134.153C45.4397 133.142 45.4397 132.214 45.4397 131.185C45.6758 131.168 45.9287 131.168 46.1648 131.152C46.9237 131.118 47.6827 131.168 48.4247 131.017C49.8413 130.747 50.4484 129.398 49.7569 128.116C49.6052 127.829 49.3354 127.559 49.0487 127.425C47.9019 126.902 46.7046 126.8 45.4903 127.155C44.5291 127.441 44.0231 128.082 43.8544 129.044C43.8038 129.33 43.7701 129.617 43.7195 129.937C42.2017 129.937 40.7177 129.937 39.1662 129.937C39.1999 127.846 39.7564 126.042 41.5609 124.844C42.5896 124.153 43.7533 123.849 44.9507 123.714C46.89 123.495 48.8126 123.512 50.7351 123.917C51.6964 124.119 52.5733 124.507 53.3659 125.08C55.221 126.413 55.2548 129.044 54.5465 130.393C54.1248 131.202 53.3996 131.674 52.5901 132.012C52.4046 132.096 52.2192 132.163 51.8987 132.281C52.236 132.383 52.4721 132.45 52.6913 132.518C54.1585 133.04 55.2884 133.9 55.6595 135.519C55.845 136.379 55.8281 137.24 55.6426 138.083C55.4571 138.909 55.0355 139.601 54.3946 140.157C53.5177 140.916 52.5058 141.405 51.3591 141.624C48.8294 142.13 46.2998 142.164 43.7701 141.607C41.0887 141.034 39.4529 139.331 38.9638 136.649C38.9132 136.278 38.8795 135.89 38.812 135.401Z" fill="#BCB5B5"/>
<path d="M36.8896 141.557C35.2538 141.557 33.6854 141.557 32.0496 141.557C31.9652 141.338 31.8641 141.101 31.7967 140.882C31.5774 140.224 31.375 139.567 31.1558 138.892C31.0883 138.673 31.004 138.504 30.7342 138.504C28.7948 138.521 26.8723 138.538 24.9329 138.538C24.916 138.538 24.8991 138.555 24.8148 138.606C24.5112 139.55 24.1908 140.545 23.8535 141.54C22.2177 141.54 20.6324 141.54 18.9966 141.54C19.0809 141.287 19.1315 141.085 19.2158 140.899C21.2733 135.452 23.3476 130.005 25.405 124.557C25.6242 123.967 25.6242 123.967 26.2482 123.967C27.4287 123.967 28.6093 123.984 29.7898 123.967C30.1271 123.967 30.3294 124.052 30.4474 124.389C32.5555 130.005 34.6635 135.621 36.7715 141.219C36.8221 141.304 36.839 141.388 36.8896 141.557ZM30.0258 135.317C29.9415 135.047 29.8909 134.828 29.8235 134.609C29.4524 133.479 29.0814 132.332 28.6767 131.202C28.3563 130.325 28.1202 129.448 28.0865 128.504C28.0865 128.403 28.0359 128.301 28.0022 128.183C27.8673 128.268 27.8166 128.369 27.8166 128.453C27.7491 129.516 27.4456 130.511 27.1083 131.506C26.7542 132.568 26.4338 133.631 26.0965 134.693C26.029 134.878 25.9953 135.081 25.9447 135.3C27.3107 135.317 28.6261 135.317 30.0258 135.317Z" fill="#BCB5B5"/>
<path d="M75.8795 141.574C74.2268 141.574 72.6584 141.574 71.0226 141.574C70.7021 140.579 70.3649 139.584 70.0445 138.555C67.9871 138.555 65.9464 138.555 63.8552 138.555C63.5348 139.55 63.1976 140.545 62.8603 141.574C61.2413 141.574 59.6729 141.574 58.0371 141.574C58.0877 141.388 58.1045 141.219 58.1719 141.068C60.2631 135.536 62.3544 130.022 64.4624 124.49C64.6648 123.967 64.6647 123.967 65.2381 123.967C66.4017 123.967 67.5485 123.967 68.7122 123.967C69.3193 123.967 69.3193 123.967 69.5217 124.524C71.0901 128.672 72.6584 132.838 74.2099 136.986C74.7159 138.353 75.2387 139.702 75.7447 141.068C75.7784 141.203 75.812 141.338 75.8795 141.574ZM64.9177 135.351C66.3174 135.351 67.6497 135.401 69.0157 135.317C68.9314 135.03 68.8639 134.828 68.7965 134.626C68.3411 133.276 67.8858 131.91 67.4473 130.544C67.2787 130.022 67.2112 129.482 67.11 128.942C67.0594 128.689 67.0258 128.419 66.9921 128.15C66.9415 128.15 66.874 128.133 66.8234 128.133C66.6378 130.646 65.5248 132.872 64.9177 135.351Z" fill="#BCB5B5"/>
<path d="M112.628 124.018C112.628 125.35 112.628 126.632 112.628 127.964C110.891 127.964 109.204 127.964 107.433 127.964C107.433 132.534 107.433 137.02 107.433 141.557C105.848 141.557 104.347 141.557 102.762 141.557C102.711 140.41 102.745 139.28 102.745 138.15C102.745 137.037 102.745 135.924 102.745 134.794C102.745 133.664 102.745 132.517 102.745 131.388C102.745 130.275 102.745 129.162 102.745 127.981C100.991 127.981 99.288 127.981 97.6184 127.981C97.4666 127.458 97.4497 124.692 97.5846 124.001C102.543 124.018 107.552 124.018 112.628 124.018Z" fill="#BCB5B5"/>
<path d="M87.0151 51.5859C88.9545 51.6871 90.8939 51.7715 92.8333 51.8727C96.9819 52.0751 101.147 52.2099 105.296 52.5303C109.343 52.8508 113.374 53.3399 117.421 53.7784C123.172 54.4024 128.856 55.3973 134.522 56.5441C144.657 58.6184 154.574 61.4685 164.237 65.2123C174.153 69.0405 183.631 73.7963 192.754 79.2435C193.243 79.547 193.733 79.8675 194.255 80.2048C190.343 86.2759 185.486 91.2508 179.583 95.4501C177.138 91.7062 174.086 88.6201 170.038 86.3265C170.679 85.6857 171.219 85.1292 171.893 84.4546C171.337 84.0161 170.831 83.5944 170.308 83.2065C164.962 79.176 159.262 75.6682 153.326 72.582C141.689 66.5278 129.412 62.1768 116.629 59.3605C111.62 58.2643 106.51 57.4716 101.417 56.7971C97.1674 56.2405 92.8671 56.0381 88.6004 55.7008C88.1619 55.6671 87.7065 55.7008 87.1669 55.7008C87.1163 60.3723 88.2293 64.7739 89.5953 69.3104C89.0725 69.3778 88.6509 69.4622 88.2293 69.4622C70.2351 69.4622 52.2408 69.4622 34.2297 69.4622C32.7794 69.4622 32.7625 69.4622 32.3409 68.1131C31.2616 64.6559 30.5702 61.1143 30.2835 57.4885C30.2329 56.9151 30.2329 56.3249 30.1992 55.566C34.0443 55.4817 37.7881 55.5491 41.5151 55.5322C45.3096 55.5154 49.1041 55.5322 52.9154 55.5322C56.6762 55.5322 60.42 55.5322 64.1808 55.5322C67.9753 55.5322 71.7697 55.5322 75.5811 55.5322C79.325 55.5322 83.0857 55.5322 86.9476 55.5322C86.9813 54.1662 87.0151 52.8845 87.0488 51.5859H87.0151Z" fill="#BCB5B5"/>
<path d="M91.2133 34.0135C91.9216 34.0135 92.4106 34.0135 92.8997 34.0135C98.6842 34.0135 104.485 33.9293 110.27 34.0642C114.655 34.1654 119.023 34.4521 123.39 34.7893C127.438 35.0929 131.502 35.4471 135.533 35.9699C140.086 36.577 144.639 37.3021 149.159 38.1622C156.208 39.4945 163.156 41.2821 169.986 43.4913C180.948 47.0159 191.421 51.6199 201.354 57.4381C201.506 57.5224 201.658 57.6237 201.911 57.7923C201.304 65.4656 198.875 72.5317 194.777 79.3786C192.264 74.0832 188.099 70.8116 183.141 68.2313C183.579 66.9665 183.984 65.7522 184.456 64.3525C183.107 63.29 181.775 62.1433 180.358 61.1145C173.933 56.4263 166.934 52.7836 159.615 49.7311C150.626 45.9704 141.351 43.2215 131.806 41.3158C126.224 40.2028 120.608 39.3596 114.941 38.8031C107.015 38.0442 99.072 37.6732 91.1121 37.9767C90.7579 37.9936 90.3869 37.9598 90.0327 37.943C89.9653 37.943 89.8978 37.8417 89.7123 37.69C90.0833 36.6106 90.4712 35.4977 90.9097 34.1654C71.9879 34.1654 53.2516 34.1654 34.3467 34.1654C34.4816 33.6932 34.5322 33.3895 34.6502 33.1366C36.6739 28.7013 39.3048 24.6707 42.4753 20.9775C42.9644 20.4041 43.5041 20.2017 44.2293 20.2017C62.2741 20.2185 80.3189 20.2186 98.3637 20.2354C98.7516 20.2354 99.1563 20.286 99.7297 20.3028C98.077 22.5627 96.4918 24.6707 95.0077 26.8293C93.5405 29.0048 92.3938 31.3658 91.2133 34.0135Z" fill="#BCB5B5"/>
<path d="M100.169 20.3192C100.894 18.8183 102.31 18.0426 103.339 16.5754C98.4822 16.5754 93.8614 16.5754 89.2237 16.5754C84.5186 16.5754 79.8134 16.5754 75.1083 16.5754C70.4537 16.5754 65.7991 16.5754 61.1277 16.5754C56.49 16.5754 51.8692 16.5753 47.1978 16.3898C55.5119 8.5816 65.3101 3.80903 76.4237 1.76845C90.2187 -0.761203 103.424 1.17825 116.224 7.62042C111.771 10.1163 107.741 12.7471 104.149 16.1031C104.57 16.5247 105.042 16.3561 105.447 16.3224C111.788 15.6647 118.163 15.4285 124.538 15.5466C129.917 15.6478 135.297 15.749 140.66 16.1538C150.256 16.8958 159.75 18.2787 169.11 20.5722C175.299 22.09 181.404 23.8607 187.239 26.441C190.123 27.7227 192.855 29.3079 195.671 30.7751C196.498 31.2136 197.037 31.8544 197.442 32.7313C200.832 39.9998 202.383 47.6057 202.08 55.6162C202.063 55.8355 202.029 56.0547 201.995 56.4426C201.81 56.2402 201.658 56.139 201.608 56.021C200.157 52.53 197.594 49.9329 194.659 47.69C192.568 46.0879 190.309 44.7725 187.779 43.9799C187.138 43.7775 186.733 43.4064 186.767 42.7319C186.851 40.8262 185.671 39.8987 184.22 38.9711C177.896 34.9574 171.151 31.8376 164.169 29.1899C156.209 26.1711 148.046 23.9113 139.682 22.3935C135.567 21.6515 131.384 21.1624 127.219 20.6396C120.979 19.8639 114.689 19.7458 108.398 19.8807C105.919 19.9313 103.44 20.1674 100.961 20.3023C100.725 20.3361 100.523 20.3192 100.169 20.3192Z" fill="#BCB5B5"/>
<path d="M90.9442 72.9526C90.5226 71.7721 90.1179 70.659 89.6457 69.3436C90.2865 69.3436 90.7249 69.3099 91.1465 69.3436C94.0809 69.5797 96.9985 69.7989 99.9329 70.0688C102.547 70.3049 105.144 70.5409 107.741 70.8951C112.075 71.5191 116.409 72.1431 120.71 72.9357C133.257 75.2967 145.18 79.5296 156.479 85.449C163.191 88.9737 169.802 92.7176 176.463 96.3603C176.699 96.4952 176.902 96.6638 177.121 96.8156C174.591 99.8174 158.452 105.922 154.185 105.45C153.41 102.516 151.318 100.492 148.806 98.5526C149.733 98.1985 150.475 97.9118 151.352 97.5745C151.066 97.2878 150.846 97.0179 150.593 96.8156C142.751 90.2722 134.016 85.2298 124.521 81.5196C117.067 78.6021 109.377 76.4604 101.518 74.9595C98.55 74.3861 95.5651 73.9138 92.5801 73.4079C92.1922 73.3404 91.8043 73.3911 91.2646 73.3911C93.4064 78.3661 96.3576 82.7001 99.798 86.7138C99.7474 86.815 99.6799 86.9162 99.6293 87.0005C98.2971 87.0005 96.9648 87.0005 95.6156 87.0005C78.785 87.0005 61.9713 86.9837 45.1407 87.0343C43.6904 87.0343 42.7122 86.6296 41.8184 85.4828C39.0358 81.9581 36.5568 78.2479 34.7017 74.1499C34.6005 73.9138 34.4994 73.6609 34.415 73.4416C34.4825 73.3404 34.4994 73.3067 34.5162 73.273C34.5499 73.2393 34.5837 73.2055 34.6174 73.1886C34.7523 73.1549 34.8872 73.1043 35.0052 73.1043C53.556 73.0875 72.0899 73.0706 90.6406 73.0538C90.7081 73.0875 90.7418 73.0538 90.9442 72.9526Z" fill="#BCB5B5"/>
<path d="M47.4338 90.7445C66.0351 90.7445 84.6533 90.7445 103.592 90.7445C102.361 89.446 101.332 88.3666 100.169 87.1355C100.523 87.0681 100.725 86.9669 100.911 86.9838C107.825 88.0463 114.706 89.2941 121.434 91.2167C129.057 93.409 136.444 96.1579 143.24 100.307C145.584 101.74 147.76 103.443 150.003 105.045C150.323 105.265 150.576 105.568 150.896 105.872C144.168 108.148 121.957 104.101 117.151 99.75C121.165 100.205 125.027 101.706 129.192 101.184C129.276 100.323 128.855 99.8176 128.383 99.4297C127.337 98.5865 126.291 97.6926 125.111 97.0518C120.406 94.4546 115.33 92.8694 110.118 91.7563C108.23 91.3516 106.341 90.8963 104.081 90.93C107.774 94.4715 111.805 97.0518 116.223 99.5309C105.751 104.961 94.8226 107.137 83.338 106.293C69.6442 105.282 57.5523 100.307 47.2988 91.1324C47.3326 91.0143 47.3832 90.8794 47.4338 90.7445Z" fill="#BCB5B5"/>
<path d="M87.0477 51.5521C86.5755 51.6533 86.1034 51.8388 85.6312 51.8388C67.7381 51.8556 49.845 51.8388 31.952 51.8388C31.4123 51.8388 30.8895 51.7882 30.2318 51.7714C30.2318 51.2654 30.1981 50.8607 30.2318 50.4728C30.5185 46.594 31.1931 42.7657 32.3905 39.0556C32.7615 37.9088 32.7615 37.9089 34.0095 37.8752C34.6335 37.8583 35.2742 37.8752 35.9151 37.8752C53.454 37.8752 70.976 37.8919 88.5149 37.8919C88.7847 37.8919 89.0546 37.8919 89.4088 37.8919C89.4088 38.2124 89.4762 38.4823 89.3919 38.7184C87.9921 42.9007 87.4188 47.2348 87.0309 51.6027C87.0141 51.5858 87.0477 51.5521 87.0477 51.5521Z" fill="#BCB5B5"/>
<path d="M117.388 7.38432C141.521 -5.97222 178.623 0.908355 194.593 27.9756C194.323 27.7564 194.02 27.5709 193.767 27.318C188.927 22.2924 183.159 18.8183 176.38 17.0476C175.924 16.9295 175.401 16.744 175.064 16.4236C172.518 13.8771 169.381 12.2918 166.092 10.9596C161.134 8.9527 155.974 7.68782 150.712 6.79401C144.506 5.74842 138.249 5.32687 131.959 5.47865C127.254 5.5967 122.599 6.22066 118.012 7.24938C117.827 7.28311 117.607 7.33373 117.388 7.38432Z" fill="#BCB5B5"/>
</svg>
