<svg width="307" height="121" viewBox="0 0 307 121" fill="none" xmlns="http://www.w3.org/2000/svg">
<path fill-rule="evenodd" clip-rule="evenodd" d="M0.770508 0.579102V120.097H306.453V0.579102H0.770508ZM285.019 102.372H22.2051C20.1645 102.372 18.4781 100.703 18.4781 98.6452V22.0137C18.4781 19.9731 20.1477 18.2866 22.2051 18.2866H285.019C287.059 18.2866 288.746 19.9562 288.746 22.0137V98.6452C288.746 100.703 287.059 102.372 285.019 102.372Z" fill="#BCB5B5"/>
<path fill-rule="evenodd" clip-rule="evenodd" d="M264.139 71.8984C264.156 72.0337 264.156 72.1859 264.156 72.3381C264.156 72.3381 264.156 72.3212 264.156 72.3043C264.156 72.169 264.139 72.0337 264.139 71.8984Z" fill="#1F4398"/>
<path fill-rule="evenodd" clip-rule="evenodd" d="M88.65 88.4761C84.1135 92.8271 77.4016 93.8221 67.5191 93.8221H53.471C33.7904 93.8221 27.5337 89.2013 27.5337 73.2476V64.5456H46.388C46.388 65.3551 46.3037 66.1815 46.3037 66.9066C46.3037 74.8835 48.2937 77.4131 56.1862 77.4131H65.2592C72.5108 77.4131 73.7757 74.698 73.7757 68.0703V27.208H93.9117V74.5124C93.9117 80.2295 91.8374 85.3899 88.65 88.4761Z" fill="#BCB5B5"/>
<path fill-rule="evenodd" clip-rule="evenodd" d="M167.372 50.3284C167.372 45.0668 164.016 42.8913 156.764 42.8913H140.625C127.572 42.8913 124.401 44.6114 124.401 55.8599V65.0173C124.401 75.3551 128.837 77.4294 140.625 77.4294H152.329C163.476 77.4294 167.928 76.2489 167.928 68.3733C167.928 68.1034 167.928 67.9179 167.928 67.6481H188.334C188.418 69.3683 188.519 70.9198 188.519 72.4544C188.519 80.6168 186.614 86.0471 181.909 89.4874C176.917 93.1976 169.041 93.9227 157.523 93.9227H135.043C124.62 93.9227 117.268 93.4674 111.568 89.0321C106.036 84.6811 103.945 78.6942 103.945 69.7224V51.7788C103.945 32.0138 112.562 26.3979 135.043 26.3979H157.523C169.041 26.3979 176.832 26.9376 181.639 30.6646C185.905 33.9194 187.71 39.3666 187.71 47.2591C187.71 48.4396 187.71 49.7045 187.626 50.9693H167.405C167.372 50.7669 167.372 50.4971 167.372 50.3284Z" fill="#BCB5B5"/>
<path fill-rule="evenodd" clip-rule="evenodd" d="M260.024 72.0671C260.024 68.5256 257.848 66.2658 254.492 66.2658H217.323V78.1383H254.492C258.034 78.1551 260.024 75.9796 260.024 72.0671ZM257.848 47.4283C257.848 44.1735 255.757 41.998 252.688 41.998H217.323V52.8755H252.688C256.044 52.8586 257.848 50.953 257.848 47.4283ZM197.187 93.0969V27.208H256.583C271.356 27.208 278.524 33.1948 278.524 45.607C278.524 52.6731 275.438 57.0241 268.827 59.5706C277.175 60.9367 280.8 65.8273 280.8 75.2545C280.8 87.9364 274.274 93.1138 259.669 93.1138H197.187V93.0969Z" fill="#BCB5B5"/>
<path fill-rule="evenodd" clip-rule="evenodd" d="M47.5846 38.6081C47.5677 38.5406 47.3484 37.8996 47.3146 37.8321C47.264 37.7141 47.1628 37.6466 47.011 37.6297C46.8761 37.6128 46.2856 37.5791 46.2856 37.5791L46.7748 39.0805C46.7748 39.0805 47.3484 39.0805 47.399 39.0805C47.7195 39.0636 47.6015 38.6925 47.5846 38.6081Z" fill="#BCB5B5"/>
<path fill-rule="evenodd" clip-rule="evenodd" d="M49.0678 36.8032C48.663 35.6058 47.7017 35.454 47.1115 35.3697C46.5381 35.2685 33.5863 33.1605 32.8274 33.0424C32.7094 33.0255 32.5407 32.9918 32.3552 32.975C31.8661 32.9075 31.259 32.9412 31.3434 33.9025C31.3602 34.1723 31.4613 34.5265 31.5963 34.9481C31.7649 35.4877 35.4919 47.259 35.4919 47.259C35.9641 48.9286 37.1109 48.4395 37.4145 48.3552C37.718 48.2709 49.8941 44.4596 50.1134 44.3921C51.5637 43.9368 51.0409 42.7394 50.9735 42.5202C50.906 42.2841 49.1352 37.0393 49.0678 36.8032ZM39.708 46.6013C39.5394 46.6519 38.3757 46.9892 38.2408 47.0229C37.5156 47.1916 36.605 47.1916 36.2508 46.0785L34.8005 41.5589L36.5881 41.4408C36.5881 41.4408 37.3302 43.7681 37.3808 43.9368C37.5495 44.4258 37.6506 44.6113 38.1565 44.4933C38.5275 44.409 38.5107 44.2572 38.4095 43.9368C38.3758 43.8018 36.2172 36.8369 36.2172 36.8369L35.2053 36.7526L34.4632 34.3072L38.4432 34.8975L39.084 37.0561L38.1565 36.9718C38.1565 36.9718 40.4332 44.2909 40.5176 44.5101C40.7705 45.3365 40.956 46.1966 39.708 46.6013ZM45.3576 44.9992C45.2396 45.0498 45.2395 45.0667 45.1215 45.1004C45.0034 45.1341 43.7892 45.4883 43.6712 45.5051C43.5531 45.5389 42.4064 45.893 42.0185 44.7463C41.9848 44.6451 39.5394 36.6345 39.4045 36.2298C39.1852 35.5721 39.4213 34.9987 40.3489 35.1336C40.5175 35.1673 41.7993 35.3697 42.0185 35.4034C42.2377 35.4371 43.4182 35.6395 43.7386 36.7357C43.8229 37.0055 44.4469 38.9281 44.4469 38.9281L42.946 38.9112C42.946 38.9112 42.6593 37.9837 42.6087 37.815C42.4569 37.4271 42.457 37.3259 42.0016 37.2585C41.5463 37.2079 41.5631 37.3934 41.6643 37.7138C41.7149 37.8825 43.0978 42.419 43.1484 42.6213C43.317 43.1441 43.3507 43.3465 43.8398 43.2453C44.2614 43.1441 44.1771 42.9249 44.0759 42.537C44.0422 42.4021 43.6037 41.053 43.6037 41.053L45.1046 40.9349C45.1046 40.9349 45.8636 43.3465 45.9142 43.4646C45.9479 43.5995 46.2683 44.5776 45.3576 44.9992ZM49.2195 43.9199C49.0509 43.9705 47.0778 44.5101 47.0778 44.5101L44.2614 35.7744C44.2614 35.7744 46.6899 36.1286 46.9091 36.1623C47.921 36.331 48.3594 37.1404 48.4775 37.5115C48.5112 37.6295 48.7979 38.5233 48.8317 38.6245C49.1015 39.3665 48.41 39.7544 48.41 39.7544C48.41 39.7544 49.2027 39.9062 49.4725 40.547C49.4725 40.547 49.9785 42.0311 50.0291 42.166C50.0797 42.3178 50.4506 43.4983 49.2195 43.9199Z" fill="#BCB5B5"/>
<path fill-rule="evenodd" clip-rule="evenodd" d="M48.3775 40.9856C48.2257 40.6988 47.9895 40.7157 47.8714 40.7326C47.7534 40.7326 47.2979 40.7494 47.2979 40.7494L47.8883 42.4532C47.8883 42.4532 48.4112 42.352 48.4618 42.3351C48.7486 42.2677 48.698 41.8965 48.6642 41.8122C48.6305 41.7447 48.4112 41.0531 48.3775 40.9856Z" fill="#BCB5B5"/>
<path fill-rule="evenodd" clip-rule="evenodd" d="M27.4976 27.208V54.2921H54.5985V27.208H27.4976ZM50.4836 44.9156C50.062 45.0505 37.9198 48.9124 37.768 48.963C37.4307 49.0642 35.643 49.8568 35.0022 47.7993C35.0022 47.7993 31.0728 35.4378 30.9547 35.0668C30.7692 34.4934 30.668 33.9875 30.6512 33.6333C30.6512 32.0312 32.169 32.3516 32.4894 32.3854C32.8099 32.4359 46.959 34.7632 47.33 34.8307C47.701 34.8981 49.0839 35.0331 49.6404 36.6352C49.7416 36.9387 51.5124 42.2341 51.5967 42.504C51.9003 43.4652 51.7653 44.4771 50.4836 44.9156Z" fill="#BCB5B5"/>
</svg>
