<svg width="181" height="121" viewBox="0 0 181 121" fill="none" xmlns="http://www.w3.org/2000/svg">
<path fill-rule="evenodd" clip-rule="evenodd" d="M5.5623 96.7939L6.52348 96.7096L15.1074 100.808L23.9445 100.706L22.5784 98.3118H23.7757L35.5976 105.513L28.5484 102.309L17.3336 102.511L18.1768 104.214L10.0987 99.3067L5.5623 96.7939ZM145.317 64.1615C147.02 60.0635 149.213 56.1172 151.894 52.3396C154.491 48.6969 157.257 45.8131 160.09 43.6713C162.94 41.5295 165.52 40.4334 167.814 40.4334C169.315 40.4334 170.529 40.9561 171.406 41.9511C172.317 42.9798 172.772 44.3459 172.772 46.0323C172.772 47.9717 172.182 50.4339 170.984 53.3683C171.878 54.3127 172.317 55.0548 172.317 55.5101C172.317 55.8136 172.114 56.2521 171.743 56.8086C170.209 59.1527 168.438 62.3401 166.431 66.3707C164.407 70.4013 162.721 74.1789 161.372 77.6361H161.389C165.47 74.2632 168.539 71.1939 170.529 68.4619C173.16 64.6168 175.251 61.3114 176.786 58.5794C177.393 57.4495 178.034 56.8761 178.691 56.8761C179.602 56.8761 180.091 57.4157 180.091 58.4445C180.091 59.4901 179.433 61.2777 178.135 63.8073C176.836 66.337 175.251 68.8328 173.413 71.2444C169.534 76.4386 164.222 81.363 157.527 86.0176C156.178 89.205 154.946 92.0551 153.833 94.5847H178.911V111.5H144.98C140.882 117.402 136.969 120.353 133.242 120.353C131.336 120.353 129.819 119.662 128.706 118.313C127.609 116.964 127.036 115.092 127.036 112.748C127.036 112.697 127.036 112.646 127.036 112.596H132.686C132.989 113.506 133.647 113.979 134.675 113.979C135.772 113.979 137.104 113.152 138.605 111.5C139.448 110.589 140.342 109.408 141.303 107.975C143.546 104.636 145.941 100.167 148.504 94.5847C149.027 93.4379 149.55 92.2574 150.09 91.0095V91.0264C148.622 91.7347 147.189 92.5442 145.806 93.4717H138.335C138.436 93.3874 138.537 93.303 138.639 93.2187C139.87 92.1731 144.845 88.9183 153.53 83.4543C155.216 79.4406 156.532 76.2532 157.442 73.9597C153.412 78.7154 150.073 81.1101 147.476 81.1101C146.143 81.1101 145.013 80.4524 144.086 79.137C140.983 74.668 143.496 68.5462 145.317 64.1615ZM137.053 94.6016H144.288H147.509C144.423 101.786 139.431 109.054 136.986 111.516H136.362H128.031H120.358C120.189 111.533 120.037 111.533 119.885 111.516C116.833 111.314 105.602 111.112 102.971 110.808C101.031 110.589 97.0512 108.97 95.0612 108.127C92.3123 109.341 86.7471 111.668 84.4872 111.516C81.4348 111.314 70.2033 111.112 67.5725 110.808C65.6499 110.589 61.653 108.97 59.663 108.127C56.9141 109.341 51.3489 111.668 49.089 111.516C46.0366 111.314 34.8051 111.112 32.1743 110.808C30.2517 110.589 26.2548 108.97 24.2648 108.127C21.5159 109.341 15.9506 111.668 13.6908 111.516C12.1224 111.415 8.44603 111.314 4.85393 111.196L0.25 103.051L4.85393 94.9051C8.44603 94.7871 12.1393 94.6859 13.6908 94.5847C15.9506 94.4329 21.5328 96.7602 24.2648 97.9745C26.2548 97.1312 30.2349 95.5122 32.1743 95.293C34.8051 94.9894 46.0366 94.7871 49.089 94.5847C51.3489 94.4329 56.931 96.7602 59.663 97.9745C61.653 97.1312 65.6331 95.5122 67.5725 95.293C70.2033 94.9894 81.4348 94.7871 84.4872 94.5847C86.7471 94.4329 92.3292 96.7602 95.0612 97.9745C97.0512 97.1312 101.031 95.5122 102.971 95.293C105.602 94.9894 116.833 94.7871 119.885 94.5847C120.02 94.5678 120.172 94.5678 120.324 94.5847L137.053 94.6016ZM130.325 107.823C130.308 107.874 130.291 107.924 130.274 107.975L129.734 108.11L125.485 105.209L130.325 107.823ZM160.984 62.5931C160.461 61.9523 160.191 61.4632 160.191 61.1765C160.191 60.8223 160.478 60.3502 161.051 59.7431C162.771 57.888 164.239 55.9317 165.436 53.8911C166.633 51.8505 167.224 50.2316 167.224 49.0848C167.224 47.9043 166.735 47.3141 165.773 47.3141C164.542 47.3141 162.822 48.427 160.596 50.6025C158.37 52.778 156.228 55.527 154.205 58.7818C152.636 61.2946 151.304 63.9085 150.241 66.59C149.162 69.2714 148.639 71.3457 148.639 72.7623C148.639 74.3138 149.23 75.1064 150.41 75.1064C151.759 75.1064 153.631 73.5549 156.06 70.435C157.594 68.445 158.893 66.4888 159.955 64.5831C160.697 63.3351 161.034 62.6605 161.001 62.6268V62.5931H160.984ZM104.657 45.8636C107.625 43.2834 109.801 41.9849 111.133 41.9849C111.723 41.9849 112.246 42.2378 112.718 42.71C113.19 43.216 113.443 43.7725 113.443 44.3965C113.443 45.2903 112.752 46.6732 111.369 48.5451C109.244 51.5638 107.743 54.1778 106.934 56.3027C116.159 45.8131 122.466 40.5683 125.855 40.5683C126.564 40.5683 127.188 40.8381 127.727 41.3778C128.267 41.9174 128.537 42.592 128.537 43.334C128.537 44.582 127.694 46.1841 125.99 48.1404C118.553 56.8761 114.809 64.0434 114.809 69.558C114.809 71.1938 114.927 72.3575 115.164 72.9984C115.4 73.6392 116.158 74.8703 117.406 76.641C117.727 77.0289 117.896 77.5686 117.896 78.1926C117.896 78.9347 117.592 79.6598 117.035 80.3007C116.462 80.9415 115.804 81.2618 115.113 81.2618C113.663 81.2618 112.347 80.1657 111.217 77.9902C110.087 75.8147 109.497 73.3188 109.497 70.5699C109.497 67.5849 109.986 64.7349 110.964 62.0366C111.942 59.3551 113.663 56.1004 116.108 52.3733C112.836 55.2234 109.733 58.6974 106.816 62.7617C103.898 66.8429 101.453 71.0927 99.4797 75.5112C98.5858 77.5011 97.5065 78.5131 96.2923 78.5131C94.9769 78.5131 94.2855 77.636 94.2855 75.9159C94.2855 74.28 95.0781 71.3625 96.6128 67.1971C98.1643 63.0316 100.053 58.748 102.262 54.3801C95.5334 60.2489 90.4404 68.2426 87.0507 78.3275C86.7471 79.1538 86.393 79.8284 86.0051 80.3512C86.2243 80.7897 86.3256 81.3293 86.3256 81.9365C86.3256 82.7628 86.0556 83.4543 85.5159 83.9771C84.9763 84.5167 84.2849 84.7865 83.4923 84.7865C81.4686 84.7865 79.7652 83.8759 78.3824 82.0376C76.9995 80.1994 76.3081 77.889 76.3081 75.1064C76.3081 74.3813 76.3924 72.9984 76.5273 71.0084H76.5442C72.6654 78.6311 69.0059 82.4593 65.6161 82.4593C63.8623 82.4593 62.4119 81.6498 61.3325 80.0477C60.2532 78.4624 59.6968 76.3544 59.6968 73.8078C59.6968 70.4181 60.4556 66.5899 61.9903 62.3401C63.5249 58.1072 65.5656 54.0935 68.1458 50.3665C72.9353 43.3341 77.7247 39.8263 82.4805 39.8263C84.0151 39.8263 85.3136 40.3321 86.3592 41.3271C87.4216 42.339 87.9445 43.5533 87.9445 44.9868C87.9445 45.8806 87.6073 47.196 86.9665 48.8824C87.5398 49.7762 87.8432 50.6363 87.8432 51.3614C87.8432 52.2215 87.2868 53.7224 86.2243 55.7968C84.9258 58.2252 83.7284 61.2271 82.6828 64.8023C81.6373 68.3776 81.1144 71.1096 81.1144 72.9815C81.1144 74.7185 81.3674 76.0003 81.8565 76.8097C81.924 76.9278 81.9914 77.0289 82.0926 77.1469C83.7285 72.3238 88.5516 62.6943 94.2855 56.1509C97.4729 52.4577 100.998 49.051 104.657 45.8636ZM83.7622 49.5738C82.8515 47.7019 81.7553 46.7744 80.541 46.7744C77.6404 46.7744 74.453 49.6581 71.0464 55.4426C67.3025 61.8173 65.4138 67.197 65.4138 71.5817C65.4138 73.8247 66.1557 74.9546 67.6567 74.9546C69.107 74.9546 70.7092 73.6561 72.3956 71.0927C74.0989 68.5125 76.3588 63.9928 79.1583 57.5844C80.4399 54.6837 81.3336 52.8118 81.789 51.9854C82.2443 51.1759 82.919 50.3496 83.7622 49.5738ZM60.8436 23.7208C62.2434 19.336 63.4068 15.8114 64.2332 13.1806C45.48 29.5727 26.8281 64.7349 14.9388 88.0751C13.7077 90.453 12.4261 91.6335 11.0939 91.6335C10.4024 91.6335 9.79519 91.3467 9.28926 90.7734C8.76646 90.1831 8.51356 89.4917 8.51356 88.716C8.51356 75.3594 48.8361 16.6547 65.3631 2.67412C66.7629 1.47676 68.0615 0.869629 69.1914 0.869629C70.1021 0.869629 70.9283 1.2912 71.6366 2.10069C72.3449 2.92704 72.716 3.92213 72.716 5.03517C72.716 6.21567 72.1595 8.32372 71.0971 11.3593C69.3094 16.5872 67.6398 21.9163 66.1388 27.3129C64.6716 32.524 58.7018 59.1865 57.3695 68.1752C56.0203 77.1808 55.3458 83.5218 55.3458 87.1476C55.3458 90.2675 54.5193 91.8189 52.8666 91.8189C51.6861 91.8189 50.7419 91.2118 50.0673 90.0313C49.3759 88.8508 49.0217 87.2318 49.0217 85.1913C48.5158 65.6961 54.705 42.0523 60.8436 23.7208ZM99.058 98.2106L112.752 96.7096L121.336 100.808L123.545 102.511L124.388 104.214L116.31 99.3067L102.886 99.1043L114.253 104.956L112.668 104.619L99.058 98.2106ZM112.752 106.727L115.467 106.424L119.295 110.336L115.72 110.538L112.752 106.727ZM63.643 98.2106L77.3368 96.7096L85.9209 100.808L94.7578 100.706L93.3917 98.3118H94.589L106.411 105.513L99.3617 102.309L88.1469 102.511L88.9901 104.214L80.912 99.3067L67.4881 99.1043L78.8546 104.956L77.2695 104.619L63.643 98.2106ZM95.1118 107.924L90.1032 105.226L94.353 108.127L95.1118 107.924ZM77.3368 106.727L80.0519 106.424L83.8801 110.336L80.3049 110.538L77.3368 106.727ZM28.2447 98.2106L41.9386 96.7096L50.5225 100.808L59.3596 100.706L57.9934 98.3118H59.1907L71.0127 105.513L63.9635 102.309L52.7487 102.511L53.5919 104.214L45.5138 99.3067L32.073 99.1043L43.4395 104.956L41.8544 104.619L28.2447 98.2106ZM59.6968 107.924L54.6881 105.226L58.9379 108.127L59.6968 107.924ZM41.9217 106.727L44.6368 106.424L48.4651 110.336L44.8898 110.538L41.9217 106.727ZM24.2985 107.924L19.2899 105.226L23.5395 108.127L24.2985 107.924ZM0.941495 103.32L1.63278 103.354L13.0668 110.319L6.79337 110.403L0.941495 103.32ZM130.291 58.7311C126.732 59.1359 126.733 62.7617 128.672 63.47C131.016 64.3132 132.449 63.1496 134.895 63.9423C135.772 64.2289 136.902 63.723 135.721 66.708C135.165 68.0909 134.389 69.3894 133.529 70.6542C131.471 73.7067 129.532 75.2245 127.744 75.2245C127.087 75.2245 126.513 74.9209 126.075 74.3306C125.619 73.7572 125.4 72.9984 125.4 72.1214C125.4 70.5362 125.754 68.6474 126.446 66.455C127.34 63.6049 122.921 62.1715 121.15 66.455C120.037 69.1702 119.919 71.9359 119.919 74.3644C119.919 76.8772 120.425 78.8503 121.42 80.2838C122.415 81.7004 123.764 82.4255 125.485 82.4255C130.156 82.4255 135.013 77.7373 140.038 68.3776C144.642 59.7262 146.97 52.5757 146.97 46.943C146.97 42.71 145.435 40.5851 142.366 40.5851H142.349C139.094 40.5851 135.316 43.0473 131.05 47.9717C129.549 49.7087 128.014 51.4795 126.901 53.6044C125.215 56.8424 130.173 58.1409 133.208 53.6044C134.186 52.1372 135.35 51.0073 136.413 49.9785C138.082 48.3596 139.398 47.5164 140.291 47.5164C140.747 47.5164 141.151 47.7188 141.472 48.1235C141.792 48.5283 141.978 48.9836 141.978 49.4895C141.978 51.5301 141.135 54.9535 139.094 57.9891C138.757 58.4782 137.677 59.3552 137.037 59.2203C134.844 58.7312 132.686 58.4444 130.291 58.7311Z" fill="#BCB5B5"/>
</svg>
