<svg width="68" height="120" viewBox="0 0 68 120" fill="none" xmlns="http://www.w3.org/2000/svg">
<path d="M29.4028 114.83H30.8025V115.302H29.8244V116.162H30.3471V116.584H29.8244V118.22H29.4195V116.584H29.1329V116.162H29.4195V114.83H29.4028ZM28.3572 116.736C28.3572 116.989 28.3403 117.174 28.2897 117.309C28.2391 117.478 28.1379 117.613 28.0198 117.714C27.9018 117.815 27.75 117.865 27.5982 117.865C27.4464 117.865 27.3116 117.815 27.2273 117.714C27.1429 117.613 27.1091 117.478 27.1091 117.326C27.1091 117.225 27.126 117.14 27.1597 117.056C27.1935 116.972 27.244 116.904 27.3283 116.871C27.3958 116.82 27.514 116.786 27.6826 116.752C27.9862 116.685 28.2055 116.618 28.3572 116.533V116.736ZM28.762 116.803V116.027C28.762 115.774 28.7619 115.589 28.7451 115.505C28.7282 115.353 28.6775 115.218 28.61 115.117C28.5426 115.015 28.4584 114.931 28.3235 114.864C28.1886 114.796 28.0198 114.763 27.8175 114.763C27.6151 114.763 27.4297 114.796 27.261 114.881C27.1092 114.965 26.9742 115.083 26.8898 115.218C26.8055 115.37 26.7381 115.555 26.7044 115.808L27.1091 115.892C27.1597 115.656 27.2271 115.488 27.3115 115.386C27.3958 115.285 27.5476 115.252 27.7331 115.252C27.9354 115.252 28.1041 115.319 28.2053 115.454C28.2896 115.555 28.3235 115.707 28.3235 115.943C28.3235 115.96 28.3235 116.01 28.3235 116.095C28.1717 116.179 27.9186 116.23 27.5813 116.297C27.4127 116.331 27.2947 116.348 27.2104 116.381C27.0923 116.432 27.0079 116.483 26.9067 116.567C26.8224 116.651 26.7549 116.752 26.6875 116.904C26.6369 117.039 26.6033 117.191 26.6033 117.36C26.6033 117.646 26.6707 117.882 26.8225 118.051C26.9743 118.237 27.1767 118.321 27.4296 118.321C27.5983 118.321 27.7501 118.287 27.885 118.203C28.0199 118.135 28.1717 118 28.3235 117.815C28.3403 117.967 28.3571 118.119 28.4077 118.237H28.8462C28.7956 118.102 28.7619 117.967 28.7451 117.832C28.7788 117.68 28.762 117.343 28.762 116.803ZM40.0779 116.736C40.0779 116.989 40.0609 117.174 40.0103 117.309C39.9597 117.478 39.8587 117.613 39.7407 117.714C39.6226 117.815 39.4708 117.865 39.319 117.865C39.1673 117.865 39.0322 117.815 38.9479 117.714C38.8636 117.613 38.8299 117.478 38.8299 117.326C38.8299 117.225 38.8468 117.14 38.8806 117.056C38.9143 116.972 38.9648 116.904 39.0492 116.871C39.1166 116.82 39.2346 116.786 39.4032 116.752C39.7068 116.685 39.9261 116.618 40.0779 116.533V116.736ZM40.4826 116.803V116.027C40.4826 115.774 40.4826 115.589 40.4657 115.505C40.4488 115.353 40.3983 115.218 40.3309 115.117C40.2634 115.015 40.179 114.931 40.0441 114.864C39.9092 114.796 39.7405 114.763 39.5381 114.763C39.3357 114.763 39.1503 114.796 38.9816 114.881C38.8299 114.965 38.695 115.083 38.6107 115.218C38.5264 115.37 38.4589 115.555 38.4252 115.808L38.8299 115.892C38.8805 115.656 38.948 115.488 39.0323 115.386C39.1166 115.285 39.2684 115.252 39.4539 115.252C39.6563 115.252 39.825 115.319 39.9261 115.454C40.0105 115.555 40.0441 115.707 40.0441 115.943C40.0441 115.96 40.0441 116.01 40.0441 116.095C39.8923 116.179 39.6395 116.23 39.3022 116.297C39.1335 116.331 39.0153 116.348 38.931 116.381C38.813 116.432 38.7287 116.483 38.6276 116.567C38.5432 116.651 38.4758 116.752 38.4083 116.904C38.3577 117.039 38.3239 117.191 38.3239 117.36C38.3239 117.646 38.3914 117.882 38.5432 118.051C38.6949 118.237 38.8973 118.321 39.1502 118.321C39.3189 118.321 39.4707 118.287 39.6056 118.203C39.7405 118.135 39.8923 118 40.0441 117.815C40.061 117.967 40.0779 118.119 40.1285 118.237H40.567C40.5164 118.102 40.4826 117.967 40.4657 117.832C40.4994 117.68 40.4826 117.343 40.4826 116.803ZM32.5227 117.613C32.4046 117.697 32.219 117.747 31.966 117.747H31.5275V116.634H32.0167C32.3034 116.634 32.489 116.685 32.5564 116.803C32.6408 116.921 32.6744 117.056 32.6744 117.191C32.6913 117.393 32.6407 117.528 32.5227 117.613ZM32.0673 116.162H31.5444V114.83H31.1397V118.22H32.1684C32.5057 118.22 32.7419 118.119 32.9105 117.916C33.0623 117.714 33.1466 117.478 33.1466 117.191C33.1466 116.871 33.0623 116.618 32.8768 116.432C32.6575 116.247 32.4046 116.162 32.0673 116.162ZM23.0281 114.83H23.4328V118.22H23.0281V116.719H21.8812V118.22H21.4765V114.83H21.8812V116.247H23.0281V114.83ZM37.9529 117.68H38.2059V119.535H37.8181V118.237H37.6662L37.1097 116.972C36.9748 116.651 36.8567 116.449 36.8061 116.348C36.6712 116.145 36.5027 116.061 36.334 116.061V118.253H35.8955V113.565H36.334V115.623C36.5533 115.623 36.7218 115.538 36.823 115.37C36.8736 115.285 36.9579 115.049 37.076 114.678C37.1772 114.375 37.2446 114.155 37.3121 114.02C37.447 113.717 37.6662 113.582 37.9361 113.582C38.1047 113.582 38.1891 113.582 38.2059 113.582V114.122C38.1891 114.122 38.1553 114.122 38.1215 114.122C38.0878 114.122 38.0542 114.122 38.0373 114.122C37.8856 114.122 37.7505 114.206 37.6662 114.341C37.6156 114.425 37.5481 114.594 37.4807 114.864C37.3964 115.167 37.3289 115.353 37.2783 115.471C37.194 115.639 37.076 115.774 36.9242 115.876C37.1435 115.96 37.3459 116.23 37.5651 116.719L37.9529 117.68ZM10.8352 113.801C10.9026 113.734 10.9363 113.616 10.97 113.481H11.2568C11.2399 113.751 11.1725 113.953 11.0544 114.088C10.9364 114.223 10.7845 114.307 10.5822 114.307C10.3798 114.307 10.228 114.24 10.1099 114.088C9.99187 113.936 9.92442 113.734 9.90756 113.481H10.1943C10.2112 113.633 10.2617 113.734 10.3292 113.801C10.3966 113.869 10.481 113.902 10.5822 113.902C10.6834 113.919 10.7677 113.886 10.8352 113.801ZM25.6757 117.747H24.3602C24.5794 117.225 24.6976 116.398 24.7314 115.302H25.6757V117.747ZM26.0804 114.83H24.394C24.4108 116.23 24.259 117.208 23.9723 117.747H23.7531V119.181H24.0905V118.22H25.9962V119.181H26.3334V117.747H26.0635V114.83H26.0804ZM20.414 114.763H20.8187V118.152H20.414V114.763ZM1.88012 116.23L2.25109 114.864C2.33541 114.56 2.38598 114.273 2.43657 113.97C2.48716 114.223 2.57151 114.543 2.6727 114.948L3.02699 116.247H1.88012V116.23ZM2.20065 113.481L0.918945 118.169H1.39099L1.76216 116.752H3.16183L3.54967 118.169H4.05569L2.68958 113.481H2.20065ZM8.47413 116.668C8.47413 116.921 8.4572 117.107 8.40661 117.242C8.35601 117.41 8.25477 117.545 8.13672 117.646C8.01867 117.747 7.86689 117.798 7.71511 117.798C7.56333 117.798 7.42847 117.747 7.34415 117.646C7.25983 117.545 7.22619 117.41 7.22619 117.258C7.22619 117.157 7.2431 117.073 7.27683 116.989C7.31056 116.904 7.36111 116.837 7.44543 116.803C7.51289 116.752 7.63087 116.719 7.79952 116.685C8.10307 116.618 8.32235 116.55 8.47413 116.466V116.668ZM8.89574 116.736V115.977C8.89574 115.724 8.89572 115.538 8.87886 115.454C8.86199 115.302 8.81148 115.167 8.74402 115.066C8.67656 114.965 8.59216 114.881 8.45725 114.813C8.32234 114.746 8.15361 114.712 7.95124 114.712C7.74887 114.712 7.56343 114.746 7.39479 114.83C7.24301 114.914 7.10815 115.032 7.02382 115.167C6.9395 115.319 6.87207 115.504 6.83834 115.757L7.24307 115.842C7.29366 115.606 7.36111 115.437 7.44543 115.336C7.52975 115.235 7.68153 115.201 7.86704 115.201C8.06941 115.201 8.2379 115.268 8.33908 115.403C8.42341 115.505 8.45725 115.656 8.45725 115.892C8.45725 115.909 8.45725 115.96 8.45725 116.044C8.30547 116.129 8.0524 116.179 7.71511 116.247C7.54647 116.28 7.42847 116.297 7.34415 116.331C7.2261 116.365 7.14189 116.432 7.0407 116.516C6.95638 116.601 6.88892 116.702 6.82146 116.854C6.77087 116.989 6.73706 117.14 6.73706 117.309C6.73706 117.596 6.80452 117.832 6.9563 118C7.10808 118.186 7.31044 118.27 7.58027 118.27C7.74892 118.27 7.90073 118.237 8.03564 118.152C8.17056 118.085 8.32235 117.95 8.47413 117.764C8.491 117.916 8.50774 118.068 8.55833 118.186H8.99682C8.94623 118.051 8.9126 117.916 8.89574 117.781C8.9126 117.613 8.89574 117.275 8.89574 116.736ZM5.9276 117.41C5.79269 117.646 5.64083 117.764 5.42159 117.764C5.21922 117.764 5.0507 117.663 4.91578 117.444C4.78087 117.242 4.71342 116.938 4.71342 116.533C4.71342 116.129 4.78085 115.825 4.8989 115.572C5.01695 115.336 5.20235 115.218 5.42159 115.218C5.64083 115.218 5.80955 115.336 5.9276 115.555C6.04565 115.774 6.11308 116.078 6.11308 116.432C6.11308 116.854 6.04565 117.174 5.9276 117.41ZM5.43847 114.763C5.26983 114.763 5.10113 114.813 4.96622 114.931C4.8313 115.032 4.7133 115.201 4.59525 115.42C4.59525 115.1 4.62906 114.847 4.67966 114.644C4.73025 114.442 4.81463 114.29 4.94954 114.206C5.06759 114.105 5.30355 114.071 5.64083 114.071C5.8938 114.071 6.06254 114.054 6.16373 114.037C6.24805 114.004 6.31551 113.953 6.38297 113.869C6.43356 113.784 6.46719 113.616 6.48405 113.397H6.11308C6.09622 113.447 6.07929 113.464 6.04556 113.481C6.01183 113.498 5.84335 113.498 5.57352 113.498C5.11818 113.498 4.78073 113.649 4.56149 113.97C4.34226 114.273 4.24117 114.881 4.24117 115.791C4.24117 116.5 4.27482 117.005 4.37601 117.292C4.47719 117.579 4.57854 117.815 4.74718 118C4.89896 118.186 5.1349 118.27 5.42159 118.27C5.67455 118.27 5.86023 118.203 6.012 118.068C6.16378 117.933 6.28179 117.731 6.38297 117.478C6.48416 117.225 6.53469 116.904 6.53469 116.499C6.53469 115.977 6.43361 115.572 6.21437 115.252C6.012 114.914 5.75889 114.763 5.43847 114.763ZM19.5201 117.545C19.4021 117.629 19.2167 117.68 18.9637 117.68H18.5252V116.567H19.0143C19.301 116.567 19.4864 116.618 19.5539 116.736C19.6382 116.854 19.6721 116.989 19.6721 117.123C19.6889 117.326 19.6382 117.461 19.5201 117.545ZM19.0481 116.095H18.5252V114.763H18.1205V118.152H19.1492C19.4865 118.152 19.7395 118.051 19.8913 117.849C20.0431 117.646 20.1274 117.41 20.1274 117.123C20.1274 116.803 20.0431 116.55 19.8576 116.365C19.6552 116.179 19.3854 116.095 19.0481 116.095ZM11.088 114.763H11.5265V118.152H11.1217V115.572L9.97508 118.152H9.53659V114.763H9.94132V117.343L11.088 114.763ZM15.0006 116.668C15.0006 116.921 14.9837 117.107 14.9331 117.242C14.8825 117.41 14.7813 117.545 14.6632 117.646C14.5452 117.747 14.3934 117.798 14.2416 117.798C14.0898 117.798 13.955 117.747 13.8706 117.646C13.7863 117.545 13.7527 117.41 13.7527 117.258C13.7527 117.157 13.7696 117.073 13.8033 116.989C13.837 116.904 13.8876 116.837 13.9719 116.803C14.0394 116.752 14.1574 116.719 14.326 116.685C14.6296 116.618 14.8488 116.55 15.0006 116.466V116.668ZM15.4222 116.736V115.977C15.4222 115.724 15.4222 115.538 15.4053 115.454C15.3885 115.302 15.338 115.167 15.2705 115.066C15.203 114.965 15.1187 114.881 14.9837 114.813C14.8488 114.746 14.6801 114.712 14.4777 114.712C14.2754 114.712 14.0899 114.746 13.9213 114.83C13.7695 114.914 13.6346 115.032 13.5503 115.167C13.466 115.302 13.3986 115.504 13.3648 115.757L13.7696 115.842C13.8201 115.606 13.8876 115.437 13.9719 115.336C14.0562 115.235 14.208 115.201 14.3935 115.201C14.5959 115.201 14.7646 115.268 14.8658 115.403C14.9501 115.505 14.9837 115.656 14.9837 115.892C14.9837 115.909 14.9837 115.96 14.9837 116.044C14.832 116.129 14.5789 116.179 14.2416 116.247C14.073 116.28 13.955 116.297 13.8706 116.331C13.7526 116.365 13.6684 116.432 13.5672 116.516C13.4829 116.601 13.4154 116.702 13.3479 116.854C13.2974 116.989 13.2635 117.14 13.2635 117.309C13.2635 117.596 13.331 117.832 13.4828 118C13.6346 118.186 13.8369 118.27 14.0899 118.27C14.2585 118.27 14.4103 118.237 14.5452 118.152C14.6802 118.085 14.832 117.95 14.9837 117.764C15.0006 117.916 15.0175 118.068 15.0681 118.186H15.5064C15.4558 118.051 15.4222 117.916 15.4053 117.781C15.4391 117.613 15.4222 117.275 15.4222 116.736ZM15.7425 114.763H17.7157V115.235H16.9401V118.152H16.5353V115.235H15.7594V114.763H15.7425ZM33.4332 114.83H33.8381V118.22H33.4332V114.83ZM61.4617 105.42L62.2207 106.398L61.9846 106.752L61.4786 106.094L61.445 106.145L60.6018 105.875C60.4669 105.824 60.3488 105.808 60.2813 105.824C60.1632 105.841 60.0789 105.892 60.0114 106.01L60.8377 107.072L60.5512 107.494L58.7803 105.184L59.0671 104.762L59.8428 105.757C59.944 105.605 59.9947 105.437 59.961 105.268C59.961 105.217 59.9102 105.032 59.809 104.745C59.7416 104.543 59.708 104.408 59.6911 104.323C59.6574 104.155 59.6574 104.003 59.6911 103.885C59.7248 103.801 59.7754 103.683 59.8766 103.531L59.9272 103.447L60.1802 103.767L60.0958 103.885C60.0115 104.003 59.9777 104.104 59.9945 104.222C59.9945 104.256 60.0284 104.374 60.1127 104.576C60.1801 104.779 60.2138 104.914 60.2307 105.015C60.2475 105.15 60.2306 105.302 60.1969 105.47C60.3487 105.335 60.6017 105.319 60.9221 105.403L61.3944 105.538L61.4617 105.42ZM63.0133 98.5053C62.8278 98.3704 62.6929 98.1848 62.6255 97.9487C62.558 97.7126 62.558 97.4766 62.6423 97.2405C62.7267 96.9706 62.8616 96.802 63.0639 96.7177C63.182 96.6671 63.3507 96.684 63.5531 96.7683L63.0133 98.5053ZM64.3625 96.6165L64.1433 97.1393C64.2782 97.3079 64.3626 97.4934 64.3963 97.6789C64.43 97.8645 64.4131 98.05 64.3625 98.2355C64.2782 98.4885 64.1433 98.6739 63.9747 98.7751C63.7892 98.8763 63.5699 98.8594 63.317 98.7245L64.0251 96.3972C63.9745 96.3635 63.9409 96.3467 63.924 96.3298C63.553 96.1106 63.2325 96.0768 62.9458 96.2118C62.6591 96.3467 62.4567 96.6334 62.3218 97.055C62.1869 97.4934 62.1869 97.8982 62.3218 98.286C62.4399 98.6739 62.693 98.9943 63.0808 99.2136C63.4518 99.4328 63.7722 99.4665 64.042 99.3147C64.3287 99.163 64.5311 98.8594 64.6829 98.4041C64.8009 98.0331 64.8179 97.7127 64.7673 97.3923C64.6998 97.1056 64.5649 96.8357 64.3625 96.6165ZM64.4636 88.1674L66.521 88.6228L66.4537 89.1961L64.0589 88.6734L64.2781 86.7509L64.6155 86.8183L64.4636 88.1674ZM64.8852 95.8745C64.5985 95.4191 64.0759 95.0144 63.3338 94.6265L63.6204 93.3786L65.2899 94.1374L64.8852 95.8745ZM65.4081 93.5809L63.418 92.6871L62.8953 94.9301C63.8566 95.3517 64.4637 95.8238 64.7504 96.3804L64.6829 96.667L65.6611 97.1055L65.7622 96.6502L65.1045 96.3467L65.6947 93.8002L66.3524 94.1037L66.4537 93.6483L65.4754 93.2099L65.4081 93.5809ZM66.6223 59.768L67.651 59.8016V60.2739L66.9595 60.257V60.3244L66.2007 60.9147C66.0826 61.0159 65.9814 61.1002 65.9308 61.1676C65.8465 61.2857 65.8128 61.4037 65.8128 61.5724L66.9426 61.6061V62.1796L64.5143 62.1289V61.5556L65.5598 61.5892C65.5598 61.37 65.5093 61.2183 65.425 61.1171C65.3913 61.0834 65.2731 60.999 65.0538 60.881C64.902 60.7967 64.8179 60.7292 64.7673 60.6786C64.6661 60.5774 64.5818 60.4762 64.5649 60.3413C64.548 60.2401 64.5311 60.1052 64.5311 59.9028V59.7848L64.8683 59.8016V59.9535C64.8683 60.1052 64.8853 60.2233 64.9527 60.2908C64.9696 60.3076 65.054 60.375 65.2057 60.4594C65.3407 60.5437 65.4417 60.6112 65.5092 60.6786C65.5767 60.7629 65.6441 60.8809 65.6947 61.0496C65.7453 60.7966 65.914 60.5605 66.2007 60.3413L66.6223 60.004V59.768ZM66.2682 86.2281C66.0996 86.3799 65.8634 86.4304 65.543 86.3798C65.2394 86.3124 65.0201 86.1775 64.8852 85.9582C64.7503 85.739 64.6998 85.486 64.7335 85.1993C64.7672 84.9126 64.8685 84.6935 65.0371 84.5417C65.2058 84.3899 65.4418 84.3393 65.7453 84.3898C66.0657 84.4573 66.285 84.5922 66.4199 84.8115C66.5548 85.0307 66.6054 85.2837 66.5717 85.5704C66.5379 85.8402 66.4369 86.0595 66.2682 86.2281ZM66.4706 84.1368C66.3019 83.9682 66.0658 83.8671 65.7622 83.7996C65.3743 83.7322 65.0709 83.8165 64.8179 84.0694C64.5649 84.3224 64.43 84.6766 64.3794 85.1319C64.3288 85.5535 64.3962 85.9245 64.548 86.2449C64.7335 86.6328 65.037 86.8689 65.4923 86.9533C65.8971 87.0376 66.2176 86.9532 66.4706 86.7003C66.7235 86.4473 66.8585 86.0931 66.9091 85.6209C66.9428 85.3342 66.9259 85.0475 66.8415 84.7777C66.7572 84.5079 66.6392 84.3055 66.4706 84.1368ZM42.6582 116.769C42.7256 116.904 42.7424 117.073 42.7424 117.275C42.7424 117.579 42.658 117.832 42.5062 118.017C42.3545 118.203 42.1185 118.304 41.8487 118.304C41.2922 118.304 40.9716 117.967 40.8873 117.275L41.2752 117.157C41.3089 117.376 41.3764 117.545 41.4944 117.663C41.5956 117.781 41.7305 117.849 41.8654 117.849C42.0003 117.849 42.1185 117.798 42.2197 117.68C42.304 117.562 42.3545 117.427 42.3545 117.258C42.3545 117.123 42.3209 117.005 42.2703 116.921C42.2197 116.82 42.1521 116.769 42.0846 116.736C42.0172 116.719 41.8992 116.702 41.7305 116.702C41.7137 116.702 41.68 116.702 41.6295 116.702V116.247C41.7981 116.247 41.9161 116.23 41.9835 116.213C42.051 116.196 42.1016 116.145 42.169 116.061C42.2196 115.977 42.2534 115.876 42.2534 115.741C42.2534 115.589 42.2196 115.454 42.1353 115.37C42.0678 115.268 41.9668 115.235 41.8487 115.235C41.6126 115.235 41.4608 115.42 41.3596 115.808L40.9717 115.724C41.0898 115.083 41.3934 114.763 41.8487 114.763C42.1017 114.763 42.304 114.864 42.4558 115.066C42.6076 115.268 42.675 115.505 42.675 115.774C42.675 116.044 42.5738 116.263 42.3883 116.432C42.5063 116.516 42.5907 116.634 42.6582 116.769ZM66.1669 75.4854L66.9259 74.8783V75.5192L66.1669 76.1095C66.0152 76.2276 65.9141 76.3455 65.8635 76.4298C65.8129 76.5142 65.796 76.6322 65.796 76.7671L66.9259 76.8009V77.3743L64.4974 77.3068V76.7335L65.543 76.7671C65.543 76.5816 65.526 76.4468 65.4754 76.3793C65.4248 76.3118 65.2901 76.1938 65.0371 76.042C64.8516 75.9239 64.7166 75.8228 64.666 75.7553C64.5985 75.6879 64.5649 75.6035 64.548 75.5023C64.5312 75.418 64.5143 75.2662 64.5143 75.0638V74.9459L64.8515 74.9626V75.1145C64.8515 75.2663 64.8684 75.3674 64.9021 75.4011C64.9358 75.4517 65.0371 75.5192 65.2057 75.6204C65.3575 75.7047 65.4755 75.7891 65.5261 75.8734C65.5935 75.9408 65.6441 76.0589 65.6947 76.2107C65.7115 75.9577 65.8802 75.7047 66.1669 75.4854ZM66.5379 73.7485C66.4704 73.8665 66.3694 73.9171 66.2682 73.9171C66.2008 73.9171 66.1333 73.8834 66.0827 73.8328C66.0321 73.7822 65.9814 73.6978 65.9477 73.5966C65.914 73.4955 65.8972 73.3268 65.8635 73.0907C65.8298 72.6691 65.779 72.3656 65.7116 72.1463H65.8635C66.049 72.1463 66.1839 72.1801 66.2682 72.2475C66.3863 72.3318 66.4873 72.4667 66.5548 72.6354C66.6222 72.804 66.6561 73.0064 66.6561 73.2257C66.6392 73.4618 66.6054 73.6304 66.5379 73.7485ZM66.6223 72.1295C66.7403 72.1126 66.8416 72.0789 66.9259 72.0283V71.4212C66.8248 71.4886 66.7404 71.5393 66.6392 71.5561C66.538 71.573 66.3018 71.5899 65.9139 71.573L65.3575 71.5561C65.172 71.5561 65.0539 71.5561 64.9696 71.573C64.8516 71.6067 64.7672 71.6573 64.6829 71.7416C64.6154 71.8259 64.548 71.9608 64.4974 72.1295C64.4468 72.315 64.413 72.5511 64.413 72.8378C64.413 73.1245 64.4299 73.3943 64.4974 73.6135C64.548 73.8328 64.6323 74.0014 64.7335 74.1194C64.8347 74.2375 64.9696 74.3219 65.1551 74.3893L65.2226 73.8328C65.054 73.7653 64.9358 73.6642 64.8683 73.5461C64.8009 73.4112 64.7673 73.2088 64.7673 72.939C64.7673 72.6523 64.8178 72.4331 64.919 72.2813C64.9864 72.1801 65.1044 72.1295 65.2731 72.1295C65.2899 72.1295 65.3238 72.1295 65.3744 72.1295C65.4249 72.3487 65.4755 72.6861 65.5092 73.1583C65.5261 73.3944 65.543 73.563 65.5598 73.6642C65.5936 73.8159 65.6272 73.9509 65.6947 74.0858C65.7453 74.2038 65.8296 74.305 65.9308 74.3893C66.032 74.4736 66.1333 74.5074 66.2513 74.5074C66.4537 74.5074 66.6222 74.423 66.7571 74.2206C66.8921 74.0182 66.9595 73.7316 66.9595 73.3606C66.9595 73.1414 66.9428 72.9221 66.8922 72.7198C66.8416 72.5511 66.7572 72.3318 66.6223 72.1295ZM47.3969 116.955L47.5993 118.372L47.2621 118.456L47.127 117.511L47.0766 117.528L46.5031 116.618C46.4019 116.466 46.3346 116.365 46.2671 116.314C46.166 116.23 46.0647 116.213 45.9635 116.23L46.1827 117.764L45.778 117.882L45.3058 114.56L45.7105 114.442L45.9129 115.876C46.0646 115.842 46.1659 115.741 46.2165 115.589C46.2334 115.538 46.267 115.353 46.3176 115.049C46.3513 114.83 46.3683 114.695 46.402 114.611C46.4526 114.442 46.5031 114.324 46.5875 114.257C46.6549 114.206 46.7562 114.172 46.8911 114.122L46.9753 114.105L47.0428 114.577L46.9247 114.611C46.8066 114.644 46.7392 114.695 46.7054 114.796C46.6886 114.83 46.6718 114.948 46.6381 115.184C46.6044 115.403 46.5874 115.538 46.5537 115.639C46.5031 115.757 46.4356 115.876 46.3345 115.977C46.52 115.994 46.7223 116.179 46.9416 116.516L47.2621 117.022L47.3969 116.955ZM44.7831 116.736C44.7831 116.989 44.7661 117.174 44.7156 117.309C44.665 117.478 44.5637 117.613 44.4457 117.714C44.3276 117.815 44.1758 117.865 44.0241 117.865C43.8723 117.865 43.7374 117.815 43.6531 117.714C43.5688 117.613 43.5351 117.478 43.5351 117.326C43.5351 117.225 43.5518 117.14 43.5856 117.056C43.6193 116.972 43.6698 116.904 43.7542 116.871C43.8216 116.82 43.9398 116.786 44.1085 116.752C44.412 116.685 44.6313 116.618 44.7831 116.533V116.736ZM45.1878 116.803V116.027C45.1878 115.774 45.1878 115.589 45.1709 115.505C45.1541 115.353 45.1033 115.218 45.0359 115.117C44.9684 115.015 44.8842 114.931 44.7493 114.864C44.6144 114.796 44.4457 114.763 44.2433 114.763C44.0409 114.763 43.8555 114.796 43.6869 114.881C43.5351 114.965 43.4002 115.083 43.3159 115.218C43.2316 115.37 43.1639 115.555 43.1302 115.808L43.5351 115.892C43.5857 115.656 43.6532 115.488 43.7375 115.386C43.8218 115.285 43.9736 115.252 44.1591 115.252C44.3615 115.252 44.53 115.319 44.6311 115.454C44.7155 115.555 44.7493 115.707 44.7493 115.943C44.7493 115.96 44.7493 116.01 44.7493 116.095C44.5975 116.179 44.3445 116.23 44.0072 116.297C43.8385 116.331 43.7205 116.348 43.6362 116.381C43.5182 116.432 43.4338 116.483 43.3326 116.567C43.2482 116.651 43.181 116.752 43.1135 116.904C43.0629 117.039 43.0291 117.191 43.0291 117.36C43.0291 117.646 43.0966 117.882 43.2484 118.051C43.4001 118.237 43.6025 118.321 43.8555 118.321C44.0241 118.321 44.1759 118.287 44.3108 118.203C44.4457 118.135 44.5975 118 44.7493 117.815C44.7662 117.967 44.7829 118.119 44.8335 118.237H45.272C45.2214 118.102 45.1878 117.967 45.1709 117.832C45.2047 117.68 45.1878 117.343 45.1878 116.803ZM50.7191 114.122L49.8255 114.51L50.2302 116.365L49.8424 116.533L49.4376 114.678L48.5269 115.066L48.4256 114.611L49.1678 114.29L47.8017 112.503L48.2401 112.317L49.2184 113.616C49.3196 113.751 49.4206 113.886 49.4881 114.02C49.5049 113.886 49.5219 113.7 49.5556 113.447L49.8086 111.643L50.2809 111.44L49.8759 113.987L50.6181 113.666L50.7191 114.122ZM52.6923 111.457L53.5187 114.644L53.1308 114.847L52.4225 112.098L51.3938 112.621L51.8154 114.206C51.9166 114.577 51.9671 114.83 51.984 114.948C52.0008 115.083 51.9841 115.201 51.9167 115.336C51.8661 115.471 51.7648 115.572 51.613 115.639C51.5287 115.69 51.4107 115.724 51.2927 115.774L51.1745 115.319L51.3431 115.235C51.4274 115.201 51.4782 115.15 51.5119 115.117C51.5457 115.083 51.5457 115.032 51.5457 114.965C51.5457 114.914 51.5118 114.746 51.4275 114.459L50.888 112.351L52.6923 111.457ZM58.8647 109.012C58.831 109.18 58.7128 109.4 58.5273 109.636L58.207 110.041L57.6672 109.231L58.0215 108.759C58.2239 108.489 58.3924 108.354 58.5105 108.371C58.6285 108.371 58.7129 108.438 58.7972 108.54C58.8815 108.674 58.8985 108.843 58.8647 109.012ZM58.5105 107.848C58.2912 107.882 58.0553 108.067 57.8023 108.388L57.4144 108.877L56.7736 107.916L56.4699 108.303L58.1226 110.783L58.8816 109.804C59.1346 109.484 59.2526 109.18 59.2695 108.877C59.2863 108.59 59.2189 108.337 59.084 108.118C58.9322 107.899 58.7466 107.797 58.5105 107.848ZM58.46 105.723L60.1127 108.202L59.809 108.59L58.1564 106.111L58.46 105.723ZM55.9808 109.248L57.1446 111.659L56.8074 111.98L55.6436 109.568L55.0028 110.175L54.8173 109.788L56.4531 108.253L56.6385 108.641L55.9808 109.248ZM54.1258 110.884L55.104 113.464L54.7497 113.734L53.7717 111.154L53.0802 111.659L52.9285 111.238L54.6655 109.939L54.8173 110.361L54.1258 110.884ZM61.057 98.1849L63.9578 100.529L63.7386 101.069L61.1752 99.0112L60.2982 101.119L62.8616 103.177L62.6423 103.716L59.7417 101.372L61.057 98.1849ZM65.5767 42.4652C65.3575 42.4483 65.1888 42.3303 65.0707 42.1616C64.9527 41.9761 64.8852 41.7568 64.8852 41.487C64.8852 41.2003 64.9696 40.9642 65.1382 40.7787C65.2394 40.6607 65.3912 40.5932 65.5936 40.5764L65.5767 42.4652ZM65.8297 39.9692C65.425 39.9523 65.1213 40.1042 64.8852 40.374C64.666 40.6607 64.548 41.0316 64.5311 41.4701C64.5311 41.9423 64.6322 42.3302 64.8515 42.6169C65.0707 42.9204 65.3912 43.0723 65.796 43.0723C66.1838 43.0891 66.5043 42.9374 66.7236 42.6675C66.9428 42.3808 67.0608 41.9929 67.0608 41.5039C67.0608 41.116 67.0102 40.7787 66.8753 40.5257C66.7404 40.2728 66.5549 40.0872 66.302 39.986L66.2345 40.5764C66.4031 40.6607 66.538 40.7956 66.6054 40.9473C66.6897 41.0991 66.7236 41.2846 66.7236 41.487C66.7236 41.7737 66.6393 42.0098 66.5043 42.1953C66.3526 42.3808 66.1502 42.482 65.8804 42.4988L65.9139 39.9692C65.8971 39.9692 65.8634 39.9692 65.8297 39.9692ZM64.8179 81.3712L64.801 82.754L66.8922 82.8046V83.378L64.4636 83.3105L64.4805 81.3543L64.8179 81.3712ZM65.6274 92.0462C65.543 92.1305 65.4418 92.1644 65.3237 92.1306C65.2563 92.1138 65.1888 92.0631 65.1382 91.9957C65.0876 91.9282 65.054 91.8438 65.0371 91.7258C65.0203 91.6246 65.0203 91.456 65.0371 91.203C65.054 90.7814 65.054 90.461 65.0371 90.2417L65.1889 90.2924C65.3575 90.343 65.4924 90.4273 65.5767 90.5116C65.6779 90.6297 65.7454 90.7815 65.796 90.967C65.8297 91.1525 65.8297 91.3548 65.796 91.5741C65.7791 91.8102 65.7117 91.9619 65.6274 92.0462ZM66.3693 89.8876C66.2681 89.9214 66.167 89.9382 66.0658 89.9382C65.9647 89.9382 65.7285 89.8707 65.3575 89.7527L64.8179 89.5841C64.6324 89.5335 64.5142 89.4997 64.4467 89.4997C64.3287 89.4997 64.2276 89.5335 64.1433 89.5841C64.059 89.6516 63.9746 89.7527 63.9072 89.9213C63.8228 90.0899 63.7723 90.3092 63.7217 90.579C63.6711 90.8657 63.6542 91.1187 63.6879 91.3548C63.7048 91.5909 63.7553 91.7764 63.8396 91.9282C63.924 92.0799 64.042 92.198 64.2106 92.2992L64.3625 91.7764C64.2108 91.6584 64.1095 91.5235 64.0589 91.3886C64.0083 91.2368 64.0083 91.0343 64.0589 90.7645C64.1095 90.4778 64.1938 90.2755 64.295 90.1743C64.3793 90.09 64.4973 90.0732 64.666 90.1238C64.6828 90.1238 64.7167 90.1406 64.7673 90.1574C64.7841 90.3935 64.7841 90.7308 64.7335 91.203C64.7166 91.4391 64.7166 91.6077 64.7166 91.7258C64.7166 91.8776 64.7504 92.0294 64.7841 92.1643C64.8179 92.2992 64.8853 92.4173 64.9696 92.5353C65.0539 92.6534 65.155 92.704 65.2731 92.7546C65.4754 92.8221 65.6442 92.7714 65.8128 92.6197C65.9646 92.4679 66.0826 92.2149 66.15 91.8439C66.1838 91.6246 66.2007 91.4054 66.1669 91.203C66.1501 91.0006 66.0826 90.7646 65.9983 90.5116C66.1164 90.5285 66.2177 90.5285 66.302 90.4947L66.3693 89.8876ZM66.0994 55.9397L63.6035 57.7779L63.6204 57.1539L65.6947 55.6699L63.6542 54.2871V53.6799L66.2345 55.5013C66.5549 55.7374 66.7741 55.906 66.8753 56.0578C66.9765 56.1927 67.027 56.3951 67.027 56.6649C67.027 56.8167 66.9932 57.019 66.9426 57.2551L66.5717 57.2383C66.6391 57.0697 66.673 56.901 66.6898 56.7155C66.6898 56.5638 66.656 56.4288 66.5885 56.3276C66.4874 56.2095 66.3355 56.0747 66.0994 55.9397ZM64.4467 80.3256L66.302 80.3761L64.4636 78.7403V78.1163L66.8922 78.1838V78.7571L65.0538 78.7066L66.8753 80.3424V80.9663L64.4467 80.9158V80.3256ZM66.5717 66.2945L65.7791 66.2776L65.796 65.603C65.796 65.2151 65.8465 64.9621 65.9308 64.8441C66.0151 64.726 66.1164 64.6754 66.2176 64.6754C66.3525 64.6754 66.4536 64.7598 66.521 64.9116C66.5885 65.0634 66.6054 65.3331 66.6054 65.6873L66.5717 66.2945ZM66.9091 65.4344C66.9091 64.9622 66.8416 64.6249 66.7067 64.4057C66.5718 64.1864 66.3862 64.0684 66.1838 64.0684C65.9477 64.0684 65.7623 64.1864 65.6274 64.4393C65.4924 64.6923 65.425 65.0633 65.4081 65.5355L65.3912 66.2607L64.4467 66.2438V66.8173L66.8753 66.8847L66.9091 65.4344ZM65.5598 52.9885L65.5767 51.3864L64.5649 51.3526V50.7793L66.9933 50.8298V51.4032L65.9139 51.3695L65.897 52.9716L66.9764 53.0054V53.5787L64.548 53.5113V52.9378L65.5598 52.9885ZM64.548 49.936V49.3626L66.4031 49.4133L64.5649 47.7774V47.1534L66.9933 47.204V47.7774L65.1551 47.7268L66.9764 49.3626V49.9866L64.548 49.936ZM64.8683 68.2507L64.8515 69.7685L66.0658 69.8022C66.3525 69.8022 66.538 69.8191 66.6223 69.8528C66.7066 69.8865 66.791 69.954 66.8584 70.0721C66.9259 70.1901 66.9595 70.3587 66.9595 70.578C66.9595 70.7129 66.9426 70.8647 66.9426 71.0502L66.6054 71.0333V70.7803C66.6054 70.6623 66.6054 70.5779 66.5885 70.5273C66.5717 70.4767 66.5381 70.443 66.5043 70.4261C66.4706 70.4093 66.3355 70.3925 66.1332 70.3925L64.5311 70.3587L64.5649 67.6941L66.9933 67.7448V68.3181L64.8683 68.2507ZM64.5143 63.0228L66.9426 63.0733V63.6468L64.5143 63.5792V63.0228ZM66.6898 44.9948L66.6729 45.7537L65.9477 45.7368L65.9646 45.0453C65.9646 44.7924 65.9815 44.6069 65.9983 44.5057C66.0152 44.3876 66.0657 44.3034 66.1332 44.2359C66.2006 44.1684 66.2681 44.1347 66.3524 44.1347C66.4873 44.1516 66.5717 44.2022 66.6223 44.3371C66.6729 44.4383 66.7067 44.6744 66.6898 44.9948ZM65.6105 45.72L64.9359 45.7031V45.0622C64.9359 44.7587 64.9697 44.5394 65.0203 44.4214C65.0709 44.3033 65.155 44.2359 65.2899 44.2359C65.3743 44.2359 65.4417 44.2696 65.4923 44.354C65.5429 44.4214 65.5767 44.5057 65.5936 44.6069C65.6105 44.6912 65.6105 44.8599 65.6105 45.1129V45.72ZM65.9983 43.6793C65.8971 43.7805 65.8128 43.9155 65.7791 44.0673C65.7285 43.9324 65.6442 43.8311 65.5598 43.7636C65.4755 43.6962 65.3742 43.6625 65.2562 43.6625C65.1044 43.6625 64.9864 43.7131 64.8852 43.8312C64.784 43.9492 64.6997 44.0841 64.666 44.2359C64.6323 44.3877 64.5987 44.6406 64.5987 44.961L64.5818 46.2933L67.0101 46.3608L67.027 44.8261C67.027 44.4214 66.9765 44.1178 66.8753 43.9155C66.7741 43.6962 66.6054 43.5781 66.3693 43.5613C66.2344 43.5275 66.0995 43.5782 65.9983 43.6793ZM64.2275 19.3104L63.7554 19.2936V18.7202L64.2275 18.737V19.3104ZM64.6997 35.0448C64.5986 34.7919 64.5649 34.5221 64.5649 34.2354C64.5649 33.8643 64.6324 33.5607 64.7841 33.3415C64.9191 33.1054 65.1045 32.9705 65.3575 32.903L65.4081 33.4596C65.2395 33.5102 65.1215 33.5945 65.0371 33.7295C64.9528 33.8644 64.9021 34.033 64.9021 34.2185C64.9021 34.5052 64.9696 34.7412 65.1213 34.9268C65.2731 35.1123 65.5093 35.2135 65.8297 35.2135C66.1501 35.2135 66.3861 35.146 66.5379 34.9605C66.6897 34.7919 66.7572 34.5557 66.774 34.2859C66.774 34.0667 66.7235 33.8643 66.6392 33.7126C66.538 33.5608 66.3862 33.4596 66.1838 33.409L66.2513 32.8525C66.5212 32.9199 66.7404 33.0885 66.9091 33.3415C67.0608 33.5945 67.1452 33.9149 67.1283 34.2859C67.1283 34.7581 67.0101 35.1292 66.7909 35.399C66.5717 35.6688 66.2514 35.8037 65.8466 35.8037C65.5768 35.8037 65.3575 35.7363 65.1551 35.6014C64.9359 35.4833 64.8009 35.2978 64.6997 35.0448ZM66.5043 38.4683C66.3526 38.637 66.1164 38.7212 65.8128 38.7212C65.4924 38.7044 65.2562 38.6201 65.1045 38.4177C64.9358 38.2322 64.8683 38.0129 64.8683 37.7599C64.8683 37.507 64.9527 37.3046 65.1045 37.136C65.2562 36.9673 65.4924 36.8831 65.796 36.8831C66.1164 36.8831 66.3524 36.9842 66.521 37.1697C66.6897 37.3552 66.7571 37.5745 66.7403 37.8275C66.7234 38.0804 66.6561 38.2997 66.5043 38.4683ZM66.7571 38.6876C66.8415 38.5864 66.9258 38.4683 66.9764 38.3165C67.0438 38.1647 67.0608 37.9961 67.0777 37.8106C67.0777 37.5576 67.0271 37.3046 66.9259 37.0517C66.8248 36.8156 66.673 36.63 66.4706 36.4951C66.2682 36.3602 66.0489 36.2928 65.796 36.2928C65.5599 36.2928 65.3575 36.3434 65.1551 36.4446C64.9527 36.5458 64.8009 36.7144 64.6997 36.9336C64.5986 37.1528 64.5311 37.4058 64.5311 37.6925C64.5311 37.9118 64.5649 38.0973 64.6155 38.266C64.683 38.4177 64.7672 38.5695 64.8852 38.6876L64.5649 38.6707V39.1935L67.9209 39.2778V38.7043L66.7571 38.6876ZM67.0608 30.1879L65.2226 30.1373L67.0439 31.7731V32.3971L64.6155 32.3466V31.7731L66.4706 31.8238L64.6322 30.1879V29.5639L67.0608 29.6146V30.1879ZM67.0777 27.9449L64.9865 27.8944L64.9696 28.9906L64.6322 28.9737L64.666 26.2079H65.0034L64.9865 27.3041L67.0777 27.3547V27.9449ZM64.9696 22.6496L64.6322 22.6327L64.666 19.8838H65.0034L64.9865 20.98L67.0777 21.0306V21.604L64.9865 21.5534L64.9696 22.6496ZM67.1114 19.3779L64.6829 19.3104V18.737L67.1114 18.7876V19.3779ZM65.172 23.6276C65.2732 23.5096 65.425 23.4421 65.6274 23.4253L65.6105 25.3141C65.3912 25.2972 65.2225 25.1792 65.1045 25.0105C64.9864 24.825 64.919 24.6058 64.919 24.336C64.9359 24.0493 65.0033 23.8131 65.172 23.6276ZM65.8635 25.9549C66.2514 25.9718 66.5717 25.82 66.7909 25.5333C67.0101 25.2466 67.1283 24.8587 67.1283 24.3697C67.1283 23.9818 67.0607 23.6446 66.9426 23.3916C66.8077 23.1386 66.6223 22.9531 66.3693 22.8519L66.302 23.4422C66.4706 23.5265 66.6055 23.6614 66.6729 23.8132C66.7573 23.965 66.7909 24.1505 66.7909 24.3529C66.7909 24.6396 66.7066 24.8757 66.5717 25.0612C66.4199 25.2467 66.2175 25.3478 65.9477 25.3647L65.9814 22.8351C65.9309 22.8351 65.8972 22.8351 65.8635 22.8351C65.4587 22.8182 65.1551 22.9531 64.919 23.2398C64.6997 23.5265 64.5818 23.8975 64.5649 24.336C64.5649 24.8082 64.666 25.1961 64.8852 25.4828C65.1382 25.7863 65.4419 25.9381 65.8635 25.9549ZM11.8976 82.2144C12.2012 82.1132 12.4371 82.0288 12.572 81.9614V82.2987C12.572 82.7034 12.5553 82.9732 12.5216 83.1081C12.471 83.3274 12.3866 83.5129 12.2517 83.6647C12.0662 83.8671 11.8808 83.9682 11.6784 83.9682C11.4929 83.9682 11.358 83.8839 11.2399 83.7152C11.1219 83.5466 11.0713 83.3442 11.0713 83.1081C11.0713 82.872 11.1386 82.6697 11.2903 82.5179C11.3915 82.4167 11.5941 82.3156 11.8976 82.2144ZM5.21923 76.295H6.39985V79.9883C6.66968 79.9546 6.83823 79.8534 6.93942 79.6847C7.02374 79.5161 7.17552 79.0775 7.36103 78.3355C7.59713 77.3911 7.8502 76.8178 8.10317 76.5817C8.33927 76.3456 8.74393 76.2444 9.28359 76.2444C9.31731 76.2444 9.36787 76.2444 9.45219 76.2444V77.5429H9.28359C9.04749 77.5429 8.86188 77.5936 8.76069 77.6779C8.64264 77.7622 8.55847 77.8971 8.49101 78.0826C8.42355 78.2681 8.32228 78.6391 8.18736 79.2125C8.11991 79.516 8.03556 79.769 7.95124 79.9714C7.86692 80.1738 7.71512 80.3592 7.51275 80.5447C7.76571 80.6628 7.98496 80.8821 8.1536 81.2194C8.32225 81.5566 8.50788 82.0289 8.71026 82.636L8.99682 83.4792H9.48595V86.734H8.49101L8.50789 84.9801L8.10317 84.9969L7.41167 82.7877C7.41167 82.7709 7.41165 82.7708 7.39479 82.754C7.37792 82.7202 7.36101 82.6697 7.34415 82.6022C7.32728 82.5685 7.27675 82.4336 7.19243 82.1975C7.04065 81.7759 6.92265 81.506 6.82146 81.4048C6.72027 81.3036 6.58534 81.2362 6.38297 81.2362V85.0476H5.20234V76.295H5.21923ZM5.91072 22.4978C12.9937 11.6034 22.0499 15.4316 29.3184 22.8013C33.3659 10.4903 45.3395 13.7958 51.613 7.26932C51.613 20.6259 51.4275 35.1292 51.4275 48.4857C45.3058 57.8454 32.3035 51.5045 29.1836 63.6636C24.4278 55.9566 15.3041 53.174 5.8432 61.9603L5.91072 22.4978ZM52.7768 69.1277C50.5001 80.899 50.1121 97.8644 44.8673 107.764L41.8487 100.934L44.0241 91.6246L46.5537 97.1055C46.7055 97.4428 47.009 95.8407 46.5031 94.1711L41.7643 69.1277H47.4138L49.5556 83.4454L50.2471 69.1277H52.7768ZM53.5693 9.04005L55.8122 12.4635L55.5761 51.673L53.5693 48.6712V9.04005ZM30.2123 99.652L30.3302 69.1277H41.4775V99.5677L36.8905 99.6352L36.8061 74.3556H34.9679V99.5509L30.2123 99.652ZM25.4227 77.3406H26.7381V79.5667H25.4902L25.5915 82.248L20.8018 82.1975L20.785 79.5667H19.3347V77.3406H20.8018L20.785 76.666L17.9856 69.1613H23.2979L24.8156 74.6591L25.9793 69.1613L28.5596 69.1277L25.4227 77.0033V77.3406ZM22.8257 92.5185V99.6183H18.2553V85.3005H22.8257V90.1743H24.6976V85.3005H29.2509V99.6183H24.6976V92.5185H22.8257ZM16.7039 82.6191C16.569 82.4842 16.4003 82.4168 16.181 82.4168H15.9956V81.3374C16.1811 81.3374 16.3328 81.3205 16.4172 81.2868C16.5015 81.253 16.5858 81.1519 16.6702 81.017C16.7545 80.8652 16.7881 80.7135 16.7881 80.528C16.7881 80.3256 16.7376 80.14 16.6364 79.9714C16.5352 79.8028 16.4003 79.7184 16.1979 79.7184C16.0461 79.7184 15.9112 79.769 15.7932 79.8533C15.6751 79.9545 15.5741 80.1738 15.4729 80.528L14.5284 80.2243C14.6296 79.6678 14.8319 79.2631 15.1355 78.9764C15.4559 78.7065 15.81 78.5548 16.1979 78.5548C16.7038 78.5548 17.0919 78.7234 17.3785 79.0775C17.6652 79.4317 17.8002 79.8702 17.8002 80.393C17.8002 80.7134 17.7494 80.9832 17.6145 81.2025C17.5639 81.2868 17.5133 81.3543 17.4627 81.4217C17.3447 81.5566 17.2098 81.6241 17.0411 81.7421C17.1592 81.8096 17.311 81.7927 17.7495 82.3661C17.9013 82.6191 17.9856 82.9395 17.9856 83.3274C17.9856 83.8165 17.8338 84.2381 17.5303 84.5922C17.2267 84.9464 16.7882 85.115 16.1979 85.115C15.1861 85.115 14.579 84.5248 14.3429 83.3612L15.3716 83.0744C15.5402 83.6984 15.81 84.002 16.181 84.002C16.3834 84.002 16.5521 83.9176 16.687 83.749C16.8051 83.5804 16.8725 83.3948 16.8725 83.1756C16.9063 82.9395 16.8388 82.754 16.7039 82.6191ZM12.4203 80.0219C12.3191 79.887 12.1168 79.8196 11.8132 79.8196C11.6109 79.8196 11.459 79.8702 11.341 79.9883C11.2229 80.1063 11.1388 80.3087 11.0713 80.5954L10.0593 80.3256C10.1773 79.7185 10.363 79.2631 10.6497 78.9764C10.9364 78.6897 11.3411 78.5379 11.8808 78.5379C12.3867 78.5379 12.7407 78.6223 12.9937 78.8078C13.2298 78.9764 13.4153 79.2125 13.4997 79.4824C13.6009 79.7522 13.6514 80.258 13.6514 80.9663L13.6345 82.9058C13.6345 83.4623 13.6514 83.867 13.6852 84.1368C13.7189 84.3898 13.7863 84.6765 13.8875 84.9801H12.7913C12.7576 84.862 12.7239 84.7103 12.6902 84.491C12.6733 84.3898 12.6565 84.3224 12.6565 84.2887C12.4709 84.5585 12.2686 84.7777 12.0494 84.9126C11.8301 85.0476 11.594 85.115 11.3579 85.115C10.9194 85.115 10.5821 84.9464 10.3292 84.5922C10.0762 84.2381 9.9582 83.7996 9.9582 83.26C9.9582 82.9058 10.0088 82.5854 10.1268 82.3156C10.2449 82.0289 10.3967 81.8265 10.5991 81.6747C10.8014 81.5229 11.105 81.4048 11.4929 81.2868C12.0157 81.135 12.3697 81.0001 12.572 80.882V80.7134C12.572 80.393 12.5215 80.1737 12.4203 80.0219ZM42.2197 106.128H6.41673L6.43361 104.509L42.2365 104.576V106.128H42.2197ZM57.1783 14.5378L58.1226 15.9881V55.5519L57.1783 54.169V14.5378ZM59.5056 18.0793L60.4499 19.5296V59.0934L59.5056 57.7105V18.0793ZM43.5518 111.373C55.1545 109.062 60.7872 102.097 62.3725 83.6985L62.6086 15.3304L52.5575 0.0175781C42.928 13.6777 35.7775 4.19997 28.0705 16.3929C20.0093 9.81579 12.7408 7.38738 1.69464 20.1368V111.322L43.5518 111.373Z" fill="#BCB5B5"/>
</svg>
