<svg width="877" height="120" viewBox="0 0 877 120" fill="none" xmlns="http://www.w3.org/2000/svg">
<path fill-rule="evenodd" clip-rule="evenodd" d="M347.003 45.3992L347.138 26.3087C357.391 26.3087 361.506 26.3256 371.709 26.3087C381.119 26.3087 393.97 24.8921 393.987 35.6515C394.003 46.3435 381.456 45.3992 372.4 45.3992C361.894 45.3992 357.492 45.3992 347.003 45.3992ZM307.304 0.0847102H368.032C372.417 0.00038853 377.173 -0.0333401 382.03 0.0847102H383.379V0.118369C406.146 0.860399 430.987 5.49818 433.668 27.0845C436.603 50.6608 413.161 54.1686 410.531 56.226C452.32 60.324 455.272 115.538 392.317 115.555C377.021 115.555 317.136 116.213 307.287 115.319V8.04462V0.539977V0.0847102H307.304ZM347.222 89.5837L346.952 68.908C358.555 68.908 363.799 68.908 375.115 68.908C384.914 68.908 398.978 67.0361 399.198 78.8917C399.417 90.9834 386.398 89.5837 375.79 89.5837C364.255 89.5837 358.774 89.5837 347.222 89.5837Z" fill="#BCB5B5"/>
<path fill-rule="evenodd" clip-rule="evenodd" d="M681.794 28.9056C688.928 28.9056 694.712 34.6901 694.712 41.8237C694.712 48.9573 688.928 54.7417 681.794 54.7417H644.423V36.4271V29.3441V28.8888H681.726H681.794V28.9056ZM707.074 78.2001C711.543 74.4731 732.421 70.6617 735.051 45.1966C737.126 25.1955 725.894 12.9182 713.212 6.91454C696.348 -1.06229 678.674 0.33741 658.487 0.33741C648.554 0.33741 610.34 -0.20224 604.387 0.556655V115.538L644.271 115.555L644.355 81.7247L664.66 81.7078C665.57 82.0114 690.934 112.266 692.52 115.555H738.374L718.44 91.5735C716.838 89.7353 716.079 88.9427 714.612 87.1719L707.074 78.2001Z" fill="#BCB5B5"/>
<path fill-rule="evenodd" clip-rule="evenodd" d="M499.289 29.3783H578.416L578.45 0.337891L459.775 0.574016V115.572L580.355 115.521L580.102 86.5315H499.204L499.39 70.6959H562.631L562.361 43.8985H499.221L499.289 29.3783Z" fill="#BCB5B5"/>
<path fill-rule="evenodd" clip-rule="evenodd" d="M220.116 119.518C244.114 119.872 268.702 110.85 279.748 88.6564C286.645 74.8276 285.954 64.1189 285.954 47.322C285.954 31.655 285.954 16.0048 286.072 0.337891H245.783V6.03804C245.867 22.9867 246.255 40.4919 245.783 57.255V58.9921H245.732C244.535 96.3465 195.696 96.3465 194.482 58.9921H194.212V44.0334C194.195 40.3064 194.195 36.5625 194.212 32.8186V0.337891H154.159C154.277 16.0048 154.277 31.655 154.277 47.322C154.277 64.1189 153.586 74.8276 160.483 88.6564C171.529 110.85 196.118 119.872 220.116 119.518Z" fill="#BCB5B5"/>
<path fill-rule="evenodd" clip-rule="evenodd" d="M750.904 28.113L751.123 30.8956H793.233C793.992 54.7586 793.3 90.4773 793.3 115.588H833.471V31.0643L875.851 30.8788L876.037 0.388082C833.927 -0.252762 793.149 0.354321 750.516 0.354321L750.904 28.113Z" fill="#BCB5B5"/>
<path d="M95.2538 0.339043L95.2201 22.8866C87.6648 23.5949 80.1265 24.6237 72.6724 25.6524C62.1997 27.1027 51.6258 28.6375 41.035 29.0928V0.322266H0.746094V115.792H41.0181L41.1699 96.1116C48.3372 95.4033 55.4877 94.4251 62.5538 93.447L62.5707 93.4301V93.447C73.6674 91.9124 84.7642 90.3777 95.2201 89.973L95.2369 115.826L135.391 115.809V0.339043H95.2538ZM33.1424 40.9484C46.7014 41.1676 60.6482 39.2282 74.6118 37.2888C87.5805 35.4844 100.532 33.6799 112.978 33.7136L112.658 35.0796C112.675 35.0796 112.691 35.0796 112.725 35.0796L110.769 43.3094C97.21 43.0902 83.2632 45.0295 69.2996 46.9689C56.3309 48.7734 43.3791 50.5779 30.9332 50.5442L30.9838 50.308C30.967 50.308 30.9501 50.308 30.9164 50.308L33.1424 40.9484ZM103.821 72.6196C103.77 72.6196 103.72 72.6027 103.669 72.6027C103.703 72.6871 103.737 72.7545 103.77 72.8389L102.371 78.7245C88.8116 78.5053 74.8479 80.4446 60.9011 82.384C47.9325 84.1885 34.9638 85.993 22.5348 85.9761L24.744 76.5996C38.3029 76.8188 52.2497 74.8794 66.2134 72.94C79.1821 71.1356 92.1339 69.3311 104.58 69.3648L103.821 72.6196ZM123.535 62.6022C104.833 59.1619 84.9665 61.9107 65.1004 64.6765C46.7351 67.223 28.3699 69.7695 11.5055 67.1555C11.2694 67.1218 9.8191 66.8688 9.73478 66.7676L11.9946 57.3068C30.6971 60.7471 50.5633 57.9983 70.4295 55.2325C89.4356 52.5848 108.459 49.9539 125.795 53.0569L123.535 62.6022Z" fill="#BCB5B5"/>
</svg>
