<svg width="441" height="121" viewBox="0 0 441 121" fill="none" xmlns="http://www.w3.org/2000/svg">
<path d="M108.075 87.4295H105.917V77.1423C105.917 73.1286 108.227 70.8013 111.566 70.8013C114.905 70.8013 117.216 73.1623 117.216 77.2097V87.4295H115.057V81.4933H108.058V87.4295H108.075ZM115.074 79.4358V77.2097C115.074 74.309 113.809 72.825 111.583 72.825C109.357 72.825 108.092 74.309 108.092 77.2097V79.4358H115.074Z" fill="#BCB5B5"/>
<path d="M120.67 71.9311C122.104 71.4589 123.959 71.0879 125.78 71.0879C128.512 71.0879 131.008 72.4539 131.008 76.4676V81.3752C131.008 85.0348 129.001 87.6487 125.392 87.6487C122.171 87.6487 119.776 85.2371 119.776 81.8642C119.776 78.3396 122.441 76.046 125.274 76.046C126.134 76.046 127.112 76.2652 127.517 76.4507L128.31 78.9636C127.382 78.2553 126.455 77.918 125.493 77.918C123.352 77.918 121.783 79.5538 121.783 81.898C121.783 84.1915 123.301 85.7599 125.392 85.7599C127.483 85.7599 129.001 84.1916 129.001 81.8137V76.5014C129.001 73.7356 127.483 72.9767 125.46 72.9767C124.414 72.9767 122.239 73.3478 120.35 74.0055L120.67 71.9311Z" fill="#BCB5B5"/>
<path d="M142.091 87.4296V81.8475C142.091 79.4696 140.59 77.9182 138.498 77.9182C136.407 77.9182 134.889 79.4865 134.889 81.7801C134.889 84.1242 136.458 85.76 138.583 85.76C139.544 85.76 140.472 85.4228 141.399 84.7145L140.606 87.2272C140.202 87.4127 139.224 87.632 138.364 87.632C135.53 87.632 132.866 85.3385 132.866 81.8139C132.866 78.4241 135.244 76.0293 138.482 76.0293C141.888 76.0293 144.064 78.6602 144.064 82.1848V87.4296H142.091Z" fill="#BCB5B5"/>
<path d="M147.67 77.3782C147.856 76.4676 148.395 76.0459 149.104 76.0459C149.778 76.0459 150.352 76.4844 150.622 77.3782L152.662 84.4612L154.703 77.3782C154.973 76.4676 155.546 76.0459 156.221 76.0459C156.929 76.0459 157.485 76.5519 157.654 77.3782L159.627 87.4462H157.536L156.069 78.7105L154.163 85.8104C153.826 87.0584 153.371 87.5305 152.73 87.5305C151.954 87.5305 151.499 87.0584 151.161 85.8104L149.256 78.7105L147.788 87.4462H145.697L147.67 77.3782Z" fill="#BCB5B5"/>
<path d="M167.319 89.5204V88.0701H170.86V87.6485C168.499 87.1594 167.319 85.5404 167.319 82.8084V76.5181H169.309V82.741C169.309 83.4493 169.427 84.0227 169.646 84.4949C170.051 85.3212 170.793 85.7428 171.855 85.7428C172.665 85.7428 173.289 85.4898 173.744 84.9839C174.183 84.478 174.402 83.736 174.402 82.7579V76.5349H176.392V82.8253C176.392 85.5236 175.211 87.1257 172.85 87.6654V88.087H176.392V89.5373H172.85V92.4042H170.843V89.5373H167.319V89.5204Z" fill="#BCB5B5"/>
<path d="M178.499 92.5898V81.8979C178.499 78.7274 180.64 76.0459 184.131 76.0459C187.352 76.0459 189.747 78.4744 189.747 81.881C189.747 85.0852 187.335 87.6486 184.232 87.6486C183.271 87.6486 182.462 87.4462 181.989 87.2607L181.197 84.7311C182.124 85.4056 183.086 85.7598 184.03 85.7598C186.189 85.7598 187.723 84.1914 187.723 81.8979C187.723 79.4863 186.222 77.9179 184.114 77.9179C182.023 77.9179 180.489 79.4525 180.489 81.8472V92.5898H178.499Z" fill="#BCB5B5"/>
<path d="M191.671 87.4296V81.3247C191.671 77.935 193.644 76.0293 196.444 76.0293C199.243 76.0293 201.2 77.935 201.2 81.3247V87.4296H199.227V80.9538C199.227 79.1661 198.046 77.9182 196.461 77.9182C194.876 77.9182 193.678 79.1661 193.678 80.9538V87.4296H191.671Z" fill="#BCB5B5"/>
<path d="M212.38 87.4296V81.8475C212.38 79.4696 210.879 77.9182 208.787 77.9182C206.696 77.9182 205.178 79.4865 205.178 81.7801C205.178 84.1242 206.747 85.76 208.872 85.76C209.833 85.76 210.761 85.4228 211.688 84.7145L210.895 87.2272C210.491 87.4127 209.513 87.632 208.652 87.632C205.819 87.632 203.155 85.3385 203.155 81.8139C203.155 78.4241 205.533 76.0293 208.771 76.0293C212.177 76.0293 214.353 78.6602 214.353 82.1848V87.4296H212.38Z" fill="#BCB5B5"/>
<path d="M221.891 82.9939H218.484V87.4461H216.494V81.257C216.494 80.4812 216.528 79.9078 216.595 79.503C216.882 77.9346 217.759 76.9903 219.209 76.6867C219.631 76.6024 220.289 76.5518 221.199 76.5518H223.493V78.4574H220.795C220.305 78.4574 219.934 78.4912 219.665 78.5755C219.125 78.6598 218.754 79.1152 218.552 79.9078L218.484 80.9871V81.2401H221.891V82.9939Z" fill="#BCB5B5"/>
<path d="M227.12 76.2148V83.1629C227.12 84.6976 228.435 85.7431 229.7 85.7431C231.066 85.7431 232.146 84.5795 232.146 83.1629C232.146 81.7801 231.049 80.6164 229.7 80.6164C229.194 80.6164 228.469 80.7682 227.811 81.4596L228.486 78.9637C228.638 78.8794 229.245 78.7445 229.65 78.7445C232.634 78.7445 234.169 81.1561 234.169 83.1798C234.169 85.5408 232.247 87.6488 229.7 87.6488C226.867 87.6488 225.13 85.4059 225.13 82.9437V76.2317H227.12V76.2148ZM235.906 76.2148H237.879V87.4296H235.906V76.2148Z" fill="#BCB5B5"/>
<path d="M242.297 80.2791H247.863V76.2148H249.836V87.4296H247.863V82.1679H242.297V87.4296H240.324V76.2148H242.297V80.2791Z" fill="#BCB5B5"/>
<path d="M269.38 81.9821C269.38 83.5673 268.824 84.9165 267.728 86.0127C266.631 87.1089 265.282 87.6485 263.697 87.6485C262.112 87.6485 260.779 87.092 259.666 85.9958C258.57 84.8996 258.014 83.5505 258.014 81.9652C258.014 80.3968 258.57 79.0477 259.666 77.9515C260.779 76.8385 262.112 76.2988 263.68 76.2988C265.265 76.2988 266.598 76.8553 267.711 77.9515C268.824 79.0645 269.38 80.3969 269.38 81.9821ZM267.272 81.1726C267.12 80.4137 266.817 79.7898 266.345 79.2838C265.687 78.5755 264.793 78.2214 263.697 78.2214C262.651 78.2214 261.791 78.5586 261.117 79.2332C260.594 79.756 260.274 80.3969 260.139 81.1558H267.272V81.1726ZM260.139 82.7916C260.257 83.5336 260.56 84.1744 261.066 84.6972C261.741 85.3887 262.618 85.7428 263.697 85.7428C264.776 85.7428 265.653 85.3887 266.345 84.6972C266.867 84.1576 267.188 83.5167 267.306 82.7916H260.139Z" fill="#BCB5B5"/>
<path d="M271.168 92.5898V81.8979C271.168 78.7274 273.31 76.0459 276.801 76.0459C280.022 76.0459 282.417 78.4744 282.417 81.881C282.417 85.0852 280.005 87.6486 276.902 87.6486C275.941 87.6486 275.132 87.4462 274.659 87.2607L273.867 84.7311C274.794 85.4056 275.756 85.7598 276.7 85.7598C278.859 85.7598 280.393 84.1914 280.393 81.8979C280.393 79.4863 278.892 77.9179 276.784 77.9179C274.693 77.9179 273.158 79.4525 273.158 81.8472V92.5898H271.168Z" fill="#BCB5B5"/>
<path d="M294.981 72.8589C294.509 73.1119 293.851 73.1456 293.143 73.1456C292.047 73.1456 290.917 72.9938 289.821 72.9938C287.797 72.9938 286.279 73.7189 286.279 76.4678V81.7801C286.279 84.158 287.797 85.7601 289.888 85.7601C291.979 85.7601 293.497 84.1749 293.497 81.8813C293.497 79.5372 291.929 77.935 289.804 77.935C288.843 77.935 287.915 78.2555 286.988 78.9638L287.78 76.4342C288.185 76.2487 289.163 76.0462 290.023 76.0462C292.856 76.0462 295.521 78.3229 295.521 81.8307C295.521 85.2204 293.143 87.6489 289.922 87.6489C286.515 87.6489 284.306 85.153 284.306 81.4935V76.5016C284.306 72.4879 286.836 71.1893 289.551 71.1893C290.681 71.1893 291.828 71.3073 292.957 71.3073C293.615 71.3073 294.357 71.2399 294.981 71.105V72.8589Z" fill="#BCB5B5"/>
<path d="M299.045 71.8301C299.753 71.8301 300.276 72.3698 300.276 73.0612C300.276 73.7358 299.736 74.2923 299.045 74.2923C298.37 74.2923 297.814 73.719 297.814 73.0612C297.831 72.3698 298.37 71.8301 299.045 71.8301ZM298.05 76.2149H300.023V87.4296H298.05V76.2149Z" fill="#BCB5B5"/>
<path d="M302.654 87.4296V80.9538C302.654 77.8001 304.476 76.0293 307.09 76.0293C308.472 76.0293 309.687 76.6196 310.513 77.7495C311.39 76.5859 312.571 76.0293 313.937 76.0293C316.551 76.0293 318.389 77.817 318.389 80.9538V87.4296H316.416V80.5996C316.416 78.9806 315.387 77.9182 313.937 77.9182C312.554 77.9182 311.508 78.9806 311.508 80.5996V87.4296H309.535V80.5996C309.535 78.9806 308.506 77.9182 307.09 77.9182C305.673 77.9182 304.644 78.9806 304.644 80.5996V87.4296H302.654Z" fill="#BCB5B5"/>
<path d="M322.976 76.2149V82.0668C322.976 83.9725 324.005 85.153 325.708 85.153C327.327 85.153 328.524 83.787 328.524 81.6621V76.2149H330.497V86.7888C330.497 90.4989 328.541 92.5732 325.05 92.5732C323.937 92.5732 322.807 92.3372 321.509 91.9325L321.964 90.0099C323.161 90.4147 324.207 90.6844 325.101 90.6844C327.344 90.6844 328.524 89.4196 328.524 87.0249V85.7095C327.597 86.5865 326.602 87.0249 325.421 87.0249C322.689 87.0249 321.02 85.1867 321.02 81.7295V76.1812H322.976V76.2149Z" fill="#BCB5B5"/>
<path d="M344.478 76.0293C347.632 76.0293 350.162 78.7783 350.162 81.797C350.162 81.9993 350.145 82.3872 350.094 82.6571H341.004C341.375 84.4447 342.792 85.7432 344.478 85.7432C345.912 85.7432 346.839 84.9337 347.48 83.9893L348.964 85.3722C348.189 86.4347 346.62 87.6152 344.495 87.6152C341.308 87.6152 338.846 84.9169 338.846 81.7801C338.829 78.7782 341.325 76.0293 344.478 76.0293ZM341.004 80.9369H347.969C347.632 79.1661 346.165 77.9182 344.478 77.9182C342.809 77.9182 341.375 79.1661 341.004 80.9369Z" fill="#BCB5B5"/>
<path d="M353.229 77.3782C353.414 76.4676 353.954 76.0459 354.662 76.0459C355.337 76.0459 355.91 76.4844 356.18 77.3782L358.221 84.4612L360.261 77.3782C360.531 76.4676 361.104 76.0459 361.779 76.0459C362.487 76.0459 363.044 76.5519 363.212 77.3782L365.186 87.4462H363.094L361.61 78.7105L359.705 85.8104C359.367 87.0584 358.912 87.5305 358.271 87.5305C357.495 87.5305 357.04 87.0584 356.703 85.8104L354.797 78.7105L353.33 87.4462H351.239L353.229 77.3782Z" fill="#BCB5B5"/>
<path d="M368.595 76.2148V78.3734C368.595 79.9418 369.911 80.7514 371.294 80.7514C372.66 80.7514 373.975 79.9418 373.975 78.3734V76.2148H375.948V78.5589C375.948 80.3128 374.953 81.544 373.975 81.8138C374.953 82.0836 375.948 83.3652 375.948 85.1023V87.4464H373.975V85.2879C373.975 83.7195 372.66 82.9099 371.294 82.9099C369.911 82.9099 368.595 83.7195 368.595 85.2879V87.4464H366.622V85.1023C366.622 83.3484 367.617 82.0836 368.595 81.8138C367.617 81.544 366.622 80.3128 366.622 78.5589V76.2148H368.595Z" fill="#BCB5B5"/>
<path d="M387.111 87.4296V81.8475C387.111 79.4696 385.61 77.9182 383.519 77.9182C381.427 77.9182 379.91 79.4865 379.91 81.7801C379.91 84.1242 381.478 85.76 383.603 85.76C384.547 85.76 385.492 85.4228 386.419 84.7145L385.627 87.2272C385.222 87.4127 384.244 87.632 383.384 87.632C380.55 87.632 377.886 85.3385 377.886 81.8139C377.886 78.4241 380.264 76.0293 383.502 76.0293C386.908 76.0293 389.084 78.6602 389.084 82.1848V87.4296H387.111Z" fill="#BCB5B5"/>
<path d="M393.502 80.2791H399.067V76.2148H401.04V87.4296H399.067V82.1679H393.502V87.4296H391.529V76.2148H393.502V80.2791Z" fill="#BCB5B5"/>
<path d="M412.238 87.4296V81.8475C412.238 79.4696 410.737 77.9182 408.646 77.9182C406.555 77.9182 405.038 79.4865 405.038 81.7801C405.038 84.1242 406.606 85.76 408.731 85.76C409.692 85.76 410.62 85.4228 411.547 84.7145L410.754 87.2272C410.35 87.4127 409.372 87.632 408.511 87.632C405.678 87.632 403.014 85.3385 403.014 81.8139C403.014 78.4241 405.392 76.0293 408.63 76.0293C412.036 76.0293 414.212 78.6602 414.212 82.1848V87.4296H412.238Z" fill="#BCB5B5"/>
<path d="M421.802 76.0293C423.623 76.0293 425.209 76.8894 426.44 78.5084L424.973 79.9418C424.332 78.677 423.151 77.9182 421.819 77.9182C419.846 77.9182 418.261 79.6045 418.261 81.8306C418.261 84.0061 419.846 85.76 421.819 85.76C423.337 85.76 424.433 84.7651 424.973 83.6689L426.558 85.0349C425.715 86.3503 424.045 87.6488 421.819 87.6488C418.665 87.6488 416.17 84.9506 416.17 81.8139C416.153 78.7783 418.649 76.0293 421.802 76.0293Z" fill="#BCB5B5"/>
<path d="M430.148 76.2148V83.1629C430.148 84.6976 431.463 85.7431 432.728 85.7431C434.094 85.7431 435.173 84.5795 435.173 83.1629C435.173 81.7801 434.077 80.6164 432.728 80.6164C432.222 80.6164 431.497 80.7682 430.839 81.4596L431.514 78.9637C431.665 78.8794 432.256 78.7445 432.677 78.7445C435.645 78.7445 437.197 81.1561 437.197 83.1798C437.197 85.5408 435.274 87.6488 432.728 87.6488C429.895 87.6488 428.158 85.4059 428.158 82.9437V76.2317H430.148V76.2148ZM438.934 76.2148H440.907V87.4296H438.934V76.2148Z" fill="#BCB5B5"/>
<path d="M108.075 105.609L114.248 98.8462H117.216L111.465 105.069C111.667 105.002 111.904 104.917 112.207 104.917C113.91 104.917 116.339 106.486 116.339 109.302V115.205H114.18V109.504C114.18 108.273 113.084 106.739 110.959 106.739C109.256 106.739 108.059 107.548 108.059 109.555V115.205H105.9V98.8631H108.059V105.609H108.075Z" fill="#BCB5B5"/>
<path d="M118.833 113.299C120.401 113.299 120.654 112.894 120.654 111.124V109.1C120.654 105.71 122.476 103.788 125.258 103.788C128.058 103.788 129.896 105.693 129.896 109.083V115.188H127.923V108.712C127.923 106.924 126.86 105.66 125.258 105.66C123.656 105.66 122.627 106.941 122.627 108.712V111.461C122.627 114.294 121.194 115.188 118.833 115.188V113.299Z" fill="#BCB5B5"/>
<path d="M134.449 103.973V110.466C134.449 112.186 135.579 113.501 137.215 113.501C138.986 113.501 140.014 112.017 140.014 110.567V103.956H141.988V115.171H140.014V114.311C139.424 114.985 138.564 115.373 137.215 115.373C134.129 115.373 132.476 113.451 132.476 110.398V103.956H134.449V103.973Z" fill="#BCB5B5"/>
<path d="M146.66 108.038H152.225V103.973H154.198V115.188H152.225V109.909H146.66V115.188H144.669V103.973H146.66V108.038Z" fill="#BCB5B5"/>
<path d="M158.986 103.973V110.466C158.986 112.186 160.116 113.501 161.752 113.501C163.523 113.501 164.551 112.017 164.551 110.567V103.956H166.524V115.171H164.551V114.311C163.961 114.985 163.101 115.373 161.752 115.373C158.666 115.373 156.996 113.451 156.996 110.398V103.956H158.986V103.973Z" fill="#BCB5B5"/>
<path d="M171.281 108.459L176.054 103.956H178.499L174.3 107.953C176.391 107.953 177.909 109.876 177.909 111.629V115.171H175.885V111.933C175.885 110.415 174.62 109.555 173.372 109.555C172.63 109.555 171.534 109.993 171.281 111.241V115.188H169.308V103.973H171.281V108.459Z" fill="#BCB5B5"/>
<path d="M188.936 115.188V109.606C188.936 107.228 187.435 105.677 185.344 105.677C183.253 105.677 181.735 107.245 181.735 109.539C181.735 111.883 183.304 113.502 185.428 113.502C186.39 113.502 187.317 113.164 188.245 112.456L187.452 114.969C187.047 115.154 186.069 115.374 185.209 115.374C182.376 115.374 179.711 113.08 179.711 109.555C179.711 106.166 182.089 103.771 185.327 103.771C188.734 103.771 190.909 106.402 190.909 109.927V115.171H188.936V115.188Z" fill="#BCB5B5"/>
<path d="M200.068 120.331V109.64C200.068 106.469 202.21 103.788 205.7 103.788C208.922 103.788 211.316 106.216 211.316 109.623C211.316 112.827 208.905 115.39 205.802 115.39C204.84 115.39 204.031 115.188 203.559 115.002L202.766 112.49C203.694 113.164 204.655 113.518 205.599 113.518C207.758 113.518 209.293 111.95 209.293 109.656C209.293 107.245 207.792 105.676 205.684 105.676C203.593 105.676 202.058 107.228 202.058 109.606V120.348H200.068V120.331Z" fill="#BCB5B5"/>
<path d="M218.653 103.788C221.807 103.788 224.336 106.536 224.336 109.555C224.336 109.758 224.319 110.145 224.269 110.415H215.179C215.55 112.203 216.967 113.501 218.653 113.501C220.087 113.501 221.014 112.675 221.655 111.748L223.139 113.13C222.363 114.193 220.795 115.373 218.67 115.373C215.499 115.373 213.02 112.675 213.02 109.538C212.987 106.537 215.483 103.788 218.653 103.788ZM215.179 108.695H222.144C221.807 106.924 220.34 105.676 218.653 105.676C216.967 105.676 215.533 106.924 215.179 108.695Z" fill="#BCB5B5"/>
<path d="M226.765 115.188V109.083C226.765 105.693 228.738 103.788 231.537 103.788C234.337 103.788 236.293 105.693 236.293 109.083V115.188H234.32V108.712C234.32 106.924 233.139 105.676 231.554 105.676C229.969 105.676 228.772 106.924 228.772 108.712V115.188H226.765Z" fill="#BCB5B5"/>
<path d="M238.585 120.331V109.64C238.585 106.469 240.727 103.788 244.218 103.788C247.439 103.788 249.834 106.216 249.834 109.623C249.834 112.827 247.422 115.39 244.319 115.39C243.358 115.39 242.549 115.188 242.076 115.002L241.284 112.49C242.211 113.164 243.173 113.518 244.117 113.518C246.276 113.518 247.81 111.95 247.81 109.656C247.81 107.245 246.309 105.676 244.201 105.676C242.11 105.676 240.576 107.228 240.576 109.606V120.348H238.585V120.331Z" fill="#BCB5B5"/>
<path d="M263.294 109.572C263.294 112.709 260.815 115.39 257.61 115.39C254.457 115.39 251.961 112.692 251.961 109.572C251.961 106.52 254.457 103.788 257.61 103.788C260.764 103.788 263.294 106.536 263.294 109.572ZM254.052 109.555C254.052 111.731 255.637 113.501 257.61 113.501C259.584 113.501 261.203 111.748 261.203 109.555C261.203 107.346 259.584 105.676 257.61 105.676C255.637 105.676 254.052 107.329 254.052 109.555Z" fill="#BCB5B5"/>
<path d="M266.446 99.6733C267.88 99.2011 269.735 98.8301 271.556 98.8301C274.288 98.8301 276.784 100.196 276.784 104.21V109.117C276.784 112.777 274.777 115.391 271.168 115.391C267.947 115.391 265.553 112.979 265.553 109.606C265.553 106.082 268.217 103.788 271.05 103.788C271.91 103.788 272.889 104.007 273.293 104.193L274.086 106.723C273.159 106.014 272.231 105.677 271.27 105.677C269.145 105.677 267.576 107.313 267.576 109.657C267.576 111.95 269.094 113.519 271.185 113.519C273.277 113.519 274.794 111.951 274.794 109.573V104.26C274.794 101.495 273.277 100.736 271.253 100.736C270.207 100.736 268.032 101.107 266.143 101.764L266.446 99.6733Z" fill="#BCB5B5"/>
<path d="M281.271 103.973V109.825C281.271 111.731 282.3 112.911 284.003 112.911C285.622 112.911 286.82 111.545 286.82 109.42V103.973H288.793V114.564C288.793 118.257 286.836 120.348 283.346 120.348C282.232 120.348 281.103 120.129 279.804 119.707L280.259 117.785C281.457 118.19 282.502 118.459 283.396 118.459C285.639 118.459 286.82 117.195 286.82 114.8V113.484C285.892 114.378 284.897 114.8 283.717 114.8C280.984 114.8 279.315 112.962 279.315 109.504V103.956H281.271V103.973Z" fill="#BCB5B5"/>
<path d="M293.413 108.459L298.185 103.956H300.648L296.448 107.953C298.54 107.953 300.057 109.876 300.057 111.629V115.171H298.034V111.933C298.034 110.415 296.769 109.555 295.521 109.555C294.779 109.555 293.683 109.993 293.43 111.241V115.188H291.457V103.973H293.43V108.459H293.413Z" fill="#BCB5B5"/>
<path d="M304.241 103.973V110.247C304.241 112.034 305.151 113.316 307.006 113.316H309.806V103.99H311.779V113.316H312.706V115.205H306.821C304.021 115.205 302.25 113.383 302.25 110.011V103.99H304.241V103.973Z" fill="#BCB5B5"/>
<path d="M316.23 103.973V110.466C316.23 112.186 317.36 113.501 318.996 113.501C320.767 113.501 321.795 112.017 321.795 110.567V103.956H323.768V115.171H321.795V114.311C321.205 114.985 320.345 115.373 318.996 115.373C315.91 115.373 314.257 113.451 314.257 110.398V103.956H316.23V103.973Z" fill="#BCB5B5"/>
<path d="M328.221 103.973V110.466C328.221 112.186 329.351 113.501 330.987 113.501C332.757 113.501 333.786 112.017 333.786 110.567V103.956H335.759V115.171H333.786V114.311C333.196 114.985 332.336 115.373 330.987 115.373C327.9 115.373 326.248 113.451 326.248 110.398V103.956H328.221V103.973Z" fill="#BCB5B5"/>
<path d="M347.092 103.973V106.216C347.092 107.936 347.834 109.083 349.47 109.083C351.173 109.083 352.235 108.172 352.235 107.194V103.973H354.209V115.188H352.252V109.791C351.662 110.702 350.802 110.972 349.453 110.972C346.367 110.972 345.119 108.864 345.119 105.98V103.973H347.092Z" fill="#BCB5B5"/>
<path d="M362.54 103.788C365.694 103.788 368.223 106.536 368.223 109.555C368.223 109.758 368.207 110.145 368.156 110.415H359.066C359.437 112.203 360.854 113.501 362.54 113.501C363.974 113.501 364.901 112.675 365.542 111.748L367.009 113.13C366.234 114.193 364.665 115.373 362.54 115.373C359.37 115.373 356.891 112.675 356.891 109.538C356.874 106.537 359.387 103.788 362.54 103.788ZM359.066 108.695H366.031C365.694 106.924 364.244 105.676 362.54 105.676C360.854 105.676 359.42 106.924 359.066 108.695Z" fill="#BCB5B5"/>
<path d="M369.185 113.299C370.753 113.299 371.006 112.894 371.006 111.124V109.1C371.006 105.71 372.827 103.788 375.61 103.788C378.409 103.788 380.247 105.693 380.247 109.083V115.188H378.274V108.712C378.274 106.924 377.212 105.66 375.61 105.66C374.025 105.66 372.979 106.941 372.979 108.712V111.461C372.979 114.294 371.546 115.188 369.185 115.188V113.299Z" fill="#BCB5B5"/>
<path d="M393.504 109.572C393.504 112.709 391.025 115.39 387.837 115.39C384.684 115.39 382.188 112.692 382.188 109.572C382.188 106.52 384.684 103.788 387.837 103.788C390.991 103.788 393.504 106.536 393.504 109.572ZM384.262 109.555C384.262 111.731 385.847 113.501 387.821 113.501C389.794 113.501 391.413 111.748 391.413 109.555C391.413 107.346 389.794 105.676 387.821 105.676C385.847 105.676 384.262 107.329 384.262 109.555Z" fill="#BCB5B5"/>
<path d="M411.835 103.788C414.988 103.788 417.501 106.536 417.501 109.555C417.501 109.758 417.484 110.145 417.434 110.415H408.344C408.715 112.203 410.131 113.501 411.818 113.501C413.251 113.501 414.179 112.675 414.82 111.748L416.304 113.13C415.528 114.193 413.959 115.373 411.835 115.373C408.664 115.373 406.185 112.675 406.185 109.538C406.185 106.537 408.681 103.788 411.835 103.788ZM408.361 108.695H415.326C414.988 106.924 413.538 105.676 411.835 105.676C410.148 105.676 408.732 106.924 408.361 108.695Z" fill="#BCB5B5"/>
<path d="M421.361 108.459L426.133 103.956H428.579L424.379 107.953C426.471 107.953 427.988 109.876 427.988 111.629V115.171H425.965V111.933C425.965 110.415 424.7 109.555 423.452 109.555C422.693 109.555 421.614 109.993 421.361 111.241V115.188H419.388V103.973H421.361V108.459Z" fill="#BCB5B5"/>
<path d="M438.936 115.188V109.606C438.936 107.228 437.435 105.677 435.344 105.677C433.252 105.677 431.735 107.245 431.735 109.539C431.735 111.883 433.303 113.502 435.428 113.502C436.372 113.502 437.317 113.164 438.244 112.456L437.452 114.969C437.047 115.154 436.069 115.374 435.209 115.374C432.375 115.374 429.711 113.08 429.711 109.555C429.711 106.166 432.089 103.771 435.327 103.771C438.733 103.771 440.909 106.402 440.909 109.927V115.171H438.936V115.188Z" fill="#BCB5B5"/>
<path d="M402.56 109.336C403.403 108.948 404.095 108.122 404.095 107.06C404.095 105.339 402.56 103.771 399.761 103.771C397.248 103.771 394.971 105.289 394.971 108.105V115.171H396.405H397.012H397.855H399.154H400.503C402.037 115.171 403.555 115.07 404.432 113.536C404.685 113.097 404.803 112.608 404.803 112.119C404.82 110.719 403.909 109.64 402.56 109.336ZM399.896 105.744C401.683 105.744 402.004 106.739 402.004 107.279C402.004 108.611 400.469 108.561 399.609 108.561H399.154H397.855H397.012C397.029 105.828 399.289 105.744 399.896 105.744ZM400.452 113.232H399.17H397.872H397.029V110.432H399.154V110.416H399.98C401.228 110.416 402.729 110.432 402.729 111.9C402.729 113.181 401.397 113.232 400.452 113.232Z" fill="#BCB5B5"/>
<path d="M120.114 49.1471L117.011 43.0929L137.501 31.6757C134.398 28.3029 130.839 27.6958 127.905 27.6958C119.776 27.6958 114.329 33.8344 114.329 42.0304C114.329 48.0004 117.095 52.2334 120.552 54.392C122.711 55.6906 125.308 56.382 127.905 56.382C130.671 56.382 133.436 55.9604 135.764 54.5606C139.221 52.4863 141.818 48.3377 141.987 43.4133L149.677 44.3577C148.817 54.2908 142.425 59.0465 139.221 60.8679C135.848 62.7735 131.952 63.6336 128.074 63.6336C124.701 63.6336 121.412 62.8579 118.393 61.3907C111.395 57.9335 106.555 51.0191 106.555 42.0304C106.555 29.7701 115.881 20.4272 128.074 20.4272C136.202 20.4272 144.061 24.5758 148.125 33.5645L120.114 49.1471Z" fill="#BCB5B5"/>
<path d="M182.108 28.5728H176.661C165.514 28.5728 161.972 36.3472 161.972 42.0473C161.972 48.8774 166.812 55.5388 176.931 55.5388H182.108V62.8073H176.661C161.534 62.8073 154.198 52.1659 154.198 42.0642C154.198 36.4484 156.356 29.6183 163.018 25.1324C167.942 21.8607 172.968 21.3379 177.015 21.3379H182.108V28.5728Z" fill="#BCB5B5"/>
<path d="M229.499 42.0475C229.499 54.0718 219.904 63.6676 207.896 63.6676C195.889 63.6676 186.293 54.0718 186.293 42.0475C186.293 30.0401 195.889 20.4443 207.896 20.4443C219.904 20.4443 229.499 30.0401 229.499 42.0475ZM194.067 42.0475C194.067 50.5134 199.768 56.3991 207.896 56.3991C216.109 56.3991 221.725 50.446 221.725 42.0475C221.725 33.666 216.109 27.7129 207.896 27.7129C199.768 27.7129 194.067 33.5816 194.067 42.0475Z" fill="#BCB5B5"/>
<path d="M235.23 62.8082V38.7765C235.23 32.385 235.753 26.6679 242.145 22.7048C244.557 21.2376 247.322 20.445 250.105 20.445C251.741 20.445 253.393 20.6305 254.945 21.1364C258.048 22.0977 260.392 23.8179 262.213 26.3307C264.035 23.8347 266.362 22.0977 269.465 21.1364C273.361 19.9222 278.201 20.192 282.164 22.6036C288.741 26.5836 289.163 32.1152 289.163 38.6922V62.8082H281.557V38.1695C281.557 34.7123 281.287 30.8166 277.577 28.658C275.249 27.2751 272.13 27.4437 269.887 28.7423C265.654 31.1539 265.991 35.7409 265.991 39.8052V62.7913H258.385V39.8052C258.385 35.7409 258.723 31.1539 254.49 28.7423C253.36 28.0508 251.977 27.7136 250.678 27.7136C249.295 27.7136 247.997 27.9665 246.783 28.658C242.887 30.9009 242.803 34.8809 242.803 38.1695V62.8082H235.23Z" fill="#BCB5B5"/>
<path d="M308.475 49.1471L305.372 43.0929L325.862 31.6757C322.759 28.3029 319.201 27.6958 316.266 27.6958C308.138 27.6958 302.69 33.8344 302.69 42.0304C302.69 48.0004 305.456 52.2334 308.913 54.392C311.072 55.6906 313.669 56.382 316.266 56.382C319.032 56.382 321.798 55.9604 324.125 54.5606C327.582 52.4863 330.179 48.3377 330.348 43.4133L338.038 44.3577C337.178 54.2908 330.786 59.0465 327.582 60.8679C324.209 62.7735 320.314 63.6336 316.435 63.6336C313.062 63.6336 309.774 62.8579 306.755 61.3907C299.756 57.9335 294.916 51.0191 294.916 42.0304C294.916 29.7701 304.242 20.4272 316.435 20.4272C324.564 20.4272 332.422 24.5758 336.487 33.5645L308.475 49.1471Z" fill="#BCB5B5"/>
<path d="M387.146 2.29834V39.4673C387.146 53.8188 378.765 63.6676 365.628 63.6676C351.276 63.6676 343.754 52.436 343.754 41.626C343.754 33.2444 348.156 26.1613 354.986 22.7041C358.173 21.0514 361.9 20.4613 365.442 20.4613C368.039 20.4613 372.086 21.1527 376.421 23.3956V31.3387C374.093 29.7871 370.113 27.7129 365.611 27.7129C362.929 27.7129 360.164 28.32 357.836 29.7029C354.463 31.7772 351.529 36.0101 351.529 41.98C351.529 50.3616 357.499 56.416 365.796 56.416C367.955 56.416 370.113 55.9943 372.019 54.9487C379.203 51.0699 379.541 42.6715 379.541 39.4842V2.31522H387.146V2.29834Z" fill="#BCB5B5"/>
<path d="M27.3101 105.659C27.3101 113.737 21.2221 120.348 13.8018 120.348C6.36463 120.348 0.293457 113.737 0.293457 105.659V45.1166C0.293457 37.0386 6.3815 30.4277 13.8018 30.4277C21.239 30.4277 27.3101 37.0386 27.3101 45.1166V105.659Z" fill="#BCB5B5"/>
<path d="M27.3111 14.3565C27.3111 21.8274 21.2568 27.8648 13.8028 27.8648C6.33188 27.8648 0.294434 21.8106 0.294434 14.3565C0.294434 6.88563 6.34874 0.84818 13.8028 0.84818C21.2568 0.831315 27.3111 6.88563 27.3111 14.3565Z" fill="#BCB5B5"/>
<path d="M94.127 105.66C94.127 113.738 88.039 120.349 80.6187 120.349C73.1815 120.349 67.1104 113.738 67.1104 105.66V53.5658C67.1104 45.4878 73.1984 38.877 80.6187 38.877C88.0559 38.877 94.127 45.4878 94.127 53.5658V105.66Z" fill="#BCB5B5"/>
<path d="M94.127 22.8056C94.127 30.2765 88.0727 36.314 80.6187 36.314C73.1478 36.314 67.1104 30.2597 67.1104 22.8056C67.1104 15.3347 73.1647 9.2974 80.6187 9.2974C88.0896 9.28053 94.127 15.3347 94.127 22.8056Z" fill="#BCB5B5"/>
<path d="M60.7198 105.66C60.7198 113.738 54.6318 120.349 47.2115 120.349C39.7743 120.349 33.7031 113.738 33.7031 105.66V85.6586C33.7031 77.5806 39.7912 70.9697 47.2115 70.9697C54.6486 70.9697 60.7198 77.5806 60.7198 85.6586V105.66Z" fill="#BCB5B5"/>
<path d="M60.7198 54.898C60.7198 62.3689 54.6655 68.4064 47.2115 68.4064C39.7406 68.4064 33.7031 62.3521 33.7031 54.898C33.7031 47.4271 39.7574 41.3897 47.2115 41.3897C54.6824 41.3728 60.7198 47.4271 60.7198 54.898Z" fill="#BCB5B5"/>
</svg>
