<svg width="378" height="158" viewBox="0 0 378 158" fill="none" xmlns="http://www.w3.org/2000/svg">
<path d="M214.395 79.8704H201.579V67.8799H196.654V98.0333H201.579V86.0428H214.395V98.0333H219.303V67.8799H214.395V79.8704Z" fill="#BCB5B5"/>
<path d="M181.107 67.1724C173.198 67.1724 168.476 73.1592 168.476 83.1935C168.476 90.3608 171.781 98.7423 181.107 98.7423C190.433 98.7423 193.738 90.3608 193.738 83.1935C193.738 73.1592 189.016 67.1724 181.107 67.1724ZM181.107 92.5869C178.223 92.5869 173.383 91.3221 173.383 82.873C173.383 76.8188 176.199 73.3447 181.107 73.3447C186.014 73.3447 188.814 76.8188 188.814 82.873C188.814 91.3221 183.991 92.5869 181.107 92.5869Z" fill="#BCB5B5"/>
<path d="M160.632 82.9263C160.682 86.316 160.295 88.6095 159.333 89.9755C158.17 91.6451 156.095 92.2859 152.756 92.2859C149.636 92.2859 146.837 90.8693 146.837 90.8693V97.8343C146.837 97.8343 149.636 98.7449 153.667 98.7449C161.947 98.7449 165.506 94.3096 165.573 83.9043V60.4292H160.649V82.9263H160.632Z" fill="#BCB5B5"/>
<path d="M241.04 88.2183L228.206 67.8799H223.315V98.0333H228.24V77.4757L241.04 98.0333H245.964V67.8799H241.04V88.2183Z" fill="#BCB5B5"/>
<path d="M310.609 98.0333H330.206V91.861H315.534V86.0428H326.9V79.8704H315.534V74.0523H330.206V67.8799H310.609V98.0333Z" fill="#BCB5B5"/>
<path d="M270.115 60.3755H263.909H258.226V98.0167H263.909H270.115C281.245 98.0167 285.192 88.033 285.192 79.4659C285.192 67.5428 279.559 60.3755 270.115 60.3755ZM270.115 91.8275H263.167V66.6153H270.115C276.54 66.6153 280.234 71.1687 280.234 79.0949C280.234 90.1748 273.893 91.8275 270.115 91.8275Z" fill="#BCB5B5"/>
<path d="M377.945 74.0523V67.8799H358.349V98.0333H377.945V91.861H363.256V86.0428H374.623V79.8704H363.256V74.0523H377.945Z" fill="#BCB5B5"/>
<path d="M355.045 77.56C355.045 71.5057 352.195 67.8799 347.405 67.8799H333.492V98.0164H338.417V86.9872H344.201L350.137 98.0164H356.09L349.901 86.5318C353.628 85.267 355.045 81.1858 355.045 77.56ZM347.675 80.8486L338.67 80.8317V74.0523H347.675C349.412 74.0523 350.407 75.2834 350.407 77.4083C350.407 80.3933 348.687 80.8486 347.675 80.8486Z" fill="#BCB5B5"/>
<path d="M287.722 98.0333H307.318V91.861H292.629V86.0428H303.996V79.8704H292.629V74.0523H307.318V67.8799H287.722V98.0333Z" fill="#BCB5B5"/>
<path d="M126.297 47.0362C118.101 41.3698 108.657 38.1655 98.8417 38.1655C88.9929 38.1655 79.5657 41.3867 71.3527 47.0868C68.4352 57.0199 66.833 67.8468 66.833 79.2133C66.833 90.563 68.4352 101.39 71.3527 111.323C79.5657 117.04 88.9929 120.244 98.8417 120.244C108.657 120.244 118.101 117.04 126.297 111.374C129.214 101.424 130.816 90.5799 130.816 79.2133C130.833 67.8468 129.231 56.9861 126.297 47.0362ZM124.374 108.945C116.718 114.038 107.948 116.888 98.8584 116.888C89.7348 116.888 80.9823 114.021 73.3091 108.895C70.7288 99.6697 69.3122 89.6692 69.3122 79.2302C69.3122 68.7575 70.7288 58.74 73.3259 49.5152C80.9992 44.4053 89.7348 41.5215 98.8584 41.5215C107.948 41.5215 116.701 44.3716 124.357 49.4646C126.954 58.7063 128.371 68.7406 128.371 79.2302C128.371 89.703 126.954 99.7204 124.374 108.945Z" fill="#BCB5B5"/>
<path d="M122.974 51.168C115.57 46.3448 107.222 43.7983 98.8575 43.7983C90.4759 43.7983 82.1281 46.3617 74.7078 51.2186C72.2625 60.1735 71.0146 69.6008 71.0146 79.2134C71.0146 88.8598 72.2625 98.2701 74.7078 107.208C82.1281 112.065 90.4759 114.629 98.8575 114.629C107.205 114.629 115.536 112.082 122.94 107.276C121.371 103.093 118.825 99.4843 118.707 99.3157C118.386 99.147 111.776 96.3813 109.516 94.6949C107.711 93.3626 105.806 90.1246 105.603 89.7536C103.799 89.585 101.994 89.5849 100.122 89.8885C97.8287 90.2932 95.2823 90.9341 92.837 90.3945C91.4541 90.0741 90.105 89.4501 88.6884 88.7924C86.5298 87.7974 84.3035 86.7517 81.7739 86.7686C82.128 87.7467 84.2868 93.4131 87.373 94.8635C87.4067 94.8635 88.3174 95.1671 88.6715 95.5381L90.1556 98.8603L90.0037 99.0964C89.9362 99.0458 83.1064 94.2733 78.5867 86.3639L78.3844 84.7786C81.1501 83.2608 84.0001 82.9742 86.7659 82.6032C86.7659 82.6032 87.4404 82.5189 87.5416 82.502C87.9126 77.7631 88.8402 73.5976 90.1556 69.8874C90.358 69.314 89.9533 69.2465 89.9533 69.2465C88.9077 68.943 86.125 68.1504 86.125 68.1504L85.7541 66.5145C88.5198 65.0473 91.8757 63.6982 94.1187 63.0067C94.4054 62.2984 94.5572 61.6914 94.5572 61.1517C94.5572 60.7301 94.4559 60.359 94.2873 60.0724C93.208 58.2679 88.9582 58.9762 84.4217 61.4721L84.3542 61.0674C85.1131 60.1904 86.243 59.1111 87.3223 58.4028C86.9344 56.514 85.1805 55.6539 85.1636 55.637L85.3493 55.4347C86.8334 55.6876 88.0137 56.5646 88.5365 57.7957C89.7676 57.2561 90.2062 57.1211 91.2012 57.0199C91.0831 54.0687 89.0931 52.0618 89.0763 52.0449L89.2955 51.8426C91.1843 52.8038 92.5671 54.7095 93.0056 56.9356C93.9331 56.9693 94.2537 57.0199 95.0126 57.4753C95.2824 56.5983 95.3835 55.7383 95.3835 54.9456C95.3835 52.0956 94.0343 50.0044 94.0005 49.9875L94.2535 49.8189C96.6145 51.5222 97.2386 54.4735 97.2386 57.0874C97.2386 59.5159 96.6988 61.6576 96.5302 62.3153C96.5302 62.3153 99.1779 61.5734 101.185 61.2023L101.303 61.3709C101.168 61.6239 100.24 63.2092 97.8794 65.0642L95.8895 64.7269C95.7209 65.4352 94.6078 70.4608 94.6078 74.1878V74.2047C94.6078 75.5707 94.8776 76.6331 95.4173 77.3583C96.3785 78.6737 97.9805 78.7412 99.0936 78.6906C106.716 78.2859 110.055 79.8206 110.578 80.0735C110.612 79.8543 110.713 79.3145 110.713 78.505C110.713 76.9198 110.207 74.3058 108.47 71.2365L108.723 71.0679C108.774 71.1185 113.31 74.6263 113.85 80.0229L111.86 81.1696C113.648 83.8342 114.272 87.0553 114.777 89.6524C115.132 91.5244 115.452 93.1433 116.093 93.9359C116.902 94.9309 120.208 97.3594 120.242 97.3931C120.242 97.3931 121.203 99.1302 123.564 104.915C125.621 96.6848 126.65 88.0672 126.65 79.2303C126.667 69.567 125.419 60.1399 122.974 51.168Z" fill="#BCB5B5"/>
<path d="M20.2196 157.886H0.420898V0.524902H20.2196V157.886Z" fill="#BCB5B5"/>
<path d="M26.8137 0.524414V157.885H20.2197V0.524414H26.8137Z" fill="#BCB5B5"/>
</svg>
