<svg width="425" height="119" viewBox="0 0 425 119" fill="none" xmlns="http://www.w3.org/2000/svg">
<path d="M96.0061 112.936L161.018 81.2648L161.929 1.71582L96.0061 112.936Z" fill="#BCB5B5"/>
<path d="M162.131 81.3154L226.401 114.471L163.024 1.74951L162.131 81.3154Z" fill="#BCB5B5"/>
<path d="M96.563 113.712L225.845 115.179L161.575 82.0405L96.563 113.712Z" fill="#BCB5B5"/>
<path d="M238.628 32.9147C238.898 9.81057 259.961 1.04111 280.232 1.26035C294.55 1.42899 307.637 4.8693 320.234 11.6319L310.774 27.6362C302.173 23.6899 292.24 20.0304 282.745 20.0304C274.667 20.0472 258.275 21.6156 258.14 32.7966C257.887 54.8214 324.771 45.5292 324.316 85.5314C324.012 111.637 302.409 118.518 280.013 118.265C265.729 118.096 249.623 113.729 236.452 108.264L246.858 90.7425C249.539 91.8555 252.254 92.8168 255.02 93.7443C261.867 95.9535 271.277 98.4157 278.478 98.5001C286.287 98.5844 304.365 97.5556 304.483 86.4252C304.77 62.9501 238.189 72.7651 238.628 32.9147Z" fill="#BCB5B5"/>
<path d="M68.2647 1.39535L40.5567 48.1601L22.4613 47.9578L22.984 0.88942L2.08904 0.65332L0.824219 112.616L21.7191 112.852L22.2587 65.7833L40.3543 66.0026L66.9998 113.341L89.2271 113.594L57.539 57.25L90.5088 1.64831L68.2647 1.39535Z" fill="#BCB5B5"/>
<path d="M347.471 4.58252L346.189 116.562L423.427 117.439L423.63 99.5961L367.303 98.9553L367.623 69.7294L419.144 70.3028L419.346 52.4772L367.826 51.887L368.163 22.6611L424.507 23.3019L424.709 5.45945L347.471 4.58252Z" fill="#BCB5B5"/>
</svg>
