<svg width="346" height="123" viewBox="0 0 346 123" fill="none" xmlns="http://www.w3.org/2000/svg">
<path d="M299.264 20.7852H271.404L258.132 31.3421L251.318 20.7852H224.201L240.222 45.5925L206.712 72.255H237.068L250.34 61.2595L257.423 72.255H284.558L268.014 46.6381L299.264 20.7852Z" fill="#BCB5B5"/>
<path d="M69.3185 36.234L90.1797 72.2393H57.1592L40.9022 39.2527L30.5979 72.2393H0.933594L23.0765 1.15625H52.8758L43.3981 31.4109C44.4099 30.3653 45.1519 29.522 45.6578 28.9486C50.1775 24.2266 54.208 20.2635 62.657 12.1349C66.5527 8.45852 70.4653 4.84955 74.3778 1.17313H109.995L69.3185 36.234Z" fill="#BCB5B5"/>
<path d="M122.423 72.2385H95.626L111.731 20.7349H138.529L122.423 72.2385Z" fill="#BCB5B5"/>
<path d="M221.788 20.7852H193.911L180.639 31.3421L173.826 20.7852H146.708L162.729 45.5925L129.22 72.255H159.576L172.865 61.2595L179.931 72.255H207.065L190.522 46.6381L221.788 20.7852Z" fill="#BCB5B5"/>
<path d="M118.597 0.598633L113.184 17.9183L145.394 0.598633H118.597Z" fill="#BCB5B5"/>
<path d="M100.381 96.4213L95.1701 105.073H100.297L100.381 96.4213ZM100.196 115.309L100.229 109.997H92.2357L88.9808 115.309H82.3701L99.0827 89.5913H105.946L106.655 115.309H100.196Z" fill="#BCB5B5"/>
<path d="M113.402 115.31H107.921L115.965 89.6089H121.395L113.402 115.31Z" fill="#BCB5B5"/>
<path d="M122.761 115.31H117.264L125.308 89.6089H130.755L122.761 115.31Z" fill="#BCB5B5"/>
<path d="M155.309 115.31H150.199L150.519 99.2384L140.738 115.31H135.999L136.623 89.6089H142.087L141.48 105.529L151.025 89.6089H155.95L154.87 105.529L164.416 89.6089H170.251L155.309 115.31Z" fill="#BCB5B5"/>
<path d="M176.659 101.363C176.238 101.177 175.917 101.11 175.395 101.11C172.932 101.11 170.166 103.994 169.509 108.345C169.256 109.998 169.796 110.891 170.875 110.891C171.836 110.891 172.915 110.217 174.332 108.901L176.659 101.363ZM167.687 115.765C164.787 115.765 163.235 113.404 163.842 109.441C165.09 101.076 171.027 96.8096 176.642 96.8096C178.953 96.8096 181.078 97.2987 183.068 98.1082L179.155 110.79L177.89 115.344H172.78L173.607 112.561C171.769 114.332 169.779 115.765 167.687 115.765Z" fill="#BCB5B5"/>
<path d="M190.555 115.917C187.57 120.639 185.445 122.173 181.263 122.173C180.555 122.173 179.678 122.055 179.239 121.954L180.605 117.704C181.297 117.738 181.111 117.738 182.005 117.738C183.202 117.738 184.332 117.148 185.243 116.035L185.732 115.326L185.159 97.1636H190.977L190.151 109.238L197.234 97.1805H202.512L190.555 115.917Z" fill="#BCB5B5"/>
<path d="M214.368 102.543C212.698 101.531 210.776 100.84 209.14 100.84C207.993 100.84 207.453 101.43 207.369 101.987C207.268 102.661 207.47 102.999 208.803 103.623C212.546 105.444 214.132 106.759 213.693 109.66C213.154 113.303 210.202 115.765 205.733 115.765C202.833 115.765 200.741 114.955 199.072 113.876L200.421 109.542C202.192 110.807 204.485 111.734 206.492 111.734C207.723 111.734 208.516 111.212 208.634 110.351C208.735 109.609 208.28 109.188 206.897 108.48C203.338 106.742 201.871 105.545 202.31 102.644C202.833 99.1366 205.919 96.7588 209.68 96.7588C212.428 96.7588 213.845 97.1973 215.7 98.1586L214.368 102.543Z" fill="#BCB5B5"/>
<path d="M237.574 115.327H232.397L233.139 104.382L227.102 115.327H222.245L222.885 97.147H227.776L227.237 108.126L233.139 97.147H238.182L236.461 108.008L242.937 97.147H248.148L237.574 115.327Z" fill="#BCB5B5"/>
<path d="M250.542 115.327H245.112L250.812 97.147H256.293L250.542 115.327Z" fill="#BCB5B5"/>
<path d="M257.103 94.4819H251.656L253.19 89.5913H258.671L257.103 94.4819Z" fill="#BCB5B5"/>
<path d="M265.181 101.65L263.157 108.193C263.005 108.649 262.904 109.121 262.837 109.458C262.668 110.571 263.157 111.06 264.321 111.06C264.945 111.06 266.007 110.993 266.395 110.892L265.012 115.344C264.152 115.53 263.056 115.715 261.504 115.715C258.148 115.715 256.496 114.366 256.968 111.263C257.103 110.436 257.271 109.762 257.457 109.07L259.767 101.667H257.491L258.874 97.1642H261.15L262.584 92.1724H268.183L266.597 97.1642H270.19L268.79 101.667H265.181V101.65Z" fill="#BCB5B5"/>
<path d="M287.256 102.391L283.192 115.309H277.728L281.269 104.027C281.354 103.757 281.506 103.201 281.522 103.049C281.657 102.121 281.286 101.632 280.426 101.632C279.634 101.632 278.183 102.493 276.632 104.027L273.09 115.309H267.643L275.62 89.5913H281.118L277.795 100.165C279.802 98.4451 281.994 96.7755 284.389 96.7755C286.919 96.7755 287.931 98.4282 287.577 100.84C287.543 101.312 287.408 101.953 287.256 102.391Z" fill="#BCB5B5"/>
<path d="M302.147 106.085L299.28 115.327H293.445L296.497 106.085L293.04 89.6089H298.841L300.764 100.048L309.365 89.6089H315.487L302.147 106.085Z" fill="#BCB5B5"/>
<path d="M317.915 101.144C315.672 101.144 313.851 104.416 313.328 107.89C312.94 110.453 313.8 111.448 315.166 111.448C317.392 111.448 319.231 108.177 319.77 104.686C320.158 102.106 319.349 101.144 317.915 101.144ZM314.137 115.766C309.483 115.766 307.173 112.562 307.898 107.806C308.825 101.701 313.21 96.7935 318.944 96.7935C323.599 96.7935 325.909 99.9977 325.184 104.787C324.273 110.858 319.888 115.766 314.137 115.766Z" fill="#BCB5B5"/>
<path d="M341.677 110.925L340.327 115.31H335.15L336.128 112.072C334.02 113.944 331.541 115.765 329.163 115.765C326.634 115.765 325.605 114.163 325.976 111.752C326.043 111.262 326.229 110.605 326.347 110.149L330.394 97.1639H335.858L332.3 108.547C332.233 108.817 332.098 109.323 332.081 109.475C331.929 110.436 332.266 110.925 333.126 110.925C333.919 110.925 335.386 110.031 336.921 108.497L340.462 97.147H345.943L341.677 110.925Z" fill="#BCB5B5"/>
</svg>
