<svg width="436" height="121" viewBox="0 0 436 121" fill="none" xmlns="http://www.w3.org/2000/svg">
<path d="M378.386 43.0737L375.3 58.8587H381.455L378.386 43.0737Z" fill="#BCB5B5"/>
<path d="M427.408 35.1978H426.649V36.2268H427.307C427.898 36.2099 428.033 35.9737 428.033 35.6532C428.049 35.3496 427.914 35.1978 427.408 35.1978Z" fill="#BCB5B5"/>
<path d="M315.717 0.929688V120.447H435.032V0.929688H315.717ZM370.391 33.7645H386.328L396.413 76.6843L378.385 61.5401L361.099 75.5375L370.391 33.7645ZM341.115 88.523C334.656 88.523 329.63 83.6998 329.63 77.3251V44.3722C329.63 37.9469 333.593 32.6347 344.066 32.6347C354.269 32.6515 358.451 37.9469 358.451 44.3722V56.0086H347.034V44.7938C347.034 43.2086 345.736 41.91 344.151 41.91C342.565 41.91 341.385 43.1917 341.385 44.7938V76.3638C341.385 77.9491 342.565 79.2476 344.151 79.2476C345.736 79.2476 347.034 77.9491 347.034 76.3638V65.2165H358.468V73.4295C358.468 75.3857 358.114 77.5612 356.006 79.3151L344.673 88.5399H341.115V88.523ZM349.564 88.5399L378.385 65.1659L406.194 88.5399H349.564ZM421.743 44.3891H413.817V88.4724H410.427L401.068 80.6136V44.3891H393.175V33.7139H421.726V44.3891H421.743ZM427.393 40.0381C425.504 40.0381 423.986 38.5203 423.986 36.6146C423.986 34.7427 425.504 33.208 427.393 33.208C429.265 33.208 430.783 34.7427 430.783 36.6146C430.783 38.5203 429.265 40.0381 427.393 40.0381Z" fill="#BCB5B5"/>
<path d="M427.392 33.8154C425.84 33.8154 424.576 35.0803 424.576 36.6149C424.576 38.1664 425.84 39.4313 427.392 39.4313C428.943 39.4313 430.191 38.1664 430.191 36.6149C430.191 35.0803 428.927 33.8154 427.392 33.8154ZM428.134 38.5881C428.083 38.3688 428.033 38.1159 427.999 37.8629C427.948 37.5256 427.948 37.2052 427.78 37.0197C427.628 36.851 427.426 36.8679 427.206 36.851H426.684V38.5881H426.06V34.5743H427.358C428.083 34.5743 428.859 34.7767 428.859 35.6874C428.859 36.1427 428.572 36.5137 428.05 36.6149V36.6318C428.606 36.733 428.657 36.9859 428.724 37.4244C428.775 37.7954 428.825 38.217 428.96 38.5881H428.134Z" fill="#BCB5B5"/>
<path d="M35.7845 62.8897L31.872 66.7516L11.5336 46.3121L7.90776 49.8199L28.5328 70.0908L24.6203 73.9695L4.51803 53.3107L0.892197 56.9534L21.4161 77.2581L17.453 81.1201L0.791016 64.104V83.7677H29.8651C34.4185 83.7677 37.6733 79.889 37.6733 74.1214V46.0254H19.1225L35.7845 62.8897Z" fill="#BCB5B5"/>
<path d="M73.1211 60.4437C75.7351 59.1451 77.0842 57.0708 77.1685 54.2038C77.1685 52.568 76.865 51.2526 76.2578 50.2239C75.6507 49.1783 74.8075 48.3856 73.7451 47.8291C72.7501 47.2557 71.6201 46.8678 70.3385 46.6655C69.023 46.4631 67.7076 46.3957 66.4091 46.4463H52.4623V77.3755H66.797C70.1192 77.4092 72.8681 76.7177 75.0436 75.3011C77.2528 73.8677 78.3827 71.3549 78.4333 67.7459C78.3827 64.0526 76.612 61.6073 73.1211 60.4437ZM60.2367 52.6692H66.2236C67.0837 52.6692 67.8088 52.8716 68.4159 53.2763C69.023 53.7485 69.3435 54.558 69.3772 55.6879C69.3435 56.7672 68.9893 57.5261 68.2979 57.9815C67.6402 58.4368 66.9487 58.6729 66.2236 58.6729H60.2367V52.6692ZM69.5459 70.1238C68.787 70.6634 67.7582 70.9501 66.4765 70.9501H60.2367V63.8502H66.4765C67.6739 63.8502 68.6689 64.1032 69.4446 64.626C70.2373 65.1825 70.642 66.127 70.6758 67.4761C70.642 68.7241 70.271 69.601 69.5459 70.1238Z" fill="#BCB5B5"/>
<path d="M96.3793 45.7383C91.6573 45.8057 88.0315 47.3573 85.485 50.4266C82.9216 53.4284 81.6399 57.2566 81.6399 61.8775C81.6399 66.4477 82.9216 70.2421 85.485 73.2946C88.0315 76.3808 91.6742 77.966 96.3793 78.0166C101.118 77.9492 104.761 76.3808 107.307 73.2946C109.837 70.2421 111.102 66.4477 111.102 61.8775C111.102 57.2398 109.837 53.4284 107.307 50.4266C104.761 47.3573 101.118 45.8057 96.3793 45.7383ZM101.776 68.1847C100.663 70.0735 98.8584 71.0348 96.3793 71.0854C93.8834 71.0348 92.1126 70.0566 91.0502 68.1847C89.9371 66.3802 89.3806 64.2891 89.4143 61.8775C89.3806 59.4659 89.9371 57.3578 91.0502 55.5365C92.0958 53.6814 93.8665 52.737 96.3793 52.6695C98.8584 52.737 100.663 53.6814 101.776 55.5365C102.821 57.3578 103.327 59.4827 103.327 61.8775C103.327 64.2722 102.805 66.3971 101.776 68.1847Z" fill="#BCB5B5"/>
<path d="M141.221 73.9185C141.052 72.367 140.968 71.1865 140.934 70.4107C140.85 68.8592 140.495 67.3414 139.855 65.8574C139.5 65.1322 139.045 64.5251 138.505 64.0023C137.949 63.5133 137.257 63.1759 136.431 63.0073V62.923C138.084 62.2315 139.298 61.186 140.108 59.7694C140.866 58.3696 141.254 56.8349 141.254 55.1654C141.204 52.0455 140.141 49.8194 138.05 48.4534C135.976 47.1211 133.564 46.4634 130.798 46.4634H115.604V77.3925H123.378V66.1441H129.297C130.208 66.1441 130.95 66.3127 131.54 66.65C132.097 67.0041 132.519 67.4763 132.805 68.0835C133.109 68.6906 133.311 69.3652 133.412 70.1072C133.53 70.8492 133.598 71.6418 133.632 72.4513C133.682 72.9572 133.767 73.7499 133.885 74.8123C133.969 75.3014 134.053 75.7904 134.121 76.2458C134.205 76.7348 134.34 77.1059 134.509 77.3588H142.182C141.963 77.0384 141.76 76.5493 141.608 75.9254C141.44 75.352 141.305 74.6605 141.221 73.9185ZM129.854 59.938H123.361V52.9056H129.534C130.647 52.9056 131.574 53.1585 132.316 53.6982C133.041 54.2547 133.412 55.1148 133.463 56.2784C133.412 58.69 132.215 59.9043 129.854 59.938Z" fill="#BCB5B5"/>
<path d="M164.814 65.0647C164.899 69.0784 163.145 71.0853 159.57 71.0853C155.978 71.0853 154.241 69.0784 154.325 65.0647V46.4634H146.55V64.6094C146.466 73.5644 150.8 78.0334 159.57 78.0334C168.339 78.0334 172.673 73.5644 172.589 64.6094V46.4634H164.814V65.0647Z" fill="#BCB5B5"/>
<path d="M200.414 61.5233C198.677 60.1742 196.687 59.2298 194.427 58.6732C193.888 58.5046 193.382 58.3528 192.876 58.201C192.319 58.0661 191.78 57.9312 191.274 57.7963C190.279 57.5433 189.351 57.2904 188.474 57.0374C187.665 56.7507 187.024 56.4134 186.552 56.0424C186.012 55.6377 185.759 55.1486 185.759 54.6089C185.793 53.5971 186.214 52.8888 187.058 52.484C187.816 52.1299 188.643 51.9443 189.537 51.9443C190.835 51.9443 191.965 52.2142 192.943 52.737C193.921 53.2935 194.41 54.2717 194.377 55.6714H202.151C202.117 53.8838 201.797 52.3828 201.156 51.1349C200.482 49.8701 199.554 48.8413 198.424 48.0824C196.029 46.5309 193.281 45.7383 190.194 45.7383C187.243 45.7383 184.528 46.4466 182.049 47.8632C180.852 48.6052 179.873 49.5833 179.148 50.7976C178.406 52.0118 178.018 53.479 178.018 55.1654C178.069 57.9312 178.996 59.9549 180.818 61.2535C182.555 62.5858 184.528 63.547 186.771 64.1204C189.031 64.6769 191.004 65.2166 192.724 65.7731C193.517 66.0767 194.157 66.4477 194.647 66.903C195.119 67.3752 195.355 67.9486 195.355 68.6401C195.321 69.7531 194.832 70.5626 193.888 71.0854C193.432 71.3383 192.943 71.507 192.387 71.6082C191.796 71.7431 191.189 71.8274 190.565 71.8274C188.93 71.8611 187.614 71.4901 186.602 70.7481C185.59 70.0398 185.034 68.8087 184.933 67.0211H177.141C177.293 70.8998 178.642 73.7331 181.121 75.487C183.567 77.1903 186.569 78.0335 190.127 78.0335C193.567 78.0672 196.552 77.3083 199.116 75.7568C201.746 74.2052 203.096 71.4901 203.146 67.6282C203.146 66.2116 202.91 65.0142 202.421 64.0192C201.864 63.0579 201.224 62.2148 200.414 61.5233Z" fill="#BCB5B5"/>
<path d="M215.743 46.4634L204.578 77.3925H212.572L214.461 71.8948H224.883L226.721 77.3925H234.833L223.652 46.4634H215.743ZM216.248 65.9248L219.638 55.0642H219.723L223.028 65.9248H216.248Z" fill="#BCB5B5"/>
<path d="M256.471 46.4634V65.5538H256.387L246.015 46.4634H238.038V77.3925H245.324V58.1335H245.408L255.779 77.3925H263.773V46.4634H256.471Z" fill="#BCB5B5"/>
</svg>
