<svg width="350" height="113" viewBox="0 0 350 113" fill="none" xmlns="http://www.w3.org/2000/svg">
<path d="M77.469 37.2134H69.1113V49.4186H77.469C80.537 49.4186 83.0611 46.7114 83.0611 43.2934C83.0611 39.8753 80.537 37.2134 77.469 37.2134Z" fill="#BCB5B5"/>
<path d="M296.493 33.0684H295.887V34.418H296.493C297.008 34.418 297.327 34.145 297.327 33.7508C297.327 33.2807 297.008 33.0684 296.493 33.0684Z" fill="#BCB5B5"/>
<path d="M109.75 47.4233C105.685 47.4233 102.919 49.6012 102.027 53.3823H117.05C116.113 49.1324 112.924 47.4233 109.75 47.4233Z" fill="#BCB5B5"/>
<path d="M193.273 47.8291C188.618 47.8291 185.142 51.1867 185.142 56.1323C185.142 61.0779 188.618 64.4355 193.273 64.4355C197.988 64.4355 201.464 61.0779 201.464 56.1323C201.464 51.1867 197.988 47.8291 193.273 47.8291Z" fill="#BCB5B5"/>
<path d="M296.434 28.6362C293.109 28.6362 290.419 31.3586 290.419 34.7011C290.419 38.0436 293.094 40.766 296.434 40.766C299.744 40.766 302.419 38.0436 302.419 34.7011C302.434 31.3586 299.744 28.6362 296.434 28.6362ZM297.568 38.1192L296.585 36.0774H295.875V38.1192H293.895V31.2679H296.646C298.112 31.2679 299.29 32.1753 299.29 33.5365C299.29 34.444 298.898 35.1398 298.278 35.5935L299.683 38.1041H297.568V38.1192Z" fill="#BCB5B5"/>
<path d="M0.814453 0.144976L13.1017 79.1394L175.36 112.126L337.619 79.094L349.906 0.129883H0.814453V0.144976ZM83.5911 70.8815L75.2938 56.5588H69.1124V70.8815H60.9814V29.6223H77.4701C85.0722 29.6223 91.1933 35.7477 91.1933 43.2947C91.1933 48.4823 87.9589 53.1407 83.2435 55.3186L92.3721 70.8815H83.5911ZM124.352 59.266H102.151C103.208 63.1529 106.443 64.8015 110.448 64.8015C113.395 64.8015 115.753 63.5613 117.037 61.8523L123.158 65.3913C120.393 69.3993 115.979 71.6982 110.312 71.6982C100.413 71.6982 94.1706 64.9225 94.1706 56.1352C94.1706 47.348 100.473 40.5723 109.722 40.5723C118.443 40.5723 124.624 47.469 124.624 56.1352C124.655 57.2544 124.534 58.2678 124.352 59.266ZM173.123 70.8815H165.521V53.2617C165.521 49.7831 163.753 47.6656 160.579 47.6656C157.224 47.6656 155.108 49.9041 155.108 54.3204V70.8815H147.506V53.2617C147.506 49.7831 145.738 47.6656 142.564 47.6656C139.33 47.6656 137.032 49.9041 137.032 54.3204V70.8815H129.43V41.4042H137.032V44.5349C138.68 42.0545 141.446 40.5875 145.224 40.5875C148.881 40.5875 151.587 42.115 153.234 44.8374C155.063 42.1906 158.01 40.5875 162.015 40.5875C168.725 40.5875 173.154 45.3667 173.154 52.7323V70.8815H173.123ZM209.048 70.8815H201.446V67.4029C199.33 70.0496 196.141 71.7134 191.849 71.7134C184.02 71.7134 177.537 64.9376 177.537 56.1504C177.537 47.3631 184.02 40.5875 191.849 40.5875C196.141 40.5875 199.33 42.236 201.446 44.8827V41.4042H209.048V70.8815ZM222.953 70.8815H215.351V28.0192H222.953V70.8815ZM256.414 70.8815H248.812V67.5844C247.044 70.2311 243.976 71.7134 240.031 71.7134C233.789 71.7134 228.892 67.3576 228.892 59.508V41.4193H236.494V58.5703C236.494 62.5783 238.913 64.6351 242.328 64.6351C246.046 64.6351 248.812 62.4573 248.812 57.3301V41.4193H256.414V70.8815ZM280.973 70.8815L274.611 61.9279L268.187 70.8815H259.406L270.182 55.8479L259.875 41.4042H268.656L274.611 49.7074L280.565 41.4042H289.286L278.978 55.7874L289.754 70.8815H280.973ZM296.434 41.4042C292.732 41.4042 289.739 38.4095 289.739 34.7041C289.739 30.9986 292.732 28.004 296.434 28.004C300.137 28.004 303.13 30.9986 303.13 34.7041C303.13 38.4095 300.137 41.4042 296.434 41.4042Z" fill="#BCB5B5"/>
</svg>
