<svg width="109" height="120" viewBox="0 0 109 120" fill="none" xmlns="http://www.w3.org/2000/svg">
<path d="M18.9327 59.1783C19.017 59.9372 19.1688 61.1009 20.0626 61.4044C20.6698 61.5899 21.1589 61.5899 21.3612 61.5899C21.4624 61.5899 21.5974 61.6068 21.5974 61.708C21.5974 61.826 21.5298 61.8767 21.2768 61.8767C20.8215 61.8767 18.4269 61.8092 17.6512 61.7586C17.1621 61.7249 17.0607 61.6574 17.0607 61.5563C17.0607 61.4719 17.0946 61.455 17.2127 61.4044C17.3645 61.337 17.3306 61.0334 17.2969 60.6455L16.2851 49.7175L11.0909 60.7298C10.6524 61.6574 10.5849 61.8429 10.3994 61.8429C10.2476 61.8429 10.1464 61.6405 9.75856 60.8816C9.21891 59.8529 7.4145 56.2439 7.31332 56.0247C7.12781 55.6537 4.71612 50.4764 4.48002 49.9198L3.61992 59.7686C3.60306 60.1059 3.58616 60.3926 3.58616 60.7467C3.58616 61.2695 3.83928 61.4382 4.1597 61.5056C4.51385 61.5899 4.7836 61.5899 4.91851 61.5899C5.03656 61.5899 5.12087 61.6236 5.12087 61.6911C5.12087 61.8429 5.01979 61.8767 4.80055 61.8767C4.02479 61.8767 2.96223 61.8092 2.79359 61.8092C2.60808 61.8092 1.59615 61.8767 1.03963 61.8767C0.83726 61.8767 0.685547 61.8598 0.685547 61.708C0.685547 61.6237 0.786725 61.5899 0.887911 61.5899C1.05655 61.5899 1.20832 61.59 1.51188 61.5225C2.20332 61.4045 2.23705 60.6455 2.3551 59.7854L3.85605 46.176C3.87291 45.9399 3.95726 45.7544 4.09217 45.7544C4.21022 45.7544 4.29445 45.8386 4.4125 46.0747L10.821 59.229L16.9765 46.0916C17.0609 45.9061 17.1451 45.7544 17.2969 45.7544C17.4486 45.7544 17.4993 45.923 17.5499 46.3108L18.9327 59.1783Z" fill="#BCB5B5"/>
<path d="M25.0222 53.58C25.0222 50.8311 25.0221 50.3421 24.9884 49.7687C24.9378 49.1784 24.8029 48.8918 24.1958 48.7568C24.0778 48.74 23.8585 48.7231 23.6898 48.7231C23.538 48.7231 23.4199 48.6556 23.4199 48.605C23.4199 48.487 23.5212 48.4364 23.7405 48.4364C24.1621 48.4364 24.7184 48.4701 25.8989 48.5038C26.0001 48.5038 29.7272 48.5039 30.1488 48.4871C30.5704 48.4702 30.7896 48.4533 30.9582 48.3859C31.0763 48.3522 31.11 48.3184 31.1944 48.3184C31.2281 48.3184 31.2788 48.3521 31.2788 48.4702C31.2788 48.5882 31.1607 48.8918 31.1102 49.4146C31.0933 49.7687 31.0764 50.106 31.0426 50.4939C31.0426 50.6794 31.009 50.8143 30.8909 50.8143C30.7897 50.8143 30.739 50.73 30.739 50.5782C30.7221 50.2578 30.6547 50.0554 30.5873 49.9036C30.4692 49.482 30.2669 49.3471 29.2214 49.2796C28.9515 49.2628 26.8772 49.2459 26.8434 49.2459C26.776 49.2459 26.7421 49.2797 26.7421 49.4146V54.1703C26.7421 54.2884 26.7591 54.3727 26.8603 54.3727C27.1133 54.3727 29.2381 54.3558 29.6934 54.3052C30.1825 54.2883 30.4861 54.2208 30.6548 53.9847C30.7391 53.8667 30.8066 53.8161 30.8909 53.8161C30.9246 53.8161 30.9751 53.833 30.9751 53.9342C30.9751 54.0354 30.8908 54.4401 30.8234 55.0472C30.7559 55.6375 30.7558 56.0591 30.739 56.3289C30.7221 56.4976 30.6716 56.565 30.5873 56.565C30.4861 56.565 30.4693 56.447 30.4693 56.2953C30.4693 56.1772 30.4524 55.9579 30.4018 55.7892C30.3175 55.5194 30.1994 55.2159 29.39 55.1653C28.9009 55.1315 27.2145 55.081 26.8772 55.081C26.7591 55.081 26.7255 55.1485 26.7255 55.2328V56.7674C26.7255 57.4082 26.7086 59.2633 26.7255 59.6175C26.7592 60.3932 26.8772 60.7811 27.3157 60.9835C27.6361 61.1353 28.125 61.169 28.8502 61.169C29.2549 61.169 29.9127 61.1858 30.4355 61.0509C31.0595 60.8654 31.2112 60.4439 31.3798 59.6681C31.4136 59.4658 31.4812 59.3814 31.5655 59.3814C31.6836 59.3814 31.6835 59.5669 31.6835 59.7018C31.6835 59.8536 31.5148 61.169 31.4474 61.5232C31.363 61.9448 31.2114 61.9785 30.5199 61.9785C29.1371 61.9785 28.5467 61.9448 27.8215 61.9448C27.0963 61.9279 26.1183 61.8773 25.3594 61.8773C24.8703 61.8773 24.4825 61.9448 23.9766 61.9448C23.7911 61.9448 23.6898 61.911 23.6898 61.7929C23.6898 61.7086 23.7741 61.6412 23.8753 61.6412C23.9933 61.6412 24.1451 61.6243 24.2969 61.5737C24.6679 61.4894 24.9209 61.2196 24.9715 59.921C24.9884 59.2127 25.0053 58.3527 25.0053 56.7674V53.58H25.0222Z" fill="#BCB5B5"/>
<path d="M35.9482 53.5801C35.9482 50.8144 35.9482 50.3085 35.9145 49.752C35.8807 49.1786 35.7289 48.875 35.0712 48.7401C34.9532 48.7232 34.7339 48.7064 34.5652 48.7064C34.4134 48.7064 34.3291 48.6727 34.3291 48.5883C34.3291 48.504 34.3966 48.4365 34.5821 48.4365C35.4759 48.4365 36.7577 48.5039 36.7914 48.5039C36.9769 48.5039 38.4103 48.4365 38.9837 48.4365C40.1473 48.4365 41.429 48.5378 42.4072 49.2292C42.8119 49.5159 43.6551 50.359 43.6551 51.7756C43.6551 52.9224 43.0818 54.3897 41.4291 55.7388C42.9638 57.6276 44.2118 59.1623 45.2742 60.2753C46.2861 61.304 46.91 61.4727 47.4834 61.557C47.6351 61.5739 48.0736 61.5907 48.1242 61.5907C48.2929 61.5907 48.3603 61.6582 48.3603 61.7425C48.3603 61.8437 48.2761 61.8942 47.9894 61.8942H46.5222C45.5441 61.8942 45.0718 61.8268 44.6165 61.6413C43.7396 61.2703 43.1155 60.3259 42.0193 58.9262C41.2098 57.9143 40.3665 56.7844 40.0124 56.3459C39.928 56.2616 39.8945 56.2278 39.7596 56.2278L37.6009 56.211C37.5166 56.211 37.4996 56.2278 37.4996 56.3121V56.5989C37.4996 58.2685 37.4997 59.8031 37.6009 60.562C37.6683 61.0679 37.7189 61.4895 38.4103 61.5738C38.6127 61.5907 38.8488 61.6076 39.0174 61.6076C39.2029 61.6076 39.2873 61.675 39.2873 61.7256C39.2873 61.8268 39.2029 61.8942 39.0006 61.8942C37.9044 61.8942 36.7407 61.8268 36.6564 61.8268C36.3191 61.8268 35.4085 61.8942 34.8351 61.8942C34.6327 61.8942 34.5483 61.8605 34.5483 61.7256C34.5483 61.6582 34.6664 61.6076 34.8014 61.6076C34.9531 61.6076 35.0881 61.6075 35.2567 61.5738C35.6109 61.5063 35.7457 61.2872 35.7963 60.7812C35.8975 60.0223 35.8807 58.319 35.8807 56.7506V53.5801H35.9482ZM37.5502 55.0642C37.5502 55.1654 37.5672 55.2666 37.6515 55.3172C37.9214 55.469 38.7645 55.587 39.5066 55.587C39.945 55.587 40.4678 55.5701 40.9062 55.2666C41.5302 54.8618 41.9518 53.9512 41.9518 52.6021C41.9518 50.3254 40.7377 49.0605 38.8826 49.0605C38.3598 49.0605 37.9214 49.0942 37.6684 49.1617C37.601 49.1785 37.5502 49.246 37.5502 49.3472V55.0642Z" fill="#BCB5B5"/>
<path d="M49.5085 53.5799C49.5085 50.8142 49.5087 50.3083 49.4749 49.7518C49.4243 49.1784 49.3061 48.8748 48.8676 48.7905C48.6653 48.7568 48.5136 48.7567 48.3787 48.723C48.2269 48.7061 48.1426 48.6556 48.1426 48.5713C48.1426 48.4701 48.2268 48.4194 48.4629 48.4194C49.1037 48.4194 50.3011 48.487 50.3686 48.487C50.4529 48.487 51.6671 48.4194 52.2574 48.4194C52.4597 48.4194 52.5779 48.4532 52.5779 48.5713C52.5779 48.6556 52.5104 48.6893 52.3418 48.723C52.2237 48.7398 52.1057 48.7399 51.9708 48.7567C51.3637 48.8411 51.2962 49.1614 51.2624 49.7686C51.2287 50.3419 51.2456 50.8142 51.2456 53.5799V56.7168C51.2456 58.3357 51.2288 59.786 51.33 60.5449C51.4143 61.152 51.4985 61.3881 52.0381 61.5062C52.308 61.5736 52.7466 61.5905 52.8309 61.5905C53.0164 61.6073 53.067 61.658 53.067 61.7423C53.067 61.8266 52.9826 61.894 52.7803 61.894C51.7178 61.894 50.5035 61.8266 50.4023 61.8266C50.3349 61.8266 49.1038 61.894 48.5135 61.894C48.328 61.894 48.1763 61.8603 48.1763 61.7423C48.1763 61.658 48.2605 61.5905 48.446 61.5905C48.5472 61.5905 48.7834 61.5736 48.952 61.523C49.3062 61.4387 49.3737 61.0172 49.4412 60.5112C49.5424 59.7523 49.5422 58.2683 49.5422 56.6999V53.5799H49.5085Z" fill="#BCB5B5"/>
<path d="M57.7046 53.5802C57.7046 50.8144 57.7046 50.2917 57.6709 49.752C57.6203 49.1786 57.4685 48.8919 56.8614 48.7739C56.7434 48.757 56.4228 48.7401 56.2541 48.7401C56.1529 48.7401 56.0518 48.6726 56.0518 48.622C56.0518 48.504 56.1699 48.4534 56.3723 48.4534C57.2324 48.4534 58.5477 48.5209 58.6152 48.5209C58.7669 48.5209 59.8464 48.4534 61.0269 48.4534C62.8651 48.4534 66.3053 48.2679 68.5145 50.5108C69.4421 51.4384 70.2854 52.8888 70.2854 55.0137C70.2854 57.2398 69.324 58.9599 68.2953 60.0055C67.4858 60.815 65.8838 62.063 62.7133 62.063C61.9207 62.063 60.8919 62.0124 60.0992 61.9618C59.3066 61.9281 58.6489 61.8606 58.5983 61.8606C58.5646 61.8606 58.278 61.8606 57.8901 61.8775C57.4854 61.8775 56.9962 61.9111 56.6757 61.9111C56.4902 61.9111 56.3892 61.8775 56.3892 61.7594C56.3892 61.692 56.4566 61.6076 56.6253 61.6076C56.7939 61.6076 56.9456 61.5908 57.1142 61.5402C57.4684 61.4727 57.6034 61.0342 57.654 60.5789C57.772 59.8031 57.7551 58.3865 57.7551 56.6832V53.5802H57.7046ZM59.4246 55.3509C59.4246 57.2397 59.4415 58.8587 59.4415 59.1791C59.4584 59.82 59.509 60.3934 59.6439 60.5789C59.88 60.9331 60.5378 61.3715 62.7133 61.3715C64.4335 61.3715 65.9849 60.8319 67.0642 59.7357C67.9918 58.8081 68.4303 57.2397 68.4303 55.5701C68.4303 53.2091 67.334 51.7588 66.6257 51.0674C64.855 49.2966 62.7975 49.0774 60.7232 49.0774C60.4365 49.0774 59.7788 49.1449 59.6607 49.2292C59.4921 49.3136 59.4246 49.3978 59.4246 49.5833C59.4078 50.1904 59.4077 51.9613 59.4077 53.2261V55.3509H59.4246Z" fill="#BCB5B5"/>
<path d="M74.4352 53.5799C74.4352 50.8142 74.4352 50.3083 74.4015 49.7518C74.3509 49.1784 74.2329 48.8748 73.7944 48.7905C73.592 48.7568 73.4404 48.7567 73.3055 48.723C73.1537 48.7061 73.0693 48.6556 73.0693 48.5713C73.0693 48.4701 73.1536 48.4194 73.3897 48.4194C74.0305 48.4194 75.2279 48.487 75.2953 48.487C75.3797 48.487 76.5939 48.4194 77.1841 48.4194C77.3865 48.4194 77.5047 48.4532 77.5047 48.5713C77.5047 48.6556 77.4372 48.6893 77.2685 48.723C77.1505 48.7398 77.0325 48.7399 76.8976 48.7567C76.2905 48.8411 76.2229 49.1614 76.1892 49.7686C76.1555 50.3419 76.1723 50.8142 76.1723 53.5799V56.7168C76.1723 58.3357 76.1555 59.786 76.2567 60.5449C76.341 61.152 76.4252 61.3881 76.9649 61.5062C77.2347 61.5736 77.6731 61.5905 77.7575 61.5905C77.943 61.6073 77.9936 61.658 77.9936 61.7423C77.9936 61.8266 77.9094 61.894 77.707 61.894C76.6446 61.894 75.4303 61.8266 75.3291 61.8266C75.2616 61.8266 74.0306 61.894 73.4403 61.894C73.2548 61.894 73.1031 61.8603 73.1031 61.7423C73.1031 61.658 73.1873 61.5905 73.3728 61.5905C73.474 61.5905 73.7101 61.5736 73.8788 61.523C74.2329 61.4387 74.3005 61.0172 74.3679 60.5112C74.4691 59.7523 74.469 58.2683 74.469 56.6999V53.5799H74.4352Z" fill="#BCB5B5"/>
<path d="M83.5578 56.7845C83.4566 56.7845 83.3891 56.8519 83.3554 56.9531L82.4278 59.567C82.2254 60.1573 82.0737 60.7138 82.0737 61.0511C82.0737 61.4221 82.3098 61.5908 82.7652 61.5908C82.8326 61.5908 82.8494 61.5908 82.9169 61.5908C83.1024 61.5908 83.1699 61.6583 83.1699 61.7426C83.1699 61.8438 83.0012 61.8943 82.8494 61.8943C82.394 61.8943 81.4328 61.8269 81.1967 61.8269C80.9943 61.8269 80.0669 61.8943 79.1899 61.8943C78.9538 61.8943 78.8525 61.8606 78.8525 61.7426C78.8525 61.6583 78.9369 61.5908 79.1055 61.5908C79.2067 61.5908 79.3922 61.5907 79.5272 61.5739C80.421 61.4896 80.775 60.7981 81.1461 59.9212L85.3286 48.892C85.5647 48.2849 85.6151 48.1836 85.7669 48.1836C85.8681 48.1836 85.9524 48.268 86.1885 48.8582C86.4752 49.5496 89.3253 56.8519 90.4383 59.4658C91.1298 61.1185 91.737 61.3884 92.0237 61.4896C92.2935 61.5908 92.5801 61.5908 92.7318 61.5908C92.8836 61.5908 92.9849 61.6245 92.9849 61.7426C92.9849 61.8438 92.9006 61.8943 92.6645 61.8943C92.4622 61.8943 90.8937 61.8944 89.4771 61.8606C89.0724 61.8438 88.9543 61.8269 88.9543 61.7088C88.9543 61.6414 89.0219 61.5908 89.1062 61.5571C89.1905 61.5234 89.3084 61.4053 89.1904 61.1017L87.5377 56.9025C87.504 56.8351 87.4534 56.8013 87.3691 56.8013H83.5578V56.7845ZM87.1161 56.0424C87.2004 56.0424 87.2005 55.975 87.1836 55.9244L85.531 51.3036C85.4298 51.0169 85.4129 51.0169 85.2948 51.3036L83.7264 55.9244C83.6926 56.0087 83.7264 56.0424 83.7601 56.0424H87.1161Z" fill="#BCB5B5"/>
<path d="M94.958 49.0437C94.958 48.4028 95.0255 48.1836 95.1941 48.1836C95.3459 48.1836 95.7 48.6052 95.835 48.7401C96.0205 48.9425 98.9379 51.9276 101.855 54.9125C103.491 56.4978 105.582 58.6564 106.122 59.1623L105.886 50.4603C105.869 49.3304 105.734 48.9594 105.178 48.8077C104.824 48.7402 104.503 48.7233 104.368 48.7233C104.166 48.7233 104.115 48.639 104.115 48.5547C104.115 48.4535 104.284 48.4366 104.486 48.4366C105.38 48.4366 106.257 48.504 106.459 48.504C106.662 48.504 107.319 48.4366 108.129 48.4366C108.365 48.4366 108.416 48.4535 108.416 48.5547C108.416 48.639 108.348 48.7064 108.23 48.7233C108.112 48.7401 107.943 48.7402 107.707 48.7908C107.218 48.892 107.083 49.1112 107.083 50.3592L107.05 60.8656C107.05 61.9112 107.016 62.0124 106.864 62.0124C106.712 62.0124 106.51 61.8606 105.481 60.8994C105.397 60.8656 102.496 57.9649 100.675 56.1941C98.4995 53.9343 96.4082 51.7589 95.8854 51.2193L96.1553 59.3984C96.189 60.8487 96.324 61.3884 96.8468 61.5065C97.1841 61.5908 97.5382 61.5908 97.7069 61.5908C97.8755 61.5908 97.9599 61.6583 97.9599 61.7426C97.9599 61.8438 97.8586 61.8943 97.6225 61.8943C96.4926 61.8943 95.7337 61.8269 95.5988 61.8269C95.4471 61.8269 94.6712 61.8943 93.7774 61.8943C93.5918 61.8943 93.457 61.8775 93.457 61.7426C93.457 61.6583 93.5414 61.5908 93.7438 61.5908C93.8956 61.5908 94.1148 61.5908 94.3847 61.5065C94.84 61.3547 94.958 60.7981 94.958 59.2635C94.958 49.2798 94.9748 52.5009 94.958 49.0437Z" fill="#BCB5B5"/>
<path d="M46.5223 70.2579C45.7803 69.6001 45.5947 68.7232 45.5947 67.998C45.5947 67.4921 45.7634 66.5983 46.4548 65.9237C46.9102 65.4684 47.6016 65.1143 48.7821 65.1143C49.0857 65.1143 49.5073 65.1311 49.8783 65.1986C50.165 65.2492 50.4011 65.2829 50.6878 65.3166C50.7384 65.3166 50.7553 65.3503 50.7553 65.4009C50.7553 65.4684 50.7384 65.5527 50.7215 65.8225C50.7047 66.0755 50.7047 66.4972 50.7047 66.6152C50.7047 66.7333 50.6877 66.7669 50.6371 66.7669C50.5866 66.7669 50.5696 66.7164 50.5696 66.6152C50.5696 66.3116 50.4517 66.0081 50.2493 65.8394C49.9795 65.6033 49.3892 65.4009 48.7315 65.4009C47.7196 65.4009 47.2473 65.7045 46.9775 65.9575C46.421 66.4971 46.2862 67.1717 46.2862 67.9475C46.2862 69.3978 47.3993 70.7301 49.0351 70.7301C49.6085 70.7301 50.0637 70.6626 50.3673 70.3422C50.519 70.1735 50.6203 69.8362 50.654 69.7013C50.6709 69.617 50.6878 69.5832 50.7384 69.5832C50.7722 69.5832 50.7889 69.6338 50.7889 69.7013C50.7889 69.7519 50.7046 70.4096 50.6203 70.6795C50.5697 70.8312 50.5528 70.8313 50.4179 70.8987C50.1143 71.0168 49.5411 71.0673 49.052 71.0673C47.8884 71.0673 47.1126 70.7975 46.5223 70.2579Z" fill="#BCB5B5"/>
<path d="M51.6494 68.5047C51.6494 67.4929 52.4422 65.9751 54.3141 65.9751C55.815 65.9751 56.9786 66.8689 56.9786 68.4036C56.9786 69.8539 55.8993 71.0513 54.2803 71.0513C52.4253 71.0513 51.6494 69.6684 51.6494 68.5047ZM56.2702 68.6059C56.2702 67.0713 55.3259 66.228 54.2803 66.228C53.2179 66.228 52.3747 66.8857 52.3747 68.3192C52.3747 69.8201 53.201 70.7983 54.4827 70.7983C54.9886 70.7983 56.2702 70.5285 56.2702 68.6059Z" fill="#BCB5B5"/>
<path d="M58.3787 66.2955C58.3787 66.0594 58.3957 65.9751 58.4631 65.9751C58.5137 65.9751 58.6487 66.1269 58.6992 66.1775C58.7667 66.2618 59.829 67.341 60.8915 68.4203C61.4817 68.9937 62.2407 69.7864 62.4431 69.9719L62.3587 66.8014C62.3587 66.3967 62.3082 66.2449 62.1059 66.1943C61.971 66.1775 61.8697 66.1606 61.8022 66.1606C61.7179 66.1606 61.718 66.1269 61.718 66.0932C61.718 66.0594 61.7854 66.0425 61.8529 66.0425C62.1733 66.0425 62.4938 66.0594 62.5612 66.0594C62.6456 66.0594 62.8816 66.0425 63.1683 66.0425C63.2527 66.0425 63.2694 66.0426 63.2694 66.0932C63.2694 66.1269 63.2525 66.1437 63.2019 66.1606C63.1513 66.1606 63.1007 66.1606 63.0164 66.1775C62.8478 66.2112 62.7803 66.2955 62.7803 66.7508L62.7636 70.579C62.7636 70.9669 62.7467 71.0006 62.6961 71.0006C62.6455 71.0006 62.5611 70.9501 62.1901 70.5959C62.1563 70.579 61.094 69.5334 60.4363 68.8757C59.6437 68.0494 58.8848 67.2567 58.6992 67.0712L58.8003 70.0562C58.8172 70.579 58.8678 70.7814 59.0533 70.832C59.1714 70.8658 59.3064 70.8657 59.3739 70.8657C59.4413 70.8657 59.4581 70.8826 59.4581 70.9163C59.4581 70.9501 59.4244 70.9669 59.3401 70.9669C58.9354 70.9669 58.6486 70.95 58.598 70.95C58.5474 70.95 58.2606 70.9669 57.9402 70.9669C57.8728 70.9669 57.8223 70.9669 57.8223 70.9163C57.8223 70.8826 57.8561 70.8657 57.9236 70.8657C57.9741 70.8657 58.0583 70.8658 58.1595 70.832C58.3281 70.7814 58.3618 70.579 58.3618 70.0225C58.3787 66.3798 58.3956 67.5603 58.3787 66.2955Z" fill="#BCB5B5"/>
<path d="M64.2798 70.8818C64.1786 70.8312 64.1787 70.7976 64.1787 70.6289C64.1787 70.2748 64.1956 70.0217 64.2125 69.9206C64.2125 69.8531 64.2292 69.8194 64.2798 69.8194C64.3304 69.8194 64.3304 69.8362 64.3304 69.9037C64.3304 69.9543 64.3304 70.0386 64.3473 70.1398C64.4485 70.6289 64.9038 70.8313 65.3423 70.8313C65.9662 70.8313 66.2868 70.3928 66.2868 70.0217C66.2868 69.5833 66.0843 69.3135 65.5277 68.875L65.2243 68.6389C64.4991 68.0486 64.3473 67.6439 64.3473 67.2054C64.3473 66.4971 64.9038 66.0249 65.7639 66.0249C66.0337 66.0249 66.2192 66.0418 66.3878 66.0924C66.5396 66.1262 66.5902 66.1261 66.6408 66.1261C66.6914 66.1261 66.7084 66.143 66.7084 66.1767C66.7084 66.2105 66.6746 66.4803 66.6746 66.9188C66.6746 67.0368 66.6577 67.0705 66.624 67.0705C66.5902 67.0705 66.5733 67.0368 66.5733 66.9862C66.5733 66.9187 66.5566 66.75 66.4891 66.632C66.4554 66.5645 66.2699 66.2779 65.629 66.2779C65.1737 66.2779 64.8364 66.5477 64.8364 67.0031C64.8364 67.3572 65.0219 67.5765 65.6459 68.0655L65.8145 68.2005C66.6071 68.8076 66.8094 69.2123 66.8094 69.752C66.8094 70.0218 66.6914 70.5109 66.2361 70.8313C65.9326 71.0168 65.5784 71.1011 65.2074 71.1011C64.8533 71.0505 64.5665 71.0168 64.2798 70.8818Z" fill="#BCB5B5"/>
<path d="M69.9141 69.0945C69.9141 69.6848 69.9139 70.2245 69.9476 70.5112C69.9645 70.6967 69.9814 70.7978 70.1837 70.8484C70.2681 70.8652 70.4199 70.8821 70.4874 70.8821C70.5548 70.8821 70.5718 70.899 70.5718 70.9328C70.5718 70.9665 70.5548 71.0002 70.4705 71.0002C70.0826 71.0002 69.6273 70.9833 69.6104 70.9833C69.5935 70.9833 69.1382 71.0002 68.9358 71.0002C68.8515 71.0002 68.8178 70.9833 68.8178 70.9495C68.8178 70.9327 68.8346 70.899 68.902 70.899C68.9695 70.899 69.0034 70.899 69.0708 70.899C69.2226 70.8821 69.2395 70.7809 69.2732 70.5279C69.3069 70.2581 69.307 69.7017 69.307 69.1283V66.4131C69.054 66.4131 68.6491 66.4131 68.3456 66.4131C67.8565 66.4131 67.7553 66.4974 67.6372 66.6492C67.5698 66.7503 67.5361 66.8516 67.5193 66.8853C67.5024 66.9359 67.4855 66.9527 67.4517 66.9527C67.418 66.9527 67.418 66.919 67.418 66.8853C67.418 66.8347 67.5193 66.3287 67.5699 66.1264C67.5868 66.042 67.6203 66.0083 67.6372 66.0083C67.6878 66.0083 67.8397 66.0758 67.9746 66.0927C68.2445 66.1264 68.4469 66.1264 68.4638 66.1264H70.9596C71.1789 66.1264 71.398 66.1096 71.5161 66.0927C71.6173 66.0758 71.6341 66.0589 71.6678 66.0589C71.7015 66.0589 71.7185 66.0926 71.7185 66.1264C71.7185 66.3456 71.7016 66.8347 71.7016 66.9022C71.7016 66.9696 71.6678 66.9865 71.6509 66.9865C71.6172 66.9865 71.6005 66.9528 71.6005 66.9022C71.6005 66.8853 71.6005 66.8684 71.6005 66.801C71.5668 66.4974 71.4655 66.4131 70.7066 66.4131C70.4199 66.4131 70.1837 66.4131 69.9645 66.4131V69.0945H69.9141Z" fill="#BCB5B5"/>
<path d="M73.0511 67.9479C73.0511 66.936 73.0511 66.7673 73.0343 66.5481C73.0174 66.3457 72.9667 66.2277 72.7306 66.1771C72.68 66.1771 72.6126 66.1603 72.5451 66.1603C72.4945 66.1603 72.4609 66.1434 72.4609 66.1096C72.4609 66.0759 72.4777 66.0591 72.5451 66.0591C72.8656 66.0591 73.3377 66.076 73.3546 66.076C73.422 66.076 73.945 66.0591 74.1474 66.0591C74.569 66.0591 75.0412 66.0928 75.3953 66.3457C75.5471 66.4469 75.8505 66.7505 75.8505 67.2733C75.8505 67.6949 75.6481 68.2177 75.041 68.7068C75.5975 69.3982 76.053 69.9547 76.4409 70.3595C76.8119 70.7305 77.0311 70.798 77.2503 70.8317C77.3009 70.8317 77.4696 70.8485 77.4865 70.8485C77.5539 70.8485 77.5707 70.8654 77.5707 70.8991C77.5707 70.9329 77.537 70.9497 77.4358 70.9497H76.8963C76.5421 70.9497 76.3734 70.9328 76.2048 70.8654C75.8843 70.7305 75.6481 70.3932 75.2603 69.8704C74.9567 69.4994 74.6533 69.0947 74.5352 68.926C74.5015 68.8923 74.4845 68.8754 74.4508 68.8754H73.6582C73.6245 68.8754 73.6245 68.8754 73.6245 68.9092V69.0103C73.6245 69.6175 73.6245 70.1739 73.6582 70.4438C73.6751 70.6293 73.7087 70.7811 73.9617 70.8148C74.046 70.8148 74.1135 70.8317 74.1809 70.8317C74.2484 70.8317 74.2822 70.8485 74.2822 70.8823C74.2822 70.916 74.2484 70.9497 74.1809 70.9497C73.793 70.9497 73.3546 70.9329 73.3208 70.9329C73.2028 70.9329 72.8657 70.9497 72.6633 70.9497C72.579 70.9497 72.562 70.9328 72.562 70.8823C72.562 70.8654 72.6127 70.8317 72.6464 70.8317C72.697 70.8317 72.7476 70.8317 72.815 70.8148C72.9499 70.798 72.9837 70.7136 73.0174 70.5281C73.0511 70.2582 73.0511 69.6343 73.0511 69.0609V67.9479ZM73.6414 68.4875C73.6414 68.5213 73.6414 68.5719 73.6751 68.5719C73.7763 68.6224 74.0799 68.673 74.3497 68.673C74.5015 68.673 74.7038 68.673 74.8555 68.555C75.0916 68.4032 75.2434 68.0828 75.2434 67.5937C75.2434 66.7673 74.8051 66.312 74.1305 66.312C73.945 66.312 73.7763 66.3289 73.692 66.3457C73.6751 66.3457 73.6414 66.3795 73.6414 66.4133V68.4875Z" fill="#BCB5B5"/>
<path d="M78.4813 68.8585C78.4813 69.7861 78.65 70.1908 78.9536 70.4438C79.274 70.7305 79.645 70.798 79.9654 70.798C80.3533 70.798 80.7243 70.6968 81.011 70.3595C81.3145 70.0053 81.382 69.4319 81.382 68.7742V67.9648C81.382 66.9698 81.3819 66.7842 81.3651 66.5819C81.3482 66.3626 81.3315 66.2445 81.0785 66.2108C81.0279 66.2108 80.9267 66.194 80.8593 66.194C80.8087 66.194 80.7749 66.1771 80.7749 66.1434C80.7749 66.0928 80.8087 66.076 80.8762 66.076C81.1966 66.076 81.5844 66.0928 81.6181 66.0928C81.6518 66.0928 81.989 66.076 82.1914 66.076C82.2757 66.076 82.2927 66.0928 82.2927 66.1265C82.2927 66.1602 82.2589 66.1771 82.2083 66.1771C82.1577 66.1771 82.1409 66.1771 82.0735 66.1771C81.8542 66.194 81.8373 66.3289 81.8204 66.565C81.8204 66.7674 81.8204 66.9529 81.8204 67.9479V68.6225C81.8204 69.3139 81.7361 70.1234 81.1965 70.5956C80.7074 71.0172 80.2184 71.051 79.7968 71.051C79.5776 71.051 78.8691 71.0509 78.3801 70.5956C78.0596 70.292 77.8236 69.8367 77.8236 68.8923V67.9479C77.8236 66.936 77.8236 66.7674 77.8067 66.565C77.8067 66.3626 77.7563 66.2278 77.5202 66.194C77.4696 66.194 77.3853 66.1771 77.3178 66.1771C77.2672 66.1771 77.2334 66.1602 77.2334 66.1265C77.2334 66.0759 77.267 66.0591 77.3514 66.0591C77.6718 66.0591 78.0935 66.076 78.1441 66.076C78.2116 66.076 78.6499 66.0591 78.8523 66.0591C78.9366 66.0591 78.9536 66.0759 78.9536 66.1096C78.9536 66.1434 78.9029 66.1603 78.8692 66.1603C78.8186 66.1603 78.768 66.1603 78.7006 66.1771C78.5151 66.194 78.4813 66.3289 78.4645 66.5481C78.4645 66.7505 78.4645 66.936 78.4645 67.931V68.8585H78.4813Z" fill="#BCB5B5"/>
<path d="M83.8253 70.3595C83.1844 69.803 83.0156 69.044 83.0156 68.4201C83.0156 67.9985 83.1844 67.2396 83.7915 66.6662C84.1963 66.2783 84.8202 65.9917 85.832 65.9917C86.1862 65.9917 86.456 66.0254 86.8439 66.076C87.08 66.1097 87.333 66.1603 87.5185 66.1603C87.5859 66.1603 87.586 66.194 87.586 66.2446C87.586 66.3121 87.5691 66.3796 87.5522 66.6157C87.5522 66.8349 87.5522 67.2228 87.5354 67.3239C87.5354 67.4251 87.5184 67.4757 87.4678 67.4757C87.4172 67.4757 87.4005 67.4251 87.4005 67.3239C87.4005 67.1047 87.2992 66.8011 87.0969 66.6662C86.8608 66.4638 86.3381 66.2784 85.7478 66.2784C84.9046 66.2784 84.5166 66.5145 84.2804 66.7169C83.7914 67.1722 83.6734 67.7118 83.6734 68.3864C83.6734 69.6512 84.7021 70.7642 86.0344 70.7642C86.5572 70.7642 86.9283 70.7136 87.1982 70.4438C87.3331 70.292 87.4172 70.1066 87.451 69.8874C87.4678 69.803 87.4848 69.7693 87.5354 69.7693C87.5691 69.7693 87.5691 69.8199 87.5691 69.8705C87.5691 69.9379 87.468 70.545 87.4174 70.7137C87.3668 70.8317 87.3498 70.8654 87.2486 70.8992C86.9788 71.0172 86.4729 71.051 86.0513 71.051C85.0563 71.051 84.3649 70.8317 83.8253 70.3595Z" fill="#BCB5B5"/>
<path d="M90.7068 69.0945C90.7068 69.6848 90.7069 70.2245 90.7406 70.5112C90.7575 70.6967 90.7743 70.7978 90.9767 70.8484C91.061 70.8652 91.2127 70.8821 91.2802 70.8821C91.3476 70.8821 91.3646 70.899 91.3646 70.9328C91.3646 70.9665 91.3476 71.0002 91.2633 71.0002C90.8754 71.0002 90.42 70.9833 90.4032 70.9833C90.3694 70.9833 89.9311 71.0002 89.7288 71.0002C89.6444 71.0002 89.6106 70.9833 89.6106 70.9495C89.6106 70.9327 89.6275 70.899 89.695 70.899C89.7625 70.899 89.7962 70.899 89.8636 70.899C90.0154 70.8821 90.0322 70.7809 90.066 70.5279C90.0997 70.2581 90.0997 69.7017 90.0997 69.1283V66.4131C89.8468 66.4131 89.4419 66.4131 89.1384 66.4131C88.6493 66.4131 88.5482 66.4974 88.4302 66.6492C88.3627 66.7503 88.3289 66.8516 88.312 66.8853C88.2952 66.9359 88.2784 66.9527 88.2447 66.9527C88.211 66.9527 88.2109 66.919 88.2109 66.8853C88.2109 66.8347 88.3121 66.3287 88.3627 66.1264C88.3795 66.042 88.4133 66.0083 88.4302 66.0083C88.4808 66.0083 88.6325 66.0758 88.7674 66.0927C89.0372 66.1264 89.2397 66.1264 89.2565 66.1264H91.7524C91.9716 66.1264 92.1908 66.1096 92.3089 66.0927C92.41 66.0758 92.4271 66.0589 92.4608 66.0589C92.4945 66.0589 92.5112 66.0926 92.5112 66.1264C92.5112 66.3456 92.4945 66.8347 92.4945 66.9022C92.4945 66.9696 92.4608 66.9865 92.4439 66.9865C92.4102 66.9865 92.3933 66.9528 92.3933 66.9022C92.3933 66.8853 92.3933 66.8684 92.3933 66.801C92.3595 66.4974 92.2583 66.4131 91.4994 66.4131C91.2127 66.4131 90.9767 66.4131 90.7575 66.4131V69.0945H90.7068Z" fill="#BCB5B5"/>
<path d="M93.8436 67.9481C93.8436 66.9362 93.8436 66.7676 93.8267 66.5483C93.8099 66.3459 93.7593 66.228 93.6075 66.1942C93.5232 66.1774 93.4726 66.1774 93.4389 66.1774C93.3883 66.1774 93.3545 66.1604 93.3545 66.1267C93.3545 66.093 93.3883 66.0762 93.4727 66.0762C93.7088 66.0762 94.1473 66.0931 94.1642 66.0931C94.1979 66.0931 94.6362 66.0762 94.8554 66.0762C94.9398 66.0762 94.9736 66.093 94.9736 66.1267C94.9736 66.1604 94.9567 66.1774 94.8892 66.1774C94.8386 66.1774 94.805 66.1774 94.7544 66.1942C94.5351 66.228 94.5182 66.346 94.5014 66.5652C94.4845 66.7676 94.5014 66.9531 94.5014 67.9481V69.0948C94.5014 69.6851 94.5014 70.2079 94.5351 70.4946C94.5688 70.7139 94.6026 70.7981 94.7881 70.8487C94.8893 70.8656 95.041 70.8825 95.0747 70.8825C95.1421 70.8825 95.1591 70.8994 95.1591 70.9331C95.1591 70.9668 95.1253 70.9836 95.0578 70.9836C94.6699 70.9836 94.2314 70.9668 94.1977 70.9668C94.1808 70.9668 93.7257 70.9836 93.5064 70.9836C93.439 70.9836 93.3883 70.9668 93.3883 70.9331C93.3883 70.8994 93.4221 70.8825 93.4895 70.8825C93.5233 70.8825 93.6076 70.8824 93.675 70.8656C93.8099 70.8319 93.8268 70.6801 93.8436 70.4946C93.8774 70.2248 93.8774 69.6851 93.8774 69.1117V67.9481H93.8436Z" fill="#BCB5B5"/>
<path d="M96.0029 68.5047C96.0029 67.4929 96.7955 65.9751 98.6674 65.9751C100.168 65.9751 101.332 66.8689 101.332 68.4036C101.332 69.8539 100.253 71.0513 98.6337 71.0513C96.7617 71.0513 96.0029 69.6684 96.0029 68.5047ZM100.607 68.6059C100.607 67.0713 99.6624 66.228 98.6168 66.228C97.5543 66.228 96.7113 66.8857 96.7113 68.3192C96.7113 69.8201 97.5377 70.7983 98.8193 70.7983C99.3253 70.7983 100.607 70.5285 100.607 68.6059Z" fill="#BCB5B5"/>
<path d="M102.715 66.2955C102.715 66.0594 102.732 65.9751 102.799 65.9751C102.85 65.9751 102.985 66.1269 103.035 66.1775C103.103 66.2618 104.165 67.341 105.227 68.4203C105.818 68.9937 106.577 69.7864 106.779 69.9719L106.695 66.8014C106.695 66.3967 106.644 66.2449 106.442 66.1943C106.307 66.1775 106.206 66.1606 106.138 66.1606C106.054 66.1606 106.054 66.1269 106.054 66.0932C106.054 66.0594 106.121 66.0425 106.189 66.0425C106.509 66.0425 106.83 66.0594 106.897 66.0594C106.981 66.0594 107.217 66.0425 107.504 66.0425C107.588 66.0425 107.605 66.0426 107.605 66.0932C107.605 66.1269 107.588 66.1437 107.538 66.1606C107.487 66.1606 107.437 66.1606 107.352 66.1775C107.184 66.2112 107.116 66.2955 107.116 66.7508L107.099 70.579C107.099 70.9669 107.083 71.0006 107.032 71.0006C106.981 71.0006 106.897 70.9501 106.526 70.5959C106.492 70.579 105.43 69.5334 104.772 68.8757C103.979 68.0494 103.221 67.2567 103.035 67.0712L103.136 70.0562C103.153 70.579 103.204 70.7814 103.389 70.832C103.507 70.8658 103.642 70.8657 103.71 70.8657C103.777 70.8657 103.794 70.8826 103.794 70.9163C103.794 70.9501 103.76 70.9669 103.676 70.9669C103.271 70.9669 102.984 70.95 102.934 70.95C102.883 70.95 102.597 70.9669 102.276 70.9669C102.209 70.9669 102.158 70.9669 102.158 70.9163C102.158 70.8826 102.192 70.8657 102.259 70.8657C102.31 70.8657 102.394 70.8658 102.495 70.832C102.664 70.7814 102.698 70.579 102.698 70.0225C102.715 66.3798 102.732 67.5603 102.715 66.2955Z" fill="#BCB5B5"/>
<path d="M29.0689 44.0674C33.3356 29.4629 46.1358 18.8552 61.2631 18.8552C76.3904 18.8552 89.2072 29.4629 93.457 44.0674H95.211C90.5058 26.0226 74.0967 12.6997 54.5678 12.6997C35.0389 12.6997 18.63 26.0226 13.9248 44.0674H29.0689Z" fill="#BCB5B5"/>
<path d="M88.7497 75.4012C82.6448 84.5417 72.6107 90.5286 61.261 90.5286C46.0494 90.5286 33.1987 79.8029 28.9995 65.0972H13.8721C18.4929 83.26 34.9694 96.7009 54.5657 96.7009C70.2327 96.7009 83.876 88.117 91.0939 75.4181H88.7497V75.4012Z" fill="#BCB5B5"/>
<path d="M56.3874 44.0678H52.9639L54.1107 0.0180664H55.2405L56.3874 44.0678Z" fill="#BCB5B5"/>
<path d="M56.3874 75.4688H52.9639L54.1107 119.518H55.2405L56.3874 75.4688Z" fill="#BCB5B5"/>
</svg>
