<svg width="486" height="120" viewBox="0 0 486 120" fill="none" xmlns="http://www.w3.org/2000/svg">
<path fill-rule="evenodd" clip-rule="evenodd" d="M462.849 22.8018H464.485V19.7831H462.849V22.8018ZM458.414 22.8018H460.05V19.7831H458.414V22.8018ZM462.849 34.4213H464.485V31.4027H462.849V34.4213ZM462.849 28.6031H464.485V25.5844H462.849V28.6031ZM458.414 46.0409H460.05V43.0221H458.414V46.0409ZM458.414 40.2227H460.05V37.204H458.414V40.2227ZM458.414 34.4213H460.05V31.4027H458.414V34.4213ZM458.414 28.6031H460.05V25.5844H458.414V28.6031ZM449.139 68.403V57.2556H451.247L457.251 16.9162H477.1L483.104 57.2556H485.212V68.403H449.139ZM462.512 57.2556H471.855L467.184 27.6082L462.512 57.2556ZM440.454 32.3471H441.988V34.5899H440.454V32.3471ZM436.305 32.3471H437.84V34.5899H436.305V32.3471ZM436.305 28.0298H437.84V30.2727H436.305V28.0298ZM417.636 56.8003V37.8111C417.636 31.1159 419.879 25.5001 427.047 25.5001H435.394C442.562 25.5001 444.805 31.1328 444.805 37.8111V56.8003C444.805 60.4262 444.299 64.0014 441.718 66.8009C440.538 68.0826 437.907 68.8415 435.394 68.8246H427.047C424.534 68.8583 421.903 68.0826 420.722 66.8009C418.142 64.0182 417.636 60.443 417.636 56.8003ZM440.454 51.8253H441.988V49.5823H440.454V51.8253ZM436.305 51.8253H437.84V49.5823H436.305V51.8253ZM436.305 56.1426H437.84V53.8996H436.305V56.1426ZM440.454 36.6474H441.988V38.8904H440.454V36.6474ZM440.454 47.525H441.988V45.282H440.454V47.525ZM436.305 47.525H437.84V45.282H436.305V47.525ZM440.454 40.9647H441.988V43.2077H440.454V40.9647ZM436.305 40.9647H437.84V43.2077H436.305V40.9647ZM436.305 36.6474H437.84V38.8904H436.305V36.6474ZM428.733 36.698V57.6098C428.733 60.6116 434.045 60.5442 434.045 57.6098V36.698C434.028 33.7973 428.733 33.6624 428.733 36.698ZM270.967 2.36223V17.4896H274.93L281.153 2.36223H270.967ZM263.614 30.9979H261.978V28.1141H263.614V30.9979ZM263.614 25.4495H261.978V22.5658H263.614V25.4495ZM263.614 36.5294H261.978V33.6455H263.614V36.5294ZM267.291 30.9979H265.655V28.1141H267.291V30.9979ZM267.291 25.4495H265.655V22.5658H267.291V25.4495ZM270.967 25.4495H269.331V22.5658H270.967V25.4495ZM297.545 8.38281V68.403H281.794V40.5093L272.907 68.403H259.499V19.9855H272.873L272.907 45.3157L281.794 17.0005V8.36593H297.545V8.38281ZM243.596 19.0916H241.724V16.815H243.596V19.0916ZM243.596 23.5102H241.724V21.2334H243.596V23.5102ZM247.425 19.0916H245.553V16.815H247.425V19.0916ZM247.425 23.5102H245.553V21.2334H247.425V23.5102ZM251.253 19.0916H249.381V16.815H251.253V19.0916ZM251.253 23.5102H249.381V21.2334H251.253V23.5102ZM251.253 27.9286H249.381V25.6519H251.253V27.9286ZM231.64 11.9243H230.02V9.25979H231.64V11.9243ZM231.64 17.068H230.02V14.4034H231.64V17.068ZM227.997 11.9243H226.378V9.25979H227.997V11.9243ZM227.997 17.068H226.378V14.4034H227.997V17.068ZM224.337 11.9243H222.718V9.25979H224.337V11.9243ZM224.337 17.068H222.718V14.4034H224.337V17.068ZM240.476 29.0416V14.9262H252.535V33.1227C251.405 30.9135 249.735 29.3958 247.172 29.1428C246.514 29.0753 245.924 29.0416 245.384 29.0416H240.476ZM220.779 68.403V7.03368H233.613V31.2846H243.731C244.17 31.2846 244.659 31.3183 245.182 31.3689C245.721 31.4195 246.278 31.4701 246.851 31.605C248.116 31.9423 249.263 32.7687 250.308 33.9492C251.354 35.1297 251.877 37.1365 251.877 39.936V60.0551C251.877 60.4261 251.86 60.8477 251.843 61.3031C251.826 61.7584 251.792 62.2137 251.742 62.6353C251.556 64.0857 250.915 65.418 249.853 66.5985C248.79 67.779 246.733 68.3861 243.681 68.3861H220.779V68.403ZM233.613 58.9253H237.846C238.621 58.9253 239.161 58.706 239.482 58.2844C239.802 57.8459 240.004 57.3736 240.105 56.834C240.156 56.5642 240.173 56.2944 240.173 56.0245C240.173 55.7547 240.173 55.5186 240.173 55.2994V44.4725C240.173 44.3039 240.173 44.1015 240.173 43.8317C240.173 43.5618 240.156 43.2919 240.105 43.0221C240.021 42.533 239.802 42.0946 239.482 41.6899C239.161 41.2851 238.638 41.0828 237.913 41.0828H233.613V58.9253ZM203.611 25.7868H202.059V23.156H203.611V25.7868ZM203.611 20.7106H202.059V18.0798H203.611V20.7106ZM203.611 40.9985H202.059V38.3676H203.611V40.9985ZM203.611 30.8461H202.059V28.2153H203.611V30.8461ZM207.102 25.7868H205.55V23.156H207.102V25.7868ZM207.102 20.7106H205.55V18.0798H207.102V20.7106ZM207.102 40.9985H205.55V38.3676H207.102V40.9985ZM207.102 35.9223H205.55V33.2915H207.102V35.9223ZM210.593 20.7106H209.041V18.0798H210.593V20.7106ZM210.593 35.9223H209.041V33.2915H210.593V35.9223ZM210.593 30.8461H209.041V28.2153H210.593V30.8461ZM212.364 68.403V15.7694H200.306V40.7286H192.7V23.5945H180.642V68.403H192.7V51.7916H200.306V68.403H212.364ZM76.9767 68.403V10.3897H90.3502V47.3394L100.705 22.3296H113.201V68.403H100.705V45.4169L90.3502 68.403H76.9767ZM1.18848 68.403V0.0180664H16.5181V32.0097L22.5557 0.0180664H36.6373L29.6892 29.0247L37.8853 68.403H23.8709L16.5181 32.229V68.403H1.18848ZM80.788 20.9468H79.1522V18.046H80.788V20.9468ZM80.788 15.3815H79.1522V12.4808H80.788V15.3815ZM80.788 54.3719H79.1522V51.4711H80.788V54.3719ZM80.788 48.8067H79.1522V45.9059H80.788V48.8067ZM80.788 43.2246H79.1522V40.3238H80.788V43.2246ZM80.788 37.6593H79.1522V34.7586H80.788V37.6593ZM80.788 32.0941H79.1522V29.1934H80.788V32.0941ZM80.788 26.512H79.1522V23.6113H80.788V26.512ZM84.4814 20.9468H82.8456V18.046H84.4814V20.9468ZM84.4814 15.3815H82.8456V12.4808H84.4814V15.3815ZM84.4814 48.8067H82.8456V45.9059H84.4814V48.8067ZM84.4814 43.2246H82.8456V40.3238H84.4814V43.2246ZM84.4814 37.6593H82.8456V34.7586H84.4814V37.6593ZM84.4814 32.0941H82.8456V29.1934H84.4814V32.0941ZM84.4814 26.512H82.8456V23.6113H84.4814V26.512ZM88.1746 20.9468H86.5388V18.046H88.1746V20.9468ZM88.1746 15.3815H86.5388V12.4808H88.1746V15.3815ZM88.1746 32.0941H86.5388V29.1934H88.1746V32.0941ZM88.1746 26.512H86.5388V23.6113H88.1746V26.512ZM41.3761 68.3861V24.3027H53.4341V32.6844H59.4884V18.2316H71.5464V68.403H59.4884V44.4556H53.4341V68.403L41.3761 68.3861ZM141.28 68.403V48.0814L132.342 68.403H116.642L128.093 49.5992L118.463 30.2727L133.776 30.2559L141.264 47.8959V23.8811H153.979V45.7373L164.132 21.9417H176.915L167.201 45.7036L175.043 68.403H162.901L153.962 45.9228V68.403H141.28ZM144.755 38.8398H143.119V36.1415H144.755V38.8398ZM144.755 33.6624H143.119V30.9642H144.755V33.6624ZM144.755 28.4851H143.119V25.7868H144.755V28.4851ZM148.448 44.034H146.812V41.3357H148.448V44.034ZM148.448 38.8398H146.812V36.1415H148.448V38.8398ZM148.448 33.6624H146.812V30.9642H148.448V33.6624ZM148.448 28.4851H146.812V25.7868H148.448V28.4851ZM152.141 38.8398H150.505V36.1415H152.141V38.8398ZM152.141 33.6624H150.505V30.9642H152.141V33.6624ZM152.141 28.4851H150.505V25.7868H152.141V28.4851ZM383.115 68.403V18.7206H404.482V18.67H406.32C412.054 18.67 413.521 23.3077 413.521 28.0803V42.5837C413.521 48.267 411.531 51.7579 405.325 51.7579H395.662V68.403H383.115ZM344.04 6.46025H341.848V2.8176H344.057V6.46025H344.04ZM348.577 6.46025H346.368V2.8176H348.577V6.46025ZM325.962 6.46025H323.753V2.8176H325.962V6.46025ZM330.481 6.46025H328.272V2.8176H330.481V6.46025ZM335.001 6.46025H332.792V2.8176H335.001V6.46025ZM339.521 6.46025H337.311V2.8176H339.521V6.46025ZM325.962 13.5602H323.753V9.91752H325.962V13.5602ZM330.481 13.5602H328.272V9.91752H330.481V13.5602ZM335.001 13.5602H332.792V9.91752H335.001V13.5602ZM325.962 20.6432H323.753V17.0005H325.962V20.6432ZM330.481 20.6432H328.272V17.0005H330.481V20.6432ZM335.001 20.6432H332.792V17.0005H335.001V20.6432ZM335.001 41.9091H332.792V38.2665H335.001V41.9091ZM335.001 34.8261H332.792V31.1834H335.001V34.8261ZM325.962 27.7262H323.753V24.0835H325.962V27.7262ZM330.481 27.7262H328.272V24.0835H330.481V27.7262ZM335.001 27.7262H332.792V24.0835H335.001V27.7262ZM393.301 33.4263H391.884V30.9135H393.301V33.4263ZM393.301 38.2496H391.884V35.7368H393.301V38.2496ZM393.301 23.7631H391.884V21.2503H393.301V23.7631ZM393.301 28.5862H391.884V26.0735H393.301V28.5862ZM390.097 33.4263H388.68V30.9135H390.097V33.4263ZM390.097 38.2496H388.68V35.7368H390.097V38.2496ZM390.097 43.0896H388.68V40.5769H390.097V43.0896ZM390.097 47.9297H388.68V45.4169H390.097V47.9297ZM390.097 52.7528H388.68V50.2401H390.097V52.7528ZM390.097 23.7631H388.68V21.2503H390.097V23.7631ZM390.097 28.5862H388.68V26.0735H390.097V28.5862ZM386.892 33.4263H385.476V30.9135H386.892V33.4263ZM386.892 38.2496H385.476V35.7368H386.892V38.2496ZM386.892 43.0896H385.476V40.5769H386.892V43.0896ZM386.892 47.9297H385.476V45.4169H386.892V47.9297ZM386.892 52.7528H385.476V50.2401H386.892V52.7528ZM386.892 57.5929H385.476V55.0801H386.892V57.5929ZM386.892 23.7631H385.476V21.2503H386.892V23.7631ZM386.892 28.5862H385.476V26.0735H386.892V28.5862ZM345.288 58.1495V24.8255C345.288 20.8793 346.283 16.191 350.381 14.5214C351.478 14.0661 353.754 13.8975 354.952 13.8975H367.414C369.792 13.8975 372.423 14.4877 373.62 15.6513C376.133 18.0629 376.892 21.4864 376.892 24.8424V58.1663C376.892 61.4886 376.335 64.6254 373.806 67.037C372.625 68.1669 369.927 68.7233 367.414 68.7402L354.952 68.8246C352.439 68.8415 349.572 68.1669 348.391 67.037C345.845 64.6085 345.288 61.4886 345.288 58.1495ZM357.262 24.4882V58.2169C357.262 59.5492 359.319 60.8646 360.803 60.8646C362.287 60.8646 364.159 59.5323 364.159 58.2169V24.4882C364.159 23.1897 362.287 21.8574 360.803 21.8405C359.319 21.8236 357.262 23.1222 357.262 24.4882ZM395.662 44.8097C397.905 44.8097 400.822 45.4506 400.822 42.3645V28.4345C400.822 26.7818 400.047 25.9386 398.461 25.8037L395.679 25.7868V44.8097H395.662ZM321.24 68.403V0.0180664H350.82V9.69828H337.413V68.403H321.24ZM5.43832 5.93746H3.22899V2.29481H5.43832V5.93746ZM9.95784 5.93746H7.74872V2.29481H9.95784V5.93746ZM14.4776 5.93746H12.2682V2.29481H14.4776V5.93746ZM5.43832 13.0205H3.22899V9.37785H5.43832V13.0205ZM9.95784 13.0205H7.74872V9.37785H9.95784V13.0205ZM14.4776 13.0205H12.2682V9.37785H14.4776V13.0205ZM5.43832 20.1204H3.22899V16.4777H5.43832V20.1204ZM9.95784 20.1204H7.74872V16.4777H9.95784V20.1204ZM14.4776 20.1204H12.2682V16.4777H14.4776V20.1204ZM9.95784 34.2864H7.74872V30.6437H9.95784V34.2864ZM5.43832 34.2864H3.22899V30.6437H5.43832V34.2864ZM14.4776 27.2035H12.2682V23.5607H14.4776V27.2035ZM9.95784 27.2035H7.74872V23.5607H9.95784V27.2035ZM5.43832 27.2035H3.22899V23.5607H5.43832V27.2035Z" fill="#BCB5B5"/>
<path d="M259.026 104.611C259.667 104.611 260.19 104.83 260.628 105.268C261.067 105.707 261.286 106.246 261.286 106.887C261.286 107.528 261.067 108.051 260.628 108.489C260.19 108.928 259.667 109.147 259.026 109.147C258.385 109.147 257.863 108.928 257.424 108.489C256.986 108.051 256.767 107.528 256.767 106.887C256.767 106.246 256.986 105.724 257.424 105.268C257.846 104.83 258.385 104.611 259.026 104.611ZM259.026 103.38C258.503 102.705 258.132 101.98 257.913 101.204C257.694 100.445 257.593 99.467 257.593 98.2696V92.5358C257.593 91.5239 257.508 90.6806 257.34 90.0398C257.171 89.3821 256.868 88.6738 256.395 87.8812H261.691C261.219 88.6738 260.915 89.3821 260.746 90.0398C260.578 90.6975 260.493 91.5239 260.493 92.5358V98.2696C260.493 99.4501 260.375 100.411 260.173 101.187C259.937 101.946 259.549 102.671 259.026 103.38ZM251.42 88.1848C251.96 88.1848 252.432 88.404 252.803 88.8425C253.191 89.281 253.377 89.8038 253.377 90.4446C253.377 91.0855 253.191 91.6082 252.803 92.0466C252.432 92.4851 251.96 92.6875 251.42 92.6875C250.864 92.6875 250.409 92.4683 250.038 92.0466C249.667 91.6082 249.464 91.0855 249.464 90.4446C249.464 89.8038 249.65 89.281 250.038 88.8425C250.409 88.404 250.864 88.1848 251.42 88.1848ZM250.038 104.56V98.5226C250.038 97.73 249.987 97.0385 249.903 96.3977C249.818 95.7737 249.65 95.0654 249.413 94.2559H251.488H253.562C253.326 94.7281 253.157 95.2678 253.073 95.8918C252.972 96.5157 252.938 97.3927 252.938 98.5226V104.56C252.938 105.69 252.989 106.567 253.073 107.191C253.157 107.815 253.326 108.354 253.562 108.827H251.488H249.413C249.65 108.371 249.801 107.849 249.903 107.225C249.987 106.601 250.038 105.707 250.038 104.56ZM246.176 108.725C245.518 108.894 244.978 109.012 244.573 109.063C244.169 109.113 243.68 109.147 243.14 109.147C241.217 109.147 239.599 108.472 238.317 107.106C237.035 105.74 236.394 104.037 236.394 101.997C236.394 99.6862 237.103 97.7636 238.519 96.2458C239.936 94.7112 241.723 93.9523 243.848 93.9523C244.422 93.9523 244.911 93.9693 245.349 94.0198C245.771 94.0536 246.361 94.1547 247.103 94.2728L246.951 97.6287C246.412 97.0553 245.889 96.6337 245.349 96.3639C244.81 96.1109 244.236 95.9761 243.595 95.9761C242.314 95.9761 241.285 96.4651 240.543 97.4264C239.784 98.3876 239.413 99.7031 239.413 101.356C239.413 103.042 239.818 104.375 240.61 105.37C241.403 106.365 242.482 106.854 243.848 106.854C244.321 106.854 244.793 106.786 245.299 106.651C245.805 106.516 246.479 106.28 247.322 105.926L246.176 108.725ZM230.762 99.5344L225.787 107.123L225.803 107.208C225.905 107.832 226.073 108.371 226.293 108.844H224.218H222.144C222.38 108.388 222.532 107.865 222.633 107.241C222.717 106.617 222.768 105.74 222.768 104.594V98.5564C222.768 97.4264 222.717 96.5495 222.633 95.9255C222.549 95.3015 222.38 94.7618 222.144 94.2896H224.218H226.293C226.056 94.745 225.905 95.2847 225.803 95.9086C225.719 96.5326 225.669 97.4096 225.669 98.5395V103.582L230.644 95.9929L230.627 95.9086C230.526 95.2847 230.357 94.745 230.138 94.2728H232.212H234.286C234.05 94.7281 233.898 95.2678 233.797 95.8918C233.713 96.5157 233.662 97.3927 233.662 98.5226V104.56C233.662 105.69 233.713 106.567 233.797 107.191C233.882 107.815 234.05 108.354 234.286 108.827H232.229H230.155C230.391 108.371 230.542 107.849 230.644 107.225C230.728 106.601 230.779 105.724 230.779 104.577V99.5344H230.762ZM216.09 96.2796H211.216V103.936C211.216 105.707 210.878 107.022 210.204 107.865C209.529 108.725 208.484 109.147 207.084 109.147H207L205.448 106.432C205.684 106.584 206.055 106.668 206.561 106.668C207.219 106.668 207.674 106.466 207.927 106.078C208.18 105.69 208.298 104.965 208.298 103.936V98.5226C208.298 97.73 208.248 97.0217 208.163 96.3977C208.079 95.7737 207.91 95.0654 207.674 94.2728H213.644H219.614C219.378 95.0822 219.21 95.8075 219.125 96.4314C219.024 97.0554 218.99 97.7637 218.99 98.5395V104.577C218.99 105.353 219.041 106.061 219.125 106.685C219.21 107.309 219.378 108.034 219.614 108.844H217.54H215.466C215.702 108.051 215.854 107.359 215.955 106.719C216.039 106.095 216.09 105.386 216.09 104.577V96.2796ZM199.428 107.106C200.22 106.769 200.828 106.162 201.3 105.285C201.755 104.408 201.991 103.38 201.991 102.199C201.991 100.344 201.536 98.8598 200.659 97.7299C199.765 96.6169 198.551 96.0267 197.033 95.9761C196.24 96.2965 195.616 96.9036 195.161 97.7974C194.706 98.6912 194.47 99.7199 194.47 100.9C194.47 102.755 194.925 104.24 195.802 105.37C196.696 106.466 197.893 107.056 199.428 107.106ZM197.859 109.147C196.021 109.147 194.487 108.472 193.272 107.106C192.058 105.74 191.434 104.037 191.434 101.98C191.434 99.6693 192.109 97.7637 193.475 96.2291C194.841 94.6944 196.544 93.9354 198.585 93.9354C200.44 93.9354 201.957 94.6101 203.189 95.9761C204.403 97.3421 205.01 99.0453 205.01 101.103C205.01 103.413 204.335 105.319 202.969 106.837C201.62 108.388 199.917 109.147 197.859 109.147ZM181.433 108.827H179.359H177.285C177.521 108.371 177.673 107.849 177.774 107.225C177.858 106.601 177.909 105.724 177.909 104.577V98.5395C177.909 97.4096 177.858 96.5326 177.774 95.9086C177.69 95.2847 177.521 94.745 177.285 94.2728H183.373H189.461C189.225 94.7281 189.073 95.2678 188.972 95.8918C188.887 96.5157 188.837 97.3927 188.837 98.5226V104.56C188.837 105.69 188.887 106.567 188.972 107.191C189.056 107.815 189.225 108.354 189.461 108.827H187.387H185.312C185.548 108.371 185.7 107.849 185.801 107.225C185.886 106.601 185.936 105.724 185.936 104.577V96.2965H180.843V104.577C180.843 105.707 180.894 106.584 180.978 107.208C181.046 107.815 181.214 108.354 181.433 108.827ZM171.433 106.617V102.604H167.672C167.588 102.604 167.47 102.874 167.335 103.413C167.2 103.953 167.133 104.408 167.133 104.779C167.133 105.471 167.352 105.977 167.807 106.331C168.246 106.668 168.92 106.854 169.814 106.854C170.37 106.854 170.91 106.769 171.416 106.617H171.433ZM168.583 109.147C167.166 109.147 166.07 108.844 165.294 108.236C164.519 107.629 164.148 106.752 164.148 105.639C164.148 104.897 164.417 104.189 164.957 103.514C165.497 102.857 166.222 102.334 167.149 101.946L171.433 100.175V98.843C171.433 98.0504 171.18 97.4096 170.691 96.9542C170.202 96.482 169.544 96.2458 168.701 96.2458C168.161 96.2458 167.655 96.3302 167.149 96.5157C166.644 96.7012 166.104 97.0047 165.497 97.4095L166.306 94.6101C166.88 94.374 167.436 94.1885 167.959 94.0873C168.499 93.9692 169.038 93.9187 169.595 93.9187C171.163 93.9187 172.36 94.3234 173.136 95.1497C173.929 95.9761 174.317 97.1903 174.317 98.8261V104.526C174.317 105.741 174.35 106.668 174.435 107.275C174.502 107.899 174.637 108.405 174.839 108.776H173.119H171.399V107.376L169.139 109.063L168.583 109.147ZM156.727 104.56C156.727 105.639 156.778 106.499 156.879 107.123C156.98 107.747 157.166 108.321 157.419 108.827H155.277H153.135C153.388 108.321 153.574 107.764 153.675 107.14C153.776 106.516 153.827 105.656 153.827 104.56V98.5226C153.827 97.8143 153.776 97.1566 153.675 96.5326C153.574 95.9086 153.388 95.1497 153.135 94.2728H156.727H162.579L161.854 95.8242L161.112 97.3758C160.184 96.9711 159.324 96.7013 158.532 96.5326C157.975 96.4146 157.385 96.3471 156.727 96.3134V104.56ZM148.447 99.8886C148.43 98.6238 148.211 97.6456 147.755 96.9879C147.3 96.3133 146.625 95.9761 145.732 95.9761H145.749C144.787 95.9761 144.045 96.3808 143.506 97.2071C143.084 97.8648 142.831 98.7587 142.747 99.8886H148.447ZM146.558 109.147C144.551 109.147 142.899 108.473 141.617 107.123C140.335 105.774 139.694 104.054 139.694 101.946C139.694 99.6525 140.268 97.7468 141.398 96.2122C142.528 94.6944 143.944 93.9354 145.631 93.9354H145.664C147.317 93.9354 148.599 94.5089 149.509 95.6556C150.403 96.8024 150.858 98.4551 150.858 100.58V101.895H142.797C142.932 103.211 143.32 104.307 143.944 105.184C144.737 106.297 145.816 106.837 147.182 106.837C147.806 106.837 148.396 106.752 149.003 106.601C149.611 106.449 150.15 106.213 150.622 105.926L149.476 108.709C148.835 108.877 148.329 108.995 147.941 109.046C147.519 109.113 147.064 109.147 146.558 109.147ZM124.702 104.56C124.702 105.336 124.752 106.044 124.837 106.668C124.921 107.292 125.09 108.017 125.326 108.827H123.252H121.177C121.413 108.034 121.565 107.326 121.666 106.702C121.751 106.078 121.801 105.369 121.801 104.577V95.4533L120.789 94.2728H122.729H124.685C124.702 94.5594 124.786 94.863 124.938 95.2171C125.107 95.5713 125.326 95.9086 125.579 96.2122L129.491 100.934H129.474L132.949 96.6843C133.336 96.229 133.657 95.7737 133.893 95.3183C134.129 94.8799 134.264 94.5257 134.264 94.2559H136.17H138.092C137.738 94.7618 137.502 95.3352 137.367 95.9592C137.232 96.5832 137.165 97.4433 137.165 98.5226V104.56C137.165 105.336 137.215 106.044 137.299 106.668C137.384 107.292 137.553 108.017 137.789 108.827H135.714H133.64C133.876 108.034 134.028 107.343 134.129 106.702C134.213 106.078 134.264 105.37 134.264 104.56V98.9442L129.491 104.746L124.719 98.9442V104.56H124.702ZM103.942 106.837C105.139 106.837 106.067 106.398 106.724 105.521C107.382 104.644 107.703 103.413 107.703 101.811C107.703 100.226 107.382 98.9779 106.758 98.0503C106.134 97.1228 105.274 96.6675 104.212 96.6675C103.672 96.6675 103.065 96.8024 102.39 97.0891C102.104 97.2071 101.817 97.342 101.513 97.5107V105.538C102.154 106.415 102.981 106.837 103.942 106.837ZM98.5959 98.5226C98.5959 97.73 98.5454 97.0385 98.4611 96.3977C98.3768 95.7737 98.2081 95.0654 97.972 94.2559H99.7259H101.497V96.7855L103.487 94.4415L103.841 94.2559C104.296 94.0366 104.853 93.9354 105.493 93.9354C107.045 93.9354 108.293 94.6607 109.237 96.0941C110.198 97.5276 110.671 99.3996 110.671 101.71C110.671 104.088 110.215 105.909 109.305 107.208C108.394 108.489 107.112 109.147 105.426 109.147C103.925 109.13 102.593 108.658 101.48 107.697V109.198C101.48 109.974 101.53 110.682 101.615 111.306C101.699 111.93 101.868 112.655 102.104 113.464H100.029H97.9551C98.1912 112.672 98.343 111.963 98.4442 111.339C98.5285 110.715 98.579 110.007 98.579 109.215V98.5226H98.5959ZM92.0694 106.617V102.604H88.3087C88.2244 102.604 88.1062 102.874 87.9713 103.413C87.8364 103.953 87.769 104.408 87.769 104.779C87.769 105.471 87.9882 105.977 88.4436 106.331C88.882 106.668 89.5567 106.854 90.4505 106.854C91.0071 106.854 91.5466 106.769 92.0526 106.617H92.0694ZM89.2193 109.147C87.8027 109.147 86.7066 108.844 85.9308 108.236C85.155 107.629 84.7839 106.752 84.7839 105.639C84.7839 104.897 85.0539 104.189 85.5936 103.514C86.1333 102.857 86.8583 102.334 87.7858 101.946L92.0694 100.175V98.843C92.0694 98.0504 91.8164 97.4096 91.3273 96.9542C90.8382 96.482 90.1806 96.2458 89.3374 96.2458C88.7978 96.2458 88.2918 96.3302 87.7858 96.5157C87.2799 96.7012 86.7403 97.0047 86.1332 97.4095L86.9426 94.6101C87.516 94.374 88.0725 94.1885 88.5953 94.0873C89.1349 93.9692 89.6748 93.9187 90.2313 93.9187C91.7997 93.9187 92.997 94.3234 93.7728 95.1497C94.5654 95.9761 94.9532 97.1903 94.9532 98.8261V104.526C94.9532 105.741 94.987 106.668 95.0713 107.275C95.1388 107.899 95.2737 108.405 95.4761 108.776H93.7559H92.0357V107.376L89.7759 109.063L89.2193 109.147ZM75.222 104.56V96.4146L74.3957 96.5157C72.861 96.735 71.5962 97.1228 70.5843 97.6625L71.1576 95.9761L71.731 94.2728H76.6554H82.6759L82.2207 95.8749L81.7485 97.477C80.5174 97.0048 79.438 96.6675 78.5611 96.482L78.1226 96.3977V104.577C78.1226 105.673 78.1731 106.533 78.2743 107.14C78.3755 107.764 78.5611 108.321 78.8141 108.844H76.6723H74.5305C74.7835 108.354 74.9691 107.798 75.0703 107.174C75.1715 106.533 75.222 105.673 75.222 104.56ZM60.0779 108.827H58.0034H55.9291C56.1652 108.371 56.317 107.849 56.4182 107.225C56.5026 106.601 56.5531 105.724 56.5531 104.577V98.5395C56.5531 97.4096 56.5026 96.5326 56.4182 95.9086C56.3339 95.2847 56.1652 94.745 55.9291 94.2728H62.0171H68.1053C67.8692 94.7281 67.7174 95.2678 67.6162 95.8918C67.5318 96.5157 67.4813 97.3927 67.4813 98.5226V104.56C67.4813 105.69 67.5318 106.567 67.6162 107.191C67.7005 107.815 67.8692 108.354 68.1053 108.827H66.0308H63.9565C64.1926 108.371 64.3445 107.849 64.4457 107.225C64.53 106.601 64.5805 105.724 64.5805 104.577V96.2965H59.4874V104.577C59.4874 105.707 59.5382 106.584 59.6225 107.208C59.69 107.815 59.8418 108.354 60.0779 108.827ZM50.0772 106.617V102.604H46.3165C46.2322 102.604 46.1142 102.874 45.9793 103.413C45.8444 103.953 45.7767 104.408 45.7767 104.779C45.7767 105.471 45.996 105.977 46.4514 106.331C46.8898 106.668 47.5645 106.854 48.4583 106.854C49.0148 106.854 49.5544 106.769 50.0603 106.617H50.0772ZM47.2273 109.147C45.8107 109.147 44.7144 108.844 43.9386 108.236C43.1628 107.629 42.7919 106.752 42.7919 105.639C42.7919 104.897 43.0617 104.189 43.6014 103.514C44.141 102.857 44.8661 102.334 45.7936 101.946L50.0772 100.175V98.843C50.0772 98.0504 49.8244 97.4096 49.3353 96.9542C48.8462 96.482 48.1884 96.2458 47.3452 96.2458C46.8056 96.2458 46.2996 96.3302 45.7936 96.5157C45.2877 96.7012 44.7481 97.0047 44.141 97.4095L44.9504 94.6101C45.5238 94.374 46.0805 94.1885 46.6033 94.0873C47.1429 93.9692 47.6826 93.9187 48.2391 93.9187C49.8075 93.9187 50.9879 94.3234 51.7805 95.1497C52.5732 95.9761 52.961 97.1903 52.961 98.8261V104.526C52.961 105.741 52.9948 106.668 53.0791 107.275C53.1466 107.899 53.2815 108.405 53.4839 108.776H51.7637H50.0435V107.376L47.7837 109.063L47.2273 109.147ZM33.2298 104.56V96.4146L32.4035 96.5157C30.8688 96.735 29.604 97.1228 28.5921 97.6625L29.1654 95.9761L29.739 94.2728H34.6632H40.6839L40.2285 95.8749L39.7563 97.477C38.5252 97.0048 37.4458 96.6675 36.5689 96.482L36.1304 96.3977V104.577C36.1304 105.673 36.1811 106.533 36.2823 107.14C36.3835 107.764 36.5689 108.321 36.8219 108.844H34.6801H32.5383C32.7913 108.354 32.9769 107.798 33.0781 107.174C33.1793 106.533 33.2298 105.673 33.2298 104.56ZM23.9882 88.1848C24.5278 88.1848 24.9999 88.404 25.371 88.8425C25.7588 89.281 25.9445 89.8038 25.9445 90.4446C25.9445 91.0855 25.7588 91.6082 25.371 92.0466C24.9999 92.4851 24.5278 92.6875 23.9882 92.6875C23.4316 92.6875 22.9762 92.4683 22.6052 92.0466C22.2173 91.6082 22.0318 91.0855 22.0318 90.4446C22.0318 89.8038 22.2173 89.281 22.6052 88.8425C22.9762 88.404 23.4485 88.1848 23.9882 88.1848ZM22.6052 104.56V98.5226C22.6052 97.73 22.5547 97.0385 22.4703 96.3977C22.386 95.7737 22.2173 95.0654 21.9812 94.2559H24.0557H26.13C25.8939 94.7281 25.7252 95.2678 25.6408 95.8918C25.5397 96.5157 25.506 97.3927 25.506 98.5226V104.56C25.506 105.69 25.5565 106.567 25.6408 107.191C25.7252 107.815 25.8939 108.354 26.13 108.827H24.0557H21.9812C22.2173 108.371 22.3692 107.849 22.4703 107.225C22.5715 106.601 22.6052 105.707 22.6052 104.56ZM7.68029 102.739C7.68029 104.054 7.73083 105.167 7.83201 106.061C7.95006 106.955 8.13572 107.882 8.40555 108.827H6.09514H3.76786C4.03769 107.899 4.22312 106.988 4.32431 106.095C4.42549 105.201 4.47603 104.088 4.47603 102.756V93.9187C4.47603 92.6032 4.42549 91.507 4.32431 90.6132C4.20626 89.7194 4.02081 88.7918 3.75098 87.8306H6.06138H8.38867C8.11884 88.775 7.9332 89.6857 7.83201 90.5795C7.73083 91.4733 7.68029 92.5864 7.68029 93.9187V97.0891L10.7497 93.3115C11.9471 91.8611 12.8239 90.7481 13.3636 89.9386C13.9201 89.1291 14.2912 88.4377 14.4767 87.8306H17.1074H19.7383C19.1312 88.1847 18.4734 88.7075 17.7482 89.4158C17.0399 90.1241 16.0787 91.2203 14.8476 92.6875L11.1376 97.1735L15.5729 102.739C17.2762 104.864 18.5072 106.364 19.2661 107.258C20.025 108.152 20.5478 108.675 20.8008 108.827H18.0688H15.3199C15.303 108.439 15.1512 107.933 14.8476 107.292C14.5441 106.668 14.1394 106.044 13.6334 105.42L7.66341 97.8817V102.739H7.68029Z" fill="#BCB5B5"/>
<path d="M483.22 104.611C483.861 104.611 484.384 104.83 484.822 105.269C485.261 105.707 485.48 106.247 485.48 106.888C485.48 107.528 485.261 108.051 484.822 108.49C484.384 108.928 483.861 109.147 483.22 109.147C482.579 109.147 482.056 108.928 481.618 108.49C481.18 108.051 480.96 107.528 480.96 106.888C480.96 106.247 481.18 105.724 481.618 105.269C482.04 104.83 482.579 104.611 483.22 104.611ZM483.22 103.38C482.697 102.705 482.326 101.98 482.107 101.204C481.888 100.445 481.787 99.4672 481.787 98.2698V92.536C481.787 91.5241 481.702 90.6808 481.534 90.04C481.365 89.3823 481.061 88.674 480.589 87.8814H485.885C485.413 88.674 485.109 89.3823 484.94 90.04C484.772 90.6977 484.687 91.5241 484.687 92.536V98.2698C484.687 99.4503 484.569 100.412 484.367 101.187C484.131 101.946 483.743 102.671 483.22 103.38ZM472.326 104.56C472.326 105.64 472.376 106.5 472.477 107.124C472.579 107.748 472.764 108.321 473.017 108.827H470.875H468.734C468.987 108.321 469.172 107.764 469.273 107.14C469.375 106.516 469.425 105.656 469.425 104.56V98.5228C469.425 97.8145 469.375 97.1568 469.273 96.5328C469.172 95.9088 468.987 95.1499 468.734 94.273H472.326H478.178L477.453 95.8244L476.71 97.376C475.783 96.9713 474.923 96.7015 474.13 96.5328C473.574 96.4148 472.983 96.3473 472.326 96.3136V104.56ZM462.696 99.5346L457.721 107.124L457.738 107.208C457.839 107.832 458.008 108.372 458.227 108.844H456.153H454.079C454.315 108.388 454.466 107.866 454.568 107.242C454.652 106.618 454.703 105.741 454.703 104.594V98.5566C454.703 97.4267 454.652 96.5497 454.568 95.9257C454.483 95.3018 454.315 94.762 454.079 94.2898H456.153H458.227C457.991 94.7452 457.839 95.2849 457.738 95.9089C457.654 96.5328 457.603 97.4098 457.603 98.5397V103.582L462.578 95.9932L462.561 95.9089C462.46 95.2849 462.292 94.7452 462.072 94.273H464.147H466.221C465.985 94.7283 465.833 95.268 465.732 95.892C465.647 96.516 465.597 97.3929 465.597 98.5228V104.56C465.597 105.69 465.647 106.567 465.732 107.191C465.816 107.815 465.985 108.355 466.221 108.827H464.147H462.072C462.308 108.372 462.46 107.849 462.561 107.225C462.646 106.601 462.696 105.724 462.696 104.577V99.5346ZM440.014 104.56V98.5228C440.014 97.7302 439.963 97.0387 439.879 96.3979C439.794 95.7739 439.626 95.0656 439.39 94.2561H441.464H443.538C443.302 95.0656 443.134 95.7908 443.049 96.4148C442.948 97.0387 442.914 97.747 442.914 98.5228V100.243H448.024V98.5228C448.024 97.3929 447.974 96.516 447.889 95.892C447.805 95.268 447.636 94.7283 447.4 94.2561H449.474H451.549C451.313 94.7114 451.161 95.2511 451.06 95.8751C450.976 96.4991 450.925 97.376 450.925 98.5059V104.543C450.925 105.673 450.976 106.55 451.06 107.174C451.144 107.798 451.313 108.338 451.549 108.81H449.474H447.4C447.636 108.355 447.788 107.832 447.889 107.208C447.974 106.584 448.024 105.707 448.024 104.56V102.267H442.914V104.56C442.914 105.69 442.965 106.567 443.049 107.191C443.134 107.815 443.302 108.355 443.538 108.827H441.464H439.39C439.626 108.372 439.778 107.849 439.879 107.225C439.963 106.601 440.014 105.707 440.014 104.56ZM428.647 104.56C428.647 105.69 428.698 106.567 428.782 107.191C428.866 107.815 429.035 108.355 429.271 108.827H427.197H425.122C425.359 108.372 425.51 107.849 425.612 107.225C425.696 106.601 425.746 105.724 425.746 104.577V98.5397C425.746 97.4098 425.696 96.5328 425.612 95.9089C425.527 95.2849 425.359 94.7452 425.122 94.273H427.197H429.271C429.035 94.7283 428.883 95.2511 428.782 95.8751C428.698 96.4991 428.647 97.376 428.647 98.5228V100.648L429.339 99.737C430.485 98.3035 431.329 97.1736 431.851 96.381C432.374 95.5715 432.728 94.8801 432.914 94.2561H435.207H437.518C436.944 94.644 436.405 95.0825 435.899 95.5884C435.393 96.0944 434.769 96.7858 434.044 97.6627L431.733 100.53L434.786 104.56C435.899 105.994 436.725 107.022 437.248 107.663C437.771 108.287 438.125 108.675 438.327 108.827H435.865H433.403C433.403 108.422 433.251 107.916 432.964 107.292C432.678 106.668 432.29 106.044 431.801 105.437L428.63 101.289V104.56H428.647ZM413.301 108.726C412.643 108.894 412.103 109.012 411.699 109.063C411.294 109.114 410.805 109.147 410.265 109.147C408.342 109.147 406.723 108.473 405.442 107.107C404.16 105.741 403.519 104.037 403.519 101.997C403.519 99.6864 404.228 97.7638 405.644 96.2461C407.061 94.7114 408.848 93.9525 410.973 93.9525C411.547 93.9525 412.036 93.9695 412.474 94.0201C412.896 94.0538 413.486 94.1549 414.228 94.273L414.076 97.6289C413.537 97.0556 413.014 96.6339 412.474 96.3641C411.935 96.1112 411.361 95.9763 410.72 95.9763C409.439 95.9763 408.41 96.4653 407.668 97.4266C406.909 98.3878 406.538 99.7033 406.538 101.356C406.538 103.042 406.943 104.375 407.735 105.37C408.528 106.365 409.607 106.854 410.973 106.854C411.445 106.854 411.918 106.786 412.424 106.651C412.93 106.517 413.604 106.28 414.447 105.926L413.301 108.726ZM397.887 99.5346L392.912 107.124L392.929 107.208C393.03 107.832 393.198 108.372 393.417 108.844H391.343H389.269C389.505 108.388 389.657 107.866 389.758 107.242C389.842 106.618 389.893 105.741 389.893 104.594V98.5566C389.893 97.4267 389.842 96.5497 389.758 95.9257C389.674 95.3018 389.505 94.762 389.269 94.2898H391.343H393.417C393.181 94.7452 393.03 95.2849 392.929 95.9089C392.844 96.5328 392.793 97.4098 392.793 98.5397V103.582L397.769 95.9932L397.752 95.9089C397.651 95.2849 397.482 94.7452 397.263 94.273H399.337H401.411C401.175 94.7283 401.023 95.268 400.922 95.892C400.838 96.516 400.787 97.3929 400.787 98.5228V104.56C400.787 105.69 400.838 106.567 400.922 107.191C401.007 107.815 401.175 108.355 401.411 108.827H399.337H397.263C397.499 108.372 397.651 107.849 397.752 107.225C397.836 106.601 397.887 105.724 397.887 104.577V99.5346ZM383.215 96.2798H378.341V103.936C378.341 105.707 378.004 107.022 377.329 107.866C376.654 108.726 375.609 109.147 374.209 109.147H374.125L372.573 106.432C372.809 106.584 373.18 106.668 373.686 106.668C374.344 106.668 374.799 106.466 375.052 106.078C375.305 105.69 375.423 104.965 375.423 103.936V98.5228C375.423 97.7302 375.373 97.0219 375.288 96.3979C375.204 95.7739 375.035 95.0656 374.799 94.273H380.769H386.739C386.503 95.0824 386.334 95.8077 386.25 96.4316C386.149 97.0556 386.115 97.7639 386.115 98.5397V104.577C386.115 105.353 386.166 106.061 386.25 106.685C386.334 107.309 386.503 108.034 386.739 108.844H384.665H382.591C382.827 108.051 382.978 107.36 383.08 106.719C383.164 106.095 383.215 105.387 383.215 104.577V96.2798ZM366.553 107.107C367.345 106.769 367.969 106.162 368.425 105.285C368.88 104.408 369.116 103.38 369.116 102.199C369.116 100.344 368.661 98.86 367.784 97.7301C366.89 96.6171 365.676 96.0269 364.158 95.9763C363.365 96.2967 362.741 96.9038 362.286 97.7976C361.831 98.6915 361.594 99.7201 361.594 100.901C361.594 102.756 362.05 104.24 362.927 105.37C363.821 106.466 365.035 107.056 366.553 107.107ZM364.984 109.147C363.146 109.147 361.611 108.473 360.397 107.107C359.183 105.741 358.559 104.037 358.559 101.98C358.559 99.6696 359.234 97.7639 360.6 96.2293C361.966 94.6946 363.669 93.9357 365.709 93.9357C367.565 93.9357 369.082 94.6103 370.313 95.9763C371.528 97.3423 372.135 99.0455 372.135 101.103C372.135 103.413 371.46 105.319 370.094 106.837C368.728 108.355 367.042 109.147 364.984 109.147ZM348.558 108.827H346.484H344.41C344.646 108.372 344.798 107.849 344.899 107.225C344.983 106.601 345.034 105.724 345.034 104.577V98.5397C345.034 97.4098 344.983 96.5328 344.899 95.9089C344.815 95.2849 344.646 94.7452 344.41 94.273H350.498H356.586C356.35 94.7283 356.198 95.268 356.097 95.892C356.012 96.516 355.962 97.3929 355.962 98.5228V104.56C355.962 105.69 356.012 106.567 356.097 107.191C356.181 107.815 356.35 108.355 356.586 108.827H354.512H352.437C352.673 108.372 352.825 107.849 352.926 107.225C353.011 106.601 353.061 105.724 353.061 104.577V96.2967H347.968V104.577C347.968 105.707 348.019 106.584 348.103 107.208C348.17 107.815 348.339 108.355 348.558 108.827ZM338.558 106.618V102.604H334.797C334.713 102.604 334.595 102.874 334.46 103.413C334.325 103.953 334.257 104.408 334.257 104.78C334.257 105.471 334.477 105.977 334.932 106.331C335.371 106.668 336.045 106.854 336.939 106.854C337.495 106.854 338.035 106.769 338.541 106.618H338.558ZM335.708 109.147C334.291 109.147 333.195 108.844 332.419 108.237C331.644 107.63 331.272 106.753 331.272 105.639C331.272 104.897 331.542 104.189 332.082 103.515C332.622 102.857 333.347 102.334 334.274 101.946L338.558 100.175V98.8432C338.558 98.0506 338.305 97.4098 337.816 96.9544C337.327 96.4822 336.669 96.2461 335.826 96.2461C335.286 96.2461 334.78 96.3304 334.274 96.5159C333.768 96.7015 333.229 97.005 332.622 97.4097L333.431 94.6103C334.005 94.3742 334.561 94.1887 335.084 94.0875C335.623 93.9694 336.163 93.9189 336.72 93.9189C338.288 93.9189 339.486 94.3236 340.261 95.1499C341.054 95.9763 341.442 97.1905 341.442 98.8263V104.526C341.442 105.741 341.475 106.668 341.56 107.275C341.627 107.899 341.762 108.405 341.964 108.776H340.244H338.524V107.377L336.264 109.063L335.708 109.147ZM323.852 104.56C323.852 105.64 323.903 106.5 324.004 107.124C324.105 107.748 324.291 108.321 324.544 108.827H322.402H320.26C320.513 108.321 320.699 107.764 320.8 107.14C320.901 106.516 320.951 105.656 320.951 104.56V98.5228C320.951 97.8145 320.901 97.1568 320.8 96.5328C320.699 95.9088 320.513 95.1499 320.26 94.273H323.852H329.704L328.979 95.8244L328.237 97.376C327.309 96.9713 326.449 96.7015 325.657 96.5328C325.1 96.4148 324.51 96.3473 323.852 96.3136V104.56ZM315.572 99.8888C315.555 98.624 315.336 97.6458 314.88 96.9881C314.425 96.3135 313.751 95.9763 312.857 95.9763H312.873C311.912 95.9763 311.17 96.381 310.631 97.2073C310.209 97.865 309.956 98.7589 309.872 99.8888H315.572ZM313.683 109.147C311.676 109.147 310.023 108.473 308.742 107.124C307.46 105.774 306.819 104.054 306.819 101.946C306.819 99.6527 307.393 97.7471 308.522 96.2124C309.652 94.6946 311.069 93.9357 312.755 93.9357H312.789C314.442 93.9357 315.724 94.5091 316.634 95.6558C317.528 96.8026 317.983 98.4553 317.983 100.58V101.896H309.922C310.057 103.211 310.445 104.307 311.069 105.184C311.862 106.297 312.941 106.837 314.307 106.837C314.931 106.837 315.521 106.753 316.128 106.601C316.735 106.449 317.275 106.213 317.747 105.926L316.601 108.709C315.96 108.877 315.454 108.996 315.066 109.046C314.644 109.114 314.189 109.147 313.683 109.147ZM286.38 102.739C286.38 104.054 286.43 105.167 286.531 106.061C286.649 106.955 286.835 107.882 287.105 108.827H284.794H282.467C282.737 107.899 282.922 106.989 283.024 106.095C283.125 105.201 283.175 104.088 283.175 102.756V90.3604L281 87.8477H283.462H285.924C285.941 88.1343 286.025 88.4379 286.177 88.7921C286.329 89.1462 286.548 89.4667 286.801 89.7871L293.412 97.9663L299.449 90.2761C299.804 89.8377 300.107 89.3824 300.326 88.9439C300.546 88.5054 300.664 88.1343 300.664 87.8477H302.907H305.15C304.509 88.7921 304.053 89.7196 303.8 90.6134C303.547 91.5072 303.413 92.6034 303.413 93.9357V102.773C303.413 104.088 303.463 105.201 303.564 106.095C303.683 106.989 303.868 107.916 304.138 108.861H301.827H299.5C299.77 107.933 299.955 107.022 300.057 106.129C300.158 105.235 300.208 104.122 300.208 102.789V93.7502L293.277 102.789L286.329 94.2224V102.739H286.38Z" fill="#BCB5B5"/>
<path d="M270.587 97.5421L267.058 101.072L270.587 104.602L274.117 101.072L270.587 97.5421Z" fill="#BCB5B5"/>
<path d="M485.851 78.8589H0.529297V79.9213H485.851V78.8589Z" fill="#BCB5B5"/>
<path d="M485.851 118.473H0.529297V119.535H485.851V118.473Z" fill="#BCB5B5"/>
</svg>
