<svg width="619" height="121" viewBox="0 0 619 121" fill="none" xmlns="http://www.w3.org/2000/svg">
<path d="M587.258 61.3372C593.818 71.2535 596.078 76.7513 597.596 80.0735H618.76C611.29 72.5352 601.019 58.6221 596.601 52.4329L588.405 40.8134L594.999 33.7809C597.865 30.6442 607.883 20.5424 613.819 17.1358V17.0347H599.046C597.326 21.3519 590.951 29.9021 585.993 36.2937L577.696 47.0194L587.258 61.3372ZM424.163 58.9931C424.163 41.6229 411.903 39.6329 394.617 39.6329H391.092V24.691C391.092 21.9927 391.632 20.9978 395.612 20.9978H404.246C412.442 20.9978 414.702 21.6217 416.658 28.1145L417.485 30.7454H420.925C420.739 26.1414 420.739 21.6386 420.925 17.0515H373.992V19.0415C377.145 19.7667 377.617 20.6436 377.617 24.0671V73.058C377.617 76.4814 377.145 77.3921 373.992 78.1173V80.0904H399.221C414.601 80.0904 424.163 75.9418 424.163 58.9931ZM396.691 76.1272C392.188 76.1272 391.109 74.6769 391.109 70.6295V43.6128H396.607C407.231 43.6128 410.031 49.3804 410.031 59.6339C410.031 70.6295 406.793 76.1104 398.597 76.1104H396.691V76.1272ZM438.734 72.3496C439.56 68.7407 441.078 63.6139 443.152 57.3067H463.153L465.835 65.3172C467.555 70.3597 469.528 76.6669 470.068 80.0735H486.089C484.74 77.8137 481.957 71.5233 479.343 64.1198L466.105 26.3943C464.216 21.0989 464.047 18.9235 463.744 17.0347H445.749V19.0246C448.987 19.7498 449.358 21.4531 449.358 22.7179C449.358 24.5224 448.92 26.4955 446.289 32.8702L434.686 61.5228C430.352 72.0461 427.468 77.6451 425.934 80.0735H437.401C437.486 78.6232 438.009 75.9417 438.734 72.3496ZM453.322 27.676L461.787 53.0737H444.586L453.322 27.676ZM511.706 78.1173C508.535 77.3921 508.097 76.4814 508.097 73.058V47.5928H532.398V73.058C532.398 76.4814 531.96 77.3921 528.806 78.1173V80.0904H549.516V78.1173C546.362 77.3921 545.906 76.4814 545.906 73.058V24.0671C545.906 20.6436 546.362 19.7498 549.516 19.0415V17.0515H528.806V19.0415C531.943 19.7667 532.398 20.6436 532.398 24.0671V43.4273H508.097V24.0671C508.097 20.6436 508.535 19.7498 511.706 19.0415V17.0515H490.979V19.0415C494.133 19.7667 494.588 20.6436 494.588 24.0671V73.058C494.588 76.4814 494.133 77.3921 490.979 78.1173V80.0904H511.706V78.1173ZM580.226 78.1173C577.055 77.3921 576.617 76.4814 576.617 73.058V24.0671C576.617 20.6436 577.055 19.7498 580.226 19.0415V17.0515H559.516V19.0415C562.653 19.7667 563.108 20.6436 563.108 24.0671V73.058C563.108 76.4814 562.653 77.3921 559.516 78.1173V80.0904H580.226V78.1173ZM106.304 13.4594C104.584 11.7899 102.763 10.2383 100.857 8.77115L38.7962 44.4729L9.16549 27.4231C8.05244 29.3794 7.02384 31.403 6.13003 33.4942L38.7962 52.2811L106.304 13.4594ZM182.345 81.1528C190.373 81.1528 198.114 79.0954 203.881 75.4021L201.891 71.6245C198.113 73.5302 193.51 75.3346 186.123 75.3346C170.54 75.3346 167.218 63.2598 167.218 47.0531C167.218 30.037 170.625 20.1208 184.049 20.1208C192.599 20.1208 195.398 23.3587 196.849 28.0639L197.928 32.027H201.992C201.807 27.7941 201.807 23.1058 201.992 18.8729C200.188 18.1646 193.51 15.9722 183.627 15.9722C161.282 15.9722 152.546 28.5867 152.546 49.4141C152.546 71.0848 163.44 81.1528 182.345 81.1528ZM115.107 24.0502C113.842 22.1446 112.493 20.3063 111.043 18.5693L38.7793 60.123L3.73522 39.9702C3.04378 42.1963 2.48726 44.4898 2.04879 46.8171L38.7793 67.9481L115.107 24.0502ZM38.7793 75.7731L1.13826 54.1193C1.05393 55.4853 0.986328 56.8682 0.986328 58.2679C0.986328 92.6037 28.8293 120.447 63.1651 120.447C97.5009 120.447 125.344 92.6037 125.344 58.2679C125.344 48.0481 122.882 38.4018 118.514 29.9022L38.7793 75.7731ZM157.42 102.166H618.777V95.8416H157.42V102.166ZM341.039 78.1173C337.868 77.3921 337.413 76.4814 337.413 73.058V55.1312H343.72C358.949 55.1312 368.308 50.5441 368.308 35.1301C368.308 20.0028 358.949 17.0515 346.418 17.0515H320.312V19.0415C323.466 19.7667 323.888 20.6436 323.888 24.0671V73.058C323.888 76.4814 323.466 77.3921 320.312 78.1173V80.0904H341.039V78.1173ZM337.413 24.4381C337.413 21.4531 338.661 20.9978 341.376 20.9978H342.826C351.292 20.9978 354.176 26.3269 354.176 34.6073C354.176 44.4054 352.186 51.168 343.788 51.168H337.396V24.4381H337.413ZM94.5665 4.5719C92.2392 3.20589 89.8108 1.99165 87.298 0.929199L38.7793 28.8397L17.176 16.4107C15.6414 18.114 14.1911 19.8847 12.842 21.7398L38.7793 36.6647L94.5665 4.5719ZM312.218 65.4015H308.255L307.698 67.7625C305.91 75.5876 303.735 76.1272 295.539 76.1272H293.751C285.454 76.1272 283.936 74.8624 283.936 71.0848V47.5928H292.318C295.825 47.5928 301.306 47.947 303.465 49.4816V41.5554C301.289 43.0731 295.809 43.4273 292.318 43.4273H283.936V23.8984C283.936 21.7398 284.375 21.0146 287.073 21.0146H294.105C302.301 21.0146 304.561 21.6386 306.534 28.1314L307.344 30.7622H310.75C310.582 26.1582 310.582 21.6555 310.75 17.0684H266.819V19.0584C269.956 19.7835 270.428 20.6605 270.428 24.0839V73.0748C270.428 76.4983 269.972 77.4089 266.819 78.1341V80.1072H312.201C312.032 75.2334 312.032 70.2753 312.218 65.4015ZM259.736 58.9931C259.736 41.6229 247.459 39.6329 230.173 39.6329H226.665V24.691C226.665 21.9927 227.204 20.9978 231.168 20.9978H239.819C247.998 20.9978 250.258 21.6217 252.248 28.1145L253.058 30.7454H256.464C256.312 26.1414 256.312 21.6386 256.464 17.0515H209.564V19.0415C212.718 19.7667 213.157 20.6436 213.157 24.0671V73.058C213.157 76.4814 212.718 77.3921 209.564 78.1173V80.0904H234.777C250.174 80.0904 259.736 75.9418 259.736 58.9931ZM232.247 76.1272C227.744 76.1272 226.648 74.6769 226.648 70.6295V43.6128H232.146C242.77 43.6128 245.57 49.3804 245.57 59.6339C245.57 70.6295 242.332 76.1104 234.136 76.1104H232.247V76.1272Z" fill="#BCB5B5"/>
</svg>
