<svg width="575" height="121" viewBox="0 0 575 121" fill="none" xmlns="http://www.w3.org/2000/svg">
<path d="M30.4304 120.087H119.069V61.0115H166.34V1.91895H119.069L30.4304 120.087Z" fill="#BCB5B5"/>
<path d="M0.885742 90.5579L116.12 1.91895H0.885742V90.5579Z" fill="#BCB5B5"/>
<path d="M277.087 17.9569H260.611V61.0115H241.908V17.9569H225.415V1.91895H277.087V17.9569Z" fill="#BCB5B5"/>
<path d="M269.079 61.0115L290.463 1.91895H310.65L332.034 61.0115H312.741L310.076 52.4107H291.036L288.389 61.0115H269.079ZM300.346 20.925C300.093 22.6283 299.705 24.2979 299.182 25.9337L294.865 39.9143H306.214L301.897 25.9337C301.374 24.2979 300.986 22.6283 300.733 20.925H300.346Z" fill="#BCB5B5"/>
<path d="M385.83 47.2502C382.12 55.6149 373.823 61.0115 364.666 61.0115H335.136V1.91895H364.666C373.823 1.91895 382.12 7.3155 385.83 15.6971C388.039 20.672 389.169 26.0349 389.169 31.4821C389.169 36.9293 388.039 42.2752 385.83 47.2502ZM370.214 23.4884C368.679 19.4409 364.8 16.7764 360.483 16.7764H352.658V46.1709H360.483C364.8 46.1709 368.679 43.5063 370.214 39.4589C371.175 36.9124 371.664 34.1973 371.664 31.4821C371.664 28.7501 371.175 26.0349 370.214 23.4884Z" fill="#BCB5B5"/>
<path d="M430.167 61.0115L427.519 52.4107H408.479L405.832 61.0115H386.522L407.906 1.91895H428.093L449.477 61.0115H430.167ZM412.308 39.9311H423.657L419.34 25.9506C418.817 24.3148 418.429 22.6452 418.176 20.9419H417.772C417.519 22.6452 417.131 24.3148 416.608 25.9506L412.308 39.9311Z" fill="#BCB5B5"/>
<path d="M452.58 1.91895H470.102L486.646 28.8175C487.792 30.5714 488.855 32.4097 489.816 34.2816H490.221C490.069 32.8987 490.002 31.5158 490.002 30.1161V1.91895H506.916V61.0115H489.394L472.867 34.1129C471.704 32.3422 470.658 30.5208 469.697 28.6489H469.275C469.427 30.0317 469.511 31.4146 469.511 32.8144V61.0115H452.58V1.91895Z" fill="#BCB5B5"/>
<path d="M532.921 31.4645C532.921 28.918 533.241 26.3884 533.882 23.943C535.08 19.3054 539.262 16.0674 544.051 16.0674C548.841 16.0674 553.023 19.3054 554.221 23.943C554.861 26.3884 555.182 28.9349 555.182 31.4645C555.182 33.9942 554.861 36.5407 554.221 38.986C553.006 43.6237 548.824 46.8617 544.051 46.8617C539.262 46.8617 535.08 43.6237 533.882 38.986C533.241 36.5407 532.921 34.011 532.921 31.4645ZM517.962 15.2579C515.399 20.2666 514.067 25.8318 514.067 31.4645C514.067 37.0972 515.399 42.6624 517.962 47.6711C521.167 53.9446 526.749 58.6498 533.478 60.741C536.901 61.8034 540.476 62.3431 544.051 62.3431C547.644 62.3431 551.202 61.8034 554.625 60.741C561.354 58.6498 566.936 53.9446 570.141 47.6711C572.704 42.6455 574.036 37.0972 574.036 31.4645C574.036 25.8318 572.687 20.2666 570.141 15.2579C566.936 9.00121 561.354 4.27921 554.625 2.2049C551.202 1.14245 547.644 0.585938 544.051 0.585938C540.459 0.585938 536.901 1.12558 533.478 2.2049C526.766 4.27921 521.183 8.98434 517.962 15.2579Z" fill="#BCB5B5"/>
</svg>
