<svg width="143" height="144" viewBox="0 0 143 144" fill="none" xmlns="http://www.w3.org/2000/svg">
<path d="M83.3659 114.088C83.1973 113.835 83.0792 113.666 83.0286 113.598C82.9949 113.531 83.0118 113.497 83.0961 113.531C83.1804 113.565 83.349 113.632 83.5683 113.733C83.8044 113.835 84.1079 113.953 84.4958 114.071C84.8162 114.037 85.1029 113.919 85.3559 113.717C85.6089 113.514 85.845 113.261 86.0642 112.958C86.2834 112.654 86.4689 112.317 86.6545 111.946C86.84 111.575 87.0086 111.221 87.1772 110.866C87.3459 110.512 87.5145 110.175 87.6663 109.855C87.8181 109.534 87.9867 109.298 88.1554 109.113C88.4421 108.792 88.7625 108.607 89.1335 108.539C89.5045 108.472 89.9261 108.522 90.4152 108.691C90.8368 108.809 91.2415 109.011 91.6294 109.264C92.0173 109.517 92.4052 109.838 92.7931 110.226C92.9617 110.394 92.9954 110.58 92.9111 110.816C92.8605 111.069 92.7256 111.035 92.5401 110.715C92.3546 110.445 92.1522 110.293 91.9667 110.259C91.7643 110.226 91.5451 110.293 91.309 110.462C90.9717 110.681 90.6344 110.968 90.2803 111.305C89.9093 111.642 89.5551 112.013 89.1841 112.384C88.8131 112.772 88.4421 113.143 88.0542 113.514C87.6832 113.885 87.3122 114.206 86.9411 114.492C86.3509 114.83 85.7606 114.981 85.1535 114.931C84.5464 114.863 83.9562 114.593 83.3659 114.088ZM84.6982 128.422C85.4065 128.928 86.0979 128.321 86.7388 126.635C86.7894 126.483 86.84 126.28 86.8737 126.044C86.9074 125.808 86.958 125.505 86.9917 125.167C87.0255 124.746 87.0592 124.223 87.0761 123.65C87.1098 123.059 87.1267 122.452 87.1435 121.845C87.1604 121.221 87.1772 120.682 87.1941 120.226C87.211 119.771 87.2278 119.45 87.2447 119.265C87.2784 118.675 87.5989 118.236 88.206 117.966C88.8299 117.663 89.319 117.258 89.6563 116.769C89.7912 116.567 89.8924 116.482 89.9936 116.516C90.0948 116.55 90.1116 116.634 90.0779 116.803C90.0442 116.955 89.9767 117.46 89.8755 118.337C89.8587 118.557 89.8418 118.877 89.8249 119.299C89.8081 119.72 89.7912 120.192 89.7744 120.732C89.7575 121.272 89.7575 121.761 89.7406 122.216C89.7406 122.671 89.7238 123.043 89.7238 123.312C89.7069 123.717 89.7069 124.105 89.7069 124.459C89.7069 124.813 89.7069 125.151 89.7238 125.454C89.7406 126.179 89.7912 126.786 89.8587 127.292C90.061 128.709 90.3815 129.265 90.8368 128.945C91.2921 128.608 91.6969 128.068 92.0342 127.292C92.1354 127.073 92.2197 126.854 92.2871 126.618C92.3546 126.382 92.4052 126.162 92.4558 125.943C92.5064 125.724 92.5401 125.538 92.5738 125.353C92.6076 125.184 92.6413 125.032 92.675 124.931C92.7762 124.442 92.9448 124.341 93.1641 124.611C93.4002 124.881 93.4171 125.235 93.2147 125.673C93.1641 125.774 93.0798 125.96 92.9954 126.213C92.9111 126.466 92.7762 126.786 92.6244 127.191C92.4895 127.596 92.3209 127.984 92.1522 128.389C91.9836 128.793 91.7812 129.198 91.562 129.62C91.1404 130.463 90.6513 131.171 90.1116 131.761C89.5551 132.335 88.9986 132.537 88.4083 132.335C87.9699 132.2 87.6157 131.778 87.3628 131.07C87.1267 130.362 86.9917 129.653 86.9749 128.945C86.958 128.321 86.7894 128.304 86.4689 128.878C86.0473 129.636 85.6089 130.277 85.1198 130.8C84.5633 131.374 84.1417 131.677 83.8381 131.694C82.7925 131.778 82.1011 130.901 81.7469 129.029C81.6626 128.591 81.5952 128.051 81.5446 127.36C81.494 126.685 81.4602 125.943 81.4602 125.151C81.4602 124.358 81.4602 123.548 81.494 122.722C81.5277 121.896 81.5614 121.069 81.6289 120.26C81.6795 119.67 82.0842 119.214 82.8431 118.877C83.6189 118.523 84.1754 118.101 84.5127 117.595C84.6307 117.393 84.7488 117.309 84.85 117.342C84.968 117.376 85.0017 117.46 84.9849 117.629C84.968 117.747 84.9174 117.949 84.8668 118.236C84.8162 118.523 84.7488 118.877 84.6476 119.299C84.597 119.501 84.5633 119.821 84.5127 120.226C84.4621 120.631 84.4284 121.103 84.3946 121.609C84.3609 122.132 84.3272 122.604 84.2934 123.026C84.2597 123.447 84.226 123.785 84.1923 124.038C84.0742 125.016 84.0236 125.926 84.0405 126.786C84.1248 127.63 84.3272 128.186 84.6982 128.422ZM68.8457 126.972C68.93 127.343 69.065 127.663 69.2842 127.967C69.5034 128.27 69.7395 128.523 70.0262 128.743C70.3129 128.962 70.5996 129.131 70.8863 129.232C71.1899 129.35 71.4597 129.4 71.7127 129.4C71.915 129.4 72.0837 129.35 72.2355 129.265C72.3872 129.164 72.5053 129.046 72.5896 128.894C72.6908 128.743 72.7582 128.591 72.8088 128.405C72.8594 128.22 72.8763 128.034 72.8763 127.849C72.8763 127.343 72.7076 126.753 72.3535 126.078C71.7801 124.965 71.1224 124.408 70.431 124.408C69.7395 124.408 69.2167 124.914 68.8795 125.943C68.7951 126.078 68.7614 126.264 68.7614 126.5C68.7614 126.635 68.7783 126.786 68.8457 126.972ZM68.2892 131.981C68.1712 131.93 68.0362 131.863 67.9182 131.778C67.7833 131.694 67.6652 131.643 67.5472 131.643C67.4629 131.643 67.3448 131.66 67.2268 131.728C67.0918 131.778 66.9569 131.846 66.8389 131.913C66.704 131.981 66.5859 132.048 66.4679 132.099C66.3498 132.166 66.2655 132.2 66.2318 132.217C65.9282 132.335 65.7764 132.385 65.7427 132.385C65.6921 132.385 65.6752 132.368 65.6752 132.318C65.6752 132.267 65.709 132.2 65.7764 132.065C65.8945 131.879 65.9619 131.677 65.9957 131.475C66.0294 131.272 66.0631 131.07 66.08 130.868C66.1474 130.345 66.1812 129.822 66.2149 129.316C66.2318 128.81 66.2486 128.287 66.2486 127.748C66.2486 127.579 66.2318 127.292 66.2149 126.904C66.1812 126.517 66.1474 126.078 66.1137 125.572C66.08 125.083 66.0294 124.56 65.9957 124.021C65.9451 123.481 65.9113 122.958 65.8776 122.486C65.8439 121.997 65.8101 121.575 65.7764 121.221C65.7427 120.867 65.7427 120.614 65.7427 120.479C65.7427 120.024 65.7596 119.602 65.7933 119.214C65.827 118.826 65.9113 118.489 66.0125 118.169C66.0462 118.051 66.1474 117.933 66.3329 117.815C66.5184 117.68 66.7377 117.562 66.9907 117.444C67.2436 117.325 67.5134 117.207 67.817 117.073C68.1206 116.954 68.3904 116.853 68.6434 116.769C68.8963 116.685 69.1155 116.6 69.2842 116.55C69.4697 116.499 69.554 116.465 69.5709 116.465C69.6889 116.465 69.7395 116.482 69.7395 116.533C69.7395 116.6 69.6721 116.685 69.5372 116.803C69.2842 117.039 69.065 117.444 68.8795 118.034C68.6939 118.607 68.5253 119.265 68.3904 120.024C68.2555 120.766 68.1543 121.558 68.0868 122.402C68.0194 123.245 67.9856 124.038 67.9856 124.813C67.9856 125.016 67.9856 125.184 68.0025 125.353C68.0194 125.505 68.07 125.589 68.1543 125.589C68.1712 125.589 68.2217 125.572 68.2723 125.522C68.3398 125.471 68.3904 125.387 68.441 125.285C69.0312 124.021 69.6552 123.059 70.2961 122.385C70.9369 121.71 71.6283 121.39 72.3535 121.39C72.6739 121.39 72.9775 121.474 73.2473 121.66C73.534 121.845 73.7701 122.115 73.9725 122.452C74.1749 122.79 74.3435 123.177 74.4615 123.65C74.5796 124.105 74.647 124.611 74.647 125.151C74.647 125.319 74.6302 125.522 74.6133 125.791C74.5965 126.044 74.529 126.365 74.4109 126.736C74.3098 127.107 74.1411 127.528 73.905 128.001C73.6858 128.473 73.3654 129.012 72.9606 129.62C72.7245 129.957 72.4884 130.277 72.2186 130.598C71.9488 130.901 71.6621 131.188 71.3585 131.424C71.055 131.66 70.7345 131.863 70.4141 131.997C70.0937 132.149 69.7395 132.217 69.4022 132.217C68.9806 132.2 68.6265 132.116 68.2892 131.981ZM76.1143 119.889C76.2323 119.4 76.5527 118.995 77.0418 118.675C77.2948 118.489 77.5309 118.321 77.7332 118.152C77.9356 117.983 78.1211 117.798 78.2729 117.612C78.6102 117.106 78.7788 117.123 78.7788 117.663C78.7619 117.848 78.7451 118.101 78.7282 118.405C78.7114 118.725 78.6776 119.062 78.6608 119.45C78.6439 119.838 78.6102 120.243 78.5933 120.665C78.5596 121.086 78.5427 121.491 78.5258 121.896C78.509 122.284 78.4921 122.655 78.4753 122.992C78.4584 123.329 78.4584 123.616 78.4584 123.835C78.4415 124.695 78.4415 125.454 78.4584 126.112C78.4753 126.77 78.5258 127.326 78.5933 127.798C78.7114 128.54 78.9137 129.046 79.2341 129.35C79.5377 129.636 79.9593 129.451 80.4652 128.81C80.8194 128.287 81.1061 127.748 81.3085 127.174C81.5108 126.601 81.6626 126.028 81.7469 125.42C81.8819 124.931 82.0336 124.813 82.2191 125.066C82.4046 125.302 82.4384 125.673 82.2866 126.146C82.236 126.247 82.1854 126.432 82.0842 126.651C81.9999 126.888 81.8819 127.174 81.7469 127.545C81.5952 127.899 81.4434 128.27 81.2747 128.625C81.0892 128.996 80.9037 129.35 80.6845 129.738C80.4652 130.109 80.2291 130.446 79.993 130.766C79.7401 131.087 79.4703 131.374 79.1836 131.626C78.6439 132.149 78.0705 132.301 77.4634 132.082C76.8563 131.879 76.4178 131.441 76.1143 130.766C75.9793 130.429 75.8613 130.058 75.7601 129.687C75.6589 129.299 75.5915 128.894 75.5577 128.49C75.5071 128.068 75.4903 127.613 75.4903 127.107C75.4903 126.601 75.5071 126.044 75.5577 125.454C75.5746 125.252 75.6083 124.999 75.642 124.678C75.6758 124.358 75.7095 124.004 75.7432 123.633C75.777 123.262 75.8107 122.874 75.8444 122.486C75.8782 122.098 75.9119 121.727 75.9456 121.39C75.9793 121.036 76.0131 120.749 76.0468 120.479C76.0637 120.176 76.0974 119.99 76.1143 119.889ZM60.6159 124.56C60.6328 124.459 60.6497 124.274 60.6497 124.038C60.6665 123.785 60.6834 123.515 60.7003 123.211C60.7171 122.908 60.734 122.587 60.7677 122.267C60.7846 121.93 60.8014 121.626 60.8183 121.339C60.8352 121.052 60.852 120.816 60.852 120.614C60.8689 120.412 60.8689 120.294 60.8689 120.26C60.8858 119.973 60.9701 119.72 61.1219 119.501C61.2736 119.282 61.5097 119.096 61.8302 118.944C62.4373 118.658 62.9263 118.253 63.2805 117.747C63.3817 117.562 63.4997 117.477 63.5841 117.477C63.6684 117.477 63.719 117.545 63.719 117.68C63.719 117.697 63.7021 117.815 63.6684 118.034C63.6346 118.27 63.5841 118.692 63.5166 119.299C63.4829 119.568 63.466 119.923 63.4491 120.327C63.4323 120.732 63.4154 121.171 63.3985 121.626C63.3817 122.081 63.3648 122.537 63.348 122.992C63.348 123.447 63.3311 123.869 63.3311 124.24C63.3311 125.791 63.4154 126.972 63.5841 127.781C63.7527 128.591 63.9719 129.013 64.2586 129.013C64.3598 129.013 64.4779 128.962 64.6128 128.861C64.7308 128.76 64.8657 128.625 65.0007 128.473C65.1356 128.304 65.2536 128.119 65.3717 127.916C65.4897 127.714 65.5909 127.512 65.6921 127.292C65.8607 126.921 65.9788 126.55 66.0462 126.213C66.1306 125.876 66.1812 125.572 66.2318 125.319C66.2823 125.066 66.3161 124.847 66.3667 124.695C66.4004 124.543 66.4847 124.459 66.5859 124.459C66.6871 124.459 66.7714 124.527 66.8726 124.678C66.9569 124.83 67.0075 124.982 67.0075 125.117C67.0075 125.235 66.9906 125.319 66.9738 125.387C66.9569 125.454 66.9063 125.555 66.8557 125.69C66.8051 125.825 66.7208 125.994 66.6365 126.23C66.5353 126.449 66.4173 126.77 66.2823 127.174C66.0968 127.68 65.8607 128.237 65.5909 128.844C65.3042 129.451 65.0007 130.024 64.6802 130.547C64.3429 131.07 64.0057 131.525 63.6346 131.863C63.2636 132.217 62.8926 132.385 62.5216 132.385C62.218 132.385 61.9651 132.284 61.7458 132.082C61.5266 131.879 61.3242 131.61 61.1725 131.289C61.0207 130.969 60.9026 130.598 60.8183 130.193C60.734 129.771 60.6834 129.35 60.6834 128.894V128.507V127.815C60.6834 127.545 60.6834 127.275 60.6834 126.972C60.6834 126.668 60.6665 126.399 60.6665 126.162C60.6665 125.909 60.6497 125.707 60.6328 125.555C60.6159 125.403 60.6159 125.319 60.5991 125.319L58.3055 125.555V125.859C58.3055 126.061 58.3055 126.297 58.3224 126.584C58.3224 126.871 58.3392 127.191 58.3392 127.528C58.3392 127.866 58.3561 128.186 58.3561 128.473C58.3561 128.76 58.3561 128.996 58.3561 129.198V129.518C58.3561 129.603 58.373 129.687 58.4067 129.771C58.4404 129.856 58.4573 129.94 58.4573 130.024C58.4573 130.193 58.4236 130.311 58.3561 130.379C58.2887 130.446 58.1369 130.497 57.8839 130.513C57.6309 130.53 57.378 130.632 57.1082 130.817C56.8383 131.003 56.6022 131.205 56.383 131.424C56.1637 131.643 55.9782 131.846 55.8265 132.014C55.6747 132.183 55.5904 132.284 55.5566 132.284C55.5229 132.284 55.506 132.166 55.4892 131.93C55.4723 131.694 55.4555 131.407 55.4555 131.019C55.4386 130.648 55.4386 130.227 55.4386 129.755V128.304V126.837V125.555C55.4386 124.948 55.4386 124.29 55.4217 123.616C55.4049 122.941 55.3711 122.317 55.3374 121.727C55.3037 121.137 55.2699 120.631 55.2193 120.209C55.1688 119.788 55.135 119.518 55.0844 119.417C55.0507 119.366 55.0338 119.315 55.0338 119.248C55.0338 118.944 55.4554 118.607 56.2818 118.236C57.2599 117.815 57.9345 117.342 58.2718 116.82C58.4404 116.567 58.5585 116.449 58.6597 116.449C58.7103 116.449 58.7271 116.499 58.7271 116.617V116.701C58.7271 116.735 58.7271 116.786 58.7103 116.836C58.6259 117.427 58.5585 118.068 58.5079 118.742C58.4573 119.434 58.4067 120.108 58.373 120.8C58.3392 121.491 58.3224 122.166 58.3224 122.84C58.3224 123.515 58.3224 124.139 58.3561 124.712L60.6159 124.56ZM45.0333 126.803C44.9827 125.151 45.067 123.683 45.2863 122.385C45.4886 121.086 45.7922 119.923 46.1632 118.877C46.5342 117.848 46.9727 116.921 47.4618 116.111C47.9508 115.302 48.4736 114.577 48.9964 113.902C49.5361 113.227 50.0589 112.62 50.5817 112.064C51.1045 111.507 51.5767 110.968 52.0151 110.428C52.4536 109.905 52.8077 109.366 53.1113 108.826C53.4149 108.286 53.6004 107.696 53.6678 107.055C53.8027 106.768 53.9208 106.6 54.0051 106.549C54.0894 106.499 54.14 106.532 54.1738 106.634C54.2075 106.752 54.2075 106.92 54.1906 107.156C54.1738 107.392 54.14 107.662 54.0894 107.949C53.9883 108.354 53.9545 108.758 53.9714 109.163C53.9883 109.585 54.0051 110.006 54.0388 110.411C54.0557 110.833 54.0726 111.237 54.0557 111.642C54.0388 112.047 53.9545 112.435 53.8027 112.789C53.6341 113.143 53.3811 113.48 53.027 113.784C52.6728 114.088 52.1669 114.341 51.5092 114.56C50.6828 114.644 49.9577 114.931 49.3506 115.42C48.7266 115.909 48.2206 116.533 47.8159 117.275C47.4112 118.034 47.1245 118.877 46.9558 119.821C46.7872 120.766 46.7366 121.727 46.8041 122.722C46.8546 123.363 46.9727 124.021 47.1582 124.661C47.3437 125.302 47.5798 125.926 47.8834 126.5C48.1701 127.09 48.5073 127.63 48.8952 128.119C49.2662 128.625 49.6879 129.046 50.1263 129.417C50.3624 129.603 50.5648 129.721 50.7334 129.771C50.9021 129.822 51.0707 129.805 51.2056 129.755C51.3574 129.687 51.4755 129.586 51.6104 129.434C51.7284 129.282 51.8465 129.114 51.9814 128.911C52.2175 128.507 52.3693 128.085 52.4367 127.613C52.5042 127.141 52.5211 126.635 52.4536 126.112C52.3018 125.049 51.9983 124.071 51.5261 123.177C51.408 122.958 51.2562 122.722 51.0876 122.452C50.9021 122.182 50.7334 121.929 50.5311 121.693C50.3287 121.44 50.1432 121.221 49.9408 121.019C49.7384 120.816 49.5529 120.665 49.3843 120.547C48.7097 120.108 48.1195 120.192 47.6135 120.816C47.4112 121.052 47.2762 121.137 47.1919 121.103C47.1076 121.053 47.1076 120.934 47.1919 120.715C47.7147 119.45 48.2207 118.422 48.676 117.612C48.794 117.41 48.929 117.258 49.1145 117.123C49.3 116.988 49.5023 116.904 49.7384 116.853C49.9577 116.803 50.1938 116.786 50.4467 116.82C50.6997 116.853 50.9527 116.921 51.1888 117.022C51.8128 117.292 52.3187 117.781 52.7403 118.506C52.9595 118.86 53.145 119.231 53.2968 119.619C53.4486 120.024 53.5666 120.429 53.6847 120.833C53.8027 121.289 53.9039 121.778 53.9545 122.3C54.022 122.806 54.0557 123.312 54.0726 123.818C54.0894 124.324 54.0726 124.796 54.0388 125.269C54.0051 125.741 53.9377 126.162 53.8533 126.533C53.7016 127.124 53.4655 127.731 53.145 128.338C52.8415 128.945 52.4367 129.603 51.9645 130.294C51.7284 130.598 51.4923 130.851 51.29 131.087C51.0876 131.323 50.8684 131.508 50.6323 131.677C50.413 131.846 50.16 131.981 49.9071 132.099C49.6373 132.217 49.3337 132.301 48.9795 132.369C47.5967 132.638 46.5174 131.879 45.7247 130.126C45.5055 129.636 45.3369 129.097 45.2188 128.557C45.1345 128.034 45.067 127.427 45.0333 126.803ZM39.0127 120.614C39.4681 119.619 40.0415 118.776 40.7329 118.084C41.4243 117.393 42.0652 117.039 42.6554 117.005C43.3131 116.971 43.7853 117.393 44.0552 118.287C44.3419 119.282 44.2913 120.277 43.9202 121.238C43.5492 122.199 43.077 123.076 42.5205 123.869C42.2169 124.29 41.9303 124.695 41.6098 125.049C41.3063 125.403 41.0196 125.724 40.7835 125.977C40.5305 126.264 40.4799 126.584 40.6148 126.921C41.0196 128.018 41.6098 128.557 42.3687 128.54C42.9421 128.523 43.5492 128.102 44.1563 127.309C44.7635 126.517 45.2863 125.336 45.691 123.768C45.7922 123.346 45.944 123.228 46.1632 123.447C46.3824 123.666 46.4499 123.852 46.3824 124.004C46.0957 124.83 45.573 125.977 44.8141 127.41C44.072 128.844 43.2625 130.008 42.3856 130.901C41.5255 131.795 40.716 132.115 39.9234 131.896C39.1982 131.694 38.6417 131.053 38.2538 130.007C37.7648 128.692 37.6299 127.107 37.8154 125.252C38.0009 123.515 38.4056 121.98 39.0127 120.614ZM40.7329 125.117C41.6098 123.785 41.9471 122.351 41.7448 120.85C41.5424 119.332 41.2725 118.692 40.9521 118.877C40.6148 119.096 40.3787 119.838 40.2438 121.103C40.1258 122.368 40.092 123.599 40.1932 124.796C40.2101 125.1 40.2438 125.319 40.2944 125.454C40.345 125.589 40.4968 125.488 40.7329 125.117ZM32.6043 120.648C32.4525 120.816 32.3176 121.171 32.2333 121.71C32.1321 122.233 32.0309 122.874 31.9297 123.582C31.8285 124.307 31.7273 125.083 31.6093 125.909C31.4912 126.736 31.3395 127.545 31.1371 128.321C30.9347 129.114 30.6818 129.839 30.3782 130.497C30.0746 131.154 29.6868 131.677 29.2314 132.048C28.9616 132.183 28.6749 132.267 28.3713 132.335C28.0678 132.385 27.798 132.385 27.5113 132.335C27.2414 132.284 26.9716 132.149 26.7355 131.964C26.4994 131.778 26.3139 131.508 26.1621 131.137C26.0272 130.834 25.9766 130.497 25.9766 130.126C25.9766 129.771 26.0272 129.417 26.1284 129.08C26.2296 128.743 26.3645 128.439 26.5163 128.169C26.6849 127.899 26.8535 127.697 27.0391 127.562C27.3089 127.393 27.5113 127.191 27.663 126.955C27.8317 126.719 27.9329 126.449 27.9666 126.129C27.9835 126.061 27.9835 126.011 27.9497 125.977C27.916 125.943 27.916 125.909 27.9329 125.893C27.9835 125.876 28.0509 125.876 28.1858 125.926C28.3039 125.96 28.3713 126.011 28.4051 126.061C28.4219 126.129 28.4219 126.213 28.3713 126.297C28.3376 126.398 28.287 126.5 28.2196 126.618C28.0846 126.82 27.9666 127.039 27.8317 127.292C27.7136 127.545 27.6293 127.798 27.5787 128.034C27.5281 128.287 27.5281 128.523 27.5956 128.743C27.663 128.962 27.8148 129.147 28.0509 129.299C28.4557 129.552 28.7929 129.603 29.0965 129.485C29.4001 129.35 29.6699 129.08 29.8891 128.692C30.1252 128.304 30.3276 127.798 30.4962 127.208C30.6649 126.618 30.8335 125.994 30.9684 125.319C31.1034 124.645 31.2383 123.97 31.3395 123.279C31.4575 122.587 31.5587 121.946 31.6599 121.356C31.7611 120.766 31.8623 120.26 31.9634 119.838C32.0646 119.417 32.1658 119.13 32.2839 118.978C32.2839 118.894 32.3682 118.81 32.52 118.692C32.6717 118.574 32.8741 118.455 33.0933 118.32C33.3294 118.186 33.5824 118.051 33.8691 117.916C34.1558 117.781 34.4088 117.646 34.6449 117.528C34.7292 117.477 34.8472 117.41 34.9822 117.309C35.1171 117.207 35.2688 117.106 35.4038 116.988C35.5387 116.887 35.6736 116.786 35.7916 116.701C35.9097 116.617 35.9771 116.584 36.0109 116.584C36.0615 116.584 36.0952 116.617 36.1121 116.668C36.1289 116.718 36.1458 116.786 36.1458 116.87C36.1458 116.971 36.1121 117.056 36.0615 117.106C35.994 117.157 35.9097 117.207 35.7916 117.258C35.623 117.342 35.4881 117.477 35.3532 117.646C35.2183 117.831 35.1171 118.084 35.0159 118.405C34.9316 118.742 34.8472 119.164 34.7966 119.67C34.7461 120.192 34.7292 120.816 34.7292 121.575C34.7292 122.149 34.7629 122.756 34.8135 123.397C34.8641 124.038 34.9484 124.678 35.0496 125.302C35.1508 125.926 35.2688 126.533 35.4038 127.124C35.5387 127.697 35.6905 128.22 35.8591 128.658C36.0277 129.097 36.1964 129.451 36.3988 129.721C36.6011 129.991 36.7866 130.109 36.989 130.109C37.2926 130.109 37.7479 129.906 38.3213 129.502C38.3719 129.468 38.4225 129.434 38.4731 129.417C38.5237 129.384 38.5743 129.367 38.6249 129.367C38.7598 129.367 38.8272 129.434 38.8272 129.586C38.8272 129.603 38.7429 129.653 38.608 129.721C38.4562 129.788 38.2707 129.906 38.0346 130.041C37.7985 130.193 37.5455 130.362 37.2588 130.564C36.9721 130.766 36.6855 131.036 36.3988 131.34C36.0952 131.677 35.7748 131.913 35.4038 132.082C35.0496 132.25 34.7292 132.335 34.4931 132.335C34.1558 132.335 33.886 132.115 33.6499 131.694C33.4138 131.272 33.2283 130.716 33.0765 130.024C32.9247 129.333 32.7898 128.557 32.7055 127.697C32.6211 126.837 32.5706 125.977 32.5368 125.117C32.5031 124.257 32.5031 123.43 32.5031 122.655C32.5368 121.828 32.5706 121.171 32.6043 120.648ZM25.8417 127.596C25.9429 127.039 26.1284 126.854 26.4151 127.073C26.7018 127.275 26.7186 127.697 26.4657 128.338C25.5719 130.682 24.7286 132.368 23.9529 133.38C23.1603 134.392 22.4182 134.966 21.7268 135.134C20.9679 135.303 20.209 134.949 19.467 134.105C18.7249 133.262 18.0672 132.234 17.477 131.019C16.8867 129.822 16.3808 128.625 15.9592 127.41C15.5376 126.213 15.2509 125.336 15.0991 124.796C14.8967 124.122 14.5932 124.105 14.1884 124.763C13.4633 125.909 12.7381 127.073 12.0298 128.237C11.3215 129.4 10.6301 130.53 9.97236 131.593C9.28092 132.638 8.64008 133.616 8.0161 134.51C7.39212 135.404 6.81873 136.163 6.29594 136.787C5.68882 137.478 5.03111 137.816 4.33967 137.816C3.64824 137.799 2.93993 137.967 2.21477 138.288C1.4896 138.625 1.05113 138.726 0.899351 138.608C0.747572 138.49 1.05113 138.119 1.79316 137.478C2.70383 136.736 3.69883 135.758 4.82874 134.561C5.82373 133.498 6.86932 132.301 7.93178 130.969C8.99423 129.636 9.98922 128.321 10.9505 127.006C11.4396 126.331 11.9286 125.656 12.4008 124.982C12.873 124.307 13.3284 123.633 13.7668 122.975C14.0704 122.553 14.1378 121.997 13.9692 121.339C13.868 120.968 13.7331 120.479 13.5645 119.889C13.3958 119.299 13.2272 118.658 13.0248 117.966C12.8056 117.275 12.5695 116.55 12.2996 115.808C12.0467 115.066 11.7431 114.34 11.4058 113.649C10.6807 112.131 9.92177 111.069 9.11228 110.445C8.13415 109.737 7.12229 109.686 6.0767 110.327C4.94679 111.035 4.33967 112.131 4.28908 113.582C4.22162 114.863 4.54205 116.128 5.23348 117.359C5.82373 118.388 6.5489 119.046 7.42585 119.349C8.30279 119.653 9.06169 119.181 9.73626 117.933C10.0061 117.444 10.2253 117.207 10.4108 117.258C10.5963 117.309 10.6807 117.41 10.6638 117.578C10.6301 117.916 10.3771 118.337 9.88804 118.843C8.30279 120.53 6.81873 121.474 5.45272 121.66C4.20476 121.862 3.20976 121.457 2.50146 120.479C1.65825 119.332 1.47274 117.629 1.94494 115.42C2.41714 113.194 3.85061 111.119 6.24534 109.18C6.93678 108.624 7.69567 108.185 8.52203 107.898C9.34838 107.595 10.1579 107.527 10.9505 107.696C11.8274 107.898 12.5526 108.438 13.126 109.332C13.6994 110.226 14.1884 111.254 14.5763 112.401C14.9642 113.548 15.3015 114.728 15.5545 115.892C15.8074 117.073 16.0435 118.034 16.2965 118.793C16.4314 119.214 16.6 119.231 16.8193 118.826C17.9323 116.803 18.7587 114.998 19.2646 113.413C19.7705 111.727 19.9054 110.411 19.6356 109.45C19.6188 109.382 19.467 109.298 19.214 109.18C18.961 109.062 19.2983 108.708 20.2259 108.118C20.8836 107.696 21.4232 107.241 21.8448 106.768C22.2665 106.279 22.57 106.094 22.7724 106.229C23.0928 106.465 23.1771 106.988 23.0085 107.831C22.8567 108.674 22.5194 109.72 21.9966 110.968C21.4738 112.232 20.7993 113.666 20.0066 115.234C19.1971 116.82 18.3202 118.455 17.3589 120.159C17.106 120.614 17.0385 121.019 17.1566 121.373C17.7299 123.026 18.4045 124.678 19.1803 126.331C19.5176 127.073 19.838 127.748 20.1584 128.355C20.4788 128.979 20.7655 129.518 21.0522 130.024C22.0809 131.896 23.0422 132.385 23.936 131.475C24.8467 130.581 25.4707 129.282 25.8417 127.596Z" fill="#BCB5B5"/>
<path d="M136.235 128.911C136.825 127.983 137.315 127.679 137.702 127.983C138.09 128.287 138.411 128.759 138.664 129.416C138.866 129.939 139.018 129.939 139.136 129.45C139.254 128.961 139.321 128.641 139.338 128.489C139.473 127.174 139.423 125.74 139.22 124.172C139.119 123.447 138.984 122.822 138.782 122.3C138.579 121.777 138.343 121.507 138.057 121.507C137.449 121.49 136.842 122.452 136.286 124.374C136.05 125.217 135.898 125.959 135.83 126.617C135.78 127.275 135.746 128.034 135.78 128.894C135.78 129.383 135.932 129.4 136.235 128.911ZM135.999 123.092C136.235 122.536 136.488 122.064 136.724 121.676C137.011 121.204 137.298 120.799 137.584 120.462C138.546 119.281 139.524 118.691 140.519 118.674C141.615 118.64 142.273 119.416 142.475 121.001C142.661 122.519 142.576 124.003 142.205 125.453C141.851 126.819 141.311 128 140.569 128.978C139.912 129.872 139.372 130.597 138.934 131.12C138.495 131.659 138.09 131.828 137.702 131.626C137.534 131.558 137.348 131.44 137.112 131.305C136.893 131.154 136.606 131.069 136.286 131.035C135.932 131.002 135.78 131.17 135.814 131.541C135.915 134.004 135.982 136.145 136.033 137.967C136.083 139.788 136.117 140.766 136.168 140.935C136.218 141.137 136.218 141.272 136.168 141.356C136.117 141.441 135.965 141.491 135.712 141.525C135.375 141.576 135.021 141.677 134.65 141.845C134.279 142.014 133.975 142.267 133.722 142.604C133.453 143.026 133.267 143.245 133.183 143.262C133.065 143.279 133.031 143.195 133.065 143.009C133.166 142.351 133.284 140.8 133.402 138.371C133.436 137.225 133.486 135.96 133.52 134.611C133.554 133.245 133.588 131.862 133.604 130.462C133.621 129.062 133.638 127.713 133.621 126.398C133.604 125.082 133.588 123.885 133.537 122.839C133.402 120.512 133.183 119.247 132.879 119.062C132.711 118.961 133.031 118.623 133.84 118.1C134.65 117.561 135.19 117.055 135.476 116.566C135.746 116.06 135.864 116.077 135.83 116.6C135.78 117.426 135.746 118.303 135.729 119.247C135.729 119.77 135.729 120.36 135.729 121.001C135.729 121.642 135.712 122.3 135.712 122.991C135.712 123.497 135.814 123.531 135.999 123.092ZM129.237 123.109C128.967 123.362 128.68 123.565 128.376 123.733C128.073 123.885 127.938 123.834 127.972 123.548C128.005 123.345 128.123 123.244 128.326 123.278C128.528 123.295 128.731 123.143 128.933 122.806C129.102 122.502 129.169 121.962 129.152 121.17C129.135 120.377 128.865 119.888 128.326 119.686C128.056 119.585 127.803 119.585 127.567 119.686C127.331 119.804 127.128 119.972 126.96 120.209C126.656 120.63 126.437 121.22 126.252 121.979C126.083 122.738 125.982 123.43 125.948 124.037C125.83 125.689 125.931 126.819 126.285 127.393C126.639 127.983 126.994 128.084 127.314 127.713C127.432 127.612 127.668 127.174 128.022 126.381C128.393 125.605 128.68 124.964 128.933 124.458C129 124.323 129.085 124.222 129.186 124.155C129.287 124.087 129.692 123.649 130.417 122.856C130.822 122.418 131.058 122.232 131.108 122.317C131.159 122.401 131.159 122.721 131.108 123.328C131.075 123.683 131.075 124.34 131.092 125.285C131.108 126.246 131.21 127.072 131.378 127.781C131.581 128.674 131.834 129.029 132.154 128.843C132.474 128.658 132.761 128.287 133.031 127.747C133.233 127.325 133.402 126.87 133.503 126.381C133.604 125.909 133.722 125.437 133.84 124.981C133.975 124.492 134.144 124.374 134.346 124.644C134.549 124.914 134.566 125.285 134.397 125.74C134.33 125.909 134.144 126.364 133.857 127.072C133.571 127.781 133.216 128.54 132.795 129.332C132.39 130.125 131.952 130.833 131.479 131.474C131.007 132.098 130.586 132.418 130.181 132.435C129.877 132.435 129.608 132.233 129.405 131.828C129.22 131.525 129.068 131.035 128.933 130.395C128.849 129.939 128.781 129.4 128.714 128.776C128.68 128.303 128.663 127.932 128.663 127.679C128.663 127.005 128.528 126.954 128.242 127.528C127.887 128.287 127.567 129.062 127.28 129.889C126.994 130.698 126.757 131.238 126.538 131.525C126.42 131.676 126.285 131.744 126.117 131.727C125.779 131.71 125.493 131.524 125.24 131.17C125.004 130.816 124.801 130.378 124.649 129.889C124.481 129.416 124.363 128.927 124.295 128.438C124.211 127.932 124.177 127.544 124.177 127.241C124.16 125.841 124.346 124.526 124.734 123.278C125.155 121.979 125.779 120.799 126.623 119.736C126.774 119.551 127.044 119.247 127.449 118.843C127.854 118.438 128.309 118.067 128.798 117.73C129.355 117.359 129.86 117.139 130.299 117.072C130.805 117.004 131.227 117.156 131.53 117.527C131.834 117.881 131.935 118.353 131.884 118.927C131.817 119.416 131.631 119.939 131.311 120.512C131.058 120.967 130.721 121.49 130.282 122.047C129.86 122.468 129.54 122.839 129.237 123.109ZM112.052 110.09C111.816 110.056 111.681 110.157 111.664 110.427C111.546 111.709 111.462 113.581 111.394 116.111C111.36 117.291 111.343 118.556 111.327 119.888C111.31 121.22 111.31 122.519 111.327 123.801C111.343 125.133 111.36 126.398 111.394 127.629C111.428 128.843 111.478 129.922 111.529 130.867C111.546 131.255 111.698 131.238 111.951 130.85C112.49 130.04 112.929 129.518 113.249 129.315C113.603 129.096 113.89 129.265 114.126 129.804C114.362 130.361 114.615 130.934 114.885 131.575C115.155 132.199 115.458 132.688 115.829 133.042C116.2 133.396 116.689 133.262 117.313 132.654C118.781 131.187 119.792 129.265 120.332 126.87C120.821 124.61 120.838 122.283 120.366 119.888C119.86 117.477 118.916 115.402 117.533 113.665C116.065 111.793 114.227 110.613 112.052 110.09ZM116.184 134.746C115.745 135.133 115.256 135.336 114.733 135.386C114.21 135.42 113.671 134.982 113.114 134.054C112.777 133.498 112.591 133.042 112.507 132.688C112.44 132.334 112.237 132.334 111.9 132.654C111.596 132.924 111.563 133.329 111.782 133.835C112.018 134.341 111.849 134.611 111.293 134.644C110.905 134.661 110.483 134.762 110.062 134.948C109.623 135.133 109.219 135.386 108.831 135.69C108.493 135.96 108.358 136.095 108.392 136.095C108.308 136.112 108.257 136.027 108.257 135.859C108.274 135.589 108.308 135.117 108.358 134.425C108.409 133.734 108.477 132.907 108.561 131.946C108.628 130.968 108.696 129.872 108.78 128.674C108.864 127.477 108.932 126.229 108.999 124.947C109.05 123.666 109.084 122.384 109.117 121.102C109.151 119.804 109.151 118.573 109.134 117.409C109.101 116.245 109.033 115.166 108.949 114.188C108.848 113.21 108.713 112.384 108.527 111.726C108.426 111.405 108.662 111.136 109.219 110.916C109.775 110.697 110.298 110.444 110.77 110.174C111.04 110.022 111.023 109.921 110.703 109.854C109.876 109.753 109.067 109.702 108.325 109.736C107.6 109.77 106.925 109.871 106.301 110.023C105.694 110.191 105.137 110.41 104.631 110.697C104.176 110.933 103.738 111.254 103.299 111.641C102.22 112.636 101.545 113.8 101.259 115.149C100.972 116.498 101.006 117.679 101.326 118.674C101.646 119.703 102.254 120.377 103.114 120.714C103.974 121.052 105.036 120.698 106.284 119.635C106.605 119.365 106.858 119.011 107.043 118.573C107.229 118.134 107.363 117.881 107.431 117.848C107.566 117.763 107.667 117.831 107.734 118.067C107.785 118.303 107.785 118.505 107.751 118.708C107.667 119.011 107.431 119.365 107.06 119.77C106.689 120.158 106.385 120.478 106.132 120.698C104.142 122.435 102.473 123.312 101.124 123.345C99.9263 123.379 99.1337 122.772 98.7289 121.507C98.3242 120.327 98.3917 118.876 98.9313 117.156C99.471 115.352 100.399 113.716 101.697 112.249C102.979 110.798 104.598 109.668 106.537 108.842C108.375 108.066 110.281 107.695 112.271 107.746C114.328 107.83 116.167 108.336 117.803 109.264C119.573 110.275 120.956 111.743 121.934 113.632C123.03 115.756 123.418 118.202 123.115 121.018C122.828 123.615 122.035 126.178 120.737 128.725C119.472 131.17 117.937 133.177 116.184 134.746Z" fill="#BCB5B5"/>
<path d="M44.0556 71.3698C44.7807 74.7258 45.5228 78.0817 46.2479 81.4546C59.8406 74.945 81.3426 90.0048 98.0552 90.3084C86.8066 93.3271 74.5126 90.7637 62.0835 87.4245C55.9281 85.755 51.3072 88.6051 53.7357 92.349C55.5065 96.8012 69.8074 95.9748 85.6261 94.5245C64.3771 99.1622 40.5984 101.017 41.9644 85.9068C42.6558 81.0499 43.3473 76.2098 44.0556 71.3698ZM56.2147 6.66126C46.5346 15.7174 27.8658 13.1035 20.4286 21.4008C3.31136 42.3125 19.8215 69.1437 43.2629 65.7877C45.3879 57.2206 50.5146 56.0569 60.0598 54.9607C67.9692 53.308 77.312 54.2187 89.6736 60.5428C94.8172 63.6121 95.5929 70.5603 94.5136 79.1611C81.2751 73.2586 68.6269 71.7408 56.2316 72.078C74.0066 74.4559 95.6267 80.8812 98.8815 88.6725C98.8984 80.3247 98.9321 71.96 98.949 63.6121C118.09 68.6377 127.686 60.4922 129.693 41.8066C131.092 20.5069 109.472 18.0953 102.322 23.3739C100.5 8.75249 87.9366 2.96806 83.9734 1.90561C74.6475 -1.70336 66.873 1.87183 59.7731 8.6007C51.6951 15.0091 43.2798 19.6131 34.4935 22.2608C48.1199 22.6992 59.0986 15.6163 71.0048 9.91616C82.2364 6.40838 94.598 10.0679 98.7803 25.9878C97.9034 28.5512 97.0264 31.1146 96.1326 33.6948C107.583 18.9385 127.146 23.357 125.966 42.38C122.745 59.4298 106.369 65.4672 93.4849 55.6016C98.3924 52.2962 99.1345 48.2151 99.5561 44.0664C94.6823 51.8746 89.1171 55.922 82.2364 52.8021C88.375 47.2032 88.999 39.6817 87.0259 31.2664C86.4862 43.2232 82.2027 51.0314 71.6793 51.9589C73.1634 48.6535 72.9442 45.0952 72.0672 41.4356C71.5613 47.2875 69.4195 51.1494 65.0517 52.313C48.474 54.4548 43.7014 53.5104 34.3754 38.8722C35.1343 44.9771 37.8664 50.3399 43.0943 54.809C36.0113 65.3492 19.8047 57.2712 17.1738 43.3244C16.162 30.2039 21.002 24.3857 27.5117 20.6587C40.2442 15.9367 52.4877 14.1659 56.2147 6.66126Z" fill="#BCB5B5"/>
</svg>
