<svg width="499" height="121" viewBox="0 0 499 121" fill="none" xmlns="http://www.w3.org/2000/svg">
<path d="M216.44 66.9473H197.771V76.4587H216.474C221.887 76.4587 222.612 73.9966 222.612 71.6861C222.612 69.3757 221.938 66.9473 216.44 66.9473Z" fill="#B4B4B4"/>
<path d="M145.374 83.8448H163.436C159.085 76.7112 154.734 69.527 154.396 68.9873C154.076 69.527 145.374 83.8448 145.374 83.8448Z" fill="#B4B4B4"/>
<path d="M30 64.3384V94.6942H76.3769V64.3552C73.8641 62.1628 57.6912 48.1149 52.9692 44C48.2809 48.1486 32.4622 62.1629 30 64.3384ZM63.7791 70.1397V84.1202H42.4121V70.1228C43.542 69.1278 50.8441 62.6688 53.0028 60.7631C55.1614 62.6688 62.6155 69.1278 63.7791 70.1397Z" fill="#B4B4B4"/>
<path d="M0.913086 0.585938V120.103H498.782V0.585938H0.913086ZM83.9868 97.3029C83.9868 99.7651 81.9461 101.738 79.4502 101.738H26.5974C24.1015 101.738 22.0608 99.7482 22.0608 97.3029V62.2419C22.0608 60.994 22.6005 59.8134 23.5449 58.9534L49.7352 35.7818C51.4554 34.264 54.0693 34.2471 55.7895 35.7481L82.4521 58.9196C83.4302 59.7629 83.9699 60.9771 83.9699 62.225V97.3029H83.9868ZM172.288 98.4159L167.87 91.1473H140.921L136.502 98.4159H125.658L149.775 59.7797C150.668 58.3631 152.523 57.5199 154.412 57.5199C156.301 57.5199 158.156 58.3631 159.05 59.7797L183.166 98.4159H172.288ZM222.78 98.3822L212.544 84.2161H197.77V98.3822H188.647V58.7004H217.704C226.44 58.7004 231.87 63.6754 231.87 71.7028C231.87 77.5884 228.581 81.9057 222.763 83.3223L233.472 98.3822H222.78ZM252.208 98.3822H242.967V58.7004H252.208V98.3822ZM287.134 99.9168C276.763 99.9168 268.584 98.1292 261.939 92.9856L266.897 86.1049C273.137 90.1861 280.271 91.5184 287.202 91.5184C295.078 91.5184 299.968 89.4947 299.968 86.2399C299.968 82.9513 298.788 81.9563 289.951 81.9563H280.962C271.282 82.0406 263.777 79.0219 263.777 70.1682C263.777 62.0227 271.703 57.1657 284.959 57.1657C293.61 57.1657 300.491 58.6498 307.439 62.7478L302.565 69.4598C296.191 66.5592 290.71 65.5979 284.908 65.5979C278.298 65.5979 273.609 66.7447 273.609 69.7297C273.609 72.175 275.043 73.4567 282.041 73.4567H290.204C303.324 73.4567 309.969 77.5716 309.969 85.8183C309.935 94.7732 301.621 99.9168 287.134 99.9168ZM357.948 67.0483H341.387V98.3822H332.078V67.0483H315.078V58.7004H357.948V67.0483ZM387.241 99.0736C371.271 99.0736 362.4 95.7176 362.4 78.516C362.4 61.3144 371.271 57.9415 387.241 57.9415C403.212 57.9415 412.082 61.2975 412.082 78.516C412.082 95.7007 403.212 99.0736 387.241 99.0736ZM467.195 92.682C467.195 95.043 466.672 98.2304 462.237 98.8544C459.521 99.2254 457.161 98.1966 454.563 95.5321L429.486 70.2188V98.399H420.363V63.7597C420.363 60.8759 422.083 58.751 424.764 58.3463C427.699 57.8909 430.329 58.8522 432.589 61.1795L458.071 86.8807V58.7004H467.195V92.682Z" fill="#B4B4B4"/>
<path d="M387.243 66.4917C377.377 66.4917 372.233 67.0145 372.233 78.4991C372.233 89.9668 377.377 90.4897 387.243 90.4897C397.108 90.4897 402.252 89.95 402.252 78.4991C402.269 67.0313 397.108 66.4917 387.243 66.4917Z" fill="#B4B4B4"/>
</svg>
