<svg width="409" height="121" viewBox="0 0 409 121" fill="none" xmlns="http://www.w3.org/2000/svg">
<path d="M0.974609 57.378L5.71348 51.0033V8.69069L0.974609 2.31603H42.7645V18.5226L36.8113 11.895H21.2118V24.9142H30.1836L36.0356 22.4183V36.0278L30.1836 33.5319H21.2118V47.7485H36.8113L42.7645 41.1209V57.4118H0.974609V57.378ZM97.506 8.67381V40.8173C97.506 44.0384 96.9495 46.7872 95.8196 49.0977C94.7065 51.3912 93.2731 53.2632 91.553 54.6966C89.8328 56.1301 87.9439 57.1757 85.9033 57.8334C83.8628 58.4911 81.9572 58.8284 80.1695 58.8284H75.3464C72.4794 58.8284 69.798 58.4742 67.3358 57.7491C64.8736 57.0239 62.698 55.894 60.8261 54.3424C58.9542 52.7909 57.487 50.784 56.4245 48.305C55.3621 45.8428 54.8224 42.8748 54.8224 39.4344V8.67381L50.0835 2.29915H75.8523L71.1134 8.67381V40.1258C71.1134 42.2001 71.3157 43.9034 71.7205 45.2525C72.1252 46.6017 72.6987 47.6642 73.4407 48.4399C74.1827 49.2157 75.0764 49.7553 76.1052 50.0252C77.1339 50.3119 78.3144 50.4637 79.6299 50.4637C80.8441 50.4637 81.9402 50.3118 82.9521 49.9914C83.9639 49.671 84.8241 49.1314 85.5324 48.3556C86.2575 47.5799 86.8141 46.5511 87.2188 45.2525C87.6236 43.954 87.8259 42.3688 87.8259 40.4631V8.65703L83.087 2.28227H102.127L97.506 8.67381ZM156.008 19.8886C156.008 21.9629 155.705 23.8687 155.098 25.6225C154.491 27.3764 153.647 28.928 152.551 30.2771C151.455 31.6263 150.19 32.7393 148.757 33.5993C147.323 34.4594 145.806 35.0665 144.187 35.4038V36.0109C144.996 36.1796 145.789 36.5337 146.564 37.0903C147.34 37.6299 148.065 38.2371 148.723 38.8948C149.381 39.5525 149.937 40.1933 150.409 40.8341C150.865 41.4581 151.185 41.9471 151.354 42.3013L154.625 50.2275C155.249 51.543 156.143 52.5549 157.29 53.2463C158.437 53.9378 159.904 54.0726 161.692 53.6847C161.236 54.6628 160.595 55.4724 159.803 56.1469C158.993 56.8046 158.1 57.3274 157.088 57.6984C156.076 58.0694 155.03 58.3394 153.934 58.5249C152.838 58.6935 151.843 58.7778 150.915 58.7778C148.099 58.7778 145.738 58.3899 143.849 57.6141C141.96 56.8384 140.426 55.2194 139.279 52.7403L134.372 41.7111C133.916 40.6824 133.157 39.7885 132.129 39.0465C131.1 38.3045 130.037 37.9335 128.941 37.9335V51.0371L133.68 57.4118H108.603L113.342 51.0371V8.72445L108.603 2.34969H132.044C135.434 2.34969 138.588 2.75449 141.522 3.56397C144.456 4.37346 146.986 5.53711 149.145 7.0549C151.303 8.57269 152.973 10.4277 154.187 12.6201C155.401 14.745 156.008 17.1903 156.008 19.8886ZM139.903 20.3102C139.903 18.0673 139.549 16.229 138.824 14.7956C138.098 13.3621 137.205 12.2323 136.108 11.389C135.012 10.5627 133.832 10.0061 132.533 9.75315C131.235 9.50019 130.054 9.44967 128.958 9.61831V29.788C130.341 30.1253 131.673 30.2096 132.972 30.0072C134.27 29.8049 135.434 29.3158 136.463 28.54C137.491 27.7643 138.335 26.7018 138.959 25.3527C139.583 24.0035 139.903 22.334 139.903 20.3102ZM218.069 57.378H191.946L196.348 50.919L193.768 43.9372H178.775L176.279 50.919L180.597 57.378H160.005L165.958 50.919L181.035 8.9437L178.539 1.87754H195.353L213.195 50.919L218.069 57.378ZM186.263 23.2446L181.861 35.3027H190.648L186.263 23.2446ZM262.186 41.6942C262.186 44.7466 261.545 47.3437 260.297 49.4855C259.033 51.6441 257.397 53.415 255.39 54.8316C253.383 56.2313 251.14 57.2768 248.661 57.9346C246.182 58.5923 243.77 58.9296 241.426 58.9296C239.47 58.9296 237.665 58.8284 235.996 58.626C234.326 58.4237 232.809 58.2044 231.426 57.9852C230.043 57.7491 228.761 57.5467 227.597 57.3443C226.417 57.142 225.371 57.0408 224.444 57.0408C224.039 57.0408 223.601 57.1925 223.112 57.4792C222.623 57.7659 222.201 58.1032 221.864 58.508V33.262C222.319 35.5556 223.145 37.7649 224.326 39.856C225.506 41.9472 226.872 43.8023 228.424 45.4212C229.975 47.0234 231.611 48.3219 233.331 49.3C235.052 50.2782 236.755 50.7672 238.408 50.7672C239.504 50.7672 240.549 50.6997 241.544 50.548C242.556 50.3962 243.45 50.1601 244.259 49.8228C245.069 49.4855 245.71 48.9965 246.199 48.3556C246.688 47.7148 246.924 46.9222 246.924 45.944C246.924 44.3925 246.519 42.9759 245.71 41.6773C244.9 40.3788 243.804 39.2151 242.388 38.1864C240.988 37.1577 239.335 36.1965 237.429 35.3364C235.541 34.4763 233.5 33.6668 231.308 32.9247C228.036 31.778 225.287 29.9061 223.078 27.3259C220.869 24.7456 219.756 21.2884 219.756 16.988C219.756 14.5764 220.295 12.384 221.391 10.4446C222.488 8.48839 223.972 6.80192 225.877 5.35159C227.766 3.91812 229.992 2.80512 232.556 2.02937C235.119 1.25361 237.851 0.865723 240.785 0.865723C243.838 0.865723 246.604 1.18614 249.099 1.81012C251.595 2.45097 253.737 2.75452 255.525 2.75452C255.93 2.75452 256.368 2.60272 256.857 2.31603C257.346 2.02934 257.734 1.67521 258.021 1.28733V21.9629C257.565 20.1753 256.739 18.5057 255.559 16.9205C254.378 15.3352 253.012 13.9524 251.461 12.7382C249.909 11.5239 248.256 10.5795 246.502 9.8881C244.749 9.19666 243.062 8.8594 241.46 8.8594C239.386 8.8594 237.564 9.26409 235.996 10.0736C234.411 10.8831 233.618 11.9961 233.618 13.4296C233.618 14.5257 234.191 15.504 235.338 16.364C236.485 17.2241 237.935 18.0673 239.689 18.9105C241.443 19.7368 243.382 20.597 245.507 21.4908C247.632 22.3846 249.673 23.3964 251.629 24.5432C255.019 26.5501 257.616 28.8942 259.42 31.5587C261.276 34.2401 262.186 37.613 262.186 41.6942ZM268.645 57.378L273.384 51.0033V8.7751L268.645 2.31603H294.245L289.591 8.7751V51.0033L294.245 57.378H268.645ZM355.345 57.378H329.239L333.64 50.919L331.06 43.9372H316.068L313.572 50.919L317.889 57.378H297.298L303.251 50.919L318.328 8.9437L315.832 1.87754H332.595L350.437 50.919L355.345 57.378ZM323.539 23.2446L319.137 35.3027H327.923L323.539 23.2446ZM403.779 8.58951V57.3612H393.694L376.29 27.1909L377.066 36.2471V50.9865L381.805 57.3612H357.942L362.681 50.9865V8.58951L357.942 2.29915H374.654L390.254 27.4607L389.31 18.1517V8.58951L384.655 2.29915H408.535L403.779 8.58951Z" fill="#BCB5B5"/>
<path d="M30.4356 119.084L34.5168 113.604V100.787L34.9552 94.041L24.4993 112.862L13.5375 94.1758L13.9086 100.77V113.587L17.9897 119.068H0.130371L4.21161 113.587V77.1935L0.130371 71.7125H15.8479L26.5905 90.6849L37.6366 71.7125H52.3086L48.3118 77.1935V113.587L52.3086 119.068H30.4356V119.084ZM104.116 119.084H81.6526L85.4302 113.519L83.2041 107.516H70.3028L68.1611 113.519L71.8713 119.084H54.1637L59.2736 113.519L72.2422 77.4296L70.1004 71.3585H84.5532L99.8998 113.536L104.116 119.084ZM76.7619 89.7405L72.9843 100.112H80.5395L76.7619 89.7405ZM144.573 108.123C143.545 111.985 141.453 114.986 138.35 117.128C135.231 119.27 131.183 120.349 126.191 120.349C123.476 120.349 120.845 119.86 118.299 118.865C115.752 117.87 113.476 116.386 111.486 114.379C109.479 112.373 107.877 109.843 106.662 106.79C105.448 103.721 104.841 100.095 104.841 95.896C104.841 92.2871 105.381 88.9479 106.477 85.8617C107.556 82.7756 109.125 80.0773 111.148 77.7838C113.172 75.4902 115.634 73.6857 118.518 72.3703C121.402 71.0549 124.673 70.4141 128.333 70.4141C129.514 70.4141 130.627 70.4983 131.672 70.667C132.718 70.8356 133.679 71.038 134.607 71.2573C135.517 71.4765 136.36 71.6788 137.119 71.8475C137.878 72.0161 138.587 72.1005 139.227 72.1005C139.767 72.1005 140.357 71.9824 140.998 71.7294C141.639 71.4765 142.077 71.1898 142.33 70.8357V90.3308C141.976 88.8468 141.437 87.3121 140.695 85.6931C139.953 84.091 139.059 82.6238 138.03 81.3252C137.001 80.0098 135.787 78.9305 134.438 78.0704C133.072 77.2103 131.638 76.7718 130.104 76.7718C128.62 76.7718 127.237 77.1597 125.955 77.9524C124.673 78.745 123.543 79.9255 122.582 81.5107C121.621 83.096 120.862 85.0691 120.322 87.447C119.783 89.8249 119.513 92.5906 119.513 95.7442C119.513 98.4088 119.766 100.871 120.255 103.114C120.744 105.357 121.452 107.296 122.363 108.898C123.274 110.501 124.404 111.765 125.736 112.676C127.068 113.587 128.603 114.042 130.34 114.042C133.106 114.042 135.433 113.418 137.305 112.153C139.177 110.888 140.745 108.898 141.976 106.183L144.573 108.123ZM149.768 119.084L153.849 113.604V77.1429L149.768 71.7294H170.443L166.446 77.1429V88.189H177.931V77.1429L173.934 71.7294H194.61L190.529 77.1429V113.604L194.61 119.084H173.934L178.015 113.604V96.267H166.379V113.604L170.46 119.084H149.768ZM200.917 119.084L204.998 113.604V77.2779L200.917 71.7125H222.925L218.928 77.2779V113.604L222.925 119.084H200.917ZM268.661 77.1429V119.101H259.993L245.017 93.164L245.692 100.938V113.62L249.773 119.101H229.215L233.297 113.62V77.1598L229.215 71.7463H243.601L257.025 93.3833L256.215 85.3727V77.1429L252.218 71.7294H272.742L268.661 77.1429ZM278.662 119.084L282.743 113.604V77.2103L278.662 71.7294H314.616V85.6594L309.506 79.9592H296.082V91.1572H303.789L308.832 89.0154V100.719L303.789 98.5775H296.082V110.804H309.506L314.616 105.104V119.118H278.662V119.084ZM361.297 86.8568C361.297 88.6275 361.044 90.2802 360.521 91.7811C359.998 93.2821 359.273 94.6143 358.329 95.778C357.384 96.9416 356.305 97.886 355.074 98.628C353.843 99.3701 352.527 99.8928 351.145 100.18V100.702C351.836 100.854 352.511 101.158 353.185 101.63C353.86 102.102 354.467 102.625 355.04 103.181C355.614 103.755 356.086 104.311 356.49 104.851C356.878 105.391 357.165 105.812 357.3 106.116L360.116 112.929C360.656 114.059 361.432 114.936 362.41 115.526C363.405 116.116 364.653 116.234 366.187 115.897C365.8 116.74 365.243 117.449 364.552 118.005C363.86 118.579 363.084 119.017 362.224 119.337C361.364 119.658 360.454 119.894 359.526 120.046C358.598 120.198 357.722 120.265 356.929 120.265C354.5 120.265 352.477 119.928 350.858 119.27C349.222 118.595 347.923 117.213 346.928 115.088L342.695 105.593C342.308 104.699 341.65 103.94 340.773 103.299C339.879 102.659 338.968 102.338 338.024 102.338V113.604L342.105 119.084H320.536L324.617 113.604V77.2103L320.536 71.7294H340.689C343.606 71.7294 346.321 72.0836 348.834 72.7581C351.347 73.4496 353.539 74.4446 355.394 75.76C357.249 77.0754 358.7 78.6607 359.728 80.5327C360.791 82.4215 361.297 84.5295 361.297 86.8568ZM347.434 87.2109C347.434 85.2883 347.131 83.7031 346.507 82.472C345.883 81.2409 345.107 80.2628 344.18 79.5376C343.235 78.8293 342.223 78.3571 341.11 78.1379C339.997 77.9186 338.968 77.885 338.041 78.0199V95.3564C339.221 95.6599 340.368 95.7105 341.481 95.5418C342.594 95.3732 343.589 94.9516 344.483 94.277C345.377 93.6025 346.085 92.6918 346.625 91.5281C347.165 90.3982 347.434 88.9479 347.434 87.2109ZM402.733 77.2946L392.58 99.9772V113.469L396.661 119.101H374.131L377.841 113.62V101.461L366.137 77.379L361.027 71.7463H384.873L380.944 77.2272L387.757 92.5737L394.654 77.2272L390.506 71.7463H408.517L402.733 77.2946Z" fill="#BCB5B5"/>
</svg>
