<svg width="352" height="121" viewBox="0 0 352 121" fill="none" xmlns="http://www.w3.org/2000/svg">
<path d="M316.223 0.869629L351.672 36.4534V0.869629H316.223Z" fill="#BCB5B5"/>
<path d="M57.6585 66.3867H46.7305V80.4853H57.7092C61.4193 80.4853 64.0332 79.8444 65.551 78.529C67.0688 77.2135 67.8278 75.4428 67.8278 73.2168C67.8278 71.1593 67.0857 69.5066 65.5679 68.2586C64.067 67.0107 61.4361 66.3867 57.6585 66.3867Z" fill="#BCB5B5"/>
<path d="M304.788 0.869629H0.167969V120.387H351.671V47.938L304.788 0.869629ZM86.8843 85.3936C85.1979 88.2774 82.9211 90.5541 79.9867 92.2405C78.1823 93.2693 75.4671 94.0451 71.8076 94.5173C66.9507 95.1413 63.7464 95.4786 62.1611 95.4786H25.0091V25.8288H65.3149C72.0269 25.8288 77.1873 27.4984 80.7625 30.8207C84.3715 34.143 86.1591 38.2579 86.1591 43.1654C86.1591 47.2803 84.8774 50.8218 82.314 53.773C80.5939 55.7293 78.0979 57.2977 74.8094 58.4276C79.8012 59.625 83.4777 61.6993 85.8556 64.6336C88.1997 67.568 89.3971 71.2444 89.3971 75.6798C89.3971 79.2719 88.5539 82.5098 86.8843 85.3936ZM116.65 95.4617H95.0803V25.812H116.65V95.4617ZM212.49 95.4617C193.248 95.4617 177.648 79.8621 177.648 60.6199C177.648 54.5825 178.862 49.1016 182.623 44.2784L202.843 44.211C198.88 49.1522 194.9 53.9416 194.9 60.603C194.9 70.3169 202.776 78.1926 212.49 78.1926C222.204 78.1926 230.079 70.3169 230.079 60.603C230.079 52.6094 224.733 45.8468 217.431 43.7219C215.829 43.2497 214.514 43.081 213.131 43.0304C212.304 42.9967 211.478 42.9967 210.55 42.9967H166.653V95.4448H145.134V42.9967H123.193V25.7952C153.009 25.7952 182.792 25.8119 212.591 25.8288C231.833 25.8288 247.332 41.3777 247.332 60.6199C247.332 79.8621 231.732 95.4617 212.49 95.4617ZM274.365 95.4617H252.796V25.812H274.365V95.4617ZM326.83 95.4617H280.875V25.812H302.41V78.3106H326.83V95.4617Z" fill="#BCB5B5"/>
<path d="M63.104 51.4114C64.4194 50.2477 65.0603 48.5781 65.0603 46.4026C65.0603 44.3789 64.4194 42.7768 63.104 41.6468C61.7717 40.5001 59.4782 39.9268 56.2234 39.9268H46.7119V53.1483H56.0716C59.4445 53.1483 61.7886 52.5581 63.104 51.4114Z" fill="#BCB5B5"/>
</svg>
