<svg width="74" height="160" viewBox="0 0 74 160" fill="none" xmlns="http://www.w3.org/2000/svg">
<path d="M48.1268 69.8574C49.6783 73.3989 50.4708 77.1934 49.8974 81.4095C48.0929 94.7998 32.1562 94.1421 22.7459 89.4201C12.2563 84.1753 5.45996 73.1797 5.45996 61.459C5.45996 49.8901 13.4368 37.5285 18.9683 27.8484C22.2231 22.1482 25.6802 16.5492 29.2386 11.0346C31.4984 7.52682 33.7922 3.78298 37.0133 0.224609C33.7247 5.31764 30.807 12.738 29.8626 16.2964C28.4291 21.7435 27.5691 28.0339 27.8558 33.7171C28.3112 42.3348 32.426 47.9169 37.7383 54.6795C41.4822 59.4858 45.7152 64.3596 48.1268 69.8574Z" fill="#BCB5B5"/>
<path d="M26.3719 69.9075C24.3988 73.2298 23.1171 77.2098 23.6736 81.409C25.4781 94.7992 41.4149 94.1415 50.8252 89.4195C62.9 83.3652 70.5057 69.2667 66.9642 56.0113C63.6757 43.6835 51.0782 36.1451 48.3799 23.6655C48.6329 29.6861 51.1962 34.5261 50.8758 41.0526C50.4205 50.5979 47.3173 55.8932 38.9526 60.1767C33.556 62.9425 29.3737 64.8651 26.3719 69.9075Z" fill="#BCB5B5"/>
<path d="M41.145 58.9971C40.4536 59.4018 39.7284 59.7897 38.9695 60.1776C33.5729 62.9433 29.3737 64.8659 26.3719 69.9083C24.3988 73.2306 23.1171 77.2106 23.6736 81.4098C24.7024 89.0662 30.3688 92.1187 36.7772 92.4559C43.1857 92.1187 48.8519 89.0662 49.8807 81.4098C50.454 77.1937 49.6615 73.3992 48.11 69.8577C46.4236 65.9958 43.8265 62.4374 41.145 58.9971Z" fill="#BCB5B5"/>
<path d="M7.72153 122.087C5.71468 122.087 4.06206 121.446 2.74664 120.147C1.43122 118.849 0.773438 117.213 0.773438 115.206C0.773438 113.216 1.43122 111.563 2.74664 110.265C4.06206 108.966 5.71468 108.325 7.72153 108.325C9.74525 108.325 11.3981 108.966 12.7135 110.265C14.0289 111.563 14.6865 113.199 14.6865 115.206C14.6865 117.078 14.1133 118.646 12.9496 119.911L13.9277 121.041L11.9545 122.66L10.8754 121.429C9.89723 121.867 8.85144 122.087 7.72153 122.087ZM7.72153 119.574C8.19373 119.574 8.6492 119.506 9.1214 119.355L7.6711 117.634L9.62721 116.015L11.0944 117.752C11.5497 117.01 11.769 116.167 11.769 115.206C11.769 113.941 11.3981 112.895 10.6561 112.069C9.91408 111.243 8.93576 110.838 7.72153 110.838C6.5073 110.838 5.54607 111.243 4.80404 112.069C4.06201 112.895 3.69114 113.941 3.69114 115.206C3.69114 116.471 4.06201 117.516 4.80404 118.343C5.54607 119.169 6.52416 119.574 7.72153 119.574Z" fill="#BCB5B5"/>
<path d="M29.8972 121.85H26.6763L25.8498 119.591L20.9255 117.095L19.3066 121.834H16.0854L21.2289 108.544H24.7706L29.8972 121.85ZM25.0741 117.095L22.9998 111.378L20.9255 117.095H25.0741Z" fill="#BCB5B5"/>
<path d="M42.2746 121.85H32.1392V119.557L38.4295 111.04H32.1392V108.544H42.1396V110.821L35.8492 119.355H42.2746V121.85Z" fill="#BCB5B5"/>
<path d="M58.3303 121.85H55.1094L54.2831 119.591L49.3586 117.095L47.7397 121.834H44.5186L49.6623 108.544H53.2037L58.3303 121.85ZM53.4903 117.095L51.416 111.378L49.3417 117.095H53.4903Z" fill="#BCB5B5"/>
<path d="M66.6768 122.087C64.67 122.087 63.0171 121.446 61.7017 120.147C60.3863 118.849 59.7456 117.213 59.7456 115.206C59.7456 113.216 60.4032 111.563 61.7017 110.265C63.0171 108.966 64.67 108.325 66.6768 108.325C68.7005 108.325 70.3532 108.966 71.6686 110.265C72.984 111.563 73.6249 113.199 73.6249 115.206C73.6249 117.078 73.0515 118.646 71.8878 119.911L72.8659 121.041L70.8929 122.66L69.8136 121.429C68.8354 121.867 67.7899 122.087 66.6768 122.087ZM66.6768 119.574C67.149 119.574 67.6043 119.506 68.0765 119.355L66.6262 117.634L68.5825 116.015L70.0497 117.752C70.505 117.01 70.7243 116.167 70.7243 115.206C70.7243 113.941 70.3532 112.895 69.6112 112.069C68.8692 111.243 67.8911 110.838 66.6768 110.838C65.4626 110.838 64.5014 111.243 63.7593 112.069C63.0173 112.895 62.6462 113.941 62.6462 115.206C62.6462 116.471 63.0173 117.516 63.7593 118.343C64.4845 119.169 65.4626 119.574 66.6768 119.574Z" fill="#BCB5B5"/>
<path d="M14.5845 141.784H11.1778L10.3178 139.406L5.12361 136.775L3.4203 141.784H0.0136719L5.44394 127.752H9.18797L14.5845 141.784ZM9.49142 136.775L7.29897 130.737L5.10673 136.775H9.49142Z" fill="#BCB5B5"/>
<path d="M22.3103 142.037C19.8144 142.037 17.8412 141.295 16.374 139.81L17.9931 137.534C19.2074 138.799 20.6915 139.423 22.4622 139.423C23.238 139.423 23.8281 139.271 24.2666 138.967C24.6882 138.664 24.9075 138.293 24.9075 137.854C24.9075 137.483 24.7051 137.163 24.3004 136.91C23.8956 136.657 23.4065 136.471 22.7994 136.37C22.2092 136.252 21.5514 136.1 20.86 135.881C20.1517 135.679 19.5108 135.426 18.9206 135.173C18.3303 134.903 17.8243 134.481 17.4196 133.908C17.0149 133.335 16.8125 132.626 16.8125 131.8C16.8125 130.586 17.3016 129.574 18.2628 128.764C19.2241 127.938 20.5227 127.533 22.1417 127.533C24.3678 127.533 26.1891 128.191 27.6057 129.49L25.9362 131.682C24.8231 130.653 23.4739 130.147 21.8549 130.147C21.2309 130.147 20.725 130.282 20.3877 130.535C20.0336 130.788 19.8651 131.125 19.8651 131.564C19.8651 131.901 20.0674 132.188 20.4721 132.424C20.8769 132.66 21.366 132.829 21.9731 132.93C22.5633 133.048 23.2211 133.2 23.9125 133.419C24.604 133.638 25.2447 133.874 25.8518 134.161C26.442 134.431 26.948 134.852 27.3527 135.443C27.7575 136.033 27.9598 136.724 27.9598 137.534C27.9598 138.883 27.4876 139.962 26.5264 140.789C25.5314 141.615 24.1316 142.037 22.3103 142.037Z" fill="#BCB5B5"/>
<path d="M37.5034 141.784H34.5015V130.384H30.3867V127.736H41.5847V130.384H37.5034V141.784Z" fill="#BCB5B5"/>
<path d="M51.9897 141.784H48.988V136.033L43.5913 127.736H46.9979L50.489 133.385L53.946 127.736H57.3527L51.9897 136.033V141.784Z" fill="#BCB5B5"/>
<path d="M66.0368 142.037C63.9119 142.037 62.1749 141.345 60.7921 139.979C59.4092 138.613 58.7178 136.876 58.7178 134.768C58.7178 132.66 59.4092 130.923 60.7921 129.557C62.1749 128.191 63.9288 127.5 66.0368 127.5C68.1617 127.5 69.9325 128.174 71.3154 129.54C72.6982 130.906 73.3897 132.643 73.3897 134.751C73.3897 136.724 72.7826 138.377 71.5515 139.709L72.5802 140.907L70.489 142.61L69.3591 141.311C68.3303 141.8 67.2173 142.037 66.0368 142.037ZM66.0368 139.389C66.5259 139.389 67.015 139.304 67.504 139.153L65.9693 137.348L68.0267 135.645L69.5783 137.466C70.0505 136.674 70.2867 135.78 70.2867 134.768C70.2867 133.436 69.8987 132.34 69.1061 131.463C68.3134 130.586 67.2848 130.164 66.02 130.164C64.7383 130.164 63.7096 130.603 62.9339 131.463C62.1581 132.34 61.7701 133.436 61.7701 134.768C61.7701 136.1 62.1581 137.196 62.9339 138.073C63.7265 138.95 64.7551 139.389 66.0368 139.389Z" fill="#BCB5B5"/>
<path d="M7.55293 159.744C5.64726 159.744 4.02831 159.137 2.72976 157.906C1.4312 156.675 0.773438 155.09 0.773438 153.117C0.773438 151.144 1.4312 149.541 2.72976 148.327C4.04517 147.113 5.64726 146.506 7.55293 146.506C9.88021 146.506 11.6341 147.45 12.8315 149.356L10.5717 150.587C10.2682 150.098 9.84656 149.71 9.32377 149.39C8.80097 149.069 8.21064 148.917 7.55293 148.917C6.38929 148.917 5.42811 149.322 4.68608 150.098C3.92718 150.891 3.55609 151.886 3.55609 153.1C3.55609 154.314 3.92718 155.309 4.68608 156.102C5.44497 156.894 6.38929 157.282 7.55293 157.282C8.09259 157.282 8.59859 157.181 9.10452 156.996C9.59359 156.81 9.99823 156.574 10.2681 156.304V154.769H6.8952V152.391H12.9834V157.282C11.5499 158.952 9.72843 159.744 7.55293 159.744Z" fill="#BCB5B5"/>
<path d="M16.5908 146.742H22.5609C23.8763 146.742 24.9218 147.13 25.6976 147.888C26.4734 148.647 26.8613 149.642 26.8613 150.857C26.8613 151.902 26.5915 152.745 26.0519 153.403C25.5122 154.061 24.8544 154.466 24.0787 154.651L26.9455 159.508H23.8257L21.3129 154.971H19.3228V159.508H16.6077V152.577H22.173C22.7295 152.577 23.2016 152.425 23.5558 152.105C23.9099 151.801 24.0956 151.379 24.0956 150.857C24.0956 150.334 23.9099 149.912 23.5558 149.609C23.2016 149.305 22.7464 149.136 22.173 149.136H16.6077V146.742H16.5908Z" fill="#BCB5B5"/>
<path d="M36.373 159.728C34.4504 159.728 32.8482 159.104 31.6002 157.856C30.3354 156.608 29.7114 155.039 29.7114 153.117C29.7114 151.211 30.3354 149.626 31.6002 148.378C32.8482 147.13 34.4504 146.506 36.373 146.506C38.3124 146.506 39.9144 147.13 41.1624 148.361C42.4103 149.592 43.0512 151.177 43.0512 153.1C43.0512 155.022 42.4272 156.608 41.1624 157.839C39.8975 159.104 38.3124 159.728 36.373 159.728ZM33.5565 156.135C34.2648 156.928 35.1924 157.316 36.3561 157.316C37.5197 157.316 38.4471 156.928 39.1723 156.135C39.8806 155.343 40.2516 154.348 40.2516 153.134C40.2516 151.919 39.8975 150.924 39.1723 150.132C38.464 149.339 37.5197 148.951 36.3561 148.951C35.1924 148.951 34.2648 149.339 33.5565 150.132C32.8482 150.924 32.4941 151.919 32.4941 153.134C32.4941 154.348 32.8482 155.343 33.5565 156.135Z" fill="#BCB5B5"/>
<path d="M56.442 158.294C55.4638 159.255 54.0305 159.728 52.1417 159.728C50.2529 159.728 48.8193 159.255 47.8412 158.277C46.8631 157.316 46.374 156.017 46.374 154.398V146.725H49.1229V154.297C49.1229 155.208 49.3758 155.95 49.9155 156.49C50.4383 157.029 51.1804 157.299 52.1417 157.299C53.103 157.299 53.828 157.029 54.3508 156.49C54.8736 155.95 55.1267 155.225 55.1267 154.297V146.725H57.8923V154.381C57.9091 156.034 57.4201 157.333 56.442 158.294Z" fill="#BCB5B5"/>
<path d="M64.5706 159.508H61.8555V146.742H67.8253C69.1576 146.742 70.22 147.13 70.9789 147.922C71.7378 148.715 72.1089 149.693 72.1089 150.857C72.1089 152.02 71.7209 152.998 70.962 153.791C70.2031 154.584 69.1576 154.971 67.8253 154.971H64.5706V159.508ZM67.4543 152.577C68.0109 152.577 68.4494 152.425 68.8036 152.105C69.1577 151.801 69.3263 151.379 69.3263 150.857C69.3263 150.334 69.1577 149.912 68.8036 149.609C68.4494 149.305 68.0109 149.136 67.4543 149.136H64.5706V152.577H67.4543Z" fill="#BCB5B5"/>
</svg>
