<svg width="374" height="121" viewBox="0 0 374 121" fill="none" xmlns="http://www.w3.org/2000/svg">
<path d="M82.4107 40.3945H73.4727V53.4137H82.4107C85.6824 53.4137 88.3807 50.5131 88.3807 46.8704C88.3807 43.2277 85.6824 40.3945 82.4107 40.3945Z" fill="#BCB5B5"/>
<path d="M316.302 35.9766H315.645V37.4105H316.302C316.859 37.4105 317.197 37.1069 317.197 36.702C317.197 36.196 316.859 35.9766 316.302 35.9766Z" fill="#BCB5B5"/>
<path d="M116.879 51.2886C112.545 51.2886 109.577 53.6159 108.633 57.6465H124.671C123.676 53.11 120.269 51.2886 116.879 51.2886Z" fill="#BCB5B5"/>
<path d="M206.078 51.7275C201.103 51.7275 197.393 55.3197 197.393 60.5982C197.393 65.8767 201.103 69.4688 206.078 69.4688C211.103 69.4688 214.813 65.8767 214.813 60.5982C214.813 55.3028 211.103 51.7275 206.078 51.7275Z" fill="#BCB5B5"/>
<path d="M316.25 31.2378C312.692 31.2378 309.825 34.1385 309.825 37.7137C309.825 41.289 312.692 44.1897 316.25 44.1897C319.792 44.1897 322.642 41.289 322.642 37.7137C322.642 34.1385 319.792 31.2378 316.25 31.2378ZM317.448 41.3733L316.402 39.1978H315.643V41.3733H313.535V34.0711H316.47C318.038 34.0711 319.286 35.0323 319.286 36.4995C319.286 37.4607 318.864 38.2197 318.207 38.6919L319.708 41.3733H317.448Z" fill="#BCB5B5"/>
<path d="M0.550781 0.831055L13.6712 85.1358L186.952 120.349L360.233 85.1021L373.354 0.831055H0.550781ZM88.9536 76.3158L80.0829 61.0367H73.4721V76.3158H64.787V32.283H82.3933C90.5051 32.283 97.0484 38.8264 97.0484 46.8706C97.0484 52.4021 93.5913 57.3771 88.5657 59.7044L98.3133 76.3158H88.9536ZM132.48 63.9205H108.769C109.899 68.0691 113.356 69.8399 117.64 69.8399C120.777 69.8399 123.306 68.5245 124.689 66.7031L131.232 70.4807C128.281 74.7642 123.559 77.2096 117.522 77.2096C106.948 77.2096 100.286 69.9748 100.286 60.5982C100.286 51.2217 107.015 43.9868 116.898 43.9868C126.207 43.9868 132.818 51.3397 132.818 60.5982C132.784 61.7956 132.666 62.858 132.48 63.9205ZM184.557 76.3158H176.446V57.512C176.446 53.8019 174.557 51.5421 171.167 51.5421C167.575 51.5421 165.315 53.9368 165.315 58.6419V76.3158H157.204V57.512C157.204 53.8019 155.315 51.5421 151.925 51.5421C148.468 51.5421 146.006 53.9368 146.006 58.6419V76.3158H137.894V44.8638H146.006V48.2029C147.759 45.5552 150.728 43.9868 154.741 43.9868C158.637 43.9868 161.538 45.6227 163.292 48.5233C165.248 45.6901 168.385 43.9868 172.668 43.9868C179.835 43.9868 184.557 49.0799 184.557 56.9387V76.3158ZM222.924 76.3158H214.812V72.6056C212.552 75.4388 209.146 77.1927 204.559 77.1927C196.194 77.1927 189.279 69.9579 189.279 60.5814C189.279 51.2048 196.194 43.97 204.559 43.97C209.146 43.97 212.552 45.7239 214.812 48.5571V44.8469H222.924V76.3158ZM237.764 76.3158H229.653V30.5629H237.764V76.3158ZM273.5 76.3158H265.388V72.7911C263.499 75.6243 260.228 77.1927 256.012 77.1927C249.35 77.1927 244.122 72.5382 244.122 64.1735V44.8638H252.234V63.1616C252.234 67.4452 254.814 69.6375 258.457 69.6375C262.42 69.6375 265.371 67.3102 265.371 61.8462V44.8638H273.483V76.3158H273.5ZM299.724 76.3158L292.928 66.7537L286.064 76.3158H276.687L288.206 60.2778L277.193 44.8638H286.57L292.928 53.7344L299.285 44.8638H308.595L297.582 60.2104L309.101 76.3158H299.724ZM316.251 44.8638C312.305 44.8638 309.101 41.6596 309.101 37.7133C309.101 33.7671 312.305 30.5629 316.251 30.5629C320.197 30.5629 323.401 33.7671 323.401 37.7133C323.401 41.6596 320.197 44.8638 316.251 44.8638Z" fill="#BCB5B5"/>
</svg>
