<svg width="331" height="121" viewBox="0 0 331 121" fill="none" xmlns="http://www.w3.org/2000/svg">
<path d="M222.384 52.4235C222.384 58.2417 220.327 62.8287 216.263 66.0836C208.944 71.9355 196.886 72.003 191.017 70.6707L190.174 70.4852L190.19 71.3453C190.19 71.4802 190.764 85.2752 204.323 85.7305C208.387 85.8655 212.401 84.6175 216.6 81.9023C216.937 81.6831 217.274 81.4639 217.595 81.2278C218.269 80.7556 219.281 80.7219 220.074 81.1435C220.529 81.3796 221.288 81.9698 221.288 83.2515C221.288 83.5382 221.254 83.8417 221.17 84.1453C220.377 87.4676 217.915 89.7611 217.173 90.3851C212.401 94.4663 206.532 96.49 199.179 96.6249C192.906 96.7261 186.767 94.9216 182.315 91.6668C175.333 86.5569 171.758 77.8549 171.64 65.78V65.2236C171.64 44.666 182.483 32.3887 200.646 32.3887C213.531 32.3887 222.266 40.3655 222.368 52.238L222.384 52.4235ZM189.887 61.8001C189.904 62.9468 193.53 63.0143 194.643 62.9975C198.15 62.9806 206.33 61.8338 206.33 51.7658V51.1756C206.33 45.1719 203.867 41.7315 199.601 41.7315C193.53 41.7315 189.904 48.9326 189.904 60.9737L189.887 61.8001Z" fill="#BCB5B5"/>
<path d="M109.056 101.448C109.056 101.634 109.04 101.836 109.023 102.022C109.006 102.19 106.83 118.532 87.4533 120.269C72.9837 121.551 62.0893 112.95 53.3536 106.035C51.6503 104.686 50.0314 103.405 48.4798 102.275C48.0414 101.954 47.4342 101.516 47.0126 102.089C37.6529 112.646 26.7754 114.501 19.3045 114.198C12.0191 113.894 7.58383 110.96 5.1385 108.565C2.18724 105.648 0.433348 101.836 0.230976 97.8394C0.214111 97.4178 0.197266 96.9962 0.197266 96.5915C0.197266 93.8932 0.686321 91.5491 1.71504 89.2556C3.08106 86.2368 5.39145 83.6059 8.59567 81.481C11.7662 79.373 15.5269 78.0745 20.1309 77.5011C28.4281 76.4555 35.7641 78.5804 38.1926 79.2718C39.137 79.5416 39.2887 79.5923 39.5754 79.4236L39.8284 79.2887L39.8959 79.002C42.0208 70.5867 42.0883 61.48 42.1557 52.66C42.2569 39.2359 42.3412 26.5371 48.9857 15.7777C54.9894 6.0301 66.0356 0.346752 77.79 0.953868C84.8056 1.30802 88.9373 3.36547 90.7755 4.54598C91.6188 5.08564 92.3608 5.67587 92.8836 6.21553C93.204 6.55282 93.2209 6.68777 93.2377 6.89014C93.2377 6.9576 93.2209 7.34548 92.8836 7.41293C92.5126 7.49725 91.9392 7.32867 91.7368 7.26121L90.4214 6.89014C80.151 3.78711 69.1217 9.14999 64.7707 19.3529C61.8026 26.3179 61.634 36.6557 61.4653 47.6007C61.263 60.2995 61.0437 74.6848 56.3892 86.5067L56.2374 86.8945L56.5241 87.1981C56.5578 87.2318 56.659 87.333 56.8445 87.4679C59.5428 89.3399 61.9544 91.1106 64.2817 92.8308C72.7813 99.0875 78.9199 103.607 87.2171 104.029C95.565 104.45 100.051 101.735 103.036 99.3066C103.053 99.2898 103.306 99.0874 103.812 98.6827C103.997 98.5477 105.633 97.3335 107.471 98.3622C108.517 98.9694 109.056 100.015 109.056 101.448ZM10.2484 97.1986C10.2484 97.3841 10.2484 97.5696 10.2653 97.7551C10.4339 99.9981 11.9348 101.988 14.3633 103.219C17.2808 104.703 20.6537 104.535 21.6149 104.45C30.064 103.658 33.9765 96.777 35.275 94.5172L35.5786 93.9607L35.0558 93.6234C34.786 93.4379 28.1752 89.188 21.4294 89.188C17.0279 89.188 14.4814 90.4867 13.1153 91.5828C12.036 92.4429 10.2484 94.2979 10.2484 97.1986Z" fill="#BCB5B5"/>
<path d="M99.0216 22.0337C99.0216 27.9363 94.4177 32.5572 88.5489 32.5572C82.6801 32.5572 78.0762 27.9869 78.0762 22.1349C78.0762 16.2324 82.6801 11.5947 88.5489 11.5947C94.4177 11.5947 99.0216 16.1818 99.0216 22.0337Z" fill="#BCB5B5"/>
<path d="M77.418 22.1517C77.418 28.3072 82.3424 33.2316 88.5653 33.2316C94.7883 33.2316 99.7126 28.3072 99.7126 22.0337C99.7126 15.8445 94.7883 10.937 88.5653 10.937C82.3424 10.937 77.418 15.8445 77.418 22.1517Z" fill="#BCB5B5"/>
<path d="M97.4704 87.1134C97.4704 92.0378 93.4736 96.0346 88.5492 96.0346C83.6248 96.0346 79.6279 92.0378 79.6279 87.1134V46.892C79.6279 41.9676 83.6248 37.9707 88.5492 37.9707C93.4736 37.9707 97.4704 41.9676 97.4704 46.892V87.1134Z" fill="#BCB5B5"/>
<path d="M88.5499 37.313C83.2545 37.313 78.9541 41.6134 78.9541 46.9088V87.1303C78.9541 92.4425 83.2545 96.7261 88.5499 96.7261C93.8453 96.7261 98.1457 92.4425 98.1457 87.1303V46.9088C98.1457 41.5965 93.8622 37.313 88.5499 37.313Z" fill="#BCB5B5"/>
<path d="M270.209 41.3271C270.209 44.8012 268.388 47.9042 265.555 49.2534C263.767 50.1809 262.3 50.1472 260.63 50.0966C259.484 50.0629 258.185 50.0291 256.634 50.299C250.849 51.3277 247.459 55.4426 247.375 61.5981L247.51 87.4174C247.51 92.3418 243.496 96.3554 238.572 96.3554C233.647 96.3554 229.634 92.3418 229.634 87.4174V41.2091C229.634 40.3659 229.752 39.5396 229.971 38.7301C231.034 34.8681 234.491 32.271 238.572 32.271C243.581 32.271 247.51 36.2004 247.51 41.2091L247.476 47.2803C247.476 47.9043 247.898 48.3428 248.438 48.3596C248.927 48.3765 249.348 48.0223 249.466 47.4995C249.534 47.196 249.652 46.69 249.685 46.5383C250.546 43.5533 252.114 40.2816 253.986 37.5664C255.031 36.0486 257.915 32.524 261.912 32.5409C263.16 32.5409 264.509 32.8613 265.622 33.4346C268.422 34.8512 270.209 37.9543 270.209 41.3271Z" fill="#BCB5B5"/>
<path d="M265.944 32.8441C264.764 32.237 263.331 31.8829 261.931 31.8829C257.479 31.866 254.376 35.846 253.448 37.1952C251.424 40.1127 249.873 43.4518 249.046 46.3525C248.996 46.5043 248.878 47.0439 248.81 47.3474C248.76 47.6004 248.591 47.7016 248.456 47.6847C248.169 47.6847 248.136 47.398 248.136 47.28V46.3187L248.169 41.7316V41.2088C248.169 35.8965 244.071 31.5962 238.557 31.5962C234.02 31.5962 230.428 34.5306 229.315 38.5443C229.079 39.3875 228.961 40.2812 228.961 41.2088V87.4171C228.961 92.7125 233.261 97.0298 238.574 97.0298C243.886 97.0298 248.186 92.7293 248.186 87.4171L248.051 61.6147C248.136 55.8302 251.256 51.9514 256.753 50.9564C260.447 50.2987 262.639 51.513 265.843 49.8434C268.828 48.4099 270.869 45.0707 270.869 41.31C270.886 37.5998 268.896 34.3282 265.944 32.8441Z" fill="#BCB5B5"/>
<path d="M326.841 64.5657C326.757 83.6898 315.39 96.5404 298.56 96.5572C281.678 96.5404 270.312 83.6729 270.228 64.5657V64.3464C270.228 45.1885 281.594 32.3042 298.509 32.3042C306.941 32.3042 314.041 35.3061 319.083 40.9894C324.16 46.7064 326.841 54.7844 326.841 64.3633V64.5657ZM288.728 64.7174C288.728 78.4112 292.387 86.5905 298.492 86.5905C304.648 86.5905 308.341 78.4112 308.341 64.7174C308.341 50.5851 304.799 42.4902 298.644 42.4902C292.252 42.4902 288.728 50.3827 288.728 64.7174Z" fill="#BCB5B5"/>
<path d="M164.909 62.3229C164.909 83.1166 151.097 96.5575 129.73 96.5575C125.514 96.5575 121.821 96.0853 118.751 95.1409C114.012 93.7075 108.953 89.7612 108.953 82.9817V18.2396C108.953 13.3152 112.95 9.31836 117.874 9.31836C122.799 9.31836 126.796 13.3152 126.796 18.2396V41.0402L127.959 39.7753C129.578 38.0214 135.396 32.2876 142.817 32.2876C146.527 32.2876 164.909 33.7379 164.909 62.3229ZM126.374 66.4547C126.374 74.8869 126.694 80.334 128.364 83.2684C129.814 85.8149 132.108 86.9954 135.16 86.7593C137.133 86.6075 139.95 85.6632 142.243 82.0542C144.705 78.1754 146.021 72.3572 146.021 65.2573C146.021 57.4154 145.127 52.5248 143.137 49.3711C141.333 46.5042 138.533 45.2226 135.042 45.6273C134.233 45.7285 130.118 46.4367 128.145 51.243C126.931 54.1774 126.374 58.714 126.374 65.5441V66.4547Z" fill="#BCB5B5"/>
<path d="M325.543 32.6754C328.511 32.6754 330.905 30.2807 330.905 27.3126C330.905 24.3444 328.511 21.9497 325.543 21.9497C322.574 21.9497 320.18 24.3444 320.18 27.3126C320.197 30.2807 322.591 32.6754 325.543 32.6754ZM325.543 22.6749C328.072 22.6749 330.13 24.7661 330.13 27.3294C330.13 29.8759 328.072 31.9671 325.543 31.9671C323.013 31.9671 320.972 29.8759 320.972 27.3294C320.972 24.7661 323.03 22.6749 325.543 22.6749Z" fill="#BCB5B5"/>
<path d="M324.565 27.8688H325.493L326.91 30.3816H327.905L326.42 27.7507C327.179 27.5146 327.736 26.9581 327.736 26.0474C327.736 25.0018 326.859 24.1924 325.797 24.1924H323.688V30.3647H324.549V27.8688H324.565ZM324.565 24.985H325.712C326.404 24.985 326.876 25.4572 326.876 26.0812C326.876 26.7052 326.404 27.1605 325.712 27.1605H324.565V24.985Z" fill="#BCB5B5"/>
</svg>
