<svg width="175" height="121" viewBox="0 0 175 121" fill="none" xmlns="http://www.w3.org/2000/svg">
<path d="M148.893 96.5775V99.8829C148.893 102.446 150.765 104.065 153.918 104.234C154.171 104.251 154.407 104.251 154.643 104.251H174.408V101.131H164.931V98.7361H174.408V95.6162H149.837C149.314 95.6331 148.893 96.0547 148.893 96.5775ZM161.811 98.753V101.148H153.766C152.822 101.148 151.996 100.928 151.996 99.8829V98.753H161.811Z" fill="#BCB5B5"/>
<path d="M156.77 77.8245L160.244 80.2192H149.147V83.3391H174.663V80.2192H165.168L161.745 77.8245H174.663V74.7046H149.147V77.8245H156.77Z" fill="#BCB5B5"/>
<path d="M156.619 66.7782L160.566 66.8288L160.11 68.0768L160.093 69.291L164.36 72.4109H174.512V69.291H165.018L161.594 66.8963H174.512V63.7764H153.229L156.619 66.7782Z" fill="#BCB5B5"/>
<path d="M149.922 63.7422C149.4 63.7422 148.978 64.1638 148.978 64.6866V72.343H154.897C156.871 72.343 158.827 71.6684 160.378 70.4542L164.982 66.8621H174.494V63.759L149.922 63.7422ZM160.328 66.8621L158.86 68.0089C157.849 68.8015 156.601 69.2399 155.319 69.2399H152.064V66.8621H160.328Z" fill="#BCB5B5"/>
<path d="M161.629 90.3882L163.18 89.1065C163.45 88.786 164.243 87.9934 165.575 87.9934H169.572V84.8735H165.356C163.585 84.8735 161.932 85.6662 160.785 87.0322L160.701 87.1333L160.229 86.7623C158.677 85.5481 156.721 84.8735 154.748 84.8735H154.124V87.9934H155.17C156.451 87.9934 157.699 88.4319 158.711 89.2077L160.178 90.3544H161.629V90.3882Z" fill="#BCB5B5"/>
<path d="M153.429 90.6243C152.839 90.5905 151.827 90.3713 151.827 89.3088C151.827 88.2464 152.822 88.0271 153.413 87.9934C153.463 87.9934 154.205 87.9934 155.352 87.9934V84.8735H154.424H154.357H154.256C150.731 84.8735 148.623 86.5262 148.623 89.292C148.623 91.8722 150.529 93.5249 153.699 93.6936C153.969 93.7104 154.205 93.7104 154.424 93.7104H156.043V90.6074C154.542 90.6243 153.497 90.6243 153.429 90.6243Z" fill="#BCB5B5"/>
<path d="M166.668 87.9929C168.641 87.9929 170.074 87.9929 170.192 87.9929C170.783 88.0266 171.778 88.2459 171.778 89.3083C171.778 90.3708 170.783 90.59 170.192 90.6237C170.125 90.6237 168.506 90.6237 166.313 90.6237V93.7437H169.164H169.231H169.349C172.874 93.7437 174.982 92.091 174.982 89.3252C174.982 86.745 173.076 85.0923 169.906 84.9236C169.653 84.9068 169.4 84.9067 169.164 84.9067H166.668V87.9929Z" fill="#BCB5B5"/>
<path d="M43.2229 89.7816H33.3573C34.4198 83.7104 40.9294 80.9953 43.8637 69.3083C47.7594 53.8437 40.1198 43.9106 34.757 39.1043C34.7401 39.0874 35.2292 56.2385 29.7989 66.61C31.3504 60.3365 32.2442 52.9162 32.2442 44.9731C32.2442 22.4255 25.0432 4.14453 16.1894 4.14453C7.31879 4.14453 0.117676 22.4255 0.117676 44.9731C0.117676 67.5207 7.30193 85.8016 16.1894 85.8016C21.5523 85.8016 26.2911 79.1233 29.2086 68.8698C30.4229 68.0941 32.4972 68.0435 32.9019 68.0435C36.6121 68.0435 39.5633 72.6643 33.7114 80.4388C30.6252 84.9247 29.6302 87.6735 29.3941 89.7816H18.7191C17.6398 89.7816 17.0158 90.355 17.0158 91.3331V100.103C14.5536 100.254 12.5973 102.312 12.5973 104.808V105.111H44.9262V91.3331C44.9262 90.3381 44.3022 89.7816 43.2229 89.7816ZM19.6128 73.1702C15.8015 73.1702 12.7153 62.0398 12.7153 48.3122C12.7153 34.5846 15.8015 23.4542 19.6128 23.4542C19.7646 23.4542 19.8995 23.4711 20.0513 23.5048C19.1406 20.4692 17.9601 17.636 16.5604 15.1063C25.5322 25.9501 25.9707 38.8007 25.9876 38.7839L25.9707 38.767C26.308 41.7014 26.4935 44.9225 26.4935 48.3122C26.5104 62.0398 23.4242 73.1702 19.6128 73.1702Z" fill="#BCB5B5"/>
<path d="M131.895 47.5865L131.912 40.6384L133.97 38.0076C134.476 38.4292 135.757 39.7277 135.757 41.8695V56.0355H140.783V41.4985C140.783 38.6484 139.501 35.967 137.292 34.1287L137.106 33.977L137.714 33.2181C139.687 30.7053 140.766 27.5517 140.766 24.3643V14.8022H135.74V25.0558C135.74 27.1301 135.032 29.1538 133.767 30.7896L131.912 33.1506V14.8022H126.887V29.9464V47.6034V56.0524H131.895V47.5865Z" fill="#BCB5B5"/>
<path d="M174.831 19.8278V14.8022H164.544C163.701 14.8022 163.026 15.4768 163.026 16.32V54.5177C163.026 55.361 163.701 56.0355 164.544 56.0355H174.831V51.01H168.052V32.8808H174.528V27.8552H168.035V19.8447H174.831V19.8278Z" fill="#BCB5B5"/>
<path d="M120.529 76.2055L116.667 81.8045V63.8608H111.625V105.111H116.667V89.7813L120.529 84.2329V105.111H125.572V63.8608H120.529V76.2055Z" fill="#BCB5B5"/>
<path d="M85.2329 63.8608H79.9038C75.7721 63.8608 73.1413 66.8964 72.8546 71.9895C72.8208 72.4111 72.8208 72.7989 72.8208 73.1531V105.111H77.8464V89.7813H81.7083V105.111H86.7508V65.3955C86.7676 64.5523 86.0761 63.8608 85.2329 63.8608ZM81.7252 84.7389H77.8632V71.7365C77.8632 70.2187 78.2005 68.8864 79.9038 68.8864H81.7421L81.7252 84.7389Z" fill="#BCB5B5"/>
<path d="M136.754 63.54C132.623 63.54 129.992 66.5756 129.705 71.6687C129.671 72.0903 129.671 72.4781 129.671 72.8323V96.1219V96.2231V96.3918C129.671 102.024 132.319 105.397 136.738 105.397C140.869 105.397 143.5 102.362 143.787 97.2687C143.821 96.8471 143.821 96.4761 143.821 96.105V72.8154V72.7142V72.5456C143.804 66.9129 141.173 63.54 136.754 63.54ZM138.829 97.7578C138.778 98.7022 138.441 100.287 136.738 100.287C135.051 100.287 134.697 98.7022 134.646 97.7578C134.646 97.3868 134.63 71.5675 134.63 71.1965C134.68 70.2521 135.017 68.6499 136.721 68.6499C138.407 68.6499 138.761 70.252 138.812 71.1796C138.829 71.618 138.846 97.0663 138.829 97.7578Z" fill="#BCB5B5"/>
<path d="M121.087 53.8771C122.352 52.2919 122.992 50.1332 122.992 47.4518V42.8647H118.017V47.5698C118.017 48.8515 117.798 49.8128 117.377 50.4199C116.972 50.9933 116.449 51.28 115.791 51.28C115.1 51.28 114.594 51.0271 114.206 50.4874C113.801 49.914 113.616 49.0202 113.616 47.7048V23.0323C113.616 21.7 113.801 20.823 114.206 20.2496C114.594 19.71 115.1 19.457 115.791 19.457C116.449 19.457 116.972 19.7437 117.377 20.3171C117.798 20.9242 118.017 21.8855 118.017 23.1672V27.8723H122.992V23.2852C122.992 20.6207 122.352 18.462 121.087 16.8768C119.771 15.2241 117.984 14.3809 115.791 14.3809C113.599 14.3809 111.828 15.2241 110.496 16.8768C109.231 18.462 108.59 20.6206 108.59 23.3021V47.5024C108.59 50.167 109.231 52.3425 110.496 53.9277C111.811 55.5804 113.599 56.4236 115.791 56.4236C117.984 56.373 119.771 55.5298 121.087 53.8771Z" fill="#BCB5B5"/>
<path d="M151.78 14.3472C147.597 14.3472 144.933 17.4165 144.663 22.5601C144.629 22.9817 144.629 23.3696 144.629 23.7406V47.5362V47.6374V47.806C144.629 53.5061 147.294 56.9127 151.78 56.9127C155.962 56.9127 158.627 53.8434 158.897 48.6998C158.93 48.2782 158.93 47.8903 158.93 47.5193V23.7237V23.6057V23.437C158.93 17.7538 156.266 14.3472 151.78 14.3472ZM153.905 49.1889C153.854 50.1501 153.5 51.7523 151.797 51.7523C150.077 51.7523 149.739 50.1333 149.689 49.1889C149.689 48.801 149.672 22.4589 149.672 22.0879C149.722 21.1266 150.077 19.5076 151.78 19.5076C153.5 19.5076 153.837 21.1266 153.888 22.0879C153.905 22.5264 153.905 48.4806 153.905 49.1889Z" fill="#BCB5B5"/>
<path d="M98.0488 56.3728C100.241 56.3728 102.012 55.5296 103.344 53.8769C104.609 52.2916 105.25 50.133 105.25 47.4516V42.8645H100.275V47.5696C100.275 48.8513 100.056 49.8126 99.634 50.4197C99.2293 50.9931 98.7065 51.2798 98.0488 51.2798C97.3573 51.2798 96.8514 51.0268 96.4635 50.4703C96.0588 49.8969 95.8733 49.0031 95.8733 47.6877V23.0152C95.8733 21.6829 96.0588 20.8059 96.4635 20.2325C96.8514 19.6929 97.3573 19.4399 98.0488 19.4399C98.7065 19.4399 99.2293 19.7266 99.634 20.3C100.056 20.9071 100.275 21.8684 100.275 23.1501V27.8552H105.25V23.2681C105.25 20.6036 104.609 18.4449 103.344 16.8597C102.029 15.207 100.241 14.3638 98.0488 14.3638C95.8564 14.3638 94.0856 15.207 92.7533 16.8597C91.4885 18.4449 90.8477 20.6036 90.8477 23.285V47.4853C90.8477 50.1499 91.4885 52.3254 92.7533 53.9106C94.0856 55.5296 95.8564 56.3728 98.0488 56.3728Z" fill="#BCB5B5"/>
<path d="M55.752 16.3034V56.0189H60.7775V40.6386L66.5957 33.2015C68.5688 30.6887 69.6481 27.5351 69.6481 24.3477V14.7856H57.2698C56.4266 14.7856 55.752 15.4771 55.752 16.3034ZM60.7775 19.7943H64.6057V25.0391C64.6057 27.1134 63.8975 29.1372 62.6326 30.773L60.7775 33.134V19.7943Z" fill="#BCB5B5"/>
<path d="M55.752 65.3786V105.094H60.7775V89.7139L66.5957 82.2767C68.5688 79.7639 69.6481 76.6103 69.6481 73.4229V63.8608H57.2698C56.4266 63.8608 55.752 64.5523 55.752 65.3786ZM60.7775 68.8695H64.6057V74.1144C64.6057 76.1887 63.8975 78.2124 62.6326 79.8482L60.7775 82.2092V68.8695Z" fill="#BCB5B5"/>
<path d="M106.43 100.035V67.7228V65.3786C106.43 64.5354 105.755 63.8608 104.912 63.8608H99.583C95.4512 63.8608 92.8204 66.8964 92.5337 71.9895C92.5 72.4111 92.5 72.7821 92.5 73.1531V83.8957C92.5 89.3091 91.5893 98.3821 91.4038 100.035H89.0259V105.094H109.094V100.035H106.43ZM101.387 100.035H96.4293C97.0196 94.7057 97.5087 90.1017 97.5087 83.8957V71.7534C97.5087 70.2356 97.846 68.9033 99.5493 68.9033H101.387V100.035Z" fill="#BCB5B5"/>
<path d="M81.7249 14.7856V33.134L79.8697 30.773C78.6049 29.154 77.8966 27.1134 77.8966 25.0391V14.7856H72.8711V24.3477C72.8711 27.5519 73.9504 30.6887 75.9235 33.2015L82.0453 40.9591V42.8647H77.2895C74.8442 42.8647 72.8711 44.8379 72.8711 47.2832V51.6004C72.8711 54.0458 74.8442 56.0189 77.2895 56.0189H82.3488C84.7942 56.0189 86.7673 54.0458 86.7673 51.6004V47.0977C86.7673 47.0808 86.7673 47.0471 86.7673 47.0302V14.7856H81.7249ZM82.0284 50.656C82.0284 50.9933 81.7586 51.28 81.4044 51.28H78.1833C77.846 51.28 77.5593 51.0102 77.5593 50.656V48.2782C77.5593 47.9409 77.8291 47.6542 78.1833 47.6542H82.0115V50.656H82.0284Z" fill="#BCB5B5"/>
<path d="M38.131 14.7856C35.5677 14.7856 33.4766 16.8768 33.4766 19.4402C33.4766 22.0036 35.5677 24.0947 38.131 24.0947C40.6944 24.0947 42.7856 22.0036 42.7856 19.4402C42.7856 16.8768 40.6944 14.7856 38.131 14.7856ZM41.875 19.4402C41.875 21.4976 40.1885 23.1841 38.131 23.1841C36.0736 23.1841 34.3872 21.4976 34.3872 19.4402C34.3872 17.3827 36.0736 15.6963 38.131 15.6963C40.2053 15.6963 41.875 17.3659 41.875 19.4402Z" fill="#BCB5B5"/>
<path d="M39.1233 19.8278C39.5786 19.6086 39.8822 19.0858 39.8822 18.4956C39.8822 17.8547 39.5787 17.3488 39.039 17.1295C38.8198 17.0284 38.5668 16.9946 38.1115 16.9946H36.4756V21.9021H37.4874V20.1314H38.1958L39.1402 21.9021H40.2869L39.2414 20.0302C39.1908 19.929 39.1402 19.8616 39.1233 19.8278ZM38.8534 18.5293C38.8534 18.9509 38.6005 19.2039 38.1789 19.2039H37.4706V17.8716H38.0271C38.2969 17.8716 38.415 17.9053 38.5162 17.939C38.8029 18.0571 38.8534 18.3269 38.8534 18.5293Z" fill="#BCB5B5"/>
<path d="M55.7557 2.10265C56.0255 2.05205 56.5145 2.00146 56.9867 2.00146C57.6107 2.00146 57.9986 2.08578 58.3022 2.28816C58.5889 2.4568 58.7744 2.76036 58.7744 3.16511C58.7744 3.58672 58.5046 3.97459 57.9986 4.1601V4.17695C58.4877 4.295 58.9262 4.68288 58.9262 5.30686C58.9262 5.7116 58.7406 6.0489 58.4877 6.26814C58.1504 6.55483 57.6108 6.7066 56.7676 6.7066C56.2954 6.7066 55.958 6.67288 55.7388 6.63916V2.10265H55.7557ZM56.582 3.94085H57.0205C57.6107 3.94085 57.9312 3.67102 57.9312 3.28314C57.9312 2.84467 57.6108 2.64229 57.0711 2.64229C56.8182 2.64229 56.6832 2.65916 56.5989 2.67603V3.94085H56.582ZM56.582 6.04889C56.6832 6.06576 56.835 6.06575 57.0205 6.06575C57.5601 6.06575 58.0492 5.86339 58.0492 5.29C58.0492 4.75035 57.577 4.53111 56.9867 4.53111H56.5651V6.04889H56.582Z" fill="#BCB5B5"/>
<path d="M66.7493 6.52163C66.5469 6.62281 66.1084 6.72399 65.5519 6.72399C64.0847 6.72399 63.1909 5.81333 63.1909 4.39673C63.1909 2.87894 64.2533 1.96826 65.6699 1.96826C66.2264 1.96826 66.6144 2.06944 66.783 2.17063L66.5974 2.84521C66.3782 2.74403 66.0747 2.65971 65.6868 2.65971C64.7424 2.65971 64.0678 3.24995 64.0678 4.36299C64.0678 5.37485 64.6581 6.01569 65.6868 6.01569C66.0241 6.01569 66.3782 5.94825 66.5974 5.84706L66.7493 6.52163Z" fill="#BCB5B5"/>
<path d="M73.8137 4.61612H72.0766V5.96527H74.0161V6.65671H71.2334V2.03588H73.9149V2.72732H72.0766V3.9247H73.8137V4.61612ZM71.8911 1.74919C71.655 1.74919 71.4864 1.5637 71.4864 1.34446C71.4864 1.10836 71.6719 0.922852 71.8911 0.922852C72.1104 0.922852 72.2959 1.10836 72.2959 1.34446C72.2959 1.5637 72.1272 1.74919 71.8911 1.74919ZM73.2403 1.74919C73.0042 1.74919 72.8355 1.5637 72.8355 1.34446C72.8355 1.10836 73.0042 0.922852 73.2403 0.922852C73.4595 0.922852 73.645 1.10836 73.645 1.34446C73.645 1.5637 73.4764 1.74919 73.2403 1.74919Z" fill="#BCB5B5"/>
<path d="M87.407 2.03613V2.72758H85.3833V3.72257C85.535 3.7057 85.788 3.68886 85.9567 3.68886C86.412 3.68886 86.8673 3.79003 87.2046 4.04299C87.5419 4.26223 87.7611 4.63325 87.7611 5.15604C87.7611 5.59452 87.6093 5.94867 87.3395 6.18477C86.9347 6.57265 86.2433 6.70756 85.5687 6.70756C85.0965 6.70756 84.7593 6.67384 84.54 6.64011V2.03613H87.407ZM85.3833 6.04985C85.5013 6.06671 85.6531 6.08359 85.8217 6.08359C86.1253 6.08359 86.4288 5.9824 86.6312 5.7969C86.783 5.64512 86.8673 5.44274 86.8673 5.18978C86.8673 4.90309 86.7493 4.7007 86.5638 4.56578C86.3614 4.414 86.0747 4.34656 85.788 4.34656C85.6531 4.34656 85.5013 4.36341 85.3664 4.38027V6.04985H85.3833Z" fill="#BCB5B5"/>
<path d="M92.6353 2.03613L93.4111 3.84063C93.5291 4.14419 93.6303 4.41402 93.7315 4.68384H93.7484C93.8158 4.46461 93.9001 4.17792 94.0013 3.82377L94.6085 2.03613H95.5022L94.5916 4.36342C94.3218 5.03799 94.035 5.72944 93.6977 6.16791C93.3942 6.53893 93.04 6.75815 92.551 6.75815C92.3486 6.75815 92.2137 6.7413 92.1125 6.6907L92.18 6.01611C92.2475 6.03298 92.3486 6.04985 92.4667 6.04985C92.8546 6.04985 93.1075 5.72942 93.2256 5.45959C93.2593 5.37527 93.2424 5.30782 93.2087 5.20663L91.6572 2.03613H92.6353Z" fill="#BCB5B5"/>
<path d="M102.822 2.0359V5.98217L103.26 5.99902L103.226 7.80352H102.585L102.535 6.65673H99.7354L99.6848 7.80352H99.0439L99.0103 5.99902L99.3812 5.98217C99.5667 5.66175 99.7185 5.32446 99.8197 4.95344C99.9715 4.46438 100.022 3.90785 100.022 3.23328V2.01904H102.822V2.0359ZM100.781 3.46938C100.781 4.09336 100.714 4.66674 100.562 5.15581C100.477 5.45937 100.342 5.74607 100.224 5.98217H101.995V2.74422H100.798V3.46938H100.781Z" fill="#BCB5B5"/>
<path d="M110.293 4.61637H108.539V5.96552H110.495V6.65697H107.696V2.03613H110.394V2.72758H108.539V3.92496H110.293V4.61637Z" fill="#BCB5B5"/>
<path d="M115.892 2.74446H114.577V2.03613H118.068V2.74446H116.735V6.65697H115.892V2.74446Z" fill="#BCB5B5"/>
<path d="M131.003 6.65697L130.514 5.74631C130.311 5.39215 130.176 5.13918 130.042 4.86935H130.025C129.924 5.13918 129.789 5.37529 129.603 5.74631L129.148 6.65697H128.187L129.553 4.31283L128.237 2.03613H129.215L129.721 2.99741C129.873 3.28411 129.974 3.52019 130.092 3.77316H130.109C130.227 3.48646 130.328 3.28411 130.48 2.99741L130.969 2.03613H131.93L130.581 4.29597L131.981 6.65697H131.003Z" fill="#BCB5B5"/>
<path d="M138.017 6.74087C136.702 6.74087 135.892 5.74586 135.892 4.37985C135.892 2.96324 136.786 1.96826 138.084 1.96826C139.434 1.96826 140.226 2.99698 140.226 4.3124C140.226 5.84706 139.299 6.74087 138.017 6.74087ZM138.068 6.06628C138.877 6.06628 139.349 5.3074 139.349 4.34614C139.349 3.46919 138.911 2.65971 138.068 2.65971C137.224 2.65971 136.786 3.45231 136.786 4.37985C136.786 5.29052 137.241 6.06628 138.068 6.06628Z" fill="#BCB5B5"/>
<path d="M144.729 2.10265C145.033 2.05205 145.455 2.00146 146.011 2.00146C146.635 2.00146 147.074 2.13638 147.377 2.37248C147.647 2.59172 147.833 2.96273 147.833 3.40121C147.833 3.83968 147.698 4.19382 147.445 4.44679C147.107 4.78407 146.585 4.95272 145.977 4.95272C145.826 4.95272 145.691 4.95271 145.573 4.91899V6.67286H144.729V2.10265ZM145.573 4.24442C145.674 4.27815 145.809 4.27813 145.977 4.27813C146.601 4.27813 146.989 3.95771 146.989 3.43492C146.989 2.92899 146.635 2.65917 146.045 2.65917C145.809 2.65917 145.64 2.67602 145.556 2.69288V4.24442H145.573Z" fill="#BCB5B5"/>
<path d="M154.19 6.74087C152.874 6.74087 152.065 5.74586 152.065 4.37985C152.065 2.96324 152.959 1.96826 154.257 1.96826C155.607 1.96826 156.399 2.99698 156.399 4.3124C156.399 5.84706 155.455 6.74087 154.19 6.74087ZM154.241 6.06628C155.05 6.06628 155.522 5.3074 155.522 4.34614C155.522 3.46919 155.084 2.65971 154.241 2.65971C153.397 2.65971 152.959 3.45231 152.959 4.37985C152.959 5.29052 153.414 6.06628 154.241 6.06628Z" fill="#BCB5B5"/>
<path d="M161.727 2.03613V5.96552H163.026V2.03613H163.852V5.96552H165.151V2.03613H165.994V6.65697H160.901V2.03613H161.727Z" fill="#BCB5B5"/>
<path d="M172.621 6.74087C171.305 6.74087 170.496 5.74586 170.496 4.37985C170.496 2.96324 171.39 1.96826 172.705 1.96826C174.054 1.96826 174.847 2.99698 174.847 4.3124C174.83 5.84706 173.886 6.74087 172.621 6.74087ZM172.672 6.06628C173.481 6.06628 173.953 5.3074 173.953 4.34614C173.953 3.46919 173.515 2.65971 172.672 2.65971C171.828 2.65971 171.39 3.45231 171.39 4.37985C171.39 5.29052 171.845 6.06628 172.672 6.06628Z" fill="#BCB5B5"/>
<path d="M56.1748 113.458H59.7669V114.201H57.018V115.482H58.3335C58.6033 115.482 58.8563 115.516 59.0755 115.6C59.2948 115.685 59.4802 115.786 59.632 115.921C59.7837 116.056 59.9018 116.224 59.9862 116.41C60.0705 116.595 60.1211 116.815 60.1211 117.051C60.1211 117.287 60.0874 117.489 60.003 117.691C59.9187 117.877 59.8006 118.046 59.6489 118.181C59.4971 118.315 59.3115 118.417 59.0923 118.501C58.8731 118.568 58.6202 118.619 58.3504 118.619H56.1748V113.458ZM58.3166 117.86C58.6202 117.86 58.8562 117.793 59.0249 117.641C59.1935 117.489 59.2779 117.287 59.2779 117.017C59.2779 116.764 59.1935 116.562 59.0249 116.41C58.8562 116.258 58.6202 116.191 58.3166 116.191H57.0349V117.877H58.3166V117.86Z" fill="#BCB5B5"/>
<path d="M72.0264 113.458H74.0669C74.1849 113.458 74.2861 113.458 74.3873 113.475C74.4885 113.492 74.6066 113.492 74.7077 113.526C74.9101 113.577 75.1125 113.678 75.3317 113.83C75.5004 113.948 75.6521 114.099 75.7702 114.319C75.8882 114.521 75.9389 114.774 75.9389 115.061C75.9389 115.448 75.7871 115.786 75.5004 116.106C75.1969 116.443 74.7583 116.612 74.1849 116.612H72.8865V118.619H72.0264V113.458ZM74.1513 115.87C74.4717 115.853 74.7078 115.769 74.8596 115.6C75.0113 115.432 75.0957 115.246 75.0957 115.044C75.0957 114.875 75.062 114.723 74.9945 114.605C74.927 114.504 74.8427 114.42 74.7246 114.352C74.5391 114.251 74.3368 114.201 74.1175 114.201H72.8865V115.853H74.1513V115.87Z" fill="#BCB5B5"/>
<path d="M79.1094 113.458H79.9357V118.602H79.1094V113.458Z" fill="#BCB5B5"/>
<path d="M86.8496 118.198V117.456H87.0857C87.1869 117.456 87.2544 117.456 87.3219 117.439C87.3725 117.422 87.423 117.405 87.4736 117.371C87.5073 117.338 87.541 117.304 87.5748 117.253C87.6085 117.203 87.6253 117.152 87.6591 117.085L88.0301 116.191C88.0976 116.039 88.1819 115.887 88.2999 115.769C88.4011 115.651 88.5529 115.567 88.7384 115.533C88.6204 115.483 88.5192 115.398 88.418 115.297C88.3168 115.196 88.2324 115.078 88.1819 114.943L87.8278 114.15C87.794 114.066 87.7603 114.015 87.7266 113.965C87.6929 113.914 87.676 113.881 87.6254 113.864C87.5917 113.83 87.5411 113.813 87.4905 113.813C87.4399 113.813 87.3555 113.796 87.2712 113.796H87.0857V113.054H87.423C87.6085 113.054 87.7771 113.071 87.8952 113.122C88.0132 113.172 88.1313 113.223 88.2156 113.307C88.2999 113.392 88.3843 113.493 88.4349 113.611C88.5023 113.729 88.5698 113.864 88.6203 113.999L88.8902 114.572C88.924 114.656 88.9745 114.741 89.0251 114.825C89.0757 114.909 89.1263 114.977 89.1938 115.044C89.2612 115.112 89.3287 115.162 89.413 115.196C89.4973 115.23 89.5985 115.247 89.6997 115.247H90.0201V113.054H90.8802V115.247H91.2006C91.3187 115.247 91.403 115.23 91.4873 115.196C91.5716 115.162 91.6391 115.112 91.7065 115.044C91.774 114.977 91.8246 114.909 91.8751 114.825C91.9257 114.741 91.9595 114.656 92.0101 114.572L92.2631 113.999C92.3306 113.864 92.398 113.729 92.4486 113.611C92.516 113.493 92.5835 113.392 92.6678 113.307C92.7521 113.223 92.8533 113.155 92.9882 113.122C93.1063 113.071 93.2749 113.054 93.4604 113.054H93.7977V113.796H93.6122C93.5279 113.796 93.4436 113.796 93.393 113.813C93.3424 113.813 93.2918 113.83 93.258 113.864C93.2243 113.897 93.1906 113.931 93.1569 113.965C93.1231 114.015 93.1063 114.066 93.0557 114.15L92.7016 114.943C92.651 115.078 92.5666 115.196 92.4655 115.297C92.3643 115.398 92.2462 115.466 92.145 115.533C92.3305 115.567 92.4655 115.651 92.5835 115.769C92.6847 115.887 92.7858 116.022 92.8533 116.191L93.2244 117.085C93.275 117.22 93.3424 117.321 93.4099 117.371C93.4773 117.422 93.5953 117.456 93.7808 117.456H94.0169V118.198H93.5953C93.3761 118.198 93.2074 118.181 93.0557 118.13C92.9208 118.08 92.7859 117.995 92.6847 117.861C92.6172 117.776 92.5667 117.675 92.4992 117.574C92.4318 117.473 92.398 117.355 92.3474 117.253L92.0101 116.427C91.9595 116.326 91.9089 116.242 91.8415 116.174C91.774 116.107 91.7066 116.073 91.6391 116.039C91.5717 116.005 91.4873 115.989 91.4199 115.972C91.3356 115.955 91.2681 115.955 91.2006 115.955H90.8633V118.198H90.0032V115.955H89.6659C89.5985 115.955 89.531 115.955 89.4467 115.972C89.3624 115.989 89.295 116.005 89.2275 116.039C89.1601 116.073 89.0925 116.124 89.0251 116.174C88.9576 116.242 88.9071 116.326 88.8733 116.427L88.536 117.253C88.4854 117.355 88.4349 117.456 88.3843 117.574C88.3337 117.692 88.2662 117.776 88.1987 117.861C88.0975 117.995 87.9627 118.08 87.8278 118.13C87.6929 118.181 87.5073 118.198 87.2881 118.198H86.8496Z" fill="#BCB5B5"/>
<path d="M98.5569 113.07H99.2652L101.323 118.214H100.429L99.9903 117.067H97.8486L97.4101 118.214H96.4995L98.5569 113.07ZM99.7374 116.359L98.928 114.116H98.9111L98.1015 116.359H99.7374Z" fill="#BCB5B5"/>
<path d="M104.338 113.07H105.198V115.263H105.771C105.889 115.263 105.974 115.246 106.058 115.212C106.142 115.178 106.21 115.128 106.277 115.06C106.345 114.993 106.395 114.925 106.446 114.841C106.497 114.757 106.547 114.672 106.581 114.588L106.851 114.015C106.918 113.88 106.969 113.745 107.036 113.627C107.104 113.509 107.171 113.408 107.255 113.323C107.34 113.239 107.441 113.171 107.576 113.138C107.694 113.087 107.863 113.07 108.048 113.07H108.385V113.812H108.2C108.116 113.812 108.031 113.812 107.981 113.829C107.93 113.829 107.879 113.846 107.846 113.88C107.812 113.914 107.778 113.947 107.745 113.981C107.711 114.032 107.694 114.082 107.66 114.166L107.306 114.959C107.239 115.094 107.171 115.212 107.07 115.313C106.969 115.414 106.851 115.482 106.749 115.549C106.935 115.583 107.087 115.667 107.188 115.785C107.289 115.904 107.39 116.038 107.458 116.19L107.879 117.084C107.913 117.151 107.947 117.202 107.964 117.253C107.997 117.303 108.031 117.337 108.065 117.371C108.099 117.404 108.149 117.421 108.2 117.438C108.25 117.455 108.335 117.455 108.419 117.455H108.655V118.197H108.234C108.014 118.197 107.829 118.163 107.694 118.113C107.542 118.062 107.424 117.961 107.323 117.826C107.255 117.742 107.205 117.657 107.154 117.539C107.104 117.438 107.053 117.337 107.002 117.236L106.631 116.409C106.581 116.308 106.53 116.224 106.463 116.173C106.395 116.106 106.328 116.072 106.26 116.038C106.193 116.005 106.109 115.988 106.041 115.971C105.974 115.954 105.889 115.954 105.822 115.954H105.232V118.197H104.372V113.07H104.338Z" fill="#BCB5B5"/>
<path d="M113.546 118.248C113.326 118.248 113.124 118.231 112.939 118.18C112.753 118.13 112.584 118.062 112.433 117.961C112.129 117.776 111.91 117.573 111.775 117.337L111.657 117.118C111.64 117.084 111.623 117.034 111.606 116.983C111.589 116.932 111.589 116.882 111.573 116.831C111.539 116.629 111.522 116.241 111.522 115.634C111.522 115.33 111.522 115.077 111.539 114.875C111.556 114.672 111.556 114.521 111.589 114.42C111.623 114.217 111.691 114.049 111.775 113.93C111.91 113.694 112.129 113.492 112.433 113.29C112.736 113.104 113.107 113.003 113.546 113.003C114.085 113.003 114.524 113.155 114.878 113.441C115.232 113.745 115.435 114.099 115.536 114.521H114.625C114.558 114.318 114.439 114.133 114.254 113.998C114.068 113.863 113.832 113.796 113.563 113.779C113.36 113.796 113.191 113.829 113.057 113.88C112.905 113.947 112.787 114.049 112.702 114.15C112.601 114.251 112.517 114.403 112.483 114.571C112.45 114.757 112.416 115.111 112.416 115.6C112.416 115.853 112.416 116.072 112.433 116.241C112.449 116.41 112.466 116.544 112.483 116.629C112.517 116.814 112.601 116.949 112.702 117.067C112.787 117.185 112.905 117.27 113.057 117.32C113.191 117.405 113.36 117.438 113.563 117.438C114.035 117.438 114.406 117.202 114.642 116.73H115.553C115.435 117.202 115.198 117.573 114.844 117.826C114.456 118.113 114.035 118.248 113.546 118.248Z" fill="#BCB5B5"/>
<path d="M118.538 113.07H119.398V115.094H120.697C120.967 115.094 121.203 115.128 121.422 115.212C121.641 115.296 121.827 115.398 121.995 115.532C122.147 115.667 122.282 115.836 122.366 116.022C122.451 116.207 122.501 116.426 122.501 116.662C122.501 116.898 122.451 117.101 122.366 117.303C122.282 117.489 122.164 117.657 121.995 117.792C121.827 117.927 121.658 118.028 121.439 118.113C121.22 118.18 120.983 118.231 120.714 118.231H118.555V113.07H118.538ZM120.646 117.472C120.95 117.472 121.186 117.404 121.371 117.253C121.54 117.101 121.624 116.899 121.624 116.646C121.624 116.393 121.54 116.173 121.371 116.022C121.203 115.87 120.967 115.802 120.646 115.802H119.381V117.489H120.646V117.472ZM123.159 113.07H124.019V118.214H123.159V113.07Z" fill="#BCB5B5"/>
<path d="M131.931 113.07H135.523V113.812H132.774V115.094H134.089C134.359 115.094 134.612 115.128 134.831 115.212C135.051 115.296 135.236 115.398 135.388 115.532C135.54 115.667 135.658 115.836 135.742 116.022C135.826 116.207 135.877 116.426 135.877 116.662C135.877 116.898 135.843 117.101 135.759 117.303C135.675 117.489 135.556 117.657 135.405 117.792C135.253 117.927 135.067 118.028 134.848 118.113C134.629 118.18 134.376 118.231 134.106 118.231H131.931V113.07ZM134.072 117.472C134.376 117.472 134.612 117.404 134.781 117.253C134.949 117.101 135.034 116.899 135.034 116.629C135.034 116.376 134.949 116.173 134.781 116.022C134.612 115.87 134.376 115.802 134.072 115.802H132.791V117.489H134.072V117.472Z" fill="#BCB5B5"/>
<path d="M140.985 118.248C140.766 118.248 140.563 118.231 140.378 118.18C140.192 118.13 140.024 118.062 139.872 117.961C139.569 117.776 139.349 117.573 139.214 117.337L139.096 117.118C139.079 117.084 139.063 117.034 139.046 116.983C139.029 116.932 139.029 116.882 139.012 116.831C138.978 116.629 138.961 116.241 138.961 115.634C138.961 115.33 138.961 115.077 138.978 114.875C138.995 114.672 138.995 114.521 139.029 114.42C139.063 114.217 139.13 114.049 139.214 113.93C139.349 113.694 139.569 113.492 139.872 113.29C140.176 113.104 140.547 113.003 140.985 113.003C141.424 113.003 141.795 113.104 142.098 113.29C142.402 113.475 142.604 113.694 142.739 113.93C142.823 114.049 142.891 114.217 142.941 114.42C142.975 114.622 142.992 115.027 142.992 115.617C142.992 116.207 142.975 116.595 142.941 116.814C142.891 117.034 142.823 117.185 142.739 117.303C142.604 117.539 142.385 117.759 142.098 117.927C141.946 118.028 141.778 118.096 141.592 118.147C141.424 118.214 141.221 118.248 140.985 118.248ZM140.985 117.472C141.188 117.472 141.373 117.438 141.508 117.354C141.643 117.286 141.761 117.202 141.845 117.101C141.963 116.983 142.031 116.848 142.081 116.662C142.115 116.494 142.132 116.157 142.132 115.634C142.132 115.381 142.132 115.162 142.115 114.993C142.115 114.824 142.098 114.689 142.064 114.605C142.031 114.436 141.946 114.285 141.828 114.183C141.744 114.082 141.626 113.981 141.491 113.914C141.339 113.846 141.154 113.812 140.968 113.812C140.766 113.829 140.597 113.863 140.462 113.914C140.31 113.981 140.193 114.082 140.108 114.183C140.007 114.285 139.923 114.436 139.889 114.605C139.855 114.791 139.822 115.145 139.822 115.634C139.822 115.887 139.821 116.106 139.838 116.275C139.855 116.443 139.872 116.578 139.889 116.662C139.923 116.848 140.007 116.983 140.108 117.101C140.193 117.219 140.31 117.303 140.462 117.354C140.614 117.421 140.783 117.472 140.985 117.472Z" fill="#BCB5B5"/>
<path d="M145.909 117.472H146.044C146.162 117.472 146.28 117.455 146.381 117.438C146.482 117.404 146.584 117.354 146.668 117.253C146.752 117.151 146.837 117.017 146.887 116.814C146.955 116.629 147.005 116.359 147.056 116.038C147.106 115.718 147.14 115.313 147.157 114.824C147.174 114.335 147.191 113.762 147.191 113.07H150.445V118.214H149.585V113.812H148C148 114.453 147.983 115.01 147.949 115.465C147.916 115.937 147.865 116.325 147.815 116.646C147.747 116.966 147.663 117.236 147.579 117.438C147.477 117.641 147.359 117.792 147.224 117.91C147.089 118.028 146.938 118.096 146.752 118.146C146.584 118.18 146.381 118.214 146.179 118.214H145.892V117.472H145.909Z" fill="#BCB5B5"/>
<path d="M155.523 113.07H156.231L158.289 118.214H157.395L156.956 117.067H154.814L154.376 118.214H153.465L155.523 113.07ZM156.703 116.359L155.894 114.116H155.877L155.067 116.359H156.703Z" fill="#BCB5B5"/>
<path d="M160.751 117.472H161.257C161.375 117.253 161.476 117.033 161.56 116.797C161.645 116.561 161.712 116.275 161.779 115.954C161.83 115.617 161.881 115.229 161.914 114.757C161.948 114.285 161.948 113.728 161.948 113.07H165.169V117.472H165.827V119.361H165.017V118.197H161.543V119.361H160.734V117.472H160.751ZM164.326 117.472V113.812H162.775C162.775 114.335 162.758 114.79 162.741 115.161C162.724 115.532 162.673 115.87 162.623 116.156C162.572 116.443 162.505 116.679 162.437 116.898C162.37 117.101 162.285 117.303 162.184 117.489H164.326V117.472Z" fill="#BCB5B5"/>
<path d="M168.898 113.07H169.759V115.094H171.057C171.327 115.094 171.563 115.128 171.782 115.212C172.001 115.296 172.187 115.398 172.356 115.532C172.507 115.667 172.642 115.836 172.727 116.022C172.811 116.207 172.862 116.426 172.862 116.662C172.862 116.898 172.811 117.101 172.727 117.303C172.642 117.489 172.524 117.657 172.356 117.792C172.187 117.927 172.018 118.028 171.799 118.113C171.58 118.18 171.344 118.231 171.074 118.231H168.915V113.07H168.898ZM171.023 117.472C171.327 117.472 171.563 117.404 171.749 117.253C171.917 117.101 172.001 116.899 172.001 116.646C172.001 116.393 171.917 116.173 171.749 116.022C171.58 115.87 171.344 115.802 171.023 115.802H169.759V117.489H171.023V117.472ZM173.536 113.07H174.396V118.214H173.536V113.07Z" fill="#BCB5B5"/>
<path d="M66.9171 115.819C66.9171 115.432 66.7991 115.128 66.563 114.926C66.3438 114.723 66.0402 114.605 65.6861 114.605C65.2645 114.605 64.8766 114.757 64.5562 115.077L63.7973 114.47C64.3369 113.948 64.944 113.678 65.6692 113.695C65.939 113.695 66.2089 113.728 66.4619 113.813C66.5968 113.846 66.7148 113.914 66.8328 113.981C66.9677 114.049 67.0858 114.116 67.2039 114.201C67.4231 114.386 67.5918 114.639 67.7267 114.959C67.8785 115.28 67.9458 115.685 67.9458 116.174C67.9458 116.663 67.8784 117.051 67.7435 117.371C67.6085 117.691 67.4399 117.944 67.2375 118.147C67.0352 118.332 66.7991 118.467 66.5462 118.552C66.2932 118.636 66.0402 118.67 65.8041 118.67C65.2139 118.653 64.7079 118.467 64.3032 118.113C63.8816 117.742 63.6792 117.236 63.6792 116.595V115.786L66.9171 115.819ZM64.7248 116.629C64.7416 117.017 64.8428 117.304 65.0452 117.489C65.2476 117.675 65.5006 117.776 65.821 117.776C66.1414 117.776 66.3943 117.691 66.5967 117.506C66.7991 117.304 66.9003 117.017 66.934 116.646L64.7248 116.629Z" fill="#BCB5B5"/>
<path d="M108.723 120.441H107.627V117.675H108.723V120.441Z" fill="#BCB5B5"/>
</svg>
