<svg width="452" height="120" viewBox="0 0 452 120" fill="none" xmlns="http://www.w3.org/2000/svg">
<path d="M161.893 64.5198H156.244V81.1818C157.913 81.4685 160.999 81.7214 163.175 81.7214C169.128 81.7214 173.277 78.787 173.277 72.9014C173.294 66.7122 168.841 64.5198 161.893 64.5198ZM162.736 42.5793C160.696 42.5793 157.694 42.8829 156.261 43.1864V58.3475H162.146C168.167 58.3475 171.641 55.2613 171.641 50.3538C171.641 45.0752 167.577 42.5793 162.736 42.5793ZM163.259 88.1973C158.217 88.1973 152.483 87.6745 149.076 86.5446V37.5369C152.466 36.778 159.33 36.1709 162.871 36.1709C171.691 36.1709 179.095 40.1002 179.095 49.5105C179.095 54.6373 176.144 58.6342 171.624 60.4555V60.8265C177.189 62.26 180.899 66.5604 180.899 72.9688C180.916 82.3117 173.968 88.1973 163.259 88.1973Z" fill="#BCB5B5"/>
<path d="M188.134 87.3711V47.858V87.3711ZM188.134 47.858H195.066V87.3711H188.134V47.858ZM191.608 40.6232C189.113 40.6232 187.308 38.8019 187.308 36.171C187.308 33.6751 189.197 31.8706 191.676 31.8706C194.088 31.8706 195.892 33.692 195.892 36.171C195.909 38.8019 194.02 40.6232 191.608 40.6232Z" fill="#BCB5B5"/>
<path d="M220.43 53.5918C213.955 53.5918 209.199 58.5668 209.199 67.5386C209.199 76.0551 213.432 81.5697 220.363 81.5697C227.227 81.5697 231.746 76.2237 231.746 67.5386C231.746 58.9378 227.463 53.5918 220.43 53.5918ZM220.43 88.1974C208.592 88.1974 201.728 79.5966 201.728 67.5386C201.728 56.0034 209.418 46.9473 220.498 46.9473C232.05 46.9473 239.2 55.0927 239.2 67.5386C239.217 79.3774 231.291 88.1974 220.43 88.1974Z" fill="#BCB5B5"/>
<path d="M270.447 87.3706V63.2377C270.447 56.374 267.277 53.7262 262.15 53.7262C258.457 53.7262 255.202 55.6151 253.262 58.3977V87.3537H246.247V59.0723C246.247 55.75 245.724 51.2303 244.813 48.6669L251.391 47.0817C251.846 48.2116 252.436 50.8425 252.52 51.9724C255.843 48.2791 259.991 46.9131 263.752 46.9131C270.312 46.9131 277.48 49.78 277.48 62.2259V87.3369H270.447V87.3706Z" fill="#BCB5B5"/>
<path d="M302.628 53.5918C296.152 53.5918 291.396 58.5668 291.396 67.5386C291.396 76.0551 295.612 81.5697 302.543 81.5697C309.407 81.5697 313.944 76.2237 313.944 67.5386C313.944 58.9378 309.643 53.5918 302.628 53.5918ZM302.628 88.1974C290.789 88.1974 283.925 79.5966 283.925 67.5386C283.925 56.0034 291.615 46.9473 302.695 46.9473C314.23 46.9473 321.398 55.0927 321.398 67.5386C321.398 79.3774 313.488 88.1974 302.628 88.1974Z" fill="#BCB5B5"/>
<path d="M347.097 54.7215C346.271 54.5698 345.141 54.4179 344.011 54.4179C340.385 54.4179 337.67 56.0875 335.41 59.764V87.354H328.479V60.5903C328.479 56.2224 327.939 51.7702 326.961 48.6672L333.521 47.1663C334.129 48.5998 334.736 51.0114 334.736 53.1194C337.147 48.7515 340.925 46.9302 345.057 46.9302C345.731 46.9302 347.013 47.082 347.772 47.3181L347.097 54.7215Z" fill="#BCB5B5"/>
<path d="M352.713 87.3711V47.858V87.3711ZM352.713 47.858H359.662V87.3711H352.713V47.858ZM356.187 40.6232C353.692 40.6232 351.887 38.8019 351.887 36.171C351.887 33.6751 353.776 31.8706 356.255 31.8706C358.666 31.8706 360.471 33.692 360.471 36.171C360.488 38.8019 358.599 40.6232 356.187 40.6232Z" fill="#BCB5B5"/>
<path d="M394.147 58.3476C392.258 55.4806 389.02 53.8279 385.327 53.8279C378.311 53.8279 373.943 59.1739 373.943 67.9265C373.943 76.072 378.699 81.1987 385.698 81.1987C389.931 81.1987 394.67 79.3942 397.149 77.3536L397.756 84.6728C394.737 86.8651 389.61 88.2143 384.872 88.2143C373.623 88.2143 366.472 80.4567 366.472 68.2975C366.472 55.1096 374.314 46.9473 385.259 46.9473C390.909 46.9473 395.294 48.6168 398.447 52.5462L394.147 58.3476Z" fill="#BCB5B5"/>
<path d="M409.581 71.687C408.822 73.0362 408.518 74.554 408.518 75.6839C408.518 79.6807 410.407 82.3959 414.927 82.3959C421.268 82.3959 423.898 77.3366 424.286 70.1861C419.682 70.2536 413.493 70.8607 409.581 71.687ZM426.411 87.7419L425.197 82.1598H424.809C422.094 85.7856 418.637 88.1972 413.577 88.1972C406.174 88.1972 401.671 83.745 401.671 76.3584C401.671 67.7576 407.54 64.9919 424.286 64.9919C424.438 63.4741 424.506 61.9563 424.506 60.8264C424.506 56.0032 421.571 53.5073 416.664 53.5073C413.038 53.5073 409.058 54.4854 406.174 56.0032L405.28 49.4261C408.299 48.0095 413.055 46.9302 417.793 46.9302C425.416 46.9302 431.285 50.9271 431.285 59.8314C431.285 64.4185 430.307 72.3448 430.307 74.9081L433.241 86.9661L426.411 87.7419Z" fill="#BCB5B5"/>
<path d="M445.954 37.6213C445.954 38.3971 445.431 38.7344 444.639 38.7344H443.812V36.5926C444.099 36.5589 444.504 36.5589 444.723 36.5589C445.499 36.542 445.954 36.8793 445.954 37.6213ZM447.792 42.1747C447.472 41.3147 446.983 40.5389 446.123 39.3415C446.865 39.0211 447.32 38.3971 447.32 37.5876C447.32 36.1879 446.376 35.4458 444.689 35.4458C444.285 35.4458 443.172 35.5302 442.548 35.6145V42.394H443.812V39.7631H444.925C445.667 40.8761 446.156 41.7362 446.359 42.3096L447.792 42.1747ZM450.508 38.9705C450.508 42.4951 448.214 44.9573 444.841 44.9573C441.468 44.9573 439.175 42.3265 439.175 38.9705C439.175 35.4796 441.553 32.9837 444.841 32.9837C448.045 32.9837 450.508 35.4796 450.508 38.9705ZM451.739 38.9705C451.739 34.8724 448.669 31.8706 444.807 31.8706C440.996 31.8706 437.96 34.9568 437.96 38.9705C437.96 43.0348 440.878 46.0704 444.807 46.0704C448.838 46.0704 451.739 43.0854 451.739 38.9705Z" fill="#BCB5B5"/>
<path d="M60.5713 0.266602C27.5847 0.266602 0.837891 27.0134 0.837891 60.0169C0.837891 93.0373 27.5847 119.767 60.5713 119.767C93.5748 119.767 120.322 93.0204 120.322 60.0169C120.322 27.0134 93.5748 0.266602 60.5713 0.266602ZM88.0096 60.0506C88.0096 75.414 75.8504 87.6744 60.487 87.6744C54.9724 87.6744 44.1455 85.4989 45.4946 77.7076C45.5789 77.2185 45.8994 75.6502 46.8269 74.2167C47.8893 72.5977 50.4021 70.3548 55.8156 68.5671C63.8092 65.9194 70.1502 68.9719 70.1502 68.9719C70.1502 68.9719 65.0403 64.604 55.765 67.2348C53.893 67.7745 52.3921 68.3648 50.9249 69.0562C49.7275 69.6127 49.5252 68.8032 49.7613 68.3816C50.8406 66.5602 51.8862 64.7558 53.1679 63.1705C54.77 61.1805 58.7668 56.9813 65.0235 54.5866C69.5432 52.8496 74.0965 52.3437 74.0965 52.3437C74.0965 52.3437 69.6106 52.0232 65.1922 53.5073C63.354 54.1144 61.9036 54.7215 60.6894 55.3792C59.6438 55.9189 59.8967 55.2106 60.3184 54.6878C60.605 54.3505 60.9255 54.0469 61.229 53.7434C69.8804 44.8896 77.7729 40.7241 77.7729 40.7241C70.6393 42.3431 64.8717 45.3955 59.0535 50.6741C58.8174 50.8933 58.3115 51.3486 58.2778 50.5729C58.2441 49.814 58.2609 49.0551 58.1597 47.8914C57.9068 45.0245 56.4058 43.2875 56.4058 43.2875C56.4058 43.2875 57.7213 45.5473 57.4346 48.7347C57.131 51.9726 55.9842 53.6759 55.6132 54.0638C53.893 55.8514 52.5607 57.4029 50.7563 59.629C50.6213 59.8145 50.0986 59.9157 50.0986 59.1568C50.0986 57.9426 49.9805 56.0538 49.8962 54.8564C49.4915 48.0264 46.7594 45.7666 46.7594 45.7666C46.7594 45.7666 48.8 49.0382 48.8338 54.8395C48.8506 57.3017 48.4965 59.8314 48.1929 61.5516C47.9568 62.8501 46.4559 65.1942 46.321 65.3797C41.7339 71.687 38.4116 77.5221 36.9444 80.1698C34.5497 84.4365 33.0656 87.354 31.5309 90.2546C30.6203 91.9411 29.1025 89.4114 30.4179 86.5613C32.5428 81.9574 36.8601 75.5827 34.752 70.1355C33.4703 66.847 32.8632 63.8451 32.8632 60.0675C32.8632 44.721 45.2248 32.4606 60.2003 32.4606H88.0096V60.0506Z" fill="#BCB5B5"/>
</svg>
