<svg width="334" height="121" viewBox="0 0 334 121" fill="none" xmlns="http://www.w3.org/2000/svg">
<path d="M99.7498 40.6889V20.9239H79.9847L60.0005 0.922852L40.0163 20.9239H20.2176V40.6889L0.233398 60.69L20.2176 80.6742V100.473H40.0163L60.0005 120.457L79.9847 100.473H99.7498V80.6742L119.734 60.69L99.7498 40.6889ZM94.8591 82.2932V95.6329H81.435L76.477 100.608L59.9498 117.135L43.4229 100.608L38.4478 95.6329H25.2262V82.1246L20.2513 77.1496L3.72422 60.6226L20.2513 44.0955L25.2262 39.1374V25.882H38.566L60.0174 4.46434L76.5445 20.9914L81.5025 25.9495H94.876V39.3229L99.834 44.281L116.361 60.8081L99.834 77.3351L94.8591 82.2932Z" fill="#BCB5B5"/>
<path d="M90.3057 41.6673V30.3682H79.0067L60.0005 11.3452L40.9775 30.3682H29.6954V41.6673L10.6724 60.6734L29.6954 79.6963V90.9954H40.9775L44.0132 94.031V78.2123L34.1645 69.6958V41.8697H37.3181V58.7677L54.9412 74.6876V104.942L60.0005 110.002L65.0429 104.959V74.6876L82.6663 58.7677V41.8697H85.8199V69.6958L75.9879 78.2123V94.0141L79.0067 90.9954H90.3057V79.6963L109.312 60.6734L90.3057 41.6673ZM74.2846 53.6072C74.605 52.4098 76.8818 42.696 67.8931 37.1982C64.5034 34.9384 60.2197 34.4494 56.4084 35.9165C52.0237 37.5524 48.9881 41.583 48.634 46.2375C48.4316 48.5142 48.9882 50.7909 50.2025 52.7303C51.3324 54.501 52.9345 55.9345 54.8233 56.862C56.3579 57.6378 58.078 57.9413 59.7813 57.7727C64.7394 57.2836 68.3653 52.8483 67.8594 47.8902C67.8425 47.8059 65.9031 41.6335 60.7089 42.443C55.0931 43.3031 55.8519 48.2444 58.0611 49.155C59.1741 49.5598 60.3884 49.4586 61.4339 48.9021C61.5351 48.8346 61.6533 48.784 61.7714 48.7503C62.6314 48.4805 63.542 48.9695 63.8119 49.8296C64.3853 51.6847 64.183 53.3543 59.6802 53.6241C59.2923 53.6747 58.9043 53.7084 58.5165 53.6747C55.2279 53.506 52.6814 50.7065 52.8501 47.418C52.5971 44.0789 54.8232 41.0433 58.0948 40.2844C62.9349 38.7835 68.0785 41.3469 69.8323 46.0857C71.4345 49.9477 70.625 54.383 67.775 57.4354L67.7076 57.5029C65.3804 60.1168 62.0242 61.584 58.5165 61.4828C50.5396 61.2805 44.654 54.2143 44.8395 45.9508C44.9576 43.2863 45.9357 40.7397 47.6222 38.6823C50.1687 35.4443 53.862 33.3194 57.96 32.746C60.4053 32.3413 62.9011 32.6111 65.2115 33.5049C65.8524 33.7916 66.4763 34.112 67.0835 34.4493C71.9235 37.468 74.9424 42.7129 75.0773 48.413C75.2291 50.2175 74.9423 51.9714 74.2846 53.6072Z" fill="#BCB5B5"/>
<path d="M229.334 103.02H266.857V94.908H237.631V88.7019H262.961V80.6408H237.631V74.6708H266.857V66.5591H229.334V103.02ZM167.358 103.02H175.621V66.5591H167.358V103.02ZM131.184 66.5591H122.92V103.02H158.858V94.908H131.167V66.5591H131.184ZM184.121 103.02H192.384V89.7644H216.804V81.7876H192.486V74.6877H220.801V66.5759H184.104V103.02H184.121ZM266.756 33.6062L253.433 18.3608H243.888L262 39.3232V54.636H271.529V39.3232L289.624 18.3608H280.096L266.756 33.6062ZM258.172 48.8515H231.628V18.3608H222.082V54.636H258.29L258.172 48.8515ZM333.488 18.3608H323.015L302.053 33.6062V18.3608H292.525V54.636H302.053V39.3232L323.015 54.636H333.488L308.9 36.5406L333.488 18.3608ZM168.623 54.636V18.3608H159.094V33.6062H132.465V18.3608H122.886V54.636H132.465V39.3232H159.094V54.636H168.623ZM195.319 27.8892L202.941 43.1514H187.696L195.319 27.8892ZM205.791 48.8515L208.658 54.636H218.187L200.075 18.3608H190.546L172.451 54.636H182.063L184.914 48.919L205.791 48.8515Z" fill="#BCB5B5"/>
</svg>
