<svg width="496" height="121" viewBox="0 0 496 121" fill="none" xmlns="http://www.w3.org/2000/svg">
<path d="M295.657 41.2214C289.89 33.1265 281.963 28.2696 271.204 28.2696C253.26 28.2696 238.723 42.9583 238.723 61.0875C238.723 79.1998 253.26 93.8717 271.204 93.8717C284.122 93.8717 295.286 86.249 300.531 75.2029C300.531 75.2029 267.14 75.2198 267.14 75.2029V48.3549H328.307V6.70002H382.846V33.5312H354.244C354.244 33.5312 354.143 48.338 354.244 48.338H382.846V75.186H354.244V89.0486H382.846V115.222C383.74 115.273 328.256 115.155 328.256 115.222V75.4053C321.814 105.086 297.968 120.349 271.204 120.349C244.693 120.349 222.618 104.665 216.209 76.9231L216.193 84.0736V115.239H189.378V51.829C189.378 51.829 173.863 65.489 173.863 115.239H146.324C146.324 65.489 130.825 51.829 130.825 51.829V115.239H103.994V5.04735C134.89 5.04735 155.312 39.7541 160.102 60.2611H160.119C164.925 39.7541 185.314 5.04735 216.226 5.04735V41.7104L216.243 41.6766C221.454 17.3414 245.941 0.848145 271.238 0.848145C297.209 0.848145 320.077 20.4445 324.917 41.2214H295.657Z" fill="#BCB5B5"/>
<path d="M441.67 115.239C437.741 85.2711 417.925 63.9715 417.925 63.9715V115.205H389.475V6.73396C395.816 6.73396 418.465 18.9606 441.653 52.3519V6.7002H469.412V115.239H441.67Z" fill="#BCB5B5"/>
<path d="M35.8965 88.0201C35.1545 91.14 30.3818 107.836 28.4762 115.475H0.700684C4.39397 101.765 11.7132 78.3231 19.1504 62.673C26.5875 47.0735 35.964 29.9057 51.3105 18.3536C58.4104 12.9908 72.1886 2.46741 97.6874 4.86214V115.357H70.6876V88.037H35.8965V88.0201ZM70.7214 62.7742V37.1067C62.0869 43.1273 52.8283 54.2914 47.2462 62.7742H70.7214Z" fill="#BCB5B5"/>
<path d="M476.967 11.5228C476.967 6.44667 481.099 2.34863 486.192 2.34863C491.268 2.34863 495.383 6.46353 495.383 11.5228C495.383 16.6496 491.268 20.7646 486.192 20.7646C481.099 20.7646 476.967 16.6496 476.967 11.5228ZM493.646 11.5228C493.646 7.40794 490.324 4.06883 486.192 4.06883C482.06 4.06883 478.704 7.40794 478.704 11.5228C478.704 15.6883 482.06 19.0444 486.192 19.0444C490.341 19.0275 493.646 15.6883 493.646 11.5228ZM490.779 16.5485H488.502L486.31 12.3324H484.354V16.5485H482.414V6.5816H487.221C488.064 6.5816 489.16 6.61541 489.919 7.08761C490.796 7.661 491.083 8.63906 491.083 9.65092C491.083 11.4554 490.121 12.2143 488.351 12.3324L490.779 16.5485ZM487.271 10.8652C488.368 10.8821 489.126 10.6291 489.126 9.38113C489.126 8.08258 487.727 8.08255 486.765 8.08255H484.337V10.8652H487.271Z" fill="#BCB5B5"/>
</svg>
