<svg width="381" height="121" viewBox="0 0 381 121" fill="none" xmlns="http://www.w3.org/2000/svg">
<path d="M183.323 35.2253L184.335 35.9841L185.279 36.8611L186.207 37.8392L187.084 38.9017L187.91 40.0316L188.669 41.2627L189.394 42.5275L190.052 43.9104L190.659 45.2933L191.233 46.7942L191.688 48.312L192.109 49.8804L192.413 51.4993L192.683 53.1689L192.868 54.8553L192.953 56.5755V58.3126L192.902 60.0833L192.733 61.8709L192.464 63.6248L192.109 65.4124L191.654 67.2169L191.081 68.9876L190.423 70.7416L189.614 72.5123L188.737 74.2156L187.725 75.9526L186.612 77.6053L185.381 79.2411L183.981 80.8433L182.48 82.3948L180.861 83.8788L176.78 87.2349L172.277 90.4054L167.454 93.424L162.243 96.291L156.779 98.9724L151.045 101.468L145.058 103.796L138.903 105.904L132.545 107.843L126.103 109.58L119.525 111.081L112.898 112.396L106.236 113.476L99.575 114.336L92.9641 114.96L86.4039 115.331L79.9617 115.483L73.6545 115.381L67.5158 115.01L61.5965 114.386L55.8963 113.509L50.4828 112.329L45.3561 110.879L40.5667 109.158L36.165 107.118L32.1513 104.824L28.593 102.194L25.5068 99.2591L22.8928 96.0212L20.8523 92.4459L19.3851 88.5334L18.4912 84.3342L18.1539 79.8483L18.2551 75.5141L18.7948 71.3655L19.7392 67.3518L21.0547 63.5405L22.7242 59.864L24.7142 56.3225L27.0246 52.9497L29.588 49.7454L32.4381 46.6424L35.4905 43.708L38.7453 40.8917L42.2025 38.2271L45.8115 35.6806L49.5048 33.269L53.3329 30.9754L57.2623 28.8L61.2086 26.7594L65.1717 24.82L69.1854 22.9986L73.1317 21.2785L77.061 19.6932L80.9061 18.1585L84.6668 16.7757L88.2758 15.4434L91.733 14.2123L95.0553 13.0824L98.1414 12.0368L101.025 11.0756L103.69 10.1986L106.034 9.38912L108.075 8.64708L104.752 14.6171L131.01 0.585938L99.8279 2.52532L106.793 5.51029L104.213 6.26921L101.497 7.09554L98.6137 7.98935L95.6118 8.93375L92.4582 9.94562L89.2033 11.0587L85.8136 12.2054L82.3396 13.4365L78.8318 14.7351L75.206 16.1011L71.5296 17.5514L67.8363 19.0692L64.1092 20.6545L60.3654 22.324L56.6383 24.0611L52.9282 25.8824L49.218 27.7881L45.5753 29.7612L41.9664 31.8524L38.3911 33.9773L34.9508 36.2034L31.578 38.5138L28.3232 40.9086L25.1863 43.3876L22.1677 45.9341L19.3176 48.6156L16.6024 51.3476L14.039 54.1808L11.7117 57.0983L9.57005 60.1002L7.61373 63.22L5.89364 66.4074L5.20214 67.824L4.54441 69.2069L3.93732 70.5729L3.38077 71.922L2.85798 73.2712L2.40271 74.6034L1.99788 75.902L1.61003 77.1669L1.30649 78.4485L1.05348 79.7133L0.867999 80.9782L0.699397 82.1924L0.615096 83.4235L0.564453 84.6209V85.8183L0.648754 87.0325L0.766817 88.1961L0.935522 89.3597L1.17154 90.5403L1.49197 91.6533L1.82928 92.817L2.26777 93.9468L2.75679 95.0599L3.29647 96.1898L3.88678 97.3029L4.54441 98.399L5.28644 99.5121L6.096 100.575L6.956 101.688L7.88362 102.767L8.89543 103.829L9.9579 104.926L12.9935 107.539L16.535 109.901L20.4812 112.009L24.8491 113.847L29.588 115.432L34.681 116.781L40.1282 117.911L45.8284 118.805L51.8152 119.429L58.0381 119.884L64.4296 120.087H71.0573L77.8199 119.901L84.7006 119.513L91.6487 118.923L98.6811 118.13L105.781 117.169L112.864 116.039L119.913 114.741L126.929 113.29L133.86 111.621L140.69 109.867L147.368 107.944L153.895 105.853L160.236 103.661L166.358 101.3L172.226 98.8206L177.792 96.2404L183.087 93.5252L188.045 90.7257L192.615 87.7914L196.798 84.7726L198.012 83.6596L199.176 82.496L200.289 81.3155L201.368 80.1012L202.397 78.8364L203.341 77.5547L204.252 76.2899L205.112 74.9576L205.888 73.6422L206.63 72.293L207.287 70.9439L207.894 69.561L208.451 68.195L208.923 66.8121L209.311 65.4124L209.648 64.0632L209.901 62.6635L210.104 61.2806L210.188 59.9146L210.222 58.5486L210.171 57.2163L210.053 55.8841L209.834 54.5687L209.513 53.2701L209.142 52.0053L208.67 50.7404L208.114 49.5094L207.456 48.312L206.714 47.1652L205.888 46.0353L204.943 44.9391L203.915 43.8766L203.358 43.3707L202.835 42.8985L202.262 42.46L201.722 42.0384L201.149 41.6337L200.575 41.2796L199.985 40.9086L199.412 40.5881L198.788 40.2677L198.197 39.981L197.59 39.7111L196.966 39.4582L195.702 38.986L194.42 38.5307L193.104 38.1428L191.772 37.7549L190.423 37.367L189.023 36.996L187.624 36.5913L186.224 36.1697L184.773 35.7143L183.323 35.2253Z" fill="#BCB5B5"/>
<path d="M45.8142 82.3611L40.9404 89.7477H28.4271L64.2974 34.1123H65.5117L80.6222 89.7477H67.3499L65.5117 82.3611H45.8142ZM51.7841 71.5343H63.5386L60.0308 58.9534L51.7841 71.5343Z" fill="#BCB5B5"/>
<path d="M137.539 89.7477H151.941L153.459 82.3274L154.47 82.3443L155.55 82.3274L156.663 82.2768L157.877 82.2093L159.142 82.0745L160.44 81.8889L161.115 81.7877L161.806 81.636L162.481 81.4842L163.172 81.3324L163.864 81.1469L164.572 80.9445L165.264 80.7253L165.955 80.4723L166.646 80.2362L167.355 79.9495L168.063 79.6628L168.754 79.3593L169.446 79.022L170.12 78.6341L170.795 78.2462L171.453 77.8415L172.144 77.403L172.768 76.914L173.409 76.4418L174.05 75.9021L174.674 75.3118L175.315 74.6879L175.972 74.0133L176.63 73.2375L176.967 72.8497L177.271 72.4281L177.591 71.9896L177.895 71.5343L178.232 71.0789L178.536 70.5561L178.822 70.0839L179.126 69.5611L179.413 69.0214L179.699 68.4649L179.952 67.8747L180.222 67.3013L180.492 66.6773L180.728 66.0533L180.947 65.3956L181.15 64.7379L181.352 64.0465L181.554 63.355L181.723 62.6299L181.858 61.871L181.993 61.1289L182.111 60.3363L182.195 59.5437L182.263 58.7005L182.33 57.8404L182.381 56.9466V56.1033L182.347 55.2433L182.297 54.4001L182.212 53.5569L182.111 52.7305L181.942 51.9042L181.723 51.0946L181.47 50.2852L181.335 49.8973L181.183 49.5094L181.015 49.1384L180.829 48.7505L180.644 48.3795L180.425 47.9916L180.222 47.6206L179.952 47.2665L179.716 46.9123L179.446 46.5413L179.177 46.1872L178.856 45.833L178.451 45.344L178.013 44.8886L177.524 44.4839L177.035 44.0622L176.563 43.6743L176.04 43.3371L175.5 42.9998L174.994 42.6794L174.421 42.3927L173.881 42.106L173.308 41.853L172.768 41.6169L172.195 41.4314L171.621 41.1953L171.031 41.0435L170.458 40.8749L169.901 40.7231L169.294 40.5882L168.738 40.5038L168.164 40.3858L167.051 40.2003L165.938 40.0991L164.893 39.9979L163.914 39.9473L162.936 39.9305H162.059L163.223 34.1123H148.787L147.64 39.9305H145.583L144.453 39.9811L143.256 40.0654L141.974 40.1835L140.675 40.3858L139.984 40.5038L139.309 40.6219L138.635 40.7737L137.943 40.9255L137.252 41.0941L136.544 41.2965L135.835 41.5157L135.144 41.7518L134.436 42.0217L133.761 42.2915L133.053 42.5782L132.361 42.9155L131.67 43.2527L130.995 43.6069L130.304 43.9948L129.629 44.3996L128.972 44.8549L128.348 45.3102L127.673 45.8162L127.066 46.3558L126.425 46.9123L125.767 47.5363L125.143 48.2446L124.486 49.0035L124.165 49.4082L123.845 49.813L123.524 50.2346L123.204 50.673L122.9 51.1453L122.597 51.6343L122.276 52.1403L122.007 52.6462L121.72 53.2027L121.433 53.7592L121.146 54.3326L120.91 54.9398L120.641 55.5469L120.404 56.1708L120.168 56.8286L119.949 57.5031L119.764 58.1777L119.578 58.886L119.409 59.5943L119.291 60.3532L119.156 61.1289L119.022 61.9047L118.937 62.7142L118.836 63.5405L118.802 64.4175L118.752 65.2775V66.1376L118.769 66.9977L118.819 67.8578L118.903 68.6673L119.022 69.5274L119.173 70.3368L119.393 71.1464L119.662 71.939L119.78 72.3269L119.949 72.7147L120.101 73.1026L120.303 73.4905L120.489 73.8784L120.708 74.2325L120.91 74.6204L121.146 74.9914L121.416 75.3624L121.669 75.7166L121.956 76.0539L122.26 76.4249L122.681 76.8802L123.12 77.3187L123.592 77.7572L124.047 78.145L124.57 78.5161L125.059 78.8871L125.616 79.2244L126.121 79.5448L126.661 79.8315L127.234 80.1013L127.774 80.3543L128.348 80.5904L128.904 80.8265L129.477 80.9951L130.051 81.1806L130.607 81.3324L131.198 81.5011L131.771 81.636L132.361 81.754L132.935 81.8552L134.048 82.0407L135.127 82.1756L136.189 82.2431L137.184 82.2936L138.146 82.3105H139.006L137.539 89.7477ZM142.21 71.7197L141.788 71.7534H141.316L140.844 71.7197L140.355 71.686L139.832 71.6354L139.326 71.5343L138.803 71.4331L138.297 71.2981L137.775 71.1126L137.269 70.9102L136.797 70.6742L136.291 70.3706L136.071 70.202L135.852 70.0333L135.633 69.8646L135.414 69.6792L135.194 69.4768L135.009 69.2576L134.823 69.0214L134.621 68.7685L134.452 68.4649L134.25 68.1445L134.081 67.8072L133.93 67.4362L133.795 67.082L133.677 66.711L133.575 66.3063L133.474 65.9184L133.407 65.5137L133.339 65.0921L133.289 64.6705L133.272 64.232L133.255 63.8272V63.3719L133.272 62.9334L133.289 62.4949L133.356 61.9553L133.424 61.3988L133.508 60.8254L133.643 60.2688L133.795 59.6786L133.963 59.1221L134.149 58.5656L134.368 58.009L134.587 57.4525L134.857 56.9129L135.127 56.4069L135.431 55.8842L135.751 55.3951L136.105 54.906L136.476 54.4507L136.864 54.0122L137.286 53.5906L137.741 53.2027L138.196 52.8148L138.685 52.4775L139.208 52.1571L139.731 51.8536L140.304 51.6006L140.895 51.3645L141.502 51.1621L142.143 50.9935L142.8 50.8249L143.509 50.7068L144.2 50.6393L144.925 50.5719L145.701 50.555H146.477L142.21 71.7197ZM158.906 50.5381H159.783L160.272 50.555L160.761 50.5719L161.267 50.6393L161.773 50.7237L162.279 50.8417L162.835 50.9935L163.341 51.1621L163.847 51.3645L164.319 51.6343L164.791 51.9042L165.027 52.0559L165.264 52.2415L165.483 52.4101L165.685 52.5956L165.904 52.8148L166.107 53.0341L166.275 53.2533L166.444 53.5063L166.646 53.8098L166.849 54.1303L167.001 54.4675L167.135 54.8217L167.287 55.1927L167.388 55.5806L167.506 55.9685L167.574 56.3564L167.641 56.7611L167.709 57.1996L167.743 57.6043L167.776 58.0428V59.3413L167.726 59.7629L167.675 60.3194L167.591 60.8929L167.49 61.4494L167.372 62.0059L167.254 62.5961L167.068 63.1358L166.882 63.6923L166.68 64.2488L166.444 64.7885L166.191 65.3281L165.904 65.8678L165.601 66.3738L165.297 66.8628L164.943 67.335L164.572 67.7904L164.167 68.2288L163.763 68.6673L163.29 69.0552L162.835 69.443L162.346 69.7635L161.84 70.0839L161.3 70.3874L160.744 70.6404L160.154 70.8765L159.547 71.0789L158.906 71.2644L158.231 71.4162L157.54 71.5511L156.831 71.6354L156.089 71.686L155.347 71.7029H154.588L158.906 50.5381Z" fill="#BCB5B5"/>
<path d="M121.515 34.1123H86.6736L84.633 45.1921H95.5781L86.9772 89.7477H99.4737L108.53 45.1921H119.458L121.515 34.1123Z" fill="#BCB5B5"/>
<path d="M225.689 89.7477H240.124L241.103 89.714L242.064 89.6634L243.042 89.5622L243.986 89.4442L244.897 89.3092L245.808 89.1068L246.702 88.8876L247.579 88.6178L248.422 88.3142L249.265 87.977L250.091 87.6228L250.884 87.2181L251.643 86.7796L252.402 86.3242L253.127 85.8352L253.818 85.3124L254.493 84.739L255.151 84.1319L255.758 83.5079L256.348 82.8671L256.921 82.1925L257.478 81.5011L258.001 80.759L258.473 79.9832L258.928 79.2075L259.367 78.3812L259.738 77.5379L260.109 76.6778L260.429 75.7503L260.75 74.8396L261.002 73.8784L261.222 72.9171L261.492 71.6017L261.61 70.3874L261.728 69.2238V68.1614L261.66 67.1495L261.525 66.1714L261.357 65.2775L261.087 64.4681L260.783 63.6755L260.412 62.984L259.974 62.3095L259.518 61.6855L259.012 61.1458L258.473 60.623L257.899 60.1508L257.259 59.7123L256.601 59.3413L255.926 58.9872L255.235 58.6836L254.543 58.4138L253.801 58.1946L253.076 57.9922L252.334 57.8067L251.609 57.6549L250.884 57.52L250.142 57.4356L249.417 57.3682L248.708 57.2839L247.309 57.2333L246.01 57.2164H238.742L242.435 39.9305H263.245L264.51 34.1123H237.713L225.689 89.7477ZM237.46 63.0346H244.981L246.212 63.0683L246.82 63.0852L247.393 63.1189L247.966 63.1695L248.557 63.2201L249.096 63.2876L249.67 63.3888L250.159 63.4899L250.715 63.6249L251.187 63.7935L251.643 63.979L252.098 64.1983L252.537 64.4512L252.823 64.6536L253.11 64.8728L253.346 65.0921L253.582 65.3113L253.801 65.5306L254.021 65.7835L254.223 66.0196L254.392 66.2725L254.543 66.5255L254.678 66.8122L254.83 67.0652L254.914 67.335L255.016 67.6048L255.1 67.8915L255.167 68.1614L255.235 68.4312L255.353 68.9877L255.387 69.578V70.1514L255.37 70.7079L255.353 71.2981L255.285 71.8378L255.184 72.3437L255.083 72.8665L254.914 73.5748L254.712 74.3L254.476 74.9408L254.257 75.5817L254.004 76.1719L253.734 76.7621L253.43 77.2681L253.144 77.7909L252.84 78.2631L252.537 78.7016L252.199 79.1063L251.862 79.511L251.542 79.8652L251.187 80.2025L250.85 80.4892L250.496 80.759L250.176 81.0457L249.821 81.2987L249.45 81.5517L249.079 81.7709L248.708 81.9901L248.354 82.1925L247.949 82.3611L247.595 82.5298L246.87 82.8333L246.128 83.0863L245.403 83.2887L244.678 83.4573L243.97 83.5754L243.295 83.6765L242.654 83.7609L242.013 83.8115L240.866 83.8452L239.838 83.8621H232.873L237.46 63.0346ZM298.576 59.0209L298.34 58.5993L298.07 58.1271L297.733 57.6549L297.379 57.1827L296.957 56.6936L296.485 56.2046L296.215 55.9516L295.945 55.7155L295.675 55.4625L295.372 55.2433L295.052 55.0241L294.731 54.7879L294.377 54.5856L293.989 54.4001L293.601 54.2146L293.196 54.0291L292.758 53.8435L292.32 53.7086L291.847 53.5569L291.358 53.4388L290.852 53.3545L290.33 53.2533L289.79 53.2027L289.2 53.1184L288.609 53.1015H287.142L286.316 53.169L285.456 53.2533L284.613 53.4051L283.786 53.5569L282.943 53.7761L282.133 53.9953L281.307 54.2989L280.498 54.6025L279.705 54.9735L278.912 55.3445L278.137 55.7661L277.361 56.2383L276.602 56.7274L275.843 57.2333L275.135 57.8067L274.443 58.3969L273.735 59.0378L273.077 59.7123L272.437 60.4207L271.829 61.1795L271.222 61.9722L270.666 62.7985L270.109 63.6586L269.603 64.5355L269.148 65.4631L268.693 66.4244L268.288 67.4025L267.883 68.448L267.563 69.5105L267.242 70.6404L266.972 71.7534L266.736 72.9171L266.568 74.047L266.433 75.1432L266.365 76.1719V77.2006L266.382 78.1956L266.466 79.14L266.601 80.0338L266.77 80.9276L266.989 81.7371L267.225 82.5298L267.529 83.3055L267.849 84.0307L268.237 84.7221L268.642 85.363L269.081 85.9869L269.553 86.5435L270.059 87.1L270.581 87.5891L271.155 88.0613L271.762 88.4998L272.386 88.8876L273.044 89.2418L273.701 89.5622L274.393 89.832L275.135 90.0681L275.877 90.2705L276.619 90.456L277.378 90.5909L278.17 90.6752L278.98 90.7596H280.363L280.902 90.7258L281.459 90.6752L281.999 90.6078L282.521 90.5403L283.027 90.4391L283.55 90.3211L284.039 90.203L284.528 90.0681L285 89.8995L285.473 89.7477L285.928 89.5453L286.383 89.3767L286.822 89.1743L287.26 88.9551L287.682 88.7527L288.491 88.2805L289.25 87.8252L289.975 87.3192L290.65 86.7964L291.308 86.2737L291.915 85.7509L292.454 85.2281L292.96 84.7053L291.881 89.714H297.902L305.625 53.8941H299.571L298.576 59.0209ZM287.412 58.5824L287.918 58.6162L288.407 58.633L288.913 58.7005L289.402 58.7848L289.874 58.9028L290.346 59.0546L290.852 59.2064L291.308 59.4088L291.78 59.6112L292.218 59.8472L292.657 60.1002L293.062 60.4038L293.483 60.6904L293.82 61.0278L294.191 61.3988L294.546 61.7867L294.9 62.2083L295.17 62.6636L295.439 63.1358L295.675 63.6417L295.895 64.1645L296.08 64.7379L296.249 65.3113L296.384 65.9184L296.451 66.5592L296.519 67.2338L296.552 67.959V68.6673L296.502 69.4262L296.434 70.2357L296.283 71.0452L296.148 71.8884L295.979 72.5629L295.81 73.2038L295.591 73.8615L295.372 74.5023L295.136 75.1432L294.883 75.7503L294.562 76.3405L294.259 76.9646L293.955 77.5379L293.601 78.1113L293.23 78.6847L292.842 79.2244L292.454 79.7303L292.016 80.2531L291.577 80.7253L291.122 81.1975L290.65 81.6697L290.144 82.0913L289.621 82.4792L289.098 82.8839L288.559 83.2381L287.985 83.5585L287.429 83.8789L286.839 84.1487L286.248 84.3849L285.641 84.6041L285.017 84.7727L284.36 84.9582L283.702 85.0763L283.027 85.1606L282.353 85.2112L281.678 85.2449L281.004 85.2112L280.38 85.1606L279.772 85.0763L279.165 84.9582L278.609 84.8233L278.052 84.6378L277.546 84.4186L277.074 84.1993L276.602 83.9295L276.163 83.6597L275.742 83.3393L275.371 82.9851L275.017 82.631L274.679 82.2262L274.376 81.8214L274.123 81.383L273.853 80.9108L273.634 80.4386L273.415 79.9158L273.246 79.393L273.094 78.8534L272.942 78.2968L272.824 77.6897L272.757 77.0995L272.723 76.4755V75.1769L272.74 74.5361L272.824 73.8447L272.926 73.1532L273.01 72.4449L273.162 71.7366L273.347 70.944L273.566 70.1851L273.803 69.4093L274.072 68.6842L274.359 67.959L274.663 67.3013L274.966 66.6436L275.337 66.0028L275.691 65.4125L276.079 64.8222L276.484 64.2826L276.905 63.7598L277.361 63.237L277.799 62.7817L278.271 62.3263L278.744 61.9047L279.233 61.4831L279.739 61.1121L280.245 60.7579L280.734 60.4375L281.273 60.1508L281.847 59.8641L282.37 59.6112L282.909 59.3919L283.483 59.1895L284.022 59.004L284.596 58.9028L285.135 58.7679L285.692 58.6668L286.265 58.5993L286.822 58.5824H287.412ZM306.806 89.7477H312.86L316.183 74.2831H332.608L329.286 89.7477H335.324L343.014 53.9279H336.993L333.839 68.5998H317.397L320.55 53.9279H314.53L306.806 89.7477ZM352.846 53.911L345.139 89.7308H351.159L354.161 75.8346L356.387 74.0133L366.573 89.714H374.449L361.801 69.8646L380.335 53.8941H372.948L355.713 68.5661L358.9 53.8941H352.846V53.911Z" fill="#BCB5B5"/>
</svg>
