<svg width="693" height="121" viewBox="0 0 693 121" fill="none" xmlns="http://www.w3.org/2000/svg">
<path d="M39.4134 0.781738L59.0097 34.7296L78.6229 68.6775H39.4134H0.220703L19.817 34.7296L39.4134 0.781738Z" fill="#BCB5B5"/>
<path d="M48.3187 0.782227L67.9319 34.7301L87.5282 68.678H48.3187H9.12598L28.7223 34.7301L48.3187 0.782227Z" fill="#BCB5B5"/>
<path d="M130.058 114.093C126.921 114.937 124.645 115.274 121.795 115.274C109.889 115.274 104.576 108.697 104.576 100.147C104.576 94.9524 106.634 90.9725 109.518 88.4934C112.317 86.0987 116.55 84.9351 121.339 84.9351C122.975 84.9351 125.859 85.1036 130.008 86.4528L129.384 92.7769C127.579 91.8156 124.814 90.7195 121.795 90.7195C118.658 90.7195 116.55 91.9337 115.251 93.2323C113.75 94.7501 112.604 97.2123 112.604 100.231C112.604 106.302 116.803 109.49 122.368 109.49C124.544 109.49 127.276 108.95 129.653 107.972L130.058 114.093Z" fill="#BCB5B5"/>
<path d="M104.576 8.18604H121.053V31.931H140.548V8.18604H157.024V70.1961H140.548V43.618H121.053V70.1961H104.576V8.18604Z" fill="#BCB5B5"/>
<path d="M184.667 46.8053L161.816 8.18604H180.772L192.914 33.0778L204.871 8.18604H223.827L201.144 46.8053V70.1961H184.667V46.8053Z" fill="#BCB5B5"/>
<path d="M282.648 46.6367C282.648 51.3418 282.024 57.9695 277.066 63.4673C270.691 70.5503 261.028 71.2586 255.53 71.2586C250.032 71.2586 240.386 70.5503 233.994 63.4673C229.036 57.9695 228.412 51.325 228.412 46.6367V8.18604H244.889V43.8878C244.889 45.9284 244.973 50.8022 246.659 53.9052C248.784 57.9864 252.326 59.0488 255.513 59.0488C258.7 59.0488 262.242 57.9864 264.367 53.9052C266.053 50.8022 266.138 45.9284 266.138 43.8878V8.18604H282.614V46.6367H282.648Z" fill="#BCB5B5"/>
<path d="M293.998 8.18604H314.994L335.906 50.2626H336.074V8.18604H350.881V70.1961H330.408L308.788 27.8498H308.619V70.1961H293.998V8.18604Z" fill="#BCB5B5"/>
<path d="M362.398 8.18604H384.895C394.289 8.18604 406.33 9.07978 414.391 17.3939C420.496 23.6843 421.474 31.9141 421.474 38.9297C421.474 45.9452 420.412 55.2375 412.62 62.0507C404.289 69.4879 392.518 70.1961 384.895 70.1961H362.398V8.18604ZM378.875 57.9695H385.25C390.039 57.9695 395.891 57.1769 400.141 52.4718C403.952 48.3063 404.475 43.3482 404.475 39.1827C404.475 33.4151 403.244 20.3958 385.25 20.3958H378.875V57.9695Z" fill="#BCB5B5"/>
<path d="M443.011 8.18604H463.215L487.044 70.213H468.966L464.362 57.0083H441.156L436.283 70.213H419.536L443.011 8.18604ZM453.113 20.9355H452.944L444.968 45.2033H460.466L453.113 20.9355Z" fill="#BCB5B5"/>
<path d="M508.394 8.18604H491.918V70.1961H508.394V8.18604Z" fill="#BCB5B5"/>
<path d="M146.316 84.919C148.829 84.919 153.568 85.2563 157.127 88.8147C160.567 92.255 160.989 97.23 160.989 100.097C160.989 102.947 160.567 107.939 157.127 111.362C153.568 114.921 148.829 115.258 146.316 115.258C143.837 115.258 138.981 114.921 135.507 111.362C132.117 107.888 131.645 102.947 131.645 100.097C131.645 97.2468 132.066 92.255 135.507 88.8147C139.031 85.2563 143.854 84.8684 146.316 84.919ZM146.316 90.7034C140.448 90.7034 139.689 97.0782 139.689 100.097C139.689 103.116 140.448 109.49 146.316 109.49C152.219 109.49 152.944 103.116 152.944 100.097C152.944 97.0613 152.236 90.7034 146.316 90.7034Z" fill="#BCB5B5"/>
<path d="M165.356 85.4243H175.29L185.172 105.324H185.256V85.4243H192.255V114.751H182.575L172.355 94.7166H172.271V114.751H165.356V85.4243Z" fill="#BCB5B5"/>
<path d="M197.786 107.551C200.805 109.103 203.824 109.474 205.831 109.474C207.922 109.474 210.654 109.187 210.654 106.59C210.654 104.111 208.006 103.538 204.617 102.475L203.402 102.104C199.928 101.059 196.825 98.5458 196.825 94.0093C196.825 90.7882 198.157 88.1405 201.513 86.4709C203.824 85.341 206.708 84.9194 209.44 84.9194C211.16 84.9194 214.094 85.0375 217.113 85.9988L216.607 92.0361C215.595 91.5808 213.47 90.687 210.114 90.687C207.686 90.687 204.869 91.1424 204.869 93.4528C204.869 95.038 206.202 95.7632 209.777 96.7245L210.232 96.8425C211.699 97.1798 214.516 98.1916 216.067 99.4058C218.209 101.126 218.715 103.436 218.715 105.561C218.715 114.28 210.789 115.241 205.848 115.241C203.503 115.241 200.434 114.955 197.129 113.977L197.786 107.551Z" fill="#BCB5B5"/>
<path d="M227.841 91.2088H220.64V85.4243H242.85V91.2088H235.649V114.751H227.841V91.2088Z" fill="#BCB5B5"/>
<path d="M246.12 85.4243H260.033C263.558 85.4243 265.683 86.4362 266.981 87.4312C268.701 88.7635 269.46 90.6523 269.46 93.0133C269.46 96.3693 267.791 99.388 263.845 100.214V100.299C265.194 100.552 266.155 101.682 267.201 104.616L270.843 114.768H262.715L261.045 109.49C260.05 106.269 259.375 104.97 258.532 104.161C257.487 103.199 256.39 103.149 255.564 103.149H253.928V114.768H246.137V85.4243H246.12ZM253.911 97.6172H255.969C258.65 97.6172 259.78 97.2799 260.505 96.774C261.129 96.3186 261.669 95.5598 261.669 94.2612C261.669 92.7097 260.876 91.9508 259.831 91.4954C259.207 91.2087 258.161 90.9559 255.969 90.9559H253.911V97.6172Z" fill="#BCB5B5"/>
<path d="M299.849 103.604C299.849 105.83 299.562 108.967 297.201 111.564C294.182 114.92 289.612 115.257 287.015 115.257C284.418 115.257 279.848 114.92 276.829 111.564C274.485 108.967 274.198 105.83 274.198 103.604V85.4072H281.99V102.305C281.99 103.267 282.023 105.577 282.833 107.044C283.828 108.967 285.514 109.473 287.032 109.473C288.533 109.473 290.219 108.967 291.214 107.044C292.007 105.577 292.058 103.267 292.058 102.305V85.4072H299.849V103.604Z" fill="#BCB5B5"/>
<path d="M329.614 114.093C326.477 114.937 324.2 115.274 321.35 115.274C309.444 115.274 304.132 108.697 304.132 100.147C304.132 94.9524 306.189 90.9725 309.073 88.4934C311.872 86.0987 316.105 84.9351 320.895 84.9351C322.531 84.9351 325.415 85.1036 329.563 86.4528L328.939 92.7769C327.135 91.8156 324.369 90.7195 321.35 90.7195C318.213 90.7195 316.105 91.9337 314.807 93.2323C313.306 94.7501 312.159 97.2123 312.159 100.231C312.159 106.302 316.358 109.49 321.924 109.49C324.099 109.49 326.831 108.95 329.209 107.972L329.614 114.093Z" fill="#BCB5B5"/>
<path d="M338.2 91.2088H330.999V85.4243H353.209V91.2088H345.991V114.751H338.2V91.2088Z" fill="#BCB5B5"/>
<path d="M364.272 85.4243H356.48V114.768H364.272V85.4243Z" fill="#BCB5B5"/>
<path d="M383.294 84.919C385.807 84.919 390.546 85.2563 394.104 88.8147C397.544 92.255 397.966 97.23 397.966 100.097C397.966 102.947 397.544 107.939 394.104 111.362C390.546 114.921 385.807 115.258 383.294 115.258C380.815 115.258 375.958 114.921 372.484 111.362C369.094 107.888 368.622 102.947 368.622 100.097C368.622 97.2468 369.044 92.255 372.484 88.8147C376.009 85.2563 380.832 84.8684 383.294 84.919ZM383.294 90.7034C377.425 90.7034 376.666 97.0782 376.666 100.097C376.666 103.116 377.425 109.49 383.294 109.49C389.196 109.49 389.922 103.116 389.922 100.097C389.922 97.0613 389.213 90.7034 383.294 90.7034Z" fill="#BCB5B5"/>
<path d="M402.333 85.4243H412.266L422.149 105.324H422.233V85.4243H429.232V114.751H419.551L409.332 94.7166H409.247V114.751H402.333V85.4243Z" fill="#BCB5B5"/>
<path d="M444.444 85.4243H465.069V90.9559H452.253V97.027H464.361V102.558H452.253V109.22H465.542V114.751H444.444V85.4243Z" fill="#BCB5B5"/>
<path d="M484.277 115.258C480.247 115.258 476.233 114.55 473.045 111.362C469.605 107.922 469.184 102.947 469.184 100.097C469.184 97.2468 469.605 92.255 473.045 88.8147C476.57 85.2563 481.393 84.8684 483.855 84.919C486.368 84.919 491.107 85.2563 494.666 88.8147C498.106 92.255 498.527 97.23 498.527 100.097C498.527 105.713 496.436 111.531 491.073 113.808L497.988 120.3H489.185L484.277 115.258ZM483.855 90.7035C477.987 90.7035 477.228 97.0782 477.228 100.097C477.228 103.116 477.987 109.49 483.855 109.49C489.758 109.49 490.483 103.116 490.483 100.097C490.466 97.0613 489.758 90.7035 483.855 90.7035Z" fill="#BCB5B5"/>
<path d="M527.264 103.604C527.264 105.83 526.978 108.967 524.617 111.564C521.598 114.92 517.028 115.257 514.43 115.257C511.833 115.257 507.263 114.92 504.244 111.564C501.9 108.967 501.597 105.83 501.597 103.604V85.4072H509.388V102.305C509.388 103.267 509.422 105.577 510.231 107.044C511.226 108.967 512.913 109.473 514.43 109.473C515.931 109.473 517.618 108.967 518.63 107.044C519.422 105.577 519.456 103.267 519.456 102.305V85.4072H527.247V103.604H527.264Z" fill="#BCB5B5"/>
<path d="M540.436 85.4243H532.645V114.768H540.436V85.4243Z" fill="#BCB5B5"/>
<path d="M555.193 85.4243C559.763 85.4243 568.313 85.6772 568.313 95.0707C568.313 97.2124 567.773 99.3543 566.138 101.142C563.254 104.245 558.768 104.498 556.71 104.498H553.692V114.768H545.9V85.4243H555.193ZM553.675 98.9495H555.682C556.643 98.9495 558.279 98.8314 559.375 97.8533C560.336 97.0101 560.505 95.7622 560.505 94.9189C560.505 93.789 560.302 92.6928 559.122 91.8159C557.992 90.9726 556.491 90.939 555.682 90.939H553.675V98.9495Z" fill="#BCB5B5"/>
<path d="M571.906 85.4243H584.2L590.39 104.903H590.474L596.983 85.4243H608.789V114.751H601.166V92.2038H601.216L593.746 114.751H586.578L579.462 92.2038H579.377V114.751H571.906V85.4243Z" fill="#BCB5B5"/>
<path d="M614.251 85.4243H634.859V90.9559H622.042V97.027H634.151V102.558H622.042V109.22H635.331V114.751H614.251V85.4243Z" fill="#BCB5B5"/>
<path d="M640.053 85.4243H649.986L659.885 105.324H659.97V85.4243H666.968V114.751H657.288L647.068 94.7166H646.984V114.751H640.053V85.4243Z" fill="#BCB5B5"/>
<path d="M677.441 91.2088H670.24V85.4243H692.451V91.2088H685.25V114.751H677.441V91.2088Z" fill="#BCB5B5"/>
</svg>
