<svg width="424" height="121" viewBox="0 0 424 121" fill="none" xmlns="http://www.w3.org/2000/svg">
<path d="M147.289 97.0054C146.277 97.0054 145.434 96.2634 145.434 95.2178C145.434 94.1891 146.261 93.3965 147.289 93.3965C148.318 93.3965 149.144 94.1722 149.144 95.2178C149.144 96.2465 148.318 97.0054 147.289 97.0054ZM145.839 120.059C145.839 113.667 145.839 107.293 145.839 100.901C146.817 100.901 147.812 100.901 148.79 100.901C148.79 107.293 148.79 113.667 148.79 120.059C147.812 120.059 146.817 120.059 145.839 120.059Z" fill="#BCB5B5"/>
<path d="M165.857 120.024C165.789 116.145 165.941 110.833 165.823 107.292C165.705 103.75 163.901 103.379 161.202 102.957C159.752 102.738 158.454 103.295 157.104 103.581C157.104 109.096 157.104 114.56 157.104 120.058C156.109 120.058 155.114 120.058 154.119 120.058C154.119 113.987 154.119 107.932 154.119 101.844C156.379 101.035 158.757 100.445 161.152 100.529C165.452 100.681 168.505 102.35 168.741 106.836C168.977 111.322 168.673 115.606 168.808 120.058C167.813 120.041 166.835 120.092 165.857 120.024Z" fill="#BCB5B5"/>
<path d="M178.523 120.43C176.786 120.43 174.526 119.941 172.891 119.114C173.211 118.355 173.599 117.596 173.936 116.838C175.454 117.495 176.803 118.069 178.574 118.001C180.345 117.934 182.689 117.225 182.537 114.932C182.385 112.638 180.884 112.217 178.624 111.255C176.365 110.294 173.295 109.029 173.464 105.623C173.632 102.216 176.381 100.614 179.771 100.547C181.592 100.513 183.464 101.002 185.083 101.862C184.746 102.57 184.392 103.279 184.055 103.953C182.722 103.346 181.576 102.756 179.99 102.857C178.405 102.958 176.297 103.532 176.483 105.707C176.668 107.883 177.967 108.287 180.243 109.265C182.52 110.26 185.859 111.373 185.623 115.033C185.404 118.693 182.318 120.413 178.523 120.43Z" fill="#BCB5B5"/>
<path d="M197.444 120.396C193.042 120.025 190.343 118.76 190.124 113.583C189.972 109.991 190.175 104.797 190.09 100.918C191.102 100.867 192.081 100.867 193.076 100.918C193.126 104.78 193.025 110.058 193.092 113.583C193.177 117.108 194.779 117.529 197.444 117.917C199.012 118.136 200.125 117.63 201.541 117.327C201.525 111.829 201.541 106.382 201.541 100.884C202.52 100.884 203.515 100.884 204.493 100.884C204.493 106.955 204.493 113.01 204.493 119.098C202.149 119.907 200.041 120.615 197.444 120.396Z" fill="#BCB5B5"/>
<path d="M218.002 103.144C217.243 103.043 217.108 102.992 216.198 103.009C215.287 103.026 213.651 103.178 212.656 103.616C212.622 109.097 212.656 114.595 212.639 120.076C211.644 120.076 210.649 120.076 209.654 120.076C209.654 114.005 209.654 107.95 209.654 101.879C211.914 100.969 214.224 100.597 216.653 100.53C217.311 100.513 217.901 100.597 218.542 100.665C218.373 101.491 218.154 102.318 218.002 103.144Z" fill="#BCB5B5"/>
<path d="M228.845 120.43C224.866 120.413 220.868 118.828 221.071 114.679C221.374 108.406 227.8 108.524 232.572 107.967C232.623 107.58 232.589 106.905 232.589 106.551C232.539 103.751 230.397 102.874 228.154 102.824C225.911 102.79 224.73 103.296 222.808 103.971C222.572 103.279 222.302 102.588 222.032 101.863C224.123 101.188 226.012 100.379 228.323 100.564C232.505 100.918 235.119 101.947 235.372 106.922C235.541 110.295 235.338 115.388 235.406 119.081C233.55 120.076 230.751 120.43 228.845 120.43ZM232.572 110.025C229.132 110.379 224.157 110.008 223.82 114.578C223.634 117.142 226.299 118.204 228.744 118.204C229.807 118.204 231.51 118.069 232.572 117.614C232.589 115.084 232.606 112.571 232.572 110.025Z" fill="#BCB5B5"/>
<path d="M252.321 120.024C252.253 116.145 252.405 110.833 252.287 107.292C252.152 103.75 250.364 103.379 247.666 102.957C246.216 102.738 244.917 103.295 243.568 103.581C243.568 109.096 243.568 114.56 243.568 120.058C242.573 120.058 241.578 120.058 240.583 120.058C240.583 113.987 240.583 107.932 240.583 101.844C242.843 101.035 245.221 100.445 247.616 100.529C251.916 100.681 254.968 102.35 255.204 106.836C255.441 111.322 255.137 115.606 255.272 120.058C254.277 120.041 253.299 120.092 252.321 120.024Z" fill="#BCB5B5"/>
<path d="M267.803 120.396C262.609 119.975 259.81 115.809 259.81 110.463C259.81 105.117 262.609 100.985 267.803 100.564C270.232 100.361 270.839 101.07 272.745 101.812C272.357 102.554 272.019 103.279 271.699 103.987C270.333 103.448 269.911 102.891 268.157 103.043C264.414 103.363 262.828 106.736 262.828 110.429C262.828 114.123 264.414 117.546 268.157 117.883C269.928 118.035 270.333 117.445 271.699 116.905C272.019 117.631 272.34 118.389 272.745 119.148C270.839 119.907 270.249 120.599 267.803 120.396Z" fill="#BCB5B5"/>
<path d="M291.413 109.991C287.045 110.632 282.677 111.239 278.326 111.88C278.9 115.691 280.89 117.782 284.718 117.984C286.725 118.086 288.226 117.563 289.98 116.855C290.283 117.597 290.57 118.339 290.907 119.098C288.715 119.974 287.079 120.514 284.532 120.396C278.765 120.143 275.577 116.113 275.527 110.53C275.476 104.948 278.343 100.833 283.706 100.648C289.069 100.462 290.873 104.071 291.43 108.692C291.497 109.063 291.413 109.637 291.413 109.991ZM283.689 102.874C279.979 102.958 278.309 106.264 278.158 109.805C281.615 109.333 285.106 108.827 288.614 108.304C288.158 105.303 287.416 102.79 283.689 102.874Z" fill="#BCB5B5"/>
<path fill-rule="evenodd" clip-rule="evenodd" d="M34.7864 31.5548C51.6676 31.5042 68.3464 31.3525 84.6879 31.6054C87.5211 31.656 88.6343 32.7859 88.6681 35.5686C88.8873 51.6234 88.8536 69.1286 88.6681 85.1665C88.6343 87.9492 87.4537 89.1128 84.6879 89.1465C68.6331 89.3489 51.1449 89.3489 35.0901 89.1465C32.3075 89.1128 31.2111 87.9323 31.1268 85.1497C30.6715 69.1286 31.3968 51.5559 30.9078 35.5686C30.8234 32.8197 33.8083 31.5548 34.7864 31.5548C35.2249 31.3862 34.7864 31.5548 34.7864 31.5548Z" fill="#BCB5B5"/>
<path fill-rule="evenodd" clip-rule="evenodd" d="M3.80671 31.5551C8.83228 31.4877 13.4868 31.3191 17.9053 31.5889C20.3843 31.7407 21.5312 32.6345 21.548 35.2147C21.7335 61.9109 21.6661 89.6696 21.5649 116.366C21.548 118.946 20.2494 119.874 17.939 119.992C13.8073 120.211 8.19148 120.194 4.05972 119.992C1.71558 119.874 0.450697 118.946 0.416968 116.366C0.11341 89.7034 0.585653 61.8603 0.248366 35.2315C0.214638 32.6682 2.86231 31.572 3.80671 31.5551C4.22832 31.3865 3.80671 31.5551 3.80671 31.5551Z" fill="#BCB5B5"/>
<path fill-rule="evenodd" clip-rule="evenodd" d="M101.553 1.04735C106.579 0.979897 111.234 0.811235 115.652 1.08106C118.165 1.23284 119.295 2.12668 119.311 4.74065C119.48 31.42 119.43 59.1787 119.328 85.8581C119.312 88.472 118.03 89.3827 115.686 89.5176C111.537 89.7368 105.955 89.7368 101.789 89.5176C99.4622 89.3996 98.1973 88.472 98.1636 85.8581C97.8769 59.2293 98.3322 31.3525 97.995 4.77436C97.9781 2.16039 100.609 1.06422 101.553 1.04735C101.975 0.861846 101.553 1.04735 101.553 1.04735Z" fill="#BCB5B5"/>
<path fill-rule="evenodd" clip-rule="evenodd" d="M30.8908 116.669C30.8234 111.661 30.6546 106.972 30.9244 102.571C31.0762 100.075 31.97 98.9281 34.5503 98.9112C61.2634 98.7257 89.0052 98.7763 115.701 98.8943C118.282 98.9112 119.209 100.21 119.327 102.554C119.53 106.686 119.546 112.285 119.327 116.433C119.209 118.761 118.282 120.025 115.701 120.059C89.0389 120.363 61.1959 119.89 34.584 120.228C32.0038 120.245 30.9077 117.614 30.8908 116.669C30.7053 116.248 30.8908 116.669 30.8908 116.669Z" fill="#BCB5B5"/>
<path fill-rule="evenodd" clip-rule="evenodd" d="M0.401325 18.8412C0.333868 13.8156 0.165258 9.16109 0.435087 4.74264C0.586866 2.22985 1.46389 1.09992 4.09472 1.08305C30.7741 0.897547 58.5496 0.965039 85.2121 1.06623C87.8261 1.08309 88.7368 2.36475 88.8717 4.72576C89.091 8.87438 89.091 14.4565 88.8717 18.6051C88.7537 20.9324 87.8261 22.1972 85.2121 22.2309C58.5833 22.5176 30.7067 22.0623 4.12848 22.3996C1.51451 22.4165 0.41819 19.7856 0.401325 18.8412C0.215818 18.4196 0.401325 18.8412 0.401325 18.8412Z" fill="#BCB5B5"/>
<path d="M191.102 27.3387C191.102 45.0294 191.102 62.7032 191.102 80.3938C187.982 80.3938 184.862 80.3938 181.742 80.3938C173.411 69.3814 165.081 58.3859 156.75 47.3735C156.901 58.3859 157.036 69.3814 157.188 80.3938C153.41 80.3938 149.633 80.3938 145.855 80.3938C145.838 62.9561 145.872 45.5859 145.838 28.1144C147.575 27.4061 148.604 26.2931 150.763 26.6641C154.237 27.2544 155.299 27.5242 158.014 31.1332C164.878 40.1893 173.007 51.0837 180.174 60.5445C180.073 49.5321 179.887 38.4017 179.752 27.3556C183.53 27.3387 187.325 27.3555 191.102 27.3387Z" fill="#BCB5B5"/>
<path d="M235.995 53.8666C235.995 44.996 232.403 36.3277 222.52 36.3277C212.638 36.3277 209.046 44.9791 209.046 53.8666C209.046 62.7541 212.638 71.4224 222.52 71.4224C232.403 71.4224 235.995 62.7372 235.995 53.8666C236.282 53.8666 235.995 53.8666 235.995 53.8666ZM196.819 53.8666C196.819 37.7443 206.28 26.9849 222.621 26.9849C238.98 26.9849 248.222 37.778 248.222 53.8666C248.222 69.9552 238.98 80.7483 222.621 80.7483C206.28 80.7483 196.819 69.9889 196.819 53.8666C196.212 53.8666 196.819 53.8666 196.819 53.8666Z" fill="#BCB5B5"/>
<path d="M305.409 80.3946C304.313 68.9268 303.2 57.4591 302.104 45.9745C298.293 57.4423 294.481 68.91 290.67 80.3946C287.044 80.3946 283.401 80.3946 279.776 80.3946C275.796 68.775 271.816 57.1555 267.836 45.536C266.874 57.1555 265.913 68.775 264.952 80.3946C261.326 80.3946 257.683 80.3946 254.057 80.3946C256.031 62.9568 257.97 45.5697 259.96 28.1151C261.63 27.4912 263.957 26.4119 265.711 26.6311C269.826 27.1539 272.541 27.0696 274.227 31.7241C278.41 43.2931 282.423 56.2955 286.555 68.2186C290.754 54.9295 294.953 41.6235 299.136 28.267C300.957 27.6261 302.61 26.1758 304.768 26.6648C309.339 27.7104 310.84 27.4068 311.683 33.7141C313.606 47.9476 315.646 65.3853 317.585 80.344C313.521 80.462 309.474 80.3777 305.409 80.3946Z" fill="#BCB5B5"/>
<path d="M354.619 59.9716C352.41 52.8549 350.201 45.7381 347.974 38.6214C345.732 45.7381 343.505 52.8549 341.263 59.9716C345.732 59.9716 350.167 59.9716 354.619 59.9716ZM357.638 69.1289C351.179 69.1289 344.703 69.1289 338.244 69.1289C336.996 72.8897 335.748 76.6504 334.5 80.3943C330.689 80.3943 326.877 80.3943 323.066 80.3943C329.458 62.9566 335.849 45.5863 342.224 28.098C344.383 27.5752 346.086 26.1586 348.531 26.6646C353.017 27.5921 354.838 27.8788 356.896 33.4272C362.343 48.0148 368.431 65.1658 374.064 80.3606C369.848 80.4449 365.615 80.3774 361.382 80.3943C360.151 76.6335 358.903 72.8897 357.638 69.1289Z" fill="#BCB5B5"/>
<path d="M411.368 53.8664C411.368 43.0732 405.853 36.8165 395.178 35.7709C394.2 35.6698 392.547 35.889 391.518 35.8721C391.485 47.8795 391.501 59.8364 391.518 71.8438C392.598 71.8438 394.132 72.0798 395.195 71.9787C405.836 70.9331 411.368 64.6595 411.368 53.8664C411.722 53.8664 411.368 53.8664 411.368 53.8664ZM423.679 53.8664C423.577 71.7594 412.295 79.7869 395.144 81.0686C390.979 81.3721 384.115 80.6301 379.629 80.4277C379.511 62.6864 379.595 45.08 379.578 27.3388C384.688 27.1195 390.135 26.31 395.313 26.6979C411.924 27.929 423.78 35.9733 423.679 53.8664C424.404 53.8495 423.679 53.8664 423.679 53.8664Z" fill="#BCB5B5"/>
</svg>
