<svg width="400" height="121" viewBox="0 0 400 121" fill="none" xmlns="http://www.w3.org/2000/svg">
<path d="M352.467 52.9682H338.891V75.4315C338.891 81.8231 342.264 83.0205 346.631 83.0205C348.149 83.0205 349.785 82.8013 351.438 82.5652L352.467 92.6332C348.908 93.274 344.169 93.8137 341.1 93.8137C331.74 93.8137 323.443 90.542 323.443 79.0743V52.9682H315.567V43.052H323.443V32.1071L338.908 27.7393V43.052H352.483V52.9682H352.467Z" fill="#BCB5B5"/>
<path d="M310.863 92.7853H295.399V60.8273C295.399 56.1391 293.426 53.5419 288.097 53.5419C284.1 53.5419 281.503 55.4645 278.619 57.7749V92.7853H263.154V43.0355H278.18V47.4033C283.223 44.0136 288.99 41.855 295.247 41.855C305.113 41.855 310.863 47.9767 310.863 57.3195V92.7853Z" fill="#BCB5B5"/>
<path d="M231.936 0.705566C224.111 13.9609 227.518 25.9683 219.861 33.6079C213.706 39.7634 208.006 39.5778 201.31 39.5778C198.983 39.5778 194.447 39.7633 192.558 41.1462C191.445 37.6553 190.973 33.7934 190.973 30.117C190.973 23.8097 192.389 18.1939 196.926 13.6574C205.628 4.97223 221.362 2.20649 231.936 0.705566Z" fill="#BCB5B5"/>
<path d="M97.4255 43.0356L72.6181 103.292C68.8067 112.55 61.1503 119.347 50.7281 119.347C45.5171 119.347 42.7513 118.655 39.3447 117.896L41.5371 107.963C44.286 108.587 46.3603 108.84 48.2491 108.84C54.4721 108.84 57.7774 103.545 60.7962 96.2931L62.2465 92.7854L42.9874 43.0356H59.6157L68.6549 67.6913C69.7511 70.6594 70.3582 73.7118 70.8473 75.8704C71.4207 73.7118 72.5169 70.1197 73.6131 67.2528L82.9559 43.0356H97.4255Z" fill="#BCB5B5"/>
<path d="M42.8032 76.8821C42.8032 87.709 32.8027 93.6622 20.9133 93.6622C13.1726 93.6622 6.93282 92.3637 0.338867 89.716L4.58866 79.6479C8.50118 81.2332 14.1508 83.0039 18.7379 83.0039C22.33 83.0039 27.3555 82.5486 27.3555 78.1807C27.3555 76.1401 26.057 75.0946 23.7128 74.3863C20.7447 73.5093 16.2082 72.7336 13.2063 71.9072C6.89907 70.1702 1.67114 66.8647 1.67114 57.6062C1.67114 47.3527 10.4237 40.978 22.3974 40.978C30.3068 40.978 35.3155 42.0236 39.7677 43.3053L35.8214 53.3733C33.8483 52.4795 28.3674 51.1809 24.438 51.1809C20.1882 51.1809 17.2875 52.7999 17.2875 55.4139C17.2875 56.7124 18.0801 58.3483 20.3568 59.0566C22.7853 59.8493 26.6135 60.5407 29.8346 61.249C36.4117 62.7162 42.8032 66.5106 42.8032 76.8821Z" fill="#BCB5B5"/>
<path d="M384.895 79.5122V70.3212C377.745 70.2032 371.033 70.9114 371.033 77.7583C371.033 81.9913 374.608 83.3067 377.307 83.3067C380.528 83.3067 383.007 81.7045 384.895 79.5122ZM399.922 92.7845H385.334V88.8551C381.539 92.1942 376.632 93.8132 371.185 93.8132C361.926 93.8132 355.568 89.3272 355.568 79.9507C355.568 63.4574 372.028 60.894 384.879 60.8266V59.5111C384.879 55.4131 383.327 52.5125 375.991 52.5125C371.033 52.5125 365.383 54.9746 361.69 57.1838L357.896 47.9929C364.473 44.4345 372.618 41.8711 380.359 41.8711C392.231 41.8711 399.905 47.5375 399.905 57.4706V92.7845H399.922Z" fill="#BCB5B5"/>
<path d="M240.472 61.2651C240.742 55.801 237.993 52.3775 232.596 52.3775C227.385 52.3775 224.282 56.2058 223.405 61.2651H240.472ZM256.375 66.0882C256.375 67.7409 256.325 69.4442 256.24 71.1981H223.254C223.405 78.4329 226.998 82.7164 237.555 82.7164C242.226 82.7164 247.842 80.6084 250.253 78.922L254.335 88.1131C247.521 91.8063 240.185 93.8132 232.006 93.8132C216.542 93.8132 206.912 83.8464 206.912 67.977C206.912 51.8379 219.544 41.8711 233.17 41.8711C250.169 41.8711 256.375 51.7873 256.375 66.0882Z" fill="#BCB5B5"/>
<path d="M191.478 100.947C191.478 96.8996 188.223 95.4156 184.917 95.4156H171.359C169.301 96.5961 166.114 99.1763 166.114 102.549C166.114 106.917 171.999 109.851 178.947 109.851C186.132 109.851 191.478 106.546 191.478 100.947ZM187.396 58.2129C187.396 54.0474 185.086 50.6407 179.959 50.6407C175.271 50.6407 172.37 54.6039 172.37 58.2129C172.37 62.3952 174.967 65.8018 179.673 65.8018C184.816 65.8018 187.396 62.3615 187.396 58.2129ZM206.942 98.9233C206.942 113.427 192.473 120.155 178.205 120.223C165.642 120.274 153.55 116.665 153.55 104.607C153.55 98.9739 158.542 95.1963 161.577 93.2231C159.891 92.2619 158.373 91.5199 157.058 90.019C155.675 88.4337 154.579 86.157 154.579 82.2782C154.579 77.4213 158.862 72.9354 164.056 70.0179C161.172 68.5001 157.344 66.0547 157.344 57.9092C157.344 47.3016 167.395 41.7026 180.55 41.7026C191.714 41.7026 202.439 44.3841 202.439 57.4708C202.439 69.9673 190.685 74.5375 178.813 74.5375C176.586 74.5375 174.613 74.1834 172.674 73.8124C171.409 74.487 168.879 76.1564 168.879 78.0452C168.879 81.8734 174.091 82.4131 176.468 82.4131H188.729C200.078 82.43 206.942 87.9446 206.942 98.9233Z" fill="#BCB5B5"/>
<path d="M148.322 92.7171H132.858V60.7592C132.858 56.0709 130.885 53.4739 125.572 53.4739C121.576 53.4739 118.979 55.3963 116.078 57.7068V92.7171H100.613V42.9674H115.639V47.3521C120.682 43.9624 126.466 41.8037 132.706 41.8037C142.572 41.8037 148.322 47.9255 148.322 57.2684V92.7171Z" fill="#BCB5B5"/>
</svg>
