<svg width="207" height="121" viewBox="0 0 207 121" fill="none" xmlns="http://www.w3.org/2000/svg">
<path fill-rule="evenodd" clip-rule="evenodd" d="M19.3264 90.5907L29.9847 115.027C30.5075 116.258 31.1483 117.186 31.8566 117.793C32.5818 118.4 33.5094 118.805 34.6393 119.007C34.926 119.058 35.0609 119.277 35.0609 119.682C35.0609 120.12 34.8922 120.323 34.5212 120.306C34.3188 120.289 34.0153 120.238 33.6275 120.171C32.4301 119.901 30.4907 119.783 27.8092 119.783C25.1278 119.783 23.3065 119.918 22.3283 120.154C22.0922 120.221 21.8899 120.255 21.7212 120.255C21.2828 120.255 21.0635 120.036 21.0635 119.597C21.0635 119.378 21.2321 119.209 21.5863 119.108C22.3283 118.889 22.9523 118.501 23.4413 117.928C23.9304 117.354 24.1834 116.764 24.1834 116.14C24.1834 115.263 23.5089 113.341 22.1428 110.356C21.7212 109.445 21.2659 108.939 20.76 108.804C20.254 108.669 18.4664 108.602 15.3802 108.602H12.2097L10.1017 108.973C9.52831 109.243 8.87054 110.271 8.14537 112.059L7.42022 113.863C7.20098 114.369 7.09979 114.909 7.09979 115.432C7.09979 117.388 8.46581 118.535 11.2147 118.855C11.8049 118.94 12.0917 119.159 12.0748 119.53C12.0411 119.935 11.7712 120.137 11.2316 120.137C10.9449 120.137 10.557 120.086 10.0342 119.985C9.00545 119.766 8.07799 119.665 7.2685 119.665C6.52647 119.665 5.34597 119.749 3.69327 119.901C2.47904 120.036 1.72008 120.086 1.41652 120.086C0.97805 120.086 0.758789 119.901 0.758789 119.513C0.758789 119.193 0.97805 118.957 1.41652 118.788C2.25974 118.518 2.93433 118.046 3.44026 117.321C3.94619 116.612 4.70513 115.128 5.70013 112.852L12.0917 98.1459C12.5976 96.9654 12.9686 96.1728 13.171 95.7512L15.3465 91.2822C16.0885 89.815 16.4764 89.0898 16.4764 89.0898C16.4764 89.1404 16.4764 89.1572 16.4764 89.1572C16.4764 89.1572 16.6113 88.8537 16.8474 88.2634C17.1004 87.6563 17.3028 87.3696 17.4714 87.3696C17.7244 87.3696 18.1629 88.0273 18.77 89.3259L19.3264 90.5907ZM20.2034 105.263L17.151 98.1122C16.4089 96.392 15.903 95.5488 15.5826 95.5488C15.3971 95.5488 15.0598 96.1054 14.5539 97.2015L14.1154 98.1797L11.3834 104.419L11.1304 105.01C11.0123 105.246 10.9787 105.448 10.9787 105.617C10.9787 106.157 11.5352 106.409 12.6482 106.409H19.5626C20.1697 106.409 20.4564 106.241 20.4564 105.92C20.4564 105.853 20.4227 105.718 20.3384 105.533L20.2034 105.263Z" fill="#BCB5B5"/>
<path fill-rule="evenodd" clip-rule="evenodd" d="M40.1029 94.1831C40.1029 92.6822 39.6813 91.5186 38.8718 90.7259C38.0455 89.9164 36.8818 89.5117 35.3809 89.5117C34.8918 89.5117 34.6558 89.3093 34.6558 88.9046C34.6558 88.6179 34.7569 88.4492 34.9593 88.3481C35.1617 88.2637 35.6001 88.2131 36.2916 88.2131L39.85 88.2637C40.6595 88.2637 41.3846 88.2469 42.0255 88.2131C43.0036 88.1457 44.3528 88.0445 46.0729 87.8759C48.3834 87.6566 50.2215 87.5386 51.5706 87.5386C56.8492 87.5386 61.099 88.8877 64.2864 91.6029C67.4738 94.3011 69.0758 97.9101 69.0758 102.413C69.0758 108.214 66.934 112.818 62.6505 116.259C59.4969 118.771 55.9554 120.019 52.0091 120.019C51.3514 120.019 50.036 119.952 48.0629 119.834C46.933 119.766 45.7862 119.733 44.6057 119.733C41.823 119.733 39.9849 119.817 39.0573 120.002C38.3322 120.154 37.86 120.222 37.607 120.222C37.2529 120.222 37.0673 119.986 37.0673 119.53C37.0673 119.21 37.2528 119.007 37.6576 118.923C38.6188 118.738 39.2766 118.333 39.6139 117.726C39.9512 117.119 40.1367 116.073 40.1367 114.589V94.1831H40.1029ZM45.4657 92.9183V113.442L45.7525 115.567C46.2584 117.372 48.181 118.282 51.5201 118.282C55.1291 118.282 57.9959 117.034 60.104 114.521C62.212 112.026 63.2745 108.653 63.2745 104.386C63.2745 99.9338 62.0097 96.2912 59.4632 93.4917C56.9167 90.6922 53.6281 89.2925 49.5975 89.2925C47.9448 89.2925 46.8149 89.5117 46.2078 89.9502C45.7187 90.3043 45.4657 91.2824 45.4657 92.9183Z" fill="#BCB5B5"/>
<path fill-rule="evenodd" clip-rule="evenodd" d="M81.8435 93.374V98.4502C81.8435 99.9005 81.9446 100.828 82.1639 101.216C82.3663 101.604 82.8891 101.806 83.6986 101.806L84.4069 101.789L85.4356 101.772H87.4255C88.9771 101.772 90.1744 100.929 91.0177 99.2259L91.5573 98.0792C91.6922 97.7925 91.9283 97.6576 92.2487 97.6407C92.586 97.6238 92.7547 97.8262 92.7547 98.2647C92.7547 98.3996 92.7378 98.72 92.7041 99.2934C92.6872 99.6982 92.6703 100.035 92.6703 100.322C92.6703 100.828 92.7379 101.992 92.8728 103.83C92.9571 105.027 93.0076 106.073 93.0076 106.967L93.0245 108.164C93.0245 108.383 93.0077 108.535 92.9571 108.619C92.8896 108.704 92.7715 108.771 92.586 108.771C92.1981 108.805 91.9621 108.501 91.8609 107.877C91.6585 106.545 91.1863 105.55 90.4611 104.859C90.0564 104.488 89.5674 104.252 88.9603 104.133C88.37 104.032 87.2738 103.982 85.6717 103.982H84.0696C83.3107 103.982 82.8048 104.1 82.535 104.319C82.2483 104.555 82.0796 105.01 81.9784 105.685C81.8772 106.461 81.8266 107.692 81.8266 109.378V111.486C81.8266 113.679 81.9952 115.264 82.3494 116.225C82.6192 116.933 82.9228 117.406 83.277 117.642C83.6311 117.895 84.1876 118.013 84.9465 118.013C91.2875 118.013 95.4362 116.09 97.3924 112.228C97.5105 112.043 97.5948 111.942 97.6791 111.925C97.8309 111.891 97.9827 111.942 98.1176 112.077C98.2525 112.211 98.3199 112.38 98.3199 112.582C98.3199 114.117 97.8984 115.601 97.0889 117.052C96.3974 118.266 95.5373 119.16 94.5086 119.665C93.4799 120.188 92.1139 120.458 90.4106 120.458C89.3987 120.458 88.3025 120.391 87.0882 120.273L84.3731 120.02C83.3781 119.935 82.029 119.885 80.3257 119.885C79.1958 119.885 77.4588 119.952 75.1315 120.104C74.4906 120.155 74.0353 120.171 73.7486 120.171C73.3776 120.171 73.1752 120.003 73.1415 119.649C73.1246 119.362 73.2933 119.16 73.6643 119.025C74.5581 118.687 75.1652 118.316 75.4688 117.945C75.7892 117.557 76.0421 116.883 76.2276 115.905C76.3963 115.078 76.4806 113.948 76.4806 112.532V93.998C76.4806 92.2441 76.1939 91.0636 75.6205 90.4396C75.0471 89.8157 73.8667 89.3772 72.0791 89.1242C71.6574 89.0567 71.4551 88.8207 71.4551 88.4328C71.4551 88.0618 71.708 87.8763 72.2308 87.8763C72.332 87.8763 72.5681 87.8931 72.9391 87.91C73.2258 87.9269 73.5968 87.9268 74.0859 87.9268L76.4469 88.0112L85.3175 88.0955C90.4274 88.0955 93.5642 88.028 94.7447 87.8763C94.8796 87.8594 94.9808 87.8594 95.0651 87.8594C95.5205 87.8594 95.7396 88.1124 95.7396 88.6183C95.7396 88.9724 95.7903 89.6133 95.8915 90.5408C96.0264 91.89 96.077 92.8681 96.077 93.4583C96.077 94.6388 95.7735 95.246 95.1832 95.2797C94.8796 95.2966 94.7447 94.9593 94.7447 94.251C94.7447 92.7163 94.1713 91.6033 93.0414 90.9118C91.9115 90.2204 90.0732 89.8662 87.5267 89.8662H84.6767L83.0746 90.0517C82.282 90.3047 81.8772 91.0973 81.8772 92.4128L81.8435 93.374Z" fill="#BCB5B5"/>
<path fill-rule="evenodd" clip-rule="evenodd" d="M110.056 112.682C110.056 115.6 110.41 117.236 111.101 117.607C111.489 117.809 112.248 117.91 113.378 117.91C118.657 117.91 122.4 116.359 124.61 113.256C125.301 112.311 125.723 111.839 125.908 111.839C126.195 111.839 126.347 112.16 126.347 112.801C126.347 114.791 125.689 116.561 124.391 118.113C123.261 119.479 121.692 120.17 119.736 120.17C119.331 120.17 118.589 120.137 117.51 120.052C117.223 120.035 116.296 119.985 114.694 119.884L112.147 119.765C111.287 119.715 110.326 119.698 109.229 119.698C107.425 119.698 105.469 119.816 103.378 120.069C102.737 120.136 102.315 120.187 102.096 120.187C101.641 120.187 101.421 119.985 101.421 119.58C101.421 119.293 101.624 119.108 102.028 118.99C103.04 118.703 103.715 118.163 104.103 117.354C104.491 116.561 104.676 115.246 104.676 113.408V93.845C104.676 91.3491 103.631 89.9325 101.556 89.6121L100.156 89.376C99.5493 89.2748 99.2627 89.0387 99.2627 88.6508C99.2627 88.1786 99.4988 87.9256 99.971 87.9256C100.123 87.9256 100.359 87.9425 100.646 87.9931C100.865 88.0099 101.168 88.0437 101.556 88.0943L102.568 88.1617C103.513 88.2629 104.221 88.3135 104.693 88.3135C105.452 88.3135 106.632 88.2123 108.268 88.0268C109.482 87.8919 110.73 87.8413 111.995 87.8413C112.923 87.8413 113.395 88.0605 113.395 88.5159C113.395 88.9038 113.058 89.1061 112.4 89.1399C110.832 89.2579 110.039 90.3372 110.039 92.3947V112.682H110.056Z" fill="#BCB5B5"/>
<path fill-rule="evenodd" clip-rule="evenodd" d="M137.123 112.701L137.309 115.045C137.494 116.242 137.95 117.17 138.675 117.81C139.4 118.451 140.344 118.772 141.525 118.772C142.284 118.772 142.672 119.008 142.672 119.48C142.672 119.935 142.166 120.171 141.154 120.171C140.715 120.171 140.108 120.138 139.282 120.037C137.258 119.8 135.606 119.682 134.341 119.682C132.789 119.682 131.541 119.767 130.647 119.935C129.872 120.087 129.298 120.171 128.961 120.171C128.624 120.171 128.405 120.003 128.303 119.665L128.253 119.48L128.927 118.923C130.057 118.519 130.799 118.03 131.17 117.439C131.541 116.849 131.727 115.888 131.727 114.539L131.744 112.464V93.8462C131.744 92.4127 131.491 91.4009 130.985 90.7938C130.496 90.1867 129.568 89.7819 128.253 89.5795C127.46 89.4446 126.937 89.3266 126.718 89.2085C126.482 89.0905 126.381 88.8881 126.381 88.6014C126.381 88.1461 126.566 87.9437 126.937 87.9606C127.224 87.9774 127.646 88.0449 128.202 88.1461C128.759 88.281 129.703 88.3316 131.035 88.3316C131.912 88.3316 132.992 88.281 134.29 88.1798L135.993 88.0449C137.612 87.9268 138.844 87.8594 139.687 87.8594C140.21 87.8594 140.463 88.0449 140.463 88.4328C140.463 88.7195 140.429 88.905 140.344 88.9893C140.277 89.0905 140.075 89.1579 139.754 89.2085C138.624 89.394 137.899 89.7145 137.579 90.1361C137.258 90.5745 137.107 91.4683 137.107 92.8175V112.701H137.123Z" fill="#BCB5B5"/>
<path fill-rule="evenodd" clip-rule="evenodd" d="M156.805 93.272L169.166 107.185L169.959 108.079C171.005 109.276 171.73 109.866 172.084 109.866C172.404 109.866 172.59 109.394 172.624 108.433C172.759 104.993 172.826 101.704 172.826 98.5842C172.826 94.9247 172.455 92.4456 171.713 91.1471C170.971 89.8485 169.521 89.1234 167.362 88.9716C166.856 88.9378 166.603 88.7692 166.603 88.4319C166.603 88.0272 166.822 87.8248 167.278 87.8248C167.851 87.8248 168.745 87.9091 169.993 88.0609C170.802 88.1621 171.477 88.2127 172 88.2127C173.079 88.2127 174.782 88.0609 177.126 87.7742C177.43 87.7405 177.666 87.7236 177.801 87.7236C178.307 87.7236 178.56 87.9429 178.56 88.3982C178.56 88.8029 178.307 89.039 177.801 89.1233C175.777 89.4944 174.765 91.282 174.765 94.4694V95.6161L174.428 110.204L174.344 112.211L174.327 114.808L174.344 116.578L174.428 119.496C174.428 119.934 174.276 120.137 173.956 120.12C173.669 120.103 173.382 119.934 173.096 119.614L151.83 95.9871C151.459 95.5824 151.206 95.38 151.054 95.38C150.683 95.38 150.498 95.7342 150.498 96.4256L150.481 97.1002V106.173C150.481 111.013 150.717 114.268 151.206 115.904C151.712 117.658 153.246 118.636 155.759 118.872C156.231 118.923 156.468 119.108 156.468 119.462C156.468 119.934 156.231 120.171 155.742 120.171C155.557 120.171 155.253 120.137 154.832 120.069C153.516 119.85 152.066 119.732 150.464 119.732C148.879 119.732 147.462 119.85 146.231 120.069C145.691 120.154 145.287 120.204 145.034 120.204C144.612 120.204 144.41 120.019 144.41 119.631C144.41 119.311 144.629 119.091 145.084 118.956C146.231 118.636 147.057 117.961 147.58 116.933C148.103 115.904 148.356 114.437 148.356 112.531L148.525 106.966V96.8304C148.525 92.024 146.754 89.5112 143.212 89.2583C142.723 89.2245 142.487 89.039 142.487 88.668C142.487 88.2296 142.757 88.0103 143.28 88.0103L144.899 88.0778L145.894 88.0609C147.108 88.0609 148.423 87.9934 149.823 87.8417C150.346 87.7911 150.767 87.7742 151.122 87.7742C151.611 87.7742 151.982 87.8754 152.268 88.0946C152.555 88.297 153.145 88.9547 154.039 90.034L155.658 91.9228C156.299 92.6649 156.687 93.1202 156.805 93.272Z" fill="#BCB5B5"/>
<path fill-rule="evenodd" clip-rule="evenodd" d="M190.382 93.374V98.4502C190.382 99.9005 190.483 100.828 190.702 101.216C190.904 101.604 191.427 101.806 192.237 101.806L192.945 101.789L193.974 101.772H195.964C197.515 101.772 198.713 100.929 199.556 99.2259L200.095 98.0792C200.23 97.7925 200.466 97.6576 200.787 97.6407C201.124 97.6238 201.293 97.8262 201.293 98.2647C201.293 98.3996 201.276 98.72 201.242 99.2934C201.225 99.6982 201.209 100.035 201.209 100.322C201.209 100.828 201.276 101.992 201.411 103.83C201.495 105.027 201.546 106.073 201.546 106.967L201.563 108.164C201.563 108.383 201.546 108.535 201.495 108.619C201.428 108.704 201.31 108.771 201.124 108.771C200.736 108.805 200.5 108.501 200.399 107.877C200.197 106.545 199.724 105.55 198.999 104.859C198.595 104.488 198.105 104.252 197.498 104.133C196.908 104.032 195.812 103.982 194.21 103.982H192.608C191.849 103.982 191.343 104.1 191.073 104.319C190.786 104.555 190.618 105.01 190.516 105.685C190.415 106.461 190.365 107.692 190.365 109.378V111.486C190.365 113.679 190.533 115.264 190.888 116.225C191.157 116.933 191.461 117.406 191.815 117.642C192.169 117.895 192.726 118.013 193.485 118.013C199.826 118.013 203.974 116.09 205.931 112.228C206.049 112.043 206.133 111.942 206.217 111.925C206.369 111.891 206.521 111.942 206.656 112.077C206.791 112.211 206.858 112.38 206.858 112.582C206.858 114.117 206.436 115.601 205.627 117.052C204.936 118.266 204.075 119.16 203.047 119.665C202.018 120.188 200.652 120.458 198.949 120.458C197.937 120.458 196.841 120.391 195.626 120.273L192.911 120.02C191.916 119.935 190.567 119.885 188.864 119.885C187.734 119.885 185.997 119.952 183.67 120.104C183.029 120.155 182.573 120.171 182.287 120.171C181.916 120.171 181.713 120.003 181.68 119.649C181.663 119.362 181.831 119.16 182.202 119.025C183.096 118.687 183.703 118.316 184.007 117.945C184.327 117.557 184.58 116.883 184.766 115.905C184.934 115.078 185.019 113.948 185.019 112.532V93.998C185.019 92.2441 184.732 91.0636 184.159 90.4396C183.585 89.8157 182.405 89.3772 180.617 89.1242C180.196 89.0567 179.993 88.8207 179.993 88.4328C179.993 88.0618 180.246 87.8763 180.769 87.8763C180.87 87.8763 181.106 87.8931 181.477 87.91C181.764 87.9269 182.135 87.9268 182.624 87.9268L184.985 88.0112L193.856 88.0955C198.965 88.0955 202.102 88.028 203.283 87.8763C203.418 87.8594 203.519 87.8594 203.603 87.8594C204.059 87.8594 204.278 88.1124 204.278 88.6183C204.278 88.9724 204.328 89.6133 204.43 90.5408C204.564 91.89 204.615 92.8681 204.615 93.4583C204.615 94.6388 204.312 95.246 203.721 95.2797C203.418 95.2966 203.283 94.9593 203.283 94.251C203.283 92.7163 202.709 91.6033 201.579 90.9118C200.45 90.2204 198.611 89.8662 196.065 89.8662H193.215L191.613 90.0517C190.82 90.3047 190.415 91.0973 190.415 92.4128L190.382 93.374Z" fill="#BCB5B5"/>
<path fill-rule="evenodd" clip-rule="evenodd" d="M81.7915 50.538L88.8744 58.7677V13.6894C90.5777 15.3253 92.8208 16.9442 95.5865 18.5632C98.3523 20.1822 100.848 21.4133 103.041 22.2059V15.359C99.0774 13.5039 95.6202 11.2609 92.6689 8.59638C89.7008 5.94868 87.5928 3.38531 86.3617 0.90625H81.8084V50.538H81.7915Z" fill="#BCB5B5"/>
<path fill-rule="evenodd" clip-rule="evenodd" d="M104.693 67.3016V60.4547C108.656 58.5996 112.113 56.3566 115.065 53.6921C118.033 51.0444 120.141 48.481 121.372 46.002C122.89 46.002 124.289 50.5385 125.807 50.5385C123.8 56.0194 116.178 63.1024 104.693 67.3016Z" fill="#BCB5B5"/>
<path fill-rule="evenodd" clip-rule="evenodd" d="M114.323 44.6356C113.126 45.7824 111.558 46.9123 109.635 48.0591C107.696 49.189 105.959 50.0491 104.407 50.6056V45.8161C107.173 44.5176 109.601 42.9492 111.676 41.0772C113.75 39.2222 115.217 37.4346 116.094 35.6807H119.282V44.6187H114.323V44.6356Z" fill="#BCB5B5"/>
<path fill-rule="evenodd" clip-rule="evenodd" d="M93.3273 44.6356C94.5246 45.7824 96.0931 46.9123 98.0156 48.0591C99.955 49.189 101.692 50.0491 103.243 50.6056V45.8161C100.478 44.5176 98.0493 42.9492 95.975 41.0772C93.9007 39.2222 92.4335 37.4346 91.5565 35.6807H88.3691V44.6187H93.3273V44.6356Z" fill="#BCB5B5"/>
<path fill-rule="evenodd" clip-rule="evenodd" d="M93.3266 35.6975C94.524 34.5507 96.0924 33.4208 98.015 32.274C99.9544 31.1441 101.691 30.2841 103.243 29.7275V34.517C100.477 35.8156 98.0487 37.3839 95.9743 39.2559C93.9 41.111 92.416 42.8986 91.5559 44.6525H87.188V35.7144H93.3266V35.6975Z" fill="#BCB5B5"/>
<path fill-rule="evenodd" clip-rule="evenodd" d="M114.323 35.6975C113.126 34.5507 111.558 33.4208 109.635 32.274C107.696 31.1441 105.959 30.2841 104.407 29.7275V34.517C107.173 35.8156 109.601 37.3839 111.676 39.2559C113.75 41.111 115.217 42.8986 116.094 44.6525H119.282V35.7144H114.323V35.6975Z" fill="#BCB5B5"/>
<path fill-rule="evenodd" clip-rule="evenodd" d="M103.883 36.811C102.484 36.811 101.354 37.9409 101.354 39.3407C101.354 40.7404 102.484 41.8703 103.883 41.8703C105.283 41.8703 106.413 40.7404 106.413 39.3407C106.413 37.9578 105.283 36.811 103.883 36.811Z" fill="#BCB5B5"/>
<path fill-rule="evenodd" clip-rule="evenodd" d="M102.904 67.3013V60.4543C98.9407 58.5993 95.4836 56.3563 92.5323 53.6918C91.1157 52.4269 89.8846 51.179 88.8727 49.9479C88.8727 49.9479 88.8727 49.9479 88.8727 49.931C87.2031 47.9242 84.9265 49.7624 81.8066 50.5213C83.8135 56.019 91.4361 63.1021 102.904 67.3013Z" fill="#BCB5B5"/>
<path fill-rule="evenodd" clip-rule="evenodd" d="M125.823 50.538L118.74 58.7677V13.6894C117.037 15.3253 114.794 16.9442 112.028 18.5632C109.262 20.1822 106.767 21.4133 104.574 22.2059V15.359C108.537 13.5039 111.994 11.2609 114.946 8.59638C117.914 5.94868 120.022 3.38531 121.253 0.90625H125.806V50.538H125.823Z" fill="#BCB5B5"/>
<path fill-rule="evenodd" clip-rule="evenodd" d="M104.693 67.3013V60.4543C108.656 58.5993 112.113 56.3563 115.065 53.6918C116.481 52.4269 117.712 51.179 118.724 49.9479C118.724 49.9479 118.724 49.9479 118.724 49.931C120.394 47.9242 122.671 49.7624 125.79 50.5213C123.8 56.019 116.178 63.1021 104.693 67.3013Z" fill="#BCB5B5"/>
</svg>
