<svg width="543" height="120" viewBox="0 0 543 120" fill="none" xmlns="http://www.w3.org/2000/svg">
<path fill-rule="evenodd" clip-rule="evenodd" d="M59.8673 0.0195312L0.251953 59.8879L30.0006 59.6688L59.9348 29.6165L59.8673 0.0195312Z" fill="#BCB5B5"/>
<path fill-rule="evenodd" clip-rule="evenodd" d="M15.2764 44.8257L35.6316 54.0168L29.999 59.6664L15.2764 44.8257Z" fill="#BCB5B5"/>
<path fill-rule="evenodd" clip-rule="evenodd" d="M0.251953 59.9024L60.1372 119.518L60.0359 89.8872L15.2444 44.8257L0.251953 59.9024Z" fill="#BCB5B5"/>
<path fill-rule="evenodd" clip-rule="evenodd" d="M45.1611 104.677L55.4314 85.3164L59.9849 89.8529L45.1611 104.677Z" fill="#BCB5B5"/>
<path fill-rule="evenodd" clip-rule="evenodd" d="M60.1367 119.517L119.752 59.6489L90.1553 59.6995L45.1611 104.677L60.1367 119.517Z" fill="#BCB5B5"/>
<path fill-rule="evenodd" clip-rule="evenodd" d="M500.836 29.4957V32.6324H477.564V26.6119C477.564 24.7736 477.817 23.2896 478.339 22.1596C478.862 21.0129 479.604 20.1359 480.599 19.5288C481.577 18.9048 482.724 18.4664 484.04 18.1797C485.355 17.893 486.991 17.6569 488.93 17.4883C491.578 17.2353 493.366 16.9824 494.31 16.7463C495.254 16.5102 495.996 15.9198 496.519 14.9923C497.042 14.0648 497.295 12.4964 497.295 10.2872C497.295 8.5839 497.042 7.20102 496.536 6.1723C496.03 5.12671 495.187 4.38472 494.04 3.89566C492.893 3.42345 491.342 3.1705 489.403 3.1705C487.16 3.1705 485.422 3.42338 484.208 3.92931C482.994 4.43524 482.168 5.17729 481.712 6.15542C481.274 7.13355 481.038 8.43208 481.038 10.0342V11.3665H477.547C477.547 9.14045 477.749 7.3191 478.12 5.88563C478.508 4.45217 479.149 3.30533 480.026 2.44525C480.92 1.58516 482.117 0.961225 483.635 0.59021C485.153 0.202331 487.092 0.0167779 489.453 0.0167779C492.118 0.0167779 494.276 0.354126 495.929 1.0287C497.582 1.70327 498.796 2.78259 499.605 4.30038C500.398 5.81817 500.803 7.80819 500.803 10.3378C500.803 12.3953 500.617 14.048 500.246 15.2791C499.875 16.5102 499.285 17.4714 498.442 18.1628C497.615 18.8542 496.553 19.377 495.254 19.7312C493.956 20.0685 492.185 20.389 489.925 20.6419C487.733 20.878 486.249 21.0635 485.473 21.1647C484.697 21.2828 483.955 21.5357 483.23 21.8899C482.505 22.2609 481.948 22.8511 481.577 23.6437C481.19 24.4363 481.004 25.5494 481.004 26.966V29.5126H500.836V29.4957ZM511.343 32.6493H507.515V28.2983H511.343V32.6493ZM542.728 16.3921C542.728 19.7312 542.474 22.4632 541.952 24.6219C541.429 26.7805 540.636 28.4501 539.557 29.6812C538.478 30.8954 537.078 31.7723 535.375 32.2782C533.671 32.7842 531.547 33.0372 529.034 33.0372C526.504 33.0372 524.396 32.7842 522.71 32.2782C521.006 31.7723 519.623 30.8954 518.544 29.6812C517.465 28.4669 516.655 26.7636 516.149 24.605C515.627 22.4464 515.373 19.6975 515.373 16.3921C515.373 11.9736 515.829 8.60072 516.74 6.23972C517.65 3.87871 519.084 2.2598 521.023 1.34913C522.979 0.455316 525.644 0 529.034 0C532.423 0 535.088 0.438452 537.044 1.34913C539.001 2.24293 540.434 3.87871 541.361 6.23972C542.272 8.60072 542.728 11.9905 542.728 16.3921ZM539.102 16.3921C539.102 13.5589 538.95 11.2991 538.68 9.59581C538.393 7.90937 537.887 6.59393 537.179 5.66639C536.471 4.73885 535.476 4.08108 534.194 3.71007C532.929 3.33905 531.192 3.1705 529.017 3.1705C526.15 3.1705 524.025 3.52464 522.625 4.21608C521.225 4.90752 520.281 6.17234 519.758 8.01056C519.236 9.84877 518.982 12.6482 518.982 16.409C518.982 20.1528 519.252 22.9692 519.792 24.858C520.332 26.7468 521.31 28.0622 522.71 28.8042C524.126 29.5462 526.217 29.9173 529.034 29.9173C531.159 29.9173 532.862 29.715 534.143 29.3102C535.425 28.9055 536.42 28.214 537.145 27.2358C537.871 26.2577 538.377 24.9085 538.68 23.2052C538.95 21.4682 539.102 19.2084 539.102 16.3921Z" fill="#BCB5B5"/>
<path fill-rule="evenodd" clip-rule="evenodd" d="M181.712 38.2316H186.991C186.991 42.5657 186.434 45.9385 185.321 48.3333C184.208 50.728 182.269 52.4482 179.503 53.4938C176.737 54.5393 172.791 55.0621 167.647 55.0621C163.752 55.0621 160.598 54.7249 158.186 54.0334C155.758 53.342 153.818 52.1278 152.351 50.3908C150.884 48.6538 149.822 46.1578 149.164 42.9367C148.506 39.7156 148.169 35.4995 148.169 30.2715C148.169 25.0605 148.489 20.8445 149.147 17.6065C149.805 14.3517 150.867 11.8388 152.335 10.0344C153.819 8.22987 155.775 6.96507 158.22 6.25676C160.649 5.5316 163.802 5.17742 167.664 5.17742C171.526 5.17742 174.646 5.49793 177.041 6.10504C179.435 6.72902 181.274 7.69022 182.589 8.98878C183.888 10.2873 184.798 11.8726 185.321 13.7952C185.861 15.7008 186.198 18.1798 186.384 21.1985L181.122 21.1311C180.785 17.9269 180.312 15.5828 179.688 14.1156C179.064 12.6484 177.867 11.5859 176.079 10.9282C174.292 10.2705 171.509 9.93318 167.698 9.93318C164.814 9.93318 162.487 10.2199 160.716 10.7764C158.962 11.3498 157.562 12.3449 156.517 13.8121C155.488 15.2624 154.763 17.2861 154.324 19.9001C153.886 22.514 153.667 25.9711 153.667 30.2715C153.667 34.6057 153.886 38.046 154.308 40.6094C154.729 43.1559 155.454 45.1459 156.483 46.5625C157.512 47.9791 158.912 48.9573 160.665 49.4969C162.419 50.0366 164.78 50.2895 167.681 50.2895C170.632 50.2895 173.01 50.1041 174.815 49.733C176.636 49.3789 178.036 48.7381 179.048 47.8611C180.059 46.9842 180.751 45.7868 181.156 44.269C181.51 42.7512 181.712 40.7275 181.712 38.2316ZM198.56 27.1517H223.401V31.9074H198.56V49.6487H224.446V54.5393H193.146V5.70032H224.564V10.5235H198.56V27.1517ZM273.909 5.70032V54.5393H265.309L237.786 10.4054V54.5393H232.373V5.70032H240.973L268.479 50.2895V5.70032H273.909ZM295.175 54.5225V10.6416H279.205V5.68343H316.492V10.6416H300.656V54.5225H295.175ZM344.133 34.9599H327.572V54.5225H322.158V5.68343H345.364C350.221 5.68343 353.813 6.79645 356.123 9.02254C358.433 11.2486 359.614 14.8913 359.648 19.9506C359.631 22.4971 359.445 24.5883 359.125 26.1904C358.805 27.7925 358.045 29.1923 356.831 30.3391C355.617 31.5027 353.762 32.3122 351.232 32.7844C356.359 33.1554 358.923 36.2584 358.923 42.1103V54.4888H353.442V43.4258C353.442 41.3009 353.104 39.6312 352.413 38.3833C351.721 37.1353 350.71 36.2585 349.344 35.7357C348.011 35.2297 346.257 34.9599 344.133 34.9599ZM327.572 30.3391H343.542C346.156 30.3391 348.214 30.0861 349.698 29.5802C351.199 29.0742 352.312 28.1636 353.02 26.8481C353.745 25.5159 354.099 23.6271 354.099 21.148C354.099 18.6858 353.813 16.6789 353.206 15.1105C352.615 13.559 351.671 12.4123 350.372 11.6702C349.074 10.9451 347.404 10.574 345.347 10.574H327.555V30.3391H327.572ZM364.859 54.5225L382.667 5.68343H390.543L408.74 54.5225H402.955L399.296 44.4883H374.657L370.728 54.5225H364.859ZM397.542 39.7325L386.715 9.74769L375.956 39.7325H397.542ZM412.382 39.4626H417.796C417.796 42.0429 417.948 44.016 418.234 45.3651C418.538 46.7312 419.111 47.7599 419.954 48.4682C420.815 49.1597 422.046 49.6318 423.698 49.8679C425.334 50.104 427.746 50.2221 430.916 50.2221C433.733 50.2221 436.009 50.0534 437.713 49.6993C439.433 49.362 440.698 48.8223 441.558 48.0972C442.401 47.372 442.974 46.4613 443.261 45.3651C443.548 44.2521 443.699 42.7849 443.699 40.9636C443.699 38.6532 443.396 36.9161 442.789 35.7525C442.182 34.5888 440.984 33.7625 439.23 33.2566C437.477 32.7506 434.744 32.4639 431.051 32.3965C427.881 32.2447 425.199 31.9581 422.99 31.5196C420.798 31.098 418.943 30.4065 417.425 29.4452C415.907 28.4839 414.76 27.1517 413.968 25.4315C413.192 23.7113 412.787 21.4852 412.787 18.7869C412.787 16.291 413.141 14.183 413.816 12.4628C414.507 10.7427 415.57 9.34294 417.037 8.26362C418.504 7.18431 420.342 6.40861 422.619 5.90268C424.879 5.39675 427.645 5.16064 430.916 5.16064C434.896 5.16064 438.134 5.51479 440.58 6.20622C443.042 6.89766 444.914 8.21304 446.229 10.1693C447.528 12.1087 448.185 14.8744 448.185 18.4665L448.253 19.1918H442.924C442.924 17.3367 442.755 15.8189 442.451 14.6553C442.131 13.4916 441.541 12.5641 440.698 11.8726C439.838 11.1812 438.657 10.6921 437.122 10.3885C435.588 10.085 433.53 9.93318 430.95 9.93318C427.358 9.93318 424.66 10.2031 422.855 10.7427C421.051 11.2824 419.82 12.1424 419.162 13.3398C418.504 14.554 418.167 16.2573 418.167 18.4834C418.167 20.7769 418.572 22.4971 419.398 23.6608C420.224 24.8075 421.708 25.6339 423.85 26.1566C425.992 26.6794 429.264 27.0505 433.699 27.2866C437.342 27.489 440.276 27.9612 442.468 28.7369C444.678 29.5127 446.33 30.8281 447.494 32.6664C448.641 34.5214 449.214 37.1353 449.214 40.4913C449.214 43.4089 448.894 45.7867 448.253 47.6587C447.629 49.5137 446.6 50.9641 445.183 52.0435C443.784 53.1228 441.929 53.8648 439.618 54.3201C437.308 54.7586 434.424 54.9947 430.95 54.9947C426.515 54.9947 423.041 54.7249 420.511 54.1853C417.981 53.6456 416.008 52.4144 414.575 50.5087C413.141 48.6031 412.416 45.6855 412.416 41.7562V39.4626H412.382Z" fill="#BCB5B5"/>
<path fill-rule="evenodd" clip-rule="evenodd" d="M161.322 102.535H156.971V64.3371H161.322V102.535ZM201.24 64.3034V102.602H194.494L172.907 67.9966V102.602H168.658V64.3034H175.403L196.973 99.28V64.3034H201.24ZM206.552 90.7804H210.802C210.802 92.8041 210.92 94.3556 211.156 95.418C211.392 96.4974 211.847 97.29 212.505 97.8465C213.179 98.3862 214.158 98.7572 215.439 98.9427C216.721 99.1282 218.61 99.2125 221.089 99.2125C223.298 99.2125 225.069 99.0776 226.418 98.8078C227.767 98.538 228.762 98.1332 229.437 97.5598C230.094 97.0033 230.55 96.2781 230.769 95.418C231.005 94.5411 231.106 93.3943 231.106 91.9609C231.106 90.1395 230.87 88.7736 230.381 87.8797C229.909 86.9691 228.965 86.3282 227.582 85.9234C226.199 85.5187 224.057 85.2995 221.173 85.2489C218.677 85.1309 216.586 84.8947 214.849 84.5743C213.129 84.237 211.679 83.6974 210.481 82.9385C209.284 82.1965 208.39 81.134 207.766 79.7849C207.159 78.4357 206.838 76.6987 206.838 74.5738C206.838 72.6175 207.108 70.9648 207.648 69.6156C208.188 68.2665 209.031 67.1703 210.178 66.3271C211.324 65.4839 212.775 64.8768 214.545 64.472C216.316 64.0842 218.492 63.8818 221.055 63.8818C224.192 63.8818 226.722 64.1516 228.627 64.6913C230.55 65.2309 232.034 66.2596 233.063 67.7943C234.091 69.3289 234.597 71.4876 234.597 74.304L234.648 74.8604H230.465C230.465 73.4101 230.331 72.2128 230.094 71.3021C229.841 70.3914 229.386 69.6663 228.711 69.1266C228.037 68.587 227.109 68.1991 225.912 67.963C224.698 67.7269 223.096 67.6088 221.072 67.6088C218.255 67.6088 216.148 67.828 214.731 68.2328C213.314 68.6544 212.353 69.329 211.83 70.2734C211.307 71.2178 211.038 72.5501 211.038 74.304C211.038 76.1085 211.358 77.4576 212.016 78.3682C212.657 79.262 213.837 79.9198 215.507 80.3246C217.193 80.7293 219.756 81.0328 223.231 81.2183C226.081 81.3701 228.391 81.7411 230.111 82.3651C231.848 82.9722 233.147 84.0009 234.057 85.4513C234.951 86.9016 235.407 88.9591 235.407 91.5899C235.407 93.8835 235.154 95.7385 234.665 97.2057C234.176 98.656 233.366 99.8028 232.27 100.646C231.174 101.489 229.706 102.08 227.902 102.434C226.097 102.788 223.821 102.956 221.106 102.956C217.632 102.956 214.9 102.737 212.91 102.316C210.936 101.894 209.385 100.933 208.255 99.4318C207.125 97.9308 206.569 95.6541 206.569 92.568V90.7804H206.552ZM245.002 64.3034V91.1345C245.002 93.5461 245.272 95.3169 245.795 96.4131C246.318 97.5093 247.313 98.2513 248.763 98.6223C250.213 98.9933 252.558 99.1789 255.779 99.1789C259.034 99.1789 261.378 98.9933 262.845 98.6223C264.312 98.2513 265.307 97.5093 265.847 96.4131C266.369 95.3169 266.639 93.563 266.639 91.1345V64.3034H270.889V91.2526C270.889 94.8447 270.349 97.4924 269.236 99.1789C268.14 100.882 266.572 101.945 264.548 102.383C262.524 102.821 259.59 103.041 255.745 103.041C252.979 103.041 250.736 102.94 249.033 102.72C247.33 102.518 245.863 102.046 244.615 101.287C243.367 100.545 242.422 99.3474 241.764 97.7453C241.107 96.1432 240.769 93.9677 240.769 91.2357V64.2866H245.002V64.3034ZM295.359 87.2558H282.374V102.585H278.124V64.2866H296.321C300.132 64.2866 302.948 65.1635 304.753 66.9174C306.574 68.6713 307.485 71.5213 307.518 75.4844C307.502 77.4913 307.367 79.1272 307.114 80.392C306.861 81.6568 306.271 82.7361 305.309 83.6468C304.348 84.5575 302.898 85.1983 300.925 85.5693C304.938 85.856 306.962 88.3013 306.962 92.8884V102.585H302.661V93.9003C302.661 92.2308 302.392 90.9322 301.869 89.954C301.329 88.9759 300.537 88.2845 299.474 87.8797C298.412 87.4581 297.046 87.2558 295.359 87.2558ZM282.374 83.6299H294.887C296.944 83.6299 298.547 83.4276 299.71 83.0397C300.891 82.6518 301.751 81.9266 302.324 80.8979C302.898 79.8523 303.184 78.3682 303.184 76.4288C303.184 74.4894 302.948 72.921 302.493 71.6899C302.021 70.4757 301.296 69.5651 300.284 68.9917C299.272 68.4183 297.956 68.1316 296.337 68.1316H282.374V83.6299ZM311.617 102.585L325.58 64.2866H331.752L346.02 102.585H341.483L338.616 94.7098H319.307L316.237 102.585H311.617ZM337.25 90.9827L328.768 67.4571L320.335 90.9827H337.25ZM383.56 64.3034V102.602H376.814L355.228 67.9966V102.602H350.978V64.3034H357.724L379.293 99.28V64.3034H383.56ZM415.551 89.8191H419.683C419.683 93.2257 419.245 95.8565 418.368 97.7285C417.491 99.6004 415.973 100.966 413.797 101.776C411.622 102.585 408.536 103.007 404.505 103.007C401.453 103.007 398.974 102.737 397.085 102.198C395.179 101.658 393.661 100.713 392.515 99.3475C391.368 97.9815 390.525 96.0252 390.002 93.4956C389.479 90.9659 389.226 87.6605 389.226 83.5625C389.226 79.4813 389.479 76.1759 389.985 73.6294C390.491 71.0829 391.334 69.1097 392.498 67.6931C393.661 66.2765 395.196 65.2984 397.102 64.7251C399.007 64.1685 401.486 63.8818 404.505 63.8818C407.524 63.8818 409.969 64.1348 411.858 64.607C413.73 65.0961 415.18 65.8549 416.209 66.8668C417.221 67.8786 417.946 69.1266 418.351 70.6443C418.773 72.1453 419.042 74.0847 419.177 76.4457L415.045 76.3951C414.776 73.8824 414.405 72.0441 413.916 70.8974C413.427 69.7506 412.482 68.9074 411.082 68.4015C409.683 67.8787 407.49 67.6088 404.505 67.6088C402.245 67.6088 400.424 67.828 399.041 68.2665C397.658 68.7219 396.562 69.4976 395.753 70.6443C394.943 71.7743 394.37 73.3764 394.032 75.417C393.695 77.4744 393.526 80.1896 393.526 83.5456C393.526 86.9522 393.695 89.6505 394.032 91.6573C394.37 93.6642 394.943 95.2157 395.736 96.3288C396.545 97.4418 397.641 98.2176 399.024 98.6223C400.407 99.0439 402.245 99.2463 404.522 99.2463C406.832 99.2463 408.705 99.0945 410.121 98.8078C411.538 98.5211 412.651 98.032 413.443 97.3406C414.236 96.6492 414.776 95.7217 415.096 94.5243C415.4 93.3607 415.551 91.7753 415.551 89.8191ZM428.756 81.1171H448.234V84.8442H428.756V98.7573H449.061V102.585H424.506V64.2866H449.145V68.0642H428.739V81.1171H428.756Z" fill="#BCB5B5"/>
</svg>
