<svg width="204" height="121" viewBox="0 0 204 121" fill="none" xmlns="http://www.w3.org/2000/svg">
<path d="M0.676758 20.2666C0.676758 20.2666 44.8444 0.585938 102.487 0.585938C160.129 0.585938 203.335 20.334 203.335 20.334C203.335 20.334 161.124 5.40911 102.47 5.40911C43.8157 5.40911 0.676758 20.2666 0.676758 20.2666Z" fill="#BCB5B5"/>
<path d="M0.676758 20.2666C0.676758 20.2666 44.8444 0.585938 102.487 0.585938C160.129 0.585938 203.335 20.334 203.335 20.334C203.335 20.334 161.124 5.40911 102.47 5.40911C43.8157 5.40911 0.676758 20.2666 0.676758 20.2666Z" fill="#BCB5B5"/>
<path d="M0.677124 100.423C0.677124 100.423 44.8448 120.104 102.487 120.104C160.129 120.104 203.336 100.355 203.336 100.355C203.336 100.355 161.124 115.28 102.47 115.28C43.8161 115.264 0.677124 100.423 0.677124 100.423Z" fill="#BCB5B5"/>
<path d="M0.677124 100.423C0.677124 100.423 44.8448 120.104 102.487 120.104C160.129 120.104 203.336 100.355 203.336 100.355C203.336 100.355 161.124 115.28 102.47 115.28C43.8161 115.264 0.677124 100.423 0.677124 100.423Z" fill="#BCB5B5"/>
<path d="M40.1914 51.9549C35.9416 49.7625 31.6244 48.6663 27.2228 48.6663C24.2884 48.6663 22.0624 49.0036 20.494 49.7119C18.9425 50.4034 18.1667 51.3646 18.1667 52.5957C18.1667 53.8774 18.993 54.8049 20.6626 55.3952C21.8431 55.8168 23.7824 56.1035 26.4807 56.2721C30.4438 56.542 33.0578 56.7443 34.3058 56.913C37.8979 57.402 40.5455 58.2958 42.2657 59.5944C43.9858 60.9098 44.8291 62.7649 44.8291 65.1597C44.8291 68.229 43.4799 70.6068 40.7985 72.2932C38.1171 73.9797 34.2383 74.8061 29.2127 74.8061C21.9105 74.8061 16.2272 73.187 12.1629 69.9154L14.777 66.4413C19.2629 69.2071 24.086 70.6068 29.2634 70.6068C32.6025 70.6068 35.2165 70.1346 37.0547 69.2071C38.8254 68.2964 39.7025 67.0653 39.7025 65.4801C39.7025 63.6419 38.5387 62.4108 36.2283 61.7868C35.0141 61.4664 31.7425 61.129 26.4134 60.7918C21.6914 60.4713 18.3859 59.8305 16.4803 58.8692C14.271 57.7393 13.1578 55.8674 13.1578 53.2197C13.1578 50.5045 14.406 48.3459 16.9356 46.7775C19.4653 45.2091 23.0067 44.4165 27.5938 44.4165C33.7661 44.4165 38.9434 45.85 43.092 48.7001L40.1914 51.9549Z" fill="#BCB5B5"/>
<path d="M80.6484 49.4755H66.9545V74.148H62.2158V49.4755H48.5388V45.1582H80.6484V49.4755Z" fill="#BCB5B5"/>
<path d="M114.072 74.148H108.878L105.573 67.6552H86.2798L82.9743 74.148H77.7802L92.9243 45.1582H98.8943L114.072 74.148ZM103.279 63.3379L95.9768 49.29L88.5902 63.3379H103.279Z" fill="#BCB5B5"/>
<path d="M137.767 45.1582C142.742 45.1582 146.705 46.4905 149.606 49.1888C152.524 51.8702 153.974 55.4623 153.974 59.982C153.974 64.1137 152.439 67.554 149.353 70.3029C146.486 72.8663 142.928 74.148 138.678 74.148H119.655V45.1582H137.767ZM139.066 69.8138C141.916 69.8138 144.26 68.8863 146.082 67.0312C147.903 65.1593 148.83 62.7645 148.83 59.847C148.83 56.744 147.852 54.2312 145.879 52.3255C143.923 50.4199 141.343 49.4755 138.155 49.4755H124.394V69.8138H139.066Z" fill="#BCB5B5"/>
<path d="M192.358 74.148H187.164L183.858 67.6552H164.565L161.26 74.148H156.066L171.21 45.1582H177.18L192.358 74.148ZM181.548 63.3379L174.262 49.29L166.876 63.3379H181.548Z" fill="#BCB5B5"/>
</svg>
