<svg width="245" height="120" viewBox="0 0 245 120" fill="none" xmlns="http://www.w3.org/2000/svg">
<path d="M244.521 26.2188L209.999 31.9863L206.492 0.0454102L186.996 35.8146L153.504 41.6328L176.22 52.544C152.829 74.8892 125.037 87.8411 66.7539 105.532C128.056 95.9697 168.614 80.0329 194.737 64.7369L217.673 75.0748L212.816 51.5996C231.367 37.3155 244.521 26.2188 244.521 26.2188Z" fill="#BCB5B5"/>
<path d="M141.8 38.4455L144.902 32.5261C145.206 32.4923 147.921 32.1045 147.921 32.1045C155.898 31.0083 161.649 27.1464 165.022 20.6705C166.691 17.4831 167.079 14.9703 166.168 13.2333C165.207 11.4119 162.829 10.535 159.136 10.6193C158.58 10.6362 157.989 10.6699 157.365 10.7374C156.202 10.8554 153.672 11.0916 151.345 11.3108C149.489 11.4795 147.752 11.6481 146.926 11.7155L146.64 11.7492L131.731 39.9464L141.8 38.4455ZM152.778 17.6181C153.099 17.5843 153.335 17.5674 153.554 17.5505C153.79 17.5337 154.009 17.5168 154.33 17.4831C154.566 17.4494 154.802 17.4326 155.021 17.4326C156.151 17.3988 156.859 17.6518 157.129 18.1746C157.483 18.866 157.045 19.996 156.623 20.8054C156.589 20.8729 156.556 20.9403 156.505 21.0078C156.488 21.0247 156.488 21.0415 156.471 21.0752C156.438 21.1258 156.404 21.1932 156.37 21.2438C156.353 21.2607 156.353 21.2776 156.337 21.2945C156.303 21.3619 156.252 21.4294 156.202 21.5137C156.202 21.5306 156.185 21.5474 156.168 21.5643C156.134 21.6148 156.084 21.6824 156.05 21.733C156.033 21.7498 156.016 21.7666 156.016 21.8004C155.965 21.8678 155.915 21.9353 155.864 22.0027V22.0196C155.814 22.0871 155.763 22.1545 155.696 22.2389C155.679 22.2557 155.662 22.2725 155.645 22.2894C155.594 22.34 155.561 22.4075 155.51 22.4581C155.493 22.475 155.476 22.4918 155.476 22.5086C155.426 22.5761 155.358 22.6436 155.291 22.711C155.24 22.7616 155.207 22.7954 155.156 22.846C155.139 22.8628 155.139 22.8629 155.122 22.8797C155.089 22.9134 155.038 22.9641 155.004 22.9978C155.004 23.0146 154.987 23.0146 154.97 23.0314C154.92 23.082 154.869 23.1158 154.819 23.1664C154.802 23.1832 154.785 23.1833 154.785 23.2001C154.734 23.2339 154.684 23.2845 154.65 23.3182C154.633 23.3182 154.633 23.3351 154.616 23.3351C154.566 23.3857 154.515 23.4193 154.448 23.4699C154.431 23.4868 154.414 23.4868 154.414 23.5037C154.363 23.5543 154.296 23.588 154.245 23.6386C154.245 23.6386 154.245 23.6386 154.229 23.6386C154.161 23.6892 154.11 23.7229 154.043 23.7735C154.026 23.7903 154.009 23.7904 153.992 23.8072C153.925 23.8578 153.857 23.8916 153.79 23.9253H153.773C153.706 23.959 153.638 24.0096 153.571 24.0434C153.554 24.0602 153.537 24.0603 153.52 24.0771C153.453 24.1109 153.385 24.1614 153.301 24.1951C153.301 24.1951 153.284 24.212 153.267 24.212C153.2 24.2457 153.132 24.2794 153.065 24.3131C153.048 24.33 153.031 24.33 153.014 24.3469C152.947 24.3806 152.863 24.4144 152.778 24.4481C152.761 24.4481 152.744 24.465 152.728 24.465C152.66 24.4987 152.593 24.5324 152.508 24.5493C152.491 24.5493 152.475 24.5662 152.458 24.5662C152.373 24.5999 152.289 24.6336 152.205 24.6673C152.188 24.6673 152.171 24.6842 152.154 24.6842C152.087 24.7179 152.002 24.7348 151.918 24.7685C151.901 24.7685 151.884 24.7854 151.867 24.7854C151.783 24.8191 151.682 24.836 151.598 24.8697C151.581 24.8697 151.564 24.8866 151.547 24.8866C151.463 24.9034 151.378 24.9371 151.294 24.954C151.277 24.954 151.26 24.954 151.26 24.9709C151.159 24.9877 151.058 25.0214 150.957 25.0383C150.923 25.0383 150.906 25.0552 150.889 25.0552C150.788 25.072 150.704 25.089 150.603 25.1058H150.586C150.485 25.1227 150.367 25.1395 150.265 25.1564C150.249 25.1564 150.215 25.1564 150.181 25.1732C150.063 25.1901 149.962 25.207 149.844 25.2239C149.422 25.2745 149.22 25.3082 148.967 25.3419C148.849 25.3588 148.748 25.3588 148.596 25.3925L152.778 17.6181Z" fill="#BCB5B5"/>
<path d="M165.561 30.7215C166.691 32.897 168.934 34.0439 171.902 33.9764C172.375 33.9595 172.847 33.9258 173.353 33.8415C175.022 33.5885 178.176 33.0657 180.705 32.6609C182.291 32.408 183.573 32.1887 183.96 32.1381L184.23 32.1044L197.57 7.01025C197.57 7.01025 189.812 7.75232 183.994 8.30884C173.656 9.28697 168.175 18.1071 166.742 20.7885C164.667 24.6504 164.246 28.175 165.561 30.7215ZM175.562 20.9908C175.596 20.9065 175.646 20.839 175.697 20.7547C175.714 20.721 175.731 20.7041 175.747 20.6704C175.781 20.6198 175.815 20.5692 175.849 20.5017C175.865 20.468 175.882 20.4343 175.899 20.4005C175.933 20.3499 175.967 20.2994 176 20.2488C176.017 20.2151 176.051 20.1814 176.068 20.1476C176.102 20.097 176.135 20.0464 176.169 19.9958C176.186 19.9621 176.22 19.9283 176.236 19.8777C176.27 19.8272 176.304 19.7766 176.338 19.726C176.355 19.6923 176.388 19.6586 176.422 19.6248C176.456 19.5742 176.489 19.5236 176.54 19.473C176.557 19.4393 176.591 19.4056 176.608 19.3718C176.641 19.3212 176.692 19.2538 176.742 19.2032C176.776 19.1695 176.793 19.1358 176.81 19.1021C176.877 19.0177 176.928 18.9502 176.995 18.8659C176.995 18.8491 177.012 18.849 177.029 18.8322C177.097 18.7478 177.164 18.6636 177.248 18.5624C177.265 18.5287 177.299 18.5118 177.316 18.4781C177.366 18.4106 177.417 18.36 177.468 18.2925C177.501 18.2588 177.518 18.225 177.552 18.1913C177.602 18.1407 177.653 18.0902 177.704 18.0227C177.737 17.989 177.771 17.9553 177.805 17.9215C177.855 17.8709 177.906 17.8203 177.957 17.7697C177.99 17.736 178.024 17.7022 178.058 17.6685C178.108 17.6179 178.159 17.5674 178.21 17.5168C178.243 17.4831 178.277 17.4493 178.311 17.4156C178.361 17.365 178.412 17.3144 178.463 17.2638C178.496 17.2301 178.53 17.1964 178.564 17.1795C178.631 17.1289 178.682 17.0783 178.749 17.0109C178.766 16.9772 178.8 16.9602 178.834 16.9434C178.918 16.8759 178.985 16.8085 179.07 16.741C179.087 16.741 179.087 16.7241 179.103 16.7241C179.12 16.7073 179.137 16.6904 179.171 16.6736C179.238 16.623 179.289 16.5724 179.356 16.5218C179.39 16.5049 179.424 16.4712 179.441 16.4543C179.491 16.4206 179.542 16.37 179.592 16.3363C179.626 16.3194 179.66 16.2857 179.694 16.2689C179.744 16.2351 179.795 16.2014 179.845 16.1677C179.879 16.1339 179.913 16.117 179.947 16.1002C179.997 16.0664 180.048 16.0327 180.098 15.999C180.132 15.9821 180.166 15.9484 180.2 15.9315C180.25 15.8978 180.301 15.8641 180.351 15.8304C180.385 15.8135 180.419 15.7797 180.452 15.7628C180.503 15.7291 180.571 15.6954 180.621 15.6617C180.655 15.6448 180.672 15.628 180.705 15.6111C180.79 15.5605 180.874 15.5099 180.958 15.4762C180.975 15.4762 180.992 15.4593 180.992 15.4593C181.06 15.4256 181.144 15.3918 181.211 15.3581C181.245 15.3413 181.262 15.3245 181.296 15.3245C181.346 15.3076 181.414 15.2738 181.464 15.2569C181.498 15.2401 181.532 15.2233 181.566 15.2233C181.616 15.2064 181.667 15.1895 181.734 15.1558C181.768 15.1389 181.802 15.1389 181.852 15.122C181.903 15.1051 181.953 15.0883 182.004 15.0715C182.038 15.0546 182.088 15.0546 182.122 15.0377C182.173 15.0208 182.24 15.004 182.291 14.9872C182.325 14.9872 182.358 14.9703 182.392 14.9703C182.459 14.9534 182.51 14.9534 182.577 14.9365C182.611 14.9365 182.645 14.9196 182.662 14.9196C182.746 14.9028 182.847 14.886 182.932 14.886C183.724 14.8016 184.399 14.751 184.854 14.7004L178.682 26.438C178.311 26.4886 177.569 26.5897 176.591 26.7247C176.506 26.7415 176.439 26.7415 176.355 26.7415C176.068 26.7415 175.056 26.7079 174.601 25.8478C174.061 24.8696 174.415 23.1832 175.562 20.9908Z" fill="#BCB5B5"/>
<path d="M132.476 51.7343C133.302 51.5825 134.533 51.3296 136 51.0429C138.311 50.5875 141.195 50.0141 143.876 49.525L144.129 49.4745L147.991 42.1216L147.316 42.2228C146.541 42.3577 144.112 42.7625 141.549 43.2009C138.648 43.69 135.579 44.2128 134.601 44.3646C129.626 45.1403 124.06 46.7931 120.519 53.0497C119.811 54.2808 119.237 56.1864 119.709 57.8223C120.097 59.1208 121.042 59.9978 122.559 60.4531C123.639 60.7735 124.499 60.9928 125.258 61.1951C126.05 61.4144 126.742 61.5999 127.467 61.8191C127.787 61.9203 127.99 62.0721 128.04 62.2576C128.074 62.3588 128.057 62.4937 127.973 62.6287C127.602 63.3201 126.202 63.9272 123.706 64.4837L113.756 66.6255L109.338 74.7372L110.08 74.5685C113.486 73.759 116.573 73.0508 119.136 72.4437C121.43 71.9041 123.302 71.4656 124.617 71.162C131.43 69.543 135.511 67.0302 137.805 62.9827C138.53 61.7011 139.002 59.6268 138.395 57.8729C137.839 56.2539 136.439 55.1915 134.381 54.7867C131.801 54.2639 130.823 54.0447 130.823 54.0447C130.115 53.8592 129.912 53.6568 129.862 53.5219C129.862 53.4882 129.811 53.3701 129.997 53.0665C130.418 52.4594 131.363 51.9366 132.476 51.7343Z" fill="#BCB5B5"/>
<path d="M82.4568 53.4377L82.794 52.7969L70.6685 54.8206L70.5337 55.0567C70.4662 55.1917 63.6193 68.194 59.9428 75.1421C58.0709 78.6668 57.5819 81.365 58.5094 83.1358C59.5213 85.0583 61.8486 85.2944 63.164 85.2607C63.8048 85.2438 64.4962 85.1595 65.1371 85.0077C65.7273 84.8728 66.7224 84.6368 67.9029 84.3501C69.6399 83.9453 71.7816 83.4393 73.5355 83.0177L73.7716 82.9672L78.1563 74.6867L76.5879 75.0409C75.6604 75.2602 74.463 75.53 73.7547 75.6818C73.2994 75.783 72.9115 75.8335 72.608 75.8504C72.0346 75.8672 71.6973 75.7324 71.5624 75.4625C71.2926 74.9397 71.6467 73.7424 72.608 71.9211C74.9858 67.4183 82.4568 53.4377 82.4568 53.4377Z" fill="#BCB5B5"/>
<path d="M61.1895 61.7178C59.8403 59.2725 56.5687 58.0583 51.7624 58.1763C50.2614 58.21 48.5749 58.3787 46.7536 58.6822C45.5394 58.8846 43.8361 59.1713 42.0316 59.4749C39.249 59.9302 36.2471 60.4361 34.5607 60.7228L34.1729 60.7903L15.4365 96.5933L29.046 93.3553L32.9586 86.0193C33.3633 85.935 33.8861 85.8338 34.4595 85.7158C35.3196 85.5471 36.3146 85.3616 37.2253 85.1592C51.678 81.955 56.5686 77.233 60.5486 69.6104C62.1001 66.4736 62.3194 63.7415 61.1895 61.7178ZM48.9628 70.4367C47.6305 72.9326 45.4888 75.6478 39.5357 76.8789C38.878 77.0138 38.1359 77.1318 37.6132 77.2161L42.9086 67.1819C43.4651 67.0807 43.7687 67.0133 44.0722 66.9627C44.3421 66.9121 44.6118 66.8614 45.0503 66.7771C45.7754 66.6422 46.4332 66.5747 47.0066 66.5578C48.3726 66.5241 49.2158 66.8277 49.5531 67.4517C49.8736 68.0757 49.6711 69.0876 48.9628 70.4367Z" fill="#BCB5B5"/>
<path d="M75.8115 48.0241L88.173 46.169L96.3185 30.7045C99.3372 25.0212 102.17 24.1442 108.41 23.3684L108.68 23.3348L113.149 14.8857L112.525 14.9532C111.716 15.0375 110.906 15.1049 110.012 15.1724C108.984 15.2567 107.854 15.341 106.538 15.476C97.4147 16.336 89.5222 21.9351 84.8677 30.8226L75.8115 48.0241Z" fill="#BCB5B5"/>
<path d="M14.6442 57.4514C16.5498 57.4008 18.6242 57.1815 20.7997 56.7936C27.4442 55.6806 35.0837 54.2808 35.168 54.264L35.421 54.2134L40.9356 43.8418L40.278 43.943C40.1768 43.9599 29.451 45.4945 24.6784 46.1522C23.1944 46.3546 21.8621 46.4727 20.749 46.5064C17.8652 46.5908 16.1114 46.0848 15.5211 45.0224C15.0827 44.2466 15.2343 43.1504 15.9595 41.6495C17.4604 38.5465 21.997 36.1855 27.8321 35.4603C30.952 35.0724 38.7601 34.1448 38.8444 34.1448L39.1143 34.1111L44.0893 24.6502L43.4652 24.7176C43.3978 24.7176 37.3435 25.3417 31.3904 25.9657C31.1374 25.9994 30.8845 26.0162 30.6315 26.0162C29.2655 26.05 28.2705 25.679 27.8995 24.9875C27.6465 24.4985 27.6803 23.8745 28.0513 23.1662C29.4173 20.451 33.06 18.9501 39.8226 18.3261C41.0368 18.2081 42.3523 18.09 43.6677 17.9888C48.7439 17.5503 53.9549 17.1456 54.0223 17.1456L54.3091 17.1287L59.3177 7.7016L59.1828 7.51611L58.9804 7.73536L41.3741 9.00018C28.7427 9.92772 19.7372 14.4135 16.0102 21.6652C13.8347 25.8982 15.1501 28.6808 17.1738 29.9962C10.2932 32.6945 5.0483 37.0961 2.36687 42.459C0.444338 46.2872 0.191385 49.7106 1.64172 52.3583C2.28256 53.5388 3.22695 54.5169 4.47491 55.3096C6.86965 56.8105 10.3437 57.5525 14.6442 57.4514Z" fill="#BCB5B5"/>
<path d="M67.7985 19.7434L68.1021 19.1531L55.3358 20.3336L44.5932 40.8238C42.7887 44.281 42.384 47.0298 43.4127 48.9692C44.8293 51.6675 48.3877 51.8699 49.8549 51.8193C50.3439 51.8024 50.8161 51.7687 51.2883 51.7012C55.7742 51.0267 70.9858 48.75 72.5711 48.4971L72.841 48.4633L89.3006 17.0957L76.8378 18.2593L64.5774 41.6838C63.7848 41.8019 61.4407 42.1561 59.8892 42.3584C59.5181 42.409 59.1977 42.4427 58.8941 42.4427C57.9329 42.4596 57.3595 42.2741 57.1403 41.8356C56.8198 41.2285 57.1403 39.9975 58.0847 38.193C60.4625 33.6396 67.7311 19.8783 67.7985 19.7434Z" fill="#BCB5B5"/>
<path d="M85.5919 80.083C86.199 80.0661 86.8061 79.9987 87.3457 79.8638C90.7692 79.0543 104.851 75.7489 106.166 75.4453L106.402 75.3948L121.918 46.4219L110.332 48.3443L98.9146 69.7452C98.1557 69.9307 95.7273 70.5378 94.4962 70.8245C94.1083 70.9088 93.7711 70.9595 93.5012 70.9595C93.0122 70.9763 92.7086 70.8582 92.5905 70.6221C92.3375 70.1331 92.6917 68.9863 93.6361 67.2155L103.131 49.5249L91.3257 51.498L91.1908 51.751C91.1234 51.869 84.8836 63.7246 81.3589 70.3186C79.6893 73.4385 79.3015 75.9175 80.2121 77.6545C81.0554 79.2398 83.0622 80.1505 85.5919 80.083Z" fill="#BCB5B5"/>
<path d="M110.365 23.5713C108.662 25.5107 107.212 27.6188 106.031 29.828C104.868 32.0035 104.143 34.0441 103.856 35.8654C103.586 37.7036 103.788 39.2383 104.463 40.4525C105.138 41.6499 106.301 42.51 107.954 42.999C108.949 43.2857 110.113 43.4206 111.411 43.37C112.254 43.3531 113.148 43.252 114.109 43.1171C116.521 42.7461 118.916 42.0377 121.243 40.9922C123.52 39.9634 125.645 38.6818 127.584 37.2146C129.523 35.7305 131.294 34.0272 132.862 32.1721C134.465 30.3002 135.814 28.3271 136.91 26.2865C137.989 24.2459 138.698 22.3402 139.001 20.6031C139.305 18.8493 139.187 17.3484 138.647 16.1679C138.09 14.9368 137.062 14.0092 135.594 13.4358C134.414 12.9805 132.947 12.7612 131.227 12.8118C130.771 12.8287 130.282 12.8456 129.793 12.8962C127.415 13.1323 125.004 13.7226 122.676 14.6838C120.332 15.6283 118.106 16.8761 116.032 18.3939C113.958 19.8948 112.035 21.6487 110.365 23.5713ZM117.179 28.7318C120.029 23.6219 122.997 20.8561 125.999 20.502C126.15 20.4851 126.285 20.4683 126.42 20.4683C127.196 20.4514 127.668 20.6538 127.904 21.0923C128.225 21.75 128.174 23.3352 126.016 27.1803C124.599 29.6931 123.149 31.6661 121.681 33.049C120.231 34.415 118.781 35.2077 117.28 35.4438C117.077 35.4776 116.875 35.4944 116.706 35.4944C115.695 35.5281 115.189 35.1234 115.155 34.2633C115.071 33.1334 115.762 31.2783 117.179 28.7318Z" fill="#BCB5B5"/>
<path d="M7.9502 106.864C59.9261 104.486 107.332 87.6554 139.155 72.916C139.138 72.916 84.8178 88.4481 7.9502 106.864Z" fill="#BCB5B5"/>
<path d="M88.173 111.873C88.7295 111.232 89.2523 110.81 90.4497 110.659C91.1917 110.574 91.8325 110.574 91.7482 111.451L91.0062 118.45L88.3417 118.754L88.5609 117.135L85.7445 117.455L84.2942 119.226L81.6465 119.529L88.173 111.873ZM87.3129 115.516L88.915 115.33L89.2354 113.323C89.2354 113.273 89.2523 113.155 89.2186 113.155C89.1848 113.155 89.0837 113.29 89.0331 113.34L87.3129 115.516Z" fill="#BCB5B5"/>
<path d="M98.0568 110.574C98.782 109.731 99.6758 109.579 100.165 109.529C100.637 109.478 101.497 109.411 101.43 110.186L100.721 117.337L98.0399 117.64L98.8494 112.412C98.8494 112.362 98.8831 112.227 98.8325 112.227C98.7819 112.227 98.647 112.396 98.6132 112.446L94.0262 118.113L91.3447 118.416L98.0568 110.574Z" fill="#BCB5B5"/>
<path d="M108.865 115.431C108.392 116.055 107.92 116.578 106.807 116.713C105.694 116.848 105.728 116.359 105.846 115.785L106.605 111.94C106.639 111.789 106.655 111.654 106.588 111.671C106.487 111.687 106.403 111.873 106.369 111.957L103.974 116.966L101.444 117.253L104.851 110.355C105.559 108.905 107.077 108.736 107.482 108.686C108.14 108.601 109.033 108.584 108.797 109.816L108.072 113.677C108.055 113.762 108.021 114.032 108.123 114.032C108.207 114.015 108.477 113.711 108.544 113.627L111.782 109.478C112.811 108.146 113.789 107.96 114.464 107.876C116.234 107.674 115.914 108.601 115.661 109.107L112.254 116.005L109.708 116.291L112.271 111.266C112.389 111.047 112.356 110.996 112.305 111.013C112.254 111.013 112.187 111.097 112.001 111.333L108.865 115.431Z" fill="#BCB5B5"/>
<path d="M119.591 108.214C120.147 107.573 120.67 107.151 121.868 107C122.61 106.915 123.25 106.915 123.166 107.792L122.424 114.791L119.776 115.094L119.996 113.475L117.179 113.796L115.729 115.567L113.064 115.87L119.591 108.214ZM118.714 111.873L120.316 111.688L120.637 109.681C120.637 109.63 120.653 109.512 120.62 109.512C120.586 109.512 120.485 109.647 120.434 109.698L118.714 111.873Z" fill="#BCB5B5"/>
<path d="M124.464 114.571L127.533 108.382L124.751 108.703L125.762 106.645L133.857 105.701L132.845 107.758L130.063 108.079L126.994 114.268L124.464 114.571Z" fill="#BCB5B5"/>
<path d="M137.2 105.312L135.733 108.297L139.24 107.893C139.696 107.842 140.37 107.808 140.336 108.652C140.32 109.191 140.067 109.765 139.78 110.355C139.493 110.928 139.089 111.653 138.532 112.193C138.161 112.547 137.419 113.087 136.576 113.171L131.736 113.728C131.398 113.761 131.213 113.593 131.145 113.424C131.027 113.121 131.213 112.682 131.398 112.311L134.704 105.616L137.2 105.312ZM134.383 111.013C134.333 111.131 134.248 111.282 134.265 111.367C134.282 111.485 134.468 111.468 134.62 111.451L135.918 111.299C136.306 111.249 136.491 111.249 136.694 111.147C136.846 111.063 137.082 110.844 137.284 110.456C137.385 110.237 137.486 110.001 137.267 109.916C137.132 109.883 136.947 109.916 136.643 109.95L134.805 110.169L134.383 111.013ZM139.207 112.851L143.288 104.604L145.801 104.317L141.719 112.564L139.207 112.851Z" fill="#BCB5B5"/>
<path d="M156.845 107.589L162.764 106.898C162.95 106.881 163.287 106.83 163.607 106.611C163.911 106.392 164.046 106.156 164.147 105.936L164.586 105.059L160.116 105.582C159.02 105.717 158.616 105.279 158.481 104.891C158.194 104.048 158.868 102.732 159.391 101.67C159.981 100.472 160.572 99.2413 161.988 98.1451C163.236 97.1839 164.248 96.9984 165.074 96.8972L169.173 96.425C170.302 96.29 171.584 96.2563 171.753 97.4705C171.854 98.1451 171.618 98.8534 171.179 99.7135L168.498 105.161C168.127 105.92 167.621 106.965 166.71 107.977C165.024 109.815 163.405 110.051 162.494 110.153L155.158 111.013L156.845 107.589ZM166.778 100.624C166.879 100.422 166.896 100.236 166.862 100.135C166.828 100.068 166.744 99.9328 166.407 99.9665L165.344 100.084C165.058 100.118 164.72 100.219 164.434 100.388C164.029 100.641 163.793 100.961 163.624 101.316C163.422 101.72 163.439 102.007 163.54 102.125C163.591 102.176 163.725 102.277 164.349 102.193L166.103 101.99L166.778 100.624Z" fill="#BCB5B5"/>
<path d="M174.856 100.051C174.974 99.8148 175.193 99.3426 175.126 99.174C175.109 99.0896 175.008 98.9716 174.637 99.0054L173.052 99.1908L174.738 95.7673L179.224 95.2445C179.865 95.1771 180.269 95.3289 180.438 95.5818C180.623 95.8685 180.59 96.4588 180.202 97.2345L174.519 108.736L170.319 109.225L174.856 100.051Z" fill="#BCB5B5"/>
<path d="M177.215 108.432L178.969 104.891L182.645 104.469L180.891 108.011L177.215 108.432Z" fill="#BCB5B5"/>
<path d="M194.014 97.2177C194.216 97.0153 194.351 96.8972 194.385 96.8297C194.418 96.7454 194.368 96.6443 194.014 96.6949L187.538 97.4537L189.19 94.1146L199.073 92.9678C200.624 92.7823 200.237 93.8617 199.849 94.6711C199.478 95.4132 199.039 96.054 198.297 96.7792L187.572 107.269L182.917 107.808L194.014 97.2177Z" fill="#BCB5B5"/>
<path d="M199.156 105.886L202.546 99.0219C202.715 98.6846 202.967 98.2799 203.423 97.9427C203.912 97.5716 204.334 97.5041 204.603 97.4704L210.422 96.7959L209.427 98.8028L205.244 99.2918C205.126 99.3087 204.974 99.3255 204.823 99.4435C204.688 99.5447 204.57 99.7134 204.485 99.8989L204.199 100.472L207.605 100.084L206.678 101.939L203.271 102.327L201.669 105.582L199.156 105.886Z" fill="#BCB5B5"/>
<path d="M214.486 103.154C214.014 103.778 213.542 104.301 212.429 104.436C211.316 104.571 211.349 104.081 211.467 103.508L212.226 99.663C212.26 99.5112 212.277 99.3763 212.209 99.3932C212.108 99.4101 212.024 99.5955 211.99 99.6799L209.578 104.689L207.049 104.975L210.455 98.0777C211.164 96.6274 212.682 96.4588 213.086 96.4082C213.744 96.3239 214.638 96.3071 214.402 97.5382L213.677 101.4C213.66 101.484 213.626 101.754 213.727 101.754C213.812 101.737 214.081 101.434 214.149 101.349L217.387 97.2009C218.415 95.8686 219.393 95.6831 220.068 95.5987C221.839 95.3964 221.519 96.3239 221.266 96.8298L217.859 103.727L215.312 104.031L217.876 99.0054C217.994 98.7861 217.96 98.7355 217.91 98.7524C217.859 98.7524 217.791 98.8367 217.606 99.0728L214.486 103.154Z" fill="#BCB5B5"/>
</svg>
