<svg width="686" height="120" viewBox="0 0 686 120" fill="none" xmlns="http://www.w3.org/2000/svg">
<path d="M529.869 50.6199L530.206 50.8729L540.966 46.7074L521.74 49.8442L521.116 49.372L520.273 47.7193L519.7 44.7343L519.514 47.5675L514.877 47.6856L516.58 45.5607L516.394 44.5657L503.628 44.3127L523.494 53.2171C526.108 52.2052 528.267 51.3283 529.869 50.6199ZM487.034 65.7135C476.51 65.2919 461.838 64.6679 471.586 63.5717C480.288 62.5936 489.192 61.1939 497.945 60.7891C496.747 54.5325 489.142 47.9554 488.147 42.778C483.829 42.4408 475.735 41.7156 468.635 41.0241C463.44 40.5182 460.034 41.0916 458.364 40.046C446.795 32.7944 454.486 33.8905 464.857 36.5551C478.163 34.582 497.81 38.4608 513.78 37.8536L537.104 36.9936C537.593 36.1841 538.301 35.6276 539.144 35.5095C540.207 35.3577 541.286 35.8637 542.146 36.8081L569.382 35.7962C582.081 33.9074 603.06 22.1699 614.73 16.7564C620.06 14.2774 628.07 11.3767 636.755 7.97006C644.901 4.7827 653.687 1.03886 660.551 1.42674C662.018 1.51106 662.507 1.98324 663.839 2.35426C668.848 3.7034 684.7 1.96635 685.695 5.11998C687.18 9.85886 681.884 13.6028 673.553 18.5946C669 21.3266 659.758 26.0149 649.437 30.0117C634.849 35.695 618.272 40.8218 611.206 44.1778C608.44 45.4763 619.604 43.3683 620.498 43.6381C623.028 44.3802 622.201 49.254 621.679 50.2152C621.139 51.1765 619.199 51.5981 617.007 51.986L607.917 53.5881L608.103 54.5662C608.372 55.9659 607.023 55.7636 606.163 56.2695C603.988 57.5512 597.765 58.5631 593.397 58.445C592.571 58.4282 593.532 55.6792 592.132 55.1396C590.345 54.4481 587.494 53.7736 585.994 54.4819C584.459 55.2071 582.587 55.9491 580.428 56.6911C579.45 57.0284 582.57 54.094 581.508 54.4144C564.053 59.811 531.96 67.3494 505.399 68.2432C431.786 91.7015 284.021 123.946 311.78 74.3481C323.467 53.47 338.493 46.1172 352.945 27.499C360.433 0.0101249 135.379 106.593 163.475 60.1483C182.565 48.9335 187.102 43.4189 158.77 44.1441C125.648 45.0041 104.652 80.6384 76.3874 68.1588L75.2911 67.5349L77.5678 65.0052C85.2916 57.6861 86.1012 54.3132 71.9689 53.841C-4.51081 60.553 -42.405 58.5968 74.7515 59.8616L73.6216 60.9241C68.6635 66.4893 64.9365 71.0932 76.185 74.23C111.246 84.0282 121.432 52.6268 158.77 49.3888C172.851 50.114 174.656 49.2202 161.552 56.4382L157.741 58.8498C117.924 81.2962 170.659 80.4529 184.252 77.3836C284.021 55.8647 385.966 -24.5949 356.656 26.875C344.227 47.635 335.777 53.099 324.006 75.0901C301.543 117.015 418.885 87.3336 487.034 65.7135ZM667.954 4.00698L661.765 2.13501L648.088 5.92949L650.5 10.5335L667.954 4.00698Z" fill="#BCB5B5"/>
<path d="M325.726 56.4533L324.984 57.5158L324.292 58.5951L322.775 60.8549L319.402 66.1335C317.024 69.8942 315.843 73.0984 315.843 75.7124C315.843 77.7024 316.248 79.743 317.041 81.8004C317.833 83.8747 319.807 85.0384 323.028 85.2913C325.422 85.2913 328.154 84.6168 331.241 83.2676C334.091 82.1883 337.362 80.5187 341.005 78.2421C344.074 76.2858 346.84 74.3633 349.218 72.4576C351.613 70.5351 352.945 69.2702 353.198 68.5957C353.299 68.3764 353.333 68.1066 353.333 67.8367C353.333 67.4995 353.198 67.2634 352.911 67.0779C352.641 66.9092 352.388 66.8417 352.135 66.8417C351.967 66.8417 351.781 66.8755 351.511 66.9429C349.926 67.7187 347.582 69.1522 344.513 71.2771C341.174 73.6212 338.256 74.8186 335.743 74.8186C331.831 74.8186 329.875 73.52 329.875 70.8555C329.875 69.2365 329.942 67.8874 330.094 66.7743C330.246 65.695 330.532 64.5988 330.954 63.5195C332.235 60.2309 333.973 57.1953 336.131 54.4465L339.386 50.1461L340.212 49.1174L341.106 48.0212L341.916 46.9756L342.793 45.8794L347.042 45.9975L351.427 46.1155C352.439 46.1155 353.198 45.8625 353.738 45.4072L362.254 37.4135C362.827 36.7221 363.114 36.1993 363.114 35.8789C363.114 35.3223 362.507 35.0525 361.242 35.0525L356.419 35.0019L353.991 34.9345L352.861 34.867L351.697 34.8164C353.35 33.0288 355.609 31.0219 358.493 28.8127C360.989 27.0082 362.591 25.4567 363.249 24.1413C363.3 23.9895 363.316 23.7703 363.316 23.4667C363.316 22.9945 363.148 22.6741 362.811 22.5561C361.697 22.3368 360.534 22.2188 359.37 22.2188C358.274 22.2188 357.279 22.3031 356.318 22.438C354.884 22.7416 353.417 23.3318 351.933 24.2256C350.381 25.3387 349.201 26.2999 348.375 27.1094C346.435 29.1163 344.378 31.5447 342.152 34.3948L339.521 34.4454H335.389H332.944H332.438H332.016H331.578H331.325C329.504 34.4454 327.952 35.1874 326.704 36.6546L323.5 40.4491C322.049 42.321 321.341 43.6702 321.341 44.5134C321.375 45.0868 321.695 45.3903 322.336 45.3903L334.512 45.5084C332.91 47.2285 331.409 48.9487 330.06 50.6689C328.643 52.3553 327.21 54.3115 325.726 56.4533Z" fill="#BCB5B5"/>
<path d="M316.872 49.9104C317.766 48.2914 318.204 46.8748 318.204 45.6606C318.204 44.109 317.429 42.8611 315.945 41.9673C314.326 41.0903 312.42 40.6519 310.244 40.6519C308.811 40.6519 307.209 40.8543 305.371 41.259C301.036 42.372 296.804 44.5644 292.672 47.8698C288.338 51.4619 284.83 55.2732 282.165 59.3038C279.298 63.6548 277.612 67.9046 277.157 72.1376C277.157 74.6166 277.443 76.7247 277.983 78.4111C278.523 80.0807 279.484 81.5648 280.884 82.7958C283.025 84.887 285.875 85.9326 289.349 85.9326C292.149 85.9326 295.168 85.14 298.389 83.5547C301.627 81.9526 304.679 80.0638 307.563 77.9557C310.228 75.9826 312.572 73.9758 314.663 71.9858C316.72 69.979 317.783 68.731 317.867 68.225L318.002 67.9383V66.8927C317.867 66.5049 317.682 66.3025 317.429 66.3025C317.243 66.3025 316.956 66.4037 316.619 66.6229C314.477 68.107 311.29 70.0295 307.108 72.458C302.908 74.8696 299.232 76.0838 296.061 76.0838C292.756 76.0838 290.699 75.19 289.923 73.3686C288.962 71.5473 288.489 69.5236 288.489 67.2638C293.7 66.4711 299.165 64.4305 304.882 61.142C310.582 57.8703 314.612 54.1434 316.872 49.9104ZM300.075 57.9547C295.201 60.8385 291.339 62.5755 288.489 63.1152C289.282 60.771 290.834 57.921 293.161 54.5481C295.471 51.209 298.102 48.8479 301.07 47.4819C302.521 46.8242 303.937 46.4869 305.253 46.4869C306.72 46.4869 307.462 47.465 307.462 49.4044C307.462 52.2039 305 55.0371 300.075 57.9547Z" fill="#BCB5B5"/>
<path d="M188.013 67.2632C188.013 70.1301 188.687 72.6766 190.087 74.869C192.583 78.8321 194.286 80.8052 195.214 80.8052C195.703 80.839 198.064 79.7934 202.263 77.601C206.462 75.4424 209.869 73.2838 212.5 71.142C213.157 70.6024 213.613 70.518 213.866 70.8553C213.984 71.0408 214.068 71.2263 214.068 71.4118C214.068 71.5974 214 71.8334 213.866 72.1201C210.408 78.3093 206.513 84.3805 202.162 90.3505C198.047 96.1518 196.158 99.2717 196.563 99.7102C196.782 100.233 196.917 101.7 196.917 104.129C196.917 106.591 197.389 107.805 198.317 107.805C199.716 107.805 202.111 105.883 205.484 102.021C206.125 101.262 206.985 100.267 208.064 99.0525C208.992 98.0406 210.206 96.6746 211.724 94.9713C214.355 92.2392 216.665 90.0975 218.604 88.6134C220.949 86.8764 224.439 83.7396 229.06 79.1863C233.529 74.7678 237.813 70.8721 241.928 67.4655C242.653 66.6561 242.99 66.0658 242.99 65.6948C242.99 65.4756 242.906 65.3069 242.754 65.172C242.585 65.0371 242.333 64.9865 242.046 64.9865C241.338 64.9865 240.224 65.5262 238.74 66.6392L221.235 79.9452C220.055 80.721 219.178 81.0582 218.588 80.9402C218.335 80.8221 218.217 80.6535 218.217 80.4005C218.217 80.0632 218.368 79.6585 218.655 79.1694C219.852 77.0782 221.741 74.3462 224.288 70.9228L228.032 65.7623L231.86 60.4669L235.368 55.475L238.538 50.8373C240.326 48.0041 241.236 45.9804 241.236 44.7156C241.017 43.6531 240.562 42.4895 239.87 41.2584C239.499 40.6682 239.078 40.3646 238.555 40.3646C237.982 40.3646 237.358 40.7188 236.666 41.4102C235.806 42.2871 234.727 43.3159 233.378 44.4626C232.079 45.6263 230.443 47.0429 228.47 48.7293C224.187 52.4057 220.325 55.5425 216.834 58.1396C214.591 59.826 212.55 61.327 210.729 62.6593C208.874 63.9915 207.137 65.1552 205.467 66.2345C201.892 68.5449 199.497 69.6073 198.266 69.4218C197.086 68.8653 196.529 68.0053 196.529 66.7742C196.529 66.3863 196.63 65.8129 196.833 65.0877C197.204 64.059 197.642 63.0977 198.114 62.2208C198.603 61.327 199.092 60.5849 199.598 59.961C202.297 59.2695 206.04 56.5712 210.83 51.866C215.603 47.1778 217.98 43.8892 217.98 42.0679C217.98 41.0729 217.39 40.1285 216.159 39.2684C214.793 38.3914 213.68 38.0542 212.854 38.2734C207.778 39.7069 202.803 43.046 197.962 48.2908C192.987 53.6874 190.07 57.7686 189.142 60.568C188.4 62.9796 188.013 65.2226 188.013 67.2632Z" fill="#BCB5B5"/>
<path d="M183.274 72.2719C183.527 71.9347 183.662 71.6143 183.662 71.3444C183.662 71.0409 183.51 70.7879 183.207 70.5687C182.853 70.4506 182.515 70.4 182.195 70.4C181.891 70.4 181.487 70.4843 181.082 70.6867C179.783 71.4287 178.333 72.3057 176.697 73.3175C175.618 74.009 174.589 74.7004 173.628 75.3075C170.575 77.3144 168.113 78.3262 166.241 78.3262C163.83 78.3262 162.025 77.1963 160.811 74.9534C160.356 74.3462 160.035 73.4862 159.833 72.4237C159.631 71.3613 159.546 70.029 159.546 68.3763C159.546 67.044 159.63 65.8129 159.799 64.7168C159.968 63.5868 160.17 62.4232 160.491 61.2258C163.459 59.6574 166.697 57.6506 170.238 55.2727C173.78 52.878 176.714 50.4327 178.991 47.903C181.655 44.9855 184.303 41.8318 186.951 38.3915C189.598 34.9512 191.824 31.5446 193.612 28.1717C194.438 26.4684 195.012 24.7483 195.282 23.0113C195.568 21.2742 195.686 19.1999 195.686 16.7377C195.686 16.3161 195.484 16.1475 195.13 16.1475C194.32 16.1475 193.444 16.3498 192.449 16.7714C191.47 17.193 190.307 17.8339 188.924 18.6771C186.377 20.1443 183.73 21.9825 180.981 24.2424C178.468 26.0974 175.921 28.2392 173.341 30.6339C170.542 33.2647 168.855 34.9512 168.282 35.6932C167.017 37.1098 165.904 38.4758 164.842 39.7069C163.796 40.9718 162.835 42.1354 161.958 43.2316C160.963 44.547 159.9 45.8118 158.787 47.0429L157.202 48.9654L155.651 50.7699C151.519 55.9135 149.445 62.0353 149.445 69.152C149.445 71.7323 149.967 75.3075 150.979 79.9115C151.991 84.4986 154.487 86.7922 158.517 86.7922C159.9 86.7922 161.873 86.185 164.454 84.9708C166.629 84.1276 169.243 82.711 172.279 80.6704L175.77 78.3094L177.524 77.0446L179.345 75.6617C181.537 73.9753 182.836 72.8622 183.274 72.2719ZM171.368 39.8587C172.97 37.7675 174.842 35.6089 177.001 33.4165C179.463 30.7351 181.369 29.0824 182.735 28.4753L183.949 28.0031C184.708 27.7838 185.113 27.7838 185.146 28.0031C185.18 28.1717 185.214 28.4585 185.214 28.8295C185.214 30.5328 184.657 32.4047 183.527 34.4116C182.819 35.7101 182.178 36.8063 181.605 37.6664C181.048 38.5433 180.441 39.3359 179.8 40.0442C178.519 41.4946 177.422 42.6582 176.545 43.5351C175.348 44.7999 173.965 46.1828 172.447 47.6669C169.951 50.0785 166.545 52.4564 162.177 54.8005C164.369 49.7412 167.456 44.7494 171.368 39.8587Z" fill="#BCB5B5"/>
<path d="M149.037 47.3466C148.835 47.0767 148.127 46.9418 146.929 46.9418H143.675L137.637 47.2791C139.745 44.6651 141.803 42.1355 143.826 39.6902C146.154 36.9244 148.245 34.4454 150.083 32.253L162.984 17.3955C163.321 17.3955 166.02 17.463 171.045 17.6316C172.276 17.6822 173.98 17.6822 176.037 17.6822C178.398 17.6822 180.624 17.4798 182.749 17.092C184.874 16.6704 186.78 16.0295 188.5 15.1526C191.856 13.4661 194.149 8.54177 195.313 0.345703L184.79 0.834783C184.689 0.834783 183.019 0.868508 179.832 0.935965C176.627 1.00342 174.3 1.05403 172.85 1.05403C172.765 1.05403 170.067 1.08774 164.772 1.13833C159.443 1.18892 155.075 1.22263 151.651 1.22263C149.442 1.22263 146.879 1.34072 143.978 1.57682C141.061 1.82978 137.654 2.23451 133.775 2.82476L126.085 4.3763C122.813 5.06774 119.221 5.94465 115.275 7.02396C113.083 7.61421 111.278 8.13703 109.828 8.62609C107.872 9.25007 106.219 9.78973 104.903 10.2619C101.665 11.493 99.5237 12.6567 98.3938 13.8035C97.382 14.9165 96.3195 16.8896 95.2065 19.7397C94.7005 21.0382 94.2452 22.3031 93.8236 23.5342C93.402 24.799 93.1321 25.6591 92.9972 26.1313C92.7443 27.3961 93.4695 28.1718 95.1559 28.4417C96.8423 28.7452 98.5624 28.9307 100.333 29.0151C102.121 29.1162 104.397 29.15 107.197 29.15C109.524 29.15 111.615 29.0151 113.471 28.7621C115.342 28.5091 117.181 28.155 119.002 27.6491L112.577 24.8496C117.923 22.0838 124.432 20.1613 132.089 19.0651C136.676 18.4074 140.504 17.9183 143.607 17.6148C146.727 17.2943 149.864 17.1426 153.034 17.1426C148.784 22.7247 144.737 27.8346 140.959 32.4891C136.777 37.5653 132.527 42.5065 128.21 47.3466C125.916 47.3466 123.336 47.4478 120.452 47.6839C117.552 47.8863 113.858 48.3078 109.288 48.9149C104.701 49.5389 100.856 50.0954 97.6687 50.652C93.2502 51.5458 90.4845 53.384 89.3546 56.1835C88.68 57.8362 88.3595 59.2191 88.3595 60.3152C88.3595 61.0404 88.5281 61.6138 88.8486 62.0186C89.2027 62.4233 90.5181 62.6257 92.8623 62.6257L101.109 62.4064L110.047 61.7993L116.304 61.3102C114.364 63.081 111.346 66.2009 107.315 70.67C103.268 75.1727 99.861 77.6012 97.1121 78.0565L95.3583 78.7817C94.7174 79.119 94.0428 79.3719 93.4357 79.49C92.4745 79.8273 90.8048 80.9066 88.427 82.7448C85.931 84.7348 83.6375 86.8428 81.5969 89.0352C79.5732 91.2276 78.2241 93.2681 77.617 95.1401C77.4821 95.5617 77.4146 95.899 77.4146 96.2025C77.4146 97.518 78.4602 98.2431 80.5682 98.3949C81.3946 98.3949 82.1535 98.3275 82.8618 98.1757C83.5701 98.0239 84.2784 97.7709 85.071 97.3662L89.0678 95.1064C96.6905 90.2663 103.706 84.7685 110.081 78.5962C112.223 76.5387 114.347 74.4476 116.472 72.3564C117.636 71.2265 119.727 69.1522 122.729 66.1335C124.938 63.9411 126.962 61.8667 128.851 59.9779C130.942 59.725 132.156 59.5732 132.477 59.5395C134.838 59.2528 136.71 59.101 138.126 59.101C141.162 58.7637 143.438 58.1566 144.939 57.2797C146.609 56.251 147.975 54.7669 149.021 52.8781C149.594 51.8493 149.881 50.8881 149.881 50.028C149.847 49.0836 149.577 48.1898 149.037 47.3466Z" fill="#BCB5B5"/>
<path d="M294.964 22.5055C295.959 20.8696 295.976 20.1276 296.668 19.9421C304.476 17.6822 311.272 15.5236 316.028 7.71543C316.955 6.18078 317.057 6.01215 316.989 5.67486C316.938 5.33757 316.5 5.18576 315.64 5.1689L277.847 4.94971C277.105 4.94971 276.515 5.13521 276.16 5.52309C275.823 5.87724 271.54 13.1963 269.988 15.726C269.078 17.2438 269.482 17.8677 269.853 18.6604C270.663 20.448 283.193 19.7734 283.092 20.6166C282.991 21.4598 281.996 23.3487 280.191 26.3674C266.683 48.9318 242.702 110.369 206.679 112.966C199.849 113.455 193.61 113.084 188.483 111.971C173.71 108.75 175.413 118.076 207.371 119.813C215.196 120.234 228.266 116.457 236.108 109.745C243.95 103.049 250.746 95.0052 256.48 85.578L294.964 22.5055Z" fill="#BCB5B5"/>
<path d="M464.956 68.3766C464.72 68.2754 464.552 68.2417 464.433 68.2417C463.725 68.2417 462.865 68.7139 461.853 69.7089C461.297 70.2317 460.723 70.7208 460.15 71.2098C459.577 71.6989 458.868 72.2554 458.059 72.8625C456.339 74.178 454.703 74.8357 453.134 74.8357C450.588 74.8357 449.138 74.1274 448.783 72.7614C448.345 71.311 447.013 70.6027 444.837 70.6027C442.999 70.6027 441.346 70.8051 439.913 71.193L445.731 67.4491L451.819 63.4691C455.883 60.8551 458.969 58.0051 461.145 54.9189C461.263 54.0251 460.959 52.4061 460.234 50.0114C459.509 47.6504 458.75 46.5036 457.974 46.6048C456.912 46.6048 454.787 46.8746 451.532 47.448C450.503 47.5998 449.728 47.701 449.256 47.7347C448.783 47.7684 448.075 47.7853 447.131 47.7853C446.389 47.7853 445.613 47.7516 444.854 47.6841C444.095 47.6167 443.437 47.5155 442.864 47.3974C442.038 47.3131 441.751 46.9084 441.936 46.2001C441.936 46.1832 441.92 45.8796 441.886 45.34C441.835 44.8003 441.818 44.4293 441.785 44.2269C441.565 44.0077 441.178 43.8896 440.604 43.8896C438.749 43.8896 436.27 45.2219 433.184 47.8865C430.098 50.551 428.546 52.5916 428.546 53.9914C428.546 55.7621 429.052 57.0438 430.064 57.8195C430.469 58.1737 430.975 58.4098 431.582 58.511C432.223 58.6122 433.251 58.6459 434.752 58.6459C435.697 58.6459 436.81 58.5785 438.075 58.4267C439.322 58.2918 440.621 58.0894 441.953 57.8195C444.415 57.3811 446.709 56.8583 448.817 56.2175C450.942 55.5766 452.19 55.1213 452.561 54.7671C450.672 57.145 448.564 59.2362 446.254 61.0744C443.943 62.9463 441.498 64.7171 438.951 66.4035C433.066 70.2149 429.238 73.4865 427.433 76.2523C426.32 77.8544 425.511 79.2372 424.954 80.4346C424.414 81.5983 424.145 82.6776 424.145 83.6726C425.713 82.9812 427.197 82.1716 428.563 81.2778C429.946 80.3672 431.514 79.9287 433.251 79.9287C435.697 79.9287 438.024 80.7045 440.183 82.2391C441.279 83.0317 442.527 83.6051 443.859 83.9424C445.225 84.2966 446.793 84.4652 448.665 84.4652C449.795 84.4652 451.043 83.9593 452.46 83.0149C453.876 82.0367 455.445 80.6201 457.148 78.7988C460.251 75.4596 462.612 72.8119 464.248 70.8894C464.973 69.9619 465.344 69.2873 465.344 68.8657C465.327 68.6465 465.209 68.461 464.956 68.3766Z" fill="#BCB5B5"/>
<path d="M426.136 73.3345C427.536 71.783 428.261 70.8555 428.261 70.5351C428.109 70.0797 427.89 69.6075 427.62 69.1859C427.586 69.1522 427.536 69.0848 427.502 68.9836C427.316 69.0173 427.03 69.1353 426.659 69.3208C426.288 69.5063 425.866 69.7256 425.461 70.0123C423.134 71.4457 421.262 72.66 419.829 73.6213C418.412 74.5825 417.366 75.3751 416.726 75.9823C415.427 77.2134 413.825 77.8373 411.936 77.8373C408.816 77.8373 405.983 76.016 403.386 72.3564L403.555 72.2721L402.526 71.2602C401.227 70.1472 400.047 69.3208 398.984 68.7474C401.548 66.4202 405.612 63.1822 411.144 58.9999C416.692 54.8512 421.009 52.7769 424.095 52.7769C424.888 52.9624 425.461 53.1817 425.832 53.4178C425.596 52.2879 425.124 50.7869 424.416 48.9825C423.488 46.9081 422.341 45.8625 420.942 45.8625C420.672 45.8625 420.368 45.9131 420.031 46.0143C415.798 46.9924 411.767 48.7801 407.939 51.394C403.926 54.1598 400.435 56.8749 397.467 59.5564C394.498 62.2378 391.868 64.7 389.642 66.9092C387.399 69.1353 385.898 70.164 385.139 69.9954C384.346 69.8436 383.941 69.2197 383.941 68.0898C383.941 67.5164 384.009 66.9767 384.127 66.4539C384.228 65.9311 384.43 65.5264 384.683 65.2397C393.369 54.8513 397.652 48.4091 406.843 38.3411C410.924 33.7877 412.999 33.8214 412.999 32.8096C412.999 32.1856 412.628 31.764 411.886 31.4773C411.144 31.1906 410.536 31.0557 410.064 31.0557C399.49 31.0557 381.53 55.8294 379.101 63.9917C378.832 64.8686 378.595 66.0829 378.359 67.6513C377.853 69.8268 377.567 71.9348 377.567 73.9754L377.634 79.9454C377.786 81.6824 378.41 82.5425 379.523 82.5425C381.294 82.5425 383.25 80.856 385.409 77.5C387.55 74.144 389.473 72.5588 391.193 72.7612C392.93 73.0647 394.735 75.3583 396.556 79.6755C397.45 81.7836 398.698 83.3182 400.283 84.2626C401.868 85.2239 403.858 85.6961 406.253 85.6961C408.411 85.4937 410.772 84.6842 413.285 83.2845C415.815 81.8679 418.243 80.2658 420.554 78.4107C422.881 76.5894 424.753 74.9029 426.136 73.3345Z" fill="#BCB5B5"/>
<path d="M359.994 76.8587C359.623 77.4826 359.336 78.1572 359.117 78.8655C358.898 79.5738 358.796 80.2821 358.796 81.0242C358.796 82.7106 359.623 83.6381 361.259 83.8236H361.764C363.232 83.8236 364.564 83.284 365.812 82.1541C367.33 80.8218 368.325 79.8774 368.78 79.3546C369.708 78.191 370.315 77.061 370.686 75.9986C371.023 74.9193 371.242 73.8062 371.242 72.6257C371.242 70.4165 370.315 69.3203 368.443 69.3203C366.756 69.3203 365.188 70.1804 363.721 71.8668C362.945 72.7438 362.27 73.6039 361.697 74.4134C361.107 75.2397 360.533 76.0492 359.994 76.8587Z" fill="#BCB5B5"/>
<path d="M264.019 110.25V113.657H266.11C266.583 113.657 266.937 113.589 267.156 113.421C267.375 113.269 267.527 112.948 267.594 112.476H267.915V115.411H267.594C267.594 115.073 267.527 114.82 267.426 114.669C267.325 114.517 267.156 114.399 266.97 114.314C266.768 114.23 266.481 114.196 266.11 114.196H264.019V116.912C264.019 117.35 264.053 117.637 264.137 117.772C264.188 117.873 264.306 117.974 264.491 118.058C264.744 118.16 264.997 118.21 265.267 118.21H265.689V118.446H260.764V118.21H261.169C261.641 118.21 261.979 118.109 262.198 117.907C262.333 117.772 262.4 117.451 262.4 116.928V111.346C262.4 110.908 262.366 110.621 262.299 110.486C262.232 110.385 262.13 110.284 261.945 110.216C261.709 110.115 261.456 110.065 261.169 110.065H260.764V109.829H269.298L269.416 111.734H269.112C268.96 111.329 268.792 111.043 268.606 110.84C268.404 110.655 268.168 110.52 267.881 110.436C267.594 110.351 267.156 110.301 266.566 110.301H264.019V110.25Z" fill="#BCB5B5"/>
<path d="M280.039 116.035L280.326 116.086L279.348 118.43H270.461V118.194H270.882C271.371 118.194 271.708 118.076 271.928 117.839C272.046 117.705 272.113 117.384 272.113 116.895V111.313C272.113 110.773 272.029 110.436 271.877 110.301C271.658 110.116 271.321 110.014 270.882 110.014H270.461V109.778H275.655V110.014C275.048 110.014 274.609 110.048 274.373 110.149C274.12 110.234 273.968 110.352 273.867 110.487C273.766 110.622 273.732 110.942 273.732 111.465V116.895C273.732 117.249 273.783 117.485 273.867 117.62C273.935 117.705 274.036 117.772 274.188 117.823C274.322 117.873 274.778 117.89 275.503 117.89H276.346C277.223 117.89 277.847 117.839 278.201 117.738C278.555 117.637 278.876 117.468 279.179 117.215C279.449 116.962 279.753 116.575 280.039 116.035Z" fill="#BCB5B5"/>
<path d="M287.208 109.778H291.205V110.014H290.986C290.834 110.014 290.615 110.065 290.345 110.166C290.058 110.267 289.805 110.402 289.569 110.588C289.333 110.773 289.063 111.077 288.726 111.482L285.96 114.77V116.946C285.96 117.485 286.045 117.806 286.196 117.941C286.416 118.126 286.753 118.21 287.208 118.21H287.579V118.447H282.705V118.21H283.11C283.599 118.21 283.937 118.109 284.156 117.89C284.274 117.755 284.341 117.452 284.341 116.962V114.922L281.188 111.296C280.817 110.874 280.564 110.605 280.429 110.503C280.294 110.402 280.024 110.267 279.602 110.116C279.484 110.065 279.333 110.048 279.113 110.048V109.812H284.021V110.048H283.768C283.498 110.048 283.262 110.099 283.043 110.183C282.824 110.267 282.705 110.419 282.705 110.605C282.705 110.756 282.874 111.043 283.211 111.431L285.606 114.23L287.849 111.566C288.186 111.161 288.355 110.874 288.355 110.672C288.355 110.554 288.304 110.453 288.237 110.352C288.153 110.251 288.035 110.183 287.883 110.132C287.731 110.082 287.512 110.048 287.191 110.048V109.778H287.208Z" fill="#BCB5B5"/>
<path d="M296.888 110.014V109.778H301.812V110.014H301.391C300.918 110.014 300.581 110.116 300.362 110.318C300.227 110.453 300.16 110.773 300.16 111.296V115.529C300.16 116.17 300.058 116.71 299.873 117.114C299.687 117.519 299.35 117.873 298.895 118.177C298.439 118.48 297.866 118.615 297.225 118.615C296.685 118.615 296.281 118.514 295.977 118.312C295.674 118.109 295.522 117.89 295.522 117.637C295.522 117.435 295.589 117.266 295.741 117.165C295.927 117.03 296.146 116.962 296.399 116.962C296.584 116.962 296.736 117.013 296.888 117.097C297.04 117.182 297.208 117.418 297.428 117.806C297.562 118.042 297.731 118.143 297.917 118.143C298.068 118.143 298.22 118.076 298.338 117.941C298.473 117.806 298.541 117.553 298.541 117.199V111.296C298.541 110.858 298.507 110.571 298.439 110.419C298.389 110.318 298.271 110.217 298.085 110.149C297.832 110.048 297.579 109.998 297.309 109.998H296.888V110.014Z" fill="#BCB5B5"/>
<path d="M305.522 110.251V113.674H308.051C308.709 113.674 309.147 113.607 309.367 113.455C309.653 113.252 309.822 112.915 309.856 112.426H310.159V115.445H309.856C309.771 115.023 309.704 114.753 309.62 114.635C309.518 114.483 309.35 114.365 309.114 114.281C308.878 114.197 308.523 114.146 308.051 114.146H305.522V116.996C305.522 117.384 305.538 117.603 305.589 117.688C305.64 117.772 305.707 117.839 305.825 117.89C305.943 117.941 306.162 117.957 306.466 117.957H308.405C309.046 117.957 309.535 117.924 309.822 117.856C310.109 117.789 310.395 117.654 310.665 117.452C311.019 117.199 311.374 116.794 311.745 116.254H312.082L311.087 118.43H302.25V118.194H302.655C302.924 118.194 303.177 118.143 303.43 118.042C303.616 117.974 303.734 117.873 303.801 117.738C303.869 117.603 303.903 117.317 303.903 116.895V111.279C303.903 110.723 303.835 110.385 303.683 110.267C303.481 110.099 303.144 110.014 302.672 110.014H302.267V109.778H311.104L311.239 111.667H310.901C310.783 111.212 310.648 110.891 310.497 110.723C310.345 110.554 310.142 110.436 309.856 110.335C309.636 110.267 309.232 110.234 308.658 110.234H305.522V110.251Z" fill="#BCB5B5"/>
<path d="M322.506 109.778L322.624 111.802H322.304C322.236 111.448 322.169 111.195 322.051 111.043C321.882 110.79 321.646 110.622 321.342 110.487C321.056 110.369 320.668 110.318 320.196 110.318H318.577V116.929C318.577 117.468 318.644 117.789 318.796 117.924C319.015 118.109 319.352 118.194 319.791 118.194H320.179V118.43H315.305V118.194H315.71C316.199 118.194 316.536 118.092 316.738 117.873C316.856 117.738 316.924 117.435 316.924 116.946V110.335H315.541C315.001 110.335 314.63 110.369 314.394 110.419C314.108 110.503 313.838 110.655 313.635 110.891C313.433 111.127 313.298 111.431 313.264 111.819H312.944L313.079 109.795H322.506V109.778Z" fill="#BCB5B5"/>
<path d="M323.939 117.199C324.209 117.199 324.428 117.266 324.614 117.401C324.799 117.536 324.884 117.705 324.884 117.89C324.884 118.093 324.799 118.261 324.614 118.396C324.428 118.531 324.209 118.599 323.939 118.599C323.686 118.599 323.467 118.531 323.281 118.396C323.096 118.261 323.011 118.093 323.011 117.89C323.011 117.688 323.096 117.519 323.281 117.384C323.467 117.266 323.686 117.199 323.939 117.199Z" fill="#BCB5B5"/>
<path d="M331.292 113.64L335.525 116.81C336.216 117.333 336.806 117.687 337.296 117.873C337.785 118.075 338.274 118.177 338.763 118.193V118.429H333.299V118.193C333.619 118.193 333.855 118.143 334.007 118.075C334.159 117.991 334.226 117.89 334.226 117.789C334.226 117.687 334.193 117.603 334.142 117.519C334.074 117.434 333.906 117.283 333.619 117.063L329.656 114.112V116.895C329.656 117.333 329.69 117.62 329.757 117.772C329.825 117.873 329.943 117.974 330.111 118.042C330.347 118.143 330.6 118.193 330.887 118.193H331.275V118.429H326.384V118.193H326.789C327.261 118.193 327.615 118.092 327.818 117.89C327.953 117.755 328.02 117.434 328.02 116.912V111.33C328.02 110.891 327.986 110.604 327.902 110.453C327.852 110.351 327.734 110.267 327.565 110.183C327.312 110.082 327.059 110.031 326.789 110.031H326.384V109.795H331.275V110.031H330.887C330.617 110.031 330.364 110.082 330.111 110.166C329.943 110.233 329.808 110.335 329.74 110.469C329.673 110.604 329.639 110.891 329.639 111.313V113.96C329.757 113.876 330.145 113.606 330.803 113.151C332.472 112.004 333.484 111.228 333.838 110.841C333.99 110.672 334.058 110.52 334.058 110.402C334.058 110.301 334.007 110.217 333.889 110.149C333.771 110.065 333.569 110.048 333.282 110.048H333.012V109.812H337.228V110.048C336.992 110.048 336.756 110.082 336.554 110.115C336.351 110.166 336.098 110.25 335.811 110.385C335.525 110.52 335.154 110.739 334.732 111.043C334.614 111.127 334.041 111.549 333.012 112.341L331.292 113.64Z" fill="#BCB5B5"/>
<path d="M348.594 109.778L341.056 117.907H345.761C346.486 117.907 347.043 117.789 347.414 117.553C347.802 117.317 348.139 116.828 348.443 116.102L348.729 116.153L348.19 118.43H338.864V118.194L346.216 110.301H342.557C341.95 110.301 341.494 110.352 341.225 110.453C340.955 110.554 340.752 110.689 340.601 110.891C340.449 111.077 340.314 111.431 340.213 111.954H339.892L340.128 109.795H348.594V109.778Z" fill="#BCB5B5"/>
<path d="M361.461 115.529H357.026L356.25 116.895C356.064 117.233 355.963 117.486 355.963 117.654C355.963 117.789 356.047 117.907 356.216 117.992C356.385 118.093 356.739 118.16 357.295 118.194V118.43H353.686V118.194C354.159 118.126 354.479 118.042 354.614 117.941C354.901 117.739 355.221 117.317 355.575 116.693L359.606 109.576H359.909L363.906 116.76C364.227 117.334 364.513 117.722 364.783 117.89C365.036 118.059 365.407 118.16 365.879 118.177V118.413H361.36V118.177C361.815 118.16 362.119 118.11 362.287 118.008C362.456 117.907 362.523 117.789 362.523 117.654C362.523 117.469 362.405 117.182 362.186 116.76L361.461 115.529ZM361.225 115.057L359.285 111.566L357.295 115.057H361.225Z" fill="#BCB5B5"/>
<path d="M374.042 114.012C374.835 114.146 375.425 114.349 375.83 114.619C376.386 115.007 376.656 115.496 376.656 116.052C376.656 116.491 376.47 116.895 376.116 117.283C375.762 117.671 375.273 117.958 374.632 118.143C374.008 118.329 373.047 118.413 371.748 118.413H366.335V118.177H366.757C367.229 118.177 367.583 118.059 367.785 117.84C367.92 117.688 367.988 117.384 367.988 116.895V111.296C367.988 110.757 367.903 110.419 367.735 110.285C367.515 110.099 367.178 109.998 366.757 109.998H366.335V109.762H371.293C372.221 109.762 372.963 109.812 373.519 109.913C374.362 110.065 375.02 110.335 375.458 110.74C375.897 111.128 376.133 111.566 376.133 112.072C376.133 112.511 375.964 112.898 375.61 113.236C375.239 113.59 374.733 113.86 374.042 114.012ZM369.623 113.674C369.826 113.708 370.062 113.725 370.332 113.742C370.602 113.759 370.888 113.759 371.209 113.759C372.035 113.759 372.642 113.691 373.064 113.556C373.485 113.421 373.806 113.219 374.025 112.949C374.244 112.662 374.345 112.376 374.345 112.038C374.345 111.532 374.076 111.094 373.519 110.74C372.963 110.386 372.17 110.2 371.124 110.2C370.568 110.2 370.062 110.251 369.607 110.335V113.674H369.623ZM369.623 117.806C370.281 117.924 370.922 117.975 371.563 117.975C372.592 117.975 373.367 117.806 373.89 117.452C374.43 117.098 374.7 116.676 374.7 116.17C374.7 115.833 374.582 115.512 374.329 115.209C374.092 114.905 373.688 114.652 373.148 114.467C372.592 114.281 371.917 114.197 371.107 114.197C370.753 114.197 370.467 114.214 370.214 114.214C369.961 114.214 369.758 114.231 369.607 114.264V117.806H369.623Z" fill="#BCB5B5"/>
<path d="M386.521 111.212C386.521 110.689 386.403 110.369 386.184 110.217C385.965 110.082 385.509 110.014 384.835 110.014V109.778H389.81V110.014C389.101 110.031 388.646 110.116 388.444 110.267C388.258 110.419 388.14 110.773 388.14 111.347V116.844C388.14 117.418 388.241 117.772 388.444 117.924C388.646 118.076 389.101 118.16 389.81 118.177V118.413H384.835V118.177C385.56 118.16 386.032 118.076 386.218 117.924C386.42 117.772 386.521 117.401 386.521 116.844V111.886L381.209 117.03C381.226 117.401 381.243 117.654 381.31 117.772C381.378 117.907 381.513 117.991 381.715 118.059C381.934 118.143 382.322 118.177 382.879 118.177V118.413H377.937V118.177C378.646 118.16 379.101 118.076 379.303 117.924C379.506 117.772 379.59 117.418 379.59 116.844V111.347C379.59 110.773 379.489 110.419 379.303 110.267C379.118 110.116 378.646 110.031 377.937 110.014V109.778H382.879V110.014C382.17 110.031 381.715 110.116 381.513 110.267C381.31 110.419 381.226 110.773 381.226 111.347V116.339L386.521 111.212Z" fill="#BCB5B5"/>
<path d="M398.039 115.529H393.604L392.828 116.895C392.642 117.233 392.541 117.486 392.541 117.654C392.541 117.789 392.625 117.907 392.777 117.992C392.946 118.093 393.3 118.16 393.857 118.194V118.43H390.248V118.194C390.72 118.126 391.04 118.042 391.175 117.941C391.462 117.739 391.782 117.317 392.136 116.693L396.167 109.576H396.471L400.467 116.76C400.788 117.334 401.075 117.722 401.344 117.89C401.597 118.059 401.968 118.16 402.44 118.177V118.413H397.921V118.177C398.376 118.16 398.68 118.11 398.848 118.008C399.017 117.907 399.085 117.789 399.085 117.654C399.085 117.469 398.966 117.182 398.747 116.76L398.039 115.529ZM397.803 115.057L395.863 111.566L393.873 115.057H397.803Z" fill="#BCB5B5"/>
<path d="M414.128 118.193V118.43H411.16C410.839 118.042 410.165 117.317 409.136 116.237C408.107 115.175 407.466 114.568 407.247 114.45C407.028 114.332 406.691 114.281 406.235 114.281V116.861C406.235 117.435 406.336 117.789 406.522 117.941C406.724 118.092 407.163 118.177 407.888 118.193V118.43H402.947V118.193C403.655 118.177 404.094 118.092 404.296 117.941C404.498 117.789 404.6 117.435 404.6 116.861V111.363C404.6 110.79 404.498 110.419 404.296 110.284C404.11 110.132 403.638 110.048 402.93 110.031V109.795H407.871V110.031C407.146 110.048 406.708 110.132 406.505 110.284C406.303 110.436 406.218 110.807 406.218 111.363V113.775C406.826 113.775 407.247 113.741 407.483 113.691C407.719 113.623 407.989 113.505 408.293 113.286C408.596 113.084 408.832 112.864 408.984 112.628C409.17 112.392 409.389 112.004 409.659 111.465C409.912 110.959 410.114 110.605 410.283 110.402C410.435 110.2 410.704 110.031 411.058 109.896C411.413 109.761 411.834 109.694 412.323 109.694C413.183 109.694 413.622 109.913 413.622 110.368C413.622 110.537 413.538 110.672 413.369 110.79C413.2 110.908 412.998 110.959 412.779 110.959C412.627 110.959 412.357 110.891 411.986 110.756C411.666 110.638 411.43 110.571 411.295 110.571C411.109 110.571 410.957 110.638 410.839 110.79C410.704 110.925 410.502 111.296 410.232 111.869C409.692 112.949 409.001 113.657 408.158 113.944C408.681 114.011 409.389 114.534 410.283 115.529C411.244 116.574 411.952 117.283 412.408 117.637C412.863 118.008 413.419 118.177 414.128 118.193Z" fill="#BCB5B5"/>
<path d="M420.083 109.593C421.567 109.593 422.866 110.031 423.945 110.874C425.041 111.735 425.581 112.797 425.581 114.062C425.581 115.377 425.041 116.457 423.945 117.333C422.832 118.194 421.5 118.632 419.948 118.632C418.363 118.632 417.047 118.21 415.968 117.367C414.889 116.524 414.349 115.428 414.349 114.079C414.349 112.696 414.956 111.583 416.204 110.706C417.3 109.964 418.582 109.593 420.083 109.593ZM419.931 110.048C418.902 110.048 418.076 110.335 417.469 110.908C416.693 111.616 416.305 112.662 416.305 114.045C416.305 115.445 416.71 116.541 417.52 117.3C418.127 117.873 418.936 118.16 419.948 118.16C421.027 118.16 421.921 117.839 422.613 117.199C423.321 116.575 423.675 115.563 423.675 114.214C423.675 112.73 423.287 111.633 422.528 110.908C421.871 110.335 421.027 110.048 419.931 110.048Z" fill="#BCB5B5"/>
<path d="M433.354 118.429L428.919 111.144V116.929C428.919 117.451 428.987 117.789 429.138 117.924C429.341 118.109 429.678 118.193 430.133 118.193H430.538V118.429H426.541V118.193H426.946C427.435 118.193 427.772 118.092 427.975 117.873C428.11 117.738 428.16 117.418 428.16 116.945V111.296C428.16 110.908 428.11 110.638 427.992 110.469C427.907 110.351 427.772 110.25 427.553 110.149C427.334 110.065 426.997 110.031 426.524 110.031V109.795H429.762L433.928 116.558L438.026 109.795H441.281V110.031H440.876C440.387 110.031 440.05 110.132 439.83 110.368C439.712 110.503 439.645 110.807 439.645 111.296V116.945C439.645 117.468 439.729 117.806 439.881 117.94C440.083 118.126 440.421 118.21 440.876 118.21H441.281V118.446H436.407V118.21H436.812C437.301 118.21 437.655 118.109 437.84 117.89C437.958 117.755 438.026 117.434 438.026 116.962V111.178L433.607 118.463H433.354V118.429Z" fill="#BCB5B5"/>
<path d="M450.573 110.25H445.26V116.861C445.26 117.434 445.361 117.789 445.547 117.94C445.732 118.092 446.188 118.177 446.913 118.193V118.429H441.972V118.193C442.68 118.177 443.135 118.092 443.338 117.94C443.54 117.789 443.641 117.418 443.641 116.861V111.363C443.641 110.79 443.54 110.436 443.338 110.284C443.152 110.132 442.68 110.048 441.972 110.031V109.795H453.861V110.031C453.153 110.048 452.697 110.132 452.495 110.284C452.31 110.436 452.192 110.807 452.192 111.363V116.861C452.192 117.434 452.293 117.789 452.495 117.94C452.697 118.092 453.153 118.177 453.861 118.193V118.429H448.92V118.193C449.628 118.177 450.067 118.092 450.269 117.94C450.471 117.789 450.573 117.434 450.573 116.861V110.25Z" fill="#BCB5B5"/>
<path d="M462.11 115.529H457.675L456.899 116.895C456.714 117.233 456.612 117.486 456.612 117.654C456.612 117.789 456.697 117.907 456.865 117.992C457.034 118.093 457.388 118.16 457.945 118.194V118.43H454.336V118.194C454.808 118.126 455.128 118.042 455.263 117.941C455.55 117.739 455.87 117.317 456.225 116.693L460.255 109.576H460.559L464.556 116.76C464.876 117.334 465.163 117.722 465.433 117.89C465.702 118.059 466.057 118.16 466.529 118.177V118.413H462.009V118.177C462.464 118.16 462.768 118.11 462.937 118.008C463.105 117.907 463.173 117.789 463.173 117.654C463.173 117.469 463.055 117.182 462.835 116.76L462.11 115.529ZM461.874 115.057L459.935 111.566L457.945 115.057H461.874Z" fill="#BCB5B5"/>
<path d="M470.251 113.792H475.58V111.313C475.58 110.875 475.546 110.571 475.479 110.436C475.428 110.335 475.31 110.234 475.125 110.166C474.872 110.065 474.619 110.014 474.349 110.014H473.944V109.778H478.852V110.014H478.447C478.177 110.014 477.924 110.065 477.671 110.166C477.486 110.234 477.368 110.335 477.317 110.47C477.25 110.605 477.216 110.891 477.216 111.313V116.895C477.216 117.334 477.25 117.62 477.317 117.755C477.385 117.856 477.503 117.958 477.671 118.025C477.924 118.126 478.177 118.177 478.447 118.177H478.852V118.413H473.944V118.177H474.349C474.821 118.177 475.159 118.076 475.378 117.856C475.513 117.721 475.58 117.401 475.58 116.878V114.247H470.251V116.878C470.251 117.317 470.285 117.603 470.369 117.738C470.42 117.839 470.538 117.941 470.723 118.008C470.959 118.109 471.229 118.16 471.499 118.16H471.921V118.396H467.013V118.16H467.418C467.89 118.16 468.227 118.059 468.447 117.84C468.581 117.705 468.649 117.384 468.649 116.861V111.279C468.649 110.841 468.615 110.537 468.531 110.402C468.48 110.301 468.362 110.2 468.194 110.133C467.941 110.031 467.688 109.981 467.418 109.981H467.013V109.745H471.921V109.981H471.499C471.229 109.981 470.976 110.031 470.723 110.133C470.555 110.2 470.42 110.301 470.369 110.436C470.302 110.571 470.268 110.858 470.268 111.279V113.792H470.251Z" fill="#BCB5B5"/>
<path d="M488.112 111.212C488.112 110.689 487.994 110.369 487.775 110.217C487.556 110.082 487.101 110.014 486.426 110.014V109.778H491.401V110.014C490.693 110.031 490.237 110.116 490.035 110.267C489.833 110.419 489.731 110.773 489.731 111.347V116.844C489.731 117.418 489.833 117.772 490.035 117.924C490.237 118.076 490.693 118.16 491.401 118.177V118.413H486.426V118.177C487.151 118.16 487.623 118.076 487.809 117.924C488.011 117.772 488.112 117.401 488.112 116.844V111.886L482.8 117.03C482.8 117.401 482.834 117.654 482.901 117.772C482.952 117.907 483.087 117.991 483.306 118.059C483.525 118.143 483.913 118.177 484.47 118.177V118.413H479.529V118.177C480.237 118.16 480.692 118.076 480.895 117.924C481.097 117.772 481.198 117.418 481.198 116.844V111.347C481.198 110.773 481.097 110.419 480.895 110.267C480.709 110.116 480.237 110.031 479.529 110.014V109.778H484.47V110.014C483.761 110.031 483.289 110.116 483.104 110.267C482.918 110.419 482.817 110.773 482.817 111.347V116.339L488.112 111.212Z" fill="#BCB5B5"/>
<path d="M491.552 118.193C492.176 118.143 492.682 118.025 493.07 117.839C493.458 117.654 493.93 117.283 494.47 116.709L496.831 114.23C495.869 114.062 495.161 113.792 494.689 113.404C494.234 113.016 493.997 112.544 493.997 112.021C493.997 111.515 494.2 111.093 494.605 110.739C495.009 110.385 495.498 110.132 496.072 109.997C496.645 109.862 497.556 109.795 498.77 109.795H502.952V110.031H502.514C502.075 110.031 501.755 110.115 501.536 110.301C501.384 110.436 501.3 110.773 501.3 111.313V116.895C501.3 117.384 501.35 117.704 501.468 117.839C501.688 118.075 502.025 118.193 502.514 118.193H502.952V118.429H498.045V118.193H498.5C498.922 118.193 499.242 118.109 499.461 117.907C499.613 117.772 499.698 117.434 499.698 116.895V114.382C499.613 114.382 499.512 114.399 499.428 114.399C499.343 114.399 499.259 114.399 499.192 114.399C499.023 114.399 498.787 114.399 498.5 114.382L494.621 118.429H491.552V118.193ZM499.698 110.385C499.141 110.301 498.703 110.267 498.365 110.267C497.623 110.267 497.033 110.436 496.595 110.773C496.139 111.11 495.92 111.549 495.92 112.088C495.92 112.645 496.207 113.1 496.746 113.455C497.303 113.809 498.129 113.994 499.225 113.994H499.428C499.512 113.994 499.596 113.994 499.714 113.994V110.385H499.698Z" fill="#BCB5B5"/>
</svg>
