<svg width="526" height="121" viewBox="0 0 526 121" fill="none" xmlns="http://www.w3.org/2000/svg">
<path fill-rule="evenodd" clip-rule="evenodd" d="M108.001 68.4784V28.493H101.879H100.884H100.294H94.4254L76.6167 74.6169L76.4649 74.988L76.2119 75.6288H75.5373H75.1326H71.0346H70.6298H69.9552L69.7023 74.988L69.5505 74.6169L51.7418 28.493C49.9204 28.493 49.5831 28.493 47.7618 28.493C46.3115 28.493 45.4177 27.3631 44.9117 26.0814L43.0566 21.3426H45.2996H45.8898H65.5199H66.1102H67.1052V22.3375V22.9278V26.9078V27.4981V28.493H66.1102H65.5199H59.7355L73.0751 63.4022L86.4317 28.493H80.6472H80.0907H79.0957V27.4981V26.9078V24.4624V22.9109V22.3207V21.3257H80.0907H80.681H82.2493H99.2992H100.311H100.901H113.887H114.477H115.472V22.3207V22.9109V68.4784H123.095H123.685H124.68V69.4733V70.0636V74.0436V74.6338V75.6288H123.685H123.095H100.378H99.7882H98.8101V74.6338V74.0436C98.8101 73.1666 98.8101 72.3066 98.8101 71.4296C98.8101 69.3891 100.311 68.4784 102.25 68.4784C104.173 68.4784 106.096 68.4784 108.001 68.4784Z" fill="#BCB5B5"/>
<path fill-rule="evenodd" clip-rule="evenodd" d="M116.077 2.47119V3.46623V4.05644V9.94208V10.5323V11.5273H115.082H114.491H108.977H108.387H107.392C107.392 9.25064 107.392 8.57611 107.392 6.29943C107.392 3.8541 109.095 2.48807 110.916 2.48807C112.636 2.47121 114.357 2.47119 116.077 2.47119Z" fill="#BCB5B5"/>
<path fill-rule="evenodd" clip-rule="evenodd" d="M201.645 68.7988L201.611 68.8158L201.645 68.7988Z" fill="#BCB5B5"/>
<path fill-rule="evenodd" clip-rule="evenodd" d="M181.815 28.4935H177.566C176.419 28.4092 175.542 27.8865 174.952 26.9421L172.102 21.3431H173.097H173.687H181.815V8.71172V8.1214V7.12646H182.794H183.384H187.684H188.274H189.269V8.1214V8.71172V21.3431H206.758L201.125 26.5541C199.877 27.7683 198.208 28.4092 196.099 28.4935H189.253V55.2403V55.2572V55.8307C189.286 57.1629 189.387 58.3771 189.573 59.4733C189.674 60.1141 189.809 60.6876 189.961 61.2273C190.113 61.7669 190.281 62.2728 190.467 62.745C191.175 64.5157 192.153 65.7975 193.233 66.6913C193.941 67.2984 194.717 67.7369 195.476 68.0573C195.779 68.1753 196.049 68.2765 196.336 68.3777C196.639 68.4789 196.909 68.5463 197.179 68.6137C197.988 68.7992 198.764 68.8668 199.455 68.9005H199.827H199.843C200.265 68.9005 200.636 68.8836 200.94 68.8499C201.277 68.8161 201.496 68.7993 201.631 68.7656C201.665 68.7656 201.648 68.7825 201.631 68.7993L201.715 68.7656L201.816 68.7487L202.542 68.5632L203.773 68.2597V69.5414V70.2834V74.2634V74.7355V75.5282L202.997 75.6968L202.542 75.798L202.424 75.8317H202.339C202.339 75.8317 202.356 75.8486 202.306 75.8486C202.221 75.8655 202.086 75.8823 201.935 75.8991C201.429 75.9666 200.619 76.051 199.675 76.051H198.68V76.0341C197.432 75.9835 195.998 75.8149 194.497 75.427C192.541 74.9379 190.484 74.0778 188.595 72.6275C186.706 71.1771 185.003 69.1534 183.789 66.3371C182.591 63.5713 181.849 60.0467 181.849 55.5439V28.4935H181.815Z" fill="#BCB5B5"/>
<path fill-rule="evenodd" clip-rule="evenodd" d="M240.235 41.2761H242.022V40.6015V39.9606C241.989 38.5272 241.854 37.2286 241.618 36.0481C241.533 35.6096 241.432 35.2049 241.314 34.817C240.741 32.8439 239.847 31.3262 238.7 30.2131C238.026 29.5554 237.233 29.0157 236.373 28.5941C236.036 28.4255 235.698 28.2905 235.361 28.1725C235.007 28.0376 234.653 27.9364 234.282 27.8352C233.118 27.5316 231.853 27.3799 230.487 27.3462H230.015C229.577 27.3462 229.172 27.3631 228.801 27.3799C223.303 27.6666 219.171 29.8589 217.215 31.1238C217.046 31.2249 216.911 31.3261 216.776 31.4104C215.444 32.3211 213.977 32.085 213.286 31.09L212.999 30.6853L211.245 28.2063L210.941 27.7678L210.419 27.0257L211.11 26.4355L211.515 26.0813L211.549 26.0476C212.088 25.5922 218.868 20.0776 230.116 20.0776H231.111V20.0945C232.831 20.1451 234.417 20.3305 235.884 20.651C236.44 20.769 236.997 20.9208 237.553 21.0895C240.37 21.9495 242.714 23.3493 244.552 25.3055C246.188 27.0426 247.436 29.2012 248.262 31.7477C248.448 32.3211 248.6 32.8945 248.734 33.4679C248.869 34.0413 248.987 34.6484 249.089 35.2893C249.291 36.6047 249.426 37.9876 249.46 39.4716H249.476V40.4666V40.4834V67.7868V67.9386C249.476 68.0229 249.493 68.1073 249.51 68.1747L249.527 68.2253C249.544 68.2759 249.561 68.3096 249.578 68.3265C249.594 68.3265 249.594 68.3434 249.628 68.3602L249.679 68.3771C249.713 68.394 249.729 68.394 249.746 68.394C249.814 68.4108 249.898 68.4276 249.982 68.4276H250.117H256.256H256.846H257.841V69.4227V70.0129V73.9928V74.5832V75.5781H256.846H256.256H249.51C248.296 75.5781 247.233 75.4432 246.306 75.1565C245.328 74.8529 244.518 74.3976 243.877 73.7736C243.22 73.1328 242.731 72.3571 242.427 71.4295C242.174 70.6538 242.039 69.7937 242.006 68.8156C240.943 70.1816 239.577 71.615 237.874 72.8798C234.906 75.1059 230.909 76.8261 225.681 76.8261H224.686V76.7924C223.539 76.7418 222.392 76.6069 221.262 76.3877C220.79 76.3033 220.318 76.1853 219.846 76.0672C217.4 75.4264 215.073 74.3808 213.083 72.8798C211.262 71.5138 209.727 69.76 208.648 67.6351C208.412 67.1629 208.193 66.6906 208.007 66.1847C207.822 65.6956 207.653 65.1728 207.501 64.6163C207.214 63.5201 207.029 62.3565 206.961 61.1086H206.928V60.1135C206.928 55.4253 208.513 51.8838 211.043 49.2024C213.522 46.5547 216.911 44.8008 220.588 43.6034C224.129 42.4566 227.924 41.8663 231.398 41.5628C234.838 41.3098 237.992 41.293 240.235 41.2761ZM225.715 69.7093H226.136C227.738 69.6587 229.222 69.389 230.588 68.8999C231.145 68.6975 231.668 68.4782 232.174 68.2253C232.663 67.9723 233.152 67.6856 233.641 67.3821C235.26 66.3027 236.643 64.9199 237.789 63.3347L237.924 63.1491C238.801 61.918 239.526 60.5521 240.134 59.1186C240.37 58.5452 240.589 57.9718 240.774 57.4322C240.96 56.8925 241.129 56.3022 241.28 55.6951C241.736 53.8737 241.989 52.0018 242.039 50.1804V49.624V48.4434H240.353H240.1H239.661H239.442C234.113 48.3929 214.635 48.3591 214.635 59.6582V59.9786C214.668 60.8893 214.82 61.8 215.09 62.6769C215.158 62.8962 215.242 63.1323 215.343 63.3852C215.815 64.5657 216.507 65.6619 217.417 66.6063C218.024 67.2302 218.75 67.7868 219.559 68.2422C219.846 68.4108 220.166 68.5625 220.504 68.7143C220.841 68.8661 221.178 68.9842 221.532 69.1023C222.662 69.4733 223.927 69.6925 225.31 69.7262H225.715V69.7093Z" fill="#BCB5B5"/>
<path fill-rule="evenodd" clip-rule="evenodd" d="M160.345 41.2765H162.133V40.6019V39.9611C162.099 38.5276 161.964 37.229 161.728 36.0485C161.644 35.6101 161.543 35.2053 161.425 34.8175C160.851 32.8443 159.958 31.3266 158.811 30.2135C158.136 29.5558 157.344 29.0161 156.483 28.5945C156.146 28.4259 155.809 28.291 155.472 28.1729C155.117 28.038 154.763 27.9368 154.392 27.8356C153.229 27.532 151.964 27.3803 150.598 27.3466H150.126C149.687 27.3466 149.282 27.3635 148.911 27.3803C143.414 27.667 139.282 29.8593 137.326 31.1242C137.157 31.2254 137.022 31.3265 136.887 31.4108C135.555 32.3215 134.088 32.0854 133.396 31.0904L133.11 30.6857L131.356 28.2067L131.052 27.7682L130.512 27.0599L131.204 26.4696L131.609 26.1155L131.642 26.0818C132.182 25.6264 138.961 20.1118 150.21 20.1118H151.205V20.1286C152.925 20.1792 154.51 20.3647 155.978 20.6851C156.534 20.8032 157.091 20.955 157.647 21.1236C160.463 21.9837 162.808 23.3835 164.646 25.3397C166.282 27.0767 167.53 29.2354 168.356 31.7819C168.541 32.3553 168.693 32.9287 168.828 33.5021C168.963 34.0755 169.081 34.6825 169.182 35.3234C169.385 36.6388 169.52 38.0217 169.553 39.5058H169.57V40.5007V40.5176V67.821V67.9728C169.57 68.0571 169.587 68.1413 169.604 68.2088L169.621 68.2594C169.638 68.31 169.655 68.3438 169.671 68.3606C169.671 68.3606 169.688 68.3775 169.722 68.3944L169.773 68.4112C169.806 68.428 169.823 68.4281 169.84 68.4281C169.907 68.4449 169.992 68.4618 170.076 68.4618H170.211H176.35H176.94H177.935V69.4568V70.0471V74.027V74.6172V75.6123H176.94H176.35H169.604C168.39 75.6123 167.327 75.4774 166.4 75.1907C165.422 74.8871 164.612 74.4318 163.971 73.8078C163.314 73.1669 162.824 72.3911 162.521 71.4636C162.268 70.6879 162.133 69.8278 162.099 68.8497C161.037 70.2157 159.671 71.6492 157.968 72.914C154.999 75.1401 151.003 76.8602 145.775 76.8602H144.78V76.8266C143.633 76.776 142.486 76.641 141.356 76.4217C140.884 76.3374 140.412 76.2193 139.94 76.1013C137.494 75.4605 135.167 74.4149 133.177 72.914C131.356 71.548 129.821 69.794 128.742 67.6691C128.506 67.1969 128.286 66.7248 128.101 66.2188C127.915 65.7298 127.747 65.207 127.595 64.6505C127.308 63.5543 127.123 62.3906 127.055 61.1427H127.021V60.1477C127.021 55.4594 128.607 51.9179 131.136 49.2364C133.615 46.5887 137.005 44.8348 140.682 43.6375C144.223 42.4907 148.018 41.9005 151.492 41.597C154.932 41.3103 158.086 41.2934 160.345 41.2765ZM145.825 69.7098H146.247C147.849 69.6592 149.333 69.3894 150.699 68.9003C151.256 68.6979 151.778 68.4787 152.284 68.2257C152.773 67.9727 153.262 67.686 153.751 67.3825C155.37 66.3032 156.753 64.9203 157.9 63.3351L158.035 63.1495C158.912 61.9184 159.637 60.5525 160.244 59.119C160.48 58.5456 160.7 57.9722 160.885 57.4326C161.071 56.8929 161.239 56.3026 161.391 55.6955C161.846 53.8742 162.099 52.0022 162.15 50.1808V49.6244V48.4439H160.463H160.21H159.772H159.553C154.224 48.3933 134.745 48.3595 134.745 59.6586V59.979C134.779 60.8897 134.931 61.8004 135.201 62.6774C135.268 62.8966 135.352 63.1327 135.454 63.3856C135.926 64.5661 136.617 65.6623 137.528 66.6067C138.135 67.2307 138.86 67.7872 139.67 68.2426C139.956 68.4112 140.277 68.5629 140.614 68.7147C140.951 68.8665 141.289 68.9846 141.643 69.1027C142.773 69.4737 144.038 69.6929 145.42 69.7266H145.825V69.7098Z" fill="#BCB5B5"/>
<path fill-rule="evenodd" clip-rule="evenodd" d="M33.307 41.2761H35.0947V40.6015V39.9606C35.0609 38.5272 34.926 37.2286 34.6899 36.0481C34.6056 35.6096 34.5044 35.2049 34.3864 34.817C33.813 32.8439 32.9192 31.3262 31.7724 30.2131C31.0978 29.5554 30.3052 29.0157 29.4451 28.5941C29.1078 28.4255 28.7705 28.2905 28.4333 28.1725C28.0791 28.0376 27.725 27.9364 27.3539 27.8352C26.1903 27.5316 24.9255 27.3799 23.5595 27.3462H23.0873C22.6488 27.3462 22.244 27.3631 21.873 27.3799C16.3753 27.6666 12.2435 29.8589 10.2872 31.1238C10.1186 31.2249 9.98368 31.3261 9.84877 31.4104C8.51649 32.3211 7.04929 32.085 6.35785 31.09L6.07116 30.6853L4.31727 28.2063L4.01371 27.7678L3.49092 27.0257L4.18235 26.4355L4.5871 26.0813L4.62083 26.0476C5.16049 25.5922 11.9399 20.0776 23.1885 20.0776H24.1834V20.0945C25.9036 20.1451 27.4889 20.3305 28.9561 20.651C29.5126 20.769 30.0691 20.9208 30.6256 21.0895C33.442 21.9495 35.7861 23.3493 37.6243 25.3055C39.2602 27.0426 40.5081 29.2012 41.3345 31.7477C41.52 32.3211 41.6718 32.8945 41.8067 33.4679C41.9416 34.0413 42.0596 34.6484 42.1608 35.2893C42.3632 36.6047 42.4981 37.9876 42.5318 39.4716H42.5487V40.4666V40.4834V67.7868V67.9386C42.5487 68.0229 42.5656 68.1073 42.5824 68.1747L42.5993 68.2253C42.6162 68.2759 42.633 68.3096 42.6499 68.3265C42.6668 68.3265 42.6668 68.3434 42.7005 68.3602L42.7511 68.3771C42.7848 68.394 42.8017 68.394 42.8185 68.394C42.886 68.4108 42.9703 68.4276 43.0546 68.4276H43.1895H49.3282H49.9184H50.9134V69.4227V70.0129V73.9928V74.5832V75.5781H49.9184H49.3282H42.5824C41.3682 75.5781 40.3057 75.4432 39.3782 75.1565C38.4001 74.8529 37.5906 74.3976 36.9497 73.7736C36.292 73.1328 35.803 72.3571 35.4994 71.4295C35.2464 70.6538 35.1115 69.7937 35.0778 68.8156C34.0154 70.1816 32.6493 71.615 30.946 72.8798C27.9779 75.1059 23.9811 76.8261 18.7531 76.8261H17.7581V76.7924C16.6114 76.7418 15.4646 76.6069 14.3347 76.3877C13.8625 76.3033 13.3903 76.1853 12.9181 76.0672C10.4727 75.4264 8.14547 74.3808 6.15548 72.8798C4.33413 71.5138 2.79948 69.76 1.72016 67.6351C1.48406 67.1629 1.26483 66.6906 1.07932 66.1847C0.89381 65.6956 0.725166 65.1728 0.573387 64.6163C0.286694 63.5201 0.101187 62.3565 0.0337294 61.1086H0V60.1135C0 55.4253 1.58525 51.8838 4.1149 49.2024C6.59395 46.5547 9.98368 44.8008 13.6601 43.6034C17.2016 42.4566 20.9961 41.8663 24.4701 41.5628C27.9105 41.3098 31.0641 41.293 33.307 41.2761ZM18.7869 69.7093H19.2085C20.8106 69.6587 22.2946 69.389 23.6607 68.8999C24.2172 68.6975 24.74 68.4782 25.2459 68.2253C25.735 67.9723 26.224 67.6856 26.7131 67.3821C28.3321 66.3027 29.7149 64.9199 30.8617 63.3347L30.9966 63.1491C31.8736 61.918 32.5987 60.5521 33.2059 59.1186C33.442 58.5452 33.6612 57.9718 33.8467 57.4322C34.0322 56.8925 34.2009 56.3022 34.3526 55.6951C34.808 53.8737 35.0609 52.0018 35.1115 50.1804V49.624V48.4434H33.4251H33.1721H32.7337H32.5144C27.1853 48.3929 7.707 48.3591 7.707 59.6582V59.9786C7.74073 60.8893 7.89251 61.8 8.16234 62.6769C8.22979 62.8962 8.31412 63.1323 8.4153 63.3852C8.8875 64.5657 9.57894 65.6619 10.4896 66.6063C11.0967 67.2302 11.8219 67.7868 12.6314 68.2422C12.9181 68.4108 13.2385 68.5625 13.5758 68.7143C13.9131 68.8661 14.2504 68.9842 14.6045 69.1023C15.7344 69.4733 16.9992 69.6925 18.3821 69.7262H18.7869V69.7093Z" fill="#BCB5B5"/>
<path fill-rule="evenodd" clip-rule="evenodd" d="M275.664 66.0331C275.664 69.2374 275.664 72.4416 275.664 75.6458C272.527 75.6458 269.39 75.6458 266.271 75.6458C266.271 73.1668 266.271 71.7332 266.271 69.2542C266.271 67.3654 267.485 66.0331 269.492 66.0331H275.664ZM374.388 28.881L374.674 28.5269L374.708 28.4931H374.405H373.41H349.918C349.918 30.2639 349.918 32.0347 349.918 33.8054C349.918 36.8073 348.72 38.207 346.477 38.207C345.179 38.207 343.88 38.207 342.565 38.207V37.2119V36.6217V22.9279V22.3376V21.3427H343.56H344.15H384.034H384.624H385.619V22.3376V22.9279V26.402V26.6043V26.9585L385.4 27.2283L385.265 27.3969L353.088 67.6689L352.768 68.0737C352.65 68.2087 352.548 68.3604 352.447 68.4954H352.751H378.267C378.267 66.3199 378.267 64.5153 378.267 62.3398C378.267 59.962 379.936 58.7815 381.707 58.7815C383.005 58.7815 384.321 58.7815 385.619 58.7815V59.7764V60.3667V74.0606V74.6508V75.6458H384.624H384.034H343.239H342.649H341.654V74.6508V74.0606V70.5865V70.3841V70.03L341.873 69.7602L341.991 69.6084L373.646 29.876H373.629L374.388 28.881ZM285.934 68.4785H293.557V8.03669C291.331 8.03669 289.375 8.03669 287.149 8.03669C285.395 8.03669 283.843 6.90683 283.843 5.03489C283.843 3.55083 283.843 2.37029 283.843 0.88623H284.838H285.428H299.443H300.033H301.028V1.88127V2.47148V41.4956H307.318L318.415 28.4931C317.386 28.4931 316.577 28.4931 315.565 28.4931C313.845 28.4931 312.293 27.3294 312.293 25.7105C312.293 24.7829 312.293 23.8555 312.293 22.9279V22.3376V21.3427H313.288H313.878H334.638H335.229H336.224V22.3376V22.9279V26.9079V27.4982V28.4931H335.229H334.638H328.095L314.233 44.4805C314.857 45.1045 315.7 46.1332 316.695 47.7522L316.712 47.769L316.779 47.8871L328.146 66.8763L328.23 66.9944C328.449 67.3654 328.652 67.6521 328.837 67.8545C328.989 68.0231 329.124 68.1411 329.292 68.2086C329.495 68.3098 329.765 68.3772 330.136 68.4109C330.574 68.4615 331.114 68.4785 331.788 68.4785H335.566H336.156H337.151V69.4734V70.0637V74.0437V74.6339V75.6289H336.156H335.566H331.586C330.102 75.6289 328.888 75.5614 327.842 75.359C326.746 75.1567 325.852 74.8363 325.026 74.3303C324.216 73.8244 323.525 73.1836 322.867 72.3572C322.243 71.5646 321.619 70.6202 320.928 69.4565L309.275 50.1301L309.241 50.0794C309.038 49.759 308.836 49.506 308.634 49.3205C308.448 49.1519 308.246 49.017 308.01 48.9327C307.74 48.8315 307.419 48.764 307.015 48.7134C306.576 48.6628 306.053 48.646 305.413 48.646H301.062V68.4954H308.684H309.275H310.27V69.4903V70.0806V74.0606V74.6508V75.6458H309.275H308.684H285.985H285.395H284.4V74.6508V74.0606V70.0806V69.4903V68.4954H285.395H285.934V68.4785Z" fill="#BCB5B5"/>
<path fill-rule="evenodd" clip-rule="evenodd" d="M411.151 58.1405C411.151 58.1405 411.151 58.1236 411.151 58.1405C411.151 58.1068 411.151 58.1067 411.151 58.1067C411.151 57.9887 411.252 57.6008 412.163 57.2467C413.242 56.825 414.912 56.2348 414.912 56.2348L409.92 38.1562C409.92 38.1562 414.203 38.1563 415.3 38.2406C416.396 38.3249 416.885 38.932 416.885 38.932L429.685 54.2111L430.393 54.7508C430.393 54.7508 444.07 52.8283 450.985 52.4741C457.899 52.12 463.262 51.8838 463.734 50.9225C464.206 49.9613 463.852 43.654 461.946 37.2118C460.041 30.7696 446.212 0.970397 446.212 0.970397C446.212 0.970397 452.536 0.38017 455.504 2.04974C458.489 3.71931 490.902 46.9931 492.336 48.8988C493.769 50.8045 495.439 50.9225 495.439 50.9225C495.439 50.9225 512.118 51.8839 518.56 53.3005C528.915 55.6109 527.802 60.8893 518.56 62.9299C512.118 64.3634 495.439 65.3078 495.439 65.3078C495.439 65.3078 493.769 65.4259 492.336 67.3316C490.902 69.2373 458.489 112.511 455.504 114.181C452.519 115.85 446.212 115.26 446.212 115.26C446.212 115.26 460.041 85.4607 461.946 79.0186C463.852 72.5764 464.206 66.2691 463.734 65.3078C463.262 64.3466 457.899 64.1105 450.985 63.7564C444.07 63.4022 430.393 61.4796 430.393 61.4796L429.685 62.0193L416.885 77.2984C416.885 77.2984 416.413 77.8886 415.3 77.9898C414.203 78.0741 409.92 78.0742 409.92 78.0742L414.912 59.9955C414.912 59.9955 413.242 59.4053 412.163 58.9837C411.269 58.6464 411.168 58.2417 411.151 58.1405Z" fill="#BCB5B5"/>
<path d="M13.2552 112.443C12.1084 113.152 10.7424 113.506 9.15716 113.506C7.04912 113.506 5.36269 112.781 4.081 111.347C2.79931 109.914 2.1416 108.008 2.1416 105.681C2.1416 103.219 2.86677 101.212 4.3171 99.6433C5.76743 98.0918 7.62251 97.2991 9.89919 97.2991C11.0797 97.2991 12.2096 97.5352 13.3226 98.0243V99.5927C12.2096 98.9013 10.9954 98.5639 9.67996 98.5639C7.87547 98.5639 6.40828 99.2048 5.27837 100.52C4.14846 101.819 3.59193 103.505 3.59193 105.58C3.59193 107.586 4.11473 109.188 5.14345 110.403C6.17217 111.617 7.53819 112.224 9.22462 112.224C10.7761 112.224 12.1253 111.819 13.2721 110.993V112.443H13.2552ZM17.2858 105.461C17.2858 107.586 17.7748 109.239 18.753 110.436C19.7311 111.634 21.0802 112.224 22.7835 112.224C24.5206 112.224 26.207 111.583 27.8597 110.302V111.786C26.2576 112.916 24.47 113.489 22.4968 113.489C20.5069 113.489 18.8879 112.781 17.6736 111.347C16.4425 109.914 15.8354 107.907 15.8354 105.293C15.8354 103.05 16.4763 101.144 17.758 99.5927C19.0397 98.0581 20.7092 97.2822 22.7498 97.2822C24.6723 97.2822 26.1564 97.9568 27.1683 99.306C28.197 100.655 28.7029 102.493 28.7029 104.838V105.461H17.2858ZM27.2694 104.197C27.2189 102.409 26.7804 101.026 25.9878 100.048C25.1951 99.0699 24.099 98.5639 22.6992 98.5639C21.2489 98.5639 20.0515 99.0531 19.1071 100.014C18.1627 100.976 17.5725 102.375 17.3532 104.18H27.2694V104.197ZM33.9983 110.386H33.9309V120.235H32.548V97.6871H33.9309V100.874H33.9983C34.5548 99.7444 35.3475 98.8675 36.3762 98.2435C37.4049 97.6195 38.5517 97.316 39.7828 97.316C41.739 97.316 43.2737 97.9906 44.3699 99.3397C45.466 100.689 46.0226 102.527 46.0226 104.854C46.0226 107.435 45.3817 109.526 44.1338 111.128C42.8689 112.713 41.1994 113.523 39.1419 113.523C36.8147 113.506 35.1114 112.46 33.9983 110.386ZM33.9477 104.635V106.574C33.9477 108.126 34.4368 109.458 35.4149 110.555C36.393 111.668 37.6747 112.224 39.26 112.224C40.8452 112.224 42.1269 111.55 43.105 110.2C44.1 108.851 44.5891 107.064 44.5891 104.871C44.5891 102.949 44.1338 101.414 43.24 100.267C42.3293 99.1373 41.1319 98.5639 39.6141 98.5639C37.8096 98.5639 36.4268 99.1711 35.4318 100.368C34.4368 101.583 33.9477 102.999 33.9477 104.635ZM60.7957 108.716C60.7957 109.374 60.6777 109.964 60.4584 110.504C60.2392 111.044 59.9188 111.516 59.4972 111.904C59.0756 112.292 58.5865 112.595 58.03 112.814C57.4566 113.034 56.8326 113.135 56.1749 113.135H49.8676V97.6871H55.7364C56.5122 97.6871 57.1699 97.7882 57.7264 97.9737C58.2829 98.1592 58.7383 98.4291 59.1093 98.7495C59.4803 99.0868 59.7501 99.4746 59.9188 99.9299C60.0874 100.385 60.1886 100.874 60.1886 101.397C60.1886 101.869 60.1212 102.308 59.9862 102.713C59.8513 103.117 59.649 103.488 59.4128 103.809C59.1599 104.129 58.8563 104.416 58.5022 104.635C58.148 104.854 57.7433 105.006 57.3048 105.107C57.8782 105.175 58.3841 105.31 58.8226 105.512C59.2611 105.714 59.6321 105.984 59.9188 106.288C60.2055 106.608 60.4247 106.979 60.5765 107.384C60.7114 107.789 60.7957 108.227 60.7957 108.716ZM58.7214 101.599C58.7214 101.245 58.6708 100.908 58.5696 100.588C58.4684 100.267 58.2829 99.9806 58.03 99.7445C57.777 99.5084 57.4566 99.306 57.0518 99.1711C56.6471 99.0193 56.1412 98.9519 55.5509 98.9519H51.2505V104.551H55.1799C55.8713 104.551 56.4279 104.466 56.8832 104.298C57.3385 104.129 57.7096 103.91 57.9794 103.64C58.2492 103.37 58.4347 103.05 58.5528 102.696C58.6708 102.342 58.7214 101.971 58.7214 101.599ZM59.3454 108.834C59.3454 108.43 59.2779 108.025 59.143 107.671C59.0081 107.3 58.7889 106.979 58.4853 106.709C58.1818 106.44 57.777 106.22 57.2542 106.069C56.7483 105.917 56.1243 105.832 55.3823 105.832H51.2505V111.887H55.8713C56.4447 111.887 56.9507 111.819 57.3723 111.668C57.8107 111.516 58.1649 111.313 58.4516 111.044C58.7383 110.774 58.9575 110.47 59.1093 110.082C59.2779 109.694 59.3454 109.273 59.3454 108.834ZM75.3328 113.118V100.2C75.2485 100.318 75.181 100.419 75.0967 100.537C75.0292 100.638 74.9618 100.739 74.9112 100.79L65.6358 113.118H64.6577V97.6702H66.0405V110.453C66.108 110.352 66.1586 110.234 66.226 110.133C66.2935 110.032 66.361 109.947 66.4284 109.863L75.6363 97.6533H76.7494V113.101H75.3328V113.118ZM91.6743 112.443C90.5275 113.152 89.1615 113.506 87.5763 113.506C85.4682 113.506 83.7818 112.781 82.5001 111.347C81.2184 109.914 80.5607 108.008 80.5607 105.681C80.5607 103.219 81.2859 101.212 82.7362 99.6433C84.1865 98.0918 86.0416 97.2991 88.3183 97.2991C89.4988 97.2991 90.6287 97.5352 91.7418 98.0243V99.5927C90.6287 98.9013 89.4145 98.5639 88.0991 98.5639C86.2946 98.5639 84.8274 99.2048 83.6975 100.52C82.5676 101.819 82.011 103.505 82.011 105.58C82.011 107.586 82.5338 109.188 83.5626 110.403C84.5913 111.617 85.9573 112.224 87.6437 112.224C89.1953 112.224 90.5444 111.819 91.6912 110.993V112.443H91.6743ZM114.34 113.118V98.935H105.233V113.118H103.85V97.6702H115.74V113.118H114.34ZM126.887 113.506C124.627 113.506 122.856 112.764 121.541 111.28C120.226 109.796 119.568 107.873 119.568 105.495C119.568 102.932 120.259 100.925 121.625 99.4747C122.991 98.0243 124.796 97.2991 127.039 97.2991C129.248 97.2991 130.985 98.0075 132.25 99.4578C133.532 100.891 134.172 102.881 134.172 105.428C134.172 107.839 133.515 109.779 132.216 111.263C130.934 112.764 129.147 113.506 126.887 113.506ZM126.988 98.5639C125.167 98.5639 123.717 99.1711 122.637 100.402C121.558 101.633 121.018 103.337 121.018 105.512C121.018 107.536 121.541 109.155 122.603 110.386C123.666 111.617 125.099 112.224 126.921 112.224C128.793 112.224 130.209 111.617 131.221 110.42C132.233 109.205 132.722 107.536 132.722 105.394C132.722 103.185 132.216 101.498 131.221 100.335C130.226 99.1542 128.826 98.5639 126.988 98.5639ZM146.719 113.118L139.468 105.546H139.4V113.118H138.017V97.6702H139.4V105.04H139.468L146.635 97.6702H148.44L140.952 105.208L148.676 113.118H146.719ZM155.219 116.271C154.663 117.654 154.022 118.683 153.347 119.358C152.656 120.032 151.779 120.369 150.699 120.369C150.244 120.369 149.839 120.302 149.502 120.15V118.767C149.856 118.902 150.278 118.987 150.767 118.987C151.998 118.987 152.976 118.127 153.684 116.423L155.118 113L149.266 97.6702H150.818L155.489 110.251C155.59 110.521 155.658 110.723 155.708 110.875C155.742 111.077 155.792 111.246 155.843 111.398H155.911L156.265 110.352L161.24 97.6871H162.757L155.219 116.271ZM175.962 113.118V98.935H166.855V113.118H165.473V97.6702H177.362V113.118H175.962ZM190.988 113.118L183.737 105.546H183.669V113.118H182.286V97.6702H183.669V105.04H183.737L190.904 97.6702H192.708L185.221 105.208L192.945 113.118H190.988ZM206.402 113.118V100.2C206.318 100.318 206.251 100.419 206.166 100.537C206.099 100.638 206.031 100.739 205.981 100.79L196.705 113.118H195.727V97.6702H197.11V110.453C197.178 110.352 197.228 110.234 197.296 110.133C197.363 110.032 197.43 109.947 197.498 109.863L206.706 97.6533H207.819V113.101H206.402V113.118ZM230.434 113.118V110.032H230.383C229.894 111.094 229.169 111.937 228.225 112.561C227.28 113.185 226.235 113.506 225.088 113.506C223.621 113.506 222.457 113.101 221.614 112.275C220.754 111.448 220.332 110.403 220.332 109.155C220.332 106.456 222.12 104.821 225.695 104.264L230.434 103.556C230.434 100.234 229.186 98.5808 226.69 98.5808C224.987 98.5808 223.334 99.2723 221.732 100.638V98.9687C222.305 98.5133 223.081 98.1254 224.059 97.805C225.037 97.4846 225.965 97.3329 226.825 97.3329C228.41 97.3329 229.641 97.8219 230.518 98.8169C231.378 99.7951 231.817 101.245 231.817 103.117V113.168H230.434V113.118ZM226.184 105.428C224.565 105.664 223.435 106.035 222.778 106.558C222.12 107.08 221.799 107.924 221.799 109.087C221.799 109.998 222.103 110.757 222.71 111.347C223.317 111.937 224.16 112.241 225.257 112.241C226.741 112.241 227.989 111.684 228.967 110.588C229.962 109.492 230.451 108.075 230.451 106.338V104.838L226.184 105.428ZM247.416 108.716C247.416 109.374 247.298 109.964 247.079 110.504C246.86 111.044 246.539 111.516 246.118 111.904C245.696 112.292 245.207 112.595 244.651 112.814C244.077 113.034 243.453 113.135 242.796 113.135H236.488V97.6871H242.357C243.133 97.6871 243.791 97.7882 244.347 97.9737C244.904 98.1592 245.359 98.4291 245.73 98.7495C246.101 99.0868 246.371 99.4746 246.539 99.9299C246.708 100.385 246.809 100.874 246.809 101.397C246.809 101.869 246.742 102.308 246.607 102.713C246.472 103.117 246.27 103.488 246.033 103.809C245.781 104.129 245.477 104.416 245.123 104.635C244.769 104.854 244.364 105.006 243.925 105.107C244.499 105.175 245.005 105.31 245.443 105.512C245.882 105.714 246.253 105.984 246.539 106.288C246.826 106.608 247.045 106.979 247.197 107.384C247.332 107.789 247.416 108.227 247.416 108.716ZM245.342 101.599C245.342 101.245 245.291 100.908 245.19 100.588C245.089 100.267 244.904 99.9806 244.651 99.7445C244.398 99.5084 244.077 99.306 243.672 99.1711C243.268 99.0193 242.762 98.9519 242.172 98.9519H237.871V104.551H241.801C242.492 104.551 243.048 104.466 243.504 104.298C243.959 104.129 244.33 103.91 244.6 103.64C244.87 103.37 245.055 103.05 245.173 102.696C245.291 102.342 245.342 101.971 245.342 101.599ZM245.966 108.834C245.966 108.43 245.899 108.025 245.764 107.671C245.629 107.3 245.409 106.979 245.106 106.709C244.802 106.44 244.398 106.22 243.875 106.069C243.369 105.917 242.745 105.832 242.003 105.832H237.871V111.887H242.492C243.065 111.887 243.571 111.819 243.993 111.668C244.431 111.516 244.786 111.313 245.072 111.044C245.359 110.774 245.578 110.47 245.73 110.082C245.899 109.694 245.966 109.273 245.966 108.834ZM261.953 113.118V100.2C261.869 100.318 261.802 100.419 261.717 100.537C261.65 100.638 261.582 100.739 261.532 100.79L252.256 113.118H251.278V97.6702H252.661V110.453C252.729 110.352 252.779 110.234 252.847 110.133C252.914 110.032 252.982 109.947 253.049 109.863L262.257 97.6533H263.37V113.101H261.953V113.118ZM277.519 113.118V110.032H277.469C276.98 111.094 276.254 111.937 275.31 112.561C274.366 113.185 273.32 113.506 272.173 113.506C270.706 113.506 269.542 113.101 268.699 112.275C267.839 111.448 267.417 110.403 267.417 109.155C267.417 106.456 269.205 104.821 272.78 104.264L277.519 103.556C277.519 100.234 276.271 98.5808 273.775 98.5808C272.072 98.5808 270.419 99.2723 268.817 100.638V98.9687C269.391 98.5133 270.166 98.1254 271.144 97.805C272.123 97.4846 273.05 97.3329 273.91 97.3329C275.495 97.3329 276.727 97.8219 277.603 98.8169C278.464 99.7951 278.902 101.245 278.902 103.117V113.168H277.519V113.118ZM273.269 105.428C271.65 105.664 270.52 106.035 269.863 106.558C269.205 107.08 268.885 107.924 268.885 109.087C268.885 109.998 269.188 110.757 269.795 111.347C270.402 111.937 271.246 112.241 272.342 112.241C273.826 112.241 275.074 111.684 276.052 110.588C277.047 109.492 277.536 108.075 277.536 106.338V104.838L273.269 105.428ZM296.711 105.748C296.711 106.338 296.66 106.946 296.559 107.553C296.458 108.16 296.289 108.767 296.053 109.34C295.817 109.914 295.53 110.453 295.176 110.959C294.822 111.465 294.4 111.904 293.894 112.275C293.389 112.663 292.832 112.949 292.174 113.168C291.533 113.388 290.791 113.489 289.999 113.489C288.869 113.489 287.874 113.27 287.014 112.831C286.154 112.393 285.429 111.769 284.855 110.942C284.282 110.116 283.843 109.121 283.54 107.924C283.236 106.743 283.101 105.394 283.101 103.893C283.101 102.139 283.202 100.621 283.422 99.3228C283.641 98.0243 283.928 96.9113 284.315 95.9837C284.703 95.0731 285.159 94.3141 285.698 93.7239C286.221 93.1505 286.811 92.6952 287.452 92.3747C287.857 92.1724 288.295 92.0037 288.768 91.852C289.24 91.7002 289.729 91.5822 290.235 91.4641C290.741 91.3461 291.23 91.2449 291.719 91.1606C292.208 91.0762 292.663 90.9919 293.085 90.9244C293.439 90.857 293.81 90.7557 294.215 90.6377C294.62 90.5196 294.957 90.3679 295.244 90.1655V91.6327C295.024 91.7676 294.721 91.9025 294.367 92.0374C293.996 92.1555 293.591 92.2567 293.119 92.341C292.68 92.4084 292.208 92.4928 291.719 92.5771C291.23 92.6614 290.758 92.7626 290.285 92.8638C289.813 92.965 289.375 93.0831 288.936 93.218C288.515 93.3529 288.127 93.5047 287.806 93.6902C286.913 94.213 286.204 95.0899 285.665 96.3378C285.125 97.5858 284.788 99.2385 284.67 101.296H284.737C284.956 100.857 285.26 100.453 285.614 100.048C285.985 99.6433 286.407 99.306 286.879 99.0024C287.351 98.6989 287.891 98.4628 288.464 98.2941C289.038 98.1086 289.661 98.0243 290.319 98.0243C291.432 98.0243 292.394 98.2267 293.203 98.6315C294.012 99.0362 294.67 99.5927 295.193 100.301C295.716 100.992 296.087 101.819 296.34 102.746C296.593 103.708 296.711 104.703 296.711 105.748ZM295.176 105.934C295.176 104.922 295.075 104.011 294.856 103.218C294.636 102.409 294.333 101.734 293.894 101.161C293.473 100.588 292.933 100.149 292.292 99.8456C291.651 99.5421 290.893 99.3903 290.049 99.3903C289.442 99.3903 288.869 99.4915 288.346 99.677C287.806 99.8794 287.3 100.132 286.845 100.47C286.39 100.807 285.968 101.195 285.614 101.633C285.26 102.072 284.939 102.544 284.686 103.05C284.686 103.219 284.687 103.455 284.67 103.741C284.653 104.045 284.653 104.332 284.653 104.618C284.653 105.63 284.754 106.574 284.956 107.502C285.159 108.413 285.479 109.222 285.918 109.914C286.356 110.605 286.913 111.179 287.604 111.6C288.279 112.022 289.105 112.224 290.083 112.224C290.926 112.224 291.668 112.055 292.309 111.718C292.95 111.381 293.49 110.926 293.911 110.335C294.333 109.762 294.653 109.087 294.873 108.328C295.075 107.586 295.176 106.777 295.176 105.934ZM311.231 113.118V100.2C311.147 100.318 311.079 100.419 310.995 100.537C310.927 100.638 310.86 100.739 310.809 100.79L301.534 113.118H300.556V97.6702H301.939V110.453C302.006 110.352 302.057 110.234 302.124 110.133C302.192 110.032 302.259 109.947 302.327 109.863L311.535 97.6533H312.648V113.101H311.231V113.118ZM326.712 113.118V98.935H322.21C322.041 101.229 321.805 103.269 321.535 105.057C321.265 106.844 320.894 108.345 320.456 109.576C320 110.807 319.461 111.735 318.803 112.376C318.145 113.017 317.37 113.337 316.442 113.337C316.29 113.337 316.138 113.32 315.987 113.303C315.835 113.286 315.7 113.253 315.582 113.219V111.971C315.666 112.005 315.801 112.039 315.97 112.055C316.155 112.089 316.29 112.106 316.408 112.106C317.083 112.106 317.673 111.786 318.179 111.162C318.685 110.538 319.107 109.61 319.478 108.379C319.832 107.148 320.135 105.647 320.388 103.859C320.641 102.055 320.827 99.9975 320.979 97.6871H328.112V113.135H326.712V113.118ZM333.374 105.461C333.374 107.586 333.863 109.239 334.841 110.436C335.819 111.634 337.168 112.224 338.872 112.224C340.609 112.224 342.295 111.583 343.948 110.302V111.786C342.346 112.916 340.558 113.489 338.585 113.489C336.595 113.489 334.976 112.781 333.762 111.347C332.531 109.914 331.923 107.907 331.923 105.293C331.923 103.05 332.564 101.144 333.846 99.5927C335.128 98.0581 336.797 97.2822 338.838 97.2822C340.76 97.2822 342.244 97.9568 343.256 99.306C344.285 100.655 344.791 102.493 344.791 104.838V105.461H333.374ZM343.358 104.197C343.307 102.409 342.868 101.026 342.076 100.048C341.283 99.0699 340.187 98.5639 338.787 98.5639C337.337 98.5639 336.14 99.0531 335.195 100.014C334.251 100.976 333.661 102.375 333.441 104.18H343.358V104.197ZM352.582 98.9519V113.135H351.199V98.9519H346.562V97.6871H357.203V98.9519H352.582ZM365.416 113.506C363.156 113.506 361.385 112.764 360.07 111.28C358.755 109.796 358.097 107.873 358.097 105.495C358.097 102.932 358.788 100.925 360.154 99.4747C361.52 98.0243 363.325 97.2991 365.568 97.2991C367.777 97.2991 369.514 98.0075 370.779 99.4578C372.061 100.891 372.701 102.881 372.701 105.428C372.701 107.839 372.044 109.779 370.745 111.263C369.447 112.764 367.676 113.506 365.416 113.506ZM365.517 98.5639C363.696 98.5639 362.246 99.1711 361.166 100.402C360.087 101.633 359.547 103.337 359.547 105.512C359.547 107.536 360.07 109.155 361.133 110.386C362.195 111.617 363.628 112.224 365.45 112.224C367.322 112.224 368.738 111.617 369.75 110.42C370.762 109.205 371.251 107.536 371.251 105.394C371.251 103.185 370.745 101.498 369.75 100.335C368.755 99.1542 367.355 98.5639 365.517 98.5639ZM387.475 108.716C387.475 109.374 387.357 109.964 387.137 110.504C386.918 111.044 386.598 111.516 386.176 111.904C385.754 112.292 385.265 112.595 384.709 112.814C384.135 113.034 383.511 113.135 382.854 113.135H376.547V97.6871H382.415C383.191 97.6871 383.849 97.7882 384.405 97.9737C384.962 98.1592 385.417 98.4291 385.788 98.7495C386.159 99.0868 386.429 99.4746 386.598 99.9299C386.766 100.385 386.867 100.874 386.867 101.397C386.867 101.869 386.8 102.308 386.665 102.713C386.53 103.117 386.328 103.488 386.092 103.809C385.839 104.129 385.535 104.416 385.181 104.635C384.827 104.854 384.422 105.006 383.984 105.107C384.557 105.175 385.063 105.31 385.501 105.512C385.94 105.714 386.311 105.984 386.598 106.288C386.884 106.608 387.104 106.979 387.255 107.384C387.407 107.789 387.475 108.227 387.475 108.716ZM385.417 101.599C385.417 101.245 385.367 100.908 385.265 100.588C385.164 100.267 384.979 99.9806 384.726 99.7445C384.473 99.5084 384.152 99.306 383.748 99.1711C383.343 99.0193 382.837 98.9519 382.247 98.9519H377.946V104.551H381.876C382.567 104.551 383.124 104.466 383.579 104.298C384.034 104.129 384.405 103.91 384.675 103.64C384.945 103.37 385.13 103.05 385.249 102.696C385.35 102.342 385.417 101.971 385.417 101.599ZM386.024 108.834C386.024 108.43 385.957 108.025 385.822 107.671C385.687 107.3 385.468 106.979 385.164 106.709C384.861 106.44 384.456 106.22 383.933 106.069C383.427 105.917 382.803 105.832 382.061 105.832H377.929V111.887H382.55C383.124 111.887 383.63 111.819 384.051 111.668C384.49 111.516 384.844 111.313 385.13 111.044C385.417 110.774 385.636 110.47 385.788 110.082C385.957 109.694 386.024 109.273 386.024 108.834Z" fill="#BCB5B5"/>
</svg>
