<svg width="320" height="121" viewBox="0 0 320 121" fill="none" xmlns="http://www.w3.org/2000/svg">
<path d="M9.79143 91.6288C0.313675 98.2734 0.634098 110.281 0.634098 120.349C17.6839 101.714 26.9087 107.161 41.8505 98.0036C51.0416 92.3709 48.5457 80.9369 48.5625 68.626C33.3509 88.0705 22.6083 82.6402 9.79143 91.6288Z" fill="#BCB5B5"/>
<path d="M12.0673 52.8919C4.03984 58.5245 4.30966 68.6937 4.30966 77.2271C18.7455 61.4421 26.5706 66.046 39.2357 58.2885C47.027 53.5159 44.9021 43.8357 44.919 33.4136C32.0346 49.8732 22.9279 45.2692 12.0673 52.8919Z" fill="#BCB5B5"/>
<path d="M13.9051 17.5101C7.04132 22.3333 7.26056 31.0184 7.26056 38.3206C19.6221 24.8123 26.3004 28.7586 37.1273 22.1309C43.7887 18.0498 41.9673 9.76937 41.9842 0.848145C30.9887 14.9299 23.1973 11.0005 13.9051 17.5101Z" fill="#BCB5B5"/>
<path d="M82.7128 57.6133C82.7128 57.9843 82.7296 58.2541 82.7465 58.4734C82.7634 58.6757 82.8308 58.8444 82.932 58.9456C83.0332 59.0637 83.2019 59.131 83.4211 59.1648C83.6403 59.1985 83.9607 59.2154 84.3824 59.2154H86.6422C87.8564 59.2154 88.8514 59.1817 89.6272 59.1142C90.4029 59.0636 91.0438 58.8612 91.5834 58.5408C92.1062 58.2204 92.5953 57.7313 93 57.0905C93.4216 56.4328 93.877 55.5221 94.366 54.3416L95.4959 54.5946C95.4959 54.6958 95.4622 54.9825 95.3779 55.4378C95.3104 55.8931 95.2092 56.4159 95.0912 57.0062C94.9731 57.5964 94.8551 58.2036 94.7033 58.8276C94.5684 59.4515 94.4335 59.9911 94.2986 60.4465C94.0962 60.9693 93.7252 61.2223 93.1687 61.2223C92.0388 61.2054 90.6053 61.1885 88.9189 61.1716C87.2324 61.1548 85.1918 61.1548 82.7971 61.1548H79.0026C78.8003 61.1548 78.6485 61.0873 78.581 60.9524C78.4967 60.8343 78.463 60.6995 78.463 60.5814V38.2868C78.463 37.8652 78.4292 37.511 78.3449 37.2411C78.2606 36.9713 78.1426 36.7689 77.9739 36.6172C77.8221 36.4654 77.6198 36.3642 77.4005 36.2967C77.1813 36.2293 76.9283 36.2124 76.6585 36.2124C76.3212 36.2124 75.9839 36.2294 75.6466 36.28L75.5117 35.0151C76.3381 34.8634 77.1138 34.7284 77.8559 34.6103C78.5979 34.4922 79.2556 34.408 79.8121 34.3574C80.3855 34.2899 80.8577 34.2393 81.2456 34.2225C81.6335 34.1887 81.8696 34.1719 81.9708 34.1719C82.4598 34.1719 82.6959 34.408 82.6959 34.8971V57.6133H82.7128ZM96.5078 35.0319C97.3342 34.8801 98.1099 34.7452 98.8519 34.6272C99.594 34.5091 100.252 34.4249 100.808 34.3743C101.382 34.3068 101.854 34.2562 102.242 34.2393C102.63 34.2056 102.866 34.1887 102.967 34.1887C103.456 34.1887 103.692 34.4249 103.692 34.9139V60.5308C103.692 60.9018 103.507 61.1042 103.152 61.1716C102.883 61.2222 102.613 61.2559 102.292 61.2897C101.972 61.3234 101.668 61.3571 101.382 61.3909C101.078 61.4077 100.808 61.4246 100.555 61.4415C100.302 61.4415 100.117 61.4415 99.9987 61.4415C99.6277 61.4415 99.4591 61.2559 99.4591 60.8681V38.2868C99.4591 37.8652 99.4253 37.511 99.341 37.2411C99.2567 36.9713 99.1386 36.7689 98.97 36.6172C98.8182 36.4654 98.6158 36.3642 98.3966 36.2967C98.1774 36.2293 97.9244 36.2124 97.6546 36.2124C97.3173 36.2124 96.98 36.2294 96.6427 36.28L96.5078 35.0319ZM132.901 60.3284C132.901 60.497 132.817 60.632 132.648 60.6995C131.35 61.1042 130.034 61.3909 128.668 61.5596C127.319 61.7451 125.953 61.8293 124.553 61.8293C122.293 61.8293 120.219 61.5089 118.33 60.9018C116.441 60.2779 114.822 59.3841 113.473 58.2036C112.124 57.0231 111.079 55.5727 110.32 53.8526C109.561 52.1155 109.19 50.1424 109.19 47.9163C109.19 45.6396 109.595 43.6158 110.387 41.8788C111.18 40.1418 112.293 38.6915 113.693 37.5279C115.092 36.3643 116.762 35.4873 118.684 34.8802C120.607 34.2899 122.698 33.9863 124.941 33.9863C126.24 33.9863 127.454 34.0707 128.601 34.2056C129.731 34.3574 130.86 34.5598 131.957 34.7959C132.125 34.8296 132.243 34.8971 132.311 34.9982C132.378 35.0994 132.412 35.2006 132.429 35.3018C132.446 35.521 132.463 35.7908 132.479 36.1281C132.496 36.4486 132.53 36.8196 132.53 37.2075C132.547 37.5954 132.564 38.0001 132.597 38.388C132.614 38.7927 132.631 39.1637 132.648 39.501C132.665 39.8383 132.682 40.1419 132.682 40.378C132.699 40.6141 132.699 40.7826 132.699 40.8332L131.569 40.9513C131.451 40.0069 131.147 39.1974 130.658 38.5566C130.186 37.9158 129.596 37.3761 128.887 36.9882C128.179 36.5835 127.42 36.2968 126.56 36.1281C125.717 35.9595 124.857 35.8751 123.997 35.8751C122.327 35.8751 120.843 36.145 119.578 36.6678C118.313 37.1906 117.251 37.9326 116.391 38.8939C115.548 39.8552 114.907 41.0019 114.468 42.3511C114.047 43.6834 113.827 45.1674 113.827 46.8033C113.827 48.7258 114.097 50.4797 114.62 52.0649C115.143 53.6502 115.952 55.0162 116.998 56.163C118.044 57.2929 119.359 58.1867 120.927 58.8276C122.496 59.4515 124.334 59.7719 126.408 59.7719C126.762 59.7719 127.117 59.7719 127.488 59.7551C127.859 59.7382 128.246 59.7045 128.634 59.6539V52.4359C128.634 51.9974 128.601 51.6265 128.55 51.3567C128.483 51.07 128.381 50.8675 128.23 50.7326C128.095 50.5808 127.909 50.4796 127.673 50.429C127.454 50.3785 127.15 50.3447 126.83 50.3447C126.712 50.3447 126.611 50.3448 126.493 50.3616C126.375 50.3616 126.256 50.3616 126.138 50.3616L126.02 49.0968C126.847 49.0462 127.606 48.9956 128.297 48.9619C128.988 48.9281 129.596 48.8944 130.135 48.8776C130.658 48.8607 131.097 48.8439 131.434 48.827C131.771 48.827 132.007 48.827 132.108 48.827C132.597 48.827 132.834 49.0631 132.834 49.5522V60.3284H132.901ZM157.304 35.3356C157.304 34.9814 157.489 34.779 157.843 34.6947C158.096 34.6441 158.366 34.6104 158.687 34.5766C159.007 34.5598 159.311 34.5261 159.614 34.4923C159.935 34.4755 160.204 34.4586 160.457 34.4417C160.71 34.4248 160.896 34.4248 161.014 34.4248C161.385 34.4248 161.554 34.6104 161.554 34.9982V60.5476C161.554 60.9187 161.368 61.121 161.014 61.1885C160.744 61.2391 160.474 61.2728 160.154 61.3066C159.85 61.3403 159.53 61.374 159.243 61.4077C158.94 61.4246 158.67 61.4415 158.417 61.4584C158.164 61.4584 157.978 61.4584 157.86 61.4584C157.489 61.4584 157.321 61.2728 157.321 60.885V47.8657L143.998 48.0343V60.5476C143.998 60.9187 143.812 61.121 143.458 61.1885C143.188 61.2391 142.918 61.2728 142.598 61.3066C142.278 61.3403 141.974 61.374 141.687 61.4077C141.384 61.4246 141.114 61.4415 140.861 61.4584C140.608 61.4584 140.423 61.4584 140.304 61.4584C139.933 61.4584 139.765 61.2728 139.765 60.885V38.3036C139.765 37.882 139.731 37.5278 139.647 37.258C139.562 36.9882 139.444 36.7858 139.276 36.634C139.124 36.4823 138.922 36.3811 138.702 36.3136C138.483 36.2462 138.23 36.2293 137.96 36.2293C137.623 36.2293 137.286 36.2461 136.948 36.2967L136.814 35.0319C137.64 34.8801 138.416 34.7452 139.158 34.6272C139.9 34.5091 140.557 34.4249 141.114 34.3743C141.687 34.3068 142.16 34.2562 142.547 34.2393C142.935 34.2056 143.171 34.1887 143.273 34.1887C143.762 34.1887 143.998 34.4249 143.998 34.9139V46.0106H157.321V35.3356H157.304ZM172.026 36.5666C171.031 36.5666 170.222 36.5835 169.564 36.6509C168.923 36.7015 168.384 36.887 167.945 37.1737C167.523 37.4773 167.169 37.9327 166.883 38.5904C166.596 39.2312 166.326 40.1418 166.073 41.2886L164.943 41.1705C164.943 41.1031 164.943 40.9513 164.943 40.6646C164.96 40.3779 164.96 40.0575 164.994 39.6696C165.011 39.2817 165.044 38.877 165.061 38.4217C165.078 37.9663 165.112 37.511 165.146 37.0894C165.179 36.6509 165.213 36.2461 165.247 35.8751C165.281 35.5041 165.314 35.2006 165.348 34.9982C165.365 34.779 165.5 34.6609 165.753 34.6609C167.136 34.6947 168.468 34.7115 169.716 34.7284C170.981 34.7452 172.144 34.7452 173.207 34.7452H180.796C181.858 34.7452 183.039 34.7452 184.304 34.7284C185.585 34.7115 186.917 34.6947 188.3 34.6609C188.503 34.6609 188.638 34.779 188.671 34.9982C188.705 35.2006 188.722 35.5041 188.756 35.8751C188.773 36.2461 188.806 36.6509 188.823 37.0894C188.84 37.5279 188.857 37.9663 188.874 38.4217C188.891 38.877 188.907 39.2986 188.907 39.6696C188.907 40.0575 188.924 40.3779 188.924 40.6646C188.924 40.9345 188.924 41.1031 188.924 41.1705L187.794 41.2886C187.541 40.125 187.272 39.2312 187.002 38.5904C186.732 37.9495 186.395 37.4773 185.99 37.1737C185.568 36.8702 185.062 36.7015 184.422 36.6509C183.798 36.6003 182.971 36.5666 181.959 36.5666H179.042V60.5308C179.042 60.9018 178.856 61.1042 178.502 61.1716C178.232 61.2222 177.963 61.2559 177.642 61.2897C177.322 61.3234 177.018 61.3571 176.731 61.3909C176.428 61.4077 176.158 61.4246 175.905 61.4415C175.652 61.4415 175.467 61.4415 175.349 61.4415C174.978 61.4415 174.809 61.2559 174.809 60.8681V36.5497H172.026V36.5666ZM210.662 35.3356C210.662 34.9814 210.848 34.779 211.202 34.6947C211.455 34.6441 211.725 34.6104 212.045 34.5766C212.366 34.5598 212.669 34.5261 212.973 34.4923C213.293 34.4755 213.563 34.4586 213.816 34.4417C214.069 34.4248 214.255 34.4248 214.373 34.4248C214.744 34.4248 214.912 34.6104 214.912 34.9982V60.5476C214.912 60.9187 214.727 61.121 214.373 61.1885C214.103 61.2391 213.833 61.2728 213.513 61.3066C213.209 61.3403 212.889 61.374 212.602 61.4077C212.298 61.4246 212.028 61.4415 211.775 61.4584C211.523 61.4584 211.337 61.4584 211.219 61.4584C210.848 61.4584 210.679 61.2728 210.679 60.885V47.8657L197.356 48.0343V60.5476C197.356 60.9187 197.171 61.121 196.817 61.1885C196.547 61.2391 196.277 61.2728 195.957 61.3066C195.636 61.3403 195.333 61.374 195.046 61.4077C194.743 61.4246 194.473 61.4415 194.22 61.4584C193.967 61.4584 193.781 61.4584 193.663 61.4584C193.292 61.4584 193.124 61.2728 193.124 60.885V38.3036C193.124 37.882 193.09 37.5278 193.005 37.258C192.921 36.9882 192.803 36.7858 192.634 36.634C192.483 36.4823 192.28 36.3811 192.061 36.3136C191.842 36.2462 191.589 36.2293 191.319 36.2293C190.982 36.2293 190.644 36.2461 190.307 36.2967L190.172 35.0319C190.999 34.8801 191.774 34.7452 192.516 34.6272C193.258 34.5091 193.916 34.4249 194.473 34.3743C195.046 34.3068 195.518 34.2562 195.906 34.2393C196.294 34.2056 196.53 34.1887 196.631 34.1887C197.12 34.1887 197.356 34.4249 197.356 34.9139V46.0106H210.679V35.3356H210.662ZM234.66 34.0032C236.617 34.0032 238.387 34.3068 239.973 34.9139C241.558 35.5211 242.907 36.3979 244.02 37.5616C245.15 38.7083 246.01 40.125 246.617 41.7945C247.224 43.4641 247.528 45.3697 247.528 47.4778C247.528 49.7882 247.191 51.8457 246.516 53.6333C245.841 55.4041 244.863 56.9049 243.615 58.1192C242.367 59.3334 240.866 60.2441 239.096 60.885C237.342 61.5089 235.386 61.8293 233.21 61.8293C231.254 61.8293 229.466 61.5089 227.881 60.885C226.296 60.261 224.93 59.3503 223.817 58.1867C222.687 57.0231 221.843 55.5896 221.236 53.8863C220.629 52.1999 220.326 50.2773 220.326 48.1524C220.326 45.8589 220.663 43.8183 221.338 42.0644C222.012 40.2937 222.99 38.8096 224.221 37.6291C225.469 36.4486 226.97 35.5378 228.741 34.9307C230.545 34.3067 232.502 34.0032 234.66 34.0032ZM233.514 35.9089C232.03 35.9089 230.748 36.2124 229.685 36.8195C228.623 37.4266 227.746 38.253 227.071 39.2649C226.397 40.2936 225.891 41.4573 225.571 42.7727C225.25 44.105 225.081 45.471 225.081 46.9045C225.081 48.5066 225.25 50.0749 225.587 51.6433C225.925 53.1949 226.481 54.5777 227.223 55.7919C227.965 57.023 228.943 58.0011 230.124 58.76C231.304 59.5189 232.738 59.89 234.424 59.89C235.908 59.89 237.19 59.5696 238.252 58.9456C239.315 58.3216 240.192 57.4783 240.866 56.4327C241.541 55.3872 242.03 54.1898 242.351 52.8406C242.671 51.4915 242.84 50.0918 242.84 48.6752C242.84 47.0731 242.671 45.5047 242.334 43.9701C241.996 42.4354 241.44 41.0693 240.698 39.8888C239.956 38.6915 238.978 37.7303 237.797 37.0051C236.634 36.2799 235.2 35.9089 233.514 35.9089ZM257.039 52.807C257.022 53.9537 257.174 54.9149 257.478 55.6907C257.781 56.4665 258.203 57.1073 258.76 57.5795C259.299 58.0517 259.94 58.4059 260.682 58.6083C261.407 58.8275 262.2 58.9287 263.06 58.9287C264.156 58.9287 265.235 58.7601 266.281 58.4059C267.343 58.0518 268.389 57.6133 269.451 57.1074V35.3356C269.451 34.9814 269.637 34.779 269.991 34.6947C270.244 34.6441 270.514 34.6104 270.834 34.5766C271.155 34.5598 271.458 34.5261 271.762 34.4923C272.065 34.4755 272.352 34.4586 272.605 34.4417C272.858 34.4248 273.044 34.4248 273.162 34.4248C273.533 34.4248 273.701 34.6104 273.701 34.9982V60.5476C273.701 60.9187 273.516 61.121 273.162 61.1885C272.892 61.2391 272.622 61.2728 272.318 61.3066C272.015 61.3403 271.728 61.374 271.458 61.4077C271.172 61.4246 270.919 61.4415 270.699 61.4584C270.463 61.4584 270.295 61.4584 270.177 61.4584C269.823 61.4584 269.637 61.256 269.637 60.885L269.468 59.013C268.035 59.8057 266.534 60.4634 264.949 61.003C263.38 61.5258 261.778 61.7956 260.176 61.7956C259.164 61.7956 258.22 61.6607 257.309 61.374C256.415 61.1041 255.64 60.6826 254.965 60.126C254.307 59.5695 253.785 58.8444 253.397 57.9675C253.009 57.0905 252.806 56.0617 252.806 54.8644V38.3036C252.806 37.882 252.773 37.5278 252.688 37.258C252.604 36.9882 252.486 36.7858 252.317 36.634C252.166 36.4823 251.963 36.3811 251.744 36.3136C251.525 36.2462 251.272 36.2293 251.002 36.2293C250.682 36.2293 250.361 36.2461 249.99 36.2967L249.855 35.0319C250.681 34.8801 251.457 34.7452 252.199 34.6272C252.941 34.5091 253.599 34.4249 254.156 34.3743C254.729 34.3068 255.201 34.2562 255.589 34.2393C255.977 34.2056 256.213 34.1887 256.314 34.1887C256.803 34.1887 257.056 34.4249 257.056 34.9139V52.807H257.039ZM293.955 40.9176C293.804 40.0913 293.551 39.3661 293.213 38.759C292.859 38.1518 292.438 37.6628 291.932 37.258C291.426 36.8701 290.869 36.5666 290.228 36.3811C289.604 36.1788 288.913 36.0944 288.171 36.0944C287.446 36.0944 286.771 36.1787 286.113 36.3643C285.456 36.5329 284.882 36.8196 284.376 37.1906C283.87 37.5785 283.466 38.0675 283.162 38.6578C282.859 39.248 282.724 39.9563 282.724 40.7827C282.724 41.5079 282.909 42.1318 283.247 42.6715C283.601 43.1943 284.073 43.6496 284.646 44.0375C285.237 44.4254 285.911 44.7795 286.67 45.0831C287.429 45.3866 288.221 45.6902 289.048 45.9937C289.975 46.3479 290.886 46.719 291.797 47.1237C292.707 47.5284 293.534 48.0175 294.259 48.5909C294.984 49.1643 295.574 49.8726 296.013 50.6821C296.468 51.5084 296.687 52.5202 296.687 53.7176C296.687 54.7632 296.536 55.6908 296.249 56.5003C295.945 57.3098 295.541 58.0012 295.018 58.6083C294.495 59.2154 293.888 59.7213 293.18 60.126C292.471 60.5476 291.729 60.8681 290.92 61.1211C290.11 61.374 289.267 61.5427 288.39 61.6607C287.513 61.7619 286.653 61.8125 285.793 61.8125C284.764 61.8125 283.752 61.745 282.741 61.627C281.729 61.5089 280.717 61.3234 279.705 61.1042C279.57 61.0705 279.452 61.003 279.368 60.9018C279.283 60.8175 279.233 60.6995 279.216 60.5983C279.182 60.2779 279.148 59.8056 279.132 59.1985C279.098 58.5745 279.064 57.9674 279.047 57.3266C279.03 56.6858 279.014 56.1123 278.997 55.5895C278.98 55.0667 278.98 54.7632 278.98 54.6789L280.11 54.5608C280.211 55.4715 280.464 56.2642 280.835 56.9219C281.206 57.5964 281.678 58.1361 282.252 58.5745C282.825 58.9962 283.483 59.3166 284.225 59.5358C284.967 59.7382 285.759 59.8394 286.619 59.8394C287.378 59.8394 288.12 59.7551 288.845 59.5696C289.571 59.4009 290.195 59.1143 290.751 58.7264C291.308 58.3385 291.763 57.8325 292.1 57.2254C292.438 56.6183 292.606 55.8763 292.606 55.0162C292.606 54.3079 292.421 53.6839 292.083 53.1948C291.729 52.6889 291.257 52.2505 290.684 51.8626C290.093 51.4747 289.419 51.1206 288.677 50.817C287.918 50.5134 287.125 50.1929 286.333 49.8894C285.405 49.5352 284.494 49.1305 283.584 48.7257C282.673 48.3041 281.847 47.7983 281.122 47.208C280.396 46.6178 279.806 45.8925 279.368 45.0493C278.912 44.2061 278.693 43.1606 278.693 41.9295C278.693 40.4454 278.997 39.1974 279.57 38.1855C280.16 37.1737 280.919 36.3811 281.881 35.7739C282.825 35.1668 283.921 34.7284 285.135 34.4755C286.35 34.2225 287.598 34.0875 288.845 34.0875C289.689 34.0875 290.599 34.155 291.594 34.2899C292.589 34.4079 293.517 34.5934 294.394 34.8127C294.529 34.8464 294.647 34.9139 294.731 35.0151C294.815 35.1163 294.866 35.2175 294.883 35.3187C294.917 35.6391 294.95 36.0775 294.967 36.6678C294.984 37.2412 295.018 37.8145 295.052 38.4048C295.085 38.995 295.102 39.5178 295.119 39.99C295.136 40.4622 295.136 40.7489 295.136 40.8332L293.955 40.9176ZM306.351 57.6133C306.351 57.9843 306.351 58.2541 306.384 58.4565C306.401 58.6589 306.469 58.8275 306.57 58.9287C306.671 59.0468 306.84 59.1143 307.059 59.148C307.278 59.1817 307.599 59.1985 308.02 59.1985H310.971C312.186 59.1985 313.181 59.1817 313.94 59.1142C314.699 59.0636 315.356 58.8781 315.879 58.5914C316.419 58.2879 316.891 57.8325 317.279 57.1748C317.683 56.5339 318.139 55.6064 318.645 54.4259L319.775 54.6789C319.775 54.7969 319.741 55.0668 319.673 55.5052C319.606 55.9437 319.522 56.4665 319.404 57.0567C319.302 57.647 319.184 58.2541 319.033 58.8612C318.898 59.4852 318.763 60.008 318.611 60.4633C318.409 60.9861 318.038 61.2391 317.498 61.2391C316.941 61.2391 316.267 61.2223 315.491 61.2223C314.715 61.2054 313.855 61.2054 312.894 61.2054C311.95 61.2054 310.921 61.1885 309.842 61.1885C308.745 61.1885 307.615 61.1885 306.435 61.1885H302.64C302.438 61.1885 302.286 61.121 302.219 60.9861C302.135 60.8681 302.101 60.7332 302.101 60.6152V38.7084C302.101 37.9327 301.932 37.4267 301.578 37.1737C301.224 36.9207 300.785 36.8027 300.279 36.8027C299.959 36.8027 299.639 36.8196 299.301 36.8702L299.166 35.6053C299.487 35.5379 299.959 35.4704 300.566 35.3692C301.173 35.268 301.814 35.1837 302.472 35.0826C303.13 34.9814 303.77 34.9139 304.394 34.8464C305.018 34.779 305.491 34.7452 305.845 34.7452H314.159C314.682 34.7452 315.221 34.7452 315.795 34.7452C316.351 34.7452 316.975 34.7283 317.667 34.7115C317.903 34.7115 318.054 34.8296 318.088 35.0488C318.105 35.268 318.122 35.5547 318.139 35.892C318.156 36.2462 318.189 36.6172 318.189 37.022C318.206 37.4436 318.223 37.8483 318.257 38.2868C318.274 38.7084 318.291 39.1131 318.307 39.4672C318.324 39.8382 318.341 40.1418 318.341 40.4116C318.358 40.6646 318.358 40.8333 318.358 40.8839L317.228 41.0019C316.975 39.9226 316.705 39.0794 316.435 38.4892C316.166 37.8821 315.828 37.4604 315.407 37.1737C314.985 36.9039 314.479 36.7353 313.838 36.6847C313.214 36.6341 312.388 36.6004 311.376 36.6004H307.346C307.093 36.6004 306.89 36.6003 306.755 36.6172C306.637 36.634 306.536 36.6678 306.469 36.7352C306.401 36.7858 306.368 36.887 306.351 36.9882C306.351 37.1063 306.351 37.258 306.351 37.4604V46.719C307.599 46.6515 308.729 46.6009 309.774 46.5503C310.803 46.4997 311.714 46.4491 312.472 46.4153C313.248 46.3816 313.855 46.3479 314.327 46.331C314.8 46.3142 315.086 46.2974 315.188 46.2974C315.609 46.2974 315.828 46.5166 315.828 46.9888C315.828 47.2755 315.812 47.579 315.778 47.8825C315.744 48.2029 315.71 48.5234 315.66 48.8776L306.317 48.5571V57.6133H306.351Z" fill="#BCB5B5"/>
<path d="M87.7889 76.6536L83.6066 86.8058C83.5729 86.8901 83.5054 86.9408 83.4042 86.9576C83.2693 86.9745 83.1175 86.9913 82.9489 86.9913C82.7802 87.0082 82.6116 87.0082 82.443 87.0082C82.3249 87.0082 82.2406 86.9576 82.19 86.8396L78.2775 76.5186L76.9789 86.8058C76.962 86.8901 76.8946 86.9408 76.7765 86.9576C76.6416 86.9745 76.473 86.9913 76.2875 86.9913C76.0851 87.0082 75.8827 87.0082 75.6635 87.0082C75.5623 87.0082 75.5117 86.9744 75.5117 86.8901C75.5117 86.8395 75.5117 86.8059 75.5286 86.7721L77.7209 74.9165L77.3668 73.9383C77.3499 73.8877 77.3499 73.854 77.3499 73.8203C77.3499 73.7022 77.4174 73.6347 77.5692 73.601C77.6872 73.5841 77.8221 73.5673 77.9908 73.5336C78.1594 73.5167 78.3112 73.4999 78.463 73.4831C78.6148 73.4662 78.7497 73.4493 78.8846 73.4493C79.0195 73.4493 79.1038 73.4324 79.1713 73.4324C79.2556 73.4324 79.3231 73.4492 79.3568 73.4998C79.4074 73.5336 79.4411 73.6011 79.4748 73.6854L83.4717 84.2087L87.5866 74.8322L87.4685 73.9047C87.4685 73.9047 87.4517 73.8708 87.4517 73.8203C87.4517 73.7022 87.5191 73.618 87.6709 73.5842C87.7889 73.5674 87.9239 73.5504 88.0756 73.5167C88.2274 73.4998 88.3792 73.483 88.531 73.4662C88.6828 73.4493 88.8177 73.4324 88.9357 73.4324C89.0538 73.4324 89.155 73.4155 89.2056 73.4155C89.3911 73.4155 89.4922 73.4999 89.526 73.6685L91.0438 86.4685C91.0606 86.5022 91.0606 86.5192 91.0606 86.536V86.5866C91.0606 86.7215 90.9932 86.8058 90.8414 86.8227C90.7233 86.8396 90.5716 86.8564 90.4029 86.8901C90.2343 86.907 90.0825 86.9239 89.9307 86.9408C89.7789 86.9576 89.6272 86.9576 89.4922 86.9576C89.3573 86.9576 89.273 86.9576 89.2056 86.9576C89.1381 86.9576 89.0875 86.9407 89.0369 86.9239C88.9863 86.8901 88.9694 86.8564 88.9526 86.7889L87.7889 76.6536ZM107.554 82.2019L105.851 86.8227C105.817 86.907 105.749 86.9576 105.648 86.9745C105.513 86.9914 105.362 87.0082 105.193 87.0082C105.024 87.025 104.839 87.0251 104.62 87.0251C104.501 87.0251 104.434 86.9913 104.434 86.907C104.434 86.8901 104.434 86.8733 104.451 86.8565L109.561 74.5961L109.325 73.9552C109.308 73.8877 109.308 73.854 109.308 73.8371C109.308 73.7191 109.375 73.6516 109.527 73.6348C109.645 73.6179 109.78 73.6011 109.949 73.5674C110.1 73.5505 110.269 73.5336 110.404 73.5167C110.556 73.4998 110.691 73.4831 110.809 73.4831C110.944 73.4831 111.028 73.4662 111.095 73.4662C111.247 73.4662 111.348 73.5504 111.416 73.7191L116.408 86.536C116.425 86.6035 116.441 86.6372 116.441 86.6541C116.441 86.789 116.357 86.8565 116.222 86.8733C116.087 86.8902 115.936 86.907 115.767 86.9408C115.598 86.9576 115.43 86.9744 115.278 86.9913C115.109 87.0082 114.974 87.0082 114.839 87.0082C114.704 87.0082 114.603 87.0082 114.553 87.0082C114.435 87.0082 114.333 86.9576 114.3 86.8396L112.478 82.1176L107.554 82.2019ZM107.908 81.2406H112.124L109.999 75.6923L107.908 81.2406ZM131.973 73.4831C132.058 73.4831 132.125 73.4999 132.159 73.5505C132.193 73.6011 132.26 73.6685 132.311 73.736L140.035 83.9895L139.748 73.9552C139.748 73.8709 139.815 73.8203 139.933 73.8035C140.068 73.7866 140.237 73.7697 140.456 73.736C140.675 73.7191 140.895 73.7023 141.097 73.7023C141.215 73.7023 141.283 73.7528 141.283 73.8709L141.013 84.7653V86.8058C141.013 86.8901 140.962 86.9408 140.827 86.9576C140.692 86.9745 140.541 86.9913 140.372 86.9913C140.203 87.0082 140.035 87.0082 139.866 87.0082C139.799 87.0082 139.748 86.9914 139.714 86.9745C139.68 86.9408 139.647 86.907 139.596 86.8396L131.805 76.5186L132.092 86.8058C132.092 86.8901 132.024 86.9408 131.906 86.9576C131.771 86.9745 131.586 86.9913 131.35 87.0082C131.113 87.025 130.911 87.0251 130.726 87.0251C130.607 87.0251 130.54 86.9745 130.54 86.8565L130.827 75.2031L129.916 73.9552C129.882 73.9215 129.865 73.8877 129.865 73.8371C129.865 73.7359 129.933 73.6685 130.068 73.6348C130.186 73.6179 130.338 73.5842 130.523 73.5674C130.709 73.5505 130.894 73.5336 131.097 73.5167C131.282 73.4998 131.468 73.4831 131.619 73.4831C131.805 73.4831 131.906 73.4831 131.973 73.4831ZM157.995 82.2019L156.292 86.8227C156.258 86.907 156.191 86.9576 156.089 86.9745C155.955 86.9914 155.803 87.0082 155.634 87.0082C155.465 87.025 155.263 87.0251 155.061 87.0251C154.943 87.0251 154.875 86.9913 154.875 86.907C154.875 86.8901 154.875 86.8733 154.892 86.8565L160.002 74.5961L159.766 73.9552C159.749 73.8877 159.749 73.854 159.749 73.8371C159.749 73.7191 159.816 73.6516 159.968 73.6348C160.086 73.6179 160.221 73.6011 160.39 73.5674C160.542 73.5505 160.71 73.5336 160.845 73.5167C160.997 73.4998 161.132 73.4831 161.25 73.4831C161.385 73.4831 161.469 73.4662 161.537 73.4662C161.688 73.4662 161.79 73.5504 161.857 73.7191L166.849 86.536C166.866 86.6035 166.883 86.6372 166.883 86.6541C166.883 86.789 166.798 86.8565 166.663 86.8733C166.528 86.8902 166.377 86.907 166.208 86.9408C166.039 86.9576 165.871 86.9744 165.719 86.9913C165.567 87.0082 165.415 87.0082 165.281 87.0082C165.146 87.0082 165.044 87.0082 164.994 87.0082C164.876 87.0082 164.775 86.9576 164.741 86.8396L162.92 82.1176L157.995 82.2019ZM158.366 81.2406H162.582L160.44 75.6923L158.366 81.2406ZM191.42 86.4685C191.42 86.5528 191.387 86.6204 191.302 86.6541C190.661 86.8565 190.021 86.9914 189.363 87.0757C188.705 87.16 188.031 87.2105 187.356 87.2105C186.243 87.2105 185.231 87.0588 184.304 86.7553C183.376 86.4517 182.583 86.0132 181.926 85.4398C181.268 84.8664 180.745 84.1581 180.374 83.3149C180.003 82.4717 179.818 81.4936 179.818 80.4143C179.818 79.3012 180.02 78.3062 180.408 77.463C180.796 76.6198 181.335 75.8946 182.027 75.3381C182.718 74.7647 183.528 74.3431 184.472 74.0395C185.417 73.7528 186.428 73.601 187.541 73.601C188.182 73.601 188.773 73.6348 189.329 73.7191C189.886 73.8034 190.442 73.8878 190.965 74.0058C191.049 74.0227 191.1 74.0564 191.134 74.107C191.167 74.1576 191.184 74.2082 191.201 74.2587C191.201 74.3599 191.218 74.4948 191.235 74.6635C191.252 74.8321 191.252 75.0008 191.268 75.1863C191.268 75.3718 191.285 75.5742 191.302 75.7597C191.319 75.9621 191.319 76.1476 191.336 76.2994C191.336 76.468 191.353 76.6198 191.353 76.7379C191.353 76.8559 191.353 76.9402 191.353 76.9571L190.796 77.0076C190.729 76.5354 190.594 76.1475 190.358 75.8271C190.122 75.5067 189.835 75.2538 189.498 75.0514C189.16 74.8659 188.773 74.7141 188.351 74.6298C187.929 74.5455 187.508 74.5117 187.103 74.5117C186.277 74.5117 185.568 74.6466 184.944 74.8996C184.32 75.1526 183.798 75.5236 183.393 75.9958C182.971 76.468 182.668 77.0245 182.448 77.6823C182.246 78.34 182.128 79.0651 182.128 79.8577C182.128 80.8021 182.263 81.6622 182.516 82.438C182.769 83.2138 183.157 83.8883 183.68 84.4449C184.202 85.0014 184.843 85.4398 185.602 85.7433C186.378 86.0469 187.272 86.2156 188.283 86.2156C188.452 86.2156 188.638 86.2156 188.806 86.1987C188.992 86.1987 189.177 86.1818 189.38 86.1481V82.6066C189.38 82.3874 189.363 82.2187 189.329 82.0838C189.295 81.9489 189.245 81.8477 189.177 81.7803C189.11 81.7128 189.009 81.6622 188.907 81.6284C188.789 81.6116 188.654 81.5948 188.486 81.5948C188.435 81.5948 188.385 81.5948 188.317 81.5948C188.267 81.5948 188.199 81.5948 188.149 81.5948L188.098 80.9708C188.503 80.9371 188.874 80.9202 189.211 80.9033C189.548 80.8864 189.852 80.8696 190.105 80.8696C190.358 80.8528 190.577 80.8528 190.746 80.8528C190.914 80.8528 191.032 80.8528 191.083 80.8528C191.319 80.8528 191.437 80.9707 191.437 81.2068V86.4685H191.42ZM208.993 85.1363C208.993 85.3218 208.993 85.4567 209.01 85.5579C209.027 85.659 209.06 85.7434 209.094 85.794C209.145 85.8446 209.229 85.8783 209.33 85.8952C209.448 85.912 209.6 85.9121 209.802 85.9121H211.253C211.843 85.9121 212.332 85.8952 212.703 85.8783C213.074 85.8446 213.394 85.7602 213.647 85.6253C213.917 85.4735 214.137 85.2543 214.339 84.9339C214.541 84.6135 214.76 84.175 215.013 83.5848L215.57 83.7028C215.57 83.7534 215.553 83.8883 215.519 84.1076C215.486 84.3268 215.435 84.5798 215.384 84.8665C215.334 85.1532 215.266 85.4567 215.199 85.7433C215.132 86.0469 215.064 86.2999 214.997 86.536C214.895 86.789 214.727 86.9239 214.457 86.9239C214.187 86.9239 213.85 86.9239 213.479 86.9239C213.091 86.9239 212.669 86.9239 212.214 86.907C211.742 86.907 211.253 86.907 210.713 86.8901C210.173 86.8901 209.617 86.8901 209.043 86.8901H207.188C207.087 86.8901 207.02 86.8564 206.986 86.7889C206.952 86.7215 206.935 86.6709 206.935 86.6034V75.8778C206.935 75.4899 206.851 75.2538 206.682 75.1188C206.514 75.0008 206.295 74.9334 206.042 74.9334C205.89 74.9334 205.721 74.9503 205.553 74.9671L205.485 74.343C205.637 74.3093 205.873 74.2757 206.177 74.2251C206.48 74.1745 206.784 74.1407 207.104 74.0901C207.424 74.0395 207.745 74.0058 208.048 73.9721C208.352 73.9384 208.588 73.9214 208.757 73.9214H212.821C213.074 73.9214 213.344 73.9214 213.614 73.9214C213.884 73.9214 214.187 73.9047 214.524 73.9047C214.642 73.9047 214.71 73.9552 214.727 74.0733C214.727 74.1744 214.744 74.3094 214.76 74.4949C214.777 74.6635 214.777 74.849 214.794 75.0514C214.794 75.2538 214.811 75.4562 214.828 75.6754C214.845 75.8946 214.845 76.0801 214.862 76.2487C214.879 76.4342 214.879 76.586 214.879 76.7041C214.879 76.8221 214.879 76.9065 214.879 76.9402L214.322 76.9908C214.204 76.468 214.069 76.0464 213.934 75.7597C213.799 75.473 213.631 75.2538 213.428 75.1188C213.226 74.9839 212.973 74.8996 212.652 74.8827C212.349 74.849 211.944 74.8491 211.455 74.8491H209.482C209.364 74.8491 209.263 74.849 209.195 74.8658C209.128 74.8658 209.094 74.8996 209.06 74.9165C209.027 74.9502 209.01 74.9839 209.01 75.0345C209.01 75.0851 209.01 75.1695 209.01 75.2707V79.8072C209.617 79.7734 210.173 79.7565 210.696 79.7228C211.202 79.689 211.641 79.6722 212.028 79.6553C212.399 79.6385 212.703 79.6217 212.939 79.6048C213.175 79.5879 213.31 79.5879 213.361 79.5879C213.563 79.5879 213.681 79.7059 213.681 79.9251C213.681 80.0769 213.664 80.2118 213.664 80.3636C213.647 80.5154 213.631 80.6841 213.614 80.8528L209.043 80.7009V85.1363H208.993ZM241.001 76.6536L236.819 86.8058C236.785 86.8901 236.718 86.9408 236.617 86.9576C236.482 86.9745 236.33 86.9913 236.161 86.9913C235.993 87.0082 235.824 87.0082 235.655 87.0082C235.537 87.0082 235.453 86.9576 235.402 86.8396L231.49 76.5186L230.191 86.8058C230.174 86.8901 230.107 86.9408 229.989 86.9576C229.854 86.9745 229.685 86.9913 229.5 86.9913C229.298 87.0082 229.095 87.0082 228.876 87.0082C228.775 87.0082 228.724 86.9744 228.724 86.8901C228.724 86.8395 228.724 86.8059 228.741 86.7721L230.933 74.9165L230.579 73.9383C230.562 73.8877 230.562 73.854 230.562 73.8203C230.562 73.7022 230.647 73.6347 230.782 73.601C230.9 73.5841 231.035 73.5673 231.203 73.5336C231.372 73.5167 231.524 73.4999 231.675 73.4831C231.827 73.4662 231.962 73.4493 232.097 73.4493C232.232 73.4493 232.316 73.4324 232.384 73.4324C232.468 73.4324 232.535 73.4492 232.569 73.4998C232.62 73.5336 232.654 73.6011 232.687 73.6854L236.684 84.2087L240.799 74.8322L240.681 73.9047C240.681 73.9047 240.664 73.8708 240.664 73.8203C240.664 73.7022 240.732 73.618 240.883 73.5842C241.001 73.5674 241.136 73.5504 241.288 73.5167C241.44 73.4998 241.592 73.483 241.743 73.4662C241.895 73.4493 242.03 73.4324 242.148 73.4324C242.266 73.4324 242.367 73.4155 242.418 73.4155C242.603 73.4155 242.705 73.4999 242.738 73.6685L244.256 86.4685C244.256 86.5022 244.273 86.5192 244.273 86.536V86.5866C244.273 86.7215 244.206 86.8058 244.054 86.8227C243.936 86.8396 243.784 86.8564 243.615 86.8901C243.447 86.907 243.295 86.9239 243.126 86.9408C242.974 86.9576 242.823 86.9576 242.688 86.9576C242.553 86.9576 242.469 86.9576 242.401 86.9576C242.334 86.9576 242.283 86.9407 242.232 86.9239C242.182 86.8901 242.165 86.8564 242.148 86.7889L241.001 76.6536ZM261.34 85.1363C261.34 85.3218 261.34 85.4567 261.357 85.5579C261.373 85.659 261.39 85.7434 261.441 85.794C261.492 85.8446 261.576 85.8783 261.677 85.8952C261.795 85.912 261.947 85.9121 262.149 85.9121H263.6C264.19 85.9121 264.679 85.8952 265.05 85.8783C265.421 85.8446 265.741 85.7602 265.994 85.6253C266.264 85.4735 266.483 85.2543 266.686 84.9339C266.888 84.6135 267.107 84.175 267.36 83.5848L267.917 83.7028C267.917 83.7534 267.9 83.8883 267.866 84.1076C267.833 84.3268 267.782 84.5798 267.731 84.8665C267.681 85.1532 267.613 85.4567 267.546 85.7433C267.478 86.0469 267.411 86.2999 267.343 86.536C267.242 86.789 267.057 86.9239 266.804 86.9239C266.534 86.9239 266.197 86.9239 265.826 86.9239C265.438 86.9239 265.033 86.9239 264.561 86.907C264.089 86.907 263.6 86.907 263.06 86.8901C262.52 86.8901 261.964 86.8901 261.39 86.8901H259.535C259.434 86.8901 259.367 86.8564 259.333 86.7889C259.299 86.7215 259.282 86.6709 259.282 86.6034V75.8778C259.282 75.4899 259.198 75.2538 259.029 75.1188C258.861 75.0008 258.641 74.9334 258.388 74.9334C258.237 74.9334 258.068 74.9503 257.916 74.9671L257.849 74.343C258.001 74.3093 258.237 74.2757 258.54 74.2251C258.844 74.1745 259.147 74.1407 259.468 74.0901C259.788 74.0395 260.109 74.0058 260.412 73.9721C260.716 73.9384 260.952 73.9214 261.121 73.9214H265.185C265.438 73.9214 265.708 73.9214 265.977 73.9214C266.247 73.9214 266.551 73.9047 266.888 73.9047C267.006 73.9047 267.074 73.9552 267.09 74.0733C267.09 74.1744 267.107 74.3094 267.124 74.4949C267.141 74.6804 267.141 74.849 267.158 75.0514C267.175 75.2538 267.175 75.4562 267.192 75.6754C267.209 75.8946 267.209 76.0801 267.225 76.2487C267.225 76.4342 267.242 76.586 267.242 76.7041C267.242 76.8221 267.242 76.9065 267.242 76.9402L266.686 76.9908C266.568 76.468 266.433 76.0464 266.298 75.7597C266.163 75.473 265.994 75.2538 265.792 75.1188C265.59 74.9839 265.337 74.8996 265.033 74.8827C264.729 74.849 264.325 74.8491 263.819 74.8491H261.846C261.728 74.8491 261.626 74.849 261.559 74.8658C261.492 74.8658 261.458 74.8996 261.424 74.9165C261.39 74.9502 261.373 74.9839 261.373 75.0345C261.373 75.0851 261.373 75.1695 261.373 75.2707V79.8072C261.981 79.7734 262.537 79.7565 263.06 79.7228C263.566 79.689 264.004 79.6722 264.392 79.6553C264.763 79.6385 265.067 79.6217 265.303 79.6048C265.539 79.5879 265.674 79.5879 265.724 79.5879C265.927 79.5879 266.045 79.7059 266.045 79.9251C266.045 80.0769 266.045 80.2118 266.028 80.3636C266.011 80.5154 265.994 80.6841 265.977 80.8528L261.407 80.7009V85.1363H261.34ZM283.348 73.4831C283.432 73.4831 283.499 73.4999 283.533 73.5505C283.584 73.6011 283.634 73.6685 283.685 73.736L291.409 83.9895L291.122 73.9552C291.122 73.8709 291.19 73.8203 291.308 73.8035C291.443 73.7866 291.611 73.7697 291.847 73.736C292.067 73.7191 292.286 73.7023 292.488 73.7023C292.606 73.7023 292.674 73.7528 292.674 73.8709L292.404 84.7653V86.8058C292.404 86.8901 292.353 86.9408 292.218 86.9576C292.083 86.9745 291.932 86.9913 291.763 86.9913C291.594 87.0082 291.426 87.0082 291.257 87.0082C291.19 87.0082 291.139 86.9914 291.105 86.9745C291.072 86.9408 291.038 86.907 290.987 86.8396L283.196 76.5186L283.466 86.8058C283.466 86.8901 283.398 86.9408 283.28 86.9576C283.145 86.9745 282.96 86.9913 282.724 87.0082C282.488 87.025 282.285 87.0251 282.1 87.0251C281.982 87.0251 281.914 86.9745 281.914 86.8565L282.201 75.2031L281.29 73.9552C281.257 73.9215 281.24 73.8877 281.24 73.8371C281.24 73.7359 281.307 73.6685 281.442 73.6348C281.56 73.6179 281.712 73.5842 281.897 73.5674C282.083 73.5505 282.268 73.5336 282.471 73.5167C282.656 73.4998 282.842 73.4831 282.994 73.4831C283.179 73.4831 283.297 73.4831 283.348 73.4831ZM309.892 74.8322C309.403 74.8322 309.015 74.849 308.695 74.8658C308.374 74.8996 308.121 74.9839 307.902 75.1188C307.7 75.2706 307.514 75.4899 307.379 75.8103C307.244 76.1308 307.11 76.5692 306.975 77.1426L306.418 77.0919C306.418 77.0582 306.418 76.974 306.418 76.8559C306.418 76.721 306.435 76.5523 306.435 76.3668C306.435 76.1813 306.452 75.9789 306.469 75.7597C306.486 75.5405 306.486 75.3212 306.502 75.102C306.519 74.8827 306.536 74.6973 306.553 74.5117C306.57 74.3262 306.587 74.1913 306.604 74.0733C306.604 73.9552 306.671 73.9047 306.806 73.9047C307.481 73.9215 308.138 73.9383 308.745 73.9383C309.369 73.9552 309.943 73.9552 310.449 73.9552H314.159C314.682 73.9552 315.255 73.9552 315.879 73.9383C316.503 73.9383 317.161 73.9215 317.835 73.9047C317.936 73.9047 318.004 73.9552 318.021 74.0733C318.038 74.1744 318.055 74.3262 318.055 74.5117C318.071 74.6973 318.071 74.8996 318.088 75.102C318.105 75.3212 318.105 75.5405 318.122 75.7597C318.122 75.9789 318.139 76.1813 318.139 76.3668C318.139 76.5523 318.139 76.721 318.156 76.8559C318.156 76.9908 318.156 77.0751 318.156 77.0919L317.599 77.1426C317.481 76.5692 317.346 76.1308 317.211 75.8103C317.076 75.4899 316.908 75.2706 316.722 75.1188C316.52 74.9671 316.267 74.8827 315.963 74.8658C315.66 74.8321 315.255 74.8322 314.766 74.8322H313.332V86.5697C313.332 86.7552 313.248 86.8564 313.063 86.8901C312.928 86.907 312.793 86.9239 312.641 86.9576C312.489 86.9745 312.337 86.9913 312.203 87.0082C312.051 87.025 311.933 87.0251 311.798 87.0251C311.68 87.0251 311.579 87.0251 311.528 87.0251C311.343 87.0251 311.258 86.9408 311.258 86.7553V74.8491H309.892V74.8322Z" fill="#BCB5B5"/>
</svg>
