<svg width="420" height="96" viewBox="0 0 420 96" fill="none" xmlns="http://www.w3.org/2000/svg">
<path d="M266.907 37.9577C266.907 47.0813 260.971 52.6633 250.296 52.6633H234.241V73.7438H229.586V23.252H250.296C260.971 23.252 266.907 28.8341 266.907 37.9577ZM262.253 37.9577C262.253 31.5998 258.914 27.5018 249.52 27.5018H234.241V48.4136H249.52C258.914 48.4136 262.253 44.3156 262.253 37.9577Z" fill="#BCB5B5"/>
<path d="M298.915 73.7419V52.0375C298.915 44.9713 295.509 41.4299 289.1 41.4299C282.169 41.4299 277.43 47.501 277.43 54.3648V73.7419H272.995V22.3057H277.43V42.3405H278.847C280.752 39.5747 284.985 37.4499 289.741 37.4499C298.291 37.4499 303.384 42.6778 303.384 50.9581V73.725H298.915V73.7419Z" fill="#BCB5B5"/>
<path d="M336.151 69.7617H334.751C332.542 72.5781 328.461 74.6355 323.301 74.6355C314.97 74.6355 310.5 69.1884 310.5 63.269C310.5 57.6869 313.958 51.6832 323.722 51.6832H335.999V49.474C335.999 44.9543 333.335 41.4128 326.471 41.4128C320.67 41.4128 317.567 43.74 317.297 47.4839H312.845C313.317 41.0586 318.848 37.4497 326.471 37.4497C334.971 37.4497 340.485 41.9356 340.485 49.1872V73.7248H336.151V69.7617ZM335.999 59.5926V55.427H324.903C318.461 55.427 314.953 58.4457 314.953 62.881C314.953 67.856 318.629 70.6723 323.925 70.6723C330.502 70.6892 335.999 66.0179 335.999 59.5926Z" fill="#BCB5B5"/>
<path d="M367.353 42.4762H364.654C357.858 42.4762 353.136 47.0128 353.136 55.0571V73.7426H348.684V38.3782H352.984V42.6786H354.401C356.458 40.2839 360.118 38.3613 364.958 38.3613H367.353V42.4762Z" fill="#BCB5B5"/>
<path d="M419.445 50.5873V73.7251H414.993V50.6716C414.993 44.4318 412.447 41.4131 407.657 41.4131C401.637 41.4131 398.112 46.0002 398.112 52.5772V73.7251H393.66V50.8065C393.66 44.6679 390.911 41.4131 386.374 41.4131C380 41.4131 376.762 46.8434 376.762 53.8252V73.7251H372.31V38.3606H376.627V41.919H378.027C379.797 39.2207 382.479 37.4331 387.15 37.4331C391.316 37.4331 394.503 38.9171 396.544 42.3237H397.96C400.287 39.1363 403.458 37.4331 408.129 37.4331C416.123 37.45 419.445 42.6273 419.445 50.5873Z" fill="#BCB5B5"/>
<path d="M204.476 15.7458C201.575 6.68969 193.143 0.53418 183.632 0.53418H0.0634766L23.3699 79.8134C26.1188 89.1225 34.6522 95.5141 44.3661 95.5141H229.958L204.476 15.7458ZM62.1074 73.6579H44.2986L29.222 22.3903H40.2849L51.702 63.32H54.8557L66.2729 22.3903H77.184L62.1074 73.6579ZM95.5662 73.6579H84.8743V22.3903H95.5662V73.6579ZM118.265 73.6579L103.189 22.3903H114.252L125.669 63.32H128.823L140.24 22.3903H151.151L136.074 73.6579H118.265ZM189.129 73.6579L184.964 59.7954H165.435L161.27 73.6579H150.712L167.003 22.3903H183.581L199.956 73.6579H189.129Z" fill="#BCB5B5"/>
<path d="M173.547 32.6611L168.15 50.4699H182.08L176.701 32.6611H173.547Z" fill="#BCB5B5"/>
</svg>
