<?xml version="1.0" encoding="UTF-8" standalone="no"?>
<svg
   xmlns:dc="http://purl.org/dc/elements/1.1/"
   xmlns:cc="http://creativecommons.org/ns#"
   xmlns:rdf="http://www.w3.org/1999/02/22-rdf-syntax-ns#"
   xmlns:svg="http://www.w3.org/2000/svg"
   xmlns="http://www.w3.org/2000/svg"
   xmlns:sodipodi="http://sodipodi.sourceforge.net/DTD/sodipodi-0.dtd"
   xmlns:inkscape="http://www.inkscape.org/namespaces/inkscape"
   viewBox="0 0 1473.6707 594.2367"
   version="1.1"
   id="svg4"
   sodipodi:docname="wave1.svg"
   width="1473.6708"
   height="594.23669"
   inkscape:version="0.92.4 (5da689c313, 2019-01-14)">
  <metadata
     id="metadata10">
    <rdf:RDF>
      <cc:Work
         rdf:about="">
        <dc:format>image/svg+xml</dc:format>
        <dc:type
           rdf:resource="http://purl.org/dc/dcmitype/StillImage" />
        <dc:title></dc:title>
      </cc:Work>
    </rdf:RDF>
  </metadata>
  <defs
     id="defs8" />
  <sodipodi:namedview
     pagecolor="#ffffff"
     bordercolor="#666666"
     borderopacity="1"
     objecttolerance="10"
     gridtolerance="10"
     guidetolerance="10"
     inkscape:pageopacity="0"
     inkscape:pageshadow="2"
     inkscape:window-width="1920"
     inkscape:window-height="1014"
     id="namedview6"
     showgrid="false"
     inkscape:zoom="0.56527778"
     inkscape:cx="622.01826"
     inkscape:cy="306.75419"
     inkscape:window-x="-8"
     inkscape:window-y="-8"
     inkscape:window-maximized="1"
     inkscape:current-layer="svg4" />
  <path
     d="m 3.538083,74.837825 43.31204,-30.00314 C 65.295331,31.480728 102.48648,4.7728109 139.5774,9.1963088 c 36.79017,4.7573482 74.18182,39.8114862 111.27272,71.2767572 36.58969,31.131414 73.17937,57.839334 110.27027,80.123754 37.29141,21.95057 31.72482,-0.4778 68.81573,-23.0126 37.09091,-22.53481 116.63882,-95.951173 153.72973,-96.201563 36.89042,0.25039 120.17691,111.543253 157.26782,138.501543 36.58968,26.45754 27.18427,21.02489 64.27518,-1.50992 37.39164,-22.5348 77.7199,-104.206174 114.8108,-131.164477 37.19116,-26.457536 70.6437,-44.8192284 107.73455,-31.214878 36.8904,13.103578 74.1818,104.790405 111.2728,126.740975 36.6899,22.28442 74.1818,22.28442 110.2702,-13.35395 37.4919,-35.304533 74.1818,-107.082069 111.2728,-124.6091391 37.2914,-17.5270719 74.1818,17.5270701 93.2285,35.6383831 l 18.0442,17.777452 72.5308,197.657684 -70.7028,332.56325 L 1360.57,218.43616 1473.6707,588.40958 1139.027,218.43616 1473.6707,588.40958 916.48157,218.43616 1530.28,614.94521 716.16708,582.58243 583.66585,218.43616 1095.0958,616.71425 716.16708,582.58243 939.06634,589.6586 625.94595,569.6886 1459.5184,602.56192 0,594.23672 C -144.85628,577.43696 -153.06539,285.66721 3.538083,74.837825 Z"
     id="path2"
     inkscape:connector-curvature="0"
     style="fill:#ffffff;fill-opacity:1;stroke-width:0.9146983"
     sodipodi:nodetypes="cccccsccccccccccccccccccccccccccc" />
  <path
     sodipodi:nodetypes="cccccsccccccccccccccccccccccccccc"
     style="fill:#ffffff;fill-opacity:1;stroke-width:0.9146983"
     inkscape:connector-curvature="0"
     id="path4520"
     d="m 3.538083,74.837825 43.31204,-30.00314 C 65.295331,31.480728 102.48648,4.7728109 139.5774,9.1963088 c 36.79017,4.7573482 74.18182,39.8114862 111.27272,71.2767572 36.58969,31.131414 73.17937,57.839334 110.27027,80.123754 37.29141,21.95057 31.72482,-0.4778 68.81573,-23.0126 37.09091,-22.53481 116.63882,-95.951173 153.72973,-96.201563 36.89042,0.25039 120.17691,111.543253 157.26782,138.501543 36.58968,26.45754 27.18427,21.02489 64.27518,-1.50992 37.39164,-22.5348 77.7199,-104.206174 114.8108,-131.164477 37.19116,-26.457536 70.6437,-44.8192284 107.73455,-31.214878 36.8904,13.103578 74.1818,104.790405 111.2728,126.740975 36.6899,22.28442 74.1818,22.28442 110.2702,-13.35395 37.4919,-35.304533 74.1818,-107.082069 111.2728,-124.6091391 37.2914,-17.5270719 74.1818,17.5270701 93.2285,35.6383831 L 1471.8427,58.188646 -134.44714,630.88319 1473.6707,588.40958 1360.57,218.43616 1473.6707,588.40958 1139.027,218.43616 1473.6707,588.40958 916.48157,218.43616 1530.28,614.94521 716.16708,582.58243 583.66585,218.43616 1095.0958,616.71425 716.16708,582.58243 939.06634,589.6586 625.94595,569.6886 1459.5184,602.56192 0,594.23672 C -144.85628,577.43696 -153.06539,285.66721 3.538083,74.837825 Z" />
</svg>
