<?xml version="1.0" encoding="UTF-8" standalone="no"?>
<svg
   xmlns:dc="http://purl.org/dc/elements/1.1/"
   xmlns:cc="http://creativecommons.org/ns#"
   xmlns:rdf="http://www.w3.org/1999/02/22-rdf-syntax-ns#"
   xmlns:svg="http://www.w3.org/2000/svg"
   xmlns="http://www.w3.org/2000/svg"
   xmlns:sodipodi="http://sodipodi.sourceforge.net/DTD/sodipodi-0.dtd"
   xmlns:inkscape="http://www.inkscape.org/namespaces/inkscape"
   viewBox="0 0 1440 636.68579"
   version="1.1"
   id="svg4"
   sodipodi:docname="wave2.svg"
   width="1440"
   height="636.68579"
   inkscape:version="0.92.4 (5da689c313, 2019-01-14)">
  <metadata
     id="metadata10">
    <rdf:RDF>
      <cc:Work
         rdf:about="">
        <dc:format>image/svg+xml</dc:format>
        <dc:type
           rdf:resource="http://purl.org/dc/dcmitype/StillImage" />
        <dc:title></dc:title>
      </cc:Work>
    </rdf:RDF>
  </metadata>
  <defs
     id="defs8" />
  <sodipodi:namedview
     pagecolor="#ffffff"
     bordercolor="#666666"
     borderopacity="1"
     objecttolerance="10"
     gridtolerance="10"
     guidetolerance="10"
     inkscape:pageopacity="0"
     inkscape:pageshadow="2"
     inkscape:window-width="1920"
     inkscape:window-height="1014"
     id="namedview6"
     showgrid="false"
     inkscape:zoom="6.395388"
     inkscape:cx="62.232606"
     inkscape:cy="334.42426"
     inkscape:window-x="-8"
     inkscape:window-y="-8"
     inkscape:window-maximized="1"
     inkscape:current-layer="svg4" />
  <path
     d="m 0,467.65602 18.5,-16 c 18.4,-16 55.5,-48 92.5,-42.7 36.7,5.7 74,47.7 111,85.4 36.5,37.3 73,69.3 110,96 37.2,26.3 74,48.3 111,21.3 37,-27 74,-101 111,-101.3 36.8,0.3 74,74.3 111,106.6 36.5,31.7 73,21.7 110,-5.3 37.3,-27 74,-69 111,-101.3 37.1,-31.7 74,-53.7 111,-37.4 36.8,15.7 74,69.7 111,96 36.6,26.7 74,26.7 110,-16 37.4,-42.3 74,-128.3 111,-149.3 37.2,-21 74,21 93,42.7 l 18,21.3 v -128 h -18.5 L 929.77641,17.690418 1421.5,339.65602 1417.5824,-1.7690418 1085.4521,-24.766584 331.68059,14.152334 775,339.65602 331.68059,14.152334 554,339.65602 331.68059,14.152334 332,339.65602 331.68059,14.152334 7.0761671,10.614251 18,339.65602 7.0761671,10.614251 Z"
     id="path2"
     inkscape:connector-curvature="0"
     style="fill:#0099ff;fill-opacity:1"
     sodipodi:nodetypes="cccccsccccccccccccccccccccccccccc" />
  <path
     sodipodi:nodetypes="cccccsccccccccccccccccccccccccccc"
     style="fill:#0099ff;fill-opacity:1"
     inkscape:connector-curvature="0"
     id="path817"
     d="m 0,467.65602 18.5,-16 c 18.4,-16 55.5,-48 92.5,-42.7 36.7,5.7 74,47.7 111,85.4 36.5,37.3 73,69.3 110,96 37.2,26.3 74,48.3 111,21.3 37,-27 74,-101 111,-101.3 36.8,0.3 74,74.3 111,106.6 36.5,31.7 73,21.7 110,-5.3 37.3,-27 74,-69 111,-101.3 37.1,-31.7 74,-53.7 111,-37.4 36.8,15.7 74,69.7 111,96 36.6,26.7 74,26.7 110,-16 37.4,-42.3 74,-128.3 111,-149.3 37.2,-21 74,21 93,42.7 l 18,21.3 v -128 h -18.5 L 929.77641,17.690418 1440,339.65602 1417.5824,-1.7690418 1085.4521,-24.766584 331.68059,14.152334 775,339.65602 331.68059,14.152334 554,339.65602 331.68059,14.152334 332,339.65602 331.68059,14.152334 7.0761671,10.614251 18,339.65602 7.0761671,10.614251 Z" />
  <path
     d="m 0,467.65602 18.5,-16 c 18.4,-16 55.5,-48 92.5,-42.7 36.7,5.7 74,47.7 111,85.4 36.5,37.3 73,69.3 110,96 37.2,26.3 74,48.3 111,21.3 37,-27 74,-101 111,-101.3 36.8,0.3 74,74.3 111,106.6 36.5,31.7 73,21.7 110,-5.3 37.3,-27 74,-69 111,-101.3 37.1,-31.7 74,-53.7 111,-37.4 36.8,15.7 74,69.7 111,96 36.6,26.7 74,26.7 110,-16 37.4,-42.3 74,-128.3 111,-149.3 37.2,-21 74,21 93,42.7 l 18,21.3 v -128 h -18.5 L 929.77641,17.690418 1440,339.65602 1458.2704,-5.3071253 1085.4521,-24.766584 331.68059,14.152334 775,339.65602 331.68059,14.152334 554,339.65602 331.68059,14.152334 332,339.65602 331.68059,14.152334 7.0761671,10.614251 18,339.65602 7.0761671,10.614251 Z"
     id="path819"
     inkscape:connector-curvature="0"
     style="fill:#0099ff;fill-opacity:1"
     sodipodi:nodetypes="cccccsccccccccccccccccccccccccccc" />
  <path
     sodipodi:nodetypes="cccccsccccccccccccccccccccccccccc"
     style="fill:#ffffff;fill-opacity:1"
     inkscape:connector-curvature="0"
     id="path821"
     d="m 0,467.65602 18.5,-16 c 18.4,-16 55.5,-48 92.5,-42.7 36.7,5.7 74,47.7 111,85.4 36.5,37.3 73,69.3 110,96 37.2,26.3 74,48.3 111,21.3 37,-27 74,-101 111,-101.3 36.8,0.3 74,74.3 111,106.6 36.5,31.7 73,21.7 110,-5.3 37.3,-27 74,-69 111,-101.3 37.1,-31.7 74,-53.7 111,-37.4 36.8,15.7 74,69.7 111,96 36.6,26.7 74,26.7 110,-16 37.4,-42.3 74,-128.3 111,-149.3 37.2,-21 74,21 93,42.7 l 18,21.3 v -128 h -18.5 L 929.77641,17.690418 1440,339.65602 1458.2704,-5.3071253 1085.4521,-24.766584 331.68059,14.152334 775,339.65602 331.68059,14.152334 554,339.65602 331.68059,14.152334 332,339.65602 634.18673,-15.921376 7.0761671,10.614251 18,339.65602 7.0761671,10.614251 Z" />
  <path
     d="m 0,467.65602 18.5,-16 c 18.4,-16 55.5,-48 92.5,-42.7 36.7,5.7 74,47.7 111,85.4 36.5,37.3 73,69.3 110,96 37.2,26.3 74,48.3 111,21.3 37,-27 74,-101 111,-101.3 36.8,0.3 74,74.3 111,106.6 36.5,31.7 73,21.7 110,-5.3 37.3,-27 74,-69 111,-101.3 37.1,-31.7 74,-53.7 111,-37.4 36.8,15.7 74,69.7 111,96 36.6,26.7 74,26.7 110,-16 37.4,-42.3 74,-128.3 111,-149.3 37.2,-21 74,21 93,42.7 l 18,21.3 v -128 L 1479.8784,302.50614 929.77641,17.690418 1440,339.65602 1458.2704,-5.3071253 1085.4521,-24.766584 331.68059,14.152334 775,339.65602 331.68059,14.152334 554,339.65602 331.68059,14.152334 332,339.65602 634.18673,-15.921376 -33.611794,-7.0761667 0.3095823,336.11794 28.304668,60.147421 Z"
     id="path823"
     inkscape:connector-curvature="0"
     style="fill:#ffffff;fill-opacity:1"
     sodipodi:nodetypes="cccccsccccccccccccccccccccccccccc" />
</svg>
