<svg width="35" height="40" viewBox="0 0 35 40" fill="none" xmlns="http://www.w3.org/2000/svg">
<path d="M34.1077 39.7297C34.5955 39.7297 35 39.3325 35 38.8536V10.5489C35 10.5372 35 10.5138 35 10.5022C35 10.2685 34.9048 10.0466 34.7502 9.89471L26.4344 0.420874L26.4225 0.409192C26.4225 0.409192 26.4225 0.409192 26.4106 0.397511C26.3868 0.362466 26.3511 0.339103 26.3273 0.315739C26.3273 0.315739 26.3273 0.315739 26.3154 0.304057C26.2797 0.280694 26.2559 0.25733 26.2203 0.233967L26.2084 0.222286C26.137 0.175559 26.0656 0.152195 25.9823 0.128832H25.9704C25.899 0.11715 25.8277 0.105469 25.7563 0.105469H0.89225C0.404487 0.105469 0 0.502646 0 0.981594V38.8769C0 39.3559 0.404487 39.7531 0.89225 39.7531H34.1077V39.7297ZM26.6485 3.31793L32.1686 9.61435H26.6485V3.31793ZM1.7845 1.83436H24.864V10.4905C24.864 10.9694 25.2685 11.3666 25.7563 11.3666H33.2274V37.9658H1.7845V1.83436Z" fill="white"/>
<path d="M8.99346 20.4376C6.23529 20.4376 4 22.5146 4 25.0775C4 26.2071 4.43137 27.2396 5.1634 28.0412V34.7703C5.1634 35.1104 5.37255 35.4262 5.69935 35.5841C6.02614 35.742 6.4183 35.7177 6.71895 35.5112L9.00653 33.9929L11.281 35.5112C11.451 35.6205 11.6471 35.6812 11.8562 35.6812C12.0131 35.6812 12.1569 35.6448 12.3007 35.5841C12.6275 35.4262 12.8366 35.1104 12.8366 34.7703V28.0412C13.5556 27.2396 14 26.2071 14 25.0775C13.9869 22.5268 11.7516 20.4376 8.99346 20.4376ZM8.99346 22.2596C10.6667 22.2596 12.0261 23.5228 12.0261 25.0775C12.0261 26.6322 10.6667 27.8955 8.99346 27.8955C8.15686 27.8955 7.38562 27.5797 6.8366 27.0574C6.8366 27.0574 6.8366 27.0574 6.82353 27.0452C6.28758 26.5351 5.96078 25.8427 5.96078 25.0775C5.96078 23.5228 7.32026 22.2596 8.99346 22.2596ZM9.56863 32.1224C9.22876 31.8916 8.77124 31.8916 8.4183 32.1224L7.11111 32.9969V29.3773C7.68627 29.5959 8.3268 29.7174 8.98039 29.7174C9.64706 29.7174 10.2745 29.5959 10.8497 29.3773V32.9969L9.56863 32.1224Z" fill="white"/>
<path d="M5.87413 7.22169H9.12587C9.60373 7.22169 10 6.5304 10 5.69678C10 4.86317 9.60373 4.17188 9.12587 4.17188H5.87413C5.39627 4.17188 5 4.86317 5 5.69678C5 6.5304 5.39627 7.22169 5.87413 7.22169Z" fill="white"/>
<path d="M18.145 8.23828H5.85505C5.38762 8.23828 5 8.92957 5 9.76319C5 10.5968 5.38762 11.2881 5.85505 11.2881H18.145C18.6124 11.2881 19 10.5968 19 9.76319C19 8.92957 18.6124 8.23828 18.145 8.23828Z" fill="white"/>
<path d="M18.145 12.3047H5.85505C5.38762 12.3047 5 12.7655 5 13.3213C5 13.877 5.38762 14.3379 5.85505 14.3379H18.145C18.6124 14.3379 19 13.877 19 13.3213C19 12.7655 18.6124 12.3047 18.145 12.3047Z" fill="white"/>
</svg>
