<svg width="46" height="48" viewBox="0 0 46 48" fill="none" xmlns="http://www.w3.org/2000/svg">
<path d="M40.5 43.6535C41.8783 43.6535 43 42.7412 43 41.6202C43 40.4993 41.8783 39.587 40.5 39.587C39.1217 39.587 38 40.4993 38 41.6202C38 42.7412 39.1217 43.6535 40.5 43.6535ZM40.5 40.9425C40.9592 40.9425 41.3333 41.2461 41.3333 41.6202C41.3333 41.9944 40.9592 42.298 40.5 42.298C40.0408 42.298 39.6667 41.9944 39.6667 41.6202C39.6667 41.2461 40.0408 40.9425 40.5 40.9425Z" fill="white"/>
<path d="M34.5 43.6535C35.8783 43.6535 37 42.7412 37 41.6202C37 40.4993 35.8783 39.587 34.5 39.587C33.1217 39.587 32 40.4993 32 41.6202C32 42.7412 33.1217 43.6535 34.5 43.6535ZM34.5 40.9425C34.9592 40.9425 35.3333 41.2461 35.3333 41.6202C35.3333 41.9944 34.9592 42.298 34.5 42.298C34.0408 42.298 33.6667 41.9944 33.6667 41.6202C33.6667 41.2461 34.0408 40.9425 34.5 40.9425Z" fill="white"/>
<path d="M29 43.6535C30.1027 43.6535 31 42.7412 31 41.6202C31 40.4993 30.1027 39.587 29 39.587C27.8973 39.587 27 40.4993 27 41.6202C27 42.7412 27.8973 43.6535 29 43.6535ZM29 40.9425C29.3673 40.9425 29.6667 41.2461 29.6667 41.6202C29.6667 41.9944 29.3673 42.298 29 42.298C28.6327 42.298 28.3333 41.9944 28.3333 41.6202C28.3333 41.2461 28.6327 40.9425 29 40.9425Z" fill="white"/>
<path d="M18.8533 32.6348H19.2903H46V28.3084C46 25.9694 44.456 23.8847 42.2458 23.2353L41.5484 23.0309V10.0071C41.5484 5.01621 37.5546 0.956055 32.6452 0.956055C27.7358 0.956055 23.7419 5.01621 23.7419 10.0071V23.0309L23.0445 23.2353C22.773 23.3145 22.5118 23.4246 22.2566 23.5483C22.2373 18.574 18.2524 14.5327 13.3548 14.5327C8.44545 14.5327 4.45161 18.5928 4.45161 23.5837V29.6178C4.45161 31.2817 5.78265 32.6348 7.41935 32.6348H7.85635C8.24068 33.5965 8.86094 34.4344 9.64516 35.0748V36.5931L3.75419 38.3204C1.54397 38.969 0 41.0545 0 43.3935V47.7199H25.9677H43.7742C45.0014 47.7199 46 46.7047 46 45.4571V37.9146C46 36.667 45.0014 35.6518 43.7742 35.6518H42.5975L40.0645 33.0768L37.5315 35.6518H25.9677C24.7406 35.6518 23.7419 36.667 23.7419 37.9146V38.6326C23.4875 38.5089 23.2263 38.3996 22.9555 38.3204L17.0645 36.5931V35.0748C17.8487 34.4344 18.469 33.5965 18.8533 32.6348ZM19.2391 31.1263C19.2695 30.8789 19.2903 30.6277 19.2903 30.372V28.1093C20.1087 28.1093 20.7742 28.7858 20.7742 29.6178C20.7742 30.4497 20.1087 31.1263 19.2903 31.1263H19.2391ZM25.9677 23.948L29.0727 23.0369C29.4252 24.3847 30.4839 25.4377 31.8275 25.7469C31.5323 27.0963 30.3504 28.1093 28.9355 28.1093C27.2988 28.1093 25.9677 26.7561 25.9677 25.0922V23.948ZM32.6452 19.8124C30.1901 19.8124 28.1935 17.7827 28.1935 15.2869V12.2699C28.1935 11.8535 28.5267 11.5156 28.9355 11.5156H36.3548C36.7636 11.5156 37.0968 11.8535 37.0968 12.2699V15.2869C37.0968 17.7827 35.1002 19.8124 32.6452 19.8124ZM30.4194 20.8767C31.1071 21.1611 31.858 21.321 32.6452 21.321C33.4324 21.321 34.1832 21.1611 34.871 20.8767V22.0752C34.871 23.3227 33.8723 24.338 32.6452 24.338C31.418 24.338 30.4194 23.3227 30.4194 22.0752V20.8767ZM36.2176 23.0376L39.3226 23.948V25.0922C39.3226 26.7561 37.9916 28.1093 36.3548 28.1093C34.94 28.1093 33.7581 27.0963 33.462 25.7477C34.8064 25.4384 35.8652 24.3847 36.2176 23.0376ZM36.3548 21.508V19.9897C37.1391 19.3493 37.7593 18.5114 38.1436 17.5497H38.5806C39.1237 17.5497 39.626 17.3898 40.0645 17.1303V22.5956L36.3548 21.508ZM38.5806 15.2869V13.0241C39.399 13.0241 40.0645 13.7007 40.0645 14.5327C40.0645 15.3646 39.399 16.0412 38.5806 16.0412H38.5295C38.5599 15.7938 38.5806 15.5426 38.5806 15.2869ZM32.6452 2.46457C36.7362 2.46457 40.0645 5.84816 40.0645 10.0071V11.935C39.626 11.6755 39.1237 11.5156 38.5806 11.5156H38.4441C38.137 10.6399 37.3208 10.0071 36.3548 10.0071H28.9355C27.9695 10.0071 27.1534 10.6399 26.8462 11.5156H26.7097C26.1666 11.5156 25.6643 11.6755 25.2258 11.935V10.0071C25.2258 5.84816 28.5541 2.46457 32.6452 2.46457ZM26.7609 16.0412H26.7097C25.8913 16.0412 25.2258 15.3646 25.2258 14.5327C25.2258 13.7007 25.8913 13.0241 26.7097 13.0241V15.2869C26.7097 15.5426 26.7305 15.7938 26.7609 16.0412ZM25.2258 17.1303C25.6643 17.3898 26.1666 17.5497 26.7097 17.5497H27.1467C27.531 18.5114 28.1513 19.3493 28.9355 19.9897V21.508L25.2258 22.5956V17.1303ZM23.4555 24.6849L24.4839 24.3832V25.0922C24.4839 27.5881 26.4804 29.6178 28.9355 29.6178C30.4832 29.6178 31.8468 28.81 32.6452 27.5888C33.4435 28.8107 34.8072 29.6178 36.3548 29.6178C38.8099 29.6178 40.8065 27.5881 40.8065 25.0922V24.3832L41.8348 24.6849C43.4136 25.148 44.5161 26.6385 44.5161 28.3084V31.1263H21.8455C22.1008 30.6805 22.2581 30.1699 22.2581 29.6178V25.2959C22.6172 25.0206 23.0178 24.8132 23.4555 24.6849ZM13.3548 16.0412C17.4459 16.0412 20.7742 19.4248 20.7742 23.5837V27.0201C20.3357 26.7606 19.8334 26.6007 19.2903 26.6007V25.0922H18.5484C16.3159 25.0922 14.1027 24.3425 12.3161 22.9803L11.6885 22.5014L11.0044 23.5453C10.3693 24.5137 9.3061 25.0922 8.16129 25.0922H7.41935V26.6007C6.87626 26.6007 6.37397 26.7606 5.93548 27.0201V23.5837C5.93548 19.4248 9.26381 16.0412 13.3548 16.0412ZM7.41935 31.1263C6.601 31.1263 5.93548 30.4497 5.93548 29.6178C5.93548 28.7858 6.601 28.1093 7.41935 28.1093V30.372C7.41935 30.6277 7.44013 30.8789 7.47055 31.1263H7.41935ZM8.90323 30.372V26.5442C10.1549 26.3503 11.2863 25.6715 12.0594 24.6382C13.7718 25.7718 15.7676 26.4454 17.8065 26.5766V30.372C17.8065 32.8679 15.8099 34.8976 13.3548 34.8976C10.8998 34.8976 8.90323 32.8679 8.90323 30.372ZM10.1719 38.0081L12.19 40.0604L9.47081 41.9031L8.97297 38.3596L10.1719 38.0081ZM15.3069 42.4062L14.0174 43.7171L14.6302 46.2114H12.0795L12.693 43.7171L11.4035 42.4062L13.3548 41.084L15.3069 42.4062ZM1.48387 43.3935C1.48387 41.7236 2.58639 40.2339 4.16523 39.77L7.53361 38.782L8.3349 44.4857L10.1437 43.26L11.0489 44.1802L10.5496 46.2114H1.48387V43.3935ZM25.2258 37.9146C25.2258 37.4982 25.5589 37.1603 25.9677 37.1603H38.1459L40.0645 35.2098L41.9832 37.1603H43.7742C44.183 37.1603 44.5161 37.4982 44.5161 37.9146V45.4571C44.5161 45.8735 44.183 46.2114 43.7742 46.2114H25.9677C25.5589 46.2114 25.2258 45.8735 25.2258 45.4571V37.9146ZM23.7419 40.3817V45.4571C23.7419 45.7226 23.7954 45.9746 23.8785 46.2114H16.1601L15.6608 44.1802L16.5659 43.26L18.3748 44.4857L19.1761 38.782L22.5452 39.77C22.9822 39.8983 23.3821 40.1057 23.7419 40.3817ZM17.7367 38.3596L17.2389 41.9031L14.5197 40.0604L16.5377 38.0081L17.7367 38.3596ZM15.5806 36.8481L13.3548 39.1108L11.129 36.8481V35.9618C11.8168 36.2462 12.5676 36.4061 13.3548 36.4061C14.142 36.4061 14.8929 36.2462 15.5806 35.9618V36.8481Z" fill="white"/>
<path d="M2.2 12.6857H3.36307L5.86667 15.1885L8.37027 12.6857H19.8C21.0129 12.6857 22 11.699 22 10.4864V3.15537C22 1.94281 21.0129 0.956055 19.8 0.956055H2.2C0.987067 0.956055 0 1.94281 0 3.15537V10.4864C0 11.699 0.987067 12.6857 2.2 12.6857ZM1.46667 3.15537C1.46667 2.75069 1.79593 2.42226 2.2 2.42226H19.8C20.2041 2.42226 20.5333 2.75069 20.5333 3.15537V10.4864C20.5333 10.8911 20.2041 11.2195 19.8 11.2195H7.76307L5.86667 13.1153L3.97027 11.2195H2.2C1.79593 11.2195 1.46667 10.8911 1.46667 10.4864V3.15537Z" fill="white"/>
<path d="M5 9.08888C6.10267 9.08888 7 8.17665 7 7.05567C7 5.93469 6.10267 5.02246 5 5.02246C3.89733 5.02246 3 5.93469 3 7.05567C3 8.17665 3.89733 9.08888 5 9.08888ZM5 6.37793C5.36733 6.37793 5.66667 6.68156 5.66667 7.05567C5.66667 7.42978 5.36733 7.73341 5 7.73341C4.63267 7.73341 4.33333 7.42978 4.33333 7.05567C4.33333 6.68156 4.63267 6.37793 5 6.37793Z" fill="white"/>
<path d="M11 9.08888C12.1027 9.08888 13 8.17665 13 7.05567C13 5.93469 12.1027 5.02246 11 5.02246C9.89733 5.02246 9 5.93469 9 7.05567C9 8.17665 9.89733 9.08888 11 9.08888ZM11 6.37793C11.3673 6.37793 11.6667 6.68156 11.6667 7.05567C11.6667 7.42978 11.3673 7.73341 11 7.73341C10.6327 7.73341 10.3333 7.42978 10.3333 7.05567C10.3333 6.68156 10.6327 6.37793 11 6.37793Z" fill="white"/>
<path d="M17 9.08888C18.1027 9.08888 19 8.17665 19 7.05567C19 5.93469 18.1027 5.02246 17 5.02246C15.8973 5.02246 15 5.93469 15 7.05567C15 8.17665 15.8973 9.08888 17 9.08888ZM17 6.37793C17.3673 6.37793 17.6667 6.68156 17.6667 7.05567C17.6667 7.42978 17.3673 7.73341 17 7.73341C16.6327 7.73341 16.3333 7.42978 16.3333 7.05567C16.3333 6.68156 16.6327 6.37793 17 6.37793Z" fill="white"/>
</svg>
