<svg width="37" height="38" viewBox="0 0 37 38" fill="none" xmlns="http://www.w3.org/2000/svg">
<path d="M31.9888 11.2222V11.2245C32.2327 10.7011 32.375 10.1547 32.375 9.59452V7.24362C32.375 3.34994 26.1624 0.190918 18.5 0.190918C10.8376 0.190918 4.625 3.34994 4.625 7.24362C4.625 7.05077 4.6521 6.86248 4.68144 6.67426C1.81567 7.96454 0 9.84709 0 11.9454V14.2963C0 16.4774 1.95117 18.4265 5.01119 19.719C4.76729 20.2425 4.625 20.7888 4.625 21.349V23.6999C4.625 24.5264 4.91862 25.3139 5.43351 26.0508C4.91862 26.7877 4.625 27.5752 4.625 28.4017V30.7526C4.625 34.6463 10.8376 37.8053 18.5 37.8053C26.1624 37.8053 32.375 34.6463 32.375 30.7526V28.4017C32.375 27.5614 32.0701 26.7602 31.5417 26.0141C31.5372 26.0186 31.5327 26.0255 31.5281 26.0302C31.9165 25.47 32.2214 24.8869 32.3186 24.2693C35.1843 22.9767 37 21.0964 37 18.9981V16.6472C37 14.4662 35.0488 12.5148 31.9888 11.2222ZM18.5 1.36637C25.9953 1.36637 31.2188 4.46338 31.2188 7.24362C31.2188 10.0216 25.9953 13.1209 18.5 13.1209C11.0047 13.1209 5.78125 10.0216 5.78125 7.24362C5.78125 4.46338 11.0047 1.36637 18.5 1.36637ZM1.15625 11.9454C1.15625 10.5725 2.43672 9.12845 4.625 8.01273V9.59452C4.625 13.4882 10.8376 16.6472 18.5 16.6472C19.645 16.6472 20.7515 16.5691 21.8152 16.436C19.6946 17.2648 17.0005 17.8227 13.875 17.8227C6.37968 17.8227 1.15625 14.7234 1.15625 11.9454ZM31.2188 28.4017C31.2188 31.1796 25.9953 34.279 18.5 34.279C11.0047 34.279 5.78125 31.1796 5.78125 28.4017C5.78125 27.9403 5.9755 27.4719 6.24874 27.0081C6.2465 27.0059 6.24194 27.0012 6.2397 26.9967C8.56803 29.2305 13.184 30.7526 18.5 30.7526C23.8228 30.7526 28.4162 29.219 30.74 26.9806C30.7377 26.9829 30.7377 26.9829 30.7355 26.9851C31.02 27.4558 31.2188 27.9311 31.2188 28.4017ZM26.4447 25.8396C24.3219 26.6707 21.6277 27.2263 18.5 27.2263C11.0047 27.2263 5.78125 24.1269 5.78125 21.349C5.78125 20.9495 5.91675 20.5454 6.12227 20.146C7.25597 20.534 8.50928 20.8394 9.8485 21.0437C11.5738 23.941 16.8628 26.0508 23.125 26.0508C24.2745 26.0508 25.3855 25.9728 26.4537 25.8373C26.4515 25.8373 26.4492 25.8396 26.4447 25.8396ZM23.125 22.5245C20.1576 22.5245 17.5696 22.0286 15.4964 21.2686C22.0162 20.8783 27.1651 18.2175 27.6935 14.8657C29.2675 14.1563 30.5277 13.2724 31.3384 12.2668C31.3362 12.2668 31.3362 12.2668 31.3362 12.2668C34.1365 13.4239 35.8438 15.0769 35.8438 16.6472C35.8438 19.4251 30.6203 22.5245 23.125 22.5245ZM20.9706 8.95632C20.9706 8.70837 20.7764 8.51781 20.388 8.39152C19.9996 8.26295 19.1346 8.09765 17.7955 7.90018C16.5918 7.72798 15.6501 7.55577 14.9726 7.38592C14.2951 7.21607 13.7441 6.97723 13.3217 6.67419C12.8994 6.36651 12.6872 6.00837 12.6872 5.60431C12.6872 5.07168 13.0666 4.58952 13.8209 4.16254C14.5752 3.73784 15.763 3.47836 17.3845 3.38197V2.54182H19.5751V3.38212C22.0231 3.50613 23.6085 4.08004 24.3288 5.11319L21.3117 5.62745C20.7223 4.92034 19.8144 4.56675 18.5814 4.56675C17.9626 4.56675 17.4658 4.64484 17.0932 4.80551C16.7183 4.96163 16.5309 5.15448 16.5309 5.3795C16.5309 5.60908 16.7116 5.78356 17.0729 5.90757C17.432 6.02923 18.2066 6.17851 19.39 6.36218C20.6907 6.55965 21.7115 6.74559 22.45 6.92235C23.1907 7.09683 23.7801 7.34022 24.2227 7.6501C24.6631 7.96005 24.8843 8.32275 24.8843 8.736C24.8843 9.37427 24.4282 9.90226 23.5181 10.327C22.608 10.7517 21.2937 11.002 19.5751 11.0777V12.1658H17.3845V11.0822C14.5187 10.9605 12.7459 10.2649 12.0617 9.00216L15.4492 8.63484C15.7631 9.42922 16.8019 9.82638 18.5656 9.82638C19.3898 9.82638 19.9997 9.74145 20.3881 9.57152C20.7765 9.4016 20.9706 9.19736 20.9706 8.95632Z" fill="white"/>
</svg>
