<svg width="40" height="38" viewBox="0 0 40 38" fill="none" xmlns="http://www.w3.org/2000/svg">
<path d="M16.7319 7.52803C15.5158 7.52803 14.3495 8.01915 13.4895 8.89335C12.6296 9.76755 12.1465 10.9532 12.1465 12.1895C12.1465 13.4258 12.6296 14.6115 13.4895 15.4857C14.3495 16.3599 15.5158 16.851 16.7319 16.851C17.948 16.851 19.1143 16.3599 19.9742 15.4857C20.8342 14.6115 21.3173 13.4258 21.3173 12.1895C21.3173 10.9532 20.8342 9.76755 19.9742 8.89335C19.1143 8.01915 17.948 7.52803 16.7319 7.52803ZM14.4392 12.1895C14.4392 11.5714 14.6808 10.9785 15.1107 10.5414C15.5407 10.1043 16.1238 9.85878 16.7319 9.85878C17.3399 9.85878 17.9231 10.1043 18.3531 10.5414C18.783 10.9785 19.0246 11.5714 19.0246 12.1895C19.0246 12.8077 18.783 13.4005 18.3531 13.8376C17.9231 14.2747 17.3399 14.5203 16.7319 14.5203C16.1238 14.5203 15.5407 14.2747 15.1107 13.8376C14.6808 13.4005 14.4392 12.8077 14.4392 12.1895ZM0.683105 4.0319C0.683105 3.10467 1.04543 2.21541 1.69037 1.55976C2.33531 0.904108 3.21004 0.535767 4.12213 0.535767H29.3416C30.2537 0.535767 31.1285 0.904108 31.7734 1.55976C32.4183 2.21541 32.7807 3.10467 32.7807 4.0319V12.1895H30.488V9.85878H28.1953C26.9792 9.85878 25.8129 9.36766 24.953 8.49346C24.093 7.61925 23.6099 6.43358 23.6099 5.19727V2.86652H9.85384V5.19727C9.85384 6.43358 9.37074 7.61925 8.51081 8.49346C7.65089 9.36766 6.48459 9.85878 5.26847 9.85878H2.97579V14.5203H5.26847C6.48459 14.5203 7.65089 15.0114 8.51081 15.8856C9.37074 16.7598 9.85384 17.9455 9.85384 19.1818V21.5125H21.3173V23.8433H4.12213C3.21004 23.8433 2.33531 23.475 1.69037 22.8193C1.04543 22.1637 0.683105 21.2744 0.683105 20.3472V4.0319ZM4.12213 2.86652C3.8181 2.86652 3.52653 2.9893 3.31154 3.20785C3.09656 3.4264 2.97579 3.72282 2.97579 4.0319V7.52803H5.26847C5.87653 7.52803 6.45968 7.28246 6.88964 6.84536C7.3196 6.40826 7.56115 5.81543 7.56115 5.19727V2.86652H4.12213ZM29.3416 2.86652H25.9026V5.19727C25.9026 5.81543 26.1442 6.40826 26.5741 6.84536C27.0041 7.28246 27.5872 7.52803 28.1953 7.52803H30.488V4.0319C30.488 3.72282 30.3672 3.4264 30.1522 3.20785C29.9372 2.9893 29.6457 2.86652 29.3416 2.86652ZM4.12213 21.5125H7.56115V19.1818C7.56115 18.5636 7.3196 17.9708 6.88964 17.5337C6.45968 17.0966 5.87653 16.851 5.26847 16.851H2.97579V20.3472C2.97579 20.6562 3.09656 20.9527 3.31154 21.1712C3.52653 21.3898 3.8181 21.5125 4.12213 21.5125ZM35.0733 12.1895V5.39539C35.7441 5.63649 36.3249 6.08315 36.7355 6.67383C37.1461 7.2645 37.3664 7.97011 37.366 8.6934V12.1895H35.0733ZM21.3173 26.1741V28.5048H8.7075C7.99602 28.5052 7.30193 28.2812 6.72091 27.8638C6.13988 27.4463 5.70051 26.856 5.46335 26.1741H21.3173ZM27.049 14.5203C26.1369 14.5203 25.2621 14.8886 24.6172 15.5443C23.9723 16.1999 23.6099 17.0892 23.6099 18.0164V34.3317C23.6099 35.2589 23.9723 36.1482 24.6172 36.8038C25.2621 37.4595 26.1369 37.8278 27.049 37.8278H36.2197C37.1318 37.8278 38.0065 37.4595 38.6514 36.8038C39.2964 36.1482 39.6587 35.2589 39.6587 34.3317V18.0164C39.6587 17.0892 39.2964 16.1999 38.6514 15.5443C38.0065 14.8886 37.1318 14.5203 36.2197 14.5203H27.049ZM27.049 23.8433H29.3416C29.6457 23.8433 29.9372 23.9661 30.1522 24.1846C30.3672 24.4032 30.488 24.6996 30.488 25.0087C30.488 25.3178 30.3672 25.6142 30.1522 25.8327C29.9372 26.0513 29.6457 26.1741 29.3416 26.1741H27.049C26.7449 26.1741 26.4534 26.0513 26.2384 25.8327C26.0234 25.6142 25.9026 25.3178 25.9026 25.0087C25.9026 24.6996 26.0234 24.4032 26.2384 24.1846C26.4534 23.9661 26.7449 23.8433 27.049 23.8433ZM33.927 23.8433H36.2197C36.5237 23.8433 36.8153 23.9661 37.0303 24.1846C37.2453 24.4032 37.366 24.6996 37.366 25.0087C37.366 25.3178 37.2453 25.6142 37.0303 25.8327C36.8153 26.0513 36.5237 26.1741 36.2197 26.1741H33.927C33.623 26.1741 33.3314 26.0513 33.1164 25.8327C32.9014 25.6142 32.7807 25.3178 32.7807 25.0087C32.7807 24.6996 32.9014 24.4032 33.1164 24.1846C33.3314 23.9661 33.623 23.8433 33.927 23.8433ZM27.049 28.5048H29.3416C29.6457 28.5048 29.9372 28.6276 30.1522 28.8461C30.3672 29.0647 30.488 29.3611 30.488 29.6702C30.488 29.9793 30.3672 30.2757 30.1522 30.4942C29.9372 30.7128 29.6457 30.8356 29.3416 30.8356H27.049C26.7449 30.8356 26.4534 30.7128 26.2384 30.4942C26.0234 30.2757 25.9026 29.9793 25.9026 29.6702C25.9026 29.3611 26.0234 29.0647 26.2384 28.8461C26.4534 28.6276 26.7449 28.5048 27.049 28.5048ZM33.927 28.5048H36.2197C36.5237 28.5048 36.8153 28.6276 37.0303 28.8461C37.2453 29.0647 37.366 29.3611 37.366 29.6702C37.366 29.9793 37.2453 30.2757 37.0303 30.4942C36.8153 30.7128 36.5237 30.8356 36.2197 30.8356H33.927C33.623 30.8356 33.3314 30.7128 33.1164 30.4942C32.9014 30.2757 32.7807 29.9793 32.7807 29.6702C32.7807 29.3611 32.9014 29.0647 33.1164 28.8461C33.3314 28.6276 33.623 28.5048 33.927 28.5048ZM27.049 33.1663H29.3416C29.6457 33.1663 29.9372 33.2891 30.1522 33.5076C30.3672 33.7262 30.488 34.0226 30.488 34.3317C30.488 34.6408 30.3672 34.9372 30.1522 35.1557C29.9372 35.3743 29.6457 35.4971 29.3416 35.4971H27.049C26.7449 35.4971 26.4534 35.3743 26.2384 35.1557C26.0234 34.9372 25.9026 34.6408 25.9026 34.3317C25.9026 34.0226 26.0234 33.7262 26.2384 33.5076C26.4534 33.2891 26.7449 33.1663 27.049 33.1663ZM33.927 33.1663H36.2197C36.5237 33.1663 36.8153 33.2891 37.0303 33.5076C37.2453 33.7262 37.366 34.0226 37.366 34.3317C37.366 34.6408 37.2453 34.9372 37.0303 35.1557C36.8153 35.3743 36.5237 35.4971 36.2197 35.4971H33.927C33.623 35.4971 33.3314 35.3743 33.1164 35.1557C32.9014 34.9372 32.7807 34.6408 32.7807 34.3317C32.7807 34.0226 32.9014 33.7262 33.1164 33.5076C33.3314 33.2891 33.623 33.1663 33.927 33.1663ZM25.9026 18.0164C25.9026 17.7073 26.0234 17.4109 26.2384 17.1924C26.4534 16.9738 26.7449 16.851 27.049 16.851H36.2197C36.5237 16.851 36.8153 16.9738 37.0303 17.1924C37.2453 17.4109 37.366 17.7073 37.366 18.0164V20.3472C37.366 20.6562 37.2453 20.9527 37.0303 21.1712C36.8153 21.3898 36.5237 21.5125 36.2197 21.5125H27.049C26.7449 21.5125 26.4534 21.3898 26.2384 21.1712C26.0234 20.9527 25.9026 20.6562 25.9026 20.3472V18.0164Z" fill="#5E7AAA"/>
</svg>
