<svg width="40" height="40" viewBox="0 0 40 40" fill="none" xmlns="http://www.w3.org/2000/svg">
<path fill-rule="evenodd" clip-rule="evenodd" d="M32.2221 0C31.3381 0 30.4902 0.35119 29.8651 0.976311C29.24 1.60143 28.8888 2.44928 28.8888 3.33333V36.6667C28.8888 37.5507 29.24 38.3986 29.8651 39.0237C30.4902 39.6488 31.3381 40 32.2221 40H36.6666C37.5506 40 38.3985 39.6488 39.0236 39.0237C39.6487 38.3986 39.9999 37.5507 39.9999 36.6667V3.33333C39.9999 2.44928 39.6487 1.60143 39.0236 0.976311C38.3985 0.35119 37.5506 0 36.6666 0H32.2221ZM31.111 3.33333C31.111 3.03865 31.2281 2.75603 31.4364 2.54766C31.6448 2.33929 31.9274 2.22222 32.2221 2.22222H36.6666C36.9612 2.22222 37.2439 2.33929 37.4522 2.54766C37.6606 2.75603 37.7777 3.03865 37.7777 3.33333V36.6667C37.7777 36.9614 37.6606 37.244 37.4522 37.4523C37.2439 37.6607 36.9612 37.7778 36.6666 37.7778H32.2221C31.9274 37.7778 31.6448 37.6607 31.4364 37.4523C31.2281 37.244 31.111 36.9614 31.111 36.6667V3.33333ZM14.4443 16.6667C14.4443 15.7826 14.7955 14.9348 15.4206 14.3096C16.0458 13.6845 16.8936 13.3333 17.7777 13.3333H22.2221C23.1062 13.3333 23.954 13.6845 24.5791 14.3096C25.2043 14.9348 25.5554 15.7826 25.5554 16.6667V36.6667C25.5554 37.5507 25.2043 38.3986 24.5791 39.0237C23.954 39.6488 23.1062 40 22.2221 40H17.7777C16.8936 40 16.0458 39.6488 15.4206 39.0237C14.7955 38.3986 14.4443 37.5507 14.4443 36.6667V16.6667ZM17.7777 15.5556C17.483 15.5556 17.2004 15.6726 16.992 15.881C16.7836 16.0894 16.6666 16.372 16.6666 16.6667V36.6667C16.6666 36.9614 16.7836 37.244 16.992 37.4523C17.2004 37.6607 17.483 37.7778 17.7777 37.7778H22.2221C22.5168 37.7778 22.7994 37.6607 23.0078 37.4523C23.2162 37.244 23.3332 36.9614 23.3332 36.6667V16.6667C23.3332 16.372 23.2162 16.0894 23.0078 15.881C22.7994 15.6726 22.5168 15.5556 22.2221 15.5556H17.7777Z" fill="#5E7AAA"/>
<path d="M0 29.9998C0 29.1158 0.35119 28.2679 0.976311 27.6428C1.60143 27.0177 2.44928 26.6665 3.33333 26.6665H7.77778C8.66183 26.6665 9.50968 27.0177 10.1348 27.6428C10.7599 28.2679 11.1111 29.1158 11.1111 29.9998V36.6665C11.1111 37.5506 10.7599 38.3984 10.1348 39.0235C9.50968 39.6486 8.66183 39.9998 7.77778 39.9998H3.33333C2.44928 39.9998 1.60143 39.6486 0.976311 39.0235C0.35119 38.3984 0 37.5506 0 36.6665V29.9998Z" fill="#5E7AAA"/>
</svg>
