<svg width="40" height="40" viewBox="0 0 40 40" fill="none" xmlns="http://www.w3.org/2000/svg">
<path d="M2.07288 11.0364H37.9272M6.55467 2.07283H33.4454C34.6341 2.07283 35.774 2.54502 36.6145 3.38552C37.455 4.22602 37.9272 5.36598 37.9272 6.55462V33.4454C37.9272 34.634 37.455 35.774 36.6145 36.6145C35.774 37.455 34.6341 37.9272 33.4454 37.9272H6.55467C5.36602 37.9272 4.22606 37.455 3.38556 36.6145C2.54506 35.774 2.07288 34.634 2.07288 33.4454V6.55462C2.07288 5.36598 2.54506 4.22602 3.38556 3.38552C4.22606 2.54502 5.36602 2.07283 6.55467 2.07283V2.07283Z" stroke="#5E7AAA" stroke-width="2" stroke-linecap="round" stroke-linejoin="round"/>
<path d="M19.9998 22.2407C21.2374 22.2407 22.2407 21.2374 22.2407 19.9998C22.2407 18.7621 21.2374 17.7589 19.9998 17.7589C18.7622 17.7589 17.7589 18.7621 17.7589 19.9998C17.7589 21.2374 18.7622 22.2407 19.9998 22.2407Z" fill="#5E7AAA"/>
<path d="M11.0364 22.2407C12.274 22.2407 13.2773 21.2374 13.2773 19.9998C13.2773 18.7621 12.274 17.7589 11.0364 17.7589C9.79882 17.7589 8.79553 18.7621 8.79553 19.9998C8.79553 21.2374 9.79882 22.2407 11.0364 22.2407Z" fill="#5E7AAA"/>
<path d="M28.9636 22.2407C30.2012 22.2407 31.2044 21.2374 31.2044 19.9998C31.2044 18.7621 30.2012 17.7589 28.9636 17.7589C27.7259 17.7589 26.7227 18.7621 26.7227 19.9998C26.7227 21.2374 27.7259 22.2407 28.9636 22.2407Z" fill="#5E7AAA"/>
<path d="M19.9998 31.204C21.2374 31.204 22.2407 30.2008 22.2407 28.9631C22.2407 27.7255 21.2374 26.7222 19.9998 26.7222C18.7622 26.7222 17.7589 27.7255 17.7589 28.9631C17.7589 30.2008 18.7622 31.204 19.9998 31.204Z" fill="#5E7AAA"/>
<path d="M11.0364 31.204C12.274 31.204 13.2773 30.2008 13.2773 28.9631C13.2773 27.7255 12.274 26.7222 11.0364 26.7222C9.79882 26.7222 8.79553 27.7255 8.79553 28.9631C8.79553 30.2008 9.79882 31.204 11.0364 31.204Z" fill="#5E7AAA"/>
<path d="M28.9637 31.204C30.2013 31.204 31.2046 30.2008 31.2046 28.9631C31.2046 27.7255 30.2013 26.7222 28.9637 26.7222C27.7261 26.7222 26.7228 27.7255 26.7228 28.9631C26.7228 30.2008 27.7261 31.204 28.9637 31.204Z" fill="#5E7AAA"/>
</svg>
