<svg width="40" height="32" viewBox="0 0 40 32" fill="none" xmlns="http://www.w3.org/2000/svg">
<path d="M37.5 30.7447C37.5 30.7447 40 30.7447 40 28.2447C40 25.7447 37.5 18.2447 27.5 18.2447C17.5 18.2447 15 25.7447 15 28.2447C15 30.7447 17.5 30.7447 17.5 30.7447H37.5ZM17.555 28.2447C17.5365 28.2421 17.5182 28.2388 17.5 28.2347C17.5025 27.5747 17.9175 25.6597 19.4 23.9347C20.78 22.3172 23.205 20.7447 27.5 20.7447C31.7925 20.7447 34.2175 22.3197 35.6 23.9347C37.0825 25.6597 37.495 27.5772 37.5 28.2347L37.48 28.2397C37.4684 28.2416 37.4567 28.2433 37.445 28.2447H17.555ZM27.5 13.2447C28.8261 13.2447 30.0979 12.7179 31.0355 11.7802C31.9732 10.8425 32.5 9.57076 32.5 8.24468C32.5 6.9186 31.9732 5.64683 31.0355 4.70915C30.0979 3.77147 28.8261 3.24468 27.5 3.24468C26.1739 3.24468 24.9021 3.77147 23.9645 4.70915C23.0268 5.64683 22.5 6.9186 22.5 8.24468C22.5 9.57076 23.0268 10.8425 23.9645 11.7802C24.9021 12.7179 26.1739 13.2447 27.5 13.2447ZM35 8.24468C35 9.2296 34.806 10.2049 34.4291 11.1148C34.0522 12.0247 33.4997 12.8515 32.8033 13.548C32.1069 14.2444 31.2801 14.7969 30.3701 15.1738C29.4602 15.5507 28.4849 15.7447 27.5 15.7447C26.5151 15.7447 25.5398 15.5507 24.6299 15.1738C23.7199 14.7969 22.8931 14.2444 22.1967 13.548C21.5003 12.8515 20.9478 12.0247 20.5709 11.1148C20.194 10.2049 20 9.2296 20 8.24468C20 6.25556 20.7902 4.3479 22.1967 2.94138C23.6032 1.53486 25.5109 0.744682 27.5 0.744682C29.4891 0.744682 31.3968 1.53486 32.8033 2.94138C34.2098 4.3479 35 6.25556 35 8.24468ZM17.34 18.9447C16.34 18.6298 15.3091 18.4228 14.265 18.3272C13.6783 18.2714 13.0893 18.2439 12.5 18.2447C2.5 18.2447 0 25.7447 0 28.2447C0 29.9122 0.8325 30.7447 2.5 30.7447H13.04C12.6694 29.9642 12.4846 29.1085 12.5 28.2447C12.5 25.7197 13.4425 23.1397 15.225 20.9847C15.8325 20.2497 16.54 19.5622 17.34 18.9447ZM12.3 20.7447C10.8204 22.9679 10.0211 25.5742 10 28.2447H2.5C2.5 27.5947 2.91 25.6697 4.4 23.9347C5.7625 22.3447 8.13 20.7947 12.3 20.7472V20.7447ZM3.75 9.49468C3.75 7.50556 4.54018 5.5979 5.9467 4.19138C7.35322 2.78486 9.26088 1.99468 11.25 1.99468C13.2391 1.99468 15.1468 2.78486 16.5533 4.19138C17.9598 5.5979 18.75 7.50556 18.75 9.49468C18.75 11.4838 17.9598 13.3915 16.5533 14.798C15.1468 16.2045 13.2391 16.9947 11.25 16.9947C9.26088 16.9947 7.35322 16.2045 5.9467 14.798C4.54018 13.3915 3.75 11.4838 3.75 9.49468ZM11.25 4.49468C9.92392 4.49468 8.65215 5.02147 7.71447 5.95915C6.77678 6.89683 6.25 8.1686 6.25 9.49468C6.25 10.8208 6.77678 12.0925 7.71447 13.0302C8.65215 13.9679 9.92392 14.4947 11.25 14.4947C12.5761 14.4947 13.8479 13.9679 14.7855 13.0302C15.7232 12.0925 16.25 10.8208 16.25 9.49468C16.25 8.1686 15.7232 6.89683 14.7855 5.95915C13.8479 5.02147 12.5761 4.49468 11.25 4.49468Z" fill="#5E7AAA"/>
</svg>
