<svg width="20" height="26" viewBox="0 0 20 26" fill="none" xmlns="http://www.w3.org/2000/svg">
<path d="M10 14.857C9.10104 14.857 8.22222 14.5847 7.47473 14.0745C6.72723 13.5644 6.14463 12.8393 5.80059 11.9909C5.45656 11.1425 5.36654 10.209 5.54193 9.30837C5.71732 8.40775 6.15023 7.58047 6.78592 6.93115C7.42162 6.28184 8.23154 5.83965 9.11327 5.6605C9.995 5.48136 10.9089 5.5733 11.7395 5.92471C12.5701 6.27611 13.28 6.8712 13.7794 7.63472C14.2789 8.39823 14.5455 9.29588 14.5455 10.2141C14.544 11.4451 14.0647 12.6251 13.2126 13.4955C12.3604 14.3659 11.2051 14.8555 10 14.857ZM10 7.42843C9.46064 7.42843 8.93335 7.59181 8.48485 7.89791C8.03635 8.20401 7.68679 8.63908 7.48037 9.1481C7.27395 9.65712 7.21994 10.2172 7.32518 10.7576C7.43041 11.298 7.69016 11.7944 8.07157 12.1839C8.45299 12.5735 8.93894 12.8388 9.46798 12.9463C9.99702 13.0538 10.5454 12.9987 11.0437 12.7878C11.5421 12.577 11.968 12.2199 12.2677 11.7618C12.5674 11.3037 12.7273 10.7651 12.7273 10.2141C12.7266 9.47556 12.439 8.76743 11.9277 8.24517C11.4164 7.7229 10.7231 7.42917 10 7.42843Z" fill="#5E7AAA"/>
<path d="M10 26L2.33092 16.7616C2.22435 16.6229 2.1189 16.4833 2.01455 16.3429C0.704538 14.5802 -0.00316471 12.4273 1.0639e-05 10.2143C1.0639e-05 7.50529 1.05358 4.90725 2.92894 2.9917C4.8043 1.07615 7.34784 0 10 0C12.6522 0 15.1957 1.07615 17.0711 2.9917C18.9464 4.90725 20 7.50529 20 10.2143C20.0032 12.4263 19.2958 14.5782 17.9864 16.3401L17.9854 16.3429C17.9854 16.3429 17.7127 16.7087 17.6718 16.7579L10 26ZM3.46546 15.2239C3.46728 15.2239 3.67819 15.5099 3.72637 15.5712L10 23.1289L16.2818 15.561C16.3218 15.5099 16.5345 15.2221 16.5354 15.2211C17.6056 13.781 18.1839 12.0222 18.1818 10.2143C18.1818 7.99783 17.3198 5.87216 15.7854 4.30489C14.251 2.73762 12.17 1.85714 10 1.85714C7.83005 1.85714 5.74897 2.73762 4.21459 4.30489C2.6802 5.87216 1.81819 7.99783 1.81819 10.2143C1.81628 12.0234 2.39526 13.7832 3.46637 15.2239H3.46546Z" fill="#5E7AAA"/>
</svg>
