<svg width="50" height="40" viewBox="0 0 50 40" fill="none" xmlns="http://www.w3.org/2000/svg">
<path d="M43.0469 0.3125H0.390625V33.125H43.0469V0.3125ZM39.7656 29.8438H3.67188V3.59375H39.7656V29.8438Z" fill="#5E7AAA"/>
<path d="M46.3281 8.51562V36.4062H8.59375V39.6875H49.6094V8.51562H46.3281Z" fill="#5E7AAA"/>
<path d="M21.7188 24.764C25.7896 24.764 29.1016 21.161 29.1016 16.7325C29.1016 12.3039 25.7896 8.70102 21.7188 8.70102C17.6479 8.70102 14.3359 12.3038 14.3359 16.7325C14.3359 21.1612 17.6479 24.764 21.7188 24.764ZM21.7188 11.9823C23.9804 11.9823 25.8203 14.1132 25.8203 16.7325C25.8203 19.3517 23.9804 21.4827 21.7188 21.4827C19.4571 21.4827 17.6172 19.3517 17.6172 16.7325C17.6172 14.1132 19.4571 11.9823 21.7188 11.9823ZM6.95312 7.69531H10.2344V25.7422H6.95312V7.69531ZM33.2031 7.69531H36.4844V25.7422H33.2031V7.69531Z" fill="#5E7AAA"/>
</svg>
