<svg width="46" height="50" viewBox="0 0 46 50" fill="none" xmlns="http://www.w3.org/2000/svg">
<path d="M45 41.9734V26.5276C44.9997 26.236 44.9262 25.9491 44.7861 25.6934C44.6634 25.4899 44.4794 25.3305 44.2605 25.2381C44.0312 25.1416 43.7895 25.0778 43.5425 25.0487C43.282 25.0162 43.0197 24.9999 42.7572 24.9998H41.9444V10.0795C42.0391 9.87174 42.1766 9.62729 42.3508 9.34007C42.525 9.05285 42.693 8.73507 42.8519 8.38674C43.0108 8.03535 43.1544 7.7084 43.2797 7.40896C43.3908 7.17605 43.4561 6.924 43.4722 6.66646C43.427 6.33536 43.3555 6.00839 43.2583 5.68868C43.1159 5.18114 42.9559 4.6787 42.7786 4.18229C42.5982 3.67197 42.4149 3.16271 42.2286 2.65451C42.099 2.30912 41.9808 1.95958 41.8741 1.60646C41.7576 1.30324 41.5586 1.03865 41.2997 0.84257C41.0454 0.651473 40.7347 0.550424 40.4166 0.555348H34.3055C33.9791 0.568836 33.6638 0.67714 33.398 0.867014C33.1368 1.04468 32.943 1.30517 32.848 1.60646C32.7266 1.96603 32.5993 2.32358 32.4661 2.67896C32.2821 3.18482 32.1079 3.69418 31.9436 4.20674C31.7663 4.74757 31.6075 5.24868 31.4638 5.71313C31.3202 6.17146 31.25 6.49229 31.25 6.66646C31.25 6.88951 31.3111 7.14313 31.4424 7.43035C31.5677 7.71757 31.7175 8.03535 31.8947 8.38674C32.1788 8.95627 32.4732 9.52062 32.7777 10.0795V24.9998H31.965C31.6943 24.9984 31.4238 25.0147 31.1552 25.0487C30.9054 25.0784 30.6625 25.1507 30.4372 25.2626C30.2263 25.3647 30.046 25.5207 29.9147 25.7148C29.7726 25.9611 29.7057 26.2437 29.7222 26.5276V41.9734C29.7222 43.0062 29.93 43.9778 30.3425 44.8853C30.758 45.7929 31.3141 46.5873 32.0138 47.2717C33.4419 48.6698 35.3626 49.4502 37.3611 49.4442C38.3786 49.4442 39.3502 49.2456 40.273 48.8484C41.174 48.4646 41.9988 47.9223 42.7083 47.2473C43.4137 46.5762 43.9815 45.7739 44.3797 44.8853C44.7948 43.971 45.0064 42.9775 45 41.9734ZM38.8888 24.9998H35.8333V9.72202C35.8328 9.48079 35.7752 9.2431 35.6652 9.0284L34.4247 6.54729L35.4025 3.6109H39.3197L40.2975 6.54424L39.0569 9.0284C38.9469 9.2431 38.8893 9.48079 38.8888 9.72202V24.9998ZM32.7777 31.1109V28.0553H41.9444V31.1109H32.7777ZM41.9444 34.1665V41.8054C41.9589 42.4134 41.8367 43.0169 41.5869 43.5715C41.3474 44.1232 41.0076 44.6257 40.5847 45.0534C39.7276 45.9053 38.5694 46.385 37.3611 46.3887C36.7529 46.4041 36.1492 46.2819 35.595 46.0312C34.762 45.6816 34.0506 45.0944 33.5495 44.3428C33.0485 43.5912 32.78 42.7086 32.7777 41.8054V34.1665H41.9444ZM11.3888 2.21146C11.3892 1.96097 11.3279 1.71424 11.2105 1.49299C11.093 1.27174 10.923 1.08277 10.7153 0.942711C10.5076 0.802652 10.2687 0.715805 10.0196 0.689816C9.77043 0.663828 9.51872 0.699497 9.28662 0.793681C6.82936 1.78757 4.71167 3.47038 3.18837 5.63959C1.66508 7.8088 0.801084 10.372 0.700365 13.0207C0.599645 15.6695 1.26649 18.2909 2.62065 20.5695C3.97482 22.8481 5.9586 24.6869 8.33328 25.8645V43.3331C8.33328 44.9539 8.97713 46.5083 10.1232 47.6543C11.2692 48.8004 12.8236 49.4442 14.4444 49.4442C16.0652 49.4442 17.6195 48.8004 18.7656 47.6543C19.9117 46.5083 20.5555 44.9539 20.5555 43.3331V25.8676C22.9313 24.6909 24.9162 22.8524 26.2712 20.5736C27.6262 18.2948 28.2936 15.6729 28.1928 13.0236C28.0921 10.3743 27.2276 7.81064 25.7034 5.64133C24.1793 3.47203 22.0604 1.78962 19.6022 0.796736C19.3701 0.702552 19.1184 0.666884 18.8692 0.692872C18.6201 0.71886 18.3812 0.805707 18.1735 0.945767C17.9658 1.08583 17.7958 1.2748 17.6783 1.49605C17.5609 1.71729 17.4996 1.96402 17.5 2.21451V12.7776C17.5 13.588 17.178 14.3651 16.605 14.9382C16.032 15.5112 15.2548 15.8331 14.4444 15.8331C13.634 15.8331 12.8568 15.5112 12.2838 14.9382C11.7108 14.3651 11.3888 13.588 11.3888 12.7776V2.21146ZM3.74995 13.5476C3.74995 9.91146 5.56189 6.70313 8.33328 4.7659V12.7715C8.33328 14.3922 8.97713 15.9466 10.1232 17.0927C11.2692 18.2387 12.8236 18.8826 14.4444 18.8826C16.0652 18.8826 17.6195 18.2387 18.7656 17.0927C19.9117 15.9466 20.5555 14.3922 20.5555 12.7715V4.7659C22.1374 5.86722 23.3924 7.37549 24.1877 9.13128C24.9831 10.8871 25.2893 12.8251 25.0739 14.7406C24.8585 16.6561 24.1296 18.4777 22.9642 20.0131C21.7988 21.5484 20.2403 22.7403 18.4533 23.4628C18.1717 23.5771 17.9306 23.7727 17.7608 24.0248C17.5909 24.2768 17.5001 24.5737 17.5 24.8776V43.3331C17.5 44.1435 17.178 44.9207 16.605 45.4937C16.032 46.0668 15.2548 46.3887 14.4444 46.3887C13.634 46.3887 12.8568 46.0668 12.2838 45.4937C11.7108 44.9207 11.3888 44.1435 11.3888 43.3331V24.8776C11.3887 24.5737 11.2978 24.2768 11.128 24.0248C10.9582 23.7727 10.7171 23.5771 10.4355 23.4628C8.45947 22.6634 6.76732 21.2919 5.57612 19.5241C4.38493 17.7564 3.74901 15.6731 3.74995 13.5415V13.5476Z" fill="#5E7AAA"/>
</svg>
