<svg width="15" height="15" viewBox="0 0 15 15" fill="none" xmlns="http://www.w3.org/2000/svg">
<path d="M14.5 7.39286C14.5 11.1929 11.3728 14.2857 7.5 14.2857C3.6272 14.2857 0.5 11.1929 0.5 7.39286C0.5 3.5928 3.6272 0.5 7.5 0.5C11.3728 0.5 14.5 3.5928 14.5 7.39286Z" stroke="black"/>
<path fill-rule="evenodd" clip-rule="evenodd" d="M5.72231 4.32778C5.92236 4.12772 6.24672 4.12772 6.44678 4.32778L9.17892 7.05992C9.37898 7.25998 9.37898 7.58433 9.17892 7.78439L6.44678 10.5165C6.24672 10.7166 5.92236 10.7166 5.72231 10.5165C5.52225 10.3165 5.52225 9.99212 5.72231 9.79206L8.09222 7.42215L5.72231 5.05225C5.52225 4.85219 5.52225 4.52783 5.72231 4.32778Z" fill="black"/>
</svg>
