<svg width="27" height="28" fill="none" xmlns="http://www.w3.org/2000/svg"><path fill-rule="evenodd" clip-rule="evenodd" d="M1.79 13.972l2.508-7.286a.862.862 0 01.044-.106c.419-.835 1.171-1.476 1.973-1.902.809-.429 1.747-.684 2.632-.684 1.267 0 2.526.522 3.471 1.35.303.265.581.568.818.903.238-.335.516-.638.819-.904.945-.827 2.204-1.349 3.471-1.349.885 0 1.823.255 2.632.684.802.426 1.554 1.067 1.973 1.902.017.034.032.07.044.106l2.508 7.286c.265.677.411 1.417.411 2.192 0 3.248-2.565 5.88-5.73 5.88-2.883 0-5.269-2.186-5.67-5.031h-.915c-.401 2.845-2.787 5.031-5.67 5.031-3.164 0-5.729-2.63-5.73-5.877m3.234-5.298l1.224-3.558c.222-.41.655-.815 1.239-1.124.598-.318 1.278-.495 1.87-.495.84 0 1.726.355 2.399.943.671.588 1.064 1.346 1.064 2.122v5.17c-.857-2.138-2.908-3.644-5.3-3.644-.895 0-1.742.21-2.496.586zm6.488 4.452c.054.272.083.554.083.843 0 2.31-1.825 4.182-4.075 4.182-2.251 0-4.076-1.872-4.076-4.182 0-1.726 1.019-3.207 2.472-3.846l.092-.04a3.974 3.974 0 011.512-.296c1.406 0 2.646.73 3.379 1.843.293.445.504.952.613 1.496zm2.963-1.394c.214-.534.503-1.03.853-1.471 1.05-1.326 2.653-2.173 4.447-2.173h.075a5.59 5.59 0 012.421.586l-1.224-3.558c-.222-.41-.655-.815-1.239-1.124-.598-.318-1.278-.495-1.871-.495-.84 0-1.725.355-2.398.943-.671.588-1.064 1.346-1.064 2.122v5.17zm1.225 2.237c0 2.31 1.825 4.182 4.075 4.182s4.074-1.87 4.075-4.18v-.002a4.488 4.488 0 00-.006-.229c-.086-1.648-1.102-3.042-2.52-3.64a3.973 3.973 0 00-1.549-.313c-1.406 0-2.646.731-3.379 1.844a4.24 4.24 0 00-.696 2.338z" fill="#fff"/><path d="M1.79 13.972a6 6 0 00-.411 2.192" fill="#fff"/></svg>