<svg width="39" height="49" fill="none" xmlns="http://www.w3.org/2000/svg"><mask id="a" fill="#fff"><path d="M34.312 31.013H4.686a.63.63 0 01-.631-.629V13.316a.63.63 0 01.631-.629h29.626a.63.63 0 01.631.63v17.067a.63.63 0 01-.631.629zM5.318 29.756h28.356V13.945H5.318v15.81z"/></mask><path d="M34.312 31.013H4.686a.63.63 0 01-.631-.629V13.316a.63.63 0 01.631-.629h29.626a.63.63 0 01.631.63v17.067a.63.63 0 01-.631.629zM5.318 29.756h28.356V13.945H5.318v15.81z" fill="#606060"/><path d="M5.318 29.756h-2v2h2v-2zm28.356 0v2h2v-2h-2zm0-15.811h2v-2h-2v2zm-28.356 0v-2h-2v2h2zm28.994 15.068H4.686v4h29.626v-4zm-29.626 0a1.37 1.37 0 011.369 1.371h-4a2.63 2.63 0 002.631 2.629v-4zm1.369 1.371V13.316h-4v17.068h4zm0-17.068a1.37 1.37 0 01-1.369 1.371v-4a2.63 2.63 0 00-2.631 2.63h4zm-1.369 1.371h29.626v-4H4.686v4zm29.626 0a1.37 1.37 0 01-1.369-1.37h4a2.63 2.63 0 00-2.631-2.63v4zm-1.369-1.37v17.067h4V13.316h-4zm0 17.067a1.37 1.37 0 011.369-1.371v4a2.63 2.63 0 002.631-2.629h-4zM5.318 31.756h28.356v-4H5.318v4zm30.356-2V13.945h-4v15.81h4zm-2-17.811H5.318v4h28.356v-4zm-30.356 2v15.81h4v-15.81h-4z" fill="#606060" mask="url(#a)"/><mask id="b" fill="#fff"><path d="M31.715 7.737H7.284a.63.63 0 01-.632-.628V.629A.63.63 0 017.284 0h24.43a.63.63 0 01.632.629v6.473c0 .35-.28.635-.631.635zm-23.8-1.264h23.162v-5.21H7.915v5.21z"/></mask><path d="M31.715 7.737H7.284a.63.63 0 01-.632-.628V.629A.63.63 0 017.284 0h24.43a.63.63 0 01.632.629v6.473c0 .35-.28.635-.631.635zm-23.8-1.264h23.162v-5.21H7.915v5.21z" fill="#606060"/><path d="M7.915 6.473h-2v2h2v-2zm23.162 0v2h2v-2h-2zm0-5.21h2v-2h-2v2zm-23.162 0v-2h-2v2h2zm23.8 4.474H7.284v4h24.43v-4zm-24.431 0A1.37 1.37 0 018.652 7.11h-4a2.63 2.63 0 002.632 2.628v-4zM8.652 7.11V.629h-4v6.48h4zm0-6.48A1.37 1.37 0 017.284 2v-4A2.63 2.63 0 004.652.629h4zM7.284 2h24.43v-4H7.285v4zm24.43 0A1.37 1.37 0 0130.347.629h4A2.63 2.63 0 0031.715-2v4zM30.347.629v6.473h4V.629h-4zm0 6.473c0-.736.597-1.365 1.369-1.365v4a2.632 2.632 0 002.63-2.635h-4zM7.916 8.473h23.16v-4H7.917v4zm25.16-2v-5.21h-4v5.21h4zm-2-7.21H7.917v4h23.16v-4zm-25.16 2v5.21h4v-5.21h-4z" fill="#606060" mask="url(#b)"/><mask id="c" fill="#fff"><path d="M34.313 13.945H4.687a.64.64 0 01-.508-.253L1.85 10.55a.638.638 0 01-.059-.66.631.631 0 01.567-.344h34.286c.24 0 .456.136.566.343a.624.624 0 01-.058.661l-2.33 3.143a.621.621 0 01-.508.253zM5.006 12.688h28.981l1.4-1.886H3.613l1.393 1.886z"/></mask><path d="M34.313 13.945H4.687a.64.64 0 01-.508-.253L1.85 10.55a.638.638 0 01-.059-.66.631.631 0 01.567-.344h34.286c.24 0 .456.136.566.343a.624.624 0 01-.058.661l-2.33 3.143a.621.621 0 01-.508.253zM5.006 12.688h28.981l1.4-1.886H3.613l1.393 1.886z" fill="#606060"/><path d="M4.18 13.692l-1.607 1.191.004.007.005.006 1.597-1.204zM1.848 10.55l-1.61 1.187.003.005 1.607-1.192zm-.059-.66L.013 8.97l-.011.022-.01.022 1.797.875zm35.42 0l1.776-.92-.006-.011-.006-.011-1.765.941zm-.06.66l1.607 1.192.004-.005-1.61-1.187zm-2.33 3.143l-1.606-1.191-.007.01-.007.009 1.62 1.172zM5.006 12.688l-1.608 1.188.6.812h1.008v-2zm28.981 0v2h1.006l.6-.808-1.606-1.192zm1.4-1.886l1.606 1.192 2.369-3.192h-3.975v2zm-31.774 0v-2H-.35l2.355 3.188 1.61-1.188zm30.7 1.143H4.687v4h29.626v-4zm-29.626 0c.435 0 .834.205 1.09.544l-3.195 2.407a2.64 2.64 0 002.105 1.049v-4zm1.099.556l-2.33-3.143-3.214 2.383 2.33 3.142 3.214-2.382zM3.459 9.363c.308.418.343.962.13 1.401L-.009 9.013a2.638 2.638 0 00.247 2.723l3.22-2.373zm.108 1.445a1.37 1.37 0 01-1.21.737v-4A2.63 2.63 0 00.014 8.969l3.553 1.839zm-1.21.737h34.286v-4H2.357v4zm34.286 0c-.53 0-.976-.3-1.198-.715l3.529-1.883a2.643 2.643 0 00-2.33-1.402v4zm-1.21-.737a1.376 1.376 0 01.108-1.445l3.22 2.373c.57-.773.705-1.84.225-2.767l-3.553 1.839zm.111-1.45l-2.33 3.143 3.213 2.382 2.33-3.142-3.213-2.383zM33.2 12.52a1.38 1.38 0 011.113-.575v4c.8 0 1.61-.365 2.128-1.08L33.2 12.52zM5.006 14.688h28.981v-4H5.007v4zm30.587-.808l1.4-1.886L33.78 9.61l-1.4 1.886 3.212 2.384zm-.206-5.078H3.613v4h31.774v-4zM2.004 11.99l1.394 1.886L6.615 11.5 5.222 9.614 2.004 11.99z" fill="#606060" mask="url(#c)"/><mask id="d" fill="#fff"><path d="M36.644 29.756H2.357v1.264h34.287v-1.264z"/></mask><path d="M36.644 29.756H2.357v1.264h34.287v-1.264z" fill="#606060"/><path d="M2.357 29.756v-2h-2v2h2zm34.287 0h2v-2h-2v2zm0 1.264v2h2v-2h-2zm-34.287 0h-2v2h2v-2zm0 .736h34.287v-4H2.357v4zm32.287-2v1.264h4v-1.264h-4zm2-.736H2.357v4h34.287v-4zm-32.287 2v-1.264h-4v1.264h4z" fill="#606060" mask="url(#d)"/><mask id="e" fill="#fff"><path d="M38.36 46.817H.63v1.264h37.73v-1.264z"/></mask><path d="M38.36 46.817H.63v1.264h37.73v-1.264z" fill="#606060"/><path d="M.63 46.817v-2h-2v2h2zm37.73 0h2v-2h-2v2zm0 1.264v2h2v-2h-2zm-37.73 0h-2v2h2v-2zm0 .736h37.73v-4H.63v4zm35.73-2v1.264h4v-1.264h-4zm2-.736H.63v4h37.73v-4zm-35.73 2v-1.264h-4v1.264h4z" fill="#606060" mask="url(#e)"/><mask id="f" fill="#fff"><path d="M28.076 35.14H10.93v1.264h17.146v-1.263z"/></mask><path d="M28.076 35.14H10.93v1.264h17.146v-1.263z" fill="#606060"/><path d="M10.93 35.14v-2h-2v2h2zm17.146 0h2v-2h-2v2zm0 1.264v2h2v-2h-2zm-17.146 0h-2v2h2v-2zm0 .737h17.146v-4H10.93v4zm15.146-2v1.263h4v-1.263h-4zm2-.737H10.93v4h17.146v-4zm-15.146 2v-1.263h-4v1.263h4z" fill="#606060" mask="url(#f)"/><mask id="g" fill="#fff"><path d="M38.745 9.545H.255v1.264h38.492V9.545z"/></mask><path d="M38.745 9.545H.255v1.264h38.492V9.545z" fill="#606060"/><path d="M.254 9.545v-2h-2v2h2zm38.492 0h2v-2h-2v2zm0 1.264v2h2v-2h-2zm-38.492 0h-2v2h2v-2zm0 .736h38.492v-4H.254v4zm36.492-2v1.264h4V9.545h-4zm2-.736H.254v4h38.492v-4zm-36.492 2V9.545h-4v1.264h4z" fill="#606060" mask="url(#g)"/><mask id="h" fill="#fff"><path d="M26.435 48.081H12.563a.63.63 0 01-.631-.628V35.769a.63.63 0 01.631-.628h13.872a.63.63 0 01.632.628v11.677c0 .35-.28.635-.632.635zm-13.24-1.264h12.609V36.404h-12.61v10.413z"/></mask><path d="M26.435 48.081H12.563a.63.63 0 01-.631-.628V35.769a.63.63 0 01.631-.628h13.872a.63.63 0 01.632.628v11.677c0 .35-.28.635-.632.635zm-13.24-1.264h12.609V36.404h-12.61v10.413z" fill="#606060"/><path d="M13.194 46.818h-2v2h2v-2zm12.61 0v2h2v-2h-2zm0-10.414h2v-2h-2v2zm-12.61 0v-2h-2v2h2zm13.241 9.677H12.563v4h13.872v-4zm-13.872 0a1.37 1.37 0 011.369 1.372h-4a2.63 2.63 0 002.631 2.628v-4zm1.369 1.372V35.769h-4v11.684h4zm0-11.684a1.37 1.37 0 01-1.369 1.372v-4a2.63 2.63 0 00-2.631 2.628h4zm-1.369 1.372h13.872v-4H12.563v4zm13.872 0a1.37 1.37 0 01-1.368-1.372h4a2.63 2.63 0 00-2.632-2.628v4zm-1.368-1.372v11.677h4V35.77h-4zm0 11.677c0-.736.597-1.365 1.368-1.365v4a2.632 2.632 0 002.632-2.635h-4zm-11.873 1.372h12.61v-4h-12.61v4zm14.61-2V36.404h-4v10.413h4zm-2-12.414h-12.61v4h12.61v-4zm-14.61 2v10.413h4V36.404h-4z" fill="#606060" mask="url(#h)"/><mask id="i" fill="#fff"><path d="M13.332 26.373H8.294a.63.63 0 01-.632-.629v-6.888a.63.63 0 01.632-.629h5.038a.63.63 0 01.631.63v6.887a.635.635 0 01-.631.629zm-4.407-1.264h3.77v-5.624h-3.77v5.624z"/></mask><path d="M13.332 26.373H8.294a.63.63 0 01-.632-.629v-6.888a.63.63 0 01.632-.629h5.038a.63.63 0 01.631.63v6.887a.635.635 0 01-.631.629zm-4.407-1.264h3.77v-5.624h-3.77v5.624z" fill="#606060"/><path d="M8.925 25.11h-2v2h2v-2zm3.77 0v2h2v-2h-2zm0-5.625h2v-2h-2v2zm-3.77 0v-2h-2v2h2zm4.407 4.888H8.294v4h5.038v-4zm-5.038 0a1.37 1.37 0 011.368 1.371h-4a2.63 2.63 0 002.632 2.629v-4zm1.368 1.371v-6.888h-4v6.888h4zm0-6.888a1.37 1.37 0 01-1.368 1.371v-4a2.63 2.63 0 00-2.632 2.63h4zm-1.368 1.371h5.038v-4H8.294v4zm5.038 0a1.37 1.37 0 01-1.369-1.37h4a2.63 2.63 0 00-2.631-2.63v4zm-1.369-1.37v6.887h4v-6.888h-4zm0 6.887c0-.77.618-1.371 1.369-1.371v4a2.635 2.635 0 002.631-2.629h-4zM8.925 27.11h3.77v-4h-3.77v4zm5.77-2v-5.624h-4v5.624h4zm-2-7.624h-3.77v4h3.77v-4zm-5.77 2v5.624h4v-5.624h-4z" fill="#606060" mask="url(#i)"/><mask id="j" fill="#fff"><path d="M22.016 26.373h-5.039a.63.63 0 01-.631-.629v-6.888c0-.35.28-.629.631-.629h5.039a.63.63 0 01.631.63v6.887a.626.626 0 01-.631.629zm-4.4-1.264h3.768v-5.624h-3.769v5.624z"/></mask><path d="M22.016 26.373h-5.039a.63.63 0 01-.631-.629v-6.888c0-.35.28-.629.631-.629h5.039a.63.63 0 01.631.63v6.887a.626.626 0 01-.631.629zm-4.4-1.264h3.768v-5.624h-3.769v5.624z" fill="#606060"/><path d="M22.647 25.744h-2v.038l2-.038zm-1.263-.635v2h2v-2h-2zm0-5.624h2v-2h-2v2zm-3.769 0v-2h-2v2h2zm4.4 4.888h-5.038v4h5.039v-4zm-5.038 0a1.37 1.37 0 011.369 1.371h-4a2.63 2.63 0 002.631 2.629v-4zm1.369 1.371v-6.888h-4v6.888h4zm0-6.888c0 .763-.624 1.371-1.369 1.371v-4a2.626 2.626 0 00-2.631 2.63h4zm-1.369 1.371h5.039v-4h-5.039v4zm5.039 0a1.37 1.37 0 01-1.369-1.37h4a2.63 2.63 0 00-2.631-2.63v4zm-1.369-1.37v6.887h4v-6.888h-4zm0 6.925a1.374 1.374 0 011.369-1.41v4c1.426 0 2.66-1.158 2.63-2.666l-3.999.076zm-3.032 1.327h3.77v-4h-3.77v4zm5.77-2v-5.624h-4v5.624h4zm-2-7.624h-3.77v4h3.77v-4zm-5.77 2v5.624h4v-5.624h-4z" fill="#606060" mask="url(#j)"/><mask id="k" fill="#fff"><path d="M30.707 26.373h-5.038a.63.63 0 01-.632-.629v-6.888a.63.63 0 01.632-.629h5.038a.63.63 0 01.631.63v6.887a.63.63 0 01-.631.629zM26.3 25.109h3.77v-5.624H26.3v5.624z"/></mask><path d="M30.707 26.373h-5.038a.63.63 0 01-.632-.629v-6.888a.63.63 0 01.632-.629h5.038a.63.63 0 01.631.63v6.887a.63.63 0 01-.631.629zM26.3 25.109h3.77v-5.624H26.3v5.624z" fill="#606060"/><path d="M26.3 25.11h-2v2h2v-2zm3.77 0v2h2v-2h-2zm0-5.625h2v-2h-2v2zm-3.77 0v-2h-2v2h2zm4.407 4.888h-5.038v4h5.038v-4zm-5.038 0a1.37 1.37 0 011.368 1.371h-4a2.63 2.63 0 002.632 2.629v-4zm1.368 1.371v-6.888h-4v6.888h4zm0-6.888a1.37 1.37 0 01-1.368 1.371v-4a2.63 2.63 0 00-2.632 2.63h4zm-1.368 1.371h5.038v-4h-5.038v4zm5.038 0a1.37 1.37 0 01-1.369-1.37h4a2.63 2.63 0 00-2.631-2.63v4zm-1.369-1.37v6.887h4v-6.888h-4zm0 6.887a1.37 1.37 0 011.369-1.371v4a2.63 2.63 0 002.632-2.629h-4zM26.3 27.11h3.77v-4H26.3v4zm5.77-2v-5.624h-4v5.624h4zm-2-7.624H26.3v4h3.77v-4zm-5.77 2v5.624h4v-5.624h-4z" fill="#606060" mask="url(#k)"/><mask id="l" fill="#fff"><path d="M34.314 43.286c-2.584 0-4.687-2.093-4.687-4.665 0-2.573 2.103-4.666 4.687-4.666S39 36.048 39 38.621c0 2.572-2.103 4.665-4.687 4.665zm0-8.074a3.42 3.42 0 00-3.424 3.409c0 1.879 1.536 3.408 3.424 3.408s3.424-1.53 3.424-3.408a3.429 3.429 0 00-3.424-3.409z"/></mask><path d="M34.314 43.286c-2.584 0-4.687-2.093-4.687-4.665 0-2.573 2.103-4.666 4.687-4.666S39 36.048 39 38.621c0 2.572-2.103 4.665-4.687 4.665zm0-8.074a3.42 3.42 0 00-3.424 3.409c0 1.879 1.536 3.408 3.424 3.408s3.424-1.53 3.424-3.408a3.429 3.429 0 00-3.424-3.409z" fill="#606060"/><path d="M39 38.62h2-2zm-1.262 0h2v-.006l-2 .007zm-3.424 2.666c-1.489 0-2.687-1.206-2.687-2.665h-4c0 3.685 3.007 6.665 6.687 6.665v-4zm-2.687-2.665a2.681 2.681 0 012.687-2.666v-4c-3.68 0-6.687 2.98-6.687 6.666h4zm2.687-2.666c1.488 0 2.687 1.206 2.687 2.666h4c0-3.686-3.007-6.666-6.687-6.666v4zM37 38.621c0 1.459-1.199 2.665-2.687 2.665v4c3.68 0 6.687-2.98 6.687-6.665h-4zm-2.687-5.409c-2.984 0-5.424 2.416-5.424 5.409h4a1.42 1.42 0 011.424-1.409v-4zm-5.424 5.409c0 2.992 2.44 5.408 5.424 5.408v-4a1.42 1.42 0 01-1.424-1.408h-4zm5.424 5.408c2.984 0 5.424-2.416 5.424-5.408h-4a1.42 1.42 0 01-1.424 1.408v4zm5.424-5.415a5.429 5.429 0 00-5.424-5.402v4c.781 0 1.421.64 1.424 1.416l4-.014z" fill="#606060" mask="url(#l)"/><mask id="m" fill="#fff"><path d="M11.56 7.102h-1.269v3.071h1.27V7.102z"/></mask><path d="M11.56 7.102h-1.269v3.071h1.27V7.102z" fill="#606060"/><path d="M10.291 7.102v-2h-2v2h2zm1.27 0h2v-2h-2v2zm0 3.071v2h2v-2h-2zm-1.27 0h-2v2h2v-2zm0-1.071h1.27v-4h-1.27v4zm-.73-2v3.071h4V7.102h-4zm2 1.071h-1.27v4h1.27v-4zm.73 2V7.102h-4v3.071h4z" fill="#606060" mask="url(#m)"/><mask id="n" fill="#fff"><path d="M28.707 7.102h-1.27v3.071h1.27V7.102z"/></mask><path d="M28.707 7.102h-1.27v3.071h1.27V7.102z" fill="#606060"/><path d="M27.438 7.102v-2h-2v2h2zm1.269 0h2v-2h-2v2zm0 3.071v2h2v-2h-2zm-1.27 0h-2v2h2v-2zm0-1.071h1.27v-4h-1.27v4zm-.73-2v3.071h4V7.102h-4zm2 1.071h-1.27v4h1.27v-4zm.73 2V7.102h-4v3.071h4z" fill="#606060" mask="url(#n)"/><mask id="o" fill="#fff"><path d="M20.135 35.77h-1.27V47h1.27V35.77z"/></mask><path d="M20.135 35.77h-1.27V47h1.27V35.77z" fill="#606060"/><path d="M18.865 35.77v-2h-2v2h2zm1.27 0h2v-2h-2v2zm0 11.23v2h2v-2h-2zm-1.27 0h-2v2h2v-2zm0-9.23h1.27v-4h-1.27v4zm-.73-2V47h4V35.77h-4zm2 9.23h-1.27v4h1.27v-4zm.73 2V35.77h-4V47h4z" fill="#606060" mask="url(#o)"/><mask id="p" fill="#fff"><path d="M4.687 43.286C2.103 43.286 0 41.193 0 38.621c0-2.573 2.103-4.666 4.687-4.666s4.687 2.093 4.687 4.666c0 2.572-2.103 4.665-4.687 4.665zm0-8.074a3.42 3.42 0 00-3.424 3.409c0 1.879 1.536 3.408 3.424 3.408s3.424-1.53 3.424-3.408a3.42 3.42 0 00-3.424-3.409z"/></mask><path d="M4.687 43.286C2.103 43.286 0 41.193 0 38.621c0-2.573 2.103-4.666 4.687-4.666s4.687 2.093 4.687 4.666c0 2.572-2.103 4.665-4.687 4.665zm0-8.074a3.42 3.42 0 00-3.424 3.409c0 1.879 1.536 3.408 3.424 3.408s3.424-1.53 3.424-3.408a3.42 3.42 0 00-3.424-3.409z" fill="#606060"/><path d="M4.687 41.286C3.199 41.286 2 40.08 2 38.621h-4c0 3.685 3.007 6.665 6.687 6.665v-4zM2 38.621c0-1.46 1.199-2.666 2.687-2.666v-4c-3.68 0-6.687 2.98-6.687 6.666h4zm2.687-2.666c1.488 0 2.687 1.206 2.687 2.666h4c0-3.686-3.007-6.666-6.687-6.666v4zm2.687 2.666c0 1.459-1.199 2.665-2.687 2.665v4c3.68 0 6.687-2.98 6.687-6.665h-4zm-2.687-5.409c-2.984 0-5.424 2.416-5.424 5.409h4a1.42 1.42 0 011.424-1.409v-4zm-5.424 5.409c0 2.992 2.44 5.408 5.424 5.408v-4a1.42 1.42 0 01-1.424-1.408h-4zm5.424 5.408c2.984 0 5.424-2.416 5.424-5.408h-4a1.42 1.42 0 01-1.424 1.408v4zm5.424-5.408c0-2.993-2.44-5.409-5.424-5.409v4a1.42 1.42 0 011.424 1.409h4z" fill="#606060" mask="url(#p)"/><mask id="q" fill="#fff"><path d="M34.312 48.081H4.686a.63.63 0 01-.631-.628v-4.796a.63.63 0 01.631-.628A3.42 3.42 0 008.11 38.62c0-1.879-1.536-3.408-3.424-3.408a.63.63 0 01-.631-.629v-4.199a.63.63 0 01.631-.628h29.626a.63.63 0 01.631.628v4.2a.63.63 0 01-.631.628 3.42 3.42 0 00-3.424 3.408 3.42 3.42 0 003.424 3.409.63.63 0 01.631.628v4.796a.635.635 0 01-.631.628zM5.318 46.818h28.356V43.24c-2.285-.311-4.056-2.268-4.056-4.627s1.77-4.316 4.056-4.627v-2.98H5.318v2.98c2.284.311 4.055 2.268 4.055 4.627s-1.77 4.316-4.055 4.627v3.577z"/></mask><path d="M34.312 48.081H4.686a.63.63 0 01-.631-.628v-4.796a.63.63 0 01.631-.628A3.42 3.42 0 008.11 38.62c0-1.879-1.536-3.408-3.424-3.408a.63.63 0 01-.631-.629v-4.199a.63.63 0 01.631-.628h29.626a.63.63 0 01.631.628v4.2a.63.63 0 01-.631.628 3.42 3.42 0 00-3.424 3.408 3.42 3.42 0 003.424 3.409.63.63 0 01.631.628v4.796a.635.635 0 01-.631.628zM5.318 46.818h28.356V43.24c-2.285-.311-4.056-2.268-4.056-4.627s1.77-4.316 4.056-4.627v-2.98H5.318v2.98c2.284.311 4.055 2.268 4.055 4.627s-1.77 4.316-4.055 4.627v3.577z" fill="#606060"/><path d="M5.318 46.818h-2v2h2v-2zm28.356 0v2h2v-2h-2zm0-3.577h2v-1.746l-1.73-.236-.27 1.982zm0-9.254l.27 1.982 1.73-.236v-1.746h-2zm0-2.98h2v-2h-2v2zm-28.356 0v-2h-2v2h2zm0 2.98h-2v1.746l1.73.236.27-1.982zm0 9.254l-.27-1.982-1.73.236v1.746h2zm28.994 2.84H4.686v4h29.626v-4zm-29.626 0a1.37 1.37 0 011.369 1.372h-4a2.63 2.63 0 002.631 2.628v-4zm1.369 1.372v-4.796h-4v4.796h4zm0-4.796a1.37 1.37 0 01-1.369 1.372v-4a2.63 2.63 0 00-2.631 2.628h4zM4.686 44.03c2.984 0 5.424-2.416 5.424-5.409h-4a1.42 1.42 0 01-1.424 1.409v4zm5.424-5.409c0-2.992-2.44-5.408-5.424-5.408v4A1.42 1.42 0 016.11 38.62h4zm-5.424-5.408a1.37 1.37 0 011.369 1.371h-4a2.63 2.63 0 002.631 2.629v-4zm1.369 1.371v-4.199h-4v4.2h4zm0-4.199a1.37 1.37 0 01-1.369 1.372v-4a2.63 2.63 0 00-2.631 2.628h4zm-1.369 1.372h29.626v-4H4.686v4zm29.626 0a1.37 1.37 0 01-1.369-1.372h4a2.63 2.63 0 00-2.631-2.628v4zm-1.369-1.372v4.2h4v-4.2h-4zm0 4.2a1.37 1.37 0 011.369-1.372v4a2.63 2.63 0 002.631-2.629h-4zm1.369-1.372c-2.984 0-5.424 2.416-5.424 5.408h4a1.42 1.42 0 011.424-1.408v-4zm-5.424 5.408c0 2.993 2.44 5.409 5.424 5.409v-4a1.42 1.42 0 01-1.424-1.409h-4zm5.424 5.409a1.37 1.37 0 01-1.369-1.372h4a2.63 2.63 0 00-2.631-2.628v4zm-1.369-1.372v4.796h4v-4.796h-4zm0 4.796c0-.77.618-1.372 1.369-1.372v4a2.635 2.635 0 002.631-2.628h-4zM5.318 48.818h28.356v-4H5.318v4zm30.356-2V43.24h-4v3.577h4zm-1.73-5.559c-1.318-.18-2.326-1.31-2.326-2.645h-4c0 3.383 2.533 6.166 5.786 6.608l.54-3.963zm-2.326-2.645c0-1.335 1.008-2.466 2.325-2.645l-.54-3.963c-3.252.442-5.785 3.225-5.785 6.608h4zm4.056-4.627v-2.98h-4v2.98h4zm-2-4.98H5.318v4h28.356v-4zm-30.356 2v2.98h4v-2.98h-4zm1.73 4.962c1.317.18 2.325 1.31 2.325 2.645h4c0-3.383-2.533-6.166-5.786-6.608l-.54 3.963zm2.325 2.645c0 1.335-1.008 2.466-2.325 2.645l.54 3.963c3.252-.442 5.785-3.225 5.785-6.608h-4zm-4.055 4.627v3.577h4V43.24h-4z" fill="#606060" mask="url(#q)"/><mask id="r" fill="#fff"><path d="M25.668 3.194H13.332v1.264h12.336V3.194z"/></mask><path d="M25.668 3.194H13.332v1.264h12.336V3.194z" fill="#606060"/><path d="M13.332 3.194v-2h-2v2h2zm12.336 0h2v-2h-2v2zm0 1.264v2h2v-2h-2zm-12.336 0h-2v2h2v-2zm0 .736h12.336v-4H13.332v4zm10.336-2v1.264h4V3.194h-4zm2-.736H13.332v4h12.336v-4zm-10.336 2V3.194h-4v1.264h4z" fill="#606060" mask="url(#r)"/></svg>