<svg width="47" height="47" fill="none" xmlns="http://www.w3.org/2000/svg"><circle cx="23.5" cy="23.5" r="23" stroke="#fff"/><path d="M28.66 17.185a1.164 1.164 0 112.328.001 1.164 1.164 0 01-2.328-.001z" fill="#fff"/><path fill-rule="evenodd" clip-rule="evenodd" d="M24 17.475A5.53 5.53 0 0018.466 23 5.53 5.53 0 0024 28.525 5.53 5.53 0 0029.534 23 5.53 5.53 0 0024 17.475zM20.214 23A3.783 3.783 0 0124 19.22 3.783 3.783 0 0127.786 23 3.783 3.783 0 0124 26.78 3.783 3.783 0 0120.214 23z" fill="#fff"/><path fill-rule="evenodd" clip-rule="evenodd" d="M30.126 12.338a55.676 55.676 0 00-12.252 0c-2.344.262-4.236 2.105-4.512 4.457a53.328 53.328 0 000 12.41c.276 2.352 2.168 4.196 4.512 4.457 4.039.45 8.213.45 12.252 0 2.344-.261 4.236-2.105 4.512-4.457a53.328 53.328 0 000-12.41c-.276-2.352-2.168-4.196-4.512-4.457zm-12.058 1.734a53.939 53.939 0 0111.864 0c1.55.173 2.79 1.394 2.97 2.926a51.578 51.578 0 010 12.004c-.18 1.533-1.42 2.753-2.97 2.926-3.91.436-7.954.436-11.864 0-1.55-.173-2.79-1.393-2.97-2.926a51.578 51.578 0 010-12.004c.18-1.533 1.42-2.753 2.97-2.926z" fill="#fff"/></svg>