<svg width="393" height="235" fill="none" xmlns="http://www.w3.org/2000/svg"><g clip-path="url(#clip0_74:1587)"><path d="M135.377 122.65a5.01 5.01 0 00.35-2.255l-3.545-46.38a4.992 4.992 0 00-.265-1.267l-14.464-41.434a5.008 5.008 0 00-1.484-2.162l-6.831-5.804a1.827 1.827 0 012.315-2.827l11.014 8.69a5 5 0 011.631 2.299l13.491 39.216c.094.272.164.552.209.837l5.197 32.504c.069.433.081.873.035 1.309l-4.786 45.805a4.955 4.955 0 00.071 1.503l7.689 38.328a4.999 4.999 0 01-4.761 5.981l-7.083.199-5.509-.217a5 5 0 01-4.787-4.6l-2.647-33.305a5.004 5.004 0 01.349-2.27l13.811-34.15z" fill="#ED6F00"/><path d="M109.206 20.265a1.3 1.3 0 00-1.065-1.602l-23.645-3.621a5 5 0 00-4.41 1.528L53.745 44.745a5 5 0 00-1.342 3.655l.545 11.358c.232 4.823 6.489 6.549 9.16 2.526L70.45 49.72l14.026-25.903a5 5 0 014.41-2.62l19.056.052a1.3 1.3 0 001.265-.984z" fill="#7AC8CC"/><path d="M109.391 19.53c.101-.403.41-.722.809-.836l16.007-4.595a5 5 0 012.918.048l26.453 8.553a5.002 5.002 0 012.765 2.212l19.644 33.204a5 5 0 01.696 2.589l-.035 4.027c-.034 3.968-4.455 6.316-7.762 4.124l-6.203-4.111a5.001 5.001 0 01-1.911-2.39l-12.174-31.981a4.96 4.96 0 00-2.754-2.836c-5.791-2.38-22.285-9.123-22.849-8.962-.538.153-10.251 1.735-14.293 2.39a1.163 1.163 0 01-1.311-1.436z" fill="#7AC8CC"/><path d="M108.739 18.754a1.061 1.061 0 00-1.037.45l-13.67 19.943a4.95 4.95 0 00-.87 3.062c.333 6.549 1.54 30.156 1.707 30.642.121.359 13.056 16.377 22.472 28.009 3.044 3.761 9.11 1.425 8.863-3.407l-1.725-33.691a4.981 4.981 0 00-.425-1.777l-12.818-28.822a4.981 4.981 0 01-.407-1.534l-1.194-11.93a1.062 1.062 0 00-.896-.945z" fill="#7AC8CC"/><path d="M109.12 20.61c-.098.392.039.805.351 1.06l20.965 17.111a4.994 4.994 0 011.383 1.791l17.382 37.932c.115.25.209.51.281.776l1.033 3.817c1.406 5.19 8.892 4.807 9.761-.499l2.807-17.148a4.992 4.992 0 00-.456-3.032l-14.815-29.833a5.003 5.003 0 00-1.999-2.118l-19.469-11.121a5 5 0 00-2.898-.641l-13.404 1.123a1.04 1.04 0 00-.922.783zm-4.738-1.505a1.384 1.384 0 00-.912.085L74.237 32.598a5 5 0 00-2.847 3.721l-5.011 29.983a4.998 4.998 0 00-.01 1.592l.947 6.088c.73 4.697 6.983 5.822 9.304 1.674l4.78-8.544c.284-.51.478-1.064.571-1.64l4.71-29.02a5 5 0 012.016-3.259l16.157-11.622c.957-.689.671-2.18-.472-2.466z" fill="#7AC8CC"/><path d="M103.391 19.271a5 5 0 01-4.028-3.347l-.48-1.419c-1.057-3.124 1.146-6.397 4.438-6.594l5.71-.34a4.998 4.998 0 012.599.551l3.554 1.842c3.301 1.711 3.646 6.298.638 8.484l-1.35.982a5.001 5.001 0 01-3.648.904l-7.433-1.063z" fill="#7AC8CC"/><path d="M112.329 21.303c.475.007.934-.17 1.28-.496l6.574-6.182a4.997 4.997 0 012.46-1.264l24.886-4.896a3.358 3.358 0 012.221.328c3.371 1.787 6.638-2.537 3.998-5.291l-2.002-2.09a3.826 3.826 0 00-3.292-1.14l-25.816 3.616a5 5 0 00-3.455 2.161l-8.343 12.406c-.81 1.204.038 2.826 1.489 2.848zm14.659 91.462l-9.475-36.397-14.047-33.094 4.55-21.267-7.735 22.007 14.583 33.801 12.124 34.95zm6.514-73.4l18.135 36.704s5.336-8.963 5.074-9.302c-.262-.338-17.603-28.153-17.603-28.153l-5.606.751zm23.399 35.915s-.435 25.208-.688 24.457c-.254-.751-3.215-19.1-3.215-19.1l3.903-5.358zM83.993 35.408l-4.575 30.526-7.52 14.215 6.413-44.966 5.682.225zM66.187 33.81L53.902 46.523l.499 19.68 3.122-17.93 8.664-14.463zm93.26-3.65l16.404 29.25 1.073 10.119-17.477-39.369z" fill="#7AC8CC"/><path d="M139.395 152.627l-3.844-79.293 54.355-38.58 51.588 38.58-1.081 79.293H139.395z" fill="#F3A005"/><path d="M130.473 79.266l-3.346-4.913 62.956-44.523 3.346 8.177-62.956 41.26z" fill="#FCBD6E"/><path d="M249.697 79.266l3.345-4.913-62.96-44.523v10.371l59.615 39.065z" fill="#FCBD6E"/><path d="M190.084 83.281c7.731 0 13.999-5.772 13.999-12.892 0-7.12-6.268-12.892-13.999-12.892-7.732 0-14 5.772-14 12.892 0 7.12 6.268 12.892 14 12.892z" fill="#FCDB6E"/><path d="M190.084 80.632c6.143 0 11.123-4.586 11.123-10.243s-4.98-10.242-11.123-10.242c-6.143 0-11.123 4.585-11.123 10.242 0 5.657 4.98 10.243 11.123 10.243z" fill="#069EA6"/><path d="M182.763 71.479c0-5.657 4.981-10.243 11.119-10.243.46 0 .912.035 1.36.085a11.817 11.817 0 00-5.162-1.174c-6.142 0-11.123 4.586-11.123 10.242 0 5.233 4.262 9.539 9.758 10.158-3.531-1.716-5.952-5.132-5.952-9.068z" fill="#E2D6C0"/><path d="M147.53 155.405h-5.124v41.306h5.124v-41.306zm90.508 0h-5.124v41.306h5.124v-41.306z" fill="#ED6F00"/><path d="M243.636 158.555L137 156.945V153h106.636v5.555z" fill="#FCBD6E"/><path d="M147.531 152.627h-8.136l-3.844-76.69 11.98-7.851v84.541zm92.882 0h-8.001l.769-84.188 8.309 5.443-1.077 78.745zm-18.545 0h-24.907l-1.297-61.967 27.214-.95-1.01 62.917z" fill="#FCDB6E"/><path d="M199.133 94.76h19.656l.486 57.867h-19.166l-.976-57.866z" fill="#DB3D27"/><path d="M216.714 136.471h-2.302l-.49-6.959 3.244.21-.452 6.749zm-13.331-29.153h-4.039l-.03-1.984h4.069l.65.992-.65.992zm-.001 36.335l-3.426.07-.034-2.054h3.46l.65.992-.65.992z" fill="#F3A005"/><path d="M147.531 176.058l26.077-18.93-9.34-.14-16.737 12.846v6.224zm64.87-18.343l20.514 13.192v5.446l-32.063-18.813 11.549.175z" fill="#ED6F00"/><path d="M226.152 161.827h-32.435v2.49h32.435v-2.49zm0 7.092h-32.435v2.49h32.435v-2.49zm0 7.092h-32.435v2.489h32.435v-2.489zm0 7.092h-32.435v2.489h32.435v-2.489zm0 7.091h-32.435v2.49h32.435v-2.49z" fill="#FCBD6E"/><path d="M193.721 148.329h-5.58v48.386h5.58v-48.386zm38.01 0h-5.581v48.386h5.581v-48.386z" fill="#FCDB6E"/><path d="M289.077 196.711H93.99l87.187 4.618-15.643 2.991 107.279-3.804-9.708-2.093 25.972-1.712z" fill="#FCBD6E"/><path d="M245.68 196.71h12.188c1.778-8.896 4-25.325 1.136-43.208-4.271-26.679-15.55-36.089-15.55-36.089s-9.066 11.258-7.595 38.19c.942 17.319 6.192 32.483 9.821 41.107z" fill="#069EA6"/><path d="M284.06 149.709c-.165-30.662-8.424-42.718-8.424-42.718s-9.049 11.562-11.271 42.158c-1.423 19.614 1.018 37.35 2.957 47.565h10.676c2.61-10.134 6.167-27.546 6.062-47.005z" fill="#F3A005"/><path d="M273.11 179.127l-.706 16.125h-2.378s-.444-11.858 3.084-16.125z" fill="#069EA6"/><path d="M249.939 177.365l2.379 16.794h2.116c-.004-.004.131-6.329-4.495-16.794z" fill="#DB3D27"/><path d="M285.642 149.709c-.164-30.662-8.423-42.718-8.423-42.718h-1.584c.194.241.925 1.626.946 1.665 2.171 4.233 7.346 16.837 7.477 41.053m.002.001c.105 19.466-3.447 36.879-6.058 47.005h1.584c2.611-10.134 6.168-27.543 6.062-47.005" fill="#F38405"/><path opacity=".3" d="M244.121 121.343s11.63 14.845 13.391 32.615c1.762 17.766 0 32.207 0 32.207l-3.083.486s-1.851-9.006-5.551-14.277l-4.757-51.031zm24.452 51.478h-2.117s-1.102-24.663 1.542-38.17c2.645-13.507 6.696-23.283 6.696-23.283l-2.353 46.122-3.768 15.331z" fill="#fff"/><path d="M185.892 91.462h-27.378v43.095h27.378V91.462z" fill="#FCDB6E"/><path d="M182.763 95.255h-21.122v35.509h21.122v-35.51z" fill="#069EA6"/><path d="M164.353 100.791l18.41-1.26v-4.276h-21.122v35.509h3.624l-.912-29.973z" fill="#E2D6C0"/><path d="M155.861 134.558h32.68v3.758l-32.68-.514v-3.244z" fill="#FCBD6E"/></g><path d="M80.026 200.227c-11.645 0-21.466 10.958-25.675 10.958-6.454 0-20.674 6.355-48.874 12.929-21.974 5.123 43.402 0 56.45-6.574 13.048-6.574 11.084 0 7.717 6.574-3.368 6.574 10.382 7.451 23.43 7.451 13.047 0 60.188 0 81.653-7.451 21.466-7.451 34.654-6.574 26.236 0-8.418 6.574-12.346 7.451-4.068 7.451 8.277 0 93.298 5.479 112.8 0 19.501-5.479-24.786-4.26-19.502-7.451 39.565-23.887 86.09-12.929 99.98-12.929 13.889 0-45.824-18.305-60.415-18.305-14.591 0-50.258-6.119-28.177 7.347 8.443 5.149-34.116 10.958-43.797 10.958h-38.021c-15.853 0-34.653 0-45.036 6.355-10.382 6.355-14.577-13.22-24.257-13.22-59.803 0-10.642 6.865-48.979 6.865-6.173 0-9.82-10.958-21.465-10.958z" fill="#65D0D9" stroke="#7AC8CC"/><defs><clipPath id="clip0_74:1587"><path fill="#fff" transform="translate(52.3)" d="M0 0h236.777v204.32H0z"/></clipPath></defs></svg>