<svg width="42" height="34" fill="none" xmlns="http://www.w3.org/2000/svg"><path d="M33.59 9.202H8.405l12.593-7.165L33.59 9.202zM20.587.608h0l-.002.001L5.597 9.136a.799.799 0 00-.412.748l-.56.318h.65c.142.276.43.44.735.44h29.977a.828.828 0 00.736-.44h.646l-.558-.317a.801.801 0 00-.41-.748L21.416.609h0l-.003-.001a.844.844 0 00-.825 0zM6.019 23.394h29.957l.61-1.045s0 0 0 0h.466v0-.649c0-.6-.506-1.045-1.076-1.045H6.02c-.565 0-1.076.44-1.076 1.045v.65c0 .6.506 1.044 1.076 1.044z" fill="#fff" stroke="#fff"/><path d="M10.867 29.613c0 .424.354.721.734.721s.733-.297.733-.72V22.67a.727.727 0 00-.733-.72.727.727 0 00-.734.72v6.942zm1.643-.04c0 .424.354.721.733.721.38 0 .734-.297.734-.721v-6.9a.727.727 0 00-.734-.72.727.727 0 00-.733.72v6.9zm16.975 2.177h0v-9.078a.727.727 0 00-.734-.722.727.727 0 00-.733.721v9.071c0 .424.354.721.733.721a.73.73 0 00.734-.712zm.177-.048c0 .424.354.721.734.721s.733-.297.733-.721v-9.029a.727.727 0 00-.733-.72.727.727 0 00-.734.72v9.029zM10.1 21.374v-.002.002zm-.467-.002c0 .425.354.721.733.721.372 0 .734-.29.734-.719V9.924a.727.727 0 00-.734-.722.727.727 0 00-.733.721v11.45zm4.318.002v-.002.002zm-.467-.002c0 .425.354.721.734.721.371 0 .733-.29.733-.719V9.924a.727.727 0 00-.733-.722.727.727 0 00-.734.721v11.45zm14.028.002v-.002.002zm-.467-.002c0 .425.354.721.733.721.372 0 .734-.29.734-.719V9.924a.727.727 0 00-.733-.722.727.727 0 00-.734.721v11.45zm5.319.011h0V9.924a.727.727 0 00-.734-.722.727.727 0 00-.733.721v11.45c0 .424.353.72.733.72a.73.73 0 00.734-.71z" fill="#fff" stroke="#fff"/><path d="M38.407 31.011l-.013-.01c-.355-.288-.762-.617-1.28-.867-.536-.259-1.172-.426-1.995-.426-1.677 0-2.543.7-3.289 1.303-.352.284-.646.52-1.003.693-.345.167-.765.284-1.356.284-.59 0-1.01-.117-1.356-.284-.356-.174-.65-.409-1.002-.693-.746-.602-1.613-1.303-3.29-1.303-1.676 0-2.542.7-3.288 1.303-.352.284-.646.52-1.003.693-.345.167-.765.284-1.356.284-.59 0-1.01-.117-1.356-.284-.357-.174-.65-.409-1.003-.693-.745-.603-1.612-1.303-3.288-1.303-1.677 0-2.543.7-3.289 1.303-.352.284-.646.52-1.003.693-.345.167-.765.284-1.356.284-.59 0-1.01-.117-1.356-.284-.357-.174-.65-.409-1.003-.693h33.886zm0 0c.353.284.647.52 1.003.693.345.167.766.284 1.357.284.379 0 .733.297.733.72v.01h0a.73.73 0 01-.733.712c-.823 0-1.46-.167-1.995-.426-.518-.25-.925-.579-1.28-.866l-.014-.011c-.352-.284-.646-.52-1.003-.693-.345-.167-.765-.284-1.356-.284-.591 0-1.011.117-1.356.284-.357.174-.651.409-1.003.693m5.648-1.116l-5.648 1.116m-17.872 0c-.352-.284-.646-.52-1.003-.693-.345-.167-.765-.284-1.356-.284-.591 0-1.011.117-1.356.284-.357.174-.651.409-1.003.693h4.718zm0 0c.745.603 1.612 1.303 3.288 1.303 1.677 0 2.543-.7 3.29-1.303m-6.578 0h6.577m0 0c.352-.284.646-.52 1.003-.693.345-.167.765-.284 1.356-.284.59 0 1.01.117 1.356.284.357.174.65.409 1.003.693m-4.718 0h4.718m0 0c.745.603 1.612 1.303 3.288 1.303 1.677 0 2.543-.7 3.289-1.303m-6.577 0h6.577M4.522 31.01c-.745-.602-1.612-1.303-3.288-1.303a.727.727 0 00-.734.721c0 .424.354.721.734.721.59 0 1.01.117 1.356.284.356.174.65.409 1.002.693l.93-1.116zm2.36 2.42c1.675 0 2.542-.701 3.288-1.304H3.592c.746.603 1.613 1.303 3.29 1.303z" fill="#fff" stroke="#fff"/></svg>