<svg width="40" height="34" fill="none" xmlns="http://www.w3.org/2000/svg"><g clip-path="url(#clip0_25:2425)" fill="#fff"><path d="M39.36 21.343l-.04.002-38.795-.162c-.267 0-.482-.24-.48-.535 0-.294.217-.531.484-.529l38.794.16c.267 0 .482.24.48.534 0 .28-.197.507-.444.53z"/><path d="M32.573 30.522a4.461 4.461 0 01-.405.017l-25.409-.105c-1.602-.007-3.326-1.293-4.73-3.528C.777 24.908-.001 22.519 0 20.666c0-.295.217-.532.482-.532.267 0 .482.24.482.532-.002 3.186 2.86 8.69 5.798 8.702l25.408.105c1.44.005 3.055-.872 4.327-2.347 1.419-1.649 2.233-3.806 2.292-6.076.007-.294.229-.524.496-.517.267.008.475.255.468.547-.138 5.219-3.82 9.157-7.18 9.442zm-7.421-10.878l-.964-.005.002-.532c0-.127-.011-12.555-4.354-15.344-4.725 2.74-4.827 15.18-4.827 15.307l-.002.532-.964-.005.002-.532c.002-.555.109-13.617 5.601-16.386l.21-.105.206.115c5.078 2.817 5.094 15.869 5.092 16.423l-.002.532z"/><path d="M.789 22.367L.785 23.43l38.366.167.004-1.064-38.366-.167z"/><path d="M36.684 27.575a.469.469 0 01-.435-.227l-1.88-3.004-1.792 2.832a.47.47 0 01-.394.227.475.475 0 01-.396-.225l-1.84-2.857-1.765 2.832a.467.467 0 01-.414.23.478.478 0 01-.399-.262l-1.446-2.725-1.66 2.882a.472.472 0 01-.41.247.474.474 0 01-.408-.25l-1.651-2.914-1.702 3.002a.474.474 0 01-.43.25.483.483 0 01-.41-.288l-1.38-2.956-1.84 2.896a.474.474 0 01-.403.228.475.475 0 01-.396-.242l-1.724-2.942-1.61 2.764a.477.477 0 01-.4.245.466.466 0 01-.405-.235l-1.726-2.816-1.759 2.951a.475.475 0 01-.42.24.48.48 0 01-.403-.272l-1.47-2.895-2.067 3.264a.454.454 0 01-.672.13.568.568 0 01-.118-.742l2.51-3.958a.472.472 0 01.418-.227c.165.01.315.113.396.273L7.24 25.9l1.72-2.887a.47.47 0 01.4-.24c.162 0 .313.088.404.235l1.722 2.81 1.618-2.783a.47.47 0 01.405-.244c.163 0 .317.092.405.242l1.742 2.971 1.888-2.971a.467.467 0 01.427-.225c.168.013.32.123.396.287l1.358 2.907 1.661-2.93a.475.475 0 01.41-.249.48.48 0 01.41.25l1.654 2.919 1.674-2.907a.475.475 0 01.417-.247.476.476 0 01.407.262l1.462 2.755 1.724-2.77a.467.467 0 01.394-.23.463.463 0 01.396.225l1.842 2.862 1.799-2.842a.471.471 0 01.396-.227c.158 0 .305.087.396.23l2.274 3.636a.565.565 0 01-.122.739.412.412 0 01-.235.097zM24.481 15.841c-.013 0-.027.003-.038.003l-9.645-.04c-.267 0-.482-.24-.48-.534 0-.295.218-.532.485-.53l9.644.04c.267 0 .482.24.48.535-.002.277-.197.504-.446.527zm-.007 2.246l-.039.002-9.645-.04c-.267 0-.482-.24-.48-.534 0-.295.218-.532.485-.53l9.645.04c.267 0 .482.24.48.535-.003.28-.2.507-.447.527zM8.672 13.546c-.045.005-.092.005-.138.005-.946-.005-1.71-.856-1.706-1.898.005-1.029.772-1.887 1.72-1.882.457.002.887.2 1.21.559.324.36.5.834.499 1.338-.007.977-.702 1.803-1.585 1.878zm-.192-2.71c-.385.033-.688.395-.69.822-.002.455.333.83.747.83.412.002.751-.373.751-.825a.88.88 0 00-.217-.587.705.705 0 00-.53-.244c-.02.002-.04.002-.06.005zm1.163 5.158c-.003.46-.342.831-.759.831-.416-.002-.753-.377-.753-.836.002-.46.342-.832.758-.832.419.003.756.377.754.837zm21.454-.1a.454.454 0 01-.367-.143L28.646 13.6a.577.577 0 01-.023-.754l1.951-2.3a.45.45 0 01.681-.025l2.084 2.15a.577.577 0 01.023.754l-1.95 2.3a.455.455 0 01-.315.17zm-1.44-2.707l1.381 1.423 1.29-1.523-1.38-1.423-1.29 1.523z"/><path d="M31.028 11.327l-.038.002c-.267 0-.482-.24-.48-.534l.004-1.286c0-.295.218-.532.485-.53.267 0 .482.24.48.535l-.005 1.286c-.003.277-.197.507-.446.527zm-.018 5.47c-.013 0-.027.003-.038.003-.267 0-.482-.24-.48-.535l.005-.998c0-.295.217-.532.484-.53.267 0 .482.24.48.535l-.005.998c-.002.278-.197.507-.446.527zm-1.938-3.061c-.013 0-.025.003-.038.003l-1.08-.005c-.267 0-.482-.24-.48-.535 0-.294.218-.532.485-.53l1.077.006c.267 0 .482.24.48.534 0 .277-.197.507-.444.527zm5.162.023l-.038.002-1.078-.005c-.267 0-.482-.24-.48-.534 0-.295.218-.532.485-.53l1.077.005c.267 0 .482.24.48.535-.002.277-.197.504-.446.527zM17.445 1.186a.485.485 0 01-.494-.36.573.573 0 01-.002-.332c.027-.267.204-.432.523-.487.262-.047.51.152.552.444a.571.571 0 01-.102.42.618.618 0 01-.477.315zm-4.798 8.582a.331.331 0 01-.086-.002c-.264-.03-.457-.292-.43-.584.37-3.968 1.94-6.253 3.194-7.47a.452.452 0 01.68.048.572.572 0 01-.042.752c-1.123 1.091-2.533 3.154-2.872 6.78-.027.262-.217.459-.444.476zM31.163 33.87l-.74.06c-.271.023-.55.043-.835.068-.265.022-.498-.197-.518-.49-.02-.292.179-.549.443-.571.288-.025.568-.048.84-.068 1.797-.142 3.218-.254 4.555-.829 1.55-.666 2.72-1.416 3.381-2.904.118-.264.407-.372.645-.242.24.13.337.45.22.712-.847 1.902-2.372 2.771-3.897 3.428-1.265.542-2.596.71-4.094.837zm8.362-5.856a.466.466 0 01-.437-.232.543.543 0 01-.131-.245c-.068-.27.07-.554.31-.646a.45.45 0 01.251-.02c.224 0 .428.172.473.424a.59.59 0 01-.043.35.511.511 0 01-.276.332.442.442 0 01-.147.037z"/></g><defs><clipPath id="clip0_25:2425"><path fill="#fff" d="M0 0h40v34H0z"/></clipPath></defs></svg>