<svg width="18" height="20" fill="none" xmlns="http://www.w3.org/2000/svg"><path fill-rule="evenodd" clip-rule="evenodd" d="M4.065 5.006C4.065 2.241 6.275 0 9 0c2.726 0 4.935 2.241 4.935 5.006S11.726 10.012 9 10.012c-2.726 0-4.935-2.241-4.935-5.006zM9 1.766c-1.764 0-3.194 1.451-3.194 3.24 0 1.79 1.43 3.24 3.194 3.24s3.194-1.45 3.194-3.24c0-1.789-1.43-3.24-3.194-3.24zm-4.645 11.78c-1.443 0-2.613 1.187-2.613 2.65v1.4c0 .021.015.04.036.043a44.2 44.2 0 0014.444 0 .043.043 0 00.036-.043v-1.4c0-1.463-1.17-2.65-2.613-2.65h-.396a.288.288 0 00-.09.015l-1.005.332c-2.05.68-4.259.68-6.308 0l-1.005-.332a.288.288 0 00-.09-.015h-.396zM0 16.196c0-2.44 1.95-4.417 4.355-4.417h.396c.214 0 .427.035.63.102l1.006.333a8.306 8.306 0 005.226 0l1.005-.333c.204-.067.417-.102.631-.102h.396c2.405 0 4.355 1.978 4.355 4.417v1.4c0 .887-.634 1.644-1.497 1.787a45.913 45.913 0 01-15.006 0A1.803 1.803 0 010 17.596v-1.4z" fill="#FD780F"/></svg>