<svg width="31" height="32" fill="none" xmlns="http://www.w3.org/2000/svg"><path fill-rule="evenodd" clip-rule="evenodd" d="M7.531 8.063a7.969 7.969 0 1115.938 0 7.969 7.969 0 01-15.938 0zM15.5 2.905a5.156 5.156 0 100 10.313 5.156 5.156 0 000-10.313zM8 21.656a4.219 4.219 0 00-4.219 4.219v2.228a.07.07 0 00.058.068 72.364 72.364 0 0023.322 0 .07.07 0 00.058-.068v-2.228A4.219 4.219 0 0023 21.656h-.64a.47.47 0 00-.145.023l-1.622.53a16.406 16.406 0 01-10.185 0l-1.623-.53a.47.47 0 00-.146-.023H8zM.969 25.875A7.031 7.031 0 018 18.844h.64c.345 0 .689.054 1.018.162l1.623.53c2.741.895 5.697.895 8.438 0l1.623-.53a3.28 3.28 0 011.019-.162H23a7.031 7.031 0 017.031 7.031v2.228a2.882 2.882 0 01-2.417 2.844 75.183 75.183 0 01-24.228 0A2.882 2.882 0 01.97 28.103v-2.228z" fill="#fff"/></svg>