<svg width="40" height="37" fill="none" xmlns="http://www.w3.org/2000/svg"><path d="M30.775 5.652l.538-.709a.57.57 0 11.907.69l-.538.71a.569.569 0 01-.799.108.567.567 0 01-.108-.799zM4.39 18.922a.574.574 0 00.706-.393c.012-.04 1.135-3.989 2.246-5.607a.572.572 0 00-.147-.793.572.572 0 00-.793.147c-1.22 1.775-2.355 5.771-2.403 5.943a.563.563 0 00.39.702zm3.523-7.234a.562.562 0 00.423-.19l.322-.354a.57.57 0 00-.847-.766l-.322.355a.57.57 0 00.042.804.55.55 0 00.382.15zm20.465 13.971c-1.99 2.352-4.415 3.426-4.442 3.439a.574.574 0 00-.297.75.567.567 0 00.748.294c.108-.048 2.685-1.183 4.856-3.747a.567.567 0 10-.865-.736zm2.172-1.726a.57.57 0 00-.799.11l-.357.472a.572.572 0 00.453.916.569.569 0 00.454-.225l.357-.471a.57.57 0 00-.108-.802zm9.082-.559a.57.57 0 01-.492.337c-.093.006-1.093.054-2.364.054-1.709 0-3.907-.088-5.034-.49-1.204-.43-2.192-1.321-2.76-1.922-.31.469-.646.925-.997 1.364a.617.617 0 01-.075.105l-.027.024c-2.018 2.471-4.484 4.369-5.268 4.945a4.43 4.43 0 01-.304.201c.469.862.733 2.276-.366 3.802-1.54 2.138-4.634 4.41-4.764 4.507a.578.578 0 01-.336.111.572.572 0 01-.556-.703c.01-.039.862-3.729.418-6.12-2.142.292-4.268.382-5.526.412h-.054a2.47 2.47 0 01-1.382-.42L9 29.085a2.14 2.14 0 01-.772-.9 11.745 11.745 0 01-.625-1.802c-3.03-.036-6.805 1.258-6.844 1.27a.579.579 0 01-.616-.162.572.572 0 01-.084-.63c2.357-4.775 6.154-6.195 7.391-6.544.577-3.167 2.064-6.18 3.872-8.437.05-.066.11-.126.165-.19a.66.66 0 01.06-.068c.604-.673 1.394-1.262 2.286-1.772-1.238-.514-3.115-1.411-4.112-2.492C7.627 5.085 7.213.803 7.195.623A.571.571 0 018.08.097c.97.652 2.589 1.054 4.304 1.48 1.427.355 2.898.721 4.12 1.268 2.22.996 2.986 3.564 3.23 4.783a40.62 40.62 0 014.409-.85c.63-1.039 2.9-4.522 5.03-4.654l.25-.015c2.79-.177 4.045-.228 4.499.43.375.543 1.174 4.377.18 5.63-.67.843-3.25 3.401-4.094 4.236.316.838.547 1.784.682 2.847.781-.258 2.06-.43 3.583.34 1.553.783 2.598 2.672 3.61 4.497.562 1.012 1.09 1.97 1.676 2.694.133.168.16.396.072.591zm-10.01-6.81c-1.724-.354-5.079-.943-6.524-1.192l.1 2.72c.672.535 2.81 2.244 4.216 3.496 1.193-1.568 2.124-3.318 2.208-5.024zM21.885 26.91c-1.156-1.043-3.53-3.255-3.83-4.15-.378.069-.9.159-1.357.207-.243 1.078-.904 4.023-1.19 5.618 2.689-.294 5.172-.829 6.377-1.675zm-13.42-5.78l3.235-1.117-.273-2.03-2.015-.462a16.807 16.807 0 00-.89 3.246.565.565 0 01-.03.201l-.027.162zm7.758.727c.45-.015 1.178-.138 1.652-.228-.075-.92-.066-2.03-.054-2.604l-3.89-2.066-1.378.847.303 2.258c1.364.877 2.98 1.775 3.367 1.793zm-3.366-9.933l1.318.805 3.88-.955.85-1.868-.114-.835c-1.105.322-2.243.715-3.286 1.195-.02.012-.042.021-.066.033-.988.463-1.886 1-2.582 1.625zm7.046-3.153l.09.658c1.22.018 2.88.078 3.319.264.423.18 1.714.934 2.192 1.216l2.292-.258c-.85-1.162-1.982-2.084-3.4-2.754-.535.072-2.367.333-4.493.874zm4.6 2.877c-.657-.382-1.396-.8-1.639-.904-.261-.087-1.694-.156-3.003-.174l-.667 1.465 3.213 1.928a85.22 85.22 0 002.097-2.315zm-.858 2.657c1.499.261 4.24.745 5.914 1.078a11.224 11.224 0 00-.733-2.88 9.47 9.47 0 00-.363-.778l-2.797.316a70.06 70.06 0 01-2.021 2.264zm-4.565 4.099l2.97-.508-.108-2.88-3.577-2.143-3.74.918-.123 2.178 4.578 2.435zM25.3 7.078c1.378.724 2.853 1.877 3.934 3.703.018.024.033.05.048.078.082.138.157.288.232.435 1.027-1.018 3.135-3.126 3.694-3.831.508-.64.096-3.561-.207-4.231-.43-.177-2.202-.063-3.508.02l-.253.016c-1.186.072-2.916 2.198-3.94 3.81zM15.196 9.16a25.262 25.262 0 013.427-1.228c-.195-1.003-.817-3.246-2.589-4.038-1.126-.505-2.55-.86-3.928-1.202-1.322-.327-2.59-.642-3.62-1.084.247 1.349.826 3.637 2.067 4.985 1.156 1.243 3.871 2.288 4.643 2.567zm-5.34 7.297l1.982.453 1.52-.933.132-2.325-1.423-.867a18.392 18.392 0 00-2.211 3.672zM7.36 25.245a14.09 14.09 0 01-.093-3.66c-1.234.45-3.664 1.657-5.508 4.573 1.384-.385 3.589-.889 5.601-.913zm6.974 3.453c.25-1.504.937-4.597 1.223-5.852-.989-.36-2.457-1.264-3.307-1.81l-3.905 1.35c-.096 1.817.168 3.64.922 5.342a.97.97 0 00.36.415l.746.495c.23.153.501.234.78.228a59.156 59.156 0 003.181-.168zm6.956-.195c-.988.405-2.201.7-3.46.919.292 1.621.075 3.66-.14 5.032 1.02-.84 2.468-2.129 3.33-3.324.865-1.204.547-2.156.27-2.627zm5.407-6.03c-1.37-1.225-3.55-2.97-4.214-3.495l-3.403.583a.522.522 0 01-.096.009c-.01 0-.019-.003-.028-.003-.005 1.072.034 2.363.184 2.831.153.463 1.982 2.291 3.667 3.802.964-.775 2.51-2.114 3.89-3.727zm11.332.136c-.4-.619-.778-1.3-1.148-1.967-.928-1.676-1.886-3.405-3.126-4.033-1.409-.712-2.517-.381-2.986-.171-.03 1.321-.483 2.642-1.168 3.892.42.48 1.378 1.456 2.526 1.867 1.18.424 4.084.454 5.902.412z" fill="#fff"/></svg>