<svg width="31" height="20" fill="none" xmlns="http://www.w3.org/2000/svg"><path d="M9.692 15.185c-2.591 0-4.759-2.02-5.029-4.64a5.34 5.34 0 010-1.09c.27-2.62 2.438-4.64 5.03-4.64 2.59 0 4.758 2.02 5.029 4.64.037.36.037.73 0 1.09-.27 2.62-2.438 4.64-5.03 4.64z" fill="#fff"/><path fill-rule="evenodd" clip-rule="evenodd" d="M9.8 20h11.4c4.822 0 8.928-3.58 9.68-8.44a10.2 10.2 0 000-3.12C30.128 3.58 26.022 0 21.2 0H9.8C4.978 0 .872 3.58.12 8.44a10.201 10.201 0 000 3.12C.872 16.42 4.978 20 9.8 20zm0-2.222c-3.75 0-6.944-2.785-7.529-6.565a7.934 7.934 0 010-2.426c.585-3.78 3.779-6.565 7.53-6.565H21.2c3.75 0 6.944 2.785 7.529 6.565a7.938 7.938 0 010 2.426c-.585 3.78-3.778 6.565-7.53 6.565H9.8z" fill="#fff"/></svg>