<svg width="31" height="31" fill="none" xmlns="http://www.w3.org/2000/svg"><g clip-path="url(#clip0_350:2396)"><path d="M15.972 30.054c8.3 0 15.027-6.728 15.027-15.027C31 6.727 24.272 0 15.972 0 7.673 0 .945 6.728.945 15.027c0 8.3 6.728 15.027 15.027 15.027z" fill="#fff"/><path d="M7.821 14.701L22.31 9.115c.672-.243 1.26.164 1.042 1.181v-.001l-2.466 11.622c-.183.824-.672 1.024-1.357.636l-3.757-2.769-1.812 1.746c-.2.2-.37.37-.758.37l.267-3.824 6.962-6.29c.303-.266-.067-.417-.467-.151l-8.604 5.417-3.709-1.157c-.805-.255-.823-.805.17-1.194z" fill="#01565E"/></g><defs><clipPath id="clip0_350:2396"><path fill="#fff" transform="translate(.945)" d="M0 0h30.054v30.054H0z"/></clipPath></defs></svg>