<svg width="48" height="48" fill="none" xmlns="http://www.w3.org/2000/svg"><path d="M16 19.2A7.2 7.2 0 108.8 12a7.207 7.207 0 007.2 7.2zm-5.088-4.88a10.28 10.28 0 002.15.615c.126.737.333 1.457.615 2.15a5.627 5.627 0 01-2.765-2.766zm1.935-3.59a17.1 17.1 0 000 2.536c-1.6-.373-2.447-.962-2.447-1.266 0-.304.846-.894 2.447-1.267v-.003zM16 6.4c.304 0 .894.846 1.266 2.447a17.067 17.067 0 00-2.532 0c.372-1.6.962-2.447 1.266-2.447zm0 4c.55 0 1.054.027 1.527.073a15.869 15.869 0 010 3.052 15.867 15.867 0 01-3.053 0 15.867 15.867 0 010-3.052c.472-.045.977-.074 1.526-.074zm5.6 1.6c0 .304-.846.893-2.448 1.266a17.1 17.1 0 000-2.532c1.602.372 2.448.962 2.448 1.266zM16 17.6c-.304 0-.894-.847-1.266-2.448a17.046 17.046 0 002.532 0c-.372 1.601-.962 2.447-1.266 2.447zm2.32-.512c.282-.692.49-1.412.616-2.15a10.391 10.391 0 002.15-.615 5.627 5.627 0 01-2.766 2.765zm2.768-7.408a10.31 10.31 0 00-2.15-.616 10.39 10.39 0 00-.615-2.15 5.625 5.625 0 012.765 2.766zM13.68 6.911a10.24 10.24 0 00-.616 2.15c-.736.126-1.457.334-2.15.615a5.63 5.63 0 012.766-2.765zM4.8 5.6a.8.8 0 01.8-.8h3.199V3.2h-3.2a2.4 2.4 0 00-2.4 2.4v3.2h1.6V5.6zm0 28.8v-3.2H3.2v3.2a2.4 2.4 0 002.4 2.4h3.199v-1.6h-3.2a.8.8 0 01-.8-.8zM27.2 5.6v3.2h1.601V5.6a2.4 2.4 0 00-2.4-2.4h-3.2v1.6h3.2a.8.8 0 01.8.8z" fill="#606060"/><path d="M43.061 23.697L32 17.144V2.4A2.4 2.4 0 0029.6 0H2.4A2.4 2.4 0 000 2.4v35.2A2.4 2.4 0 002.4 40h22.4v.8A7.208 7.208 0 0032 48h14.4a1.6 1.6 0 001.6-1.6V32.548a10.343 10.343 0 00-4.939-8.85zM1.601 37.6V2.4a.8.8 0 01.799-.8h27.2a.8.8 0 01.8.8v30.186l-5.93-5.776a4.002 4.002 0 00-5.703 5.613l5.1 5.977H2.4a.8.8 0 01-.8-.8zM46.4 46.4H32a5.607 5.607 0 01-5.6-5.6v-1.6a.8.8 0 00-.191-.52l-6.268-7.342a2.405 2.405 0 010-3.396 2.459 2.459 0 013.405.007L33.84 38.173l1.12-1.147-2.96-2.88V19.004l10.232 6.061a8.743 8.743 0 014.168 7.483V46.4z" fill="#606060"/><path d="M40.673 26.105l-.843 1.36a8.743 8.743 0 014.168 7.482h1.6a10.336 10.336 0 00-4.925-8.843zM8.8 20.8H7.2v1.6h1.6v-1.6zm12.8 0H10.4v1.6h11.2v-1.6zm3.201 0h-1.6v1.6h1.6v-1.6z" fill="#606060"/></svg>