<svg width="31" height="31" fill="none" xmlns="http://www.w3.org/2000/svg"><g clip-path="url(#clip0_350:2393)"><path d="M15.35 0h-.008C7.056 0 .318 6.74.318 15.027a14.92 14.92 0 002.861 8.808l-1.873 5.582 5.776-1.846a14.897 14.897 0 008.267 2.483c8.286 0 15.023-6.741 15.023-15.027C30.372 6.742 23.635 0 15.35 0z" fill="#fff"/><path d="M24.093 21.22c-.362 1.024-1.8 1.873-2.948 2.12-.786.168-1.811.301-5.264-1.13-4.416-1.83-7.26-6.317-7.481-6.608-.213-.291-1.785-2.376-1.785-4.533 0-2.156 1.095-3.206 1.537-3.657.362-.37.961-.539 1.536-.539.186 0 .353.01.504.017.441.019.663.045.954.742.362.873 1.245 3.03 1.35 3.251.107.222.215.523.064.814-.14.3-.264.434-.486.69-.222.255-.432.45-.654.724-.203.239-.432.494-.176.936.255.432 1.138 1.872 2.438 3.03 1.677 1.493 3.037 1.97 3.524 2.173.362.15.794.114 1.059-.168.336-.362.751-.963 1.174-1.555.3-.424.68-.477 1.078-.327.406.141 2.553 1.203 2.994 1.422.442.222.733.327.84.513.105.186.105 1.06-.258 2.085z" fill="#01565E"/></g><defs><clipPath id="clip0_350:2393"><path fill="#fff" transform="translate(.318)" d="M0 0h30.054v30.054H0z"/></clipPath></defs></svg>