<svg width="47" height="47" fill="none" xmlns="http://www.w3.org/2000/svg"><circle cx="23.5" cy="23.5" r="23" stroke="#fff"/><path d="M19.538 17.515c.23.006.485.019.727.559.16.359.431 1.02.651 1.56.172.419.313.764.349.835.08.16.13.347.024.564l-.035.074a1.81 1.81 0 01-.288.466c-.058.067-.12.142-.18.215-.107.13-.213.259-.304.35-.161.16-.33.335-.143.657.187.323.839 1.384 1.801 2.24a8.326 8.326 0 002.39 1.512c.088.038.16.07.212.095.323.162.515.137.701-.08.187-.218.808-.944 1.025-1.266.211-.323.429-.273.727-.161.298.111 1.887.893 2.21 1.054l.18.088c.224.108.376.181.441.29.08.137.08.783-.186 1.54-.273.757-1.59 1.483-2.186 1.538a6.006 6.006 0 00-.17.02c-.547.066-1.24.15-3.71-.826-3.045-1.202-5.055-4.184-5.462-4.787a3.47 3.47 0 00-.065-.096l-.007-.01c-.185-.248-1.316-1.767-1.316-3.335 0-1.5.736-2.28 1.071-2.636a8.19 8.19 0 00.06-.063 1.19 1.19 0 01.862-.403c.218 0 .435 0 .621.006z" fill="#fff"/><path fill-rule="evenodd" clip-rule="evenodd" d="M11.126 35.361a.503.503 0 00.61.622l5.784-1.516a12.514 12.514 0 005.974 1.52h.006c6.886 0 12.5-5.603 12.5-12.49a12.41 12.41 0 00-3.657-8.836A12.423 12.423 0 0023.5 11C16.614 11 11 16.603 11 23.49c0 2.191.575 4.344 1.67 6.242l-1.544 5.63zm3.36-5.127a1.897 1.897 0 00-.186-1.45 10.59 10.59 0 01-1.417-5.294c0-5.834 4.762-10.6 10.617-10.6 2.85 0 5.508 1.105 7.514 3.11a10.515 10.515 0 013.103 7.497c0 5.834-4.761 10.6-10.617 10.6h-.006c-1.778 0-3.526-.449-5.077-1.293a1.877 1.877 0 00-1.373-.166l-3.467.909.909-3.313z" fill="#fff"/></svg>