<svg xmlns="http://www.w3.org/2000/svg" width="135" height="135"><path fill="#faab2c" d="M94.697 43.396H40.251L67.474 66.73z"/><path fill="#faab2c" d="M67.474 72.313a2.406 2.406 0 01-1.568-.58l-29.76-25.509v45.368h62.656V46.224l-29.76 25.508a2.406 2.406 0 01-1.568.581z"/><path fill="#faab2c" d="M103.621 94.001a2.41 2.41 0 01-2.41 2.41H33.737a2.41 2.41 0 01-2.41-2.41V40.986a2.41 2.41 0 012.41-2.41h67.474a2.41 2.41 0 012.41 2.41zM67.474.02C30.21.02 0 30.229 0 67.494s30.21 67.474 67.474 67.474c37.265 0 67.474-30.21 67.474-67.474C134.906 30.247 104.721.062 67.474.02z"/></svg>