<svg xmlns="http://www.w3.org/2000/svg" width="60" height="50"><path fill="#faab2c" d="M5.254 4.679c.027.203.682 5.01 2.657 8.867a.137.137 0 010 .12 25.089 25.089 0 00-2.076 16.728c.064.296.24.545.498.692.259.157.572.194.858.111.332-.092.674-.184 1.015-.258.59-.139.96-.73.83-1.32a21.58 21.58 0 01-.507-4.687c0-3.69.941-7.335 2.722-10.537l.092-.176a1.31 1.31 0 00-.018-1.3l-.102-.167c-1.171-1.974-1.9-4.549-2.306-6.357-.01-.055.009-.092.027-.11.019-.02.056-.047.102-.038 2.565.296 4.89 1.052 6.394 1.643l2.814 1.255c.471.212.757-.047.83-.13.351-.396.102-.83-.285-1.476-.139-.24-.323-.535-.378-.701a.162.162 0 01.064-.175c3.497-2.27 7.566-3.46 11.774-3.46 4.143 0 8.156 1.162 11.626 3.367-.028.056-.046.102-.074.157-.065.157-.212.397-.341.61-.351.571-.628 1.014-.277 1.42.092.11.369.341.858.13.221-.102 1.144-.444 1.808-.684.397-.147.757-.276.932-.35l.139-.056c1.44-.553 3.681-1.264 6.154-1.55.037 0 .074.01.102.037a.114.114 0 01.027.12c-.378 1.689-1.052 4.097-2.131 6.044l-.092.166a1.32 1.32 0 00.009 1.283l.101.166a21.767 21.767 0 012.907 10.869c0 1.532-.166 3.063-.48 4.558a1.474 1.474 0 001.209 1.772c.138.018.267.046.406.074.083.018.166.018.249.018.637 0 1.2-.443 1.338-1.089.378-1.744.572-3.534.572-5.333 0-4.05-.997-8.083-2.879-11.663-.018-.037-.018-.074 0-.12 1.818-3.774 2.436-8.286 2.464-8.47l.055-.388a1.325 1.325 0 00-.314-1.033 1.297 1.297 0 00-.978-.443h-.397c-3.367 0-6.532.849-8.6 1.568a.118.118 0 01-.11-.018C40.344 1.44 35.407-.1 30.268-.1c-5.204 0-10.187 1.578-14.413 4.568-.037.027-.073.027-.11.018-2.123-.757-5.389-1.66-8.858-1.66H6.49a1.3 1.3 0 00-.978.442c-.25.286-.36.655-.314 1.033zm43.385 34.804a1.638 1.638 0 00-1.163-.443 1.677 1.677 0 00-1.162.535 21.797 21.797 0 01-16.046 7.087 21.75 21.75 0 01-16.406-7.493c-.489-.563-1.3-.72-1.993-.378-.452.23-.765.646-.867 1.135a1.646 1.646 0 00.378 1.412 25.04 25.04 0 0018.879 8.608 25.083 25.083 0 0018.481-8.165 1.65 1.65 0 00-.064-2.28zm-16.932-5.739c0-.37-.645-.665-1.439-.665-.793 0-1.44.296-1.44.665 0 .24.277.443.683.563-.47.627-1.928 2.38-3.893 2.583-1.32.139-2.667-.47-3.986-1.817a.71.71 0 00-.997-.01.71.71 0 00-.01.997c1.477 1.504 3.027 2.26 4.624 2.26.175 0 .35-.009.516-.027 1.2-.12 2.224-.665 3.036-1.274.461.139 1.024.277 1.44.277.424 0 1.005-.138 1.485-.277.812.619 1.845 1.154 3.045 1.283.175.018.35.028.526.028 1.587 0 3.137-.757 4.622-2.261a.702.702 0 00-.009-.997.702.702 0 00-.996.01c-1.32 1.338-2.667 1.956-3.986 1.817-1.947-.203-3.424-1.946-3.894-2.583.397-.12.673-.332.673-.572z"/><path fill="#faab2c" d="M25.858 29.684a1.878 1.878 0 01-1.883-1.882 1.88 1.88 0 011.883-1.883c1.042 0 1.882.84 1.882 1.883 0 1.042-.84 1.882-1.882 1.882zm-1.126-5.223a3.34 3.34 0 100 6.68 3.34 3.34 0 100-6.68zm9.282 4.909a1.878 1.878 0 01-1.882-1.882c0-1.043.84-1.882 1.882-1.882 1.043 0 1.882.84 1.882 1.882 0 1.043-.84 1.882-1.882 1.882zm25.707 6.053c-4.116-3.57-9.615-4.475-14.385-4.401a9.763 9.763 0 003.857-7.779c0-5.407-4.383-9.78-9.781-9.78-5.407 0-9.78 4.383-9.78 9.78a9.782 9.782 0 006.228 9.117c-.462.12-.757.212-.83.24a.835.835 0 00-.545 1.033c.138.434.6.674 1.033.544.148-.046 14.976-4.576 23.132 2.501.157.138.35.203.545.203.23 0 .461-.092.618-.286a.831.831 0 00-.092-1.172z"/><path fill="#faab2c" d="M41.276 34.242a.823.823 0 00-.59 1.006.823.823 0 001.005.59c.065-.018 6.763-1.688 11.312 4.06a.84.84 0 00.646.314.823.823 0 00.646-1.329c-5.204-6.597-12.696-4.724-13.02-4.64zm-16.793-.24a.82.82 0 001.033-.544.82.82 0 00-.544-1.034C24.326 32.221 9.11 27.571.27 35.248a.83.83 0 00-.083 1.162.831.831 0 00.618.286.816.816 0 00.545-.203c8.147-7.067 22.984-2.537 23.132-2.49z"/><path fill="#faab2c" d="M18.3 35.672a.828.828 0 001.006-.59.823.823 0 00-.59-1.006c-.314-.083-7.815-1.956-13.029 4.632a.813.813 0 00.139 1.153c.147.12.332.176.507.176a.84.84 0 00.646-.314c4.54-5.712 11.045-4.125 11.322-4.05z"/></svg>