<svg xmlns="http://www.w3.org/2000/svg" width="135" height="136"><path fill="#faab2c" d="M101.752 75.05c3.145 3.07 6.472 5.962 9.295 9.351 1.251 1.5 2.43 3.05 3.328 4.793 1.28 2.487.124 5.213-2.102 5.36l-13.823-.002c-3.57.296-6.411-1.144-8.807-3.585-1.912-1.945-3.686-4.023-5.527-6.035-.753-.825-1.545-1.602-2.49-2.214-1.884-1.226-3.521-.85-4.6 1.118-1.101 2.004-1.352 4.223-1.457 6.453-.15 3.26-1.134 4.111-4.404 4.265-6.988.327-13.62-.734-19.782-4.257-5.437-3.107-9.645-7.493-13.311-12.46-7.14-9.68-12.609-20.304-17.522-31.234-1.106-2.462-.297-3.779 2.419-3.83 4.511-.087 9.023-.076 13.534-.004 1.837.03 3.051 1.08 3.757 2.812 2.438 5.999 5.427 11.706 9.172 16.999.998 1.41 2.017 2.815 3.468 3.81 1.602 1.1 2.822.736 3.577-1.052.483-1.136.692-2.35.797-3.568.359-4.171.402-8.34-.22-12.494-.386-2.6-1.848-4.279-4.44-4.77-1.32-.25-1.126-.739-.484-1.492 1.114-1.304 2.158-2.11 4.244-2.11l15.618-.003c2.461.483 3.014 1.588 3.348 4.067l.013 17.357c-.029.96.482 3.803 2.205 4.431 1.38.456 2.292-.651 3.117-1.525 3.746-3.975 6.414-8.666 8.804-13.521 1.055-2.142 1.965-4.357 2.848-6.577.657-1.642 1.679-2.45 3.532-2.422l15.04.018c.443 0 .893.004 1.332.08 2.534.434 3.229 1.524 2.445 3.997-1.235 3.885-3.633 7.12-5.977 10.365-2.512 3.473-5.192 6.825-7.68 10.314-2.286 3.19-2.105 4.795.733 7.564zM67.526.276C30.262.277.052 30.487.052 67.752s30.21 67.474 67.474 67.474c37.263 0 67.474-30.21 67.474-67.474C135 30.486 104.79.277 67.526.277z"/></svg>