<svg width="47" height="47" fill="none" xmlns="http://www.w3.org/2000/svg"><circle cx="23.5" cy="23.5" r="23" stroke="#fff"/><path d="M11.523 19.197h.028c1.6 0 2.654.579 3.165 1.737.105.319.157.647.157.984 0 .88-.344 1.693-1.032 2.44a424.413 424.413 0 00-3.288 3.425h4.69c.017.005.027.016.027.034-.237.784-.365 1.178-.383 1.183H8.352c-.019 0-.028-.01-.028-.027v-.711l4.382-4.471c.51-.574.766-1.128.766-1.661v-.198c0-.657-.374-1.117-1.121-1.381a2.986 2.986 0 00-.937-.144c-.793 0-1.745.365-2.857 1.094h-.035v-1.258c.948-.697 1.949-1.046 3.001-1.046zm9.284 0h1.757c.022.005.034.016.034.034v6.16h1.463c.018 0 .132.341.341 1.025.028.1.041.153.041.157l-.027.014h-1.818v2.379c0 .023-.012.034-.034.034h-1.306c-.023 0-.034-.011-.034-.034v-2.38h-5.038c-.028 0-.162-.33-.404-.99.018-.01 1.429-1.81 4.232-5.4.424-.552.688-.885.793-.999zm-3.282 6.18v.014h3.72c.017 0 .026-.01.026-.028v-4.812c-.282.346-1.53 1.955-3.746 4.826zm13.577-7.547c.022.005.034.014.034.027-2.917 8.331-4.396 12.542-4.437 12.633h-1.135c-.018 0-.027-.009-.027-.027 2.917-8.33 4.393-12.542 4.43-12.633h1.135zm1.374 1.367h6.555c.019.005.028.016.028.034v.698c-.128.337-1.447 3.36-3.958 9.071h-1.45l-.027-.014 3.87-8.558h-5.018c-.023 0-.035-.012-.035-.034V19.23c.005-.022.016-.034.035-.034z" fill="#fff"/></svg>