<svg width="60" height="54" fill="none" xmlns="http://www.w3.org/2000/svg"><path d="M6.969 34.69a.99.99 0 00.247.779c3.187 9.435 12.123 16.245 22.619 16.245 13.16 0 23.868-10.707 23.868-23.868A23.895 23.895 0 0038.02 5.42C36.64 2.274 33.545.047 29.953 0a8.968 8.968 0 00-8.355 5.438A23.893 23.893 0 007.22 20.216a.99.99 0 00-.252.788 23.866 23.866 0 000 13.687zm7.87 9.072a21.957 21.957 0 01-5.386-7.96h4.47v.994a.995.995 0 00.994.995h3.48l2.686 3.58a.996.996 0 00.796.398h.615c.181.696.374 1.36.579 1.989h-8.156c-.026 0-.052.002-.078.004zm13.173-22.437l.828.932v1.737a3.978 3.978 0 101.99 0v-1.737l.575-.648 9.36-1.701 3.987.797v4.99l-1.807 5.423-3.61 1.805a.994.994 0 00-.55.89v2.983h-.582l-2.692-2.692a.994.994 0 00-.704-.291H30.83a.994.994 0 00-.703.291l-2.548 2.549-2.401-.8a.996.996 0 00-1.31.943v2.984h-1.491l-2.685-3.58a.995.995 0 00-.796-.398h-2.983v-2.984a.996.996 0 00-.2-.596l-2.742-3.657.893-7.139 3.375-2.53h3.485l7.289 2.429zm-4.315-3.535c.064-.369.132-.733.203-1.091l1.463 1.646-1.666-.555zm6.138 10.056a.994.994 0 00.994-.995v-.725a1.988 1.988 0 11-1.989 0v.725a.995.995 0 00.995.995zm3.713-8.648L35.77 16.7c.132.658.25 1.335.358 2.03l-2.579.468zm2.5 18.257a38.078 38.078 0 01-1.553 6.303h-9.32a30.68 30.68 0 01-.622-1.99h.31a.995.995 0 00.994-.994v-2.598l1.674.558a.994.994 0 001.018-.24l2.692-2.692h3.154l1.654 1.653zM17.27 45.747h6.533c.606 1.458 1.284 2.668 2.02 3.608a21.766 21.766 0 01-8.553-3.608zm12.565 3.978c-1.32 0-2.691-1.468-3.857-3.978h7.72c-1.153 2.504-2.514 3.978-3.863 3.978zm4.02-.372a13.18 13.18 0 001.253-1.97 20.13 20.13 0 00.76-1.636H42.4a21.767 21.767 0 01-8.545 3.606zm10.976-5.591c-.026-.002-.052-.004-.079-.004h-8.155c.52-1.63.934-3.29 1.239-4.973h1.944a.994.994 0 00.994-.994V35.8h9.442a21.957 21.957 0 01-5.385 7.96zm6.049-21.897a21.902 21.902 0 01.003 11.962.996.996 0 00-.164-.014h-8.715l2.199-1.1a.994.994 0 00.498-.575l1.99-5.967a.995.995 0 00.05-.314v-3.978h3.978a.942.942 0 00.16-.014zM38.7 7.836c1.809.802 3.5 1.845 5.027 3.103h-5.102c.106-.618.16-1.243.16-1.87a9.08 9.08 0 00-.085-1.233zm-.605 5.092h7.652c.03 0 .06-.002.089-.004a21.969 21.969 0 014.379 6.966H46.74a.995.995 0 00-.799-.976l-4.973-.994a.998.998 0 00-.373-.003l-2.512.456a46.878 46.878 0 00-.749-3.811c.297-.523.551-1.07.76-1.634zM22.873 8.95a6.962 6.962 0 017.055-6.96c3.787.048 6.868 3.224 6.868 7.079a9.148 9.148 0 01-2.312 6.083l-4.65 5.23-4.648-5.23a9.147 9.147 0 01-2.313-6.083V8.95zm-1.919-1.106a9.134 9.134 0 00-.07 1.106v.119c0 .627.055 1.252.16 1.87h-5.101a21.789 21.789 0 015.011-3.095zm-7.12 5.08c.029.002.059.004.089.004h7.652c.208.564.462 1.11.759 1.633-.2.83-.383 1.698-.545 2.593l-.59-.197a1 1 0 00-.315-.05h-3.978a.994.994 0 00-.596.198l-3.713 2.785H9.455a21.97 21.97 0 014.379-6.966zm-5.048 8.955h3.016l-.855 6.838a.995.995 0 00.191.72l2.785 3.713v.663h-5.14a21.9 21.9 0 01.003-11.934z" fill="#606060"/><path d="M29.836 13.923a4.972 4.972 0 100-9.945 4.972 4.972 0 000 9.945zm0-7.956a2.983 2.983 0 110 5.967 2.983 2.983 0 010-5.967zM1.592 21.894a.994.994 0 00-1.15.81A30.12 30.12 0 000 27.845a.995.995 0 001.989 0c0-1.61.138-3.216.412-4.802a.994.994 0 00-.81-1.15zM1.6 33.842a.995.995 0 00-.725 1.204c.26 1.046.575 2.076.946 3.088a.995.995 0 101.867-.686 27.744 27.744 0 01-.882-2.88.995.995 0 00-1.205-.726zm2.868 7.772a.995.995 0 00-.352 1.362c.476.807.996 1.601 1.546 2.36a.993.993 0 001.657-.06.994.994 0 00-.046-1.107c-.514-.709-1-1.45-1.443-2.203a.994.994 0 00-1.362-.352zm7.224 7.356a.994.994 0 10-1.296 1.509 29.996 29.996 0 004.309 3.086.995.995 0 001.01-1.713 28.01 28.01 0 01-4.023-2.881zm45.925-19.202a28.078 28.078 0 01-.347 2.88.993.993 0 101.96.341 30.21 30.21 0 00.372-3.086.995.995 0 00-1.985-.135zm.589-11.181a.994.994 0 00-1.89.617c.51 1.564.879 3.17 1.104 4.8a.996.996 0 001.97-.272 29.734 29.734 0 00-1.184-5.145zM52.468 8.406a.995.995 0 10-1.508 1.297 27.918 27.918 0 013.842 5.795.996.996 0 101.782-.882 29.894 29.894 0 00-4.116-6.21z" fill="#606060"/></svg>