<svg width="31" height="31" fill="none" xmlns="http://www.w3.org/2000/svg"><g clip-path="url(#clip0_350:2402)"><path d="M26.987 0H4.447A3.76 3.76 0 00.688 3.757v22.54a3.76 3.76 0 003.757 3.757h22.54a3.76 3.76 0 003.758-3.757V3.757A3.76 3.76 0 0026.986 0z" fill="#fff"/><path d="M26.047 15.027H21.35V11.27c0-1.037.841-.939 1.878-.939h1.879V5.635H21.35a5.635 5.635 0 00-5.635 5.635v3.757h-3.757v4.696h3.757v10.331h5.635v-10.33h2.817l1.879-4.697z" fill="#01565E"/></g><defs><clipPath id="clip0_350:2402"><path fill="#fff" transform="translate(.69)" d="M0 0h30.054v30.054H0z"/></clipPath></defs></svg>