<svg width="19" height="17" viewBox="0 0 19 17" fill="none" xmlns="http://www.w3.org/2000/svg">
<path fill-rule="evenodd" clip-rule="evenodd" d="M18.6818 1.50734C18.9038 1.90791 18.9801 2.47584 18.6839 2.97943L18.5036 3.28599C15.7529 7.96315 12.5991 12.3086 9.08007 16.2692C8.61527 16.7923 7.95239 16.7653 7.50607 16.5087C7.06945 16.2576 6.74208 15.7525 6.7708 15.1461L7.03663 9.53189C7.06601 8.91141 6.71651 8.2969 6.21041 8.02762L1.42066 5.47915C0.880795 5.1919 0.636159 4.63543 0.644403 4.13956C0.652684 3.64153 0.936941 3.03506 1.61224 2.87057C6.64907 1.64375 11.8243 0.939848 17.0749 0.766975L17.4189 0.755651C18.0139 0.736059 18.4604 1.10782 18.6818 1.50734ZM17.384 2.25759L17.1231 2.26618C12.0876 2.43197 7.12499 3.09548 2.29256 4.2485L6.89976 6.69984C7.93263 7.2494 8.57267 8.42032 8.51663 9.6037L8.26382 14.9431C11.6022 11.1438 14.6027 6.98667 17.2305 2.51863L17.384 2.25759Z" fill="#FD780F"/>
</svg>
