<svg width="23" height="21" fill="none" xmlns="http://www.w3.org/2000/svg"><path fill-rule="evenodd" clip-rule="evenodd" d="M4.45 5.505a4.845 4.845 0 119.69 0 4.845 4.845 0 01-9.69 0zM9.297 2.37a3.135 3.135 0 100 6.27 3.135 3.135 0 000-6.27zM.46 16.335a4.275 4.275 0 014.276-4.275h.389c.21 0 .419.033.619.099l.986.322a8.265 8.265 0 005.131 0l.987-.322c.2-.066.409-.099.62-.099h.388a4.275 4.275 0 014.275 4.275v1.355c0 .858-.622 1.59-1.47 1.729a45.709 45.709 0 01-14.73 0 1.752 1.752 0 01-1.47-1.73v-1.354zm4.276-2.565a2.565 2.565 0 00-2.565 2.565v1.355c0 .02.015.038.035.041a43.98 43.98 0 0014.18 0 .042.042 0 00.035-.041v-1.355a2.565 2.565 0 00-2.565-2.565h-.389a.29.29 0 00-.088.014l-.987.322a9.974 9.974 0 01-6.192 0l-.987-.322a.286.286 0 00-.088-.014h-.39z" fill="#FD780F"/><path d="M18.986 4.08c.472 0 .855.383.855.855V6.93h1.995a.855.855 0 110 1.71H19.84v1.995a.855.855 0 01-1.71 0V8.64h-1.995a.855.855 0 010-1.71h1.995V4.935c0-.472.383-.855.855-.855z" fill="#FD780F"/></svg>