<svg width="19" height="24" fill="none" xmlns="http://www.w3.org/2000/svg"><path fill-rule="evenodd" clip-rule="evenodd" d="M4.25 10.215c0-2.99 2.271-5.415 5.072-5.415s5.072 2.425 5.072 5.415-2.271 5.415-5.072 5.415c-2.8 0-5.072-2.424-5.072-5.415zM9.322 6.51c-1.916 0-3.47 1.659-3.47 3.705 0 2.046 1.554 3.705 3.47 3.705 1.917 0 3.47-1.659 3.47-3.705 0-2.046-1.553-3.705-3.47-3.705z" fill="#FD780F"/><path fill-rule="evenodd" clip-rule="evenodd" d="M.273 8.912C.65 4.012 4.486.24 9.09.24h.462c4.605 0 8.44 3.772 8.819 8.672.203 2.632-.559 5.246-2.125 7.291l-5.117 6.683c-.935 1.22-2.681 1.22-3.616 0l-5.117-6.683C.83 14.158.069 11.544.273 8.913zM9.09 1.95c-3.77 0-6.91 3.09-7.22 7.103-.17 2.19.464 4.366 1.768 6.068l5.117 6.682a.705.705 0 001.136 0l5.117-6.682c1.304-1.702 1.938-3.878 1.768-6.068-.31-4.014-3.45-7.103-7.222-7.103H9.09z" fill="#FD780F"/></svg>