<svg width="23" height="23" fill="none" xmlns="http://www.w3.org/2000/svg"><g clip-path="url(#clip0_25:2284)"><path d="M5.627 21.602a1.152 1.152 0 01-1.122-1.408L5.9 14.056 1.173 9.912a1.15 1.15 0 01.653-2.015l6.253-.568 2.472-5.785a1.151 1.151 0 012.117 0l2.472 5.785 6.252.568c.46.042.848.353.99.792.143.438.011.92-.336 1.223l-4.726 4.143 1.394 6.138A1.15 1.15 0 0117 21.437l-5.392-3.222-5.391 3.224a1.153 1.153 0 01-.59.163zm5.982-4.775c.205 0 .408.055.59.163l5.089 3.043-1.315-5.793a1.151 1.151 0 01.365-1.122L20.8 9.205l-5.904-.536a1.15 1.15 0 01-.957-.698l-2.33-5.46-2.333 5.46c-.164.39-.53.657-.954.696l-5.904.536 4.462 3.913c.32.28.46.71.365 1.123L5.93 20.032l5.088-3.042c.182-.108.385-.163.59-.163zM8.031 7.44l-.001.002V7.44zm7.155-.002z" fill="#FD780F"/></g><defs><clipPath id="clip0_25:2284"><path fill="#fff" transform="translate(.78 .38)" d="M0 0h21.66v21.66H0z"/></clipPath></defs></svg>