<svg width="156" height="148" fill="none" xmlns="http://www.w3.org/2000/svg"><g clip-path="url(#clip0_117:2771)"><path d="M105.128 36.586c-6.567 1.279-15.787 3.955-20.319 5.882-6.504 2.773-11.514 3.524-23.296 3.54-15 .008-24.996 1.74-34.45 5.953-6.033 2.686-7.226 4.218-6.326 8.122.573 2.512-.272 3.925-7.39 12.166C.813 86.753.104 94.566 10.854 99.624c7.395 3.488 10.143 3.21 12.457-1.238 2.498-4.792-1.555-7.746-5.008-3.653-3.337 3.946-6.559 1.138-5.84-5.105.509-4.504 1.446-6.075 7.85-13.231 4.323-4.84 7.799-7.792 8.578-7.294.712.45 2.598 3.054 4.12 5.654 3.66 6.283 11.447 11.312 18.91 12.225 4.454.542 7.026-.127 10.886-2.832 4.983-3.474 5.08-3.673 6.685-12.38 2.826-15.386 5.19-16.534 13.032-6.347 6.018 7.8 13.921 12.465 19.773 11.647 2.05-.287 6.543-2.073 10.002-3.96 7.042-3.873 9.761-8.556 8.962-15.411-.262-2.303.124-5.027.896-6.2 1.365-2.07 1.427-2.04 8.237 5.263 3.787 4.057 7.145 8.15 7.478 9.124.896 2.569-.62 6.508-2.863 7.44-1.589.657-1.88.47-1.931-1.235-.091-3.465-4.633-4.326-7.112-1.35-1.782 2.142-1.753 3.301.155 5.8 1.301 1.71 3.767 3.597 5.411 4.17 4.362 1.511 11.681-1.993 14.317-6.849 1.956-3.622 1.734-4.572-2.682-11.37-2.647-4.078-7.458-9.476-10.683-11.997-3.947-3.076-5.92-5.535-6.039-7.506-.12-1.972-1.652-3.866-4.721-5.832-4.079-2.62-5.841-2.67-16.596-.571z" fill="#ED6F00"/><path d="M99.215 47.547c-7.72 1.454-14.428 3.302-14.968 4.124-1.44 2.194 4.194 13.024 8.055 15.494 3.645 2.32 8.64 3.097 12.277 1.906 5.309-1.735 9.815-12.284 8.945-20.898-.318-3.126-.883-3.157-14.309-.626zm-53.366 8.188L32.57 57.903l1.566 5.477c1.857 6.503 7.375 13.232 12.283 14.968 4.325 1.522 11.734-1.664 14.835-6.378 2.747-4.177 2.61-15.288-.213-17.133-1.047-.701-7.973-.28-15.192.898z" fill="#1D3451"/></g><defs><clipPath id="clip0_117:2771"><path fill="#fff" transform="rotate(26.077 23.078 99.657)" d="M0 0h122v105H0z"/></clipPath></defs></svg>