<svg width="34" height="48" fill="none" xmlns="http://www.w3.org/2000/svg"><path fill-rule="evenodd" clip-rule="evenodd" d="M13.498.61A1.751 1.751 0 0115.22.044c8.462 1.957 12.74 11.297 11.734 19.654-.391 3.248-1.357 5.795-2.78 7.821l-.026.038c.323-.16.621-.333.9-.515 1.388-.908 2.407-2.105 3.733-3.665l.496-.581a1.752 1.752 0 012.9.357A17.16 17.16 0 0134 30.876C34 40.333 26.389 48 17 48S0 40.333 0 30.876a17.142 17.142 0 017.678-14.321l.158-.161c.081-.083.17-.157.267-.222 2.03-1.376 3.488-2.502 4.47-3.825.926-1.25 1.496-2.776 1.496-5.09 0-1.713-.314-3.348-.886-4.852a1.781 1.781 0 01.315-1.796zm3.903 4.116c.122.826.185 1.672.185 2.531 0 2.996-.768 5.285-2.196 7.21-1.34 1.808-3.196 3.196-5.18 4.546l-.169.172a1.76 1.76 0 01-.3.244 13.593 13.593 0 00-6.224 11.447c0 7.5 6.037 13.581 13.483 13.581 7.446 0 13.483-6.08 13.483-13.58 0-1.229-.162-2.417-.464-3.546-.891.973-1.875 1.91-3.057 2.683-2.165 1.416-4.874 2.224-8.79 2.224a1.761 1.761 0 01-1.703-1.33c-.2-.783.152-1.603.855-1.993 1.591-.884 2.94-1.963 3.977-3.44 1.035-1.474 1.828-3.441 2.16-6.203.72-5.977-1.736-11.877-6.06-14.546z" fill="#FD780F"/></svg>