<svg width="31" height="31" fill="none" xmlns="http://www.w3.org/2000/svg"><path d="M10.019 15.027a5.009 5.009 0 115.008 5.01 5.009 5.009 0 01-5.008-5.01zm-2.708 0a7.716 7.716 0 1015.432 0 7.716 7.716 0 00-15.432 0zm13.934-8.022a1.802 1.802 0 101.804-1.803 1.804 1.804 0 00-1.803 1.803zM8.957 27.259c-1.465-.067-2.261-.311-2.79-.517a4.67 4.67 0 01-1.729-1.124 4.636 4.636 0 01-1.124-1.728c-.206-.529-.45-1.325-.517-2.79-.073-1.584-.087-2.06-.087-6.073s.015-4.487.087-6.073c.067-1.465.313-2.26.517-2.79a4.67 4.67 0 011.124-1.729 4.631 4.631 0 011.729-1.124c.528-.206 1.325-.45 2.79-.517 1.584-.072 2.06-.087 6.071-.087 4.011 0 4.488.016 6.073.087 1.465.067 2.26.313 2.79.517a4.655 4.655 0 011.729 1.124c.526.526.85 1.027 1.124 1.729.206.529.45 1.325.517 2.79.073 1.586.087 2.06.087 6.073s-.014 4.488-.087 6.073c-.067 1.465-.312 2.261-.517 2.79a4.655 4.655 0 01-1.124 1.728 4.67 4.67 0 01-1.729 1.124c-.529.206-1.325.45-2.79.517-1.584.072-2.06.087-6.073.087s-4.487-.015-6.07-.087zM8.832.09c-1.6.073-2.693.327-3.648.698a7.37 7.37 0 00-2.662 1.733A7.342 7.342 0 00.79 5.184C.418 6.14.164 7.232.091 8.832.017 10.434 0 10.946 0 15.027c0 4.08.017 4.593.091 6.195.073 1.6.327 2.693.698 3.648a7.346 7.346 0 001.733 2.662 7.388 7.388 0 002.662 1.733c.957.372 2.048.625 3.648.698 1.603.073 2.114.091 6.195.091 4.08 0 4.593-.017 6.195-.091 1.6-.073 2.693-.326 3.648-.698a7.39 7.39 0 002.662-1.733 7.362 7.362 0 001.733-2.662c.372-.955.626-2.048.698-3.648.073-1.603.09-2.114.09-6.195 0-4.08-.017-4.593-.09-6.195-.073-1.6-.326-2.693-.698-3.648a7.39 7.39 0 00-1.733-2.662A7.353 7.353 0 0024.872.79c-.957-.371-2.05-.626-3.648-.698C19.62.018 19.109 0 15.028 0c-4.08 0-4.593.017-6.196.091z" fill="#fff"/></svg>