<svg width="33" height="34" fill="none" xmlns="http://www.w3.org/2000/svg"><mask id="a" maskUnits="userSpaceOnUse" x="-1" y="-1" width="35" height="36" fill="#000"><path fill="#fff" d="M-1-1h35v36H-1z"/><path d="M32.99 27.37v-8.618h-1.738s-.082-.02-.123-.02c-.158 0-.453.02-.453.02h-1.271v-.424c0-.057.007-.77-.488-1.239-.26-.252-.61-.379-1.037-.385-.425 0-.769.12-1.03.36a1.441 1.441 0 00-.206.247v-.714h-.199c-.034-.354-.158-.967-.584-1.378-.274-.266-.632-.398-1.058-.405-.171 0-.33.026-.487.07v-4.399h.24v-.941l.028-.228c.014-.082.254-1.997-.227-3.551-1.23-3.994-6.222-4.76-7.527-4.892L16.775 0h-.577l-.055.878c-1.408.152-6.229.961-7.438 4.88-.467 1.51-.254 3.349-.226 3.532l-.007 1.188h.226v4.386a1.561 1.561 0 00-.625-.107c-.432.006-.796.145-1.078.417-.446.423-.57 1.061-.604 1.415h-.144v.803a1.329 1.329 0 00-.268-.354c-.254-.234-.59-.348-.975-.348-.399.007-.728.127-.976.367-.494.474-.48 1.226-.48 1.264v.417H.01c-.061.17.165 14.687.2 15.262h32.787c.02-.354-.007-1.068-.007-1.068v-5.561zm-5.728-9.934c.151-.139.357-.209.611-.202.268 0 .474.076.625.221.186.177.261.417.296.607h-1.84c.04-.196.116-.455.308-.626zm-2.122 1.131v1.517h-.687v-1.517h-.577v1.517h-.288v-2.958h2.48v2.958h-.351v-1.517h-.577zm-3.317.291v1.226h-.172v-1.226h-1.16v1.226h-.172v-1.226h-1.16v1.226h-.172v-1.226h-1.161v1.226h-.172v-1.226h-1.16v1.226h-.172v-1.226h-1.16v1.226h-.173v-1.226h-1.16v1.226h-.172v-1.226h-1.16v1.226h-.172v-1.226h-1.161v1.226h-.172v-1.226H9.893v-.828h13.118v2.054h-.027v-1.226h-1.161zM9.275 10.484h5.886c-1.566.297-4.155 1.138-5.26 3.514-.234.493-.372 1.043-.46 1.53a1.426 1.426 0 00-.173-.24v-4.804h.007zm-.226-.53v-.405h7.19l-.027.405H9.049zm.838 7.539v-.367H23.01v.367H9.887zm.006-.897c.028-.487.145-1.543.536-2.39 1.463-3.134 5.975-3.349 6.003-3.349h.075c.172.007 4.574.26 6.01 3.35.391.84.5 1.896.535 2.389H9.893zm6.937-7.053h7.15v.404h-7.122l-.028-.404zm6.222 4.455c-1.105-2.376-3.695-3.217-5.26-3.514h5.947V15.2c-.096.088-.172.19-.233.29a5.968 5.968 0 00-.454-1.49zm1.745 1.346c.453.007.762.24.94.708.076.196.11.392.131.544H23.74c.034-.291.13-.759.433-1.03.158-.152.37-.222.625-.222zM9.262 5.903c1.25-4.051 6.785-4.494 7.266-4.525.48.031 6.037.467 7.287 4.525.35 1.15.281 2.56.233 3.109H9.028c-.048-.55-.117-1.96.234-3.11zM7.105 16.027c.186-.487.508-.727.975-.733a.905.905 0 01.66.227c.309.285.412.771.446 1.075H6.975c.013-.159.048-.367.13-.57zm-.281 1.1h2.479v2.957h-.316v-1.517H8.41v1.517h-.687v-1.517h-.577v1.517h-.322v-2.958zm-2.377.31a.797.797 0 01.563-.203c.248 0 .412.057.557.183.192.177.268.442.302.638H4.152c.027-.19.11-.442.295-.619zm-.323 1.156H6v1.491h-.295v-1.333h-1.58v-.158zm.426 14.339H1.055v-13.12h3.488v13.12h.007zm6.56 0H7.035v-3.223l.522-.373-.075-.183c-.007-.013-.412-1.005-.344-1.858.083-1.075 1.587-1.51 1.917-1.593.336.082 1.902.518 1.991 1.593.069.847-.35 1.845-.35 1.858l-.076.183.502.373v3.223h-.014zm8.488 0H13.41V29.02l.755-.442-.11-.215c-.006-.013-.604-1.188-.501-2.193.13-1.34 2.534-1.858 2.919-1.934.391.076 2.891.594 3.022 1.934.096.998-.509 2.18-.515 2.193l-.11.208.728.443v3.918zm6.366 0h-4.072v-3.223l.515-.373-.076-.183c-.007-.013-.412-1.011-.343-1.858.082-1.075 1.586-1.51 1.916-1.593.336.082 1.902.512 1.991 1.593.07.847-.35 1.845-.35 1.858l-.075.183.501.373v3.223h-.007zm1.223 0h-.639V29.45l-.391-.29c.13-.355.377-1.164.322-1.903-.123-1.593-2.41-2.067-2.506-2.086l-.07-.019-.061.013c-.096.019-2.3.493-2.431 2.086-.062.739.185 1.542.309 1.902l-.412.297v3.482h-1.14v-4.203l-.577-.347c.185-.417.556-1.372.467-2.256-.179-1.852-3.413-2.402-3.55-2.42l-.049-.007-.048.006c-.13.026-3.262.569-3.44 2.42-.09.88.274 1.833.453 2.257l-.598.347v4.21h-1.14v-3.483l-.392-.29c.131-.355.378-1.163.323-1.903-.123-1.592-2.41-2.066-2.506-2.085l-.062-.013-.062.013c-.096.019-2.3.493-2.431 2.085-.062.74.185 1.542.309 1.902l-.405.285v3.482h-.756V20.615H27.18v12.317h.007zm0-12.848h-.296v-1.491h1.937v.158h-1.641v1.333zm4.65 12.848h-3.49v-13.12h3.49v13.12z"/></mask><path d="M32.99 27.37v-8.618h-1.738s-.082-.02-.123-.02c-.158 0-.453.02-.453.02h-1.271v-.424c0-.057.007-.77-.488-1.239-.26-.252-.61-.379-1.037-.385-.425 0-.769.12-1.03.36a1.441 1.441 0 00-.206.247v-.714h-.199c-.034-.354-.158-.967-.584-1.378-.274-.266-.632-.398-1.058-.405-.171 0-.33.026-.487.07v-4.399h.24v-.941l.028-.228c.014-.082.254-1.997-.227-3.551-1.23-3.994-6.222-4.76-7.527-4.892L16.775 0h-.577l-.055.878c-1.408.152-6.229.961-7.438 4.88-.467 1.51-.254 3.349-.226 3.532l-.007 1.188h.226v4.386a1.561 1.561 0 00-.625-.107c-.432.006-.796.145-1.078.417-.446.423-.57 1.061-.604 1.415h-.144v.803a1.329 1.329 0 00-.268-.354c-.254-.234-.59-.348-.975-.348-.399.007-.728.127-.976.367-.494.474-.48 1.226-.48 1.264v.417H.01c-.061.17.165 14.687.2 15.262h32.787c.02-.354-.007-1.068-.007-1.068v-5.561zm-5.728-9.934c.151-.139.357-.209.611-.202.268 0 .474.076.625.221.186.177.261.417.296.607h-1.84c.04-.196.116-.455.308-.626zm-2.122 1.131v1.517h-.687v-1.517h-.577v1.517h-.288v-2.958h2.48v2.958h-.351v-1.517h-.577zm-3.317.291v1.226h-.172v-1.226h-1.16v1.226h-.172v-1.226h-1.16v1.226h-.172v-1.226h-1.161v1.226h-.172v-1.226h-1.16v1.226h-.172v-1.226h-1.16v1.226h-.173v-1.226h-1.16v1.226h-.172v-1.226h-1.16v1.226h-.172v-1.226h-1.161v1.226h-.172v-1.226H9.893v-.828h13.118v2.054h-.027v-1.226h-1.161zM9.275 10.484h5.886c-1.566.297-4.155 1.138-5.26 3.514-.234.493-.372 1.043-.46 1.53a1.426 1.426 0 00-.173-.24v-4.804h.007zm-.226-.53v-.405h7.19l-.027.405H9.049zm.838 7.539v-.367H23.01v.367H9.887zm.006-.897c.028-.487.145-1.543.536-2.39 1.463-3.134 5.975-3.349 6.003-3.349h.075c.172.007 4.574.26 6.01 3.35.391.84.5 1.896.535 2.389H9.893zm6.937-7.053h7.15v.404h-7.122l-.028-.404zm6.222 4.455c-1.105-2.376-3.695-3.217-5.26-3.514h5.947V15.2c-.096.088-.172.19-.233.29a5.968 5.968 0 00-.454-1.49zm1.745 1.346c.453.007.762.24.94.708.076.196.11.392.131.544H23.74c.034-.291.13-.759.433-1.03.158-.152.37-.222.625-.222zM9.262 5.903c1.25-4.051 6.785-4.494 7.266-4.525.48.031 6.037.467 7.287 4.525.35 1.15.281 2.56.233 3.109H9.028c-.048-.55-.117-1.96.234-3.11zM7.105 16.027c.186-.487.508-.727.975-.733a.905.905 0 01.66.227c.309.285.412.771.446 1.075H6.975c.013-.159.048-.367.13-.57zm-.281 1.1h2.479v2.957h-.316v-1.517H8.41v1.517h-.687v-1.517h-.577v1.517h-.322v-2.958zm-2.377.31a.797.797 0 01.563-.203c.248 0 .412.057.557.183.192.177.268.442.302.638H4.152c.027-.19.11-.442.295-.619zm-.323 1.156H6v1.491h-.295v-1.333h-1.58v-.158zm.426 14.339H1.055v-13.12h3.488v13.12h.007zm6.56 0H7.035v-3.223l.522-.373-.075-.183c-.007-.013-.412-1.005-.344-1.858.083-1.075 1.587-1.51 1.917-1.593.336.082 1.902.518 1.991 1.593.069.847-.35 1.845-.35 1.858l-.076.183.502.373v3.223h-.014zm8.488 0H13.41V29.02l.755-.442-.11-.215c-.006-.013-.604-1.188-.501-2.193.13-1.34 2.534-1.858 2.919-1.934.391.076 2.891.594 3.022 1.934.096.998-.509 2.18-.515 2.193l-.11.208.728.443v3.918zm6.366 0h-4.072v-3.223l.515-.373-.076-.183c-.007-.013-.412-1.011-.343-1.858.082-1.075 1.586-1.51 1.916-1.593.336.082 1.902.512 1.991 1.593.07.847-.35 1.845-.35 1.858l-.075.183.501.373v3.223h-.007zm1.223 0h-.639V29.45l-.391-.29c.13-.355.377-1.164.322-1.903-.123-1.593-2.41-2.067-2.506-2.086l-.07-.019-.061.013c-.096.019-2.3.493-2.431 2.086-.062.739.185 1.542.309 1.902l-.412.297v3.482h-1.14v-4.203l-.577-.347c.185-.417.556-1.372.467-2.256-.179-1.852-3.413-2.402-3.55-2.42l-.049-.007-.048.006c-.13.026-3.262.569-3.44 2.42-.09.88.274 1.833.453 2.257l-.598.347v4.21h-1.14v-3.483l-.392-.29c.131-.355.378-1.163.323-1.903-.123-1.592-2.41-2.066-2.506-2.085l-.062-.013-.062.013c-.096.019-2.3.493-2.431 2.085-.062.74.185 1.542.309 1.902l-.405.285v3.482h-.756V20.615H27.18v12.317h.007zm0-12.848h-.296v-1.491h1.937v.158h-1.641v1.333zm4.65 12.848h-3.49v-13.12h3.49v13.12z" fill="#fff"/><path d="M32.99 27.37v-8.618h-1.738s-.082-.02-.123-.02c-.158 0-.453.02-.453.02h-1.271v-.424c0-.057.007-.77-.488-1.239-.26-.252-.61-.379-1.037-.385-.425 0-.769.12-1.03.36a1.441 1.441 0 00-.206.247v-.714h-.199c-.034-.354-.158-.967-.584-1.378-.274-.266-.632-.398-1.058-.405-.171 0-.33.026-.487.07v-4.399h.24v-.941l.028-.228c.014-.082.254-1.997-.227-3.551-1.23-3.994-6.222-4.76-7.527-4.892L16.775 0h-.577l-.055.878c-1.408.152-6.229.961-7.438 4.88-.467 1.51-.254 3.349-.226 3.532l-.007 1.188h.226v4.386a1.561 1.561 0 00-.625-.107c-.432.006-.796.145-1.078.417-.446.423-.57 1.061-.604 1.415h-.144v.803a1.329 1.329 0 00-.268-.354c-.254-.234-.59-.348-.975-.348-.399.007-.728.127-.976.367-.494.474-.48 1.226-.48 1.264v.417H.01c-.061.17.165 14.687.2 15.262h32.787c.02-.354-.007-1.068-.007-1.068v-5.561zm-5.728-9.934c.151-.139.357-.209.611-.202.268 0 .474.076.625.221.186.177.261.417.296.607h-1.84c.04-.196.116-.455.308-.626zm-2.122 1.131v1.517h-.687v-1.517h-.577v1.517h-.288v-2.958h2.48v2.958h-.351v-1.517h-.577zm-3.317.291v1.226h-.172v-1.226h-1.16v1.226h-.172v-1.226h-1.16v1.226h-.172v-1.226h-1.161v1.226h-.172v-1.226h-1.16v1.226h-.172v-1.226h-1.16v1.226h-.173v-1.226h-1.16v1.226h-.172v-1.226h-1.16v1.226h-.172v-1.226h-1.161v1.226h-.172v-1.226H9.893v-.828h13.118v2.054h-.027v-1.226h-1.161zM9.275 10.484h5.886c-1.566.297-4.155 1.138-5.26 3.514-.234.493-.372 1.043-.46 1.53a1.426 1.426 0 00-.173-.24v-4.804h.007zm-.226-.53v-.405h7.19l-.027.405H9.049zm.838 7.539v-.367H23.01v.367H9.887zm.006-.897c.028-.487.145-1.543.536-2.39 1.463-3.134 5.975-3.349 6.003-3.349h.075c.172.007 4.574.26 6.01 3.35.391.84.5 1.896.535 2.389H9.893zm6.937-7.053h7.15v.404h-7.122l-.028-.404zm6.222 4.455c-1.105-2.376-3.695-3.217-5.26-3.514h5.947V15.2c-.096.088-.172.19-.233.29a5.968 5.968 0 00-.454-1.49zm1.745 1.346c.453.007.762.24.94.708.076.196.11.392.131.544H23.74c.034-.291.13-.759.433-1.03.158-.152.37-.222.625-.222zM9.262 5.903c1.25-4.051 6.785-4.494 7.266-4.525.48.031 6.037.467 7.287 4.525.35 1.15.281 2.56.233 3.109H9.028c-.048-.55-.117-1.96.234-3.11zM7.105 16.027c.186-.487.508-.727.975-.733a.905.905 0 01.66.227c.309.285.412.771.446 1.075H6.975c.013-.159.048-.367.13-.57zm-.281 1.1h2.479v2.957h-.316v-1.517H8.41v1.517h-.687v-1.517h-.577v1.517h-.322v-2.958zm-2.377.31a.797.797 0 01.563-.203c.248 0 .412.057.557.183.192.177.268.442.302.638H4.152c.027-.19.11-.442.295-.619zm-.323 1.156H6v1.491h-.295v-1.333h-1.58v-.158zm.426 14.339H1.055v-13.12h3.488v13.12h.007zm6.56 0H7.035v-3.223l.522-.373-.075-.183c-.007-.013-.412-1.005-.344-1.858.083-1.075 1.587-1.51 1.917-1.593.336.082 1.902.518 1.991 1.593.069.847-.35 1.845-.35 1.858l-.076.183.502.373v3.223h-.014zm8.488 0H13.41V29.02l.755-.442-.11-.215c-.006-.013-.604-1.188-.501-2.193.13-1.34 2.534-1.858 2.919-1.934.391.076 2.891.594 3.022 1.934.096.998-.509 2.18-.515 2.193l-.11.208.728.443v3.918zm6.366 0h-4.072v-3.223l.515-.373-.076-.183c-.007-.013-.412-1.011-.343-1.858.082-1.075 1.586-1.51 1.916-1.593.336.082 1.902.512 1.991 1.593.07.847-.35 1.845-.35 1.858l-.075.183.501.373v3.223h-.007zm1.223 0h-.639V29.45l-.391-.29c.13-.355.377-1.164.322-1.903-.123-1.593-2.41-2.067-2.506-2.086l-.07-.019-.061.013c-.096.019-2.3.493-2.431 2.086-.062.739.185 1.542.309 1.902l-.412.297v3.482h-1.14v-4.203l-.577-.347c.185-.417.556-1.372.467-2.256-.179-1.852-3.413-2.402-3.55-2.42l-.049-.007-.048.006c-.13.026-3.262.569-3.44 2.42-.09.88.274 1.833.453 2.257l-.598.347v4.21h-1.14v-3.483l-.392-.29c.131-.355.378-1.163.323-1.903-.123-1.592-2.41-2.066-2.506-2.085l-.062-.013-.062.013c-.096.019-2.3.493-2.431 2.085-.062.74.185 1.542.309 1.902l-.405.285v3.482h-.756V20.615H27.18v12.317h.007zm0-12.848h-.296v-1.491h1.937v.158h-1.641v1.333zm4.65 12.848h-3.49v-13.12h3.49v13.12z" stroke="#fff" stroke-width="1.4" mask="url(#a)"/></svg>