<svg width="31" height="30" fill="none" xmlns="http://www.w3.org/2000/svg"><path fill-rule="evenodd" clip-rule="evenodd" d="M4.735 11.428a28.694 28.694 0 0014.869 14.437l.02.01 1.274.567a3.75 3.75 0 004.566-1.23l2.123-2.94a.417.417 0 00-.076-.567l-3.708-2.992a.417.417 0 00-.596.076l-1.443 1.948a1.25 1.25 0 01-1.52.394A22.312 22.312 0 019.128 10.014a1.25 1.25 0 01.394-1.52l1.947-1.442a.417.417 0 00.077-.597L8.554 2.747a.417.417 0 00-.568-.076L5.03 4.804a3.75 3.75 0 00-1.219 4.593l.923 2.028v.003zm13.882 16.735A31.194 31.194 0 012.462 12.469l-.002-.005-.924-2.033a6.25 6.25 0 012.03-7.654L6.523.644a2.917 2.917 0 013.978.533l2.991 3.709a2.917 2.917 0 01-.533 4.174l-1.116.827a19.818 19.818 0 008.53 8.53l.826-1.116a2.917 2.917 0 014.175-.534l3.708 2.992a2.917 2.917 0 01.533 3.978l-2.124 2.94a6.25 6.25 0 01-7.61 2.048l-1.263-.563z" fill="#fff"/></svg>