<svg width="20" height="20" fill="none" xmlns="http://www.w3.org/2000/svg"><path fill-rule="evenodd" clip-rule="evenodd" d="M2.576 7.77a19.664 19.664 0 0010.187 9.898l.015.006.872.39a2.568 2.568 0 003.128-.843l1.455-2.015a.286.286 0 00-.052-.39l-2.54-2.05a.285.285 0 00-.41.052l-.988 1.335a.856.856 0 01-1.04.27 15.291 15.291 0 01-7.617-7.62.857.857 0 01.27-1.043l1.334-.989a.286.286 0 00.052-.409L5.192 1.82a.285.285 0 00-.389-.052L2.78 3.23a2.572 2.572 0 00-.835 3.148l.631 1.39.001.002zm9.511 11.473A21.377 21.377 0 011.02 8.485l-.002-.003-.633-1.394a4.286 4.286 0 011.392-5.247L3.801.378a1.997 1.997 0 012.725.366l2.05 2.542a2 2 0 01-.366 2.862l-.764.567a13.582 13.582 0 005.843 5.847l.567-.765a1.998 1.998 0 012.86-.366l2.54 2.051a2 2 0 01.365 2.727l-1.455 2.015a4.28 4.28 0 01-5.213 1.405l-.866-.386z" fill="#FD780F"/></svg>