<svg width="90" height="79" fill="none" xmlns="http://www.w3.org/2000/svg"><g clip-path="url(#clip0_53:1409)" fill="#FD780F"><path d="M20.847 75.693c-.497.25-1.12.08-1.391-.372L3.59 48.656c-.272-.457-.087-1.032.41-1.281l8.244-4.158-1.663-2.797-8.25 4.158C.162 45.673-.636 48.193.554 50.193l15.859 26.659C17.227 78.224 18.769 79 20.356 79c.728 0 1.467-.165 2.148-.51l8.267-4.169-1.663-2.797-8.261 4.169zm67.917-52.511L66.006 1.276C65.168.468 64.043.016 62.83 0h-.07c-1.183 0-2.297.42-3.145 1.186L23.438 33.928l-9.335 4.71 1.662 2.797 47.468-23.953c.497-.25 1.12-.085 1.392.378l15.859 26.66c.271.456.087 1.03-.41 1.28L32.566 69.776l1.663 2.797 47.52-23.975c2.171-1.095 2.968-3.615 1.779-5.614l-3.603-6.056 8.746-7.939c1.738-1.579 1.779-4.179.093-5.806zm-2.523 3.536l-8.048 7.3-10.525-17.695c-1.19-1.999-3.926-2.733-6.096-1.637L34.61 28.292l27.435-24.83c.196-.181.48-.288.733-.272.277.006.537.107.728.293l22.758 21.906a.906.906 0 01-.023 1.329zM15.766 41.807L12.73 43.34l2.768 4.653 3.038-1.532-2.769-4.654zm4.401 7.39l-3.038 1.532 3.046 5.12 3.038-1.532-3.046-5.12zm4.67 7.848l-3.038 1.533 3.046 5.12 3.038-1.533-3.046-5.12zM29.51 64.9l-3.037 1.534 2.768 4.653 3.038-1.533-2.768-4.653z"/><path d="M52.582 30.918l-.277-.361a.597.597 0 00-.675-.181l-.445.165c-1.04.383-1.819 1.201-2.096 2.201l-1.986 5.971-12.874 4.53-.762 2.403 11.997-1.324-1.669 7.7-3.163 1.983-.37 1.159 4.035-.521 3.095 2.44.37-1.159-1.594-3.137 3.147-7.47 9.37 7.114.762-2.403-8.222-10.22 1.836-5.992a3.024 3.024 0 00-.479-2.898z"/></g><defs><clipPath id="clip0_53:1409"><path fill="#fff" d="M0 0h90v79H0z"/></clipPath></defs></svg>