<svg width="88" height="88" fill="none" xmlns="http://www.w3.org/2000/svg"><path d="M85.472 50.093a.68.68 0 00.008-.06l-.008.06zm0 0l.245.048m-.245-.048l.245.048m0 0l.245.05m-.245-.05l.245.05m0 0c.008-.04.012-.076.015-.1l-.015.1zm-.467-.262c-.008.04-.012.076-.015.1l.497.059a.691.691 0 01.008-.06l-.245-.05-.245-.049zm-.709 5.136h.193l.049-.187c.386-1.474.69-2.995.912-4.527l-.494-.073a47.181 47.181 0 01-.902 4.475l.233.06v.252h.009zm-1.853-27.693a42.224 42.224 0 00-5.262-8.935l-.198.153-.198.152a41.723 41.723 0 015.2 8.83l.23-.1.228-.1zm2.052 8.043l.486-.117c-.035-.153-.07-.295-.105-.434h0s0 0 0 0l-.243.06-.243.06c.018.069.035.14.052.214h0l.053.217zm-1.423-6.495l-.47.166c.027.097.068.191.1.269l.003.006.47-.168c-.027-.097-.067-.19-.1-.268a.16.16 0 00-.003-.006z" fill="#FD780F" stroke="#FD780F" stroke-width=".5"/><path d="M84.764 54.815c.011 0 .011-.011.011-.011h.25l-.261-.026-.234-.023a.236.236 0 01.102-.15.238.238 0 01.132-.04h-.25v.25l-.002.031a.346.346 0 01-.016.052l.268.12.009-.203h-.01zm0 0a.499.499 0 010 .048v-.048zm-.395-21.877c.02.077.041.15.062.215l.008.028c.018.056.034.107.048.158l.24-.066.242-.066a3.67 3.67 0 00-.053-.176l-.008-.026a3.362 3.362 0 01-.054-.189l-.243.061-.242.06zm1.619 17.073l.105-.827-.248-.03-.248-.032c-.035.28-.07.558-.105.824l.248.033.248.032zm.385-6.776l-.5.012c0 .132.006.264.012.39v.006a8.4 8.4 0 01.011.383h.5v0-.001 0-.001 0-.001 0-.001 0-.001 0-.001 0-.001 0-.001 0-.001 0-.001 0-.001 0-.001 0-.001 0-.001 0-.001 0-.001 0-.001 0-.001 0-.001 0-.001 0-.001 0-.001 0-.001 0-.001 0V44v0-.001 0-.001 0-.001 0-.001 0-.001 0-.001 0-.001 0-.001 0-.001 0-.001 0-.001 0-.001 0-.001 0-.001 0-.001 0-.001 0-.001 0-.001 0-.001 0-.001 0-.001 0-.001 0-.001 0-.001 0-.001 0-.001 0-.001 0-.001 0-.001 0-.001 0-.001 0-.001 0-.001 0-.001 0-.001 0-.001 0-.001 0-.001 0-.001 0-.001 0-.001 0-.001 0-.001 0-.001 0-.001 0-.001 0-.001 0-.001 0-.001 0-.001 0-.001 0-.001 0-.001 0-.001 0-.001 0c0-.24-.012-.477-.023-.708v-.002zm-.095-2.075l-.498.043c.006.109.015.214.023.314v.002c.01.102.018.2.023.3l.5-.013c0-.226-.025-.449-.048-.646zm-2.035-10.327l-.477.151c.02.066.043.127.063.18v.003c.021.057.039.105.054.155l.24-.072.239-.072a5.564 5.564 0 00-.081-.238 5.682 5.682 0 01-.038-.107zm1.642 14.193c0 .176 0 .342-.011.507l.249.017.25.016c.012-.183.012-.364.012-.536v-.004h-.5zm-4.963 19.131l-.322.662.658-.329a.352.352 0 00.159-.158h0l.002-.004c.8-1.683 1.223-2.586 1.621-3.606a43.413 43.413 0 001.94-5.644l-.482-.131a45.972 45.972 0 01-1.05 3.348 41.57 41.57 0 01-.95 2.408h0l-.002.005c-.392.97-.796 1.847-1.574 3.45zm4.732-24.515l.497-.05a4.543 4.543 0 00-.048-.385 7.901 7.901 0 01-.023-.154l-.248.033-.248.033.07.523zm-.001 8.942l.497.057c.024-.178.038-.362.051-.537l.02-.242s0 0 0 0l-.249-.022-.249-.023s0 0 0 0l-.07.767zm.123-11.629l-.494.074c.012.087.028.17.042.248l.004.02c.013.07.026.135.036.2l.247-.038.247-.038c-.012-.08-.028-.161-.042-.239v-.002a7.76 7.76 0 01-.04-.225zm.05 9.487v.002l-.035.613.25.015.25.015.034-.615v-.002l-.25-.014-.249-.014zm-21.193-3.236c.011.213.011.414.011.585v0c0-.196 0-.41-.012-.65l-.5.013v.058h0l.012.582c0-.18 0-.366-.008-.568v-.014l-.003-.045.25-.013m.25.052v0-.001 0-.001 0-.001 0-.001 0-.001 0-.001 0-.001 0-.001 0-.001 0-.001 0-.001 0-.001 0-.001 0-.001 0-.001 0-.001 0-.001 0-.001 0-.001 0-.001 0-.001 0-.001 0-.001 0-.001 0-.001 0-.001 0-.001 0-.001 0-.001 0-.001 0-.001 0-.001 0-.001 0-.001 0-.001 0-.001 0-.001 0-.001 0-.001 0-.001 0-.001 0-.001 0-.001 0-.001 0-.001 0-.001 0-.001 0-.001 0-.001 0-.001 0-.001 0h-.25m.25.05V43.2l-.248.013-.002-.058m.25.052v.006h-.248c.01.21.01.4.01.582 0-.175 0-.372-.012-.582v-.058M64.29 39.8c.245.154.578.408 1.023.789.748.648 1.554 1.802 2.42 3.089l.457.68v-.82 0-.001 0-.001 0-.001 0-.001 0-.001 0-.001 0-.001 0-.001 0-.001 0-.001 0-.001 0-.001 0-.001 0-.001 0-.001 0-.001 0-.001 0-.001 0-.001 0-.001 0-.001 0-.001 0-.001 0-.001 0-.001 0-.001 0-.001 0-.001 0-.001 0-.001 0-.001 0-.001 0-.001 0-.001 0-.001 0-.001 0-.001 0-.001 0-.001 0-.001 0-.001 0-.001 0-.001 0-.001 0-.001 0-.001 0-.001 0-.001 0-.001 0-.001 0-.001 0-.001 0-.001 0-.001 0-.001 0-.001 0-.001 0-.001 0-.001 0-.001 0-.001 0-.001 0-.001 0-.001 0-.001 0-.001 0-.001 0-.001 0-.001 0-.001 0-.001 0-.001 0-.001 0-.001 0-.001 0-.001 0-.001 0-.001 0-.001 0-.001 0-.001 0-.001 0-.001 0-.001 0-.001 0-.001 0-.001 0-.001 0-.001 0-.001 0-.001 0-.001 0-.001 0-.001 0-.001 0-.001 0-.001 0-.001 0-.001 0-.001 0-.001 0-.001 0-.001 0-.001 0-.077l-.043-.064c-.865-1.269-1.71-2.488-2.533-3.178-.462-.392-.824-.666-1.104-.836a1.98 1.98 0 00-.381-.189.643.643 0 00-.357-.03.424.424 0 00-.286.234.743.743 0 00-.062.316c-.002.205.047.465.11.741l.488-.11c-.058-.261-.085-.452-.079-.574l.004-.035.056.018c.07.026.164.074.287.15zM48.494 18.455c.733.058 1.468.172 2.213.289l.039-.247.038-.247-.004-.001c-.741-.116-1.493-.233-2.247-.292l-.02.25-.019.248zM44.797 73.58c-1.363-1.815-1.566-4.319-1.533-6.975a92.6 92.6 0 01.05-1.88l.003-.11c.022-.663.043-1.323.047-1.97.009-1.29-.048-2.539-.302-3.654h0c-.487-2.137-1.352-3.433-2.57-4.245l-.28.415c1.061.721 1.848 1.901 2.292 3.916h0c.235 1.062.287 2.265.273 3.546-.007.639-.03 1.294-.056 1.957 0 .036-.002.073-.004.11-.023.626-.047 1.26-.057 1.89-.045 2.654.135 5.317 1.597 7.287h0c1.037 1.383 2.107 2.001 3.212 1.95l-.01-.5c-.822-.01-1.722-.492-2.662-1.738zm-5.609-46.71l.066.32.291-.146a.43.43 0 00.045-.026l.012-.008.003-.002.2-.067-.045-.217c-.205-.99-.786-1.861-1.536-2.379-.754-.52-1.695-.692-2.58-.234l.221.448c.674-.314 1.404-.178 2.027.267.625.446 1.123 1.192 1.296 2.045zm-4.287 9.948c.33-.175.707-.32 1.122-.432l.256-.07-.084-.25-.012-.036-.075-.227-.23.066a6.39 6.39 0 00-1.174.449h0-.002c-1.984 1.043-3.864 3.206-5.107 5.645-1.242 2.437-1.876 5.205-1.297 7.473l.485-.121c-.515-2.1.067-4.72 1.27-7.088 1.204-2.365 3-4.423 4.848-5.409zm0 0l-.016-.03.016.03zM59.775 46.8l.003.057c.42-.017.808-.019 1.178-.02.241-.001.474-.002.704-.007.564-.013 1.087-.053 1.53-.206.456-.156.828-.431 1.08-.9.247-.458.368-1.081.374-1.917l-.5-.004c-.008.774-.127 1.287-.319 1.63-.185.335-.45.53-.803.65-.365.123-.82.165-1.376.18-.207.006-.43.008-.665.01-.38.003-.791.007-1.214.027a.77.77 0 01-.3-.065 3.612 3.612 0 01-.362-.17 1.53 1.53 0 00-.381-.146.46.46 0 00-.25.019.393.393 0 00-.211.2l-.025.052v.057h.216-.216 0v.016a.259.259 0 00.01.053.335.335 0 00.028.078l.18.358.207-.272a1.646 1.646 0 01.278.124c.104.052.228.114.355.162.142.054.309.1.483.091l-.004-.057zM35.6 31.356l-.329-.377-.188.165c-.48.424-.942.853-1.322 1.275l.37.337a18.282 18.282 0 011.469-1.4zm-1.706 1.418l-.187-.26a.35.35 0 00-.092.065.275.275 0 00-.082.195v.604l.427-.427.018-.018.018-.018-.006-.007m-.096-.134h-.057l.053.107.04.08a.18.18 0 00.059-.053h.001m-.096-.134l.096.134m-.096-.134h.14c0 .06-.023.105-.044.134M28.464 49.99l.483-.13a1.888 1.888 0 00-.094-.293l-.23.098-.23.099c.022.05.037.105.056.173l.015.053zM47.99 17.92l-.027.5c.118.013.235.012.347.012h.006v-.5a2.855 2.855 0 01-.16-.005 2.795 2.795 0 00-.166-.006z" fill="#FD780F" stroke="#FD780F" stroke-width=".5"/><path d="M85.408 41.23l.016.248.249-.015.744-.047.25-.015-.016-.25v-.003a35.339 35.339 0 00-.13-1.601l-.027-.248-.248.027-.744.081-.25.027.029.25c.057.505.092 1.022.127 1.546zm-1.397-8.181l.066.24.24-.065.733-.198.184-.05v-.191 0-.001 0-.001 0-.001 0-.001 0-.001 0-.001 0-.001 0-.001 0-.001 0-.001 0-.001 0-.001 0-.001 0-.001 0-.001 0-.001 0-.001 0-.001 0-.001 0-.001 0-.001 0-.001 0-.001 0-.037l-.01-.035c-.049-.163-.096-.327-.144-.492a37.826 37.826 0 00-.346-1.142l-.077-.237-.238.077-.72.232-.239.077.078.239c.172.529.322 1.059.473 1.605z" fill="#FD780F" stroke="#FD780F" stroke-width=".5"/><path d="M84.506 35.057l.053.25.25-.059.732-.174.237-.057-.05-.239a28.567 28.567 0 00-.4-1.665l-.065-.24-.24.065-.733.198-.244.066.069.243c.149.528.276 1.069.391 1.612zm.509 20.311l.233.071.077-.231.023-.07.013-.038v-.361h-.59l-.306-.112-.261-.096-.068.27-.011.046-.059.233.231.068.05.015v.076l.28.01.388.119z" fill="#FD780F" stroke="#FD780F" stroke-width=".5"/><path d="M84.911 37.105l.042.247.247-.043.744-.128.245-.042-.04-.245a38.496 38.496 0 00-.317-1.674l-.052-.246-.246.054-.733.163-.243.054.053.243c.115.529.207 1.07.3 1.617z" fill="#FD780F" stroke="#FD780F" stroke-width=".5"/><path d="M85.213 39.163l.032.248.247-.031.744-.093.249-.031-.032-.249h0c-.07-.547-.14-1.095-.221-1.644l-.037-.25-.25.04-.743.116-.252.039.044.25c.07.408.12.813.172 1.231l.047.374zm-1.817-8.105v.314l.327-.105.72-.233.24-.077-.08-.24v-.002a40.238 40.238 0 00-.584-1.67l-.09-.233-.232.088-.709.267-.237.09.092.235c.17.432.315.864.465 1.308l.088.258zm-6.412-12.083l.152.197.198-.15.58-.442.1-.075v-.124a.263.263 0 00-.01-.072l-.002-.006v-.031l-.052-.067a43.211 43.211 0 00-5.045-5.504h.055l-.522-.44-.37-.312s0 0 0 0c-.197-.174-.397-.35-.597-.515a42.74 42.74 0 00-27.352-9.928c-3.099 0-6.21.339-9.226 1.006h0-.002l-1.801.407.01.49 1.918.348.043.008.043-.007.07-.012h0l.013-.002a40.969 40.969 0 018.735-.97h.209a41.454 41.454 0 0124.849 8.303c-2.854.235-5.428 1.976-7.842 3.62l-.001.002c-1.046.72-2.13 1.446-3.2 2.045 0 0 0 0 0 0l-.396.22-.26.146.188.23.558.687.13.16.183-.098.28-.151h0c1.059-.58 2.116-1.289 3.134-1.972l.233-.156.002-.001c1.252-.85 2.51-1.7 3.8-2.34 1.287-.639 2.587-1.058 3.918-1.058.37 0 .74.03 1.1.09a41.583 41.583 0 016.177 6.474zm.597-.43l-.002-.001.002.002h0zm8.445 32.064l.25.04.036-.252.023-.162.035-.245-.244-.038-.744-.116-.25-.04-.036.252-.023.162-.035.245.244.038.744.116zm-.524-7.349v.253l.253-.003.756-.012.246-.004v-.246 0-.001 0-.001 0-.001 0-.001 0-.001 0-.001 0-.001 0-.001 0-.001 0-.001 0-.001 0-.001 0-.001 0-.001 0-.001 0-.001 0-.001 0-.001 0-.001 0-.001 0-.001 0-.001 0-.001 0-.001 0-.001 0-.001 0-.001 0-.001 0-.001 0-.001 0-.001 0-.001 0-.001 0-.001 0-.001 0-.001 0-.001 0-.001 0-.001 0-.001 0-.001 0-.001 0-.001 0-.001 0-.001 0-.001 0-.001 0-.001 0-.001 0-.001 0-.001 0-.001 0-.001 0-.001 0-.001 0-.001 0-.001 0-.001 0h0v-.006a57.53 57.53 0 00-.047-1.425l-.012-.253-.253.016-.755.047-.253.015.019.252c.025.351.032.694.038 1.047l.008.356v.02zm-4.977 22.636l.21.134.135-.21.6-.94c.02-.019.048-.047.07-.071a.54.54 0 00.106-.168l.623-1.338.376-.808-.741.494-1.151.768-.042.027-.027.041-.849 1.268h0l-.023.035-.14.208.209.139.01.006-.006.008h.001l.639.407z" fill="#FD780F" stroke="#FD780F" stroke-width=".5"/><path d="M83.055 29.381l.016-.005.005.013.349-.14-.003-.006.345-.146.152-.065v-.224l-.016-.043-.002-.003a33.755 33.755 0 00-.619-1.53l-1.162-2.674-.476.139.453 2.906.002.011.002.011.024.093.005.02.008.018c.207.485.403.981.601 1.482l.089.224.227-.08zm3.377 17.349l.249.015.016-.25.011-.186h0v-.003l.018-.373.017-.371.012-.254-.254-.008-.755-.023-.246-.008-.012.245-.017.36-.018.36-.011.184-.016.25.25.015.756.046zm.068-1.442l.258.008v-.456c0-.113.002-.226.005-.342v-.002c.003-.115.006-.234.006-.353v-.355h-.25v-.012h-1.006v.262c0 .326 0 .647-.01.968l-.01.25.251.008.756.024zm-.168 2.823l.252.024.02-.252.024-.291h0v-.002l.017-.238.018-.239.017-.248-.247-.019-.756-.058-.25-.02-.019.25-.017.233h0l-.017.232-.024.29-.02.246.247.023.755.07zm-.146 1.349l.248.03.03-.248.07-.57.031-.252-.252-.027-.755-.081-.245-.026-.03.243-.07.559-.031.248.248.03.756.094z" fill="#FD780F" stroke="#FD780F" stroke-width=".5"/><path d="M82.456 28.493c0-.373-.023-.756-.08-1.162l.486-.113c.008.024.019.05.034.087l.001.003c.014.033.032.075.046.12l.008.024.003.026c.047.408.084.806.072 1.197-.065 3.142-.04 5.986.219 9.073.015.162.03.324.047.487l-.836-9.742zm0 0c-.044 3.21-.004 6.111.29 9.299m-.29-9.3l.29 9.3m0 0l.06.666h0c.018.19.033.373.043.547.06 1.25-.102 2.096-.506 2.805-.483.849-1.329 1.538-2.675 2.476h0c-.412.289-.9.714-1.423 1.172a38.445 38.445 0 01-1.676 1.42c-.582.458-1.169.863-1.73 1.135-.565.273-1.079.4-1.525.335h0c-.91-.133-1.797-.795-2.672-1.754-.834-.913-1.625-2.056-2.392-3.166l-.103-.149-.456-.658v.982l.044.064.104.152c.757 1.109 1.561 2.286 2.416 3.233.89.985 1.873 1.765 2.962 1.93l9.53-11.19zm-2.804 7.067c-.385.27-.852.674-1.382 1.136a38.546 38.546 0 01-1.7 1.433c-.596.464-1.216.892-1.826 1.184-.607.29-1.229.459-1.817.37l6.725-4.123zm0 0h.001l-.072-.103.084-.06c1.339-.934 2.277-1.68 2.823-2.639.467-.821.634-1.773.57-3.078.083 1.396-.08 2.395-.57 3.252-.55.957-1.49 1.7-2.836 2.628zM15.658 76.883h0a43.408 43.408 0 0028.485 10.652c15.212 0 29.51-8.136 37.287-21.196l.002-.003.613-.965c.108-.122.213-.267.283-.432.833-1.723 1.256-2.604 1.643-3.6a42.725 42.725 0 002.08-5.995l.064-.241-.242-.065-2.186-.58-.24-.065-.065.241a41.288 41.288 0 01-1.953 5.65h0l-.003.008c-.355.905-.734 1.72-1.495 3.3l-.002.003-.02.026a.65.65 0 00-.059.089l-.76 1.164h0l-.006.009C71.78 77.153 58.389 84.78 44.143 84.78a40.607 40.607 0 01-26.668-9.983h0A40.607 40.607 0 013.517 44.143c0-4.958.89-9.822 2.658-14.467l.089-.234-.234-.088-2.116-.803-.234-.088-.089.233A43.39 43.39 0 00.75 44.143a43.42 43.42 0 0014.908 32.74zM70.199 12.98l.192.16.16-.192 1.453-1.743.16-.192-.191-.16A43.448 43.448 0 0044.143.75c-8.15 0-16.078 2.28-22.953 6.583l-.212.133.132.212 1.198 1.918.132.212.212-.133a40.414 40.414 0 0121.491-6.158c9.51 0 18.765 3.362 26.056 9.463z" fill="#FD780F" stroke="#FD780F" stroke-width=".5"/><path d="M86.796 50.574l.247.036.036-.247a41.84 41.84 0 00.445-6.233 43.011 43.011 0 00-3.555-17.212l-.1-.23-.229.1-2.07.895-.229.1.1.23a40.344 40.344 0 013.327 16.117c0 1.906-.15 3.87-.428 5.837l-.034.246.246.036 2.244.325zm-81.919.194h0c.047-.86.153-1.682.257-2.461.175-1.364.333-2.612.175-3.937-.172-1.384-.55-2.737-.969-4.18v-.002c-.314-1.115-.642-2.287-.877-3.484v-.002c-.46-2.44-.436-5.063.069-7.775.013-.077.038-.15.056-.202a2.05 2.05 0 00.01-.03l.004-.01h0c3.356-8.794 9.6-16.382 17.598-21.363.386-.243.855-.27 1.263-.1.411.17.726.538.812.984M4.877 50.768l16.525-21.576M4.877 50.768c-.155 3.037 1.12 5.744 2.325 8.292.875 1.866 1.673 3.58 1.991 5.366.939 5.406 2.95 9.227 6.51 12.385.988.882 2.138 1.727 3.413 2.523.218.145.476.214.729.214.271 0 .55-.085.786-.237h0l.01-.007c.45-.323.68-.887.552-1.432a54.89 54.89 0 00-.408-1.738c-.723-2.95-1.264-5.177.017-7.805h0c.325-.672.738-1.325 1.175-2.018l.113-.179M4.877 50.768L22.09 66.132m1.185-57.926c.024.118.047.247.07.374v.002l-.245.044m.175-.42s0 0 0 0l-.245.048m.245-.048s0 0 0 0l-.245.048m.07.372l.245-.047c.024.123.049.254.076.37.03.124.056.2.073.232l.002.004h0c.138.267.444.705.764 1.163l.102.146c.677.952 1.346 1.907 1.593 2.722v.002c.326 1.116.257 1.92-.068 2.534-.32.604-.863.98-1.38 1.285h-.001l-.013.008c-.382.232-.666.404-.895.743-.128.19-.213.317-.268.42-.054.1-.062.147-.062.175 0 .029.01.074.066.17.058.097.147.218.28.4h.002l.05.07c.27.371.61.835.925 1.479l.001.002c.624 1.291.6 3.117.066 4.8-.536 1.688-1.604 3.29-3.138 4.108M23.1 8.626c-.024-.128-.047-.256-.07-.372m.07.372l-.07-.372m-1.51 21.158s0 0 0 0l-.118-.22m.118.22s0 0 0 0l-.118-.22m.118.22a3.22 3.22 0 01-1.536.402c-.768 0-1.382-.278-1.891-.51m3.31-.112a2.97 2.97 0 01-1.419.372c-.71 0-1.279-.256-1.79-.488m-.101.228l.002.002.099-.23m-.101.228l-.072-.03c-.389-.167-.663-.285-.932-.285-.667 0-1.103.185-1.494.558-.409.391-.772.993-1.264 1.861l-.002.003h0c-.058.098-.115.198-.173.3h0c-.058.102-.117.205-.176.305h0c-.566.958-.963 1.61-1.459 2.099-.48.473-1.04.78-1.898 1.09m7.47-5.9l-.003-.002.104-.227m0 0l-7.57 6.128m0 0c.007-.048.015-.092.024-.13l-.243-.058m.218.188l3.141-3.315c-1.139 1.93-1.523 2.488-3.36 3.127m.22.188a5.532 5.532 0 00-.048.75c-.003.395.015.875.053 1.409.077 1.068.232 2.344.452 3.586h0c.222 1.28.597 2.233 1.172 3.089.578.86 1.364 1.633 2.429 2.541h0l-.162.19c-2.14-1.824-3.232-3.161-3.685-5.777l-.212-5.788zm0 0l-.137.048-.082-.236m.218.188l-.218-.188M24.25 58.573c-.542-2.402-1.991-4.593-3.711-6.534-1.718-1.938-3.724-3.647-5.406-5.08l-.01-.007v-.001l-.44-.371 9.567 11.993s0 0 0 0zm0 0c.699 3.082-.845 5.5-2.149 7.542l-.01.017m2.16-7.559l-2.16 7.56m-.921-55.467C14.413 15.289 9.143 21.94 6.217 29.562c-.421 2.336-.43 4.576-.043 6.64.207 1.07.495 2.118.82 3.244h0c.418 1.463.854 2.992 1.043 4.596.21 1.65.017 3.147-.166 4.565l-.009.066s0 0 0 0l-.031.253c-.084.665-.169 1.334-.2 1.994h0c-.112 2.322.924 4.542 2.07 6.974h0c.893 1.902 1.826 3.896 2.217 6.06v.002c.84 4.768 2.573 8.084 5.628 10.796h0l.103.091c-.52-2.453-.7-4.93.669-7.733.426-.876.945-1.69 1.444-2.466 1.244-1.95 2.23-3.533 1.792-5.472l-.384-48.506zm0 0c.25.439.595.937.96 1.443.238.331.514.72.744 1.074.238.366.404.664.45.825h0l.002.005c.072.231.096.38.105.465v.001a5.404 5.404 0 01-.316.196h0l-.004.003h-.002c-.492.294-1.196.713-1.786 1.586v.001c-.66.989-.876 1.78-.79 2.494.086.703.463 1.284.876 1.85l.062.084c.226.31.445.613.648 1.028.147.305.215.729.196 1.224a5.766 5.766 0 01-.301 1.571c-.36 1.079-1.002 2.051-1.787 2.467h0a.724.724 0 01-.158.066.275.275 0 01-.073.01.964.964 0 01-.302-.074 7.334 7.334 0 01-.39-.161l-.08-.035-.04-.017c-.527-.23-1.21-.527-2.115-.539v0h-.003c-1.468 0-2.51.515-3.31 1.26-.786.734-1.332 1.688-1.822 2.547a9.73 9.73 0 00-.213.365l-.125.218c-.533.906-.773 1.309-1.04 1.555-.252.232-.532.328-1.226.554-.168.05-.43.132-.685.365-.256.235-.484.603-.637 1.192-.304 1.167-.333 3.264.348 7.13.29 1.657.802 2.943 1.557 4.082.753 1.136 1.74 2.116 2.968 3.168l.002.001.44.371h.001c1.565 1.334 3.407 2.901 4.97 4.627 1.564 1.728 2.826 3.59 3.26 5.503l-.384-48.505z" fill="#FD780F" stroke="#FD780F" stroke-width=".5"/><mask id="a" maskUnits="userSpaceOnUse" x="26.18" y="9.638" width="59" height="68" fill="#000"><path fill="#fff" d="M26.18 9.638h59v68h-59z"/><path d="M47.362 76.706c-1.395 0-2.674-.779-3.813-2.313-1.976-2.663-1.837-6.255-1.709-9.743.07-1.988.151-3.871-.198-5.394-.825-3.743-2.72-4.243-7.161-4.557-5.301-.384-6.731-3.523-7.127-5.371-.988-4.709 2.372-10.754 6.07-13.288-.99-.407-1.326-1.047-1.43-1.535-.35-1.628 1.476-3.197 3.417-4.836.093-.082.198-.163.29-.244-1.127-.221-2.15-.675-2.603-1.64-.442-.953-.175-2.069.802-3.336.744-.965 1.744-1.511 2.802-1.511 1.29 0 2.522.79 3.266 1.988.07-.082.14-.175.21-.28.5-.662.744-1.488 1.011-2.36.453-1.5.953-3.197 2.825-4.324 1.035-.628 2.244-.942 3.674-.942 1.058 0 2.116.163 3.139.326 1.093.174 2.104.325 3.057.279 2.418-.128 4.697-1.663 7.103-3.29 2.686-1.814 5.464-3.697 8.696-3.697.535 0 1.07.046 1.593.15.186.036.36.117.512.245a43.544 43.544 0 0111.94 15.974c.046.104.069.209.08.313.059.5.094.942.082 1.349-.082 3.918 0 6.708.279 9.638.372 3.94-.918 5.301-3.743 7.254-.373.256-.872.698-1.407 1.163-1.686 1.465-3.604 3.139-5.5 3.139-.15 0-.301-.012-.453-.035-2.453-.372-4.336-3.14-6.01-5.58-.616-.907-1.209-1.768-1.744-2.407.093.43.163.872.186 1.302.082 1.732-.186 2.848-.895 3.592-.918.965-2.244.977-3.65.977h-.291c.407.65.511.837.57 1 1.592 4.37-.57 8.323-2.488 11.8l-.384.697c-.244.442-.628 1.349-1.07 2.407-2.79 6.626-5.87 13.09-9.928 13.09zM38.47 36.9a8.78 8.78 0 00-2.174.279 4.78 4.78 0 00-.954.36c-3.232 1.698-6.591 7.383-5.754 11.335.453 2.163 2.162 3.372 5.068 3.57 3.895.278 7.93.57 9.208 6.324.395 1.802.325 3.918.244 5.964-.116 3.092-.233 6.278 1.267 8.3.698.93 1.372 1.407 2 1.407 2.895 0 6.37-8.196 7.859-11.707.488-1.163.872-2.07 1.162-2.604l.384-.71c1.755-3.185 3.569-6.486 2.372-9.87-.105-.197-.524-.86-.803-1.301-1.07-1.698-1.185-1.884-.86-2.488.198-.407.64-.686 1.14-.686.371 0 .685.15.941.279.07.035.174.093.233.104.395-.011.79-.011 1.162-.023.907 0 1.767-.011 2.011-.267.105-.116.35-.523.28-1.918-.035-.605-.221-1.337-.384-1.977-.29-1.104-.5-1.906 0-2.546a1.294 1.294 0 011.046-.511c.581 0 1.186.337 2.302 1.29.918.79 1.802 2.081 2.732 3.453 1.337 1.965 3 4.394 4.476 4.615.035 0 .081.012.116.012 1.046 0 2.837-1.558 4.011-2.581.581-.5 1.128-.988 1.604-1.314 2.523-1.755 3.046-2.395 2.779-5.185-.29-3.022-.372-5.894-.29-9.893 0-.256-.012-.547-.047-.884A41.16 41.16 0 0070.59 12.94a5.51 5.51 0 00-.872-.07c-2.546 0-4.917 1.604-7.44 3.302-2.558 1.732-5.208 3.522-8.254 3.685-1.163.058-2.36-.128-3.511-.302-.988-.152-1.907-.291-2.802-.291-1.023 0-1.814.198-2.5.604-1.127.686-1.441 1.721-1.836 3.046-.291.977-.628 2.093-1.372 3.081-.512.686-1.058 1.337-2 1.779-.29.128-.604.14-.895.023a1.147 1.147 0 01.093 1.302c-.407.663-1.279 1.407-2.29 2.279-.756.64-2.244 1.906-2.593 2.557.047.012.093.035.163.059.256.08.535.058.895-.047.582-.174 1.256-.57 1.907-.965.93-.558 1.883-1.127 2.906-1.267 1.477-.21 2.732.267 3.918.72.79.303 1.546.594 2.29.628h.105c.546 0 1.302-.22 2.034-.441.919-.268 1.872-.558 2.802-.558.593 0 1.128.116 1.581.349.895.441 1.651 1.476 2.035 2.766.372 1.256.314 2.465-.186 3.302-1.116 1.918-4.08 2.209-5.755 2.209-2.534 0-5.162-.616-6.382-1.5-.593-.43-.989-.86-1.314-1.209-.547-.593-.814-.883-1.732-1.035-.337-.011-.721-.046-1.116-.046zm.476-2.244a6.76 6.76 0 011 .105c1.686.267 2.407 1.046 3.034 1.732.291.314.57.616.977.907.732.523 2.825 1.07 5.057 1.07 1.93 0 3.418-.42 3.802-1.082.14-.232.186-.802-.035-1.511-.221-.733-.605-1.256-.872-1.384-.523-.255-1.674.035-2.755.35-.965.29-1.988.58-2.907.522-1.104-.07-2.046-.43-2.964-.779-.977-.371-1.872-.72-2.802-.592-.43.046-.977.337-1.535.662zm-2.232-9.44c-.349 0-.697.21-1.011.628-.558.72-.535 1.023-.535 1.023.14.174.79.442 3.08.546.129.012.257.035.384.082a1.043 1.043 0 01-.22-.488c-.198-.965-.965-1.79-1.698-1.79z"/></mask><path d="M47.362 76.706c-1.395 0-2.674-.779-3.813-2.313-1.976-2.663-1.837-6.255-1.709-9.743.07-1.988.151-3.871-.198-5.394-.825-3.743-2.72-4.243-7.161-4.557-5.301-.384-6.731-3.523-7.127-5.371-.988-4.709 2.372-10.754 6.07-13.288-.99-.407-1.326-1.047-1.43-1.535-.35-1.628 1.476-3.197 3.417-4.836.093-.082.198-.163.29-.244-1.127-.221-2.15-.675-2.603-1.64-.442-.953-.175-2.069.802-3.336.744-.965 1.744-1.511 2.802-1.511 1.29 0 2.522.79 3.266 1.988.07-.082.14-.175.21-.28.5-.662.744-1.488 1.011-2.36.453-1.5.953-3.197 2.825-4.324 1.035-.628 2.244-.942 3.674-.942 1.058 0 2.116.163 3.139.326 1.093.174 2.104.325 3.057.279 2.418-.128 4.697-1.663 7.103-3.29 2.686-1.814 5.464-3.697 8.696-3.697.535 0 1.07.046 1.593.15.186.036.36.117.512.245a43.544 43.544 0 0111.94 15.974c.046.104.069.209.08.313.059.5.094.942.082 1.349-.082 3.918 0 6.708.279 9.638.372 3.94-.918 5.301-3.743 7.254-.373.256-.872.698-1.407 1.163-1.686 1.465-3.604 3.139-5.5 3.139-.15 0-.301-.012-.453-.035-2.453-.372-4.336-3.14-6.01-5.58-.616-.907-1.209-1.768-1.744-2.407.093.43.163.872.186 1.302.082 1.732-.186 2.848-.895 3.592-.918.965-2.244.977-3.65.977h-.291c.407.65.511.837.57 1 1.592 4.37-.57 8.323-2.488 11.8l-.384.697c-.244.442-.628 1.349-1.07 2.407-2.79 6.626-5.87 13.09-9.928 13.09zM38.47 36.9a8.78 8.78 0 00-2.174.279 4.78 4.78 0 00-.954.36c-3.232 1.698-6.591 7.383-5.754 11.335.453 2.163 2.162 3.372 5.068 3.57 3.895.278 7.93.57 9.208 6.324.395 1.802.325 3.918.244 5.964-.116 3.092-.233 6.278 1.267 8.3.698.93 1.372 1.407 2 1.407 2.895 0 6.37-8.196 7.859-11.707.488-1.163.872-2.07 1.162-2.604l.384-.71c1.755-3.185 3.569-6.486 2.372-9.87-.105-.197-.524-.86-.803-1.301-1.07-1.698-1.185-1.884-.86-2.488.198-.407.64-.686 1.14-.686.371 0 .685.15.941.279.07.035.174.093.233.104.395-.011.79-.011 1.162-.023.907 0 1.767-.011 2.011-.267.105-.116.35-.523.28-1.918-.035-.605-.221-1.337-.384-1.977-.29-1.104-.5-1.906 0-2.546a1.294 1.294 0 011.046-.511c.581 0 1.186.337 2.302 1.29.918.79 1.802 2.081 2.732 3.453 1.337 1.965 3 4.394 4.476 4.615.035 0 .081.012.116.012 1.046 0 2.837-1.558 4.011-2.581.581-.5 1.128-.988 1.604-1.314 2.523-1.755 3.046-2.395 2.779-5.185-.29-3.022-.372-5.894-.29-9.893 0-.256-.012-.547-.047-.884A41.16 41.16 0 0070.59 12.94a5.51 5.51 0 00-.872-.07c-2.546 0-4.917 1.604-7.44 3.302-2.558 1.732-5.208 3.522-8.254 3.685-1.163.058-2.36-.128-3.511-.302-.988-.152-1.907-.291-2.802-.291-1.023 0-1.814.198-2.5.604-1.127.686-1.441 1.721-1.836 3.046-.291.977-.628 2.093-1.372 3.081-.512.686-1.058 1.337-2 1.779-.29.128-.604.14-.895.023a1.147 1.147 0 01.093 1.302c-.407.663-1.279 1.407-2.29 2.279-.756.64-2.244 1.906-2.593 2.557.047.012.093.035.163.059.256.08.535.058.895-.047.582-.174 1.256-.57 1.907-.965.93-.558 1.883-1.127 2.906-1.267 1.477-.21 2.732.267 3.918.72.79.303 1.546.594 2.29.628h.105c.546 0 1.302-.22 2.034-.441.919-.268 1.872-.558 2.802-.558.593 0 1.128.116 1.581.349.895.441 1.651 1.476 2.035 2.766.372 1.256.314 2.465-.186 3.302-1.116 1.918-4.08 2.209-5.755 2.209-2.534 0-5.162-.616-6.382-1.5-.593-.43-.989-.86-1.314-1.209-.547-.593-.814-.883-1.732-1.035-.337-.011-.721-.046-1.116-.046zm.476-2.244a6.76 6.76 0 011 .105c1.686.267 2.407 1.046 3.034 1.732.291.314.57.616.977.907.732.523 2.825 1.07 5.057 1.07 1.93 0 3.418-.42 3.802-1.082.14-.232.186-.802-.035-1.511-.221-.733-.605-1.256-.872-1.384-.523-.255-1.674.035-2.755.35-.965.29-1.988.58-2.907.522-1.104-.07-2.046-.43-2.964-.779-.977-.371-1.872-.72-2.802-.592-.43.046-.977.337-1.535.662zm-2.232-9.44c-.349 0-.697.21-1.011.628-.558.72-.535 1.023-.535 1.023.14.174.79.442 3.08.546.129.012.257.035.384.082a1.043 1.043 0 01-.22-.488c-.198-.965-.965-1.79-1.698-1.79z" fill="#FD780F"/><path d="M47.362 76.706c-1.395 0-2.674-.779-3.813-2.313-1.976-2.663-1.837-6.255-1.709-9.743.07-1.988.151-3.871-.198-5.394-.825-3.743-2.72-4.243-7.161-4.557-5.301-.384-6.731-3.523-7.127-5.371-.988-4.709 2.372-10.754 6.07-13.288-.99-.407-1.326-1.047-1.43-1.535-.35-1.628 1.476-3.197 3.417-4.836.093-.082.198-.163.29-.244-1.127-.221-2.15-.675-2.603-1.64-.442-.953-.175-2.069.802-3.336.744-.965 1.744-1.511 2.802-1.511 1.29 0 2.522.79 3.266 1.988.07-.082.14-.175.21-.28.5-.662.744-1.488 1.011-2.36.453-1.5.953-3.197 2.825-4.324 1.035-.628 2.244-.942 3.674-.942 1.058 0 2.116.163 3.139.326 1.093.174 2.104.325 3.057.279 2.418-.128 4.697-1.663 7.103-3.29 2.686-1.814 5.464-3.697 8.696-3.697.535 0 1.07.046 1.593.15.186.036.36.117.512.245a43.544 43.544 0 0111.94 15.974c.046.104.069.209.08.313.059.5.094.942.082 1.349-.082 3.918 0 6.708.279 9.638.372 3.94-.918 5.301-3.743 7.254-.373.256-.872.698-1.407 1.163-1.686 1.465-3.604 3.139-5.5 3.139-.15 0-.301-.012-.453-.035-2.453-.372-4.336-3.14-6.01-5.58-.616-.907-1.209-1.768-1.744-2.407.093.43.163.872.186 1.302.082 1.732-.186 2.848-.895 3.592-.918.965-2.244.977-3.65.977h-.291c.407.65.511.837.57 1 1.592 4.37-.57 8.323-2.488 11.8l-.384.697c-.244.442-.628 1.349-1.07 2.407-2.79 6.626-5.87 13.09-9.928 13.09zM38.47 36.9a8.78 8.78 0 00-2.174.279 4.78 4.78 0 00-.954.36c-3.232 1.698-6.591 7.383-5.754 11.335.453 2.163 2.162 3.372 5.068 3.57 3.895.278 7.93.57 9.208 6.324.395 1.802.325 3.918.244 5.964-.116 3.092-.233 6.278 1.267 8.3.698.93 1.372 1.407 2 1.407 2.895 0 6.37-8.196 7.859-11.707.488-1.163.872-2.07 1.162-2.604l.384-.71c1.755-3.185 3.569-6.486 2.372-9.87-.105-.197-.524-.86-.803-1.301-1.07-1.698-1.185-1.884-.86-2.488.198-.407.64-.686 1.14-.686.371 0 .685.15.941.279.07.035.174.093.233.104.395-.011.79-.011 1.162-.023.907 0 1.767-.011 2.011-.267.105-.116.35-.523.28-1.918-.035-.605-.221-1.337-.384-1.977-.29-1.104-.5-1.906 0-2.546a1.294 1.294 0 011.046-.511c.581 0 1.186.337 2.302 1.29.918.79 1.802 2.081 2.732 3.453 1.337 1.965 3 4.394 4.476 4.615.035 0 .081.012.116.012 1.046 0 2.837-1.558 4.011-2.581.581-.5 1.128-.988 1.604-1.314 2.523-1.755 3.046-2.395 2.779-5.185-.29-3.022-.372-5.894-.29-9.893 0-.256-.012-.547-.047-.884A41.16 41.16 0 0070.59 12.94a5.51 5.51 0 00-.872-.07c-2.546 0-4.917 1.604-7.44 3.302-2.558 1.732-5.208 3.522-8.254 3.685-1.163.058-2.36-.128-3.511-.302-.988-.152-1.907-.291-2.802-.291-1.023 0-1.814.198-2.5.604-1.127.686-1.441 1.721-1.836 3.046-.291.977-.628 2.093-1.372 3.081-.512.686-1.058 1.337-2 1.779-.29.128-.604.14-.895.023a1.147 1.147 0 01.093 1.302c-.407.663-1.279 1.407-2.29 2.279-.756.64-2.244 1.906-2.593 2.557.047.012.093.035.163.059.256.08.535.058.895-.047.582-.174 1.256-.57 1.907-.965.93-.558 1.883-1.127 2.906-1.267 1.477-.21 2.732.267 3.918.72.79.303 1.546.594 2.29.628h.105c.546 0 1.302-.22 2.034-.441.919-.268 1.872-.558 2.802-.558.593 0 1.128.116 1.581.349.895.441 1.651 1.476 2.035 2.766.372 1.256.314 2.465-.186 3.302-1.116 1.918-4.08 2.209-5.755 2.209-2.534 0-5.162-.616-6.382-1.5-.593-.43-.989-.86-1.314-1.209-.547-.593-.814-.883-1.732-1.035-.337-.011-.721-.046-1.116-.046zm.476-2.244a6.76 6.76 0 011 .105c1.686.267 2.407 1.046 3.034 1.732.291.314.57.616.977.907.732.523 2.825 1.07 5.057 1.07 1.93 0 3.418-.42 3.802-1.082.14-.232.186-.802-.035-1.511-.221-.733-.605-1.256-.872-1.384-.523-.255-1.674.035-2.755.35-.965.29-1.988.58-2.907.522-1.104-.07-2.046-.43-2.964-.779-.977-.371-1.872-.72-2.802-.592-.43.046-.977.337-1.535.662zm-2.232-9.44c-.349 0-.697.21-1.011.628-.558.72-.535 1.023-.535 1.023.14.174.79.442 3.08.546.129.012.257.035.384.082a1.043 1.043 0 01-.22-.488c-.198-.965-.965-1.79-1.698-1.79z" stroke="#FD780F" mask="url(#a)"/><path d="M80.177 48.504h0c-1.715 2.055-1.683 5.081-.779 7.01.668 1.432 1.8 2.294 3.121 2.294 1.198 0 2.296-.69 3.285-1.962a1.16 1.16 0 00.26-.506 43.691 43.691 0 001.016-4.977h0v-.007a1.44 1.44 0 00-.1-.733c-.704-1.64-2.142-2.731-3.705-2.731-.812 0-1.989.295-3.098 1.611zm1.721 5.835h0v-.002c-.26-.556-.394-1.3-.343-2.049.051-.747.286-1.473.736-2.008a2.5 2.5 0 01.464-.433c.175-.12.35-.188.52-.188.308 0 .705.255.995.75a39.417 39.417 0 01-.804 3.95c-.586.677-.927.682-.947.682-.06 0-.164-.045-.296-.19a2.062 2.062 0 01-.325-.512zM12.516 40.627v-.001c-.295-.928-.402-2-.25-2.973.152-.971.566-1.876 1.344-2.423l-1.094 5.397zm0 0c.53 1.648 1.622 2.707 3.005 2.707.854 0 1.68-.414 2.432-1.166h.001m-5.438-1.541l5.438 1.54m0 0c1.104-1.116 1.288-2.93.553-4.7-.683-1.656-1.939-2.747-3.335-2.747-.555 0-1.093.18-1.562.51l4.344 6.937zm-2.799-2.377h0a3.948 3.948 0 01-.158-1.58c.024-.22.067-.4.115-.532a.676.676 0 01.09-.179l.039.023c.057.037.132.097.215.185.167.175.356.447.508.821h0v.001c.152.37.225.74.224 1.05-.001.319-.08.53-.18.63a2.1 2.1 0 01-.382.304.762.762 0 01-.072.038.83.83 0 01-.09-.105 2.234 2.234 0 01-.309-.656zm42.059 33.915c-.45-.457-.758-1.16-.813-2.147l.813 2.147zm0 0a2.176 2.176 0 001.565.647m-1.565-.647l1.565.647m0 0c.481 0 .963-.144 1.475-.412.497-.258.978-.853 1.407-1.581.436-.74.843-1.66 1.174-2.62a16.75 16.75 0 00.73-2.897c.139-.918.162-1.774.002-2.415-.145-.577-.426-1.052-.834-1.367-.411-.316-.93-.455-1.517-.39m-2.438 11.682l2.438-11.682m0 0c-.795.084-1.5.535-2.1 1.173-.601.638-1.114 1.48-1.526 2.387-.821 1.808-1.267 3.93-1.189 5.328l4.815-8.888zm-1.003 4.541h0a7.41 7.41 0 01.68-1.17c-.09.73-.318 1.719-.617 2.677a14.465 14.465 0 01-.673 1.783 4.774 4.774 0 01-.436.771 7.067 7.067 0 01.136-1.288 11.51 11.51 0 01.91-2.773zM29.27 11.226h0c.663-1.363 2.196-2.385 3.86-3.063 1.674-.683 3.537-1.042 4.932-1.042.349 0 .684.024.984.06h.004c1.49.208 2.62.986 3.149 2.232v.001c.65 1.56.214 3.64-1.041 5.326-1.112 1.498-2.74 2.277-4.242 2.994m-7.646-6.508l7.537 6.283m-7.537-6.283l-.002.002m.002-.002l-.002.002m7.648 6.506h-.001l-.108-.225m.109.225s0 0 0 0l-.109-.225m.109.225a72.75 72.75 0 01-.13.063c-.91.444-1.74.848-2.391 1.371h0l-.157-.194m2.569-1.465l-.14.068c-.902.44-1.755.855-2.43 1.396m0 0l.157.195m-.156-.194l.156.194m0 0l-.369.3-.16-.192.158.194.371-.302zm-5.897-6.501c-.573 1.018-1.198 2.132-1.575 3.254-.377 1.124-.515 2.288-.079 3.4l1.655-6.655s0 0 0 0zm0 0l.132-.237m-.132.237l.132-.237m.64-1.202c-.174.367-.397.767-.64 1.202m.64-1.202l-.64 1.202m.785 5.884h0c.132.34.246.476.308.528.029.024.047.03.051.03a.075.075 0 00.024.003c.12 0 .288-.047.501-.147.209-.098.438-.237.673-.397.47-.32.937-.71 1.269-.99v-.001l.002-.001c.139-.116.28-.233.397-.327m-3.225 1.302l1.266-4.42c.314-.559.605-1.082.849-1.582l.224.11s0 0 0 0c.133-.27.423-.572.854-.875.426-.3.968-.586 1.573-.835 1.214-.499 2.655-.836 3.883-.836.227 0 .428.012.578.042l.008.002h.007c.428.06.66.187.787.294a.64.64 0 01.19.264h0l.001.002c.116.272.124.68.001 1.16-.12.472-.361.983-.703 1.44-.7.93-1.892 1.51-3.233 2.157-1.031.487-2.115 1.01-3.06 1.775m-3.225 1.302l-.002-.003c-.084-.212-.102-.482-.052-.81a4.98 4.98 0 01.319-1.085c.314-.784.787-1.63 1.22-2.4l-1.485 4.298zm3.225-1.302s0 0 0 0l.157.194-.156-.195s0 0 0 0z" fill="#FD780F" stroke="#FD780F" stroke-width=".5"/></svg>