<svg width="77" height="77" fill="none" xmlns="http://www.w3.org/2000/svg"><g clip-path="url(#clip0_53:1423)" fill="#FD780F"><path d="M25.502 30.602a11.477 11.477 0 008.116-19.59 11.476 11.476 0 00-19.59 8.115c.005 6.334 5.14 11.468 11.474 11.475zm-8.11-7.779c1.103.45 2.251.78 3.426.982a16.57 16.57 0 00.981 3.427 8.97 8.97 0 01-4.407-4.409zm3.085-5.721a27.24 27.24 0 000 4.042c-2.551-.593-3.9-1.533-3.9-2.018 0-.484 1.348-1.425 3.9-2.018v-.006zm5.025-6.901c.485 0 1.425 1.349 2.018 3.9a27.185 27.185 0 00-4.036 0c.594-2.551 1.533-3.9 2.018-3.9zm0 6.375c.875 0 1.68.044 2.433.116a25.31 25.31 0 010 4.866 25.312 25.312 0 01-4.865 0 25.278 25.278 0 010-4.866 25.557 25.557 0 012.432-.116zm8.926 2.55c0 .485-1.349 1.425-3.901 2.018a27.185 27.185 0 000-4.036c2.552.593 3.9 1.534 3.9 2.018zm-8.926 8.926c-.484 0-1.424-1.35-2.018-3.902a27.185 27.185 0 004.036 0c-.594 2.553-1.533 3.902-2.018 3.902zm3.698-.815c.45-1.103.78-2.252.982-3.426a16.564 16.564 0 003.426-.982 8.97 8.97 0 01-4.408 4.408zm4.412-11.808a16.433 16.433 0 00-3.426-.982 16.57 16.57 0 00-.981-3.426 8.966 8.966 0 014.407 4.408zm-11.808-4.414a16.438 16.438 0 00-.982 3.427 16.57 16.57 0 00-3.426.98 8.973 8.973 0 014.408-4.407zM7.65 8.926c0-.704.572-1.275 1.275-1.275h5.1v-2.55h-5.1A3.826 3.826 0 005.1 8.926v5.1h2.55v-5.1zm0 45.903v-5.1H5.1v5.1a3.825 3.825 0 003.825 3.825h5.1v-2.55h-5.1a1.276 1.276 0 01-1.275-1.275zM43.353 8.926v5.1h2.551v-5.1A3.825 3.825 0 0042.079 5.1h-5.1v2.55h5.1c.704 0 1.274.572 1.274 1.275z"/><path d="M68.634 37.77l-17.63-10.445v-23.5A3.825 3.825 0 0047.179 0H3.825A3.825 3.825 0 000 3.825V59.93a3.825 3.825 0 003.825 3.826h35.703v1.274c.007 6.335 5.141 11.47 11.476 11.476h22.952a2.55 2.55 0 002.55-2.55V51.877a16.485 16.485 0 00-7.872-14.107zM2.55 59.93V3.825c0-.704.572-1.275 1.275-1.275H47.18c.704 0 1.274.572 1.274 1.275V51.94l-9.451-9.208a6.378 6.378 0 00-9.09 8.948l8.128 9.526H3.825A1.275 1.275 0 012.55 59.93zm71.406 14.026H51.004a8.937 8.937 0 01-8.925-8.926v-2.55c0-.303-.109-.597-.306-.828L31.784 49.95a3.834 3.834 0 010-5.414 3.919 3.919 0 015.426.011l16.727 16.296 1.785-1.829-4.718-4.59V30.291l16.309 9.66a13.935 13.935 0 016.643 11.926v22.079z"/><path d="M64.83 41.608l-1.344 2.168a13.935 13.935 0 016.644 11.927h2.55a16.474 16.474 0 00-7.85-14.095zm-50.803-8.455h-2.55v2.55h2.55v-2.55zm20.401 0H16.576v2.55h17.852v-2.55zm5.101 0h-2.55v2.55h2.55v-2.55z"/></g><defs><clipPath id="clip0_53:1423"><path fill="#fff" d="M0 0h76.506v76.506H0z"/></clipPath></defs></svg>