<svg width="75" height="92" fill="none" xmlns="http://www.w3.org/2000/svg"><path d="M37.5 88.857l-1.063-.327c-3.077-.941-10.628-5.172-17.777-11.644-7.143-6.46-15.65-16.663-15.65-28.574V13.526l3.685.047c.247 0 .502.006.762.006 6.602 0 18.988-1.034 27.783-7.967L37.5 3.83l2.26 1.782c8.789 6.933 21.175 7.967 27.783 7.967.26 0 .515 0 .762-.006l3.685-.047v34.78c0 11.91-8.507 22.114-15.65 28.573-7.15 6.473-14.7 10.71-17.777 11.644l-1.063.334z" stroke="#FD780F" stroke-width="3.451" stroke-miterlimit="10"/><path d="M43.873 27.012H31.127v9.869h-9.892V49.6h9.892v9.869h12.747v-9.87h9.892V36.882h-9.892v-9.87zm5.88 13.873v4.71H39.86v9.87h-4.722v-9.87h-9.892v-4.71h9.892v-9.87h4.722v9.87h9.891z" fill="#FD780F"/></svg>