<svg width="63" height="78" fill="none" xmlns="http://www.w3.org/2000/svg"><path d="M7.545 47.81v1h47.561V21.406H7.545V47.81zm47.586 1.02H7.524l-.005-.004a.016.016 0 01-.003-.005s0 0 0 0V21.393s0-.002.002-.003a.021.021 0 01.006-.004.014.014 0 01.006-.001h47.608l.004.004a.016.016 0 01.004.005h0s0 0 0 0v27.427l-.003.003a.022.022 0 01-.006.004.015.015 0 01-.006.001zM11.719 10.401v1h39.214V1.031H11.72v9.37zm39.24 1.03H11.703a.03.03 0 01-.005 0h-.001a.018.018 0 01-.008-.008s0 0 0 0V1.008l.002-.003a.02.02 0 01.006-.004.014.014 0 01.006-.001h39.261l.004.004a.016.016 0 01.004.005h0s0 0 0 0v10.402c0 .007-.001.01-.002.011a.019.019 0 01-.007.01h-.006z" fill="#FD780F" stroke="#FD780F" stroke-width="2"/><path d="M55.143 21.405h0a.068.068 0 01-.012.002H7.53c-.002 0-.005 0-.01-.003a.03.03 0 01-.006-.004l-.001-.001-3.739-5.041s0 0 0 0a.026.026 0 01-.003-.007l-.001-.005v-.007h.003a.048.048 0 01.012-.002H58.88l.005.003a.046.046 0 01.008.006.075.075 0 01-.007.011s0 0 0 0l-3.743 5.048zM7.238 20.98l.3.406H55.11l.3-.404 2.248-3.03 1.185-1.596H3.822L5 17.95l2.238 3.03zM4.787 48.84v-.03h53.09v.03H4.787zM2.014 76.255v-.03h58.623v.03H2.014zm16.549-18.762v-.03h25.55v.03h-25.55z" fill="#FD780F" stroke="#FD780F" stroke-width="2"/><path d="M1.408 16.367v-.03h59.847v.03H1.408zm18.793 58.858v1h22.26V57.493h-22.26v17.732zm22.274 1.03H20.181h0l-.006-.004a.016.016 0 01-.003-.005s0 0 0 0V57.47s0-.002.002-.003a.024.024 0 01.007-.004.014.014 0 01.005-.001h22.296l.005.004a.016.016 0 01.003.005s0 0 0 0v18.763c0 .006-.001.01-.002.01a.02.02 0 01-.006.009h-.001 0l-.006.001zM13.34 40.345v1h8.056V30.308H13.34v10.037zm8.08 1.03h-8.1l-.005-.004a.016.016 0 01-.003-.004s0 0 0 0V30.296l.002-.003a.02.02 0 01.006-.004.014.014 0 01.006 0h8.102l.005.003a.016.016 0 01.003.005v11.066a.03.03 0 01-.005.006.032.032 0 01-.01.007zm13.968-.009v.005a.024.024 0 01-.014.004h-8.102l-.005-.004a.016.016 0 01-.003-.004s0 0 0 0V30.292s0 0 0 0v-.001l.003-.001.003-.001h8.11l.005.003a.016.016 0 01.003.005s0 0 0 0v11.069zm-8.085-1.02v1h8.057V30.307h-8.057v10.037zm13.953-.001v1h8.056V30.308h-8.056v10.037zm8.08 1.03h-8.101l-.005-.004a.018.018 0 01-.003-.004s0 0 0 0V30.296l.002-.003a.022.022 0 01.006-.004.014.014 0 01.006 0h8.102l.005.003a.016.016 0 01.003.005s0 0 0 0v11.069s0 0 0 0 0 0 0 0c0 .002-.001.003-.003.005l-.002.002a.013.013 0 01-.003.002h-.006zm12.298 20.679v-.003c-.012-3.572-2.929-6.474-6.502-6.474-3.58 0-6.501 2.901-6.501 6.477 0 3.576 2.92 6.477 6.501 6.477 3.582 0 6.502-2.9 6.502-6.477zm-6.502 6.496c-3.604 0-6.53-2.919-6.53-6.496 0-3.577 2.926-6.496 6.53-6.496 3.605 0 6.531 2.92 6.531 6.496 0 3.577-2.926 6.496-6.53 6.496zM17.537 15.346v-2.935h.04v2.935h-.04zm27.549 0v-2.935h.04v2.935h-.04z" fill="#FD780F" stroke="#FD780F" stroke-width="2"/><path d="M31.31 74.516V58.473h.04v16.043h-.04zM7.53 68.55C3.927 68.55 1 65.632 1 62.054c0-3.577 2.926-6.496 6.53-6.496 3.605 0 6.532 2.92 6.532 6.496 0 3.577-2.927 6.496-6.531 6.496zm0-12.972c-3.58 0-6.5 2.9-6.5 6.476s2.92 6.477 6.5 6.477c3.582 0 6.503-2.9 6.503-6.477 0-3.576-2.921-6.477-6.502-6.477z" fill="#FD780F" stroke="#FD780F" stroke-width="2"/><path d="M7.545 75.225v1h47.561v-7.621l-.865-.117c-3.187-.434-5.651-3.166-5.651-6.444 0-3.277 2.464-6.009 5.651-6.443l.865-.117V48.82H7.545v6.663l.865.117c3.187.434 5.651 3.166 5.651 6.443 0 3.278-2.464 6.01-5.651 6.444l-.865.117v6.621zm47.586 1.03H7.524l-.005-.004a.016.016 0 01-.003-.005h0s0 0 0 0v-7.707s0-.002.002-.003a.021.021 0 01.006-.005.014.014 0 01.006 0c3.581 0 6.502-2.901 6.502-6.477 0-3.576-2.92-6.477-6.502-6.477a.03.03 0 01-.005 0h-.001l-.005-.004a.016.016 0 01-.003-.005s0 0 0 0v-6.75s0-.002.002-.003a.02.02 0 01.006-.004.012.012 0 01.006-.002h47.606l.002.001.004.004a.015.015 0 01.004.005h0s0 0 0 0v6.749l-.003.003a.02.02 0 01-.006.004.013.013 0 01-.006.001c-3.581 0-6.502 2.9-6.502 6.477 0 3.576 2.92 6.476 6.502 6.476h.005l.002.001.004.004a.016.016 0 01.004.004v7.703a.028.028 0 01-.005.006.034.034 0 01-.004.004.025.025 0 01-.005.003s0 0 0 0zM22.422 6.163v-.03h17.82v.03h-17.82z" fill="#FD780F" stroke="#FD780F" stroke-width="2"/></svg>