<svg width="47" height="47" fill="none" xmlns="http://www.w3.org/2000/svg"><circle cx="23.5" cy="23.5" r="23" stroke="#fff"/><path fill-rule="evenodd" clip-rule="evenodd" d="M16.383 25.326a.92.92 0 00.163.039l.224.533c.218.516.511 1.215.814 1.944.617 1.487 1.24 3.02 1.377 3.459.17.542.35.91.547 1.163.101.13.219.243.356.33.07.043.142.078.219.105l.01.003c.393.15.752.087.976.011a1.596 1.596 0 00.375-.185l.005-.004 3.474-2.18 4.011 3.096c.06.046.124.084.192.114.482.212.95.286 1.388.226a2.11 2.11 0 001.046-.455 2.461 2.461 0 00.692-.9l.012-.028.004-.01.002-.005v-.002l.002-.002a.936.936 0 00.048-.164l3.662-18.592a.935.935 0 00.018-.18c0-.545-.204-1.062-.683-1.377-.41-.268-.865-.28-1.154-.258a3.54 3.54 0 00-.79.163 4.313 4.313 0 00-.32.117l-.014.006-20.54 8.113h-.002a2.912 2.912 0 00-.205.085 3.095 3.095 0 00-.467.263c-.279.192-.921.72-.813 1.59.086.694.559 1.12.847 1.325.158.113.308.194.417.246.05.024.156.067.202.086l.011.005 3.894 1.32zm17.375-11.324l-.003.001a.838.838 0 01-.03.013L13.16 22.139a.897.897 0 01-.033.012l-.011.004a1.237 1.237 0 00-.112.05 1.074 1.074 0 00.106.053l3.861 1.309a.9.9 0 01.198.094l12.752-7.517.012-.007.036-.02a2.503 2.503 0 01.506-.225c.11-.035.438-.133.792-.018.219.07.445.222.592.479.073.128.112.256.131.373.05.185.042.368.003.526-.084.34-.321.604-.537.807-.185.174-2.576 2.495-4.934 4.786l-3.21 3.12-.572.555 7.216 5.57a.64.64 0 00.309.05.28.28 0 00.143-.064.614.614 0 00.127-.148l.002-.002 3.552-18.032a2.224 2.224 0 00-.329.107h-.002zM23.36 29.337l-1.44-1.111-.349 2.234 1.789-1.123zm-2.76-3.316l1.431-1.392 3.211-3.12 1.195-1.16-8.013 4.722.044.102c.218.519.512 1.22.817 1.954.227.548.465 1.125.682 1.66l.348-2.229a.927.927 0 01.285-.537z" fill="#fff"/></svg>