<svg width="167" height="75" fill="none" xmlns="http://www.w3.org/2000/svg"><path d="M0 39.145c6.763 2.487 13.409 5.22 20.062 7.94l4.965 2.092c.824.343 1.659.715 2.474 1.033l2.432.93c3.273 1.124 6.58 2.154 9.988 2.67 13.563 2.342 27.75-.364 39.322-7.498 2.816-1.735 5.847-3.927 8.786-5.914l8.917-6.028c5.967-3.985 11.938-7.965 17.99-11.829 12.053-7.8 24.23-15.42 36.753-22.541-11.074 9.215-22.493 17.93-34.036 26.466-5.747 4.305-11.574 8.492-17.404 12.674l-8.782 6.225-4.412 3.08c-.75.513-1.441 1.024-2.238 1.54l-2.379 1.54c-12.88 7.947-28.935 10.513-43.481 6.94-3.645-.83-7.175-2.1-10.553-3.638l-2.497-1.229c-.821-.413-1.59-.846-2.39-1.267l-4.744-2.552C12.481 46.307 6.181 42.85 0 39.145zm108.261 3.059l26.431-8.334 19.177-6.141 1.19-.383a9.868 9.868 0 004.684-3.276c.486-.599.888-1.325 1.341-2.045l5.284-8.569-4.345 9.082c-.364.742-.693 1.532-1.184 2.3a11.415 11.415 0 01-1.684 2.088 11.661 11.661 0 01-3.367 2.289l-1.16.514-18.413 8.144-52.42 20.234 24.466-15.903zM37.338 64.566l-7.465 3.428a3.67 3.67 0 003.064 6.67l16.877-7.75c.102-.047.188-.112.284-.168a55.876 55.876 0 01-12.76-2.18z" fill="#FD780F"/></svg>