<svg width="54" height="54" fill="none" xmlns="http://www.w3.org/2000/svg"><path d="M50.469 18.024C52.227 14.534 54 10.27 54 8.123A8.12 8.12 0 0045.9 0a8.12 8.12 0 00-8.1 8.123c0 2.147 1.774 6.412 3.532 9.901a5.659 5.659 0 00-3.41 3.576H37.8a.9.9 0 100 1.8h.117c.627 2.584 3.903 4.5 7.983 4.5 4.543 0 8.1-2.372 8.1-5.4 0-1.828-1.33-3.483-3.531-4.476zM39.6 8.123A6.319 6.319 0 0145.9 1.8a6.319 6.319 0 016.3 6.323c0 2.49-3.362 9.638-5.544 13.06a.917.917 0 01-1.512 0c-2.18-3.422-5.544-10.57-5.544-13.06zM45.9 26.1c-3.414 0-6.3-1.648-6.3-3.6 0-1.104.987-2.189 2.566-2.877a41.83 41.83 0 001.46 2.526 2.693 2.693 0 004.548 0c.42-.658.927-1.535 1.46-2.526 1.58.688 2.566 1.773 2.566 2.877 0 1.952-2.885 3.6-6.3 3.6z" fill="#606060"/><path d="M50.4 8.1a4.5 4.5 0 10-9 0 4.5 4.5 0 009 0zm-7.2 0a2.7 2.7 0 115.4 0 2.7 2.7 0 01-5.4 0zm-24.3 18a7.2 7.2 0 10-7.2 7.2 7.208 7.208 0 007.2-7.2zm-12.6 0a5.4 5.4 0 1110.8 0 5.4 5.4 0 01-10.8 0z" fill="#606060"/><path d="M23.4 47.7h-.1c-.484-1.929-2.865-3.51-6.515-4.303 2.969-5.46 6.614-13.543 6.614-17.263a11.7 11.7 0 10-23.4 0c0 3.72 3.645 11.802 6.614 17.263C2.51 44.29 0 46.177 0 48.434 0 51.607 5.03 54 11.7 54c5.899 0 10.508-1.873 11.497-4.5h.203a.9.9 0 100-1.8zM1.8 26.134c-.003-5.475 4.425-9.919 9.9-9.934 5.474.015 9.903 4.46 9.9 9.934 0 3.81-5.087 14.657-8.386 19.83a1.79 1.79 0 01-3.028 0C6.887 40.792 1.8 29.945 1.8 26.135zM11.7 52.2c-5.666 0-9.9-1.988-9.9-3.766 0-1.165 1.98-2.672 5.739-3.38.404.703.787 1.341 1.13 1.878a3.59 3.59 0 006.062 0c.343-.537.726-1.175 1.13-1.877 3.76.707 5.739 2.214 5.739 3.38 0 1.777-4.234 3.765-9.9 3.765zm20.27-21.6a.9.9 0 00-.9-.9h-.92a3.18 3.18 0 01-.658-.069.9.9 0 10-.375 1.76c.34.073.686.109 1.033.109h.92a.9.9 0 00.9-.9zm15.835.754a.9.9 0 00-.556-1.138 9.794 9.794 0 00-1.898-.437.9.9 0 10-.227 1.786 8 8 0 011.548.356.9.9 0 001.133-.567zm3.539 3.654a.9.9 0 00.59-1.445 9.991 9.991 0 00-1.331-1.415.9.9 0 00-1.185 1.355c.401.35.767.739 1.092 1.16a.9.9 0 00.834.345zM37.285 30.6a.9.9 0 00-.9-.9h-1.772a.9.9 0 100 1.8h1.772a.9.9 0 00.9-.9zm16.374 6.428a.9.9 0 10-1.737.47c.139.513.226 1.038.26 1.569a.9.9 0 001.797-.12 9.83 9.83 0 00-.32-1.919zm-.747 4.616a.9.9 0 00-1.143.558 8.13 8.13 0 01-.663 1.448.9.9 0 001.556.906 9.886 9.886 0 00.808-1.77.9.9 0 00-.558-1.142zM28.714 47.7h-1.771a.9.9 0 000 1.8h1.771a.9.9 0 000-1.8zm15.886-.016c-.166.01-.333.016-.501.016h-1.215a.9.9 0 000 1.8H44.1c.205 0 .409-.007.612-.02a.9.9 0 10-.111-1.796zM42.597 30.6a.9.9 0 00-.9-.9h-1.772a.9.9 0 100 1.8h1.772a.9.9 0 00.9-.9zm6.414 15.43a8.143 8.143 0 01-1.353.84.9.9 0 00.797 1.615 9.949 9.949 0 001.651-1.027.9.9 0 00-1.095-1.428zM34.03 47.7h-1.773a.9.9 0 000 1.8h1.772a.9.9 0 000-1.8zm5.312 0H37.57a.9.9 0 100 1.8h1.772a.9.9 0 000-1.8zM27.404 24.473a.897.897 0 00.61-.239 3.167 3.167 0 011.181-.688.9.9 0 10-.547-1.714c-.69.22-1.322.59-1.855 1.08a.9.9 0 00.611 1.561zm5.039-1.073h1.771a.9.9 0 000-1.8h-1.771a.9.9 0 000 1.8zm-5.103 5.506a.9.9 0 00.025-.885 3.127 3.127 0 01-.36-1.318.91.91 0 00-.944-.855.9.9 0 00-.855.943 4.91 4.91 0 00.568 2.072.9.9 0 001.566.043z" fill="#606060"/></svg>