<svg width="93" height="93" viewBox="0 0 93 93" fill="none" xmlns="http://www.w3.org/2000/svg">
<g clip-path="url(#clip0)">
<path opacity="0.5" d="M77.7501 17C94.1101 40.96 82.4901 74.02 54.6501 82.41C38.4801 87.28 21.6801 82.17 10.8601 70.63C21.1501 85.69 40.3601 93.07 58.7501 87.53C89.4601 78.28 99.3401 40.04 77.7501 17Z" fill="#8CC63F"/>
<path d="M1.98012 59.74C-5.39988 35.27 8.52012 9.36002 32.9901 1.98002C52.1901 -3.79998 72.8201 3.33002 84.3201 19.74C85.9301 22.03 82.4601 24.46 80.8601 22.17C70.4101 7.27002 51.6601 0.780017 34.2101 6.04002C11.9701 12.74 -0.669884 36.28 6.03012 58.52C17.2901 95.91 69.1301 98.98 84.8901 63.42C86.0201 60.86 89.8901 62.58 88.7601 65.13C71.3001 104.53 14.3201 100.73 1.98012 59.74Z" fill="#8CC63F"/>
<path d="M84.88 63.4201C86.66 59.4001 86.67 56.4401 89.3 57.2501C92.19 58.1301 90.09 62.1101 88.75 65.1301C87.62 67.6801 83.75 65.9901 84.88 63.4201Z" fill="#8CC63F"/>
<path d="M88.1902 51.45C89.9202 37.3 84.1002 32.79 88.1102 31.58C89.2302 31.24 90.4102 31.88 90.7502 33C92.6202 39.2 93.1702 45.58 92.3902 51.96C92.0502 54.74 87.8502 54.23 88.1902 51.45Z" fill="#8CC63F"/>
<path d="M35.4401 65.2901C31.6501 53.9101 30.7801 52.9201 32.7001 52.2801C34.6201 51.6401 34.6801 53.4301 37.3801 61.5301C43.8901 53.2501 52.7201 48.4801 60.5701 55.5601C62.0601 56.9001 60.0301 59.1501 58.5401 57.8101C51.3301 51.3001 42.8501 58.2001 38.1601 65.6201C37.4701 66.7001 35.8401 66.4901 35.4401 65.2901Z" fill="#8CC63F"/>
<path d="M73.7102 53.01C76.1202 44.43 68.7102 44.74 70.1802 41.96C71.7502 38.99 79.0802 45.07 76.6202 53.83C76.0802 55.75 73.1702 54.93 73.7102 53.01Z" fill="#8CC63F"/>
<path d="M22.3202 67.35C20.1202 67.35 15.3102 59.44 17.7102 54.62C18.6002 52.84 21.2902 54.16 20.4302 55.95C20.3402 56.14 18.7402 59.85 23.4202 64.79C24.3302 65.76 23.6402 67.35 22.3202 67.35Z" fill="#8CC63F"/>
<path d="M57.1701 32.89C53.4201 32.89 46.4501 28.81 48.8601 26.66C50.9701 24.78 52.4001 30.23 57.5701 29.85C62.6801 29.48 63.1701 23.39 65.6701 25.05C68.3101 26.8 62.0401 32.89 57.1701 32.89Z" fill="#8CC63F"/>
<path d="M26.6201 37.77C22.8501 37.77 15.7101 33.48 18.2601 31.33C19.3701 30.39 20.3501 31.5 20.3901 31.5C24.0701 35.79 28.9901 36.21 32.9901 30.5C34.1401 28.86 36.6201 30.6 35.4701 32.24C33.3001 35.33 30.4001 37.77 26.6201 37.77Z" fill="#8CC63F"/>
<path d="M51.8501 77.9901C47.2801 77.9901 48.9101 76.3801 49.5601 76.5001C49.6301 76.5101 56.7501 77.8501 59.2801 73.0501C59.6801 72.2901 60.8301 72.9001 60.4301 73.6601C58.7701 76.8101 55.4001 77.9901 51.8501 77.9901Z" fill="#8CC63F"/>
<path d="M48.4501 73.4701C48.7401 72.2801 54.1701 75.0501 56.6801 70.7401C57.0101 70.1701 57.8801 70.6701 57.5501 71.2401C55.1501 75.3601 48.1701 74.6301 48.4501 73.4701Z" fill="#8CC63F"/>
</g>
<defs>
<clipPath id="clip0">
<rect width="92.73" height="92.68" fill="white"/>
</clipPath>
</defs>
</svg>
