<svg width="31" height="40" viewBox="0 0 31 40" fill="none" xmlns="http://www.w3.org/2000/svg">
<path d="M29.513 39.7878H0.885599C0.498434 39.7878 0.190979 39.473 0.190979 39.0766V19.0592C0.190979 18.6745 0.498434 18.3481 0.885599 18.3481C1.26138 18.3481 1.58022 18.6628 1.58022 19.0592V38.3655H28.8298V19.0592C28.8298 18.6745 29.1373 18.3481 29.5244 18.3481C29.9002 18.3481 30.2191 18.6628 30.2191 19.0592V39.0766C30.1963 39.473 29.8888 39.7878 29.513 39.7878Z" fill="black"/>
<path d="M29.5131 39.7878C29.3764 39.7878 29.2398 39.7528 29.1259 39.6595L15.1993 29.9248L1.27277 39.6595C0.953932 39.881 0.532605 39.7994 0.316248 39.473C0.0998909 39.1466 0.179601 38.7152 0.498443 38.4937L14.8122 28.4792C15.0513 28.3159 15.3588 28.3159 15.5865 28.4792L29.9002 38.4937C30.2191 38.7152 30.2988 39.1582 30.0824 39.473C29.9458 39.6829 29.7294 39.7878 29.5131 39.7878Z" fill="black"/>
<path d="M29.513 19.7704C29.3878 19.7704 29.2625 19.7354 29.1487 19.6654L25.6414 17.4504C25.3226 17.2405 25.2201 16.8091 25.4137 16.4827C25.6186 16.1563 26.0399 16.0513 26.3588 16.2495L29.8661 18.4646C30.1849 18.6745 30.2874 19.1058 30.0938 19.4323C29.9685 19.6538 29.7408 19.7704 29.513 19.7704Z" fill="black"/>
<path d="M0.885587 19.7704C0.657843 19.7704 0.430099 19.6538 0.293452 19.4323C0.0884823 19.1058 0.190967 18.6628 0.521196 18.4646L4.02846 16.2496C4.3473 16.0397 4.78001 16.1446 4.9736 16.4827C5.17857 16.8092 5.07608 17.2522 4.74585 17.4504L1.23859 19.6655C1.13611 19.7354 1.01085 19.7704 0.885587 19.7704Z" fill="black"/>
<path d="M15.1993 29.7849C15.0627 29.7849 14.926 29.7383 14.8121 29.6567L0.48703 19.6421C0.168188 19.4206 0.0884773 18.9776 0.304834 18.6628C0.521191 18.3364 0.953905 18.2548 1.26136 18.4763L15.1879 28.211L29.1145 18.4763C29.4333 18.2548 29.8547 18.3364 30.071 18.6628C30.2874 18.9893 30.2077 19.4206 29.8888 19.6421L15.5751 29.6567C15.4726 29.7383 15.336 29.7849 15.1993 29.7849Z" fill="black"/>
<path d="M4.39286 22.2186C4.01708 22.2186 3.69824 21.9039 3.69824 21.5075V1.11698C3.69824 0.720599 4.0057 0.405823 4.39286 0.405823H21.2915C21.4737 0.405823 21.6445 0.475773 21.7811 0.615673L26.4954 5.44224C26.6207 5.57048 26.7004 5.75701 26.7004 5.94355V21.5191C26.7004 21.9039 26.393 22.2303 26.0058 22.2303C25.63 22.2303 25.3112 21.9155 25.3112 21.5191V6.23501L20.9954 1.81649H5.07609V21.5191C5.07609 21.9039 4.76864 22.2186 4.39286 22.2186Z" fill="black"/>
<path d="M26.0058 6.64304H21.2915C20.9157 6.64304 20.5969 6.32827 20.5969 5.93188V1.11698C20.5969 0.82552 20.7677 0.569036 21.0182 0.464111C21.2801 0.359186 21.5762 0.417478 21.7697 0.61567L26.4841 5.44223C26.6776 5.64043 26.746 5.94354 26.6321 6.21169C26.5296 6.46817 26.2791 6.64304 26.0058 6.64304ZM21.9747 5.23238H24.3319L21.9747 2.8191V5.23238Z" fill="black"/>
<path d="M21.9292 20.1201H8.45811C8.08233 20.1201 7.76349 19.8053 7.76349 19.409C7.76349 19.0242 8.07094 18.6978 8.45811 18.6978H21.9292C22.305 18.6978 22.6238 19.0126 22.6238 19.409C22.6238 19.7937 22.3163 20.1201 21.9292 20.1201Z" fill="black"/>
<path d="M21.9292 15.3985H8.45811C8.08233 15.3985 7.76349 15.0837 7.76349 14.6873C7.76349 14.3026 8.07094 13.9762 8.45811 13.9762H21.9292C22.305 13.9762 22.6238 14.2909 22.6238 14.6873C22.6238 15.0837 22.3163 15.3985 21.9292 15.3985Z" fill="black"/>
<path d="M21.9292 10.6885H8.45811C8.08233 10.6885 7.76349 10.3737 7.76349 9.97735C7.76349 9.59262 8.07094 9.26619 8.45811 9.26619H21.9292C22.305 9.26619 22.6238 9.58097 22.6238 9.97735C22.6238 10.3737 22.3163 10.6885 21.9292 10.6885Z" fill="black"/>
</svg>
