<svg width="38" height="38" viewBox="0 0 38 38" fill="none" xmlns="http://www.w3.org/2000/svg">
<path d="M32.294 10.7807L27.7687 6.27246L19.3082 14.7009L10.8608 6.27246L6.33545 10.7807L14.7959 19.1961L6.33545 27.6246L10.8608 32.1328L19.3082 23.7044L27.7687 32.1328L32.294 27.6246L23.8336 19.1961L32.294 10.7807Z" fill="#8CC63F"/>
<path d="M3.47601 9.77442H0V0H9.81153V3.46286H3.47601V9.77442Z" fill="#4D4D4F"/>
<path d="M28.1885 3.46286V0H38V9.77442H34.524V3.46286H28.1885Z" fill="#4D4D4F"/>
<path d="M34.524 28.2388H38V38.0001H28.1885V34.5373H34.524V28.2388Z" fill="#4D4D4F"/>
<path d="M9.81153 34.5373V38.0001H0V28.2388H3.47601V34.5373H9.81153Z" fill="#4D4D4F"/>
</svg>
