<svg width="75" height="55" viewBox="0 0 75 55" fill="none" xmlns="http://www.w3.org/2000/svg">
<g clip-path="url(#clip0)">
<path d="M59.1455 26.9667H53.5182C53.027 26.9667 52.6101 26.561 52.6101 26.0502V23.3911C52.4315 23.331 52.2677 23.2559 52.0891 23.1808L50.2282 25.0587C49.8858 25.4042 49.2904 25.4042 48.948 25.0587L44.9732 21.0475C44.6159 20.6869 44.6159 20.1161 44.9732 19.7555L46.834 17.8776C46.7596 17.7123 46.6852 17.5321 46.6256 17.3518H43.9906C43.4994 17.3518 43.0826 16.9462 43.0826 16.4354V10.7716C43.0826 10.2759 43.4845 9.85521 43.9906 9.85521H46.6256C46.6852 9.67493 46.7596 9.50967 46.834 9.32939L44.9732 7.45149C44.8094 7.28624 44.7052 7.04587 44.7052 6.80549C44.7052 6.56512 44.7945 6.33977 44.9732 6.1595L48.948 2.1483C49.2904 1.80276 49.8858 1.80276 50.2282 2.1483L52.104 4.04122C52.2677 3.96611 52.4464 3.89099 52.625 3.8309V1.17179C52.625 0.676021 53.027 0.255371 53.5331 0.255371H59.1604C59.6516 0.255371 60.0685 0.660998 60.0685 1.17179V3.8309C60.2471 3.89099 60.4109 3.96611 60.5895 4.04122L62.4504 2.16332C62.7928 1.81779 63.3882 1.81779 63.7306 2.16332L67.7054 6.17452C67.8692 6.33977 67.9734 6.58015 67.9734 6.82052C67.9734 7.06089 67.8841 7.28624 67.7054 7.46652L65.8446 9.34442C65.919 9.50967 65.9934 9.68995 66.053 9.87023H68.6879C69.1792 9.87023 69.596 10.2759 69.596 10.7866V16.4654C69.596 16.9612 69.1941 17.3818 68.6879 17.3818H66.053C65.9934 17.5621 65.919 17.7274 65.8446 17.9077L67.7054 19.7856C68.0627 20.1461 68.0627 20.717 67.7054 21.0775L63.7306 25.0888C63.5669 25.254 63.3287 25.3592 63.0905 25.3592C62.8523 25.3592 62.629 25.269 62.4504 25.0888L60.5895 23.2108C60.4257 23.286 60.2471 23.3611 60.0685 23.4212V26.0803C60.0685 26.3207 59.9791 26.546 59.8005 26.7263C59.607 26.8765 59.3837 26.9667 59.1455 26.9667ZM54.4263 25.1488H58.2523V22.7451C58.2523 22.3395 58.5053 21.994 58.8924 21.8738C59.3986 21.7085 59.8898 21.5132 60.3364 21.2729C60.6788 21.0926 61.1105 21.1527 61.3934 21.4381L63.0756 23.1357L65.7701 20.4165L64.0879 18.7189C63.8051 18.4335 63.7455 17.9978 63.9242 17.6523C64.1623 17.2016 64.3559 16.7058 64.5196 16.195C64.6387 15.8194 64.9811 15.549 65.3831 15.549H67.765V11.688H65.3831C64.9811 11.688 64.6387 11.4326 64.5196 11.042C64.3559 10.5162 64.1623 10.0355 63.9242 9.58479C63.7455 9.23925 63.8051 8.80358 64.0879 8.51814L65.7701 6.82052L63.0756 4.10131L61.3934 5.79894C61.1105 6.08438 60.6788 6.14447 60.3364 5.96419C59.8898 5.72382 59.3986 5.52852 58.8924 5.36326C58.5202 5.24308 58.2523 4.89755 58.2523 4.49192V2.0882H54.4263V4.49192C54.4263 4.89755 54.1733 5.24308 53.7862 5.36326C53.2652 5.52852 52.7888 5.72382 52.3422 5.96419C51.9849 6.14447 51.5681 6.08438 51.2852 5.79894L49.603 4.10131L46.8936 6.82052L48.5758 8.51814C48.8587 8.80358 48.9182 9.23925 48.7396 9.58479C48.5014 10.0355 48.3078 10.5313 48.1441 11.042C48.025 11.4176 47.6826 11.688 47.2806 11.688H44.8987V15.549H47.2806C47.6826 15.549 48.025 15.8044 48.1441 16.195C48.3078 16.7208 48.5014 17.2016 48.7396 17.6523C48.9182 17.9978 48.8587 18.4335 48.5758 18.7189L46.8936 20.4165L49.5881 23.1357L51.2703 21.4381C51.5532 21.1527 51.9849 21.0926 52.3273 21.2729C52.7739 21.5132 53.2652 21.7085 53.7713 21.8738C54.1435 21.994 54.4114 22.3395 54.4114 22.7451V25.1488H54.4263Z" fill="white"/>
<path d="M56.3319 21.0175C54.4562 21.0175 52.5655 20.2964 51.1364 18.8541C49.7519 17.457 48.9927 15.5941 48.9927 13.611C48.9927 11.628 49.7519 9.76509 51.1364 8.36793C52.5209 6.97077 54.3668 6.20459 56.3319 6.20459C58.297 6.20459 60.128 6.97077 61.5274 8.36793C62.9119 9.76509 63.6711 11.628 63.6711 13.611C63.6711 15.5941 62.9119 17.457 61.5274 18.8541C60.0983 20.2964 58.2076 21.0175 56.3319 21.0175ZM56.3319 8.0224C54.8581 8.0224 53.4587 8.6083 52.4167 9.65993C51.3746 10.7116 50.794 12.1237 50.794 13.611C50.794 15.0983 51.3746 16.5105 52.4167 17.5621C54.5752 19.7405 58.0885 19.7405 60.2471 17.5621C61.2892 16.5105 61.8698 15.0983 61.8698 13.611C61.8698 12.1237 61.2892 10.7116 60.2471 9.65993C59.2051 8.6083 57.8057 8.0224 56.3319 8.0224Z" fill="white"/>
<path d="M68.7922 41.9148H65.4426C65.1449 41.9148 64.9067 41.6745 64.9067 41.374V39.7815C64.8025 39.7365 64.6983 39.7064 64.5941 39.6614L63.4776 40.7881C63.2692 40.9984 62.9119 40.9984 62.7184 40.7881L60.3513 38.3994C60.1429 38.1891 60.1429 37.8436 60.3513 37.6332L61.4679 36.5065C61.4232 36.4013 61.3785 36.2962 61.3488 36.191H59.7708C59.473 36.191 59.2348 35.9506 59.2348 35.6502V32.2699C59.2348 31.9695 59.473 31.7291 59.7708 31.7291H61.3488C61.3934 31.6239 61.4232 31.5188 61.4679 31.4136L60.3513 30.2869C60.2471 30.1817 60.1876 30.0465 60.1876 29.8963C60.1876 29.746 60.2471 29.6108 60.3513 29.5057L62.7184 27.117C62.9268 26.9067 63.2841 26.9067 63.4776 27.117L64.5941 28.2437C64.6983 28.1986 64.8025 28.1536 64.9067 28.1235V26.5311C64.9067 26.2306 65.1449 25.9902 65.4426 25.9902H68.7922C69.0899 25.9902 69.3281 26.2306 69.3281 26.5311V28.1235C69.4323 28.1686 69.5365 28.1986 69.6407 28.2437L70.7573 27.117C70.9657 26.9067 71.323 26.9067 71.5165 27.117L73.8835 29.5057C73.9877 29.6108 74.0473 29.746 74.0473 29.8963C74.0473 30.0465 73.9877 30.1817 73.8835 30.2869L72.767 31.4136C72.8116 31.5188 72.8563 31.6239 72.8861 31.7291H74.4641C74.7618 31.7291 75 31.9695 75 32.2699V35.6502C75 35.9506 74.7618 36.191 74.4641 36.191H72.8861C72.8414 36.2962 72.8116 36.4013 72.767 36.5065L73.8835 37.6332C74.0919 37.8436 74.0919 38.1891 73.8835 38.3994L71.5165 40.7881C71.4123 40.8933 71.2783 40.9534 71.1294 40.9534C70.9806 40.9534 70.8466 40.8933 70.7424 40.7881L69.6259 39.6614C69.5216 39.7064 69.4174 39.7515 69.3132 39.7815V41.374C69.3132 41.5242 69.2537 41.6594 69.1495 41.7646C69.0453 41.8698 68.9262 41.9148 68.7922 41.9148ZM65.9786 40.8332H68.2563V39.406C68.2563 39.1656 68.4051 38.9553 68.6284 38.8802C68.9411 38.79 69.2239 38.6698 69.4919 38.5196C69.7003 38.4144 69.9534 38.4445 70.1171 38.6097L71.1145 39.6163L72.7223 37.9938L71.7249 36.9872C71.5611 36.822 71.5165 36.5666 71.6356 36.3563C71.7696 36.0858 71.8887 35.8004 71.9929 35.4849C72.0673 35.2596 72.2757 35.1093 72.499 35.1093H73.9133V32.8108H72.499C72.2608 32.8108 72.0524 32.6605 71.9929 32.4352C71.9035 32.1197 71.7844 31.8343 71.6356 31.5638C71.5314 31.3535 71.5611 31.0981 71.7249 30.9329L72.7223 29.9263L71.1145 28.3038L70.1171 29.3104C69.9534 29.4756 69.7003 29.5207 69.4919 29.4005C69.2239 29.2653 68.9411 29.1451 68.6284 29.0399C68.4051 28.9648 68.2563 28.7545 68.2563 28.5292V27.102H65.9786V28.5292C65.9786 28.7695 65.8297 28.9799 65.6064 29.0399C65.2938 29.1301 65.0109 29.2503 64.743 29.4005C64.5346 29.5057 64.2815 29.4756 64.1177 29.3104L63.1203 28.3038L61.5125 29.9263L62.5099 30.9329C62.6737 31.0981 62.7184 31.3535 62.5993 31.5638C62.4653 31.8343 62.3462 32.1197 62.242 32.4352C62.1675 32.6605 61.9591 32.8108 61.7358 32.8108H60.3216V35.1093H61.7358C61.974 35.1093 62.1824 35.2596 62.242 35.4849C62.3313 35.8004 62.4504 36.0858 62.5993 36.3563C62.7035 36.5666 62.6737 36.822 62.5099 36.9872L61.5125 37.9938L63.1203 39.6163L64.1177 38.6097C64.2815 38.4445 64.5346 38.3994 64.743 38.5196C65.0109 38.6548 65.2938 38.775 65.6064 38.8802C65.8297 38.9553 65.9786 39.1656 65.9786 39.406V40.8332Z" fill="white"/>
<path d="M67.11 38.3693C65.9935 38.3693 64.8621 37.9336 64.0135 37.0773C63.1799 36.236 62.7332 35.1393 62.7332 33.9525C62.7332 32.7656 63.1947 31.6689 64.0135 30.8276C64.8323 29.9863 65.9339 29.5356 67.11 29.5356C68.286 29.5356 69.3728 30.0014 70.2064 30.8276C71.0401 31.6539 71.4867 32.7656 71.4867 33.9525C71.4867 35.1393 71.0252 36.236 70.2064 37.0773C69.3579 37.9336 68.2414 38.3693 67.11 38.3693ZM67.11 30.6173C66.2317 30.6173 65.398 30.9629 64.7727 31.5938C64.1475 32.2248 63.8051 33.0661 63.8051 33.9525C63.8051 34.8388 64.1475 35.6801 64.7727 36.3111C66.053 37.6031 68.1521 37.6031 69.4472 36.3111C70.0725 35.6801 70.4149 34.8388 70.4149 33.9525C70.4149 33.0661 70.0725 32.2248 69.4472 31.5938C68.822 30.9779 67.9883 30.6173 67.11 30.6173Z" fill="white"/>
<path d="M40.1052 55H0.908098C0.401945 55 0 54.5944 0 54.0986V0.916416C0 0.405627 0.401945 0 0.908098 0H40.1052C40.5965 0 41.0133 0.405627 41.0133 0.916416V4.94264C41.0133 5.4384 40.6114 5.85906 40.1052 5.85906C39.6139 5.85906 39.1971 5.45343 39.1971 4.94264V1.81781H1.80131V53.1822H39.1971V27.9883C39.1971 27.4925 39.599 27.0718 40.1052 27.0718C40.5965 27.0718 41.0133 27.4775 41.0133 27.9883V54.0986C40.9984 54.5944 40.5965 55 40.1052 55Z" fill="white"/>
<path d="M27.8236 11.7933H9.91466C9.42339 11.7933 9.00656 11.3877 9.00656 10.8769C9.00656 10.3811 9.40851 9.96045 9.91466 9.96045H27.8087C28.2999 9.96045 28.7168 10.3661 28.7168 10.8769C28.7168 11.3877 28.3148 11.7933 27.8236 11.7933Z" fill="white"/>
<path d="M26.9601 20.9273H5.99944C5.50817 20.9273 5.09134 20.5217 5.09134 20.0109C5.09134 19.5151 5.49328 19.0945 5.99944 19.0945H26.9601C27.4514 19.0945 27.8682 19.5001 27.8682 20.0109C27.8682 20.5217 27.4663 20.9273 26.9601 20.9273Z" fill="white"/>
<path d="M25.9329 27.1019H5.99944C5.50817 27.1019 5.09134 26.6962 5.09134 26.1855C5.09134 25.6897 5.49328 25.269 5.99944 25.269H25.9329C26.4242 25.269 26.841 25.6747 26.841 26.1855C26.8262 26.6962 26.4242 27.1019 25.9329 27.1019Z" fill="white"/>
<path d="M24.8909 33.2764H5.99944C5.50817 33.2764 5.09134 32.8708 5.09134 32.36C5.09134 31.8492 5.49328 31.4436 5.99944 31.4436H24.8909C25.3821 31.4436 25.799 31.8492 25.799 32.36C25.799 32.8708 25.397 33.2764 24.8909 33.2764Z" fill="white"/>
<path d="M23.8637 39.451H5.99944C5.50817 39.451 5.09134 39.0454 5.09134 38.5346C5.09134 38.0388 5.49328 37.6182 5.99944 37.6182H23.8488C24.34 37.6182 24.7569 38.0238 24.7569 38.5346C24.7569 39.0303 24.3549 39.451 23.8637 39.451Z" fill="white"/>
<path d="M33.1977 48.6151H20.6779C20.1866 48.6151 19.7698 48.2094 19.7698 47.6986C19.7698 47.1879 20.1717 46.7822 20.6779 46.7822H33.1977C33.689 46.7822 34.1058 47.1879 34.1058 47.6986C34.1058 48.2094 33.7039 48.6151 33.1977 48.6151Z" fill="white"/>
<path d="M33.4657 43.1467C33.421 43.1467 33.3615 43.1467 33.3168 43.1317L28.1957 42.2604C27.9575 42.2153 27.7491 42.0801 27.6151 41.8848C27.4811 41.6895 27.4216 41.4491 27.4663 41.2088L32.8702 9.014C33.0191 8.15767 33.823 7.57177 34.6715 7.722L38.4825 8.368C39.3311 8.51823 39.9117 9.32949 39.7628 10.1858L34.3589 42.3806C34.2844 42.8313 33.8974 43.1467 33.4657 43.1467ZM29.3867 40.6078L32.7362 41.1787L37.9466 10.1107L34.5971 9.53981L29.3867 40.6078Z" fill="white"/>
<path d="M29.9077 48.615C29.8631 48.615 29.8035 48.615 29.7589 48.6C29.4016 48.5399 29.1187 48.2695 29.0294 47.9239L27.4663 41.5691C27.3919 41.2687 27.4663 40.9532 27.6747 40.7278C27.8831 40.5025 28.1809 40.3973 28.4935 40.4424L33.6146 41.3137C33.9123 41.3588 34.1654 41.5691 34.2845 41.8395C34.4036 42.125 34.3738 42.4405 34.21 42.6959L30.6521 48.1793C30.5032 48.4648 30.2204 48.615 29.9077 48.615ZM29.5505 42.4855L30.2799 45.4752L31.9472 42.9062L29.5505 42.4855Z" fill="white"/>
<path d="M38.0954 10.1406C38.0508 10.1406 37.9912 10.1406 37.9466 10.1256L34.344 9.50965C33.8527 9.41951 33.5252 8.95379 33.5996 8.45803L33.8676 6.88059C33.9867 6.15947 34.3886 5.51348 34.9841 5.09283C35.5796 4.67218 36.309 4.50692 37.0236 4.62711C37.7382 4.74729 38.3783 5.15292 38.7951 5.75385C39.212 6.35478 39.3906 7.09091 39.2566 7.81203L38.9887 9.38947C38.944 9.62984 38.81 9.84016 38.6165 9.97537C38.4676 10.0805 38.289 10.1406 38.0954 10.1406ZM35.5349 7.8571L37.366 8.17258L37.4851 7.48152C37.5297 7.24115 37.4702 6.98575 37.3213 6.79045C37.1725 6.58012 36.964 6.44491 36.7259 6.41487C36.4877 6.3698 36.2346 6.42989 36.0262 6.58012C35.8178 6.73036 35.6838 6.94068 35.654 7.18105L35.5349 7.8571Z" fill="white"/>
<path d="M39.1822 25.9902C39.1376 25.9902 39.078 25.9902 39.0334 25.9752C38.5421 25.885 38.2146 25.4193 38.289 24.9235L39.8819 15.4739C39.9564 15.0683 39.6735 14.6777 39.2716 14.6176L33.0042 13.551C32.5129 13.4608 32.1854 12.9951 32.2599 12.4993C32.3492 12.0036 32.8107 11.6731 33.3019 11.7482L39.5693 12.8148C40.9538 13.0552 41.8917 14.3772 41.6535 15.7744L40.0606 25.224C40.001 25.6747 39.614 25.9902 39.1822 25.9902Z" fill="white"/>
<path d="M37.7828 17.3968C37.7382 17.3968 37.6786 17.3968 37.634 17.3818L32.5129 16.5104C32.0216 16.4203 31.6941 15.9546 31.7685 15.4588C31.8579 14.963 32.3193 14.6325 32.8106 14.7077L37.9317 15.579C38.423 15.6691 38.7505 16.1349 38.676 16.6306C38.6016 17.0813 38.2145 17.3968 37.7828 17.3968Z" fill="white"/>
</g>
<defs>
<clipPath id="clip0">
<rect width="75" height="55" fill="white"/>
</clipPath>
</defs>
</svg>
