<svg width="69" height="57" viewBox="0 0 69 57" fill="none" xmlns="http://www.w3.org/2000/svg">
<path d="M54.2336 57.0001C54.0626 57.0001 53.9058 56.9569 53.749 56.8848C39.6383 49.8769 39.4672 29.7474 39.4672 28.8822C39.4672 28.3343 39.8663 27.8585 40.4079 27.7864C46.7079 26.8491 53.6065 22.7684 53.6777 22.7251C54.0198 22.5233 54.4474 22.5233 54.7895 22.7251C54.8607 22.7684 61.7593 26.8491 68.0592 27.7864C68.6009 27.8729 69 28.3343 69 28.8822C69 29.7618 68.8432 50.4393 54.6897 56.8992C54.5472 56.9713 54.3904 57.0001 54.2336 57.0001ZM41.705 29.8195C41.9188 33.7416 43.4296 48.882 54.2621 54.6498C65.0803 49.3001 66.5769 33.7848 66.7765 29.8195C61.3602 28.7813 55.9582 25.9262 54.2336 24.9601C52.5089 25.9262 47.1212 28.7813 41.705 29.8195Z" fill="white"/>
<path d="M54.2336 51.2035C54.0198 51.2035 53.806 51.1458 53.6207 51.016C46.7222 46.3874 45.5106 36.7408 45.3396 34.8519C45.2826 34.2462 45.7244 33.6983 46.3231 33.6406C46.9217 33.583 47.4633 34.03 47.5203 34.6356C47.6201 35.6449 48.5751 44.3975 54.2479 48.7378C59.7781 44.7148 60.7901 36.3371 60.9469 34.6356C61.0039 34.03 61.5313 33.5685 62.1299 33.6262C62.7286 33.6839 63.1847 34.2174 63.1277 34.823C62.9566 36.7552 61.7593 46.6037 54.818 51.0016C54.647 51.1458 54.4474 51.2035 54.2336 51.2035Z" fill="white"/>
<path d="M42.5175 51.5639H4.46127C1.99546 51.5639 0 49.5452 0 47.0506V4.51328C0 2.01872 1.99546 0 4.46127 0H53.2359C55.7017 0 57.6972 2.01872 57.6972 4.51328V20.5765C57.6972 21.1821 57.2126 21.6868 56.5997 21.6868C56.001 21.6868 55.5022 21.1966 55.5022 20.5765V4.51328C55.5022 3.24437 54.4902 2.22059 53.2359 2.22059H4.46127C3.20698 2.22059 2.195 3.24437 2.195 4.51328V47.0506C2.195 48.3195 3.20698 49.3433 4.46127 49.3433H42.5175C43.1161 49.3433 43.615 49.8335 43.615 50.4536C43.615 51.0736 43.1303 51.5639 42.5175 51.5639Z" fill="white"/>
<path d="M40.0659 45.8681H8.19564C6.67055 45.8681 5.41626 44.6136 5.41626 43.0563V8.49294C5.41626 6.95006 6.65629 5.68115 8.19564 5.68115H49.5016C51.0267 5.68115 52.281 6.93564 52.281 8.49294V20.4322C52.281 21.0378 51.7963 21.5425 51.1835 21.5425C50.5848 21.5425 50.086 21.0523 50.086 20.4322V8.49294C50.086 8.16129 49.8294 7.90174 49.5016 7.90174H8.19564C7.86782 7.90174 7.61126 8.16129 7.61126 8.49294V43.0563C7.61126 43.388 7.86782 43.6475 8.19564 43.6475H40.0659C40.6646 43.6475 41.1634 44.1378 41.1634 44.7578C41.1634 45.3778 40.6646 45.8681 40.0659 45.8681Z" fill="white"/>
<path d="M26.6821 17.9233H21.2801C20.6815 17.9233 20.1826 17.433 20.1826 16.813V13.4821C20.1826 12.8765 20.6672 12.3718 21.2801 12.3718H26.6821C27.2807 12.3718 27.7796 12.8621 27.7796 13.4821V16.813C27.7796 17.4186 27.295 17.9233 26.6821 17.9233ZM22.3776 15.7027H25.5846V14.5924H22.3776V15.7027Z" fill="white"/>
<path d="M16.9471 17.9233H11.5451C10.9465 17.9233 10.4476 17.433 10.4476 16.813V13.4821C10.4476 12.8765 10.9322 12.3718 11.5451 12.3718H16.9471C17.5457 12.3718 18.0446 12.8621 18.0446 13.4821V16.813C18.0446 17.4186 17.5457 17.9233 16.9471 17.9233ZM12.6426 15.7027H15.8496V14.5924H12.6426V15.7027Z" fill="white"/>
<path d="M26.6821 25.0178H21.2801C20.6815 25.0178 20.1826 24.5275 20.1826 23.9075V20.5766C20.1826 19.971 20.6672 19.4663 21.2801 19.4663H26.6821C27.2807 19.4663 27.7796 19.9566 27.7796 20.5766V23.9075C27.7796 24.5131 27.295 25.0178 26.6821 25.0178ZM22.3776 22.7972H25.5846V21.6869H22.3776V22.7972Z" fill="white"/>
<path d="M16.9471 25.0178H11.5451C10.9465 25.0178 10.4476 24.5275 10.4476 23.9075V20.5766C10.4476 19.971 10.9322 19.4663 11.5451 19.4663H16.9471C17.5457 19.4663 18.0446 19.9566 18.0446 20.5766V23.9075C18.0446 24.5131 17.5457 25.0178 16.9471 25.0178ZM12.6426 22.7972H15.8496V21.6869H12.6426V22.7972Z" fill="white"/>
<path d="M26.6821 32.0976H21.2801C20.6815 32.0976 20.1826 31.6074 20.1826 30.9873V27.6564C20.1826 27.0508 20.6672 26.5461 21.2801 26.5461H26.6821C27.2807 26.5461 27.7796 27.0364 27.7796 27.6564V30.9873C27.7796 31.6074 27.295 32.0976 26.6821 32.0976ZM22.3776 29.877H25.5846V28.7667H22.3776V29.877Z" fill="white"/>
<path d="M16.9471 32.0976H11.5451C10.9465 32.0976 10.4476 31.6074 10.4476 30.9873V27.6564C10.4476 27.0508 10.9322 26.5461 11.5451 26.5461H16.9471C17.5457 26.5461 18.0446 27.0364 18.0446 27.6564V30.9873C18.0446 31.6074 17.5457 32.0976 16.9471 32.0976ZM12.6426 29.877H15.8496V28.7667H12.6426V29.877Z" fill="white"/>
<path d="M26.6821 39.1921H21.2801C20.6815 39.1921 20.1826 38.7018 20.1826 38.0818V34.7509C20.1826 34.1453 20.6672 33.6406 21.2801 33.6406H26.6821C27.2807 33.6406 27.7796 34.1309 27.7796 34.7509V38.0818C27.7796 38.6874 27.295 39.1921 26.6821 39.1921ZM22.3776 36.9715H25.5846V35.8612H22.3776V36.9715Z" fill="white"/>
<path d="M16.9471 39.1921H11.5451C10.9465 39.1921 10.4476 38.7018 10.4476 38.0818V34.7509C10.4476 34.1453 10.9322 33.6406 11.5451 33.6406H16.9471C17.5457 33.6406 18.0446 34.1309 18.0446 34.7509V38.0818C18.0446 38.6874 17.5457 39.1921 16.9471 39.1921ZM12.6426 36.9715H15.8496V35.8612H12.6426V36.9715Z" fill="white"/>
<path d="M39.0824 41.4413C36.9729 41.4413 35.2483 39.711 35.2483 37.5625V13.9867C35.2483 11.8527 36.9729 10.1079 39.0824 10.1079C41.1919 10.1079 42.9165 11.8527 42.9165 13.9867V24.1957C42.9165 24.8013 42.4319 25.306 41.819 25.306C41.2204 25.306 40.7215 24.8157 40.7215 24.1957V13.9867C40.7215 13.0783 39.9804 12.3285 39.0824 12.3285C38.1845 12.3285 37.4433 13.0783 37.4433 13.9867V37.5769C37.4433 38.4853 38.1845 39.2352 39.0824 39.2352C39.6811 39.2352 40.1799 39.7254 40.1799 40.3455C40.1799 40.9655 39.6953 41.4413 39.0824 41.4413Z" fill="white"/>
<path d="M17.6313 57H6.74177C6.14314 57 5.64427 56.5097 5.64427 55.8897V50.4536C5.64427 49.8479 6.12888 49.3433 6.74177 49.3433H17.6313C18.2299 49.3433 18.7288 49.8335 18.7288 50.4536V55.8897C18.7288 56.4953 18.2299 57 17.6313 57ZM7.83927 54.7794H16.5338V51.5638H7.83927V54.7794Z" fill="white"/>
<path d="M47.4348 57H40.0659C39.4672 57 38.9684 56.5097 38.9684 55.8897V50.4536C38.9684 49.8479 39.453 49.3433 40.0659 49.3433H42.5174C43.1161 49.3433 43.6149 49.8335 43.6149 50.4536C43.6149 51.0592 43.1303 51.5638 42.5174 51.5638H41.1491V54.7794H47.4206C48.0192 54.7794 48.5181 55.2696 48.5181 55.8897C48.5181 56.4953 48.0335 57 47.4348 57Z" fill="white"/>
<path d="M63.6123 56.9999H1.0975C0.484611 56.9999 0 56.4952 0 55.8896C0 55.284 0.484611 54.7793 1.0975 54.7793H63.6123C64.2109 54.7793 64.7098 55.2696 64.7098 55.8896C64.7098 56.4952 64.2252 56.9999 63.6123 56.9999Z" fill="white"/>
</svg>
