<svg width="66" height="63" viewBox="0 0 66 63" fill="none" xmlns="http://www.w3.org/2000/svg">
<path d="M45.0494 56.9032H4.73618C2.11735 56.9032 0 54.7589 0 52.138V18.3044C0 15.6694 2.13128 13.5391 4.73618 13.5391H57.0013C59.6201 13.5391 61.7374 15.6834 61.7374 18.3044V37.5057C61.7374 38.0943 61.2638 38.5849 60.6648 38.5849C60.0798 38.5849 59.5922 38.1084 59.5922 37.5057V18.3044C59.5922 16.8608 58.4221 15.6975 57.0013 15.6975H4.73618C3.30139 15.6975 2.14521 16.8748 2.14521 18.3044V52.138C2.14521 53.5816 3.31532 54.7449 4.73618 54.7449H45.0494C45.6344 54.7449 46.122 55.2214 46.122 55.8241C46.122 56.4127 45.6344 56.9032 45.0494 56.9032Z" fill="white"/>
<path d="M42.5281 15.6835H19.2233C18.6382 15.6835 18.1507 15.207 18.1507 14.6043V7.45635C18.1507 5.84456 19.4601 4.5271 21.0621 4.5271H40.7032C42.3052 4.5271 43.6146 5.84456 43.6146 7.45635V14.6043C43.6007 15.207 43.1271 15.6835 42.5281 15.6835ZM20.2959 13.5391H41.4555V7.45635C41.4555 7.03589 41.1072 6.6855 40.6893 6.6855H21.0481C20.6302 6.6855 20.282 7.03589 20.282 7.45635V13.5391H20.2959Z" fill="white"/>
<path d="M47.515 15.6834H14.2364C13.6513 15.6834 13.1638 15.2069 13.1638 14.6042V6.61535C13.1638 2.9713 16.1169 0 19.7387 0H42.0126C45.6344 0 48.5876 2.9713 48.5876 6.61535V14.6182C48.5876 15.2069 48.1 15.6834 47.515 15.6834ZM15.309 13.539H46.4424V6.61535C46.4424 4.16262 44.4504 2.1584 42.0126 2.1584H19.7387C17.3009 2.1584 15.309 4.16262 15.309 6.61535V13.539Z" fill="white"/>
<path d="M37.0954 34.5062C36.6357 34.5062 36.2039 34.1979 36.0646 33.7214C35.8974 33.1467 36.2317 32.5581 36.8028 32.3899L60.3862 25.6064C60.9573 25.4382 61.5424 25.7745 61.7096 26.3492C61.8767 26.9238 61.5424 27.5125 60.9713 27.6807L37.3879 34.4642C37.2904 34.4922 37.1929 34.5062 37.0954 34.5062Z" fill="white"/>
<path d="M24.656 34.5062C24.5585 34.5062 24.4609 34.4922 24.3634 34.4642L0.78007 27.6807C0.208943 27.5125 -0.111446 26.9238 0.0417835 26.3492C0.208943 25.7745 0.794 25.4382 1.36513 25.6064L24.9485 32.3899C25.5196 32.5581 25.84 33.1467 25.6868 33.7214C25.5475 34.1979 25.1157 34.5062 24.656 34.5062Z" fill="white"/>
<path d="M34.3373 39.44H27.4002C25.2968 39.44 23.5834 37.716 23.5834 35.5997V28.1434C23.5834 27.5548 24.057 27.0642 24.656 27.0642H37.0954C37.6805 27.0642 38.168 27.5407 38.168 28.1434V35.5997C38.168 37.716 36.4546 39.44 34.3373 39.44ZM25.7286 29.2226V35.5997C25.7286 36.5387 26.4808 37.2956 27.4141 37.2956H34.3512C35.2845 37.2956 36.0367 36.5387 36.0367 35.5997V29.2226H25.7286Z" fill="white"/>
<path d="M38.8645 29.2226H22.873C22.2879 29.2226 21.8004 28.7461 21.8004 28.1434C21.8004 27.5407 22.274 27.0642 22.873 27.0642H38.8645C39.4496 27.0642 39.9371 27.5407 39.9371 28.1434C39.9371 28.7461 39.4635 29.2226 38.8645 29.2226Z" fill="white"/>
<path d="M28.0827 51.6613H5.9202C5.33514 51.6613 4.8476 51.1848 4.8476 50.5821C4.8476 49.9935 5.32121 49.5029 5.9202 49.5029H28.0827C28.6678 49.5029 29.1553 49.9795 29.1553 50.5821C29.1553 51.1848 28.6817 51.6613 28.0827 51.6613Z" fill="white"/>
<path d="M55.8172 62.9999C55.6501 62.9999 55.4968 62.9579 55.3436 62.8878C45.7459 58.1506 45.6345 44.6115 45.6345 44.0369C45.6345 43.5043 46.0245 43.0418 46.5538 42.9717C50.691 42.369 55.2183 39.692 55.274 39.664C55.6083 39.4678 56.0262 39.4678 56.3605 39.664C56.4023 39.692 60.9574 42.369 65.0806 42.9717C65.61 43.0558 66 43.5043 66 44.0369C66 44.6255 65.8886 58.543 56.263 62.9158C56.1237 62.9719 55.9705 62.9999 55.8172 62.9999ZM47.8354 44.9339C48.0304 47.8491 49.1727 57.0573 55.8451 60.7294C62.5036 57.3096 63.6319 47.8912 63.8269 44.9339C60.428 44.2331 57.1127 42.5232 55.8312 41.8224C54.5496 42.5232 51.2204 44.2331 47.8354 44.9339Z" fill="white"/>
<path d="M61.0688 49.0125C60.9852 49.0125 60.9016 48.9985 60.818 48.9845C58.3524 48.3678 56.6809 47.5129 55.8172 46.9943C54.9675 47.5129 53.2959 48.3678 50.8164 48.9845C50.2452 49.1246 49.6602 48.7743 49.5209 48.1996C49.3816 47.625 49.7298 47.0363 50.301 46.8962C53.5327 46.0973 55.1346 44.8639 55.1486 44.8499C55.5386 44.5556 56.0679 44.5556 56.458 44.8499C56.4719 44.8639 58.1296 46.0973 61.3056 46.8962C61.8767 47.0363 62.225 47.625 62.0857 48.1996C61.9882 48.6902 61.5563 49.0125 61.0688 49.0125Z" fill="white"/>
</svg>
