<svg width="61" height="75" viewBox="0 0 61 75" fill="none" xmlns="http://www.w3.org/2000/svg">
<g clip-path="url(#clip0)">
<path d="M24.4297 34.5077C23.7808 34.5077 23.2535 33.9772 23.2535 33.3243V28.1149H16.2504C15.0066 28.1149 13.9792 27.0947 13.9792 25.8298V20.5251C13.9792 19.2737 14.9931 18.24 16.2504 18.24H23.3347C24.5784 18.24 25.6059 19.2601 25.6059 20.5251V22.2661C25.6059 22.919 25.0787 23.4495 24.4297 23.4495C23.7808 23.4495 23.2535 22.919 23.2535 22.2661V20.6203H16.3451V25.7482H23.3482C24.592 25.7482 25.6194 26.7683 25.6194 28.0332V33.3379C25.6059 33.9772 25.0787 34.5077 24.4297 34.5077Z" fill="white"/>
<path d="M19.7926 34.6436C19.1436 34.6436 18.6164 34.1132 18.6164 33.4603V17.8999C18.6164 17.247 19.1436 16.7166 19.7926 16.7166C20.4415 16.7166 20.9688 17.247 20.9688 17.8999V33.4603C20.9688 34.1132 20.4415 34.6436 19.7926 34.6436Z" fill="white"/>
<path d="M44.1953 23.2453H37.111C35.8673 23.2453 34.8398 22.2252 34.8398 20.9602V19.2192C34.8398 18.5663 35.367 18.0359 36.016 18.0359C36.6649 18.0359 37.1922 18.5663 37.1922 19.2192V20.865H44.1006V15.7372H37.0975C35.8537 15.7372 34.8262 14.717 34.8262 13.4521V8.1474C34.8262 6.88243 35.8402 5.8623 37.0975 5.8623H44.1817C45.4255 5.8623 46.453 6.88243 46.453 8.1474V9.88842C46.453 10.5413 45.9258 11.0718 45.2768 11.0718C44.6279 11.0718 44.1006 10.5413 44.1006 9.88842V8.25621H37.1922V13.3841H44.1953C45.4391 13.3841 46.4665 14.4042 46.4665 15.6692V20.9738C46.4665 22.2252 45.4526 23.2453 44.1953 23.2453Z" fill="white"/>
<path d="M40.6531 24.7824C40.0042 24.7824 39.4769 24.252 39.4769 23.5991V5.54956C39.4769 4.89668 40.0042 4.36621 40.6531 4.36621C41.3021 4.36621 41.8293 4.89668 41.8293 5.54956V23.5991C41.8293 24.252 41.3021 24.7824 40.6531 24.7824Z" fill="white"/>
<path d="M58.0798 60.5823H53.01C49.211 60.5823 46.115 57.4675 46.115 53.6454C46.115 49.8233 49.211 46.7085 53.01 46.7085H58.0798C59.6886 46.7085 61 48.0279 61 49.6465V57.6579C61 59.2629 59.6886 60.5823 58.0798 60.5823ZM53.01 49.0752C50.5089 49.0752 48.4674 51.1291 48.4674 53.6454C48.4674 56.1617 50.5089 58.2156 53.01 58.2156H58.0798C58.3907 58.2156 58.6476 57.9571 58.6476 57.6443V49.6465C58.6476 49.3336 58.3907 49.0752 58.0798 49.0752H53.01Z" fill="white"/>
<path d="M35.6239 40.7644H1.1762C0.527261 40.7644 0 40.2339 0 39.5811C0 38.9282 0.527261 38.3977 1.1762 38.3977H35.6239C36.2728 38.3977 36.8001 38.9282 36.8001 39.5811C36.8001 40.2339 36.2728 40.7644 35.6239 40.7644Z" fill="white"/>
<path d="M19.7114 68.8928H1.1762C0.527261 68.8928 0 68.3624 0 67.7095C0 67.0566 0.527261 66.5261 1.1762 66.5261H19.7114C20.3604 66.5261 20.8876 67.0566 20.8876 67.7095C20.8876 68.3624 20.3604 68.8928 19.7114 68.8928Z" fill="white"/>
<path d="M57.5255 40.7644H43.6815C43.0326 40.7644 42.5053 40.2339 42.5053 39.5811C42.5053 38.9282 43.0326 38.3977 43.6815 38.3977H57.5255C58.1744 38.3977 58.7017 38.9282 58.7017 39.5811C58.7017 40.2339 58.1744 40.7644 57.5255 40.7644Z" fill="white"/>
<path d="M57.5255 68.8928H27.8772C27.2283 68.8928 26.701 68.3624 26.701 67.7095C26.701 67.0566 27.2283 66.5261 27.8772 66.5261H57.5255C58.1744 66.5261 58.7017 67.0566 58.7017 67.7095C58.7017 68.3624 58.1744 68.8928 57.5255 68.8928Z" fill="white"/>
<path d="M40.6532 29.1077C37.6653 29.1077 34.7857 28.1828 32.3251 26.4418C32.0548 26.2514 31.8655 25.9385 31.8384 25.5985C31.4734 22.13 29.6212 18.988 26.7686 16.9614C26.4982 16.7709 26.309 16.4581 26.2819 16.1181C26.2278 15.5876 26.2008 15.0571 26.2008 14.5539C26.2008 6.52884 32.6902 0 40.6667 0C48.6432 0 55.1325 6.52884 55.1325 14.5539C55.119 22.5789 48.6297 29.1077 40.6532 29.1077ZM34.1097 24.796C36.07 26.0745 38.3278 26.741 40.6532 26.741C47.3318 26.741 52.7666 21.2731 52.7666 14.5539C52.7666 7.8346 47.3318 2.3667 40.6532 2.3667C33.9745 2.3667 28.5397 7.8346 28.5397 14.5539C28.5397 14.8123 28.5532 15.0843 28.5667 15.3564C31.568 17.6687 33.5554 21.0555 34.1097 24.796Z" fill="white"/>
<path d="M22.5235 15.0029C21.8205 14.9757 21.3202 14.4316 21.3473 13.7651C21.5501 8.61005 23.7267 3.83584 27.4987 0.312991C27.9718 -0.135866 28.7154 -0.108662 29.1616 0.367399C29.6077 0.843459 29.5807 1.59156 29.1075 2.04041C25.8087 5.12801 23.889 9.33095 23.7132 13.8603C23.6726 14.4996 23.1454 15.0029 22.5235 15.0029Z" fill="white"/>
<path d="M54.9162 75.0002H3.79898C1.70346 75.0002 0 73.2864 0 71.1917V36.0992C0 33.9909 1.70346 32.2771 3.79898 32.2771H54.9162C57.0117 32.2771 58.7152 33.9909 58.7152 36.0992V47.8919C58.7152 48.5448 58.1879 49.0753 57.539 49.0753H53.01C50.5089 49.0753 48.4674 51.1291 48.4674 53.6454C48.4674 56.1618 50.5089 58.2156 53.01 58.2156H57.539C58.1879 58.2156 58.7152 58.7461 58.7152 59.399V71.1917C58.7017 73.2864 57.0117 75.0002 54.9162 75.0002ZM3.79898 34.6438C3.00133 34.6438 2.36591 35.2967 2.36591 36.0856V71.1781C2.36591 71.9806 3.01485 72.6199 3.79898 72.6199H54.9162C55.7139 72.6199 56.3493 71.967 56.3493 71.1781V60.5687H52.9965C49.1975 60.5687 46.1015 57.4539 46.1015 53.6318C46.1015 49.8097 49.1975 46.695 52.9965 46.695H56.3493V36.0856C56.3493 35.2831 55.7004 34.6438 54.9162 34.6438H3.79898Z" fill="white"/>
<path d="M31.3652 34.6438H8.21983C7.80073 34.6438 7.40866 34.4126 7.19235 34.0454C5.9756 31.8691 5.32666 29.3936 5.32666 26.9044C5.32666 18.8794 11.816 12.3506 19.7925 12.3506C27.769 12.3506 34.2584 18.8794 34.2584 26.9044C34.2584 29.3936 33.6095 31.8691 32.3927 34.0454C32.1899 34.4126 31.7978 34.6438 31.3652 34.6438ZM8.93637 32.2771H30.6622C31.4734 30.6041 31.906 28.7679 31.906 26.9044C31.906 20.1852 26.4712 14.7173 19.7925 14.7173C13.1139 14.7173 7.67905 20.1852 7.67905 26.9044C7.69257 28.7679 8.11168 30.6041 8.93637 32.2771Z" fill="white"/>
</g>
<defs>
<clipPath id="clip0">
<rect width="61" height="75" fill="white"/>
</clipPath>
</defs>
</svg>
