<svg width="27" height="27" viewBox="0 0 27 27" fill="none" xmlns="http://www.w3.org/2000/svg">
<path d="M26.6309 13.5528C26.6309 15.3879 26.594 17.2284 26.6414 19.0635C26.7205 22.312 24.6797 24.8221 22.0799 25.9401C21.0358 26.3883 19.9389 26.6256 18.8051 26.6256C15.2561 26.6309 11.7018 26.6784 8.15277 26.6098C5.47914 26.5571 3.28011 25.4391 1.70336 23.2348C0.875427 22.0747 0.479919 20.7563 0.479919 19.3272C0.479919 15.5461 0.479919 11.7704 0.479919 7.98931C0.479919 4.90435 1.98285 2.74751 4.65121 1.34478C5.81136 0.738333 7.07171 0.479935 8.3848 0.474661C11.8284 0.474661 15.2772 0.453567 18.7207 0.485208C21.3944 0.506302 23.625 1.52935 25.2703 3.68091C26.1879 4.88326 26.6309 6.2649 26.6309 7.78365C26.6309 9.70318 26.6309 11.628 26.6309 13.5528ZM2.42582 13.5528C2.42582 15.4881 2.42582 17.4182 2.42582 19.3536C2.42582 20.2184 2.62621 21.0305 3.07445 21.7635C4.25043 23.6883 6.02758 24.627 8.23187 24.6639C11.7703 24.7167 15.3141 24.685 18.8578 24.6745C19.728 24.6745 20.5717 24.4952 21.3575 24.1208C23.4985 23.0977 24.6955 21.4682 24.685 19.0213C24.6639 15.2772 24.6797 11.5331 24.6797 7.78892C24.6797 6.72896 24.3791 5.75865 23.7516 4.90435C22.5387 3.26431 20.8618 2.45747 18.8578 2.43638C15.3246 2.39419 11.7914 2.42056 8.25824 2.42583C7.50414 2.42583 6.7764 2.57876 6.06976 2.84243C4.12914 3.5649 2.32562 5.39478 2.41 8.0895C2.47328 9.91411 2.42582 11.7334 2.42582 13.5528Z" fill="white"/>
<path d="M13.5844 19.1426C10.183 19.1426 7.44083 16.432 7.43555 13.057C7.43028 9.73477 10.1936 7.01368 13.5738 7.01368C16.9647 7.00841 19.7174 9.72423 19.7227 13.0729C19.7227 16.4162 16.9752 19.1373 13.5844 19.1426ZM13.5844 17.1914C15.8994 17.1914 17.7768 15.3404 17.7715 13.0623C17.7662 10.8053 15.8889 8.95958 13.5844 8.95958C11.2693 8.95958 9.38145 10.8 9.38145 13.0729C9.38673 15.351 11.2693 17.1967 13.5844 17.1914Z" fill="white"/>
<path d="M20.4346 5.16797C21.1466 5.16797 21.7266 5.77441 21.7266 6.51797C21.7214 7.26152 21.136 7.86269 20.4241 7.85742C19.7227 7.85215 19.1479 7.25098 19.1479 6.52324C19.1427 5.77969 19.7227 5.16797 20.4346 5.16797Z" fill="white"/>
</svg>
