<svg width="79" height="78" viewBox="0 0 79 78" fill="none" xmlns="http://www.w3.org/2000/svg">
<circle cx="19.5" cy="19.5" r="19.5" fill="#8CC63F"/>
<g clip-path="url(#clip0)">
<path d="M60.59 77.9399H16V23.6699H22.82V25.6999H18.03V75.9099H58.56V25.6999H53.77V23.6699H60.59V77.9399Z" fill="#231F20"/>
<path d="M54.79 28.6H21.8V18.84H30.62C31.27 16.09 34.46 14 38.3 14C42.14 14 45.33 16.09 45.97 18.84H54.79V28.6ZM23.83 26.58H52.76V20.86H44.05V19.85C44.05 17.78 41.41 16.03 38.29 16.03C35.17 16.03 32.53 17.78 32.53 19.85V20.86H23.83V26.58Z" fill="#231F20"/>
<path d="M39.26 18.8398H37.33V20.8698H39.26V18.8398Z" fill="#231F20"/>
<path d="M26.74 44.4901L23 36.3701L24.84 35.5201L26.77 39.7101L30.61 31.6401L32.44 32.5101L26.74 44.4901Z" fill="#231F20"/>
<path d="M31.52 42.0503H29.59V44.0803H31.52V42.0503Z" fill="#231F20"/>
<path d="M35.39 42.0503H33.46V44.0803H35.39V42.0503Z" fill="#231F20"/>
<path d="M39.26 42.0503H37.33V44.0803H39.26V42.0503Z" fill="#231F20"/>
<path d="M43.13 42.0503H41.2V44.0803H43.13V42.0503Z" fill="#231F20"/>
<path d="M47 42.0503H45.07V44.0803H47V42.0503Z" fill="#231F20"/>
<path d="M50.87 42.0503H48.94V44.0803H50.87V42.0503Z" fill="#231F20"/>
<path d="M54.74 42.0503H52.81V44.0803H54.74V42.0503Z" fill="#231F20"/>
<path d="M26.74 58.9999L23 50.8799L24.84 50.0299L26.77 54.2199L30.61 46.1499L32.44 47.0199L26.74 58.9999Z" fill="#231F20"/>
<path d="M31.52 56.5601H29.59V58.5901H31.52V56.5601Z" fill="#231F20"/>
<path d="M35.39 56.5601H33.46V58.5901H35.39V56.5601Z" fill="#231F20"/>
<path d="M39.26 56.5601H37.33V58.5901H39.26V56.5601Z" fill="#231F20"/>
<path d="M43.13 56.5601H41.2V58.5901H43.13V56.5601Z" fill="#231F20"/>
<path d="M47 56.5601H45.07V58.5901H47V56.5601Z" fill="#231F20"/>
<path d="M50.87 56.5601H48.94V58.5901H50.87V56.5601Z" fill="#231F20"/>
<path d="M54.74 56.5601H52.81V58.5901H54.74V56.5601Z" fill="#231F20"/>
<path d="M26.74 73.8598L23 65.7398L24.84 64.8898L26.77 69.0798L30.61 61.0098L32.44 61.8798L26.74 73.8598Z" fill="#231F20"/>
<path d="M31.52 71.4199H29.59V73.4499H31.52V71.4199Z" fill="#231F20"/>
<path d="M35.39 71.4199H33.46V73.4499H35.39V71.4199Z" fill="#231F20"/>
<path d="M39.26 71.4199H37.33V73.4499H39.26V71.4199Z" fill="#231F20"/>
<path d="M43.13 71.4199H41.2V73.4499H43.13V71.4199Z" fill="#231F20"/>
<path d="M47 71.4199H45.07V73.4499H47V71.4199Z" fill="#231F20"/>
<path d="M50.87 71.4199H48.94V73.4499H50.87V71.4199Z" fill="#231F20"/>
<path d="M54.74 71.4199H52.81V73.4499H54.74V71.4199Z" fill="#231F20"/>
<path d="M73.17 68.2601H63.4V27.6801C63.4 26.0001 64.76 24.6401 66.44 24.6401H70.12C71.8 24.6401 73.16 26.0001 73.16 27.6801V68.2601H73.17ZM65.43 66.2401H71.14V27.6801C71.14 27.1201 70.68 26.6701 70.13 26.6701H66.45C65.89 26.6701 65.44 27.1301 65.44 27.6801V66.2401H65.43Z" fill="#231F20"/>
<path d="M75.05 31.5099V29.4799C76.09 29.4799 76.94 28.6299 76.94 27.5899C76.94 26.5499 76.09 25.6999 75.05 25.6999C74.01 25.6999 73.16 26.5499 73.16 27.5899H71.13C71.13 25.4299 72.89 23.6699 75.05 23.6699C77.21 23.6699 78.97 25.4299 78.97 27.5899C78.97 29.7499 77.21 31.5099 75.05 31.5099Z" fill="#231F20"/>
<path d="M76.07 29.52H74.04V49.83H76.07V29.52Z" fill="#231F20"/>
<path d="M68.28 78L63.4 69.45V66.23H73.17V69.45L68.28 78ZM65.43 68.91L68.29 73.91L71.15 68.91V68.26H65.44V68.91H65.43Z" fill="#231F20"/>
<path d="M69.3 75.96H67.27V77.89H69.3V75.96Z" fill="#231F20"/>
<path d="M72.15 39.1499H64.41V41.1799H72.15V39.1499Z" fill="#231F20"/>
<path d="M72.15 52.6899H64.41V54.7199H72.15V52.6899Z" fill="#231F20"/>
<path d="M69.3 55.6401H67.27V65.3101H69.3V55.6401Z" fill="#231F20"/>
</g>
<defs>
<clipPath id="clip0">
<rect width="62.97" height="64" fill="white" transform="translate(16 14)"/>
</clipPath>
</defs>
</svg>
