<svg width="71" height="67" viewBox="0 0 71 67" fill="none" xmlns="http://www.w3.org/2000/svg">
<circle cx="19.5" cy="19.5" r="19.5" fill="#8CC63F"/>
<g clip-path="url(#clip0)">
<path d="M65.29 16.24H63.22V14.46C63.22 13.1 62.11 12 60.76 12C59.4 12 58.3 13.11 58.3 14.46V16.24H54.29V14.46C54.29 13.1 53.19 12 51.83 12C50.47 12 49.37 13.11 49.37 14.46V16.24H36.54V14.46C36.54 13.1 35.43 12 34.07 12C32.71 12 31.61 13.11 31.61 14.46V16.24H27.56V14.46C27.56 13.1 26.46 12 25.1 12C23.73 12 22.62 13.11 22.62 14.46V16.24H20.56C17.5 16.24 15 18.73 15 21.8V61.29C15 64.35 17.5 66.85 20.56 66.85H65.29C68.35 66.85 70.85 64.35 70.85 61.29V21.8C70.85 18.73 68.35 16.24 65.29 16.24ZM60.15 14.46C60.15 14.12 60.42 13.85 60.76 13.85C61.1 13.85 61.37 14.12 61.37 14.46V19.94C61.37 20.28 61.1 20.55 60.76 20.55C60.42 20.55 60.15 20.28 60.15 19.94V14.46ZM51.21 14.46C51.21 14.12 51.48 13.85 51.82 13.85C52.16 13.85 52.43 14.12 52.43 14.46V19.94C52.43 20.28 52.16 20.55 51.82 20.55C51.48 20.55 51.21 20.28 51.21 19.94V14.46ZM33.46 14.46C33.46 14.12 33.73 13.85 34.08 13.85C34.41 13.85 34.69 14.12 34.69 14.46V19.94C34.69 20.28 34.41 20.55 34.07 20.55C33.73 20.55 33.46 20.28 33.46 19.94V14.46ZM24.48 14.46C24.48 14.12 24.75 13.85 25.09 13.85C25.43 13.85 25.7 14.12 25.7 14.46V19.94C25.7 20.28 25.43 20.55 25.09 20.55C24.75 20.55 24.48 20.28 24.48 19.94V14.46ZM68.99 61.29C68.99 63.33 67.33 65 65.28 65H20.56C18.52 65 16.85 63.34 16.85 61.29V27.65H68.99V61.29ZM68.99 25.8H16.85V21.8C16.85 19.76 18.51 18.09 20.56 18.09H22.63V19.94C22.63 21.3 23.74 22.4 25.09 22.4C26.45 22.4 27.55 21.3 27.55 19.94V18.09H31.6V19.94C31.6 21.3 32.71 22.4 34.07 22.4C35.43 22.4 36.53 21.3 36.53 19.94V18.09H49.35V19.94C49.35 21.3 50.46 22.4 51.81 22.4C53.17 22.4 54.27 21.3 54.27 19.94V18.09H58.28V19.94C58.28 21.3 59.38 22.4 60.74 22.4C62.1 22.4 63.2 21.3 63.2 19.94V18.09H65.27C67.31 18.09 68.98 19.75 68.98 21.8V25.8H68.99Z" fill="black"/>
<path d="M29.61 33.7199H22.87C22.36 33.7199 21.94 33.3099 21.94 32.7899C21.94 32.2699 22.35 31.8599 22.87 31.8599H29.61C30.12 31.8599 30.54 32.2699 30.54 32.7899C30.54 33.3099 30.12 33.7199 29.61 33.7199Z" fill="black"/>
<path d="M62.98 33.7199H56.24C55.73 33.7199 55.31 33.3099 55.31 32.7899C55.31 32.2699 55.72 31.8599 56.24 31.8599H62.98C63.49 31.8599 63.91 32.2699 63.91 32.7899C63.91 33.3099 63.49 33.7199 62.98 33.7199Z" fill="black"/>
<path d="M46.57 33.7199H39.83C39.32 33.7199 38.9 33.3099 38.9 32.7899C38.9 32.2699 39.31 31.8599 39.83 31.8599H46.57C47.08 31.8599 47.5 32.2699 47.5 32.7899C47.5 33.3099 47.08 33.7199 46.57 33.7199Z" fill="black"/>
<path d="M29.61 60.82H22.87C22.36 60.82 21.94 60.41 21.94 59.89C21.94 59.37 22.35 58.96 22.87 58.96H29.61C30.12 58.96 30.54 59.37 30.54 59.89C30.54 60.41 30.12 60.82 29.61 60.82Z" fill="black"/>
<path d="M29.61 47.2702H22.87C22.36 47.2702 21.94 46.8602 21.94 46.3402C21.94 45.8202 22.35 45.4102 22.87 45.4102H29.61C30.12 45.4102 30.54 45.8202 30.54 46.3402C30.54 46.8602 30.12 47.2702 29.61 47.2702Z" fill="black"/>
<path d="M51.27 36.9702C44.23 36.9702 38.52 42.6902 38.52 49.7202C38.52 56.7502 44.24 62.4702 51.27 62.4702C58.3 62.4702 64.02 56.7502 64.02 49.7202C64.02 42.6902 58.3 36.9702 51.27 36.9702ZM51.27 60.6302C45.26 60.6302 40.37 55.7402 40.37 49.7302C40.37 43.7202 45.26 38.8302 51.27 38.8302C57.28 38.8302 62.17 43.7202 62.17 49.7302C62.17 55.7402 57.28 60.6302 51.27 60.6302Z" fill="black"/>
<path d="M57.06 43.0099L52.78 48.9599C52.9 49.1899 52.97 49.4499 52.97 49.7299C52.97 50.0699 52.87 50.3799 52.7 50.6399L54.64 54.9699C54.85 55.4399 54.64 55.9899 54.17 56.1999C53.55 56.4699 53.1 56.0699 52.95 55.7299L51 51.3899C50.19 51.2599 49.57 50.5599 49.57 49.7199C49.57 48.8299 50.26 48.0899 51.14 48.0299L55.54 41.9199C55.84 41.4999 56.42 41.4099 56.83 41.7099C57.26 42.0199 57.35 42.5999 57.06 43.0099Z" fill="black"/>
</g>
<defs>
<clipPath id="clip0">
<rect width="55.85" height="54.85" fill="white" transform="translate(15 12)"/>
</clipPath>
</defs>
</svg>
