<svg width="73" height="77" viewBox="0 0 73 77" fill="none" xmlns="http://www.w3.org/2000/svg">
<circle cx="19.5" cy="19.5" r="19.5" fill="#8CC63F"/>
<path d="M67.84 61.5199H16.95L9.2 56.3499L16.94 51.1899H67.83C70.68 51.1899 72.99 53.5099 72.99 56.3499C73 59.1999 70.68 61.5199 67.84 61.5199ZM17.57 59.4499H67.84C69.55 59.4499 70.94 58.0599 70.94 56.3499C70.94 54.6399 69.55 53.2499 67.84 53.2499H17.57L12.92 56.3499L17.57 59.4499Z" fill="#231F20"/>
<path d="M66.8 52.23H64.74V60.49H66.8V52.23Z" fill="#231F20"/>
<path d="M62.67 52.23H60.61V60.49H62.67V52.23Z" fill="#231F20"/>
<path d="M19.32 52.23H17.26V60.49H19.32V52.23Z" fill="#231F20"/>
<path d="M61.64 55.3198H18.29V57.3798H61.64V55.3198Z" fill="#231F20"/>
<path d="M73 77.0001H9V63.5801H73V77.0001ZM11.06 74.9401H70.93V65.6501H11.06V74.9401Z" fill="#231F20"/>
<path d="M66.8 69.77H64.74V75.96H66.8V69.77Z" fill="#231F20"/>
<path d="M60.61 71.8398H58.55V75.9698H60.61V71.8398Z" fill="#231F20"/>
<path d="M54.41 69.77H52.35V75.96H54.41V69.77Z" fill="#231F20"/>
<path d="M48.22 71.8398H46.16V75.9698H48.22V71.8398Z" fill="#231F20"/>
<path d="M42.03 69.77H39.97V75.96H42.03V69.77Z" fill="#231F20"/>
<path d="M35.83 71.8398H33.77V75.9698H35.83V71.8398Z" fill="#231F20"/>
<path d="M29.64 69.77H27.58V75.96H29.64V69.77Z" fill="#231F20"/>
<path d="M23.45 71.8398H21.39V75.9698H23.45V71.8398Z" fill="#231F20"/>
<path d="M17.25 69.77H15.19V75.96H17.25V69.77Z" fill="#231F20"/>
<path d="M47.19 52.23H45.13V47.06H36.87V52.23H34.81V45H47.19V52.23Z" fill="#231F20"/>
<path d="M47.06 47.06H34.94L33.74 38.66L37.22 30.54H44.77L48.25 38.66L47.06 47.06ZM36.73 45H45.26L46.12 38.95L43.41 32.62H38.58L35.87 38.95L36.73 45Z" fill="#231F20"/>
<path d="M42.03 31.5801H39.97V37.7701H42.03V31.5801Z" fill="#231F20"/>
<path d="M41 42.9402C39.29 42.9402 37.9 41.5502 37.9 39.8402C37.9 38.1302 39.29 36.7402 41 36.7402C42.71 36.7402 44.1 38.1302 44.1 39.8402C44.1 41.5502 42.71 42.9402 41 42.9402ZM41 38.8102C40.43 38.8102 39.97 39.2702 39.97 39.8402C39.97 40.4102 40.43 40.8702 41 40.8702C41.57 40.8702 42.03 40.4102 42.03 39.8402C42.03 39.2702 41.57 38.8102 41 38.8102Z" fill="#231F20"/>
<path d="M55.45 39.8401H53.39C53.39 33.0101 47.83 27.4501 41 27.4501C34.17 27.4501 28.61 33.0101 28.61 39.8401H26.55C26.55 31.8701 33.03 25.3901 41 25.3901C48.97 25.3901 55.45 31.8701 55.45 39.8401Z" fill="#231F20"/>
<path d="M54.42 44.9998C52.71 44.9998 51.32 43.6098 51.32 41.8998C51.32 40.1898 52.71 38.7998 54.42 38.7998C56.13 38.7998 57.52 40.1898 57.52 41.8998C57.52 43.6098 56.13 44.9998 54.42 44.9998ZM54.42 40.8698C53.85 40.8698 53.39 41.3298 53.39 41.8998C53.39 42.4698 53.85 42.9298 54.42 42.9298C54.99 42.9298 55.45 42.4698 55.45 41.8998C55.45 41.3298 54.99 40.8698 54.42 40.8698Z" fill="#231F20"/>
<path d="M27.58 44.9998C25.87 44.9998 24.48 43.6098 24.48 41.8998C24.48 40.1898 25.87 38.7998 27.58 38.7998C29.29 38.7998 30.68 40.1898 30.68 41.8998C30.68 43.6098 29.29 44.9998 27.58 44.9998ZM27.58 40.8698C27.01 40.8698 26.55 41.3298 26.55 41.8998C26.55 42.4698 27.01 42.9298 27.58 42.9298C28.15 42.9298 28.61 42.4698 28.61 41.8998C28.61 41.3298 28.15 40.8698 27.58 40.8698Z" fill="#231F20"/>
<path d="M64.74 52.23H62.68V24.78L52.96 15.06H19.32V52.23H17.26V13H53.81L64.74 23.93V52.23Z" fill="#231F20"/>
<path d="M63.71 25.3898H52.35V14.0298H54.42V23.3198H63.71V25.3898Z" fill="#231F20"/>
</svg>
