<svg width="71" height="75" viewBox="0 0 71 75" fill="none" xmlns="http://www.w3.org/2000/svg">
<circle cx="19.5" cy="19.5" r="19.5" fill="#8CC63F"/>
<g clip-path="url(#clip0)">
<path d="M67.58 68.2998C66.71 68.2998 65.84 67.9698 65.18 67.3098L57.98 60.1198C57.73 59.8698 57.62 59.5298 57.67 59.1798C57.72 58.8398 57.94 58.5398 58.25 58.3798C58.85 58.0698 59.4 57.6798 59.87 57.2098C60.34 56.7398 60.74 56.1898 61.05 55.5898C61.21 55.2798 61.5 55.0698 61.85 55.0098C62.19 54.9598 62.54 55.0698 62.79 55.3198L69.99 62.5098C70.63 63.1498 70.98 63.9998 70.98 64.9098C70.98 65.8198 70.63 66.6698 69.99 67.3098C69.32 67.9698 68.45 68.2998 67.58 68.2998ZM60.49 59.5498L66.72 65.7798C67.2 66.2498 67.97 66.2498 68.45 65.7798C68.68 65.5498 68.81 65.2498 68.81 64.9198C68.81 64.5898 68.68 64.2898 68.45 64.0598L62.22 57.8298C61.97 58.1598 61.71 58.4698 61.42 58.7598C61.12 59.0298 60.81 59.2998 60.49 59.5498Z" fill="#231F20"/>
<path d="M56.08 26.79H31.3C30.7 26.79 30.21 26.3 30.21 25.7V16.33C30.21 14.76 31.48 13.49 33.05 13.49H37.25C38.23 10.81 40.76 9 43.69 9C46.61 9 49.15 10.81 50.13 13.49H54.33C55.9 13.49 57.17 14.76 57.17 16.33V25.7C57.16 26.31 56.68 26.79 56.08 26.79ZM32.39 24.62H54.99V16.33C54.99 15.96 54.69 15.67 54.32 15.67H49.31C48.8 15.67 48.36 15.32 48.25 14.82C47.76 12.67 45.88 11.17 43.68 11.17C41.48 11.17 39.6 12.67 39.11 14.82C39 15.32 38.56 15.67 38.05 15.67H33.04C32.67 15.67 32.37 15.97 32.37 16.33V24.62H32.39Z" fill="#231F20"/>
<path d="M56.08 21.95H31.3C30.7 21.95 30.21 21.46 30.21 20.86C30.21 20.26 30.7 19.77 31.3 19.77H56.08C56.68 19.77 57.17 20.26 57.17 20.86C57.16 21.46 56.68 21.95 56.08 21.95Z" fill="#231F20"/>
<path d="M54.35 36.7098H33.02C32.42 36.7098 31.93 36.2198 31.93 35.6198C31.93 35.0198 32.42 34.5298 33.02 34.5298H54.36C54.96 34.5298 55.45 35.0198 55.45 35.6198C55.44 36.2198 54.96 36.7098 54.35 36.7098Z" fill="#231F20"/>
<path d="M54.35 42.2698H33.02C32.42 42.2698 31.93 41.7798 31.93 41.1798C31.93 40.5798 32.42 40.0898 33.02 40.0898H54.36C54.96 40.0898 55.45 40.5798 55.45 41.1798C55.44 41.7798 54.96 42.2698 54.35 42.2698Z" fill="#231F20"/>
<path d="M50.56 47.8299H33.02C32.42 47.8299 31.93 47.3399 31.93 46.7399C31.93 46.1399 32.42 45.6499 33.02 45.6499H50.56C51.16 45.6499 51.65 46.1399 51.65 46.7399C51.65 47.3499 51.16 47.8299 50.56 47.8299Z" fill="#231F20"/>
<path d="M47.85 53.4002H33.02C32.42 53.4002 31.93 52.9102 31.93 52.3102C31.93 51.7102 32.42 51.2202 33.02 51.2202H47.85C48.45 51.2202 48.94 51.7102 48.94 52.3102C48.94 52.9102 48.45 53.4002 47.85 53.4002Z" fill="#231F20"/>
<path d="M49.66 58.9598H33.02C32.42 58.9598 31.93 58.4698 31.93 57.8698C31.93 57.2698 32.42 56.7798 33.02 56.7798H49.66C50.26 56.7798 50.75 57.2698 50.75 57.8698C50.75 58.4698 50.26 58.9598 49.66 58.9598Z" fill="#231F20"/>
<path d="M60.64 59.0599C60.36 59.0599 60.08 58.9499 59.87 58.7399C59.45 58.3099 59.44 57.6299 59.87 57.1999C60.3 56.7699 60.99 56.7699 61.41 57.1999C61.83 57.6199 61.83 58.3099 61.41 58.7399C61.2 58.9599 60.92 59.0599 60.64 59.0599Z" fill="#231F20"/>
<path d="M61.43 69.32H25.94C25.34 69.32 24.85 68.83 24.85 68.23V23.57C24.85 22.97 25.34 22.48 25.94 22.48H31.29C31.89 22.48 32.38 22.97 32.38 23.57V24.62H54.98V23.57C54.98 22.97 55.47 22.48 56.07 22.48H61.42C62.02 22.48 62.51 22.97 62.51 23.57V48.3C62.51 48.77 62.21 49.19 61.76 49.34C61.31 49.48 60.82 49.32 60.54 48.94C60.34 48.66 60.11 48.39 59.87 48.15C57.37 45.65 53.29 45.65 50.79 48.15C49.58 49.36 48.91 50.97 48.91 52.68C48.91 54.39 49.58 56 50.79 57.22C52.77 59.19 55.77 59.67 58.26 58.39C58.68 58.18 59.19 58.26 59.52 58.59L62.2 61.27C62.4 61.48 62.52 61.75 62.52 62.04V68.25C62.52 68.84 62.03 69.32 61.43 69.32ZM27.03 67.15H60.34V62.48L58.51 60.65C55.34 61.92 51.7 61.2 49.25 58.75C47.63 57.13 46.73 54.97 46.73 52.67C46.73 50.38 47.62 48.22 49.25 46.6C52.27 43.59 56.98 43.28 60.34 45.69V24.65H57.16V25.7C57.16 26.3 56.67 26.79 56.07 26.79H31.3C30.7 26.79 30.21 26.3 30.21 25.7V24.65H27.03V67.15Z" fill="#231F20"/>
<path d="M66.28 74.0799H21.09C20.49 74.0799 20 73.5899 20 72.9899V18.0299C20 17.4299 20.49 16.9399 21.09 16.9399H31.3C31.9 16.9399 32.39 17.4299 32.39 18.0299V24.6199H54.99V18.0299C54.99 17.4299 55.48 16.9399 56.08 16.9399H66.29C66.89 16.9399 67.38 17.4299 67.38 18.0299V27.7799C67.38 28.3799 66.89 28.8699 66.29 28.8699C65.69 28.8699 65.2 28.3799 65.2 27.7799V19.1199H57.17V25.7099C57.17 26.3099 56.68 26.7999 56.08 26.7999H31.3C30.7 26.7999 30.21 26.3099 30.21 25.7099V19.1199H22.18V71.8999H65.2V67.3199C65.19 67.3099 58.52 60.6499 58.52 60.6499C55.35 61.9199 51.71 61.1999 49.26 58.7499C47.64 57.1299 46.74 54.9699 46.74 52.6699C46.74 50.3799 47.63 48.2199 49.26 46.5999C52.62 43.2499 58.07 43.2499 61.42 46.5999C63.88 49.0499 64.6 52.6799 63.33 55.8499L65.21 57.7299V45.8999C65.21 45.2999 65.7 44.8099 66.3 44.8099C66.9 44.8099 67.39 45.2999 67.39 45.8999V60.3499C67.39 60.7899 67.13 61.1899 66.72 61.3599C66.31 61.5299 65.85 61.4399 65.53 61.1199L61.26 56.8599C60.93 56.5299 60.85 56.0199 61.06 55.5899C62.33 53.0999 61.86 50.1099 59.88 48.1399C57.38 45.6399 53.3 45.6399 50.8 48.1399C49.59 49.3499 48.92 50.9599 48.92 52.6699C48.92 54.3799 49.59 55.9899 50.8 57.2099C52.78 59.1799 55.78 59.6599 58.27 58.3799C58.69 58.1699 59.2 58.2499 59.53 58.5799L66.73 65.7699C66.78 65.8199 66.84 65.8699 66.91 65.9099C67.21 66.1099 67.38 66.4499 67.38 66.8099V72.9899C67.37 73.5899 66.89 74.0799 66.28 74.0799Z" fill="#231F20"/>
<path d="M66.28 46.9898C65.68 46.9898 65.19 46.4998 65.19 45.8998V42.6398C65.19 42.0398 65.68 41.5498 66.28 41.5498C66.88 41.5498 67.37 42.0398 67.37 42.6398V45.8998C67.37 46.4998 66.89 46.9898 66.28 46.9898Z" fill="#231F20"/>
<path d="M66.28 39.8601C65.68 39.8601 65.19 39.3701 65.19 38.7701V34.9001C65.19 34.3001 65.68 33.8101 66.28 33.8101C66.88 33.8101 67.37 34.3001 67.37 34.9001V38.7701C67.37 39.3701 66.89 39.8601 66.28 39.8601Z" fill="#231F20"/>
<path d="M66.28 32.1299C65.68 32.1299 65.19 31.6399 65.19 31.0399V27.7799C65.19 27.1799 65.68 26.6899 66.28 26.6899C66.88 26.6899 67.37 27.1799 67.37 27.7799V31.0399C67.37 31.6399 66.89 32.1299 66.28 32.1299Z" fill="#231F20"/>
</g>
<defs>
<clipPath id="clip0">
<rect width="50.98" height="65.08" fill="white" transform="translate(20 9)"/>
</clipPath>
</defs>
</svg>
