<svg width="1920" height="1368" viewBox="0 0 1920 1368" fill="none" xmlns="http://www.w3.org/2000/svg">
<g clip-path="url(#clip0)">
<rect width="2305" height="1368" transform="translate(-146)" fill="url(#paint0_linear)"/>
<path d="M1472.78 298.85L1727.37 367.75C1727.37 367.75 1734.07 370.153 1736.82 369.804C1736.82 369.804 1734.22 379.104 1742.32 381.507C1750.41 383.91 1906.5 445.137 1906.5 445.137C1906.5 445.137 1915.26 448.934 1923.86 441.882C1927.46 439.285 1939.5 449.632 1939.5 449.632C1939.5 449.632 1942.25 451.531 1942.76 447.578C1943.26 443.625 1945.35 427.466 1945.35 427.466L1963.05 433.318C1963.05 433.318 1965.96 433.163 1965.96 430.566C1965.96 427.97 1969.41 400.108 1969.41 400.108C1969.41 400.108 1974.56 393.559 1972.31 387.203C1972.31 387.203 1975.56 377.903 1963.21 375.346C1950.81 372.749 1952.44 373.292 1952.44 373.292C1952.44 373.292 1954.14 363.836 1947.1 361.899C1940.05 359.961 1921.34 350.118 1916.5 351.63C1916.5 351.63 1914.79 349.072 1911.35 347.871C1907.94 346.708 1858.09 326.364 1858.09 326.364C1858.09 326.364 1856.5 316.947 1843.33 319.737C1843.33 319.737 1823.23 312.142 1820.32 308.499C1817.42 304.857 1813.7 298.657 1802.78 302.183C1802.78 302.183 1787.29 295.673 1783.84 293.851C1780.43 292.03 1773.46 287.225 1764.28 295.789C1764.28 295.789 1754.67 290.635 1753.59 288.388C1752.5 286.14 1744.91 286.682 1740.34 294.278L1443.96 209.606C1443.96 209.606 1443.42 195.268 1433.93 200.5C1424.48 205.731 1419.44 230.881 1419.25 237.313C1419.02 243.746 1418.28 254.829 1418.28 254.829C1418.28 254.829 1417.97 257.115 1425.37 255.798L1476.3 271.027C1476.3 271.027 1479.02 271.337 1478.36 275.483C1477.7 279.63 1472.28 291.604 1469.87 293.658C1467.43 295.75 1470.57 298.23 1472.78 298.85Z" fill="#DBDBDB"/>
<path d="M2077.16 938.015L2074.06 927.514C2072.7 926.002 2072.08 927.94 2072.08 927.94L2072.36 937.705L2070.42 938.054L2068.64 937.24L2068.91 933.171C2069.33 929.18 2064.53 927.669 2064.53 927.669L2064.07 926.428L2054.38 915.849L2052.45 915.423L2011.97 873.145C2011.97 873.145 2012.32 872.177 2012.94 870.239C2013.52 868.263 2011.55 867.255 2010.46 867.178C2009.38 867.1 2004.77 866.674 2004.77 866.674C2004.77 866.674 2003.72 865.163 2005.46 865.395C2007.21 865.589 2008.95 865.201 2011.62 864.775C2014.3 864.349 2016.27 862.101 2018.09 861.985C2019.95 861.869 2019.33 862.915 2020.26 864.969C2021.19 867.023 2020.14 870.937 2020.14 873.727C2020.14 876.517 2023.63 877.524 2025.49 875.664C2027.35 873.804 2024.06 865.279 2024.06 865.279C2024.06 865.279 2020.88 860.241 2022.7 859.815C2024.52 859.389 2023.2 859.001 2025.06 856.947C2026.92 854.893 2026.19 853.033 2027.93 850.98C2029.67 848.926 2040.4 840.052 2042.34 839.354C2044.27 838.618 2047.61 840.4 2049.85 838.114C2052.1 835.867 2052.64 829.473 2052.95 826.683C2053.26 823.892 2050.7 821.955 2053.76 819.281C2056.86 816.607 2054.69 812.693 2052.64 810.329C2050.59 807.966 2050.16 808.082 2050.47 805.602C2050.78 803.122 2050.78 798.278 2048.11 796.224C2045.44 794.17 2045.63 787.66 2045.75 785.296C2045.86 782.932 2042.96 780.026 2041.72 777.585C2040.48 775.105 2041.83 773.671 2041.1 770.571C2040.36 767.471 2035.75 766.85 2035.17 764.409C2034.59 761.929 2032.85 757.511 2029.87 755.768C2026.88 754.024 2020.69 745.382 2017.51 742.98C2014.33 740.616 2014.41 738.446 2014.41 738.446L2016.89 735.888L2026.07 734.648C2042.84 732.594 2031.34 716.822 2031.34 716.822C2031.34 716.822 2042.03 686.131 2021.15 674.39C2000.24 662.648 1982.23 683.031 1982.23 683.031C1960.11 679.737 1970.37 696.207 1970.37 698.067C1970.37 699.927 1960.38 713.296 1956.16 713.839C1951.94 714.342 1943.18 722.093 1941.63 724.96C1940.08 727.828 1932.76 732.904 1928.35 735.036C1923.93 737.206 1917.04 742.863 1917.04 742.863C1917.04 742.863 1891.2 728.642 1890.7 728.952C1890.7 726.394 1886.29 723.1 1883.69 722.054C1881.13 721.008 1879.89 722.868 1879.89 722.868C1879.89 722.868 1862.93 715.505 1849.49 708.917L1745.42 606.885C1744.76 603.669 1742.01 603.242 1742.01 603.242L1738.68 600.258C1738.99 597.352 1735.58 597.895 1735.58 597.895L1720.82 582.898V581.735L1714.93 576.504L1708.81 582.239L1714.08 587.742H1715.59L1730.85 603.824C1730.62 607.117 1733.8 607.234 1733.8 607.234L1737.67 610.876C1737.55 613.821 1740.26 613.356 1740.26 613.356L1822.88 699.074L1815.64 703.57C1813.78 704.19 1814.4 706.67 1814.4 706.67V710.7C1814.4 710.7 1810.37 716.164 1804.17 729.145C1797.94 742.127 1808.98 748.599 1809.29 748.599L1866.22 792.814L1882.95 803.742L1883.46 818.08L1879.86 828.504L1875.09 833.658L1852.55 853.963L1872.96 877.951C1872.96 877.951 1883.03 887.755 1889.97 888.413C1896.9 889.033 1902.71 884.693 1902.48 884.422C1902.24 884.151 1902.4 881.206 1904.88 879.346C1907.36 877.486 1905.81 869.464 1905.81 869.464C1908.83 868.185 1907.86 863.69 1907.78 862.682C1907.7 861.636 1908.56 860.551 1909.76 857.257C1910.96 854.002 1914.33 849.275 1915.53 846.601C1916.73 843.927 1920.52 834.2 1920.52 834.2C1923.2 841.873 1933.15 845.206 1933.15 845.206C1933.15 845.206 1932.84 848.189 1932.42 850.631C1931.99 853.072 1929.32 860.396 1929.24 862.528C1929.16 864.659 1925.1 878.377 1923.39 881.981C1921.69 885.585 1920.22 904.301 1920.22 907.905C1920.22 911.509 1916.3 913.02 1914.68 917.167C1913.09 921.313 1908.52 920.461 1905.11 921.74C1901.7 923.018 1900.11 934.799 1900.11 934.799C1896.82 936.698 1892.06 944.797 1891.82 947.432C1891.63 950.106 1889.07 953.826 1889.07 953.826L1887.49 983.858L1891.63 996.181L1898.1 996.607L1904.14 993.197L1907.9 988.896L1912.43 987.656L1914.75 985.951L1915.49 982.54L1915.18 978.937L1919.63 978.626L1921.53 977.038L1922.15 970.644C1922.15 970.644 1922.89 969.791 1923.2 969.597C1923.51 969.404 1923.39 964.289 1923.39 964.289L1922.58 960.646C1924.9 959.522 1924.82 959.096 1926.1 957.468C1927.38 955.879 1934.51 951.888 1937.14 950.105C1939.81 948.323 1939.97 948.129 1941.32 945.378C1942.68 942.627 1949.65 936.891 1953.33 934.334C1957.01 931.776 1955.11 931.234 1956.24 928.947C1957.36 926.661 1962.94 922.088 1965.84 919.104C1968.75 916.121 1967.89 917.399 1970.37 915.772C1972.85 914.144 1970.88 908.99 1970.53 902.984C1970.18 896.977 1969.48 898.682 1970.26 895.699C1971.03 892.715 1979.17 887.716 1979.17 887.716C1979.17 887.716 1976.26 902.441 1976.26 902.713C1976.26 902.984 1974.91 909.843 1980.37 909.727C1985.87 909.649 1985.87 905.348 1985.87 905.348L1986.37 883.879C1986.41 883.957 1986.68 883.918 1987.65 882.988C1989.2 881.516 1988.93 881.787 1990.32 878.881C1991.68 875.974 1997.68 872.525 1997.68 872.525L2045.4 921.662L2045.55 923.018L2054.69 932.977L2057.52 933.171L2057.44 934.489L2059.03 937.511L2061.78 939.914L2064.03 939.023C2064.03 939.023 2063.21 942.394 2064.18 945.339C2065.15 948.284 2067.9 946.773 2067.9 946.773C2067.9 946.773 2074.91 942.045 2076.27 940.728C2077.78 939.488 2077.16 938.015 2077.16 938.015ZM1884.62 789.481C1883.46 790.334 1854.33 769.951 1854.33 769.951L1860.26 737.709L1875.25 753.249L1875.48 755.806L1878.11 758.441L1879.39 762.782L1881.91 765.107C1881.91 765.107 1881.91 771.346 1884.85 772.508C1887.8 773.671 1884.66 784.637 1884.66 784.637C1884.66 784.637 1885.78 788.667 1884.62 789.481ZM1889.58 741.701L1884.43 740.228L1882.49 741.158L1867.46 726.394L1876.53 731.354L1877.38 733.873L1882.14 737.051L1886.98 737.787L1891.75 740.112L1893.45 742.747L1889.58 741.701ZM1921.53 818.196L1920.68 815.871L1921.53 814.127C1922.04 814.05 1926.57 818.894 1926.57 818.894C1926.57 818.894 1924.32 818.157 1922.23 819.824L1921.53 818.196ZM1933.5 838.618C1926.49 837.455 1923.62 830.015 1923.62 830.015C1928.39 827.419 1927.65 824.086 1927.65 824.086C1929.82 824.319 1931.41 826.179 1931.41 826.179C1931.41 826.179 1930.98 831.449 1932.84 833.038C1934.66 834.588 1933.5 838.618 1933.5 838.618ZM1942.45 764.409L1941.6 763.595L1940.86 760.34L1944.69 759.914L1945.35 763.595L1942.45 764.409ZM1982.38 906.975C1980.06 908.487 1977.27 906.239 1978.04 904.728C1978.78 903.216 1979.17 902.248 1982.38 902.48C1982.38 902.48 1984.7 905.464 1982.38 906.975Z" fill="#DBDBDB"/>
<path d="M2067.17 1208.65H2065.69C2066.47 1205.59 2065.15 1204.2 2065.15 1204.2H2060.08C2060 1202.26 2058.33 1201.14 2058.33 1201.14C2059.38 1199.59 2058.33 1197.65 2058.33 1197.65C2058.33 1197.65 2049.89 1183.23 2048.88 1181.1C2048.34 1179.98 2047.22 1178.62 2045.13 1178.08L1984.47 1051.94C1984.98 1051.75 1985.52 1051.56 1986.18 1051.36C1990.59 1049.97 1989.51 1045.67 1986.18 1044.5C1982.85 1043.34 1982.69 1046.63 1982.69 1046.63L1982.15 1047.1L1981.99 1046.75C1984.51 1042.8 1984.28 1038.69 1984.28 1038.69L1983.62 1038.38C1982.96 1028.73 1978.24 1027.41 1978.24 1027.41C1978.24 1027.41 1973.63 1020.44 1972.85 1018.81C1972.12 1017.18 1972.54 1015.05 1970.18 1013.35C1968.55 1012.18 1967.27 1013.62 1966.54 1014.67L1776.87 620.099C1777.72 618.161 1776.87 616.262 1776.87 616.262L1773.07 607.427C1773.81 606.613 1774.12 605.722 1774.23 604.947L1846.82 644.512L1843.52 652.921C1843.52 652.921 1849.26 674.157 1858.09 672.297C1866.96 670.437 1868.12 667.182 1868.12 667.182L1868.47 670.204C1866.84 673.343 1868.93 676.521 1868.93 676.521C1867.54 679.543 1869.28 684 1869.28 684C1869.28 684 1868.35 686.209 1868.82 689.348C1869.28 692.486 1874.2 691.673 1874.2 691.673C1879.31 688.301 1878.04 681.752 1878.04 681.752C1879.78 679.427 1877.57 676.017 1877.57 676.017C1878.97 673.808 1878.15 671.716 1878.15 671.716C1880.59 671.367 1883.65 668.461 1883.65 668.461L1887.02 669.739C1887.02 669.739 1887.14 676.521 1890.62 676.753C1894.11 676.986 1892.72 671.754 1892.72 671.754C1892.72 671.754 1896.86 671.871 1896.43 675.94C1896.01 680.008 1904.26 683.07 1907.98 684.814C1911.69 686.557 1913.48 682.954 1913.48 682.954C1914.02 682.566 1914.52 682.178 1915.02 681.752L2010.58 733.795C2012.79 736.12 2019.1 738.717 2028.51 734.57C2037.92 730.424 2022.7 721.666 2022.7 721.666L1921.69 667.879L1923.89 665.438L1924.36 662.764C1924.36 662.764 1927.85 664.973 1932.53 663.462C1937.18 661.95 1930.79 656.448 1930.79 656.448C1931.49 654.355 1927.77 651.1 1924.13 651.565C1920.52 652.03 1922.5 656.099 1922.5 656.099C1922.5 656.099 1918.9 652.495 1916.42 652.03C1913.98 651.565 1912.12 654.588 1912.12 654.588L1909.68 654.239C1905.73 650.867 1903.6 655.983 1903.6 655.983C1902.48 656.021 1901.47 656.293 1900.62 656.641L1873.16 642.032C1872.81 640.327 1872.23 638.118 1871.3 635.444C1868.89 628.585 1853.32 627.849 1853.32 627.849L1852.16 630.833L1766.45 585.184C1766.02 584.254 1765.63 583.828 1765.63 583.828L1759.48 580.844C1759.98 576.969 1757.31 572.667 1756.3 570.497C1755.29 568.327 1748.55 567.203 1740.88 569.8C1733.22 572.396 1738.48 582.743 1738.48 582.743C1733.8 594.29 1747.31 603.126 1747.31 603.126C1748.51 608.977 1752.97 609.093 1752.97 609.093C1754.17 611.961 1759.51 613.085 1759.51 613.085C1759.51 613.085 1759.71 614.867 1762.19 620.331C1762.77 621.649 1763.7 622.501 1764.74 623.044L1954.69 1021.76C1954.22 1021.91 1953.83 1022.07 1953.49 1022.14C1950.04 1022.88 1947.6 1026.64 1947.25 1026.76C1946.9 1026.87 1937.8 1022.14 1937.8 1022.14C1938.03 1021.18 1937.14 1019.35 1937.14 1019.35C1935.09 1015.71 1929.86 1018.08 1927.38 1017.96C1924.9 1017.84 1924.28 1014.43 1920.83 1013.77C1917.39 1013.11 1913.63 1015.6 1913.63 1015.6C1914.48 1013.54 1913.51 1012.07 1913.51 1012.07C1915.76 1008.54 1913.28 1005.09 1913.28 1005.09C1914.37 1002.54 1912.97 998.118 1912.97 998.118C1913.09 994.127 1907.16 993.507 1907.16 993.507C1908.87 991.996 1908.25 990.368 1908.25 990.368C1907.94 984.207 1892.72 990.368 1892.72 990.368L1827.57 1004.01C1827.57 1004.01 1824.08 1006.68 1823.93 1010.05C1823.93 1010.05 1819.16 1016.22 1820.98 1019.43C1820.98 1019.43 1821.25 1022.38 1818.47 1022.11H1816.8V1018.73L1811.18 1014.39C1811.18 1014.39 1808.78 1012.15 1806.42 1016.49C1804.02 1020.83 1804.87 1024.47 1804.87 1024.47H1798.44V1022.38L1793.68 1022.22V1024.47H1791.7V1028.81H1793.68V1030.9H1797.9V1029.24L1805.33 1029.66L1806.03 1035.4C1806.03 1035.4 1807 1042.41 1812.62 1038.88C1818.23 1035.4 1814.71 1031.87 1817.23 1031.6C1819.74 1031.33 1817.23 1036.09 1820.01 1035.4C1822.8 1034.7 1820.36 1033.89 1823.66 1033.42C1826.95 1032.96 1833.18 1034.12 1833.61 1034.12C1834.04 1034.12 1893.1 1036.44 1893.1 1036.44C1893.1 1036.44 1895.58 1036.52 1899.45 1034.78C1903.33 1032.99 1907.86 1032.99 1907.86 1032.99C1905.46 1038.46 1909.37 1041.56 1908.75 1041.48C1906.66 1045.82 1908.83 1049.27 1909.41 1050.05C1909.25 1050.43 1909.02 1051.29 1908.56 1052.95C1907.24 1057.91 1913.51 1062.25 1916.38 1059.04C1919.25 1055.86 1916.38 1051.44 1916.38 1051.44C1917.93 1049.5 1916.38 1047.18 1916.38 1047.18C1918.98 1043.3 1916.38 1040.09 1916.38 1040.09C1917.74 1037.68 1916.38 1035.86 1916.38 1035.86L1920.18 1034.93H1924.09C1926.95 1038.5 1931.68 1035.63 1931.68 1035.63L1944.35 1036.21L1945.86 1039.78C1941.25 1041.4 1942.6 1045.08 1942.6 1045.08C1942.6 1045.08 1930.67 1041.95 1933.69 1048.22C1936.72 1054.5 1945.2 1050.51 1945.2 1050.51C1948.45 1053.46 1957.44 1052.8 1957.44 1052.8C1956.78 1054.11 1957.55 1056.48 1957.55 1056.48C1954.18 1057.56 1955.38 1060.51 1955.38 1060.51C1951.7 1063.34 1952.32 1066.71 1952.32 1066.71C1949.81 1070.43 1952.44 1074.92 1955.23 1078.18L1876.6 1344.87L1881.44 1346.92L1959.95 1083.18L1985.4 1153.67V1154.63C1985.4 1154.63 1989.31 1171.65 1989.86 1174.44C1990.36 1177.27 1993.15 1177.03 1993.15 1177.03H1997.41C1997.49 1179.28 1998.73 1179.55 1998.73 1179.55L2004.54 1179.63C2005.23 1181.45 2012.2 1184.67 2012.2 1184.67C2011.47 1190.75 2012.67 1196.56 2012.67 1196.56C2006.47 1203.81 2013.44 1209.2 2013.44 1209.2C2014.06 1222.8 2032.27 1220.55 2032.27 1220.55L2047.33 1220.28C2052.14 1223.69 2056.32 1220.28 2056.32 1220.28H2065.81C2070.5 1214.39 2067.17 1208.65 2067.17 1208.65ZM1988.11 1148.16L1966.77 1087.4C1966.77 1087.4 1969.6 1089.73 1972.31 1089.53L1992.02 1144.21L1988.11 1148.16ZM1996.75 1135.84L1995.28 1137.97L1978.39 1086.05L1980.06 1083.02L1997.33 1125.84L1996.75 1135.84ZM2004.69 1131L2005.23 1127.01L2006.32 1131C2005.23 1130.45 2004.69 1131 2004.69 1131ZM2021.07 1165.21L2022.35 1163.7L2023.63 1168.12C2022.04 1167.66 2021.23 1167.89 2021.04 1167.89V1165.21H2021.07ZM2030.06 1205.94C2028.12 1206.02 2028.39 1207.76 2028.39 1207.76L2028.32 1216.02C2028.32 1216.02 2029.44 1217.06 2023.67 1216.4C2017.9 1215.75 2018.4 1209.35 2018.4 1209.35C2026.85 1208.38 2024.91 1198.89 2024.91 1198.89C2028.08 1198.97 2033.93 1205.94 2033.66 1206.02C2033.35 1206.06 2032 1205.86 2030.06 1205.94ZM2039.63 1204.2C2039.28 1204.2 2039.05 1205.48 2039.05 1205.48C2038 1201.8 2024.83 1194.47 2024.83 1194.47C2024.83 1194.47 2023.24 1187.92 2021.5 1185.75C2019.8 1183.58 2020.69 1177.85 2020.69 1177.85C2022.2 1176.68 2024.71 1174.59 2026.77 1172.85L2031.88 1183.58C2030.33 1186.26 2031.26 1188.66 2031.26 1188.66C2031.26 1188.66 2039.98 1204.2 2039.63 1204.2Z" fill="#DBDBDB"/>
<path d="M1909.45 895.582C1906.62 889.653 1900.89 890.118 1897.6 890.428C1894.34 890.777 1883.03 896.59 1879.39 896.745C1875.75 896.9 1872.26 893.722 1872.26 893.722C1872.26 893.722 1864.87 883.414 1861.85 880.547C1858.82 877.679 1850.96 866.945 1848.1 864.659C1845.23 862.372 1842.79 857.993 1842.21 855.901C1841.63 853.808 1836.48 844.237 1832.53 841.33C1828.57 838.424 1822.22 826.101 1820.13 823.234C1818 820.366 1815.13 820.056 1813.31 816.801C1811.49 813.546 1803.63 805.214 1802.28 802.037C1800.92 798.859 1800.92 795.371 1799.99 794.325C1799.1 793.279 1798.48 792.039 1798.94 787.815C1799.41 783.591 1797.9 783.126 1798.63 779.793C1799.41 776.461 1794.84 770.88 1792.75 769.369C1790.66 767.858 1783.06 761.658 1781.55 757.434C1780.04 753.21 1774.23 744.723 1774.23 744.723L1780.78 744.375C1787.75 750.923 1789.46 744.375 1789.46 744.375H1819.86V731.315H1786.09C1780.12 725.696 1777.64 731.315 1777.64 731.315C1777.64 731.315 1771.21 731.083 1768.73 731.277C1766.25 731.509 1766.6 730.153 1765.91 728.138C1765.25 726.123 1762.07 722.596 1759.36 721.589C1756.65 720.581 1753.74 712.25 1752.93 710.855C1752.16 709.498 1753.16 706.592 1754.75 705.236C1756.34 703.879 1746.19 697.679 1746.19 697.679L1745.42 695.432L1746.42 693.959C1748.9 695.199 1751.61 695.083 1751.61 695.083C1755.45 698.338 1760.17 695.083 1760.17 695.083C1763.54 696.323 1768.38 692.486 1768.38 692.486C1768.38 692.486 1768.62 694.308 1768.62 695.974C1768.62 697.679 1772.57 695.393 1772.57 695.393L1776.29 691.789C1776.29 691.789 1781.48 697.33 1785.08 698.222C1788.68 699.113 1791.28 697.33 1791.28 697.33C1791.28 697.33 1861.23 710.273 1864.17 710.738C1867.11 711.203 1866.53 709.847 1866.53 709.847C1866.53 709.847 1866.53 705.778 1866.53 704.654C1866.53 703.531 1865.53 703.027 1865.53 703.027L1788.72 688.185C1788.72 688.185 1787.25 687.294 1786.01 685.472C1784.77 683.651 1779.04 683.457 1777.33 683.457C1775.63 683.457 1776.21 684.349 1773.61 682.682C1771.02 680.977 1767.3 682.682 1767.3 682.682C1766.84 681.559 1763 680.202 1759.98 679.97C1756.92 679.737 1753.43 682.682 1753.43 682.682C1747.9 674.7 1738.17 675.707 1738.17 675.707L1735.97 674.467L1724.58 671.755C1724.58 671.755 1723.69 669.933 1722.68 666.794C1721.67 663.655 1722.22 658.347 1717.84 653.851C1713.46 649.356 1712.22 652.611 1709.4 650.48C1706.57 648.349 1708.39 644.745 1706.45 641.8C1704.51 638.855 1705.21 637.305 1704.86 632.344C1704.51 627.384 1702.73 623.315 1702.73 619.595C1702.73 615.875 1694.52 610.45 1693.82 606.846C1693.17 603.242 1687.63 601.77 1684.68 600.53C1681.74 599.289 1678.6 597.274 1675.23 594.329C1671.86 591.384 1667.25 591.268 1667.25 591.268C1673.1 585.959 1674.34 575.147 1674.34 575.147C1697.08 575.147 1677.6 561.391 1677.6 561.391C1678.95 531.203 1661.72 527.793 1661.72 527.793C1660.94 525.546 1659.59 523.957 1650.79 523.608C1642 523.259 1640.99 526.979 1640.99 526.979C1621.74 529.111 1622.05 554.454 1621.74 554.609C1618.45 555.927 1616.01 557.128 1614.23 558.291C1614.07 557.709 1613.84 557.36 1613.57 557.283C1613.22 557.205 1612.68 557.05 1611.98 556.857L1610.16 542.092L1612.84 543.642L1615.82 543.914L1618.92 540.504L1619.92 537.249L1615.55 538.101L1617.1 535.853L1617.52 533.877L1612.84 530.467L1608.57 526.941C1608.57 526.941 1605.17 521.709 1598.81 526.359L1597.81 528.336L1598.93 536.706L1600.91 537.287L1602.65 553.292C1601.06 552.323 1599.16 551.47 1597.81 551.897C1595.13 552.749 1592.85 555.578 1594.13 556.702C1595.41 557.826 1595.83 556.43 1596.53 556.702C1597.23 556.973 1598.66 555.849 1600.36 556.547C1601.14 556.857 1602.34 557.399 1603.19 557.903L1603.35 559.376C1600.79 559.802 1600.36 558.097 1598.66 558.252C1596.96 558.407 1593.86 559.376 1596.1 562.204C1598 564.568 1601.14 567.242 1604.28 568.017L1608.38 605.567C1608.11 605.722 1607.84 605.838 1607.61 605.838C1604.08 606.265 1595.44 614.635 1591.88 618.433C1588.36 622.269 1591.18 622.385 1590.6 627.229C1590.02 632.034 1589.91 643.931 1590.76 648.891C1591.61 653.851 1589.63 652.844 1588.51 657.688C1587.39 662.493 1588.51 673.847 1588.67 678.923C1588.82 684 1587.97 681.597 1586.42 684.581C1584.87 687.565 1583.44 691.091 1587 692.796C1590.53 694.502 1589.98 698.338 1589.98 698.338C1589.98 698.338 1591.11 700.314 1591.42 702.949C1591.73 705.584 1590.84 707.793 1591.57 712.056C1592.27 716.319 1596.68 717.171 1600.63 719.574C1604.59 721.976 1606.02 735.423 1606.02 735.423C1606.02 735.423 1609.27 741.081 1609 745.498C1608.73 749.916 1607.72 746.777 1604.9 749.606C1602.07 752.435 1601.8 749.335 1600.52 752.706C1599.24 756.116 1599.4 755.264 1597.85 759.216C1596.3 763.169 1596.99 760.921 1596.84 763.479C1596.68 766.037 1599.51 765.184 1601.64 763.634C1603.77 762.084 1605.17 758.519 1607.45 754.566C1609.7 750.614 1615.24 745.925 1615.24 745.925C1617.21 759.953 1627.28 757.976 1627.28 757.976L1632.51 808.818C1632.51 808.818 1631.81 809.942 1630.96 811.376C1630.11 812.809 1630.69 813.236 1630.81 816.065C1630.96 818.893 1634.33 821.025 1638.17 822.148C1642 823.272 1645.1 818.622 1646.22 815.638C1647.35 812.654 1642.81 807.578 1642.39 807.578C1641.96 807.578 1637.43 755.457 1637.59 753.869C1637.74 752.319 1640.57 750.769 1643.82 747.358C1647.07 743.948 1644.09 745.227 1642.97 743.251C1641.85 741.274 1644.67 740.422 1644.52 738.291C1644.36 736.159 1640.99 733.175 1638.01 732.052C1635.03 730.928 1636.15 728.37 1636.58 727.518C1637 726.665 1639.41 726.665 1639.41 726.665L1641.38 729.494C1641.38 729.494 1644.48 731.625 1646.34 731.354C1648.2 731.083 1652.15 734.338 1652.15 734.338C1652.15 734.338 1652.5 746.855 1655.21 748.443C1657.92 750.032 1658.23 747.94 1658.23 747.94L1658.04 741.739C1658.04 741.739 1658.66 743.251 1660.44 743.948C1662.26 744.646 1660.32 746.661 1660.32 746.661L1661.91 748.87C1661.91 748.87 1662.03 750.458 1660.9 752.784C1659.82 755.07 1663.42 755.38 1663.11 757.589C1662.8 759.798 1666.09 765.107 1666.09 765.107C1666.09 765.107 1667.29 767.005 1670.39 767.897C1673.49 768.788 1671.71 771.617 1674.11 773.903C1676.51 776.189 1678.8 783.823 1681.51 785.722C1684.22 787.621 1688.91 796.96 1690.22 798.743C1691.54 800.564 1690.11 801.339 1690.22 803.238C1690.34 805.137 1691.93 808.934 1693.94 809.361C1695.96 809.748 1695.53 811.259 1696.96 812.771C1698.36 814.282 1698.28 817.886 1699.48 820.598C1700.68 823.311 1704.79 829.705 1706.3 831.72C1707.81 833.735 1723.03 844.353 1725.24 844.741C1727.44 845.128 1726.63 845.826 1727.25 847.841C1727.87 849.856 1728.45 852.258 1730.27 853.77C1732.09 855.281 1734.88 861.985 1737.59 863.38C1740.3 864.775 1749.1 878.803 1751.3 884.306C1753.51 889.808 1778.15 904.224 1779.04 908.331C1779.93 912.439 1781.82 915.733 1781.82 915.733C1781.82 915.733 1786.43 921.236 1788.64 922.863C1790.85 924.452 1793.06 929.567 1793.44 930.459C1793.83 931.35 1792.75 931.544 1792.36 933.249C1791.97 934.954 1790.35 936.349 1789.57 937.55C1788.8 938.751 1788.68 939.449 1788.87 941.348C1789.07 943.246 1791.16 942.045 1792.48 940.96C1793.79 939.875 1794.06 938.945 1794.68 940.34C1795.3 941.735 1794.06 942.743 1794.88 944.254C1795.69 945.765 1795.26 945.959 1795.96 948.555C1796.66 951.152 1798.25 950.764 1799.06 952.159C1799.87 953.554 1799.25 955.376 1799.56 957.352C1799.87 959.367 1794.95 965.374 1792.17 969.559C1789.38 973.783 1789.15 980.68 1794.45 983.47C1799.76 986.26 1817.5 978.471 1818.78 976.96C1820.09 975.449 1824.7 968.435 1825.17 967.737C1825.67 967.04 1828.77 967.117 1830.28 966.652C1831.79 966.149 1834.58 963.94 1835.28 963.242C1835.97 962.545 1835.16 960.723 1835.16 960.723C1835.16 960.723 1838.18 958.437 1840.58 956.616C1842.98 954.794 1841.28 950.105 1841.28 947.509C1841.28 944.913 1838.06 939.681 1838.06 939.681L1837.75 934.489C1837.95 929.993 1832.84 928.56 1832.84 928.56C1832.84 928.56 1825.94 917.322 1824.31 915.927C1822.73 914.532 1817.92 909.533 1817.11 908.215C1816.3 906.898 1816.14 904.96 1816.14 904.96C1816.45 901.55 1815.1 894.885 1815.1 894.885L1823.85 906.549C1824.47 908.525 1827.03 907.479 1827.03 907.479L1835.04 902.906C1834.15 904.573 1835.82 907.285 1838.22 908.215C1840.62 909.107 1839.26 910.502 1838.37 912.904C1837.48 915.307 1841.24 918.213 1841.24 918.213C1841.24 918.213 1842.6 921.701 1843.53 923.948C1844.42 926.235 1845.81 929.412 1845.81 933.171C1845.81 936.969 1848.68 939.526 1850.03 940.301C1851.39 941.076 1856.38 939.681 1857.59 938.945C1858.79 938.17 1870.29 931.815 1873.16 928.792C1876.02 925.77 1883.57 921.817 1891.59 917.283C1899.53 912.943 1912.31 901.511 1909.45 895.582ZM1759.32 684.891C1760.91 684.039 1763.04 685.627 1764.16 687.216C1765.29 688.805 1760.37 689.619 1760.37 689.619C1760.37 689.619 1757.97 687.875 1757.27 687.139C1756.57 686.403 1757.73 685.783 1759.32 684.891ZM1622.91 587.974C1622.63 590.803 1617.68 591.5 1617.68 591.5C1617.68 591.5 1617.25 592.43 1616.52 593.864L1613.38 568.211C1614.15 568.133 1614.62 567.94 1614.58 567.552C1617.83 569.141 1621.82 569.955 1621.82 569.955C1621.55 571.505 1621.24 579.449 1623.25 582.123C1625.15 584.835 1623.18 585.145 1622.91 587.974ZM1744.72 685.395C1744.72 685.395 1740.5 677.567 1740.77 677.528C1744.56 676.908 1747.04 680.396 1748.48 681.326C1749.91 682.217 1750.14 685.783 1748.48 686.713C1746.81 687.604 1744.72 685.395 1744.72 685.395Z" fill="#DBDBDB"/>
<path d="M1856.93 398.093L1952.48 275.367L1949.81 254.829C1949.81 254.829 1947.33 254.093 1943.96 253.085C1944.46 249.675 1943.07 247.079 1943.07 247.079C1945.04 243.475 1942.41 240.181 1942.41 240.181C1944.23 237.042 1941.67 233.128 1941.67 233.128C1943.84 229.679 1940.67 225.145 1940.67 225.145C1943.38 222.471 1939.85 217.162 1939.85 217.162C1944.23 208.715 1929.67 203.057 1929.67 203.057C1935.94 195.849 1918.09 193.33 1913.71 193.64C1909.33 193.95 1909.95 200.073 1906.19 201.003C1902.44 201.933 1904.14 198.639 1901.93 201.933C1899.69 205.227 1903.87 207.746 1903.87 207.746C1903.87 207.746 1901.04 209.645 1897.91 214.489C1894.77 219.333 1897.4 223.905 1897.4 223.905C1896.43 227.974 1897.94 230.493 1897.94 230.493C1896.12 235.802 1899.45 237.391 1899.45 237.391C1895.85 243.048 1899.76 245.838 1899.76 245.838C1897.25 250.682 1900.54 253.55 1900.54 253.55C1898.72 258.084 1900.38 261.455 1902.09 263.47C1901.12 268.586 1904.3 271.724 1906.89 273.429C1886.48 300.284 1852.36 345.352 1816.1 393.287L1808.63 340.159L1754.87 377.671L1760.83 466.256C1737.9 496.56 1716.52 524.809 1699.79 546.975C1697.12 545.58 1690.73 542.984 1684.53 545.813C1676.36 549.533 1661.68 568.366 1661.68 568.366L1663.34 595.879L1695.99 616.573L1716.52 595.647C1716.52 595.647 1718.11 593.554 1715.75 591.191L1710.67 586.037L1739.06 549.572L1792.79 577.085L1852.36 1368.08H1931.56L1838.61 459.94L1856.93 398.093ZM1744.53 542.48L1786.16 489.003L1791.93 565.615L1744.53 542.48ZM1835.12 426.071L1848.52 408.865L1837.29 447.152L1835.12 426.071Z" fill="#DBDBDB"/>
<path d="M1754.36 134.351L1773.65 343.686L1796.89 338.377L1775.63 128.151L1763.47 124.237L1754.36 134.351Z" fill="#DBDBDB"/>
<path d="M2157.92 305.09L1918.98 206.429L1226.56 0.155273H1233.06L1919.94 203.716L1919.98 203.755L2159 302.455L2157.92 305.09Z" fill="#DBDBDB"/>
<path d="M2157.95 463.544L1814.51 332.099L576.862 0H584.569L1815.41 329.386H1815.44L2159 460.87L2157.95 463.544Z" fill="#DBDBDB"/>
<path d="M2157.99 735.925L1649.79 556.157L-146 0.152832H-134.496L1650.64 553.445L1650.68 553.483L2158.96 733.251L2157.99 735.925Z" fill="#DBDBDB"/>
<path d="M2154.7 288.427L1768.11 136.173L1366.5 0.155273H1368.12L1768.35 135.514L2154.93 287.768L2154.7 288.427Z" fill="#DBDBDB"/>
</g>
<defs>
<linearGradient id="paint0_linear" x1="2225" y1="715" x2="1172" y2="375" gradientUnits="userSpaceOnUse">
<stop stop-color="white" stop-opacity="0"/>
<stop offset="0.96875" stop-color="#DBDBDB"/>
</linearGradient>
<clipPath id="clip0">
<rect width="2305" height="1368" fill="white" transform="translate(-146)"/>
</clipPath>
</defs>
</svg>
