<svg width="126" height="93" viewBox="0 0 126 93" fill="none" xmlns="http://www.w3.org/2000/svg">
<g clip-path="url(#clip0)">
<path d="M110.853 46.6607C110.453 20.8202 89.5777 0 63.8746 0C38.1648 0 17.2958 20.8202 16.889 46.6607H110.853Z" fill="#8CC63F"/>
<path d="M1.88485 55.9559C1.88485 56.3595 2.02723 56.7562 2.24419 57.0161C1.97299 57.146 1.72213 57.2008 1.46449 57.2008C0.542402 57.2008 0 56.38 0 55.4635C0 54.3144 0.867843 53.0012 3.00355 53.0012C4.50872 53.0012 6.041 53.8014 6.82071 53.3637C7.00377 53.4731 7.07157 53.6578 7.07157 53.8356C7.07157 54.1844 6.85461 54.5469 6.44102 54.5469H6.2783L3.81715 66.2155C3.63409 67.0705 2.92897 67.3851 2.25775 67.3851C1.84417 67.3851 1.49839 67.2962 1.29498 67.1458L4.2104 54.1639H4.12904C2.48149 54.1708 1.88485 55.101 1.88485 55.9559Z" fill="white"/>
<path d="M9.43105 55.3745L10.265 56.1406L10.6989 54.0613C11.1871 53.8766 11.9668 54.2597 11.7634 55.1762L11.5464 56.1406L13.2821 54.9915C13.7703 55.2309 14.0618 56.0517 13.2482 56.5647L12.0549 57.3307L13.4448 58.5345C13.3567 59.0612 12.6516 59.5742 11.96 58.9723L11.1125 58.2062L10.6989 60.2718C10.2108 60.4565 9.43105 60.0734 9.62768 59.1569L9.8243 58.2062L8.10217 59.3553C7.61401 59.1159 7.32247 58.2951 8.13607 57.7821L9.32935 57.0161L7.93267 55.8123C8.03437 55.2788 8.73949 54.7726 9.43105 55.3745Z" fill="white"/>
<path d="M17.6281 55.9559C17.6281 56.3595 17.7705 56.7562 17.9874 57.0161C17.7162 57.1461 17.4654 57.2008 17.2077 57.2008C16.2856 57.2008 15.7432 56.38 15.7432 55.4635C15.7432 54.3144 16.6111 53.0012 18.7468 53.0012C20.2519 53.0012 21.7842 53.8014 22.5639 53.3637C22.747 53.4731 22.8148 53.6578 22.8148 53.8356C22.8148 54.1844 22.5978 54.547 22.1843 54.547H22.0554L20.5164 61.886C19.9197 64.7724 20.2248 65.4974 21.33 65.4974C23.4318 65.4974 25.2217 59.9298 25.2217 55.9696C25.2217 54.9437 25.0929 53.9998 24.5912 53.2679C24.8963 52.8849 25.3166 52.6318 25.8929 52.5566C26.7947 52.4471 27.1608 53.0832 27.1947 53.5073C27.215 53.7467 27.2286 53.9793 27.2286 54.2186C27.2082 58.4388 24.0759 67.3852 20.2994 67.3852C18.4146 67.3852 17.4789 65.6137 18.3603 61.4346L19.879 54.1708H19.8587C18.2247 54.1708 17.6281 55.101 17.6281 55.9559Z" fill="white"/>
<path d="M27.1676 62.9872C27.0591 62.8778 27.0049 62.6931 27.0049 62.5152C27.0049 62.0228 27.3846 61.4004 28.1982 61.4004H32.3069C32.395 61.544 32.4492 61.7492 32.4492 61.9475C32.4492 62.4605 32.0899 62.9872 31.2763 62.9872H27.1676ZM27.7846 60.0666C27.6761 59.9572 27.6219 59.7725 27.6219 59.5947C27.6219 59.1022 28.0015 58.4798 28.8151 58.4798H32.9238C33.012 58.6234 33.0662 58.8286 33.0662 59.027C33.0662 59.54 32.7069 60.0666 31.8865 60.0666H27.7846Z" fill="white"/>
<path d="M35.9477 58.1515C34.2662 58.6098 33.6696 57.6385 33.6696 56.6878C33.6696 53.8425 37.0189 53.179 38.9038 53.179C39.8598 53.179 41.3988 53.3979 42.4158 53.3979C43.2159 53.3979 44.043 53.2337 44.5515 52.8712C45.0736 54.4033 44.3685 55.5934 43.087 55.5934C42.2531 55.5934 41.3514 55.1215 40.2801 54.7932L39.2631 59.54C39.8598 59.3416 40.3683 59.2459 40.8225 59.2459C43.1955 59.2459 43.7922 60.8874 43.7922 62.0023C43.7922 64.2867 41.3649 67.392 37.8732 67.392C35.8799 67.392 34.2188 66.8448 34.2188 66.0035C34.2188 65.6 34.4357 65.2169 34.9442 65.0528C35.2154 65.2922 35.4866 65.47 35.7782 65.6342L38.1512 54.4786C36.9376 54.5675 35.7104 55.5045 35.7104 57.2008C35.6968 57.5086 35.7511 57.8163 35.9477 58.1515ZM39.0394 60.5796L37.8461 66.2224H37.8664C39.7648 66.2224 41.4666 64.1431 41.4666 62.098C41.4666 61.1473 40.9581 60.477 39.8937 60.477C39.6225 60.4702 39.3309 60.5044 39.0394 60.5796Z" fill="white"/>
<path d="M47.0805 55.9559C47.0805 56.3595 47.2228 56.7562 47.4398 57.0161C47.1686 57.146 46.9177 57.2008 46.6601 57.2008C45.738 57.2008 45.1956 56.38 45.1956 55.4635C45.1956 54.3144 46.0635 53.0012 48.1992 53.0012C49.7043 53.0012 51.2366 53.8014 52.0163 53.3637C52.1994 53.4731 52.2672 53.6578 52.2672 53.8356C52.2672 54.1844 52.0502 54.5469 51.6366 54.5469H51.4739L50.4569 59.3826C51.0197 59.3826 51.6299 59.3484 52.1926 59.3074C52.9723 56.0175 55.0334 53.3158 57.9692 53.3158C60.6134 53.3158 61.7185 55.655 61.5897 58.9175C61.4473 63.2061 59.1286 67.4467 55.4741 67.4467C52.7079 67.4467 51.5621 65.1075 51.8739 61.8381C51.8943 61.3456 51.9282 60.8532 52.0028 60.3607C51.4061 60.4907 50.7552 60.5796 50.1925 60.6138L49.0128 66.2019C48.8297 67.0568 48.1246 67.3715 47.4534 67.3715C47.0398 67.3715 46.694 67.2825 46.4974 67.1321L49.4128 54.1502H49.3247C47.6771 54.1708 47.0805 55.101 47.0805 55.9559ZM56.3081 65.1417C57.8811 65.1417 59.949 62.8572 59.949 58.1652C59.949 55.867 59.1015 54.7521 58.0844 54.7521C56.5115 54.7521 54.5182 57.3991 54.5182 62.5084C54.5182 64.2457 55.3114 65.1417 56.3081 65.1417Z" fill="white"/>
<path d="M66.3764 55.7713C66.5595 54.93 67.2443 54.6427 67.8816 54.6427C68.207 54.6427 68.5121 54.7316 68.7359 54.8821L67.468 60.9079C69.3528 60.819 70.8309 59.0475 70.8309 56.51C70.8309 55.1762 70.1054 54.0613 68.2816 54.0613C65.2374 54.0613 64.2068 55.6687 64.2068 57.0366C64.2068 57.5086 64.3492 57.8369 64.5662 58.0968C64.2949 58.2267 64.0441 58.2815 63.7864 58.2815C62.8644 58.2815 62.322 57.4607 62.322 56.5442C62.322 54.3896 65.1085 53.1859 68.6409 53.1859C71.8275 53.1859 73.0547 54.6496 73.0547 56.3663C73.0547 59.6494 70.5393 61.7697 67.5494 61.7697H67.2782L66.3561 66.2224C66.173 67.0774 65.4679 67.392 64.7967 67.392C64.3831 67.392 64.0373 67.3031 63.8407 67.1526L66.3764 55.7713Z" fill="white"/>
<path d="M74.6481 62.057C74.6481 58.0558 76.8923 53.179 80.784 53.179C83.2791 53.179 84.3503 55.3541 84.3503 57.8916C84.3503 62.2006 82.0519 67.3852 78.2483 67.3852C75.7871 67.3852 74.6481 64.9229 74.6481 62.057ZM77.1974 61.6535C77.1974 63.5344 77.7601 65.0665 79.0822 65.0665C80.6552 65.0665 82.7231 62.7273 82.7231 57.9121C82.7231 55.7371 81.9095 54.6085 80.8925 54.6085C78.7026 54.6085 77.1974 58.6235 77.1974 61.6535Z" fill="white"/>
<path d="M94.0118 61.161C93.0694 61.161 92.5813 60.2308 93.0152 59.6631C93.883 60.1008 94.7509 59.6631 95.856 59.6631C96.073 59.6631 96.2696 59.6973 96.4323 59.7725C96.4865 59.1706 96.5204 58.5824 96.5204 57.9805C96.5204 55.8055 95.9577 54.3486 94.6898 54.3486C93.9983 54.3486 93.3135 54.8206 93.3135 55.5524C93.3135 56.0449 93.3881 56.3527 93.605 56.7357C93.3542 56.9204 92.988 57.0298 92.7033 57.0298C92.0524 57.0298 91.6185 56.4074 91.6185 55.7302C91.6185 53.7399 93.7203 53.1722 95.1102 53.1722C97.8086 53.1722 98.9138 55.1078 98.9138 58.0147C98.9138 62.741 96.7577 67.3783 92.8864 67.3783C91.0964 67.3783 89.5709 66.5575 89.5709 64.8203C89.5709 64.0337 89.9845 63.1992 91.0761 63.1992C91.3134 63.1992 91.6931 63.3429 91.8354 63.6028C91.6524 63.8764 91.5982 64.2047 91.5982 64.4988C91.5982 65.6479 92.2829 66.195 93.0965 66.195C94.8187 66.195 95.9035 63.7327 96.317 60.7711H96.1882C95.4424 60.778 94.7576 61.161 94.0118 61.161Z" fill="white"/>
<path d="M111.952 55.2788C111.226 55.2036 110.447 55.0941 109.619 54.9847L107.246 66.2156C107.063 67.0705 106.358 67.3852 105.687 67.3852C105.273 67.3852 104.928 67.2962 104.731 67.1458L107.518 54.7316C106.738 54.6427 105.945 54.547 105.165 54.4922L102.683 66.2156C102.5 67.0705 101.795 67.3852 101.124 67.3852C100.71 67.3852 100.365 67.2962 100.168 67.1458L103.009 54.4922C101.904 54.7111 100.873 55.6208 100.873 57.1734C100.873 57.4881 100.927 57.7958 101.124 58.1242C99.4426 58.5824 98.8459 57.6112 98.8459 56.6604C98.8459 53.8151 102.195 53.1517 104.08 53.1517C106.019 53.1517 110.487 53.3705 112.481 53.3705C113.274 53.3705 114.108 53.2064 114.616 52.8439C115.667 53.2474 115.45 54.9779 114.162 55.3267L112.243 64.2936C112.026 65.3538 112.352 65.6479 112.84 65.6479C113.423 65.6479 114.271 65.1007 114.684 64.7313C114.881 64.8203 114.989 64.9844 114.989 65.1691C114.989 65.299 114.935 65.4427 114.826 65.5726C113.776 66.5576 112.725 67.3783 111.681 67.3783C110.596 67.3783 109.511 66.8653 109.958 64.7313L111.952 55.2788Z" fill="white"/>
<path d="M119.315 55.7713C119.498 54.93 120.183 54.6427 120.813 54.6427C121.139 54.6427 121.444 54.7316 121.668 54.8821L120.4 60.9079C122.285 60.819 123.769 59.0475 123.769 56.51C123.769 55.1762 123.044 54.0613 121.22 54.0613C118.176 54.0613 117.145 55.6687 117.145 57.0366C117.145 57.5086 117.288 57.8369 117.505 58.0968C117.233 58.2267 116.983 58.2815 116.725 58.2815C115.803 58.2815 115.26 57.4607 115.26 56.5442C115.26 54.3896 118.047 53.1859 121.579 53.1859C124.766 53.1859 125.993 54.6496 125.993 56.3663C125.993 59.6494 123.478 61.7697 120.488 61.7697H120.217L119.295 66.2224C119.111 67.0774 118.406 67.392 117.735 67.392C117.315 67.392 116.976 67.3031 116.772 67.1526L119.315 55.7713Z" fill="white"/>
<path d="M40.4632 45.0876V46.6607H59.5218L63.0813 30.8199L54.9589 33.0496L58.2675 18.8777H45.7787V45.1902L40.4632 45.0876Z" fill="white"/>
<path d="M60.7762 46.4077L71.0615 24.2469L63.5831 25.7653L66.0917 18.8298H80.3365V45.0876H85.6046V46.5582L60.7762 46.4077Z" fill="white"/>
<path d="M74.2006 23.2209L74.126 23.1867C73.4345 22.8995 73.1022 22.0924 73.387 21.3947L79.3873 6.73715C79.6721 6.0395 80.4721 5.70435 81.1637 5.99162L81.2383 6.02582C81.9298 6.31309 82.262 7.12018 81.9773 7.81783L75.977 22.4754C75.6922 23.1731 74.8922 23.5082 74.2006 23.2209Z" fill="white"/>
<path d="M82.7434 10.3964L77.0279 8.01621C76.8041 7.92046 76.6957 7.66055 76.7906 7.43484C76.8855 7.20912 77.1431 7.09969 77.3669 7.19545L83.0824 9.57568C83.3062 9.67143 83.4146 9.93134 83.3197 10.1571C83.2316 10.3759 82.9739 10.4854 82.7434 10.3964Z" fill="white"/>
<path d="M81.7332 12.8656L76.0176 10.4853C75.7939 10.3896 75.6854 10.1297 75.7803 9.90395C75.8752 9.67824 76.1329 9.56881 76.3566 9.66456L82.0722 12.0448C82.2959 12.1405 82.4044 12.4005 82.3095 12.6262C82.2213 12.8519 81.9569 12.9613 81.7332 12.8656Z" fill="white"/>
<path d="M80.723 15.3347L75.0074 12.9544C74.7837 12.8587 74.6752 12.5988 74.7701 12.3731C74.865 12.1474 75.1227 12.0379 75.3464 12.1337L81.062 14.5139C81.2857 14.6097 81.3942 14.8696 81.2993 15.0953C81.2111 15.321 80.9467 15.4304 80.723 15.3347Z" fill="white"/>
<path d="M79.7128 17.8039L73.9972 15.4236C73.7735 15.3279 73.665 15.068 73.7599 14.8422C73.8548 14.6165 74.1125 14.5071 74.3362 14.6029L80.0518 16.9831C80.2755 17.0788 80.384 17.3388 80.2891 17.5645C80.1941 17.7902 79.9365 17.8996 79.7128 17.8039Z" fill="white"/>
<path d="M52.0638 22.1676L51.9892 22.2018C51.2976 22.4891 50.4976 22.1608 50.2128 21.4631L44.1786 6.81923C43.8938 6.12157 44.2193 5.31448 44.9108 5.02721L44.9854 4.99301C45.677 4.70574 46.477 5.03405 46.7618 5.73171L52.796 20.3756C53.0875 21.0733 52.7553 21.8803 52.0638 22.1676Z" fill="white"/>
<path d="M49.1212 7.00389L43.4125 9.3978C43.1887 9.49355 42.9311 9.38412 42.8362 9.15841C42.7412 8.93269 42.8497 8.67278 43.0735 8.57703L48.7822 6.18312C49.006 6.08736 49.2636 6.1968 49.3586 6.42251C49.4535 6.64138 49.345 6.90813 49.1212 7.00389Z" fill="white"/>
<path d="M50.1382 9.46623L44.4295 11.8601C44.2057 11.9559 43.9481 11.8465 43.8532 11.6207C43.7582 11.395 43.8667 11.1351 44.0905 11.0394L49.7992 8.64546C50.023 8.5497 50.2806 8.65914 50.3755 8.88485C50.4705 9.11056 50.362 9.37731 50.1382 9.46623Z" fill="white"/>
<path d="M51.1553 11.9353L45.4465 14.3293C45.2228 14.425 44.9651 14.3156 44.8702 14.0899C44.7753 13.8642 44.8838 13.6042 45.1075 13.5085L50.8163 11.1146C51.04 11.0188 51.2977 11.1283 51.3926 11.354C51.4875 11.5797 51.379 11.8464 51.1553 11.9353Z" fill="white"/>
<path d="M52.1722 14.4045L46.4635 16.7984C46.2397 16.8942 45.9821 16.7848 45.8872 16.559C45.7922 16.3333 45.9007 16.0734 46.1245 15.9777L51.8332 13.5838C52.057 13.488 52.3146 13.5974 52.4095 13.8231C52.5045 14.0489 52.396 14.3088 52.1722 14.4045Z" fill="white"/>
<path d="M28.0829 75.0046C52.1045 75.0046 75.8414 75.0046 99.6664 75.0046C82.5536 97.8562 47.8941 100.12 28.0829 75.0046Z" fill="white"/>
</g>
<defs>
<clipPath id="clip0">
<rect width="126" height="93" fill="white"/>
</clipPath>
</defs>
</svg>
