<svg width="93" height="93" fill="none" xmlns="http://www.w3.org/2000/svg"><g clip-path="url(#clip0)" fill="#8CC63F"><path opacity=".5" d="M77.75 17c16.36 23.96 4.74 57.02-23.1 65.41-16.17 4.87-32.97-.24-43.79-11.78 10.29 15.06 29.5 22.44 47.89 16.9 30.71-9.25 40.59-47.49 19-70.53z"/><path d="M1.98 59.74C-5.4 35.27 8.52 9.36 32.99 1.98c19.2-5.78 39.83 1.35 51.33 17.76 1.61 2.29-1.86 4.72-3.46 2.43A42.057 42.057 0 0034.21 6.04C11.97 12.74-.67 36.28 6.03 58.52c11.26 37.39 63.1 40.46 78.86 4.9 1.13-2.56 5-.84 3.87 1.71-17.46 39.4-74.44 35.6-86.78-5.39z"/><path d="M84.88 63.42c1.78-4.02 1.79-6.98 4.42-6.17 2.89.88.79 4.86-.55 7.88-1.13 2.55-5 .86-3.87-1.71zm3.31-11.97c1.73-14.15-4.09-18.66-.08-19.87 1.12-.34 2.3.3 2.64 1.42 1.87 6.2 2.42 12.58 1.64 18.96-.34 2.78-4.54 2.27-4.2-.51zM35.44 65.29c-3.79-11.38-4.66-12.37-2.74-13.01 1.92-.64 1.98 1.15 4.68 9.25 6.51-8.28 15.34-13.05 23.19-5.97 1.49 1.34-.54 3.59-2.03 2.25-7.21-6.51-15.69.39-20.38 7.81-.69 1.08-2.32.87-2.72-.33zm38.27-12.28c2.41-8.58-5-8.27-3.53-11.05 1.57-2.97 8.9 3.11 6.44 11.87-.54 1.92-3.45 1.1-2.91-.82zM22.32 67.35c-2.2 0-7.01-7.91-4.61-12.73.89-1.78 3.58-.46 2.72 1.33-.09.19-1.69 3.9 2.99 8.84.91.97.22 2.56-1.1 2.56zm34.85-34.46c-3.75 0-10.72-4.08-8.31-6.23 2.11-1.88 3.54 3.57 8.71 3.19 5.11-.37 5.6-6.46 8.1-4.8 2.64 1.75-3.63 7.84-8.5 7.84zm-30.55 4.88c-3.77 0-10.91-4.29-8.36-6.44 1.11-.94 2.09.17 2.13.17 3.68 4.29 8.6 4.71 12.6-1 1.15-1.64 3.63.1 2.48 1.74-2.17 3.09-5.07 5.53-8.85 5.53zm25.23 40.22c-4.57 0-2.94-1.61-2.29-1.49.07.01 7.19 1.35 9.72-3.45.4-.76 1.55-.15 1.15.61-1.66 3.15-5.03 4.33-8.58 4.33zm-3.4-4.52c.29-1.19 5.72 1.58 8.23-2.73.33-.57 1.2-.07.87.5-2.4 4.12-9.38 3.39-9.1 2.23z"/></g><defs><clipPath id="clip0"><path fill="#fff" d="M0 0h92.73v92.68H0z"/></clipPath></defs></svg>