<svg width="29" height="30" fill="none" xmlns="http://www.w3.org/2000/svg"><g clip-path="url(#clip0)"><path d="M24.62 8.25L21.17 4.8l-6.45 6.45L8.28 4.8 4.83 8.25l6.45 6.44-6.45 6.45 3.45 3.45 6.44-6.45 6.45 6.45 3.45-3.45-6.45-6.45 6.45-6.44z" fill="#fff"/><path d="M2.65 7.48H0V0h7.48v2.65H2.65v4.83zm18.84-4.83V0h7.48v7.48h-2.65V2.65h-4.83zm4.83 18.96h2.65v7.47h-7.48v-2.65h4.83v-4.82zM7.48 26.43v2.65H0v-7.47h2.65v4.82h4.83z" fill="#4D4D4F"/></g><defs><clipPath id="clip0"><path fill="#fff" d="M0 0h28.97v29.08H0z"/></clipPath></defs></svg>