<svg width="75" height="55" fill="none" xmlns="http://www.w3.org/2000/svg"><g clip-path="url(#clip0)" fill="#fff"><path d="M59.145 26.967h-5.627a.916.916 0 01-.908-.917v-2.659c-.178-.06-.342-.135-.52-.21l-1.862 1.878a.92.92 0 01-1.28 0l-3.975-4.012a.913.913 0 010-1.291l1.861-1.878a5.532 5.532 0 01-.208-.526H43.99a.916.916 0 01-.908-.917v-5.663c0-.496.401-.917.908-.917h2.635c.06-.18.134-.345.208-.526l-1.86-1.878a.94.94 0 01-.269-.646c0-.24.09-.465.268-.645l3.975-4.012a.92.92 0 011.28 0l1.876 1.893c.164-.075.342-.15.521-.21V1.17c0-.495.402-.916.908-.916h5.627c.492 0 .909.406.909.917V3.83c.178.06.342.135.52.21l1.861-1.878a.92.92 0 011.28 0l3.975 4.012a.94.94 0 01.268.646c0 .24-.089.465-.268.646l-1.86 1.877c.074.166.148.346.208.526h2.635c.491 0 .908.406.908.917v5.678a.916.916 0 01-.908.917h-2.635c-.06.18-.134.345-.208.526l1.86 1.878a.913.913 0 010 1.291l-3.974 4.012a.922.922 0 01-.64.27.886.886 0 01-.64-.27l-1.86-1.878a5.41 5.41 0 01-.522.21v2.66c0 .24-.089.465-.267.645a1.07 1.07 0 01-.656.24zm-4.719-1.818h3.826v-2.404a.9.9 0 01.64-.871c.507-.165.998-.36 1.444-.601a.9.9 0 011.057.165l1.683 1.698 2.694-2.72-1.682-1.697a.921.921 0 01-.164-1.067c.238-.45.432-.946.596-1.457a.913.913 0 01.863-.646h2.382v-3.861h-2.382a.894.894 0 01-.863-.646 8.506 8.506 0 00-.596-1.457.922.922 0 01.164-1.067l1.682-1.697-2.694-2.72L61.393 5.8a.9.9 0 01-1.057.165 8.856 8.856 0 00-1.444-.6.919.919 0 01-.64-.872V2.088h-3.826v2.404a.9.9 0 01-.64.871c-.52.166-.997.36-1.444.601a.897.897 0 01-1.057-.165L49.603 4.1l-2.71 2.72 1.683 1.697a.922.922 0 01.164 1.067c-.239.45-.432.946-.596 1.457a.913.913 0 01-.863.646h-2.382v3.861h2.382c.402 0 .744.255.863.646a8.5 8.5 0 00.596 1.457.921.921 0 01-.164 1.067l-1.682 1.697 2.694 2.72 1.682-1.698a.9.9 0 011.057-.165c.447.24.938.436 1.444.6.373.121.64.466.64.872v2.404h.015z"/><path d="M56.332 21.017a7.303 7.303 0 01-5.196-2.163 7.396 7.396 0 01-2.143-5.243c0-1.983.759-3.846 2.143-5.243a7.262 7.262 0 015.196-2.163c1.965 0 3.796.766 5.195 2.163a7.397 7.397 0 012.144 5.243c0 1.983-.76 3.846-2.144 5.243a7.303 7.303 0 01-5.195 2.163zm0-12.995a5.494 5.494 0 00-3.915 1.638 5.596 5.596 0 00-1.623 3.951c0 1.487.58 2.9 1.623 3.951a5.508 5.508 0 007.83 0 5.596 5.596 0 001.623-3.951c0-1.487-.58-2.9-1.623-3.951a5.494 5.494 0 00-3.915-1.638zm12.46 33.893h-3.35a.536.536 0 01-.535-.541v-1.593c-.105-.044-.209-.075-.313-.12l-1.116 1.127c-.209.21-.566.21-.76 0L60.351 38.4a.548.548 0 010-.766l1.117-1.127a2.704 2.704 0 01-.12-.315h-1.577a.536.536 0 01-.536-.54V32.27c0-.3.238-.54.536-.54h1.578c.044-.106.074-.211.119-.316l-1.117-1.127a.548.548 0 010-.781l2.367-2.389c.209-.21.566-.21.76 0l1.116 1.127c.104-.045.209-.09.313-.12V26.53c0-.3.238-.54.536-.54h3.35c.297 0 .535.24.535.54v1.593c.104.045.209.075.313.12l1.116-1.127c.209-.21.566-.21.76 0l2.367 2.389a.548.548 0 010 .78l-1.117 1.128c.045.105.09.21.12.315h1.577c.298 0 .536.24.536.54v3.381c0 .3-.238.541-.536.541h-1.578c-.045.105-.074.21-.119.316l1.117 1.126a.548.548 0 010 .766l-2.368 2.39a.538.538 0 01-.774 0l-1.116-1.128c-.104.045-.209.09-.313.12v1.593c0 .15-.06.285-.163.39a.481.481 0 01-.358.15zm-2.813-1.082h2.277v-1.427c0-.24.15-.45.372-.526.313-.09.596-.21.864-.36a.537.537 0 01.625.09l.998 1.006 1.607-1.622-.997-1.007a.526.526 0 01-.09-.63 6.53 6.53 0 00.358-.872.541.541 0 01.506-.376h1.414v-2.298H72.5a.515.515 0 01-.506-.376 4.21 4.21 0 00-.357-.871.55.55 0 01.089-.631l.997-1.007-1.607-1.622-.998 1.006a.515.515 0 01-.625.09 6.504 6.504 0 00-.864-.36.545.545 0 01-.372-.51v-1.428H65.98v1.427c0 .24-.15.45-.373.51a4.097 4.097 0 00-.863.361.537.537 0 01-.625-.09l-.998-1.006-1.607 1.622.997 1.007c.164.165.208.42.09.63a6.53 6.53 0 00-.358.872.542.542 0 01-.506.376h-1.414v2.298h1.414c.238 0 .446.15.506.376.09.315.208.6.357.871a.55.55 0 01-.09.631l-.996 1.007 1.607 1.622.998-1.006a.515.515 0 01.625-.09c.268.135.55.255.863.36a.55.55 0 01.373.526v1.427z"/><path d="M67.11 38.37a4.366 4.366 0 01-3.097-1.293 4.382 4.382 0 01-1.28-3.124c0-1.187.462-2.284 1.28-3.125a4.277 4.277 0 013.097-1.292c1.176 0 2.263.465 3.096 1.292.834.826 1.28 1.938 1.28 3.125a4.444 4.444 0 01-1.28 3.124 4.34 4.34 0 01-3.096 1.292zm0-7.753c-.878 0-1.712.346-2.337.977a3.335 3.335 0 00-.968 2.358c0 .887.342 1.728.968 2.36 1.28 1.291 3.38 1.291 4.674 0a3.334 3.334 0 00.968-2.36c0-.886-.343-1.727-.968-2.358a3.337 3.337 0 00-2.337-.977zM40.105 55H.908A.903.903 0 010 54.099V.916C0 .406.402 0 .908 0h39.197c.492 0 .908.406.908.916v4.027a.916.916 0 01-.908.916.916.916 0 01-.908-.916V1.818H1.801v51.364h37.396V27.988c0-.495.402-.916.908-.916.492 0 .908.405.908.916v26.11a.923.923 0 01-.908.902z"/><path d="M27.824 11.793H9.914a.916.916 0 010-1.833H27.81c.49 0 .908.406.908.917 0 .51-.402.916-.893.916zm-.864 9.134H6a.916.916 0 010-1.833h20.96c.491 0 .908.406.908.917 0 .51-.402.916-.908.916zm-1.027 6.175H5.999a.916.916 0 010-1.833h19.934c.491 0 .908.406.908.917-.015.51-.417.916-.908.916zm-1.043 6.174H6a.916.916 0 01-.909-.916c0-.51.402-.916.908-.916h18.892c.491 0 .908.405.908.916 0 .51-.402.916-.908.916zm-1.026 6.175H5.999a.916.916 0 010-1.833h17.85c.491 0 .908.406.908.917 0 .495-.402.916-.893.916zm9.334 9.164h-12.52a.916.916 0 01-.908-.916c0-.511.402-.917.908-.917h12.52c.491 0 .908.406.908.917 0 .51-.402.916-.908.916zm.268-5.468c-.045 0-.105 0-.15-.015l-5.12-.872a.907.907 0 01-.73-1.051L32.87 9.014c.15-.856.953-1.442 1.802-1.292l3.81.646c.85.15 1.43.961 1.28 1.818L34.36 42.38a.91.91 0 01-.893.766zm-4.08-2.54l3.35.572 5.21-31.068-3.349-.571-5.21 31.068z"/><path d="M29.908 48.615c-.045 0-.105 0-.15-.015a.916.916 0 01-.729-.676l-1.563-6.355a.91.91 0 011.027-1.127l5.122.872c.297.045.55.255.67.526a.92.92 0 01-.075.856l-3.558 5.483a.815.815 0 01-.744.436zm-.358-6.13l.73 2.99 1.667-2.569-2.396-.42zm8.545-32.345c-.044 0-.104 0-.148-.014l-3.603-.616a.925.925 0 01-.744-1.052l.268-1.577a2.735 2.735 0 013.156-2.254c.714.12 1.354.526 1.771 1.127.417.6.596 1.337.462 2.058l-.268 1.577a.917.917 0 01-.372.586.897.897 0 01-.522.166zm-2.56-2.283l1.831.316.12-.691a.884.884 0 00-.165-.692.863.863 0 00-.595-.375.912.912 0 00-.7.165.873.873 0 00-.372.601l-.12.676zm3.647 18.133c-.044 0-.104 0-.149-.015a.926.926 0 01-.744-1.052l1.593-9.45a.737.737 0 00-.61-.855l-6.268-1.067a.925.925 0 01-.744-1.052.919.919 0 011.042-.75l6.267 1.066a2.565 2.565 0 012.084 2.96l-1.592 9.449a.885.885 0 01-.879.766z"/><path d="M37.783 17.397c-.045 0-.104 0-.149-.015l-5.121-.872a.925.925 0 01-.744-1.051.919.919 0 011.042-.751l5.12.871c.492.09.82.556.745 1.052a.91.91 0 01-.893.766z"/></g><defs><clipPath id="clip0"><path fill="#fff" d="M0 0h75v55H0z"/></clipPath></defs></svg>