<svg width="73" height="77" fill="none" xmlns="http://www.w3.org/2000/svg"><circle cx="19.5" cy="19.5" r="19.5" fill="#8CC63F"/><path d="M67.84 61.52H16.95L9.2 56.35l7.74-5.16h50.89c2.85 0 5.16 2.32 5.16 5.16a5.16 5.16 0 01-5.15 5.17zm-50.27-2.07h50.27c1.71 0 3.1-1.39 3.1-3.1 0-1.71-1.39-3.1-3.1-3.1H17.57l-4.65 3.1 4.65 3.1z" fill="#231F20"/><path d="M66.8 52.23h-2.06v8.26h2.06v-8.26zm-4.13 0h-2.06v8.26h2.06v-8.26zm-43.35 0h-2.06v8.26h2.06v-8.26z" fill="#231F20"/><path d="M61.64 55.32H18.29v2.06h43.35v-2.06zM73 77H9V63.58h64V77zm-61.94-2.06h59.87v-9.29H11.06v9.29z" fill="#231F20"/><path d="M66.8 69.77h-2.06v6.19h2.06v-6.19zm-6.19 2.07h-2.06v4.13h2.06v-4.13zm-6.2-2.07h-2.06v6.19h2.06v-6.19zm-6.19 2.07h-2.06v4.13h2.06v-4.13zm-6.19-2.07h-2.06v6.19h2.06v-6.19zm-6.2 2.07h-2.06v4.13h2.06v-4.13zm-6.19-2.07h-2.06v6.19h2.06v-6.19zm-6.19 2.07h-2.06v4.13h2.06v-4.13zm-6.2-2.07h-2.06v6.19h2.06v-6.19zm29.94-17.54h-2.06v-5.17h-8.26v5.17h-2.06V45h12.38v7.23z" fill="#231F20"/><path d="M47.06 47.06H34.94l-1.2-8.4 3.48-8.12h7.55l3.48 8.12-1.19 8.4zM36.73 45h8.53l.86-6.05-2.71-6.33h-4.83l-2.71 6.33.86 6.05z" fill="#231F20"/><path d="M42.03 31.58h-2.06v6.19h2.06v-6.19z" fill="#231F20"/><path d="M41 42.94c-1.71 0-3.1-1.39-3.1-3.1 0-1.71 1.39-3.1 3.1-3.1 1.71 0 3.1 1.39 3.1 3.1 0 1.71-1.39 3.1-3.1 3.1zm0-4.13c-.57 0-1.03.46-1.03 1.03 0 .57.46 1.03 1.03 1.03.57 0 1.03-.46 1.03-1.03 0-.57-.46-1.03-1.03-1.03z" fill="#231F20"/><path d="M55.45 39.84h-2.06c0-6.83-5.56-12.39-12.39-12.39-6.83 0-12.39 5.56-12.39 12.39h-2.06c0-7.97 6.48-14.45 14.45-14.45 7.97 0 14.45 6.48 14.45 14.45z" fill="#231F20"/><path d="M54.42 45c-1.71 0-3.1-1.39-3.1-3.1 0-1.71 1.39-3.1 3.1-3.1 1.71 0 3.1 1.39 3.1 3.1 0 1.71-1.39 3.1-3.1 3.1zm0-4.13c-.57 0-1.03.46-1.03 1.03 0 .57.46 1.03 1.03 1.03.57 0 1.03-.46 1.03-1.03 0-.57-.46-1.03-1.03-1.03zM27.58 45c-1.71 0-3.1-1.39-3.1-3.1 0-1.71 1.39-3.1 3.1-3.1 1.71 0 3.1 1.39 3.1 3.1 0 1.71-1.39 3.1-3.1 3.1zm0-4.13c-.57 0-1.03.46-1.03 1.03 0 .57.46 1.03 1.03 1.03.57 0 1.03-.46 1.03-1.03 0-.57-.46-1.03-1.03-1.03z" fill="#231F20"/><path d="M64.74 52.23h-2.06V24.78l-9.72-9.72H19.32v37.17h-2.06V13h36.55l10.93 10.93v28.3z" fill="#231F20"/><path d="M63.71 25.39H52.35V14.03h2.07v9.29h9.29v2.07z" fill="#231F20"/></svg>