<svg width="126" height="93" fill="none" xmlns="http://www.w3.org/2000/svg"><g clip-path="url(#clip0)"><path d="M110.853 46.66C110.453 20.82 89.578 0 63.875 0c-25.71 0-46.58 20.82-46.986 46.66h93.964z" fill="#8CC63F"/><path d="M1.885 55.956c0 .403.142.8.36 1.06-.272.13-.523.185-.78.185C.541 57.2 0 56.38 0 55.464 0 54.314.868 53 3.004 53c1.505 0 3.037.8 3.817.363.183.11.25.294.25.472 0 .348-.216.71-.63.71h-.163l-2.46 11.67c-.184.855-.889 1.17-1.56 1.17-.414 0-.76-.09-.963-.24L4.21 54.164h-.08c-1.648.007-2.244.937-2.244 1.792zm7.546-.582l.834.767.434-2.08c.488-.184 1.268.199 1.064 1.115l-.217.965 1.736-1.15c.488.24.78 1.06-.034 1.574l-1.193.766 1.39 1.203c-.088.527-.793 1.04-1.485.438l-.848-.766-.413 2.066c-.488.184-1.268-.199-1.071-1.115l.196-.95-1.722 1.148c-.488-.24-.78-1.06.034-1.573l1.193-.766-1.396-1.204c.101-.533.806-1.04 1.498-.438zm8.197.582c0 .403.142.8.36 1.06-.272.13-.523.185-.78.185-.922 0-1.465-.821-1.465-1.737 0-1.15.868-2.463 3.004-2.463 1.505 0 3.037.8 3.817.363.183.11.25.294.25.472 0 .348-.216.711-.63.711h-.129l-1.539 7.339c-.596 2.886-.291 3.611.814 3.611 2.102 0 3.892-5.567 3.892-9.527 0-1.026-.13-1.97-.63-2.702.304-.383.725-.636 1.3-.711.903-.11 1.269.526 1.303.95.02.24.034.472.034.712-.02 4.22-3.153 13.166-6.93 13.166-1.884 0-2.82-1.771-1.939-5.95l1.519-7.264h-.02c-1.634 0-2.23.93-2.23 1.785zm9.54 7.031c-.109-.11-.163-.294-.163-.472 0-.492.38-1.115 1.193-1.115h4.109c.088.144.142.35.142.547 0 .514-.36 1.04-1.173 1.04h-4.108zm.617-2.92c-.109-.11-.163-.294-.163-.472 0-.493.38-1.115 1.193-1.115h4.109c.088.143.142.349.142.547 0 .513-.36 1.04-1.18 1.04h-4.101zm8.163-1.916c-1.682.459-2.278-.513-2.278-1.463 0-2.846 3.349-3.509 5.234-3.509.956 0 2.495.219 3.512.219.8 0 1.627-.164 2.136-.527.522 1.532-.184 2.722-1.465 2.722-.834 0-1.736-.472-2.807-.8l-1.017 4.747c.597-.198 1.105-.294 1.56-.294 2.373 0 2.97 1.641 2.97 2.756 0 2.285-2.428 5.39-5.92 5.39-1.993 0-3.654-.547-3.654-1.388 0-.404.217-.787.725-.951.271.24.543.417.834.581l2.373-11.155c-1.213.089-2.44 1.026-2.44 2.722-.014.308.04.615.237.95zm3.091 2.429l-1.193 5.642h.02c1.899 0 3.6-2.079 3.6-4.124 0-.95-.508-1.621-1.572-1.621a3.137 3.137 0 00-.855.103zm8.041-4.624c0 .403.143.8.36 1.06-.271.13-.522.185-.78.185-.922 0-1.464-.821-1.464-1.737 0-1.15.867-2.463 3.003-2.463 1.505 0 3.038.8 3.817.363.183.11.251.294.251.472 0 .348-.217.71-.63.71h-.163l-1.017 4.837c.563 0 1.173-.035 1.736-.076.78-3.29 2.84-5.991 5.776-5.991 2.644 0 3.75 2.339 3.62 5.601-.142 4.29-2.46 8.53-6.115 8.53-2.766 0-3.912-2.34-3.6-5.609.02-.492.054-.985.129-1.477-.597.13-1.248.219-1.81.253l-1.18 5.588c-.183.855-.888 1.17-1.56 1.17-.413 0-.759-.09-.956-.24l2.916-12.982h-.088c-1.648.02-2.245.951-2.245 1.806zm9.228 9.186c1.573 0 3.641-2.285 3.641-6.977 0-2.298-.847-3.413-1.865-3.413-1.573 0-3.566 2.647-3.566 7.756 0 1.738.793 2.634 1.79 2.634zm10.068-9.371c.183-.841.868-1.128 1.506-1.128.325 0 .63.089.854.24l-1.268 6.025c1.885-.089 3.363-1.86 3.363-4.398 0-1.334-.726-2.449-2.55-2.449-3.044 0-4.074 1.608-4.074 2.976 0 .472.142.8.36 1.06a1.76 1.76 0 01-.78.184c-.923 0-1.465-.82-1.465-1.737 0-2.154 2.787-3.358 6.319-3.358 3.186 0 4.414 1.464 4.414 3.18 0 3.283-2.516 5.404-5.506 5.404h-.27l-.923 4.452c-.183.855-.888 1.17-1.56 1.17-.413 0-.759-.089-.955-.24l2.535-11.38zm8.272 6.286c0-4.001 2.244-8.878 6.136-8.878 2.495 0 3.566 2.175 3.566 4.713 0 4.309-2.298 9.493-6.102 9.493-2.46 0-3.6-2.462-3.6-5.328zm2.55-.404c0 1.881.562 3.414 1.884 3.414 1.573 0 3.641-2.34 3.641-7.155 0-2.175-.814-3.303-1.83-3.303-2.19 0-3.696 4.014-3.696 7.044zm16.814-.492c-.943 0-1.43-.93-.997-1.498.868.438 1.736 0 2.841 0 .217 0 .414.034.576.11.055-.602.088-1.19.088-1.793 0-2.174-.562-3.631-1.83-3.631-.692 0-1.376.472-1.376 1.203 0 .493.074.8.291 1.184a1.65 1.65 0 01-.902.294c-.65 0-1.085-.623-1.085-1.3 0-1.99 2.102-2.558 3.492-2.558 2.699 0 3.804 1.936 3.804 4.843 0 4.726-2.156 9.363-6.028 9.363-1.79 0-3.315-.82-3.315-2.558 0-.786.413-1.62 1.505-1.62.237 0 .617.143.76.403-.184.273-.238.602-.238.896 0 1.149.685 1.696 1.499 1.696 1.722 0 2.806-2.462 3.22-5.424h-.129c-.746.007-1.43.39-2.176.39z" fill="#fff"/><path d="M111.952 55.279c-.726-.075-1.505-.185-2.333-.294l-2.373 11.23c-.183.855-.888 1.17-1.559 1.17-.414 0-.759-.089-.956-.24l2.787-12.413c-.78-.09-1.573-.185-2.353-.24l-2.482 11.724c-.183.855-.888 1.17-1.559 1.17-.414 0-.759-.09-.956-.24l2.841-12.654c-1.105.22-2.136 1.129-2.136 2.681 0 .315.054.623.251.951-1.681.458-2.278-.513-2.278-1.464 0-2.845 3.349-3.508 5.234-3.508 1.939 0 6.407.218 8.401.218.793 0 1.627-.164 2.135-.526 1.051.403.834 2.134-.454 2.483l-1.919 8.967c-.217 1.06.109 1.354.597 1.354.583 0 1.431-.547 1.844-.917.197.09.305.253.305.438a.64.64 0 01-.163.404c-1.05.985-2.101 1.805-3.145 1.805-1.085 0-2.17-.513-1.723-2.647l1.994-9.452z" fill="#fff"/><path d="M119.315 55.771c.183-.841.868-1.128 1.498-1.128.326 0 .631.089.855.24l-1.268 6.025c1.885-.089 3.369-1.86 3.369-4.398 0-1.334-.725-2.449-2.549-2.449-3.044 0-4.075 1.608-4.075 2.976 0 .472.143.8.36 1.06-.272.13-.522.184-.78.184-.922 0-1.465-.82-1.465-1.737 0-2.154 2.787-3.358 6.319-3.358 3.187 0 4.414 1.464 4.414 3.18 0 3.283-2.515 5.404-5.505 5.404h-.271l-.922 4.452c-.184.855-.889 1.17-1.56 1.17-.42 0-.759-.089-.963-.24l2.543-11.38zM40.463 45.088v1.573h19.059l3.56-15.841-8.123 2.23 3.308-14.172H45.78V45.19l-5.316-.102z" fill="#fff"/><path d="M60.776 46.408l10.285-22.161-7.478 1.518 2.509-6.935h14.245v26.258h5.268v1.47l-24.829-.15z" fill="#fff"/><path d="M74.2 23.22l-.074-.033a1.381 1.381 0 01-.739-1.792l6-14.658a1.36 1.36 0 011.777-.745l.074.034a1.381 1.381 0 01.74 1.792l-6.001 14.657a1.36 1.36 0 01-1.776.746z" fill="#fff"/><path d="M82.743 10.396l-5.715-2.38a.446.446 0 01-.237-.581.44.44 0 01.576-.24l5.715 2.38a.446.446 0 01.238.582.446.446 0 01-.577.24zm-1.01 2.47l-5.715-2.38a.446.446 0 01-.238-.582.44.44 0 01.577-.24l5.715 2.38a.447.447 0 01.237.582.438.438 0 01-.576.24zm-1.01 2.469l-5.716-2.38a.446.446 0 01-.237-.582.44.44 0 01.576-.24l5.716 2.38a.447.447 0 01.237.582.438.438 0 01-.576.24zm-1.01 2.469l-5.716-2.38a.446.446 0 01-.237-.582.44.44 0 01.576-.24l5.716 2.381a.447.447 0 01.237.581.44.44 0 01-.576.24zm-27.649 4.364l-.075.034a1.358 1.358 0 01-1.776-.739L44.179 6.82a1.378 1.378 0 01.732-1.792l.074-.034a1.358 1.358 0 011.777.739l6.034 14.644a1.372 1.372 0 01-.732 1.792z" fill="#fff"/><path d="M49.121 7.004l-5.709 2.394a.44.44 0 01-.576-.24.446.446 0 01.238-.581l5.708-2.394a.44.44 0 01.577.24.449.449 0 01-.238.58zm1.017 2.462L44.43 11.86a.44.44 0 01-.576-.24.446.446 0 01.237-.58l5.71-2.395a.44.44 0 01.576.24.444.444 0 01-.238.581zm1.017 2.469l-5.709 2.394a.44.44 0 01-.576-.24.447.447 0 01.238-.58l5.708-2.394a.444.444 0 01.339.82zm1.017 2.47l-5.708 2.393a.44.44 0 01-.577-.239.446.446 0 01.237-.581l5.71-2.394a.44.44 0 01.575.24.446.446 0 01-.237.58zm-24.089 60.6h71.583c-17.112 22.851-51.772 25.115-71.583 0z" fill="#fff"/></g><defs><clipPath id="clip0"><path fill="#fff" d="M0 0h126v93H0z"/></clipPath></defs></svg>