<svg width="47" height="48" viewBox="0 0 47 48" fill="none" xmlns="http://www.w3.org/2000/svg">
<path d="M45.9569 23.6073H24.0726V1.68674C24.0726 1.2834 23.7458 0.956055 23.3432 0.956055C10.4512 0.956055 0 11.4246 0 24.338C0 37.2514 10.4512 47.7199 23.3432 47.7199C36.2352 47.7199 46.6863 37.2514 46.6863 24.338C46.6863 23.9346 46.3595 23.6073 45.9569 23.6073ZM1.45895 24.338C1.45895 12.4782 10.8677 2.84341 22.6137 2.45469V23.9924L7.35674 39.2746C3.70865 35.3582 1.45895 30.117 1.45895 24.338ZM23.3432 46.2585C17.5621 46.2585 12.3194 43.9963 8.40719 40.3283L23.6415 25.0687H45.1902C44.8021 36.8342 35.1833 46.2585 23.3432 46.2585ZM28.4495 1.37255V1.41273C28.0468 1.41273 27.72 1.74008 27.72 2.14342V19.9539C27.72 20.3572 28.0468 20.6846 28.4495 20.6846H46.2304C46.6331 20.6846 46.9599 20.3572 46.9599 19.9539H47C45.2201 10.558 37.8298 3.15542 28.4495 1.37255ZM29.179 19.2232V3.03412C37.1594 4.94706 43.4321 11.2309 45.3419 19.2232H29.179Z" fill="white"/>
</svg>
