<svg width="36" height="37" viewBox="0 0 36 37" fill="none" xmlns="http://www.w3.org/2000/svg">
<path d="M20 18.2078C20 17.1137 19.2 16.2002 18.125 15.9371V9.96796C18.125 9.64248 17.845 9.37939 17.5 9.37939C17.155 9.37939 16.875 9.64248 16.875 9.96796V15.9371C16.0006 16.1514 15.3163 16.7959 15.0887 17.6192H10.625C10.28 17.6192 10 17.8823 10 18.2078C10 18.5333 10.28 18.7964 10.625 18.7964H15.0887C15.3681 19.8093 16.3387 20.5621 17.5 20.5621C18.8787 20.5621 20 19.5062 20 18.2078ZM17.5 19.3849C16.8106 19.3849 16.25 18.857 16.25 18.2078C16.25 17.5586 16.8106 17.0307 17.5 17.0307C18.1894 17.0307 18.75 17.5586 18.75 18.2078C18.75 18.857 18.1894 19.3849 17.5 19.3849Z" fill="white"/>
<path d="M17.5 6.3296C17.776 6.3296 18 6.02665 18 5.65186V4.97412C18 4.59934 17.776 4.29639 17.5 4.29639C17.224 4.29639 17 4.59934 17 4.97412V5.65186C17 6.02665 17.224 6.3296 17.5 6.3296Z" fill="white"/>
<path d="M17.3003 33.0662V33.727C17.3003 34.0924 17.5915 34.3878 17.9503 34.3878C18.3091 34.3878 18.6003 34.0924 18.6003 33.727V33.0662C18.6003 32.7008 18.3091 32.4054 17.9503 32.4054C17.5915 32.4054 17.3003 32.7008 17.3003 33.0662Z" fill="white"/>
<path d="M33.3 18.8338C33.6588 18.8338 33.95 18.5384 33.95 18.173C33.95 17.8076 33.6588 17.5122 33.3 17.5122H32.65C32.2912 17.5122 32 17.8076 32 18.173C32 18.5384 32.2912 18.8338 32.65 18.8338H33.3Z" fill="white"/>
<path d="M3.65 18.5288C3.2912 18.5288 3 18.8242 3 19.1896C3 19.555 3.2912 19.8504 3.65 19.8504H4.3C4.6588 19.8504 4.95 19.555 4.95 19.1896C4.95 18.8242 4.6588 18.5288 4.3 18.5288H3.65Z" fill="white"/>
<path d="M26.7389 9.37842C26.928 9.37842 27.1171 9.34165 27.2611 9.2685L27.7834 9.00327C28.0722 8.85658 28.0722 8.61949 27.7834 8.47281C27.4946 8.32612 27.0277 8.32612 26.7389 8.47281L26.2166 8.73804C25.9278 8.88472 25.9278 9.12181 26.2166 9.2685C26.3607 9.34203 26.5498 9.37842 26.7389 9.37842Z" fill="white"/>
<path d="M7.83864 28.5342L7.37909 29.0014C7.12494 29.2598 7.12494 29.6774 7.37909 29.9358C7.50584 30.0646 7.67224 30.1294 7.83864 30.1294C8.00504 30.1294 8.17144 30.0646 8.29819 29.9358L8.75774 29.4686C9.01189 29.2102 9.01189 28.7926 8.75774 28.5342C8.50359 28.2759 8.09214 28.2759 7.83864 28.5342Z" fill="white"/>
<path d="M8.89169 8.73804L8.63056 8.47281C8.48615 8.32612 8.25272 8.32612 8.10831 8.47281C7.9639 8.61949 7.9639 8.85658 8.10831 9.00327L8.36944 9.2685C8.44146 9.34165 8.53601 9.37842 8.63056 9.37842C8.72512 9.37842 8.81967 9.34165 8.89169 9.2685C9.0361 9.12219 9.0361 8.88472 8.89169 8.73804Z" fill="white"/>
<path d="M18 0.22998C8.0748 0.22998 0 8.43886 0 18.5289C0 28.6189 8.0748 36.8278 18 36.8278C20.1456 36.8278 22.2474 36.4465 24.2484 35.6938C24.5592 35.5773 24.7176 35.226 24.603 34.9107C24.4878 34.5935 24.1434 34.4324 23.832 34.5502C21.9648 35.2516 20.0028 35.6078 18 35.6078C8.7366 35.6078 1.2 27.9461 1.2 18.5289C1.2 9.11165 8.7366 1.44991 18 1.44991C27.2634 1.44991 34.8 9.11165 34.8 18.5289C34.8 20.5662 34.4496 22.5601 33.759 24.4571C33.6444 24.7737 33.8028 25.1244 34.1136 25.2409C34.4244 25.3599 34.7694 25.197 34.8846 24.881C35.625 22.848 36 20.7113 36 18.5289C36 8.43886 27.9252 0.22998 18 0.22998Z" fill="white"/>
<path d="M29.6 25.0003V24.2727C29.6 23.9073 29.3312 23.6119 29 23.6119C28.6688 23.6119 28.4 23.9073 28.4 24.2727V25.0029C27.7454 25.1496 27.149 25.5322 26.7092 26.1051C26.3426 26.5822 26.1728 27.1928 26.2328 27.8252C26.294 28.4721 26.5964 29.0721 27.0626 29.4712L28.4 30.6163V34.2097C27.7034 33.9362 27.2 33.2093 27.2 32.3489C27.2 31.9835 26.9312 31.6882 26.6 31.6882C26.2688 31.6882 26 31.9835 26 32.3489C26 33.9441 27.0326 35.2789 28.4 35.5862V36.167C28.4 36.5324 28.6688 36.8278 29 36.8278C29.3312 36.8278 29.6 36.5324 29.6 36.167V35.5842C30.2546 35.4375 30.851 35.0549 31.2914 34.482C31.658 34.0036 31.8272 33.393 31.7672 32.7606C31.7054 32.1144 31.4036 31.515 30.9374 31.1166L29.6 29.9701V26.3767C30.2966 26.6503 30.8 27.3771 30.8 28.2375C30.8 28.6029 31.0688 28.8983 31.4 28.8983C31.7312 28.8983 32 28.6029 32 28.2375C32 26.6423 30.9674 25.3075 29.6 25.0003ZM30.2006 32.1593C30.41 32.3384 30.5462 32.6086 30.5738 32.8981C30.5996 33.169 30.5288 33.4287 30.3752 33.6282C30.1664 33.8998 29.8964 34.0901 29.6 34.2064V31.6439L30.2006 32.1593ZM27.7994 28.4278C27.5894 28.2481 27.4538 27.9778 27.4262 27.6877C27.401 27.4174 27.4712 27.1584 27.6248 26.9582C27.8336 26.6866 28.1036 26.4963 28.4 26.38V28.9419L27.7994 28.4278Z" fill="white"/>
</svg>
