<svg width="43" height="47" viewBox="0 0 43 47" fill="none" xmlns="http://www.w3.org/2000/svg">
<path d="M30.4257 9.92297C29.0659 9.78384 27.6927 9.95431 26.4058 10.422C25.1189 10.8897 23.9506 11.6428 22.9857 12.6268L22.7908 12.8191L22.6017 12.6268C21.311 11.3117 19.6653 10.4157 17.8732 10.0523C16.0811 9.68885 14.2232 9.87441 12.535 10.5854C10.8467 11.2964 9.40401 12.5009 8.38972 14.0462C7.37544 15.5915 6.83518 17.4081 6.83741 19.2659V19.6702C6.84168 21.1075 7.16857 22.5249 7.79318 23.8143C8.41779 25.1037 9.32365 26.2312 10.4417 27.1109L22.0957 36.2268C22.295 36.3827 22.5394 36.4673 22.7908 36.4673C23.0423 36.4673 23.2867 36.3827 23.486 36.2268L35.1399 27.1133C36.2583 26.2333 37.1644 25.1054 37.789 23.8156C38.4136 22.5257 38.7403 21.1079 38.7443 19.6702V19.2636C38.7443 16.9348 37.893 14.6892 36.3558 12.9626C34.8186 11.2361 32.7051 10.1519 30.4257 9.92065V9.92297ZM36.4652 19.6702C36.4619 20.7527 36.2157 21.8203 35.7453 22.7915C35.2749 23.7627 34.5928 24.612 33.7508 25.2748L22.7908 33.8473L11.8308 25.2748C10.9889 24.612 10.3067 23.7627 9.83637 22.7915C9.366 21.8203 9.11978 20.7527 9.11647 19.6702V19.2636C9.11546 17.509 9.75654 15.8168 10.915 14.5163C12.0734 13.2157 13.6664 12.3997 15.3839 12.2271C15.6145 12.2031 15.8461 12.1911 16.0779 12.1912C16.9902 12.1908 17.8936 12.3735 18.7362 12.729C19.5789 13.0844 20.3441 13.6056 20.9881 14.2625L21.9829 15.2739C22.1966 15.491 22.4864 15.613 22.7886 15.613C23.0907 15.613 23.3805 15.491 23.5942 15.2739L24.589 14.2625C25.561 13.2704 26.801 12.5942 28.1517 12.3198C29.5024 12.0453 30.9028 12.185 32.1753 12.7211C33.4477 13.2572 34.5348 14.1655 35.2986 15.3307C36.0624 16.496 36.4684 17.8656 36.4652 19.2659V19.6702Z" fill="white"/>
<path d="M21.5016 0.130376C16.8777 0.127364 12.3762 1.63317 8.66568 4.42412C4.95521 7.21507 2.23375 11.1423 0.905556 15.6223C-0.422639 20.1024 -0.286707 24.8964 1.29316 29.2921C2.87302 33.6878 5.81254 37.4507 9.67505 40.022V45.8065C9.67502 46.0034 9.72783 46.1966 9.82786 46.3655C9.92788 46.5344 10.0714 46.6727 10.243 46.7656C10.4146 46.8585 10.6079 46.9025 10.8024 46.8929C10.9968 46.8834 11.185 46.8206 11.3469 46.7113L16.7441 43.0714C19.6938 43.7494 22.7518 43.79 25.7181 43.1905C28.6844 42.591 31.4922 41.3648 33.9579 39.5923C36.4235 37.8198 38.4915 35.5407 40.0267 32.9042C41.5618 30.2677 42.5294 27.3332 42.8663 24.2924C43.2032 21.2517 42.9017 18.1732 41.9817 15.2584C41.0616 12.3436 39.5436 9.65807 37.527 7.37742C35.5104 5.09678 33.0406 3.2724 30.2791 2.02358C27.5176 0.774755 24.5265 0.129625 21.5016 0.130376ZM21.5016 41.4564C19.915 41.4488 18.3354 41.2446 16.7979 40.8485C16.652 40.8118 16.5003 40.8061 16.3522 40.832C16.2041 40.8578 16.063 40.9145 15.9377 40.9986L11.8253 43.7739V39.4238C11.8255 39.2388 11.7789 39.0568 11.6901 38.895C11.6013 38.7333 11.4732 38.5971 11.3179 38.4994C7.36178 36.0058 4.4302 32.1497 3.06352 27.6419C1.69685 23.1341 1.98722 18.2786 3.8811 13.9703C5.77498 9.66198 9.1447 6.19143 13.3691 4.19837C17.5935 2.20532 22.3877 1.82412 26.8681 3.12506C31.3485 4.42599 35.2129 7.32135 37.749 11.2774C40.2851 15.2335 41.3219 19.9835 40.6683 24.6519C40.0147 29.3204 37.7148 33.5924 34.1925 36.6806C30.6701 39.7689 26.1629 41.465 21.5016 41.4564Z" fill="white"/>
<path d="M32.2214 15.1047C31.7582 14.8651 31.2502 14.728 30.731 14.7027C30.2119 14.6773 29.6933 14.7642 29.2096 14.9576C29.0675 15.0112 28.9374 15.0932 28.8268 15.1986C28.7162 15.304 28.6275 15.4308 28.5657 15.5715C28.5039 15.7123 28.4704 15.8641 28.4671 16.0182C28.4638 16.1723 28.4907 16.3255 28.5463 16.4688C28.602 16.6122 28.6852 16.7428 28.7911 16.853C28.8971 16.9633 29.0235 17.0509 29.1632 17.1108C29.3029 17.1708 29.4529 17.2018 29.6045 17.202C29.7561 17.2023 29.9062 17.1718 30.046 17.1123C30.2293 17.0388 30.4258 17.0058 30.6225 17.0155C30.8193 17.0251 31.0118 17.0772 31.1872 17.1682C31.3627 17.2592 31.5171 17.3872 31.6402 17.5435C31.7632 17.6999 31.8522 17.881 31.9012 18.075C31.9608 18.3134 31.9584 18.5635 31.8943 18.8007C31.8302 19.0379 31.7065 19.2541 31.5354 19.4281C31.4263 19.5346 31.3392 19.6622 31.2791 19.8033C31.219 19.9445 31.1872 20.0964 31.1854 20.2502C31.1837 20.404 31.2121 20.5566 31.269 20.6991C31.3259 20.8416 31.4102 20.9712 31.5169 21.0802C31.6235 21.1893 31.7505 21.2757 31.8904 21.3343C32.0302 21.393 32.1802 21.4227 32.3315 21.4218C32.4827 21.421 32.6323 21.3895 32.7715 21.3292C32.9107 21.2689 33.0367 21.181 33.1421 21.0707C33.5533 20.6553 33.8617 20.1467 34.0421 19.5866C34.2225 19.0266 34.2697 18.431 34.1799 17.8488C34.09 17.2666 33.8657 16.7143 33.5252 16.2373C33.1848 15.7603 32.738 15.3722 32.2214 15.1047Z" fill="white"/>
</svg>
