<svg width="40" height="48" viewBox="0 0 40 48" fill="none" xmlns="http://www.w3.org/2000/svg">
<g clip-path="url(#clip0_1_467)">
<path d="M8.02762 23.8891C7.63716 23.8891 7.26269 24.0442 6.9866 24.3203C6.7105 24.5963 6.55539 24.9708 6.55539 25.3613C6.55539 25.7517 6.7105 26.1262 6.9866 26.4023C7.26269 26.6784 7.63716 26.8335 8.02762 26.8335C8.41807 26.8335 8.79254 26.6784 9.06863 26.4023C9.34473 26.1262 9.49984 25.7517 9.49984 25.3613C9.49984 24.9708 9.34473 24.5963 9.06863 24.3203C8.79254 24.0442 8.41807 23.8891 8.02762 23.8891ZM6.55539 31.2502C6.55539 30.8597 6.7105 30.4852 6.9866 30.2091C7.26269 29.933 7.63716 29.7779 8.02762 29.7779C8.41807 29.7779 8.79254 29.933 9.06863 30.2091C9.34473 30.4852 9.49984 30.8597 9.49984 31.2502C9.49984 31.6406 9.34473 32.0151 9.06863 32.2912C8.79254 32.5673 8.41807 32.7224 8.02762 32.7224C7.63716 32.7224 7.26269 32.5673 6.9866 32.2912C6.7105 32.0151 6.55539 31.6406 6.55539 31.2502ZM12.4443 25.3613C12.4443 24.9708 12.5994 24.5963 12.8755 24.3203C13.1516 24.0442 13.526 23.8891 13.9165 23.8891H25.6943C26.0847 23.8891 26.4592 24.0442 26.7353 24.3203C27.0114 24.5963 27.1665 24.9708 27.1665 25.3613C27.1665 25.7517 27.0114 26.1262 26.7353 26.4023C26.4592 26.6784 26.0847 26.8335 25.6943 26.8335H13.9165C13.526 26.8335 13.1516 26.6784 12.8755 26.4023C12.5994 26.1262 12.4443 25.7517 12.4443 25.3613ZM13.9165 29.7779C13.526 29.7779 13.1516 29.933 12.8755 30.2091C12.5994 30.4852 12.4443 30.8597 12.4443 31.2502C12.4443 31.6406 12.5994 32.0151 12.8755 32.2912C13.1516 32.5673 13.526 32.7224 13.9165 32.7224H25.6943C26.0847 32.7224 26.4592 32.5673 26.7353 32.2912C27.0114 32.0151 27.1665 31.6406 27.1665 31.2502C27.1665 30.8597 27.0114 30.4852 26.7353 30.2091C26.4592 29.933 26.0847 29.7779 25.6943 29.7779H13.9165ZM6.55539 0.333496C4.99356 0.333496 3.4957 0.953931 2.39132 2.05831C1.28694 3.16269 0.666504 4.66055 0.666504 6.22238V35.6668C0.666504 37.2287 1.28694 38.7265 2.39132 39.8309C3.4957 40.9353 4.99356 41.5557 6.55539 41.5557H27.1665C28.7283 41.5557 30.2262 40.9353 31.3306 39.8309C32.435 38.7265 33.0554 37.2287 33.0554 35.6668V16.2747C33.0544 15.1037 32.5884 13.9811 31.7598 13.1536L20.2353 1.62611C19.4073 0.798664 18.2847 0.333746 17.1142 0.333496H6.55539ZM3.61095 6.22238C3.61095 5.44147 3.92117 4.69254 4.47336 4.14035C5.02555 3.58816 5.77448 3.27794 6.55539 3.27794H15.3887V13.5835C15.3887 14.7549 15.8541 15.8783 16.6823 16.7066C17.5106 17.5348 18.634 18.0002 19.8054 18.0002H30.111V35.6668C30.111 36.4477 29.8007 37.1967 29.2485 37.7489C28.6964 38.3011 27.9474 38.6113 27.1665 38.6113H6.55539C5.77448 38.6113 5.02555 38.3011 4.47336 37.7489C3.92117 37.1967 3.61095 36.4477 3.61095 35.6668V6.22238ZM18.3332 13.5835V3.88744L29.5015 15.0557H19.8054C19.4149 15.0557 19.0405 14.9006 18.7644 14.6245C18.4883 14.3484 18.3332 13.974 18.3332 13.5835ZM35.9998 18.0002C36.7808 18.0002 37.5297 18.3104 38.0819 18.8626C38.6341 19.4148 38.9443 20.1637 38.9443 20.9446V35.8435C38.9443 37.367 38.6442 38.8755 38.0612 40.2831C37.4782 41.6906 36.6237 42.9695 35.5464 44.0467C34.4691 45.124 33.1902 45.9785 31.7827 46.5615C30.3752 47.1445 28.8667 47.4446 27.3432 47.4446H9.49984C8.71892 47.4446 7.96999 47.1344 7.4178 46.5822C6.86561 46.03 6.55539 45.2811 6.55539 44.5002H27.1665C29.5093 44.5002 31.756 43.5695 33.4126 41.9129C35.0692 40.2564 35.9998 38.0096 35.9998 35.6668V18.0002Z" fill="#5E7AAA"/>
</g>
<defs>
<clipPath id="clip0_1_467">
<rect width="40" height="47.7778" fill="white"/>
</clipPath>
</defs>
</svg>
