<svg width="21" height="20" viewBox="0 0 21 20" fill="none" xmlns="http://www.w3.org/2000/svg">
<g clip-path="url(#clip0_1_421)">
<path d="M18.4614 20H18.3306C3.2152 19.1308 1.06905 6.37692 0.769046 2.48462C0.744873 2.18198 0.780652 1.87756 0.874334 1.58878C0.968016 1.3 1.11776 1.03254 1.31498 0.801732C1.51221 0.570923 1.75303 0.381298 2.02367 0.243723C2.2943 0.106147 2.58942 0.0233245 2.89212 7.21224e-07H7.13058C7.43871 -0.000297558 7.73982 0.0919312 7.99492 0.264741C8.25002 0.43755 8.44735 0.682977 8.56135 0.969232L9.73058 3.84615C9.84316 4.12581 9.8711 4.43237 9.81093 4.72776C9.75075 5.02316 9.60512 5.29436 9.39212 5.50769L7.75366 7.16154C8.0096 8.61596 8.70611 9.95667 9.74897 11.0023C10.7918 12.0479 12.1307 12.7479 13.5844 13.0077L15.2537 11.3538C15.4702 11.1432 15.744 11.001 16.0408 10.9449C16.3376 10.8888 16.6444 10.9213 16.9229 11.0385L19.8229 12.2C20.1048 12.3176 20.3454 12.5165 20.5139 12.7713C20.6824 13.0261 20.7712 13.3253 20.769 13.6308V17.6923C20.769 18.3043 20.5259 18.8913 20.0931 19.3241C19.6604 19.7569 19.0734 20 18.4614 20ZM3.07674 1.53846C2.87273 1.53846 2.67707 1.61951 2.53281 1.76376C2.38855 1.90802 2.30751 2.10368 2.30751 2.30769V2.36923C2.66135 6.92308 4.93058 17.6923 18.4152 18.4615C18.5163 18.4678 18.6176 18.454 18.7133 18.421C18.809 18.388 18.8973 18.3365 18.973 18.2693C19.0488 18.2021 19.1105 18.1207 19.1547 18.0296C19.1989 17.9385 19.2247 17.8395 19.2306 17.7385V13.6308L16.3306 12.4692L14.1229 14.6615L13.7537 14.6154C7.06135 13.7769 6.15366 7.08462 6.15366 7.01539L6.10751 6.64615L8.29212 4.43846L7.13828 1.53846H3.07674Z" fill="#5E7AAA"/>
</g>
<defs>
<clipPath id="clip0_1_421">
<rect width="20.7693" height="20" fill="white"/>
</clipPath>
</defs>
</svg>
