<svg width="19" height="19" viewBox="0 0 19 19" fill="none" xmlns="http://www.w3.org/2000/svg">
<g clip-path="url(#clip0_1_575)">
<path d="M16.9347 0.735644L9.50001 8.17037L2.06528 0.735644C1.88647 0.572011 1.65141 0.483679 1.40909 0.489048C1.16676 0.494417 0.935849 0.593075 0.764456 0.764467C0.593063 0.93586 0.494406 1.16677 0.489037 1.4091C0.483667 1.65142 0.572 1.88648 0.735633 2.0653L8.16659 9.50002L0.733747 16.9329C0.642939 17.0194 0.570348 17.1232 0.520241 17.2382C0.470133 17.3532 0.44352 17.4771 0.441967 17.6025C0.440413 17.7279 0.463951 17.8524 0.511195 17.9686C0.558439 18.0848 0.628437 18.1904 0.717073 18.2792C0.80571 18.3679 0.911197 18.4381 1.02733 18.4855C1.14347 18.5329 1.26791 18.5566 1.39334 18.5552C1.51878 18.5539 1.64267 18.5274 1.75774 18.4775C1.87281 18.4275 1.97673 18.3551 2.0634 18.2644L9.50001 10.8316L16.9347 18.2663C17.1136 18.4299 17.3486 18.5183 17.5909 18.5129C17.8333 18.5075 18.0642 18.4089 18.2356 18.2375C18.407 18.0661 18.5056 17.8352 18.511 17.5928C18.5164 17.3505 18.428 17.1154 18.2644 16.9366L10.8297 9.50191L18.2644 2.0653C18.3552 1.97876 18.4278 1.87493 18.4779 1.75994C18.528 1.64494 18.5546 1.52109 18.5562 1.39565C18.5577 1.27022 18.5342 1.14575 18.4869 1.02955C18.4397 0.913342 18.3697 0.807755 18.2811 0.718993C18.1924 0.63023 18.0869 0.560083 17.9708 0.512674C17.8547 0.465265 17.7302 0.441552 17.6048 0.442928C17.4794 0.444303 17.3555 0.47074 17.2404 0.520685C17.1253 0.57063 17.0214 0.643073 16.9347 0.733758V0.735644Z" fill="#FF0000"/>
</g>
<defs>
<clipPath id="clip0_1_575">
<rect width="19" height="19" fill="white"/>
</clipPath>
</defs>
</svg>
