<svg width="29" height="40" viewBox="0 0 29 40" fill="none" xmlns="http://www.w3.org/2000/svg">
<path d="M28.565 10.4286L18.415 0.428571C18.125 0.142857 17.835 0 17.4 0H2.9C1.305 0 0 1.28571 0 2.85714V37.1429C0 38.7143 1.305 40 2.9 40H26.1C27.695 40 29 38.7143 29 37.1429V11.4286C29 11 28.855 10.7143 28.565 10.4286ZM17.4 3.42857L25.52 11.4286H17.4V3.42857ZM26.1 37.1429H2.9V2.85714H14.5V11.4286C14.5 13 15.805 14.2857 17.4 14.2857H26.1V37.1429Z" fill="#5E7AAA"/>
<path d="M5.7998 28.5714H23.1998V31.4286H5.7998V28.5714ZM5.7998 20H23.1998V22.8571H5.7998V20Z" fill="#5E7AAA"/>
</svg>
