<svg width="50" height="48" viewBox="0 0 50 48" fill="none" xmlns="http://www.w3.org/2000/svg">
<path d="M48.5732 23.2314L27.6096 2.27867L26.2045 0.873509C25.8843 0.555457 25.4513 0.376953 25.0001 0.376953C24.5488 0.376953 24.1158 0.555457 23.7956 0.873509L1.42693 23.2314C1.09886 23.5581 0.839588 23.9473 0.664407 24.376C0.489226 24.8046 0.401689 25.264 0.406963 25.727C0.428665 27.6367 2.01829 29.1613 3.92801 29.1613H6.23379V46.8316H43.7663V29.1613H46.1209C47.0487 29.1613 47.9221 28.7978 48.5786 28.1413C48.9018 27.8191 49.158 27.436 49.3321 27.0141C49.5063 26.5922 49.595 26.14 49.5931 25.6836C49.5931 24.7613 49.2297 23.8878 48.5732 23.2314ZM28.0382 42.9254H21.9619V31.8577H28.0382V42.9254ZM39.8601 25.255V42.9254H31.5105V30.5556C31.5105 29.3566 30.5393 28.3854 29.3403 28.3854H20.6598C19.4608 28.3854 18.4896 29.3566 18.4896 30.5556V42.9254H10.14V25.255H4.9317L25.0055 5.19751L26.2587 6.45077L45.0738 25.255H39.8601Z" fill="#5E7AAA"/>
</svg>
