<svg width="45" height="50" viewBox="0 0 45 50" fill="none" xmlns="http://www.w3.org/2000/svg">
<path d="M13.5821 23.0894C11.0702 23.0894 8.66109 22.083 6.88487 20.2915C5.10866 18.5 4.11079 16.0702 4.11079 13.5366V5.8943C4.11079 5.38759 4.31036 4.90163 4.66561 4.54333C5.02085 4.18503 5.50266 3.98374 6.00505 3.98374H7.89932C8.4017 3.98374 8.88352 3.78244 9.23876 3.42414C9.594 3.06584 9.79358 2.57988 9.79358 2.07317C9.79358 1.56645 9.594 1.08049 9.23876 0.72219C8.88352 0.363889 8.4017 0.162598 7.89932 0.162598H6.00505C4.49788 0.162598 3.05244 0.766472 1.98672 1.84138C0.920986 2.91628 0.322266 4.37416 0.322266 5.8943V13.5366C0.324701 15.695 0.846544 17.8206 1.84298 19.7308C2.83941 21.641 4.28066 23.2787 6.04294 24.5032C7.73608 26.0088 9.1092 27.8448 10.0794 29.9004C11.0496 31.956 11.5967 34.1886 11.6878 36.4634C11.6878 40.0104 13.0849 43.4121 15.5716 45.9202C18.0583 48.4284 21.431 49.8374 24.9477 49.8374C28.4644 49.8374 31.8371 48.4284 34.3238 45.9202C36.8105 43.4121 38.2075 40.0104 38.2075 36.4634V34.2854C39.9932 33.8203 41.5494 32.7144 42.5844 31.1749C43.6194 29.6354 44.0623 27.7681 43.8299 25.9228C43.5975 24.0775 42.7059 22.3811 41.3221 21.1515C39.9384 19.9219 38.1575 19.2435 36.3133 19.2435C34.469 19.2435 32.6882 19.9219 31.3044 21.1515C29.9206 22.3811 29.029 24.0775 28.7966 25.9228C28.5642 27.7681 29.0071 29.6354 30.0421 31.1749C31.0772 32.7144 32.6333 33.8203 34.419 34.2854V36.4634C34.419 38.997 33.4211 41.4268 31.6449 43.2183C29.8687 45.0098 27.4596 46.0163 24.9477 46.0163C22.4357 46.0163 20.0267 45.0098 18.2504 43.2183C16.4742 41.4268 15.4764 38.997 15.4764 36.4634C15.5723 34.1858 16.1253 31.9515 17.1021 29.8957C18.0789 27.84 19.4591 26.0055 21.1592 24.5032C22.9144 23.2744 24.3483 21.6349 25.338 19.725C26.3277 17.815 26.8437 15.6916 26.8419 13.5366V5.8943C26.8419 4.37416 26.2432 2.91628 25.1775 1.84138C24.1118 0.766472 22.6663 0.162598 21.1592 0.162598H19.2649C18.7625 0.162598 18.2807 0.363889 17.9254 0.72219C17.5702 1.08049 17.3706 1.56645 17.3706 2.07317C17.3706 2.57988 17.5702 3.06584 17.9254 3.42414C18.2807 3.78244 18.7625 3.98374 19.2649 3.98374H21.1592C21.6615 3.98374 22.1434 4.18503 22.4986 4.54333C22.8538 4.90163 23.0534 5.38759 23.0534 5.8943V13.5366C23.0534 14.7911 22.8084 16.0333 22.3325 17.1923C21.8565 18.3513 21.1588 19.4044 20.2793 20.2915C19.3998 21.1785 18.3557 21.8822 17.2066 22.3623C16.0575 22.8423 14.8259 23.0894 13.5821 23.0894ZM36.3133 30.7317C35.3085 30.7317 34.3448 30.3291 33.6344 29.6125C32.9239 28.8959 32.5247 27.924 32.5247 26.9106C32.5247 25.8971 32.9239 24.9252 33.6344 24.2086C34.3448 23.492 35.3085 23.0894 36.3133 23.0894C37.318 23.0894 38.2817 23.492 38.9921 24.2086C39.7026 24.9252 40.1018 25.8971 40.1018 26.9106C40.1018 27.924 39.7026 28.8959 38.9921 29.6125C38.2817 30.3291 37.318 30.7317 36.3133 30.7317Z" fill="#5E7AAA"/>
</svg>
