<svg width="50" height="50" viewBox="0 0 50 50" fill="none" xmlns="http://www.w3.org/2000/svg">
<path d="M20.8335 23.6113H25.0002V26.3891H20.8335V23.6113Z" fill="#5E7AAA"/>
<path d="M36.7362 19.6804C34.2729 15.6496 30.9126 12.2417 26.9167 9.7221C25.0708 8.55215 22.9665 7.85188 20.7876 7.68241C18.6086 7.51294 16.4214 7.87943 14.4167 8.74987C12.6633 9.57696 11.1375 10.8184 9.97113 12.3671C8.80479 13.9158 8.03296 15.7251 7.72228 17.6388C7.61116 18.2915 7.52783 18.9165 7.4445 19.5277C6.14414 19.7384 4.96099 20.4044 4.10621 21.4067C3.25142 22.4091 2.78062 23.6826 2.77783 24.9999V33.5138C2.77783 34.2505 3.07049 34.957 3.59142 35.478C4.11236 35.9989 4.8189 36.2915 5.55561 36.2915V24.9999C5.55561 24.2632 5.84827 23.5566 6.3692 23.0357C6.89014 22.5148 7.59667 22.2221 8.33339 22.2221H34.3473C37.0241 22.2258 39.5902 23.2908 41.483 25.1836C43.3758 27.0764 44.4408 29.6425 44.4445 32.3193V33.3332H41.6667C41.0801 31.9028 39.9874 30.7385 38.5971 30.0623C37.2068 29.3862 35.6162 29.2456 34.1289 29.6675C32.6415 30.0893 31.3616 31.044 30.5332 32.3493C29.7048 33.6547 29.3861 35.2193 29.6378 36.7447C29.8895 38.2701 30.694 39.6494 31.8978 40.6194C33.1016 41.5895 34.6204 42.0823 36.1644 42.004C37.7084 41.9256 39.1695 41.2815 40.2689 40.1946C41.3683 39.1077 42.0291 37.654 42.125 36.111H44.4445C45.1812 36.111 45.8877 35.8183 46.4087 35.2974C46.9296 34.7765 47.2223 34.0699 47.2223 33.3332V32.3193C47.2167 29.322 46.1666 26.4203 44.2528 24.1136C42.3389 21.8068 39.6809 20.2392 36.7362 19.6804ZM15.2778 19.4443H9.62505C9.62505 19.0138 9.75005 18.5693 9.83339 18.0554C10.0733 16.5297 10.6996 15.0907 11.6525 13.8752C12.6054 12.6597 13.8534 11.7081 15.2778 11.111V19.4443ZM18.0556 19.4443V10.5277C20.6486 10.1909 23.2783 10.76 25.5001 12.1388C28.533 14.0279 31.1507 16.5133 33.1945 19.4443H18.0556ZM35.8334 39.4165C35.1466 39.4165 34.4753 39.2129 33.9043 38.8314C33.3333 38.4498 32.8883 37.9075 32.6255 37.2731C32.3627 36.6386 32.2939 35.9405 32.4279 35.2669C32.5619 34.5934 32.8926 33.9747 33.3782 33.4891C33.8638 33.0035 34.4824 32.6728 35.156 32.5388C35.8295 32.4048 36.5277 32.4736 37.1621 32.7364C37.7966 32.9992 38.3389 33.4443 38.7204 34.0153C39.102 34.5863 39.3056 35.2576 39.3056 35.9443C39.3056 36.8652 38.9398 37.7484 38.2886 38.3995C37.6374 39.0507 36.7543 39.4165 35.8334 39.4165Z" fill="#5E7AAA"/>
<path d="M19.6808 33.3332C19.0942 31.9028 18.0015 30.7384 16.6111 30.0623C15.2208 29.3862 13.6302 29.2456 12.1429 29.6674C10.6556 30.0893 9.37559 31.0439 8.54724 32.3493C7.71888 33.6546 7.40014 35.2193 7.65182 36.7447C7.90351 38.27 8.70801 39.6493 9.9118 40.6194C11.1156 41.5894 12.6344 42.0823 14.1784 42.004C15.7224 41.9256 17.1836 41.2815 18.283 40.1946C19.3824 39.1077 20.0431 37.654 20.1391 36.111H27.5002V35.7637C27.4727 34.9443 27.5663 34.1253 27.778 33.3332H19.6808ZM13.8891 39.4165C13.2023 39.4165 12.531 39.2129 11.96 38.8313C11.389 38.4498 10.944 37.9075 10.6812 37.2731C10.4184 36.6386 10.3496 35.9404 10.4836 35.2669C10.6176 34.5934 10.9483 33.9747 11.4339 33.4891C11.9195 33.0035 12.5381 32.6728 13.2117 32.5388C13.8852 32.4048 14.5834 32.4736 15.2178 32.7364C15.8523 32.9992 16.3946 33.4442 16.7761 34.0152C17.1577 34.5862 17.3613 35.2576 17.3613 35.9443C17.3613 36.8652 16.9955 37.7484 16.3443 38.3995C15.6932 39.0507 14.81 39.4165 13.8891 39.4165Z" fill="#5E7AAA"/>
</svg>
