<svg width="50" height="50" viewBox="0 0 50 50" fill="none" xmlns="http://www.w3.org/2000/svg">
<path d="M36.861 25.0001C36.8552 23.1325 36.655 21.2706 36.2638 19.4445H41.2638C41.0063 18.6828 40.6953 17.9402 40.3332 17.2223H35.6804C34.8058 14.3001 33.4492 11.5446 31.6666 9.0695C30.5276 8.59061 29.3401 8.23669 28.1249 8.01394C30.567 10.6379 32.4104 13.7607 33.5277 17.1667H26.0416V7.77783H23.9582V17.1806H16.4721C17.5917 13.7684 19.4399 10.6406 21.8888 8.01394C20.6787 8.23297 19.4959 8.58223 18.361 9.05561C16.5714 11.5204 15.2054 14.2664 14.3193 17.1806H9.63878C9.27012 17.9116 8.9545 18.6682 8.69434 19.4445H13.736C13.3447 21.2706 13.1446 23.1325 13.1388 25.0001C13.1426 27.0428 13.3756 29.0787 13.8332 31.0695H8.91656C9.20389 31.848 9.54739 32.6046 9.94434 33.3334H14.4304C15.2807 35.9942 16.5413 38.5059 18.1666 40.7778C19.3304 41.277 20.5462 41.645 21.7916 41.8751C19.5248 39.4025 17.7815 36.497 16.6666 33.3334H23.9721V42.1389H26.0554V33.3334H33.3332C32.2145 36.4983 30.4664 39.404 28.1943 41.8751C29.4455 41.6371 30.6661 41.2597 31.8332 40.7501C33.4559 38.4867 34.7164 35.9845 35.5693 33.3334H40.0138C40.4089 32.6181 40.7524 31.8755 41.0416 31.1112H36.111C36.5905 29.1089 36.8421 27.0588 36.861 25.0001ZM23.9582 31.0695H15.986C15.0082 27.2471 14.9653 23.2453 15.861 19.4028H23.9582V31.0695ZM34.0138 31.0695H26.0416V19.4445H34.1388C34.5378 21.2691 34.7334 23.1323 34.7221 25.0001C34.7334 27.0445 34.4955 29.0826 34.0138 31.0695Z" fill="#5E7AAA"/>
<path d="M24.9999 2.77783C20.6048 2.77783 16.3084 4.08114 12.6539 6.52295C8.99951 8.96476 6.15123 12.4354 4.46929 16.496C2.78734 20.5566 2.34726 25.0247 3.20471 29.3354C4.06216 33.6461 6.17863 37.6057 9.28646 40.7135C12.3943 43.8214 16.3539 45.9378 20.6646 46.7953C24.9753 47.6527 29.4434 47.2127 33.504 45.5307C37.5646 43.8488 41.0352 41.0005 43.477 37.3461C45.9189 33.6916 47.2222 29.3952 47.2222 25.0001C47.2222 19.1064 44.8809 13.454 40.7134 9.28657C36.546 5.1191 30.8936 2.77783 24.9999 2.77783ZM24.9999 44.4445C21.1542 44.4445 17.3948 43.3041 14.1972 41.1675C10.9996 39.0309 8.50732 35.9941 7.03562 32.4411C5.56391 28.8881 5.17885 24.9785 5.92912 21.2066C6.67939 17.4348 8.53129 13.9701 11.2506 11.2508C13.97 8.5314 17.4347 6.6795 21.2065 5.92923C24.9784 5.17896 28.888 5.56403 32.441 7.03573C35.994 8.50743 39.0308 10.9997 41.1674 14.1973C43.304 17.3949 44.4444 21.1543 44.4444 25.0001C44.4444 30.157 42.3958 35.1028 38.7492 38.7494C35.1027 42.3959 30.1569 44.4445 24.9999 44.4445Z" fill="#5E7AAA"/>
</svg>
