<svg width="35" height="950" viewBox="0 0 35 950" fill="none" xmlns="http://www.w3.org/2000/svg">
<rect y="15" width="5" height="5" fill="#FAFAFA"/>
<rect x="15" y="15" width="5" height="5" fill="#FAFAFA"/>
<rect x="30" y="15" width="5" height="5" fill="#FAFAFA"/>
<rect y="45" width="5" height="5" fill="#FAFAFA"/>
<rect x="15" y="45" width="5" height="5" fill="#FAFAFA"/>
<rect x="30" y="45" width="5" height="5" fill="#FAFAFA"/>
<rect y="75" width="5" height="5" fill="#FAFAFA"/>
<rect x="15" y="75" width="5" height="5" fill="#FAFAFA"/>
<rect x="30" y="75" width="5" height="5" fill="#FAFAFA"/>
<rect y="105" width="5" height="5" fill="#FAFAFA"/>
<rect x="15" y="105" width="5" height="5" fill="#FAFAFA"/>
<rect x="30" y="105" width="5" height="5" fill="#FAFAFA"/>
<rect y="135" width="5" height="5" fill="#FAFAFA"/>
<rect x="15" y="135" width="5" height="5" fill="#FAFAFA"/>
<rect x="30" y="135" width="5" height="5" fill="#FAFAFA"/>
<rect y="165" width="5" height="5" fill="#FAFAFA"/>
<rect x="15" y="165" width="5" height="5" fill="#FAFAFA"/>
<rect x="30" y="165" width="5" height="5" fill="#FAFAFA"/>
<rect y="195" width="5" height="5" fill="#FAFAFA"/>
<rect x="15" y="195" width="5" height="5" fill="#FAFAFA"/>
<rect x="30" y="195" width="5" height="5" fill="#FAFAFA"/>
<rect y="225" width="5" height="5" fill="#FAFAFA"/>
<rect x="15" y="225" width="5" height="5" fill="#FAFAFA"/>
<rect x="30" y="225" width="5" height="5" fill="#FAFAFA"/>
<rect y="255" width="5" height="5" fill="#FAFAFA"/>
<rect x="15" y="255" width="5" height="5" fill="#FAFAFA"/>
<rect x="30" y="255" width="5" height="5" fill="#FAFAFA"/>
<rect y="285" width="5" height="5" fill="#FAFAFA"/>
<rect x="15" y="285" width="5" height="5" fill="#FAFAFA"/>
<rect x="30" y="285" width="5" height="5" fill="#FAFAFA"/>
<rect y="315" width="5" height="5" fill="#FAFAFA"/>
<rect x="15" y="315" width="5" height="5" fill="#FAFAFA"/>
<rect x="30" y="315" width="5" height="5" fill="#FAFAFA"/>
<rect y="345" width="5" height="5" fill="#FAFAFA"/>
<rect x="15" y="345" width="5" height="5" fill="#FAFAFA"/>
<rect x="30" y="345" width="5" height="5" fill="#FAFAFA"/>
<rect y="375" width="5" height="5" fill="#FAFAFA"/>
<rect x="15" y="375" width="5" height="5" fill="#FAFAFA"/>
<rect x="30" y="375" width="5" height="5" fill="#FAFAFA"/>
<rect y="405" width="5" height="5" fill="#FAFAFA"/>
<rect x="15" y="405" width="5" height="5" fill="#FAFAFA"/>
<rect x="30" y="405" width="5" height="5" fill="#FAFAFA"/>
<rect y="435" width="5" height="5" fill="#FAFAFA"/>
<rect x="15" y="435" width="5" height="5" fill="#FAFAFA"/>
<rect x="30" y="435" width="5" height="5" fill="#FAFAFA"/>
<rect y="465" width="5" height="5" fill="#FAFAFA"/>
<rect x="15" y="465" width="5" height="5" fill="#FAFAFA"/>
<rect x="30" y="465" width="5" height="5" fill="#FAFAFA"/>
<rect y="495" width="5" height="5" fill="#FAFAFA"/>
<rect x="15" y="495" width="5" height="5" fill="#FAFAFA"/>
<rect x="30" y="495" width="5" height="5" fill="#FAFAFA"/>
<rect y="525" width="5" height="5" fill="#FAFAFA"/>
<rect x="15" y="525" width="5" height="5" fill="#FAFAFA"/>
<rect x="30" y="525" width="5" height="5" fill="#FAFAFA"/>
<rect y="555" width="5" height="5" fill="#FAFAFA"/>
<rect x="15" y="555" width="5" height="5" fill="#FAFAFA"/>
<rect x="30" y="555" width="5" height="5" fill="#FAFAFA"/>
<rect y="585" width="5" height="5" fill="#FAFAFA"/>
<rect x="15" y="585" width="5" height="5" fill="#FAFAFA"/>
<rect x="30" y="585" width="5" height="5" fill="#FAFAFA"/>
<rect y="825" width="5" height="5" fill="#FAFAFA"/>
<rect x="15" y="825" width="5" height="5" fill="#FAFAFA"/>
<rect x="30" y="825" width="5" height="5" fill="#FAFAFA"/>
<rect y="855" width="5" height="5" fill="#FAFAFA"/>
<rect x="15" y="855" width="5" height="5" fill="#FAFAFA"/>
<rect x="30" y="855" width="5" height="5" fill="#FAFAFA"/>
<rect y="885" width="5" height="5" fill="#FAFAFA"/>
<rect x="15" y="885" width="5" height="5" fill="#FAFAFA"/>
<rect x="30" y="885" width="5" height="5" fill="#FAFAFA"/>
<rect y="915" width="5" height="5" fill="#FAFAFA"/>
<rect x="15" y="915" width="5" height="5" fill="#FAFAFA"/>
<rect x="30" y="915" width="5" height="5" fill="#FAFAFA"/>
<rect y="945" width="5" height="5" fill="#FAFAFA"/>
<rect x="15" y="945" width="5" height="5" fill="#FAFAFA"/>
<rect x="30" y="945" width="5" height="5" fill="#FAFAFA"/>
<rect width="5" height="5" fill="#FAFAFA"/>
<rect x="15" width="5" height="5" fill="#FAFAFA"/>
<rect x="30" width="5" height="5" fill="#FAFAFA"/>
<rect y="30" width="5" height="5" fill="#FAFAFA"/>
<rect x="15" y="30" width="5" height="5" fill="#FAFAFA"/>
<rect x="30" y="30" width="5" height="5" fill="#FAFAFA"/>
<rect y="60" width="5" height="5" fill="#FAFAFA"/>
<rect x="15" y="60" width="5" height="5" fill="#FAFAFA"/>
<rect x="30" y="60" width="5" height="5" fill="#FAFAFA"/>
<rect y="90" width="5" height="5" fill="#FAFAFA"/>
<rect x="15" y="90" width="5" height="5" fill="#FAFAFA"/>
<rect x="30" y="90" width="5" height="5" fill="#FAFAFA"/>
<rect y="120" width="5" height="5" fill="#FAFAFA"/>
<rect x="15" y="120" width="5" height="5" fill="#FAFAFA"/>
<rect x="30" y="120" width="5" height="5" fill="#FAFAFA"/>
<rect y="150" width="5" height="5" fill="#FAFAFA"/>
<rect x="15" y="150" width="5" height="5" fill="#FAFAFA"/>
<rect x="30" y="150" width="5" height="5" fill="#FAFAFA"/>
<rect y="180" width="5" height="5" fill="#FAFAFA"/>
<rect x="15" y="180" width="5" height="5" fill="#FAFAFA"/>
<rect x="30" y="180" width="5" height="5" fill="#FAFAFA"/>
<rect y="210" width="5" height="5" fill="#FAFAFA"/>
<rect x="15" y="210" width="5" height="5" fill="#FAFAFA"/>
<rect x="30" y="210" width="5" height="5" fill="#FAFAFA"/>
<rect y="240" width="5" height="5" fill="#FAFAFA"/>
<rect x="15" y="240" width="5" height="5" fill="#FAFAFA"/>
<rect x="30" y="240" width="5" height="5" fill="#FAFAFA"/>
<rect y="270" width="5" height="5" fill="#FAFAFA"/>
<rect x="15" y="270" width="5" height="5" fill="#FAFAFA"/>
<rect x="30" y="270" width="5" height="5" fill="#FAFAFA"/>
<rect y="300" width="5" height="5" fill="#FAFAFA"/>
<rect x="15" y="300" width="5" height="5" fill="#FAFAFA"/>
<rect x="30" y="300" width="5" height="5" fill="#FAFAFA"/>
<rect y="330" width="5" height="5" fill="#FAFAFA"/>
<rect x="15" y="330" width="5" height="5" fill="#FAFAFA"/>
<rect x="30" y="330" width="5" height="5" fill="#FAFAFA"/>
<rect y="360" width="5" height="5" fill="#FAFAFA"/>
<rect x="15" y="360" width="5" height="5" fill="#FAFAFA"/>
<rect x="30" y="360" width="5" height="5" fill="#FAFAFA"/>
<rect y="390" width="5" height="5" fill="#FAFAFA"/>
<rect x="15" y="390" width="5" height="5" fill="#FAFAFA"/>
<rect x="30" y="390" width="5" height="5" fill="#FAFAFA"/>
<rect y="420" width="5" height="5" fill="#FAFAFA"/>
<rect x="15" y="420" width="5" height="5" fill="#FAFAFA"/>
<rect x="30" y="420" width="5" height="5" fill="#FAFAFA"/>
<rect y="450" width="5" height="5" fill="#FAFAFA"/>
<rect x="15" y="450" width="5" height="5" fill="#FAFAFA"/>
<rect x="30" y="450" width="5" height="5" fill="#FAFAFA"/>
<rect y="480" width="5" height="5" fill="#FAFAFA"/>
<rect x="15" y="480" width="5" height="5" fill="#FAFAFA"/>
<rect x="30" y="480" width="5" height="5" fill="#FAFAFA"/>
<rect y="510" width="5" height="5" fill="#FAFAFA"/>
<rect x="15" y="510" width="5" height="5" fill="#FAFAFA"/>
<rect x="30" y="510" width="5" height="5" fill="#FAFAFA"/>
<rect y="540" width="5" height="5" fill="#FAFAFA"/>
<rect x="15" y="540" width="5" height="5" fill="#FAFAFA"/>
<rect x="30" y="540" width="5" height="5" fill="#FAFAFA"/>
<rect y="570" width="5" height="5" fill="#FAFAFA"/>
<rect x="15" y="570" width="5" height="5" fill="#FAFAFA"/>
<rect x="30" y="570" width="5" height="5" fill="#FAFAFA"/>
<rect y="840" width="5" height="5" fill="#FAFAFA"/>
<rect x="15" y="840" width="5" height="5" fill="#FAFAFA"/>
<rect x="30" y="840" width="5" height="5" fill="#FAFAFA"/>
<rect y="870" width="5" height="5" fill="#FAFAFA"/>
<rect x="15" y="870" width="5" height="5" fill="#FAFAFA"/>
<rect x="30" y="870" width="5" height="5" fill="#FAFAFA"/>
<rect y="900" width="5" height="5" fill="#FAFAFA"/>
<rect x="15" y="900" width="5" height="5" fill="#FAFAFA"/>
<rect x="30" y="900" width="5" height="5" fill="#FAFAFA"/>
<rect y="930" width="5" height="5" fill="#FAFAFA"/>
<rect x="15" y="930" width="5" height="5" fill="#FAFAFA"/>
<rect x="30" y="930" width="5" height="5" fill="#FAFAFA"/>
</svg>
