<svg width="190" height="20" viewBox="0 0 190 20" fill="none" xmlns="http://www.w3.org/2000/svg">
<path d="M105.596 9.5717C107.459 8.5924 108.391 7.11817 108.391 5.14902C108.409 4.5307 108.302 3.91528 108.077 3.34053C107.852 2.76578 107.514 2.24384 107.084 1.80674C105.933 0.63368 104.234 0.0481926 101.987 0.0502986H100.348V3.1367H101.534C102.627 3.1367 103.472 3.36099 104.065 3.80326C104.354 4.01238 104.586 4.29154 104.742 4.61538C104.898 4.93922 104.971 5.29748 104.956 5.65763C104.979 6.05735 104.9 6.45625 104.727 6.8159C104.554 7.17554 104.293 7.48382 103.969 7.71102C103.31 8.1754 102.416 8.40601 101.282 8.40601H100.351V11.3503H102.037C104.712 11.3503 106.048 12.238 106.046 14.0133C106.068 14.4147 105.988 14.815 105.816 15.1765C105.643 15.5379 105.382 15.8487 105.059 16.0794C104.397 16.5532 103.475 16.787 102.289 16.787H100.348V19.8766H102.258C104.467 19.8766 106.22 19.4037 107.518 18.4581C108.817 17.5125 109.467 16.172 109.469 14.4367C109.469 12.0905 108.178 10.4689 105.596 9.5717Z" fill="white"/>
<path d="M123.658 0.123047H112.888V3.3674H123.658V0.123047Z" fill="white"/>
<path d="M122.308 8.27051H116.162V11.537H122.308V8.27051Z" fill="white"/>
<path d="M123.721 16.6704H112.808V19.9148H123.721V16.6704Z" fill="white"/>
<path d="M142.003 8.27979H137.397V11.5241H142.003V8.27979Z" fill="white"/>
<path d="M142.003 15.6372C140.705 16.4532 139.203 16.8701 137.677 16.8376C135.708 16.8376 134.112 16.1921 132.888 14.9011C131.665 13.6101 131.052 11.9674 131.05 9.97296C131.015 8.18163 131.669 6.44716 132.873 5.1396C133.437 4.49641 134.131 3.98433 134.906 3.63818C135.682 3.29203 136.523 3.11994 137.37 3.1336C138.39 3.10771 139.407 3.28035 140.364 3.64221C140.941 3.88772 141.491 4.19593 142.003 4.5615V0.805375C141.898 0.761148 141.792 0.716923 141.693 0.679014C140.349 0.215861 138.935 -0.00334853 137.516 0.0314014C134.617 0.0314014 132.218 1.00229 130.317 2.94405C129.396 3.8562 128.668 4.95023 128.178 6.15895C127.688 7.36767 127.445 8.66557 127.466 9.97296C127.466 12.8477 128.398 15.2223 130.261 17.0966C132.124 18.971 134.56 19.9093 137.569 19.9114C139.082 19.9205 140.586 19.653 142.006 19.1216L142.003 15.6372Z" fill="white"/>
<path d="M165.525 16.6421H162.338V19.8864H165.525V16.6421Z" fill="white"/>
<path d="M149.978 16.6421H146.786V19.8864H149.978V16.6421Z" fill="white"/>
<path d="M162.345 13.4006H165.531V0.0693359H162.124L156.193 9.44542L150.264 0.0693359H146.792V13.4006H149.985V5.73353L156.081 15.0243H156.193L162.345 5.67983V13.4006Z" fill="white"/>
<path d="M177.817 8.27981L179.783 4.11933L181.767 8.27981H185.034L181.426 0.034668H178.252L174.646 8.27981H177.817Z" fill="white"/>
<path d="M186.305 11.54H183.152H176.441H173.373L169.677 20H173.183L175.314 14.5727H184.249L186.382 20H190L186.305 11.54Z" fill="white"/>
<path d="M26.9035 8.46312L28.86 4.19523L30.8321 8.46312H34.0836L30.4936 0H27.3352L23.7451 8.46312H26.9035Z" fill="white"/>
<path d="M35.3511 11.7832H32.2145H25.5344H22.4785L18.7983 19.8451H22.2921L24.4132 14.8822H33.3014L35.4288 19.8451H39.0313L35.3511 11.7832Z" fill="white"/>
<path d="M82.8013 19.8674V0.120117H86.0311V16.8126H89.3541V19.8674H82.8013Z" fill="white"/>
<path d="M50.1118 4.98168L46.4131 0.123047H43.3013V19.9051H46.6025V5.87253L50.1118 10.4721V4.98168Z" fill="white"/>
<path d="M56.649 0.123047V13.7038L53.2856 9.24009V14.6516L57.1397 19.7629H59.9533V0.123047H56.649Z" fill="white"/>
<path d="M68.2113 6.64014H65.0591V19.7723H68.2113V6.64014Z" fill="white"/>
<path d="M68.2113 0.110352H65.0591V3.37682H68.2113V0.110352Z" fill="white"/>
<path d="M77.5001 0.0664062H74.3262V6.26132H77.5001V0.0664062Z" fill="white"/>
<path d="M77.5001 11.5557H74.3262V19.8419H77.5001V11.5557Z" fill="white"/>
<path d="M75.8663 10.5764C76.7427 10.5764 77.4532 9.83953 77.4532 8.93054C77.4532 8.02155 76.7427 7.28467 75.8663 7.28467C74.9898 7.28467 74.2793 8.02155 74.2793 8.93054C74.2793 9.83953 74.9898 10.5764 75.8663 10.5764Z" fill="white"/>
<path d="M13.913 2.88733C12.0331 1.02559 9.60973 0.0947266 6.64286 0.0947266H0V5.34508H3.17391V3.25378H6.64286C8.61594 3.25378 10.2081 3.8856 11.4193 5.14922C12.6304 6.41284 13.236 8.01554 13.236 9.95731C13.236 11.9265 12.6304 13.5334 11.4193 14.778C10.2081 16.0227 8.61594 16.6461 6.64286 16.6482H3.17391V15.0687H0V19.8072H6.64286C9.5911 19.8072 12.0103 18.8701 13.9006 16.9957C15.7909 15.1213 16.736 12.7783 16.736 9.96678C16.736 7.1131 15.795 4.75328 13.913 2.88733Z" fill="white"/>
<path d="M3.18012 8.44727H0V11.7453H3.18012V8.44727Z" fill="white"/>
</svg>
