<svg width="28" height="18" viewBox="0 0 28 18" fill="none" xmlns="http://www.w3.org/2000/svg">
<path d="M27.652 1.89055C27.8724 2.54301 27.1539 4.04163 25.4966 6.38641C25.2667 6.71264 24.9553 7.14591 24.5625 7.68623C24.1793 8.20616 23.9159 8.57317 23.7722 8.78725C23.6285 9.00134 23.4824 9.25366 23.3339 9.54421C23.1854 9.83476 23.128 10.0488 23.1615 10.1865C23.195 10.3241 23.2573 10.5 23.3483 10.714C23.4393 10.9281 23.595 11.1473 23.8153 11.3716C24.0356 11.5959 24.3087 11.866 24.6344 12.1821C24.6727 12.2025 24.6967 12.2229 24.7062 12.2433C26.057 13.5788 26.9719 14.7053 27.4509 15.6228C27.4796 15.6738 27.5107 15.7375 27.5443 15.8139C27.5778 15.8904 27.6113 16.0255 27.6449 16.2192C27.6784 16.4129 27.676 16.5862 27.6377 16.7391C27.5993 16.892 27.4796 17.0322 27.2784 17.1596C27.0772 17.2871 26.7946 17.3508 26.4306 17.3508L22.7519 17.412C22.522 17.4629 22.2538 17.4374 21.9472 17.3355C21.6407 17.2335 21.3916 17.1214 21.2 16.9991L20.9126 16.8156C20.6252 16.6015 20.2899 16.2752 19.9067 15.8369C19.5235 15.3985 19.1954 15.0035 18.9224 14.6517C18.6494 14.3 18.3572 14.0044 18.0458 13.7648C17.7345 13.5252 17.4639 13.4462 17.234 13.5278C17.2052 13.538 17.1669 13.5558 17.119 13.5813C17.0711 13.6068 16.9897 13.6807 16.8747 13.803C16.7598 13.9254 16.6568 14.0757 16.5658 14.2542C16.4748 14.4326 16.3933 14.6976 16.3215 15.0493C16.2496 15.4011 16.2185 15.7961 16.2281 16.2345C16.2281 16.3874 16.2113 16.5276 16.1778 16.655C16.1442 16.7824 16.1083 16.8767 16.07 16.9379L16.0125 17.0144C15.8401 17.2081 15.5862 17.3202 15.2509 17.3508H13.5984C12.9182 17.3916 12.2189 17.3075 11.5004 17.0985C10.7819 16.8895 10.1521 16.6193 9.61079 16.288C9.06953 15.9567 8.57617 15.6202 8.13071 15.2787C7.68524 14.9372 7.34755 14.6441 7.11764 14.3994L6.75839 14.0324C6.6626 13.9305 6.53087 13.7776 6.36322 13.5737C6.19558 13.3698 5.8531 12.9059 5.33579 12.1821C4.81847 11.4583 4.31074 10.6886 3.81259 9.87299C3.31444 9.05741 2.72767 7.98187 2.05229 6.64637C1.37691 5.31087 0.75183 3.92439 0.177039 2.48694C0.11956 2.32383 0.0908203 2.1862 0.0908203 2.07406C0.0908203 1.96191 0.10519 1.88036 0.13393 1.82938L0.191409 1.73763C0.335106 1.54393 0.608132 1.44708 1.01049 1.44708L4.9478 1.4165C5.06276 1.43689 5.17293 1.47002 5.27831 1.5159C5.38369 1.56177 5.46032 1.6051 5.50822 1.64588L5.58007 1.69176C5.73335 1.8039 5.84831 1.96701 5.92495 2.1811C6.11654 2.69083 6.33688 3.21841 6.58596 3.76382C6.83503 4.30924 7.03142 4.72467 7.17512 5.01012L7.40503 5.45359C7.68285 6.06527 7.95108 6.5954 8.20974 7.04396C8.4684 7.49253 8.70071 7.8417 8.90667 8.09147C9.11264 8.34124 9.31142 8.53748 9.50302 8.68021C9.69462 8.82294 9.85747 8.8943 9.99159 8.8943C10.1257 8.8943 10.255 8.86881 10.3796 8.81784C10.3987 8.80764 10.4227 8.78216 10.4514 8.74138C10.4802 8.7006 10.5376 8.58846 10.6239 8.40495C10.7101 8.22145 10.7747 7.98187 10.8179 7.68623C10.861 7.39058 10.9065 6.9777 10.9544 6.44757C11.0023 5.91745 11.0023 5.28028 10.9544 4.53607C10.9352 4.12828 10.8921 3.75618 10.825 3.41975C10.758 3.08333 10.6909 2.84885 10.6239 2.71632L10.5376 2.53282C10.2981 2.1862 9.891 1.96701 9.31621 1.87526C9.19167 1.85487 9.21562 1.73253 9.38806 1.50825C9.54134 1.31455 9.72336 1.16163 9.93411 1.04949C10.4418 0.784429 11.5866 0.662093 13.3685 0.682482C14.154 0.692677 14.8007 0.758943 15.3084 0.881279C15.5 0.932252 15.6605 1.00107 15.7898 1.08772C15.9191 1.17438 16.0173 1.29671 16.0844 1.45473C16.1514 1.61275 16.2017 1.77586 16.2353 1.94407C16.2688 2.11229 16.2856 2.34422 16.2856 2.63986C16.2856 2.93551 16.2808 3.21586 16.2712 3.48092C16.2616 3.74598 16.2496 4.10535 16.2353 4.55901C16.2209 5.01267 16.2137 5.4332 16.2137 5.8206C16.2137 5.93274 16.2089 6.14683 16.1993 6.46287C16.1898 6.7789 16.1874 7.02357 16.1921 7.19688C16.1969 7.37019 16.2137 7.57664 16.2424 7.81621C16.2712 8.05579 16.3263 8.25458 16.4077 8.4126C16.4891 8.57062 16.5969 8.6955 16.731 8.78725C16.8077 8.80764 16.8891 8.82803 16.9753 8.84842C17.0615 8.86881 17.1861 8.81274 17.3489 8.68021C17.5118 8.54768 17.6938 8.37182 17.895 8.15263C18.0961 7.93345 18.3452 7.59193 18.6422 7.12807C18.9392 6.66421 19.2649 6.11625 19.6193 5.48418C20.1941 4.42393 20.7066 3.27703 21.1569 2.04347C21.1952 1.94153 21.2431 1.85232 21.3006 1.77586C21.3581 1.6994 21.4108 1.64588 21.4587 1.6153L21.5161 1.56942L21.588 1.53119L21.7748 1.48531L22.0622 1.47767L26.2007 1.44708C26.5743 1.39611 26.8809 1.40885 27.1204 1.48531C27.3599 1.56177 27.5083 1.64588 27.5658 1.73763L27.652 1.89055Z" fill="white"/>
</svg>
