<svg width="20" height="20" fill="none" xmlns="http://www.w3.org/2000/svg"><path d="M10 .5a1 1 0 01.894.553l2.58 5.158 5.67.824a1 1 0 01.554 1.706l-4.127 4.024.928 5.674a1 1 0 01-1.455 1.044L10 16.807l-5.044 2.676a1 1 0 01-1.455-1.044l.928-5.674L.302 8.74a1 1 0 01.554-1.706l5.67-.824 2.58-5.158A1 1 0 0110 .5zm0 3.236L8.082 7.572a1 1 0 01-.75.543l-4.184.608 3.05 2.973a1 1 0 01.289.878L5.8 16.771l3.731-1.98a1 1 0 01.938 0l3.731 1.98-.687-4.197a1 1 0 01.289-.877l3.05-2.974-4.183-.608a1 1 0 01-.75-.543L10 3.736z" fill="#fff" fill-opacity=".4"/></svg>