<svg width="12" height="13" viewBox="0 0 12 13" fill="none" xmlns="http://www.w3.org/2000/svg">
<path d="M6 1.83341C4.71134 1.83341 3.66667 2.87808 3.66667 4.16675C3.66667 5.45541 4.71134 6.50008 6 6.50008C7.28866 6.50008 8.33333 5.45541 8.33333 4.16675C8.33333 2.87808 7.28866 1.83341 6 1.83341ZM2.5 4.16675C2.5 2.23375 4.067 0.666748 6 0.666748C7.933 0.666748 9.5 2.23375 9.5 4.16675C9.5 6.09974 7.933 7.66675 6 7.66675C4.067 7.66675 2.5 6.09974 2.5 4.16675ZM3.66667 10.0001C2.70017 10.0001 1.91667 10.7836 1.91667 11.7501C1.91667 12.0722 1.6555 12.3334 1.33333 12.3334C1.01117 12.3334 0.75 12.0722 0.75 11.7501C0.75 10.1392 2.05584 8.83342 3.66667 8.83342H8.33333C9.94416 8.83342 11.25 10.1393 11.25 11.7501C11.25 12.0722 10.9888 12.3334 10.6667 12.3334C10.3445 12.3334 10.0833 12.0722 10.0833 11.7501C10.0833 10.7836 9.29983 10.0001 8.33333 10.0001H3.66667Z" fill="white" fill-opacity="0.8"/>
</svg>
