<svg width="28" height="28" viewBox="0 0 28 28" fill="none" xmlns="http://www.w3.org/2000/svg">
<path d="M13.9993 27.3334C6.63535 27.3334 0.666016 21.3641 0.666016 14.0001C0.666016 6.63608 6.63535 0.666748 13.9993 0.666748C21.3633 0.666748 27.3327 6.63608 27.3327 14.0001C27.3327 21.3641 21.3633 27.3334 13.9993 27.3334ZM10.5485 18.5453C11.7202 19.7169 13.6198 19.7168 14.7913 18.5451L21.1542 12.1814C21.6747 11.6608 21.6747 10.8167 21.1541 10.2962C20.6334 9.77551 19.7893 9.77555 19.2687 10.2962L12.67 16.8961L9.84068 14.0667C9.32006 13.5461 8.47597 13.5461 7.95535 14.0667C7.43473 14.5874 7.43473 15.4315 7.95535 15.9521L10.5485 18.5453Z" fill="#20C37F"/>
</svg>
