<svg width="24" height="24" viewBox="0 0 24 24" fill="none" xmlns="http://www.w3.org/2000/svg">
<path d="M0.435608 0.43547C1.01624 -0.145157 1.95762 -0.145157 2.53824 0.43547L23.5646 21.4618C24.1452 22.0424 24.1452 22.9838 23.5646 23.5645C22.984 24.1451 22.0426 24.1451 21.462 23.5645L0.435609 2.53811C-0.145018 1.95748 -0.145018 1.0161 0.435608 0.43547Z" fill="white"/>
<path d="M0.43547 23.5645C-0.145157 22.9839 -0.145157 22.0425 0.43547 21.4619L21.4618 0.435541C22.0424 -0.145086 22.9838 -0.145086 23.5645 0.435541C24.1451 1.01617 24.1451 1.95755 23.5645 2.53818L2.53811 23.5645C1.95748 24.1452 1.0161 24.1452 0.43547 23.5645Z" fill="white"/>
</svg>
