<svg width="14" height="13" viewBox="0 0 14 13" fill="none" xmlns="http://www.w3.org/2000/svg">
<path d="M4.67864 0.20267C4.82233 0.154774 4.97767 0.154774 5.12136 0.20267L9.1 1.52888L12.1573 0.50979C13.0638 0.207608 14 0.882366 14 1.83795V10.1622C14 10.7648 13.6144 11.2998 13.0427 11.4904L9.32136 12.7308C9.17767 12.7787 9.02233 12.7787 8.87864 12.7308L4.9 11.4046L1.84272 12.4237C0.936175 12.7259 0 12.0511 0 11.0956V2.77128C0 2.16868 0.385602 1.63368 0.957281 1.44312L4.67864 0.20267ZM5.6 10.1622L8.4 11.0956V2.77128L5.6 1.83795V10.1622ZM4.2 1.83795L1.4 2.77128V11.0956L4.2 10.1622V1.83795ZM9.8 2.77128V11.0956L12.6 10.1622V1.83795L9.8 2.77128Z" fill="white" fill-opacity="0.8"/>
</svg>
