<svg width="16" height="16" viewBox="0 0 16 16" fill="none" xmlns="http://www.w3.org/2000/svg">
<path d="M11.8159 0.26035C12.163 -0.0867832 12.7259 -0.0867832 13.073 0.26035L15.7397 2.92702C16.0868 3.27415 16.0868 3.83696 15.7397 4.1841L7.73965 12.1841C7.57295 12.3508 7.34686 12.4444 7.11111 12.4444H4.44444C3.95352 12.4444 3.55556 12.0465 3.55556 11.5556V8.88889C3.55556 8.65314 3.64921 8.42705 3.81591 8.26035L11.8159 0.26035ZM5.33333 9.25708V10.6667H6.74292L13.854 3.55556L12.4444 2.14597L5.33333 9.25708ZM0 3.55556C0 2.57372 0.795938 1.77778 1.77778 1.77778H6.22222C6.71314 1.77778 7.11111 2.17575 7.11111 2.66667C7.11111 3.15759 6.71314 3.55556 6.22222 3.55556H1.77778V14.2222H12.4444V9.77778C12.4444 9.28686 12.8424 8.88889 13.3333 8.88889C13.8243 8.88889 14.2222 9.28686 14.2222 9.77778V14.2222C14.2222 15.2041 13.4263 16 12.4444 16H1.77778C0.795938 16 0 15.2041 0 14.2222V3.55556Z" fill="white" fill-opacity="0.6"/>
</svg>
