<svg width="33" height="32" viewBox="0 0 33 32" fill="none" xmlns="http://www.w3.org/2000/svg">
<path d="M4.01465 6.82843V10C4.01465 11.1046 3.11922 12 2.01465 12C0.910079 12 0.0146488 11.1046 0.0146488 10L0.0146484 2C0.0146484 0.895431 0.910079 7.15256e-07 2.01465 5.96046e-07L10.0147 0C11.1192 0 12.0147 0.89543 12.0147 2C12.0147 3.10457 11.1192 4 10.0147 4H6.84308L11.4289 8.58579C12.2099 9.36684 12.2099 10.6332 11.4289 11.4142C10.6478 12.1953 9.38148 12.1953 8.60044 11.4142L4.01465 6.82843ZM22.0146 4C20.9101 4 20.0146 3.10457 20.0146 2C20.0146 0.895432 20.9101 2.02656e-06 22.0146 2.02656e-06H30.0146C31.1192 2.02656e-06 32.0146 0.895432 32.0146 2V10C32.0146 11.1046 31.1192 12 30.0146 12C28.9101 12 28.0146 11.1046 28.0146 10V6.82843L23.4289 11.4142C22.6478 12.1953 21.3815 12.1953 20.6004 11.4142C19.8194 10.6332 19.8194 9.36684 20.6004 8.58579L25.1862 4H22.0146ZM2.01465 20C3.11922 20 4.01465 20.8954 4.01465 22L4.01465 25.1716L8.60044 20.5858C9.38148 19.8047 10.6478 19.8047 11.4289 20.5858C12.2099 21.3668 12.2099 22.6332 11.4289 23.4142L6.84308 28H10.0146C11.1192 28 12.0146 28.8954 12.0146 30C12.0146 31.1046 11.1192 32 10.0146 32H2.01465C1.48422 32 0.975508 31.7893 0.600435 31.4142C0.225362 31.0391 0.0146484 30.5304 0.0146484 30L0.0146489 22C0.0146489 20.8954 0.910079 20 2.01465 20ZM20.6004 23.4142C19.8194 22.6332 19.8194 21.3668 20.6004 20.5858C21.3815 19.8047 22.6478 19.8047 23.4289 20.5858L28.0146 25.1716V22C28.0146 20.8954 28.9101 20 30.0146 20C31.1192 20 32.0146 20.8954 32.0146 22V30C32.0146 31.1046 31.1192 32 30.0146 32H22.0146C20.9101 32 20.0146 31.1046 20.0146 30C20.0146 28.8954 20.9101 28 22.0146 28H25.1862L20.6004 23.4142Z" fill="white" fill-opacity="0.4"/>
</svg>
