<svg width="25" height="24" viewBox="0 0 25 24" fill="none" xmlns="http://www.w3.org/2000/svg">
<path d="M12.4445 4C10.2353 4 8.44446 5.79086 8.44446 8C8.44446 10.2091 10.2353 12 12.4445 12C14.6536 12 16.4445 10.2091 16.4445 8C16.4445 5.79086 14.6536 4 12.4445 4ZM6.44446 8C6.44446 4.68629 9.13075 2 12.4445 2C15.7582 2 18.4445 4.68629 18.4445 8C18.4445 11.3137 15.7582 14 12.4445 14C9.13075 14 6.44446 11.3137 6.44446 8ZM8.44446 18C6.7876 18 5.44446 19.3431 5.44446 21C5.44446 21.5523 4.99674 22 4.44446 22C3.89217 22 3.44446 21.5523 3.44446 21C3.44446 18.2386 5.68304 16 8.44446 16H16.4445C19.2059 16 21.4445 18.2386 21.4445 21C21.4445 21.5523 20.9967 22 20.4445 22C19.8922 22 19.4445 21.5523 19.4445 21C19.4445 19.3431 18.1013 18 16.4445 18H8.44446Z" fill="white" fill-opacity="0.6"/>
</svg>
