<svg width="28" height="28" viewBox="0 0 28 28" fill="none" xmlns="http://www.w3.org/2000/svg">
<circle cx="14" cy="14.0002" r="11.6667" fill="#C13584" fill-opacity="0.7"/>
<path d="M14 8.26125C15.8691 8.26125 16.0905 8.2684 16.8286 8.30207C17.5111 8.33319 17.8817 8.44723 18.1284 8.54309C18.4551 8.67008 18.6883 8.82176 18.9333 9.0667C19.1782 9.31167 19.3299 9.54485 19.4569 9.87159C19.5528 10.1183 19.6668 10.4889 19.6979 11.1714C19.7316 11.9095 19.7387 12.1309 19.7387 14C19.7387 15.869 19.7316 16.0904 19.6979 16.8286C19.6668 17.5111 19.5528 17.8817 19.4569 18.1284C19.3299 18.4551 19.1782 18.6883 18.9333 18.9332C18.6883 19.1782 18.4551 19.3299 18.1284 19.4569C17.8817 19.5527 17.5111 19.6668 16.8286 19.6979C16.0906 19.7316 15.8692 19.7387 14 19.7387C12.1308 19.7387 11.9094 19.7316 11.1714 19.6979C10.4889 19.6668 10.1183 19.5527 9.8716 19.4569C9.54486 19.3299 9.31167 19.1782 9.06674 18.9332C8.8218 18.6883 8.67008 18.4551 8.5431 18.1284C8.44723 17.8817 8.3332 17.5111 8.30208 16.8286C8.2684 16.0904 8.26126 15.869 8.26126 14C8.26126 12.1309 8.2684 11.9095 8.30208 11.1714C8.3332 10.4889 8.44723 10.1183 8.5431 9.87159C8.67008 9.54485 8.82177 9.31167 9.06674 9.06673C9.31167 8.82176 9.54486 8.67008 9.8716 8.54309C10.1183 8.44723 10.4889 8.33319 11.1714 8.30207C11.9095 8.2684 12.1309 8.26125 14 8.26125ZM14 7C12.0989 7 11.8605 7.00806 11.1139 7.04212C10.3688 7.07611 9.85999 7.19445 9.41473 7.36748C8.95442 7.54636 8.56405 7.78572 8.17487 8.17487C7.78572 8.56404 7.54637 8.95442 7.3675 9.41473C7.19445 9.85998 7.07611 10.3688 7.04212 11.1139C7.00806 11.8605 7 12.0989 7 14C7 15.9011 7.00806 16.1394 7.04212 16.8861C7.07611 17.6311 7.19445 18.14 7.3675 18.5852C7.54637 19.0455 7.78572 19.4359 8.17487 19.8251C8.56405 20.2142 8.95442 20.4536 9.41473 20.6324C9.85999 20.8055 10.3688 20.9238 11.1139 20.9578C11.8605 20.9919 12.0989 21 14 21C15.9011 21 16.1395 20.9919 16.8861 20.9578C17.6312 20.9238 18.14 20.8055 18.5853 20.6324C19.0456 20.4536 19.436 20.2142 19.8251 19.8251C20.2143 19.4359 20.4536 19.0455 20.6325 18.5852C20.8055 18.14 20.9239 17.6311 20.9579 16.8861C20.9919 16.1394 21 15.9011 21 14C21 12.0989 20.9919 11.8605 20.9579 11.1139C20.9239 10.3688 20.8055 9.85998 20.6325 9.41473C20.4536 8.95442 20.2143 8.56404 19.8251 8.17487C19.436 7.78572 19.0456 7.54636 18.5853 7.36748C18.14 7.19445 17.6312 7.07611 16.8861 7.04212C16.1395 7.00806 15.9011 7 14 7Z" fill="white"/>
<path d="M14.0032 10.4087C12.0179 10.4087 10.4086 12.018 10.4086 14.0033C10.4086 15.9885 12.0179 17.5979 14.0032 17.5979C15.9884 17.5979 17.5978 15.9885 17.5978 14.0033C17.5978 12.018 15.9884 10.4087 14.0032 10.4087ZM14.0032 16.3366C12.7145 16.3366 11.6698 15.2919 11.6698 14.0033C11.6698 12.7146 12.7145 11.6699 14.0032 11.6699C15.2918 11.6699 16.3365 12.7146 16.3365 14.0033C16.3365 15.2919 15.2918 16.3366 14.0032 16.3366Z" fill="white"/>
<path d="M18.5798 10.2643C18.5798 10.7282 18.2037 11.1043 17.7398 11.1043C17.2759 11.1043 16.8998 10.7282 16.8998 10.2643C16.8998 9.80041 17.2759 9.42432 17.7398 9.42432C18.2037 9.42432 18.5798 9.80041 18.5798 10.2643Z" fill="white"/>
</svg>
