<svg width="14" height="16" viewBox="0 0 14 16" fill="none" xmlns="http://www.w3.org/2000/svg">
<path fill-rule="evenodd" clip-rule="evenodd" d="M10.1918 6.15007C9.88132 6.15007 9.62932 5.89807 9.62932 5.58757V3.97732C9.62932 2.40532 8.35057 1.12657 6.77857 1.12657H6.76657C6.00682 1.12657 5.29507 1.41907 4.75732 1.95232C4.21582 2.48782 3.91657 3.20257 3.91357 3.96457V5.58757C3.91357 5.89807 3.66157 6.15007 3.35107 6.15007C3.04057 6.15007 2.78857 5.89807 2.78857 5.58757V3.97732C2.79307 2.89732 3.21082 1.90057 3.96457 1.15357C4.71907 0.405819 5.71507 -0.0269308 6.78082 0.00156922C8.97082 0.00156922 10.7543 1.78507 10.7543 3.97732V5.58757C10.7543 5.89807 10.5023 6.15007 10.1918 6.15007Z" fill="white"/>
<path fill-rule="evenodd" clip-rule="evenodd" d="M3.9065 6.09666C2.648 6.09666 1.625 7.11966 1.625 8.37816V11.5949C1.625 12.8534 2.648 13.8764 3.9065 13.8764H9.63725C10.895 13.8764 11.9187 12.8534 11.9187 11.5949V8.37816C11.9187 7.11966 10.895 6.09666 9.63725 6.09666H3.9065ZM9.63725 15.0014H3.9065C2.02775 15.0014 0.5 13.4737 0.5 11.5949V8.37818C0.5 6.49943 2.02775 4.97168 3.9065 4.97168H9.63725C11.516 4.97168 13.0438 6.49943 13.0438 8.37818V11.5949C13.0438 13.4737 11.516 15.0014 9.63725 15.0014Z" fill="white"/>
<path fill-rule="evenodd" clip-rule="evenodd" d="M6.77197 11.3818C6.46147 11.3818 6.20947 11.1298 6.20947 10.8193V9.15356C6.20947 8.84306 6.46147 8.59106 6.77197 8.59106C7.08247 8.59106 7.33447 8.84306 7.33447 9.15356V10.8193C7.33447 11.1298 7.08247 11.3818 6.77197 11.3818Z" fill="white"/>
</svg>
