<svg width="25" height="24" viewBox="0 0 25 24" fill="none" xmlns="http://www.w3.org/2000/svg">
<path d="M17.9464 2.13509C18.2547 2.31401 18.4445 2.64353 18.4445 3V7C19.6292 7 20.6947 7.51635 21.4257 8.33309C22.0585 9.0401 22.4445 9.97617 22.4445 11C22.4445 12.0238 22.0585 12.9599 21.4257 13.6669C20.6947 14.4836 19.6292 15 18.4445 15V19C18.4445 19.3565 18.2547 19.686 17.9464 19.8649C17.6381 20.0438 17.2578 20.0451 16.9483 19.8682L10.4445 16.1518V21C10.4445 21.5523 9.99674 22 9.44446 22H5.44446C4.89217 22 4.44446 21.5523 4.44446 21V16C3.33989 16 2.44446 15.1046 2.44446 14V8C2.44446 6.89543 3.33989 6 4.44446 6H10.1789L16.9483 2.13176C17.2578 1.9549 17.6381 1.95617 17.9464 2.13509ZM10.4445 14C10.6185 14 10.7895 14.0454 10.9406 14.1318L16.4445 17.2768V4.72318L10.9406 7.86824C10.7895 7.95458 10.6185 8 10.4445 8H4.44446V14H10.4445ZM6.44446 16V20H8.44446V16H6.44446ZM18.4445 13C19.0367 13 19.5678 12.7438 19.9354 12.3331C20.2527 11.9786 20.4445 11.5129 20.4445 11C20.4445 10.4871 20.2527 10.0214 19.9354 9.66691C19.5678 9.25615 19.0367 9 18.4445 9V13Z" fill="white" fill-opacity="0.6"/>
</svg>
