<svg width="13" height="13" viewBox="0 0 13 13" fill="none" xmlns="http://www.w3.org/2000/svg">
<path d="M6.33333 4.92615L10.5559 0.703593C10.9445 0.315009 11.5745 0.315009 11.9631 0.703593C12.3517 1.09218 12.3517 1.7222 11.9631 2.11078L7.74052 6.33333L11.9631 10.5559C12.3517 10.9445 12.3517 11.5745 11.9631 11.9631C11.5745 12.3517 10.9445 12.3517 10.5559 11.9631L6.33333 7.74052L2.11078 11.9631C1.72219 12.3517 1.09218 12.3517 0.703593 11.9631C0.315009 11.5745 0.315009 10.9445 0.703593 10.5559L4.92615 6.33333L0.703593 2.11078C0.315009 1.72219 0.315009 1.09218 0.703593 0.703593C1.09218 0.315009 1.7222 0.315009 2.11078 0.703593L6.33333 4.92615Z" fill="#F76C6C"/>
</svg>
