<svg width="28" height="32" viewBox="0 0 28 32" fill="none" xmlns="http://www.w3.org/2000/svg">
<path d="M14.8684 0.468629C15.4933 -0.15621 16.5063 -0.15621 17.1312 0.468629L21.9312 5.26863C22.556 5.89347 22.556 6.90653 21.9312 7.53137L17.1312 12.3314C16.5063 12.9562 15.4933 12.9562 14.8684 12.3314C14.2436 11.7065 14.2436 10.6935 14.8684 10.0686L16.9371 8H14.3998C8.72346 8 3.9998 12.7237 3.9998 18.4C3.9998 24.0763 8.72346 28.8 14.3998 28.8C20.0761 28.8 24.7998 24.0763 24.7998 18.4C24.7998 17.5163 25.5161 16.8 26.3998 16.8C27.2835 16.8 27.9998 17.5163 27.9998 18.4C27.9998 25.8437 21.8435 32 14.3998 32C6.95615 32 0.799805 25.8437 0.799805 18.4C0.799805 10.9563 6.95615 4.8 14.3998 4.8H16.9371L14.8684 2.73137C14.2436 2.10653 14.2436 1.09347 14.8684 0.468629Z" fill="white" fill-opacity="0.4"/>
</svg>
