<svg width="7" height="7" viewBox="0 0 7 7" fill="none" xmlns="http://www.w3.org/2000/svg">
<path fill-rule="evenodd" clip-rule="evenodd" d="M1.21637 6.49743C1.03342 6.49743 0.850466 6.42787 0.711347 6.2878C0.432155 6.00861 0.432155 5.55695 0.711347 5.27776L5.27751 0.711591C5.5567 0.432399 6.00837 0.432399 6.28756 0.711591C6.56675 0.990783 6.56675 1.44244 6.28756 1.72164L1.72139 6.2878C1.58227 6.42787 1.39932 6.49743 1.21637 6.49743Z" fill="white" fill-opacity="0.6"/>
<path fill-rule="evenodd" clip-rule="evenodd" d="M5.78439 6.5C5.60144 6.5 5.41849 6.43044 5.27937 6.29037L0.709394 1.71944C0.430202 1.44025 0.430202 0.988585 0.709394 0.709394C0.989538 0.430202 1.4412 0.430202 1.71944 0.709394L6.28941 5.28032C6.56861 5.55951 6.56861 6.01118 6.28941 6.29037C6.15029 6.43044 5.96639 6.5 5.78439 6.5Z" fill="white" fill-opacity="0.6"/>
</svg>
