<svg width="19" height="18" viewBox="0 0 19 18" fill="none" xmlns="http://www.w3.org/2000/svg">
<path d="M8.12073 3C5.63545 3 3.62073 5.01472 3.62073 7.5C3.62073 9.98528 5.63545 12 8.12073 12C10.606 12 12.6207 9.98528 12.6207 7.5C12.6207 5.01472 10.606 3 8.12073 3ZM2.12073 7.5C2.12073 4.18629 4.80702 1.5 8.12073 1.5C11.4344 1.5 14.1207 4.18629 14.1207 7.5C14.1207 8.88653 13.6504 10.1632 12.8606 11.1792L16.9011 15.2197C17.194 15.5126 17.194 15.9874 16.9011 16.2803C16.6082 16.5732 16.1333 16.5732 15.8404 16.2803L11.8 12.2399C10.7839 13.0297 9.50726 13.5 8.12073 13.5C4.80702 13.5 2.12073 10.8137 2.12073 7.5Z" fill="white" fill-opacity="0.6"/>
</svg>
