<svg width="30" height="32" viewBox="0 0 30 32" fill="none" xmlns="http://www.w3.org/2000/svg">
<path d="M9.67405 3.55556C8.69221 3.55556 7.89627 4.35149 7.89627 5.33333C7.89627 6.31517 8.69221 7.11111 9.67405 7.11111C10.6559 7.11111 11.4518 6.31517 11.4518 5.33333C11.4518 4.35149 10.6559 3.55556 9.67405 3.55556ZM4.64419 3.55556C5.37634 1.4841 7.35188 0 9.67405 0C11.9962 0 13.9717 1.4841 14.7039 3.55556H27.4518C28.4337 3.55556 29.2296 4.35149 29.2296 5.33333C29.2296 6.31517 28.4337 7.11111 27.4518 7.11111H14.7039C13.9717 9.18256 11.9962 10.6667 9.67405 10.6667C7.35188 10.6667 5.37634 9.18256 4.64419 7.11111H2.56293C1.58109 7.11111 0.785156 6.31517 0.785156 5.33333C0.785156 4.35149 1.58109 3.55556 2.56293 3.55556H4.64419ZM20.3407 14.2222C19.3589 14.2222 18.5629 15.0182 18.5629 16C18.5629 16.9818 19.3589 17.7778 20.3407 17.7778C21.3226 17.7778 22.1185 16.9818 22.1185 16C22.1185 15.0182 21.3226 14.2222 20.3407 14.2222ZM15.3109 14.2222C16.043 12.1508 18.0185 10.6667 20.3407 10.6667C22.6629 10.6667 24.6384 12.1508 25.3706 14.2222H27.4518C28.4337 14.2222 29.2296 15.0182 29.2296 16C29.2296 16.9818 28.4337 17.7778 27.4518 17.7778H25.3706C24.6384 19.8492 22.6629 21.3333 20.3407 21.3333C18.0185 21.3333 16.043 19.8492 15.3109 17.7778H2.56293C1.58109 17.7778 0.785156 16.9818 0.785156 16C0.785156 15.0182 1.58109 14.2222 2.56293 14.2222H15.3109ZM9.67405 24.8889C8.69221 24.8889 7.89627 25.6848 7.89627 26.6667C7.89627 27.6485 8.69221 28.4444 9.67405 28.4444C10.6559 28.4444 11.4518 27.6485 11.4518 26.6667C11.4518 25.6848 10.6559 24.8889 9.67405 24.8889ZM4.64419 24.8889C5.37634 22.8174 7.35188 21.3333 9.67405 21.3333C11.9962 21.3333 13.9717 22.8174 14.7039 24.8889H27.4518C28.4337 24.8889 29.2296 25.6848 29.2296 26.6667C29.2296 27.6485 28.4337 28.4444 27.4518 28.4444H14.7039C13.9717 30.5159 11.9962 32 9.67405 32C7.35188 32 5.37634 30.5159 4.64419 28.4444H2.56293C1.58109 28.4444 0.785156 27.6485 0.785156 26.6667C0.785156 25.6848 1.58109 24.8889 2.56293 24.8889H4.64419Z" fill="white" fill-opacity="0.4"/>
</svg>
