<svg width="32" height="32" viewBox="0 0 32 32" fill="none" xmlns="http://www.w3.org/2000/svg">
<path d="M16 0C16.6061 0 17.1601 0.358538 17.4311 0.926134L21.5574 9.56749L30.6304 10.9494C31.233 11.0412 31.7336 11.4832 31.9217 12.0896C32.1099 12.6961 31.953 13.3618 31.517 13.8069L24.9136 20.5486L26.399 30.054C26.4972 30.6823 26.2469 31.3144 25.7531 31.6857C25.2592 32.0569 24.6071 32.1029 24.0701 31.8046L16 27.3207L7.92999 31.8046C7.39299 32.1029 6.74089 32.0569 6.24703 31.6857C5.75318 31.3144 5.50288 30.6823 5.60105 30.054L7.08649 20.5486L0.483086 13.8069C0.0470775 13.3618 -0.109819 12.6961 0.0783513 12.0896C0.266522 11.4832 0.767133 11.0412 1.36974 10.9494L10.4427 9.56749L14.569 0.926134C14.84 0.358538 15.394 0 16 0ZM16 5.42168L12.9311 11.8487C12.697 12.3391 12.2485 12.6785 11.7304 12.7574L5.03747 13.7768L9.91701 18.7585C10.2909 19.1403 10.4634 19.689 10.379 20.2287L9.28006 27.2612L15.2501 23.9441C15.7191 23.6835 16.281 23.6835 16.75 23.9441L22.72 27.2612L21.621 20.2287C21.5367 19.689 21.7092 19.1403 22.0831 18.7585L26.9626 13.7768L20.2697 12.7574C19.7516 12.6785 19.3031 12.3391 19.069 11.8487L16 5.42168Z" fill="white" fill-opacity="0.4"/>
</svg>
