<svg width="16" height="16" viewBox="0 0 16 16" fill="none" xmlns="http://www.w3.org/2000/svg">
<path d="M8.66724 3.99988C8.66724 4.36804 8.36877 4.6665 8.00061 4.6665C7.63245 4.6665 7.33398 4.36804 7.33398 3.99988C7.33398 3.63171 7.63245 3.33325 8.00061 3.33325C8.36877 3.33325 8.66724 3.63171 8.66724 3.99988Z" fill="black" fill-opacity="0.5"/>
<path d="M8.00061 12.6666C7.72461 12.6666 7.50061 12.4426 7.50061 12.1666V7H6.83398C6.55798 7 6.33398 6.776 6.33398 6.5C6.33398 6.224 6.55798 6 6.83398 6H8.00061C8.27661 6 8.50061 6.224 8.50061 6.5V12.1666C8.50061 12.4426 8.27661 12.6666 8.00061 12.6666Z" fill="black" fill-opacity="0.5"/>
<path d="M8 16C3.58862 16 0 12.4114 0 8C0 3.58862 3.58862 0 8 0C12.4114 0 16 3.58862 16 8C16 12.4114 12.4114 16 8 16ZM8 1C4.14001 1 1 4.14001 1 8C1 11.86 4.14001 15 8 15C11.86 15 15 11.86 15 8C15 4.14001 11.86 1 8 1Z" fill="black" fill-opacity="0.5"/>
<path d="M9.5 12.6667H6.5C6.224 12.6667 6 12.4427 6 12.1667C6 11.8907 6.224 11.6667 6.5 11.6667H9.5C9.776 11.6667 10 11.8907 10 12.1667C10 12.4427 9.776 12.6667 9.5 12.6667Z" fill="black" fill-opacity="0.5"/>
</svg>
