<svg width="28" height="28" viewBox="0 0 28 28" fill="none" xmlns="http://www.w3.org/2000/svg">
<circle cx="14" cy="14.0002" r="11.6667" fill="#1DA1F2" fill-opacity="0.7"/>
<path fill-rule="evenodd" clip-rule="evenodd" d="M21 9.51321C20.4853 9.74187 19.9314 9.89585 19.3504 9.96538C19.9435 9.60981 20.399 9.04704 20.6132 8.37649C20.0588 8.70593 19.4433 8.94439 18.7895 9.07364C18.2655 8.51555 17.5184 8.1665 16.693 8.1665C15.1069 8.1665 13.8208 9.45255 13.8208 11.0386C13.8208 11.2636 13.8465 11.4829 13.8955 11.6933C11.5082 11.5739 9.39197 10.4302 7.97527 8.6924C7.72795 9.11657 7.58656 9.60981 7.58656 10.1362C7.58656 11.1324 8.09286 12.0116 8.86421 12.5268C8.39291 12.5118 7.95054 12.3826 7.56276 12.1674V12.2034C7.56276 13.5953 8.55343 14.7559 9.86654 15.0204C9.62576 15.0858 9.37191 15.1212 9.11013 15.1212C8.92487 15.1212 8.74475 15.103 8.56929 15.0694C8.93467 16.2104 9.9958 17.041 11.2524 17.0643C10.2697 17.8343 9.03126 18.2939 7.68549 18.2939C7.4531 18.2939 7.22445 18.2804 7 18.2533C8.27112 19.068 9.78068 19.544 11.4027 19.544C16.6855 19.544 19.5744 15.1674 19.5744 11.3723C19.5744 11.2477 19.5721 11.1236 19.566 11.0009C20.1279 10.5949 20.615 10.089 21 9.51321Z" fill="white"/>
</svg>
