<svg width="1920" height="1609" fill="none" xmlns="http://www.w3.org/2000/svg"><path d="M0 0h1925v1552H0V0z" fill="url(#paint0_linear)"/><circle cx="490.5" cy="198.5" r="57.5" fill="#FFD644"/><path d="M1476.77 62.953c-17.43 1.366-4.18.281 4.92-.172 13.93-.694 52.78-2.832 67.16-1.516 22.18 2.029-4.29 9.47-6.59 10.239-8.88 2.972-42.39 11.537-51.76 13.88-26.83 6.714-53.96 12.483-80.2 21.373-31.73 10.748 17.49 2.25 22.45 1.578 86.86-11.763 175.31-32.643 263.44-28.814 3.45.15 31.01-.719 31.12 7.82.17 13.584-32.5 25.882-40.9 30.424-16.39 8.853-38.69 17.964-50.37 33.307-8.82 11.596 18.18 12.3 22.04 12.586 68.95 5.116 136.63-11.097 204.99-16.31 7.52-.573 28.73-.498 22.33 3.509-21.9 13.734-53.76 18.024-78.08 25.617-28.83 9-58.55 16.193-86.93 26.519-16.92 6.153-11.2 8.056-.23 13.011" stroke="#fff" stroke-width="2" stroke-linecap="round"/><path d="M-33.424 1333.17c46.527-18.03 93.124-38.17 141.561-52.03 24.836-7.11-11.194 21.26-13.548 23.22-24.147 20.15-50.179 38.55-75.757 57.26-13.709 10.03-27.634 19.85-41.196 30.03-3.952 2.96-18.704 11.9-19.63 17.87-.626 4.03 53.91-14.32 55.297-14.83 39.636-14.53 80.49-34.03 123.312-40.12 29.401-4.18-12.485 24.74-17.142 28.45-31.065 24.72-65.015 46.85-98.014 69.53-12.185 8.38-26.163 18.26-.968 12.65 27.875-6.21 54.527-16.16 82.669-21.64 14.391-2.8 20.963.08 7.604 10.33-19.23 14.76-43.238 23.54-64.975 34.89-6.894 3.6 16.99-4.57 18.387-5.1 3.356-1.29 44.983-16.14 42.026-4.62-4.016 15.64-29.065 30.34-39.814 42.55-8.628 9.8-11.484 18.45-12.719 30.39" stroke="#FBFBFB" stroke-width="2" stroke-linecap="round"/><path d="M-70 1523l313.281 57 455.367-57 546.642 57h317.72l408.99-57" stroke="#6C5CE7" stroke-width="57"/><path d="M1545.27 1495.2c2.61.34 5.28-2.71 6.85-4.38 2.28-2.44 4.73-4.5 7.35-6.63 5.42-4.44 9.15-10.65 13.92-15.74 1.38-1.51 3.77.65 2.34 2.15-5.24 5.63-9.35 12.19-15.5 17.02-2.89 2.26-5.16 5.05-7.88 7.45-2.17 1.92-4.73 3.61-7.76 3.18-2.09-.23-1.39-3.32.68-3.05z" fill="#fff"/><path d="M1576.61 1472.43c-.66 1.82 3.37 1.99 4.33 1.96 3.13-.04 6.14-.84 8.69-2.68 4.33-3.12 6.96-8 11.4-10.94 11.12-7.31 25.3-5.44 37.91-6.55 6.83-.58 13.88-2.1 19.3-6.55 1.57-1.27 3.92.88 2.34 2.15-11.6 9.62-27.45 7.28-41.45 8.62-6.6.63-13.82 2.26-18.79 6.91-4.4 4.13-7.59 9.48-13.72 11.35-4.16 1.28-15.61 1.66-12.84-5.8.68-1.92 3.51-.39 2.83 1.53z" fill="#fff"/><path d="M1588 1477.16c-4.69 2.1-4.54 8.74.04 10.86 2.47 1.14 5.19.13 7.53-.82 2.74-1.11 5.43-2.28 8.09-3.51 11-4.96 21.62-10.71 31.85-17.13 1.74-1.09 3.46 1.62 1.73 2.71-9.6 6.02-19.5 11.43-29.81 16.21-2.55 1.15-5.09 2.31-7.67 3.4-2.42 1.03-4.92 2.24-7.55 2.69-4.28.71-8.58-1.59-10.29-5.67-1.99-4.64.71-9.8 5.13-11.76 1.88-.86 2.84 2.16.95 3.02z" fill="#fff"/><path d="M1594.01 1490.59c-3.33 2.46-.13 7.66 2.9 8.74 5.15 1.85 11.15-1.23 15.77-3.2 10.86-4.61 21.36-10.03 31.48-16.13 1.78-1.08 3.5 1.62 1.72 2.7a253.95 253.95 0 01-28.96 15.07c-7.22 3.21-20.07 9.78-25.87.69-2.15-3.45-2.21-8.04 1.24-10.57 1.66-1.2 3.39 1.5 1.72 2.7z" fill="#fff"/><path d="M1605.1 1500.68c.19 5.07 6.05 6.64 10.23 6.15 5.05-.59 10.18-2.69 14.81-4.7 9.14-4.01 17.48-9.72 24.6-16.65 1.46-1.44 3.81.71 2.34 2.16-6.36 6.21-13.6 11.43-21.55 15.46-3.97 1.96-8.03 3.71-12.25 5.03-4.34 1.39-9.22 2.8-13.74 1.49-4.01-1.15-7.48-4.49-7.65-8.82-.08-2.04 3.13-2.21 3.21-.12zm22.35-32.24c4.08-1.59 8.76-3.2 13.05-1.3 3.34 1.49 5.9 5.32 4.67 8.99-.68 1.92-3.79 1.22-3.11-.7.89-2.66-1.33-5.13-3.87-5.75-3.29-.84-6.75.65-9.74 1.8-1.95.74-2.91-2.28-1-3.04z" fill="#fff"/><path d="M1645.01 1477.97c4.69-2.99 11.26 1.6 10.3 6.95-.36 2.04-3.53 1.33-3.12-.7.51-2.7-3.14-5-5.45-3.59-1.75 1.18-3.48-1.53-1.73-2.66zm-15.34-12.33c1.68-2.63-1.5-5.71-3.9-3.44-1.45 1.4-3.84-.77-2.34-2.15 2.09-2 5.46-2.42 7.82-.56 2.28 1.79 2.8 5.21 1.25 7.68-1.07 1.68-3.92.2-2.83-1.53z" fill="#fff"/><path d="M1650.4 1488.2c12.73-7.14 23.74-17.03 32.09-28.96 1.16-1.66 4.01-.18 2.83 1.53a100.828 100.828 0 01-33.2 30.14c-1.77 1.03-3.49-1.67-1.72-2.71zm-74.76-18.51c2.38-6.61 7.72-11.37 12.6-16.29 5.45-5.47 10.91-10.95 16.36-16.43 4.74-4.75 9.41-9.81 15.09-13.46 5.27-3.35 11.35-4.99 17.58-5.31 7.12-.32 14.3.86 21.32 2.09 2.06.36 1.36 3.46-.69 3.1-11.52-2-24.43-4.17-35.1 1.96-5.47 3.15-9.89 7.78-14.26 12.21-5.08 5.12-10.14 10.19-15.22 15.31-2.75 2.74-5.48 5.42-8.15 8.22-2.6 2.72-5.05 5.67-6.36 9.27-.68 1.92-3.85 1.25-3.17-.67zm-26.91 29.34c-3.88-1.07-6.08 4.3-2.18 5.92 1.77.74 3.7-.55 5.06-1.52 1.82-1.27 3.62-2.64 5.42-4.01 7.36-5.59 14.51-11.52 21.36-17.72 1.51-1.38 3.9.78 2.35 2.16-4.55 4.1-9.22 8.08-13.96 11.94-2.49 2-5.02 4-7.54 5.94-2.27 1.71-4.48 3.58-6.9 5.06-1.95 1.18-4.22 2-6.5 1.29-2.17-.68-3.89-2.55-4.44-4.74-1.15-4.6 3.63-8.6 8.07-7.4 1.97.54 1.27 3.63-.74 3.08z" fill="#fff"/><path d="M1658.35 1417.62c13.84 8.2 24.32 21.4 29 36.75.61 1.96-2.45 2.95-3.04.95-4.43-14.51-14.29-27.13-27.44-34.87-1.8-1.05-.27-3.86 1.48-2.83z" fill="#fff"/><path d="M1655.85 1418.34c-1.03-1.12-2.11-2.3-3.15-3.42.75-.03 1.5-.05 2.26-.08-2.4 2.47-6.62 4.03-9.27 1.02-2.32-2.69-1.07-6.7 2.64-7.1 3.46-.35 7.18 1.86 9.66 4.05 2.73 2.44 4.72 5.74 5.51 9.28.45 1.97-2.6 2.96-3.04.94-.94-4.21-3.64-7.87-7.5-9.92-.95-.41-5.21-2.41-5.29-.31-.03 1.03 1.17 1.65 2.03 1.55 1.17-.09 2.13-.86 2.91-1.67.57-.56 1.65-.71 2.25-.08 1.04 1.12 2.12 2.3 3.16 3.42 1.4 1.5-.77 3.82-2.17 2.32zm30.64 39a386.797 386.797 0 0038.43-22.31c1.7-1.15 3.42 1.56 1.72 2.7-12.36 8.17-25.2 15.58-38.43 22.31-1.84.92-3.58-1.74-1.72-2.7z" fill="#fff"/><path d="M1650.59 1413.26c.04.06.03.11.06.21.13.53.07 1.2-.35 1.55-1.55 1.38-4.18.24-3.43-1.95.44-1.33 1.92-1.94 3.05-2.57 1.31-.74 2.57-1.49 3.87-2.18 5.42-3.12 10.83-6.19 16.25-9.31 10.89-6.28 21.83-12.54 32.73-18.81 1.77-1.03 3.49 1.67 1.72 2.7-9.18 5.28-18.35 10.51-27.53 15.79-4.56 2.62-9.18 5.28-13.74 7.9-2.23 1.28-4.39 2.51-6.62 3.79-1.08.64-2.22 1.27-3.31 1.91-.39.21-3.32 1.52-3.36 1.96-.06-.41-.12-.82-.23-1.19.03.06.07.12.15.19-.34-.23-.69-.46-.98-.72-.28.14-.59.21-.87.35-.12.51-.23 1.03-.35 1.55-.04-.06-.02-.11-.05-.21-.56-1.95 2.5-2.94 2.99-.96zm24.86-5c2.22-4.77 11.16-3.94 11.09 1.91-.06 2.69-2.65 4.68-5.14 4.95-1.23.17-2.55-.13-3.52-.89-1.73-1.37-1.24-3.09-1.1-5.03.16-2.03 3.37-2.2 3.21-.16-.01.49-.39 2.38-.16 2.67.33.32.93.31 1.34.25.98-.17 2.36-.99 2.21-2.11-.36-2.35-4.23-1.69-5-.04-.96 1.8-3.8.33-2.93-1.55zm-46.81 54.68a118.067 118.067 0 00-31.82 15.17c-1.69 1.15-3.42-1.56-1.72-2.7 10.01-6.77 20.98-12.04 32.59-15.54 1.96-.54 2.92 2.48.95 3.07zM1450.8 227.965c15.17-4.646 30.49-8.742 45.94-12.338a693.124 693.124 0 0146.83-9.162 648.4 648.4 0 0126.62-3.702l-.63-1.496c-9.55 9.267-19.09 18.507-28.62 27.775-9.54 9.267-19.09 18.508-28.61 27.775l-16.11 15.62c-.8.787.42 1.995 1.23 1.234 9.54-9.267 19.09-18.508 28.61-27.775 9.55-9.241 19.1-18.508 28.62-27.775 5.36-5.198 10.75-10.423 16.1-15.621.5-.472.16-1.575-.59-1.496a683.025 683.025 0 00-47.22 7.298 690.701 690.701 0 00-46.7 10.58 675.645 675.645 0 00-25.91 7.377c-1.07.367-.63 2.048.44 1.706z" fill="#fff"/><path d="M1449.13 227.781c7.73 3.072 15.43 6.143 23.16 9.215 1.71.683 3.46 1.496 5.33 1.68 1.87.21 3.67-.341 5.39-.997 3.92-1.549 7.8-3.203 11.7-4.805 15.4-6.326 30.81-12.653 46.21-18.98 8.71-3.57 17.43-7.167 26.12-10.737 1.01-.42.57-2.101-.47-1.68-15.3 6.3-30.6 12.574-45.89 18.849-7.65 3.15-15.3 6.274-22.95 9.424-3.82 1.576-7.65 3.151-11.47 4.7-1.82.761-3.64 1.601-5.52 2.152-1.95.578-3.69.342-5.59-.341-4.22-1.549-8.38-3.334-12.57-4.988-4.31-1.733-8.66-3.465-13-5.172-1.04-.42-1.49 1.26-.45 1.68z" fill="#fff"/><path d="M1566 202.737c-10.17 5.933-20.35 11.866-30.52 17.825-10.17 5.959-20.34 11.866-30.52 17.825-5.75 3.361-11.5 6.721-17.27 10.081a.843.843 0 00-.39.972c2 8.164 4.94 16.092 8.74 23.601.49.997 2 .105 1.48-.893a109.81 109.81 0 01-8.56-23.181c-.13.341-.26.656-.39.971 10.18-5.933 20.35-11.866 30.52-17.825 10.17-5.959 20.35-11.866 30.52-17.825 5.75-3.361 11.5-6.721 17.27-10.081.94-.525.08-2.048-.88-1.47zm-87.21 37.016c1.12 0 1.12-1.733 0-1.733s-1.12 1.733 0 1.733z" fill="#fff"/><path d="M1488.39 250.569c.81-.63.29-1.943-.62-2.179-1.04-.263-1.64.735-1.95 1.575-1.04 2.966-1.9 6.038-2.84 9.057-1.87 5.985-3.75 11.945-5.64 17.93-.34 1.077 1.32 1.523 1.66.473 1.46-4.673 2.94-9.32 4.4-13.993.73-2.31 1.45-4.594 2.16-6.904.36-1.155.72-2.31 1.09-3.465.18-.552.34-1.103.52-1.654.1-.342.18-.683.31-.998l.08-.21c.23-.315.1-.604-.39-.892-.86.708.36 1.942 1.22 1.26z" fill="#fff"/><path d="M1476.71 238.177c.83 13.468.55 27.014-.94 40.429-.13 1.103 1.62 1.103 1.72 0a238.413 238.413 0 00.94-40.429c-.05-1.102-1.77-1.128-1.72 0zm-73.29 56.889a167.161 167.161 0 0134.27-30.531c3.64-2.415 7.36-4.699 11.18-6.852.97-.551.11-2.048-.86-1.496-13.5 7.587-25.96 17.011-36.89 27.985a163.383 163.383 0 00-8.89 9.661c-.73.866.47 2.1 1.19 1.233zm11.35 14.597a165.91 165.91 0 0125.21-27.644c2.68-2.363 5.43-4.62 8.27-6.799.86-.657 0-2.179-.86-1.497-10.09 7.745-19.33 16.618-27.45 26.463-2.31 2.809-4.52 5.67-6.63 8.61-.68.893.81 1.759 1.46.867z" fill="#fff"/><path d="M1481.39 236.313c-2.05 4.647-4.11 9.294-6.16 13.94-.44 1.024 1.04 1.891 1.48.867 2.06-4.647 4.11-9.294 6.17-13.94.44-.998-1.04-1.89-1.49-.867zm5.36-1.496c-3.2 6.248-6.11 12.628-8.79 19.138-.42 1.024 1.25 1.497 1.66.473a247.999 247.999 0 018.62-18.718c.49-.998-.99-1.89-1.49-.893zm5.05-1.969a128.953 128.953 0 00-8.87 21.842c-.34 1.077 1.33 1.523 1.66.473 2.24-7.403 5.15-14.57 8.69-21.422.52-.998-.96-1.89-1.48-.893zm4.76-1.155c-1.9 4.699-3.82 9.425-5.72 14.124-.42 1.024 1.25 1.496 1.66.472 1.9-4.699 3.83-9.424 5.73-14.123.41-1.05-1.25-1.497-1.67-.473zm7.81-3.623c-2.19 3.859-4.4 7.745-6.59 11.63-.54.971.94 1.838 1.49.866 2.18-3.859 4.39-7.744 6.58-11.629.54-.972-.94-1.838-1.48-.867zm4.76-1.444c-2.03 3.728-4.04 7.482-6.07 11.21-.52.972.97 1.864 1.49.867 2.03-3.728 4.06-7.482 6.06-11.21.52-.972-.96-1.838-1.48-.867zm4.63-2.179c-1.82 3.702-3.67 7.43-5.49 11.158-.5.997.99 1.89 1.48.866 1.82-3.702 3.67-7.429 5.49-11.157.49-.972-.99-1.864-1.48-.867zm4.94-1.339c-1.64 2.993-3.25 6.012-4.89 9.005-.52.971.96 1.864 1.48.866 1.64-2.992 3.25-6.012 4.89-9.004.55-.972-.96-1.838-1.48-.867zm5.7-2.914c-2.5 3.177-4.32 6.826-5.23 10.764-.26 1.076 1.4 1.549 1.66.472a25.702 25.702 0 014.79-10.002c.68-.866-.52-2.126-1.22-1.234zm4.63-1.968l-3.36 7.009c-.49.998 1.02 1.89 1.49.866 1.11-2.336 2.23-4.673 3.35-7.009.5-.971-1.01-1.864-1.48-.866zm4.21-2.022c-1.43 2.757-2.86 5.513-4.26 8.27-.52.997.96 1.864 1.48.866 1.43-2.756 2.84-5.513 4.27-8.269.52-.998-.97-1.864-1.49-.867zm3.36-.761c-1.15 2.1-2.32 4.174-3.46 6.248-.55.971.94 1.864 1.48.866 1.15-2.074 2.32-4.174 3.46-6.248.55-.971-.96-1.837-1.48-.866zm3.82-.945c-1.61 1.128-2.55 2.914-2.52 4.909.03 1.129 1.74 1.129 1.72 0-.03-1.365.57-2.625 1.69-3.413.91-.63.05-2.153-.89-1.496zm2.81.052c-.96.604-1.51 1.575-1.64 2.704-.02.499.45.893.89.893.49 0 .81-.394.86-.866.05-.473.36-.946.78-1.208.91-.604.05-2.1-.89-1.523zm4.53-1.234c1.12 0 1.12-1.732 0-1.732s-1.12 1.732 0 1.732zm4.81-2.1c1.12 0 1.12-1.732 0-1.732-1.09 0-1.12 1.732 0 1.732zm-71.15 44.603c-1.38 3.255-2.76 6.511-4.11 9.74-.42 1.024 1.07 1.916 1.48.866 1.38-3.255 2.76-6.511 4.11-9.74.44-1.023-1.04-1.89-1.48-.866z" fill="#fff"/><path d="M1475.8 238.204a8303.61 8303.61 0 00-1.2 41.741c-.02 1.129 1.69 1.129 1.72 0 .34-13.914.75-27.828 1.2-41.741.02-1.129-1.69-1.129-1.72 0z" fill="#fff"/><path d="M1474.47 275.062v3.492c0 1.129 1.72 1.129 1.72 0v-3.492c0-1.102-1.72-1.129-1.72 0z" fill="#fff"/><path d="M1476.71 276.742c-.7 1.392-1.38 2.783-2.08 4.174-.5.998.99 1.891 1.48.867.7-1.392 1.38-2.783 2.08-4.174.52-.972-.99-1.864-1.48-.867z" fill="#fff"/><path d="M1478.69 274.589c-.91 1.864-1.82 3.728-2.73 5.566-.5.998.98 1.89 1.48.866.91-1.864 1.82-3.728 2.73-5.565.5-.972-.99-1.864-1.48-.867z" fill="#fff"/><path d="M1479.55 274.012c-1.17 2.31-2.37 4.594-3.54 6.904-.52.998.99 1.864 1.48.867 1.17-2.311 2.37-4.595 3.54-6.905.52-.997-.96-1.89-1.48-.866zm-33.33 20.398c3.88-3.728 7.75-7.482 11.65-11.21.81-.761-.41-1.995-1.22-1.234-3.87 3.728-7.75 7.482-11.65 11.21-.78.762.44 1.995 1.22 1.234zm-1233.842 25.5c4.406-15.275 8.863-30.55 13.268-45.825-1.024.153-2.049.255-3.073.408 6.045 11.761 11.27 23.93 15.522 36.456.819-.611 1.639-1.222 2.459-1.884-11.783-7.281-24.846-12.424-38.472-15.02v3.258c14.907-4.124 29.763-8.197 44.67-12.322-.563-.916-1.076-1.833-1.639-2.8a28146.503 28146.503 0 00-39.599 36.965c-1.588 1.477.82 3.87 2.408 2.393 13.165-12.321 26.382-24.643 39.598-36.965 1.23-1.171-.051-3.259-1.639-2.8a11410.802 11410.802 0 00-44.67 12.321c-1.537.408-1.691 2.903 0 3.259a111.121 111.121 0 0137.652 14.664c1.229.713 2.971-.509 2.459-1.935a274.419 274.419 0 00-15.881-37.271c-.666-1.323-2.663-.916-3.073.408-4.406 15.275-8.811 30.55-13.268 45.825-.564 2.087 2.664 2.953 3.278.865zm67.079-55.66c1.586-5.5 3.191-11 4.777-16.499-.369.055-.738.091-1.107.146a96.887 96.887 0 015.589 13.126c.295-.22.59-.44.885-.678a40.991 40.991 0 00-13.851-5.408v1.173c5.367-1.485 10.715-2.951 16.083-4.436-.203-.33-.388-.66-.591-1.008-4.758 4.436-9.517 8.872-14.257 13.309-.571.531.295 1.393.867.861 4.74-4.436 9.499-8.873 14.257-13.309.443-.421-.018-1.173-.59-1.008a4016.104 4016.104 0 00-16.083 4.436c-.553.147-.609 1.045 0 1.173a40.021 40.021 0 0113.556 5.28c.443.257 1.07-.183.886-.697a98.875 98.875 0 00-5.718-13.419c-.24-.476-.959-.329-1.107.147-1.586 5.5-3.172 10.999-4.777 16.499-.203.751.959 1.063 1.181.312zm50.627 28.762c7.896-5.711 15.816-11.402 23.712-17.113-.553-.313-1.086-.65-1.638-.964-1.524 7.961-3.597 15.81-6.275 23.462.627.015 1.253.03 1.899.02-2.938-7.965-7.303-15.381-12.901-21.781l-1.23 1.573c8.754 3.639 17.465 7.283 26.219 10.922.074-.656.173-1.291.266-1.971-11.034.957-22.068 1.914-33.078 2.89-1.324.114-1.065 2.178.259 2.065 11.009-.976 22.044-1.934 33.078-2.891 1.035-.101 1.206-1.592.266-1.971a7192.679 7192.679 0 00-26.219-10.922c-.896-.383-1.912.763-1.231 1.574a68.088 68.088 0 0112.639 21.299c.325.808 1.627.876 1.918-.006a168.19 168.19 0 006.41-23.99c.178-.891-.94-1.449-1.638-.965a9678.11 9678.11 0 01-23.712 17.113c-1.06.795.171 2.431 1.256 1.656z" fill="#fff"/><defs><linearGradient id="paint0_linear" x1="962.5" y1="0" x2="962.5" y2="1552" gradientUnits="userSpaceOnUse"><stop stop-color="#DC52FF"/><stop offset="1" stop-color="#241E6F"/></linearGradient></defs></svg>