<svg width="1920" height="1609" fill="none" xmlns="http://www.w3.org/2000/svg"><path d="M0 0h1925v1552H0V0z" fill="url(#paint0_linear)"/><path d="M1476.77 62.953c-17.43 1.366-4.18.281 4.92-.172 13.93-.694 52.78-2.832 67.16-1.516 22.18 2.029-4.29 9.47-6.59 10.239-8.88 2.972-42.39 11.537-51.76 13.88-26.83 6.714-53.96 12.483-80.2 21.373-31.73 10.748 17.49 2.25 22.45 1.578 86.86-11.763 175.31-32.643 263.44-28.814 3.45.15 31.01-.719 31.12 7.82.17 13.584-32.5 25.882-40.9 30.424-16.39 8.853-38.69 17.964-50.37 33.307-8.82 11.596 18.18 12.3 22.04 12.586 68.95 5.116 136.63-11.097 204.99-16.31 7.52-.573 28.73-.498 22.33 3.509-21.9 13.734-53.76 18.024-78.08 25.617-28.83 9-58.55 16.193-86.93 26.519-16.92 6.153-11.2 8.056-.23 13.011" stroke="#fff" stroke-width="2" stroke-linecap="round"/><path d="M-33.424 1333.17c46.527-18.03 93.124-38.17 141.561-52.03 24.836-7.11-11.194 21.26-13.548 23.22-24.147 20.15-50.179 38.55-75.757 57.26-13.709 10.03-27.634 19.85-41.196 30.03-3.952 2.96-18.704 11.9-19.63 17.87-.626 4.03 53.91-14.32 55.297-14.83 39.636-14.53 80.49-34.03 123.312-40.12 29.401-4.18-12.485 24.74-17.142 28.45-31.065 24.72-65.015 46.85-98.014 69.53-12.185 8.38-26.163 18.26-.968 12.65 27.875-6.21 54.527-16.16 82.669-21.64 14.391-2.8 20.963.08 7.604 10.33-19.23 14.76-43.238 23.54-64.975 34.89-6.894 3.6 16.99-4.57 18.387-5.1 3.356-1.29 44.983-16.14 42.026-4.62-4.016 15.64-29.065 30.34-39.814 42.55-8.628 9.8-11.484 18.45-12.719 30.39" stroke="#FBFBFB" stroke-width="2" stroke-linecap="round"/><path d="M-70 1523l313.281 57 455.367-57 546.642 57h317.72l408.99-57" stroke="#6C5CE7" stroke-width="57"/><defs><linearGradient id="paint0_linear" x1="962.5" y1="0" x2="962.5" y2="1552" gradientUnits="userSpaceOnUse"><stop stop-color="#DC52FF"/><stop offset="1" stop-color="#241E6F"/></linearGradient></defs></svg>