<svg width="129" height="129" fill="none" xmlns="http://www.w3.org/2000/svg"><g filter="url(#filter0_d)"><path d="M105 0H24C12.954 0 4 8.954 4 20v81c0 11.046 8.954 20 20 20h81c11.046 0 20-8.954 20-20V20c0-11.046-8.954-20-20-20z" fill="url(#paint0_linear)"/></g><path d="M119.706 37.907c-2.049-1.437-5.159-.986-7.533-1.183-1.834-.15-3.854-.254-5.763-.61 1.099-.705 2.225-1.38 3.315-2.104 1.061-.704 1.778-1.718 2.718-2.572.391-.366-.018-.967-.493-.854-.931.215-2.151.215-3.017.638-1.294.638-2.514 1.39-3.743 2.15-.242.15-.475.31-.717.46a210.391 210.391 0 002.738-4.469c1.154-1.953 3.277-4.61 2.886-7.013-.037-.235-.354-.413-.568-.329-2.272.892-3.342 4.084-4.413 6.103-1.304 2.44-2.337 4.92-3.333 7.492-.736.497-1.471 1.014-2.198 1.52.4-1.135.801-2.271 1.201-3.417 1.015-2.854 2.98-5.642 3.417-8.618.084-.564-.419-1.07-.977-.751-2.542 1.436-3.408 4.656-4.358 7.285a36.516 36.516 0 00-1.806 7.332c-.82.601-1.63 1.193-2.44 1.803.513-1.408.997-2.835 1.49-4.253.755-2.188.717-4.31 1.248-6.534.13-.535-.466-.808-.847-.498-1.183.948-2.71 2.028-3.464 3.38-.912 1.624-1.508 3.511-2.002 5.304-.493 1.775-.81 3.568-1.135 5.38-.047.244-.066.573-.122.901l-2.709 2.084c-9.376-16.382-31.833-26.728-49.28-17.772C21.6 37.08 14.83 58.14 17.604 75.31c1.378 8.506 6.304 16.514 12.523 22.542a30.526 30.526 0 004.162 3.595c6.2 4.695 15.297 8.328 22.82 5.633 4.926-.469 9.74-1.915 13.864-4.412 8.64-5.239 14.832-15.313 18.379-24.579 3.594-9.38 3.342-19.669-.857-28.738 1.183-.92 2.356-1.84 3.538-2.76.15.112.326.225.55.328.512.245.651.057 1.117.451.67.582 1.462.976 2.263 1.352 3.22 1.474 8.519 2.281 11.554.084.465-.337.354-.929-.149-1.145-3.017-1.277-6.517-.657-9.702-1.408-1.21-.291-2.178-1.117-3.268-1.502a388.8 388.8 0 013.901-2.967c2.579.338 5.075 1.005 7.551 1.821 2.551.845 4.879 1.972 7.588 1.54.541-.085.494-.807.14-1.06-2.3-1.644-5.223-2.132-7.914-2.874-1.722-.47-3.435-.845-5.186-1.023a150.041 150.041 0 014.06-2.835c2.011 1.107 4.273 1.586 6.573 1.915 2.56.366 6.266 1.295 8.575-.291.419-.263.41-.789.019-1.07zM88.32 74.858c-1.686 5.7-4.823 11.004-8.212 15.83-2.999 4.27-6.723 8.026-11.248 10.627-7.001 4.009-16.284 4.619-24.32 2.394-5.222-1.859-9.785-5.492-13.546-9.51a42.003 42.003 0 01-8.119-12.647 51.36 51.36 0 01-2.16-8.571c-.242-2.385-.251-4.798-.112-7.192.475-8.365 3.436-17.04 8.417-23.818 3.203-3.427 7.123-6.169 11.229-8.422.018-.01.01-.047-.019-.037-1.573.385-3.082.91-4.525 1.558 5.251-4.027 11.704-6.252 19.124-5.51 10.167 1.023 21.163 7.022 27.69 14.899a30.613 30.613 0 012.57 3.605c-.522.404-1.043.807-1.574 1.21-3.184 2.433-6.406 4.845-9.72 7.127-3.361-8.6-14.031-11.07-22.997-8.525-5.512 1.568-10.55 4.938-13.79 9.726-3.686 5.446-3.807 11.802-1.284 17.735.12.282.251.554.382.836a.426.426 0 00.372.263c.065.169.121.338.195.507 2.319 5.454 7.551 9.341 13.203 10.655 15.027 3.474 25.604-12.42 24.962-26.071a17.779 17.779 0 00-.177-1.784c3.389-2.319 6.648-4.835 9.804-7.267.707-.544 1.415-1.098 2.113-1.643 3.594 7.39 4.134 15.951 1.742 24.025zm-32.327-9.557c-.037.047-.084.084-.121.14-.037.048-.075.085-.102.123-.345.413-.531.873-.68 1.342a9.24 9.24 0 01-.456.188.96.96 0 00-.522.488c-.056-1.014.27-2.103.652-2.995a5.256 5.256 0 011.937-.328c.065 0 .12.01.176.01-.297.347-.595.685-.884 1.032zm-1.648 3.38c-.019-.047-.028-.103-.047-.16a1 1 0 00.29.178c-.029.094-.066.179-.094.273a1.717 1.717 0 01-.149-.291zm2.775 3.06c-1.388.648-3.082.592-4.507-.14-1.62-.827-1.983-2.056-1.63-3.277.169.094.392.094.54-.075.755-.864 1.062-1.972 1.882-2.798.316-.32.689-.573 1.089-.75-1.536 2.797-.885 6.242 2.626 7.04zm.251-.29c-.94-.517-1.89-1.07-2.532-1.906.111.009.214-.02.288-.113.252-.31.512-.592.782-.883.28-.056.559-.112.829-.188.233.104.484.17.763.141l2.188-.197a5.225 5.225 0 01-.558 1.53 4.299 4.299 0 01-1.676 1.719.146.146 0 00-.084-.104zm11.22-17.322c-3.585 1.793-6.64 4.572-9.34 7.51-.372.404-.735.808-1.107 1.212-.121-.038-.242-.085-.363-.113-2.421-.601-6.657 1.042-7.142 3.802-1.443 1.906-1.592 4.281.773 6.046 2.868 2.14 6.871 1.127 8.864-1.633a6.088 6.088 0 001.117-2.789c3.352-.263 6.806-.347 9.99.385.205.047.41.047.615.029a36.539 36.539 0 01-1.62 5.116c-3.91 9.84-14.264 15.566-24.208 10.834-4.255-2.028-7.495-5.783-9.012-10.261a17.048 17.048 0 01-.866-4.882c0-4.281 1.154-8.506 3.91-11.914 3.64-4.488 9.302-7.248 14.944-8.008 5.14-.695 10.847.281 14.478 4.29.065.075.13.16.195.235a1.908 1.908 0 00-1.229.14zm4.077 10.242a11.861 11.861 0 01-1.089-2.6c.363-.225.717-.45 1.07-.676.103 1.08.103 2.178.02 3.277zm-1.592-6.12a20.06 20.06 0 01.093-2.33c.308.564.559 1.146.764 1.747-.28.197-.568.395-.857.582z" fill="#fff"/><defs><linearGradient id="paint0_linear" x1="164" y1="0" x2="-6.55" y2="103.614" gradientUnits="userSpaceOnUse"><stop stop-color="#FF3C0E"/><stop offset="1" stop-color="#793DC2"/></linearGradient><filter id="filter0_d" x="0" y="0" width="129" height="129" filterUnits="userSpaceOnUse" color-interpolation-filters="sRGB"><feFlood flood-opacity="0" result="BackgroundImageFix"/><feColorMatrix in="SourceAlpha" values="0 0 0 0 0 0 0 0 0 0 0 0 0 0 0 0 0 0 127 0" result="hardAlpha"/><feOffset dy="4"/><feGaussianBlur stdDeviation="2"/><feComposite in2="hardAlpha" operator="out"/><feColorMatrix values="0 0 0 0 0 0 0 0 0 0 0 0 0 0 0 0 0 0 0.25 0"/><feBlend in2="BackgroundImageFix" result="effect1_dropShadow"/><feBlend in="SourceGraphic" in2="effect1_dropShadow" result="shape"/></filter></defs></svg>