<svg width="129" height="129" fill="none" xmlns="http://www.w3.org/2000/svg"><g filter="url(#filter0_d)"><path d="M105 0H24C12.954 0 4 8.954 4 20v81c0 11.046 8.954 20 20 20h81c11.046 0 20-8.954 20-20V20c0-11.046-8.954-20-20-20z" fill="url(#paint0_linear)"/></g><g clip-path="url(#clip0)" fill="#fff"><path d="M70.212 29.834c-5.534-5.444-12.027-8.822-19.97-7.638-8.458 1.254-16.682 5.711-22.473 11.91-5.405 5.78-8.517 14.868-9.558 22.552-2.293 16.877 14.904 32.117 31.072 32.233 5.124.035 9.756-1.08 14.518-2.867 2.293-.859 5.72-1.903 6.832-4.306 1.193-2.6-3.814-3.865-5.23-4.283-3.462-1.022-6.598-1.764-8.282-5.316-1.767-3.738.889-7.742 3.802-9.89.304-.22.058-.72-.28-.638.572-.464 1.193-.87 1.86-1.207 2.667-1.358 5.556-.047 8.072.94 2.89 1.138 6.13 1.683 8.89-.14 5.242-3.447 4.294-9.819 2.364-14.926-2.328-6.152-6.984-11.863-11.617-16.424zm10.131 16.97c1.392 3.459 2.352 7.834.222 11.177-3.334 5.235-8.844 1.405-13.126.43-5.85-1.324-9.955 2.681-11.699 7.835-1.485 3.284-.795 7.289 2.492 10.133 2.902 2.495 7.3 2.112 10.424 4.166 1.65 1.08-6.832 4.423-7.651 4.736-10.857 4.202-22.953 1.753-31.435-5.954-3.708-3.378-7.113-7.94-8.95-12.594-2-5.06-1.076-10.946.363-16.018 2.843-10.04 8.4-18.13 17.736-23.168 9.242-4.99 19.197-6.012 27.69.778 5.792 4.643 11.161 11.619 13.934 18.479z"/><path d="M63.86 45.202c-.843 1.427-1.3 3.052-1.018 4.712.21 1.242 1.158 2.797 2.468 3.088.433.22.924.348 1.498.348.269 0 .538-.035.795-.081 1.72.476 3.603-.035 5.194-1.637 2.68-2.704 1.872-6.953-1.04-9.088-2.832-2.078-6.365.046-7.898 2.658zm5.159 5.165c.023.046.035.081.058.128-.012.011-.012.023-.012.034l-.023.024c-.702-.198-1.427-.79-1.989-1.428a.634.634 0 00-.035-.093h.023c.164.186.328.372.504.522.468.407.947.639 1.427.755.023.023.035.046.047.058zm2.796-5.757c-.059-.116-.117-.22-.176-.337.129.128.258.267.374.406-.058-.023-.128-.058-.198-.07zm-7.534 3.227c.163.684.468 1.404.877 2.077a6.053 6.053 0 01-.842-1.01.72.72 0 00-.164-.162c.012-.302.058-.604.129-.905zm5.475 4.41c.175-.139.35-.29.503-.452.222-.07.42-.163.608-.279.094.012.199.012.304 0a4.333 4.333 0 01-1.415.731zm-6.201-18.943c-2.936-2.611-7.44-2.008-9.721 1.045-1.709 2.287-1.451 7.104 1.52 8.288 5.745 3.621 13.957-4.202 8.201-9.333zm-2.948 5.874c-.725.313-1.59-.14-2.21-.604.701.302 1.497.5 2.245.51-.023.024-.023.059-.035.094zm-.842-2.357c.316.151.643.244.994.175a.812.812 0 01-.093.208c-.27.395-.609.082-.901-.383zm-4.001.685c.164.407.398.79.655 1.15.047.185.094.37.164.545-.492-.441-.807-1.01-.82-1.695zm6.025 4.33c.105-.082.222-.174.327-.267h.012c.012 0 .023-.012.035-.012-.117.093-.246.186-.374.279zm2.48-4.144c-.023-.105-.047-.22-.082-.325.047-.14.07-.267.094-.395a5.09 5.09 0 01-.012.72zm-1.732-3.598c-.023 0-.046 0-.07.011a3.822 3.822 0 00-.503-.209 4.3 4.3 0 00-.912-.58 6.977 6.977 0 011.486.778zm-6.176 8.461c.55.22 1.134.372 1.708.418a6.906 6.906 0 01-1.755-.267.254.254 0 00.047-.15zm-7.897-13.499c-3.206-2.251-7.37-.046-9.371 2.716-.983 1.347-1.486 3.065-1.123 4.701.245 1.126 1.369 2.914 2.656 3.018 5.287 5.525 15.676-4.944 7.838-10.435zm-9.313 6.976c-.011-.035-.011-.07-.023-.104a.33.33 0 01.023.104zm-.035-.267c-.011-.15-.023-.301-.011-.44-.012.139 0 .29.011.44zm4.54 4.156c.023-.024.035-.047.058-.058.164.07.328.116.491.15a4.268 4.268 0 01-.666.012c.035-.046.081-.07.116-.104zm6.06-4.515a9.879 9.879 0 00-.07-2.426c0-.325-.071-.627-.188-.906l-.035-.104c.597 1.068.643 2.275.292 3.436zM33.513 50.332c.093-.023.175-.035.257-.058.737-.267 1.45-.847 2.012-1.544.784-.557 1.463-1.38 1.966-2.495 1.731-3.854-1.018-7.707-4.96-8.253-4.411-.615-7.383 2.797-7.02 6.988.34 3.807 4.013 7.15 7.745 5.362zm2.983-4.62h-.059c.047-.08.07-.162.117-.243-.012.035-.012.07-.023.104-.012.047-.035.093-.035.14zm-4.071 3.285c-.41-.046-.796-.255-1.135-.522.105-.07.21-.14.304-.22.41.348.9.58 1.404.684-.024.012-.047.012-.059.023-.175.012-.35.035-.514.035zm1.205-4.62c.035.035.058.07.093.093-.023.035-.07.059-.093.093v-.185zm-2.387-2.518c-.058.104-.105.22-.152.337-.199-.256-.445-.43-.76-.476l-.047-.047c.047-.093.117-.186.199-.267.245.105.538.279.76.453zm-.058-2.31c-.328 0-.656.081-.983.279-.024 0-.059-.012-.094-.012s-.07.012-.105.012c.363-.151.76-.267 1.181-.325a.035.035 0 000 .046zm.117 24.294c3.802-2.066 2.854-6.14.047-8.59a8.375 8.375 0 00-.82-.615c-.889-.835-1.93-1.45-2.983-1.648-1.181-.22-2.246.256-3.018 1.056-.678.465-1.158 1.161-1.158 2.02a3.434 3.434 0 00-.105.5c-.035.115-.07.231-.094.347a4.87 4.87 0 00-.129 2.809c.515 4.12 4.434 6.199 8.26 4.12zM28.33 59.71l.035-.035c.035-.047.07-.081.106-.14.116-.162.21-.324.292-.51.105-.023.222-.023.328-.058.058.104.105.197.14.29.023.163.023.337.012.51-.176.094-.726-.022-.843-.034-.023 0-.046-.012-.07-.023zm8.926 7.418c-1.392-.349-3.872-.093-5.159 1.01 0-.14-.21-.186-.269-.047-.105.244-.21.5-.304.755a2.315 2.315 0 00-.234.638c-1.111 3.296-1.264 7.185 2.796 8.531 3.416 1.126 7.37-1.578 7.955-4.944.48-2.856-2.246-5.317-4.785-5.943zm2.937 3.47a.548.548 0 00-.234-.07 5.078 5.078 0 00-.492-.777c.27.255.527.534.726.847zm-3.99 6.14l.07-.07c.504.012.983-.057 1.428-.185a6.715 6.715 0 01-1.966.5 2 2 0 00.468-.245zm1.521-6.267c-.28.116-.491.266-.643.44a2.995 2.995 0 01-.21-.185 1.36 1.36 0 01.058-.65c.292.081.561.209.795.395zm-1.626-2.206c-.012-.023-.035-.035-.058-.058.046 0 .093.012.14.012-.012.011-.023.035-.047.046h-.035zm-3.463 1.451a.885.885 0 00.035.348c-.175.058-.339.14-.503.244a6.93 6.93 0 00.468-.592zm-1.018 4.074c.117.163.246.325.387.464.081.709.35 1.382.736 1.916-.631-.592-.97-1.428-1.123-2.38zm8.927.174a3.977 3.977 0 00.152-2.205c.011.058.047.116.058.174a3.204 3.204 0 01-.21 2.031zm7.791-1.567c-1.486.174-3.65 1.22-4.855 2.52-1.509 1.148-1.614 3.377-.632 5.083 1.276 2.229 4.294 3.842 6.868 3.1.117-.036.234-.082.35-.128.036-.012.082-.024.117-.047 3.16-1.23 4.809-5.2 3.253-8.23-.983-1.88-3.112-2.541-5.1-2.298zm-4.364 3.599v.15c-.046 0-.081.012-.128.024v-.116c.047-.024.082-.047.128-.058zm-.584.209c.011 0 .011-.012.023-.012-.094.43-.164.847-.199 1.265a3.322 3.322 0 01.175-1.254zm9.09-.674c.093.174.163.36.222.546a5.642 5.642 0 00-1.018-1.532.69.69 0 00-.386-.22c-.035-.059-.059-.129-.094-.198a3.66 3.66 0 011.276 1.404zM47.27 55.16c-1.836.79-5.65 4.214-3.427 6.222.304 2.577 3.193 4.4 5.954 4.562 4.703.29 6.844-3.76 5.686-7.893-1.041-3.714-5.1-4.214-8.212-2.89zm6.75 2.728c1.638 3.343-.175 6.733-3.883 6.884-2.422.092-4.434-1.115-5.288-3.007a.435.435 0 00.199-.557c-.737-2.182.514-3.621 2.456-4.631 2.258-1.172 5.277-1.23 6.517 1.311zm39.344 6.199c-.667-.383-1.1-1.161-1.521-1.776-.012-.023-.047-.012-.047.011.187 1.544 1.884 3.157 3.533 2.6.164-.058.176-.325-.011-.348-.69-.127-1.31-.116-1.954-.487z"/><path d="M108.514 15.36c-.199-.255-.562-.464-.889-.314-3.241 1.382-5.522 4.214-7.476 7.023-2.14 3.076-3.884 6.395-5.826 9.587-2.211 3.633-4.001 7.336-5.288 11.398-1.345 4.214-2.55 8.532-3.638 12.815-.047.185.035.336.175.43-.245 2.831-.28 5.675-.538 8.507-.234 2.681-.573 5.56-1.684 8.067-3.089.174-5.698 2.565-7.183 5.119-1.79 3.087-2.469 6.744-3.042 10.214-.585 3.47-.901 7.034-1.849 10.423-.631 2.275-1.86 4.829-4.527 5.096-.784.081-1.556.116-2.34.046-.257-.023-.35.36-.129.476a6.93 6.93 0 001.954.627c-.117.012-.234.012-.362.023-.082.012-.14.128-.047.174 3.182 1.509 7.499.987 10.74-.104 3.567-1.196 6.796-3.343 9.311-6.129 2.504-2.774 4.2-6.233 4.785-9.9.55-3.39.316-7.986-1.65-11.016a.59.59 0 00.153-.185c3.007-5.398 5.639-11.085 10.096-15.507.012-.012 0-.024-.012-.024-.41.232-.807.488-1.181.755a.136.136 0 00-.14-.058c-.586.058-1.077.104-1.662-.058-.749-.21-1.404-.674-1.989-1.173-.047-.034-.105.024-.058.07.819.79 2.129 1.741 3.38 1.555-1.555 1.184-2.877 2.658-4.059 4.272h-.035c-1.72.185-2.656-.848-3.357-2.31-.059-.116-.246-.023-.211.093.491 1.358 1.614 3.168 3.229 2.716a41.558 41.558 0 00-1.895 2.983.24.24 0 00-.047-.07c-.316-.267-.749-.325-1.111-.534-.597-.325-.995-.917-1.206-1.543-.093-.279-.514-.151-.432.139a3.37 3.37 0 00.994 1.671c.398.383 1.03.79 1.603.697-.538.94-1.053 1.88-1.544 2.82-.246.012-.504.023-.76-.081-.656-.255-1.03-.963-1.288-1.567-.07-.162-.316-.093-.269.081.21.708.55 1.463 1.217 1.869.21.128.491.244.784.29-.21.407-.421.801-.632 1.196-.632.267-1.275.394-2 .197-.515-.14-.983-.476-1.393-.812-.304-.256-.643-.453-.924-.709h.012c.69-.197.83-.905.538-1.38.96-2.427 1.24-5.108 1.45-7.673.246-3.053.281-6.314-.163-9.355a.464.464 0 00.117-.14c1.731-3.702 2.667-7.742 3.93-11.618 1.3-3.97 2.832-7.893 5.101-11.434 1.884-2.913 3.475-6.012 5.358-8.925 1.779-2.751 3.966-5.908 7.008-7.429a14.715 14.715 0 012.071 4.155.087.087 0 00-.024.058c-.339 1.486-.281 3.041-.421 4.562a65.278 65.278 0 01-.702 5.014c-.632 3.575-1.392 7.104-2.492 10.575-.175.557-.362 1.102-.55 1.66-2.374 4.747-5.17 9.331-7.358 14.16-.187.244-.374.476-.562.72-.023-.024-.047-.058-.082-.082a7.19 7.19 0 00-1.181-.545 64.6 64.6 0 011.193-2.948c.34 0 .667-.093.936-.302.164-.128.164-.36-.023-.476a1.7 1.7 0 00-.492-.186c.386-.859.772-1.706 1.182-2.542.643.116 1.263.058 1.79-.209.257-.139.117-.464-.094-.534a11.148 11.148 0 00-1.193-.29c.725-1.497 1.486-2.983 2.223-4.468.421-.093.784-.29.994-.639.105-.174-.035-.383-.199-.43a1.655 1.655 0 00-.234-.046 169.447 169.447 0 001.884-3.877c.093-.209.199-.429.292-.65.398-.034.714-.29 1.053-.522a.254.254 0 00-.152-.464c-.152 0-.292-.023-.445-.047a57.725 57.725 0 001.896-4.956c.269-.07.491-.209.631-.44a.278.278 0 00-.058-.326.937.937 0 00-.269-.174c.21-.72.421-1.44.596-2.17a47.1 47.1 0 00.328-1.498c.012 0 .023.012.047.012.187.023.409-.14.327-.348-.058-.14-.14-.256-.222-.372.527-2.878.749-6.047-.082-8.729-.14-.325-.561-.197-.585.093-.128 1.857.047 3.715-.07 5.572a25.597 25.597 0 01-.246 2.298 10.978 10.978 0 01-1.064-.882c.14-1.022.164-2.078-.164-2.983-.058-.151-.316-.21-.386-.035-.515 1.393-.491 3.006-.807 4.457a32.373 32.373 0 01-.96 3.47 4.834 4.834 0 01-.935-1.334c-.153-.302-.644-.058-.539.255.269.743.656 1.393 1.194 1.927-.094.255-.176.51-.269.766-.503 1.358-1.112 2.67-1.732 3.981a.4.4 0 00-.257.534c-.655 1.358-1.322 2.716-1.907 4.098-.176.417-.351.835-.526 1.242a6.329 6.329 0 01-.656-1.324c-.14-.394-.702-.209-.62.198.164.766.433 1.485.866 2.066a156.144 156.144 0 01-1.731 4.05c-.246-.394-.433-.847-.597-1.311-.047-.128-.246-.163-.293-.023-.339.847-.117 1.694.41 2.402-.28.604-.562 1.196-.854 1.788-.199.395-.398.778-.597 1.16-.748-.66-1.392-1.543-1.918-2.356-.07-.116-.246-.023-.21.093.35 1.196.853 2.182 1.707 3.03a33.594 33.594 0 01-1.24 2.077 10.45 10.45 0 01-.187.256c-.492-.58-.913-1.242-1.299-1.88-.152-.268-.608-.059-.491.232.28.742.702 1.578 1.252 2.344-.117.174-.223.36-.258.546-.035.15.07.371.117.487.164.511.07.975-.14 1.44-1.685-.952-3.404-1.95-5.241-2.357-.433-.093-.702.465-.386.743 1.556 1.405 3.521 2.403 5.323 3.448 1.755 1.02 3.93 2.657 6.036 2.739.305.011.538-.21.69-.441.317-.5-.07-.894-.502-1.173.772-2.124 1.754-4.167 2.796-6.186 2.339-3.064 4.059-6.674 5.393-10.273a95.492 95.492 0 002.667-5.757c3.159-7.556 4.949-16.493-.491-23.504zM89.035 88.787a17.19 17.19 0 01-.76 2.96c.503-1.823.772-3.727.9-5.607.024-.383.047-.766.06-1.16.07 1.276 0 2.553-.2 3.807zM87.631 77.47a.662.662 0 00-.093.44 3.6 3.6 0 00.082.349c-.106.023-.188.104-.188.22-.011 1.068-.152 2.125-.14 3.192.012 1.266.07 2.542.023 3.808-.081 2.565-.573 5.072-1.403 7.486-.82 2.38-2.118 4.55-4.001 6.245-2.036 1.845-4.75 2.832-7.406 3.378-.14.023-.093.208.024.22a11.96 11.96 0 003.673-.255c-.585.278-1.181.534-1.79.754-1.673.615-3.404 1.08-5.182 1.3-.901.105-1.814.139-2.726.163 1.03-.267 1.977-.871 2.749-1.846 1.907-2.426 2.504-5.734 3.065-8.682.69-3.645 1.03-7.336 2.012-10.922.82-2.972 2.153-6.106 4.996-7.65.725-.394 1.544-.603 2.351-.812a.473.473 0 00.176-.035c.117.279.175.615.339.86.094.15.234.29.374.417a.762.762 0 00-.269.174c-3.112 2.913-4.094 7.15-4.855 11.178-.398 2.112-.795 4.248-1.65 6.233-.584 1.37-1.438 2.426-2.363 3.459.55-3.378 1.17-6.756 2.2-10.017.655-2.078 1.404-4.097 2.445-6.013 1.018-1.868 2.468-3.18 3.779-4.794.42-.522-.094-1.149-.702-.893-1.802.754-3.054 2.727-4.013 4.34-1.17 1.95-1.989 4.11-2.656 6.269-1.17 3.737-1.79 7.858-1.684 11.804-.457.5-.913 1.01-1.357 1.555-.164.198-.024.523.269.453 4.317-1.08 6.235-6.523 7.171-10.295 1.018-4.098 1.31-8.613 4.387-11.793-.55 1.903-.561 4.004-.784 5.943-.304 2.623-.713 5.234-1.427 7.776-.667 2.38-1.696 4.713-3.38 6.582-.82.905-1.72 1.648-2.785 2.24-1.205.662-2.55.917-3.837 1.335-.082.023-.106.162 0 .174 5.393.731 9.16-4.063 10.833-8.485.994-2.612 1.497-5.397 1.895-8.137.374-2.553.948-5.316.737-7.892.012 0 .012.011.023.011a3.49 3.49 0 001.088.163zm18.367-49.32c.047-.278.106-.568.153-.87a5.4 5.4 0 00.432.488c.176.174.375.371.597.545-.129.72-.281 1.428-.445 2.125-.163.673-.35 1.334-.549 1.984a4.58 4.58 0 01-1.123-.301l-.071-.035a29.169 29.169 0 001.006-3.935zm-1.38 5.004a.55.55 0 01.047-.128c.304.174.737.336 1.193.418-.55 1.66-1.205 3.273-1.907 4.875-.082-.012-.175-.024-.257-.047-.41-.093-.761-.313-1.065-.603.702-1.474 1.404-2.972 1.989-4.515zm-4.083 8.972c.515-1.219 1.088-2.403 1.673-3.598.293.267.62.499 1.006.661.105.047.199.081.304.105-.187.418-.386.847-.585 1.265-.549 1.16-1.123 2.321-1.684 3.47-.34.035-.69.035-1.053-.116a1.772 1.772 0 01-.328-.174c.211-.534.433-1.08.667-1.613zm-1.064 2.507c.081.058.175.104.257.15.269.14.608.245.971.303a172.217 172.217 0 00-2 4.213 4.108 4.108 0 01-.89-.418c-.046-.035-.093-.07-.14-.116.632-1.37 1.228-2.75 1.802-4.132zm-3.16 6.918c.317-.592.62-1.196.913-1.81.316.231.667.429 1.041.58-.386.893-.76 1.787-1.11 2.692-.036 0-.071-.011-.106-.011-.445-.07-.866-.256-1.252-.488.164-.325.34-.65.515-.963zm-2.538 3.935a20.495 20.495 0 001.533-2.194c.42.279.947.534 1.474.673-.34.94-.655 1.904-.936 2.867-.608-.232-1.217-.464-1.767-.894a5.45 5.45 0 01-.41-.348.444.444 0 00.106-.104zm-1.497 2.67c.199-.372.35-.767.491-1.173.082-.232.187-.43.304-.615.69.8 1.51 1.45 2.434 1.74-.13.5-.246 1.01-.34 1.522a33.59 33.59 0 01-1.134-.535c-.585-.29-1.17-.615-1.755-.94zm4.457 2.181c-.445-.208-.9-.406-1.345-.615.163-.51.327-1.021.503-1.52a3.22 3.22 0 001.205.023 27.41 27.41 0 01-1.346 1.497c-.058.058.024.151.094.105.538-.36 1.053-.755 1.544-1.16-.234.556-.444 1.113-.655 1.67zm12.951-28.425c.058-.36.105-.732.152-1.103.21-1.73.351-3.47.421-5.2l.07-1.59c.281 2.588-.012 5.258-.643 7.893z"/></g><defs><linearGradient id="paint0_linear" x1="164" y1="0" x2="-6.55" y2="103.614" gradientUnits="userSpaceOnUse"><stop stop-color="#FF3C0E"/><stop offset="1" stop-color="#793DC2"/></linearGradient><clipPath id="clip0"><path fill="#fff" transform="translate(18 15)" d="M0 0h94v91H0z"/></clipPath><filter id="filter0_d" x="0" y="0" width="129" height="129" filterUnits="userSpaceOnUse" color-interpolation-filters="sRGB"><feFlood flood-opacity="0" result="BackgroundImageFix"/><feColorMatrix in="SourceAlpha" values="0 0 0 0 0 0 0 0 0 0 0 0 0 0 0 0 0 0 127 0" result="hardAlpha"/><feOffset dy="4"/><feGaussianBlur stdDeviation="2"/><feComposite in2="hardAlpha" operator="out"/><feColorMatrix values="0 0 0 0 0 0 0 0 0 0 0 0 0 0 0 0 0 0 0.25 0"/><feBlend in2="BackgroundImageFix" result="effect1_dropShadow"/><feBlend in="SourceGraphic" in2="effect1_dropShadow" result="shape"/></filter></defs></svg>