<svg width="129" height="129" fill="none" xmlns="http://www.w3.org/2000/svg"><g filter="url(#filter0_d)"><path d="M105 0H24C12.954 0 4 8.954 4 20v81c0 11.046 8.954 20 20 20h81c11.046 0 20-8.954 20-20V20c0-11.046-8.954-20-20-20z" fill="url(#paint0_linear)"/></g><path d="M37.612 63.72a207.403 207.403 0 0124.715-26.43 208.82 208.82 0 0146.605-31.64c-.275-.193-.565-.386-.839-.58-.952 5-3.372 9.535-5.792 13.972a480.394 480.394 0 01-8.13 14.325 451.515 451.515 0 01-17.826 27.781A475.26 475.26 0 0165.456 76.18c-.42.563.387 1.302.823.74a462.196 462.196 0 0019.116-27.267 452.371 452.371 0 0017.003-28.457c2.775-5.032 5.695-10.177 6.792-15.884.096-.498-.42-.788-.839-.579A207.984 207.984 0 0077.265 23.72 211.285 211.285 0 0050.13 47.595a205.111 205.111 0 00-13.325 15.402c-.452.53.37 1.27.806.723z" fill="#fff"/><path d="M36.95 64.428c8.325 5.627 16.568 11.527 25.49 16.19.467.24.951.482 1.5.385.597-.096 1.032-.546 1.355-1.012.822-1.174 1.613-2.364 2.42-3.553.403-.58-.581-1.078-.985-.499-.677.997-1.37 1.994-2.048 3.007-.275.401-.613 1.077-1.194.948-.5-.112-1.032-.514-1.484-.756-2.081-1.109-4.114-2.299-6.13-3.52-3.969-2.412-7.824-5-11.68-7.605-2.258-1.527-4.5-3.038-6.76-4.566-.58-.386-1.064.595-.483.98z" fill="#fff"/><path d="M41.63 68.286c-3.953 2.637-7.922 5.29-11.89 7.926-1.597 1.061-3.565 2.17-4.081 4.164-.21.836-.146 1.769.322 2.508.226.354.549.627.887.885.485.37.759.659.614 1.286-.355 1.511-1.307 2.926-2.081 4.244-.791 1.319-1.581 2.653-2.065 4.132-.533 1.592-.468 3.119.032 4.695.29.9.5 1.768.323 2.717-.162.836-.533 1.607-.952 2.331-.968 1.688-2.275 3.167-2.936 5.032-.646 1.801-.694 3.826.693 5.289.194.209.597.177.775-.048 2.855-3.392 5.727-6.785 8.582-10.161-.323-.16-.63-.321-.952-.482l-.774 6.527c-.178 1.495-.533 3.489.645 4.711.5.514 1.258.723 1.952.53.79-.209 1.355-.884 1.79-1.543.533-.82.936-1.736 1.372-2.621a109.167 109.167 0 004.065-9.469c-.242.08-.5.161-.742.241.968.418.887 1.929 1.097 2.798.258 1.012.871 2.009 2.017 2.138 1.032.112 1.984-.563 2.548-1.351.742-1.029.84-2.186.646-3.408-.194-1.286-.84-2.83-.42-4.116.242-.755 1.097-1.72 1.984-1.64.549.049.775.547 1 .981.307.611.694 1.206 1.42 1.35 1.13.258 1.968-.835 2.34-1.752.274-.675.37-1.366.435-2.09.08-1.013.145-2.042.226-3.055.145-2.041.306-4.067.451-6.109l-1.097.048c.178 1.158 1.146 1.785 2.275 1.801 1.226.016 2.242-.707 2.694-1.833.468-1.19.355-2.492.113-3.73-.258-1.334-.694-2.797-.194-4.132.242-.659-.725-1.157-.984-.498-.806 2.122.194 4.132.275 6.27.032.9-.113 2.122-.984 2.605-.597.337-1.968.37-2.098-.53a.55.55 0 00-1.097.047l-.387 5.242c-.064.803-.113 1.591-.177 2.395-.065.772-.049 1.608-.21 2.363-.129.611-.92 2.685-1.758 1.56-.387-.515-.516-1.158-1.033-1.592a1.96 1.96 0 00-1.242-.45c-.903 0-1.758.547-2.307 1.222-.726.884-.92 1.897-.806 3.022.129 1.335.693 2.701.58 4.068-.08.868-.677 1.801-1.5 2.138-1.21.499-1.597-.932-1.758-1.816-.21-1.11-.355-2.412-1.549-2.91-.242-.113-.629-.049-.742.241a106.004 106.004 0 01-4.291 9.935c-.42.852-1.468 3.779-2.872 3.071-.548-.273-.693-1.061-.742-1.624-.064-.804.065-1.591.162-2.379.258-2.138.5-4.277.758-6.415.065-.498-.565-.948-.952-.482-2.855 3.392-5.71 6.784-8.582 10.161l.774-.049c-1.193-1.27-.806-3.199-.177-4.646.677-1.543 1.79-2.846 2.63-4.293.774-1.334 1.37-2.861 1.129-4.437-.146-.965-.597-1.833-.742-2.797a5.526 5.526 0 01.112-2.058c.662-2.942 2.872-5.29 3.985-8.055.274-.691.613-1.479.403-2.234-.258-.933-1.274-1.158-1.71-1.93-.451-.804-.193-1.865.323-2.588.58-.804 1.42-1.367 2.242-1.913 4.26-2.846 8.518-5.676 12.777-8.521.629-.386.032-1.319-.565-.917z" fill="#fff"/><path d="M44.968 70.216a34.393 34.393 0 00-9.146 9.839c-.371.61.613 1.093.984.498a33.183 33.183 0 018.76-9.405c.564-.418-.033-1.334-.598-.932zm2.727.98a26.83 26.83 0 00-7.034 8.296c-.339.627.645 1.125.984.498a25.376 25.376 0 016.647-7.861c.548-.434-.033-1.367-.597-.933zm2.371 1.061a93.21 93.21 0 01-11.083 19.84c-.419.562.404 1.302.823.74A94.791 94.791 0 0051.05 72.755c.258-.643-.71-1.158-.984-.499zM33.192 84.765c-.339.322-.435.82-.339 1.27.097.435.549 1.062 1.081.9.468-.144.79-.69.904-1.14.113-.483.016-1.03-.29-1.415-.178-.225-.5-.338-.759-.161-.226.145-.355.53-.161.755.242.306.193.772-.145.981.177-.016.37-.016.548-.032-.064-.032-.097-.08-.097-.16-.032-.162-.016-.162.097-.258.21-.209.161-.595-.048-.772-.258-.225-.581-.177-.79.032zm-.935 6.48c.242-.161.5-.322.742-.483.242-.16.338-.514.16-.755a.562.562 0 00-.757-.161c-.242.16-.5.321-.742.482-.242.16-.34.515-.162.756.178.24.5.337.759.16zm31.199-11.029c.597-.386 0-1.303-.597-.933-.597.386 0 1.302.597.933z" fill="#fff"/><path d="M63.6 79.46c-.209-.37-.402-.724-.612-1.093-.065.257-.113.514-.161.755a17.042 17.042 0 004.613-4.501c.404-.58-.42-1.319-.822-.74a15.964 15.964 0 01-4.388 4.309c-.258.177-.307.498-.162.755.21.37.404.724.613 1.094.34.643 1.275.032.92-.58z" fill="#fff"/><path d="M63.859 80.007c2.275-1.64 4.05-3.891 5.05-6.512.257-.659-.727-1.157-.985-.498-.935 2.444-2.532 4.566-4.662 6.093-.564.402.016 1.335.597.917z" fill="#fff"/><path d="M63.02 79.508a18.667 18.667 0 003.888-4.228c.387-.595-.597-1.077-.984-.499a17.118 17.118 0 01-3.5 3.81c-.55.435.048 1.367.596.917z" fill="#fff"/><path d="M62.956 79.09a125.57 125.57 0 0016.922-21.43 121.886 121.886 0 003.936-6.721c.339-.627-.645-1.126-.984-.498a124.819 124.819 0 01-15.47 22.282c-1.678 1.93-3.42 3.81-5.227 5.644-.5.498.322 1.221.822.723z" fill="#fff"/><path d="M64.553 80.746a214.136 214.136 0 0021.036-26.399 214.022 214.022 0 0016.551-29.244 210.47 210.47 0 007.243-17.572c.242-.66-.742-1.174-.984-.499a212.214 212.214 0 01-13.857 30.595C89.105 47.45 82.91 56.855 75.99 65.697a211.526 211.526 0 01-12.244 14.31c-.5.514.323 1.253.807.739z" fill="#fff"/><path d="M68.57 75.344c.629-1.463 1.274-2.91 1.903-4.373.275-.643-.693-1.157-.984-.498-.629 1.463-1.274 2.91-1.903 4.373-.275.643.71 1.157.984.498z" fill="#fff"/><path d="M71.57 71.695a10.44 10.44 0 011.63-4.598c.386-.595-.598-1.094-.985-.499a11.482 11.482 0 00-1.726 4.872c-.08.69 1 .932 1.081.225z" fill="#fff"/><path d="M73.57 69.91a19.266 19.266 0 012.694-6.254c.388-.595-.596-1.093-.984-.498a20.111 20.111 0 00-2.79 6.511c-.162.691.919.933 1.08.241z" fill="#fff"/><path d="M76.151 66.791c.79-2.058 1.581-4.116 2.356-6.173.258-.66-.726-1.158-.984-.499-.79 2.058-1.581 4.116-2.356 6.174-.242.643.742 1.157.984.498zm3.049-3.633a14.955 14.955 0 012.259-6.061c.387-.595-.597-1.094-.984-.499a15.966 15.966 0 00-2.355 6.335c-.097.69.984.932 1.08.225zm3.082-4.1c.839-3.006 1.694-6.013 2.532-9.02.194-.69-.887-.916-1.08-.24-.84 3.006-1.694 6.012-2.533 9.019-.194.675.887.916 1.08.241zm2.645-3.891c.662-2.508 1.307-5.032 1.968-7.54.178-.691-.903-.916-1.08-.241-.662 2.508-1.307 5.032-1.969 7.54-.16.691.904.933 1.081.241z" fill="#fff"/><path d="M87.476 52.048a16.037 16.037 0 012.42-8.73c.37-.61-.613-1.109-.984-.498a16.969 16.969 0 00-2.533 9.277c.016.707 1.113.659 1.097-.049z" fill="#fff"/><path d="M89.702 46.84c.226-2.637 1.113-5.178 2.517-7.412.37-.595-.613-1.094-.984-.499a17.908 17.908 0 00-2.63 7.959c-.064.707 1.033.643 1.097-.049z" fill="#fff"/><path d="M92.316 43.592a12.9 12.9 0 012.436-7.3c.419-.562-.404-1.318-.823-.739a14.15 14.15 0 00-2.71 8.087c-.016.707 1.08.66 1.097-.048z" fill="#fff"/><path d="M94.478 40.216a28.675 28.675 0 011.629-7.637c.242-.66-.742-1.174-.984-.498a31.037 31.037 0 00-1.759 8.183c-.048.707 1.049.659 1.114-.048z" fill="#fff"/><path d="M96.413 35.843a13.053 13.053 0 011.34-6.431c.306-.627-.662-1.142-.985-.499a14.142 14.142 0 00-1.468 6.978c.032.707 1.145.675 1.113-.048z" fill="#fff"/><path d="M98.042 31.695c1.162-2.91 2.323-5.836 3.501-8.746.258-.66-.726-1.158-.984-.499-1.162 2.91-2.323 5.836-3.5 8.746-.259.643.725 1.158.983.499z" fill="#fff"/><path d="M88.46 16.759a69.83 69.83 0 019.518 9.871c.436.547 1.371-.032.936-.595a72.753 72.753 0 00-9.696-10.096c-.564-.466-1.306.354-.758.82z" fill="#fff"/><path d="M92.058 18.013c.435-.965.855-1.93 1.29-2.894.29-.643-.694-1.158-.984-.498-.436.964-.855 1.929-1.29 2.894-.29.643.693 1.141.984.498zm1.726 2.444l2.226-7.814c.193-.675-.887-.916-1.081-.241l-2.226 7.813c-.194.692.887.933 1.08.242zm2.533 1.495a38.924 38.924 0 012.194-9.26c.242-.66-.726-1.158-.984-.499a38.797 38.797 0 00-2.291 9.534c-.08.691 1 .932 1.08.225zm1.903 1.382a77.241 77.241 0 012.662-12.813c.21-.675-.871-.916-1.081-.241a75.333 75.333 0 00-2.662 12.813c-.097.692.984.933 1.081.241zm2 .434c.936-4.887 1.872-9.774 2.807-14.678.129-.691-.951-.932-1.08-.241-.936 4.887-1.872 9.775-2.807 14.678-.146.692.935.933 1.08.241zm2.307-2.684c.936-4.679 1.888-9.357 2.823-14.036.146-.691-.935-.932-1.08-.24-.936 4.678-1.888 9.356-2.824 14.035-.129.707.952.948 1.081.24zm3.017-5.708a63.582 63.582 0 012.049-8.472c.209-.676-.871-.9-1.081-.242a64.185 64.185 0 00-2.049 8.473c-.113.707.968.949 1.081.241z" fill="#fff"/><path d="M107.238 9.685c.274-1.222.532-2.428.806-3.65.146-.69-.935-.932-1.08-.24-.275 1.221-.533 2.427-.807 3.649-.145.707.936.932 1.081.24zm1.984-2.91l.048-1.592c.016-.305-.29-.546-.58-.53-.323.016-.517.273-.533.579 0 .53-.016 1.06-.048 1.591-.016.306.29.547.581.53.322-.015.516-.289.532-.578zm-55.59 49.341c-2.146 2.09-2.34 5.563-.904 8.119 1.517 2.7 4.775 3.714 7.711 3.087 3.162-.675 5.453-3.28 5.953-6.431.5-3.103-.694-7.267-3.952-8.408-1.678-.58-3.55-.242-5.098.578-2.033 1.078-3.468 3.007-4.807 4.807-.42.563.403 1.303.822.74 1.807-2.46 4.066-5.418 7.47-5.322 3.145.097 4.613 3.602 4.565 6.335-.049 2.7-1.565 5.305-4.162 6.302-2.356.9-5.356.547-7.034-1.48-1.79-2.153-1.79-5.626.242-7.604.532-.482-.29-1.221-.806-.723zm14.325-12.042c-1.5.723-2.243 2.492-1.985 4.1.259 1.591 1.517 2.733 3.114 2.877 1.468.13 3.017-.53 3.775-1.832.887-1.544.5-3.795-.517-5.193-.564-.772-1.403-1.335-2.37-1.335-.904-.016-1.808.45-2.179 1.303-.29.643.694 1.157.984.498.307-.675 1.162-.852 1.807-.579.79.338 1.226 1.222 1.452 2.01.436 1.463.177 3.151-1.355 3.81-1.178.498-2.759.241-3.372-.98-.677-1.335-.08-3.103 1.259-3.747.613-.305.016-1.237-.613-.932zm9.937-10.064c-1.355.466-1.84 1.913-1.549 3.231.307 1.415 1.549 2.38 3 2.187 1.404-.193 2.582-1.319 3.001-2.637.468-1.511-.226-3.296-1.629-4.051-1.516-.82-3.694.08-3.92 1.849-.097.69.984.932 1.08.24.194-1.446 2.017-1.64 2.888-.675.92 1.03.775 2.525-.177 3.473-.758.756-2.13 1.11-2.84.113-.564-.788-.58-2.3.485-2.67.645-.24.322-1.301-.34-1.06z" fill="#fff"/><path d="M52.663 61.502c2.162-2.62 4.308-5.241 6.47-7.862.451-.547-.372-1.286-.823-.74-2.162 2.621-4.308 5.242-6.47 7.862-.45.547.372 1.286.823.74zm.775 1.318c2.694-3.2 5.404-6.383 8.098-9.582.452-.547-.355-1.286-.823-.74-2.694 3.2-5.404 6.383-8.098 9.583-.452.546.355 1.286.823.74zm1.21 1.527a70.693 70.693 0 017.324-9.501c.484-.53-.34-1.254-.823-.74a74.313 74.313 0 00-7.485 9.727c-.371.61.613 1.11.984.514zm1.162 1.11c2.58-3.28 5.178-6.56 7.775-9.856.435-.546-.387-1.302-.823-.74-2.597 3.28-5.178 6.56-7.776 9.856-.435.563.388 1.302.823.74zm1.806.386l6.872-8.779c.436-.546-.387-1.302-.823-.74l-6.872 8.78c-.435.562.387 1.301.823.739zm2.404-.225c1.855-2.573 3.694-5.145 5.55-7.701.402-.563-.404-1.319-.824-.74-1.855 2.572-3.694 5.145-5.549 7.701-.403.579.403 1.318.823.74zm2.323.257c1.226-1.576 2.468-3.135 3.694-4.71.435-.547-.387-1.303-.823-.74-1.226 1.575-2.468 3.135-3.694 4.71-.436.563.387 1.302.823.74zm4.937-16.962a18.63 18.63 0 013.645-4.742c.516-.483-.307-1.222-.823-.74a19.334 19.334 0 00-3.807 4.968c-.339.643.645 1.141.984.514zm1.177.418c.855-1.109 1.71-2.202 2.548-3.312.436-.562-.387-1.302-.822-.74-.855 1.11-1.694 2.203-2.55 3.313-.435.562.388 1.302.824.74zm1.581.016c.71-.803 1.42-1.607 2.113-2.411.468-.53-.355-1.27-.823-.74-.71.804-1.42 1.608-2.113 2.412-.468.546.355 1.27.823.74zm7.259-11.511c.92-1.286 1.855-2.572 2.775-3.842.42-.563-.404-1.319-.823-.74-.92 1.286-1.855 2.573-2.775 3.843-.42.578.404 1.318.823.74z" fill="#fff"/><path d="M78.62 37.466l2.177-2.363c.484-.514-.338-1.254-.822-.74l-2.178 2.364c-.484.514.339 1.254.823.74z" fill="#fff"/><path d="M80.056 36.663c.242-.161.5-.322.742-.483.242-.16.338-.514.161-.755-.178-.241-.5-.338-.758-.161-.242.16-.5.321-.742.482-.242.161-.34.515-.162.756.162.241.5.321.759.16zm2.032 21.752c-.08-.241.032-.627-.129-.9-.194-.338-.63-.29-.871-.065-.387.354-.178 1.03-.13 1.463.065.611.098 1.238.114 1.85.032 1.398 0 2.797-.016 4.195-.017 2.556 0 5.306 1.097 7.669.177.402.596.498.935.209 1.936-1.672 3.517-3.714 4.969-5.804 1.532-2.218 2.936-4.55 4.307-6.865 1.307-2.218 2.678-4.405 3.985-6.624 1.306-2.218 2.435-4.598 2.403-7.234-.032-2.862-1.177-5.547-1.564-8.36-.097-.692-1.194-.66-1.097.048.338 2.476 1.258 4.855 1.5 7.347.258 2.572-.613 4.855-1.855 7.058-1.243 2.187-2.63 4.309-3.904 6.495-1.34 2.283-2.678 4.566-4.162 6.769-1.565 2.33-3.275 4.598-5.404 6.447.306.064.629.128.935.209-1-2.187-1.048-4.679-1.048-7.026 0-1.254.032-2.508.016-3.778 0-.595-.016-1.206-.065-1.8a14.003 14.003 0 00-.064-.82l-.049-.483c-.016-.16.065-.354-.097-.193-.29-.016-.58-.048-.87-.064-.146-.274-.05-.258-.065-.08v.224c0 .161.016.322.064.483.21.643 1.275.305 1.065-.37zm2.468-40.724c-2.823 0-5.662-.016-8.485-.016-1.29 0-2.63-.096-3.888.21-1.242.305-2.258 1.093-3.194 1.929-4.098 3.65-8.13 7.443-11.954 11.382-2.161 2.235-4.242 4.534-6.194 6.946-.242.305-.146.836.29.9 2.92.498 5.92.241 8.727-.756.662-.24.34-1.286-.322-1.045a16.386 16.386 0 01-8.163.74c.097.305.194.61.29.9 3.388-4.164 7.13-8.006 11.002-11.704 1.92-1.833 3.856-3.617 5.808-5.418.951-.868 1.887-1.849 3.033-2.46 1.145-.595 2.468-.53 3.726-.53 3.114.016 6.227.016 9.357.032.725-.016.677-1.11-.033-1.11z" fill="#fff"/><path d="M82.104 56.904c.29 4.051.71 8.103 1.242 12.154.097.691 1.194.66 1.097-.048a218.274 218.274 0 01-1.242-12.155c-.048-.707-1.161-.659-1.097.049zm1.759-2.026a68.5 68.5 0 011.339 13.57c0 .707 1.097.658 1.097-.05 0-4.661-.468-9.292-1.388-13.858-.145-.691-1.194-.353-1.048.338zm1.935-3.521c.517 4.373 1.033 8.73 1.533 13.103.08.708 1.178.66 1.097-.048-.516-4.373-1.032-8.73-1.533-13.103-.08-.691-1.177-.66-1.097.048zm-31.876-13.73a25.873 25.873 0 017.985-2.685c.694-.112.661-1.222-.048-1.093a27.668 27.668 0 00-8.534 2.846c-.63.337-.033 1.254.597.932zm3.291-3.553a47.176 47.176 0 019.808-2.813c.694-.13.37-1.174-.323-1.046a47.47 47.47 0 00-9.808 2.814c-.661.257-.339 1.302.323 1.045zm3.339-3.778c2.662-.498 5.324-.997 7.985-1.511.694-.129.355-1.174-.322-1.045-2.662.498-5.324.997-7.986 1.511-.693.129-.355 1.174.323 1.045zm8.582-8.762a60.148 60.148 0 0110.454-1.302c.71-.032.661-1.126-.049-1.094a61.754 61.754 0 00-10.727 1.35c-.694.146-.355 1.19.322 1.046zm25.489 18.569c.629 3.698 1.242 7.412 1.871 11.125.113.692 1.226.66 1.097-.048-.63-3.714-1.242-7.411-1.871-11.125-.113-.691-1.21-.643-1.097.048z" fill="#fff"/><path d="M58.778 38.495a59.155 59.155 0 0115.6-13.376 62.107 62.107 0 015.226-2.749c.629-.29.306-1.35-.323-1.045a60.187 60.187 0 00-17.245 11.977 56.175 56.175 0 00-4.065 4.47c-.468.547.355 1.286.807.723zm24.375-17.411c.597-.386 0-1.302-.597-.933-.597.386 0 1.319.597.933z" fill="#fff"/><defs><linearGradient id="paint0_linear" x1="164" y1="0" x2="-6.55" y2="103.614" gradientUnits="userSpaceOnUse"><stop stop-color="#FF3C0E"/><stop offset="1" stop-color="#793DC2"/></linearGradient><filter id="filter0_d" x="0" y="0" width="129" height="129" filterUnits="userSpaceOnUse" color-interpolation-filters="sRGB"><feFlood flood-opacity="0" result="BackgroundImageFix"/><feColorMatrix in="SourceAlpha" values="0 0 0 0 0 0 0 0 0 0 0 0 0 0 0 0 0 0 127 0" result="hardAlpha"/><feOffset dy="4"/><feGaussianBlur stdDeviation="2"/><feComposite in2="hardAlpha" operator="out"/><feColorMatrix values="0 0 0 0 0 0 0 0 0 0 0 0 0 0 0 0 0 0 0.25 0"/><feBlend in2="BackgroundImageFix" result="effect1_dropShadow"/><feBlend in="SourceGraphic" in2="effect1_dropShadow" result="shape"/></filter></defs></svg>