<svg width="129" height="129" fill="none" xmlns="http://www.w3.org/2000/svg"><g filter="url(#filter0_d)"><path d="M105 0H24C12.954 0 4 8.954 4 20v81c0 11.046 8.954 20 20 20h81c11.046 0 20-8.954 20-20V20c0-11.046-8.954-20-20-20z" fill="url(#paint0_linear)"/></g><path d="M105.694 48.368c-.801-3.691-4.114-5.797-7.785-4.893-2.634.647-4.858 2.758-6.126 5.265-.052-.738-.087-1.494-.167-2.249a7.359 7.359 0 00-.04-.95c.005-.017.005-.04.01-.057.37-.641.087-1.654-.224-2.478 1.003-2.844-4.143-5.591-6.028-6.41-1.982-.858-4.12-1.66-6.293-1.86-.594-.05-1.227-.131-1.861-.188a1.802 1.802 0 01-.329-.183c-4.57-.99-9.422-.601-14.056-.561-4.656.045-9.675.772-14.165 1.991-1.377.378-2.68.853-3.919 1.425-1.89.578-3.722 1.345-5.29 2.478-.962.693-1.752 1.717-2.034 2.804-.04.046-.087.086-.127.132-.035-.057-.144-.04-.138.034 0 .046.005.092.011.132a.293.293 0 00.017.269v.005c-.017.018-.034.04-.023.075.012.046.03.091.04.143l.035.504a.233.233 0 00.012.194s0 .006.006.006c.178 2.37.443 4.761.847 7.136-2.588-1.762-5.608-2.117-8.443.075-3.244 2.512-5.74 6.558-4.051 10.644 1.671 4.04 6.31 6.793 10.229 8.258a23.46 23.46 0 002.259.704c.962.371 1.954.68 2.945.938 1.147.298 2.864.784 4.178.612 1.176.292 2.334.613 3.51.916 3.987 2.753 8.494 4.95 11.278 9.048.132.194.247.383.351.578-.017.005-.04.005-.063.011-.15.046-.156.223-.04.309.103.074.224.132.35.177 1.5 3.17.214 6.353-2.183 8.985-3.003 3.302-7.832 2.913-11.849 4-2.904.784-5.694 3.37-5.192 6.604.444 2.85 4.823 3.503 7.036 3.834 5.106.756 10.253 1.637 15.405 2.026 4.34.326 9.958.344 13.963-1.951 1.349-.344 2.668-.778 3.942-1.356 2.063-.939 3.982-2.633 3.919-5.048-.087-3.29-3.164-5.162-6.011-5.9-3.838-.99-9.55-.79-9.653-6.152-.092-4.824 5.388-8.784 9.123-10.867 1.694-.945 3.365-1.854 4.864-3.096.737-.613 1.354-1.334 1.901-2.1 4.455-2.97 9.642-4.71 13.843-8.081 4.57-3.674 7.267-10.17 6.016-15.932zM92.007 56.46c.03-.286.052-.578.07-.87 1.083-1.144 2.42-2.066 3.792-2.816 1.913-1.047 5.065-2.151 4.466 1.242-.461 2.621-3.239 4.836-5.112 6.513a51.46 51.46 0 01-5.768 4.492c.328-.893.64-1.791.933-2.684.617-1.883 1.406-3.897 1.62-5.877zM80.206 37.798c.53.212 1.055.435 1.573.67.006 1.894.179 3.84 1.06 5.436.07.12.3.075.283-.074-.138-1.242-.49-2.432-.645-3.674a17.01 17.01 0 01-.121-1.436 58.78 58.78 0 013.187 1.585c.236.126.49.263.754.417.289.184.577.367.87.544.41.28.802.595 1.13.944a14.64 14.64 0 01-1.222 1.036c-.466.166-.927.338-1.388.487-.271.086-.542.166-.819.246-.167.04-.334.086-.507.148-1.222.355-2.455.67-3.694.973-1.32.32-2.656.601-3.993.836-1.35-2.924-.853-5.986-.3-9.048 1.256.384 2.512.784 3.832.91zm-25.426-.87a85.865 85.865 0 015.832-.274c-.495 2.993-.962 6.993.479 9.557.098.177.334.045.31-.132-.276-1.803-.553-3.52-.564-5.35-.006-1.363.133-2.725.04-4.081 1.009-.017 2.017-.029 3.026-.04.242-.006.49-.012.732-.023-.42 2.758-.71 6.364.547 8.744.11.206.479.12.456-.12-.15-1.55-.41-3.056-.45-4.618-.035-1.345.087-2.684-.011-4.023 1.561-.075 3.117-.23 4.673-.326-.27 2.935-.968 6.203.98 8.612.115.143.3-.04.236-.183-1.32-2.867-.83-5.54-.899-8.452a34.679 34.679 0 012.178-.075c1.291 0 2.513.31 3.73.67-1.01 2.547-1.949 6.924.034 9.22-2.127.365-4.27.634-6.42.823-4.213.36-8.345.126-12.54-.189-.438-.045-.876-.08-1.314-.126-.139-3.227-1.32-6.38-1.055-9.614zm-4.097.515a46.296 46.296 0 013.85-.497c-.145 1.327-.081 2.69 0 4.005.109 1.723.19 3.88.852 5.546a75.785 75.785 0 00-3.215-.218l-.968-.034c-.26-1.505-.513-2.947-.52-4.498-.005-1.425.208-2.884 0-4.304zm-3.913.836a67.905 67.905 0 00-.115 3.428c-.012 1.167-.18 2.398.12 3.53.035.127.22.127.254 0 .3-1.132.133-2.363.121-3.53a63.996 63.996 0 00-.12-3.491 67.658 67.658 0 012.103-.47c.455-.097.91-.182 1.365-.263-.3 1.586-.328 3.257-.392 4.859-.051 1.27-.046 2.718.53 3.886-2.195-.178-4.656-.424-6.851-.756.213-.904.075-1.86.046-2.78-.04-1.163-.075-2.324-.116-3.486a26.303 26.303 0 013.055-.927zm-6.904 3.136a28.059 28.059 0 013.429-2.049l.311-.12c-.035.99-.063 1.98-.098 2.976-.035 1.053-.207 2.18.029 3.21-1.458-.229-2.79-.498-3.833-.812a2.5 2.5 0 01-.628-.573c-.65-.887.046-1.922.79-2.632zm.94 28.533c-2.6-.538-5.078-1.322-7.395-2.495a13.416 13.416 0 01-2.414-2.558c-1.89-2.667-1.896-6.083-.346-8.887.715-1.294 1.919-2.318 3.33-2.753 1.718-.526 3.222.515 4.582 1.39.04.024.07-.028.047-.056-1.868-2.255-4.83-2.461-7.072-.67-2.449 1.963-3.071 5.671-2.38 8.544.329 1.356 1.015 2.558 1.902 3.611-.155-.103-.317-.2-.467-.309-3.624-2.575-5.659-6.18-3.348-10.347 1.164-2.1 3.17-3.914 5.48-4.64 2.006-.63 3.93.217 5.522 1.401.184.996.397 1.992.64 2.97-1.211-.646-2.692-.961-3.81-.967-2.23-.011-4.432 1.248-4.962 3.48-.726 3.056 1.902 5.7 4.288 7.102 2.818 1.66 6.085 2.352 9.036 3.742.075.097.144.195.225.292a18.4 18.4 0 001.942 2.066c-1.608-.343-3.245-.59-4.8-.916zm-1.263-12.12c.369 2.987 1.072 5.854 2.467 8.452-3.377-1.597-7.458-2.232-9.67-5.414-1.522-2.191-.542-4.526 1.947-5.087.986-.223 2.023-.04 2.962.269 1.055.343 1.597 1.093 2.294 1.78zm48.31 5.333c-.011.012-.023.023-.028.04-1.199 2.335-2.38 3.817-4.755 5.122-2.253 1.242-4.916 2.129-7.497 2.284-.098.005-.098.148 0 .148 2.708.052 5.423-.675 7.843-1.837.876-.423 1.977-1.064 2.916-1.871a24.25 24.25 0 01-1.29 2.49 6.473 6.473 0 01-1.067.875c-1.227.807-2.697 1.225-4.109 1.585-2.582.658-5.256.939-7.797 1.768-.162.052-.098.292.07.252 3.22-.767 6.551-.795 9.738-1.75.427-.127.882-.287 1.332-.476 0 .023-.006.046-.006.075a9.21 9.21 0 01-1.182 1.018c-1.21.853-2.622 1.39-4.028 1.826-2.766.858-5.601 1.035-8.443 1.442-.046.005-.028.068.012.074 2.841.372 5.913.12 8.714-.618a85.69 85.69 0 00-2.57 1.568c-3.378 1.328-7.118 1.786-10.766 1.688-.098-.005-.092.138 0 .15 2.668.343 5.82.245 8.783-.453a18.858 18.858 0 00-2.011 1.774c-1.994.996-4.052 1.82-6.345 2.163-.133.017-.087.212.028.218 1.73.131 3.412-.275 5.037-.916-.005.006-.011.011-.011.017-.358.475-.698.962-1.003 1.46-.017-.058-.087-.103-.144-.063-.669.452-1.285.852-2.063 1.121-.138.046-.075.264.057.218.68-.235 1.568-.567 2.058-1.128-.738 1.236-1.285 2.558-1.522 4-.057.035-.11.07-.167.103-.547.304-1.17.441-1.786.481-.144.012-.15.223 0 .223a5.19 5.19 0 001.89-.314 6.07 6.07 0 00.265 2.489c-.582.56-1.239.916-2.155.87-.064 0-.075.091-.017.109.898.274 1.728.057 2.333-.527.225.567.53 1.116.882 1.671l-.058.017c-.518.264-.968.647-1.48.945a44.83 44.83 0 01-1.73.938c-.132.069-.04.28.104.24a10.047 10.047 0 001.885-.738c.547-.28 1.147-.584 1.47-1.116.097.143.195.292.299.435.76 1.082 1.867 1.746 3.124 2.198-3.499 2.272-7.302 2.5-11.428 2.564-.265.005-.265.406 0 .411 4.097.058 8.995.2 12.246-2.712 1.988.56 4.212.721 5.97 1.179 2.651.692 5.406 3.485 2.703 5.757-2.225 1.871-5.867 2.369-8.639 2.821-3.02.492-6.033.555-9.013 1.271-.282.068-.415.326-.403.578-.553-.04-1.112-.081-1.66-.126-4.95-.435-10.016-1.196-14.914-2.072-1.481-.263-3.464-.647-4.426-1.923-1.412-1.877 1.435-4.458 2.98-5.076 3.67-1.465 7.883-.95 11.392-2.947a9.022 9.022 0 001.77-1.345c.927.326 1.976.458 2.91.447.242-.006.242-.361 0-.372a7.893 7.893 0 01-1.988-.39c-.15-.045-.3-.108-.45-.165.611-.67 1.159-1.42 1.62-2.22a14.163 14.163 0 001.769-.138c.11-.017.11-.2 0-.218a13.308 13.308 0 00-1.504-.126c.426-.835.76-1.7.968-2.558.628.172 1.25.258 1.919.132.092-.017.086-.16 0-.178-.61-.131-1.21-.309-1.81-.497.052-.298.098-.59.116-.876.08-1.047-.11-2.049-.467-3.004.709.108 1.417.24 2.11.429.103.029.172-.12.074-.172-.64-.309-1.29-.515-1.982-.686l-.427-.115c-.617-1.356-1.562-2.598-2.564-3.674 1.838.412 3.89.452 5.382.48.07 0 .07-.085.017-.108-1.423-.595-2.99-.681-4.5-.956-.744-.137-1.435-.366-2.121-.623-.23-.212-.467-.424-.709-.63.035.017.07.034.098.046.092.04.207-.075.115-.149-.455-.355-.922-.704-1.389-1.053.986.08 1.983.063 2.94-.034.282-.029.3-.458 0-.447-1.43.052-2.824-.126-4.207-.446-1.522-1.105-3.055-2.192-4.53-3.348.219.029.42.057.605.08 1.78.24 3.786.27 5.452-.503.173-.08.046-.378-.133-.31-1.62.647-3.458.464-5.146.184-.824-.138-1.608-.452-2.38-.756-1.24-1.058-2.41-2.186-3.446-3.433 2.34.692 5.14.229 7.33-.384.04-.011.035-.08-.011-.074-1.43.172-2.842.189-4.282.149-1.499-.04-2.743-.51-4.057-1.019a18.571 18.571 0 01-1.13-1.774 18.45 18.45 0 01-.49-.95c2.029.75 4.587.572 6.288-.452.051-.029.017-.126-.047-.103-2.236.887-4.76.395-6.823-.715a33.386 33.386 0 01-.8-2.118 12.75 12.75 0 01-.11-.692c-.047-.338-.098-.675-.144-1.019.737.395 1.579.664 2.166.836 1.7.492 3.752.652 5.314-.292.092-.052.029-.2-.075-.172-1.504.424-3.13.275-4.622-.103-.813-.206-1.573-.555-2.305-.956a3.346 3.346 0 01-.646-.474c-.19-1.3-.386-2.593-.605-3.886-.005-.046-.017-.092-.023-.132.68.378 1.383.681 1.977.91 2.294.876 5.048 1.03 7.204-.269.063-.04.005-.126-.058-.097-2.04.864-4.455.538-6.506-.109-1.21-.383-2.07-.978-2.853-1.682a36.626 36.626 0 00-.997-3.869 19.93 19.93 0 00-.15-.555c1.435 1.196 3.377 2.134 4.841 2.363 1.158.178 3.729.51 4.795-.177.057-.034.017-.114-.04-.103-.346.057-.853-.109-1.2-.126-1.135-.057-2.253-.046-3.376-.223-2.196-.343-3.81-2.003-5.533-3.268a.28.28 0 00-.017-.04c1.994 1.563 5.544 1.631 7.832 1.814 3.348.27 6.69.315 10.033.67 9.93 1.036 20.458 2.06 29.72-2.438 1.083-.526 2.166-1.173 3.013-2.043.018-.011.03-.023.04-.029.18.264.387.453.612.51-.41.772-1.078 1.407-1.77 1.934-1.262.967-2.766 1.316-4.247 1.791-.15.046-.11.24.035.258 1.723.177 3.51-.658 4.898-1.62.542-.377 1.285-1.018 1.78-1.745l.104.292a.262.262 0 00-.08.12 5.161 5.161 0 00-.162.738c-.27.423-.68.818-1.187 1.202-1.585 1.207-3.648 2.215-5.613 2.587-.144.028-.11.274.035.257 2.259-.298 4.656-1.362 6.495-2.753-.058.16-.127.32-.22.487-.57.984-1.653 1.636-2.622 2.174-1.654.916-3.52 1.511-5.296 2.164-.11.045-.069.211.052.183 2.305-.544 4.541-1.088 6.581-2.335a7.048 7.048 0 001.799-1.614c-.006.137-.006.28-.012.418-.087-.035-.19-.023-.248.051-.536.67-.749 1.477-1.296 2.163-.663.83-1.614 1.397-2.542 1.889-1.81.956-4.126 1.47-6.16 1.55-.098.007-.093.138 0 .15 2.449.303 4.771-.212 6.978-1.276 1.084-.527 2.64-1.614 3.233-2.896-.005.217-.011.44-.023.652-.017.372-.04.744-.057 1.116-1.234 1.025-2.3 2.38-3.573 3.354-2.017 1.539-4.438 2.643-7.02 2.563-.103-.005-.132.16-.023.184 2.3.48 4.432-.367 6.426-1.471 1.262-.704 2.922-1.769 4.103-3.022-.04.635-.086 1.27-.132 1.906-1.147 1.041-2.144 2.363-3.233 3.388-2.023 1.894-4.415 3.473-7.146 4.12-.04.011-.035.074.011.074 2.513-.131 4.57-1.39 6.535-2.878 1.118-.847 2.473-1.894 3.568-3.073-.22.887-.536 1.774-.865 2.638-.455.423-.835.944-1.268 1.408-.835.881-1.757 1.67-2.725 2.409-2.104 1.597-4.57 2.472-7.164 2.896-.27.045-.207.509.064.475 2.553-.304 4.887-1.025 7.088-2.358.893-.544 2.075-1.356 3.083-2.29-.046.178-.11.367-.178.55zm16.01-12.063c-.196 5.476-3.285 10.026-7.843 12.893-2.502 1.574-5.216 2.741-7.827 4.086.214-.458.415-.921.611-1.385.144.052.312.035.49-.068 3.158-1.912 6.051-4.413 8.633-7.028 1.902-1.929 4.276-4.635 3.458-7.571-.628-2.255-3.602-1.27-5.025-.618a13.481 13.481 0 00-2.9 1.825c.67-1.871 1.943-2.718 3.735-3.405.519-.2 1.043-.377 1.55-.606.928-.412 1.821.55 2.628.961a.197.197 0 00.202-.017c.046.109.098.217.138.332.772 2.135.254 4.498-.697 6.478-1.948 4.063-6.356 5.763-9.618 8.521-.173.143.046.383.23.292 4.582-2.266 10.523-6.095 11.111-11.669.45-4.292-2.34-8.887-6.858-5.791-.098.069-.011.223.092.16 2.26-1.213 4.265-.83 5.371 1.19-.582-.457-1.192-.852-1.826-1.253a.266.266 0 00-.254 0c-2.472 1.345-5.054 1.814-5.953 4.784-.017.052.023.086.063.086-.45.378-.87.779-1.25 1.208a39.676 39.676 0 00-.127-3.09c1.233-2.936 2.928-5.592 6.34-6.438 4.01-.985 5.647 2.81 5.526 6.123z" fill="#fff"/><path d="M51.489 99.18c3.123 2.506 7.036 3.142 10.955 3.176 2.195.017 4.374-.28 6.518-.715 1.82-.367 4.253-.773 5.768-1.9.116-.086.104-.338-.086-.315-1.585.195-3.164.961-4.731 1.345-2.063.503-4.173.767-6.288.904-4.114.275-8.552-.332-12.067-2.592-.052-.023-.121.057-.07.097z" fill="#fff"/><path d="M63.476 104.136c-4.835.538-10.547 1.385-14.667-1.831-.075-.058-.179.034-.11.108 3.608 3.514 9.094 3.016 13.733 2.599 5.412-.487 11.498-1.546 16.079-4.653.3-.2.115-.767-.26-.618-2.253.916-4.35 2.077-6.69 2.804-2.605.807-5.377 1.288-8.085 1.591zm4.65-31.28c.576-.046 1.216-.493 1.147-1.145-.012-.103-.017-.206-.04-.303-.145-.647-.825-.905-1.413-.796a18.39 18.39 0 01-1.25.172c.029-.899-.254-1.952-.351-2.587-.75-4.733-1.176-9.923.345-14.541.294-.893-1.106-1.26-1.4-.384-.104.28-.196.561-.288.847-.461 1.374-.928 2.736-1.55 4.052-.779 1.654-1.983 2.398-3.13 3.668-.092.103-.046.235.075.28 1.43.579 2.68-.623 3.694-2.317-.075 1.728-.017 3.474.058 5.202.057 1.299.19 2.58.305 3.874.058.63.087 1.26.064 1.889-.018.063-.023.131-.035.2-1.055.086-2.11.2-3.158.48-.144.04-.144.247 0 .287 2.27.664 4.53 1.299 6.927 1.122zm18.222-29.529a44.746 44.746 0 01-.997-2.965c-.029-.091-.161-.051-.144.04.202 1.042.323 2.112.865 3.039.086.143.34.046.276-.114zm-50.483-1.374c.18-.063.22-.35 0-.395-2.777-.618-5.134-1.711-7.451-3.376-1.36-.985-2.582-2.14-3.757-3.331-.686-.698-1.2-1.877-2.15-2.192-.265-.091-.473.143-.501.378-.121 1.001 1.106 2.043 1.729 2.73 1.187 1.316 2.622 2.426 4.062 3.462 2.023 1.442 5.44 3.691 8.068 2.724zm-6.391-18.456a76.924 76.924 0 003.09 5.963c1.135 1.975 3.682 6.92 6.488 6.862.07 0 .098-.08.052-.126-.933-.967-2.023-1.7-2.898-2.747-1.355-1.614-2.41-3.496-3.4-5.345-.9-1.665-1.7-3.382-2.479-5.104-.628-1.391-1.106-3.177-2.028-4.401-.277-.36-.796-.15-.726.303.236 1.54 1.244 3.193 1.901 4.595zm14.35-1.396c.495 2.072 1.09 4.126 1.654 6.18.161.584 1.072 2.347.945 2.913-.006.029.035.035.04.006.075-.847-.115-1.625-.305-2.455-.461-1.997-.928-3.994-1.36-6.003-.456-2.089-.934-4.172-1.303-6.278-.253-1.43-.046-3.256-.512-4.612-.075-.218-.317-.224-.45-.058-.697.905-.161 2.759-.017 3.772.31 2.197.795 4.383 1.308 6.535zm10.264 6.484c1.314-2.907 1.331-6.215 1.515-9.346.116-2.037.283-4.063.715-6.06.38-1.75 1.539-3.187 1.925-4.87.046-.206-.167-.383-.363-.275-2.42 1.391-2.732 5.89-2.968 8.333-.386 4.034-.242 8.052-1.337 12-.087.304.374.515.513.218zm12.361-.109c1.936-5.54 3.786-11.16 4.391-17.02.046-.451-.674-.451-.714 0-.536 5.77-2.317 11.412-3.93 16.951-.047.166.201.23.253.07zm9.284.063c3.325-5.002 5.855-10.799 7.763-16.476.224-.664-.842-.955-1.055-.286-1.861 5.774-4.818 11.016-7.054 16.625-.08.2.237.303.346.137zm10.131 1.494c1.879-.996 3.32-2.627 4.72-4.19 1.712-1.91 3.567-3.822 5.146-5.842.248-.32-.08-.899-.478-.618-1.78 1.253-3.13 3.147-4.49 4.818-1.607 1.974-3.342 3.709-5.192 5.448-.213.195.052.51.294.384zm1.683 1.94c-.173.028-.121.292.04.297 2.455.04 4.709-.881 6.904-1.894 2.41-1.116 5.308-2.37 7.342-4.08.173-.149-.017-.372-.202-.343-2.241.36-4.402 2.025-6.344 3.118-2.438 1.362-4.968 2.421-7.74 2.902zm7.037 2.912c-.283-.063-.404.355-.121.435 1.285.36 2.53.39 3.855.2 1.896-.28 3.896-.446 5.745-.886.225-.052.208-.372 0-.435-3.06-.933-6.293 1.367-9.48.686z" fill="#fff"/><defs><linearGradient id="paint0_linear" x1="164" y1="0" x2="-6.55" y2="103.614" gradientUnits="userSpaceOnUse"><stop stop-color="#FF3C0E"/><stop offset="1" stop-color="#793DC2"/></linearGradient><filter id="filter0_d" x="0" y="0" width="129" height="129" filterUnits="userSpaceOnUse" color-interpolation-filters="sRGB"><feFlood flood-opacity="0" result="BackgroundImageFix"/><feColorMatrix in="SourceAlpha" values="0 0 0 0 0 0 0 0 0 0 0 0 0 0 0 0 0 0 127 0" result="hardAlpha"/><feOffset dy="4"/><feGaussianBlur stdDeviation="2"/><feComposite in2="hardAlpha" operator="out"/><feColorMatrix values="0 0 0 0 0 0 0 0 0 0 0 0 0 0 0 0 0 0 0.25 0"/><feBlend in2="BackgroundImageFix" result="effect1_dropShadow"/><feBlend in="SourceGraphic" in2="effect1_dropShadow" result="shape"/></filter></defs></svg>