<svg width="199" height="193" fill="none" xmlns="http://www.w3.org/2000/svg"><path d="M5.273 144.197c2.604.34 5.276-2.706 6.843-4.375 2.287-2.443 4.737-4.504 7.35-6.627 5.42-4.449 9.15-10.659 13.92-15.747 1.383-1.513 3.775.653 2.345 2.155-5.238 5.623-9.348 12.191-15.498 17.018-2.891 2.258-5.158 5.051-7.881 7.445-2.172 1.926-4.736 3.617-7.766 3.181-2.084-.223-1.387-3.319.687-3.05z" fill="#fff"/><path d="M36.61 121.428c-.658 1.823 3.375 1.992 4.325 1.959 3.135-.033 6.145-.834 8.694-2.676 4.326-3.118 6.963-7.996 11.4-10.941 11.126-7.306 25.301-5.445 37.91-6.55 6.833-.581 13.877-2.101 19.297-6.55 1.577-1.272 3.921.883 2.344 2.155-11.597 9.615-27.452 7.277-41.453 8.611-6.596.634-13.814 2.263-18.782 6.912-4.406 4.135-7.595 9.481-13.726 11.354-4.16 1.282-15.614 1.661-12.842-5.8.68-1.917 3.514-.392 2.834 1.526z" fill="#fff"/><path d="M48.004 126.162c-4.692 2.099-4.548 8.737.038 10.854 2.472 1.149 5.183.132 7.532-.818a190.963 190.963 0 008.086-3.504c10.997-4.968 21.622-10.709 31.855-17.131 1.734-1.089 3.458 1.616 1.724 2.705-9.597 6.023-19.502 11.434-29.811 16.211-2.543 1.153-5.086 2.306-7.666 3.401-2.417 1.034-4.923 2.244-7.555 2.687-4.28.712-8.578-1.586-10.29-5.669-1.984-4.637.717-9.797 5.13-11.761 1.882-.859 2.839 2.167.957 3.025z" fill="#fff"/><path d="M54.015 139.594c-3.333 2.454-.136 7.66 2.897 8.737 5.144 1.849 11.15-1.236 15.763-3.204 10.866-4.604 21.37-10.028 31.481-16.132 1.782-1.078 3.506 1.628 1.724 2.705a253.529 253.529 0 01-28.959 15.073c-7.224 3.204-20.072 9.777-25.868.683-2.153-3.443-2.21-8.041 1.238-10.567 1.66-1.204 3.385 1.501 1.724 2.705z" fill="#fff"/><path d="M65.097 149.682c.198 5.073 6.05 6.637 10.232 6.149 5.047-.589 10.185-2.686 14.809-4.702 9.142-4.005 17.478-9.72 24.597-16.646 1.467-1.444 3.811.711 2.344 2.155-6.362 6.209-13.594 11.433-21.55 15.459-3.967 1.966-8.034 3.712-12.252 5.03-4.334 1.391-9.22 2.805-13.739 1.492-4.01-1.15-7.477-4.494-7.644-8.821-.087-2.04 3.127-2.204 3.203-.116zm22.35-32.239c4.082-1.595 8.763-3.203 13.051-1.301 3.337 1.491 5.9 5.322 4.677 8.99-.68 1.918-3.798 1.216-3.118-.702.896-2.657-1.327-5.13-3.868-5.751-3.286-.839-6.748.649-9.738 1.8-1.954.744-2.911-2.282-1.004-3.036z" fill="#fff"/><path d="M105.01 126.969c4.693-2.986 11.256 1.597 10.298 6.953-.359 2.038-3.525 1.326-3.118-.703.508-2.695-3.144-4.996-5.446-3.592-1.755 1.182-3.479-1.523-1.734-2.658zM89.666 114.64c1.684-2.628-1.494-5.71-3.891-3.44-1.457 1.398-3.849-.768-2.345-2.154 2.087-1.995 5.46-2.419 7.82-.557 2.276 1.795 2.797 5.215 1.25 7.676-1.074 1.681-3.918.203-2.834-1.525z" fill="#fff"/><path d="M110.399 137.205c12.728-7.142 23.742-17.036 32.086-28.961 1.168-1.66 4.012-.181 2.834 1.525a100.85 100.85 0 01-33.196 30.141c-1.771 1.031-3.495-1.675-1.724-2.705zm-74.761-18.51c2.382-6.612 7.723-11.375 12.603-16.29l16.358-16.431c4.743-4.75 9.407-9.812 15.094-13.462 5.271-3.348 11.349-4.987 17.577-5.31 7.121-.32 14.303.854 21.322 2.09 2.053.363 1.356 3.46-.697 3.096-11.513-2-24.428-4.17-35.09 1.959-5.476 3.154-9.894 7.78-14.268 12.218-5.075 5.118-10.138 10.19-15.212 15.308-2.75 2.733-5.49 5.42-8.156 8.221-2.597 2.718-5.048 5.666-6.355 9.267-.68 1.917-3.856 1.251-3.176-.666zm-26.91 29.337c-3.879-1.07-6.08 4.301-2.176 5.919 1.769.744 3.697-.548 5.059-1.523 1.824-1.265 3.621-2.635 5.419-4.005a324.152 324.152 0 0021.364-17.72c1.504-1.386 3.895.779 2.345 2.155a363.873 363.873 0 01-13.958 11.943 450.687 450.687 0 01-7.543 5.943c-2.271 1.707-4.48 3.576-6.897 5.053-1.955 1.187-4.224 2.007-6.497 1.298-2.178-.688-3.893-2.553-4.441-4.747-1.15-4.597 3.624-8.6 8.07-7.402 1.963.541 1.266 3.638-.745 3.086z" fill="#fff"/><path d="M118.349 66.624c13.841 8.194 24.321 21.4 29.005 36.751.602 1.959-2.45 2.948-3.041.942-4.429-14.505-14.294-27.128-27.443-34.871-1.8-1.046-.274-3.858 1.479-2.822z" fill="#fff"/><path d="M115.854 67.343c-1.038-1.121-2.113-2.3-3.151-3.42l2.252-.085c-2.392 2.468-6.616 4.031-9.264 1.02-2.323-2.693-1.073-6.7 2.64-7.097 3.456-.355 7.176 1.863 9.662 4.05 2.728 2.438 4.713 5.744 5.507 9.275.449 1.974-2.603 2.963-3.042.942-.939-4.205-3.639-7.87-7.496-9.92-.95-.412-5.216-2.408-5.292-.305-.033 1.028 1.168 1.643 2.035 1.543 1.161-.084 2.128-.852 2.906-1.663.573-.561 1.65-.713 2.253-.084 1.038 1.12 2.113 2.3 3.151 3.42 1.4 1.5-.761 3.822-2.161 2.324zm30.635 38.992a385.85 385.85 0 0038.432-22.306c1.697-1.146 3.421 1.559 1.724 2.705-12.362 8.161-25.2 15.574-38.432 22.306-1.844.916-3.579-1.742-1.724-2.705z" fill="#fff"/><path d="M110.593 62.264c.037.058.026.105.053.21.13.522.077 1.2-.349 1.548-1.551 1.376-4.175.243-3.432-1.956.448-1.329 1.925-1.933 3.06-2.565 1.308-.74 2.57-1.492 3.868-2.186 5.418-3.118 10.825-6.19 16.243-9.308 10.894-6.273 21.835-12.535 32.729-18.808 1.771-1.031 3.495 1.674 1.724 2.705-9.181 5.278-18.351 10.51-27.531 15.788-4.562 2.621-9.181 5.279-13.743 7.9l-6.611 3.786c-1.087.643-2.222 1.274-3.31 1.917-.394.207-3.321 1.52-3.369 1.953-.057-.407-.114-.815-.229-1.186a.651.651 0 00.157.184c-.346-.226-.693-.452-.981-.714-.279.134-.594.211-.872.346l-.349 1.548c-.037-.058-.026-.105-.052-.209-.554-1.949 2.498-2.938 2.994-.953zm24.856-5.003c2.217-4.776 11.164-3.944 11.088 1.905-.062 2.698-2.643 4.68-5.137 4.957-1.229.167-2.552-.131-3.523-.892-1.725-1.375-1.24-3.09-1.101-5.03.16-2.034 3.374-2.198 3.214-.164-.011.49-.387 2.378-.156 2.677.325.32.924.306 1.334.25.982-.173 2.359-.996 2.213-2.114-.364-2.35-4.235-1.693-5.004-.042-.953 1.807-3.797.328-2.928-1.547zm-46.814 54.682a117.904 117.904 0 00-31.81 15.17c-1.698 1.146-3.422-1.559-1.724-2.705 10.012-6.767 20.978-12.038 32.588-15.537 1.96-.545 2.916 2.481.946 3.072z" fill="#fff"/></svg>