<svg width="180" height="177" fill="none" xmlns="http://www.w3.org/2000/svg"><g clip-path="url(#clip0)" fill="#fff"><path d="M83.975 129.534c-11.528-1.078-21.72-9.099-26.508-19.472-2.536-5.506-3.344-11.52-2.494-17.51 1.014-7.138 4.03-14.088 7.964-20.094 1.999-3.047 4.32-5.898 7.012-8.36 2.947-2.705 6.297-4.855 9.917-6.56 3.7-1.73 7.59-2.994 11.52-4.04 3.24-.866 6.517-1.697 9.84-2.057 2.911-.309 5.982-.244 8.728.87a10.665 10.665 0 013.688 2.52c1.296 1.348 2.315 2.933 3.702 4.178 2.569 2.305 6.496 2.467 8.571 5.362 1.082 1.497 1.678 3.323 2.236 5.078a61.663 61.663 0 011.253 4.425c2.826 11.683 2.526 25.177-4.614 35.342a28.806 28.806 0 01-2.794 3.411c-.623.658.34 1.687.963 1.029 9.008-9.466 10.778-23.296 8.711-35.725a61.644 61.644 0 00-2.328-9.347c-.603-1.805-1.25-3.623-2.405-5.154-1.117-1.497-2.642-2.376-4.337-3.093-1.666-.696-3.294-1.32-4.595-2.61-1.398-1.367-2.44-3.031-3.872-4.362-2.224-2.066-5.105-3.09-8.095-3.381-3.177-.301-6.39.166-9.503.819-3.95.837-7.873 1.898-11.69 3.232-3.938 1.38-7.79 3.099-11.28 5.432-3.249 2.17-6.11 4.83-8.587 7.836-4.758 5.764-8.374 12.755-10.356 19.964-1.748 6.372-1.996 13.089.015 19.438 3.586 11.355 13.301 20.834 24.973 23.574 1.405.339 2.843.569 4.28.691.92.045.984-1.361.085-1.436z"/><path d="M84.755 131.154a46.695 46.695 0 0019.211-3.611c.84-.351.169-1.589-.656-1.246a45.071 45.071 0 01-18.491 3.451c-.906-.017-.97 1.389-.064 1.406zm22.124-4.159a49.554 49.554 0 0018.48-13.853c.572-.686-.377-1.723-.963-1.03a48.618 48.618 0 01-18.173 13.638c-.832.365-.161 1.603.656 1.245zm-6.275 3.856c-.367.102-.437.212-.196.286.059.043.117.085.162.135.17.184.27.443.383.657.294.523.595 1.059.874 1.589.557 1.023 1.129 2.039 1.687 3.062l3.456 6.247c.437.794 1.683.137 1.246-.657l-4.608-8.328-1.085-1.953c-.316-.566-.576-1.233-1.049-1.679-.636-.617-1.96-.907-2.225.221-.199.873 1.143 1.3 1.355.42z"/><path d="M121.645 116.892a49.74 49.74 0 017.04 11.346c.379.824 1.625.168 1.246-.657a51.86 51.86 0 00-7.271-11.645c-.573-.704-1.602.259-1.015.956z"/><path d="M107.422 145.003a30.905 30.905 0 0013.53-3.142 31.23 31.23 0 005.793-3.693c1.666-1.353 3.343-2.859 4.337-4.791.96-1.859 1.323-4.191-.29-5.793-.643-.63-1.672.333-1.029.963 1.294 1.276.683 3.171-.128 4.55-.985 1.671-2.528 3.015-4.037 4.213a29.538 29.538 0 01-11.056 5.441 29.321 29.321 0 01-7.041.875c-.913-.031-.977 1.375-.079 1.377z"/><path d="M112.935 146.196c1.908 1.19 4.508.569 5.884-1.161.669-.847 1.215-2.104.206-2.908-.935-.733-2.343-.522-2.995.462-.498.757.698 1.498 1.196.742.266-.397.891-.287 1.081.107-.018-.173-.03-.368-.048-.542-.371 1.97-2.836 3.16-4.575 2.082-.77-.454-1.526.749-.749 1.218zm12.175-8.318c.008 1.751 1.986 3.179 3.619 2.319 1.632-.861 1.617-3.286.183-4.305-.735-.527-1.477.669-.742 1.196.567.415.547 1.523-.098 1.863-.666.333-1.556-.314-1.556-1.009.009-.92-1.411-.976-1.406-.064zm-21.729-3.807a51.535 51.535 0 0020.149-13.288c.609-.651-.34-1.687-.963-1.03-5.372 5.777-12.069 10.256-19.476 12.934-.863.308-.558 1.685.29 1.384zm1.787 5.406a65.66 65.66 0 0021.615-13.841c.653-.637-.311-1.666-.963-1.029a64.04 64.04 0 01-21.308 13.624c-.833.33-.177 1.575.656 1.246zm.896 3.297a66.96 66.96 0 0024.95-15.289c.653-.636-.31-1.665-.963-1.029-6.888 6.685-15.206 11.837-24.292 14.941-.855.286-.551 1.663.305 1.377z"/><path d="M101.752 137.82c.507.72 1.526.604 1.841-.257.321-.883-.598-1.551-1.406-1.418-1.963.303-2.34 3.026-1.082 4.266a.727.727 0 00.842.141c1.162-.539 2.115-1.334 2.919-2.343.565-.7-.631-1.441-1.196-.742a6.623 6.623 0 01-2.379 1.839c.284.052.559.09.843.142a1.196 1.196 0 01-.371-1.086c.033-.181.094-.378.199-.525.148-.206.962-.745 1.021-.666-.501-.742-1.754-.1-1.231.649zm25.42-15.023c.953-1.143 2.046-2.158 3.296-2.981-.314-.109-.634-.196-.948-.305.769 1.076.122 2.697-1.22 2.893-.902.127-.598 1.504.304 1.376 2.166-.3 3.438-3.129 2.162-4.926-.209-.292-.605-.523-.962-.298-1.357.898-2.566 1.937-3.603 3.197-.564.7.384 1.737.971 1.044zM66.65 105.789c2.957 2.833 5.927 5.658 8.884 8.491.657.623 1.687-.34 1.029-.963-2.956-2.833-5.927-5.658-8.883-8.491-.658-.623-1.687.34-1.03.963zm17.037-3.745c-2.953-.95-6.287 1.228-6.956 4.196-.37 1.622.134 3.552 1.594 4.483 1.82 1.163 3.649-.367 4.948-1.582 1.391-1.319 2.686-3.062 2.238-5.094-.193-.887-1.57-.582-1.377.304.383 1.664-1.035 3.07-2.172 4.072-.626.549-1.476 1.436-2.39 1.296-.836-.127-1.342-1.086-1.487-1.814-.551-2.747 2.608-5.362 5.196-4.513.86.279 1.266-1.069.406-1.348z"/><path d="M80.313 93.212l-.724-1.375c-.422-.802-1.668-.145-1.246.656 2.52 4.783 5.033 9.55 7.552 14.333.423.801 1.669.145 1.246-.657L79.59 91.837l-1.246.656.724 1.375c.423.802 1.669.145 1.246-.656zm11.618 3.61c1.551-.25 3.17-.756 4.207-2.016.755-.928 1.067-2.245.703-3.389a2.727 2.727 0 00-2.444-1.895c-1.153-.07-2.255.548-3.094 1.283-1.868 1.661-2.936 4.566-2.55 7.033.4 2.497 2.546 4.659 5.156 4.473 3-.209 5.146-3.115 6.317-5.616.381-.804-.808-1.568-1.196-.742-.804 1.704-1.96 3.503-3.648 4.465-1.768.987-3.771.414-4.743-1.36-1.009-1.81-.54-3.978.422-5.693.62-1.113 2.31-3.082 3.81-2.282.938.494.843 1.806.36 2.591-.728 1.189-2.306 1.563-3.59 1.764-.924.157-.605 1.526.29 1.384zm14.72-9.531c-.531-1.806-2.668-2.18-4.193-1.394-1.933 1.018-2.076 3.526-1.948 5.435.122 1.655.449 3.733 1.94 4.758.713.484 1.648.559 2.407.159 1.01-.514 1.58-1.62 1.913-2.655.788-2.464.432-5.222-.917-7.4-.345-.55-1.335-.45-1.326.295a10.015 10.015 0 004.504 8.2c.756.499 1.498-.697.742-1.195-2.328-1.536-3.795-4.147-3.84-6.94-.44.103-.887.192-1.326.296 1.109 1.793 1.474 3.979.917 6.01-.222.795-.678 2.187-1.676 2.237-.694.037-1.122-.67-1.38-1.23-.668-1.44-.828-3.551-.448-5.087.199-.837.661-1.592 1.532-1.814.598-.15 1.504-.097 1.715.615.265.885 1.641.58 1.384-.29zm7.466-7.776c-1.426 1.08-2.79 2.623-2.851 4.52-.045 1.616.889 3.32 2.526 3.719 1.179.293 3.952-.73 3.922 1.262-.027 2.448-3.163 2.4-4.881 2.334-.898-.038-.963 1.368-.064 1.406 2 .08 4.512.056 5.754-1.788.934-1.388.851-3.594-.845-4.347-1.528-.677-3.716.622-4.687-1.152-1.055-1.933.65-3.8 2.082-4.903.733-.587-.244-1.609-.956-1.05zM62.572 98.536c-.472.285-1.104.544-1.486.93-.284.295-.28.787-.179 1.154.19.778.926 1.305 1.661 1.485 2.111.534 3.275-1.598 3.921-3.219.11-.277-.043-.672-.3-.811-.548-.278-1.083-.564-1.632-.841-.805-.418-1.547.778-.742 1.195.549.278 1.083.564 1.632.841-.107-.272-.192-.538-.3-.811-.309.767-.685 1.788-1.466 2.181-.509.25-1.497.076-1.404-.65-.12.191-.252.389-.364.594l1.344-.818c.743-.465.087-1.71-.685-1.23zm39.961-33.296c1.425-2.434 2.858-4.853 4.283-7.287-.259.1-.539.192-.812.3 2.147.532 1.851 3.268.969 4.72-.496.83-1.171 1.77-1.925 2.387-.726.602-1.842.22-2.171-.612-.337-.847-1.575-.176-1.246.656.497 1.257 1.995 1.876 3.277 1.567.727-.183 1.188-.663 1.669-1.209.53-.59 1.045-1.21 1.466-1.87.792-1.24 1.26-2.713.925-4.183-.311-1.318-1.205-2.494-2.551-2.827-.299-.08-.644.029-.812.3-1.425 2.434-2.858 4.854-4.283 7.288-.454.806.75 1.562 1.211.77zm8.385 1.088c-.212.222-.211.294.005.217.036 0 .086-.01.13.004.146.033.276.038.415.093.416.165.821.482 1.188.727a24.383 24.383 0 012.273 1.675c1.401 1.164 2.653 2.499 3.769 3.923a24.584 24.584 0 014.586 10.023c.178.894 1.555.589 1.377-.305-.921-4.49-3.06-8.687-6.108-12.112a25.796 25.796 0 00-5.14-4.407c-.808-.526-1.624-1.102-2.636-1.008-.78.082-1.441.632-1.213 1.481.199.865 1.575.56 1.354-.311z"/><path d="M111.912 67.45c-.158-1.654 2.039-2.52 3.378-2.237 2.145.461 3.474 2.706 4.475 4.466 2.647 4.642 4.42 9.708 5.329 14.973.156.887 1.532.583 1.376-.304a46.99 46.99 0 00-4.691-13.938c-1.563-3-4.249-7.75-8.384-6.466-1.72.522-3.036 1.947-2.859 3.811.084.889 1.46.584 1.376-.305zm-9.452-22.972c-.101.017-.043-.013 0 0-.058-.006-.072.002 0 0 .03.022.03.022 0 0 .008.015-.131-.04-.036.001.095.042-.059-.042-.059-.042.044.014.074.07.022.007-.066-.057-.015-.029.008.014-.008-.014-.069-.165-.03-.057.046.122-.011-.16.008.05-.03-.368-.262-.74-.682-.738-.347 0-.769.277-.738.682.039.491.236.9.633 1.203.339.26.782.338 1.201.264.36-.08.627-.477.547-.837-.146-.381-.499-.634-.874-.547z"/><path d="M104.01 24.746a65.946 65.946 0 00-3.278 17.46c-.055 1.145-.211 2.654.755 3.48.907.785 2.114.332 2.681-.607.692-1.151.603-2.605.655-3.895.053-1.6.077-3.187.08-4.78.002-3.64-.155-7.272-.457-10.9-.069-.896-1.475-.96-1.406-.064.443 5.493.56 10.992.344 16.485-.014.391-.029 3.07-.92 2.734-.416-.165-.376-1.027-.37-1.396.015-.667.052-1.326.088-1.986.177-2.58.484-5.157.973-7.702a66.814 66.814 0 012.189-8.416c.293-.867-1.041-1.28-1.334-.413zm24.394 12.994a79.861 79.861 0 00-6.167 6.91c-1.89 2.385-3.856 4.903-5.312 7.591-.481.894-.871 2.27-.043 3.078.887.886 2.12.31 2.805-.509.996-1.201 1.732-2.687 2.572-4.008a590.2 590.2 0 002.668-4.277c2.002-3.214 4.012-6.414 6.015-9.627.476-.764-.706-1.513-1.196-.742-3.054 4.865-6.085 9.737-9.138 14.602-.364.594-.742 1.196-1.114 1.776-.329.52-.633 1.193-1.117 1.595-.534.446-.63-.016-.503-.503.147-.59.52-1.098.842-1.597a75.862 75.862 0 014.576-6.454c1.882-2.4 3.927-4.667 6.096-6.834.617-.6-.346-1.63-.984-1zm19.338 21.77a34.766 34.766 0 00-9.002 5.31c-1.317 1.078-6.455 4.938-3.613 6.825.279.182.603.103.853-.083 5.063-3.967 10.141-7.942 15.197-11.923.712-.558-.251-1.588-.963-1.03-5.064 3.968-10.142 7.942-15.198 11.924.282-.021.571-.063.853-.084-1.094-.722 4.431-5.097 5.066-5.56 2.288-1.7 4.822-3.071 7.464-4.134.832-.329.176-1.575-.657-1.245zm6.97 23.712c-3.978.889-7.962 1.8-11.94 2.688-2.356.528-6.434 1.122-6.505 4.288-.008.297.188.633.501.706 1.55.372 3.01-.05 4.423-.703 1.706-.79 3.353-1.657 5.105-2.36a46.03 46.03 0 0111.465-2.896c.895-.106.591-1.482-.305-1.376a47.053 47.053 0 00-10.825 2.65 47.639 47.639 0 00-5.022 2.206c-1.347.674-2.871 1.495-4.436 1.13.165.243.336.464.5.707.033-1.188 1.193-1.8 2.184-2.176 1.451-.545 3.068-.775 4.574-1.111 3.531-.8 7.047-1.591 10.578-2.39.894-.18.604-1.563-.297-1.363zm-.959 21.617c-3.992-.806-8.068-1.109-12.139-.848-2.885.184-7.901.248-8.825 3.772-.1.4.095.736.468.888 2.871 1.212 6.006.53 8.916-.162 2.896-.685 6.027-1.584 8.912-.379.84.344 1.246-1.004.406-1.348-2.864-1.198-6.006-.53-8.909.176-2.896.685-6.026 1.584-8.905.357l.468.888c.374-1.442 1.898-1.988 3.209-2.277 1.687-.376 3.466-.472 5.18-.552 3.617-.15 7.257.127 10.813.833.872.162 1.3-1.179.406-1.348zM69.491 28.612a160.25 160.25 0 003.356 11.092 155.816 155.816 0 001.886 5.245c.59 1.536 1.076 3.292 1.975 4.685.704 1.092 1.915 1.863 3.228 1.335 1.214-.475 1.96-1.801 1.948-3.075-.013-1.621-.955-3.027-1.73-4.393-.984-1.695-1.962-3.412-2.947-5.107-2.21-3.811-4.405-7.63-6.614-11.441-.452-.787-1.698-.13-1.246.656 3.398 5.893 6.903 11.747 10.215 17.685.617 1.102 1.395 2.613.53 3.782-.296.412-.788.763-1.313.6-.582-.168-.922-.813-1.157-1.329-.682-1.397-1.184-2.906-1.73-4.357a140.717 140.717 0 01-1.754-4.893 161.834 161.834 0 01-3.271-10.826c-.243-.841-1.62-.537-1.376.341zM39.559 53.751a85.784 85.784 0 007.49 8 73.647 73.647 0 004.153 3.646c1.054.853 2.193 1.625 3.477 2.12 1.168.445 2.497.605 3.674.13 1.2-.467 2.283-1.605 2.123-2.984-.188-1.676-1.963-2.441-3.253-3.152-1.67-.913-3.333-1.847-5.003-2.76-3.788-2.084-7.561-4.175-11.349-6.258-.798-.44-1.54.756-.742 1.195 5.832 3.22 11.756 6.337 17.525 9.681.557.329 1.4.781 1.43 1.534.027.607-.563 1.12-1.057 1.361-1.032.508-2.218.236-3.22-.206-1.161-.503-2.177-1.285-3.142-2.075a107.006 107.006 0 01-3.601-3.188 85.004 85.004 0 01-7.49-8c-.573-.704-1.602.26-1.015.956zM29.36 85.541c4.825 3.256 10.69 4.977 16.508 4.802 1.28-.035 3.07.028 3.819-1.226.615-1.02.116-2.348-.789-3.023-1.185-.894-2.944-.9-4.367-1.065a72.968 72.968 0 00-5.04-.363 71.766 71.766 0 00-11.284.495c-.895.106-.59 1.482.305 1.376a69.449 69.449 0 0117.204.044c.842.106 2.974.263 2.82 1.57-.115 1.03-2.77.782-3.502.784a26.513 26.513 0 01-7.298-1.039 26.65 26.65 0 01-7.664-3.572c-.727-.476-1.469.72-.713 1.217zm5.806 34.699c2.653-1.526 5.307-3.053 7.953-4.594 1.287-.751 2.568-1.481 3.855-2.232 1.152-.662 2.37-1.578 3.681-1.903.555-.128 1.098-.14 1.59.168.41.26.775.708.583 1.211-.37 1-2.26 1.374-3.121 1.682-2.895 1.068-5.79 2.136-8.671 3.197l-9.728 3.589c-.84.315-.183 1.56.657 1.245 6.573-2.421 13.155-4.791 19.72-7.263 1.128-.429 2.373-1.086 2.577-2.401.172-1.096-.559-2.102-1.51-2.588-1.222-.618-2.584-.285-3.744.29-1.512.742-2.934 1.655-4.379 2.49-3.368 1.94-6.752 3.887-10.113 5.841-.794.474-.152 1.727.65 1.268zm14.139 23.118c-.106.458-.205.931-.31 1.389-.206.895.989 1.253 1.34.428a44.039 44.039 0 0111.166-15.616 49.092 49.092 0 011.736-1.464c.462-.371 1.24-1.221 1.893-1.198.666.014.392.708.197 1.103-.333.688-.887 1.163-1.47 1.653a122.408 122.408 0 00-7.865 7.401 123.18 123.18 0 00-7.87 8.921c-.564.7.632 1.442 1.197.742a119.65 119.65 0 0112.416-13.312c.718-.652 1.45-1.312 2.188-1.958.704-.608 1.481-1.183 2.052-1.904.727-.913 1.49-2.486.54-3.523-1.2-1.306-2.825-.084-3.871.742-2.806 2.21-5.322 4.761-7.543 7.56-2.496 3.181-4.52 6.699-6.107 10.425.46.142.897.278 1.342.428.106-.459.204-.931.31-1.39.206-.895-1.15-1.315-1.34-.427zm26.855 12.283c.21-4.392.82-8.756 1.859-13.035.485-2.03.99-4.126 1.818-6.062.787-1.841 1.96-3.539 3.891-4.282l-.962-.298c1.54 3.304-1 7.094-2.32 10.04a66.748 66.748 0 00-4.045 11.699 72.27 72.27 0 00-1.322 6.935c-.133.893 1.287.949 1.406.064a68.314 68.314 0 012.986-12.458 66.785 66.785 0 012.392-5.981c.789-1.733 1.708-3.425 2.285-5.247.583-1.88.729-3.86-.128-5.695-.182-.379-.61-.428-.962-.298-4.159 1.588-5.329 6.833-6.29 10.669a72.776 72.776 0 00-2.036 13.878c-.024.927 1.375.977 1.428.071z"/><path d="M75.042 154.839l-.849 8.076c-.09.907 1.31.957 1.406.064l.85-8.076c.103-.914-1.317-.97-1.407-.064z"/></g><defs><clipPath id="clip0"><path fill="#fff" transform="rotate(-27.787 128.159 31.7)" d="M0 0h136v128H0z"/></clipPath></defs></svg>