<svg width="188" height="43" fill="none" xmlns="http://www.w3.org/2000/svg"><path fill-rule="evenodd" clip-rule="evenodd" d="M24.402.014h-.685c-.546.783-4.909 4.517-5.971 5.426-2.042 1.79-3.916 3.664-5.944 5.468-1.971 1.748-4.195 3.538-6.027 5.37a45.852 45.852 0 01-2.964 2.74C2.25 19.494 0 21.172 0 21.913c0 .266.294.573.56.573h7.299v17.9l.028-.168c.993-.252 1.93-.7 2.937-.937-.532-.084-1.035-.238-1.539-.378-.42-.056-.839-.097-1.244-.14.405.043.825.084 1.244.14-.42-.056-.839-.097-1.244-.14l.028-.195c.769.084 1.538.182 2.335.28.196.014.392.041.587.07.923.111 1.86.223 2.811.335l.77-10.642a5.295 5.295 0 01-4.042-5.146c0-2.922 2.363-5.3 5.286-5.3 1.104 0 2.111.336 2.964.91a6.946 6.946 0 016.922-6.363 6.935 6.935 0 016.936 6.936 6.938 6.938 0 01-6.936 6.95h-.21l.924 12.963c.49-.042.965-.07 1.454-.112.713-.042 1.412-.084 2.111-.112a14.17 14.17 0 011.72.084l.448-6.265a3.64 3.64 0 01-3.258-3.622 3.64 3.64 0 013.636-3.65 3.652 3.652 0 013.65 3.65 3.638 3.638 0 01-3.329 3.622l.462 6.405c.531.028 1.076.028 1.608-.056.727-.294 1.426-.504 2.181-.322l.084.014c3.594-.433 3.916-.182 1.063.252l1.804.447-.112.643c-.923-.195-1.79-.685-2.783-.615a8.381 8.381 0 00-.853.14c.448.196.853.434 1.245.671l2.81.672-.097.657c-.923-.21-1.804-.685-2.783-.615-1.259.097-2.28.67-3.426.992h5.635c.308 0 .322-.056.574-.111.028-.364.112-.406.112-.798V22.486h7.3c.32 0 .573-.391.573-.685 0-.769-7.104-6.265-7.873-7.425L40.26 3.202c-.252-.055-.266-.111-.574-.111h-6.95l-.153-.014-.098 4.25L24.402.015zm-.587 26.332a7.048 7.048 0 01-2.867-1.622 5.267 5.267 0 01-5.132 4.027h-.056l.769 10.782c2.14.195 4.293.321 6.335.28l.95-13.467zm12.487 13.718c-.098.028-.21.056-.307.084-1.175.336-2.224.937-3.524.965-2.294.07-4.433-.881-6.727-.853-1.985.028-3.677.713-5.51 1.035-.265.042-.559.125-.838.07-2.462-.448-4.88-2.14-7.272-1.567l-4.265 1.05v.796c0 .252.084.518.252.672l.098-.574c1.44-.363 2.754-1.16 4.335-1.09 2.684.111 4.866 1.51 7.537 1.608 1.986.07 3.65-1.077 5.663-1.12 2.266-.055 4.391.896 6.657.812 1.762-.07 3.216-1.538 4.824-1.287.056.014.126.014.182.028l.14.042a10.512 10.512 0 00-1.245-.67zm-27.017-1.16c-.42-.057-.839-.099-1.244-.14l-.014.181.028-.321c.28.028.545.098.825.168.14.027.28.07.405.111zm6.363.922c1.329.406 2.643.853 4.111.91 1.035.041 1.972-.252 2.909-.546-2.265.042-4.67-.126-7.02-.364zm12.138.014c1.426.266 2.839.644 4.307.588.643-.028 1.245-.238 1.832-.49-1.328 0-2.629-.252-3.93-.21-.727.014-1.468.056-2.209.112zM8.195 42.371c.07.042.14.07.237.07h9.635c-1.902-.643-3.775-1.566-5.621-1.118L8.195 42.37zm14.067.07h8.25c-1.467-.265-2.922-.685-4.446-.657-1.328.014-2.573.35-3.804.657z" fill="#F07C00"/><path fill-rule="evenodd" clip-rule="evenodd" d="M52.118 15.773h5.272c2.433 0 4.419.322 5.943.979s2.741 1.86 3.664 3.636 1.37 4.167 1.37 7.16c0 2.139-.28 4.04-.839 5.69-.545 1.665-1.286 2.965-2.181 3.916-.91.951-1.93 1.595-3.077 1.916-1.132.336-2.545.49-4.25.49h-5.692c-.602 0-.56.084-.56-.518-.014-7.69-.097-15.228 0-22.905 0-.14.21-.364.35-.364zm4.866 4.07v15.633h.895c1.203 0 2.14-.237 2.797-.699.657-.475 1.189-1.286 1.594-2.447.392-1.16.588-2.825.588-5.006 0-2.014-.224-3.566-.657-4.67-.434-1.078-.98-1.833-1.637-2.224-.657-.392-1.552-.588-2.685-.588h-.895zm31.213 7.816c0 8.18-2.867 12.264-8.615 12.264-2.852 0-5.006-1.035-6.46-3.118-1.454-2.084-2.182-5.146-2.182-9.146 0-8.18 2.881-12.25 8.629-12.25 2.796 0 4.95 1.021 6.418 3.063 1.482 2.042 2.21 5.104 2.21 9.187zm-5.496 0c0-3.202-.252-5.341-.755-6.418-.49-1.05-1.287-1.595-2.377-1.595-1.077 0-1.874.546-2.378 1.609-.49 1.09-.74 3.216-.74 6.404 0 3.133.25 5.244.74 6.363.49 1.105 1.287 1.664 2.377 1.664 1.077 0 1.874-.531 2.364-1.594.517-1.063.769-3.202.769-6.433zm10.25-11.886h6.545l3.356 14.683 3.622-14.054c.181-.74.167-.629.922-.629h5.762c.881 0 .923-.182.923.727v22.542c0 .574.056.518-.518.518h-3.859c-.643 0-.532 0-.532-.63V19.633l-4.81 19.787c-.014.042-.028.098-.042.14h-3.608c-.196 0-.182.014-.224-.182l-4.404-19.745v19.703c0 .266 0 .224-.266.224h-3.51c-.574 0-.476 0-.476-.56V16.976c0-1.273-.167-1.203 1.12-1.203zm39.449 5.44l-2.825 1.09c-.965.364-.699.308-1.119-.559-.657-1.398-1.664-2.098-3.048-2.098-.769 0-1.371.224-1.818.658-.448.433-.671.95-.671 1.538 0 .671.265 1.217.797 1.608.531.406 1.636.923 3.314 1.58 1.538.56 2.741 1.133 3.622 1.692a6.329 6.329 0 012.111 2.266c.546.95.811 2.07.811 3.328 0 2.237-.755 4.055-2.293 5.482-1.524 1.412-3.566 2.125-6.125 2.125-3.971 0-6.614-1.846-7.943-5.551-.042-.084-.07-.196-.112-.294-.223-.7-.293-.671.392-.867l3.58-1.02c.503-.14.377-.085.531.405.615 2.055 1.832 3.09 3.664 3.09.909 0 1.65-.238 2.209-.713.56-.475.839-1.09.839-1.874 0-.573-.195-1.09-.587-1.552-.391-.462-1.3-.937-2.713-1.454-1.832-.644-3.188-1.231-4.083-1.762-.881-.532-1.622-1.287-2.21-2.266-.573-.979-.867-2.097-.867-3.356 0-2.14.686-3.901 2.07-5.258 1.37-1.37 3.188-2.042 5.454-2.042 3.859 0 6.362 1.609 7.509 4.825.266.783.252.685-.489.979zm10.278-5.44h3.328c.937 0 .741.378 1.007 1.273l6.111 21.45c.294 1.022.545 1.064-.559 1.064h-3.622c-.993 0-.853 0-1.077-.965l-.951-3.944h-6.684l-1.175 4.909h-4.81l6.74-22.459c.419-1.384.252-1.328 1.692-1.328zm3.244 14.795l-2.391-9.719-2.321 9.719h4.712zm10.852-14.795h4.265c2.433 0 4.419.322 5.943.979 1.538.657 2.755 1.86 3.664 3.636.923 1.776 1.384 4.167 1.384 7.16 0 2.139-.28 4.04-.839 5.69-.559 1.665-1.286 2.965-2.195 3.916-.909.951-1.93 1.595-3.063 1.916-1.133.336-2.559.49-4.265.49h-4.894c-1.315 0-1.357.251-1.357-1.077V17.227c0-1.538-.21-1.454 1.357-1.454zm3.873 4.07v15.633h.881c1.203 0 2.14-.237 2.797-.699.671-.475 1.189-1.286 1.594-2.447.392-1.16.587-2.825.587-5.006 0-2.014-.209-3.566-.657-4.67-.433-1.078-.979-1.833-1.636-2.224-.643-.392-1.552-.588-2.685-.588h-.881zm11.145 17.103h1.72c.252 0 .21-.014.21.237v1.748c0 .448.056.42-.391.42h-1.539c-.335 0-.293.028-.293-.322v-1.748c0-.35-.042-.335.293-.335zm3.734-8.517h2.266v5.958l2.279-3.119h2.042l-2.042 2.713 2.237 5.37h-2.419l-1.272-3.762-.825 1.16v2.602h-2.266V28.429zm7.328 2.84h5.034v1.453l-2.993 5.035h3.077v1.594h-5.398v-1.594l2.937-4.88h-2.657v-1.609z" fill="#1B1918"/></svg>