<svg width="166" height="76" fill="none" xmlns="http://www.w3.org/2000/svg"><path d="M12.379 72.91c4.405-15.275 8.862-30.55 13.267-45.825-1.024.153-2.049.255-3.073.408 6.044 11.761 11.27 23.93 15.522 36.456a79.015 79.015 0 002.459-1.884C28.77 54.784 15.707 49.64 2.081 47.045v3.258c14.907-4.124 29.763-8.197 44.67-12.322-.564-.916-1.076-1.833-1.64-2.8C31.897 47.503 18.68 59.825 5.515 72.146c-1.588 1.477.82 3.87 2.408 2.393C21.087 62.218 34.304 49.896 47.52 37.574c1.23-1.171-.05-3.259-1.639-2.8a11417.352 11417.352 0 00-44.67 12.321c-1.537.408-1.69 2.903 0 3.26a111.107 111.107 0 0137.652 14.663c1.23.713 2.971-.51 2.459-1.935a274.478 274.478 0 00-15.88-37.27c-.666-1.325-2.664-.917-3.074.407C17.962 41.495 13.557 56.77 9.1 72.045c-.564 2.087 2.664 2.953 3.279.865zm67.078-55.66c1.586-5.5 3.19-11 4.777-16.5-.37.056-.738.092-1.107.147a96.83 96.83 0 015.589 13.126c.295-.22.59-.44.885-.678a41.004 41.004 0 00-13.852-5.408V9.11c5.368-1.485 10.716-2.951 16.084-4.436-.203-.33-.388-.66-.59-1.008-4.76 4.436-9.518 8.872-14.258 13.308-.572.532.295 1.394.867.862 4.74-4.436 9.499-8.873 14.257-13.309.443-.421-.018-1.173-.59-1.008a4110.38 4110.38 0 00-16.083 4.436c-.553.147-.609 1.045 0 1.173a40.005 40.005 0 0113.556 5.28c.443.257 1.07-.183.885-.697A98.818 98.818 0 0084.16.292c-.24-.476-.96-.33-1.107.147-1.586 5.5-3.172 11-4.777 16.499-.203.752.96 1.063 1.18.312zm50.627 28.762c7.896-5.71 15.816-11.402 23.712-17.113-.553-.313-1.086-.65-1.638-.964-1.524 7.962-3.597 15.81-6.275 23.463.627.014 1.253.029 1.899.019-2.938-7.965-7.303-15.381-12.901-21.781l-1.23 1.573c8.754 3.639 17.465 7.283 26.219 10.922.074-.656.173-1.291.266-1.971-11.034.957-22.068 1.914-33.078 2.89-1.324.114-1.065 2.178.259 2.065a16629.02 16629.02 0 0133.078-2.89c1.035-.102 1.206-1.593.266-1.972a7036.254 7036.254 0 00-26.219-10.922c-.896-.383-1.912.763-1.231 1.574a68.103 68.103 0 0112.639 21.299c.325.808 1.627.876 1.918-.006a168.208 168.208 0 006.41-23.99c.178-.891-.94-1.449-1.638-.965a9598.578 9598.578 0 01-23.712 17.113c-1.06.795.171 2.431 1.256 1.656z" fill="#fff"/></svg>