<svg width="126" height="33" viewBox="0 0 126 33" fill="none" xmlns="http://www.w3.org/2000/svg">
<path d="M46.7791 11.5206H53.5024C53.9562 11.5206 54.3345 11.6719 54.6371 11.9745C54.9397 12.2771 55.091 12.6554 55.091 13.1093C55.091 13.5443 54.9397 13.913 54.6371 14.2156C54.3345 14.4993 53.9562 14.6412 53.5024 14.6412H46.7791C46.3252 14.6412 45.9469 14.4899 45.6443 14.1873C45.3417 13.8847 45.1904 13.5064 45.1904 13.0525C45.1904 12.6176 45.3417 12.2582 45.6443 11.9745C45.9469 11.6719 46.3252 11.5206 46.7791 11.5206ZM49.8145 7.97461C50.3062 7.97461 50.7033 8.14482 51.0059 8.48524C51.3274 8.80675 51.4882 9.21336 51.4882 9.70508V22.329C51.4882 22.5937 51.5355 22.8112 51.63 22.9814C51.7435 23.1516 51.8854 23.2746 52.0556 23.3502C52.2447 23.4259 52.4433 23.4637 52.6513 23.4637C52.8783 23.4637 53.0863 23.4259 53.2754 23.3502C53.4645 23.2557 53.682 23.2084 53.9279 23.2084C54.1926 23.2084 54.429 23.3313 54.6371 23.5772C54.864 23.823 54.9775 24.1635 54.9775 24.5984C54.9775 25.128 54.6844 25.563 54.0981 25.9034C53.5307 26.2438 52.9161 26.414 52.2541 26.414C51.857 26.414 51.4125 26.3856 50.9208 26.3289C50.448 26.2532 49.9941 26.0925 49.5591 25.8466C49.1431 25.5819 48.7932 25.1847 48.5095 24.6552C48.2258 24.1256 48.084 23.3975 48.084 22.4708V9.70508C48.084 9.21336 48.2448 8.80675 48.5663 8.48524C48.9067 8.14482 49.3227 7.97461 49.8145 7.97461Z" fill="#F2F7FF"/>
<path d="M40.1372 10.9824C40.6289 10.9824 41.0355 11.1526 41.357 11.4931C41.6786 11.8146 41.8393 12.2212 41.8393 12.7129V19.9184C41.8393 21.9231 41.2814 23.5118 40.1656 24.6843C39.0498 25.8569 37.4422 26.4431 35.343 26.4431C33.2437 26.4431 31.6362 25.8569 30.5204 24.6843C29.4235 23.5118 28.875 21.9231 28.875 19.9184V12.7129C28.875 12.2212 29.0358 11.8146 29.3573 11.4931C29.6788 11.1526 30.0854 10.9824 30.5771 10.9824C31.0688 10.9824 31.4754 11.1526 31.7969 11.4931C32.1184 11.8146 32.2792 12.2212 32.2792 12.7129V19.9184C32.2792 21.0721 32.5345 21.9326 33.0451 22.5C33.5558 23.0484 34.3217 23.3226 35.343 23.3226C36.3831 23.3226 37.1585 23.0484 37.6692 22.5C38.1798 21.9326 38.4351 21.0721 38.4351 19.9184V12.7129C38.4351 12.2212 38.5959 11.8146 38.9174 11.4931C39.2389 11.1526 39.6455 10.9824 40.1372 10.9824Z" fill="#F2F7FF"/>
<path d="M84.9731 18.5953L84.9731 18.5953V18.5975V30.8867C84.9731 31.3232 85.1137 31.6936 85.4023 31.9822C85.7064 32.2863 86.0845 32.4384 86.5248 32.4384C86.9795 32.4384 87.3604 32.2885 87.6495 31.9801C87.9367 31.6918 88.0766 31.3222 88.0766 30.8867V24.0768C88.6538 24.687 89.3227 25.1861 90.0825 25.5738L90.0825 25.5738L90.0863 25.5757C91.0101 26.0191 92.0157 26.24 93.1006 26.24C94.4428 26.24 95.6524 25.9085 96.7245 25.2431L96.7245 25.2431L96.7264 25.2419C97.7946 24.5605 98.6328 23.6483 99.2397 22.5082C99.8658 21.348 100.177 20.043 100.177 18.5975C100.177 17.1496 99.8377 15.8429 99.1561 14.6818C98.4942 13.5239 97.592 12.6123 96.4515 11.9498C95.3078 11.2675 94.0095 10.9282 92.5616 10.9282C91.1313 10.9282 89.8421 11.2677 88.6987 11.9498C87.5578 12.6125 86.6555 13.5243 85.9936 14.6827C85.3306 15.843 84.9914 17.1486 84.9731 18.5953ZM96.7864 21.0983L96.7858 21.0996C96.3871 21.8275 95.8427 22.4065 95.1508 22.8392C94.4626 23.2518 93.6776 23.4599 92.791 23.4599C91.9233 23.4599 91.1378 23.2522 90.4303 22.8386C89.7391 22.4061 89.1951 21.8276 88.7967 21.1004C88.3986 20.3559 88.1982 19.5229 88.1982 18.5975C88.1982 17.6532 88.399 16.8208 88.7962 16.0955L88.7962 16.0955L88.797 16.094C89.1959 15.3483 89.7399 14.7707 90.4298 14.3567L90.4298 14.3567L90.4309 14.3561C91.1385 13.9246 91.9238 13.7083 92.791 13.7083C93.6769 13.7083 94.4613 13.9249 95.1495 14.3551L95.1494 14.3551L95.1522 14.3567C95.8421 14.7707 96.3861 15.3483 96.7849 16.094L96.7849 16.094L96.7873 16.0983C97.2015 16.8231 97.4108 17.6545 97.4108 18.5975C97.4108 19.5219 97.2018 20.3542 96.7864 21.0983Z" fill="#F2F7FF" stroke="#F2F7FF" stroke-width="0.354604"/>
<path d="M69.4833 25.2419L69.4852 25.2431C70.5573 25.9085 71.7669 26.24 73.1091 26.24C74.4513 26.24 75.661 25.9085 76.7331 25.2431L76.7331 25.2431L76.7349 25.2419C77.2557 24.9097 77.7218 24.5226 78.1332 24.081V24.6074C78.1332 25.044 78.2736 25.4206 78.5581 25.7255L78.5578 25.7258L78.5668 25.7341C78.8716 26.0186 79.2483 26.1591 79.6849 26.1591C80.1215 26.1591 80.4918 26.0185 80.7805 25.7299C81.0846 25.4258 81.2366 25.0477 81.2366 24.6074V18.7748V18.5975V18.4812L81.2359 18.4809C81.2181 17.0794 80.879 15.8116 80.2156 14.6818C79.5538 13.5239 78.6516 12.6123 77.5111 11.9498C76.3677 11.2677 75.0785 10.9282 73.6481 10.9282C72.2175 10.9282 70.9197 11.2678 69.7588 11.9495C68.6181 12.6119 67.7071 13.5233 67.0273 14.6809L67.0273 14.6809L67.0262 14.6827C66.3628 15.8437 66.0327 17.1501 66.0327 18.5975C66.0327 20.0423 66.3346 21.3467 66.9422 22.5067L66.9422 22.5067L66.9438 22.5097C67.5686 23.649 68.4154 24.5607 69.4833 25.2419ZM77.4105 16.094L77.4105 16.094L77.4113 16.0955C77.8085 16.8208 78.0094 17.6532 78.0094 18.5975C78.0094 19.5229 77.8089 20.3559 77.4109 21.1003C77.0123 21.8279 76.468 22.4066 75.7764 22.8392C75.0881 23.2518 74.3032 23.4599 73.4165 23.4599C72.5489 23.4599 71.7633 23.2522 71.0559 22.8386C70.3644 22.406 69.811 21.827 69.3945 21.0989C68.997 20.3548 68.7968 19.5223 68.7968 18.5975C68.7968 17.6535 68.9975 16.8213 69.3945 16.0961C69.8114 15.3494 70.3649 14.771 71.0553 14.3567L71.0553 14.3567L71.0564 14.3561C71.7641 13.9246 72.5494 13.7083 73.4165 13.7083C74.3024 13.7083 75.0868 13.9249 75.775 14.3551L75.775 14.3551L75.7778 14.3567C76.4677 14.7707 77.0117 15.3483 77.4105 16.094Z" fill="#F2F7FF" stroke="#F2F7FF" stroke-width="0.354604"/>
<path d="M59.3502 25.8103L59.3499 25.8106L59.3588 25.819C59.6636 26.1035 60.0403 26.2439 60.4769 26.2439C60.929 26.2439 61.3093 26.1049 61.5994 25.8147L61.5995 25.8148L61.6037 25.8103C61.8882 25.5055 62.0287 25.1288 62.0287 24.6922V12.6995C62.0287 12.2475 61.8896 11.8672 61.5994 11.577C61.3093 11.2868 60.929 11.1478 60.4769 11.1478C60.0403 11.1478 59.6636 11.2882 59.3588 11.5727L59.3587 11.5727L59.3544 11.577C59.0642 11.8672 58.9252 12.2475 58.9252 12.6995V24.6922C58.9252 25.1288 59.0657 25.5055 59.3502 25.8103ZM59.0817 8.53659L59.0816 8.53675L59.0882 8.54302C59.4797 8.91493 59.9453 9.10383 60.4769 9.10383C61.0088 9.10383 61.4672 8.91464 61.842 8.53985C62.2328 8.14903 62.4329 7.68239 62.4329 7.14783C62.4329 6.61445 62.2336 6.15618 61.842 5.78273C61.4686 5.3912 61.0103 5.19184 60.4769 5.19184C59.9424 5.19184 59.4757 5.39195 59.0849 5.78277C58.7101 6.15756 58.5209 6.61597 58.5209 7.14783C58.5209 7.67947 58.7098 8.14511 59.0817 8.53659Z" fill="#F2F7FF" stroke="#F2F7FF" stroke-width="0.354604"/>
<path d="M24.5587 19.8336L24.559 19.8328C25.0709 18.5165 25.3257 17.0751 25.3257 15.5105C25.3257 13.9459 25.0709 12.5131 24.5587 11.2143C24.0472 9.91719 23.3156 8.79169 22.3638 7.83972C21.4121 6.86988 20.2867 6.12897 18.9894 5.61717C17.7079 5.08649 16.2835 4.8227 14.7188 4.8227H9.84085C9.40155 4.8227 9.02422 4.97406 8.72048 5.27673C8.41204 5.56577 8.26215 5.94668 8.26215 6.40139V24.6465C8.26215 25.0868 8.41423 25.4649 8.71833 25.769C9.02243 26.0731 9.40051 26.2252 9.84085 26.2252H14.7188C16.2833 26.2252 17.7075 25.9704 18.9888 25.4579L18.99 25.4574C20.2865 24.9278 21.4115 24.1873 22.3632 23.2357L22.3644 23.2345C23.3157 22.2648 24.0472 21.1307 24.5587 19.8336ZM18.6168 8.65594L18.6179 8.65655C19.7577 9.32288 20.6514 10.2426 21.301 11.4189C21.9493 12.5927 22.2761 13.9548 22.2761 15.5105C22.2761 17.0475 21.9495 18.4099 21.3008 19.6025C20.6511 20.7787 19.757 21.7077 18.6166 22.3921C17.4976 23.0564 16.2002 23.3912 14.7188 23.3912H11.4195V7.65669H14.7188C16.2003 7.65669 17.4978 7.99148 18.6168 8.65594Z" fill="#F2F7FF" stroke="#F2F7FF" stroke-width="0.354604"/>
<path d="M1.17615 25.9409L1.17577 25.9412L1.18392 25.9505C1.33878 26.1275 1.54854 26.2114 1.79391 26.2114C2.1609 26.2114 2.52387 26.018 2.88003 25.6797C3.23533 25.3421 3.56027 24.9106 3.85633 24.3885C4.17046 23.8646 4.41454 23.2977 4.58883 22.6884C4.78049 22.0779 4.87744 21.49 4.87744 20.9254H4.87748L4.87739 20.9216C4.85981 20.1482 4.67498 19.5137 4.30685 19.0343C3.94577 18.5413 3.40554 18.3028 2.71588 18.3028C2.1532 18.3028 1.68958 18.4673 1.34504 18.8118C1.00496 19.1519 0.836031 19.5787 0.836031 20.0802C0.836031 20.4119 0.909909 20.7017 1.06845 20.9395C1.21091 21.1532 1.3714 21.3494 1.54992 21.5279L1.54976 21.5281L1.55617 21.5338C1.71831 21.6798 1.86431 21.8419 1.99424 22.0206C2.10583 22.174 2.16776 22.3769 2.16776 22.6412C2.16776 23.0225 2.07292 23.3382 1.89045 23.5967L1.89034 23.5966L1.88674 23.6022C1.70254 23.8869 1.51054 24.1455 1.31088 24.3785L1.31052 24.3782L1.30315 24.3882C1.09313 24.6746 0.989692 25.008 0.989692 25.3815C0.989692 25.5877 1.05242 25.7759 1.17615 25.9409Z" fill="#F2F7FF" stroke="#F2F7FF" stroke-width="0.327937"/>
<path d="M1.39416 12.2059L1.39402 12.206L1.39982 12.2115C1.78813 12.5813 2.24706 12.7696 2.76951 12.7696C3.30756 12.7696 3.76851 12.5823 4.14206 12.2087L4.14209 12.2088L4.14485 12.2059C4.51467 11.8175 4.70298 11.3586 4.70298 10.8362C4.70298 10.2988 4.51607 9.83833 4.14347 9.46503C3.77083 9.07447 3.30952 8.87705 2.76951 8.87705C2.24447 8.87705 1.78467 9.07591 1.39696 9.46362C1.02462 9.83595 0.836031 10.2878 0.836031 10.8105C0.836031 11.3484 1.02319 11.8163 1.39416 12.2059Z" fill="#F2F7FF" stroke="#F2F7FF" stroke-width="0.327937"/>
<rect x="93" width="33" height="16" rx="3" fill="#5798F6"/>
<path d="M100.984 6C101.496 6 101.948 6.124 102.34 6.372C102.732 6.62 103.036 6.972 103.252 7.428C103.476 7.884 103.588 8.416 103.588 9.024C103.588 9.624 103.476 10.156 103.252 10.62C103.036 11.084 102.728 11.444 102.328 11.7C101.936 11.956 101.488 12.084 100.984 12.084C100.544 12.084 100.156 11.992 99.82 11.808C99.484 11.616 99.228 11.344 99.052 10.992V12H97.84V3.54H99.052V7.104C99.228 6.752 99.484 6.48 99.82 6.288C100.156 6.096 100.544 6 100.984 6ZM100.696 11.124C101.216 11.124 101.62 10.94 101.908 10.572C102.204 10.204 102.352 9.688 102.352 9.024C102.352 8.368 102.208 7.864 101.92 7.512C101.632 7.152 101.224 6.972 100.696 6.972C100.168 6.972 99.76 7.152 99.472 7.512C99.192 7.872 99.052 8.384 99.052 9.048C99.052 9.712 99.192 10.224 99.472 10.584C99.76 10.944 100.168 11.124 100.696 11.124ZM109.946 9.276H105.806C105.894 10.516 106.51 11.136 107.654 11.136C108.326 11.136 108.934 10.916 109.478 10.476L109.85 11.328C109.578 11.56 109.242 11.744 108.842 11.88C108.442 12.016 108.034 12.084 107.618 12.084C106.682 12.084 105.942 11.816 105.398 11.28C104.862 10.744 104.594 10.004 104.594 9.06C104.594 8.46 104.71 7.928 104.942 7.464C105.182 7 105.514 6.64 105.938 6.384C106.37 6.128 106.858 6 107.402 6C108.194 6 108.814 6.256 109.262 6.768C109.718 7.28 109.946 7.988 109.946 8.892V9.276ZM107.426 6.888C106.962 6.888 106.59 7.036 106.31 7.332C106.038 7.62 105.874 8.036 105.818 8.58H108.902C108.878 8.036 108.738 7.62 108.482 7.332C108.234 7.036 107.882 6.888 107.426 6.888ZM113.995 11.148C114.179 11.148 114.359 11.136 114.535 11.112L114.475 12.036C114.275 12.068 114.067 12.084 113.851 12.084C113.091 12.084 112.523 11.9 112.147 11.532C111.779 11.156 111.595 10.616 111.595 9.912V7.08H110.455V6.144H111.595V4.38H112.807V6.144H114.415V7.08H112.807V9.864C112.807 10.72 113.203 11.148 113.995 11.148ZM117.901 6C118.685 6 119.265 6.196 119.641 6.588C120.025 6.98 120.217 7.576 120.217 8.376V12H119.053V11.028C118.901 11.372 118.673 11.636 118.369 11.82C118.073 11.996 117.725 12.084 117.325 12.084C116.941 12.084 116.589 12.008 116.269 11.856C115.949 11.696 115.697 11.476 115.513 11.196C115.337 10.916 115.249 10.604 115.249 10.26C115.249 9.836 115.357 9.504 115.573 9.264C115.797 9.016 116.161 8.84 116.665 8.736C117.177 8.632 117.877 8.58 118.765 8.58H119.041V8.232C119.041 7.784 118.945 7.46 118.753 7.26C118.569 7.06 118.265 6.96 117.841 6.96C117.177 6.96 116.513 7.164 115.849 7.572L115.489 6.72C115.801 6.504 116.177 6.332 116.617 6.204C117.065 6.068 117.493 6 117.901 6ZM117.541 11.184C117.981 11.184 118.341 11.036 118.621 10.74C118.901 10.436 119.041 10.048 119.041 9.576V9.264H118.825C118.201 9.264 117.721 9.292 117.385 9.348C117.049 9.404 116.809 9.5 116.665 9.636C116.521 9.764 116.449 9.952 116.449 10.2C116.449 10.48 116.549 10.716 116.749 10.908C116.957 11.092 117.221 11.184 117.541 11.184Z" fill="white"/>
</svg>
