<svg width="30" height="30" viewBox="0 0 30 30" fill="none" xmlns="http://www.w3.org/2000/svg">
<path d="M15 0.0507812C6.74126 0.0507812 0.0458984 6.74596 0.0458984 15.0047C0.0458984 23.2638 6.74126 29.9585 15 29.9585C23.2596 29.9585 29.9543 23.2638 29.9543 15.0047C29.9543 6.7465 23.2596 0.0514955 14.9998 0.0514955L15 0.0507812ZM21.8579 21.6186C21.59 22.0579 21.015 22.1972 20.5757 21.9276C17.0646 19.7829 12.6446 19.2972 7.43929 20.4865C6.93768 20.6008 6.43768 20.2865 6.3234 19.7847C6.20858 19.2829 6.52161 18.7829 7.02447 18.6686C12.7209 17.3667 17.6071 17.9276 21.5489 20.3365C21.9882 20.6061 22.1275 21.1794 21.8579 21.6186ZM23.6882 17.5463C23.3507 18.0954 22.6329 18.2686 22.0846 17.9311C18.065 15.4599 11.9377 14.7444 7.18322 16.1876C6.56661 16.3738 5.91536 16.0263 5.72822 15.4108C5.54251 14.7942 5.89018 14.1442 6.50572 13.9567C11.9366 12.3088 18.6882 13.107 23.3043 15.9436C23.8525 16.2811 24.0257 16.999 23.6882 17.5465V17.5463ZM23.8454 13.3063C19.0257 10.4436 11.0739 10.1804 6.47233 11.577C5.7334 11.8011 4.95197 11.384 4.72804 10.6451C4.50411 9.90578 4.9209 9.12489 5.66036 8.90025C10.9427 7.29667 19.7239 7.6065 25.2729 10.9006C25.9389 11.2951 26.1568 12.1535 25.7621 12.8172C25.3693 13.4819 24.5086 13.701 23.8461 13.3063H23.8454Z" fill="#1ED760"/>
</svg>
