<svg width="24" height="30" viewBox="0 0 24 30" fill="none" xmlns="http://www.w3.org/2000/svg">
<path d="M11.6968 29.6492C18.1567 29.6492 23.3935 24.4185 23.3935 17.9662C23.3935 11.5139 18.1567 6.2832 11.6968 6.2832C5.23682 6.2832 0 11.5139 0 17.9662C0 24.4185 5.23682 29.6492 11.6968 29.6492Z" fill="#FFCC00"/>
<path fill-rule="evenodd" clip-rule="evenodd" d="M17.5544 6.05921V16.9878L17.5286 16.9964V17.011C17.5286 18.0794 17.4511 19.0764 17.3058 19.5857C16.609 22.0331 14.3543 23.8087 11.6806 23.8087C8.45039 23.8087 5.86621 21.2021 5.86621 17.9753C5.86621 14.7494 8.45039 12.1429 11.6806 12.1429C13.2024 12.1429 14.5882 12.7235 15.6291 13.675C15.9689 13.9864 16.2717 14.3365 16.5307 14.7193C16.4584 14.3769 16.3879 13.9459 16.3879 13.5769V0.4375L24.0002 2.76705V8.04293L17.5544 6.05921Z" fill="#FF3333"/>
</svg>
