<svg width="30" height="30" viewBox="0 0 30 30" fill="none" xmlns="http://www.w3.org/2000/svg">
<path d="M15 30C23.2843 30 30 23.2843 30 15C30 6.71573 23.2843 0 15 0C6.71573 0 0 6.71573 0 15C0 23.2843 6.71573 30 15 30Z" fill="#FF0000"/>
<path d="M15.0011 7.84002C18.9386 7.84002 22.1602 11.0446 22.1602 14.9991C22.1602 18.9537 18.9556 22.1582 15.0011 22.1582C11.0465 22.1582 7.84197 18.9537 7.84197 14.9991C7.84197 11.0446 11.0636 7.84002 15.0011 7.84002ZM15.0011 7.1582C10.6715 7.1582 7.16016 10.6696 7.16016 14.9991C7.16016 19.3287 10.6715 22.84 15.0011 22.84C19.3306 22.84 22.842 19.3287 22.842 14.9991C22.842 10.6696 19.3306 7.1582 15.0011 7.1582Z" fill="white"/>
<path d="M12.2715 18.9229L18.9192 14.832L12.2715 11.082V18.9229Z" fill="white"/>
</svg>
