<svg width="362" height="362" viewBox="0 0 362 362" fill="none" xmlns="http://www.w3.org/2000/svg">
<rect width="362" height="362" rx="54" fill="url(#paint0_linear)"/>
<path d="M270.529 214.578L270.532 214.572C274.522 204.311 276.508 193.074 276.508 180.877C276.508 168.681 274.522 157.511 270.529 147.386C266.542 137.274 260.838 128.5 253.418 121.079C245.999 113.519 237.226 107.743 227.113 103.753C217.123 99.6159 206.019 97.5596 193.821 97.5596H155.797C152.371 97.5596 149.429 98.74 147.06 101.1C144.654 103.355 143.485 106.325 143.485 109.871V252.093C143.485 255.527 144.671 258.476 147.043 260.847C149.415 263.219 152.363 264.405 155.797 264.405H193.821C206.017 264.405 217.119 262.419 227.108 258.424L227.118 258.42C237.225 254.292 245.995 248.519 253.414 241.1L253.423 241.091C260.839 233.532 266.542 224.69 270.529 214.578ZM224.204 127.45L224.212 127.455C233.096 132.649 240.062 139.818 245.125 148.986C250.178 158.135 252.725 168.752 252.725 180.877C252.725 192.857 250.18 203.477 245.123 212.772C240.059 221.941 233.09 229.182 224.201 234.516C215.48 239.693 205.368 242.303 193.821 242.303H168.109V119.662H193.821C205.369 119.662 215.481 122.272 224.204 127.45Z" fill="white" stroke="white" stroke-width="2.77533"/>
<path d="M88.2629 262.178L88.2915 262.217L88.3229 262.253C89.5277 263.629 91.1595 264.282 93.0695 264.282C95.9261 264.282 98.7529 262.777 101.528 260.141C104.297 257.511 106.829 254.148 109.137 250.079C111.585 245.995 113.487 241.577 114.845 236.828C116.339 232.07 117.095 227.489 117.095 223.089V223.074L117.094 223.06C116.957 217.032 115.517 212.089 112.649 208.354C109.837 204.514 105.629 202.657 100.256 202.657C95.8725 202.657 92.2615 203.938 89.5784 206.621C86.9296 209.27 85.6139 212.594 85.6139 216.501C85.6139 219.084 86.1894 221.341 87.4237 223.193C88.5338 224.858 89.7844 226.387 91.1754 227.778L91.199 227.801L91.2237 227.823C92.4882 228.961 93.6268 230.226 94.6401 231.62C95.5117 232.818 95.9948 234.402 95.9948 236.464C95.9948 239.438 95.255 241.901 93.8311 243.918L93.8163 243.939L93.8025 243.961C92.3663 246.18 90.8694 248.197 89.3126 250.013L89.2813 250.05L89.2529 250.088C87.6173 252.319 86.8117 254.915 86.8117 257.825C86.8117 259.43 87.2998 260.894 88.2629 262.178Z" fill="white" stroke="white" stroke-width="2.534"/>
<path d="M89.9615 155.112L89.9828 155.134L90.0052 155.155C93.0301 158.036 96.6048 159.503 100.674 159.503C104.866 159.503 108.456 158.044 111.366 155.134L111.377 155.123L111.387 155.112C114.268 152.087 115.735 148.512 115.735 144.443C115.735 140.257 114.279 136.67 111.377 133.762C108.474 130.72 104.881 129.182 100.674 129.182C96.5848 129.182 93.0033 130.731 89.9831 133.751C87.0828 136.652 85.6139 140.171 85.6139 144.243C85.6139 148.433 87.0717 152.077 89.9615 155.112Z" fill="white" stroke="white" stroke-width="2.534"/>
<defs>
<linearGradient id="paint0_linear" x1="113.125" y1="-2.69711e-06" x2="248.875" y2="362" gradientUnits="userSpaceOnUse">
<stop stop-color="#56CCF2"/>
<stop offset="1" stop-color="#2F80ED"/>
</linearGradient>
</defs>
</svg>
