<svg width="619" height="121" viewBox="0 0 619 121" fill="none" xmlns="http://www.w3.org/2000/svg">
<path d="M587.258 61.337C593.818 71.2532 596.078 76.751 597.596 80.0733H618.76C611.29 72.5349 601.019 58.6218 596.601 52.4326L588.405 40.8131L594.999 33.7807C597.865 30.6439 607.883 20.5422 613.819 17.1356V17.0344H599.046C597.326 21.3517 590.951 29.9019 585.993 36.2934L577.696 47.0192L587.258 61.337ZM424.163 58.9929C424.163 41.6226 411.903 39.6326 394.617 39.6326H391.092V24.6908C391.092 21.9925 391.632 20.9975 395.612 20.9975H404.246C412.442 20.9975 414.702 21.6215 416.658 28.1142L417.485 30.7451H420.925C420.739 26.1412 420.739 21.6383 420.925 17.0512H373.992V19.0413C377.145 19.7664 377.617 20.6434 377.617 24.0668V73.0577C377.617 76.4812 377.145 77.3918 373.992 78.117V80.0901H399.221C414.601 80.0901 424.163 75.9415 424.163 58.9929ZM396.691 76.127C392.188 76.127 391.109 74.6767 391.109 70.6292V43.6126H396.607C407.231 43.6126 410.031 49.3802 410.031 59.6337C410.031 70.6292 406.793 76.1102 398.597 76.1102H396.691V76.127ZM438.734 72.3494C439.56 68.7404 441.078 63.6137 443.152 57.3064H463.153L465.835 65.317C467.555 70.3594 469.528 76.6667 470.068 80.0733H486.089C484.74 77.8135 481.957 71.523 479.343 64.1196L466.105 26.3941C464.216 21.0987 464.047 18.9232 463.744 17.0344H445.749V19.0244C448.987 19.7496 449.358 21.4529 449.358 22.7177C449.358 24.5222 448.92 26.4953 446.289 32.87L434.686 61.5225C430.352 72.0459 427.468 77.6448 425.934 80.0733H437.401C437.486 78.6229 438.009 75.9415 438.734 72.3494ZM453.322 27.6758L461.787 53.0735H444.586L453.322 27.6758ZM511.706 78.117C508.535 77.3918 508.097 76.4812 508.097 73.0577V47.5926H532.398V73.0577C532.398 76.4812 531.96 77.3918 528.806 78.117V80.0901H549.516V78.117C546.362 77.3918 545.906 76.4812 545.906 73.0577V24.0668C545.906 20.6434 546.362 19.7496 549.516 19.0413V17.0512H528.806V19.0413C531.943 19.7664 532.398 20.6434 532.398 24.0668V43.4271H508.097V24.0668C508.097 20.6434 508.535 19.7496 511.706 19.0413V17.0512H490.979V19.0413C494.133 19.7664 494.588 20.6434 494.588 24.0668V73.0577C494.588 76.4812 494.133 77.3918 490.979 78.117V80.0901H511.706V78.117ZM580.226 78.117C577.055 77.3918 576.617 76.4812 576.617 73.0577V24.0668C576.617 20.6434 577.055 19.7496 580.226 19.0413V17.0512H559.516V19.0413C562.653 19.7664 563.108 20.6434 563.108 24.0668V73.0577C563.108 76.4812 562.653 77.3918 559.516 78.117V80.0901H580.226V78.117ZM106.304 13.4592C104.584 11.7896 102.763 10.2381 100.857 8.77091L38.7962 44.4727L9.16549 27.4228C8.05244 29.3791 7.02384 31.4028 6.13003 33.494L38.7962 52.2809L106.304 13.4592ZM182.345 81.1526C190.373 81.1526 198.114 79.0951 203.881 75.4018L201.891 71.6242C198.113 73.5299 193.51 75.3344 186.123 75.3344C170.54 75.3344 167.218 63.2595 167.218 47.0529C167.218 30.0368 170.625 20.1206 184.049 20.1206C192.599 20.1206 195.398 23.3585 196.849 28.0637L197.928 32.0268H201.992C201.807 27.7938 201.807 23.1056 201.992 18.8726C200.188 18.1643 193.51 15.972 183.627 15.972C161.282 15.972 152.546 28.5865 152.546 49.4139C152.546 71.0846 163.44 81.1526 182.345 81.1526ZM115.107 24.05C113.842 22.1443 112.493 20.3061 111.043 18.5691L38.7793 60.1228L3.73522 39.9699C3.04378 42.196 2.48726 44.4895 2.04879 46.8168L38.7793 67.9478L115.107 24.05ZM38.7793 75.7729L1.13826 54.1191C1.05393 55.4851 0.986328 56.8679 0.986328 58.2677C0.986328 92.6034 28.8293 120.446 63.1651 120.446C97.5009 120.446 125.344 92.6034 125.344 58.2677C125.344 48.0479 122.882 38.4015 118.514 29.9019L38.7793 75.7729ZM157.42 102.166H618.777V95.8414H157.42V102.166ZM341.039 78.117C337.868 77.3918 337.413 76.4812 337.413 73.0577V55.1309H343.72C358.949 55.1309 368.308 50.5438 368.308 35.1298C368.308 20.0025 358.949 17.0512 346.418 17.0512H320.312V19.0413C323.466 19.7664 323.888 20.6434 323.888 24.0668V73.0577C323.888 76.4812 323.466 77.3918 320.312 78.117V80.0901H341.039V78.117ZM337.413 24.4378C337.413 21.4528 338.661 20.9975 341.376 20.9975H342.826C351.292 20.9975 354.176 26.3266 354.176 34.607C354.176 44.4052 352.186 51.1678 343.788 51.1678H337.396V24.4378H337.413ZM94.5665 4.57166C92.2392 3.20565 89.8108 1.99141 87.298 0.928955L38.7793 28.8394L17.176 16.4104C15.6414 18.1137 14.1911 19.8845 12.842 21.7395L38.7793 36.6645L94.5665 4.57166ZM312.218 65.4013H308.255L307.698 67.7623C305.91 75.5873 303.735 76.127 295.539 76.127H293.751C285.454 76.127 283.936 74.8622 283.936 71.0846V47.5926H292.318C295.825 47.5926 301.306 47.9467 303.465 49.4814V41.5551C301.289 43.0729 295.809 43.4271 292.318 43.4271H283.936V23.8982C283.936 21.7395 284.375 21.0144 287.073 21.0144H294.105C302.301 21.0144 304.561 21.6384 306.534 28.1311L307.344 30.762H310.75C310.582 26.158 310.582 21.6552 310.75 17.0681H266.819V19.0581C269.956 19.7833 270.428 20.6602 270.428 24.0837V73.0745C270.428 76.498 269.972 77.4087 266.819 78.1338V80.107H312.201C312.032 75.2332 312.032 70.2751 312.218 65.4013ZM259.736 58.9929C259.736 41.6226 247.459 39.6326 230.173 39.6326H226.665V24.6908C226.665 21.9925 227.204 20.9975 231.168 20.9975H239.819C247.998 20.9975 250.258 21.6215 252.248 28.1142L253.058 30.7451H256.464C256.312 26.1412 256.312 21.6383 256.464 17.0512H209.564V19.0413C212.718 19.7664 213.157 20.6434 213.157 24.0668V73.0577C213.157 76.4812 212.718 77.3918 209.564 78.117V80.0901H234.777C250.174 80.0901 259.736 75.9415 259.736 58.9929ZM232.247 76.127C227.744 76.127 226.648 74.6767 226.648 70.6292V43.6126H232.146C242.77 43.6126 245.57 49.3802 245.57 59.6337C245.57 70.6292 242.332 76.1102 234.136 76.1102H232.247V76.127Z" fill="#BCB5B5"/>
</svg>
