<svg width="422" height="120" viewBox="0 0 422 120" fill="none" xmlns="http://www.w3.org/2000/svg">
<path d="M147.041 96.0721C146.029 96.0721 145.186 95.33 145.186 94.2845C145.186 93.2557 146.012 92.4631 147.041 92.4631C148.07 92.4631 148.896 93.2389 148.896 94.2845C148.896 95.3132 148.07 96.0721 147.041 96.0721ZM145.591 119.126C145.591 112.734 145.591 106.359 145.591 99.9677C146.569 99.9677 147.564 99.9677 148.542 99.9677C148.542 106.359 148.542 112.734 148.542 119.126C147.564 119.126 146.569 119.126 145.591 119.126Z" fill="#BCB5B5"/>
<path d="M165.609 119.091C165.541 115.212 165.693 109.9 165.575 106.359C165.457 102.817 163.653 102.446 160.954 102.024C159.504 101.805 158.206 102.362 156.856 102.648C156.856 108.163 156.856 113.627 156.856 119.125C155.861 119.125 154.866 119.125 153.871 119.125C153.871 113.054 153.871 106.999 153.871 100.911C156.131 100.102 158.509 99.5116 160.904 99.5959C165.204 99.7477 168.257 101.417 168.493 105.903C168.729 110.389 168.425 114.673 168.56 119.125C167.565 119.108 166.587 119.159 165.609 119.091Z" fill="#BCB5B5"/>
<path d="M178.275 119.496C176.538 119.496 174.278 119.007 172.642 118.181C172.963 117.422 173.351 116.663 173.688 115.904C175.206 116.562 176.555 117.135 178.326 117.068C180.096 117 182.441 116.292 182.289 113.998C182.137 111.705 180.636 111.283 178.376 110.322C176.117 109.361 173.047 108.096 173.216 104.689C173.384 101.283 176.133 99.6807 179.523 99.6132C181.344 99.5795 183.216 100.069 184.835 100.929C184.498 101.637 184.144 102.345 183.807 103.02C182.474 102.413 181.328 101.822 179.742 101.924C178.157 102.025 176.049 102.598 176.235 104.774C176.42 106.949 177.719 107.354 179.995 108.332C182.272 109.327 185.611 110.44 185.375 114.1C185.156 117.759 182.07 119.479 178.275 119.496Z" fill="#BCB5B5"/>
<path d="M197.195 119.463C192.794 119.092 190.095 117.827 189.876 112.65C189.724 109.058 189.927 103.863 189.842 99.9845C190.854 99.9339 191.832 99.9339 192.827 99.9845C192.878 103.846 192.777 109.125 192.844 112.65C192.929 116.174 194.531 116.596 197.195 116.984C198.764 117.203 199.877 116.697 201.293 116.393C201.277 110.896 201.293 105.449 201.293 99.9508C202.272 99.9508 203.267 99.9508 204.245 99.9508C204.245 106.022 204.245 112.076 204.245 118.164C201.901 118.974 199.793 119.682 197.195 119.463Z" fill="#BCB5B5"/>
<path d="M217.754 102.21C216.995 102.109 216.86 102.059 215.95 102.075C215.039 102.092 213.403 102.244 212.408 102.683C212.374 108.164 212.408 113.661 212.391 119.142C211.396 119.142 210.401 119.142 209.406 119.142C209.406 113.071 209.406 107.017 209.406 100.946C211.666 100.035 213.976 99.6639 216.405 99.5964C217.063 99.5796 217.653 99.6639 218.294 99.7314C218.125 100.558 217.906 101.384 217.754 102.21Z" fill="#BCB5B5"/>
<path d="M228.597 119.497C224.617 119.48 220.62 117.895 220.823 113.746C221.126 107.473 227.552 107.591 232.324 107.034C232.375 106.646 232.341 105.972 232.341 105.618C232.291 102.818 230.149 101.941 227.906 101.891C225.663 101.857 224.482 102.363 222.56 103.037C222.324 102.346 222.054 101.654 221.784 100.929C223.875 100.255 225.764 99.4452 228.075 99.6307C232.257 99.9848 234.871 101.014 235.124 105.989C235.293 109.361 235.09 114.454 235.157 118.148C233.302 119.143 230.503 119.497 228.597 119.497ZM232.324 109.092C228.884 109.446 223.909 109.075 223.572 113.645C223.386 116.208 226.051 117.271 228.496 117.271C229.559 117.271 231.262 117.136 232.324 116.681C232.341 114.151 232.358 111.638 232.324 109.092Z" fill="#BCB5B5"/>
<path d="M252.072 119.091C252.005 115.212 252.157 109.9 252.039 106.359C251.904 102.817 250.116 102.446 247.418 102.024C245.968 101.805 244.669 102.362 243.32 102.648C243.32 108.163 243.32 113.627 243.32 119.125C242.325 119.125 241.33 119.125 240.335 119.125C240.335 113.054 240.335 106.999 240.335 100.911C242.595 100.102 244.973 99.5116 247.367 99.5959C251.668 99.7477 254.72 101.417 254.956 105.903C255.193 110.389 254.889 114.673 255.024 119.125C254.029 119.108 253.051 119.159 252.072 119.091Z" fill="#BCB5B5"/>
<path d="M267.555 119.463C262.361 119.041 259.562 114.876 259.562 109.53C259.562 104.184 262.361 100.052 267.555 99.6305C269.984 99.4281 270.591 100.136 272.496 100.878C272.109 101.62 271.771 102.346 271.451 103.054C270.085 102.514 269.663 101.958 267.909 102.11C264.166 102.43 262.58 105.803 262.58 109.496C262.58 113.189 264.166 116.613 267.909 116.95C269.68 117.102 270.085 116.512 271.451 115.972C271.771 116.697 272.092 117.456 272.496 118.215C270.591 118.974 270.001 119.665 267.555 119.463Z" fill="#BCB5B5"/>
<path d="M291.165 109.057C286.797 109.698 282.429 110.305 278.078 110.946C278.652 114.757 280.642 116.849 284.47 117.051C286.477 117.152 287.978 116.629 289.732 115.921C290.035 116.663 290.322 117.405 290.659 118.164C288.467 119.041 286.831 119.581 284.284 119.462C278.517 119.21 275.329 115.179 275.279 109.597C275.228 104.015 278.095 99.8999 283.458 99.7144C288.821 99.5289 290.625 103.138 291.182 107.759C291.249 108.13 291.165 108.703 291.165 109.057ZM283.441 101.94C279.731 102.025 278.061 105.33 277.91 108.872C281.367 108.399 284.858 107.894 288.365 107.371C287.91 104.369 287.168 101.856 283.441 101.94Z" fill="#BCB5B5"/>
<path fill-rule="evenodd" clip-rule="evenodd" d="M34.5384 30.6217C51.4196 30.5711 68.0984 30.4194 84.4399 30.6723C87.2731 30.7229 88.3864 31.8528 88.4201 34.6354C88.6393 50.6903 88.6056 68.1955 88.4201 84.2334C88.3864 87.016 87.2057 88.1797 84.4399 88.2134C68.3851 88.4158 50.8969 88.4158 34.8421 88.2134C32.0595 88.1797 30.9631 86.9992 30.8788 84.2166C30.4235 68.1954 31.1488 50.6228 30.6598 34.6354C30.5754 31.8866 33.5603 30.6217 34.5384 30.6217C34.9769 30.4531 34.5384 30.6217 34.5384 30.6217Z" fill="#BCB5B5"/>
<path fill-rule="evenodd" clip-rule="evenodd" d="M3.55867 30.622C8.58424 30.5546 13.2388 30.386 17.6572 30.6558C20.1363 30.8076 21.2831 31.7014 21.3 34.2816C21.4855 60.9778 21.418 88.7365 21.3169 115.433C21.3 118.013 20.0014 118.941 17.691 119.059C13.5592 119.278 7.94343 119.261 3.81167 119.059C1.46753 118.941 0.20265 118.013 0.168921 115.433C-0.134636 88.7702 0.337606 60.9272 0.000319297 34.2984C-0.0334094 31.7351 2.61426 30.6389 3.55867 30.622C3.98028 30.4534 3.55867 30.622 3.55867 30.622Z" fill="#BCB5B5"/>
<path fill-rule="evenodd" clip-rule="evenodd" d="M101.305 0.114249C106.331 0.0467912 110.985 -0.121871 115.404 0.147959C117.917 0.299738 119.047 1.19357 119.063 3.80754C119.232 30.4869 119.181 58.2456 119.08 84.925C119.063 87.5389 117.782 88.4496 115.438 88.5845C111.289 88.8037 105.707 88.8037 101.541 88.5845C99.214 88.4665 97.9492 87.5389 97.9154 84.925C97.6288 58.2962 98.0841 30.4194 97.7468 3.84125C97.73 1.22728 100.361 0.131113 101.305 0.114249C101.727 -0.0712591 101.305 0.114249 101.305 0.114249Z" fill="#BCB5B5"/>
<path fill-rule="evenodd" clip-rule="evenodd" d="M30.6428 115.736C30.5753 110.728 30.4065 106.039 30.6763 101.638C30.8281 99.1418 31.722 97.995 34.3022 97.9781C61.0153 97.7926 88.7571 97.8432 115.453 97.9612C118.034 97.9781 118.961 99.2766 119.079 101.621C119.282 105.753 119.298 111.352 119.079 115.5C118.961 117.827 118.034 119.092 115.453 119.126C88.7908 119.43 60.9479 118.957 34.336 119.295C31.7557 119.311 30.6597 116.681 30.6428 115.736C30.4573 115.315 30.6428 115.736 30.6428 115.736Z" fill="#BCB5B5"/>
<path fill-rule="evenodd" clip-rule="evenodd" d="M0.153279 17.9078C0.0858213 12.8823 -0.082789 8.22774 0.18704 3.80929C0.338819 1.2965 1.21584 0.166569 3.84667 0.149705C30.526 -0.0358026 58.3015 0.0316898 84.9641 0.132876C87.578 0.14974 88.4888 1.4314 88.6237 3.79241C88.8429 7.94103 88.8429 13.5231 88.6237 17.6718C88.5056 19.999 87.578 21.2639 84.9641 21.2976C58.3353 21.5843 30.4586 21.129 3.88043 21.4662C1.26646 21.4831 0.170143 18.8522 0.153279 17.9078C-0.032229 17.4862 0.153279 17.9078 0.153279 17.9078Z" fill="#BCB5B5"/>
<path d="M190.854 26.4053C190.854 44.096 190.854 61.7698 190.854 79.4605C187.734 79.4605 184.614 79.4605 181.494 79.4605C173.164 68.4481 164.833 57.4526 156.502 46.4402C156.653 57.4526 156.788 68.4481 156.94 79.4605C153.162 79.4605 149.385 79.4605 145.607 79.4605C145.59 62.0228 145.624 44.6525 145.59 27.1811C147.327 26.4728 148.356 25.3597 150.515 25.7308C153.989 26.321 155.051 26.5908 157.766 30.1998C164.63 39.2559 172.759 50.1503 179.926 59.6112C179.825 48.5988 179.639 37.4683 179.504 26.4222C183.282 26.4053 187.077 26.4222 190.854 26.4053Z" fill="#BCB5B5"/>
<path d="M235.747 52.9335C235.747 44.0629 232.155 35.3946 222.272 35.3946C212.39 35.3946 208.798 44.046 208.798 52.9335C208.798 61.821 212.39 70.4893 222.272 70.4893C232.155 70.4893 235.747 61.8041 235.747 52.9335C236.034 52.9335 235.747 52.9335 235.747 52.9335ZM196.571 52.9335C196.571 36.8112 206.032 26.0518 222.373 26.0518C238.732 26.0518 247.974 36.8449 247.974 52.9335C247.974 69.0221 238.732 79.8152 222.373 79.8152C206.032 79.8152 196.571 69.0558 196.571 52.9335C195.964 52.9335 196.571 52.9335 196.571 52.9335Z" fill="#BCB5B5"/>
<path d="M305.161 79.4617C304.065 67.994 302.952 56.5263 301.856 45.0416C298.045 56.5094 294.233 67.9771 290.422 79.4617C286.796 79.4617 283.153 79.4617 279.528 79.4617C275.548 67.8422 271.568 56.2227 267.588 44.6032C266.626 56.2227 265.665 67.8422 264.704 79.4617C261.078 79.4617 257.435 79.4617 253.809 79.4617C255.783 62.024 257.722 44.6369 259.712 27.1823C261.382 26.5583 263.709 25.479 265.463 25.6983C269.578 26.2211 272.293 26.1367 273.979 30.7913C278.161 42.3602 282.175 55.3626 286.307 67.2857C290.506 53.9966 294.705 40.6906 298.888 27.3341C300.709 26.6933 302.362 25.2429 304.52 25.732C309.091 26.7776 310.592 26.474 311.435 32.7812C313.357 47.0147 315.398 64.4524 317.337 79.4111C313.273 79.5292 309.226 79.4448 305.161 79.4617Z" fill="#BCB5B5"/>
<path d="M354.371 59.0387C352.162 51.922 349.953 44.8052 347.726 37.6885C345.483 44.8052 343.257 51.922 341.014 59.0387C345.484 59.0387 349.919 59.0387 354.371 59.0387ZM357.39 68.1961C350.931 68.1961 344.455 68.1961 337.996 68.1961C336.748 71.9568 335.5 75.7175 334.252 79.4614C330.441 79.4614 326.629 79.4614 322.818 79.4614C329.21 62.0237 335.601 44.6535 341.976 27.1652C344.134 26.6424 345.838 25.2258 348.283 25.7317C352.769 26.6592 354.59 26.9459 356.648 32.4943C362.095 47.082 368.183 64.233 373.816 79.4277C369.6 79.512 365.367 79.4446 361.134 79.4614C359.903 75.7007 358.655 71.9568 357.39 68.1961Z" fill="#BCB5B5"/>
<path d="M411.12 52.9333C411.12 42.1401 405.605 35.8834 394.93 34.8378C393.952 34.7366 392.299 34.9559 391.27 34.939C391.237 46.9464 391.253 58.9033 391.27 70.9107C392.35 70.9107 393.884 71.1467 394.947 71.0455C405.588 70 411.12 63.7264 411.12 52.9333C411.474 52.9333 411.12 52.9333 411.12 52.9333ZM423.43 52.9333C423.329 70.8263 412.047 78.8538 394.896 80.1354C390.731 80.439 383.867 79.697 379.381 79.4946C379.263 61.7533 379.347 44.1469 379.33 26.4057C384.44 26.1864 389.887 25.3769 395.065 25.7648C411.676 26.9959 423.532 35.0402 423.43 52.9333C424.156 52.9164 423.43 52.9333 423.43 52.9333Z" fill="#BCB5B5"/>
</svg>
