<svg width="686" height="120" viewBox="0 0 686 120" fill="none" xmlns="http://www.w3.org/2000/svg">
<path d="M529.709 50.274L530.046 50.527L540.806 46.3615L521.58 49.4983L520.956 49.0261L520.113 47.3733L519.54 44.3884L519.354 47.2216L514.716 47.3396L516.42 45.2147L516.234 44.2197L503.468 43.9668L523.334 52.8711C525.948 51.8593 528.107 50.9823 529.709 50.274ZM486.874 65.3676C476.35 64.946 461.678 64.322 471.426 63.2258C480.128 62.2477 489.032 60.8479 497.785 60.4432C496.587 54.1865 488.982 47.6094 487.987 42.4321C483.669 42.0948 475.574 41.3696 468.474 40.6782C463.28 40.1723 459.874 40.7457 458.204 39.7001C446.635 32.4484 454.325 33.5446 464.697 36.2092C478.003 34.236 497.65 38.1148 513.62 37.5077L536.944 36.6477C537.433 35.8382 538.141 35.2816 538.984 35.1636C540.047 35.0118 541.126 35.5177 541.986 36.4621L569.222 35.4502C581.921 33.5614 602.9 21.8239 614.57 16.4105C619.899 13.9314 627.91 11.0307 636.595 7.62411C644.74 4.43675 653.527 0.692915 660.391 1.08079C661.858 1.16512 662.347 1.6373 663.679 2.00831C668.688 3.35746 684.54 1.62041 685.535 4.77403C687.019 9.51291 681.724 13.2568 673.393 18.2487C668.84 20.9807 659.598 25.6689 649.277 29.6658C634.689 35.3491 618.112 40.4758 611.045 43.8318C608.28 45.1304 619.444 43.0224 620.338 43.2922C622.867 44.0342 622.041 48.908 621.518 49.8693C620.979 50.8305 619.039 51.2521 616.847 51.64L607.757 53.2421L607.943 54.2202C608.212 55.62 606.863 55.4176 606.003 55.9236C603.828 57.2053 597.605 58.2171 593.237 58.0991C592.41 58.0822 593.372 55.3333 591.972 54.7936C590.184 54.1022 587.334 53.4276 585.833 54.1359C584.299 54.8611 582.427 55.6031 580.268 56.3452C579.29 56.6825 582.41 53.7481 581.347 54.0685C563.893 59.4651 531.8 67.0034 505.239 67.8972C431.626 91.3555 283.861 123.6 311.619 74.0021C323.306 53.1241 338.333 45.7712 352.785 27.153C360.273 -0.335822 135.219 106.247 163.314 59.8023C182.405 48.5876 186.941 43.0729 158.609 43.7981C125.488 44.6582 104.492 80.2925 76.2272 67.8129L75.131 67.1889L77.4076 64.6593C85.1315 57.3402 85.9411 53.9673 71.8087 53.4951C-4.67097 60.2071 -42.5652 58.2509 74.5913 59.5157L73.4614 60.5781C68.5033 66.1434 64.7763 70.7473 76.0248 73.8841C111.086 83.6822 121.272 52.2808 158.609 49.0429C172.691 49.7681 174.496 48.8743 161.392 56.0922L157.581 58.5038C117.764 80.9502 170.499 80.107 184.091 77.0377C283.861 55.5188 385.806 -24.9409 356.495 26.5291C344.066 47.289 335.617 52.7531 323.846 74.7442C301.383 116.669 418.725 86.9877 486.874 65.3676ZM667.794 3.66103L661.605 1.78907L647.928 5.58354L650.339 10.1875L667.794 3.66103Z" fill="#BCB5B5"/>
<path d="M325.566 56.1076L324.824 57.1701L324.132 58.2494L322.614 60.5092L319.242 65.7878C316.864 69.5485 315.683 72.7527 315.683 75.3667C315.683 77.3567 316.088 79.3972 316.881 81.4547C317.673 83.529 319.646 84.6927 322.867 84.9456C325.262 84.9456 327.994 84.2711 331.08 82.9219C333.93 81.8426 337.202 80.173 340.845 77.8963C343.914 75.9401 346.68 74.0176 349.058 72.1119C351.452 70.1894 352.785 68.9245 353.038 68.25C353.139 68.0307 353.173 67.7609 353.173 67.491C353.173 67.1537 353.038 66.9177 352.751 66.7322C352.481 66.5635 352.228 66.496 351.975 66.496C351.807 66.496 351.621 66.5298 351.351 66.5972C349.766 67.373 347.422 68.8065 344.353 70.9314C341.013 73.2755 338.096 74.4729 335.583 74.4729C331.671 74.4729 329.714 73.1743 329.714 70.5098C329.714 68.8908 329.782 67.5417 329.934 66.4286C330.085 65.3493 330.372 64.2531 330.794 63.1738C332.075 59.8852 333.812 56.8496 335.971 54.1008L339.226 49.8004L340.052 48.7717L340.946 47.6754L341.755 46.6299L342.632 45.5337L346.882 45.6518L351.267 45.7698C352.279 45.7698 353.038 45.5168 353.577 45.0615L362.094 37.0678C362.667 36.3764 362.954 35.8536 362.954 35.5332C362.954 34.9766 362.347 34.7068 361.082 34.7068L356.259 34.6562L353.83 34.5888L352.7 34.5213L351.537 34.4707C353.19 32.6831 355.449 30.6762 358.333 28.467C360.829 26.6625 362.431 25.111 363.089 23.7956C363.139 23.6438 363.156 23.4245 363.156 23.121C363.156 22.6488 362.988 22.3284 362.65 22.2104C361.537 21.9911 360.374 21.873 359.21 21.873C358.114 21.873 357.119 21.9574 356.158 22.0923C354.724 22.3958 353.257 22.9861 351.773 23.8799C350.221 24.993 349.041 25.9542 348.214 26.7637C346.275 28.7705 344.218 31.199 341.992 34.0491L339.361 34.0997H335.229H332.784H332.278H331.856H331.418H331.165C329.343 34.0997 327.792 34.8417 326.544 36.3089L323.34 40.1034C321.889 41.9753 321.181 43.3245 321.181 44.1677C321.215 44.7411 321.535 45.0446 322.176 45.0446L334.352 45.1627C332.75 46.8828 331.249 48.603 329.9 50.3232C328.483 52.0096 327.05 53.9658 325.566 56.1076Z" fill="#BCB5B5"/>
<path d="M316.712 49.5645C317.606 47.9455 318.044 46.5288 318.044 45.3146C318.044 43.7631 317.268 42.5151 315.784 41.6213C314.165 40.7444 312.26 40.3059 310.084 40.3059C308.651 40.3059 307.049 40.5083 305.21 40.9131C300.876 42.0261 296.643 44.2184 292.512 47.5238C288.178 51.1159 284.67 54.9273 282.005 58.9579C279.138 63.3088 277.452 67.5587 276.996 71.7916C276.996 74.2707 277.283 76.3787 277.823 78.0652C278.362 79.7347 279.324 81.2188 280.723 82.4499C282.865 84.5411 285.715 85.5866 289.189 85.5866C291.989 85.5866 295.008 84.794 298.229 83.2088C301.467 81.6067 304.519 79.7178 307.403 77.6098C310.067 75.6367 312.412 73.6298 314.503 71.6399C316.56 69.633 317.623 68.385 317.707 67.8791L317.842 67.5924V66.5468C317.707 66.1589 317.521 65.9565 317.268 65.9565C317.083 65.9565 316.796 66.0577 316.459 66.277C314.317 67.761 311.13 69.6836 306.948 72.1121C302.748 74.5237 299.072 75.7379 295.901 75.7379C292.596 75.7379 290.539 74.844 289.763 73.0227C288.802 71.2013 288.329 69.1776 288.329 66.9178C293.54 66.1252 299.004 64.0846 304.721 60.7961C310.422 57.5244 314.452 53.7974 316.712 49.5645ZM299.915 57.6087C295.041 60.4925 291.179 62.2295 288.329 62.7692C289.122 60.4251 290.673 57.575 293.001 54.2021C295.311 50.863 297.942 48.502 300.91 47.136C302.36 46.4783 303.777 46.141 305.092 46.141C306.56 46.141 307.302 47.1191 307.302 49.0585C307.302 51.858 304.839 54.6912 299.915 57.6087Z" fill="#BCB5B5"/>
<path d="M187.852 66.9175C187.852 69.7844 188.527 72.3309 189.927 74.5233C192.423 78.4864 194.126 80.4595 195.053 80.4595C195.542 80.4933 197.903 79.4477 202.103 77.2553C206.302 75.0967 209.709 72.9381 212.339 70.7963C212.997 70.2566 213.452 70.1723 213.705 70.5096C213.823 70.6951 213.908 70.8806 213.908 71.0661C213.908 71.2516 213.84 71.4877 213.705 71.7744C210.248 77.9636 206.353 84.0348 202.002 90.0047C197.887 95.8061 195.998 98.926 196.403 99.3645C196.622 99.8873 196.757 101.354 196.757 103.783C196.757 106.245 197.229 107.459 198.156 107.459C199.556 107.459 201.951 105.537 205.324 101.675C205.965 100.916 206.825 99.921 207.904 98.7067C208.832 97.6949 210.046 96.3289 211.564 94.6256C214.194 91.8935 216.505 89.7518 218.444 88.2677C220.788 86.5307 224.279 83.3939 228.9 78.8406C233.369 74.4221 237.653 70.5264 241.768 67.1198C242.493 66.3104 242.83 65.7201 242.83 65.3491C242.83 65.1299 242.746 64.9612 242.594 64.8263C242.425 64.6914 242.172 64.6408 241.886 64.6408C241.177 64.6408 240.064 65.1805 238.58 66.2935L221.075 79.5995C219.895 80.3752 219.018 80.7125 218.427 80.5945C218.174 80.4764 218.056 80.3078 218.056 80.0548C218.056 79.7175 218.208 79.3128 218.495 78.8237C219.692 76.7325 221.581 74.0005 224.127 70.5771L227.871 65.4166L231.7 60.1212L235.207 55.1293L238.378 50.4916C240.165 47.6584 241.076 45.6347 241.076 44.3699C240.857 43.3074 240.402 42.1438 239.71 40.9127C239.339 40.3225 238.918 40.0189 238.395 40.0189C237.821 40.0189 237.197 40.3731 236.506 41.0645C235.646 41.9414 234.567 42.9702 233.217 44.1169C231.919 45.2806 230.283 46.6972 228.31 48.3836C224.026 52.06 220.164 55.1968 216.673 57.7939C214.431 59.4803 212.39 60.9813 210.569 62.3136C208.714 63.6458 206.977 64.8095 205.307 65.8888C201.732 68.1992 199.337 69.2616 198.106 69.0761C196.925 68.5196 196.369 67.6595 196.369 66.4285C196.369 66.0406 196.47 65.4672 196.672 64.742C197.043 63.7133 197.482 62.752 197.954 61.8751C198.443 60.9813 198.932 60.2392 199.438 59.6152C202.136 58.9238 205.88 56.2255 210.67 51.5203C215.442 46.8321 217.82 43.5435 217.82 41.7222C217.82 40.7272 217.23 39.7828 215.999 38.9227C214.633 38.0457 213.52 37.7085 212.694 37.9277C207.617 39.3612 202.642 42.7003 197.802 47.9451C192.827 53.3417 189.91 57.4229 188.982 60.2223C188.24 62.6339 187.852 64.8769 187.852 66.9175Z" fill="#BCB5B5"/>
<path d="M183.114 71.9262C183.367 71.589 183.502 71.2685 183.502 70.9987C183.502 70.6952 183.35 70.4422 183.047 70.223C182.693 70.1049 182.355 70.0543 182.035 70.0543C181.731 70.0543 181.326 70.1386 180.922 70.341C179.623 71.083 178.173 71.96 176.537 72.9718C175.458 73.6633 174.429 74.3547 173.468 74.9618C170.415 76.9687 167.953 77.9805 166.081 77.9805C163.67 77.9805 161.865 76.8506 160.651 74.6077C160.196 74.0005 159.875 73.1405 159.673 72.078C159.47 71.0156 159.386 69.6833 159.386 68.0306C159.386 66.6983 159.47 65.4672 159.639 64.3711C159.808 63.2411 160.01 62.0775 160.33 60.8801C163.299 59.3117 166.536 57.3049 170.078 54.927C173.62 52.5323 176.554 50.087 178.831 47.5573C181.495 44.6398 184.143 41.4861 186.791 38.0458C189.438 34.6055 191.664 31.1989 193.452 27.826C194.278 26.1227 194.852 24.4026 195.122 22.6656C195.408 20.9285 195.526 18.8542 195.526 16.392C195.526 15.9704 195.324 15.8018 194.97 15.8018C194.16 15.8018 193.283 16.0041 192.288 16.4257C191.31 16.8473 190.147 17.4882 188.764 18.3314C186.217 19.7986 183.569 21.6368 180.821 23.8967C178.308 25.7517 175.761 27.8935 173.181 30.2882C170.382 32.919 168.695 34.6055 168.122 35.3475C166.857 36.7641 165.744 38.1301 164.681 39.3612C163.636 40.626 162.675 41.7897 161.798 42.8859C160.803 44.2013 159.74 45.4661 158.627 46.6972L157.042 48.6197L155.49 50.4242C151.359 55.5678 149.284 61.6896 149.284 68.8063C149.284 71.3866 149.807 74.9618 150.819 79.5658C151.831 84.1529 154.327 86.4464 158.357 86.4464C159.74 86.4464 161.713 85.8393 164.294 84.6251C166.469 83.7819 169.083 82.3653 172.119 80.3247L175.61 77.9637L177.363 76.6989L179.185 75.316C181.377 73.6296 182.676 72.5165 183.114 71.9262ZM171.208 39.513C172.81 37.4218 174.682 35.2632 176.841 33.0708C179.303 30.3894 181.209 28.7367 182.575 28.1296L183.789 27.6574C184.548 27.4381 184.952 27.4381 184.986 27.6574C185.02 27.826 185.054 28.1128 185.054 28.4838C185.054 30.1871 184.497 32.059 183.367 34.0659C182.659 35.3644 182.018 36.4606 181.445 37.3207C180.888 38.1976 180.281 38.9902 179.64 39.6985C178.358 41.1489 177.262 42.3125 176.385 43.1894C175.188 44.4542 173.805 45.8371 172.287 47.3212C169.791 49.7328 166.385 52.1107 162.017 54.4548C164.209 49.3955 167.295 44.4037 171.208 39.513Z" fill="#BCB5B5"/>
<path d="M148.877 47.0009C148.675 46.731 147.967 46.5961 146.769 46.5961H143.514L137.477 46.9334C139.585 44.3194 141.642 41.7898 143.666 39.3445C145.993 36.5787 148.085 34.0997 149.923 31.9073L162.824 17.0498C163.161 17.0498 165.86 17.1173 170.885 17.2859C172.116 17.3365 173.82 17.3365 175.877 17.3365C178.238 17.3365 180.464 17.1341 182.589 16.7463C184.714 16.3247 186.62 15.6838 188.34 14.8069C191.696 13.1204 193.989 8.19606 195.153 0L184.63 0.48908C184.528 0.48908 182.859 0.522804 179.671 0.590262C176.467 0.657719 174.14 0.708324 172.69 0.708324C172.605 0.708324 169.907 0.742032 164.612 0.792625C159.283 0.843218 154.915 0.876926 151.491 0.876926C149.282 0.876926 146.719 0.995014 143.818 1.23111C140.9 1.48408 137.494 1.88881 133.615 2.47906L125.925 4.0306C122.653 4.72204 119.061 5.59894 115.115 6.67826C112.923 7.26851 111.118 7.79133 109.668 8.28039C107.711 8.90437 106.059 9.44403 104.743 9.91623C101.505 11.1473 99.3636 12.311 98.2337 13.4578C97.2218 14.5708 96.1593 16.5439 95.0463 19.394C94.5404 20.6925 94.085 21.9574 93.6634 23.1884C93.2418 24.4533 92.972 25.3134 92.8371 25.7856C92.5841 27.0504 93.3093 27.8261 94.9958 28.096C96.6822 28.3995 98.4023 28.585 100.173 28.6694C101.961 28.7705 104.237 28.8042 107.037 28.8042C109.364 28.8042 111.455 28.6694 113.31 28.4164C115.182 28.1634 117.02 27.8093 118.842 27.3034L112.417 24.5039C117.763 21.7381 124.272 19.8156 131.929 18.7194C136.516 18.0617 140.344 17.5726 143.447 17.2691C146.567 16.9486 149.704 16.7969 152.874 16.7969C148.624 22.3789 144.577 27.4888 140.799 32.1434C136.617 37.2196 132.367 42.1608 128.05 47.0009C125.756 47.0009 123.176 47.1021 120.292 47.3382C117.392 47.5406 113.698 47.9621 109.128 48.5692C104.541 49.1932 100.696 49.7497 97.5085 50.3063C93.0901 51.2001 90.3243 53.0383 89.1944 55.8378C88.5199 57.4905 88.1994 58.8734 88.1994 59.9695C88.1994 60.6947 88.368 61.2681 88.6884 61.6729C89.0426 62.0776 90.358 62.2799 92.7021 62.2799L100.949 62.0607L109.887 61.4536L116.144 60.9645C114.204 62.7353 111.185 65.8552 107.155 70.3243C103.107 74.827 99.7009 77.2555 96.952 77.7108L95.1981 78.436C94.5573 78.7733 93.8827 79.0262 93.2756 79.1443C92.3143 79.4816 90.6447 80.5609 88.2668 82.3991C85.7709 84.3891 83.4774 86.4971 81.4368 88.6895C79.4131 90.8819 78.0639 92.9224 77.4568 94.7944C77.3219 95.216 77.2545 95.5533 77.2545 95.8568C77.2545 97.1722 78.3 97.8974 80.4081 98.0492C81.2344 98.0492 81.9933 97.9818 82.7016 97.83C83.4099 97.6782 84.1182 97.4252 84.9108 97.0205L88.9077 94.7607C96.5303 89.9206 103.546 84.4228 109.921 78.2505C112.062 76.193 114.187 74.1019 116.312 72.0107C117.476 70.8808 119.567 68.8065 122.569 65.7878C124.778 63.5954 126.802 61.521 128.691 59.6322C130.782 59.3793 131.996 59.2275 132.316 59.1938C134.677 58.9071 136.549 58.7553 137.966 58.7553C141.002 58.418 143.278 57.8109 144.779 56.934C146.449 55.9053 147.815 54.4212 148.86 52.5324C149.434 51.5036 149.72 50.5424 149.72 49.6823C149.687 48.7379 149.417 47.8441 148.877 47.0009Z" fill="#BCB5B5"/>
<path d="M294.804 22.1595C295.799 20.5237 295.816 19.7816 296.507 19.5961C304.316 17.3363 311.112 15.1777 315.868 7.36948C316.795 5.83483 316.896 5.6662 316.829 5.32891C316.778 4.99163 316.34 4.83982 315.48 4.82295L277.687 4.60376C276.945 4.60376 276.354 4.78926 276 5.17714C275.663 5.53129 271.38 12.8504 269.828 15.38C268.917 16.8978 269.322 17.5218 269.693 18.3144C270.503 20.102 283.033 19.4275 282.932 20.2707C282.83 21.1139 281.835 23.0027 280.031 26.0214C266.523 48.5859 242.542 110.023 206.519 112.62C199.689 113.109 193.449 112.738 188.323 111.625C173.55 108.404 175.253 117.73 207.211 119.467C215.036 119.888 228.106 116.111 235.948 109.399C243.789 102.704 250.586 94.6593 256.32 85.2321L294.804 22.1595Z" fill="#BCB5B5"/>
<path d="M464.796 68.0312C464.56 67.93 464.391 67.8963 464.273 67.8963C463.565 67.8963 462.705 68.3685 461.693 69.3635C461.137 69.8863 460.563 70.3753 459.99 70.8644C459.416 71.3534 458.708 71.91 457.899 72.5171C456.178 73.8325 454.543 74.4902 452.974 74.4902C450.428 74.4902 448.977 73.7819 448.623 72.4159C448.185 70.9656 446.852 70.2573 444.677 70.2573C442.839 70.2573 441.186 70.4597 439.753 70.8475L445.571 67.1037L451.659 63.1236C455.723 60.5097 458.809 57.6596 460.985 54.5734C461.103 53.6796 460.799 52.0607 460.074 49.6659C459.349 47.3049 458.59 46.1581 457.814 46.2593C456.752 46.2593 454.627 46.5292 451.372 47.1025C450.343 47.2543 449.568 47.3555 449.095 47.3893C448.623 47.423 447.915 47.4398 446.97 47.4398C446.228 47.4398 445.453 47.4061 444.694 47.3387C443.935 47.2712 443.277 47.17 442.704 47.0519C441.878 46.9676 441.591 46.5629 441.776 45.8546C441.776 45.8377 441.759 45.5342 441.726 44.9945C441.675 44.4548 441.658 44.0838 441.625 43.8814C441.405 43.6622 441.017 43.5442 440.444 43.5442C438.589 43.5442 436.11 44.8765 433.024 47.541C429.938 50.2056 428.386 52.2462 428.386 53.6459C428.386 55.4167 428.892 56.6983 429.904 57.4741C430.309 57.8282 430.815 58.0643 431.422 58.1655C432.062 58.2667 433.091 58.3005 434.592 58.3005C435.537 58.3005 436.65 58.233 437.914 58.0812C439.162 57.9463 440.461 57.7439 441.793 57.4741C444.255 57.0356 446.549 56.5129 448.657 55.872C450.782 55.2312 452.03 54.7758 452.401 54.4216C450.512 56.7995 448.404 58.8907 446.094 60.7289C443.783 62.6009 441.338 64.3716 438.791 66.0581C432.906 69.8694 429.077 73.1411 427.273 75.9068C426.16 77.5089 425.35 78.8918 424.794 80.0892C424.254 81.2528 423.984 82.3321 423.984 83.3271C425.553 82.6357 427.037 81.8262 428.403 80.9324C429.786 80.0217 431.354 79.5832 433.091 79.5832C435.537 79.5832 437.864 80.359 440.022 81.8937C441.119 82.6863 442.367 83.2597 443.699 83.597C445.065 83.9511 446.633 84.1198 448.505 84.1198C449.635 84.1198 450.883 83.6138 452.3 82.6694C453.716 81.6913 455.285 80.2747 456.988 78.4533C460.091 75.1142 462.452 72.4665 464.088 70.5439C464.813 69.6164 465.184 68.9419 465.184 68.5203C465.167 68.301 465.049 68.1155 464.796 68.0312Z" fill="#BCB5B5"/>
<path d="M425.976 72.9888C427.375 71.4373 428.101 70.5098 428.101 70.1894C427.949 69.734 427.73 69.2618 427.46 68.8402C427.426 68.8065 427.375 68.7391 427.342 68.6379C427.156 68.6716 426.87 68.7896 426.499 68.9751C426.128 69.1606 425.706 69.3799 425.301 69.6666C422.974 71.1 421.102 72.3143 419.668 73.2756C418.252 74.2368 417.206 75.0294 416.566 75.6366C415.267 76.8676 413.665 77.4916 411.776 77.4916C408.656 77.4916 405.823 75.6703 403.226 72.0107L403.394 71.9264L402.366 70.9145C401.067 69.8015 399.887 68.9751 398.824 68.4017C401.388 66.0745 405.452 62.8365 410.983 58.6542C416.532 54.5055 420.849 52.4312 423.935 52.4312C424.728 52.6167 425.301 52.836 425.672 53.0721C425.436 51.9422 424.964 50.4412 424.256 48.6367C423.328 46.5624 422.181 45.5168 420.782 45.5168C420.512 45.5168 420.208 45.5674 419.871 45.6686C415.638 46.6467 411.607 48.4344 407.779 51.0483C403.765 53.8141 400.275 56.5292 397.306 59.2107C394.338 61.8921 391.708 64.3543 389.481 66.5635C387.238 68.7896 385.737 69.8183 384.979 69.6497C384.186 69.4979 383.781 68.874 383.781 67.7441C383.781 67.1707 383.849 66.631 383.967 66.1082C384.068 65.5854 384.27 65.1807 384.523 64.894C393.208 54.5056 397.492 48.0634 406.683 37.9954C410.764 33.442 412.838 33.4757 412.838 32.4639C412.838 31.8399 412.467 31.4183 411.725 31.1316C410.983 30.8449 410.376 30.71 409.904 30.71C399.33 30.71 381.37 55.4837 378.941 63.646C378.671 64.5229 378.435 65.7372 378.199 67.3056C377.693 69.4811 377.406 71.5891 377.406 73.6297L377.474 79.5997C377.626 81.3367 378.25 82.1968 379.363 82.1968C381.134 82.1968 383.09 80.5103 385.248 77.1543C387.39 73.7983 389.313 72.2131 391.033 72.4155C392.77 72.719 394.574 75.0126 396.396 79.3298C397.29 81.4379 398.538 82.9725 400.123 83.9169C401.708 84.8782 403.698 85.3504 406.093 85.3504C408.251 85.148 410.612 84.3385 413.125 82.9388C415.655 81.5222 418.083 79.9201 420.394 78.065C422.721 76.2437 424.593 74.5572 425.976 72.9888Z" fill="#BCB5B5"/>
<path d="M359.834 76.513C359.463 77.1369 359.176 77.8115 358.957 78.5198C358.737 79.2281 358.636 79.9364 358.636 80.6785C358.636 82.3649 359.463 83.2924 361.098 83.4779H361.604C363.072 83.4779 364.404 82.9383 365.652 81.8084C367.17 80.4761 368.165 79.5317 368.62 79.0089C369.548 77.8453 370.155 76.7153 370.526 75.6529C370.863 74.5736 371.082 73.4605 371.082 72.28C371.082 70.0708 370.155 68.9746 368.283 68.9746C366.596 68.9746 365.028 69.8347 363.561 71.5211C362.785 72.3981 362.11 73.2582 361.537 74.0677C360.947 74.894 360.373 75.7035 359.834 76.513Z" fill="#BCB5B5"/>
<path d="M263.859 109.904V113.311H265.95C266.422 113.311 266.777 113.243 266.996 113.075C267.215 112.923 267.367 112.603 267.434 112.13H267.755V115.065H267.434C267.434 114.727 267.367 114.474 267.266 114.323C267.164 114.171 266.996 114.053 266.81 113.969C266.608 113.884 266.321 113.851 265.95 113.851H263.859V116.566C263.859 117.004 263.893 117.291 263.977 117.426C264.028 117.527 264.146 117.628 264.331 117.712C264.584 117.814 264.837 117.864 265.107 117.864H265.529V118.1H260.604V117.864H261.009C261.481 117.864 261.818 117.763 262.038 117.561C262.173 117.426 262.24 117.105 262.24 116.583V111C262.24 110.562 262.206 110.275 262.139 110.14C262.071 110.039 261.97 109.938 261.785 109.871C261.549 109.769 261.296 109.719 261.009 109.719H260.604V109.483H269.137L269.256 111.388H268.952C268.8 110.984 268.632 110.697 268.446 110.494C268.244 110.309 268.008 110.174 267.721 110.09C267.434 110.005 266.996 109.955 266.405 109.955H263.859V109.904Z" fill="#BCB5B5"/>
<path d="M279.879 115.689L280.166 115.74L279.188 118.084H270.3V117.848H270.722C271.211 117.848 271.548 117.73 271.768 117.494C271.886 117.359 271.953 117.038 271.953 116.549V110.967C271.953 110.428 271.869 110.09 271.717 109.955C271.498 109.77 271.16 109.669 270.722 109.669H270.3V109.433H275.495V109.669C274.887 109.669 274.449 109.702 274.213 109.804C273.96 109.888 273.808 110.006 273.707 110.141C273.606 110.276 273.572 110.596 273.572 111.119V116.549C273.572 116.903 273.623 117.14 273.707 117.275C273.774 117.359 273.876 117.426 274.027 117.477C274.162 117.527 274.618 117.544 275.343 117.544H276.186C277.063 117.544 277.687 117.494 278.041 117.393C278.395 117.291 278.716 117.123 279.019 116.87C279.289 116.617 279.593 116.229 279.879 115.689Z" fill="#BCB5B5"/>
<path d="M287.048 109.433H291.045V109.669H290.826C290.674 109.669 290.455 109.719 290.185 109.82C289.898 109.922 289.645 110.057 289.409 110.242C289.173 110.428 288.903 110.731 288.566 111.136L285.8 114.424V116.6C285.8 117.14 285.884 117.46 286.036 117.595C286.255 117.78 286.593 117.865 287.048 117.865H287.419V118.101H282.545V117.865H282.95C283.439 117.865 283.776 117.764 283.996 117.544C284.114 117.409 284.181 117.106 284.181 116.617V114.576L281.028 110.95C280.657 110.529 280.404 110.259 280.269 110.158C280.134 110.057 279.864 109.922 279.442 109.77C279.324 109.719 279.172 109.702 278.953 109.702V109.466H283.861V109.702H283.608C283.338 109.702 283.102 109.753 282.883 109.837C282.663 109.922 282.545 110.073 282.545 110.259C282.545 110.411 282.714 110.697 283.051 111.085L285.446 113.885L287.689 111.22C288.026 110.815 288.195 110.529 288.195 110.326C288.195 110.208 288.144 110.107 288.077 110.006C287.993 109.905 287.874 109.837 287.723 109.787C287.571 109.736 287.352 109.702 287.031 109.702V109.433H287.048Z" fill="#BCB5B5"/>
<path d="M296.728 109.669V109.433H301.652V109.669H301.23C300.758 109.669 300.421 109.77 300.202 109.972C300.067 110.107 299.999 110.428 299.999 110.95V115.183C299.999 115.824 299.898 116.364 299.713 116.769C299.527 117.173 299.19 117.527 298.735 117.831C298.279 118.135 297.706 118.27 297.065 118.27C296.525 118.27 296.121 118.168 295.817 117.966C295.513 117.764 295.362 117.544 295.362 117.291C295.362 117.089 295.429 116.92 295.581 116.819C295.766 116.684 295.986 116.617 296.239 116.617C296.424 116.617 296.576 116.667 296.728 116.752C296.879 116.836 297.048 117.072 297.267 117.46C297.402 117.696 297.571 117.797 297.756 117.797C297.908 117.797 298.06 117.73 298.178 117.595C298.313 117.46 298.38 117.207 298.38 116.853V110.95C298.38 110.512 298.347 110.225 298.279 110.073C298.229 109.972 298.111 109.871 297.925 109.804C297.672 109.702 297.419 109.652 297.149 109.652H296.728V109.669Z" fill="#BCB5B5"/>
<path d="M305.361 109.905V113.328H307.891C308.549 113.328 308.987 113.261 309.206 113.109C309.493 112.907 309.662 112.569 309.696 112.08H309.999V115.099H309.696C309.611 114.677 309.544 114.408 309.459 114.289C309.358 114.138 309.19 114.02 308.954 113.935C308.717 113.851 308.363 113.8 307.891 113.8H305.361V116.651C305.361 117.038 305.378 117.258 305.429 117.342C305.479 117.426 305.547 117.494 305.665 117.544C305.783 117.595 306.002 117.612 306.306 117.612H308.245C308.886 117.612 309.375 117.578 309.662 117.511C309.948 117.443 310.235 117.308 310.505 117.106C310.859 116.853 311.213 116.448 311.584 115.909H311.922L310.927 118.084H302.09V117.848H302.494C302.764 117.848 303.017 117.797 303.27 117.696C303.456 117.629 303.574 117.527 303.641 117.393C303.709 117.258 303.742 116.971 303.742 116.549V110.934C303.742 110.377 303.675 110.04 303.523 109.922C303.321 109.753 302.984 109.669 302.511 109.669H302.107V109.433H310.943L311.078 111.321H310.741C310.623 110.866 310.488 110.546 310.336 110.377C310.185 110.208 309.982 110.09 309.696 109.989C309.476 109.922 309.072 109.888 308.498 109.888H305.361V109.905Z" fill="#BCB5B5"/>
<path d="M322.346 109.433L322.464 111.456H322.144C322.076 111.102 322.009 110.849 321.891 110.697C321.722 110.444 321.486 110.276 321.182 110.141C320.896 110.023 320.508 109.972 320.036 109.972H318.417V116.583C318.417 117.123 318.484 117.443 318.636 117.578C318.855 117.764 319.192 117.848 319.631 117.848H320.019V118.084H315.145V117.848H315.55C316.039 117.848 316.376 117.747 316.578 117.527C316.696 117.393 316.764 117.089 316.764 116.6V109.989H315.381C314.841 109.989 314.47 110.023 314.234 110.073C313.948 110.158 313.678 110.31 313.475 110.546C313.273 110.782 313.138 111.085 313.104 111.473H312.784L312.919 109.449H322.346V109.433Z" fill="#BCB5B5"/>
<path d="M323.779 116.853C324.049 116.853 324.268 116.92 324.454 117.055C324.639 117.19 324.724 117.359 324.724 117.544C324.724 117.747 324.639 117.916 324.454 118.05C324.268 118.185 324.049 118.253 323.779 118.253C323.526 118.253 323.307 118.185 323.121 118.05C322.935 117.916 322.851 117.747 322.851 117.544C322.851 117.342 322.935 117.173 323.121 117.038C323.307 116.92 323.526 116.853 323.779 116.853Z" fill="#BCB5B5"/>
<path d="M331.132 113.295L335.365 116.465C336.056 116.988 336.646 117.342 337.135 117.527C337.624 117.73 338.114 117.831 338.603 117.848V118.084H333.139V117.848C333.459 117.848 333.695 117.797 333.847 117.73C333.999 117.646 334.066 117.544 334.066 117.443C334.066 117.342 334.032 117.258 333.982 117.173C333.914 117.089 333.746 116.937 333.459 116.718L329.496 113.767V116.549C329.496 116.988 329.53 117.275 329.597 117.426C329.665 117.527 329.783 117.629 329.951 117.696C330.187 117.797 330.44 117.848 330.727 117.848H331.115V118.084H326.224V117.848H326.629C327.101 117.848 327.455 117.747 327.658 117.544C327.793 117.409 327.86 117.089 327.86 116.566V110.984C327.86 110.546 327.826 110.259 327.742 110.107C327.691 110.006 327.573 109.922 327.405 109.837C327.152 109.736 326.899 109.686 326.629 109.686H326.224V109.449H331.115V109.686H330.727C330.457 109.686 330.204 109.736 329.951 109.82C329.783 109.888 329.648 109.989 329.58 110.124C329.513 110.259 329.479 110.546 329.479 110.967V113.615C329.597 113.531 329.985 113.261 330.643 112.805C332.312 111.659 333.324 110.883 333.678 110.495C333.83 110.326 333.897 110.175 333.897 110.057C333.897 109.955 333.847 109.871 333.729 109.804C333.611 109.719 333.408 109.702 333.122 109.702H332.852V109.466H337.068V109.702C336.832 109.702 336.596 109.736 336.393 109.77C336.191 109.82 335.938 109.905 335.651 110.04C335.365 110.175 334.994 110.394 334.572 110.697C334.454 110.782 333.881 111.203 332.852 111.996L331.132 113.295Z" fill="#BCB5B5"/>
<path d="M348.434 109.433L340.896 117.561H345.601C346.326 117.561 346.883 117.443 347.254 117.207C347.641 116.971 347.979 116.482 348.282 115.757L348.569 115.807L348.029 118.084H338.703V117.848L346.056 109.955H342.397C341.79 109.955 341.334 110.006 341.064 110.107C340.795 110.208 340.592 110.343 340.44 110.546C340.289 110.731 340.154 111.085 340.053 111.608H339.732L339.968 109.449H348.434V109.433Z" fill="#BCB5B5"/>
<path d="M361.301 115.183H356.865L356.09 116.549C355.904 116.887 355.803 117.14 355.803 117.308C355.803 117.443 355.887 117.561 356.056 117.646C356.225 117.747 356.579 117.814 357.135 117.848V118.084H353.526V117.848C353.998 117.78 354.319 117.696 354.454 117.595C354.74 117.393 355.061 116.971 355.415 116.347L359.446 109.23H359.749L363.746 116.414C364.066 116.988 364.353 117.376 364.623 117.544C364.876 117.713 365.247 117.814 365.719 117.831V118.067H361.199V117.831C361.655 117.814 361.958 117.764 362.127 117.662C362.296 117.561 362.363 117.443 362.363 117.308C362.363 117.123 362.245 116.836 362.026 116.414L361.301 115.183ZM361.065 114.711L359.125 111.22L357.135 114.711H361.065Z" fill="#BCB5B5"/>
<path d="M373.882 113.666C374.674 113.8 375.265 114.003 375.669 114.273C376.226 114.661 376.496 115.15 376.496 115.706C376.496 116.145 376.31 116.549 375.956 116.937C375.602 117.325 375.113 117.612 374.472 117.797C373.848 117.983 372.887 118.067 371.588 118.067H366.175V117.831H366.596C367.069 117.831 367.423 117.713 367.625 117.494C367.76 117.342 367.827 117.038 367.827 116.549V110.95C367.827 110.411 367.743 110.073 367.574 109.939C367.355 109.753 367.018 109.652 366.596 109.652H366.175V109.416H371.133C372.06 109.416 372.802 109.466 373.359 109.568C374.202 109.719 374.86 109.989 375.298 110.394C375.737 110.782 375.973 111.22 375.973 111.726C375.973 112.165 375.804 112.553 375.45 112.89C375.079 113.244 374.573 113.514 373.882 113.666ZM369.463 113.328C369.666 113.362 369.902 113.379 370.172 113.396C370.441 113.413 370.728 113.413 371.049 113.413C371.875 113.413 372.482 113.345 372.904 113.21C373.325 113.075 373.646 112.873 373.865 112.603C374.084 112.316 374.185 112.03 374.185 111.692C374.185 111.187 373.915 110.748 373.359 110.394C372.802 110.04 372.01 109.854 370.964 109.854C370.408 109.854 369.902 109.905 369.446 109.989V113.328H369.463ZM369.463 117.46C370.121 117.578 370.762 117.629 371.403 117.629C372.431 117.629 373.207 117.46 373.73 117.106C374.27 116.752 374.539 116.33 374.539 115.824C374.539 115.487 374.421 115.166 374.168 114.863C373.932 114.559 373.528 114.306 372.988 114.121C372.431 113.935 371.757 113.851 370.947 113.851C370.593 113.851 370.306 113.868 370.054 113.868C369.801 113.868 369.598 113.885 369.446 113.919V117.46H369.463Z" fill="#BCB5B5"/>
<path d="M386.361 110.866C386.361 110.343 386.243 110.023 386.024 109.871C385.804 109.736 385.349 109.669 384.675 109.669V109.433H389.65V109.669C388.941 109.686 388.486 109.77 388.284 109.922C388.098 110.073 387.98 110.428 387.98 111.001V116.499C387.98 117.072 388.081 117.426 388.284 117.578C388.486 117.73 388.941 117.814 389.65 117.831V118.067H384.675V117.831C385.4 117.814 385.872 117.73 386.057 117.578C386.26 117.426 386.361 117.055 386.361 116.499V111.541L381.049 116.684C381.066 117.055 381.083 117.308 381.15 117.426C381.217 117.561 381.352 117.645 381.555 117.713C381.774 117.797 382.162 117.831 382.718 117.831V118.067H377.777V117.831C378.485 117.814 378.941 117.73 379.143 117.578C379.345 117.426 379.43 117.072 379.43 116.499V111.001C379.43 110.428 379.329 110.073 379.143 109.922C378.958 109.77 378.485 109.686 377.777 109.669V109.433H382.718V109.669C382.01 109.686 381.555 109.77 381.352 109.922C381.15 110.073 381.066 110.428 381.066 111.001V115.993L386.361 110.866Z" fill="#BCB5B5"/>
<path d="M397.879 115.183H393.443L392.668 116.549C392.482 116.887 392.381 117.14 392.381 117.308C392.381 117.443 392.465 117.561 392.617 117.646C392.786 117.747 393.14 117.814 393.696 117.848V118.084H390.087V117.848C390.56 117.78 390.88 117.696 391.015 117.595C391.302 117.393 391.622 116.971 391.976 116.347L396.007 109.23H396.31L400.307 116.414C400.628 116.988 400.914 117.376 401.184 117.544C401.437 117.713 401.808 117.814 402.28 117.831V118.067H397.761V117.831C398.216 117.814 398.52 117.764 398.688 117.662C398.857 117.561 398.924 117.443 398.924 117.308C398.924 117.123 398.806 116.836 398.587 116.414L397.879 115.183ZM397.643 114.711L395.703 111.22L393.713 114.711H397.643Z" fill="#BCB5B5"/>
<path d="M413.968 117.848V118.084H410.999C410.679 117.696 410.005 116.971 408.976 115.892C407.947 114.829 407.306 114.222 407.087 114.104C406.868 113.986 406.53 113.935 406.075 113.935V116.516C406.075 117.089 406.176 117.443 406.362 117.595C406.564 117.747 407.003 117.831 407.728 117.848V118.084H402.787V117.848C403.495 117.831 403.933 117.747 404.136 117.595C404.338 117.443 404.439 117.089 404.439 116.516V111.018C404.439 110.445 404.338 110.074 404.136 109.939C403.95 109.787 403.478 109.703 402.77 109.686V109.45H407.711V109.686C406.986 109.703 406.547 109.787 406.345 109.939C406.143 110.09 406.058 110.461 406.058 111.018V113.43C406.665 113.43 407.087 113.396 407.323 113.345C407.559 113.278 407.829 113.16 408.133 112.94C408.436 112.738 408.672 112.519 408.824 112.283C409.01 112.047 409.229 111.659 409.499 111.119C409.752 110.613 409.954 110.259 410.123 110.057C410.274 109.854 410.544 109.686 410.898 109.551C411.252 109.416 411.674 109.348 412.163 109.348C413.023 109.348 413.462 109.568 413.462 110.023C413.462 110.192 413.377 110.327 413.209 110.445C413.04 110.563 412.838 110.613 412.618 110.613C412.467 110.613 412.197 110.546 411.826 110.411C411.505 110.293 411.269 110.225 411.134 110.225C410.949 110.225 410.797 110.293 410.679 110.445C410.544 110.579 410.342 110.951 410.072 111.524C409.532 112.603 408.841 113.311 407.998 113.598C408.52 113.666 409.229 114.188 410.123 115.183C411.084 116.229 411.792 116.937 412.248 117.291C412.703 117.662 413.259 117.831 413.968 117.848Z" fill="#BCB5B5"/>
<path d="M419.923 109.247C421.407 109.247 422.705 109.686 423.785 110.529C424.881 111.389 425.421 112.451 425.421 113.716C425.421 115.032 424.881 116.111 423.785 116.988C422.672 117.848 421.339 118.286 419.788 118.286C418.203 118.286 416.887 117.865 415.808 117.022C414.729 116.178 414.189 115.082 414.189 113.733C414.189 112.35 414.796 111.237 416.044 110.36C417.14 109.618 418.422 109.247 419.923 109.247ZM419.771 109.702C418.742 109.702 417.916 109.989 417.309 110.562C416.533 111.271 416.145 112.316 416.145 113.699C416.145 115.099 416.55 116.195 417.359 116.954C417.967 117.527 418.776 117.814 419.788 117.814C420.867 117.814 421.761 117.494 422.453 116.853C423.161 116.229 423.515 115.217 423.515 113.868C423.515 112.384 423.127 111.288 422.368 110.562C421.711 109.989 420.867 109.702 419.771 109.702Z" fill="#BCB5B5"/>
<path d="M433.194 118.084L428.759 110.799V116.583C428.759 117.106 428.826 117.443 428.978 117.578C429.181 117.764 429.518 117.848 429.973 117.848H430.378V118.084H426.381V117.848H426.786C427.275 117.848 427.612 117.747 427.815 117.527C427.95 117.393 428 117.072 428 116.6V110.95C428 110.563 427.95 110.293 427.831 110.124C427.747 110.006 427.612 109.905 427.393 109.804C427.174 109.719 426.836 109.686 426.364 109.686V109.449H429.602L433.768 116.212L437.866 109.449H441.121V109.686H440.716C440.227 109.686 439.889 109.787 439.67 110.023C439.552 110.158 439.485 110.461 439.485 110.95V116.6C439.485 117.123 439.569 117.46 439.721 117.595C439.923 117.78 440.261 117.865 440.716 117.865H441.121V118.101H436.247V117.865H436.651C437.141 117.865 437.495 117.764 437.68 117.544C437.798 117.409 437.866 117.089 437.866 116.617V110.832L433.447 118.118H433.194V118.084Z" fill="#BCB5B5"/>
<path d="M450.412 109.905H445.1V116.516C445.1 117.089 445.201 117.443 445.387 117.595C445.572 117.747 446.028 117.831 446.753 117.848V118.084H441.812V117.848C442.52 117.831 442.975 117.747 443.178 117.595C443.38 117.443 443.481 117.072 443.481 116.516V111.018C443.481 110.444 443.38 110.09 443.178 109.939C442.992 109.787 442.52 109.702 441.812 109.686V109.449H453.701V109.686C452.993 109.702 452.537 109.787 452.335 109.939C452.149 110.09 452.031 110.461 452.031 111.018V116.516C452.031 117.089 452.133 117.443 452.335 117.595C452.537 117.747 452.993 117.831 453.701 117.848V118.084H448.76V117.848C449.468 117.831 449.906 117.747 450.109 117.595C450.311 117.443 450.412 117.089 450.412 116.516V109.905Z" fill="#BCB5B5"/>
<path d="M461.95 115.183H457.515L456.739 116.549C456.554 116.887 456.452 117.14 456.452 117.308C456.452 117.443 456.537 117.561 456.705 117.646C456.874 117.747 457.228 117.814 457.785 117.848V118.084H454.176V117.848C454.648 117.78 454.968 117.696 455.103 117.595C455.39 117.393 455.71 116.971 456.064 116.347L460.095 109.23H460.399L464.395 116.414C464.716 116.988 465.003 117.376 465.272 117.544C465.542 117.713 465.896 117.814 466.369 117.831V118.067H461.849V117.831C462.304 117.814 462.608 117.764 462.776 117.662C462.945 117.561 463.013 117.443 463.013 117.308C463.013 117.123 462.895 116.836 462.675 116.414L461.95 115.183ZM461.714 114.711L459.775 111.22L457.785 114.711H461.714Z" fill="#BCB5B5"/>
<path d="M470.091 113.446H475.42V110.967C475.42 110.529 475.386 110.225 475.319 110.09C475.268 109.989 475.15 109.888 474.965 109.82C474.712 109.719 474.459 109.669 474.189 109.669H473.784V109.432H478.692V109.669H478.287C478.017 109.669 477.764 109.719 477.511 109.82C477.326 109.888 477.208 109.989 477.157 110.124C477.09 110.259 477.056 110.545 477.056 110.967V116.549C477.056 116.988 477.09 117.274 477.157 117.409C477.225 117.51 477.342 117.612 477.511 117.679C477.764 117.78 478.017 117.831 478.287 117.831H478.692V118.067H473.784V117.831H474.189C474.661 117.831 474.998 117.73 475.218 117.51C475.353 117.376 475.42 117.055 475.42 116.532V113.901H470.091V116.532C470.091 116.971 470.125 117.257 470.209 117.392C470.26 117.494 470.378 117.595 470.563 117.662C470.799 117.763 471.069 117.814 471.339 117.814H471.76V118.05H466.853V117.814H467.258C467.73 117.814 468.067 117.713 468.286 117.494C468.421 117.359 468.489 117.038 468.489 116.515V110.933C468.489 110.495 468.455 110.191 468.371 110.056C468.32 109.955 468.202 109.854 468.033 109.787C467.78 109.685 467.528 109.635 467.258 109.635H466.853V109.399H471.76V109.635H471.339C471.069 109.635 470.816 109.685 470.563 109.787C470.394 109.854 470.26 109.955 470.209 110.09C470.141 110.225 470.108 110.512 470.108 110.933V113.446H470.091Z" fill="#BCB5B5"/>
<path d="M487.952 110.866C487.952 110.343 487.834 110.023 487.615 109.871C487.396 109.736 486.94 109.669 486.266 109.669V109.433H491.241V109.669C490.532 109.686 490.077 109.77 489.875 109.922C489.672 110.073 489.571 110.428 489.571 111.001V116.499C489.571 117.072 489.672 117.426 489.875 117.578C490.077 117.73 490.532 117.814 491.241 117.831V118.067H486.266V117.831C486.991 117.814 487.463 117.73 487.649 117.578C487.851 117.426 487.952 117.055 487.952 116.499V111.541L482.64 116.684C482.64 117.055 482.674 117.308 482.741 117.426C482.792 117.561 482.927 117.645 483.146 117.713C483.365 117.797 483.753 117.831 484.31 117.831V118.067H479.368V117.831C480.077 117.814 480.532 117.73 480.734 117.578C480.937 117.426 481.038 117.072 481.038 116.499V111.001C481.038 110.428 480.937 110.073 480.734 109.922C480.549 109.77 480.077 109.686 479.368 109.669V109.433H484.31V109.669C483.601 109.686 483.129 109.77 482.944 109.922C482.758 110.073 482.657 110.428 482.657 111.001V115.993L487.952 110.866Z" fill="#BCB5B5"/>
<path d="M491.392 117.848C492.016 117.797 492.522 117.679 492.91 117.494C493.298 117.308 493.77 116.937 494.309 116.364L496.671 113.885C495.709 113.716 495.001 113.446 494.529 113.058C494.073 112.671 493.837 112.198 493.837 111.676C493.837 111.17 494.04 110.748 494.444 110.394C494.849 110.04 495.338 109.787 495.912 109.652C496.485 109.517 497.396 109.449 498.61 109.449H502.792V109.686H502.354C501.915 109.686 501.595 109.77 501.376 109.955C501.224 110.09 501.139 110.428 501.139 110.967V116.549C501.139 117.038 501.19 117.359 501.308 117.494C501.527 117.73 501.865 117.848 502.354 117.848H502.792V118.084H497.885V117.848H498.34C498.762 117.848 499.082 117.764 499.301 117.561C499.453 117.426 499.537 117.089 499.537 116.549V114.037C499.453 114.037 499.352 114.053 499.268 114.053C499.183 114.053 499.099 114.053 499.031 114.053C498.863 114.053 498.627 114.053 498.34 114.037L494.461 118.084H491.392V117.848ZM499.537 110.04C498.981 109.955 498.542 109.922 498.205 109.922C497.463 109.922 496.873 110.09 496.434 110.428C495.979 110.765 495.76 111.203 495.76 111.743C495.76 112.3 496.046 112.755 496.586 113.109C497.143 113.463 497.969 113.649 499.065 113.649H499.268C499.352 113.649 499.436 113.649 499.554 113.649V110.04H499.537Z" fill="#BCB5B5"/>
</svg>
