<svg width="29" height="30" viewBox="0 0 29 30" fill="none" xmlns="http://www.w3.org/2000/svg">
<path d="M14.5862 0.846924C6.82295 0.846924 0.612305 7.27335 0.612305 15.3064C0.612305 23.3394 6.82295 29.7658 14.5862 29.7658C22.3495 29.7658 28.5602 23.3394 28.5602 15.3064C28.5602 7.27335 22.3495 0.846924 14.5862 0.846924ZM14.5862 12.0932C16.2942 12.0932 17.6916 13.5391 17.6916 15.3064C17.6916 17.0737 16.2942 18.5196 14.5862 18.5196C12.8783 18.5196 11.4809 17.0737 11.4809 15.3064C11.4809 13.5391 12.8783 12.0932 14.5862 12.0932ZM18.9337 8.87996C18.9337 7.75533 19.8653 6.95203 20.7969 6.95203C21.7285 6.95203 22.6601 7.91599 22.6601 8.87996C22.6601 9.84392 21.8837 10.8079 20.7969 10.8079C19.71 10.8079 18.9337 10.0046 18.9337 8.87996ZM14.5862 26.5526C8.53087 26.5526 3.71763 21.5721 3.71763 15.3064H8.37561C8.37561 18.8409 11.1704 21.7328 14.5862 21.7328C18.0021 21.7328 20.7969 18.8409 20.7969 15.3064H25.4549C25.4549 21.5721 20.6416 26.5526 14.5862 26.5526Z" fill="#BCB5B5"/>
</svg>
