<svg width="636" height="163" viewBox="0 0 636 163" fill="none" xmlns="http://www.w3.org/2000/svg">
<path d="M456.866 83.7176C456.866 36.9999 432.794 6.9519 394.336 6.9519H353.112V33.1959L361.395 58.4995V15.2867H393.347C427.076 15.2867 448.179 41.8192 448.179 83.7176C448.179 126.043 427.076 152.373 393.347 152.373H392.117L394.769 160.473C432.967 160.248 456.866 130.478 456.866 83.7176Z" fill="#434343"/>
<path d="M286.72 6.9519L259.275 83.2585L263.445 95.9959L291.255 17.2529L323.409 108.284H267.462L270.191 116.619H326.369L341.946 160.484H351.027L295.791 6.9519H286.72Z" fill="#434343"/>
<path d="M174.097 92.0422L212.958 160.484H222.625L182.774 90.7385C202.695 85.2567 214.332 71.4401 214.332 49.9405C214.332 22.9698 196.179 6.9519 165.217 6.9519H125.77V35.0339L134.054 60.3377V15.2761H164.429C191.644 15.2761 206.048 28.2271 206.048 49.9298C206.048 71.205 191.644 84.3698 164.429 84.3698H141.914L144.643 92.7047H160.278C165.217 92.7154 169.763 92.491 174.097 92.0422Z" fill="#434343"/>
<path d="M499.11 118.045L489.107 88.9674H488.943C489.135 91.2756 489.222 94.0114 489.222 97.1745V118.045H486.051V85.2378H491.221L500.561 112.296H500.725L510.142 85.2378H515.264V118.045H511.833V96.9074C511.833 94.4816 511.929 91.8527 512.112 89.0101H511.949L501.859 118.045H499.11Z" fill="#434343"/>
<path d="M542.901 118.045H526.459V85.2378H542.901V88.6254H529.89V99.1943H542.113V102.56H529.89V114.636H542.901V118.045Z" fill="#434343"/>
<path d="M576.082 101.332C576.082 106.75 574.756 110.885 572.114 113.749C569.471 116.613 565.666 118.045 560.707 118.045H552.539V85.2378H561.582C566.165 85.2378 569.731 86.6484 572.277 89.4803C574.814 92.3122 576.082 96.2555 576.082 101.332ZM572.45 101.46C572.45 97.1852 571.489 93.9579 569.558 91.7886C567.626 89.6192 564.762 88.5399 560.948 88.5399H555.96V114.743H560.14C564.224 114.743 567.299 113.621 569.356 111.387C571.422 109.154 572.45 105.841 572.45 101.46Z" fill="#434343"/>
<path d="M585.76 118.045V85.2378H589.191V118.045H585.76Z" fill="#434343"/>
<path d="M618.922 118.049L615.251 107.62H603.431L599.799 118.049H596.329L607.996 85.1154H610.878L622.477 118.049H618.922ZM614.184 104.179L610.754 94.0166C610.311 92.7343 609.85 91.1528 609.379 89.2828C609.081 90.7147 608.659 92.2962 608.111 94.0166L604.642 104.179H614.184Z" fill="#434343"/>
<path d="M499.024 144.717H509.056V160.672C507.499 161.227 505.904 161.644 504.29 161.933C502.675 162.221 500.802 162.36 498.678 162.36C494.209 162.36 490.74 160.885 488.251 157.925C485.763 154.965 484.523 150.829 484.523 145.508C484.523 142.099 485.138 139.107 486.368 136.542C487.598 133.977 489.376 132.021 491.682 130.664C493.998 129.307 496.708 128.634 499.812 128.634C502.964 128.634 505.895 129.275 508.605 130.557L507.278 133.924C504.617 132.663 502.051 132.043 499.591 132.043C495.997 132.043 493.191 133.229 491.173 135.612C489.155 137.995 488.146 141.287 488.146 145.508C488.146 149.932 489.116 153.298 491.057 155.585C492.999 157.872 495.853 159.015 499.62 159.015C501.666 159.015 503.665 158.759 505.616 158.235V148.136H499.014V144.717H499.024Z" fill="#434343"/>
<path d="M522.663 148.269V161.912H519.232V129.112H527.324C530.947 129.112 533.618 129.882 535.348 131.42C537.077 132.959 537.942 135.277 537.942 138.375C537.942 142.713 535.963 145.64 532.013 147.168L540.018 161.901H535.963L528.823 148.258H522.663V148.269ZM522.663 144.989H527.362C529.784 144.989 531.562 144.454 532.686 143.386C533.81 142.318 534.377 140.715 534.377 138.578C534.377 136.409 533.801 134.85 532.657 133.888C531.504 132.926 529.659 132.456 527.122 132.456H522.663V144.989Z" fill="#434343"/>
<path d="M573.478 145.461C573.478 150.708 572.287 154.844 569.894 157.846C567.501 160.849 564.186 162.356 559.939 162.356C555.595 162.356 552.241 160.881 549.877 157.921C547.513 154.972 546.341 150.793 546.341 145.407C546.341 140.064 547.523 135.929 549.897 132.99C552.26 130.051 555.624 128.576 559.987 128.576C564.224 128.576 567.53 130.073 569.913 133.065C572.287 136.068 573.478 140.203 573.478 145.461ZM549.973 145.461C549.973 149.906 550.819 153.273 552.53 155.57C554.23 157.868 556.7 159.011 559.948 159.011C563.215 159.011 565.685 157.868 567.357 155.581C569.029 153.294 569.856 149.917 569.856 145.461C569.856 141.047 569.029 137.703 567.367 135.416C565.704 133.14 563.244 131.996 559.996 131.996C556.729 131.996 554.24 133.15 552.539 135.437C550.838 137.724 549.973 141.079 549.973 145.461Z" fill="#434343"/>
<path d="M605.429 129.112V150.332C605.429 154.072 604.411 157.01 602.383 159.147C600.355 161.284 597.559 162.352 594.013 162.352C590.467 162.352 587.719 161.273 585.768 159.125C583.827 156.967 582.856 154.008 582.856 150.247V129.112H586.287V150.514C586.287 153.249 586.96 155.354 588.305 156.818C589.65 158.281 591.63 159.019 594.234 159.019C596.723 159.019 598.635 158.281 599.981 156.807C601.326 155.332 601.999 153.217 601.999 150.471V129.112H605.429Z" fill="#434343"/>
<path d="M635.047 138.664C635.047 141.987 634.028 144.541 631.991 146.326C629.954 148.11 627.032 149.008 623.246 149.008H619.777V161.905H616.347V129.101H623.996C631.357 129.112 635.047 132.296 635.047 138.664ZM619.768 145.727H622.852C625.889 145.727 628.09 145.182 629.454 144.092C630.809 143.002 631.491 141.25 631.491 138.846C631.491 136.677 630.847 135.063 629.579 133.995C628.301 132.937 626.312 132.403 623.611 132.403H619.777V145.727H619.768Z" fill="#434343"/>
<path d="M44.9053 8.33411C64.6336 8.33411 79.2305 16.8819 90.6658 35.7512L97.5655 30.9217C86.1301 10.9732 67.9777 0 44.7131 0C26.2052 0 10.7819 8.39822 0 22.5662L3.25763 32.5137C12.7518 17.2452 27.3775 8.33411 44.9053 8.33411Z" fill="#95C11F"/>
<path d="M97.1716 134.446V78.3013H48.6532V86.6364H88.8882V130.941C80.009 143.219 62.8561 150.453 47.4617 150.453C45.5206 150.453 43.6179 150.346 41.7632 150.165L44.5596 158.714C45.4533 158.746 46.347 158.788 47.2599 158.788C65.614 158.799 85.5345 150.688 97.1716 134.446Z" fill="#95C11F"/>
</svg>
