<svg width="238" height="57" viewBox="0 0 238 57" fill="none" xmlns="http://www.w3.org/2000/svg">
<path d="M171.222 29.061C171.222 12.8439 162.201 2.41333 147.788 2.41333H132.338V11.5234L135.442 20.307V5.30659H147.417C160.058 5.30659 167.967 14.5168 167.967 29.061C167.967 43.7535 160.058 52.8932 147.417 52.8932H146.956L147.95 55.7049C162.266 55.627 171.222 45.2929 171.222 29.061Z" fill="white"/>
<path d="M107.456 2.41333L97.1699 28.9016L98.7329 33.3231L109.155 5.98912L121.206 37.5888H100.238L101.261 40.4821H122.315L128.153 55.7089H131.556L110.855 2.41333H107.456Z" fill="white"/>
<path d="M65.2473 31.9507L79.8114 55.7089H83.4344L68.4993 31.4981C75.9651 29.5952 80.3264 24.7991 80.3264 17.3359C80.3264 7.97361 73.5233 2.41333 61.9195 2.41333H47.1357V12.1614L50.2402 20.9451V5.30289H61.6242C71.8234 5.30289 77.222 9.79859 77.222 17.3322C77.222 24.7175 71.8234 29.2874 61.6242 29.2874H53.1861L54.2089 32.1806H60.0684C61.9195 32.1844 63.623 32.1065 65.2473 31.9507Z" fill="white"/>
<path d="M187.055 40.977L183.306 30.8833H183.244C183.316 31.6845 183.349 32.6342 183.349 33.7322V40.977H182.16V29.5886H184.098L187.599 38.9813H187.66L191.189 29.5886H193.109V40.977H191.823V33.6395C191.823 32.7974 191.859 31.8848 191.928 30.8981H191.866L188.085 40.977H187.055Z" fill="white"/>
<path d="M203.467 40.977H197.305V29.5886H203.467V30.7646H198.59V34.4333H203.171V35.6018H198.59V39.7937H203.467V40.977Z" fill="white"/>
<path d="M215.902 35.1752C215.902 37.056 215.405 38.4916 214.414 39.4858C213.424 40.4799 211.998 40.977 210.14 40.977H207.078V29.5886H210.467C212.185 29.5886 213.521 30.0783 214.476 31.0613C215.426 32.0444 215.902 33.4132 215.902 35.1752ZM214.54 35.2198C214.54 33.7359 214.18 32.6156 213.456 31.8626C212.733 31.1095 211.659 30.7349 210.23 30.7349H208.36V39.8308H209.927C211.458 39.8308 212.61 39.4413 213.381 38.6659C214.155 37.8906 214.54 36.7407 214.54 35.2198Z" fill="white"/>
<path d="M219.529 40.977V29.5886H220.815V40.977H219.529Z" fill="white"/>
<path d="M231.957 40.9784L230.581 37.3581H226.151L224.79 40.9784H223.49L227.862 29.5461H228.942L233.289 40.9784H231.957ZM230.181 36.1636L228.896 32.636C228.73 32.1909 228.557 31.6419 228.381 30.9928C228.269 31.4898 228.11 32.0388 227.905 32.636L226.605 36.1636H230.181Z" fill="white"/>
<path d="M187.022 50.2354H190.782V55.7738C190.199 55.9667 189.601 56.1114 188.996 56.2115C188.391 56.3117 187.688 56.3599 186.893 56.3599C185.218 56.3599 183.918 55.848 182.985 54.8204C182.052 53.7929 181.588 52.3573 181.588 50.51C181.588 49.3266 181.818 48.2879 182.279 47.3977C182.74 46.5074 183.406 45.8285 184.271 45.3574C185.139 44.8863 186.154 44.6526 187.318 44.6526C188.499 44.6526 189.597 44.8752 190.613 45.3203L190.116 46.4888C189.118 46.0511 188.157 45.8359 187.235 45.8359C185.888 45.8359 184.836 46.2477 184.08 47.0749C183.324 47.9021 182.945 49.0447 182.945 50.51C182.945 52.0457 183.309 53.2142 184.037 54.0081C184.764 54.8019 185.834 55.1988 187.245 55.1988C188.013 55.1988 188.762 55.1098 189.493 54.928V51.4225H187.019V50.2354H187.022Z" fill="white"/>
<path d="M195.882 51.4686V56.2046H194.596V44.8188H197.628C198.986 44.8188 199.987 45.0859 200.636 45.6199C201.284 46.154 201.608 46.9588 201.608 48.0343C201.608 49.54 200.866 50.5562 199.386 51.0866L202.386 56.2009H200.866L198.19 51.4649H195.882V51.4686ZM195.882 50.33H197.643C198.55 50.33 199.217 50.1445 199.638 49.7737C200.059 49.4028 200.272 48.8465 200.272 48.1048C200.272 47.3519 200.056 46.8104 199.627 46.4766C199.195 46.1429 198.503 45.9797 197.553 45.9797H195.882V50.33Z" fill="white"/>
<path d="M214.926 50.4939C214.926 52.3153 214.479 53.7509 213.583 54.7933C212.686 55.8357 211.443 56.3587 209.852 56.3587C208.224 56.3587 206.967 55.8468 206.081 54.8193C205.195 53.7954 204.756 52.345 204.756 50.4754C204.756 48.6206 205.199 47.185 206.088 46.1649C206.974 45.1447 208.235 44.6328 209.87 44.6328C211.458 44.6328 212.697 45.1522 213.59 46.1908C214.479 47.2332 214.926 48.6688 214.926 50.4939ZM206.117 50.4939C206.117 52.0371 206.434 53.2056 207.075 54.0032C207.712 54.8007 208.638 55.1976 209.855 55.1976C211.08 55.1976 212.005 54.8007 212.632 54.0069C213.259 53.213 213.568 52.0408 213.568 50.4939C213.568 48.9619 213.259 47.8008 212.636 47.0069C212.012 46.2168 211.091 45.8199 209.873 45.8199C208.649 45.8199 207.716 46.2205 207.079 47.0144C206.441 47.8082 206.117 48.973 206.117 50.4939Z" fill="white"/>
<path d="M226.9 44.8188V52.1848C226.9 53.483 226.518 54.5029 225.758 55.2447C224.999 55.9865 223.951 56.3574 222.622 56.3574C221.293 56.3574 220.263 55.9828 219.532 55.2373C218.804 54.4881 218.44 53.4607 218.44 52.1552V44.8188H219.726V52.2479C219.726 53.1974 219.978 53.928 220.482 54.4362C220.987 54.9443 221.729 55.2002 222.705 55.2002C223.637 55.2002 224.354 54.9443 224.858 54.4325C225.362 53.9206 225.614 53.1862 225.614 52.233V44.8188H226.9Z" fill="white"/>
<path d="M238 48.1344C238 49.2879 237.618 50.1744 236.855 50.7938C236.091 51.4133 234.996 51.7248 233.578 51.7248H232.277V56.2018H230.992V44.8147H233.858C236.617 44.8184 238 45.9237 238 48.1344ZM232.274 50.5861H233.43C234.568 50.5861 235.393 50.397 235.904 50.0186C236.412 49.6403 236.668 49.032 236.668 48.1974C236.668 47.4445 236.426 46.8844 235.951 46.5135C235.472 46.1463 234.726 45.9608 233.714 45.9608H232.277V50.5861H232.274Z" fill="white"/>
<path d="M16.8294 2.89301C24.2231 2.89301 29.6937 5.86021 33.9793 12.4103L36.5652 10.7338C32.2795 3.80914 25.4764 0 16.7574 0C9.82106 0 4.04079 2.91527 0 7.83339L1.22088 11.2865C4.77908 5.98632 10.2604 2.89301 16.8294 2.89301Z" fill="#95C11F"/>
<path d="M36.4175 46.67V27.1807H18.2341V30.074H33.3131V45.4533C29.9854 49.7155 23.5569 52.2267 17.7875 52.2267C17.06 52.2267 16.3469 52.1896 15.6519 52.1266L16.6999 55.0941C17.0348 55.1053 17.3697 55.1201 17.7119 55.1201C24.5905 55.1238 32.0562 52.3083 36.4175 46.67Z" fill="#95C11F"/>
</svg>
