<svg width="44" height="44" viewBox="0 0 44 44" fill="none" xmlns="http://www.w3.org/2000/svg">
<path fill-rule="evenodd" clip-rule="evenodd" d="M44 22C44 34.1503 34.1503 44 22 44C9.84974 44 0 34.1503 0 22C0 9.84974 9.84974 0 22 0C34.1503 0 44 9.84974 44 22ZM34.4164 23.2157H37.5642C37.5642 15.1414 31.4685 9.05195 23.3832 9.05195V12.1998C29.7765 12.1998 34.4164 16.8318 34.4164 23.2157ZM28.1208 23.2172C28.1208 19.9072 26.709 18.4954 23.3991 18.4954V15.3476C28.475 15.3476 31.2687 18.1413 31.2687 23.2172H28.1208ZM27.6767 26.6534C28.0852 26.6408 28.4826 26.7874 28.785 27.0623L35.1814 32.8795C35.4844 33.155 35.668 33.5379 35.6933 33.9467C35.7186 34.3554 35.5835 34.758 35.3168 35.0688L32.3893 38.4858C32.1175 38.7591 31.7542 38.9222 31.3694 38.9438C31.3175 38.9469 31.1223 38.9564 30.8044 38.9564C28.6292 38.9564 20.7313 38.4952 14.4261 32.1917C7.19871 24.9611 7.64885 15.6403 7.67246 15.2468C7.69437 14.8619 7.85678 14.4985 8.1289 14.2254L11.5443 11.2963C11.8553 11.0298 12.258 10.895 12.6667 10.9205C13.0755 10.9461 13.4583 11.13 13.7336 11.4332L19.5493 17.8281C19.8245 18.1303 19.9714 18.5278 19.9587 18.9364C19.9461 19.345 19.775 19.7327 19.4816 20.0174L15.6113 23.7854C15.7797 24.6856 16.3479 26.513 18.224 28.3906C20.1001 30.262 21.9227 30.8302 22.8293 31.0033L26.5957 27.1299C26.8806 26.8369 27.2682 26.666 27.6767 26.6534Z" fill="#95C11F"/>
</svg>
