<svg width="31" height="40" fill="none" xmlns="http://www.w3.org/2000/svg"><path d="M29.513 39.788H.886a.699.699 0 01-.695-.711V19.059c0-.385.307-.71.695-.71.375 0 .694.314.694.71v19.306h27.25V19.06c0-.385.307-.71.694-.71.376 0 .695.314.695.71v20.018c-.023.396-.33.71-.706.71z" fill="#000"/><path d="M29.513 39.788a.597.597 0 01-.387-.128l-13.927-9.735L1.273 39.66a.672.672 0 01-.957-.187.709.709 0 01.182-.98L14.812 28.48a.673.673 0 01.774 0L29.9 38.494a.71.71 0 01.182.979.676.676 0 01-.569.315zm0-20.018a.693.693 0 01-.364-.105L25.64 17.45a.725.725 0 01-.227-.967.69.69 0 01.945-.233l3.507 2.215c.319.21.421.64.228.967a.665.665 0 01-.581.338zm-28.627 0a.696.696 0 01-.593-.338.702.702 0 01.228-.967l3.507-2.215a.667.667 0 01.946.233.702.702 0 01-.228.967l-3.507 2.216a.629.629 0 01-.353.104z" fill="#000"/><path d="M15.2 29.785a.671.671 0 01-.388-.128L.487 19.642a.71.71 0 01-.182-.98.674.674 0 01.956-.186l13.927 9.735 13.926-9.735a.672.672 0 01.957.187.709.709 0 01-.182.98L15.575 29.656a.612.612 0 01-.376.128z" fill="#000"/><path d="M4.393 22.219a.706.706 0 01-.695-.712V1.117c0-.396.308-.711.695-.711H21.29c.183 0 .354.07.49.21l4.714 4.826a.734.734 0 01.205.502v15.575a.706.706 0 01-.694.711.706.706 0 01-.695-.71V6.234l-4.316-4.419H5.076V21.52c0 .385-.307.7-.683.7z" fill="#000"/><path d="M26.006 6.643H21.29a.706.706 0 01-.694-.711V1.117c0-.291.17-.548.421-.653a.689.689 0 01.752.152l4.714 4.826a.709.709 0 01.148.77.683.683 0 01-.626.431zm-4.031-1.41h2.357l-2.357-2.414v2.413zM21.93 20.12H8.457a.706.706 0 01-.695-.711c0-.385.308-.711.695-.711H21.93c.376 0 .695.315.695.711a.706.706 0 01-.695.711zm0-4.721H8.457a.706.706 0 01-.695-.712c0-.384.308-.71.695-.71H21.93c.376 0 .695.314.695.71a.699.699 0 01-.695.712zm0-4.711H8.457a.706.706 0 01-.695-.71c0-.385.308-.712.695-.712H21.93c.376 0 .695.315.695.711a.699.699 0 01-.695.711z" fill="#000"/></svg>