<svg width="69" height="57" fill="none" xmlns="http://www.w3.org/2000/svg"><path d="M54.234 57a1.14 1.14 0 01-.485-.115c-14.11-7.008-14.282-27.138-14.282-28.003 0-.548.4-1.024.94-1.096 6.3-.937 13.2-5.018 13.27-5.06.343-.203.77-.203 1.112 0 .072.042 6.97 4.123 13.27 5.06.542.087.941.548.941 1.096 0 .88-.157 21.557-14.31 28.017-.143.072-.3.101-.456.101zM41.705 29.82c.214 3.922 1.725 19.062 12.557 24.83C65.08 49.3 66.577 33.785 66.776 29.82c-5.416-1.039-10.818-3.894-12.542-4.86-1.725.966-7.113 3.821-12.529 4.86z" fill="#fff"/><path d="M54.234 51.203c-.214 0-.428-.057-.613-.187-6.899-4.629-8.11-14.275-8.281-16.164a1.11 1.11 0 01.983-1.211 1.103 1.103 0 011.197.995c.1 1.009 1.055 9.761 6.728 14.102 5.53-4.023 6.542-12.4 6.699-14.102.057-.606.584-1.068 1.183-1.01.599.058 1.055.591.998 1.197-.171 1.932-1.369 11.78-8.31 16.179a.876.876 0 01-.584.201z" fill="#fff"/><path d="M42.517 51.564H4.462C1.995 51.564 0 49.545 0 47.05V4.513C0 2.02 1.995 0 4.461 0h48.775c2.466 0 4.461 2.019 4.461 4.513v16.064c0 .605-.484 1.11-1.097 1.11-.599 0-1.098-.49-1.098-1.11V4.512a2.276 2.276 0 00-2.266-2.292H4.46a2.275 2.275 0 00-2.266 2.292V47.05c0 1.268 1.012 2.292 2.266 2.292h38.056c.6 0 1.098.49 1.098 1.11 0 .62-.485 1.11-1.098 1.11z" fill="#fff"/><path d="M40.066 45.868H8.196c-1.525 0-2.78-1.254-2.78-2.812V8.493c0-1.543 1.24-2.812 2.78-2.812h41.306c1.525 0 2.779 1.255 2.779 2.812v11.94c0 .605-.485 1.11-1.097 1.11-.6 0-1.098-.49-1.098-1.11V8.492a.581.581 0 00-.584-.591H8.196a.581.581 0 00-.585.59v34.564c0 .332.257.592.585.592h31.87c.599 0 1.097.49 1.097 1.11 0 .62-.498 1.11-1.097 1.11z" fill="#fff"/><path d="M26.682 17.923H21.28c-.599 0-1.097-.49-1.097-1.11v-3.33c0-.607.484-1.111 1.097-1.111h5.402c.599 0 1.098.49 1.098 1.11v3.331c0 .606-.485 1.11-1.098 1.11zm-4.304-2.22h3.207v-1.11h-3.207v1.11zm-5.431 2.22h-5.402c-.598 0-1.097-.49-1.097-1.11v-3.33c0-.607.484-1.111 1.097-1.111h5.402c.599 0 1.098.49 1.098 1.11v3.331c0 .606-.5 1.11-1.098 1.11zm-4.304-2.22h3.207v-1.11h-3.207v1.11zm14.039 9.315H21.28c-.599 0-1.097-.49-1.097-1.11v-3.331c0-.606.484-1.11 1.097-1.11h5.402c.599 0 1.098.49 1.098 1.11v3.33c0 .606-.485 1.11-1.098 1.11zm-4.304-2.22h3.207v-1.111h-3.207v1.11zm-5.431 2.22h-5.402c-.598 0-1.097-.49-1.097-1.11v-3.331c0-.606.484-1.11 1.097-1.11h5.402c.599 0 1.098.49 1.098 1.11v3.33c0 .606-.5 1.11-1.098 1.11zm-4.304-2.22h3.207v-1.111h-3.207v1.11zm14.039 9.3H21.28c-.599 0-1.097-.49-1.097-1.11v-3.332c0-.605.484-1.11 1.097-1.11h5.402c.599 0 1.098.49 1.098 1.11v3.331c0 .62-.485 1.11-1.098 1.11zm-4.304-2.221h3.207v-1.11h-3.207v1.11zm-5.431 2.221h-5.402c-.598 0-1.097-.49-1.097-1.11v-3.332c0-.605.484-1.11 1.097-1.11h5.402c.599 0 1.098.49 1.098 1.11v3.331c0 .62-.5 1.11-1.098 1.11zm-4.304-2.221h3.207v-1.11h-3.207v1.11zm14.039 9.315H21.28c-.599 0-1.097-.49-1.097-1.11V34.75c0-.606.484-1.11 1.097-1.11h5.402c.599 0 1.098.49 1.098 1.11v3.33c0 .606-.485 1.111-1.098 1.111zm-4.304-2.22h3.207v-1.11h-3.207v1.11zm-5.431 2.22h-5.402c-.598 0-1.097-.49-1.097-1.11V34.75c0-.606.484-1.11 1.097-1.11h5.402c.599 0 1.098.49 1.098 1.11v3.33c0 .606-.5 1.111-1.098 1.111zm-4.304-2.22h3.207v-1.11h-3.207v1.11zm26.439 4.469c-2.11 0-3.834-1.73-3.834-3.879V13.988c0-2.134 1.725-3.88 3.834-3.88 2.11 0 3.834 1.746 3.834 3.88v10.209c0 .605-.484 1.11-1.097 1.11-.599 0-1.098-.49-1.098-1.11v-10.21c0-.908-.74-1.658-1.639-1.658-.898 0-1.639.75-1.639 1.659v23.59c0 .908.742 1.658 1.64 1.658.598 0 1.097.49 1.097 1.11 0 .62-.485 1.096-1.098 1.096zM17.631 57H6.741c-.598 0-1.097-.49-1.097-1.11v-5.436c0-.606.485-1.11 1.098-1.11h10.89c.598 0 1.097.49 1.097 1.11v5.436c0 .605-.5 1.11-1.098 1.11zM7.84 54.78h8.695v-3.216H7.839v3.215zM47.435 57h-7.37c-.598 0-1.097-.49-1.097-1.11v-5.436c0-.606.485-1.11 1.098-1.11h2.451c.6 0 1.098.49 1.098 1.11 0 .605-.485 1.11-1.098 1.11H41.15v3.215h6.272c.598 0 1.097.49 1.097 1.11 0 .606-.485 1.111-1.083 1.111z" fill="#fff"/><path d="M63.612 57H1.097A1.104 1.104 0 010 55.89c0-.606.485-1.11 1.097-1.11h62.515c.599 0 1.098.49 1.098 1.11 0 .605-.485 1.11-1.098 1.11z" fill="#fff"/></svg>