<svg width="61" height="75" fill="none" xmlns="http://www.w3.org/2000/svg"><g clip-path="url(#clip0)" fill="#fff"><path d="M24.43 34.508a1.18 1.18 0 01-1.177-1.184v-5.21H16.25a2.283 2.283 0 01-2.27-2.284v-5.305a2.283 2.283 0 012.27-2.285h7.085a2.283 2.283 0 012.27 2.285v1.741a1.18 1.18 0 01-1.175 1.184 1.18 1.18 0 01-1.177-1.184V20.62h-6.908v5.128h7.003a2.283 2.283 0 012.271 2.285v5.305c-.013.64-.54 1.17-1.19 1.17z"/><path d="M19.793 34.644a1.18 1.18 0 01-1.177-1.184V17.9a1.18 1.18 0 011.177-1.183c.649 0 1.176.53 1.176 1.183v15.56a1.18 1.18 0 01-1.176 1.184zm24.402-11.399h-7.084a2.283 2.283 0 01-2.271-2.285v-1.74a1.18 1.18 0 011.176-1.184c.649 0 1.176.53 1.176 1.183v1.646h6.909v-5.128h-7.004a2.283 2.283 0 01-2.27-2.285V8.147a2.275 2.275 0 012.27-2.285h7.085a2.283 2.283 0 012.271 2.285v1.741a1.18 1.18 0 01-1.176 1.184A1.18 1.18 0 0144.1 9.888V8.256h-6.909v5.128h7.003a2.283 2.283 0 012.272 2.285v5.305a2.271 2.271 0 01-2.272 2.271z"/><path d="M40.653 24.782a1.18 1.18 0 01-1.176-1.183V5.55a1.18 1.18 0 011.176-1.183c.65 0 1.176.53 1.176 1.184V23.6a1.18 1.18 0 01-1.176 1.182zm17.427 35.8h-5.07c-3.799 0-6.895-3.114-6.895-6.937 0-3.822 3.096-6.937 6.895-6.937h5.07c1.609 0 2.92 1.32 2.92 2.939v8.01a2.931 2.931 0 01-2.92 2.925zm-5.07-11.507c-2.501 0-4.543 2.054-4.543 4.57 0 2.517 2.042 4.57 4.543 4.57h5.07c.31 0 .568-.258.568-.57v-7.998a.573.573 0 00-.568-.572h-5.07zm-17.386-8.311H1.176A1.18 1.18 0 010 39.581a1.18 1.18 0 011.176-1.183h34.448c.649 0 1.176.53 1.176 1.183a1.18 1.18 0 01-1.176 1.183zM19.711 68.893H1.176A1.18 1.18 0 010 67.71a1.18 1.18 0 011.176-1.184h18.535c.65 0 1.177.53 1.177 1.184a1.18 1.18 0 01-1.177 1.183zm37.815-28.129H43.68a1.18 1.18 0 01-1.176-1.183 1.18 1.18 0 011.176-1.183h13.845c.648 0 1.176.53 1.176 1.183a1.18 1.18 0 01-1.176 1.183zm0 28.129H27.877a1.18 1.18 0 01-1.176-1.183 1.18 1.18 0 011.176-1.184h29.649c.648 0 1.176.53 1.176 1.184a1.18 1.18 0 01-1.176 1.183z"/><path d="M40.653 29.108c-2.988 0-5.867-.925-8.328-2.666a1.16 1.16 0 01-.487-.843 12.167 12.167 0 00-5.07-8.638 1.16 1.16 0 01-.486-.843 15.55 15.55 0 01-.081-1.564C26.2 6.529 32.69 0 40.667 0c7.976 0 14.465 6.529 14.465 14.554-.013 8.025-6.502 14.554-14.479 14.554zm-6.543-4.312a11.933 11.933 0 006.543 1.945c6.679 0 12.114-5.468 12.114-12.187 0-6.72-5.435-12.187-12.114-12.187-6.678 0-12.113 5.468-12.113 12.187 0 .258.013.53.027.802a14.63 14.63 0 015.543 9.44zm-11.587-9.793c-.703-.027-1.203-.571-1.176-1.238.203-5.155 2.38-9.93 6.152-13.452a1.17 1.17 0 011.663.054 1.188 1.188 0 01-.054 1.673 17.004 17.004 0 00-5.395 11.82c-.04.64-.568 1.143-1.19 1.143zM54.916 75H3.8A3.811 3.811 0 010 71.192V36.099c0-2.108 1.703-3.822 3.799-3.822h51.117c2.096 0 3.8 1.714 3.8 3.822v11.793a1.18 1.18 0 01-1.177 1.183H53.01c-2.501 0-4.543 2.054-4.543 4.57 0 2.517 2.042 4.57 4.543 4.57h4.529a1.18 1.18 0 011.176 1.184v11.793C58.702 73.286 57.012 75 54.916 75zM3.8 34.644c-.798 0-1.433.653-1.433 1.442v35.092c0 .803.649 1.442 1.433 1.442h51.117c.798 0 1.433-.653 1.433-1.442v-10.61h-3.352c-3.8 0-6.895-3.114-6.895-6.936s3.096-6.937 6.895-6.937h3.352v-10.61c0-.802-.649-1.441-1.433-1.441H3.8z"/><path d="M31.365 34.644H8.22c-.42 0-.811-.231-1.028-.599a14.689 14.689 0 01-1.865-7.14c0-8.026 6.489-14.554 14.466-14.554 7.976 0 14.465 6.528 14.465 14.553 0 2.49-.649 4.965-1.865 7.141a1.17 1.17 0 01-1.028.599zM8.936 32.277h21.726a12.322 12.322 0 001.244-5.373c0-6.719-5.435-12.187-12.113-12.187-6.68 0-12.114 5.468-12.114 12.187.014 1.864.433 3.7 1.257 5.373z"/></g><defs><clipPath id="clip0"><path fill="#fff" d="M0 0h61v75H0z"/></clipPath></defs></svg>