<svg width="66" height="63" fill="none" xmlns="http://www.w3.org/2000/svg"><path d="M45.05 56.903H4.735C2.117 56.903 0 54.76 0 52.138V18.304c0-2.635 2.131-4.765 4.736-4.765h52.265c2.62 0 4.736 2.144 4.736 4.765v19.202c0 .588-.473 1.079-1.072 1.079a1.076 1.076 0 01-1.073-1.08v-19.2a2.603 2.603 0 00-2.59-2.607H4.735c-1.435 0-2.59 1.177-2.59 2.606v33.834a2.603 2.603 0 002.59 2.607H45.05c.585 0 1.073.476 1.073 1.08 0 .588-.488 1.078-1.073 1.078z" fill="#fff"/><path d="M42.528 15.684H19.223a1.076 1.076 0 01-1.072-1.08V7.456c0-1.611 1.31-2.929 2.911-2.929h19.641c1.602 0 2.912 1.318 2.912 2.93v7.147a1.088 1.088 0 01-1.087 1.08zm-22.232-2.145h21.16V7.456c0-.42-.349-.77-.767-.77H21.05a.775.775 0 00-.767.77v6.083h.014z" fill="#fff"/><path d="M47.515 15.683H14.236a1.076 1.076 0 01-1.072-1.079V6.615C13.164 2.971 16.117 0 19.739 0h22.274c3.621 0 6.575 2.971 6.575 6.615v8.003c0 .589-.488 1.065-1.073 1.065zM15.309 13.54h31.133V6.615c0-2.452-1.992-4.457-4.43-4.457H19.74c-2.438 0-4.43 2.005-4.43 4.457v6.924zm21.786 20.966c-.46 0-.891-.308-1.03-.785a1.075 1.075 0 01.738-1.331l23.583-6.784a1.066 1.066 0 011.324.743 1.075 1.075 0 01-.739 1.332l-23.583 6.783a1.055 1.055 0 01-.293.042zm-12.439 0c-.098 0-.195-.014-.293-.042L.78 27.681a1.086 1.086 0 01-.738-1.332 1.066 1.066 0 011.323-.743l23.583 6.784c.572.168.892.757.739 1.331-.14.477-.571.785-1.031.785z" fill="#fff"/><path d="M34.337 39.44H27.4c-2.103 0-3.817-1.724-3.817-3.84v-7.457c0-.588.474-1.079 1.073-1.079h12.44c.585 0 1.072.477 1.072 1.08V35.6a3.837 3.837 0 01-3.83 3.84zM25.73 29.223V35.6c0 .939.752 1.696 1.685 1.696h6.937c.934 0 1.686-.757 1.686-1.696v-6.377H25.729z" fill="#fff"/><path d="M38.864 29.223H22.873a1.076 1.076 0 01-1.073-1.08c0-.602.474-1.079 1.073-1.079h15.991c.586 0 1.073.477 1.073 1.08 0 .602-.473 1.079-1.072 1.079zM28.083 51.661H5.92a1.076 1.076 0 01-1.072-1.079c0-.589.473-1.08 1.072-1.08h22.163c.585 0 1.072.477 1.072 1.08 0 .603-.473 1.08-1.072 1.08zM55.817 63c-.167 0-.32-.042-.473-.112-9.598-4.737-9.71-18.276-9.71-18.851 0-.533.39-.995.92-1.065 4.137-.603 8.664-3.28 8.72-3.308a1.076 1.076 0 011.087 0c.041.028 4.596 2.705 8.72 3.308.529.084.919.532.919 1.065 0 .589-.111 14.506-9.737 18.879a1.2 1.2 0 01-.446.084zm-7.982-18.066c.195 2.915 1.338 12.123 8.01 15.795 6.659-3.42 7.787-12.838 7.982-15.795-3.399-.7-6.714-2.41-7.996-3.112-1.281.701-4.61 2.411-7.996 3.112z" fill="#fff"/><path d="M61.069 49.013a1.43 1.43 0 01-.251-.029c-2.466-.616-4.137-1.471-5-1.99-.85.519-2.522 1.374-5.002 1.99a1.072 1.072 0 01-1.295-.784 1.08 1.08 0 01.78-1.304c3.232-.799 4.834-2.032 4.848-2.046.39-.294.919-.294 1.309 0 .014.014 1.672 1.247 4.848 2.046.57.14.919.729.78 1.304a1.02 1.02 0 01-1.017.813z" fill="#fff"/></svg>