<svg width="27" height="27" fill="none" xmlns="http://www.w3.org/2000/svg"><path d="M26.63 13.553c0 1.835-.036 3.675.011 5.51.08 3.249-1.961 5.76-4.561 6.877a8.25 8.25 0 01-3.275.686c-3.549.005-7.103.052-10.652-.016-2.674-.053-4.873-1.17-6.45-3.375C.875 22.075.48 20.756.48 19.327V7.99c0-3.085 1.503-5.241 4.171-6.644C5.811.738 7.071.48 8.385.475c3.443 0 6.892-.021 10.336.01 2.673.021 4.904 1.044 6.55 3.196.917 1.202 1.36 2.584 1.36 4.103v5.769zm-24.204 0v5.8c0 .865.2 1.677.648 2.41 1.176 1.925 2.954 2.864 5.158 2.9 3.538.054 7.082.022 10.626.011.87 0 1.714-.179 2.5-.553 2.14-1.023 3.337-2.653 3.327-5.1-.021-3.744-.005-7.488-.005-11.232 0-1.06-.3-2.03-.928-2.885-1.213-1.64-2.89-2.447-4.894-2.468-3.533-.042-7.067-.015-10.6-.01-.754 0-1.482.153-2.188.416-1.94.723-3.744 2.553-3.66 5.247.063 1.825.016 3.644.016 5.464z" fill="#fff"/><path d="M13.584 19.143c-3.401 0-6.143-2.711-6.148-6.086-.006-3.322 2.758-6.043 6.138-6.043 3.39-.006 6.143 2.71 6.149 6.059 0 3.343-2.748 6.064-6.139 6.07zm0-1.952c2.315 0 4.193-1.85 4.188-4.129-.006-2.257-1.883-4.102-4.188-4.102-2.315 0-4.203 1.84-4.203 4.113.006 2.278 1.888 4.124 4.203 4.118zm6.851-12.023c.712 0 1.292.606 1.292 1.35-.006.744-.591 1.345-1.303 1.34-.701-.006-1.276-.607-1.276-1.335-.005-.743.575-1.355 1.287-1.355z" fill="#fff"/></svg>