<svg width="71" height="75" fill="none" xmlns="http://www.w3.org/2000/svg"><circle cx="19.5" cy="19.5" r="19.5" fill="#8CC63F"/><g clip-path="url(#clip0)" fill="#231F20"><path d="M67.58 68.3c-.87 0-1.74-.33-2.4-.99l-7.2-7.19c-.25-.25-.36-.59-.31-.94.05-.34.27-.64.58-.8.6-.31 1.15-.7 1.62-1.17.47-.47.87-1.02 1.18-1.62.16-.31.45-.52.8-.58.34-.05.69.06.94.31l7.2 7.19c.64.64.99 1.49.99 2.4 0 .91-.35 1.76-.99 2.4-.67.66-1.54.99-2.41.99zm-7.09-8.75l6.23 6.23c.48.47 1.25.47 1.73 0 .23-.23.36-.53.36-.86 0-.33-.13-.63-.36-.86l-6.23-6.23c-.25.33-.51.64-.8.93-.3.27-.61.54-.93.79zm-4.41-32.76H31.3c-.6 0-1.09-.49-1.09-1.09v-9.37c0-1.57 1.27-2.84 2.84-2.84h4.2A6.821 6.821 0 0143.69 9a6.83 6.83 0 016.44 4.49h4.2c1.57 0 2.84 1.27 2.84 2.84v9.37c-.01.61-.49 1.09-1.09 1.09zm-23.69-2.17h22.6v-8.29c0-.37-.3-.66-.67-.66h-5.01c-.51 0-.95-.35-1.06-.85a4.666 4.666 0 00-4.57-3.65c-2.2 0-4.08 1.5-4.57 3.65-.11.5-.55.85-1.06.85h-5.01c-.37 0-.67.3-.67.66v8.29h.02z"/><path d="M56.08 21.95H31.3c-.6 0-1.09-.49-1.09-1.09 0-.6.49-1.09 1.09-1.09h24.78c.6 0 1.09.49 1.09 1.09a1.1 1.1 0 01-1.09 1.09zm-1.73 14.76H33.02c-.6 0-1.09-.49-1.09-1.09 0-.6.49-1.09 1.09-1.09h21.34c.6 0 1.09.49 1.09 1.09-.01.6-.49 1.09-1.1 1.09zm0 5.56H33.02c-.6 0-1.09-.49-1.09-1.09 0-.6.49-1.09 1.09-1.09h21.34c.6 0 1.09.49 1.09 1.09-.01.6-.49 1.09-1.1 1.09zm-3.79 5.56H33.02c-.6 0-1.09-.49-1.09-1.09 0-.6.49-1.09 1.09-1.09h17.54c.6 0 1.09.49 1.09 1.09 0 .61-.49 1.09-1.09 1.09zm-2.71 5.57H33.02c-.6 0-1.09-.49-1.09-1.09 0-.6.49-1.09 1.09-1.09h14.83c.6 0 1.09.49 1.09 1.09 0 .6-.49 1.09-1.09 1.09zm1.81 5.56H33.02c-.6 0-1.09-.49-1.09-1.09 0-.6.49-1.09 1.09-1.09h16.64c.6 0 1.09.49 1.09 1.09 0 .6-.49 1.09-1.09 1.09zm10.98.1a1.09 1.09 0 01-.77-1.86 1.08 1.08 0 011.54 0c.42.42.42 1.11 0 1.54-.21.22-.49.32-.77.32z"/><path d="M61.43 69.32H25.94c-.6 0-1.09-.49-1.09-1.09V23.57c0-.6.49-1.09 1.09-1.09h5.35c.6 0 1.09.49 1.09 1.09v1.05h22.6v-1.05c0-.6.49-1.09 1.09-1.09h5.35c.6 0 1.09.49 1.09 1.09V48.3c0 .47-.3.89-.75 1.04-.45.14-.94-.02-1.22-.4-.2-.28-.43-.55-.67-.79-2.5-2.5-6.58-2.5-9.08 0a6.37 6.37 0 00-1.88 4.53c0 1.71.67 3.32 1.88 4.54a6.41 6.41 0 007.47 1.17c.42-.21.93-.13 1.26.2l2.68 2.68c.2.21.32.48.32.77v6.21c0 .59-.49 1.07-1.09 1.07zm-34.4-2.17h33.31v-4.67l-1.83-1.83a8.572 8.572 0 01-9.26-1.9 8.548 8.548 0 01-2.52-6.08 8.5 8.5 0 012.52-6.07 8.619 8.619 0 0111.09-.91V24.65h-3.18v1.05c0 .6-.49 1.09-1.09 1.09H31.3c-.6 0-1.09-.49-1.09-1.09v-1.05h-3.18v42.5z"/><path d="M66.28 74.08H21.09c-.6 0-1.09-.49-1.09-1.09V18.03c0-.6.49-1.09 1.09-1.09H31.3c.6 0 1.09.49 1.09 1.09v6.59h22.6v-6.59c0-.6.49-1.09 1.09-1.09h10.21c.6 0 1.09.49 1.09 1.09v9.75c0 .6-.49 1.09-1.09 1.09-.6 0-1.09-.49-1.09-1.09v-8.66h-8.03v6.59c0 .6-.49 1.09-1.09 1.09H31.3c-.6 0-1.09-.49-1.09-1.09v-6.59h-8.03V71.9H65.2v-4.58l-6.68-6.67a8.572 8.572 0 01-9.26-1.9 8.548 8.548 0 01-2.52-6.08 8.5 8.5 0 012.52-6.07c3.36-3.35 8.81-3.35 12.16 0a8.54 8.54 0 011.91 9.25l1.88 1.88V45.9c0-.6.49-1.09 1.09-1.09.6 0 1.09.49 1.09 1.09v14.45c0 .44-.26.84-.67 1.01-.41.17-.87.08-1.19-.24l-4.27-4.26c-.33-.33-.41-.84-.2-1.27a6.38 6.38 0 00-1.18-7.45c-2.5-2.5-6.58-2.5-9.08 0a6.37 6.37 0 00-1.88 4.53c0 1.71.67 3.32 1.88 4.54a6.41 6.41 0 007.47 1.17c.42-.21.93-.13 1.26.2l7.2 7.19c.05.05.11.1.18.14.3.2.47.54.47.9v6.18c-.01.6-.49 1.09-1.1 1.09z"/><path d="M66.28 46.99c-.6 0-1.09-.49-1.09-1.09v-3.26c0-.6.49-1.09 1.09-1.09.6 0 1.09.49 1.09 1.09v3.26c0 .6-.48 1.09-1.09 1.09zm0-7.13c-.6 0-1.09-.49-1.09-1.09V34.9c0-.6.49-1.09 1.09-1.09.6 0 1.09.49 1.09 1.09v3.87c0 .6-.48 1.09-1.09 1.09zm0-7.73c-.6 0-1.09-.49-1.09-1.09v-3.26c0-.6.49-1.09 1.09-1.09.6 0 1.09.49 1.09 1.09v3.26c0 .6-.48 1.09-1.09 1.09z"/></g><defs><clipPath id="clip0"><path fill="#fff" transform="translate(20 9)" d="M0 0h50.98v65.08H0z"/></clipPath></defs></svg>