<svg width="1920" height="1368" fill="none" xmlns="http://www.w3.org/2000/svg"><g clip-path="url(#clip0)"><path transform="translate(-146)" fill="url(#paint0_linear)" d="M0 0h2305v1368H0z"/><path d="M1472.78 298.85l254.59 68.9s6.7 2.403 9.45 2.054c0 0-2.6 9.3 5.5 11.703 8.09 2.403 164.18 63.63 164.18 63.63s8.76 3.797 17.36-3.255c3.6-2.597 15.64 7.75 15.64 7.75s2.75 1.899 3.26-2.054c.5-3.953 2.59-20.112 2.59-20.112l17.7 5.852s2.91-.155 2.91-2.752c0-2.596 3.45-30.458 3.45-30.458s5.15-6.549 2.9-12.905c0 0 3.25-9.3-9.1-11.857-12.4-2.597-10.77-2.054-10.77-2.054s1.7-9.456-5.34-11.393c-7.05-1.938-25.76-11.781-30.6-10.269 0 0-1.71-2.558-5.15-3.759-3.41-1.163-53.26-21.507-53.26-21.507s-1.59-9.417-14.76-6.627c0 0-20.1-7.595-23.01-11.238-2.9-3.642-6.62-9.842-17.54-6.316 0 0-15.49-6.51-18.94-8.332-3.41-1.821-10.38-6.626-19.56 1.938 0 0-9.61-5.154-10.69-7.401-1.09-2.248-8.68-1.706-13.25 5.89l-296.38-84.672s-.54-14.338-10.03-9.106c-9.45 5.231-14.49 30.381-14.68 36.813-.23 6.433-.97 17.516-.97 17.516s-.31 2.286 7.09.969l50.93 15.229s2.72.31 2.06 4.456c-.66 4.147-6.08 16.121-8.49 18.175-2.44 2.092.7 4.572 2.91 5.192zm604.38 639.165l-3.1-10.501c-1.36-1.512-1.98.426-1.98.426l.28 9.765-1.94.349-1.78-.814.27-4.069c.42-3.991-4.38-5.502-4.38-5.502l-.46-1.241-9.69-10.579-1.93-.426-40.48-42.278s.35-.968.97-2.906c.58-1.976-1.39-2.984-2.48-3.061-1.08-.078-5.69-.504-5.69-.504s-1.05-1.511.69-1.279c1.75.194 3.49-.194 6.16-.62 2.68-.426 4.65-2.674 6.47-2.79 1.86-.116 1.24.93 2.17 2.984.93 2.054-.12 5.968-.12 8.758 0 2.79 3.49 3.797 5.35 1.937 1.86-1.86-1.43-10.385-1.43-10.385s-3.18-5.038-1.36-5.464c1.82-.426.5-.814 2.36-2.868 1.86-2.054 1.13-3.914 2.87-5.967 1.74-2.054 12.47-10.928 14.41-11.626 1.93-.736 5.27 1.046 7.51-1.24 2.25-2.247 2.79-8.641 3.1-11.431.31-2.791-2.25-4.728.81-7.402 3.1-2.674.93-6.588-1.12-8.952-2.05-2.363-2.48-2.247-2.17-4.727.31-2.48.31-7.324-2.36-9.378-2.67-2.054-2.48-8.564-2.36-10.928.11-2.364-2.79-5.27-4.03-7.711-1.24-2.48.11-3.914-.62-7.014-.74-3.1-5.35-3.721-5.93-6.162-.58-2.48-2.32-6.898-5.3-8.641-2.99-1.744-9.18-10.386-12.36-12.788-3.18-2.364-3.1-4.534-3.1-4.534l2.48-2.558 9.18-1.24c16.77-2.054 5.27-17.826 5.27-17.826s10.69-30.691-10.19-42.432c-20.91-11.742-38.92 8.641-38.92 8.641-22.12-3.294-11.86 13.176-11.86 15.036 0 1.86-9.99 15.229-14.21 15.772-4.22.503-12.98 8.254-14.53 11.121-1.55 2.868-8.87 7.944-13.28 10.076-4.42 2.17-11.31 7.827-11.31 7.827s-25.84-14.221-26.34-13.911c0-2.558-4.41-5.852-7.01-6.898-2.56-1.046-3.8.814-3.8.814s-16.96-7.363-30.4-13.951l-104.07-102.032c-.66-3.216-3.41-3.643-3.41-3.643l-3.33-2.984c.31-2.906-3.1-2.363-3.1-2.363l-14.76-14.997v-1.163l-5.89-5.231-6.12 5.735 5.27 5.503h1.51l15.26 16.082c-.23 3.293 2.95 3.41 2.95 3.41l3.87 3.642c-.12 2.945 2.59 2.48 2.59 2.48l82.62 85.718-7.24 4.496c-1.86.62-1.24 3.1-1.24 3.1v4.03s-4.03 5.464-10.23 18.445c-6.23 12.982 4.81 19.454 5.12 19.454l56.93 44.215 16.73 10.928.51 14.338-3.6 10.424-4.77 5.154-22.54 20.305 20.41 23.988s10.07 9.804 17.01 10.462c6.93.62 12.74-3.72 12.51-3.991-.24-.271-.08-3.216 2.4-5.076 2.48-1.86.93-9.882.93-9.882 3.02-1.279 2.05-5.774 1.97-6.782-.08-1.046.78-2.131 1.98-5.425 1.2-3.255 4.57-7.982 5.77-10.656 1.2-2.674 4.99-12.401 4.99-12.401 2.68 7.673 12.63 11.006 12.63 11.006s-.31 2.983-.73 5.425c-.43 2.441-3.1 9.765-3.18 11.897-.08 2.131-4.14 15.849-5.85 19.453-1.7 3.604-3.17 22.32-3.17 25.924 0 3.604-3.92 5.115-5.54 9.262-1.59 4.146-6.16 3.294-9.57 4.573-3.41 1.278-5 13.059-5 13.059-3.29 1.899-8.05 9.998-8.29 12.633-.19 2.674-2.75 6.394-2.75 6.394l-1.58 30.032 4.14 12.323 6.47.426 6.04-3.41 3.76-4.301 4.53-1.24 2.32-1.705.74-3.411-.31-3.603 4.45-.311 1.9-1.588.62-6.394s.74-.853 1.05-1.047c.31-.193.19-5.308.19-5.308l-.81-3.643c2.32-1.124 2.24-1.55 3.52-3.178 1.28-1.589 8.41-5.58 11.04-7.363 2.67-1.782 2.83-1.976 4.18-4.727 1.36-2.751 8.33-8.487 12.01-11.044 3.68-2.558 1.78-3.1 2.91-5.387 1.12-2.286 6.7-6.859 9.6-9.843 2.91-2.983 2.05-1.705 4.53-3.332 2.48-1.628.51-6.782.16-12.788-.35-6.007-1.05-4.302-.27-7.285.77-2.984 8.91-7.983 8.91-7.983s-2.91 14.725-2.91 14.997c0 .271-1.35 7.13 4.11 7.014 5.5-.078 5.5-4.379 5.5-4.379l.5-21.469c.04.078.31.039 1.28-.891 1.55-1.472 1.28-1.201 2.67-4.107 1.36-2.907 7.36-6.356 7.36-6.356l47.72 49.137.15 1.356 9.14 9.959 2.83.194-.08 1.318 1.59 3.022 2.75 2.403 2.25-.891s-.82 3.371.15 6.316 3.72 1.434 3.72 1.434 7.01-4.728 8.37-6.045c1.51-1.24.89-2.713.89-2.713zm-192.54-148.534c-1.16.853-30.29-19.53-30.29-19.53l5.93-32.242 14.99 15.54.23 2.557 2.63 2.635 1.28 4.341 2.52 2.325s0 6.239 2.94 7.401c2.95 1.163-.19 12.129-.19 12.129s1.12 4.03-.04 4.844zm4.96-47.78l-5.15-1.473-1.94.93-15.03-14.764 9.07 4.96.85 2.519 4.76 3.178 4.84.736 4.77 2.325 1.7 2.635-3.87-1.046zm31.95 76.495l-.85-2.325.85-1.744c.51-.077 5.04 4.767 5.04 4.767s-2.25-.737-4.34.93l-.7-1.628zm11.97 20.422c-7.01-1.163-9.88-8.603-9.88-8.603 4.77-2.596 4.03-5.929 4.03-5.929 2.17.233 3.76 2.093 3.76 2.093s-.43 5.27 1.43 6.859c1.82 1.55.66 5.58.66 5.58zm8.95-74.209l-.85-.814-.74-3.255 3.83-.426.66 3.681-2.9.814zm39.93 142.566c-2.32 1.512-5.11-.736-4.34-2.247.74-1.512 1.13-2.48 4.34-2.248 0 0 2.32 2.984 0 4.495z" fill="#DBDBDB"/><path d="M2067.17 1208.65h-1.48c.78-3.06-.54-4.45-.54-4.45h-5.07c-.08-1.94-1.75-3.06-1.75-3.06 1.05-1.55 0-3.49 0-3.49s-8.44-14.42-9.45-16.55c-.54-1.12-1.66-2.48-3.75-3.02l-60.66-126.14c.51-.19 1.05-.38 1.71-.58 4.41-1.39 3.33-5.69 0-6.86-3.33-1.16-3.49 2.13-3.49 2.13l-.54.47-.16-.35c2.52-3.95 2.29-8.06 2.29-8.06l-.66-.31c-.66-9.65-5.38-10.97-5.38-10.97s-4.61-6.97-5.39-8.6c-.73-1.63-.31-3.76-2.67-5.46-1.63-1.17-2.91.27-3.64 1.32l-189.67-394.571c.85-1.938 0-3.837 0-3.837l-3.8-8.835a4.584 4.584 0 001.16-2.48l72.59 39.565-3.3 8.409s5.74 21.236 14.57 19.376c8.87-1.86 10.03-5.115 10.03-5.115l.35 3.022c-1.63 3.139.46 6.317.46 6.317-1.39 3.022.35 7.479.35 7.479s-.93 2.209-.46 5.348c.46 3.138 5.38 2.325 5.38 2.325 5.11-3.372 3.84-9.921 3.84-9.921 1.74-2.325-.47-5.735-.47-5.735 1.4-2.209.58-4.301.58-4.301 2.44-.349 5.5-3.255 5.5-3.255l3.37 1.278s.12 6.782 3.6 7.014c3.49.233 2.1-4.999 2.1-4.999s4.14.117 3.71 4.186c-.42 4.068 7.83 7.13 11.55 8.874 3.71 1.743 5.5-1.86 5.5-1.86.54-.388 1.04-.776 1.54-1.202l95.56 52.043c2.21 2.325 8.52 4.922 17.93.775 9.41-4.146-5.81-12.904-5.81-12.904l-101.01-53.787 2.2-2.441.47-2.674s3.49 2.209 8.17.698c4.65-1.512-1.74-7.014-1.74-7.014.7-2.093-3.02-5.348-6.66-4.883-3.61.465-1.63 4.534-1.63 4.534s-3.6-3.604-6.08-4.069c-2.44-.465-4.3 2.558-4.3 2.558l-2.44-.349c-3.95-3.372-6.08 1.744-6.08 1.744a8.65 8.65 0 00-2.98.658l-27.46-14.609c-.35-1.705-.93-3.914-1.86-6.588-2.41-6.859-17.98-7.595-17.98-7.595l-1.16 2.984-85.71-45.649c-.43-.93-.82-1.356-.82-1.356l-6.15-2.984c.5-3.875-2.17-8.177-3.18-10.347-1.01-2.17-7.75-3.294-15.42-.697-7.66 2.596-2.4 12.943-2.4 12.943-4.68 11.547 8.83 20.383 8.83 20.383 1.2 5.851 5.66 5.967 5.66 5.967 1.2 2.868 6.54 3.992 6.54 3.992s.2 1.782 2.68 7.246c.58 1.318 1.51 2.17 2.55 2.713l189.95 398.716c-.47.15-.86.31-1.2.38-3.45.74-5.89 4.5-6.24 4.62-.35.11-9.45-4.62-9.45-4.62.23-.96-.66-2.79-.66-2.79-2.05-3.64-7.28-1.27-9.76-1.39-2.48-.12-3.1-3.53-6.55-4.19-3.44-.66-7.2 1.83-7.2 1.83.85-2.06-.12-3.53-.12-3.53 2.25-3.53-.23-6.98-.23-6.98 1.09-2.55-.31-6.972-.31-6.972.12-3.991-5.81-4.611-5.81-4.611 1.71-1.511 1.09-3.139 1.09-3.139-.31-6.161-15.53 0-15.53 0l-65.15 13.642s-3.49 2.67-3.64 6.04c0 0-4.77 6.17-2.95 9.38 0 0 .27 2.95-2.51 2.68h-1.67v-3.38l-5.62-4.34s-2.4-2.24-4.76 2.1c-2.4 4.34-1.55 7.98-1.55 7.98h-6.43v-2.09l-4.76-.16v2.25h-1.98v4.34h1.98v2.09h4.22v-1.66l7.43.42.7 5.74s.97 7.01 6.59 3.48c5.61-3.48 2.09-7.01 4.61-7.28 2.51-.27 0 4.49 2.78 3.8 2.79-.7.35-1.51 3.65-1.98 3.29-.46 9.52.7 9.95.7.43 0 59.49 2.32 59.49 2.32s2.48.08 6.35-1.66c3.88-1.79 8.41-1.79 8.41-1.79-2.4 5.47 1.51 8.57.89 8.49a8.32 8.32 0 00.66 8.57c-.16.38-.39 1.24-.85 2.9-1.32 4.96 4.95 9.3 7.82 6.09 2.87-3.18 0-7.6 0-7.6 1.55-1.94 0-4.26 0-4.26 2.6-3.88 0-7.09 0-7.09 1.36-2.41 0-4.23 0-4.23l3.8-.93h3.91c2.86 3.57 7.59.7 7.59.7l12.67.58 1.51 3.57c-4.61 1.62-3.26 5.3-3.26 5.3s-11.93-3.13-8.91 3.14c3.03 6.28 11.51 2.29 11.51 2.29 3.25 2.95 12.24 2.29 12.24 2.29-.66 1.31.11 3.68.11 3.68-3.37 1.08-2.17 4.03-2.17 4.03-3.68 2.83-3.06 6.2-3.06 6.2-2.51 3.72.12 8.21 2.91 11.47l-78.63 266.69 4.84 2.05 78.51-263.74 25.45 70.49v.96s3.91 17.02 4.46 19.81c.5 2.83 3.29 2.59 3.29 2.59h4.26c.08 2.25 1.32 2.52 1.32 2.52l5.81.08c.69 1.82 7.66 5.04 7.66 5.04-.73 6.08.47 11.89.47 11.89-6.2 7.25.77 12.64.77 12.64.62 13.6 18.83 11.35 18.83 11.35l15.06-.27c4.81 3.41 8.99 0 8.99 0h9.49c4.69-5.89 1.36-11.63 1.36-11.63zm-79.06-60.49l-21.34-60.76s2.83 2.33 5.54 2.13l19.71 54.68-3.91 3.95zm8.64-12.32l-1.47 2.13-16.89-51.92 1.67-3.03 17.27 42.82-.58 10zm7.94-4.84l.54-3.99 1.09 3.99c-1.09-.55-1.63 0-1.63 0zm16.38 34.21l1.28-1.51 1.28 4.42c-1.59-.46-2.4-.23-2.59-.23v-2.68h.03zm8.99 40.73c-1.94.08-1.67 1.82-1.67 1.82l-.07 8.26s1.12 1.04-4.65.38c-5.77-.65-5.27-7.05-5.27-7.05 8.45-.97 6.51-10.46 6.51-10.46 3.17.08 9.02 7.05 8.75 7.13-.31.04-1.66-.16-3.6-.08zm9.57-1.74c-.35 0-.58 1.28-.58 1.28-1.05-3.68-14.22-11.01-14.22-11.01s-1.59-6.55-3.33-8.72c-1.7-2.17-.81-7.9-.81-7.9 1.51-1.17 4.02-3.26 6.08-5l5.11 10.73c-1.55 2.68-.62 5.08-.62 5.08s8.72 15.54 8.37 15.54z" fill="#DBDBDB"/><path d="M1909.45 895.582c-2.83-5.929-8.56-5.464-11.85-5.154-3.26.349-14.57 6.162-18.21 6.317-3.64.155-7.13-3.023-7.13-3.023s-7.39-10.308-10.41-13.175c-3.03-2.868-10.89-13.602-13.75-15.888-2.87-2.287-5.31-6.666-5.89-8.758-.58-2.093-5.73-11.664-9.68-14.571-3.96-2.906-10.31-15.229-12.4-18.096-2.13-2.868-5-3.178-6.82-6.433-1.82-3.255-9.68-11.587-11.03-14.764-1.36-3.178-1.36-6.666-2.29-7.712-.89-1.046-1.51-2.286-1.05-6.51.47-4.224-1.04-4.689-.31-8.022.78-3.332-3.79-8.913-5.88-10.424-2.09-1.511-9.69-7.711-11.2-11.935-1.51-4.224-7.32-12.711-7.32-12.711l6.55-.348c6.97 6.548 8.68 0 8.68 0h30.4v-13.06h-33.77c-5.97-5.619-8.45 0-8.45 0s-6.43-.232-8.91-.038c-2.48.232-2.13-1.124-2.82-3.139-.66-2.015-3.84-5.542-6.55-6.549-2.71-1.008-5.62-9.339-6.43-10.734-.77-1.357.23-4.263 1.82-5.619 1.59-1.357-8.56-7.557-8.56-7.557l-.77-2.247 1-1.473c2.48 1.24 5.19 1.124 5.19 1.124 3.84 3.255 8.56 0 8.56 0 3.37 1.24 8.21-2.597 8.21-2.597s.24 1.822.24 3.488c0 1.705 3.95-.581 3.95-.581l3.72-3.604s5.19 5.541 8.79 6.433c3.6.891 6.2-.892 6.2-.892s69.95 12.943 72.89 13.408c2.94.465 2.36-.891 2.36-.891v-5.193c0-1.123-1-1.627-1-1.627l-76.81-14.842s-1.47-.891-2.71-2.713c-1.24-1.821-6.97-2.015-8.68-2.015-1.7 0-1.12.892-3.72-.775-2.59-1.705-6.31 0-6.31 0-.46-1.123-4.3-2.48-7.32-2.712-3.06-.233-6.55 2.712-6.55 2.712-5.53-7.982-15.26-6.975-15.26-6.975l-2.2-1.24-11.39-2.712s-.89-1.822-1.9-4.961c-1.01-3.139-.46-8.447-4.84-12.943-4.38-4.495-5.62-1.24-8.44-3.371-2.83-2.131-1.01-5.735-2.95-8.68-1.94-2.945-1.24-4.495-1.59-9.456-.35-4.96-2.13-9.029-2.13-12.749 0-3.72-8.21-9.145-8.91-12.749-.65-3.604-6.19-5.076-9.14-6.316-2.94-1.241-6.08-3.256-9.45-6.201-3.37-2.945-7.98-3.061-7.98-3.061 5.85-5.309 7.09-16.121 7.09-16.121 22.74 0 3.26-13.756 3.26-13.756 1.35-30.188-15.88-33.598-15.88-33.598-.78-2.247-2.13-3.836-10.93-4.185-8.79-.349-9.8 3.371-9.8 3.371-19.25 2.132-18.94 27.475-19.25 27.63-3.29 1.318-5.73 2.519-7.51 3.682-.16-.582-.39-.931-.66-1.008-.35-.078-.89-.233-1.59-.426l-1.82-14.765 2.68 1.55 2.98.272 3.1-3.41 1-3.255-4.37.852 1.55-2.248.42-1.976-4.68-3.41-4.27-3.526s-3.4-5.232-9.76-.582l-1 1.977 1.12 8.37 1.98.581 1.74 16.005c-1.59-.969-3.49-1.822-4.84-1.395-2.68.852-4.96 3.681-3.68 4.805 1.28 1.124 1.7-.272 2.4 0 .7.271 2.13-.853 3.83-.155.78.31 1.98.852 2.83 1.356l.16 1.473c-2.56.426-2.99-1.279-4.69-1.124-1.7.155-4.8 1.124-2.56 3.952 1.9 2.364 5.04 5.038 8.18 5.813l4.1 37.55c-.27.155-.54.271-.77.271-3.53.427-12.17 8.797-15.73 12.595-3.52 3.836-.7 3.952-1.28 8.796-.58 4.805-.69 16.702.16 21.662.85 4.96-1.13 3.953-2.25 8.797-1.12 4.805 0 16.159.16 21.235.15 5.077-.7 2.674-2.25 5.658-1.55 2.984-2.98 6.51.58 8.215 3.53 1.706 2.98 5.542 2.98 5.542s1.13 1.976 1.44 4.611c.31 2.635-.58 4.844.15 9.107.7 4.263 5.11 5.115 9.06 7.518 3.96 2.402 5.39 15.849 5.39 15.849s3.25 5.658 2.98 10.075c-.27 4.418-1.28 1.279-4.1 4.108-2.83 2.829-3.1-.271-4.38 3.1-1.28 3.41-1.12 2.558-2.67 6.51-1.55 3.953-.86 1.705-1.01 4.263-.16 2.558 2.67 1.705 4.8.155s3.53-5.115 5.81-9.068c2.25-3.952 7.79-8.641 7.79-8.641 1.97 14.028 12.04 12.051 12.04 12.051l5.23 50.842s-.7 1.124-1.55 2.558c-.85 1.433-.27 1.86-.15 4.689.15 2.828 3.52 4.96 7.36 6.083 3.83 1.124 6.93-3.526 8.05-6.51 1.13-2.984-3.41-8.06-3.83-8.06-.43 0-4.96-52.121-4.8-53.709.15-1.55 2.98-3.1 6.23-6.511 3.25-3.41.27-2.131-.85-4.107-1.12-1.977 1.7-2.829 1.55-4.96-.16-2.132-3.53-5.116-6.51-6.239-2.98-1.124-1.86-3.682-1.43-4.534.42-.853 2.83-.853 2.83-.853l1.97 2.829s3.1 2.131 4.96 1.86c1.86-.271 5.81 2.984 5.81 2.984s.35 12.517 3.06 14.105c2.71 1.589 3.02-.503 3.02-.503l-.19-6.201s.62 1.512 2.4 2.209c1.82.698-.12 2.713-.12 2.713l1.59 2.209s.12 1.588-1.01 3.914c-1.08 2.286 2.52 2.596 2.21 4.805-.31 2.209 2.98 7.518 2.98 7.518s1.2 1.898 4.3 2.79c3.1.891 1.32 3.72 3.72 6.006 2.4 2.286 4.69 9.92 7.4 11.819 2.71 1.899 7.4 11.238 8.71 13.021 1.32 1.821-.11 2.596 0 4.495.12 1.899 1.71 5.696 3.72 6.123 2.02.387 1.59 1.898 3.02 3.41 1.4 1.511 1.32 5.115 2.52 7.827 1.2 2.713 5.31 9.107 6.82 11.122 1.51 2.015 16.73 12.633 18.94 13.021 2.2.387 1.39 1.085 2.01 3.1.62 2.015 1.2 4.417 3.02 5.929 1.82 1.511 4.61 8.215 7.32 9.61 2.71 1.395 11.51 15.423 13.71 20.926 2.21 5.502 26.85 19.918 27.74 24.025.89 4.108 2.78 7.402 2.78 7.402s4.61 5.503 6.82 7.13c2.21 1.589 4.42 6.704 4.8 7.596.39.891-.69 1.085-1.08 2.79-.39 1.705-2.01 3.1-2.79 4.301-.77 1.201-.89 1.899-.7 3.798.2 1.898 2.29.697 3.61-.388 1.31-1.085 1.58-2.015 2.2-.62.62 1.395-.62 2.403.2 3.914.81 1.511.38 1.705 1.08 4.301.7 2.597 2.29 2.209 3.1 3.604s.19 3.217.5 5.193c.31 2.015-4.61 8.022-7.39 12.207-2.79 4.224-3.02 11.121 2.28 13.911 5.31 2.79 23.05-4.999 24.33-6.51 1.31-1.511 5.92-8.525 6.39-9.223.5-.697 3.6-.62 5.11-1.085 1.51-.503 4.3-2.712 5-3.41.69-.697-.12-2.519-.12-2.519s3.02-2.286 5.42-4.107c2.4-1.822.7-6.511.7-9.107 0-2.596-3.22-7.828-3.22-7.828l-.31-5.192c.2-4.496-4.91-5.929-4.91-5.929s-6.9-11.238-8.53-12.633c-1.58-1.395-6.39-6.394-7.2-7.712-.81-1.317-.97-3.255-.97-3.255.31-3.41-1.04-10.075-1.04-10.075l8.75 11.664c.62 1.976 3.18.93 3.18.93l8.01-4.573c-.89 1.667.78 4.379 3.18 5.309 2.4.892 1.04 2.287.15 4.689-.89 2.403 2.87 5.309 2.87 5.309s1.36 3.488 2.29 5.735c.89 2.287 2.28 5.464 2.28 9.223 0 3.798 2.87 6.355 4.22 7.13 1.36.775 6.35-.62 7.56-1.356 1.2-.775 12.7-7.13 15.57-10.153 2.86-3.022 10.41-6.975 18.43-11.509 7.94-4.34 20.72-15.772 17.86-21.701zm-150.13-210.691c1.59-.852 3.72.736 4.84 2.325 1.13 1.589-3.79 2.403-3.79 2.403s-2.4-1.744-3.1-2.48c-.7-.736.46-1.356 2.05-2.248zm-136.41-96.917c-.28 2.829-5.23 3.526-5.23 3.526s-.43.93-1.16 2.364l-3.14-25.653c.77-.078 1.24-.271 1.2-.659 3.25 1.589 7.24 2.403 7.24 2.403-.27 1.55-.58 9.494 1.43 12.168 1.9 2.712-.07 3.022-.34 5.851zm121.81 97.421s-4.22-7.828-3.95-7.867c3.79-.62 6.27 2.868 7.71 3.798 1.43.891 1.66 4.457 0 5.387-1.67.891-3.76-1.318-3.76-1.318z" fill="#DBDBDB"/><path d="M1856.93 398.093l95.55-122.726-2.67-20.538s-2.48-.736-5.85-1.744c.5-3.41-.89-6.006-.89-6.006 1.97-3.604-.66-6.898-.66-6.898 1.82-3.139-.74-7.053-.74-7.053 2.17-3.449-1-7.983-1-7.983 2.71-2.674-.82-7.983-.82-7.983 4.38-8.447-10.18-14.105-10.18-14.105 6.27-7.208-11.58-9.727-15.96-9.417-4.38.31-3.76 6.433-7.52 7.363-3.75.93-2.05-2.364-4.26.93-2.24 3.294 1.94 5.813 1.94 5.813s-2.83 1.899-5.96 6.743c-3.14 4.844-.51 9.416-.51 9.416-.97 4.069.54 6.588.54 6.588-1.82 5.309 1.51 6.898 1.51 6.898-3.6 5.657.31 8.447.31 8.447-2.51 4.844.78 7.712.78 7.712-1.82 4.534-.16 7.905 1.55 9.92-.97 5.116 2.21 8.254 4.8 9.959-20.41 26.855-54.53 71.923-90.79 119.858l-7.47-53.128-53.76 37.512 5.96 88.585c-22.93 30.304-44.31 58.553-61.04 80.719-2.67-1.395-9.06-3.991-15.26-1.162-8.17 3.72-22.85 22.553-22.85 22.553l1.66 27.513 32.65 20.694 20.53-20.926s1.59-2.093-.77-4.456l-5.08-5.154 28.39-36.465 53.73 27.513 59.57 790.995h79.2l-92.95-908.14 18.32-61.847zm-112.4 144.387l41.63-53.477 5.77 76.612-47.4-23.135zm90.59-116.409l13.4-17.206-11.23 38.287-2.17-21.081z" fill="#DBDBDB"/><path d="M1754.36 134.351l19.29 209.335 23.24-5.309-21.26-210.226-12.16-3.914-9.11 10.114z" fill="#DBDBDB"/><path d="M2157.92 305.09l-238.94-98.661L1226.56.155h6.5l686.88 203.561.04.039 239.02 98.7-1.08 2.635zm.03 158.454l-343.44-131.445L576.862 0h7.707L1815.41 329.386h.03L2159 460.87l-1.05 2.674zm.04 272.381l-508.2-179.768L-146 .153h11.504L1650.64 553.445l.04.038 508.28 179.768-.97 2.674zm-3.29-447.498l-386.59-152.254L1366.5.155h1.62l400.23 135.359 386.58 152.254-.23.659z" fill="#DBDBDB"/></g><defs><linearGradient id="paint0_linear" x1="2225" y1="715" x2="1172" y2="375" gradientUnits="userSpaceOnUse"><stop stop-color="#fff" stop-opacity="0"/><stop offset=".969" stop-color="#DBDBDB"/></linearGradient><clipPath id="clip0"><path fill="#fff" transform="translate(-146)" d="M0 0h2305v1368H0z"/></clipPath></defs></svg>