<svg width="79" height="78" fill="none" xmlns="http://www.w3.org/2000/svg"><circle cx="19.5" cy="19.5" r="19.5" fill="#8CC63F"/><g clip-path="url(#clip0)" fill="#231F20"><path d="M60.59 77.94H16V23.67h6.82v2.03h-4.79v50.21h40.53V25.7h-4.79v-2.03h6.82v54.27z"/><path d="M54.79 28.6H21.8v-9.76h8.82c.65-2.75 3.84-4.84 7.68-4.84s7.03 2.09 7.67 4.84h8.82v9.76zm-30.96-2.02h28.93v-5.72h-8.71v-1.01c0-2.07-2.64-3.82-5.76-3.82-3.12 0-5.76 1.75-5.76 3.82v1.01h-8.7v5.72z"/><path d="M39.26 18.84h-1.93v2.03h1.93v-2.03zM26.74 44.49L23 36.37l1.84-.85 1.93 4.19 3.84-8.07 1.83.87-5.7 11.98zm4.78-2.44h-1.93v2.03h1.93v-2.03zm3.87 0h-1.93v2.03h1.93v-2.03zm3.87 0h-1.93v2.03h1.93v-2.03zm3.87 0H41.2v2.03h1.93v-2.03zm3.87 0h-1.93v2.03H47v-2.03zm3.87 0h-1.93v2.03h1.93v-2.03zm3.87 0h-1.93v2.03h1.93v-2.03zM26.74 59L23 50.88l1.84-.85 1.93 4.19 3.84-8.07 1.83.87L26.74 59zm4.78-2.44h-1.93v2.03h1.93v-2.03zm3.87 0h-1.93v2.03h1.93v-2.03zm3.87 0h-1.93v2.03h1.93v-2.03zm3.87 0H41.2v2.03h1.93v-2.03zm3.87 0h-1.93v2.03H47v-2.03zm3.87 0h-1.93v2.03h1.93v-2.03zm3.87 0h-1.93v2.03h1.93v-2.03zm-28 17.3L23 65.74l1.84-.85 1.93 4.19 3.84-8.07 1.83.87-5.7 11.98zm4.78-2.44h-1.93v2.03h1.93v-2.03zm3.87 0h-1.93v2.03h1.93v-2.03zm3.87 0h-1.93v2.03h1.93v-2.03zm3.87 0H41.2v2.03h1.93v-2.03zm3.87 0h-1.93v2.03H47v-2.03zm3.87 0h-1.93v2.03h1.93v-2.03zm3.87 0h-1.93v2.03h1.93v-2.03zm18.43-3.16H63.4V27.68c0-1.68 1.36-3.04 3.04-3.04h3.68c1.68 0 3.04 1.36 3.04 3.04v40.58h.01zm-7.74-2.02h5.71V27.68c0-.56-.46-1.01-1.01-1.01h-3.68c-.56 0-1.01.46-1.01 1.01v38.56h-.01z"/><path d="M75.05 31.51v-2.03c1.04 0 1.89-.85 1.89-1.89s-.85-1.89-1.89-1.89-1.89.85-1.89 1.89h-2.03c0-2.16 1.76-3.92 3.92-3.92s3.92 1.76 3.92 3.92-1.76 3.92-3.92 3.92z"/><path d="M76.07 29.52h-2.03v20.31h2.03V29.52zM68.28 78l-4.88-8.55v-3.22h9.77v3.22L68.28 78zm-2.85-9.09l2.86 5 2.86-5v-.65h-5.71v.65h-.01z"/><path d="M69.3 75.96h-2.03v1.93h2.03v-1.93zm2.85-36.81h-7.74v2.03h7.74v-2.03zm0 13.54h-7.74v2.03h7.74v-2.03zm-2.85 2.95h-2.03v9.67h2.03v-9.67z"/></g><defs><clipPath id="clip0"><path fill="#fff" transform="translate(16 14)" d="M0 0h62.97v64H0z"/></clipPath></defs></svg>