<svg width="71" height="67" fill="none" xmlns="http://www.w3.org/2000/svg"><circle cx="19.5" cy="19.5" r="19.5" fill="#8CC63F"/><g clip-path="url(#clip0)" fill="#000"><path d="M65.29 16.24h-2.07v-1.78c0-1.36-1.11-2.46-2.46-2.46-1.36 0-2.46 1.11-2.46 2.46v1.78h-4.01v-1.78c0-1.36-1.1-2.46-2.46-2.46-1.36 0-2.46 1.11-2.46 2.46v1.78H36.54v-1.78a2.465 2.465 0 00-4.93 0v1.78h-4.05v-1.78c0-1.36-1.1-2.46-2.46-2.46-1.37 0-2.48 1.11-2.48 2.46v1.78h-2.06c-3.06 0-5.56 2.49-5.56 5.56v39.49c0 3.06 2.5 5.56 5.56 5.56h44.73c3.06 0 5.56-2.5 5.56-5.56V21.8c0-3.07-2.5-5.56-5.56-5.56zm-5.14-1.78c0-.34.27-.61.61-.61.34 0 .61.27.61.61v5.48c0 .34-.27.61-.61.61-.34 0-.61-.27-.61-.61v-5.48zm-8.94 0c0-.34.27-.61.61-.61.34 0 .61.27.61.61v5.48c0 .34-.27.61-.61.61-.34 0-.61-.27-.61-.61v-5.48zm-17.75 0c0-.34.27-.61.62-.61.33 0 .61.27.61.61v5.48c0 .34-.28.61-.62.61-.34 0-.61-.27-.61-.61v-5.48zm-8.98 0c0-.34.27-.61.61-.61.34 0 .61.27.61.61v5.48c0 .34-.27.61-.61.61-.34 0-.61-.27-.61-.61v-5.48zm44.51 46.83c0 2.04-1.66 3.71-3.71 3.71H20.56c-2.04 0-3.71-1.66-3.71-3.71V27.65h52.14v33.64zm0-35.49H16.85v-4c0-2.04 1.66-3.71 3.71-3.71h2.07v1.85c0 1.36 1.11 2.46 2.46 2.46 1.36 0 2.46-1.1 2.46-2.46v-1.85h4.05v1.85c0 1.36 1.11 2.46 2.47 2.46s2.46-1.1 2.46-2.46v-1.85h12.82v1.85c0 1.36 1.11 2.46 2.46 2.46 1.36 0 2.46-1.1 2.46-2.46v-1.85h4.01v1.85c0 1.36 1.1 2.46 2.46 2.46 1.36 0 2.46-1.1 2.46-2.46v-1.85h2.07c2.04 0 3.71 1.66 3.71 3.71v4h.01z"/><path d="M29.61 33.72h-6.74c-.51 0-.93-.41-.93-.93s.41-.93.93-.93h6.74c.51 0 .93.41.93.93s-.42.93-.93.93zm33.37 0h-6.74c-.51 0-.93-.41-.93-.93s.41-.93.93-.93h6.74c.51 0 .93.41.93.93s-.42.93-.93.93zm-16.41 0h-6.74c-.51 0-.93-.41-.93-.93s.41-.93.93-.93h6.74c.51 0 .93.41.93.93s-.42.93-.93.93zm-16.96 27.1h-6.74c-.51 0-.93-.41-.93-.93s.41-.93.93-.93h6.74c.51 0 .93.41.93.93s-.42.93-.93.93zm0-13.55h-6.74c-.51 0-.93-.41-.93-.93s.41-.93.93-.93h6.74c.51 0 .93.41.93.93s-.42.93-.93.93zm21.66-10.3c-7.04 0-12.75 5.72-12.75 12.75s5.72 12.75 12.75 12.75 12.75-5.72 12.75-12.75-5.72-12.75-12.75-12.75zm0 23.66c-6.01 0-10.9-4.89-10.9-10.9 0-6.01 4.89-10.9 10.9-10.9 6.01 0 10.9 4.89 10.9 10.9 0 6.01-4.89 10.9-10.9 10.9z"/><path d="M57.06 43.01l-4.28 5.95a1.655 1.655 0 01-.08 1.68l1.94 4.33a.93.93 0 01-.47 1.23c-.62.27-1.07-.13-1.22-.47L51 51.39c-.81-.13-1.43-.83-1.43-1.67 0-.89.69-1.63 1.57-1.69l4.4-6.11c.3-.42.88-.51 1.29-.21.43.31.52.89.23 1.3z"/></g><defs><clipPath id="clip0"><path fill="#fff" transform="translate(15 12)" d="M0 0h55.85v54.85H0z"/></clipPath></defs></svg>